v 0.01799999952 0.04449999809 0.4003767568
v 0.01929903865 0.04449999809 0.3996267492
v 0.01929903865 0.04449999809 0.398126753
v 0.01799999952 0.04449999809 0.3973767549
v 0.01670096159 0.04449999809 0.398126753
v 0.01670096159 0.04449999809 0.3996267492
v 0.01799999952 0.03849999905 0.4003767568
v 0.01693933964 0.03849999905 0.3999374086
v 0.01649999976 0.03849999905 0.3988767511
v 0.01693933964 0.03849999905 0.3978160936
v 0.01799999952 0.03849999905 0.3973767549
v 0.0190606606 0.03849999905 0.3978160936
v 0.01950000048 0.03849999905 0.3988767511
v 0.0190606606 0.03849999905 0.3999374086
v 0.01799999952 0.03849999905 0.4003767568
v 0.01799999952 0.04449999809 0.4003767568
v 0.01799999952 0.03849999905 0.4003767568
v 0.0190606606 0.03849999905 0.3999374086
v 0.01950000048 0.03849999905 0.3988767511
v 0.0190606606 0.03849999905 0.3978160936
v 0.01799999952 0.03849999905 0.3973767549
v 0.01693933964 0.03849999905 0.3978160936
v 0.01649999976 0.03849999905 0.3988767511
v 0.01693933964 0.03849999905 0.3999374086
v 0.01799999952 0.03849999905 0.4001267511
v 0.01711611629 0.03849999905 0.3997606355
v 0.01674999952 0.03849999905 0.3988767511
v 0.01711611629 0.03849999905 0.3979928667
v 0.01799999952 0.03849999905 0.3976267511
v 0.01888388395 0.03849999905 0.3979928667
v 0.01924999952 0.03849999905 0.3988767511
v 0.01888388395 0.03849999905 0.3997606355
f 2 14 1
f 1 14 15
f 16 7 8
f 14 2 13
f 13 2 3
f 13 3 12
f 12 3 4
f 12 4 11
f 11 4 10
f 10 4 5
f 10 5 9
f 9 5 6
f 9 6 8
f 8 6 16
f 18 32 17
f 17 32 25
f 17 25 24
f 24 25 26
f 24 26 27
f 32 18 31
f 31 18 19
f 31 19 20
f 31 20 30
f 30 20 21
f 30 21 29
f 29 21 28
f 28 21 22
f 28 22 27
f 27 22 23
f 27 23 24
