v 0.2225 -0.17 0.02279999971
v 0.2232322311 -0.1717677689 0.02279999971
v 0.225 -0.1725 0.02279999971
v 0.2267677689 -0.1717677689 0.02279999971
v 0.2275 -0.17 0.02279999971
v 0.2267677689 -0.1682322311 0.02279999971
v 0.225 -0.1675 0.02279999971
v 0.2232322311 -0.1682322311 0.02279999971
v 0.2207500076 -0.17 0.006800000072
v 0.2215616798 -0.1675019073 0.006800000072
v 0.223686676 -0.165958004 0.006800000072
v 0.226313324 -0.165958004 0.006800000072
v 0.2284383202 -0.1675019073 0.006800000072
v 0.2292499924 -0.17 0.006800000072
v 0.2284383202 -0.1724980927 0.006800000072
v 0.226313324 -0.174041996 0.006800000072
v 0.223686676 -0.174041996 0.006800000072
v 0.2215616798 -0.1724980927 0.006800000072
v 0.2207500076 -0.17 0.001800000072
v 0.2215616798 -0.1724980927 0.001800000072
v 0.223686676 -0.174041996 0.001800000072
v 0.226313324 -0.174041996 0.001800000072
v 0.2284383202 -0.1724980927 0.001800000072
v 0.2292499924 -0.17 0.001800000072
v 0.2284383202 -0.1675019073 0.001800000072
v 0.226313324 -0.165958004 0.001800000072
v 0.223686676 -0.165958004 0.001800000072
v 0.2215616798 -0.1675019073 0.001800000072
v 0.2207500076 -0.17 0.001800000072
v 0.2207500076 -0.17 0.006800000072
v 0.2207500076 -0.17 0.006800000072
v 0.2215616798 -0.1724980927 0.006800000072
v 0.223686676 -0.174041996 0.006800000072
v 0.226313324 -0.174041996 0.006800000072
v 0.2284383202 -0.1724980927 0.006800000072
v 0.2292499924 -0.17 0.006800000072
v 0.2284383202 -0.1675019073 0.006800000072
v 0.226313324 -0.165958004 0.006800000072
v 0.223686676 -0.165958004 0.006800000072
v 0.2215616798 -0.1675019073 0.006800000072
v 0.2225 -0.17 0.006800000072
v 0.2232322311 -0.1682322311 0.006800000072
v 0.225 -0.1675 0.006800000072
v 0.2267677689 -0.1682322311 0.006800000072
v 0.2275 -0.17 0.006800000072
v 0.2267677689 -0.1717677689 0.006800000072
v 0.225 -0.1725 0.006800000072
v 0.2232322311 -0.1717677689 0.006800000072
v 0.2207500076 -0.17 0.001800000072
v 0.2215616798 -0.1675019073 0.001800000072
v 0.223686676 -0.165958004 0.001800000072
v 0.226313324 -0.165958004 0.001800000072
v 0.2284383202 -0.1675019073 0.001800000072
v 0.2292499924 -0.17 0.001800000072
v 0.2284383202 -0.1724980927 0.001800000072
v 0.226313324 -0.174041996 0.001800000072
v 0.223686676 -0.174041996 0.001800000072
v 0.2215616798 -0.1724980927 0.001800000072
v 0.2225 -0.17 0.02279999971
v 0.2232322311 -0.1682322311 0.02279999971
v 0.225 -0.1675 0.02279999971
v 0.2267677689 -0.1682322311 0.02279999971
v 0.2275 -0.17 0.02279999971
v 0.2267677689 -0.1717677689 0.02279999971
v 0.225 -0.1725 0.02279999971
v 0.2232322311 -0.1717677689 0.02279999971
v 0.2225 -0.17 0.006800000072
v 0.2232322311 -0.1717677689 0.006800000072
v 0.225 -0.1725 0.006800000072
v 0.2267677689 -0.1717677689 0.006800000072
v 0.2275 -0.17 0.006800000072
v 0.2267677689 -0.1682322311 0.006800000072
v 0.225 -0.1675 0.006800000072
v 0.2232322311 -0.1682322311 0.006800000072
v 0.2225 -0.17 0.006800000072
v 0.2225 -0.17 0.02279999971
f 2 4 1
f 1 4 5
f 1 5 8
f 8 5 6
f 8 6 7
f 2 3 4
f 10 28 9
f 9 28 29
f 30 19 18
f 18 19 20
f 18 20 17
f 17 20 21
f 17 21 16
f 16 21 22
f 16 22 15
f 15 22 23
f 15 23 14
f 14 23 24
f 14 24 13
f 13 24 25
f 13 25 12
f 12 25 26
f 12 26 11
f 11 26 27
f 11 27 10
f 10 27 28
f 40 31 41
f 41 31 32
f 41 32 48
f 48 32 33
f 48 33 47
f 47 33 34
f 47 34 46
f 46 34 35
f 46 35 45
f 45 35 36
f 45 36 37
f 45 37 44
f 44 37 38
f 44 38 43
f 43 38 39
f 43 39 42
f 42 39 40
f 42 40 41
f 50 53 49
f 49 53 54
f 49 54 58
f 58 54 55
f 58 55 57
f 57 55 56
f 51 52 50
f 50 52 53
f 60 74 59
f 59 74 75
f 76 67 66
f 66 67 68
f 66 68 69
f 60 61 74
f 74 61 73
f 73 61 62
f 73 62 72
f 72 62 63
f 72 63 71
f 71 63 64
f 71 64 70
f 70 64 65
f 70 65 69
f 69 65 66
