v 0.03749240398 0.03769999981 0.4341178018
v 0.03749015093 0.03769999981 0.4341172105
v 0.03748849869 0.03769999981 0.4341188509
v 0.03748980045 0.03769999981 0.4341185075
v 0.03749110222 0.03769999981 0.4341181642
v 0.03748849869 0.03769999981 0.4341188509
v 0.03749015093 0.03769999981 0.4341172105
v 0.03749015093 0.03900000095 0.4341172105
v 0.03642902136 0.03900000095 0.4351783449
v 0.03642902136 0.03769999981 0.4351783449
v 0.03643114328 0.03769999981 0.4351762087
v 0.03681945562 0.03769999981 0.4366280061
v 0.03681816578 0.03770038366 0.4366276628
v 0.03681816578 0.03900000095 0.4366276628
v 0.03826749802 0.03900000095 0.4370168192
v 0.03826749802 0.03769999981 0.4370168192
v 0.03826459885 0.03769999981 0.4370160371
v 0.03643114328 0.03769999981 0.4351762087
v 0.03642902136 0.03769999981 0.4351783449
v 0.0364297986 0.03769999981 0.435181225
v 0.03643024445 0.03769999981 0.4351795656
v 0.03643069506 0.03769999981 0.4351778871
v 0.0364297986 0.03769999981 0.435181225
v 0.03642902136 0.03769999981 0.4351783449
v 0.03642902136 0.03900000095 0.4351783449
v 0.03681816578 0.03900000095 0.4366276628
v 0.03681816578 0.03770038366 0.4366276628
v 0.03681781769 0.03769999981 0.4366263849
v 0.03932697773 0.03769999981 0.4359573251
v 0.03932862997 0.03769999981 0.4359556848
v 0.03932802439 0.03769999981 0.4359534341
v 0.0393276763 0.03769999981 0.4359547311
v 0.03932732821 0.03769999981 0.4359560281
v 0.03826459885 0.03769999981 0.4370160371
v 0.03826749802 0.03769999981 0.4370168192
v 0.03826962233 0.03769999981 0.4370146829
v 0.03826794863 0.03769999981 0.4370151407
v 0.03826627493 0.03769999981 0.4370155794
v 0.03593451738 0.03599999905 0.4336222345
v 0.0378790617 0.03599999905 0.4328167802
v 0.03982360363 0.03599999905 0.4336222345
v 0.04062906265 0.03599999905 0.4355667764
v 0.03982360363 0.03599999905 0.4375113184
v 0.0378790617 0.03599999905 0.4383167726
v 0.03593451738 0.03599999905 0.4375113184
v 0.03512906075 0.03599999905 0.4355667764
v 0.03667697907 0.03599999905 0.434364689
v 0.03623698711 0.03599999905 0.4360067636
v 0.03743906736 0.03599999905 0.437208851
v 0.03908114195 0.03599999905 0.4367688638
v 0.0395211339 0.03599999905 0.4351267892
v 0.03831905365 0.03599999905 0.4339247018
v 0.03593451738 0.03880000114 0.4336222345
v 0.0378790617 0.03880000114 0.4328167802
v 0.03982360363 0.03880000114 0.4336222345
v 0.04062906265 0.03880000114 0.4355667764
v 0.03982360363 0.03880000114 0.4375113184
v 0.0378790617 0.03880000114 0.4383167726
v 0.03593451738 0.03880000114 0.4375113184
v 0.03512906075 0.03880000114 0.4355667764
v 0.03593451738 0.03599999905 0.4336222345
v 0.03512906075 0.03599999905 0.4355667764
v 0.03593451738 0.03599999905 0.4375113184
v 0.0378790617 0.03599999905 0.4383167726
v 0.03982360363 0.03599999905 0.4375113184
v 0.04062906265 0.03599999905 0.4355667764
v 0.03982360363 0.03599999905 0.4336222345
v 0.0378790617 0.03599999905 0.4328167802
v 0.03593451738 0.03599999905 0.4336222345
v 0.03593451738 0.03880000114 0.4336222345
v 0.03607593775 0.03900000095 0.4337636453
v 0.0378790617 0.03900000095 0.4330167658
v 0.03968218327 0.03900000095 0.4337636453
v 0.04042906284 0.03900000095 0.4355667764
v 0.03968218327 0.03900000095 0.4373698885
v 0.0378790617 0.03900000095 0.438116768
v 0.03607593775 0.03900000095 0.4373698885
v 0.03532906055 0.03900000095 0.4355667764
v 0.03593451738 0.03880000114 0.4336222345
v 0.03512906075 0.03880000114 0.4355667764
v 0.03593451738 0.03880000114 0.4375113184
v 0.0378790617 0.03880000114 0.4383167726
v 0.03982360363 0.03880000114 0.4375113184
v 0.04062906265 0.03880000114 0.4355667764
v 0.03982360363 0.03880000114 0.4336222345
v 0.0378790617 0.03880000114 0.4328167802
v 0.0378790617 0.03900000095 0.4330167658
v 0.0378790617 0.03880000114 0.4328167802
v 0.03607593775 0.03900000095 0.4337636453
v 0.03532906055 0.03900000095 0.4355667764
v 0.03607593775 0.03900000095 0.4373698885
v 0.0378790617 0.03900000095 0.438116768
v 0.03968218327 0.03900000095 0.4373698885
v 0.04042906284 0.03900000095 0.4355667764
v 0.03968218327 0.03900000095 0.4337636453
v 0.0378790617 0.03900000095 0.4330167658
v 0.03893948555 0.03900000095 0.4345063478
v 0.03932862997 0.03900000095 0.4359556848
v 0.03826749802 0.03900000095 0.4370168192
v 0.03681816578 0.03900000095 0.4366276628
v 0.03642902136 0.03900000095 0.4351783449
v 0.03749015093 0.03900000095 0.4341172105
v 0.03893948555 0.03769999981 0.4345063478
v 0.03893948555 0.03900000095 0.4345063478
v 0.03749015093 0.03900000095 0.4341172105
v 0.03749015093 0.03769999981 0.4341172105
v 0.03749240398 0.03769999981 0.4341178018
v 0.03749240398 0.03769999981 0.4341178018
v 0.03801078796 0.03769999981 0.4340729028
v 0.03851331234 0.03769999981 0.4342078287
v 0.03893948555 0.03769999981 0.4345063478
v 0.03643114328 0.03769999981 0.4351762087
v 0.03665108442 0.03769999981 0.4347059137
v 0.03701820374 0.03769999981 0.4343388063
v 0.03748849869 0.03769999981 0.4341188509
v 0.03667697907 0.03599999905 0.434364689
v 0.03831905365 0.03599999905 0.4339247018
v 0.0395211339 0.03599999905 0.4351267892
v 0.03908114195 0.03599999905 0.4367688638
v 0.03743906736 0.03599999905 0.437208851
v 0.03623698711 0.03599999905 0.4360067636
v 0.03681840181 0.03579999924 0.4345061189
v 0.03643017292 0.03579999924 0.4359549982
v 0.03749083281 0.03579999924 0.4370156557
v 0.03893972158 0.03579999924 0.4366274339
v 0.03932795048 0.03579999924 0.4351785356
v 0.03826729059 0.03579999924 0.4341178781
v 0.03908114195 0.03599999905 0.4367688638
v 0.03893972158 0.03579999924 0.4366274339
v 0.03681781769 0.03769999981 0.4366263849
v 0.0365199542 0.03769999981 0.4362006838
v 0.03638522387 0.03769999981 0.4356988794
v 0.0364297986 0.03769999981 0.435181225
v 0.03681840181 0.02630000114 0.4366274339
v 0.03826729059 0.02630000114 0.4370156557
v 0.03932795048 0.02630000114 0.4359549982
v 0.03893972158 0.02630000114 0.4345061189
v 0.03749083281 0.02630000114 0.4341178781
v 0.03643017292 0.02630000114 0.4351785356
v 0.03681840181 0.03579999924 0.4345061189
v 0.03826729059 0.03579999924 0.4341178781
v 0.03932795048 0.03579999924 0.4351785356
v 0.03893972158 0.03579999924 0.4366274339
v 0.03749083281 0.03579999924 0.4370156557
v 0.03643017292 0.03579999924 0.4359549982
v 0.03826729059 0.02630000114 0.4370156557
v 0.03893972158 0.03579999924 0.4366274339
v 0.03826459885 0.03769999981 0.4370160371
v 0.03774695158 0.03769999981 0.4370606119
v 0.03724515915 0.03769999981 0.4369258768
v 0.03681945562 0.03769999981 0.4366280061
v 0.03681840181 0.02630000114 0.4366274339
v 0.03643017292 0.02630000114 0.4351785356
v 0.03749083281 0.02630000114 0.4341178781
v 0.03893972158 0.02630000114 0.4345061189
v 0.03932795048 0.02630000114 0.4359549982
v 0.03826729059 0.02630000114 0.4370156557
v 0.03703053236 0.02599999905 0.4347182542
v 0.03680985212 0.02599999905 0.4361115533
v 0.03806678295 0.02599999905 0.4367520029
v 0.03906428576 0.02599999905 0.4357544977
v 0.03842385054 0.02599999905 0.434497574
v 0.03906428576 0.02599999905 0.4357544977
v 0.03893972158 0.02630000114 0.4345061189
v 0.03932697773 0.03769999981 0.4359573251
v 0.03910703659 0.03769999981 0.4364276392
v 0.03873991728 0.03769999981 0.4367947466
v 0.03826962233 0.03769999981 0.4370146829
v 0.03932802439 0.03769999981 0.4359534341
v 0.03932862997 0.03769999981 0.4359556848
v 0.03932862997 0.03900000095 0.4359556848
v 0.03893948555 0.03900000095 0.4345063478
v 0.03893948555 0.03769999981 0.4345063478
v 0.03703053236 0.02599999905 0.4347182542
v 0.03842385054 0.02599999905 0.434497574
v 0.03906428576 0.02599999905 0.4357544977
v 0.03806678295 0.02599999905 0.4367520029
v 0.03680985212 0.02599999905 0.4361115533
v 0.03893948555 0.03769999981 0.4345063478
v 0.03923800468 0.03769999981 0.4349325258
v 0.03937293053 0.03769999981 0.4354350549
v 0.03932802439 0.03769999981 0.4359534341
v 0.03748849869 0.03769999981 0.4341188509
v 0.03701820374 0.03769999981 0.4343388063
v 0.03665108442 0.03769999981 0.4347059137
v 0.03643114328 0.03769999981 0.4351762087
v 0.03643069506 0.03769999981 0.4351778871
v 0.03643024445 0.03769999981 0.4351795656
v 0.0364297986 0.03769999981 0.435181225
v 0.03638522387 0.03769999981 0.4356988794
v 0.0365199542 0.03769999981 0.4362006838
v 0.03681781769 0.03769999981 0.4366263849
v 0.03681816578 0.03770038366 0.4366276628
v 0.03681945562 0.03769999981 0.4366280061
v 0.03724515915 0.03769999981 0.4369258768
v 0.03774695158 0.03769999981 0.4370606119
v 0.03826459885 0.03769999981 0.4370160371
v 0.03826627493 0.03769999981 0.4370155794
v 0.03826794863 0.03769999981 0.4370151407
v 0.03826962233 0.03769999981 0.4370146829
v 0.03873991728 0.03769999981 0.4367947466
v 0.03910703659 0.03769999981 0.4364276392
v 0.03932697773 0.03769999981 0.4359573251
v 0.03932732821 0.03769999981 0.4359560281
v 0.0393276763 0.03769999981 0.4359547311
v 0.03932802439 0.03769999981 0.4359534341
v 0.03937293053 0.03769999981 0.4354350549
v 0.03923800468 0.03769999981 0.4349325258
v 0.03893948555 0.03769999981 0.4345063478
v 0.03851331234 0.03769999981 0.4342078287
v 0.03801078796 0.03769999981 0.4340729028
v 0.03749240398 0.03769999981 0.4341178018
v 0.03749110222 0.03769999981 0.4341181642
v 0.03748980045 0.03769999981 0.4341185075
v 0.0378790617 0.03683416605 0.4355667764
v 0.03893948555 0.03769999981 0.4345063478
v 0.0378790617 0.03683416605 0.4355667764
v 0.0378790617 0.03683416605 0.4355667764
v 0.0378790617 0.03683416605 0.4355667764
v 0.0378790617 0.03683416605 0.4355667764
v 0.0378790617 0.03683416605 0.4355667764
v 0.0378790617 0.03683416605 0.4355667764
v 0.03826962233 0.03769999981 0.4370146829
v 0.03826749802 0.03769999981 0.4370168192
v 0.03826749802 0.03900000095 0.4370168192
v 0.03932862997 0.03900000095 0.4359556848
v 0.03932862997 0.03769999981 0.4359556848
v 0.03932697773 0.03769999981 0.4359573251
f 1 2 5
f 5 2 4
f 4 2 3
f 7 8 6
f 6 8 11
f 11 8 9
f 11 9 10
f 13 14 12
f 12 14 17
f 17 14 15
f 17 15 16
f 18 19 22
f 22 19 21
f 21 19 20
f 24 25 23
f 23 25 26
f 23 26 28
f 28 26 27
f 29 30 33
f 33 30 32
f 32 30 31
f 34 35 38
f 38 35 37
f 37 35 36
f 46 39 47
f 47 39 40
f 47 40 52
f 52 40 41
f 52 41 51
f 51 41 42
f 51 42 50
f 50 42 43
f 50 43 44
f 50 44 49
f 49 44 45
f 49 45 48
f 48 45 46
f 48 46 47
f 54 68 53
f 53 68 69
f 70 61 60
f 60 61 62
f 60 62 59
f 59 62 63
f 59 63 58
f 58 63 64
f 58 64 57
f 57 64 65
f 57 65 56
f 56 65 66
f 56 66 55
f 55 66 67
f 55 67 54
f 54 67 68
f 78 71 79
f 79 71 87
f 79 87 86
f 88 72 85
f 85 72 73
f 85 73 84
f 84 73 74
f 84 74 83
f 83 74 75
f 83 75 82
f 82 75 76
f 82 76 81
f 81 76 77
f 81 77 80
f 80 77 78
f 80 78 79
f 90 101 89
f 89 101 102
f 89 102 96
f 96 102 97
f 96 97 95
f 95 97 94
f 94 97 98
f 94 98 93
f 93 98 99
f 93 99 92
f 92 99 100
f 92 100 91
f 91 100 90
f 90 100 101
f 103 104 107
f 107 104 105
f 107 105 106
f 108 109 111
f 111 109 110
f 112 113 115
f 115 113 114
f 117 122 116
f 116 122 123
f 116 123 121
f 121 123 124
f 121 124 120
f 120 124 129
f 120 129 119
f 128 125 126
f 128 126 118
f 118 126 127
f 118 127 117
f 117 127 122
f 131 132 130
f 130 132 133
f 146 144 134
f 134 144 145
f 134 145 139
f 139 145 140
f 139 140 138
f 138 140 141
f 138 141 137
f 137 141 142
f 137 142 136
f 136 142 147
f 136 147 135
f 146 143 144
f 148 149 151
f 151 149 150
f 153 159 152
f 152 159 160
f 152 160 157
f 157 160 163
f 157 163 156
f 156 163 155
f 164 161 162
f 164 162 154
f 154 162 158
f 154 158 153
f 153 158 159
f 166 167 165
f 165 167 168
f 170 171 169
f 169 171 172
f 169 172 173
f 174 175 178
f 178 175 177
f 177 175 176
f 180 181 179
f 179 181 182
f 214 183 222
f 222 183 184
f 222 184 185
f 185 186 222
f 222 186 187
f 187 188 219
f 219 188 189
f 219 189 190
f 190 191 219
f 219 191 192
f 193 194 192
f 192 194 221
f 194 195 221
f 221 195 196
f 221 196 197
f 197 198 221
f 198 199 218
f 218 199 200
f 218 200 201
f 201 202 218
f 218 202 203
f 218 203 204
f 204 205 220
f 220 205 206
f 220 206 207
f 207 208 220
f 208 216 215
f 217 209 210
f 217 210 211
f 211 212 217
f 217 212 213
f 213 214 222
f 224 225 223
f 223 225 226
f 223 226 228
f 228 226 227
