v -0.1079255767 -0.03049999952 0.3272514685
v -0.1062010534 -0.03049999952 0.3360739555
v -0.1026799116 -0.03049999952 0.3443450932
v -0.09751604514 -0.03049999952 0.3517033958
v -0.09093514997 -0.03049999952 0.3578272839
v -0.08322483475 -0.03049999952 0.3624490988
v -0.07472207517 -0.03049999952 0.3653668517
v -0.06579848927 -0.03049999952 0.3664530261
v -0.05684407733 -0.03049999952 0.3656601475
v -0.04825018919 -0.03049999952 0.3630228621
v -0.04039242014 -0.03049999952 0.3586564398
v -0.03361419103 -0.03049999952 0.35275172
v -0.02821174455 -0.03049999952 0.3455667472
v -0.02442119432 -0.03049999952 0.3374155564
v -0.02240820373 -0.03049999952 0.3286543924
v -0.0222607499 -0.03049999952 0.3196661553
v -0.02398527799 -0.03049999952 0.310843673
v -0.02750641979 -0.03049999952 0.3025725353
v -0.0326702815 -0.03049999952 0.2952142279
v -0.03925117905 -0.03049999952 0.2890903422
v -0.04696149428 -0.03049999952 0.2844685249
v -0.05546425386 -0.03049999952 0.2815507697
v -0.06438783975 -0.03049999952 0.2804645976
v -0.07334225169 -0.03049999952 0.2812574787
v -0.08193613984 -0.03049999952 0.2838947617
v -0.08979390888 -0.03049999952 0.2882611815
v -0.09657214038 -0.03049999952 0.2941659085
v -0.1019745845 -0.03049999952 0.3013508766
v -0.1057651395 -0.03049999952 0.3095020673
v -0.1077781229 -0.03049999952 0.3182632313
v -0.1079255767 -0.0503000021 0.3272514685
v -0.1077781229 -0.0503000021 0.3182632313
v -0.1057651395 -0.0503000021 0.3095020673
v -0.1019745845 -0.0503000021 0.3013508766
v -0.09657214038 -0.0503000021 0.2941659085
v -0.08979390888 -0.0503000021 0.2882611815
v -0.08193613984 -0.0503000021 0.2838947617
v -0.07334225169 -0.0503000021 0.2812574787
v -0.06438783975 -0.0503000021 0.2804645976
v -0.05546425386 -0.0503000021 0.2815507697
v -0.04696149428 -0.0503000021 0.2844685249
v -0.03925117905 -0.0503000021 0.2890903422
v -0.0326702815 -0.0503000021 0.2952142279
v -0.02750641979 -0.0503000021 0.3025725353
v -0.02398527799 -0.0503000021 0.310843673
v -0.0222607499 -0.0503000021 0.3196661553
v -0.02240820373 -0.0503000021 0.3286543924
v -0.02442119432 -0.0503000021 0.3374155564
v -0.02821174455 -0.0503000021 0.3455667472
v -0.03361419103 -0.0503000021 0.35275172
v -0.04039242014 -0.0503000021 0.3586564398
v -0.04825018919 -0.0503000021 0.3630228621
v -0.05684407733 -0.0503000021 0.3656601475
v -0.06579848927 -0.0503000021 0.3664530261
v -0.07472207517 -0.0503000021 0.3653668517
v -0.08322483475 -0.0503000021 0.3624490988
v -0.09093514997 -0.0503000021 0.3578272839
v -0.09751604514 -0.0503000021 0.3517033958
v -0.1026799116 -0.0503000021 0.3443450932
v -0.1062010534 -0.0503000021 0.3360739555
v -0.0222607499 -0.0503000021 0.3196661553
v -0.0222607499 -0.03049999952 0.3196661553
v -0.1094197367 -0.03049999952 0.3273837738
v -0.1092671325 -0.03049999952 0.3180819925
v -0.1071839294 -0.03049999952 0.3090151998
v -0.103261147 -0.03049999952 0.3005796665
v -0.09767023734 -0.03049999952 0.2931440636
v -0.09065556101 -0.03049999952 0.2870333577
v -0.08252368662 -0.03049999952 0.2825146199
v -0.0736300108 -0.03049999952 0.2797853388
v -0.06436323232 -0.03049999952 0.2789647994
v -0.05512835766 -0.03049999952 0.2800888614
v -0.04632899601 -0.03049999952 0.2831083981
v -0.03834971392 -0.03049999952 0.2878914417
v -0.03153925064 -0.03049999952 0.2942289508
v -0.02619525461 -0.03049999952 0.3018439447
v -0.02255128245 -0.03049999952 0.310403612
v -0.02076659474 -0.03049999952 0.3195338547
v -0.0209191918 -0.03049999952 0.328835636
v -0.02300240436 -0.03049999952 0.3379024192
v -0.02692518442 -0.03049999952 0.3463379572
v -0.03251608692 -0.03049999952 0.3537735649
v -0.03953076563 -0.03049999952 0.3598842684
v -0.0476626424 -0.03049999952 0.3644030015
v -0.05655631823 -0.03049999952 0.3671322873
v -0.06582309194 -0.03049999952 0.367952822
v -0.0750579666 -0.03049999952 0.3668287671
v -0.08385733302 -0.03049999952 0.363809228
v -0.09183661272 -0.03049999952 0.3590261845
v -0.098647076 -0.03049999952 0.3526886729
v -0.103991072 -0.03049999952 0.345073679
v -0.1076350466 -0.03049999952 0.3365140165
v -0.1094197367 -0.0503000021 0.3273837738
v -0.1076350466 -0.0503000021 0.3365140165
v -0.103991072 -0.0503000021 0.345073679
v -0.098647076 -0.0503000021 0.3526886729
v -0.09183661272 -0.0503000021 0.3590261845
v -0.08385733302 -0.0503000021 0.363809228
v -0.0750579666 -0.0503000021 0.3668287671
v -0.06582309194 -0.0503000021 0.367952822
v -0.05655631823 -0.0503000021 0.3671322873
v -0.0476626424 -0.0503000021 0.3644030015
v -0.03953076563 -0.0503000021 0.3598842684
v -0.03251608692 -0.0503000021 0.3537735649
v -0.02692518442 -0.0503000021 0.3463379572
v -0.02300240436 -0.0503000021 0.3379024192
v -0.0209191918 -0.0503000021 0.328835636
v -0.02076659474 -0.0503000021 0.3195338547
v -0.02255128245 -0.0503000021 0.310403612
v -0.02619525461 -0.0503000021 0.3018439447
v -0.03153925064 -0.0503000021 0.2942289508
v -0.03834971392 -0.0503000021 0.2878914417
v -0.04632899601 -0.0503000021 0.2831083981
v -0.05512835766 -0.0503000021 0.2800888614
v -0.06436323232 -0.0503000021 0.2789647994
v -0.0736300108 -0.0503000021 0.2797853388
v -0.08252368662 -0.0503000021 0.2825146199
v -0.09065556101 -0.0503000021 0.2870333577
v -0.09767023734 -0.0503000021 0.2931440636
v -0.103261147 -0.0503000021 0.3005796665
v -0.1071839294 -0.0503000021 0.3090151998
v -0.1092671325 -0.0503000021 0.3180819925
v -0.02076659474 -0.03049999952 0.3195338547
v -0.02076659474 -0.0503000021 0.3195338547
v -0.1094197367 -0.03049999952 0.3273837738
v -0.1076350466 -0.03049999952 0.3365140165
v -0.103991072 -0.03049999952 0.345073679
v -0.098647076 -0.03049999952 0.3526886729
v -0.09183661272 -0.03049999952 0.3590261845
v -0.08385733302 -0.03049999952 0.363809228
v -0.0750579666 -0.03049999952 0.3668287671
v -0.06582309194 -0.03049999952 0.367952822
v -0.05655631823 -0.03049999952 0.3671322873
v -0.0476626424 -0.03049999952 0.3644030015
v -0.03953076563 -0.03049999952 0.3598842684
v -0.03251608692 -0.03049999952 0.3537735649
v -0.02692518442 -0.03049999952 0.3463379572
v -0.02300240436 -0.03049999952 0.3379024192
v -0.0209191918 -0.03049999952 0.328835636
v -0.02076659474 -0.03049999952 0.3195338547
v -0.02255128245 -0.03049999952 0.310403612
v -0.02619525461 -0.03049999952 0.3018439447
v -0.03153925064 -0.03049999952 0.2942289508
v -0.03834971392 -0.03049999952 0.2878914417
v -0.04632899601 -0.03049999952 0.2831083981
v -0.05512835766 -0.03049999952 0.2800888614
v -0.06436323232 -0.03049999952 0.2789647994
v -0.0736300108 -0.03049999952 0.2797853388
v -0.08252368662 -0.03049999952 0.2825146199
v -0.09065556101 -0.03049999952 0.2870333577
v -0.09767023734 -0.03049999952 0.2931440636
v -0.103261147 -0.03049999952 0.3005796665
v -0.1071839294 -0.03049999952 0.3090151998
v -0.1092671325 -0.03049999952 0.3180819925
v -0.1079255767 -0.03049999952 0.3272514685
v -0.1077781229 -0.03049999952 0.3182632313
v -0.1057651395 -0.03049999952 0.3095020673
v -0.1019745845 -0.03049999952 0.3013508766
v -0.09657214038 -0.03049999952 0.2941659085
v -0.08979390888 -0.03049999952 0.2882611815
v -0.08193613984 -0.03049999952 0.2838947617
v -0.07334225169 -0.03049999952 0.2812574787
v -0.06438783975 -0.03049999952 0.2804645976
v -0.05546425386 -0.03049999952 0.2815507697
v -0.04696149428 -0.03049999952 0.2844685249
v -0.03925117905 -0.03049999952 0.2890903422
v -0.0326702815 -0.03049999952 0.2952142279
v -0.02750641979 -0.03049999952 0.3025725353
v -0.02398527799 -0.03049999952 0.310843673
v -0.0222607499 -0.03049999952 0.3196661553
v -0.02240820373 -0.03049999952 0.3286543924
v -0.02442119432 -0.03049999952 0.3374155564
v -0.02821174455 -0.03049999952 0.3455667472
v -0.03361419103 -0.03049999952 0.35275172
v -0.04039242014 -0.03049999952 0.3586564398
v -0.04825018919 -0.03049999952 0.3630228621
v -0.05684407733 -0.03049999952 0.3656601475
v -0.06579848927 -0.03049999952 0.3664530261
v -0.07472207517 -0.03049999952 0.3653668517
v -0.08322483475 -0.03049999952 0.3624490988
v -0.09093514997 -0.03049999952 0.3578272839
v -0.09751604514 -0.03049999952 0.3517033958
v -0.1026799116 -0.03049999952 0.3443450932
v -0.1062010534 -0.03049999952 0.3360739555
v -0.1094197367 -0.0503000021 0.3273837738
v -0.1092671325 -0.0503000021 0.3180819925
v -0.1071839294 -0.0503000021 0.3090151998
v -0.103261147 -0.0503000021 0.3005796665
v -0.09767023734 -0.0503000021 0.2931440636
v -0.09065556101 -0.0503000021 0.2870333577
v -0.08252368662 -0.0503000021 0.2825146199
v -0.0736300108 -0.0503000021 0.2797853388
v -0.06436323232 -0.0503000021 0.2789647994
v -0.05512835766 -0.0503000021 0.2800888614
v -0.04632899601 -0.0503000021 0.2831083981
v -0.03834971392 -0.0503000021 0.2878914417
v -0.03153925064 -0.0503000021 0.2942289508
v -0.02619525461 -0.0503000021 0.3018439447
v -0.02255128245 -0.0503000021 0.310403612
v -0.02076659474 -0.0503000021 0.3195338547
v -0.0209191918 -0.0503000021 0.328835636
v -0.02300240436 -0.0503000021 0.3379024192
v -0.02692518442 -0.0503000021 0.3463379572
v -0.03251608692 -0.0503000021 0.3537735649
v -0.03953076563 -0.0503000021 0.3598842684
v -0.0476626424 -0.0503000021 0.3644030015
v -0.05655631823 -0.0503000021 0.3671322873
v -0.06582309194 -0.0503000021 0.367952822
v -0.0750579666 -0.0503000021 0.3668287671
v -0.08385733302 -0.0503000021 0.363809228
v -0.09183661272 -0.0503000021 0.3590261845
v -0.098647076 -0.0503000021 0.3526886729
v -0.103991072 -0.0503000021 0.345073679
v -0.1076350466 -0.0503000021 0.3365140165
v -0.1079255767 -0.0503000021 0.3272514685
v -0.1062010534 -0.0503000021 0.3360739555
v -0.1026799116 -0.0503000021 0.3443450932
v -0.09751604514 -0.0503000021 0.3517033958
v -0.09093514997 -0.0503000021 0.3578272839
v -0.08322483475 -0.0503000021 0.3624490988
v -0.07472207517 -0.0503000021 0.3653668517
v -0.06579848927 -0.0503000021 0.3664530261
v -0.05684407733 -0.0503000021 0.3656601475
v -0.04825018919 -0.0503000021 0.3630228621
v -0.04039242014 -0.0503000021 0.3586564398
v -0.03361419103 -0.0503000021 0.35275172
v -0.02821174455 -0.0503000021 0.3455667472
v -0.02442119432 -0.0503000021 0.3374155564
v -0.02240820373 -0.0503000021 0.3286543924
v -0.0222607499 -0.0503000021 0.3196661553
v -0.02398527799 -0.0503000021 0.310843673
v -0.02750641979 -0.0503000021 0.3025725353
v -0.0326702815 -0.0503000021 0.2952142279
v -0.03925117905 -0.0503000021 0.2890903422
v -0.04696149428 -0.0503000021 0.2844685249
v -0.05546425386 -0.0503000021 0.2815507697
v -0.06438783975 -0.0503000021 0.2804645976
v -0.07334225169 -0.0503000021 0.2812574787
v -0.08193613984 -0.0503000021 0.2838947617
v -0.08979390888 -0.0503000021 0.2882611815
v -0.09657214038 -0.0503000021 0.2941659085
v -0.1019745845 -0.0503000021 0.3013508766
v -0.1057651395 -0.0503000021 0.3095020673
v -0.1077781229 -0.0503000021 0.3182632313
f 2 60 1
f 1 60 31
f 1 31 30
f 30 31 32
f 30 32 29
f 29 32 33
f 29 33 28
f 28 33 34
f 28 34 27
f 27 34 35
f 27 35 26
f 26 35 36
f 26 36 25
f 25 36 37
f 25 37 24
f 24 37 38
f 24 38 23
f 23 38 39
f 23 39 22
f 22 39 40
f 22 40 21
f 21 40 41
f 21 41 20
f 20 41 42
f 20 42 19
f 19 42 43
f 19 43 18
f 18 43 44
f 18 44 17
f 17 44 45
f 17 45 16
f 16 45 61
f 62 46 15
f 15 46 47
f 15 47 14
f 14 47 48
f 14 48 13
f 13 48 49
f 13 49 12
f 12 49 50
f 12 50 11
f 11 50 51
f 11 51 10
f 10 51 52
f 10 52 9
f 9 52 53
f 9 53 8
f 8 53 54
f 8 54 7
f 7 54 55
f 7 55 6
f 6 55 56
f 6 56 5
f 5 56 57
f 5 57 4
f 4 57 58
f 4 58 3
f 3 58 59
f 3 59 2
f 2 59 60
f 64 122 63
f 63 122 93
f 63 93 92
f 92 93 94
f 92 94 91
f 91 94 95
f 91 95 90
f 90 95 96
f 90 96 89
f 89 96 97
f 89 97 88
f 88 97 98
f 88 98 87
f 87 98 99
f 87 99 86
f 86 99 100
f 86 100 85
f 85 100 101
f 85 101 84
f 84 101 102
f 84 102 83
f 83 102 103
f 83 103 82
f 82 103 104
f 82 104 81
f 81 104 105
f 81 105 80
f 80 105 106
f 80 106 79
f 79 106 107
f 79 107 78
f 78 107 124
f 123 108 77
f 77 108 109
f 77 109 76
f 76 109 110
f 76 110 75
f 75 110 111
f 75 111 74
f 74 111 112
f 74 112 73
f 73 112 113
f 73 113 72
f 72 113 114
f 72 114 71
f 71 114 115
f 71 115 70
f 70 115 116
f 70 116 69
f 69 116 117
f 69 117 68
f 68 117 118
f 68 118 67
f 67 118 119
f 67 119 66
f 66 119 120
f 66 120 65
f 65 120 121
f 65 121 64
f 64 121 122
f 126 184 125
f 125 184 155
f 125 155 156
f 184 126 183
f 183 126 127
f 183 127 182
f 182 127 128
f 182 128 181
f 181 128 129
f 181 129 180
f 180 129 130
f 180 130 179
f 179 130 131
f 179 131 178
f 178 131 132
f 178 132 133
f 178 133 177
f 177 133 134
f 177 134 176
f 176 134 135
f 176 135 175
f 175 135 136
f 175 136 174
f 174 136 137
f 174 137 173
f 173 137 138
f 173 138 172
f 172 138 139
f 172 139 171
f 171 139 140
f 171 140 170
f 170 140 169
f 169 140 141
f 169 141 168
f 168 141 142
f 168 142 167
f 167 142 143
f 167 143 166
f 166 143 144
f 166 144 165
f 165 144 145
f 165 145 164
f 164 145 146
f 164 146 163
f 163 146 147
f 163 147 148
f 163 148 162
f 162 148 149
f 162 149 161
f 161 149 150
f 161 150 160
f 160 150 151
f 160 151 159
f 159 151 152
f 159 152 158
f 158 152 153
f 158 153 157
f 157 153 154
f 157 154 156
f 156 154 125
f 186 244 185
f 185 244 215
f 185 215 216
f 244 186 243
f 243 186 187
f 243 187 242
f 242 187 188
f 242 188 241
f 241 188 189
f 241 189 240
f 240 189 190
f 240 190 239
f 239 190 191
f 239 191 238
f 238 191 192
f 238 192 193
f 238 193 237
f 237 193 194
f 237 194 236
f 236 194 195
f 236 195 235
f 235 195 196
f 235 196 234
f 234 196 197
f 234 197 233
f 233 197 198
f 233 198 232
f 232 198 199
f 232 199 231
f 231 199 200
f 231 200 230
f 230 200 229
f 229 200 201
f 229 201 228
f 228 201 202
f 228 202 227
f 227 202 203
f 227 203 226
f 226 203 204
f 226 204 225
f 225 204 205
f 225 205 224
f 224 205 206
f 224 206 223
f 223 206 207
f 223 207 208
f 223 208 222
f 222 208 209
f 222 209 221
f 221 209 210
f 221 210 220
f 220 210 211
f 220 211 219
f 219 211 212
f 219 212 218
f 218 212 213
f 218 213 217
f 217 213 214
f 217 214 216
f 216 214 185
