v -0.2065470505 0.08399999619 0.3790211851
v -0.2048322105 0.08399999619 0.3781723482
v -0.2030194283 0.08399999619 0.3787847025
v -0.2021706009 0.08399999619 0.3804995329
v -0.2027829552 0.08399999619 0.3823123247
v -0.204497776 0.08399999619 0.383161152
v -0.2063105774 0.08399999619 0.3825487978
v -0.2071594048 0.08399999619 0.3808339674
v -0.2055593491 0.08399999619 0.3844081384
v -0.2011878777 0.08399999619 0.3829169733
v -0.2002935219 0.08399999619 0.3783855898
v -0.2037706566 0.08399999619 0.3753453619
v -0.208142128 0.08399999619 0.376836527
v -0.2090364647 0.08399999619 0.3813679105
v -0.2073412704 0.07800000191 0.3775367529
v -0.2082192612 0.07800000191 0.3798044855
v -0.2074341774 0.07800000191 0.3821060259
v -0.2053533554 0.07800000191 0.3833644659
v -0.2029504585 0.07800000191 0.3829909689
v -0.2013497925 0.07800000191 0.3811602956
v -0.2013003731 0.07800000191 0.3787290365
v -0.2028252792 0.07800000191 0.3768348009
v -0.20521101 0.07800000191 0.3763639337
v -0.2011878777 0.07800000191 0.3829169733
v -0.2055593491 0.07800000191 0.3844081384
v -0.2090364647 0.07800000191 0.3813679105
v -0.208142128 0.07800000191 0.376836527
v -0.2037706566 0.07800000191 0.3753453619
v -0.2002935219 0.07800000191 0.3783855898
v -0.2073412704 0.07800000191 0.3775367529
v -0.20521101 0.07800000191 0.3763639337
v -0.2028252792 0.07800000191 0.3768348009
v -0.2013003731 0.07800000191 0.3787290365
v -0.2013497925 0.07800000191 0.3811602956
v -0.2029504585 0.07800000191 0.3829909689
v -0.2053533554 0.07800000191 0.3833644659
v -0.2074341774 0.07800000191 0.3821060259
v -0.2082192612 0.07800000191 0.3798044855
v -0.2073412704 0.07550000191 0.3775367529
v -0.2082192612 0.07550000191 0.3798044855
v -0.2074341774 0.07550000191 0.3821060259
v -0.2053533554 0.07550000191 0.3833644659
v -0.2029504585 0.07550000191 0.3829909689
v -0.2013497925 0.07550000191 0.3811602956
v -0.2013003731 0.07550000191 0.3787290365
v -0.2028252792 0.07550000191 0.3768348009
v -0.20521101 0.07550000191 0.3763639337
v -0.2073412704 0.07550000191 0.3775367529
v -0.2073412704 0.07800000191 0.3775367529
v -0.2065470505 0.07550000191 0.3790211851
v -0.2071594048 0.07550000191 0.3808339674
v -0.2063105774 0.07550000191 0.3825487978
v -0.204497776 0.07550000191 0.383161152
v -0.2027829552 0.07550000191 0.3823123247
v -0.2021706009 0.07550000191 0.3804995329
v -0.2030194283 0.07550000191 0.3787847025
v -0.2048322105 0.07550000191 0.3781723482
v -0.2073412704 0.07550000191 0.3775367529
v -0.20521101 0.07550000191 0.3763639337
v -0.2028252792 0.07550000191 0.3768348009
v -0.2013003731 0.07550000191 0.3787290365
v -0.2013497925 0.07550000191 0.3811602956
v -0.2029504585 0.07550000191 0.3829909689
v -0.2053533554 0.07550000191 0.3833644659
v -0.2074341774 0.07550000191 0.3821060259
v -0.2082192612 0.07550000191 0.3798044855
v -0.2065470505 0.08399999619 0.3790211851
v -0.2071594048 0.08399999619 0.3808339674
v -0.2063105774 0.08399999619 0.3825487978
v -0.204497776 0.08399999619 0.383161152
v -0.2027829552 0.08399999619 0.3823123247
v -0.2021706009 0.08399999619 0.3804995329
v -0.2030194283 0.08399999619 0.3787847025
v -0.2048322105 0.08399999619 0.3781723482
v -0.2065470505 0.07550000191 0.3790211851
v -0.2048322105 0.07550000191 0.3781723482
v -0.2030194283 0.07550000191 0.3787847025
v -0.2021706009 0.07550000191 0.3804995329
v -0.2027829552 0.07550000191 0.3823123247
v -0.204497776 0.07550000191 0.383161152
v -0.2063105774 0.07550000191 0.3825487978
v -0.2071594048 0.07550000191 0.3808339674
v -0.2065470505 0.08399999619 0.3790211851
v -0.2065470505 0.07550000191 0.3790211851
v -0.2090364647 0.07800000191 0.3813679105
v -0.2055593491 0.07800000191 0.3844081384
v -0.2055593491 0.08399999619 0.3844081384
v -0.2090364647 0.08399999619 0.3813679105
v -0.2037706566 0.07800000191 0.3753453619
v -0.208142128 0.07800000191 0.376836527
v -0.208142128 0.08399999619 0.376836527
v -0.2037706566 0.08399999619 0.3753453619
v -0.2002935219 0.07800000191 0.3783855898
v -0.2037706566 0.07800000191 0.3753453619
v -0.2037706566 0.08399999619 0.3753453619
v -0.2002935219 0.08399999619 0.3783855898
v -0.208142128 0.07800000191 0.376836527
v -0.2090364647 0.07800000191 0.3813679105
v -0.2090364647 0.08399999619 0.3813679105
v -0.208142128 0.08399999619 0.376836527
v -0.2011878777 0.07800000191 0.3829169733
v -0.2002935219 0.07800000191 0.3783855898
v -0.2002935219 0.08399999619 0.3783855898
v -0.2011878777 0.08399999619 0.3829169733
v -0.2055593491 0.07800000191 0.3844081384
v -0.2011878777 0.07800000191 0.3829169733
v -0.2011878777 0.08399999619 0.3829169733
v -0.2055593491 0.08399999619 0.3844081384
f 8 1 13
f 13 1 2
f 13 2 12
f 12 2 3
f 12 3 11
f 11 3 4
f 11 4 10
f 10 4 5
f 10 5 6
f 10 6 9
f 9 6 7
f 9 7 14
f 14 7 8
f 14 8 13
f 23 15 27
f 27 15 16
f 27 16 26
f 26 16 17
f 26 17 25
f 25 17 18
f 25 18 19
f 25 19 24
f 24 19 20
f 24 20 29
f 29 20 21
f 29 21 22
f 29 22 28
f 28 22 23
f 28 23 27
f 31 47 30
f 30 47 48
f 49 39 38
f 38 39 40
f 38 40 37
f 37 40 41
f 37 41 36
f 36 41 42
f 36 42 35
f 35 42 43
f 35 43 34
f 34 43 44
f 34 44 33
f 33 44 45
f 33 45 32
f 32 45 46
f 32 46 31
f 31 46 47
f 51 66 50
f 50 66 58
f 50 58 57
f 57 58 59
f 57 59 60
f 66 51 65
f 65 51 52
f 65 52 64
f 64 52 53
f 64 53 63
f 63 53 54
f 63 54 62
f 62 54 55
f 62 55 61
f 61 55 56
f 61 56 60
f 60 56 57
f 68 82 67
f 67 82 84
f 83 75 74
f 74 75 76
f 74 76 77
f 68 69 82
f 82 69 81
f 81 69 70
f 81 70 80
f 80 70 71
f 80 71 79
f 79 71 72
f 79 72 78
f 78 72 73
f 78 73 77
f 77 73 74
f 85 86 88
f 88 86 87
f 89 90 92
f 92 90 91
f 93 94 96
f 96 94 95
f 97 98 100
f 100 98 99
f 101 102 104
f 104 102 103
f 105 106 108
f 108 106 107
