v 0.06 0.06699999809 0.3548767549
v 0.06095491409 0.06699999809 0.3519378263
v 0.06345491409 0.06699999809 0.3501214677
v 0.06654508591 0.06699999809 0.3501214677
v 0.06904508591 0.06699999809 0.3519378263
v 0.07 0.06699999809 0.3548767549
v 0.06904508591 0.06699999809 0.357815674
v 0.06654508591 0.06699999809 0.3596320326
v 0.06345491409 0.06699999809 0.3596320326
v 0.06095491409 0.06699999809 0.357815674
v 0.06 0.06599999905 0.3548767549
v 0.06095491409 0.06599999905 0.357815674
v 0.06345491409 0.06599999905 0.3596320326
v 0.06654508591 0.06599999905 0.3596320326
v 0.06904508591 0.06599999905 0.357815674
v 0.07 0.06599999905 0.3548767549
v 0.06904508591 0.06599999905 0.3519378263
v 0.06654508591 0.06599999905 0.3501214677
v 0.06345491409 0.06599999905 0.3501214677
v 0.06095491409 0.06599999905 0.3519378263
v 0.06 0.06599999905 0.3548767549
v 0.06 0.06699999809 0.3548767549
v 0.06224999905 0.06599999905 0.3548767549
v 0.06305545807 0.06599999905 0.3568212968
v 0.065 0.06599999905 0.3576267511
v 0.06694454193 0.06599999905 0.3568212968
v 0.06775000095 0.06599999905 0.3548767549
v 0.06694454193 0.06599999905 0.352932213
v 0.065 0.06599999905 0.3521267492
v 0.06305545807 0.06599999905 0.352932213
v 0.06 0.06599999905 0.3548767549
v 0.06095491409 0.06599999905 0.3519378263
v 0.06345491409 0.06599999905 0.3501214677
v 0.06654508591 0.06599999905 0.3501214677
v 0.06904508591 0.06599999905 0.3519378263
v 0.07 0.06599999905 0.3548767549
v 0.06904508591 0.06599999905 0.357815674
v 0.06654508591 0.06599999905 0.3596320326
v 0.06345491409 0.06599999905 0.3596320326
v 0.06095491409 0.06599999905 0.357815674
v 0.06224999905 0.06699999809 0.3548767549
v 0.06305545807 0.06699999809 0.3568212968
v 0.065 0.06699999809 0.3576267511
v 0.06694454193 0.06699999809 0.3568212968
v 0.06775000095 0.06699999809 0.3548767549
v 0.06694454193 0.06699999809 0.352932213
v 0.065 0.06699999809 0.3521267492
v 0.06305545807 0.06699999809 0.352932213
v 0.06224999905 0.06599999905 0.3548767549
v 0.06305545807 0.06599999905 0.352932213
v 0.065 0.06599999905 0.3521267492
v 0.06694454193 0.06599999905 0.352932213
v 0.06775000095 0.06599999905 0.3548767549
v 0.06694454193 0.06599999905 0.3568212968
v 0.065 0.06599999905 0.3576267511
v 0.06305545807 0.06599999905 0.3568212968
v 0.06224999905 0.06699999809 0.3548767549
v 0.06224999905 0.06599999905 0.3548767549
v 0.06224999905 0.06699999809 0.3548767549
v 0.06305545807 0.06699999809 0.352932213
v 0.065 0.06699999809 0.3521267492
v 0.06694454193 0.06699999809 0.352932213
v 0.06775000095 0.06699999809 0.3548767549
v 0.06694454193 0.06699999809 0.3568212968
v 0.065 0.06699999809 0.3576267511
v 0.06305545807 0.06699999809 0.3568212968
v 0.06 0.06699999809 0.3548767549
v 0.06095491409 0.06699999809 0.357815674
v 0.06345491409 0.06699999809 0.3596320326
v 0.06654508591 0.06699999809 0.3596320326
v 0.06904508591 0.06699999809 0.357815674
v 0.07 0.06699999809 0.3548767549
v 0.06904508591 0.06699999809 0.3519378263
v 0.06654508591 0.06699999809 0.3501214677
v 0.06345491409 0.06699999809 0.3501214677
v 0.06095491409 0.06699999809 0.3519378263
f 2 20 1
f 1 20 21
f 22 11 10
f 10 11 12
f 10 12 9
f 9 12 13
f 9 13 8
f 8 13 14
f 8 14 7
f 7 14 15
f 7 15 6
f 6 15 16
f 6 16 5
f 5 16 17
f 5 17 4
f 4 17 18
f 4 18 3
f 3 18 19
f 3 19 2
f 2 19 20
f 24 40 23
f 23 40 31
f 23 31 32
f 40 24 39
f 39 24 25
f 39 25 38
f 38 25 26
f 38 26 37
f 37 26 27
f 37 27 36
f 36 27 35
f 35 27 28
f 35 28 34
f 34 28 29
f 34 29 33
f 33 29 30
f 33 30 32
f 32 30 23
f 42 56 41
f 41 56 58
f 57 49 48
f 48 49 50
f 48 50 47
f 47 50 51
f 47 51 46
f 46 51 52
f 46 52 45
f 45 52 53
f 45 53 44
f 44 53 54
f 44 54 43
f 43 54 55
f 43 55 42
f 42 55 56
f 60 76 59
f 59 76 67
f 59 67 68
f 76 60 75
f 75 60 61
f 75 61 74
f 74 61 62
f 74 62 73
f 73 62 63
f 73 63 72
f 72 63 71
f 71 63 64
f 71 64 70
f 70 64 65
f 70 65 69
f 69 65 66
f 69 66 68
f 68 66 59
