v -0.2065470505 0.09 0.4590211755
v -0.2071594048 0.09 0.4608339578
v -0.2063105774 0.09 0.4625487978
v -0.204497776 0.09 0.463161152
v -0.2027829552 0.09 0.4623123247
v -0.2021706009 0.09 0.4604995424
v -0.2030194283 0.09 0.4587847025
v -0.2048322105 0.09 0.4581723482
v -0.2065470505 0.085 0.4590211755
v -0.2048322105 0.085 0.4581723482
v -0.2030194283 0.085 0.4587847025
v -0.2021706009 0.085 0.4604995424
v -0.2027829552 0.085 0.4623123247
v -0.204497776 0.085 0.463161152
v -0.2063105774 0.085 0.4625487978
v -0.2071594048 0.085 0.4608339578
v -0.2065470505 0.09 0.4590211755
v -0.2065470505 0.085 0.4590211755
v -0.2065470505 0.085 0.4590211755
v -0.2071594048 0.085 0.4608339578
v -0.2063105774 0.085 0.4625487978
v -0.204497776 0.085 0.463161152
v -0.2027829552 0.085 0.4623123247
v -0.2021706009 0.085 0.4604995424
v -0.2030194283 0.085 0.4587847025
v -0.2048322105 0.085 0.4581723482
v -0.210687542 0.085 0.4554009325
v -0.2075505447 0.085 0.4532052881
v -0.2037525177 0.085 0.4527189714
v -0.200163517 0.085 0.4540533907
v -0.1976057434 0.085 0.4569028551
v -0.1966651726 0.085 0.4606145937
v -0.1975572586 0.085 0.4643382723
v -0.2000776482 0.085 0.4672208482
v -0.2036489487 0.085 0.4686019594
v -0.2074530029 0.085 0.4681652147
v -0.2106183624 0.085 0.4660106737
v -0.2124198914 0.085 0.4626318819
v -0.2124448586 0.085 0.4588029176
v -0.2065470505 0.09 0.4590211755
v -0.2048322105 0.09 0.4581723482
v -0.2030194283 0.09 0.4587847025
v -0.2021706009 0.09 0.4604995424
v -0.2027829552 0.09 0.4623123247
v -0.204497776 0.09 0.463161152
v -0.2063105774 0.09 0.4625487978
v -0.2071594048 0.09 0.4608339578
v -0.210687542 0.09 0.4554009325
v -0.2124448586 0.09 0.4588029176
v -0.2124198914 0.09 0.4626318819
v -0.2106183624 0.09 0.4660106737
v -0.2074530029 0.09 0.4681652147
v -0.2036489487 0.09 0.4686019594
v -0.2000776482 0.09 0.4672208482
v -0.1975572586 0.09 0.4643382723
v -0.1966651726 0.09 0.4606145937
v -0.1976057434 0.09 0.4569028551
v -0.200163517 0.09 0.4540533907
v -0.2037525177 0.09 0.4527189714
v -0.2075505447 0.09 0.4532052881
v -0.210687542 0.09 0.4554009325
v -0.2075505447 0.09 0.4532052881
v -0.2037525177 0.09 0.4527189714
v -0.200163517 0.09 0.4540533907
v -0.1976057434 0.09 0.4569028551
v -0.1966651726 0.09 0.4606145937
v -0.1975572586 0.09 0.4643382723
v -0.2000776482 0.09 0.4672208482
v -0.2036489487 0.09 0.4686019594
v -0.2074530029 0.09 0.4681652147
v -0.2106183624 0.09 0.4660106737
v -0.2124198914 0.09 0.4626318819
v -0.2124448586 0.09 0.4588029176
v -0.210687542 0.085 0.4554009325
v -0.2124448586 0.085 0.4588029176
v -0.2124198914 0.085 0.4626318819
v -0.2106183624 0.085 0.4660106737
v -0.2074530029 0.085 0.4681652147
v -0.2036489487 0.085 0.4686019594
v -0.2000776482 0.085 0.4672208482
v -0.1975572586 0.085 0.4643382723
v -0.1966651726 0.085 0.4606145937
v -0.1976057434 0.085 0.4569028551
v -0.200163517 0.085 0.4540533907
v -0.2037525177 0.085 0.4527189714
v -0.2075505447 0.085 0.4532052881
v -0.210687542 0.085 0.4554009325
v -0.210687542 0.09 0.4554009325
f 2 16 1
f 1 16 18
f 17 9 8
f 8 9 10
f 8 10 11
f 2 3 16
f 16 3 15
f 15 3 4
f 15 4 14
f 14 4 5
f 14 5 13
f 13 5 6
f 13 6 12
f 12 6 7
f 12 7 11
f 11 7 8
f 20 39 19
f 19 39 27
f 19 27 28
f 39 20 38
f 38 20 21
f 38 21 37
f 37 21 36
f 36 21 22
f 36 22 35
f 35 22 34
f 34 22 23
f 34 23 33
f 33 23 24
f 33 24 32
f 32 24 31
f 31 24 25
f 31 25 30
f 30 25 29
f 29 25 26
f 29 26 28
f 28 26 19
f 41 60 40
f 40 60 48
f 40 48 49
f 60 41 59
f 59 41 42
f 59 42 58
f 58 42 57
f 57 42 43
f 57 43 56
f 56 43 55
f 55 43 44
f 55 44 54
f 54 44 45
f 54 45 53
f 53 45 52
f 52 45 46
f 52 46 51
f 51 46 50
f 50 46 47
f 50 47 49
f 49 47 40
f 62 86 61
f 61 86 87
f 88 74 73
f 73 74 75
f 73 75 72
f 72 75 76
f 72 76 71
f 71 76 77
f 71 77 70
f 70 77 78
f 70 78 69
f 69 78 79
f 69 79 68
f 68 79 80
f 68 80 67
f 67 80 81
f 67 81 66
f 66 81 82
f 66 82 65
f 65 82 83
f 65 83 64
f 64 83 84
f 64 84 63
f 63 84 85
f 63 85 62
f 62 85 86
