v -0.2065470505 0.09 0.3790211851
v -0.2048322105 0.09 0.3781723482
v -0.2030194283 0.09 0.3787847025
v -0.2021706009 0.09 0.3804995329
v -0.2027829552 0.09 0.3823123247
v -0.204497776 0.09 0.383161152
v -0.2063105774 0.09 0.3825487978
v -0.2071594048 0.09 0.3808339674
v -0.210687542 0.09 0.3754009325
v -0.2124448586 0.09 0.3788029176
v -0.2124198914 0.09 0.3826318819
v -0.2106183624 0.09 0.3860106641
v -0.2074530029 0.09 0.3881652242
v -0.2036489487 0.09 0.3886019689
v -0.2000776482 0.09 0.3872208482
v -0.1975572586 0.09 0.3843382723
v -0.1966651726 0.09 0.3806145841
v -0.1976057434 0.09 0.3769028551
v -0.200163517 0.09 0.3740533907
v -0.2037525177 0.09 0.3727189619
v -0.2075505447 0.09 0.3732052786
v -0.2065470505 0.085 0.3790211851
v -0.2071594048 0.085 0.3808339674
v -0.2063105774 0.085 0.3825487978
v -0.204497776 0.085 0.383161152
v -0.2027829552 0.085 0.3823123247
v -0.2021706009 0.085 0.3804995329
v -0.2030194283 0.085 0.3787847025
v -0.2048322105 0.085 0.3781723482
v -0.210687542 0.085 0.3754009325
v -0.2075505447 0.085 0.3732052786
v -0.2037525177 0.085 0.3727189619
v -0.200163517 0.085 0.3740533907
v -0.1976057434 0.085 0.3769028551
v -0.1966651726 0.085 0.3806145841
v -0.1975572586 0.085 0.3843382723
v -0.2000776482 0.085 0.3872208482
v -0.2036489487 0.085 0.3886019689
v -0.2074530029 0.085 0.3881652242
v -0.2106183624 0.085 0.3860106641
v -0.2124198914 0.085 0.3826318819
v -0.2124448586 0.085 0.3788029176
v -0.2065470505 0.09 0.3790211851
v -0.2071594048 0.09 0.3808339674
v -0.2063105774 0.09 0.3825487978
v -0.204497776 0.09 0.383161152
v -0.2027829552 0.09 0.3823123247
v -0.2021706009 0.09 0.3804995329
v -0.2030194283 0.09 0.3787847025
v -0.2048322105 0.09 0.3781723482
v -0.2065470505 0.085 0.3790211851
v -0.2048322105 0.085 0.3781723482
v -0.2030194283 0.085 0.3787847025
v -0.2021706009 0.085 0.3804995329
v -0.2027829552 0.085 0.3823123247
v -0.204497776 0.085 0.383161152
v -0.2063105774 0.085 0.3825487978
v -0.2071594048 0.085 0.3808339674
v -0.2065470505 0.09 0.3790211851
v -0.2065470505 0.085 0.3790211851
v -0.210687542 0.09 0.3754009325
v -0.2075505447 0.09 0.3732052786
v -0.2037525177 0.09 0.3727189619
v -0.200163517 0.09 0.3740533907
v -0.1976057434 0.09 0.3769028551
v -0.1966651726 0.09 0.3806145841
v -0.1975572586 0.09 0.3843382723
v -0.2000776482 0.09 0.3872208482
v -0.2036489487 0.09 0.3886019689
v -0.2074530029 0.09 0.3881652242
v -0.2106183624 0.09 0.3860106641
v -0.2124198914 0.09 0.3826318819
v -0.2124448586 0.09 0.3788029176
v -0.210687542 0.085 0.3754009325
v -0.2124448586 0.085 0.3788029176
v -0.2124198914 0.085 0.3826318819
v -0.2106183624 0.085 0.3860106641
v -0.2074530029 0.085 0.3881652242
v -0.2036489487 0.085 0.3886019689
v -0.2000776482 0.085 0.3872208482
v -0.1975572586 0.085 0.3843382723
v -0.1966651726 0.085 0.3806145841
v -0.1976057434 0.085 0.3769028551
v -0.200163517 0.085 0.3740533907
v -0.2037525177 0.085 0.3727189619
v -0.2075505447 0.085 0.3732052786
v -0.210687542 0.085 0.3754009325
v -0.210687542 0.09 0.3754009325
f 2 21 1
f 1 21 9
f 1 9 10
f 21 2 20
f 20 2 3
f 20 3 19
f 19 3 18
f 18 3 4
f 18 4 17
f 17 4 16
f 16 4 5
f 16 5 15
f 15 5 6
f 15 6 14
f 14 6 13
f 13 6 7
f 13 7 12
f 12 7 11
f 11 7 8
f 11 8 10
f 10 8 1
f 23 42 22
f 22 42 30
f 22 30 31
f 42 23 41
f 41 23 24
f 41 24 40
f 40 24 39
f 39 24 25
f 39 25 38
f 38 25 37
f 37 25 26
f 37 26 36
f 36 26 27
f 36 27 35
f 35 27 34
f 34 27 28
f 34 28 33
f 33 28 32
f 32 28 29
f 32 29 31
f 31 29 22
f 44 58 43
f 43 58 60
f 59 51 50
f 50 51 52
f 50 52 53
f 44 45 58
f 58 45 57
f 57 45 46
f 57 46 56
f 56 46 47
f 56 47 55
f 55 47 48
f 55 48 54
f 54 48 49
f 54 49 53
f 53 49 50
f 62 86 61
f 61 86 87
f 88 74 73
f 73 74 75
f 73 75 72
f 72 75 76
f 72 76 71
f 71 76 77
f 71 77 70
f 70 77 78
f 70 78 69
f 69 78 79
f 69 79 68
f 68 79 80
f 68 80 67
f 67 80 81
f 67 81 66
f 66 81 82
f 66 82 65
f 65 82 83
f 65 83 64
f 64 83 84
f 64 84 63
f 63 84 85
f 63 85 62
f 62 85 86
