v -0.2430256081 0.09699999809 0.3838767511
v -0.2407161903 0.09699999809 0.3798767549
v -0.2407161903 0.1019999981 0.3798767549
v -0.2430256081 0.1019999981 0.3838767511
v -0.2478350067 0.1019999981 0.3798767549
v -0.2471027756 0.1019999981 0.3816445238
v -0.2453350067 0.1019999981 0.3823767549
v -0.2435672379 0.1019999981 0.3816445238
v -0.2428350067 0.1019999981 0.3798767549
v -0.2435672379 0.1019999981 0.3781089861
v -0.2453350067 0.1019999981 0.3773767549
v -0.2471027756 0.1019999981 0.3781089861
v -0.2478350067 0.09699999809 0.3798767549
v -0.2471027756 0.09699999809 0.3781089861
v -0.2453350067 0.09699999809 0.3773767549
v -0.2435672379 0.09699999809 0.3781089861
v -0.2428350067 0.09699999809 0.3798767549
v -0.2435672379 0.09699999809 0.3816445238
v -0.2453350067 0.09699999809 0.3823767549
v -0.2471027756 0.09699999809 0.3816445238
v -0.2478350067 0.1019999981 0.3798767549
v -0.2478350067 0.09699999809 0.3798767549
v -0.2478350067 0.09699999809 0.3798767549
v -0.2471027756 0.09699999809 0.3816445238
v -0.2453350067 0.09699999809 0.3823767549
v -0.2435672379 0.09699999809 0.3816445238
v -0.2428350067 0.09699999809 0.3798767549
v -0.2435672379 0.09699999809 0.3781089861
v -0.2453350067 0.09699999809 0.3773767549
v -0.2471027756 0.09699999809 0.3781089861
v -0.2407161903 0.09699999809 0.3798767549
v -0.2430256081 0.09699999809 0.3838767511
v -0.2476444054 0.09699999809 0.3838767511
v -0.249953804 0.09699999809 0.3798767549
v -0.2476444054 0.09699999809 0.3758767492
v -0.2430256081 0.09699999809 0.3758767492
v -0.2478350067 0.1019999981 0.3798767549
v -0.2471027756 0.1019999981 0.3781089861
v -0.2453350067 0.1019999981 0.3773767549
v -0.2435672379 0.1019999981 0.3781089861
v -0.2428350067 0.1019999981 0.3798767549
v -0.2435672379 0.1019999981 0.3816445238
v -0.2453350067 0.1019999981 0.3823767549
v -0.2471027756 0.1019999981 0.3816445238
v -0.2430256081 0.1019999981 0.3838767511
v -0.2407161903 0.1019999981 0.3798767549
v -0.2430256081 0.1019999981 0.3758767492
v -0.2476444054 0.1019999981 0.3758767492
v -0.249953804 0.1019999981 0.3798767549
v -0.2476444054 0.1019999981 0.3838767511
v -0.2476444054 0.09699999809 0.3758767492
v -0.249953804 0.09699999809 0.3798767549
v -0.249953804 0.1019999981 0.3798767549
v -0.2476444054 0.1019999981 0.3758767492
v -0.2476444054 0.09699999809 0.3838767511
v -0.2430256081 0.09699999809 0.3838767511
v -0.2430256081 0.1019999981 0.3838767511
v -0.2476444054 0.1019999981 0.3838767511
v -0.2430256081 0.09699999809 0.3758767492
v -0.2476444054 0.09699999809 0.3758767492
v -0.2476444054 0.1019999981 0.3758767492
v -0.2430256081 0.1019999981 0.3758767492
v -0.2407161903 0.09699999809 0.3798767549
v -0.2430256081 0.09699999809 0.3758767492
v -0.2430256081 0.1019999981 0.3758767492
v -0.2407161903 0.1019999981 0.3798767549
v -0.249953804 0.09699999809 0.3798767549
v -0.2476444054 0.09699999809 0.3838767511
v -0.2476444054 0.1019999981 0.3838767511
v -0.249953804 0.1019999981 0.3798767549
f 1 2 4
f 4 2 3
f 6 20 5
f 5 20 22
f 21 13 12
f 12 13 14
f 12 14 15
f 6 7 20
f 20 7 19
f 19 7 8
f 19 8 18
f 18 8 9
f 18 9 17
f 17 9 10
f 17 10 16
f 16 10 11
f 16 11 15
f 15 11 12
f 30 23 34
f 34 23 24
f 34 24 33
f 33 24 25
f 33 25 32
f 32 25 26
f 32 26 31
f 31 26 27
f 31 27 28
f 31 28 36
f 36 28 29
f 36 29 35
f 35 29 30
f 35 30 34
f 44 37 49
f 49 37 38
f 49 38 48
f 48 38 39
f 48 39 47
f 47 39 40
f 47 40 46
f 46 40 41
f 46 41 42
f 46 42 45
f 45 42 43
f 45 43 50
f 50 43 44
f 50 44 49
f 51 52 54
f 54 52 53
f 55 56 58
f 58 56 57
f 59 60 62
f 62 60 61
f 63 64 66
f 66 64 65
f 67 68 70
f 70 68 69
