v 0.2225 0.17 0.02279999971
v 0.2232322311 0.1717677689 0.02279999971
v 0.225 0.1725 0.02279999971
v 0.2267677689 0.1717677689 0.02279999971
v 0.2275 0.17 0.02279999971
v 0.2267677689 0.1682322311 0.02279999971
v 0.225 0.1675 0.02279999971
v 0.2232322311 0.1682322311 0.02279999971
v 0.2225 0.17 0.006800000072
v 0.2232322311 0.1682322311 0.006800000072
v 0.225 0.1675 0.006800000072
v 0.2267677689 0.1682322311 0.006800000072
v 0.2275 0.17 0.006800000072
v 0.2267677689 0.1717677689 0.006800000072
v 0.225 0.1725 0.006800000072
v 0.2232322311 0.1717677689 0.006800000072
v 0.2225 0.17 0.006800000072
v 0.2225 0.17 0.02279999971
v 0.2207500076 0.17 0.001800000072
v 0.2215616798 0.1724980927 0.001800000072
v 0.223686676 0.174041996 0.001800000072
v 0.226313324 0.174041996 0.001800000072
v 0.2284383202 0.1724980927 0.001800000072
v 0.2292499924 0.17 0.001800000072
v 0.2284383202 0.1675019073 0.001800000072
v 0.226313324 0.165958004 0.001800000072
v 0.223686676 0.165958004 0.001800000072
v 0.2215616798 0.1675019073 0.001800000072
v 0.2207500076 0.17 0.006800000072
v 0.2215616798 0.1675019073 0.006800000072
v 0.223686676 0.165958004 0.006800000072
v 0.226313324 0.165958004 0.006800000072
v 0.2284383202 0.1675019073 0.006800000072
v 0.2292499924 0.17 0.006800000072
v 0.2284383202 0.1724980927 0.006800000072
v 0.226313324 0.174041996 0.006800000072
v 0.223686676 0.174041996 0.006800000072
v 0.2215616798 0.1724980927 0.006800000072
v 0.2225 0.17 0.006800000072
v 0.2232322311 0.1717677689 0.006800000072
v 0.225 0.1725 0.006800000072
v 0.2267677689 0.1717677689 0.006800000072
v 0.2275 0.17 0.006800000072
v 0.2267677689 0.1682322311 0.006800000072
v 0.225 0.1675 0.006800000072
v 0.2232322311 0.1682322311 0.006800000072
v 0.2207500076 0.17 0.006800000072
v 0.2215616798 0.1724980927 0.006800000072
v 0.223686676 0.174041996 0.006800000072
v 0.226313324 0.174041996 0.006800000072
v 0.2284383202 0.1724980927 0.006800000072
v 0.2292499924 0.17 0.006800000072
v 0.2284383202 0.1675019073 0.006800000072
v 0.226313324 0.165958004 0.006800000072
v 0.223686676 0.165958004 0.006800000072
v 0.2215616798 0.1675019073 0.006800000072
v 0.2207500076 0.17 0.001800000072
v 0.2215616798 0.1675019073 0.001800000072
v 0.223686676 0.165958004 0.001800000072
v 0.226313324 0.165958004 0.001800000072
v 0.2284383202 0.1675019073 0.001800000072
v 0.2292499924 0.17 0.001800000072
v 0.2284383202 0.1724980927 0.001800000072
v 0.226313324 0.174041996 0.001800000072
v 0.223686676 0.174041996 0.001800000072
v 0.2215616798 0.1724980927 0.001800000072
v 0.2207500076 0.17 0.001800000072
v 0.2207500076 0.17 0.006800000072
v 0.2225 0.17 0.02279999971
v 0.2232322311 0.1682322311 0.02279999971
v 0.225 0.1675 0.02279999971
v 0.2267677689 0.1682322311 0.02279999971
v 0.2275 0.17 0.02279999971
v 0.2267677689 0.1717677689 0.02279999971
v 0.225 0.1725 0.02279999971
v 0.2232322311 0.1717677689 0.02279999971
f 2 16 1
f 1 16 17
f 18 9 8
f 8 9 10
f 8 10 11
f 2 3 16
f 16 3 15
f 15 3 4
f 15 4 14
f 14 4 5
f 14 5 13
f 13 5 6
f 13 6 12
f 12 6 7
f 12 7 11
f 11 7 8
f 20 23 19
f 19 23 24
f 19 24 28
f 28 24 25
f 28 25 27
f 27 25 26
f 21 22 20
f 20 22 23
f 38 29 39
f 39 29 30
f 39 30 46
f 46 30 31
f 46 31 45
f 45 31 32
f 45 32 44
f 44 32 33
f 44 33 43
f 43 33 34
f 43 34 35
f 43 35 42
f 42 35 36
f 42 36 41
f 41 36 37
f 41 37 40
f 40 37 38
f 40 38 39
f 48 66 47
f 47 66 67
f 68 57 56
f 56 57 58
f 56 58 55
f 55 58 59
f 55 59 54
f 54 59 60
f 54 60 53
f 53 60 61
f 53 61 52
f 52 61 62
f 52 62 51
f 51 62 63
f 51 63 50
f 50 63 64
f 50 64 49
f 49 64 65
f 49 65 48
f 48 65 66
f 70 72 69
f 69 72 73
f 69 73 76
f 76 73 74
f 76 74 75
f 70 71 72
