v -0.2495849991 0.07199999809 0.4598767549
v -0.2487733269 0.07199999809 0.4573786623
v -0.2466483307 0.07199999809 0.4558347589
v -0.2440216827 0.07199999809 0.4558347589
v -0.2418966866 0.07199999809 0.4573786623
v -0.2410849953 0.07199999809 0.4598767549
v -0.2418966866 0.07199999809 0.4623748476
v -0.2440216827 0.07199999809 0.4639187509
v -0.2466483307 0.07199999809 0.4639187509
v -0.2487733269 0.07199999809 0.4623748476
v -0.2495849991 0.06699999809 0.4598767549
v -0.2487733269 0.06699999809 0.4623748476
v -0.2466483307 0.06699999809 0.4639187509
v -0.2440216827 0.06699999809 0.4639187509
v -0.2418966866 0.06699999809 0.4623748476
v -0.2410849953 0.06699999809 0.4598767549
v -0.2418966866 0.06699999809 0.4573786623
v -0.2440216827 0.06699999809 0.4558347589
v -0.2466483307 0.06699999809 0.4558347589
v -0.2487733269 0.06699999809 0.4573786623
v -0.2495849991 0.06699999809 0.4598767549
v -0.2495849991 0.07199999809 0.4598767549
v -0.2478350067 0.1069999981 0.4598767549
v -0.2471027756 0.1069999981 0.4581089861
v -0.2453350067 0.1069999981 0.4573767549
v -0.2435672379 0.1069999981 0.4581089861
v -0.2428350067 0.1069999981 0.4598767549
v -0.2435672379 0.1069999981 0.4616445238
v -0.2453350067 0.1069999981 0.4623767549
v -0.2471027756 0.1069999981 0.4616445238
v -0.2478350067 0.07199999809 0.4598767549
v -0.2471027756 0.07199999809 0.4616445238
v -0.2453350067 0.07199999809 0.4623767549
v -0.2435672379 0.07199999809 0.4616445238
v -0.2428350067 0.07199999809 0.4598767549
v -0.2435672379 0.07199999809 0.4581089861
v -0.2453350067 0.07199999809 0.4573767549
v -0.2471027756 0.07199999809 0.4581089861
v -0.2478350067 0.07199999809 0.4598767549
v -0.2478350067 0.1069999981 0.4598767549
v -0.2495849991 0.07199999809 0.4598767549
v -0.2487733269 0.07199999809 0.4623748476
v -0.2466483307 0.07199999809 0.4639187509
v -0.2440216827 0.07199999809 0.4639187509
v -0.2418966866 0.07199999809 0.4623748476
v -0.2410849953 0.07199999809 0.4598767549
v -0.2418966866 0.07199999809 0.4573786623
v -0.2440216827 0.07199999809 0.4558347589
v -0.2466483307 0.07199999809 0.4558347589
v -0.2487733269 0.07199999809 0.4573786623
v -0.2478350067 0.07199999809 0.4598767549
v -0.2471027756 0.07199999809 0.4581089861
v -0.2453350067 0.07199999809 0.4573767549
v -0.2435672379 0.07199999809 0.4581089861
v -0.2428350067 0.07199999809 0.4598767549
v -0.2435672379 0.07199999809 0.4616445238
v -0.2453350067 0.07199999809 0.4623767549
v -0.2471027756 0.07199999809 0.4616445238
v -0.2464896965 0.06699999809 0.4618767435
v -0.2441802979 0.06699999809 0.4618767435
v -0.2430256081 0.06699999809 0.4598767549
v -0.2441802979 0.06699999809 0.4578767473
v -0.2464896965 0.06699999809 0.4578767473
v -0.2476444054 0.06699999809 0.4598767549
v -0.2495849991 0.06699999809 0.4598767549
v -0.2487733269 0.06699999809 0.4573786623
v -0.2466483307 0.06699999809 0.4558347589
v -0.2440216827 0.06699999809 0.4558347589
v -0.2418966866 0.06699999809 0.4573786623
v -0.2410849953 0.06699999809 0.4598767549
v -0.2418966866 0.06699999809 0.4623748476
v -0.2440216827 0.06699999809 0.4639187509
v -0.2466483307 0.06699999809 0.4639187509
v -0.2487733269 0.06699999809 0.4623748476
v -0.2478350067 0.1069999981 0.4598767549
v -0.2471027756 0.1069999981 0.4616445238
v -0.2453350067 0.1069999981 0.4623767549
v -0.2435672379 0.1069999981 0.4616445238
v -0.2428350067 0.1069999981 0.4598767549
v -0.2435672379 0.1069999981 0.4581089861
v -0.2453350067 0.1069999981 0.4573767549
v -0.2471027756 0.1069999981 0.4581089861
v -0.2441802979 0.06699999809 0.4618767435
v -0.2464896965 0.06699999809 0.4618767435
v -0.2464896965 0.06949999809 0.4618767435
v -0.2441802979 0.06949999809 0.4618767435
v -0.2464896965 0.06699999809 0.4618767435
v -0.2476444054 0.06699999809 0.4598767549
v -0.2476444054 0.06949999809 0.4598767549
v -0.2464896965 0.06949999809 0.4618767435
v -0.2441802979 0.06699999809 0.4578767473
v -0.2430256081 0.06699999809 0.4598767549
v -0.2430256081 0.06949999809 0.4598767549
v -0.2441802979 0.06949999809 0.4578767473
v -0.2430256081 0.06949999809 0.4598767549
v -0.2441802979 0.06949999809 0.4618767435
v -0.2464896965 0.06949999809 0.4618767435
v -0.2476444054 0.06949999809 0.4598767549
v -0.2464896965 0.06949999809 0.4578767473
v -0.2441802979 0.06949999809 0.4578767473
v -0.2476444054 0.06699999809 0.4598767549
v -0.2464896965 0.06699999809 0.4578767473
v -0.2464896965 0.06949999809 0.4578767473
v -0.2476444054 0.06949999809 0.4598767549
v -0.2464896965 0.06699999809 0.4578767473
v -0.2441802979 0.06699999809 0.4578767473
v -0.2441802979 0.06949999809 0.4578767473
v -0.2464896965 0.06949999809 0.4578767473
v -0.2430256081 0.06699999809 0.4598767549
v -0.2441802979 0.06699999809 0.4618767435
v -0.2441802979 0.06949999809 0.4618767435
v -0.2430256081 0.06949999809 0.4598767549
f 2 20 1
f 1 20 21
f 22 11 10
f 10 11 12
f 10 12 9
f 9 12 13
f 9 13 8
f 8 13 14
f 8 14 7
f 7 14 15
f 7 15 6
f 6 15 16
f 6 16 5
f 5 16 17
f 5 17 4
f 4 17 18
f 4 18 3
f 3 18 19
f 3 19 2
f 2 19 20
f 24 38 23
f 23 38 39
f 40 31 30
f 30 31 32
f 30 32 33
f 24 25 38
f 38 25 37
f 37 25 26
f 37 26 36
f 36 26 27
f 36 27 35
f 35 27 28
f 35 28 34
f 34 28 29
f 34 29 33
f 33 29 30
f 50 41 51
f 51 41 42
f 51 42 58
f 58 42 43
f 58 43 57
f 57 43 44
f 57 44 56
f 56 44 45
f 56 45 55
f 55 45 46
f 55 46 47
f 55 47 54
f 54 47 48
f 54 48 53
f 53 48 49
f 53 49 52
f 52 49 50
f 52 50 51
f 60 73 59
f 59 73 74
f 59 74 64
f 64 74 65
f 64 65 66
f 61 71 60
f 60 71 72
f 60 72 73
f 62 69 61
f 61 69 70
f 61 70 71
f 69 62 68
f 68 62 63
f 68 63 67
f 67 63 66
f 66 63 64
f 76 78 75
f 75 78 79
f 75 79 82
f 82 79 80
f 82 80 81
f 76 77 78
f 83 84 86
f 86 84 85
f 87 88 90
f 90 88 89
f 91 92 94
f 94 92 93
f 96 98 95
f 95 98 99
f 95 99 100
f 96 97 98
f 101 102 104
f 104 102 103
f 105 106 108
f 108 106 107
f 109 110 112
f 112 110 111
