v 0.01053011537 0.008000000119 0.4207311708
v 0.01053011537 0.008000000119 0.419022339
v 0.01200999975 0.008000000119 0.4181679231
v 0.01348988533 0.008000000119 0.419022339
v 0.01348988533 0.008000000119 0.4207311708
v 0.01200999975 0.008000000119 0.4215855676
v 0.01053011537 0.008000000119 0.4207311708
v 0.01200999975 0.008000000119 0.4215855676
v 0.01348988533 0.008000000119 0.4207311708
v 0.01348988533 0.008000000119 0.419022339
v 0.01200999975 0.008000000119 0.4181679231
v 0.01053011537 0.008000000119 0.419022339
v 0.01027794957 0.008799999952 0.4208767587
v 0.01014825225 0.008799999952 0.4191460687
v 0.01142048955 0.008799999952 0.4179656107
v 0.0131366396 0.008799999952 0.4182242662
v 0.01400440812 0.008799999952 0.4197272951
v 0.01337034583 0.008799999952 0.4213428575
v 0.01171191573 0.008799999952 0.4218544084
v 0.01053011537 0.008000000119 0.4207311708
v 0.01027794957 0.008799999952 0.4208767587
v 0.01027794957 0.008799999952 0.4208767587
v 0.01171191573 0.008799999952 0.4218544084
v 0.01337034583 0.008799999952 0.4213428575
v 0.01400440812 0.008799999952 0.4197272951
v 0.0131366396 0.008799999952 0.4182242662
v 0.01142048955 0.008799999952 0.4179656107
v 0.01014825225 0.008799999952 0.4191460687
v 0.01374205112 0.02269999981 0.4188767511
v 0.01387174726 0.02269999981 0.4206074411
v 0.01259950995 0.02269999981 0.4217878992
v 0.01088335991 0.02269999981 0.4215292246
v 0.01001559258 0.02269999981 0.4200262148
v 0.01064965487 0.02269999981 0.4184106523
v 0.01230808496 0.02269999981 0.4178990823
v 0.01088335991 0.02269999981 0.4215292246
v 0.01027794957 0.008799999952 0.4208767587
v 0.01348988533 0.02349999905 0.419022339
v 0.01348988533 0.02349999905 0.4207311708
v 0.01200999975 0.02349999905 0.4215855676
v 0.01053011537 0.02349999905 0.4207311708
v 0.01053011537 0.02349999905 0.419022339
v 0.01200999975 0.02349999905 0.4181679231
v 0.01374205112 0.02269999981 0.4188767511
v 0.01230808496 0.02269999981 0.4178990823
v 0.01064965487 0.02269999981 0.4184106523
v 0.01001559258 0.02269999981 0.4200262148
v 0.01088335991 0.02269999981 0.4215292246
v 0.01259950995 0.02269999981 0.4217878992
v 0.01387174726 0.02269999981 0.4206074411
v 0.01001559258 0.02269999981 0.4200262148
v 0.01053011537 0.02349999905 0.4207311708
v 0.01348988533 0.02349999905 0.419022339
v 0.01200999975 0.02349999905 0.4181679231
v 0.01053011537 0.02349999905 0.419022339
v 0.01053011537 0.02349999905 0.4207311708
v 0.01200999975 0.02349999905 0.4215855676
v 0.01348988533 0.02349999905 0.4207311708
f 2 4 1
f 1 4 5
f 1 5 6
f 2 3 4
f 8 19 7
f 7 19 21
f 20 13 14
f 19 8 18
f 18 8 9
f 18 9 17
f 17 9 10
f 17 10 16
f 16 10 11
f 16 11 15
f 15 11 12
f 15 12 14
f 14 12 20
f 23 36 22
f 37 32 33
f 37 33 28
f 28 33 34
f 28 34 27
f 27 34 35
f 27 35 26
f 26 35 29
f 26 29 25
f 25 29 30
f 25 30 24
f 24 30 31
f 24 31 23
f 23 31 36
f 39 50 38
f 38 50 44
f 38 44 45
f 50 39 49
f 49 39 40
f 49 40 48
f 48 40 52
f 48 52 47
f 51 41 42
f 51 42 46
f 46 42 43
f 46 43 45
f 45 43 38
f 54 56 53
f 53 56 57
f 53 57 58
f 54 55 56
