v 0.01853005171 0.0468234396 0.4405767519
v 0.01860000014 0.04694459438 0.4405767519
v 0.01860000014 0.0468234396 0.4405767519
v 0.01830000043 0.0468234396 0.4414767534
v 0.01834019184 0.0468234396 0.4413267595
v 0.01845000029 0.0468234396 0.4412169534
v 0.01860000014 0.0468234396 0.4411767465
v 0.01853005171 0.0468234396 0.4411767465
v 0.01853005171 0.0468234396 0.4405767519
v 0.01860000014 0.0468234396 0.4405767519
v 0.01845000029 0.0468234396 0.440536564
v 0.01834019184 0.0468234396 0.440426758
v 0.01830000043 0.0468234396 0.440276745
v 0.01830000043 0.0468234396 0.4403467065
v 0.01769999981 0.0468234396 0.4403467065
v 0.01769999981 0.0468234396 0.440276745
v 0.01765980721 0.0468234396 0.440426758
v 0.01754999995 0.0468234396 0.440536564
v 0.0174000001 0.0468234396 0.4405767519
v 0.01746994853 0.0468234396 0.4405767519
v 0.01746994853 0.0468234396 0.4411767465
v 0.0174000001 0.0468234396 0.4411767465
v 0.01754999995 0.0468234396 0.4412169534
v 0.01765980721 0.0468234396 0.4413267595
v 0.01769999981 0.0468234396 0.4414767534
v 0.01769999981 0.0468234396 0.4414068109
v 0.01830000043 0.0468234396 0.4414068109
v 0.01830000043 0.04694459438 0.440276745
v 0.01830000043 0.04845823288 0.440276745
v 0.01830000043 0.04841917992 0.4400133402
v 0.01830000043 0.04836613655 0.4397523958
v 0.01830000043 0.04829924583 0.4394946367
v 0.01853005171 0.0468234396 0.4411767465
v 0.01860000014 0.0468234396 0.4411767465
v 0.01860000014 0.04694459438 0.4411767465
v 0.01746994853 0.0468234396 0.4411767465
v 0.0174000001 0.04694459438 0.4411767465
v 0.0174000001 0.0468234396 0.4411767465
v 0.01769999981 0.04694459438 0.440276745
v 0.01769999981 0.0468234396 0.4403467065
v 0.01830000043 0.0468234396 0.4403467065
v 0.01830000043 0.04694459438 0.440276745
v 0.01830000043 0.04829924583 0.4394946367
v 0.01810005665 0.04830639362 0.4394905168
v 0.01789994359 0.04830639362 0.4394905168
v 0.01769999981 0.04829924583 0.4394946367
v 0.01746994853 0.0468234396 0.4405767519
v 0.0174000001 0.0468234396 0.4405767519
v 0.0174000001 0.04694459438 0.4405767519
v 0.01769999981 0.04694459438 0.440276745
v 0.01769999981 0.04829924583 0.4394946367
v 0.01769999981 0.04836613655 0.4397523958
v 0.01769999981 0.04841917992 0.4400133402
v 0.01769999981 0.04845823288 0.440276745
v 0.01830000043 0.0468234396 0.4403467065
v 0.01830000043 0.0468234396 0.440276745
v 0.01830000043 0.04694459438 0.440276745
v 0.0174000001 0.04694459438 0.4405767519
v 0.0174000001 0.04845823288 0.4405767519
v 0.01713659167 0.04841917992 0.4405767519
v 0.01687564015 0.04836613655 0.4405767519
v 0.0166178906 0.04829924583 0.4405767519
v 0.01769999981 0.0468234396 0.4414068109
v 0.01769999981 0.0468234396 0.4414767534
v 0.01769999981 0.04694459438 0.4414767534
v 0.01769999981 0.04694459438 0.440276745
v 0.01769999981 0.04845823288 0.440276745
v 0.01761213183 0.04847325802 0.4404888803
v 0.0174000001 0.04845823288 0.4405767519
v 0.0174000001 0.04694459438 0.4405767519
v 0.0174000001 0.0468234396 0.4405767519
v 0.01754999995 0.0468234396 0.440536564
v 0.01765980721 0.0468234396 0.440426758
v 0.01769999981 0.0468234396 0.440276745
v 0.01769999981 0.0468234396 0.4403467065
v 0.01769999981 0.04694459438 0.440276745
v 0.01769999981 0.0468234396 0.440276745
v 0.01929999948 0.04010344028 0.4408767587
v 0.0186500001 0.04010344028 0.4397509271
v 0.01735000014 0.04010344028 0.4397509271
v 0.01669999957 0.04010344028 0.4408767587
v 0.01735000014 0.04010344028 0.4420025903
v 0.0186500001 0.04010344028 0.4420025903
v 0.01950000048 0.04030344009 0.4408767587
v 0.01875 0.04030344009 0.4421757967
v 0.01725000024 0.04030344009 0.4421757967
v 0.01649999976 0.04030344009 0.4408767587
v 0.01725000024 0.04030344009 0.4395777208
v 0.01875 0.04030344009 0.4395777208
v 0.01735000014 0.04010344028 0.4397509271
v 0.01725000024 0.04030344009 0.4395777208
v 0.01950000048 0.04030344009 0.4408767587
v 0.01875 0.04030344009 0.4395777208
v 0.01725000024 0.04030344009 0.4395777208
v 0.01649999976 0.04030344009 0.4408767587
v 0.01725000024 0.04030344009 0.4421757967
v 0.01875 0.04030344009 0.4421757967
v 0.01649999976 0.04580343723 0.4408767587
v 0.01725000024 0.04580343723 0.4395777208
v 0.01875 0.04580343723 0.4395777208
v 0.01950000048 0.04580343723 0.4408767587
v 0.01875 0.04580343723 0.4421757967
v 0.01725000024 0.04580343723 0.4421757967
v 0.01649999976 0.04580343723 0.4408767587
v 0.01649999976 0.04030344009 0.4408767587
v 0.01929999948 0.04010344028 0.4408767587
v 0.0186500001 0.04010344028 0.4420025903
v 0.01735000014 0.04010344028 0.4420025903
v 0.01669999957 0.04010344028 0.4408767587
v 0.01735000014 0.04010344028 0.4397509271
v 0.0186500001 0.04010344028 0.4397509271
v 0.01649999976 0.04580343723 0.4408767587
v 0.01725000024 0.04580343723 0.4421757967
v 0.01875 0.04580343723 0.4421757967
v 0.01950000048 0.04580343723 0.4408767587
v 0.01875 0.04580343723 0.4395777208
v 0.01725000024 0.04580343723 0.4395777208
v 0.01620000005 0.04610343933 0.4408767587
v 0.0167272079 0.04610343933 0.4396039659
v 0.01799999952 0.04610343933 0.4390767557
v 0.01927279234 0.04610343933 0.4396039659
v 0.01980000019 0.04610343933 0.4408767587
v 0.01927279234 0.04610343933 0.4421495515
v 0.01799999952 0.04610343933 0.4426767427
v 0.0167272079 0.04610343933 0.4421495515
v 0.01620000005 0.04610343933 0.4408767587
v 0.01649999976 0.04580343723 0.4408767587
v 0.02079999924 0.04610343933 0.4408767587
v 0.01997989893 0.04610343933 0.4428566438
v 0.01799999952 0.04610343933 0.4436767465
v 0.01602010131 0.04610343933 0.4428566438
v 0.01519999981 0.04610343933 0.4408767587
v 0.01602010131 0.04610343933 0.4388968546
v 0.01799999952 0.04610343933 0.4380767519
v 0.01997989893 0.04610343933 0.4388968546
v 0.01620000005 0.04610343933 0.4408767587
v 0.0167272079 0.04610343933 0.4421495515
v 0.01799999952 0.04610343933 0.4426767427
v 0.01927279234 0.04610343933 0.4421495515
v 0.01980000019 0.04610343933 0.4408767587
v 0.01927279234 0.04610343933 0.4396039659
v 0.01799999952 0.04610343933 0.4390767557
v 0.0167272079 0.04610343933 0.4396039659
v 0.02079999924 0.04764590263 0.4408767587
v 0.01997989893 0.04764590263 0.4428566438
v 0.01799999952 0.04764590263 0.4436767465
v 0.01602010131 0.04764590263 0.4428566438
v 0.01519999981 0.04764590263 0.4408767587
v 0.01602010131 0.04764590263 0.4388968546
v 0.01799999952 0.04764590263 0.4380767519
v 0.01997989893 0.04764590263 0.4388968546
v 0.02079999924 0.04610343933 0.4408767587
v 0.01997989893 0.04610343933 0.4388968546
v 0.01799999952 0.04610343933 0.4380767519
v 0.01602010131 0.04610343933 0.4388968546
v 0.01519999981 0.04610343933 0.4408767587
v 0.01602010131 0.04610343933 0.4428566438
v 0.01799999952 0.04610343933 0.4436767465
v 0.01997989893 0.04610343933 0.4428566438
v 0.01519999981 0.04764590263 0.4408767587
v 0.01519999981 0.04610343933 0.4408767587
v 0.01938210964 0.04829924583 0.4405767519
v 0.01938623428 0.04830638885 0.4407766992
v 0.01938623428 0.04830638885 0.4409768182
v 0.01938210964 0.04829924583 0.4411767465
v 0.01912435889 0.04836613655 0.4411767465
v 0.01886340857 0.04841917992 0.4411767465
v 0.01860000014 0.04845823288 0.4411767465
v 0.0183878684 0.04847325802 0.4412646181
v 0.01830000043 0.04845823288 0.4414767534
v 0.01830000043 0.04841917992 0.4417401582
v 0.01830000043 0.04836613655 0.4420011026
v 0.01830000043 0.04829924583 0.4422588617
v 0.01810005665 0.04830639362 0.4422629816
v 0.01789994359 0.04830639362 0.4422629816
v 0.01769999981 0.04829924583 0.4422588617
v 0.01769999981 0.04836613655 0.4420011026
v 0.01769999981 0.04841917992 0.4417401582
v 0.01769999981 0.04845823288 0.4414767534
v 0.01761213183 0.04847325802 0.4412646181
v 0.0174000001 0.04845823288 0.4411767465
v 0.01713659167 0.04841917992 0.4411767465
v 0.01687564015 0.04836613655 0.4411767465
v 0.0166178906 0.04829924583 0.4411767465
v 0.01661376596 0.04830638885 0.4409768182
v 0.01661376596 0.04830638885 0.4407766992
v 0.0166178906 0.04829924583 0.4405767519
v 0.01687564015 0.04836613655 0.4405767519
v 0.01713659167 0.04841917992 0.4405767519
v 0.0174000001 0.04845823288 0.4405767519
v 0.01761213183 0.04847325802 0.4404888803
v 0.01769999981 0.04845823288 0.440276745
v 0.01769999981 0.04841917992 0.4400133402
v 0.01769999981 0.04836613655 0.4397523958
v 0.01769999981 0.04829924583 0.4394946367
v 0.01789994359 0.04830639362 0.4394905168
v 0.01810005665 0.04830639362 0.4394905168
v 0.01830000043 0.04829924583 0.4394946367
v 0.01830000043 0.04836613655 0.4397523958
v 0.01830000043 0.04841917992 0.4400133402
v 0.01830000043 0.04845823288 0.440276745
v 0.0183878684 0.04847325802 0.4404888803
v 0.01860000014 0.04845823288 0.4405767519
v 0.01886340857 0.04841917992 0.4405767519
v 0.01912435889 0.04836613655 0.4405767519
v 0.02079999924 0.04764590263 0.4408767587
v 0.01997989893 0.04764590263 0.4388968546
v 0.01799999952 0.04764590263 0.4380767519
v 0.01602010131 0.04764590263 0.4388968546
v 0.01519999981 0.04764590263 0.4408767587
v 0.01602010131 0.04764590263 0.4428566438
v 0.01799999952 0.04764590263 0.4436767465
v 0.01997989893 0.04764590263 0.4428566438
v 0.01661376596 0.04830638885 0.4409768182
v 0.01519999981 0.04764590263 0.4408767587
v 0.01830000043 0.04694459438 0.4414767534
v 0.01830000043 0.04845823288 0.4414767534
v 0.0183878684 0.04847325802 0.4412646181
v 0.01860000014 0.04845823288 0.4411767465
v 0.01860000014 0.04694459438 0.4411767465
v 0.01860000014 0.0468234396 0.4411767465
v 0.01845000029 0.0468234396 0.4412169534
v 0.01834019184 0.0468234396 0.4413267595
v 0.01830000043 0.0468234396 0.4414767534
v 0.01860000014 0.04694459438 0.4411767465
v 0.01860000014 0.04845823288 0.4411767465
v 0.01886340857 0.04841917992 0.4411767465
v 0.01912435889 0.04836613655 0.4411767465
v 0.01938210964 0.04829924583 0.4411767465
v 0.01860000014 0.04694459438 0.4405767519
v 0.01853005171 0.0468234396 0.4405767519
v 0.01853005171 0.0468234396 0.4411767465
v 0.01860000014 0.04694459438 0.4411767465
v 0.01938210964 0.04829924583 0.4411767465
v 0.01938623428 0.04830638885 0.4409768182
v 0.01938623428 0.04830638885 0.4407766992
v 0.01938210964 0.04829924583 0.4405767519
v 0.0166178906 0.04829924583 0.4411767465
v 0.0174000001 0.04694459438 0.4411767465
v 0.01746994853 0.0468234396 0.4411767465
v 0.01746994853 0.0468234396 0.4405767519
v 0.0174000001 0.04694459438 0.4405767519
v 0.0166178906 0.04829924583 0.4405767519
v 0.01661376596 0.04830638885 0.4407766992
v 0.01661376596 0.04830638885 0.4409768182
v 0.0174000001 0.04694459438 0.4411767465
v 0.0166178906 0.04829924583 0.4411767465
v 0.01687564015 0.04836613655 0.4411767465
v 0.01713659167 0.04841917992 0.4411767465
v 0.0174000001 0.04845823288 0.4411767465
v 0.0174000001 0.04694459438 0.4411767465
v 0.0174000001 0.04845823288 0.4411767465
v 0.01761213183 0.04847325802 0.4412646181
v 0.01769999981 0.04845823288 0.4414767534
v 0.01769999981 0.04694459438 0.4414767534
v 0.01769999981 0.0468234396 0.4414767534
v 0.01765980721 0.0468234396 0.4413267595
v 0.01754999995 0.0468234396 0.4412169534
v 0.0174000001 0.0468234396 0.4411767465
v 0.01830000043 0.04694459438 0.4414767534
v 0.01830000043 0.04829924583 0.4422588617
v 0.01830000043 0.04836613655 0.4420011026
v 0.01830000043 0.04841917992 0.4417401582
v 0.01830000043 0.04845823288 0.4414767534
v 0.01860000014 0.04694459438 0.4405767519
v 0.01938210964 0.04829924583 0.4405767519
v 0.01912435889 0.04836613655 0.4405767519
v 0.01886340857 0.04841917992 0.4405767519
v 0.01860000014 0.04845823288 0.4405767519
v 0.01769999981 0.04694459438 0.4414767534
v 0.01769999981 0.04845823288 0.4414767534
v 0.01769999981 0.04841917992 0.4417401582
v 0.01769999981 0.04836613655 0.4420011026
v 0.01769999981 0.04829924583 0.4422588617
v 0.01830000043 0.0468234396 0.4414068109
v 0.01830000043 0.04694459438 0.4414767534
v 0.01830000043 0.0468234396 0.4414767534
v 0.01860000014 0.04694459438 0.4405767519
v 0.01860000014 0.04845823288 0.4405767519
v 0.0183878684 0.04847325802 0.4404888803
v 0.01830000043 0.04845823288 0.440276745
v 0.01830000043 0.04694459438 0.440276745
v 0.01830000043 0.0468234396 0.440276745
v 0.01834019184 0.0468234396 0.440426758
v 0.01845000029 0.0468234396 0.440536564
v 0.01860000014 0.0468234396 0.4405767519
v 0.01830000043 0.04694459438 0.4414767534
v 0.01830000043 0.0468234396 0.4414068109
v 0.01769999981 0.0468234396 0.4414068109
v 0.01769999981 0.04694459438 0.4414767534
v 0.01769999981 0.04829924583 0.4422588617
v 0.01789994359 0.04830639362 0.4422629816
v 0.01810005665 0.04830639362 0.4422629816
v 0.01830000043 0.04829924583 0.4422588617
f 1 2 3
f 4 5 27
f 27 5 24
f 27 24 26
f 26 24 25
f 6 18 5
f 5 18 23
f 5 23 24
f 7 8 6
f 6 8 9
f 6 9 11
f 11 9 10
f 6 11 17
f 17 11 12
f 17 12 15
f 15 12 14
f 14 12 13
f 15 16 17
f 17 18 6
f 19 20 18
f 18 20 23
f 20 21 23
f 23 21 22
f 29 30 28
f 28 30 31
f 28 31 32
f 33 34 35
f 36 37 38
f 40 41 39
f 39 41 42
f 39 42 45
f 45 42 44
f 44 42 43
f 45 46 39
f 47 48 49
f 51 52 50
f 50 52 53
f 50 53 54
f 55 56 57
f 59 60 58
f 58 60 61
f 58 61 62
f 63 64 65
f 74 66 73
f 73 66 67
f 73 67 68
f 73 68 72
f 72 68 69
f 72 69 70
f 70 71 72
f 75 76 77
f 79 84 78
f 78 84 85
f 78 85 83
f 83 85 86
f 83 86 82
f 82 86 87
f 82 87 81
f 81 87 91
f 81 91 80
f 90 88 89
f 90 89 79
f 79 89 84
f 93 100 92
f 92 100 101
f 92 101 97
f 97 101 102
f 97 102 96
f 96 102 103
f 96 103 95
f 95 103 104
f 105 98 94
f 94 98 99
f 94 99 93
f 93 99 100
f 107 109 106
f 106 109 110
f 106 110 111
f 107 108 109
f 113 125 112
f 112 125 126
f 127 118 119
f 125 113 124
f 124 113 114
f 124 114 123
f 123 114 115
f 123 115 122
f 122 115 121
f 121 115 116
f 121 116 120
f 120 116 117
f 120 117 119
f 119 117 127
f 135 128 140
f 140 128 129
f 140 129 139
f 139 129 138
f 138 129 130
f 138 130 137
f 137 130 131
f 137 131 136
f 136 131 132
f 136 132 133
f 136 133 143
f 143 133 134
f 143 134 142
f 142 134 141
f 141 134 135
f 141 135 140
f 145 159 144
f 144 159 152
f 144 152 151
f 151 152 153
f 151 153 150
f 150 153 154
f 150 154 149
f 149 154 155
f 149 155 148
f 148 155 161
f 160 156 147
f 147 156 157
f 147 157 146
f 146 157 158
f 146 158 145
f 145 158 159
f 205 162 206
f 206 162 163
f 206 163 164
f 164 165 206
f 206 165 213
f 213 165 168
f 213 168 169
f 165 166 168
f 168 166 167
f 169 170 213
f 213 170 171
f 213 171 172
f 213 172 212
f 212 172 173
f 212 173 174
f 174 175 212
f 212 175 176
f 212 176 177
f 212 177 211
f 211 177 178
f 211 178 179
f 179 180 211
f 211 180 181
f 211 181 182
f 182 183 211
f 211 183 210
f 210 183 184
f 210 184 214
f 185 186 215
f 215 186 187
f 215 187 209
f 209 187 190
f 209 190 191
f 187 188 190
f 190 188 189
f 191 192 209
f 209 192 193
f 209 193 194
f 209 194 208
f 208 194 195
f 208 195 196
f 196 197 208
f 208 197 198
f 208 198 207
f 207 198 200
f 207 200 201
f 198 199 200
f 201 202 207
f 207 202 203
f 207 203 204
f 204 205 207
f 207 205 206
f 224 216 223
f 223 216 217
f 223 217 218
f 223 218 222
f 222 218 219
f 222 219 220
f 220 221 222
f 226 227 225
f 225 227 228
f 225 228 229
f 231 233 230
f 230 233 236
f 230 236 237
f 231 232 233
f 234 235 233
f 233 235 236
f 238 239 245
f 245 239 242
f 245 242 244
f 244 242 243
f 240 241 239
f 239 241 242
f 247 248 246
f 246 248 249
f 246 249 250
f 259 251 258
f 258 251 252
f 258 252 253
f 258 253 257
f 257 253 254
f 257 254 255
f 255 256 257
f 261 262 260
f 260 262 263
f 260 263 264
f 266 267 265
f 265 267 268
f 265 268 269
f 271 272 270
f 270 272 273
f 270 273 274
f 275 276 277
f 286 278 285
f 285 278 279
f 285 279 280
f 285 280 284
f 284 280 281
f 284 281 282
f 282 283 284
f 288 289 287
f 287 289 290
f 287 290 292
f 292 290 291
f 292 293 287
f 287 293 294
