v -0.2292499924 0.17 0.006800000072
v -0.2284383202 0.1675019073 0.006800000072
v -0.226313324 0.165958004 0.006800000072
v -0.223686676 0.165958004 0.006800000072
v -0.2215616798 0.1675019073 0.006800000072
v -0.2207500076 0.17 0.006800000072
v -0.2215616798 0.1724980927 0.006800000072
v -0.223686676 0.174041996 0.006800000072
v -0.226313324 0.174041996 0.006800000072
v -0.2284383202 0.1724980927 0.006800000072
v -0.2275 0.17 0.006800000072
v -0.2267677689 0.1717677689 0.006800000072
v -0.225 0.1725 0.006800000072
v -0.2232322311 0.1717677689 0.006800000072
v -0.2225 0.17 0.006800000072
v -0.2232322311 0.1682322311 0.006800000072
v -0.225 0.1675 0.006800000072
v -0.2267677689 0.1682322311 0.006800000072
v -0.2275 0.17 0.02279999971
v -0.2267677689 0.1682322311 0.02279999971
v -0.225 0.1675 0.02279999971
v -0.2232322311 0.1682322311 0.02279999971
v -0.2225 0.17 0.02279999971
v -0.2232322311 0.1717677689 0.02279999971
v -0.225 0.1725 0.02279999971
v -0.2267677689 0.1717677689 0.02279999971
v -0.2275 0.17 0.02279999971
v -0.2267677689 0.1717677689 0.02279999971
v -0.225 0.1725 0.02279999971
v -0.2232322311 0.1717677689 0.02279999971
v -0.2225 0.17 0.02279999971
v -0.2232322311 0.1682322311 0.02279999971
v -0.225 0.1675 0.02279999971
v -0.2267677689 0.1682322311 0.02279999971
v -0.2275 0.17 0.006800000072
v -0.2267677689 0.1682322311 0.006800000072
v -0.225 0.1675 0.006800000072
v -0.2232322311 0.1682322311 0.006800000072
v -0.2225 0.17 0.006800000072
v -0.2232322311 0.1717677689 0.006800000072
v -0.225 0.1725 0.006800000072
v -0.2267677689 0.1717677689 0.006800000072
v -0.2275 0.17 0.006800000072
v -0.2275 0.17 0.02279999971
v -0.2292499924 0.17 0.001800000072
v -0.2284383202 0.1724980927 0.001800000072
v -0.226313324 0.174041996 0.001800000072
v -0.223686676 0.174041996 0.001800000072
v -0.2215616798 0.1724980927 0.001800000072
v -0.2207500076 0.17 0.001800000072
v -0.2215616798 0.1675019073 0.001800000072
v -0.223686676 0.165958004 0.001800000072
v -0.226313324 0.165958004 0.001800000072
v -0.2284383202 0.1675019073 0.001800000072
v -0.2292499924 0.17 0.006800000072
v -0.2284383202 0.1724980927 0.006800000072
v -0.226313324 0.174041996 0.006800000072
v -0.223686676 0.174041996 0.006800000072
v -0.2215616798 0.1724980927 0.006800000072
v -0.2207500076 0.17 0.006800000072
v -0.2215616798 0.1675019073 0.006800000072
v -0.223686676 0.165958004 0.006800000072
v -0.226313324 0.165958004 0.006800000072
v -0.2284383202 0.1675019073 0.006800000072
v -0.2292499924 0.17 0.001800000072
v -0.2284383202 0.1675019073 0.001800000072
v -0.226313324 0.165958004 0.001800000072
v -0.223686676 0.165958004 0.001800000072
v -0.2215616798 0.1675019073 0.001800000072
v -0.2207500076 0.17 0.001800000072
v -0.2215616798 0.1724980927 0.001800000072
v -0.223686676 0.174041996 0.001800000072
v -0.226313324 0.174041996 0.001800000072
v -0.2284383202 0.1724980927 0.001800000072
v -0.2292499924 0.17 0.001800000072
v -0.2292499924 0.17 0.006800000072
f 10 1 11
f 11 1 2
f 11 2 18
f 18 2 3
f 18 3 17
f 17 3 4
f 17 4 16
f 16 4 5
f 16 5 15
f 15 5 6
f 15 6 7
f 15 7 14
f 14 7 8
f 14 8 13
f 13 8 9
f 13 9 12
f 12 9 10
f 12 10 11
f 20 22 19
f 19 22 23
f 19 23 26
f 26 23 24
f 26 24 25
f 20 21 22
f 28 42 27
f 27 42 43
f 44 35 34
f 34 35 36
f 34 36 37
f 28 29 42
f 42 29 41
f 41 29 30
f 41 30 40
f 40 30 31
f 40 31 39
f 39 31 32
f 39 32 38
f 38 32 33
f 38 33 37
f 37 33 34
f 46 49 45
f 45 49 50
f 45 50 54
f 54 50 51
f 54 51 53
f 53 51 52
f 47 48 46
f 46 48 49
f 56 74 55
f 55 74 75
f 76 65 64
f 64 65 66
f 64 66 63
f 63 66 67
f 63 67 62
f 62 67 68
f 62 68 61
f 61 68 69
f 61 69 60
f 60 69 70
f 60 70 59
f 59 70 71
f 59 71 58
f 58 71 72
f 58 72 57
f 57 72 73
f 57 73 56
f 56 73 74
