v -0.18 -0.008799999952 0.4223267442
v -0.178084507 -0.008799999952 0.4214042932
v -0.1776114273 -0.008799999952 0.4193315775
v -0.1789369774 -0.008799999952 0.4176693803
v -0.1810630226 -0.008799999952 0.4176693803
v -0.1823885727 -0.008799999952 0.4193315775
v -0.181915493 -0.008799999952 0.4214042932
v -0.18 -0.01720000029 0.4223267442
v -0.181915493 -0.01720000029 0.4214042932
v -0.1823885727 -0.01720000029 0.4193315775
v -0.1810630226 -0.01720000029 0.4176693803
v -0.1789369774 -0.01720000029 0.4176693803
v -0.1776114273 -0.01720000029 0.4193315775
v -0.178084507 -0.01720000029 0.4214042932
v -0.1810630226 -0.008799999952 0.4176693803
v -0.1810630226 -0.01720000029 0.4176693803
v -0.18 -0.01720000029 0.4223267442
v -0.178084507 -0.01720000029 0.4214042932
v -0.1776114273 -0.01720000029 0.4193315775
v -0.1789369774 -0.01720000029 0.4176693803
v -0.1810630226 -0.01720000029 0.4176693803
v -0.1823885727 -0.01720000029 0.4193315775
v -0.181915493 -0.01720000029 0.4214042932
v -0.1699500084 -0.03150000095 0.4198767549
v -0.1708188629 -0.03150000095 0.423964451
v -0.1732752419 -0.03150000095 0.42734536
v -0.1768943787 -0.03150000095 0.4294348795
v -0.1810505104 -0.03150000095 0.4298717004
v -0.1850250053 -0.03150000095 0.428580311
v -0.1881306267 -0.03150000095 0.4257839853
v -0.1898303795 -0.03150000095 0.4219662553
v -0.1898303795 -0.03150000095 0.4177872354
v -0.1881306267 -0.03150000095 0.4139695055
v -0.1850250053 -0.03150000095 0.4111731989
v -0.1810505104 -0.03150000095 0.4098818094
v -0.1768943787 -0.03150000095 0.4103186304
v -0.1732752419 -0.03150000095 0.4124081499
v -0.1708188629 -0.03150000095 0.4157890398
v -0.1702499962 -0.03180000067 0.4198767549
v -0.1712155533 -0.03180000067 0.4156463892
v -0.1739209747 -0.03180000067 0.4122539026
v -0.1778304291 -0.03180000067 0.4103712064
v -0.1821695709 -0.03180000067 0.4103712064
v -0.1860790253 -0.03180000067 0.4122539026
v -0.1887844467 -0.03180000067 0.4156463892
v -0.1897500038 -0.03180000067 0.4198767549
v -0.1887844467 -0.03180000067 0.4241071207
v -0.1860790253 -0.03180000067 0.4274996072
v -0.1821695709 -0.03180000067 0.4293822939
v -0.1778304291 -0.03180000067 0.4293822939
v -0.1739209747 -0.03180000067 0.4274996072
v -0.1712155533 -0.03180000067 0.4241071207
v -0.1821695709 -0.03180000067 0.4293822939
v -0.1810505104 -0.03150000095 0.4298717004
v -0.1699500084 -0.02980000019 0.4198767549
v -0.1708188629 -0.02980000019 0.423964451
v -0.1732752419 -0.02980000019 0.42734536
v -0.1768943787 -0.02980000019 0.4294348795
v -0.1810505104 -0.02980000019 0.4298717004
v -0.1850250053 -0.02980000019 0.428580311
v -0.1881306267 -0.02980000019 0.4257839853
v -0.1898303795 -0.02980000019 0.4219662553
v -0.1898303795 -0.02980000019 0.4177872354
v -0.1881306267 -0.02980000019 0.4139695055
v -0.1850250053 -0.02980000019 0.4111731989
v -0.1810505104 -0.02980000019 0.4098818094
v -0.1768943787 -0.02980000019 0.4103186304
v -0.1732752419 -0.02980000019 0.4124081499
v -0.1708188629 -0.02980000019 0.4157890398
v -0.1699500084 -0.03150000095 0.4198767549
v -0.1708188629 -0.03150000095 0.4157890398
v -0.1732752419 -0.03150000095 0.4124081499
v -0.1768943787 -0.03150000095 0.4103186304
v -0.1810505104 -0.03150000095 0.4098818094
v -0.1850250053 -0.03150000095 0.4111731989
v -0.1881306267 -0.03150000095 0.4139695055
v -0.1898303795 -0.03150000095 0.4177872354
v -0.1898303795 -0.03150000095 0.4219662553
v -0.1881306267 -0.03150000095 0.4257839853
v -0.1850250053 -0.03150000095 0.428580311
v -0.1810505104 -0.03150000095 0.4298717004
v -0.1768943787 -0.03150000095 0.4294348795
v -0.1732752419 -0.03150000095 0.42734536
v -0.1708188629 -0.03150000095 0.423964451
v -0.1699500084 -0.03150000095 0.4198767549
v -0.1699500084 -0.02980000019 0.4198767549
v -0.1702499962 -0.03180000067 0.4198767549
v -0.1712155533 -0.03180000067 0.4241071207
v -0.1739209747 -0.03180000067 0.4274996072
v -0.1778304291 -0.03180000067 0.4293822939
v -0.1821695709 -0.03180000067 0.4293822939
v -0.1860790253 -0.03180000067 0.4274996072
v -0.1887844467 -0.03180000067 0.4241071207
v -0.1897500038 -0.03180000067 0.4198767549
v -0.1887844467 -0.03180000067 0.4156463892
v -0.1860790253 -0.03180000067 0.4122539026
v -0.1821695709 -0.03180000067 0.4103712064
v -0.1778304291 -0.03180000067 0.4103712064
v -0.1739209747 -0.03180000067 0.4122539026
v -0.1712155533 -0.03180000067 0.4156463892
v -0.1760000038 -0.009300000072 0.4198767549
v -0.1769358253 -0.009300000072 0.4173056108
v -0.1793054008 -0.009300000072 0.4159375269
v -0.1820000076 -0.009300000072 0.4164126474
v -0.1837587738 -0.009300000072 0.418508671
v -0.1837587738 -0.009300000072 0.4212448389
v -0.1820000076 -0.009300000072 0.4233408624
v -0.1793054008 -0.009300000072 0.423815983
v -0.1769358253 -0.009300000072 0.422447899
v -0.1764999962 -0.008799999952 0.4198767549
v -0.17731884 -0.008799999952 0.4221265108
v -0.1793922234 -0.008799999952 0.4233235819
v -0.1817499924 -0.008799999952 0.4229078371
v -0.1832889175 -0.008799999952 0.421073826
v -0.1832889175 -0.008799999952 0.4186796838
v -0.1817499924 -0.008799999952 0.4168456728
v -0.1793922234 -0.008799999952 0.416429928
v -0.17731884 -0.008799999952 0.4176269991
v -0.1820000076 -0.009300000072 0.4164126474
v -0.1817499924 -0.008799999952 0.4168456728
v -0.18 -0.008799999952 0.4223267442
v -0.181915493 -0.008799999952 0.4214042932
v -0.1823885727 -0.008799999952 0.4193315775
v -0.1810630226 -0.008799999952 0.4176693803
v -0.1789369774 -0.008799999952 0.4176693803
v -0.1776114273 -0.008799999952 0.4193315775
v -0.178084507 -0.008799999952 0.4214042932
v -0.1764999962 -0.008799999952 0.4198767549
v -0.17731884 -0.008799999952 0.4176269991
v -0.1793922234 -0.008799999952 0.416429928
v -0.1817499924 -0.008799999952 0.4168456728
v -0.1832889175 -0.008799999952 0.4186796838
v -0.1832889175 -0.008799999952 0.421073826
v -0.1817499924 -0.008799999952 0.4229078371
v -0.1793922234 -0.008799999952 0.4233235819
v -0.17731884 -0.008799999952 0.4221265108
v -0.1760000038 -0.01779999971 0.4198767549
v -0.1769358253 -0.01779999971 0.4173056108
v -0.1793054008 -0.01779999971 0.4159375269
v -0.1820000076 -0.01779999971 0.4164126474
v -0.1837587738 -0.01779999971 0.418508671
v -0.1837587738 -0.01779999971 0.4212448389
v -0.1820000076 -0.01779999971 0.4233408624
v -0.1793054008 -0.01779999971 0.423815983
v -0.1769358253 -0.01779999971 0.422447899
v -0.1760000038 -0.009300000072 0.4198767549
v -0.1769358253 -0.009300000072 0.422447899
v -0.1793054008 -0.009300000072 0.423815983
v -0.1820000076 -0.009300000072 0.4233408624
v -0.1837587738 -0.009300000072 0.4212448389
v -0.1837587738 -0.009300000072 0.418508671
v -0.1820000076 -0.009300000072 0.4164126474
v -0.1793054008 -0.009300000072 0.4159375269
v -0.1769358253 -0.009300000072 0.4173056108
v -0.1760000038 -0.01779999971 0.4198767549
v -0.1760000038 -0.009300000072 0.4198767549
v -0.1699500084 -0.02980000019 0.4198767549
v -0.1708188629 -0.02980000019 0.4157890398
v -0.1732752419 -0.02980000019 0.4124081499
v -0.1768943787 -0.02980000019 0.4103186304
v -0.1810505104 -0.02980000019 0.4098818094
v -0.1850250053 -0.02980000019 0.4111731989
v -0.1881306267 -0.02980000019 0.4139695055
v -0.1898303795 -0.02980000019 0.4177872354
v -0.1898303795 -0.02980000019 0.4219662553
v -0.1881306267 -0.02980000019 0.4257839853
v -0.1850250053 -0.02980000019 0.428580311
v -0.1810505104 -0.02980000019 0.4298717004
v -0.1768943787 -0.02980000019 0.4294348795
v -0.1732752419 -0.02980000019 0.42734536
v -0.1708188629 -0.02980000019 0.423964451
v -0.1704500008 -0.02930000067 0.4198767549
v -0.1713957405 -0.02930000067 0.4240203363
v -0.1740456772 -0.02930000067 0.4273432428
v -0.1778749275 -0.02930000067 0.4291873056
v -0.1821250725 -0.02930000067 0.4291873056
v -0.1859543228 -0.02930000067 0.4273432428
v -0.1886042595 -0.02930000067 0.4240203363
v -0.1895499992 -0.02930000067 0.4198767549
v -0.1886042595 -0.02930000067 0.4157331545
v -0.1859543228 -0.02930000067 0.412410267
v -0.1821250725 -0.02930000067 0.4105661852
v -0.1778749275 -0.02930000067 0.4105661852
v -0.1740456772 -0.02930000067 0.412410267
v -0.1713957405 -0.02930000067 0.4157331545
v -0.1821250725 -0.02930000067 0.4105661852
v -0.1810505104 -0.02980000019 0.4098818094
v -0.1714500046 -0.02930000067 0.4198767549
v -0.1724293518 -0.02930000067 0.4238501436
v -0.1751430511 -0.02930000067 0.4269132692
v -0.1789694023 -0.02930000067 0.4283644182
v -0.1830318642 -0.02930000067 0.4278711397
v -0.186399765 -0.02930000067 0.4255464441
v -0.1883015442 -0.02930000067 0.4219229013
v -0.1883015442 -0.02930000067 0.4178306085
v -0.186399765 -0.02930000067 0.4142070467
v -0.1830318642 -0.02930000067 0.4118823702
v -0.1789694023 -0.02930000067 0.4113890917
v -0.1751430511 -0.02930000067 0.4128402406
v -0.1724293518 -0.02930000067 0.4159033662
v -0.1704500008 -0.02930000067 0.4198767549
v -0.1713957405 -0.02930000067 0.4157331545
v -0.1740456772 -0.02930000067 0.412410267
v -0.1778749275 -0.02930000067 0.4105661852
v -0.1821250725 -0.02930000067 0.4105661852
v -0.1859543228 -0.02930000067 0.412410267
v -0.1886042595 -0.02930000067 0.4157331545
v -0.1895499992 -0.02930000067 0.4198767549
v -0.1886042595 -0.02930000067 0.4240203363
v -0.1859543228 -0.02930000067 0.4273432428
v -0.1821250725 -0.02930000067 0.4291873056
v -0.1778749275 -0.02930000067 0.4291873056
v -0.1740456772 -0.02930000067 0.4273432428
v -0.1713957405 -0.02930000067 0.4240203363
v -0.1760000038 -0.01779999971 0.4198767549
v -0.1769358253 -0.01779999971 0.422447899
v -0.1793054008 -0.01779999971 0.423815983
v -0.1820000076 -0.01779999971 0.4233408624
v -0.1837587738 -0.01779999971 0.4212448389
v -0.1837587738 -0.01779999971 0.418508671
v -0.1820000076 -0.01779999971 0.4164126474
v -0.1793054008 -0.01779999971 0.4159375269
v -0.1769358253 -0.01779999971 0.4173056108
v -0.1754999924 -0.01830000043 0.4198767549
v -0.1763594246 -0.01830000043 0.4172317201
v -0.1786094284 -0.01830000043 0.4155969888
v -0.1813905716 -0.01830000043 0.4155969888
v -0.1836405754 -0.01830000043 0.4172317201
v -0.1845000076 -0.01830000043 0.4198767549
v -0.1836405754 -0.01830000043 0.4225217897
v -0.1813905716 -0.01830000043 0.4241565019
v -0.1786094284 -0.01830000043 0.4241565019
v -0.1763594246 -0.01830000043 0.4225217897
v -0.1813905716 -0.01830000043 0.4241565019
v -0.1820000076 -0.01779999971 0.4233408624
v -0.1750499916 -0.01830000043 0.4198767549
v -0.175995369 -0.01830000043 0.416967209
v -0.1784703636 -0.01830000043 0.415169018
v -0.1815296364 -0.01830000043 0.415169018
v -0.184004631 -0.01830000043 0.416967209
v -0.1849500084 -0.01830000043 0.4198767549
v -0.184004631 -0.01830000043 0.4227862817
v -0.1815296364 -0.01830000043 0.4245844728
v -0.1784703636 -0.01830000043 0.4245844728
v -0.175995369 -0.01830000043 0.4227862817
v -0.1754999924 -0.01830000043 0.4198767549
v -0.1763594246 -0.01830000043 0.4225217897
v -0.1786094284 -0.01830000043 0.4241565019
v -0.1813905716 -0.01830000043 0.4241565019
v -0.1836405754 -0.01830000043 0.4225217897
v -0.1845000076 -0.01830000043 0.4198767549
v -0.1836405754 -0.01830000043 0.4172317201
v -0.1813905716 -0.01830000043 0.4155969888
v -0.1786094284 -0.01830000043 0.4155969888
v -0.1763594246 -0.01830000043 0.4172317201
v -0.1750499916 -0.02630000114 0.4198767549
v -0.175995369 -0.02630000114 0.4227862817
v -0.1784703636 -0.02630000114 0.4245844728
v -0.1815296364 -0.02630000114 0.4245844728
v -0.184004631 -0.02630000114 0.4227862817
v -0.1849500084 -0.02630000114 0.4198767549
v -0.184004631 -0.02630000114 0.416967209
v -0.1815296364 -0.02630000114 0.415169018
v -0.1784703636 -0.02630000114 0.415169018
v -0.175995369 -0.02630000114 0.416967209
v -0.1745499992 -0.02680000067 0.4198767549
v -0.1754151726 -0.02680000067 0.4169302637
v -0.1777359962 -0.02680000067 0.4149192506
v -0.1807756233 -0.02680000067 0.4144822199
v -0.1835689926 -0.02680000067 0.4157579118
v -0.1852292442 -0.02680000067 0.4183413011
v -0.1852292442 -0.02680000067 0.4214121896
v -0.1835689926 -0.02680000067 0.4239955789
v -0.1807756233 -0.02680000067 0.4252712709
v -0.1777359962 -0.02680000067 0.4248342401
v -0.1754151726 -0.02680000067 0.4228232462
v -0.1807756233 -0.02680000067 0.4252712709
v -0.1815296364 -0.02630000114 0.4245844728
v -0.1724500084 -0.02680000067 0.4198767549
v -0.1733148003 -0.02680000067 0.4163680917
v -0.1757111168 -0.02680000067 0.4136632234
v -0.1790899467 -0.02680000067 0.4123818094
v -0.182677269 -0.02680000067 0.4128173715
v -0.1856512642 -0.02680000067 0.4148701746
v -0.1873306084 -0.02680000067 0.4180699236
v -0.1873306084 -0.02680000067 0.4216835863
v -0.1856512642 -0.02680000067 0.4248833353
v -0.182677269 -0.02680000067 0.4269361192
v -0.1790899467 -0.02680000067 0.4273717004
v -0.1757111168 -0.02680000067 0.4260902864
v -0.1733148003 -0.02680000067 0.4233854181
v -0.1745499992 -0.02680000067 0.4198767549
v -0.1754151726 -0.02680000067 0.4228232462
v -0.1777359962 -0.02680000067 0.4248342401
v -0.1807756233 -0.02680000067 0.4252712709
v -0.1835689926 -0.02680000067 0.4239955789
v -0.1852292442 -0.02680000067 0.4214121896
v -0.1852292442 -0.02680000067 0.4183413011
v -0.1835689926 -0.02680000067 0.4157579118
v -0.1807756233 -0.02680000067 0.4144822199
v -0.1777359962 -0.02680000067 0.4149192506
v -0.1754151726 -0.02680000067 0.4169302637
v -0.1750499916 -0.01830000043 0.4198767549
v -0.175995369 -0.01830000043 0.4227862817
v -0.1784703636 -0.01830000043 0.4245844728
v -0.1815296364 -0.01830000043 0.4245844728
v -0.184004631 -0.01830000043 0.4227862817
v -0.1849500084 -0.01830000043 0.4198767549
v -0.184004631 -0.01830000043 0.416967209
v -0.1815296364 -0.01830000043 0.415169018
v -0.1784703636 -0.01830000043 0.415169018
v -0.175995369 -0.01830000043 0.416967209
v -0.1750499916 -0.02630000114 0.4198767549
v -0.175995369 -0.02630000114 0.416967209
v -0.1784703636 -0.02630000114 0.415169018
v -0.1815296364 -0.02630000114 0.415169018
v -0.184004631 -0.02630000114 0.416967209
v -0.1849500084 -0.02630000114 0.4198767549
v -0.184004631 -0.02630000114 0.4227862817
v -0.1815296364 -0.02630000114 0.4245844728
v -0.1784703636 -0.02630000114 0.4245844728
v -0.175995369 -0.02630000114 0.4227862817
v -0.1750499916 -0.02630000114 0.4198767549
v -0.1750499916 -0.01830000043 0.4198767549
v -0.1719499969 -0.02880000114 0.4198767549
v -0.1728720856 -0.02880000114 0.4236177713
v -0.1754270744 -0.02880000114 0.4265017778
v -0.1790296745 -0.02880000114 0.4278680498
v -0.1828545761 -0.02880000114 0.4274036295
v -0.1860255051 -0.02880000114 0.4252148897
v -0.1878160858 -0.02880000114 0.4218032343
v -0.1878160858 -0.02880000114 0.4179502565
v -0.1860255051 -0.02880000114 0.4145386202
v -0.1828545761 -0.02880000114 0.4123498804
v -0.1790296745 -0.02880000114 0.411885441
v -0.1754270744 -0.02880000114 0.413251732
v -0.1728720856 -0.02880000114 0.4161357385
v -0.1714500046 -0.02930000067 0.4198767549
v -0.1724293518 -0.02930000067 0.4159033662
v -0.1751430511 -0.02930000067 0.4128402406
v -0.1789694023 -0.02930000067 0.4113890917
v -0.1830318642 -0.02930000067 0.4118823702
v -0.186399765 -0.02930000067 0.4142070467
v -0.1883015442 -0.02930000067 0.4178306085
v -0.1883015442 -0.02930000067 0.4219229013
v -0.186399765 -0.02930000067 0.4255464441
v -0.1830318642 -0.02930000067 0.4278711397
v -0.1789694023 -0.02930000067 0.4283644182
v -0.1751430511 -0.02930000067 0.4269132692
v -0.1724293518 -0.02930000067 0.4238501436
v -0.1828545761 -0.02880000114 0.4274036295
v -0.1830318642 -0.02930000067 0.4278711397
v -0.1724500084 -0.02680000067 0.4198767549
v -0.1733148003 -0.02680000067 0.4233854181
v -0.1757111168 -0.02680000067 0.4260902864
v -0.1790899467 -0.02680000067 0.4273717004
v -0.182677269 -0.02680000067 0.4269361192
v -0.1856512642 -0.02680000067 0.4248833353
v -0.1873306084 -0.02680000067 0.4216835863
v -0.1873306084 -0.02680000067 0.4180699236
v -0.1856512642 -0.02680000067 0.4148701746
v -0.182677269 -0.02680000067 0.4128173715
v -0.1790899467 -0.02680000067 0.4123818094
v -0.1757111168 -0.02680000067 0.4136632234
v -0.1733148003 -0.02680000067 0.4163680917
v -0.1719499969 -0.02730000019 0.4198767549
v -0.1728720856 -0.02730000019 0.4161357385
v -0.1754270744 -0.02730000019 0.413251732
v -0.1790296745 -0.02730000019 0.411885441
v -0.1828545761 -0.02730000019 0.4123498804
v -0.1860255051 -0.02730000019 0.4145386202
v -0.1878160858 -0.02730000019 0.4179502565
v -0.1878160858 -0.02730000019 0.4218032343
v -0.1860255051 -0.02730000019 0.4252148897
v -0.1828545761 -0.02730000019 0.4274036295
v -0.1790296745 -0.02730000019 0.4278680498
v -0.1754270744 -0.02730000019 0.4265017778
v -0.1728720856 -0.02730000019 0.4236177713
v -0.182677269 -0.02680000067 0.4269361192
v -0.1828545761 -0.02730000019 0.4274036295
v -0.1719499969 -0.02880000114 0.4198767549
v -0.1728720856 -0.02880000114 0.4161357385
v -0.1754270744 -0.02880000114 0.413251732
v -0.1790296745 -0.02880000114 0.411885441
v -0.1828545761 -0.02880000114 0.4123498804
v -0.1860255051 -0.02880000114 0.4145386202
v -0.1878160858 -0.02880000114 0.4179502565
v -0.1878160858 -0.02880000114 0.4218032343
v -0.1860255051 -0.02880000114 0.4252148897
v -0.1828545761 -0.02880000114 0.4274036295
v -0.1790296745 -0.02880000114 0.4278680498
v -0.1754270744 -0.02880000114 0.4265017778
v -0.1728720856 -0.02880000114 0.4236177713
v -0.1719499969 -0.02730000019 0.4198767549
v -0.1728720856 -0.02730000019 0.4236177713
v -0.1754270744 -0.02730000019 0.4265017778
v -0.1790296745 -0.02730000019 0.4278680498
v -0.1828545761 -0.02730000019 0.4274036295
v -0.1860255051 -0.02730000019 0.4252148897
v -0.1878160858 -0.02730000019 0.4218032343
v -0.1878160858 -0.02730000019 0.4179502565
v -0.1860255051 -0.02730000019 0.4145386202
v -0.1828545761 -0.02730000019 0.4123498804
v -0.1790296745 -0.02730000019 0.411885441
v -0.1754270744 -0.02730000019 0.413251732
v -0.1728720856 -0.02730000019 0.4161357385
v -0.1719499969 -0.02880000114 0.4198767549
v -0.1719499969 -0.02730000019 0.4198767549
f 2 8 1
f 1 8 9
f 1 9 7
f 7 9 10
f 7 10 6
f 6 10 16
f 6 16 5
f 15 11 12
f 15 12 4
f 4 12 13
f 4 13 3
f 3 13 14
f 3 14 2
f 2 14 8
f 17 18 23
f 23 18 22
f 22 18 19
f 22 19 21
f 21 19 20
f 38 24 39
f 39 24 25
f 39 25 52
f 52 25 26
f 52 26 51
f 51 26 27
f 51 27 50
f 50 27 54
f 50 54 49
f 53 28 29
f 53 29 48
f 48 29 30
f 48 30 47
f 47 30 31
f 47 31 46
f 46 31 32
f 46 32 45
f 45 32 33
f 45 33 44
f 44 33 34
f 44 34 43
f 43 34 35
f 43 35 42
f 42 35 36
f 42 36 41
f 41 36 37
f 41 37 40
f 40 37 38
f 40 38 39
f 56 84 55
f 55 84 85
f 86 70 69
f 69 70 71
f 69 71 72
f 56 57 84
f 84 57 83
f 83 57 58
f 83 58 82
f 82 58 59
f 82 59 81
f 81 59 60
f 81 60 80
f 80 60 61
f 80 61 79
f 79 61 62
f 79 62 78
f 78 62 63
f 78 63 77
f 77 63 64
f 77 64 76
f 76 64 65
f 76 65 75
f 75 65 66
f 75 66 74
f 74 66 67
f 74 67 73
f 73 67 68
f 73 68 72
f 72 68 69
f 88 93 87
f 87 93 94
f 87 94 100
f 100 94 95
f 100 95 99
f 99 95 96
f 99 96 98
f 98 96 97
f 93 88 92
f 92 88 89
f 92 89 91
f 91 89 90
f 102 110 101
f 101 110 111
f 101 111 109
f 109 111 112
f 109 112 108
f 108 112 113
f 108 113 107
f 107 113 114
f 107 114 106
f 106 114 115
f 106 115 105
f 105 115 120
f 105 120 104
f 119 116 117
f 119 117 103
f 103 117 118
f 103 118 102
f 102 118 110
f 122 134 121
f 121 134 135
f 121 135 127
f 127 135 136
f 127 136 128
f 134 122 133
f 133 122 123
f 133 123 132
f 132 123 124
f 132 124 131
f 131 124 130
f 130 124 125
f 130 125 129
f 129 125 126
f 129 126 128
f 128 126 127
f 138 154 137
f 137 154 156
f 155 146 145
f 145 146 147
f 145 147 144
f 144 147 148
f 144 148 143
f 143 148 149
f 143 149 142
f 142 149 150
f 142 150 141
f 141 150 151
f 141 151 140
f 140 151 152
f 140 152 139
f 139 152 153
f 139 153 138
f 138 153 154
f 171 157 172
f 172 157 158
f 172 158 185
f 185 158 159
f 185 159 184
f 184 159 160
f 184 160 183
f 183 160 187
f 183 187 182
f 186 161 162
f 186 162 181
f 181 162 163
f 181 163 180
f 180 163 164
f 180 164 179
f 179 164 165
f 179 165 178
f 178 165 166
f 178 166 177
f 177 166 167
f 177 167 176
f 176 167 168
f 176 168 175
f 175 168 169
f 175 169 174
f 174 169 170
f 174 170 173
f 173 170 171
f 173 171 172
f 189 214 188
f 188 214 201
f 188 201 202
f 214 189 213
f 213 189 190
f 213 190 212
f 212 190 191
f 212 191 211
f 211 191 192
f 211 192 210
f 210 192 193
f 210 193 209
f 209 193 194
f 209 194 208
f 208 194 195
f 208 195 207
f 207 195 196
f 207 196 206
f 206 196 197
f 206 197 205
f 205 197 198
f 205 198 204
f 204 198 199
f 204 199 203
f 203 199 200
f 203 200 202
f 202 200 188
f 216 233 215
f 215 233 224
f 215 224 225
f 233 216 232
f 232 216 217
f 232 217 231
f 231 217 235
f 234 218 230
f 230 218 219
f 230 219 229
f 229 219 220
f 229 220 228
f 228 220 221
f 228 221 227
f 227 221 222
f 227 222 226
f 226 222 223
f 226 223 225
f 225 223 215
f 237 255 236
f 236 255 246
f 236 246 247
f 255 237 254
f 254 237 238
f 254 238 239
f 254 239 253
f 253 239 240
f 253 240 252
f 252 240 241
f 252 241 251
f 251 241 250
f 250 241 242
f 250 242 249
f 249 242 243
f 249 243 248
f 248 243 244
f 248 244 245
f 248 245 247
f 247 245 236
f 257 276 256
f 256 276 266
f 256 266 267
f 276 257 275
f 275 257 258
f 275 258 274
f 274 258 278
f 277 259 273
f 273 259 260
f 273 260 272
f 272 260 261
f 272 261 271
f 271 261 262
f 271 262 270
f 270 262 263
f 270 263 269
f 269 263 264
f 269 264 268
f 268 264 265
f 268 265 267
f 267 265 256
f 291 279 292
f 292 279 280
f 292 280 302
f 302 280 281
f 302 281 301
f 301 281 282
f 301 282 300
f 300 282 283
f 300 283 299
f 299 283 284
f 299 284 298
f 298 284 285
f 298 285 286
f 298 286 297
f 297 286 287
f 297 287 296
f 296 287 288
f 296 288 295
f 295 288 289
f 295 289 294
f 294 289 290
f 294 290 293
f 293 290 291
f 293 291 292
f 304 322 303
f 303 322 323
f 324 313 312
f 312 313 314
f 312 314 311
f 311 314 315
f 311 315 310
f 310 315 316
f 310 316 309
f 309 316 317
f 309 317 308
f 308 317 318
f 308 318 307
f 307 318 319
f 307 319 306
f 306 319 320
f 306 320 305
f 305 320 321
f 305 321 304
f 304 321 322
f 326 338 325
f 325 338 339
f 325 339 337
f 337 339 340
f 337 340 336
f 336 340 341
f 336 341 335
f 335 341 342
f 335 342 334
f 334 342 343
f 334 343 333
f 333 343 344
f 333 344 332
f 332 344 345
f 332 345 331
f 331 345 346
f 331 346 330
f 330 346 352
f 330 352 329
f 351 347 348
f 351 348 328
f 328 348 349
f 328 349 327
f 327 349 350
f 327 350 326
f 326 350 338
f 354 366 353
f 353 366 367
f 353 367 365
f 365 367 368
f 365 368 364
f 364 368 369
f 364 369 363
f 363 369 370
f 363 370 362
f 362 370 371
f 362 371 361
f 361 371 372
f 361 372 360
f 360 372 373
f 360 373 359
f 359 373 374
f 359 374 358
f 358 374 380
f 358 380 357
f 379 375 376
f 379 376 356
f 356 376 377
f 356 377 355
f 355 377 378
f 355 378 354
f 354 378 366
f 382 406 381
f 381 406 408
f 407 394 393
f 393 394 395
f 393 395 392
f 392 395 396
f 392 396 391
f 391 396 397
f 391 397 390
f 390 397 398
f 390 398 389
f 389 398 399
f 389 399 388
f 388 399 400
f 388 400 387
f 387 400 401
f 387 401 386
f 386 401 402
f 386 402 385
f 385 402 403
f 385 403 384
f 384 403 404
f 384 404 383
f 383 404 405
f 383 405 382
f 382 405 406
