v -0.2202000046 -0.2 0.03150000095
v -0.2202000046 -0.2 0.02450000048
v -0.2168000031 -0.2 0.02299999952
v -0.2168000031 -0.2 0.03299999952
v -0.2202000046 -0.195 0.03049999952
v -0.2202000046 -0.1967677689 0.029767766
v -0.2202000046 -0.1975 0.02799999952
v -0.2202000046 -0.1967677689 0.02623223305
v -0.2202000046 -0.195 0.02549999952
v -0.2202000046 -0.1932322311 0.02623223305
v -0.2202000046 -0.1925 0.02799999952
v -0.2202000046 -0.1932322311 0.029767766
v -0.2202000046 -0.2 0.02450000048
v -0.2202000046 -0.2 0.03150000095
v -0.2202000046 -0.19 0.03150000095
v -0.2202000046 -0.19 0.02450000048
v -0.2168000031 -0.195 0.03049999952
v -0.2168000031 -0.1932322311 0.029767766
v -0.2168000031 -0.1925 0.02799999952
v -0.2168000031 -0.1932322311 0.02623223305
v -0.2168000031 -0.195 0.02549999952
v -0.2168000031 -0.1967677689 0.02623223305
v -0.2168000031 -0.1975 0.02799999952
v -0.2168000031 -0.1967677689 0.029767766
v -0.2168000031 -0.2 0.03299999952
v -0.2168000031 -0.2 0.02299999952
v -0.2168000031 -0.19 0.02299999952
v -0.2168000031 -0.19 0.03299999952
v -0.2168000031 -0.2 0.02299999952
v -0.2202000046 -0.2 0.02450000048
v -0.2202000046 -0.19 0.02450000048
v -0.2168000031 -0.19 0.02299999952
v -0.2202000046 -0.2 0.03150000095
v -0.2168000031 -0.2 0.03299999952
v -0.2168000031 -0.19 0.03299999952
v -0.2202000046 -0.19 0.03150000095
v -0.2202000046 -0.19 0.02450000048
v -0.2202000046 -0.19 0.03150000095
v -0.2168000031 -0.19 0.03299999952
v -0.2168000031 -0.19 0.02299999952
v -0.2202000046 -0.195 0.03049999952
v -0.2202000046 -0.1932322311 0.029767766
v -0.2202000046 -0.1925 0.02799999952
v -0.2202000046 -0.1932322311 0.02623223305
v -0.2202000046 -0.195 0.02549999952
v -0.2202000046 -0.1967677689 0.02623223305
v -0.2202000046 -0.1975 0.02799999952
v -0.2202000046 -0.1967677689 0.029767766
v -0.2168000031 -0.195 0.03049999952
v -0.2168000031 -0.1967677689 0.029767766
v -0.2168000031 -0.1975 0.02799999952
v -0.2168000031 -0.1967677689 0.02623223305
v -0.2168000031 -0.195 0.02549999952
v -0.2168000031 -0.1932322311 0.02623223305
v -0.2168000031 -0.1925 0.02799999952
v -0.2168000031 -0.1932322311 0.029767766
v -0.2202000046 -0.195 0.03049999952
v -0.2168000031 -0.195 0.03049999952
f 1 2 4
f 4 2 3
f 6 14 5
f 5 14 15
f 5 15 12
f 12 15 11
f 11 15 16
f 11 16 10
f 10 16 9
f 9 16 13
f 9 13 8
f 8 13 7
f 7 13 14
f 7 14 6
f 18 28 17
f 17 28 25
f 17 25 24
f 24 25 23
f 23 25 26
f 23 26 22
f 22 26 21
f 21 26 27
f 21 27 20
f 20 27 19
f 19 27 28
f 19 28 18
f 29 30 32
f 32 30 31
f 33 34 36
f 36 34 35
f 37 38 40
f 40 38 39
f 42 56 41
f 41 56 58
f 57 49 48
f 48 49 50
f 48 50 51
f 42 43 56
f 56 43 55
f 55 43 44
f 55 44 54
f 54 44 45
f 54 45 53
f 53 45 46
f 53 46 52
f 52 46 47
f 52 47 51
f 51 47 48
