v -0.23 -0.165 0.01980000019
v -0.2285000038 -0.165 0.02319999933
v -0.2214999962 -0.165 0.02319999933
v -0.22 -0.165 0.01980000019
v -0.2275 -0.17 0.02319999933
v -0.2267677689 -0.1682322311 0.02319999933
v -0.225 -0.1675 0.02319999933
v -0.2232322311 -0.1682322311 0.02319999933
v -0.2225 -0.17 0.02319999933
v -0.2232322311 -0.1717677689 0.02319999933
v -0.225 -0.1725 0.02319999933
v -0.2267677689 -0.1717677689 0.02319999933
v -0.2214999962 -0.165 0.02319999933
v -0.2285000038 -0.165 0.02319999933
v -0.2285000038 -0.175 0.02319999933
v -0.2214999962 -0.175 0.02319999933
v -0.2285000038 -0.175 0.02319999933
v -0.23 -0.175 0.01980000019
v -0.22 -0.175 0.01980000019
v -0.2214999962 -0.175 0.02319999933
v -0.22 -0.165 0.01980000019
v -0.2214999962 -0.165 0.02319999933
v -0.2214999962 -0.175 0.02319999933
v -0.22 -0.175 0.01980000019
v -0.2285000038 -0.165 0.02319999933
v -0.23 -0.165 0.01980000019
v -0.23 -0.175 0.01980000019
v -0.2285000038 -0.175 0.02319999933
v -0.2275 -0.17 0.01980000019
v -0.2267677689 -0.1717677689 0.01980000019
v -0.225 -0.1725 0.01980000019
v -0.2232322311 -0.1717677689 0.01980000019
v -0.2225 -0.17 0.01980000019
v -0.2232322311 -0.1682322311 0.01980000019
v -0.225 -0.1675 0.01980000019
v -0.2267677689 -0.1682322311 0.01980000019
v -0.23 -0.165 0.01980000019
v -0.22 -0.165 0.01980000019
v -0.22 -0.175 0.01980000019
v -0.23 -0.175 0.01980000019
v -0.2275 -0.17 0.02319999933
v -0.2267677689 -0.1717677689 0.02319999933
v -0.225 -0.1725 0.02319999933
v -0.2232322311 -0.1717677689 0.02319999933
v -0.2225 -0.17 0.02319999933
v -0.2232322311 -0.1682322311 0.02319999933
v -0.225 -0.1675 0.02319999933
v -0.2267677689 -0.1682322311 0.02319999933
v -0.2275 -0.17 0.01980000019
v -0.2267677689 -0.1682322311 0.01980000019
v -0.225 -0.1675 0.01980000019
v -0.2232322311 -0.1682322311 0.01980000019
v -0.2225 -0.17 0.01980000019
v -0.2232322311 -0.1717677689 0.01980000019
v -0.225 -0.1725 0.01980000019
v -0.2267677689 -0.1717677689 0.01980000019
v -0.2275 -0.17 0.02319999933
v -0.2275 -0.17 0.01980000019
f 2 3 1
f 1 3 4
f 6 14 5
f 5 14 15
f 5 15 12
f 12 15 11
f 11 15 16
f 11 16 10
f 10 16 9
f 9 16 13
f 9 13 8
f 8 13 7
f 7 13 14
f 7 14 6
f 18 19 17
f 17 19 20
f 21 22 24
f 24 22 23
f 25 26 28
f 28 26 27
f 30 40 29
f 29 40 37
f 29 37 36
f 36 37 35
f 35 37 38
f 35 38 34
f 34 38 33
f 33 38 39
f 33 39 32
f 32 39 31
f 31 39 40
f 31 40 30
f 42 56 41
f 41 56 58
f 57 49 48
f 48 49 50
f 48 50 51
f 42 43 56
f 56 43 55
f 55 43 44
f 55 44 54
f 54 44 45
f 54 45 53
f 53 45 46
f 53 46 52
f 52 46 47
f 52 47 51
f 51 47 48
