v 0.2021649933 0.09100000381 0.3798767549
v 0.2028972244 0.09100000381 0.3816445238
v 0.2046649933 0.09100000381 0.3823767549
v 0.2064327621 0.09100000381 0.3816445238
v 0.2071649933 0.09100000381 0.3798767549
v 0.2064327621 0.09100000381 0.3781089861
v 0.2046649933 0.09100000381 0.3773767549
v 0.2028972244 0.09100000381 0.3781089861
v 0.1966650009 0.09100000381 0.3798767549
v 0.1975813484 0.09100000381 0.37615897
v 0.2001204872 0.09100000381 0.3732928831
v 0.2037007141 0.09100000381 0.3719350797
v 0.2075018311 0.09100000381 0.37239662
v 0.2106530952 0.09100000381 0.3745717699
v 0.2124325371 0.09100000381 0.3779622251
v 0.2124325371 0.09100000381 0.3817912752
v 0.2106530952 0.09100000381 0.3851817304
v 0.2075018311 0.09100000381 0.3873568803
v 0.2037007141 0.09100000381 0.3878184206
v 0.2001204872 0.09100000381 0.3864606268
v 0.1975813484 0.09100000381 0.3835945398
v 0.2021649933 0.09600000381 0.3798767549
v 0.2028972244 0.09600000381 0.3816445238
v 0.2046649933 0.09600000381 0.3823767549
v 0.2064327621 0.09600000381 0.3816445238
v 0.2071649933 0.09600000381 0.3798767549
v 0.2064327621 0.09600000381 0.3781089861
v 0.2046649933 0.09600000381 0.3773767549
v 0.2028972244 0.09600000381 0.3781089861
v 0.2021649933 0.09100000381 0.3798767549
v 0.2028972244 0.09100000381 0.3781089861
v 0.2046649933 0.09100000381 0.3773767549
v 0.2064327621 0.09100000381 0.3781089861
v 0.2071649933 0.09100000381 0.3798767549
v 0.2064327621 0.09100000381 0.3816445238
v 0.2046649933 0.09100000381 0.3823767549
v 0.2028972244 0.09100000381 0.3816445238
v 0.2021649933 0.09600000381 0.3798767549
v 0.2021649933 0.09100000381 0.3798767549
v 0.2021649933 0.09600000381 0.3798767549
v 0.2028972244 0.09600000381 0.3781089861
v 0.2046649933 0.09600000381 0.3773767549
v 0.2064327621 0.09600000381 0.3781089861
v 0.2071649933 0.09600000381 0.3798767549
v 0.2064327621 0.09600000381 0.3816445238
v 0.2046649933 0.09600000381 0.3823767549
v 0.2028972244 0.09600000381 0.3816445238
v 0.1966650009 0.09600000381 0.3798767549
v 0.1975813484 0.09600000381 0.3835945398
v 0.2001204872 0.09600000381 0.3864606268
v 0.2037007141 0.09600000381 0.3878184206
v 0.2075018311 0.09600000381 0.3873568803
v 0.2106530952 0.09600000381 0.3851817304
v 0.2124325371 0.09600000381 0.3817912752
v 0.2124325371 0.09600000381 0.3779622251
v 0.2106530952 0.09600000381 0.3745717699
v 0.2075018311 0.09600000381 0.37239662
v 0.2037007141 0.09600000381 0.3719350797
v 0.2001204872 0.09600000381 0.3732928831
v 0.1975813484 0.09600000381 0.37615897
v 0.1966650009 0.09600000381 0.3798767549
v 0.1975813484 0.09600000381 0.37615897
v 0.2001204872 0.09600000381 0.3732928831
v 0.2037007141 0.09600000381 0.3719350797
v 0.2075018311 0.09600000381 0.37239662
v 0.2106530952 0.09600000381 0.3745717699
v 0.2124325371 0.09600000381 0.3779622251
v 0.2124325371 0.09600000381 0.3817912752
v 0.2106530952 0.09600000381 0.3851817304
v 0.2075018311 0.09600000381 0.3873568803
v 0.2037007141 0.09600000381 0.3878184206
v 0.2001204872 0.09600000381 0.3864606268
v 0.1975813484 0.09600000381 0.3835945398
v 0.1966650009 0.09100000381 0.3798767549
v 0.1975813484 0.09100000381 0.3835945398
v 0.2001204872 0.09100000381 0.3864606268
v 0.2037007141 0.09100000381 0.3878184206
v 0.2075018311 0.09100000381 0.3873568803
v 0.2106530952 0.09100000381 0.3851817304
v 0.2124325371 0.09100000381 0.3817912752
v 0.2124325371 0.09100000381 0.3779622251
v 0.2106530952 0.09100000381 0.3745717699
v 0.2075018311 0.09100000381 0.37239662
v 0.2037007141 0.09100000381 0.3719350797
v 0.2001204872 0.09100000381 0.3732928831
v 0.1975813484 0.09100000381 0.37615897
v 0.1966650009 0.09100000381 0.3798767549
v 0.1966650009 0.09600000381 0.3798767549
f 2 21 1
f 1 21 9
f 1 9 10
f 21 2 20
f 20 2 3
f 20 3 19
f 19 3 18
f 18 3 4
f 18 4 17
f 17 4 16
f 16 4 5
f 16 5 15
f 15 5 6
f 15 6 14
f 14 6 13
f 13 6 7
f 13 7 12
f 12 7 11
f 11 7 8
f 11 8 10
f 10 8 1
f 23 37 22
f 22 37 39
f 38 30 29
f 29 30 31
f 29 31 32
f 23 24 37
f 37 24 36
f 36 24 25
f 36 25 35
f 35 25 26
f 35 26 34
f 34 26 27
f 34 27 33
f 33 27 28
f 33 28 32
f 32 28 29
f 41 60 40
f 40 60 48
f 40 48 49
f 60 41 59
f 59 41 42
f 59 42 58
f 58 42 57
f 57 42 43
f 57 43 56
f 56 43 55
f 55 43 44
f 55 44 54
f 54 44 45
f 54 45 53
f 53 45 52
f 52 45 46
f 52 46 51
f 51 46 50
f 50 46 47
f 50 47 49
f 49 47 40
f 62 86 61
f 61 86 87
f 88 74 73
f 73 74 75
f 73 75 72
f 72 75 76
f 72 76 71
f 71 76 77
f 71 77 70
f 70 77 78
f 70 78 69
f 69 78 79
f 69 79 68
f 68 79 80
f 68 80 67
f 67 80 81
f 67 81 66
f 66 81 82
f 66 82 65
f 65 82 83
f 65 83 64
f 64 83 84
f 64 84 63
f 63 84 85
f 63 85 62
f 62 85 86
