v 0.2021649933 0.085 0.3798767549
v 0.2028972244 0.085 0.3816445238
v 0.2046649933 0.085 0.3823767549
v 0.2064327621 0.085 0.3816445238
v 0.2071649933 0.085 0.3798767549
v 0.2064327621 0.085 0.3781089861
v 0.2046649933 0.085 0.3773767549
v 0.2028972244 0.085 0.3781089861
v 0.1966650009 0.085 0.3798767549
v 0.1975813484 0.085 0.37615897
v 0.2001204872 0.085 0.3732928831
v 0.2037007141 0.085 0.3719350797
v 0.2075018311 0.085 0.37239662
v 0.2106530952 0.085 0.3745717699
v 0.2124325371 0.085 0.3779622251
v 0.2124325371 0.085 0.3817912752
v 0.2106530952 0.085 0.3851817304
v 0.2075018311 0.085 0.3873568803
v 0.2037007141 0.085 0.3878184206
v 0.2001204872 0.085 0.3864606268
v 0.1975813484 0.085 0.3835945398
v 0.1966650009 0.09 0.3798767549
v 0.1975813484 0.09 0.37615897
v 0.2001204872 0.09 0.3732928831
v 0.2037007141 0.09 0.3719350797
v 0.2075018311 0.09 0.37239662
v 0.2106530952 0.09 0.3745717699
v 0.2124325371 0.09 0.3779622251
v 0.2124325371 0.09 0.3817912752
v 0.2106530952 0.09 0.3851817304
v 0.2075018311 0.09 0.3873568803
v 0.2037007141 0.09 0.3878184206
v 0.2001204872 0.09 0.3864606268
v 0.1975813484 0.09 0.3835945398
v 0.1966650009 0.085 0.3798767549
v 0.1975813484 0.085 0.3835945398
v 0.2001204872 0.085 0.3864606268
v 0.2037007141 0.085 0.3878184206
v 0.2075018311 0.085 0.3873568803
v 0.2106530952 0.085 0.3851817304
v 0.2124325371 0.085 0.3817912752
v 0.2124325371 0.085 0.3779622251
v 0.2106530952 0.085 0.3745717699
v 0.2075018311 0.085 0.37239662
v 0.2037007141 0.085 0.3719350797
v 0.2001204872 0.085 0.3732928831
v 0.1975813484 0.085 0.37615897
v 0.1966650009 0.085 0.3798767549
v 0.1966650009 0.09 0.3798767549
v 0.2021649933 0.09 0.3798767549
v 0.2028972244 0.09 0.3816445238
v 0.2046649933 0.09 0.3823767549
v 0.2064327621 0.09 0.3816445238
v 0.2071649933 0.09 0.3798767549
v 0.2064327621 0.09 0.3781089861
v 0.2046649933 0.09 0.3773767549
v 0.2028972244 0.09 0.3781089861
v 0.2021649933 0.085 0.3798767549
v 0.2028972244 0.085 0.3781089861
v 0.2046649933 0.085 0.3773767549
v 0.2064327621 0.085 0.3781089861
v 0.2071649933 0.085 0.3798767549
v 0.2064327621 0.085 0.3816445238
v 0.2046649933 0.085 0.3823767549
v 0.2028972244 0.085 0.3816445238
v 0.2021649933 0.09 0.3798767549
v 0.2021649933 0.085 0.3798767549
v 0.2021649933 0.09 0.3798767549
v 0.2028972244 0.09 0.3781089861
v 0.2046649933 0.09 0.3773767549
v 0.2064327621 0.09 0.3781089861
v 0.2071649933 0.09 0.3798767549
v 0.2064327621 0.09 0.3816445238
v 0.2046649933 0.09 0.3823767549
v 0.2028972244 0.09 0.3816445238
v 0.1966650009 0.09 0.3798767549
v 0.1975813484 0.09 0.3835945398
v 0.2001204872 0.09 0.3864606268
v 0.2037007141 0.09 0.3878184206
v 0.2075018311 0.09 0.3873568803
v 0.2106530952 0.09 0.3851817304
v 0.2124325371 0.09 0.3817912752
v 0.2124325371 0.09 0.3779622251
v 0.2106530952 0.09 0.3745717699
v 0.2075018311 0.09 0.37239662
v 0.2037007141 0.09 0.3719350797
v 0.2001204872 0.09 0.3732928831
v 0.1975813484 0.09 0.37615897
f 2 21 1
f 1 21 9
f 1 9 10
f 21 2 20
f 20 2 3
f 20 3 19
f 19 3 18
f 18 3 4
f 18 4 17
f 17 4 16
f 16 4 5
f 16 5 15
f 15 5 6
f 15 6 14
f 14 6 13
f 13 6 7
f 13 7 12
f 12 7 11
f 11 7 8
f 11 8 10
f 10 8 1
f 23 47 22
f 22 47 48
f 49 35 34
f 34 35 36
f 34 36 33
f 33 36 37
f 33 37 32
f 32 37 38
f 32 38 31
f 31 38 39
f 31 39 30
f 30 39 40
f 30 40 29
f 29 40 41
f 29 41 28
f 28 41 42
f 28 42 27
f 27 42 43
f 27 43 26
f 26 43 44
f 26 44 25
f 25 44 45
f 25 45 24
f 24 45 46
f 24 46 23
f 23 46 47
f 51 65 50
f 50 65 67
f 66 58 57
f 57 58 59
f 57 59 60
f 51 52 65
f 65 52 64
f 64 52 53
f 64 53 63
f 63 53 54
f 63 54 62
f 62 54 55
f 62 55 61
f 61 55 56
f 61 56 60
f 60 56 57
f 69 88 68
f 68 88 76
f 68 76 77
f 88 69 87
f 87 69 70
f 87 70 86
f 86 70 85
f 85 70 71
f 85 71 84
f 84 71 83
f 83 71 72
f 83 72 82
f 82 72 73
f 82 73 81
f 81 73 80
f 80 73 74
f 80 74 79
f 79 74 78
f 78 74 75
f 78 75 77
f 77 75 68
