v -0.02240289927 0.07421000004 0.4179167444
v -0.02240289927 0.075 0.4179167444
v -0.02216736078 0.075 0.4152676851
v -0.02216736078 0.075 0.4126081545
v -0.02240289927 0.075 0.4099590856
v -0.02240289927 0.07421000004 0.4099590856
v -0.02216736078 0.07421000004 0.4126081545
v -0.02216736078 0.07421000004 0.4152676851
v -0.02240289927 0.075 0.4099590856
v -0.02216736078 0.075 0.4126081545
v -0.02216736078 0.075 0.4152676851
v -0.02240289927 0.075 0.4179167444
v -0.02141818523 0.075 0.4180028993
v -0.01998097181 0.075 0.4119388277
v -0.01686493635 0.075 0.4065416891
v -0.01233189344 0.075 0.4022649843
v -0.006762712002 0.075 0.3994680387
v -0.0006253214183 0.075 0.3983858472
v 0.005564609766 0.075 0.3991093427
v 0.0112869966 0.075 0.4015777475
v 0.01606103897 0.075 0.4055836374
v 0.01948561788 0.075 0.4107904512
v 0.02127299547 0.075 0.4167607195
v 0.02127299547 0.075 0.4229927904
v 0.01948561788 0.075 0.4289630396
v 0.01606103897 0.075 0.4341698724
v 0.0112869966 0.075 0.4381757623
v 0.005564609766 0.075 0.4406441576
v -0.0006253214178 0.075 0.441367653
v -0.006762712002 0.075 0.4402854616
v -0.01233189344 0.075 0.4374885255
v -0.01686493635 0.075 0.4332118112
v -0.01998097181 0.075 0.4278146822
v -0.02141818523 0.075 0.4217505914
v -0.02440676928 0.075 0.4220120699
v -0.02290813446 0.075 0.4285639459
v -0.01968549728 0.075 0.4344620592
v -0.01498138666 0.075 0.4392625124
v -0.009149820208 0.075 0.4426040727
v -0.002629664838 0.075 0.4442352182
v 0.004088391662 0.075 0.44403323
v 0.0104987669 0.075 0.4420132715
v 0.01611903667 0.075 0.4383274156
v 0.02052623272 0.075 0.4332529909
v 0.0233886838 0.075 0.4271719247
v 0.02449097157 0.075 0.4205418283
v 0.02375013828 0.075 0.413861683
v 0.02122193813 0.075 0.4076342279
v 0.0170966363 0.075 0.402328108
v 0.01168469071 0.075 0.3983426363
v 0.005393389463 0.075 0.3959777719
v -0.001303803027 0.075 0.3954114706
v -0.007902874947 0.075 0.3966863519
v -0.01390719891 0.075 0.3997064859
v -0.01886490822 0.075 0.4042445642
v -0.02440676928 0.07421000004 0.4220120699
v -0.02290813446 0.07421000004 0.4285639459
v -0.01968549728 0.07421000004 0.4344620592
v -0.01498138666 0.07421000004 0.4392625124
v -0.009149820208 0.07421000004 0.4426040727
v -0.002629664838 0.07421000004 0.4442352182
v 0.004088391662 0.07421000004 0.44403323
v 0.0104987669 0.07421000004 0.4420132715
v 0.01611903667 0.07421000004 0.4383274156
v 0.02052623272 0.07421000004 0.4332529909
v 0.0233886838 0.07421000004 0.4271719247
v 0.02449097157 0.07421000004 0.4205418283
v 0.02375013828 0.07421000004 0.413861683
v 0.02122193813 0.07421000004 0.4076342279
v 0.0170966363 0.07421000004 0.402328108
v 0.01168469071 0.07421000004 0.3983426363
v 0.005393389463 0.07421000004 0.3959777719
v -0.001303803027 0.07421000004 0.3954114706
v -0.007902874947 0.07421000004 0.3966863519
v -0.01390719891 0.07421000004 0.3997064859
v -0.01886490822 0.07421000004 0.4042445642
v -0.02240289927 0.07421000004 0.4099590856
v -0.02240289927 0.075 0.4099590856
v -0.01886490822 0.075 0.4042445642
v -0.01390719891 0.075 0.3997064859
v -0.007902874947 0.075 0.3966863519
v -0.001303803027 0.075 0.3954114706
v 0.005393389463 0.075 0.3959777719
v 0.01168469071 0.075 0.3983426363
v 0.0170966363 0.075 0.402328108
v 0.02122193813 0.075 0.4076342279
v 0.02375013828 0.075 0.413861683
v 0.02449097157 0.075 0.4205418283
v 0.0233886838 0.075 0.4271719247
v 0.02052623272 0.075 0.4332529909
v 0.01611903667 0.075 0.4383274156
v 0.0104987669 0.075 0.4420132715
v 0.004088391662 0.075 0.44403323
v -0.002629664838 0.075 0.4442352182
v -0.009149820208 0.075 0.4426040727
v -0.01498138666 0.075 0.4392625124
v -0.01968549728 0.075 0.4344620592
v -0.02290813446 0.075 0.4285639459
v -0.02440676928 0.075 0.4220120699
v -0.02440676928 0.07421000004 0.4220120699
v -0.02141818523 0.07421000004 0.4217505914
v -0.01998097181 0.07421000004 0.4278146822
v -0.01686493635 0.07421000004 0.4332118112
v -0.01233189344 0.07421000004 0.4374885255
v -0.006762712002 0.07421000004 0.4402854616
v -0.0006253214178 0.07421000004 0.441367653
v 0.005564609766 0.07421000004 0.4406441576
v 0.0112869966 0.07421000004 0.4381757623
v 0.01606103897 0.07421000004 0.4341698724
v 0.01948561788 0.07421000004 0.4289630396
v 0.02127299547 0.07421000004 0.4229927904
v 0.02127299547 0.07421000004 0.4167607195
v 0.01948561788 0.07421000004 0.4107904512
v 0.01606103897 0.07421000004 0.4055836374
v 0.0112869966 0.07421000004 0.4015777475
v 0.005564609766 0.07421000004 0.3991093427
v -0.0006253214183 0.07421000004 0.3983858472
v -0.006762712002 0.07421000004 0.3994680387
v -0.01233189344 0.07421000004 0.4022649843
v -0.01686493635 0.07421000004 0.4065416891
v -0.01998097181 0.07421000004 0.4119388277
v -0.02141818523 0.07421000004 0.4180028993
v -0.02240289927 0.07421000004 0.4179167444
v -0.02216736078 0.07421000004 0.4152676851
v -0.02216736078 0.07421000004 0.4126081545
v -0.02240289927 0.07421000004 0.4099590856
v -0.01886490822 0.07421000004 0.4042445642
v -0.01390719891 0.07421000004 0.3997064859
v -0.007902874947 0.07421000004 0.3966863519
v -0.001303803027 0.07421000004 0.3954114706
v 0.005393389463 0.07421000004 0.3959777719
v 0.01168469071 0.07421000004 0.3983426363
v 0.0170966363 0.07421000004 0.402328108
v 0.02122193813 0.07421000004 0.4076342279
v 0.02375013828 0.07421000004 0.413861683
v 0.02449097157 0.07421000004 0.4205418283
v 0.0233886838 0.07421000004 0.4271719247
v 0.02052623272 0.07421000004 0.4332529909
v 0.01611903667 0.07421000004 0.4383274156
v 0.0104987669 0.07421000004 0.4420132715
v 0.004088391662 0.07421000004 0.44403323
v -0.002629664838 0.07421000004 0.4442352182
v -0.009149820208 0.07421000004 0.4426040727
v -0.01498138666 0.07421000004 0.4392625124
v -0.01968549728 0.07421000004 0.4344620592
v -0.02290813446 0.07421000004 0.4285639459
v -0.02440676928 0.07421000004 0.4220120699
v -0.02440676928 0.075 0.4220120699
v -0.02141818523 0.075 0.4217505914
v -0.02141818523 0.07421000004 0.4217505914
v -0.02141818523 0.07421000004 0.4180028993
v -0.01998097181 0.07421000004 0.4119388277
v -0.01686493635 0.07421000004 0.4065416891
v -0.01233189344 0.07421000004 0.4022649843
v -0.006762712002 0.07421000004 0.3994680387
v -0.0006253214183 0.07421000004 0.3983858472
v 0.005564609766 0.07421000004 0.3991093427
v 0.0112869966 0.07421000004 0.4015777475
v 0.01606103897 0.07421000004 0.4055836374
v 0.01948561788 0.07421000004 0.4107904512
v 0.02127299547 0.07421000004 0.4167607195
v 0.02127299547 0.07421000004 0.4229927904
v 0.01948561788 0.07421000004 0.4289630396
v 0.01606103897 0.07421000004 0.4341698724
v 0.0112869966 0.07421000004 0.4381757623
v 0.005564609766 0.07421000004 0.4406441576
v -0.0006253214178 0.07421000004 0.441367653
v -0.006762712002 0.07421000004 0.4402854616
v -0.01233189344 0.07421000004 0.4374885255
v -0.01686493635 0.07421000004 0.4332118112
v -0.01998097181 0.07421000004 0.4278146822
v -0.02141818523 0.07421000004 0.4217505914
v -0.02141818523 0.075 0.4217505914
v -0.01998097181 0.075 0.4278146822
v -0.01686493635 0.075 0.4332118112
v -0.01233189344 0.075 0.4374885255
v -0.006762712002 0.075 0.4402854616
v -0.0006253214178 0.075 0.441367653
v 0.005564609766 0.075 0.4406441576
v 0.0112869966 0.075 0.4381757623
v 0.01606103897 0.075 0.4341698724
v 0.01948561788 0.075 0.4289630396
v 0.02127299547 0.075 0.4229927904
v 0.02127299547 0.075 0.4167607195
v 0.01948561788 0.075 0.4107904512
v 0.01606103897 0.075 0.4055836374
v 0.0112869966 0.075 0.4015777475
v 0.005564609766 0.075 0.3991093427
v -0.0006253214183 0.075 0.3983858472
v -0.006762712002 0.075 0.3994680387
v -0.01233189344 0.075 0.4022649843
v -0.01686493635 0.075 0.4065416891
v -0.01998097181 0.075 0.4119388277
v -0.02141818523 0.075 0.4180028993
v 0.005564609766 0.07421000004 0.3991093427
v 0.005564609766 0.075 0.3991093427
v -0.02141818523 0.07421000004 0.4180028993
v -0.02141818523 0.075 0.4180028993
v -0.02240289927 0.075 0.4179167444
v -0.02240289927 0.07421000004 0.4179167444
f 1 2 8
f 8 2 3
f 8 3 7
f 7 3 4
f 7 4 6
f 6 4 5
f 10 14 9
f 9 14 15
f 9 15 55
f 55 15 16
f 55 16 54
f 54 16 53
f 53 16 17
f 53 17 52
f 52 17 18
f 52 18 51
f 51 18 19
f 51 19 50
f 50 19 20
f 50 20 49
f 49 20 21
f 49 21 48
f 48 21 22
f 48 22 47
f 47 22 23
f 47 23 46
f 46 23 24
f 46 24 45
f 45 24 25
f 45 25 44
f 44 25 26
f 44 26 43
f 43 26 27
f 43 27 42
f 42 27 28
f 42 28 41
f 41 28 29
f 41 29 40
f 40 29 30
f 40 30 39
f 39 30 31
f 39 31 38
f 38 31 32
f 38 32 37
f 37 32 33
f 37 33 36
f 36 33 34
f 36 34 35
f 10 11 14
f 14 11 13
f 13 11 12
f 99 56 98
f 98 56 57
f 98 57 97
f 97 57 58
f 97 58 96
f 96 58 59
f 96 59 95
f 95 59 60
f 95 60 94
f 94 60 61
f 94 61 93
f 93 61 62
f 93 62 92
f 92 62 63
f 92 63 91
f 91 63 64
f 91 64 90
f 90 64 65
f 90 65 89
f 89 65 66
f 89 66 88
f 88 66 67
f 88 67 87
f 87 67 68
f 87 68 86
f 86 68 69
f 86 69 85
f 85 69 70
f 85 70 84
f 84 70 71
f 84 71 83
f 83 71 72
f 83 72 82
f 82 72 73
f 82 73 81
f 81 73 74
f 81 74 80
f 80 74 75
f 80 75 79
f 79 75 76
f 79 76 78
f 78 76 77
f 100 101 146
f 146 101 102
f 146 102 145
f 145 102 103
f 145 103 144
f 144 103 104
f 144 104 143
f 143 104 105
f 143 105 142
f 142 105 106
f 142 106 141
f 141 106 107
f 141 107 140
f 140 107 108
f 140 108 139
f 139 108 109
f 139 109 138
f 138 109 110
f 138 110 137
f 137 110 111
f 137 111 136
f 136 111 112
f 136 112 135
f 135 112 113
f 135 113 134
f 134 113 114
f 134 114 133
f 133 114 115
f 133 115 132
f 132 115 116
f 132 116 131
f 131 116 117
f 131 117 130
f 130 117 118
f 130 118 129
f 129 118 119
f 129 119 128
f 128 119 127
f 127 119 120
f 127 120 126
f 126 120 121
f 126 121 125
f 125 121 124
f 124 121 122
f 124 122 123
f 147 148 150
f 150 148 149
f 151 152 194
f 194 152 193
f 193 152 192
f 192 152 153
f 192 153 154
f 192 154 191
f 191 154 155
f 191 155 190
f 190 155 156
f 190 156 189
f 189 156 195
f 189 195 188
f 196 157 158
f 196 158 187
f 187 158 159
f 187 159 186
f 186 159 160
f 186 160 185
f 185 160 161
f 185 161 184
f 184 161 162
f 184 162 183
f 183 162 163
f 183 163 182
f 182 163 164
f 182 164 181
f 181 164 165
f 181 165 180
f 180 165 166
f 180 166 179
f 179 166 167
f 179 167 178
f 178 167 168
f 178 168 177
f 177 168 169
f 177 169 176
f 176 169 170
f 176 170 175
f 175 170 171
f 175 171 174
f 174 171 172
f 174 172 173
f 197 198 200
f 200 198 199
