v 0.0625 0.08399999619 0.4848767549
v 0.06323223114 0.08399999619 0.4866445238
v 0.065 0.08399999619 0.4873767549
v 0.06676776886 0.08399999619 0.4866445238
v 0.0675 0.08399999619 0.4848767549
v 0.06676776886 0.08399999619 0.4831089861
v 0.065 0.08399999619 0.4823767549
v 0.06323223114 0.08399999619 0.4831089861
v 0.0625 0.07900000095 0.4848767549
v 0.06323223114 0.07900000095 0.4831089861
v 0.065 0.07900000095 0.4823767549
v 0.06676776886 0.07900000095 0.4831089861
v 0.0675 0.07900000095 0.4848767549
v 0.06676776886 0.07900000095 0.4866445238
v 0.065 0.07900000095 0.4873767549
v 0.06323223114 0.07900000095 0.4866445238
v 0.0625 0.08399999619 0.4848767549
v 0.0625 0.07900000095 0.4848767549
v 0.0625 0.08399999619 0.4848767549
v 0.06323223114 0.08399999619 0.4831089861
v 0.065 0.08399999619 0.4823767549
v 0.06676776886 0.08399999619 0.4831089861
v 0.0675 0.08399999619 0.4848767549
v 0.06676776886 0.08399999619 0.4866445238
v 0.065 0.08399999619 0.4873767549
v 0.06323223114 0.08399999619 0.4866445238
v 0.06730940342 0.08399999619 0.4888767511
v 0.06961880207 0.08399999619 0.4848767549
v 0.06730940342 0.08399999619 0.4808767587
v 0.06269059658 0.08399999619 0.4808767587
v 0.06038119793 0.08399999619 0.4848767549
v 0.06269059658 0.08399999619 0.4888767511
v 0.06269059658 0.07900000095 0.4808767587
v 0.06038119793 0.07900000095 0.4848767549
v 0.06038119793 0.08399999619 0.4848767549
v 0.06269059658 0.08399999619 0.4808767587
v 0.06730940342 0.07900000095 0.4888767511
v 0.06961880207 0.07900000095 0.4848767549
v 0.06961880207 0.08399999619 0.4848767549
v 0.06730940342 0.08399999619 0.4888767511
v 0.06038119793 0.07900000095 0.4848767549
v 0.06269059658 0.07900000095 0.4888767511
v 0.06269059658 0.08399999619 0.4888767511
v 0.06038119793 0.08399999619 0.4848767549
v 0.0625 0.07900000095 0.4848767549
v 0.06323223114 0.07900000095 0.4866445238
v 0.065 0.07900000095 0.4873767549
v 0.06676776886 0.07900000095 0.4866445238
v 0.0675 0.07900000095 0.4848767549
v 0.06676776886 0.07900000095 0.4831089861
v 0.065 0.07900000095 0.4823767549
v 0.06323223114 0.07900000095 0.4831089861
v 0.06961880207 0.07900000095 0.4848767549
v 0.06730940342 0.07900000095 0.4888767511
v 0.06269059658 0.07900000095 0.4888767511
v 0.06038119793 0.07900000095 0.4848767549
v 0.06269059658 0.07900000095 0.4808767587
v 0.06730940342 0.07900000095 0.4808767587
v 0.06269059658 0.07900000095 0.4888767511
v 0.06730940342 0.07900000095 0.4888767511
v 0.06730940342 0.08399999619 0.4888767511
v 0.06269059658 0.08399999619 0.4888767511
v 0.06961880207 0.07900000095 0.4848767549
v 0.06730940342 0.07900000095 0.4808767587
v 0.06730940342 0.08399999619 0.4808767587
v 0.06961880207 0.08399999619 0.4848767549
v 0.06730940342 0.07900000095 0.4808767587
v 0.06269059658 0.07900000095 0.4808767587
v 0.06269059658 0.08399999619 0.4808767587
v 0.06730940342 0.08399999619 0.4808767587
f 2 16 1
f 1 16 18
f 17 9 8
f 8 9 10
f 8 10 11
f 2 3 16
f 16 3 15
f 15 3 4
f 15 4 14
f 14 4 5
f 14 5 13
f 13 5 6
f 13 6 12
f 12 6 7
f 12 7 11
f 11 7 8
f 26 19 31
f 31 19 20
f 31 20 30
f 30 20 21
f 30 21 29
f 29 21 22
f 29 22 28
f 28 22 23
f 28 23 24
f 28 24 27
f 27 24 25
f 27 25 32
f 32 25 26
f 32 26 31
f 33 34 36
f 36 34 35
f 37 38 40
f 40 38 39
f 41 42 44
f 44 42 43
f 52 45 56
f 56 45 46
f 56 46 55
f 55 46 47
f 55 47 54
f 54 47 48
f 54 48 53
f 53 48 49
f 53 49 50
f 53 50 58
f 58 50 51
f 58 51 57
f 57 51 52
f 57 52 56
f 59 60 62
f 62 60 61
f 63 64 66
f 66 64 65
f 67 68 70
f 70 68 69
