v -0.2114999962 0.1986000061 0.02799999952
v -0.2114999962 0.1977577591 0.02568596363
v -0.2114999962 0.1956251335 0.02445469141
v -0.2114999962 0.1931999969 0.02488230944
v -0.2114999962 0.1916171074 0.0267687273
v -0.2114999962 0.1916171074 0.02923127174
v -0.2114999962 0.1931999969 0.03111769199
v -0.2114999962 0.1956251335 0.03154530764
v -0.2114999962 0.1977577591 0.03031403542
v -0.2114999962 0.2004999924 0.02799999952
v -0.2114999962 0.1996269035 0.03097352505
v -0.2114999962 0.1972847748 0.03300297499
v -0.2114999962 0.1942172623 0.03344401836
v -0.2114999962 0.1913982582 0.03215662241
v -0.2114999962 0.1897227859 0.02954952955
v -0.2114999962 0.1897227859 0.02645047188
v -0.2114999962 0.1913982582 0.02384337664
v -0.2114999962 0.1942172623 0.02255598307
v -0.2114999962 0.1972847748 0.02299702406
v -0.2114999962 0.1996269035 0.02502647638
v -0.205 0.195 0.0225
v -0.2071047592 0.1971047592 0.02291866302
v -0.2088890839 0.1988890839 0.02411091328
v -0.2100813293 0.2000813293 0.02589524031
v -0.2104999924 0.2004999924 0.02799999952
v -0.2100813293 0.2000813293 0.03010475874
v -0.2088890839 0.1988890839 0.03188908815
v -0.2071047592 0.1971047592 0.03308133841
v -0.205 0.195 0.03349999905
v -0.2071047592 0.1928952408 0.03308133841
v -0.2088890839 0.1911109161 0.03188908815
v -0.2100813293 0.1899186707 0.03010475874
v -0.2104999924 0.1895000076 0.02799999952
v -0.2100813293 0.1899186707 0.02589524031
v -0.2088890839 0.1911109161 0.02411091328
v -0.2071047592 0.1928952408 0.02291866302
v -0.2114999962 0.2004999924 0.02799999952
v -0.2114999962 0.1996269035 0.02502647638
v -0.2114999962 0.1972847748 0.02299702406
v -0.2114999962 0.1942172623 0.02255598307
v -0.2114999962 0.1913982582 0.02384337664
v -0.2114999962 0.1897227859 0.02645047188
v -0.2114999962 0.1897227859 0.02954952955
v -0.2114999962 0.1913982582 0.03215662241
v -0.2114999962 0.1942172623 0.03344401836
v -0.2114999962 0.1972847748 0.03300297499
v -0.2114999962 0.1996269035 0.03097352505
v -0.2104999924 0.2004999924 0.02799999952
v -0.2114999962 0.2004999924 0.02799999952
v -0.205 0.195 0.03349999905
v -0.2028952408 0.1971047592 0.03308133841
v -0.2011109161 0.1988890839 0.03188908815
v -0.1999186707 0.2000813293 0.03010475874
v -0.1995000076 0.2004999924 0.02799999952
v -0.1999186707 0.2000813293 0.02589524031
v -0.2011109161 0.1988890839 0.02411091328
v -0.2028952408 0.1971047592 0.02291866302
v -0.205 0.195 0.0225
v -0.2045000076 0.1945000076 0.02252277374
v -0.2022468185 0.1967531967 0.02278690815
v -0.2002919006 0.1987080956 0.02393798113
v -0.1989678764 0.2000321198 0.02578015089
v -0.1985000038 0.2004999924 0.02799999952
v -0.1989678764 0.2000321198 0.03021984816
v -0.2002919006 0.1987080956 0.0320620203
v -0.2022468185 0.1967531967 0.0332130909
v -0.2045000076 0.1945000076 0.0334772253
v -0.2045000076 0.1945000076 0.02252277374
v -0.205 0.195 0.0225
v -0.2071047592 0.1928952408 0.02291866302
v -0.2088890839 0.1911109161 0.02411091328
v -0.2100813293 0.1899186707 0.02589524031
v -0.2104999924 0.1895000076 0.02799999952
v -0.2100813293 0.1899186707 0.03010475874
v -0.2088890839 0.1911109161 0.03188908815
v -0.2071047592 0.1928952408 0.03308133841
v -0.205 0.195 0.03349999905
v -0.2045000076 0.1945000076 0.0334772253
v -0.2067531967 0.1922468185 0.0332130909
v -0.2087080956 0.1902919006 0.0320620203
v -0.2100321198 0.1889678764 0.03021984816
v -0.2104999924 0.1885000038 0.02799999952
v -0.2100321198 0.1889678764 0.02578015089
v -0.2087080956 0.1902919006 0.02393798113
v -0.2067531967 0.1922468185 0.02278690815
v -0.205 0.2014999962 0.03160000086
v -0.2026859665 0.2014999962 0.030757761
v -0.2014546967 0.2014999962 0.02862513304
v -0.2018823051 0.2014999962 0.02619999886
v -0.2037687302 0.2014999962 0.02461710691
v -0.2062312698 0.2014999962 0.02461710691
v -0.2081176949 0.2014999962 0.02619999886
v -0.2085453033 0.2014999962 0.02862513304
v -0.2073140335 0.2014999962 0.030757761
v -0.205 0.2014999962 0.03349999905
v -0.2079735184 0.2014999962 0.03262689352
v -0.2100029755 0.2014999962 0.03028478146
v -0.2104440117 0.2014999962 0.02721726894
v -0.2091566277 0.2014999962 0.02439826488
v -0.20654953 0.2014999962 0.02272278786
v -0.20345047 0.2014999962 0.02272278786
v -0.2008433723 0.2014999962 0.02439826488
v -0.1995559883 0.2014999962 0.02721726894
v -0.1999970245 0.2014999962 0.03028478146
v -0.2020264816 0.2014999962 0.03262689352
v -0.205 0.195 0.03349999905
v -0.2071047592 0.1971047592 0.03308133841
v -0.2088890839 0.1988890839 0.03188908815
v -0.2100813293 0.2000813293 0.03010475874
v -0.2104999924 0.2004999924 0.02799999952
v -0.2100813293 0.2000813293 0.02589524031
v -0.2088890839 0.1988890839 0.02411091328
v -0.2071047592 0.1971047592 0.02291866302
v -0.205 0.195 0.0225
v -0.2028952408 0.1971047592 0.02291866302
v -0.2011109161 0.1988890839 0.02411091328
v -0.1999186707 0.2000813293 0.02589524031
v -0.1995000076 0.2004999924 0.02799999952
v -0.1999186707 0.2000813293 0.03010475874
v -0.2011109161 0.1988890839 0.03188908815
v -0.2028952408 0.1971047592 0.03308133841
v -0.205 0.2014999962 0.03349999905
v -0.2020264816 0.2014999962 0.03262689352
v -0.1999970245 0.2014999962 0.03028478146
v -0.1995559883 0.2014999962 0.02721726894
v -0.2008433723 0.2014999962 0.02439826488
v -0.20345047 0.2014999962 0.02272278786
v -0.20654953 0.2014999962 0.02272278786
v -0.2091566277 0.2014999962 0.02439826488
v -0.2104440117 0.2014999962 0.02721726894
v -0.2100029755 0.2014999962 0.03028478146
v -0.2079735184 0.2014999962 0.03262689352
v -0.205 0.195 0.03349999905
v -0.205 0.2014999962 0.03349999905
v -0.205 0.2014999962 0.03160000086
v -0.2073140335 0.2014999962 0.030757761
v -0.2085453033 0.2014999962 0.02862513304
v -0.2081176949 0.2014999962 0.02619999886
v -0.2062312698 0.2014999962 0.02461710691
v -0.2037687302 0.2014999962 0.02461710691
v -0.2018823051 0.2014999962 0.02619999886
v -0.2014546967 0.2014999962 0.02862513304
v -0.2026859665 0.2014999962 0.030757761
v -0.205 0.205 0.03160000086
v -0.2026859665 0.205 0.030757761
v -0.2014546967 0.205 0.02862513304
v -0.2018823051 0.205 0.02619999886
v -0.2037687302 0.205 0.02461710691
v -0.2062312698 0.205 0.02461710691
v -0.2081176949 0.205 0.02619999886
v -0.2085453033 0.205 0.02862513304
v -0.2073140335 0.205 0.030757761
v -0.205 0.2014999962 0.03160000086
v -0.205 0.205 0.03160000086
v -0.2114999962 0.1986000061 0.02799999952
v -0.2114999962 0.1977577591 0.03031403542
v -0.2114999962 0.1956251335 0.03154530764
v -0.2114999962 0.1931999969 0.03111769199
v -0.2114999962 0.1916171074 0.02923127174
v -0.2114999962 0.1916171074 0.0267687273
v -0.2114999962 0.1931999969 0.02488230944
v -0.2114999962 0.1956251335 0.02445469141
v -0.2114999962 0.1977577591 0.02568596363
v -0.215 0.1986000061 0.02799999952
v -0.215 0.1977577591 0.02568596363
v -0.215 0.1956251335 0.02445469141
v -0.215 0.1931999969 0.02488230944
v -0.215 0.1916171074 0.0267687273
v -0.215 0.1916171074 0.02923127174
v -0.215 0.1931999969 0.03111769199
v -0.215 0.1956251335 0.03154530764
v -0.215 0.1977577591 0.03031403542
v -0.2114999962 0.1986000061 0.02799999952
v -0.215 0.1986000061 0.02799999952
v -0.195 0.2039999962 0.01799999952
v -0.195 0.205 0.01799999952
v -0.195 0.205 0.03799999952
v -0.195 0.2039999962 0.03799999952
v -0.2045000076 0.1945000076 0.0334772253
v -0.2022468185 0.1967531967 0.0332130909
v -0.2002919006 0.1987080956 0.0320620203
v -0.1989678764 0.2000321198 0.03021984816
v -0.1985000038 0.2004999924 0.02799999952
v -0.1989678764 0.2000321198 0.02578015089
v -0.2002919006 0.1987080956 0.02393798113
v -0.2022468185 0.1967531967 0.02278690815
v -0.2045000076 0.1945000076 0.02252277374
v -0.2067531967 0.1922468185 0.02278690815
v -0.2087080956 0.1902919006 0.02393798113
v -0.2100321198 0.1889678764 0.02578015089
v -0.2104999924 0.1885000038 0.02799999952
v -0.2100321198 0.1889678764 0.03021984816
v -0.2087080956 0.1902919006 0.0320620203
v -0.2067531967 0.1922468185 0.0332130909
v -0.2139999962 0.185 0.01799999952
v -0.195 0.2039999962 0.01799999952
v -0.195 0.2039999962 0.03799999952
v -0.2139999962 0.185 0.03799999952
v -0.215 0.185 0.01799999952
v -0.2139999962 0.185 0.01799999952
v -0.2139999962 0.185 0.03799999952
v -0.215 0.185 0.03799999952
v -0.215 0.1986000061 0.02799999952
v -0.215 0.1977577591 0.03031403542
v -0.215 0.1956251335 0.03154530764
v -0.215 0.1931999969 0.03111769199
v -0.215 0.1916171074 0.02923127174
v -0.215 0.1916171074 0.0267687273
v -0.215 0.1931999969 0.02488230944
v -0.215 0.1956251335 0.02445469141
v -0.215 0.1977577591 0.02568596363
v -0.215 0.205 0.01799999952
v -0.215 0.185 0.01799999952
v -0.215 0.185 0.03799999952
v -0.215 0.205 0.03799999952
v -0.205 0.205 0.03160000086
v -0.2073140335 0.205 0.030757761
v -0.2085453033 0.205 0.02862513304
v -0.2081176949 0.205 0.02619999886
v -0.2062312698 0.205 0.02461710691
v -0.2037687302 0.205 0.02461710691
v -0.2018823051 0.205 0.02619999886
v -0.2014546967 0.205 0.02862513304
v -0.2026859665 0.205 0.030757761
v -0.195 0.205 0.01799999952
v -0.215 0.205 0.01799999952
v -0.215 0.205 0.03799999952
v -0.195 0.205 0.03799999952
v -0.195 0.205 0.03799999952
v -0.215 0.205 0.03799999952
v -0.215 0.185 0.03799999952
v -0.2139999962 0.185 0.03799999952
v -0.195 0.2039999962 0.03799999952
v -0.215 0.205 0.01799999952
v -0.195 0.205 0.01799999952
v -0.195 0.2039999962 0.01799999952
v -0.2139999962 0.185 0.01799999952
v -0.215 0.185 0.01799999952
f 2 20 1
f 1 20 10
f 1 10 11
f 20 2 19
f 19 2 3
f 19 3 18
f 18 3 4
f 18 4 17
f 17 4 5
f 17 5 16
f 16 5 15
f 15 5 6
f 15 6 14
f 14 6 7
f 14 7 13
f 13 7 8
f 13 8 12
f 12 8 9
f 12 9 11
f 11 9 1
f 36 21 40
f 40 21 22
f 40 22 39
f 39 22 23
f 39 23 38
f 38 23 24
f 38 24 37
f 37 24 48
f 49 25 26
f 49 26 47
f 47 26 27
f 47 27 46
f 46 27 28
f 46 28 29
f 46 29 45
f 45 29 30
f 45 30 44
f 44 30 31
f 44 31 32
f 44 32 43
f 43 32 33
f 43 33 42
f 42 33 34
f 42 34 41
f 41 34 35
f 41 35 36
f 41 36 40
f 67 50 66
f 66 50 51
f 66 51 65
f 65 51 52
f 65 52 64
f 64 52 53
f 64 53 63
f 63 53 54
f 63 54 55
f 63 55 62
f 62 55 56
f 62 56 61
f 61 56 57
f 61 57 60
f 60 57 58
f 60 58 59
f 68 69 85
f 85 69 70
f 85 70 84
f 84 70 71
f 84 71 83
f 83 71 72
f 83 72 82
f 82 72 73
f 82 73 74
f 82 74 81
f 81 74 75
f 81 75 80
f 80 75 76
f 80 76 79
f 79 76 77
f 79 77 78
f 87 105 86
f 86 105 95
f 86 95 96
f 105 87 104
f 104 87 88
f 104 88 103
f 103 88 89
f 103 89 102
f 102 89 90
f 102 90 101
f 101 90 100
f 100 90 91
f 100 91 99
f 99 91 92
f 99 92 98
f 98 92 93
f 98 93 97
f 97 93 94
f 97 94 96
f 96 94 86
f 121 133 122
f 134 106 107
f 134 107 132
f 132 107 108
f 132 108 131
f 131 108 109
f 131 109 110
f 131 110 130
f 130 110 111
f 130 111 129
f 129 111 112
f 129 112 113
f 129 113 128
f 128 113 114
f 128 114 127
f 127 114 115
f 127 115 116
f 127 116 126
f 126 116 117
f 126 117 125
f 125 117 118
f 125 118 124
f 124 118 119
f 124 119 120
f 124 120 123
f 123 120 121
f 123 121 122
f 136 152 135
f 135 152 154
f 153 144 143
f 143 144 145
f 143 145 142
f 142 145 146
f 142 146 141
f 141 146 147
f 141 147 140
f 140 147 148
f 140 148 139
f 139 148 149
f 139 149 138
f 138 149 150
f 138 150 137
f 137 150 151
f 137 151 136
f 136 151 152
f 156 172 155
f 155 172 174
f 173 164 163
f 163 164 165
f 163 165 162
f 162 165 166
f 162 166 161
f 161 166 167
f 161 167 160
f 160 167 168
f 160 168 159
f 159 168 169
f 159 169 158
f 158 169 170
f 158 170 157
f 157 170 171
f 157 171 156
f 156 171 172
f 175 176 178
f 178 176 177
f 180 197 179
f 179 197 198
f 179 198 194
f 194 198 193
f 193 198 192
f 192 198 191
f 191 198 195
f 191 195 190
f 190 195 189
f 189 195 188
f 188 195 187
f 187 195 196
f 187 196 186
f 186 196 185
f 185 196 184
f 184 196 183
f 183 196 197
f 183 197 182
f 182 197 181
f 181 197 180
f 199 200 202
f 202 200 201
f 204 215 203
f 203 215 212
f 203 212 211
f 211 212 210
f 210 212 213
f 210 213 209
f 209 213 208
f 208 213 207
f 207 213 214
f 207 214 206
f 206 214 205
f 205 214 215
f 205 215 204
f 217 227 216
f 216 227 228
f 216 228 224
f 224 228 223
f 223 228 225
f 223 225 222
f 222 225 221
f 221 225 226
f 221 226 220
f 220 226 219
f 219 226 218
f 218 226 227
f 218 227 217
f 229 230 233
f 233 230 232
f 232 230 231
f 235 236 234
f 234 236 237
f 234 237 238
