v 0.239312458 0.08538499832 0.3754009325
v 0.2375551414 0.08538499832 0.3788029176
v 0.2375801086 0.08538499832 0.3826318819
v 0.2393816376 0.08538499832 0.3860106641
v 0.2425469971 0.08538499832 0.3881652242
v 0.2463510513 0.08538499832 0.3886019689
v 0.2499223518 0.08538499832 0.3872208482
v 0.2524427414 0.08538499832 0.3843382723
v 0.2533348274 0.08538499832 0.3806145841
v 0.2523942566 0.08538499832 0.3769028551
v 0.249836483 0.08538499832 0.3740533907
v 0.2462474823 0.08538499832 0.3727189619
v 0.2424494553 0.08538499832 0.3732052786
v 0.2379573822 0.08538499832 0.3742161161
v 0.2414868164 0.08538499832 0.3716538984
v 0.2457784271 0.08538499832 0.3708767873
v 0.2499822235 0.08538499832 0.3720386964
v 0.2532655716 0.08538499832 0.3749095041
v 0.2549781799 0.08538499832 0.378920601
v 0.2547808266 0.08538499832 0.3832775385
v 0.2527126312 0.08538499832 0.3871173841
v 0.2491831779 0.08538499832 0.3896796018
v 0.2448915672 0.08538499832 0.3904567129
v 0.2406877708 0.08538499832 0.3892948038
v 0.2374044228 0.08538499832 0.3864240057
v 0.2356918144 0.08538499832 0.3824129087
v 0.2358891678 0.08538499832 0.3780559618
v 0.239312458 0.09561499596 0.3754009325
v 0.2424494553 0.09561499596 0.3732052786
v 0.2462474823 0.09561499596 0.3727189619
v 0.249836483 0.09561499596 0.3740533907
v 0.2523942566 0.09561499596 0.3769028551
v 0.2533348274 0.09561499596 0.3806145841
v 0.2524427414 0.09561499596 0.3843382723
v 0.2499223518 0.09561499596 0.3872208482
v 0.2463510513 0.09561499596 0.3886019689
v 0.2425469971 0.09561499596 0.3881652242
v 0.2393816376 0.09561499596 0.3860106641
v 0.2375801086 0.09561499596 0.3826318819
v 0.2375551414 0.09561499596 0.3788029176
v 0.2379573822 0.09561499596 0.3742161161
v 0.2358891678 0.09561499596 0.3780559618
v 0.2356918144 0.09561499596 0.3824129087
v 0.2374044228 0.09561499596 0.3864240057
v 0.2406877708 0.09561499596 0.3892948038
v 0.2448915672 0.09561499596 0.3904567129
v 0.2491831779 0.09561499596 0.3896796018
v 0.2527126312 0.09561499596 0.3871173841
v 0.2547808266 0.09561499596 0.3832775385
v 0.2549781799 0.09561499596 0.378920601
v 0.2532655716 0.09561499596 0.3749095041
v 0.2499822235 0.09561499596 0.3720386964
v 0.2457784271 0.09561499596 0.3708767873
v 0.2414868164 0.09561499596 0.3716538984
v 0.239312458 0.09 0.3754009325
v 0.2375551414 0.09 0.3788029176
v 0.2375801086 0.09 0.3826318819
v 0.2393816376 0.09 0.3860106641
v 0.2425469971 0.09 0.3881652242
v 0.2463510513 0.09 0.3886019689
v 0.2499223518 0.09 0.3872208482
v 0.2524427414 0.09 0.3843382723
v 0.2533348274 0.09 0.3806145841
v 0.2523942566 0.09 0.3769028551
v 0.249836483 0.09 0.3740533907
v 0.2462474823 0.09 0.3727189619
v 0.2424494553 0.09 0.3732052786
v 0.239312458 0.08538499832 0.3754009325
v 0.2424494553 0.08538499832 0.3732052786
v 0.2462474823 0.08538499832 0.3727189619
v 0.249836483 0.08538499832 0.3740533907
v 0.2523942566 0.08538499832 0.3769028551
v 0.2533348274 0.08538499832 0.3806145841
v 0.2524427414 0.08538499832 0.3843382723
v 0.2499223518 0.08538499832 0.3872208482
v 0.2463510513 0.08538499832 0.3886019689
v 0.2425469971 0.08538499832 0.3881652242
v 0.2393816376 0.08538499832 0.3860106641
v 0.2375801086 0.08538499832 0.3826318819
v 0.2375551414 0.08538499832 0.3788029176
v 0.239312458 0.09 0.3754009325
v 0.239312458 0.08538499832 0.3754009325
v 0.2400652695 0.09100000381 0.3760591585
v 0.2384674835 0.09100000381 0.3793113214
v 0.2387098312 0.09100000381 0.3829266721
v 0.2407274055 0.09100000381 0.3859364874
v 0.2439795685 0.09100000381 0.3875342733
v 0.2475949287 0.09100000381 0.3872919161
v 0.2506047249 0.09100000381 0.3852743513
v 0.2522025108 0.09100000381 0.3820221788
v 0.2519601631 0.09100000381 0.3784068281
v 0.2499425888 0.09100000381 0.3753970224
v 0.2466904259 0.09100000381 0.3737992365
v 0.2430750847 0.09100000381 0.3740415937
v 0.2400652695 0.09 0.3760591585
v 0.2430750847 0.09 0.3740415937
v 0.2466904259 0.09 0.3737992365
v 0.2499425888 0.09 0.3753970224
v 0.2519601631 0.09 0.3784068281
v 0.2522025108 0.09 0.3820221788
v 0.2506047249 0.09 0.3852743513
v 0.2475949287 0.09 0.3872919161
v 0.2439795685 0.09 0.3875342733
v 0.2407274055 0.09 0.3859364874
v 0.2387098312 0.09 0.3829266721
v 0.2384674835 0.09 0.3793113214
v 0.2400652695 0.09100000381 0.3760591585
v 0.2400652695 0.09 0.3760591585
v 0.2379573822 0.08538499832 0.3742161161
v 0.2358891678 0.08538499832 0.3780559618
v 0.2356918144 0.08538499832 0.3824129087
v 0.2374044228 0.08538499832 0.3864240057
v 0.2406877708 0.08538499832 0.3892948038
v 0.2448915672 0.08538499832 0.3904567129
v 0.2491831779 0.08538499832 0.3896796018
v 0.2527126312 0.08538499832 0.3871173841
v 0.2547808266 0.08538499832 0.3832775385
v 0.2549781799 0.08538499832 0.378920601
v 0.2532655716 0.08538499832 0.3749095041
v 0.2499822235 0.08538499832 0.3720386964
v 0.2457784271 0.08538499832 0.3708767873
v 0.2414868164 0.08538499832 0.3716538984
v 0.2363388252 0.08753499985 0.3728009302
v 0.2400337219 0.08753499985 0.3699569875
v 0.2445357132 0.08753499985 0.3687435133
v 0.2491593742 0.08753499985 0.3693452436
v 0.2532008171 0.08753499985 0.3716705686
v 0.2560447693 0.08753499985 0.3753654844
v 0.2572582436 0.08753499985 0.3798674661
v 0.2566565132 0.08753499985 0.3844911367
v 0.2543311882 0.08753499985 0.3885325796
v 0.2506362724 0.08753499985 0.3913765127
v 0.2461342812 0.08753499985 0.392589987
v 0.2415106201 0.08753499985 0.3919882661
v 0.2374691772 0.08753499985 0.3896629411
v 0.2346252441 0.08753499985 0.3859680254
v 0.2334117699 0.08753499985 0.3814660341
v 0.2340134811 0.08753499985 0.3768423731
v 0.2379573822 0.08538499832 0.3742161161
v 0.2363388252 0.08753499985 0.3728009302
v 0.2400652695 0.09100000381 0.3760591585
v 0.2430750847 0.09100000381 0.3740415937
v 0.2466904259 0.09100000381 0.3737992365
v 0.2499425888 0.09100000381 0.3753970224
v 0.2519601631 0.09100000381 0.3784068281
v 0.2522025108 0.09100000381 0.3820221788
v 0.2506047249 0.09100000381 0.3852743513
v 0.2475949287 0.09100000381 0.3872919161
v 0.2439795685 0.09100000381 0.3875342733
v 0.2407274055 0.09100000381 0.3859364874
v 0.2387098312 0.09100000381 0.3829266721
v 0.2384674835 0.09100000381 0.3793113214
v 0.239312458 0.09100000381 0.3754009325
v 0.2375551414 0.09100000381 0.3788029176
v 0.2375801086 0.09100000381 0.3826318819
v 0.2393816376 0.09100000381 0.3860106641
v 0.2425469971 0.09100000381 0.3881652242
v 0.2463510513 0.09100000381 0.3886019689
v 0.2499223518 0.09100000381 0.3872208482
v 0.2524427414 0.09100000381 0.3843382723
v 0.2533348274 0.09100000381 0.3806145841
v 0.2523942566 0.09100000381 0.3769028551
v 0.249836483 0.09100000381 0.3740533907
v 0.2462474823 0.09100000381 0.3727189619
v 0.2424494553 0.09100000381 0.3732052786
v 0.239312458 0.09100000381 0.3754009325
v 0.2424494553 0.09100000381 0.3732052786
v 0.2462474823 0.09100000381 0.3727189619
v 0.249836483 0.09100000381 0.3740533907
v 0.2523942566 0.09100000381 0.3769028551
v 0.2533348274 0.09100000381 0.3806145841
v 0.2524427414 0.09100000381 0.3843382723
v 0.2499223518 0.09100000381 0.3872208482
v 0.2463510513 0.09100000381 0.3886019689
v 0.2425469971 0.09100000381 0.3881652242
v 0.2393816376 0.09100000381 0.3860106641
v 0.2375801086 0.09100000381 0.3826318819
v 0.2375551414 0.09100000381 0.3788029176
v 0.239312458 0.09561499596 0.3754009325
v 0.2375551414 0.09561499596 0.3788029176
v 0.2375801086 0.09561499596 0.3826318819
v 0.2393816376 0.09561499596 0.3860106641
v 0.2425469971 0.09561499596 0.3881652242
v 0.2463510513 0.09561499596 0.3886019689
v 0.2499223518 0.09561499596 0.3872208482
v 0.2524427414 0.09561499596 0.3843382723
v 0.2533348274 0.09561499596 0.3806145841
v 0.2523942566 0.09561499596 0.3769028551
v 0.249836483 0.09561499596 0.3740533907
v 0.2462474823 0.09561499596 0.3727189619
v 0.2424494553 0.09561499596 0.3732052786
v 0.239312458 0.09100000381 0.3754009325
v 0.239312458 0.09561499596 0.3754009325
v 0.2400652695 0.09 0.3760591585
v 0.2384674835 0.09 0.3793113214
v 0.2387098312 0.09 0.3829266721
v 0.2407274055 0.09 0.3859364874
v 0.2439795685 0.09 0.3875342733
v 0.2475949287 0.09 0.3872919161
v 0.2506047249 0.09 0.3852743513
v 0.2522025108 0.09 0.3820221788
v 0.2519601631 0.09 0.3784068281
v 0.2499425888 0.09 0.3753970224
v 0.2466904259 0.09 0.3737992365
v 0.2430750847 0.09 0.3740415937
v 0.239312458 0.09 0.3754009325
v 0.2424494553 0.09 0.3732052786
v 0.2462474823 0.09 0.3727189619
v 0.249836483 0.09 0.3740533907
v 0.2523942566 0.09 0.3769028551
v 0.2533348274 0.09 0.3806145841
v 0.2524427414 0.09 0.3843382723
v 0.2499223518 0.09 0.3872208482
v 0.2463510513 0.09 0.3886019689
v 0.2425469971 0.09 0.3881652242
v 0.2393816376 0.09 0.3860106641
v 0.2375801086 0.09 0.3826318819
v 0.2375551414 0.09 0.3788029176
v 0.2363388252 0.09346500397 0.3728009302
v 0.2340134811 0.09346500397 0.3768423731
v 0.2334117699 0.09346500397 0.3814660341
v 0.2346252441 0.09346500397 0.3859680254
v 0.2374691772 0.09346500397 0.3896629411
v 0.2415106201 0.09346500397 0.3919882661
v 0.2461342812 0.09346500397 0.392589987
v 0.2506362724 0.09346500397 0.3913765127
v 0.2543311882 0.09346500397 0.3885325796
v 0.2566565132 0.09346500397 0.3844911367
v 0.2572582436 0.09346500397 0.3798674661
v 0.2560447693 0.09346500397 0.3753654844
v 0.2532008171 0.09346500397 0.3716705686
v 0.2491593742 0.09346500397 0.3693452436
v 0.2445357132 0.09346500397 0.3687435133
v 0.2400337219 0.09346500397 0.3699569875
v 0.2379573822 0.09561499596 0.3742161161
v 0.2414868164 0.09561499596 0.3716538984
v 0.2457784271 0.09561499596 0.3708767873
v 0.2499822235 0.09561499596 0.3720386964
v 0.2532655716 0.09561499596 0.3749095041
v 0.2549781799 0.09561499596 0.378920601
v 0.2547808266 0.09561499596 0.3832775385
v 0.2527126312 0.09561499596 0.3871173841
v 0.2491831779 0.09561499596 0.3896796018
v 0.2448915672 0.09561499596 0.3904567129
v 0.2406877708 0.09561499596 0.3892948038
v 0.2374044228 0.09561499596 0.3864240057
v 0.2356918144 0.09561499596 0.3824129087
v 0.2358891678 0.09561499596 0.3780559618
v 0.2363388252 0.09346500397 0.3728009302
v 0.2379573822 0.09561499596 0.3742161161
v 0.2363388252 0.09346500397 0.3728009302
v 0.2400337219 0.09346500397 0.3699569875
v 0.2445357132 0.09346500397 0.3687435133
v 0.2491593742 0.09346500397 0.3693452436
v 0.2532008171 0.09346500397 0.3716705686
v 0.2560447693 0.09346500397 0.3753654844
v 0.2572582436 0.09346500397 0.3798674661
v 0.2566565132 0.09346500397 0.3844911367
v 0.2543311882 0.09346500397 0.3885325796
v 0.2506362724 0.09346500397 0.3913765127
v 0.2461342812 0.09346500397 0.392589987
v 0.2415106201 0.09346500397 0.3919882661
v 0.2374691772 0.09346500397 0.3896629411
v 0.2346252441 0.09346500397 0.3859680254
v 0.2334117699 0.09346500397 0.3814660341
v 0.2340134811 0.09346500397 0.3768423731
v 0.2363388252 0.08753499985 0.3728009302
v 0.2340134811 0.08753499985 0.3768423731
v 0.2334117699 0.08753499985 0.3814660341
v 0.2346252441 0.08753499985 0.3859680254
v 0.2374691772 0.08753499985 0.3896629411
v 0.2415106201 0.08753499985 0.3919882661
v 0.2461342812 0.08753499985 0.392589987
v 0.2506362724 0.08753499985 0.3913765127
v 0.2543311882 0.08753499985 0.3885325796
v 0.2566565132 0.08753499985 0.3844911367
v 0.2572582436 0.08753499985 0.3798674661
v 0.2560447693 0.08753499985 0.3753654844
v 0.2532008171 0.08753499985 0.3716705686
v 0.2491593742 0.08753499985 0.3693452436
v 0.2445357132 0.08753499985 0.3687435133
v 0.2400337219 0.08753499985 0.3699569875
v 0.2363388252 0.08753499985 0.3728009302
v 0.2363388252 0.09346500397 0.3728009302
f 2 27 1
f 1 27 14
f 1 14 15
f 27 2 26
f 26 2 3
f 26 3 25
f 25 3 4
f 25 4 24
f 24 4 5
f 24 5 23
f 23 5 6
f 23 6 22
f 22 6 7
f 22 7 21
f 21 7 8
f 21 8 20
f 20 8 9
f 20 9 19
f 19 9 10
f 19 10 18
f 18 10 11
f 18 11 17
f 17 11 12
f 17 12 16
f 16 12 13
f 16 13 15
f 15 13 1
f 29 54 28
f 28 54 41
f 28 41 42
f 54 29 53
f 53 29 30
f 53 30 52
f 52 30 31
f 52 31 51
f 51 31 32
f 51 32 50
f 50 32 33
f 50 33 49
f 49 33 34
f 49 34 48
f 48 34 35
f 48 35 47
f 47 35 36
f 47 36 46
f 46 36 37
f 46 37 45
f 45 37 38
f 45 38 44
f 44 38 39
f 44 39 43
f 43 39 40
f 43 40 42
f 42 40 28
f 56 80 55
f 55 80 82
f 81 68 67
f 67 68 69
f 67 69 66
f 66 69 70
f 66 70 65
f 65 70 71
f 65 71 64
f 64 71 72
f 64 72 63
f 63 72 73
f 63 73 62
f 62 73 74
f 62 74 61
f 61 74 75
f 61 75 60
f 60 75 76
f 60 76 59
f 59 76 77
f 59 77 58
f 58 77 78
f 58 78 57
f 57 78 79
f 57 79 56
f 56 79 80
f 84 106 83
f 83 106 108
f 107 95 94
f 94 95 96
f 94 96 93
f 93 96 97
f 93 97 92
f 92 97 98
f 92 98 91
f 91 98 99
f 91 99 90
f 90 99 100
f 90 100 89
f 89 100 101
f 89 101 88
f 88 101 102
f 88 102 87
f 87 102 103
f 87 103 86
f 86 103 104
f 86 104 85
f 85 104 105
f 85 105 84
f 84 105 106
f 110 138 109
f 109 138 140
f 139 123 124
f 138 110 137
f 137 110 111
f 137 111 136
f 136 111 112
f 136 112 135
f 135 112 113
f 135 113 134
f 134 113 114
f 134 114 133
f 133 114 115
f 133 115 132
f 132 115 116
f 132 116 131
f 131 116 130
f 130 116 117
f 130 117 129
f 129 117 118
f 129 118 128
f 128 118 119
f 128 119 127
f 127 119 120
f 127 120 126
f 126 120 121
f 126 121 125
f 125 121 122
f 125 122 124
f 124 122 139
f 142 165 141
f 141 165 153
f 141 153 154
f 165 142 164
f 164 142 143
f 164 143 163
f 163 143 144
f 163 144 162
f 162 144 145
f 162 145 161
f 161 145 146
f 161 146 160
f 160 146 147
f 160 147 159
f 159 147 148
f 159 148 158
f 158 148 149
f 158 149 157
f 157 149 150
f 157 150 156
f 156 150 151
f 156 151 155
f 155 151 152
f 155 152 154
f 154 152 141
f 167 191 166
f 166 191 193
f 192 179 178
f 178 179 180
f 178 180 177
f 177 180 181
f 177 181 176
f 176 181 182
f 176 182 175
f 175 182 183
f 175 183 174
f 174 183 184
f 174 184 173
f 173 184 185
f 173 185 172
f 172 185 186
f 172 186 171
f 171 186 187
f 171 187 170
f 170 187 188
f 170 188 169
f 169 188 189
f 169 189 168
f 168 189 190
f 168 190 167
f 167 190 191
f 195 218 194
f 194 218 206
f 194 206 207
f 218 195 217
f 217 195 196
f 217 196 216
f 216 196 197
f 216 197 215
f 215 197 198
f 215 198 214
f 214 198 199
f 214 199 213
f 213 199 200
f 213 200 212
f 212 200 201
f 212 201 211
f 211 201 202
f 211 202 210
f 210 202 203
f 210 203 209
f 209 203 204
f 209 204 208
f 208 204 205
f 208 205 207
f 207 205 194
f 234 249 235
f 250 219 220
f 250 220 248
f 248 220 221
f 248 221 247
f 247 221 222
f 247 222 246
f 246 222 223
f 246 223 245
f 245 223 224
f 245 224 244
f 244 224 225
f 244 225 243
f 243 225 226
f 243 226 242
f 242 226 227
f 242 227 228
f 242 228 241
f 241 228 229
f 241 229 240
f 240 229 230
f 240 230 239
f 239 230 231
f 239 231 238
f 238 231 232
f 238 232 237
f 237 232 233
f 237 233 236
f 236 233 234
f 236 234 235
f 252 282 251
f 251 282 283
f 284 267 266
f 266 267 268
f 266 268 265
f 265 268 269
f 265 269 264
f 264 269 270
f 264 270 263
f 263 270 271
f 263 271 262
f 262 271 272
f 262 272 261
f 261 272 273
f 261 273 260
f 260 273 274
f 260 274 259
f 259 274 275
f 259 275 258
f 258 275 276
f 258 276 257
f 257 276 277
f 257 277 256
f 256 277 278
f 256 278 255
f 255 278 279
f 255 279 254
f 254 279 280
f 254 280 253
f 253 280 281
f 253 281 252
f 252 281 282
