v -0.1716483498 -0.02401721716 0.4198767696
v -0.1726049737 -0.02401721716 0.4159955614
v -0.1752557062 -0.02401721716 0.4130034799
v -0.1789933059 -0.02401721716 0.411585989
v -0.1829615265 -0.02401721716 0.4120678165
v -0.1862512873 -0.02401721716 0.4143385665
v -0.1881089557 -0.02401721716 0.4178780491
v -0.1881089627 -0.02401721716 0.4218754132
v -0.1862513067 -0.02401721716 0.4254149024
v -0.1829615539 -0.02401721716 0.427685683
v -0.178993335 -0.02401721716 0.4281675053
v -0.1752557303 -0.02401721716 0.4267500276
v -0.1726049873 -0.02401721716 0.4237579744
v -0.1716483498 -0.02378278494 0.4198767696
v -0.1726049873 -0.02378278494 0.4237579744
v -0.1752557303 -0.02378278494 0.4267500276
v -0.178993335 -0.02378278494 0.4281675053
v -0.1829615539 -0.02378278494 0.427685683
v -0.1862513067 -0.02378278494 0.4254149024
v -0.1881089627 -0.02378278494 0.4218754132
v -0.1881089557 -0.02378278494 0.4178780491
v -0.1862512873 -0.02378278494 0.4143385665
v -0.1829615265 -0.02378278494 0.4120678165
v -0.1789933059 -0.02378278494 0.411585989
v -0.1752557062 -0.02378278494 0.4130034799
v -0.1726049737 -0.02378278494 0.4159955614
v -0.1881089627 -0.02401721716 0.4218754132
v -0.1881089627 -0.02378278494 0.4218754132
v -0.1723516464 -0.02401721716 0.4198767683
v -0.173227736 -0.02401721716 0.4234311301
v -0.1756552616 -0.02401721716 0.4261712228
v -0.1790781154 -0.02401721716 0.4274693392
v -0.1827121479 -0.02401721716 0.4270280868
v -0.1857248777 -0.02401721716 0.4249485375
v -0.1874261125 -0.02401721716 0.4217071099
v -0.1874261061 -0.02401721716 0.4180463738
v -0.1857248599 -0.02401721716 0.4148049523
v -0.1827121228 -0.02401721716 0.4127254135
v -0.1790780888 -0.02401721716 0.4122841738
v -0.1756552395 -0.02401721716 0.4135822832
v -0.1732277236 -0.02401721716 0.4163224036
v -0.1723516464 -0.02378278494 0.4198767683
v -0.1732277236 -0.02378278494 0.4163224036
v -0.1756552395 -0.02378278494 0.4135822832
v -0.1790780888 -0.02378278494 0.4122841738
v -0.1827121228 -0.02378278494 0.4127254135
v -0.1857248599 -0.02378278494 0.4148049523
v -0.1874261061 -0.02378278494 0.4180463738
v -0.1874261125 -0.02378278494 0.4217071099
v -0.1857248777 -0.02378278494 0.4249485375
v -0.1827121479 -0.02378278494 0.4270280868
v -0.1790781154 -0.02378278494 0.4274693392
v -0.1756552616 -0.02378278494 0.4261712228
v -0.173227736 -0.02378278494 0.4234311301
v -0.1874261061 -0.02401721716 0.4180463738
v -0.1874261061 -0.02378278494 0.4180463738
v -0.1716483498 -0.02378278494 0.4198767696
v -0.1726049737 -0.02378278494 0.4159955614
v -0.1752557062 -0.02378278494 0.4130034799
v -0.1789933059 -0.02378278494 0.411585989
v -0.1829615265 -0.02378278494 0.4120678165
v -0.1862512873 -0.02378278494 0.4143385665
v -0.1881089557 -0.02378278494 0.4178780491
v -0.1881089627 -0.02378278494 0.4218754132
v -0.1862513067 -0.02378278494 0.4254149024
v -0.1829615539 -0.02378278494 0.427685683
v -0.178993335 -0.02378278494 0.4281675053
v -0.1752557303 -0.02378278494 0.4267500276
v -0.1726049873 -0.02378278494 0.4237579744
v -0.1723516464 -0.02378278494 0.4198767683
v -0.173227736 -0.02378278494 0.4234311301
v -0.1756552616 -0.02378278494 0.4261712228
v -0.1790781154 -0.02378278494 0.4274693392
v -0.1827121479 -0.02378278494 0.4270280868
v -0.1857248777 -0.02378278494 0.4249485375
v -0.1874261125 -0.02378278494 0.4217071099
v -0.1874261061 -0.02378278494 0.4180463738
v -0.1857248599 -0.02378278494 0.4148049523
v -0.1827121228 -0.02378278494 0.4127254135
v -0.1790780888 -0.02378278494 0.4122841738
v -0.1756552395 -0.02378278494 0.4135822832
v -0.1732277236 -0.02378278494 0.4163224036
v -0.1716483498 -0.02401721716 0.4198767696
v -0.1726049873 -0.02401721716 0.4237579744
v -0.1752557303 -0.02401721716 0.4267500276
v -0.178993335 -0.02401721716 0.4281675053
v -0.1829615539 -0.02401721716 0.427685683
v -0.1862513067 -0.02401721716 0.4254149024
v -0.1881089627 -0.02401721716 0.4218754132
v -0.1881089557 -0.02401721716 0.4178780491
v -0.1862512873 -0.02401721716 0.4143385665
v -0.1829615265 -0.02401721716 0.4120678165
v -0.1789933059 -0.02401721716 0.411585989
v -0.1752557062 -0.02401721716 0.4130034799
v -0.1726049737 -0.02401721716 0.4159955614
v -0.1723516464 -0.02401721716 0.4198767683
v -0.1732277236 -0.02401721716 0.4163224036
v -0.1756552395 -0.02401721716 0.4135822832
v -0.1790780888 -0.02401721716 0.4122841738
v -0.1827121228 -0.02401721716 0.4127254135
v -0.1857248599 -0.02401721716 0.4148049523
v -0.1874261061 -0.02401721716 0.4180463738
v -0.1874261125 -0.02401721716 0.4217071099
v -0.1857248777 -0.02401721716 0.4249485375
v -0.1827121479 -0.02401721716 0.4270280868
v -0.1790781154 -0.02401721716 0.4274693392
v -0.1756552616 -0.02401721716 0.4261712228
v -0.173227736 -0.02401721716 0.4234311301
f 2 14 1
f 1 14 15
f 1 15 13
f 13 15 16
f 13 16 12
f 12 16 17
f 12 17 11
f 11 17 18
f 11 18 10
f 10 18 19
f 10 19 9
f 9 19 28
f 9 28 8
f 27 20 21
f 27 21 7
f 7 21 22
f 7 22 6
f 6 22 23
f 6 23 5
f 5 23 24
f 5 24 4
f 4 24 25
f 4 25 3
f 3 25 26
f 3 26 2
f 2 26 14
f 30 42 29
f 29 42 43
f 29 43 41
f 41 43 44
f 41 44 40
f 40 44 45
f 40 45 39
f 39 45 46
f 39 46 38
f 38 46 47
f 38 47 37
f 37 47 56
f 37 56 36
f 55 48 49
f 55 49 35
f 35 49 50
f 35 50 34
f 34 50 51
f 34 51 33
f 33 51 52
f 33 52 32
f 32 52 53
f 32 53 31
f 31 53 54
f 31 54 30
f 30 54 42
f 69 57 70
f 70 57 58
f 70 58 82
f 82 58 59
f 82 59 81
f 81 59 60
f 81 60 80
f 80 60 79
f 79 60 61
f 79 61 78
f 78 61 62
f 78 62 77
f 77 62 63
f 77 63 64
f 77 64 76
f 76 64 65
f 76 65 75
f 75 65 66
f 75 66 74
f 74 66 67
f 74 67 73
f 73 67 72
f 72 67 68
f 72 68 71
f 71 68 69
f 71 69 70
f 95 83 96
f 96 83 84
f 96 84 108
f 108 84 85
f 108 85 107
f 107 85 86
f 107 86 106
f 106 86 105
f 105 86 87
f 105 87 104
f 104 87 88
f 104 88 103
f 103 88 89
f 103 89 102
f 102 89 90
f 102 90 91
f 102 91 101
f 101 91 92
f 101 92 100
f 100 92 93
f 100 93 99
f 99 93 98
f 98 93 94
f 98 94 97
f 97 94 95
f 97 95 96
