v -0.2065470505 0.1069999981 0.3790211851
v -0.2071594048 0.1069999981 0.3808339674
v -0.2063105774 0.1069999981 0.3825487978
v -0.204497776 0.1069999981 0.383161152
v -0.2027829552 0.1069999981 0.3823123247
v -0.2021706009 0.1069999981 0.3804995329
v -0.2030194283 0.1069999981 0.3787847025
v -0.2048322105 0.1069999981 0.3781723482
v -0.202926445 0.06699999809 0.3821868688
v -0.2051121712 0.06699999809 0.3829324419
v -0.2051121712 0.06949999809 0.3829324419
v -0.202926445 0.06949999809 0.3821868688
v -0.2065470505 0.1069999981 0.3790211851
v -0.2048322105 0.1069999981 0.3781723482
v -0.2030194283 0.1069999981 0.3787847025
v -0.2021706009 0.1069999981 0.3804995329
v -0.2027829552 0.1069999981 0.3823123247
v -0.204497776 0.1069999981 0.383161152
v -0.2063105774 0.1069999981 0.3825487978
v -0.2071594048 0.1069999981 0.3808339674
v -0.2065470505 0.07199999809 0.3790211851
v -0.2071594048 0.07199999809 0.3808339674
v -0.2063105774 0.07199999809 0.3825487978
v -0.204497776 0.07199999809 0.383161152
v -0.2027829552 0.07199999809 0.3823123247
v -0.2021706009 0.07199999809 0.3804995329
v -0.2030194283 0.07199999809 0.3787847025
v -0.2048322105 0.07199999809 0.3781723482
v -0.2065470505 0.07199999809 0.3790211851
v -0.2065470505 0.1069999981 0.3790211851
v -0.2078644753 0.07199999809 0.37786928
v -0.2088977432 0.07199999809 0.380284155
v -0.2083142471 0.07199999809 0.3828451711
v -0.2063368607 0.07199999809 0.3845741064
v -0.2037208748 0.07199999809 0.3848105604
v -0.2014655113 0.07199999809 0.3834642202
v -0.2004322624 0.07199999809 0.3810493452
v -0.2010157585 0.07199999809 0.3784883291
v -0.202993145 0.07199999809 0.3767594034
v -0.2056091309 0.07199999809 0.3765229494
v -0.2065470505 0.07199999809 0.3790211851
v -0.2048322105 0.07199999809 0.3781723482
v -0.2030194283 0.07199999809 0.3787847025
v -0.2021706009 0.07199999809 0.3804995329
v -0.2027829552 0.07199999809 0.3823123247
v -0.204497776 0.07199999809 0.383161152
v -0.2063105774 0.07199999809 0.3825487978
v -0.2071594048 0.07199999809 0.3808339674
v -0.2078644753 0.07199999809 0.37786928
v -0.2056091309 0.07199999809 0.3765229494
v -0.202993145 0.07199999809 0.3767594034
v -0.2010157585 0.07199999809 0.3784883291
v -0.2004322624 0.07199999809 0.3810493452
v -0.2014655113 0.07199999809 0.3834642202
v -0.2037208748 0.07199999809 0.3848105604
v -0.2063368607 0.07199999809 0.3845741064
v -0.2083142471 0.07199999809 0.3828451711
v -0.2088977432 0.07199999809 0.380284155
v -0.2078644753 0.06699999809 0.37786928
v -0.2088977432 0.06699999809 0.380284155
v -0.2083142471 0.06699999809 0.3828451711
v -0.2063368607 0.06699999809 0.3845741064
v -0.2037208748 0.06699999809 0.3848105604
v -0.2014655113 0.06699999809 0.3834642202
v -0.2004322624 0.06699999809 0.3810493452
v -0.2010157585 0.06699999809 0.3784883291
v -0.202993145 0.06699999809 0.3767594034
v -0.2056091309 0.06699999809 0.3765229494
v -0.2078644753 0.06699999809 0.37786928
v -0.2078644753 0.07199999809 0.37786928
v -0.2068507385 0.06699999809 0.3814123327
v -0.2051121712 0.06699999809 0.3829324419
v -0.202926445 0.06699999809 0.3821868688
v -0.2024792671 0.06699999809 0.3799211675
v -0.2042178154 0.06699999809 0.3784010584
v -0.2064035606 0.06699999809 0.3791466409
v -0.2078644753 0.06699999809 0.37786928
v -0.2056091309 0.06699999809 0.3765229494
v -0.202993145 0.06699999809 0.3767594034
v -0.2010157585 0.06699999809 0.3784883291
v -0.2004322624 0.06699999809 0.3810493452
v -0.2014655113 0.06699999809 0.3834642202
v -0.2037208748 0.06699999809 0.3848105604
v -0.2063368607 0.06699999809 0.3845741064
v -0.2083142471 0.06699999809 0.3828451711
v -0.2088977432 0.06699999809 0.380284155
v -0.2051121712 0.06699999809 0.3829324419
v -0.2068507385 0.06699999809 0.3814123327
v -0.2068507385 0.06949999809 0.3814123327
v -0.2051121712 0.06949999809 0.3829324419
v -0.2064035606 0.06699999809 0.3791466409
v -0.2042178154 0.06699999809 0.3784010584
v -0.2042178154 0.06949999809 0.3784010584
v -0.2064035606 0.06949999809 0.3791466409
v -0.2068507385 0.06699999809 0.3814123327
v -0.2064035606 0.06699999809 0.3791466409
v -0.2064035606 0.06949999809 0.3791466409
v -0.2068507385 0.06949999809 0.3814123327
v -0.2024792671 0.06699999809 0.3799211675
v -0.202926445 0.06699999809 0.3821868688
v -0.202926445 0.06949999809 0.3821868688
v -0.2024792671 0.06949999809 0.3799211675
v -0.2042178154 0.06699999809 0.3784010584
v -0.2024792671 0.06699999809 0.3799211675
v -0.2024792671 0.06949999809 0.3799211675
v -0.2042178154 0.06949999809 0.3784010584
v -0.202926445 0.06949999809 0.3821868688
v -0.2051121712 0.06949999809 0.3829324419
v -0.2068507385 0.06949999809 0.3814123327
v -0.2064035606 0.06949999809 0.3791466409
v -0.2042178154 0.06949999809 0.3784010584
v -0.2024792671 0.06949999809 0.3799211675
f 2 4 1
f 1 4 5
f 1 5 8
f 8 5 6
f 8 6 7
f 2 3 4
f 9 10 12
f 12 10 11
f 14 28 13
f 13 28 29
f 30 21 20
f 20 21 22
f 20 22 23
f 14 15 28
f 28 15 27
f 27 15 16
f 27 16 26
f 26 16 17
f 26 17 25
f 25 17 18
f 25 18 24
f 24 18 19
f 24 19 23
f 23 19 20
f 40 31 41
f 41 31 32
f 41 32 48
f 48 32 33
f 48 33 47
f 47 33 34
f 47 34 46
f 46 34 35
f 46 35 45
f 45 35 36
f 45 36 37
f 45 37 44
f 44 37 38
f 44 38 43
f 43 38 39
f 43 39 42
f 42 39 40
f 42 40 41
f 50 68 49
f 49 68 69
f 70 59 58
f 58 59 60
f 58 60 57
f 57 60 61
f 57 61 56
f 56 61 62
f 56 62 55
f 55 62 63
f 55 63 54
f 54 63 64
f 54 64 53
f 53 64 65
f 53 65 52
f 52 65 66
f 52 66 51
f 51 66 67
f 51 67 50
f 50 67 68
f 72 85 71
f 71 85 86
f 71 86 76
f 76 86 77
f 76 77 78
f 73 83 72
f 72 83 84
f 72 84 85
f 74 81 73
f 73 81 82
f 73 82 83
f 81 74 80
f 80 74 75
f 80 75 79
f 79 75 78
f 78 75 76
f 87 88 90
f 90 88 89
f 91 92 94
f 94 92 93
f 95 96 98
f 98 96 97
f 99 100 102
f 102 100 101
f 103 104 106
f 106 104 105
f 108 110 107
f 107 110 111
f 107 111 112
f 108 109 110
