v 0.23 0.07800000191 0.02799999952
v 0.23 0.07873223305 0.02623223305
v 0.23 0.08050000191 0.02549999952
v 0.23 0.08226777077 0.02623223305
v 0.23 0.08300000191 0.02799999952
v 0.23 0.08226777077 0.029767766
v 0.23 0.08050000191 0.03049999952
v 0.23 0.07873223305 0.029767766
v 0.24 0.07800000191 0.02799999952
v 0.24 0.07873223305 0.029767766
v 0.24 0.08050000191 0.03049999952
v 0.24 0.08226777077 0.029767766
v 0.24 0.08300000191 0.02799999952
v 0.24 0.08226777077 0.02623223305
v 0.24 0.08050000191 0.02549999952
v 0.24 0.07873223305 0.02623223305
v 0.24 0.07800000191 0.02799999952
v 0.23 0.07800000191 0.02799999952
v 0.23 0.07800000191 0.02799999952
v 0.23 0.07873223305 0.029767766
v 0.23 0.08050000191 0.03049999952
v 0.23 0.08226777077 0.029767766
v 0.23 0.08300000191 0.02799999952
v 0.23 0.08226777077 0.02623223305
v 0.23 0.08050000191 0.02549999952
v 0.23 0.07873223305 0.02623223305
v 0.24 0.07625 0.02799999952
v 0.24 0.07706167698 0.03049808741
v 0.24 0.07918667793 0.03204199076
v 0.24 0.08181332588 0.03204199076
v 0.24 0.08393832207 0.03049808741
v 0.24 0.08475000381 0.02799999952
v 0.24 0.08393832207 0.02550191164
v 0.24 0.08181332588 0.02395801067
v 0.24 0.07918667793 0.02395801067
v 0.24 0.07706167698 0.02550191164
v 0.24 0.07800000191 0.02799999952
v 0.24 0.07873223305 0.02623223305
v 0.24 0.08050000191 0.02549999952
v 0.24 0.08226777077 0.02623223305
v 0.24 0.08300000191 0.02799999952
v 0.24 0.08226777077 0.029767766
v 0.24 0.08050000191 0.03049999952
v 0.24 0.07873223305 0.029767766
v 0.245 0.07625 0.02799999952
v 0.245 0.07706167698 0.02550191164
v 0.245 0.07918667793 0.02395801067
v 0.245 0.08181332588 0.02395801067
v 0.245 0.08393832207 0.02550191164
v 0.245 0.08475000381 0.02799999952
v 0.245 0.08393832207 0.03049808741
v 0.245 0.08181332588 0.03204199076
v 0.245 0.07918667793 0.03204199076
v 0.245 0.07706167698 0.03049808741
v 0.24 0.07625 0.02799999952
v 0.24 0.07706167698 0.02550191164
v 0.24 0.07918667793 0.02395801067
v 0.24 0.08181332588 0.02395801067
v 0.24 0.08393832207 0.02550191164
v 0.24 0.08475000381 0.02799999952
v 0.24 0.08393832207 0.03049808741
v 0.24 0.08181332588 0.03204199076
v 0.24 0.07918667793 0.03204199076
v 0.24 0.07706167698 0.03049808741
v 0.245 0.07625 0.02799999952
v 0.245 0.07706167698 0.03049808741
v 0.245 0.07918667793 0.03204199076
v 0.245 0.08181332588 0.03204199076
v 0.245 0.08393832207 0.03049808741
v 0.245 0.08475000381 0.02799999952
v 0.245 0.08393832207 0.02550191164
v 0.245 0.08181332588 0.02395801067
v 0.245 0.07918667793 0.02395801067
v 0.245 0.07706167698 0.02550191164
v 0.245 0.07625 0.02799999952
v 0.24 0.07625 0.02799999952
f 2 16 1
f 1 16 17
f 18 9 8
f 8 9 10
f 8 10 11
f 2 3 16
f 16 3 15
f 15 3 4
f 15 4 14
f 14 4 5
f 14 5 13
f 13 5 6
f 13 6 12
f 12 6 7
f 12 7 11
f 11 7 8
f 20 22 19
f 19 22 23
f 19 23 26
f 26 23 24
f 26 24 25
f 20 21 22
f 36 27 37
f 37 27 28
f 37 28 44
f 44 28 29
f 44 29 43
f 43 29 30
f 43 30 42
f 42 30 31
f 42 31 41
f 41 31 32
f 41 32 33
f 41 33 40
f 40 33 34
f 40 34 39
f 39 34 35
f 39 35 38
f 38 35 36
f 38 36 37
f 46 49 45
f 45 49 50
f 45 50 54
f 54 50 51
f 54 51 53
f 53 51 52
f 47 48 46
f 46 48 49
f 56 74 55
f 55 74 75
f 76 65 64
f 64 65 66
f 64 66 63
f 63 66 67
f 63 67 62
f 62 67 68
f 62 68 61
f 61 68 69
f 61 69 60
f 60 69 70
f 60 70 59
f 59 70 71
f 59 71 58
f 58 71 72
f 58 72 57
f 57 72 73
f 57 73 56
f 56 73 74
