v 0.2110000038 0.1964999962 0.02713397503
v 0.2110000038 0.195 0.02626794815
v 0.2110000038 0.1935000038 0.02713397503
v 0.2110000038 0.1935000038 0.0288660264
v 0.2110000038 0.195 0.0297320509
v 0.2110000038 0.1964999962 0.0288660264
v 0.21 0.1935000038 0.02713397503
v 0.21 0.1935000038 0.0288660264
v 0.2110000038 0.1935000038 0.0288660264
v 0.2110000038 0.1935000038 0.02713397503
v 0.21 0.1964999962 0.0288660264
v 0.21 0.1964999962 0.02713397503
v 0.2110000038 0.1964999962 0.02713397503
v 0.2110000038 0.1964999962 0.0288660264
v 0.21 0.1964999962 0.02713397503
v 0.21 0.195 0.02626794815
v 0.2110000038 0.195 0.02626794815
v 0.2110000038 0.1964999962 0.02713397503
v 0.21 0.195 0.02626794815
v 0.21 0.1935000038 0.02713397503
v 0.2110000038 0.1935000038 0.02713397503
v 0.2110000038 0.195 0.02626794815
v 0.21 0.1935000038 0.0288660264
v 0.21 0.195 0.0297320509
v 0.2110000038 0.195 0.0297320509
v 0.2110000038 0.1935000038 0.0288660264
v 0.21 0.195 0.0297320509
v 0.21 0.1964999962 0.0288660264
v 0.2110000038 0.1964999962 0.0288660264
v 0.2110000038 0.195 0.0297320509
v 0.2195000076 0.195 0.03049999952
v 0.2195000076 0.1967677689 0.029767766
v 0.2195000076 0.1975 0.02799999952
v 0.2195000076 0.1967677689 0.02623223305
v 0.2195000076 0.195 0.02549999952
v 0.2195000076 0.1932322311 0.02623223305
v 0.2195000076 0.1925 0.02799999952
v 0.2195000076 0.1932322311 0.029767766
v 0.2114999962 0.195 0.03049999952
v 0.2114999962 0.1932322311 0.029767766
v 0.2114999962 0.1925 0.02799999952
v 0.2114999962 0.1932322311 0.02623223305
v 0.2114999962 0.195 0.02549999952
v 0.2114999962 0.1967677689 0.02623223305
v 0.2114999962 0.1975 0.02799999952
v 0.2114999962 0.1967677689 0.029767766
v 0.2114999962 0.195 0.03049999952
v 0.2195000076 0.195 0.03049999952
v 0.2195000076 0.195 0.03049999952
v 0.2195000076 0.1932322311 0.029767766
v 0.2195000076 0.1925 0.02799999952
v 0.2195000076 0.1932322311 0.02623223305
v 0.2195000076 0.195 0.02549999952
v 0.2195000076 0.1967677689 0.02623223305
v 0.2195000076 0.1975 0.02799999952
v 0.2195000076 0.1967677689 0.029767766
v 0.21 0.1935000038 0.02713397503
v 0.21 0.195 0.02626794815
v 0.21 0.1964999962 0.02713397503
v 0.21 0.1964999962 0.0288660264
v 0.21 0.195 0.0297320509
v 0.21 0.1935000038 0.0288660264
v 0.21 0.195 0.0325
v 0.21 0.1976450348 0.03164057732
v 0.21 0.199279747 0.02939057589
v 0.21 0.199279747 0.02660942316
v 0.21 0.1976450348 0.02435942411
v 0.21 0.195 0.02349999905
v 0.21 0.1923549652 0.02435942411
v 0.21 0.190720253 0.02660942316
v 0.21 0.190720253 0.02939057589
v 0.21 0.1923549652 0.03164057732
v 0.21 0.195 0.0325
v 0.21 0.1923549652 0.03164057732
v 0.21 0.190720253 0.02939057589
v 0.21 0.190720253 0.02660942316
v 0.21 0.1923549652 0.02435942411
v 0.21 0.195 0.02349999905
v 0.21 0.1976450348 0.02435942411
v 0.21 0.199279747 0.02660942316
v 0.21 0.199279747 0.02939057589
v 0.21 0.1976450348 0.03164057732
v 0.2114999962 0.195 0.0325
v 0.2114999962 0.1976450348 0.03164057732
v 0.2114999962 0.199279747 0.02939057589
v 0.2114999962 0.199279747 0.02660942316
v 0.2114999962 0.1976450348 0.02435942411
v 0.2114999962 0.195 0.02349999905
v 0.2114999962 0.1923549652 0.02435942411
v 0.2114999962 0.190720253 0.02660942316
v 0.2114999962 0.190720253 0.02939057589
v 0.2114999962 0.1923549652 0.03164057732
v 0.2114999962 0.195 0.0325
v 0.21 0.195 0.0325
v 0.2114999962 0.195 0.0325
v 0.2114999962 0.1923549652 0.03164057732
v 0.2114999962 0.190720253 0.02939057589
v 0.2114999962 0.190720253 0.02660942316
v 0.2114999962 0.1923549652 0.02435942411
v 0.2114999962 0.195 0.02349999905
v 0.2114999962 0.1976450348 0.02435942411
v 0.2114999962 0.199279747 0.02660942316
v 0.2114999962 0.199279747 0.02939057589
v 0.2114999962 0.1976450348 0.03164057732
v 0.2114999962 0.195 0.03049999952
v 0.2114999962 0.1967677689 0.029767766
v 0.2114999962 0.1975 0.02799999952
v 0.2114999962 0.1967677689 0.02623223305
v 0.2114999962 0.195 0.02549999952
v 0.2114999962 0.1932322311 0.02623223305
v 0.2114999962 0.1925 0.02799999952
v 0.2114999962 0.1932322311 0.029767766
f 6 1 5
f 5 1 2
f 5 2 4
f 4 2 3
f 7 8 10
f 10 8 9
f 11 12 14
f 14 12 13
f 15 16 18
f 18 16 17
f 19 20 22
f 22 20 21
f 23 24 26
f 26 24 25
f 27 28 30
f 30 28 29
f 32 46 31
f 31 46 47
f 48 39 38
f 38 39 40
f 38 40 41
f 32 33 46
f 46 33 45
f 45 33 34
f 45 34 44
f 44 34 35
f 44 35 43
f 43 35 36
f 43 36 42
f 42 36 37
f 42 37 41
f 41 37 38
f 50 52 49
f 49 52 53
f 49 53 56
f 56 53 54
f 56 54 55
f 50 51 52
f 58 69 57
f 57 69 70
f 57 70 71
f 59 67 58
f 58 67 68
f 58 68 69
f 67 59 66
f 66 59 60
f 66 60 65
f 65 60 64
f 64 60 61
f 64 61 63
f 63 61 72
f 72 61 62
f 72 62 71
f 71 62 57
f 74 92 73
f 73 92 93
f 94 83 82
f 82 83 84
f 82 84 81
f 81 84 85
f 81 85 80
f 80 85 86
f 80 86 79
f 79 86 87
f 79 87 78
f 78 87 88
f 78 88 77
f 77 88 89
f 77 89 76
f 76 89 90
f 76 90 75
f 75 90 91
f 75 91 74
f 74 91 92
f 104 95 105
f 105 95 96
f 105 96 112
f 112 96 97
f 112 97 111
f 111 97 98
f 111 98 110
f 110 98 99
f 110 99 109
f 109 99 100
f 109 100 101
f 109 101 108
f 108 101 102
f 108 102 107
f 107 102 103
f 107 103 106
f 106 103 104
f 106 104 105
