v 0.02962120295 0.04900000095 0.4339504511
v 0.02886818171 0.04900000095 0.4323867876
v 0.02717616081 0.04900000095 0.4320006067
v 0.02581926346 0.04900000095 0.4330826837
v 0.02581926346 0.04900000095 0.4348182184
v 0.02717616081 0.04900000095 0.4359003145
v 0.02886818171 0.04900000095 0.4355141145
v 0.02642120123 0.04900000095 0.4339504511
v 0.0272503829 0.04900000095 0.432809189
v 0.02859202147 0.04900000095 0.4332451135
v 0.02859202147 0.04900000095 0.4346558077
v 0.0272503829 0.04900000095 0.4350917322
v 0.02836096048 0.04900000095 0.4087104112
v 0.02638369083 0.04900000095 0.4085359174
v 0.02494818211 0.04900000095 0.4071650201
v 0.02468287468 0.04900000095 0.4051978761
v 0.02570391417 0.04900000095 0.4034956628
v 0.02570391417 0.04699999809 0.4034956628
v 0.02468287468 0.04699999809 0.4051978761
v 0.02494818211 0.04699999809 0.4071650201
v 0.02638369083 0.04699999809 0.4085359174
v 0.02836096048 0.04699999809 0.4087104112
v -0.0253592968 0.05 0.4398008234
v -0.02575246334 0.04986602306 0.4401097185
v -0.02604028225 0.04949999809 0.4403358537
v -0.02614563227 0.04900000095 0.4404186136
v -0.0267522788 0.04900000095 0.4390178949
v -0.02659113169 0.04900000095 0.4374999696
v -0.02570391417 0.04900000095 0.436257847
v -0.02561829329 0.04949999809 0.436360882
v -0.02538436651 0.04986602306 0.4366424066
v -0.02506481886 0.05 0.4370269663
v -0.02565629721 0.05 0.4378550607
v -0.02576372862 0.05 0.4388670046
v 0.01202341437 0.04900000095 0.4508767587
v 0.01202341437 0.0446999979 0.4508767587
v -0.01202341437 0.0446999979 0.4508767587
v -0.01202341437 0.04900000095 0.4508767587
v -0.02506481886 0.05 0.402726534
v -0.02538436651 0.04986602306 0.4031111032
v -0.02561829329 0.04949999809 0.4033926183
v -0.02570391417 0.04900000095 0.4034956628
v -0.02659113169 0.04900000095 0.4022535307
v -0.0267522788 0.04900000095 0.4007356054
v -0.02614563227 0.04900000095 0.3993348772
v -0.02604028225 0.04949999809 0.3994176561
v -0.02575246334 0.04986602306 0.3996437818
v -0.0253592968 0.05 0.3999526865
v -0.02576372862 0.05 0.4008864957
v -0.02565629721 0.05 0.4018984491
v 0.02614563227 0.04900000095 0.3993348772
v 0.02614563227 0.04699999809 0.3993348772
v 0.0267522788 0.04699999809 0.4007356054
v 0.02659113169 0.04699999809 0.4022535307
v 0.02570391417 0.04699999809 0.4034956628
v 0.02570391417 0.04900000095 0.4034956628
v 0.02659113169 0.04900000095 0.4022535307
v 0.0267522788 0.04900000095 0.4007356054
v 0.02506481886 0.05 0.402726534
v 0.02538436651 0.04986602306 0.4031111032
v 0.02561829329 0.04949999809 0.4033926183
v 0.02570391417 0.04900000095 0.4034956628
v 0.02468287468 0.04900000095 0.4051978761
v 0.02494818211 0.04900000095 0.4071650201
v 0.02638369083 0.04900000095 0.4085359174
v 0.02836096048 0.04900000095 0.4087104112
v 0.02839399576 0.04949999809 0.4088402444
v 0.02848425388 0.04986602306 0.4091949731
v 0.0286075449 0.05 0.4096795351
v 0.02597118616 0.05 0.4094468671
v 0.02405717611 0.05 0.4076190073
v 0.02370343208 0.05 0.4049961549
v -0.01202341437 0.04900000095 0.4508767587
v -0.01183480024 0.05 0.4498767549
v 0.01183480024 0.05 0.4498767549
v 0.01202341437 0.04900000095 0.4508767587
v -0.03102473259 0.05 0.4110717279
v -0.03150573492 0.04986602306 0.410935219
v -0.03185785532 0.04949999809 0.4108352739
v -0.03198673964 0.04900000095 0.410798691
v -0.03121010542 0.04900000095 0.409484585
v -0.02988736153 0.04900000095 0.4087227422
v -0.02836096048 0.04900000095 0.4087104112
v -0.02839399576 0.04949999809 0.4088402445
v -0.02848425388 0.04986602306 0.4091949731
v -0.0286075449 0.05 0.4096795351
v -0.02962514639 0.05 0.4096877557
v -0.03050697565 0.05 0.4101956445
v -0.0286075449 0.05 0.4096795351
v -0.02848425388 0.04986602306 0.4091949731
v -0.02839399576 0.04949999809 0.4088402445
v -0.02836096048 0.04900000095 0.4087104112
v -0.02638369083 0.04900000095 0.4085359174
v -0.02494818211 0.04900000095 0.4071650201
v -0.02468287468 0.04900000095 0.4051978761
v -0.02570391417 0.04900000095 0.4034956628
v -0.02561829329 0.04949999809 0.4033926183
v -0.02538436651 0.04986602306 0.4031111032
v -0.02506481886 0.05 0.402726534
v -0.02370343208 0.05 0.4049961549
v -0.02405717611 0.05 0.4076190073
v -0.02597118616 0.05 0.4094468671
v 0.03102473259 0.05 0.4286817819
v 0.03150573492 0.04986602306 0.4288182909
v 0.03185785532 0.04949999809 0.4289182169
v 0.03198673964 0.04900000095 0.4289547998
v 0.03121010542 0.04900000095 0.4302689249
v 0.02988736153 0.04900000095 0.4310307581
v 0.02836096048 0.04900000095 0.4310430986
v 0.02839399576 0.04949999809 0.4309132654
v 0.02848425388 0.04986602306 0.4305585367
v 0.0286075449 0.05 0.4300739748
v 0.02962514639 0.05 0.4300657541
v 0.03050697565 0.05 0.4295578653
v 0.0286075449 0.05 0.4096795351
v 0.02848425388 0.04986602306 0.4091949731
v 0.02839399576 0.04949999809 0.4088402444
v 0.02836096048 0.04900000095 0.4087104112
v 0.02988736153 0.04900000095 0.4087227422
v 0.03121010542 0.04900000095 0.409484585
v 0.03198673964 0.04900000095 0.410798691
v 0.03185785532 0.04949999809 0.4108352739
v 0.03150573492 0.04986602306 0.410935219
v 0.03102473259 0.05 0.4110717279
v 0.03050697565 0.05 0.4101956445
v 0.02962514639 0.05 0.4096877557
v 0.03102473259 0.05 0.4110717279
v 0.03150573492 0.04986602306 0.410935219
v 0.03185785532 0.04949999809 0.4108352739
v 0.03198673964 0.04900000095 0.410798691
v 0.03310883999 0.04900000095 0.4168161661
v 0.03310883999 0.04900000095 0.4229373438
v 0.03198673964 0.04900000095 0.4289547998
v 0.03185785532 0.04949999809 0.4289182169
v 0.03150573492 0.04986602306 0.4288182909
v 0.03102473259 0.05 0.4286817819
v 0.03211308479 0.05 0.4228452951
v 0.03211308479 0.05 0.4169082147
v 0.01202341437 0.04900000095 0.4508767587
v 0.01183480024 0.05 0.4498767549
v 0.01691486001 0.05 0.4473349077
v 0.02147013426 0.05 0.4439411623
v 0.0253592968 0.05 0.4398008234
v 0.02575246334 0.04986602306 0.4401097185
v 0.02604028225 0.04949999809 0.4403358537
v 0.02614563227 0.04900000095 0.4404186136
v 0.02208819866 0.04900000095 0.4447297937
v 0.01733051658 0.04900000095 0.4482530672
v 0.0286075449 0.05 0.4300739748
v 0.02848425388 0.04986602306 0.4305585367
v 0.02839399576 0.04949999809 0.4309132654
v 0.02836096048 0.04900000095 0.4310430986
v 0.02638369083 0.04900000095 0.4312175829
v 0.02494818211 0.04900000095 0.4325884897
v 0.02468287468 0.04900000095 0.4345556337
v 0.02570391417 0.04900000095 0.436257847
v 0.02561829329 0.04949999809 0.436360882
v 0.02538436651 0.04986602306 0.4366424066
v 0.02506481886 0.05 0.4370269663
v 0.02370343208 0.05 0.4347573549
v 0.02405717611 0.05 0.4321345026
v 0.02597118616 0.05 0.4303066332
v 0.02506481886 0.05 0.4370269663
v 0.02538436651 0.04986602306 0.4366424066
v 0.02561829329 0.04949999809 0.436360882
v 0.02570391417 0.04900000095 0.436257847
v 0.02659113169 0.04900000095 0.4374999696
v 0.0267522788 0.04900000095 0.4390178949
v 0.02614563227 0.04900000095 0.4404186136
v 0.02604028225 0.04949999809 0.4403358537
v 0.02575246334 0.04986602306 0.4401097185
v 0.0253592968 0.05 0.4398008234
v 0.02576372862 0.05 0.4388670046
v 0.02565629721 0.05 0.4378550607
v -0.01202341437 0.04900000095 0.3888767511
v -0.01202341437 0.0446999979 0.3888767511
v 0.01202341437 0.0446999979 0.3888767511
v 0.01202341437 0.04900000095 0.3888767511
v -0.0075 0.0446999979 0.4524284441
v -0.0075 0.0446999979 0.452776745
v -0.0075 0.03599999905 0.452776745
v -0.0075 0.03599999905 0.4524284441
v 0.0075 0.03599999905 0.4524284441
v 0.0075 0.03599999905 0.452776745
v 0.0075 0.0446999979 0.452776745
v 0.0075 0.0446999979 0.4524284441
v -0.01183480024 0.05 0.4498767549
v -0.01202341437 0.04900000095 0.4508767587
v -0.01733051658 0.04900000095 0.4482530672
v -0.02208819866 0.04900000095 0.4447297937
v -0.02614563227 0.04900000095 0.4404186136
v -0.02604028225 0.04949999809 0.4403358537
v -0.02575246334 0.04986602306 0.4401097185
v -0.0253592968 0.05 0.4398008234
v -0.02147013426 0.05 0.4439411623
v -0.01691486001 0.05 0.4473349077
v 0.0075 0.0446999979 0.4524284441
v 0.007519578934 0.0446999979 0.4523421365
v 0.007574482561 0.0446999979 0.4522727281
v 0.007653961182 0.0446999979 0.4522338182
v 0.007653961182 0.03599999905 0.4522338182
v 0.007574482561 0.03599999905 0.4522727281
v 0.007519578934 0.03599999905 0.4523421365
v 0.0075 0.03599999905 0.4524284441
v -0.007653961181 0.03599999905 0.4522338182
v -0.007653961181 0.0446999979 0.4522338182
v -0.00757448256 0.0446999979 0.4522727281
v -0.007519578933 0.0446999979 0.4523421365
v -0.0075 0.0446999979 0.4524284441
v -0.0075 0.03599999905 0.4524284441
v -0.007519578933 0.03599999905 0.4523421365
v -0.00757448256 0.03599999905 0.4522727281
v 0.01183480024 0.05 0.3898767549
v 0.01691486001 0.05 0.3924186021
v 0.02147013426 0.05 0.395812338
v 0.0253592968 0.05 0.3999526865
v 0.02576372862 0.05 0.4008864957
v 0.02565629721 0.05 0.4018984491
v 0.02506481886 0.05 0.402726534
v 0.02370343208 0.05 0.4049961549
v 0.02405717611 0.05 0.4076190073
v 0.02597118616 0.05 0.4094468671
v 0.0286075449 0.05 0.4096795351
v 0.02962514639 0.05 0.4096877557
v 0.03050697565 0.05 0.4101956445
v 0.03102473259 0.05 0.4110717279
v 0.03211308479 0.05 0.4169082147
v 0.03211308479 0.05 0.4228452951
v 0.03102473259 0.05 0.4286817819
v 0.03050697565 0.05 0.4295578653
v 0.02962514639 0.05 0.4300657541
v 0.0286075449 0.05 0.4300739748
v 0.02597118616 0.05 0.4303066332
v 0.02405717611 0.05 0.4321345026
v 0.02370343208 0.05 0.4347573549
v 0.02506481886 0.05 0.4370269663
v 0.02565629721 0.05 0.4378550607
v 0.02576372862 0.05 0.4388670046
v 0.0253592968 0.05 0.4398008234
v 0.02147013426 0.05 0.4439411623
v 0.01691486001 0.05 0.4473349077
v 0.01183480024 0.05 0.4498767549
v -0.01183480024 0.05 0.4498767549
v -0.01691486001 0.05 0.4473349077
v -0.02147013426 0.05 0.4439411623
v -0.0253592968 0.05 0.4398008234
v -0.02576372862 0.05 0.4388670046
v -0.02565629721 0.05 0.4378550607
v -0.02506481886 0.05 0.4370269663
v -0.02370343208 0.05 0.4347573549
v -0.02405717611 0.05 0.4321345026
v -0.02597118616 0.05 0.4303066332
v -0.0286075449 0.05 0.4300739748
v -0.02962514639 0.05 0.4300657541
v -0.03050697565 0.05 0.4295578653
v -0.03102473259 0.05 0.4286817819
v -0.03211308479 0.05 0.4228452951
v -0.03211308479 0.05 0.4169082147
v -0.03102473259 0.05 0.4110717279
v -0.03050697565 0.05 0.4101956445
v -0.02962514639 0.05 0.4096877557
v -0.0286075449 0.05 0.4096795351
v -0.02597118616 0.05 0.4094468671
v -0.02405717611 0.05 0.4076190073
v -0.02370343208 0.05 0.4049961549
v -0.02506481886 0.05 0.402726534
v -0.02565629721 0.05 0.4018984491
v -0.02576372862 0.05 0.4008864957
v -0.0253592968 0.05 0.3999526865
v -0.02147013426 0.05 0.395812338
v -0.01691486001 0.05 0.3924186021
v -0.01183480024 0.05 0.3898767549
v -0.02836096048 0.04900000095 0.4310430986
v -0.02836096048 0.04699999809 0.4310430986
v -0.02988736153 0.04699999809 0.4310307581
v -0.03121010542 0.04699999809 0.4302689249
v -0.03198673964 0.04699999809 0.4289547998
v -0.03198673964 0.04900000095 0.4289547998
v -0.03121010542 0.04900000095 0.4302689249
v -0.02988736153 0.04900000095 0.4310307581
v 0.02570391417 0.04900000095 0.436257847
v 0.02570391417 0.04699999809 0.436257847
v 0.02659113169 0.04699999809 0.4374999696
v 0.0267522788 0.04699999809 0.4390178949
v 0.02614563227 0.04699999809 0.4404186136
v 0.02614563227 0.04900000095 0.4404186136
v 0.0267522788 0.04900000095 0.4390178949
v 0.02659113169 0.04900000095 0.4374999696
v -0.01183480024 0.05 0.3898767549
v -0.01183565259 0.04999999046 0.3898722631
v -0.01196828604 0.04970812798 0.389170664
v -0.01202341437 0.04900000095 0.3888767511
v 0.01202341437 0.04900000095 0.3888767511
v 0.01183480024 0.05 0.3898767549
v 0.03198673964 0.04900000095 0.4289547998
v 0.03198673964 0.04699999809 0.4289547998
v 0.03121010542 0.04699999809 0.4302689249
v 0.02988736153 0.04699999809 0.4310307581
v 0.02836096048 0.04699999809 0.4310430986
v 0.02836096048 0.04900000095 0.4310430986
v 0.02988736153 0.04900000095 0.4310307581
v 0.03121010542 0.04900000095 0.4302689249
v -0.02570391417 0.04900000095 0.436257847
v -0.02570391417 0.04699999809 0.436257847
v -0.02468287468 0.04699999809 0.4345556337
v -0.02494818211 0.04699999809 0.4325884897
v -0.02638369083 0.04699999809 0.4312175829
v -0.02836096048 0.04699999809 0.4310430986
v -0.02836096048 0.04900000095 0.4310430986
v -0.02638369083 0.04900000095 0.4312175829
v -0.02494818211 0.04900000095 0.4325884897
v -0.02468287468 0.04900000095 0.4345556337
v 0.02570391417 0.04900000095 0.436257847
v 0.02468287468 0.04900000095 0.4345556337
v 0.02494818211 0.04900000095 0.4325884897
v 0.02638369083 0.04900000095 0.4312175829
v 0.02836096048 0.04900000095 0.4310430986
v 0.02836096048 0.04699999809 0.4310430986
v 0.02638369083 0.04699999809 0.4312175829
v 0.02494818211 0.04699999809 0.4325884897
v 0.02468287468 0.04699999809 0.4345556337
v 0.02570391417 0.04699999809 0.436257847
v 0.01183480024 0.05 0.3898767549
v 0.01202341437 0.04900000095 0.3888767511
v 0.01733051658 0.04900000095 0.3915004331
v 0.02208819866 0.04900000095 0.3950237066
v 0.02614563227 0.04900000095 0.3993348772
v 0.02604028225 0.04949999809 0.3994176561
v 0.02575246334 0.04986602306 0.3996437818
v 0.0253592968 0.05 0.3999526865
v 0.02147013426 0.05 0.395812338
v 0.01691486001 0.05 0.3924186021
v -0.03102473259 0.05 0.4286817819
v -0.03150573492 0.04986602306 0.4288182909
v -0.03185785532 0.04949999809 0.4289182169
v -0.03198673964 0.04900000095 0.4289547998
v -0.03310883999 0.04900000095 0.4229373438
v -0.03310883999 0.04900000095 0.4168161661
v -0.03198673964 0.04900000095 0.410798691
v -0.03185785532 0.04949999809 0.4108352739
v -0.03150573492 0.04986602306 0.410935219
v -0.03102473259 0.05 0.4110717279
v -0.03211308479 0.05 0.4169082147
v -0.03211308479 0.05 0.4228452951
v -0.02570391417 0.04900000095 0.4034956628
v -0.02570391417 0.04699999809 0.4034956628
v -0.02659113169 0.04699999809 0.4022535307
v -0.0267522788 0.04699999809 0.4007356054
v -0.02614563227 0.04699999809 0.3993348772
v -0.02614563227 0.04900000095 0.3993348772
v -0.0267522788 0.04900000095 0.4007356054
v -0.02659113169 0.04900000095 0.4022535307
v 0.02836096048 0.04900000095 0.4087104112
v 0.02836096048 0.04699999809 0.4087104112
v 0.02988736153 0.04699999809 0.4087227422
v 0.03121010542 0.04699999809 0.409484585
v 0.03198673964 0.04699999809 0.410798691
v 0.03198673964 0.04900000095 0.410798691
v 0.03121010542 0.04900000095 0.409484585
v 0.02988736153 0.04900000095 0.4087227422
v -0.02614563227 0.04900000095 0.4404186136
v -0.02614563227 0.04699999809 0.4404186136
v -0.0267522788 0.04699999809 0.4390178949
v -0.02659113169 0.04699999809 0.4374999696
v -0.02570391417 0.04699999809 0.436257847
v -0.02570391417 0.04900000095 0.436257847
v -0.02659113169 0.04900000095 0.4374999696
v -0.0267522788 0.04900000095 0.4390178949
v -0.02506481886 0.05 0.4370269663
v -0.02538436651 0.04986602306 0.4366424066
v -0.02561829329 0.04949999809 0.436360882
v -0.02570391417 0.04900000095 0.436257847
v -0.02468287468 0.04900000095 0.4345556337
v -0.02494818211 0.04900000095 0.4325884897
v -0.02638369083 0.04900000095 0.4312175829
v -0.02836096048 0.04900000095 0.4310430986
v -0.02839399576 0.04949999809 0.4309132654
v -0.02848425388 0.04986602306 0.4305585367
v -0.0286075449 0.05 0.4300739748
v -0.02597118616 0.05 0.4303066332
v -0.02405717611 0.05 0.4321345026
v -0.02370343208 0.05 0.4347573549
v -0.01202341437 0.04900000095 0.3888767511
v -0.01196828604 0.04970812798 0.389170664
v -0.01183565259 0.04999999046 0.3898722631
v -0.01183480024 0.05 0.3898767549
v -0.01691486001 0.05 0.3924186021
v -0.02147013426 0.05 0.395812338
v -0.0253592968 0.05 0.3999526865
v -0.02575246334 0.04986602306 0.3996437818
v -0.02604028225 0.04949999809 0.3994176561
v -0.02614563227 0.04900000095 0.3993348772
v -0.02208819866 0.04900000095 0.3950237066
v -0.01733051658 0.04900000095 0.3915004331
v 0.0253592968 0.05 0.3999526865
v 0.02575246334 0.04986602306 0.3996437818
v 0.02604028225 0.04949999809 0.3994176561
v 0.02614563227 0.04900000095 0.3993348772
v 0.0267522788 0.04900000095 0.4007356054
v 0.02659113169 0.04900000095 0.4022535307
v 0.02570391417 0.04900000095 0.4034956628
v 0.02561829329 0.04949999809 0.4033926183
v 0.02538436651 0.04986602306 0.4031111032
v 0.02506481886 0.05 0.402726534
v 0.02565629721 0.05 0.4018984491
v 0.02576372862 0.05 0.4008864957
v -0.03198673964 0.04900000095 0.410798691
v -0.03198673964 0.04699999809 0.410798691
v -0.03121010542 0.04699999809 0.409484585
v -0.02988736153 0.04699999809 0.4087227422
v -0.02836096048 0.04699999809 0.4087104112
v -0.02836096048 0.04900000095 0.4087104112
v -0.02988736153 0.04900000095 0.4087227422
v -0.03121010542 0.04900000095 0.409484585
v -0.0286075449 0.05 0.4300739748
v -0.02848425388 0.04986602306 0.4305585367
v -0.02839399576 0.04949999809 0.4309132654
v -0.02836096048 0.04900000095 0.4310430986
v -0.02988736153 0.04900000095 0.4310307581
v -0.03121010542 0.04900000095 0.4302689249
v -0.03198673964 0.04900000095 0.4289547998
v -0.03185785532 0.04949999809 0.4289182169
v -0.03150573492 0.04986602306 0.4288182909
v -0.03102473259 0.05 0.4286817819
v -0.03050697565 0.05 0.4295578653
v -0.02962514639 0.05 0.4300657541
v -0.02836096048 0.04900000095 0.4087104112
v -0.02836096048 0.04699999809 0.4087104112
v -0.02638369083 0.04699999809 0.4085359174
v -0.02494818211 0.04699999809 0.4071650201
v -0.02468287468 0.04699999809 0.4051978761
v -0.02570391417 0.04699999809 0.4034956628
v -0.02570391417 0.04900000095 0.4034956628
v -0.02468287468 0.04900000095 0.4051978761
v -0.02494818211 0.04900000095 0.4071650201
v -0.02638369083 0.04900000095 0.4085359174
v 0.007771100402 0.05199999809 0.3867767507
v 0.01491013527 0.05199999809 0.3893204481
v 0.02130835533 0.05199999809 0.3933823377
v 0.02664786577 0.05199999809 0.3987606126
v 0.03066336632 0.05199999809 0.4051880533
v 0.03315535069 0.05199999809 0.4123453027
v 0.03400000095 0.05199999809 0.4198767549
v 0.03315535069 0.05199999809 0.4274082071
v 0.03066336632 0.05199999809 0.4345654565
v 0.02664786577 0.05199999809 0.4409928972
v 0.02130835533 0.05199999809 0.4463711626
v 0.01491013527 0.05199999809 0.4504330522
v 0.007771100402 0.05199999809 0.4529767496
v 0.009748747945 0.05186274529 0.4529767496
v 0.01137497306 0.05099999905 0.4529767496
v 0.0184854281 0.05099999905 0.4495969278
v 0.02466057062 0.05099999905 0.4447133524
v 0.02958795071 0.05099999905 0.4385731012
v 0.03301826 0.05099999905 0.4314868623
v 0.03477793217 0.05099999905 0.4238131792
v 0.03477793217 0.05099999905 0.4159403307
v 0.03301826 0.05099999905 0.4082666475
v 0.02958795071 0.05099999905 0.4011804086
v 0.02466057062 0.05099999905 0.3950401575
v 0.01848542809 0.05099999905 0.3901565725
v 0.01137497306 0.05099999905 0.3867767507
v 0.009748747944 0.05186274529 0.3867767507
v 0.02962120295 0.05199999809 0.4058030492
v 0.02886818171 0.05199999809 0.4042393858
v 0.02717616081 0.05199999809 0.4038531953
v 0.02581926346 0.05199999809 0.4049352819
v 0.02581926346 0.05199999809 0.4066708166
v 0.02717616081 0.05199999809 0.4077529031
v 0.02886818171 0.05199999809 0.4073667127
v 0.02962120295 0.04900000095 0.4058030492
v 0.02886818171 0.04900000095 0.4073667127
v 0.02717616081 0.04900000095 0.4077529031
v 0.02581926346 0.04900000095 0.4066708166
v 0.02581926346 0.04900000095 0.4049352819
v 0.02717616081 0.04900000095 0.4038531953
v 0.02886818171 0.04900000095 0.4042393858
v 0.02581926346 0.05199999809 0.4066708166
v 0.02581926346 0.04900000095 0.4066708166
v 0.007699999809 0.0446999979 0.3867767507
v -0.00769999981 0.0446999979 0.3867767507
v -0.00769999981 0.03599999905 0.3867767507
v -0.01137497306 0.03599999905 0.3867767507
v -0.01137497306 0.05099999905 0.3867767507
v -0.009748747945 0.05186274529 0.3867767507
v -0.007771100402 0.05199999809 0.3867767507
v 0.007771100402 0.05199999809 0.3867767507
v 0.009748747944 0.05186274529 0.3867767507
v 0.01137497306 0.05099999905 0.3867767507
v 0.01137497306 0.03599999905 0.3867767507
v 0.007699999809 0.03599999905 0.3867767507
v 0.00769999981 0.03599999905 0.4529767496
v 0.01137497306 0.03599999905 0.4529767496
v 0.01137497306 0.05099999905 0.4529767496
v 0.009748747945 0.05186274529 0.4529767496
v 0.007771100402 0.05199999809 0.4529767496
v -0.007771100402 0.05199999809 0.4529767496
v -0.009748747944 0.05186274529 0.4529767496
v -0.01137497306 0.05099999905 0.4529767496
v -0.01137497306 0.03599999905 0.4529767496
v -0.007699999809 0.03599999905 0.4529767496
v -0.007699999809 0.0446999979 0.4529767496
v 0.00769999981 0.0446999979 0.4529767496
v -0.007771100402 0.05199999809 0.4529767496
v -0.01491013527 0.05199999809 0.4504330522
v -0.02130835533 0.05199999809 0.4463711626
v -0.02664786577 0.05199999809 0.4409928972
v -0.03066336632 0.05199999809 0.4345654565
v -0.03315535069 0.05199999809 0.4274082071
v -0.03400000095 0.05199999809 0.4198767549
v -0.03315535069 0.05199999809 0.4123453027
v -0.03066336632 0.05199999809 0.4051880533
v -0.02664786577 0.05199999809 0.3987606126
v -0.02130835533 0.05199999809 0.3933823377
v -0.01491013527 0.05199999809 0.3893204481
v -0.007771100402 0.05199999809 0.3867767507
v -0.009748747945 0.05186274529 0.3867767507
v -0.01137497306 0.05099999905 0.3867767507
v -0.0184854281 0.05099999905 0.3901565725
v -0.02466057062 0.05099999905 0.3950401575
v -0.02958795071 0.05099999905 0.4011804086
v -0.03301826 0.05099999905 0.4082666475
v -0.03477793217 0.05099999905 0.4159403307
v -0.03477793217 0.05099999905 0.4238131792
v -0.03301826 0.05099999905 0.4314868623
v -0.02958795071 0.05099999905 0.4385731012
v -0.02466057062 0.05099999905 0.4447133524
v -0.01848542809 0.05099999905 0.4495969278
v -0.01137497306 0.05099999905 0.4529767496
v -0.009748747944 0.05186274529 0.4529767496
v -0.02562120199 0.05199999809 0.4339504511
v -0.02637422323 0.05199999809 0.4323867876
v -0.02806624413 0.05199999809 0.4320006067
v -0.0294231391 0.05199999809 0.4330826837
v -0.0294231391 0.05199999809 0.4348182184
v -0.02806624413 0.05199999809 0.4359003145
v -0.02637422323 0.05199999809 0.4355141145
v -0.02562120199 0.04900000095 0.4339504511
v -0.02637422323 0.04900000095 0.4355141145
v -0.02806624413 0.04900000095 0.4359003145
v -0.0294231391 0.04900000095 0.4348182184
v -0.0294231391 0.04900000095 0.4330826837
v -0.02806624413 0.04900000095 0.4320006067
v -0.02637422323 0.04900000095 0.4323867876
v -0.0294231391 0.05199999809 0.4348182184
v -0.0294231391 0.04900000095 0.4348182184
v 0.01137497306 0.03599999905 0.4529767496
v 0.0184854281 0.03599999905 0.4495969278
v 0.02466057062 0.03599999905 0.4447133524
v 0.02958795071 0.03599999905 0.4385731012
v 0.03301826 0.03599999905 0.4314868623
v 0.03477793217 0.03599999905 0.4238131792
v 0.03477793217 0.03599999905 0.4159403307
v 0.03301826 0.03599999905 0.4082666475
v 0.02958795071 0.03599999905 0.4011804086
v 0.02466057062 0.03599999905 0.3950401575
v 0.01848542809 0.03599999905 0.3901565725
v 0.01137497306 0.03599999905 0.3867767507
v 0.01137497306 0.05099999905 0.3867767507
v 0.01848542809 0.05099999905 0.3901565725
v 0.02466057062 0.05099999905 0.3950401575
v 0.02958795071 0.05099999905 0.4011804086
v 0.03301826 0.05099999905 0.4082666475
v 0.03477793217 0.05099999905 0.4159403307
v 0.03477793217 0.05099999905 0.4238131792
v 0.03301826 0.05099999905 0.4314868623
v 0.02958795071 0.05099999905 0.4385731012
v 0.02466057062 0.05099999905 0.4447133524
v 0.0184854281 0.05099999905 0.4495969278
v 0.01137497306 0.05099999905 0.4529767496
v 0.00769999981 0.0446999979 0.4529767496
v 0.007599999905 0.0446999979 0.4529499513
v 0.007526794672 0.0446999979 0.4528767473
v 0.0075 0.0446999979 0.452776745
v 0.0075 0.03599999905 0.452776745
v 0.007526794672 0.03599999905 0.4528767473
v 0.007599999905 0.03599999905 0.4529499513
v 0.00769999981 0.03599999905 0.4529767496
v -0.00769999981 0.0446999979 0.3867767507
v -0.007599999905 0.0446999979 0.386803549
v -0.007526794672 0.0446999979 0.386876753
v -0.0075 0.0446999979 0.3869767553
v -0.0075 0.03599999905 0.3869767553
v -0.007526794672 0.03599999905 0.386876753
v -0.007599999905 0.03599999905 0.386803549
v -0.00769999981 0.03599999905 0.3867767507
v 0.02962120295 0.05199999809 0.4339504511
v 0.02886818171 0.05199999809 0.4323867876
v 0.02717616081 0.05199999809 0.4320006067
v 0.02581926346 0.05199999809 0.4330826837
v 0.02581926346 0.05199999809 0.4348182184
v 0.02717616081 0.05199999809 0.4359003145
v 0.02886818171 0.05199999809 0.4355141145
v 0.02962120295 0.04900000095 0.4339504511
v 0.02886818171 0.04900000095 0.4355141145
v 0.02717616081 0.04900000095 0.4359003145
v 0.02581926346 0.04900000095 0.4348182184
v 0.02581926346 0.04900000095 0.4330826837
v 0.02717616081 0.04900000095 0.4320006067
v 0.02886818171 0.04900000095 0.4323867876
v 0.02581926346 0.05199999809 0.4348182184
v 0.02581926346 0.04900000095 0.4348182184
v -0.02882120132 0.04699999809 0.4058030492
v -0.02799202204 0.04699999809 0.4046617777
v -0.02665038109 0.04699999809 0.4050977022
v -0.02665038109 0.04699999809 0.4065083868
v -0.02799202204 0.04699999809 0.4069443113
v -0.02882120132 0.04900000095 0.4058030492
v -0.02799202204 0.04900000095 0.4069443113
v -0.02665038109 0.04900000095 0.4065083868
v -0.02665038109 0.04900000095 0.4050977022
v -0.02799202204 0.04900000095 0.4046617777
v -0.02882120132 0.04900000095 0.4058030492
v -0.02882120132 0.04699999809 0.4058030492
v -0.01137497306 0.05099999905 0.4529767496
v -0.01848542809 0.05099999905 0.4495969278
v -0.02466057062 0.05099999905 0.4447133524
v -0.02958795071 0.05099999905 0.4385731012
v -0.03301826 0.05099999905 0.4314868623
v -0.03477793217 0.05099999905 0.4238131792
v -0.03477793217 0.05099999905 0.4159403307
v -0.03301826 0.05099999905 0.4082666475
v -0.02958795071 0.05099999905 0.4011804086
v -0.02466057062 0.05099999905 0.3950401575
v -0.0184854281 0.05099999905 0.3901565725
v -0.01137497306 0.05099999905 0.3867767507
v -0.01137497306 0.03599999905 0.3867767507
v -0.0184854281 0.03599999905 0.3901565725
v -0.02466057062 0.03599999905 0.3950401575
v -0.02958795071 0.03599999905 0.4011804086
v -0.03301826 0.03599999905 0.4082666475
v -0.03477793217 0.03599999905 0.4159403307
v -0.03477793217 0.03599999905 0.4238131792
v -0.03301826 0.03599999905 0.4314868623
v -0.02958795071 0.03599999905 0.4385731012
v -0.02466057062 0.03599999905 0.4447133524
v -0.01848542809 0.03599999905 0.4495969278
v -0.01137497306 0.03599999905 0.4529767496
v 0.007699999809 0.03599999905 0.3867767507
v 0.01137497306 0.03599999905 0.3867767507
v 0.01848542809 0.03599999905 0.3901565725
v 0.02466057062 0.03599999905 0.3950401575
v 0.02958795071 0.03599999905 0.4011804086
v 0.03301826 0.03599999905 0.4082666475
v 0.03477793217 0.03599999905 0.4159403307
v 0.03477793217 0.03599999905 0.4238131792
v 0.03301826 0.03599999905 0.4314868623
v 0.02958795071 0.03599999905 0.4385731012
v 0.02466057062 0.03599999905 0.4447133524
v 0.0184854281 0.03599999905 0.4495969278
v 0.01137497306 0.03599999905 0.4529767496
v 0.00769999981 0.03599999905 0.4529767496
v 0.007599999905 0.03599999905 0.4529499513
v 0.007526794672 0.03599999905 0.4528767473
v 0.0075 0.03599999905 0.452776745
v 0.0075 0.03599999905 0.4524284441
v 0.007519578934 0.03599999905 0.4523421365
v 0.007574482561 0.03599999905 0.4522727281
v 0.007653961182 0.03599999905 0.4522338182
v 0.0152255559 0.03599999905 0.4494359285
v 0.02189981937 0.03599999905 0.4448959428
v 0.02728340149 0.03599999905 0.4388814432
v 0.0310590148 0.03599999905 0.4317468912
v 0.03300413847 0.03599999905 0.4239127618
v 0.03300413847 0.03599999905 0.415840748
v 0.0310590148 0.03599999905 0.4080066187
v 0.02728340149 0.03599999905 0.4008720571
v 0.02189981937 0.03599999905 0.3948575479
v 0.0152255559 0.03599999905 0.3903175718
v 0.007653961181 0.03599999905 0.3875196916
v 0.00757448256 0.03599999905 0.3874807722
v 0.007519578933 0.03599999905 0.3874113638
v 0.0075 0.03599999905 0.3873250658
v 0.0075 0.03599999905 0.3869767553
v 0.007526794672 0.03599999905 0.386876753
v 0.007599999904 0.03599999905 0.386803549
v -0.0075 0.03599999905 0.3873250658
v -0.0075 0.03599999905 0.3869767553
v -0.0075 0.0446999979 0.3869767553
v -0.0075 0.0446999979 0.3873250658
v 0.02642120123 0.04699999809 0.4058030492
v 0.0272503829 0.04699999809 0.4046617777
v 0.02859202147 0.04699999809 0.4050977022
v 0.02859202147 0.04699999809 0.4065083868
v 0.0272503829 0.04699999809 0.4069443113
v 0.02642120123 0.04900000095 0.4058030492
v 0.0272503829 0.04900000095 0.4069443113
v 0.02859202147 0.04900000095 0.4065083868
v 0.02859202147 0.04900000095 0.4050977022
v 0.0272503829 0.04900000095 0.4046617777
v 0.02642120123 0.04900000095 0.4058030492
v 0.02642120123 0.04699999809 0.4058030492
v -0.03198673964 0.04699999809 0.4289547998
v -0.03121010542 0.04699999809 0.4302689249
v -0.02988736153 0.04699999809 0.4310307581
v -0.02836096048 0.04699999809 0.4310430986
v -0.02638369083 0.04699999809 0.4312175829
v -0.02494818211 0.04699999809 0.4325884897
v -0.02468287468 0.04699999809 0.4345556337
v -0.02570391417 0.04699999809 0.436257847
v -0.02659113169 0.04699999809 0.4374999696
v -0.0267522788 0.04699999809 0.4390178949
v -0.02614563227 0.04699999809 0.4404186136
v -0.02858458519 0.04699999809 0.436861561
v -0.03054260254 0.04699999809 0.4330187494
v -0.02882120132 0.04699999809 0.4339504511
v -0.02799202204 0.04699999809 0.4350917322
v -0.02665038109 0.04699999809 0.4346558077
v -0.02665038109 0.04699999809 0.4332451135
v -0.02799202204 0.04699999809 0.432809189
v 0.01202341437 0.0446999979 0.3888767511
v -0.01202341437 0.0446999979 0.3888767511
v -0.0105882144 0.0446999979 0.3883576757
v -0.009130706191 0.0446999979 0.3879050047
v -0.007653961182 0.0446999979 0.3875196916
v -0.007574482561 0.0446999979 0.3874807722
v -0.007519578934 0.0446999979 0.3874113638
v -0.0075 0.0446999979 0.3873250658
v -0.0075 0.0446999979 0.3869767553
v -0.007526794672 0.0446999979 0.386876753
v -0.007599999905 0.0446999979 0.386803549
v -0.00769999981 0.0446999979 0.3867767507
v 0.007699999809 0.0446999979 0.3867767507
v 0.007599999904 0.0446999979 0.386803549
v 0.007526794672 0.0446999979 0.386876753
v 0.0075 0.0446999979 0.3869767553
v 0.0075 0.0446999979 0.3873250658
v 0.007519578933 0.0446999979 0.3874113638
v 0.00757448256 0.0446999979 0.3874807722
v 0.007653961181 0.0446999979 0.3875196916
v 0.009130706191 0.0446999979 0.3879050047
v 0.0105882144 0.0446999979 0.3883576757
v -0.007653961182 0.03599999905 0.3875196916
v -0.0152255559 0.03599999905 0.3903175718
v -0.02189981937 0.03599999905 0.3948575479
v -0.02728340149 0.03599999905 0.4008720571
v -0.0310590148 0.03599999905 0.4080066187
v -0.03300413847 0.03599999905 0.415840748
v -0.03300413847 0.03599999905 0.4239127618
v -0.0310590148 0.03599999905 0.4317468912
v -0.02728340149 0.03599999905 0.4388814432
v -0.02189981937 0.03599999905 0.4448959428
v -0.0152255559 0.03599999905 0.4494359285
v -0.007653961181 0.03599999905 0.4522338182
v -0.00757448256 0.03599999905 0.4522727281
v -0.007519578933 0.03599999905 0.4523421365
v -0.0075 0.03599999905 0.4524284441
v -0.0075 0.03599999905 0.452776745
v -0.007526794672 0.03599999905 0.4528767473
v -0.007599999904 0.03599999905 0.4529499513
v -0.007699999809 0.03599999905 0.4529767496
v -0.01137497306 0.03599999905 0.4529767496
v -0.01848542809 0.03599999905 0.4495969278
v -0.02466057062 0.03599999905 0.4447133524
v -0.02958795071 0.03599999905 0.4385731012
v -0.03301826 0.03599999905 0.4314868623
v -0.03477793217 0.03599999905 0.4238131792
v -0.03477793217 0.03599999905 0.4159403307
v -0.03301826 0.03599999905 0.4082666475
v -0.02958795071 0.03599999905 0.4011804086
v -0.02466057062 0.03599999905 0.3950401575
v -0.0184854281 0.03599999905 0.3901565725
v -0.01137497306 0.03599999905 0.3867767507
v -0.00769999981 0.03599999905 0.3867767507
v -0.007599999905 0.03599999905 0.386803549
v -0.007526794672 0.03599999905 0.386876753
v -0.0075 0.03599999905 0.3869767553
v -0.0075 0.03599999905 0.3873250658
v -0.007519578934 0.03599999905 0.3874113638
v -0.007574482561 0.03599999905 0.3874807722
v -0.0075 0.0446999979 0.3873250658
v -0.007519578934 0.0446999979 0.3874113638
v -0.007574482561 0.0446999979 0.3874807722
v -0.007653961182 0.0446999979 0.3875196916
v -0.007653961182 0.03599999905 0.3875196916
v -0.007574482561 0.03599999905 0.3874807722
v -0.007519578934 0.03599999905 0.3874113638
v -0.0075 0.03599999905 0.3873250658
v -0.02882120132 0.04699999809 0.4339504511
v -0.02799202204 0.04699999809 0.432809189
v -0.02665038109 0.04699999809 0.4332451135
v -0.02665038109 0.04699999809 0.4346558077
v -0.02799202204 0.04699999809 0.4350917322
v -0.02882120132 0.04900000095 0.4339504511
v -0.02799202204 0.04900000095 0.4350917322
v -0.02665038109 0.04900000095 0.4346558077
v -0.02665038109 0.04900000095 0.4332451135
v -0.02799202204 0.04900000095 0.432809189
v -0.02882120132 0.04900000095 0.4339504511
v -0.02882120132 0.04699999809 0.4339504511
v 0.02642120123 0.04699999809 0.4339504511
v 0.0272503829 0.04699999809 0.432809189
v 0.02859202147 0.04699999809 0.4332451135
v 0.02859202147 0.04699999809 0.4346558077
v 0.0272503829 0.04699999809 0.4350917322
v 0.02642120123 0.04900000095 0.4339504511
v 0.0272503829 0.04900000095 0.4350917322
v 0.02859202147 0.04900000095 0.4346558077
v 0.02859202147 0.04900000095 0.4332451135
v 0.0272503829 0.04900000095 0.432809189
v 0.02642120123 0.04900000095 0.4339504511
v 0.02642120123 0.04699999809 0.4339504511
v 0.02836096048 0.04699999809 0.4310430986
v 0.02988736153 0.04699999809 0.4310307581
v 0.03121010542 0.04699999809 0.4302689249
v 0.03198673964 0.04699999809 0.4289547998
v 0.03054260254 0.04699999809 0.4330187494
v 0.02858458519 0.04699999809 0.436861561
v 0.02614563227 0.04699999809 0.4404186136
v 0.0267522788 0.04699999809 0.4390178949
v 0.02659113169 0.04699999809 0.4374999696
v 0.02570391417 0.04699999809 0.436257847
v 0.02468287468 0.04699999809 0.4345556337
v 0.02494818211 0.04699999809 0.4325884897
v 0.02638369083 0.04699999809 0.4312175829
v 0.02642120123 0.04699999809 0.4339504511
v 0.0272503829 0.04699999809 0.4350917322
v 0.02859202147 0.04699999809 0.4346558077
v 0.02859202147 0.04699999809 0.4332451135
v 0.0272503829 0.04699999809 0.432809189
v 0.0075 0.03599999905 0.3869767553
v 0.0075 0.0446999979 0.3869767553
v 0.007526794672 0.0446999979 0.386876753
v 0.007599999904 0.0446999979 0.386803549
v 0.007699999809 0.0446999979 0.3867767507
v 0.007699999809 0.03599999905 0.3867767507
v 0.007599999904 0.03599999905 0.386803549
v 0.007526794672 0.03599999905 0.386876753
v 0.007653961181 0.03599999905 0.3875196916
v 0.007653961181 0.0446999979 0.3875196916
v 0.00757448256 0.0446999979 0.3874807722
v 0.007519578933 0.0446999979 0.3874113638
v 0.0075 0.0446999979 0.3873250658
v 0.0075 0.03599999905 0.3873250658
v 0.007519578933 0.03599999905 0.3874113638
v 0.00757448256 0.03599999905 0.3874807722
v -0.03198673964 0.04900000095 0.410798691
v -0.03310883999 0.04900000095 0.4168161661
v -0.03310883999 0.04900000095 0.4229373438
v -0.03198673964 0.04900000095 0.4289547998
v -0.03198673964 0.04699999809 0.4289547998
v -0.03054260254 0.04699999809 0.4330187494
v -0.02858458519 0.04699999809 0.436861561
v -0.02614563227 0.04699999809 0.4404186136
v -0.02614563227 0.04900000095 0.4404186136
v -0.02208819866 0.04900000095 0.4447297937
v -0.01733051658 0.04900000095 0.4482530672
v -0.01202341437 0.04900000095 0.4508767587
v -0.01202341437 0.0446999979 0.4508767587
v -0.0105882144 0.0446999979 0.4513958246
v -0.009130706191 0.0446999979 0.4518484956
v -0.007653961181 0.0446999979 0.4522338182
v -0.007653961181 0.03599999905 0.4522338182
v -0.0152255559 0.03599999905 0.4494359285
v -0.02189981937 0.03599999905 0.4448959428
v -0.02728340149 0.03599999905 0.4388814432
v -0.0310590148 0.03599999905 0.4317468912
v -0.03300413847 0.03599999905 0.4239127618
v -0.03300413847 0.03599999905 0.415840748
v -0.0310590148 0.03599999905 0.4080066187
v -0.02728340149 0.03599999905 0.4008720571
v -0.02189981937 0.03599999905 0.3948575479
v -0.0152255559 0.03599999905 0.3903175718
v -0.007653961182 0.03599999905 0.3875196916
v -0.007653961182 0.0446999979 0.3875196916
v -0.009130706191 0.0446999979 0.3879050047
v -0.0105882144 0.0446999979 0.3883576757
v -0.01202341437 0.0446999979 0.3888767511
v -0.01202341437 0.04900000095 0.3888767511
v -0.01733051658 0.04900000095 0.3915004331
v -0.02208819866 0.04900000095 0.3950237066
v -0.02614563227 0.04900000095 0.3993348772
v -0.02614563227 0.04699999809 0.3993348772
v -0.02858458519 0.04699999809 0.4028919393
v -0.03054260254 0.04699999809 0.4067347604
v -0.03198673964 0.04699999809 0.410798691
v -0.02614563227 0.04699999809 0.3993348772
v -0.0267522788 0.04699999809 0.4007356054
v -0.02659113169 0.04699999809 0.4022535307
v -0.02570391417 0.04699999809 0.4034956628
v -0.02468287468 0.04699999809 0.4051978761
v -0.02494818211 0.04699999809 0.4071650201
v -0.02638369083 0.04699999809 0.4085359174
v -0.02836096048 0.04699999809 0.4087104112
v -0.02988736153 0.04699999809 0.4087227422
v -0.03121010542 0.04699999809 0.409484585
v -0.03198673964 0.04699999809 0.410798691
v -0.03054260254 0.04699999809 0.4067347604
v -0.02858458519 0.04699999809 0.4028919393
v -0.02882120132 0.04699999809 0.4058030492
v -0.02799202204 0.04699999809 0.4069443113
v -0.02665038109 0.04699999809 0.4065083868
v -0.02665038109 0.04699999809 0.4050977022
v -0.02799202204 0.04699999809 0.4046617777
v 0.0075 0.03599999905 0.3869767553
v 0.0075 0.03599999905 0.3873250658
v 0.0075 0.0446999979 0.3873250658
v 0.0075 0.0446999979 0.3869767553
v -0.0075 0.03599999905 0.452776745
v -0.0075 0.0446999979 0.452776745
v -0.007526794672 0.0446999979 0.4528767473
v -0.007599999904 0.0446999979 0.4529499513
v -0.007699999809 0.0446999979 0.4529767496
v -0.007699999809 0.03599999905 0.4529767496
v -0.007599999904 0.03599999905 0.4529499513
v -0.007526794672 0.03599999905 0.4528767473
v -0.007699999809 0.0446999979 0.4529767496
v -0.007599999904 0.0446999979 0.4529499513
v -0.007526794672 0.0446999979 0.4528767473
v -0.0075 0.0446999979 0.452776745
v -0.0075 0.0446999979 0.4524284441
v -0.007519578933 0.0446999979 0.4523421365
v -0.00757448256 0.0446999979 0.4522727281
v -0.007653961181 0.0446999979 0.4522338182
v -0.009130706191 0.0446999979 0.4518484956
v -0.0105882144 0.0446999979 0.4513958246
v -0.01202341437 0.0446999979 0.4508767587
v 0.01202341437 0.0446999979 0.4508767587
v 0.0105882144 0.0446999979 0.4513958246
v 0.009130706191 0.0446999979 0.4518484956
v 0.007653961182 0.0446999979 0.4522338182
v 0.007574482561 0.0446999979 0.4522727281
v 0.007519578934 0.0446999979 0.4523421365
v 0.0075 0.0446999979 0.4524284441
v 0.0075 0.0446999979 0.452776745
v 0.007526794672 0.0446999979 0.4528767473
v 0.007599999905 0.0446999979 0.4529499513
v 0.00769999981 0.0446999979 0.4529767496
v 0.01202341437 0.04900000095 0.3888767511
v 0.01202341437 0.0446999979 0.3888767511
v 0.0105882144 0.0446999979 0.3883576757
v 0.009130706191 0.0446999979 0.3879050047
v 0.007653961181 0.0446999979 0.3875196916
v 0.007653961181 0.03599999905 0.3875196916
v 0.0152255559 0.03599999905 0.3903175718
v 0.02189981937 0.03599999905 0.3948575479
v 0.02728340149 0.03599999905 0.4008720571
v 0.0310590148 0.03599999905 0.4080066187
v 0.03300413847 0.03599999905 0.415840748
v 0.03300413847 0.03599999905 0.4239127618
v 0.0310590148 0.03599999905 0.4317468912
v 0.02728340149 0.03599999905 0.4388814432
v 0.02189981937 0.03599999905 0.4448959428
v 0.0152255559 0.03599999905 0.4494359285
v 0.007653961182 0.03599999905 0.4522338182
v 0.007653961182 0.0446999979 0.4522338182
v 0.009130706191 0.0446999979 0.4518484956
v 0.0105882144 0.0446999979 0.4513958246
v 0.01202341437 0.0446999979 0.4508767587
v 0.01202341437 0.04900000095 0.4508767587
v 0.01733051658 0.04900000095 0.4482530672
v 0.02208819866 0.04900000095 0.4447297937
v 0.02614563227 0.04900000095 0.4404186136
v 0.02614563227 0.04699999809 0.4404186136
v 0.02858458519 0.04699999809 0.436861561
v 0.03054260254 0.04699999809 0.4330187494
v 0.03198673964 0.04699999809 0.4289547998
v 0.03198673964 0.04900000095 0.4289547998
v 0.03310883999 0.04900000095 0.4229373438
v 0.03310883999 0.04900000095 0.4168161661
v 0.03198673964 0.04900000095 0.410798691
v 0.03198673964 0.04699999809 0.410798691
v 0.03054260254 0.04699999809 0.4067347604
v 0.02858458519 0.04699999809 0.4028919393
v 0.02614563227 0.04699999809 0.3993348772
v 0.02614563227 0.04900000095 0.3993348772
v 0.02208819866 0.04900000095 0.3950237066
v 0.01733051658 0.04900000095 0.3915004331
v 0.03198673964 0.04699999809 0.410798691
v 0.03121010542 0.04699999809 0.409484585
v 0.02988736153 0.04699999809 0.4087227422
v 0.02836096048 0.04699999809 0.4087104112
v 0.02638369083 0.04699999809 0.4085359174
v 0.02494818211 0.04699999809 0.4071650201
v 0.02468287468 0.04699999809 0.4051978761
v 0.02570391417 0.04699999809 0.4034956628
v 0.02659113169 0.04699999809 0.4022535307
v 0.0267522788 0.04699999809 0.4007356054
v 0.02614563227 0.04699999809 0.3993348772
v 0.02858458519 0.04699999809 0.4028919393
v 0.03054260254 0.04699999809 0.4067347604
v 0.02642120123 0.04699999809 0.4058030492
v 0.0272503829 0.04699999809 0.4069443113
v 0.02859202147 0.04699999809 0.4065083868
v 0.02859202147 0.04699999809 0.4050977022
v 0.0272503829 0.04699999809 0.4046617777
v 0.007771100402 0.05199999809 0.4529767496
v 0.01491013527 0.05199999809 0.4504330522
v 0.02130835533 0.05199999809 0.4463711626
v 0.02664786577 0.05199999809 0.4409928972
v 0.03066336632 0.05199999809 0.4345654565
v 0.03315535069 0.05199999809 0.4274082071
v 0.03400000095 0.05199999809 0.4198767549
v 0.03315535069 0.05199999809 0.4123453027
v 0.03066336632 0.05199999809 0.4051880533
v 0.02664786577 0.05199999809 0.3987606126
v 0.02130835533 0.05199999809 0.3933823377
v 0.01491013527 0.05199999809 0.3893204481
v 0.007771100402 0.05199999809 0.3867767507
v -0.007771100402 0.05199999809 0.3867767507
v -0.01491013527 0.05199999809 0.3893204481
v -0.02130835533 0.05199999809 0.3933823377
v -0.02664786577 0.05199999809 0.3987606126
v -0.03066336632 0.05199999809 0.4051880533
v -0.03315535069 0.05199999809 0.4123453027
v -0.03400000095 0.05199999809 0.4198767549
v -0.03315535069 0.05199999809 0.4274082071
v -0.03066336632 0.05199999809 0.4345654565
v -0.02664786577 0.05199999809 0.4409928972
v -0.02130835533 0.05199999809 0.4463711626
v -0.01491013527 0.05199999809 0.4504330522
v -0.007771100402 0.05199999809 0.4529767496
v 0.02962120295 0.05199999809 0.4058030492
v 0.02886818171 0.05199999809 0.4073667127
v 0.02717616081 0.05199999809 0.4077529031
v 0.02581926346 0.05199999809 0.4066708166
v 0.02581926346 0.05199999809 0.4049352819
v 0.02717616081 0.05199999809 0.4038531953
v 0.02886818171 0.05199999809 0.4042393858
v -0.02562120199 0.05199999809 0.4339504511
v -0.02637422323 0.05199999809 0.4355141145
v -0.02806624413 0.05199999809 0.4359003145
v -0.0294231391 0.05199999809 0.4348182184
v -0.0294231391 0.05199999809 0.4330826837
v -0.02806624413 0.05199999809 0.4320006067
v -0.02637422323 0.05199999809 0.4323867876
v 0.02962120295 0.05199999809 0.4339504511
v 0.02886818171 0.05199999809 0.4355141145
v 0.02717616081 0.05199999809 0.4359003145
v 0.02581926346 0.05199999809 0.4348182184
v 0.02581926346 0.05199999809 0.4330826837
v 0.02717616081 0.05199999809 0.4320006067
v 0.02886818171 0.05199999809 0.4323867876
v -0.02562120199 0.05199999809 0.4058030492
v -0.02637422323 0.05199999809 0.4073667127
v -0.02806624413 0.05199999809 0.4077529031
v -0.0294231391 0.05199999809 0.4066708166
v -0.0294231391 0.05199999809 0.4049352819
v -0.02806624413 0.05199999809 0.4038531953
v -0.02637422323 0.05199999809 0.4042393858
v -0.02562120199 0.05199999809 0.4058030492
v -0.02637422323 0.05199999809 0.4042393858
v -0.02806624413 0.05199999809 0.4038531953
v -0.0294231391 0.05199999809 0.4049352819
v -0.0294231391 0.05199999809 0.4066708166
v -0.02806624413 0.05199999809 0.4077529031
v -0.02637422323 0.05199999809 0.4073667127
v -0.02562120199 0.04900000095 0.4058030492
v -0.02637422323 0.04900000095 0.4073667127
v -0.02806624413 0.04900000095 0.4077529031
v -0.0294231391 0.04900000095 0.4066708166
v -0.0294231391 0.04900000095 0.4049352819
v -0.02806624413 0.04900000095 0.4038531953
v -0.02637422323 0.04900000095 0.4042393858
v -0.0294231391 0.05199999809 0.4066708166
v -0.0294231391 0.04900000095 0.4066708166
v -0.02562120199 0.04900000095 0.4058030492
v -0.02637422323 0.04900000095 0.4042393858
v -0.02806624413 0.04900000095 0.4038531953
v -0.0294231391 0.04900000095 0.4049352819
v -0.0294231391 0.04900000095 0.4066708166
v -0.02806624413 0.04900000095 0.4077529031
v -0.02637422323 0.04900000095 0.4073667127
v -0.02882120132 0.04900000095 0.4058030492
v -0.02799202204 0.04900000095 0.4046617777
v -0.02665038109 0.04900000095 0.4050977022
v -0.02665038109 0.04900000095 0.4065083868
v -0.02799202204 0.04900000095 0.4069443113
v 0.02962120295 0.04900000095 0.4058030492
v 0.02886818171 0.04900000095 0.4042393858
v 0.02717616081 0.04900000095 0.4038531953
v 0.02581926346 0.04900000095 0.4049352819
v 0.02581926346 0.04900000095 0.4066708166
v 0.02717616081 0.04900000095 0.4077529031
v 0.02886818171 0.04900000095 0.4073667127
v 0.02642120123 0.04900000095 0.4058030492
v 0.0272503829 0.04900000095 0.4046617777
v 0.02859202147 0.04900000095 0.4050977022
v 0.02859202147 0.04900000095 0.4065083868
v 0.0272503829 0.04900000095 0.4069443113
v -0.02562120199 0.04900000095 0.4339504511
v -0.02637422323 0.04900000095 0.4323867876
v -0.02806624413 0.04900000095 0.4320006067
v -0.0294231391 0.04900000095 0.4330826837
v -0.0294231391 0.04900000095 0.4348182184
v -0.02806624413 0.04900000095 0.4359003145
v -0.02637422323 0.04900000095 0.4355141145
v -0.02882120132 0.04900000095 0.4339504511
v -0.02799202204 0.04900000095 0.432809189
v -0.02665038109 0.04900000095 0.4332451135
v -0.02665038109 0.04900000095 0.4346558077
v -0.02799202204 0.04900000095 0.4350917322
f 2 10 1
f 1 10 11
f 1 11 7
f 7 11 12
f 7 12 6
f 6 12 5
f 5 12 8
f 5 8 4
f 4 8 9
f 4 9 3
f 3 9 2
f 2 9 10
f 22 13 21
f 21 13 14
f 21 14 20
f 20 14 15
f 20 15 19
f 19 15 16
f 19 16 18
f 18 16 17
f 23 24 34
f 34 24 25
f 34 25 27
f 27 25 26
f 27 28 34
f 34 28 33
f 33 28 31
f 33 31 32
f 29 30 28
f 28 30 31
f 35 36 38
f 38 36 37
f 39 40 50
f 50 40 41
f 50 41 43
f 43 41 42
f 43 44 50
f 50 44 49
f 49 44 47
f 49 47 48
f 45 46 44
f 44 46 47
f 51 52 58
f 58 52 53
f 58 53 57
f 57 53 54
f 57 54 56
f 56 54 55
f 59 60 72
f 72 60 61
f 72 61 63
f 63 61 62
f 63 64 72
f 72 64 71
f 71 64 65
f 71 65 70
f 70 65 68
f 70 68 69
f 66 67 65
f 65 67 68
f 74 75 73
f 73 75 76
f 77 78 88
f 88 78 79
f 88 79 81
f 81 79 80
f 81 82 88
f 88 82 87
f 87 82 85
f 87 85 86
f 83 84 82
f 82 84 85
f 89 90 102
f 102 90 91
f 102 91 93
f 93 91 92
f 93 94 102
f 102 94 101
f 101 94 95
f 101 95 100
f 100 95 98
f 100 98 99
f 96 97 95
f 95 97 98
f 103 104 114
f 114 104 105
f 114 105 107
f 107 105 106
f 107 108 114
f 114 108 113
f 113 108 111
f 113 111 112
f 109 110 108
f 108 110 111
f 115 116 126
f 126 116 117
f 126 117 119
f 119 117 118
f 119 120 126
f 126 120 125
f 125 120 123
f 125 123 124
f 121 122 120
f 120 122 123
f 127 128 138
f 138 128 129
f 138 129 131
f 131 129 130
f 138 131 137
f 137 131 132
f 137 132 135
f 135 132 134
f 134 132 133
f 135 136 137
f 139 140 148
f 148 140 141
f 148 141 147
f 147 141 142
f 147 142 145
f 145 142 144
f 144 142 143
f 145 146 147
f 149 150 162
f 162 150 151
f 162 151 153
f 153 151 152
f 153 154 162
f 162 154 161
f 161 154 155
f 161 155 160
f 160 155 158
f 160 158 159
f 156 157 155
f 155 157 158
f 163 164 174
f 174 164 165
f 174 165 167
f 167 165 166
f 167 168 174
f 174 168 173
f 173 168 171
f 173 171 172
f 169 170 168
f 168 170 171
f 175 176 178
f 178 176 177
f 179 180 182
f 182 180 181
f 184 185 183
f 183 185 186
f 188 189 187
f 187 189 196
f 196 189 190
f 196 190 195
f 195 190 192
f 195 192 193
f 190 191 192
f 193 194 195
f 204 197 203
f 203 197 198
f 203 198 202
f 202 198 199
f 202 199 201
f 201 199 200
f 205 206 212
f 212 206 207
f 212 207 211
f 211 207 208
f 211 208 210
f 210 208 209
f 214 220 213
f 213 220 221
f 213 221 264
f 264 221 234
f 264 234 251
f 251 234 242
f 251 242 243
f 214 215 220
f 220 215 219
f 219 215 216
f 219 216 217
f 217 218 219
f 234 221 233
f 233 221 222
f 233 222 228
f 228 222 227
f 227 222 223
f 227 223 226
f 226 223 225
f 225 223 224
f 233 228 232
f 232 228 229
f 232 229 230
f 230 231 232
f 234 235 242
f 242 235 241
f 241 235 240
f 240 235 236
f 240 236 239
f 239 236 238
f 238 236 237
f 251 243 250
f 250 243 244
f 250 244 245
f 250 245 249
f 249 245 246
f 249 246 247
f 247 248 249
f 264 251 263
f 263 251 252
f 263 252 258
f 258 252 257
f 257 252 253
f 257 253 256
f 256 253 255
f 255 253 254
f 263 258 262
f 262 258 259
f 262 259 260
f 260 261 262
f 213 264 272
f 272 264 265
f 272 265 271
f 271 265 270
f 270 265 266
f 270 266 269
f 269 266 268
f 268 266 267
f 273 274 280
f 280 274 275
f 280 275 276
f 277 278 276
f 276 278 279
f 276 279 280
f 281 282 288
f 288 282 283
f 288 283 284
f 285 286 284
f 284 286 287
f 284 287 288
f 289 290 294
f 294 290 291
f 294 291 293
f 293 291 292
f 295 296 302
f 302 296 297
f 302 297 298
f 299 300 298
f 298 300 301
f 298 301 302
f 303 304 312
f 312 304 305
f 312 305 311
f 311 305 306
f 311 306 310
f 310 306 307
f 310 307 309
f 309 307 308
f 322 313 321
f 321 313 314
f 321 314 320
f 320 314 315
f 320 315 319
f 319 315 316
f 319 316 318
f 318 316 317
f 324 325 323
f 323 325 332
f 332 325 326
f 332 326 331
f 331 326 328
f 331 328 329
f 326 327 328
f 329 330 331
f 333 334 344
f 344 334 335
f 344 335 337
f 337 335 336
f 344 337 343
f 343 337 338
f 343 338 341
f 341 338 340
f 340 338 339
f 341 342 343
f 345 346 352
f 352 346 347
f 352 347 348
f 349 350 348
f 348 350 351
f 348 351 352
f 353 354 360
f 360 354 355
f 360 355 356
f 357 358 356
f 356 358 359
f 356 359 360
f 361 362 368
f 368 362 363
f 368 363 367
f 367 363 364
f 367 364 366
f 366 364 365
f 369 370 382
f 382 370 371
f 382 371 373
f 373 371 372
f 373 374 382
f 382 374 381
f 381 374 375
f 381 375 380
f 380 375 378
f 380 378 379
f 376 377 375
f 375 377 378
f 383 384 394
f 394 384 387
f 394 387 393
f 393 387 388
f 393 388 391
f 391 388 390
f 390 388 389
f 384 385 387
f 387 385 386
f 391 392 393
f 395 396 406
f 406 396 397
f 406 397 399
f 399 397 398
f 399 400 406
f 406 400 405
f 405 400 403
f 405 403 404
f 401 402 400
f 400 402 403
f 407 408 414
f 414 408 409
f 414 409 410
f 411 412 410
f 410 412 413
f 410 413 414
f 415 416 426
f 426 416 417
f 426 417 419
f 419 417 418
f 419 420 426
f 426 420 425
f 425 420 423
f 425 423 424
f 421 422 420
f 420 422 423
f 427 428 436
f 436 428 429
f 436 429 435
f 435 429 430
f 435 430 434
f 434 430 431
f 434 431 433
f 433 431 432
f 437 438 463
f 463 438 462
f 462 438 461
f 461 438 439
f 461 439 460
f 460 439 440
f 460 440 459
f 459 440 441
f 459 441 458
f 458 441 442
f 458 442 457
f 457 442 443
f 457 443 456
f 456 443 444
f 456 444 455
f 455 444 445
f 455 445 454
f 454 445 446
f 454 446 453
f 453 446 447
f 453 447 452
f 452 447 448
f 452 448 451
f 451 448 450
f 450 448 449
f 465 471 464
f 464 471 472
f 464 472 470
f 470 472 473
f 470 473 469
f 469 473 479
f 469 479 468
f 478 474 475
f 478 475 467
f 467 475 476
f 467 476 466
f 466 476 477
f 466 477 465
f 465 477 471
f 481 486 480
f 480 486 487
f 480 487 488
f 482 483 481
f 481 483 484
f 481 484 485
f 485 486 481
f 488 489 480
f 480 489 490
f 480 490 491
f 492 493 503
f 503 493 494
f 503 494 495
f 495 496 503
f 503 496 497
f 503 497 502
f 502 497 498
f 502 498 499
f 499 500 502
f 502 500 501
f 504 505 530
f 530 505 529
f 529 505 528
f 528 505 506
f 528 506 527
f 527 506 507
f 527 507 526
f 526 507 508
f 526 508 525
f 525 508 509
f 525 509 524
f 524 509 510
f 524 510 523
f 523 510 511
f 523 511 522
f 522 511 512
f 522 512 521
f 521 512 513
f 521 513 520
f 520 513 514
f 520 514 519
f 519 514 515
f 519 515 518
f 518 515 517
f 517 515 516
f 532 538 531
f 531 538 539
f 531 539 537
f 537 539 540
f 537 540 536
f 536 540 546
f 536 546 535
f 545 541 542
f 545 542 534
f 534 542 543
f 534 543 533
f 533 543 544
f 533 544 532
f 532 544 538
f 570 547 569
f 569 547 548
f 569 548 568
f 568 548 549
f 568 549 567
f 567 549 550
f 567 550 566
f 566 550 551
f 566 551 565
f 565 551 552
f 565 552 564
f 564 552 553
f 564 553 563
f 563 553 554
f 563 554 562
f 562 554 555
f 562 555 561
f 561 555 556
f 561 556 560
f 560 556 557
f 560 557 559
f 559 557 558
f 578 571 577
f 577 571 572
f 577 572 576
f 576 572 573
f 576 573 575
f 575 573 574
f 586 579 585
f 585 579 580
f 585 580 584
f 584 580 581
f 584 581 583
f 583 581 582
f 588 594 587
f 587 594 595
f 587 595 593
f 593 595 596
f 593 596 592
f 592 596 602
f 592 602 591
f 601 597 598
f 601 598 590
f 590 598 599
f 590 599 589
f 589 599 600
f 589 600 588
f 588 600 594
f 604 612 603
f 603 612 613
f 614 608 607
f 607 608 609
f 607 609 606
f 606 609 610
f 606 610 605
f 605 610 611
f 605 611 604
f 604 611 612
f 638 615 637
f 637 615 616
f 637 616 636
f 636 616 617
f 636 617 635
f 635 617 618
f 635 618 634
f 634 618 619
f 634 619 633
f 633 619 620
f 633 620 632
f 632 620 621
f 632 621 631
f 631 621 622
f 631 622 630
f 630 622 623
f 630 623 629
f 629 623 624
f 629 624 628
f 628 624 625
f 628 625 627
f 627 625 626
f 676 639 670
f 670 639 640
f 670 640 669
f 669 640 641
f 669 641 668
f 668 641 642
f 668 642 667
f 667 642 643
f 667 643 666
f 666 643 644
f 666 644 665
f 665 644 645
f 665 645 646
f 665 646 664
f 664 646 647
f 664 647 663
f 663 647 648
f 663 648 662
f 662 648 649
f 662 649 661
f 661 649 650
f 661 650 660
f 660 650 651
f 660 651 659
f 659 651 652
f 659 652 653
f 654 655 653
f 653 655 656
f 653 656 658
f 658 656 657
f 658 659 653
f 670 671 676
f 676 671 673
f 676 673 674
f 671 672 673
f 674 675 676
f 678 679 677
f 677 679 680
f 682 690 681
f 681 690 691
f 692 686 685
f 685 686 687
f 685 687 684
f 684 687 688
f 684 688 683
f 683 688 689
f 683 689 682
f 682 689 690
f 693 694 705
f 705 694 695
f 705 695 706
f 706 695 710
f 710 695 696
f 710 696 697
f 710 697 709
f 709 697 698
f 709 698 699
f 709 699 708
f 708 699 700
f 708 700 701
f 702 704 701
f 701 704 707
f 701 707 708
f 702 703 704
f 707 704 706
f 706 704 705
f 711 712 732
f 732 712 713
f 732 713 714
f 732 714 731
f 731 714 715
f 731 715 730
f 730 715 729
f 729 715 716
f 729 716 728
f 728 716 717
f 728 717 727
f 727 717 718
f 727 718 719
f 727 719 726
f 726 719 720
f 726 720 725
f 725 720 721
f 725 721 724
f 724 721 722
f 724 722 723
f 734 763 733
f 733 763 764
f 733 764 765
f 763 734 762
f 762 734 735
f 762 735 761
f 761 735 736
f 761 736 760
f 760 736 737
f 760 737 759
f 759 737 738
f 759 738 758
f 758 738 739
f 758 739 757
f 757 739 756
f 756 739 740
f 756 740 755
f 755 740 741
f 755 741 754
f 754 741 742
f 754 742 753
f 753 742 743
f 753 743 752
f 752 743 744
f 752 744 751
f 751 744 750
f 750 744 745
f 750 745 747
f 747 745 746
f 747 748 750
f 750 748 749
f 766 767 765
f 765 767 768
f 765 768 770
f 770 768 769
f 770 733 765
f 778 771 777
f 777 771 772
f 777 772 776
f 776 772 773
f 776 773 775
f 775 773 774
f 780 788 779
f 779 788 789
f 790 784 783
f 783 784 785
f 783 785 782
f 782 785 786
f 782 786 781
f 781 786 787
f 781 787 780
f 780 787 788
f 792 800 791
f 791 800 801
f 802 796 795
f 795 796 797
f 795 797 794
f 794 797 798
f 794 798 793
f 793 798 799
f 793 799 792
f 792 799 800
f 804 819 803
f 803 819 820
f 803 820 815
f 815 820 816
f 815 816 814
f 814 816 813
f 813 816 812
f 812 816 817
f 812 817 811
f 811 817 808
f 811 808 810
f 810 808 809
f 819 804 807
f 807 804 805
f 807 805 806
f 819 807 818
f 818 807 808
f 818 808 817
f 821 822 828
f 828 822 823
f 828 823 827
f 827 823 824
f 827 824 826
f 826 824 825
f 829 830 836
f 836 830 831
f 836 831 835
f 835 831 832
f 835 832 834
f 834 832 833
f 876 837 859
f 859 837 838
f 859 838 858
f 858 838 839
f 858 839 841
f 841 839 840
f 858 841 857
f 857 841 842
f 857 842 843
f 857 843 856
f 856 843 844
f 856 844 855
f 855 844 846
f 855 846 847
f 844 845 846
f 848 849 847
f 847 849 854
f 847 854 855
f 854 849 853
f 853 849 850
f 853 850 851
f 851 852 853
f 859 860 876
f 876 860 875
f 875 860 874
f 874 860 861
f 874 861 873
f 873 861 862
f 873 862 871
f 871 862 870
f 870 862 863
f 870 863 869
f 869 863 868
f 868 863 864
f 868 864 867
f 867 864 866
f 866 864 865
f 871 872 873
f 877 878 889
f 889 878 879
f 889 879 894
f 894 879 893
f 893 879 880
f 893 880 881
f 893 881 892
f 892 881 882
f 892 882 883
f 892 883 891
f 891 883 884
f 891 884 885
f 886 888 885
f 885 888 890
f 885 890 891
f 886 887 888
f 888 889 890
f 890 889 894
f 895 896 898
f 898 896 897
f 899 900 906
f 906 900 901
f 906 901 905
f 905 901 902
f 905 902 904
f 904 902 903
f 928 907 927
f 927 907 908
f 927 908 926
f 926 908 909
f 926 909 925
f 925 909 910
f 925 910 924
f 924 910 911
f 924 911 923
f 923 911 912
f 923 912 922
f 922 912 913
f 922 913 921
f 921 913 914
f 921 914 920
f 920 914 915
f 920 915 919
f 919 915 916
f 919 916 918
f 918 916 917
f 929 930 968
f 968 930 935
f 968 935 936
f 935 930 934
f 934 930 931
f 934 931 932
f 932 933 934
f 937 965 936
f 936 965 967
f 936 967 968
f 965 937 964
f 964 937 938
f 964 938 963
f 963 938 962
f 962 938 939
f 962 939 960
f 960 939 959
f 959 939 940
f 959 940 958
f 958 940 957
f 957 940 941
f 957 941 956
f 956 941 955
f 955 941 942
f 955 942 954
f 954 942 943
f 954 943 952
f 952 943 951
f 951 943 944
f 951 944 950
f 950 944 949
f 949 944 945
f 949 945 948
f 948 945 947
f 947 945 946
f 952 953 954
f 960 961 962
f 965 966 967
f 969 970 981
f 981 970 971
f 981 971 984
f 984 971 972
f 984 972 983
f 983 972 973
f 983 973 982
f 982 973 974
f 982 974 975
f 975 976 982
f 982 976 986
f 986 976 977
f 986 977 980
f 980 977 978
f 980 978 979
f 986 980 985
f 985 980 981
f 985 981 984
f 1012 987 1031
f 1031 987 988
f 1031 988 1030
f 1030 988 989
f 1030 989 990
f 991 1028 990
f 990 1028 1029
f 990 1029 1030
f 992 1033 991
f 991 1033 1027
f 991 1027 1028
f 1033 992 1032
f 1032 992 993
f 1032 993 1015
f 1015 993 994
f 1015 994 1014
f 1014 994 995
f 1014 995 1013
f 1013 995 1019
f 1019 995 996
f 1019 996 1018
f 1018 996 1017
f 1017 996 997
f 1017 997 998
f 1017 998 1016
f 1016 998 999
f 1016 999 1000
f 1016 1000 1034
f 1034 1000 1001
f 1034 1001 1002
f 1034 1002 1040
f 1040 1002 1003
f 1040 1003 1039
f 1039 1003 1004
f 1039 1004 1038
f 1038 1004 1037
f 1037 1004 1005
f 1037 1005 1036
f 1036 1005 1035
f 1035 1005 1006
f 1035 1006 1026
f 1026 1006 1007
f 1026 1007 1025
f 1025 1007 1024
f 1024 1007 1008
f 1024 1008 1023
f 1023 1008 1022
f 1022 1008 1009
f 1022 1009 1021
f 1021 1009 1010
f 1021 1010 1020
f 1020 1010 1011
f 1020 1011 1012
f 1020 1012 1031
f 1032 1015 1031
f 1031 1015 1016
f 1031 1016 1026
f 1026 1016 1035
f 1026 1020 1031
f 1034 1035 1016
f 1042 1048 1041
f 1041 1048 1049
f 1041 1049 1047
f 1047 1049 1050
f 1047 1050 1046
f 1046 1050 1056
f 1046 1056 1045
f 1055 1051 1052
f 1055 1052 1044
f 1044 1052 1053
f 1044 1053 1043
f 1043 1053 1054
f 1043 1054 1042
f 1042 1054 1048
f 1058 1066 1057
f 1057 1066 1067
f 1057 1067 1063
f 1063 1067 1068
f 1063 1068 1062
f 1062 1068 1061
f 1061 1068 1064
f 1061 1064 1060
f 1060 1064 1065
f 1060 1065 1059
f 1059 1065 1058
f 1058 1065 1066
f 1070 1078 1069
f 1069 1078 1079
f 1069 1079 1075
f 1075 1079 1080
f 1075 1080 1074
f 1074 1080 1073
f 1073 1080 1076
f 1073 1076 1072
f 1072 1076 1077
f 1072 1077 1071
f 1071 1077 1070
f 1070 1077 1078
f 1082 1090 1081
f 1081 1090 1091
f 1081 1091 1087
f 1087 1091 1092
f 1087 1092 1086
f 1086 1092 1085
f 1085 1092 1088
f 1085 1088 1084
f 1084 1088 1089
f 1084 1089 1083
f 1083 1089 1082
f 1082 1089 1090
