v -0.2389999962 0.1005000019 0.09800000191
v -0.2389999962 0.02049999952 0.01799999952
v -0.235 0.02049999952 0.01799999952
v -0.235 0.1005000019 0.09800000191
v -0.2389999962 0.1005000019 0.01799999952
v -0.2389999962 0.1005000019 0.09800000191
v -0.235 0.1005000019 0.09800000191
v -0.235 0.1005000019 0.01799999952
v -0.2389999962 0.02049999952 0.01799999952
v -0.2389999962 0.1005000019 0.01799999952
v -0.235 0.1005000019 0.01799999952
v -0.235 0.02049999952 0.01799999952
v -0.235 0.08774999619 0.07800000191
v -0.235 0.08855545998 0.07994454384
v -0.235 0.09050000191 0.08074999809
v -0.235 0.09244454384 0.07994454384
v -0.235 0.09324999809 0.07800000191
v -0.235 0.09244454384 0.07605545521
v -0.235 0.09050000191 0.07525000095
v -0.235 0.08855545998 0.07605545521
v -0.235 0.08774999619 0.04800000191
v -0.235 0.08855545998 0.04994454384
v -0.235 0.09050000191 0.05074999809
v -0.235 0.09244454384 0.04994454384
v -0.235 0.09324999809 0.04800000191
v -0.235 0.09244454384 0.04605545521
v -0.235 0.09050000191 0.04525000095
v -0.235 0.08855545998 0.04605545521
v -0.235 0.07775000095 0.02799999952
v -0.235 0.07855545521 0.02994454384
v -0.235 0.08050000191 0.03075000048
v -0.235 0.08244454384 0.02994454384
v -0.235 0.08324999809 0.02799999952
v -0.235 0.08244454384 0.02605545521
v -0.235 0.08050000191 0.02525000095
v -0.235 0.07855545521 0.02605545521
v -0.235 0.03775000095 0.02799999952
v -0.235 0.03855545521 0.02994454384
v -0.235 0.04050000191 0.03075000048
v -0.235 0.04244454384 0.02994454384
v -0.235 0.04324999809 0.02799999952
v -0.235 0.04244454384 0.02605545521
v -0.235 0.04050000191 0.02525000095
v -0.235 0.03855545521 0.02605545521
v -0.235 0.1005000019 0.09800000191
v -0.235 0.02049999952 0.01799999952
v -0.235 0.1005000019 0.01799999952
v -0.2389999962 0.08774999619 0.07800000191
v -0.2389999962 0.08855545998 0.07605545521
v -0.2389999962 0.09050000191 0.07525000095
v -0.2389999962 0.09244454384 0.07605545521
v -0.2389999962 0.09324999809 0.07800000191
v -0.2389999962 0.09244454384 0.07994454384
v -0.2389999962 0.09050000191 0.08074999809
v -0.2389999962 0.08855545998 0.07994454384
v -0.2389999962 0.08774999619 0.04800000191
v -0.2389999962 0.08855545998 0.04605545521
v -0.2389999962 0.09050000191 0.04525000095
v -0.2389999962 0.09244454384 0.04605545521
v -0.2389999962 0.09324999809 0.04800000191
v -0.2389999962 0.09244454384 0.04994454384
v -0.2389999962 0.09050000191 0.05074999809
v -0.2389999962 0.08855545998 0.04994454384
v -0.2389999962 0.07775000095 0.02799999952
v -0.2389999962 0.07855545521 0.02605545521
v -0.2389999962 0.08050000191 0.02525000095
v -0.2389999962 0.08244454384 0.02605545521
v -0.2389999962 0.08324999809 0.02799999952
v -0.2389999962 0.08244454384 0.02994454384
v -0.2389999962 0.08050000191 0.03075000048
v -0.2389999962 0.07855545521 0.02994454384
v -0.2389999962 0.03775000095 0.02799999952
v -0.2389999962 0.03855545521 0.02605545521
v -0.2389999962 0.04050000191 0.02525000095
v -0.2389999962 0.04244454384 0.02605545521
v -0.2389999962 0.04324999809 0.02799999952
v -0.2389999962 0.04244454384 0.02994454384
v -0.2389999962 0.04050000191 0.03075000048
v -0.2389999962 0.03855545521 0.02994454384
v -0.2389999962 0.02049999952 0.01799999952
v -0.2389999962 0.1005000019 0.09800000191
v -0.2389999962 0.1005000019 0.01799999952
v -0.235 0.08774999619 0.07800000191
v -0.235 0.08855545998 0.07605545521
v -0.235 0.09050000191 0.07525000095
v -0.235 0.09244454384 0.07605545521
v -0.235 0.09324999809 0.07800000191
v -0.235 0.09244454384 0.07994454384
v -0.235 0.09050000191 0.08074999809
v -0.235 0.08855545998 0.07994454384
v -0.2389999962 0.08774999619 0.07800000191
v -0.2389999962 0.08855545998 0.07994454384
v -0.2389999962 0.09050000191 0.08074999809
v -0.2389999962 0.09244454384 0.07994454384
v -0.2389999962 0.09324999809 0.07800000191
v -0.2389999962 0.09244454384 0.07605545521
v -0.2389999962 0.09050000191 0.07525000095
v -0.2389999962 0.08855545998 0.07605545521
v -0.235 0.08774999619 0.07800000191
v -0.2389999962 0.08774999619 0.07800000191
v -0.235 0.08774999619 0.04800000191
v -0.235 0.08855545998 0.04605545521
v -0.235 0.09050000191 0.04525000095
v -0.235 0.09244454384 0.04605545521
v -0.235 0.09324999809 0.04800000191
v -0.235 0.09244454384 0.04994454384
v -0.235 0.09050000191 0.05074999809
v -0.235 0.08855545998 0.04994454384
v -0.2389999962 0.08774999619 0.04800000191
v -0.2389999962 0.08855545998 0.04994454384
v -0.2389999962 0.09050000191 0.05074999809
v -0.2389999962 0.09244454384 0.04994454384
v -0.2389999962 0.09324999809 0.04800000191
v -0.2389999962 0.09244454384 0.04605545521
v -0.2389999962 0.09050000191 0.04525000095
v -0.2389999962 0.08855545998 0.04605545521
v -0.235 0.08774999619 0.04800000191
v -0.2389999962 0.08774999619 0.04800000191
v -0.235 0.03775000095 0.02799999952
v -0.235 0.03855545521 0.02605545521
v -0.235 0.04050000191 0.02525000095
v -0.235 0.04244454384 0.02605545521
v -0.235 0.04324999809 0.02799999952
v -0.235 0.04244454384 0.02994454384
v -0.235 0.04050000191 0.03075000048
v -0.235 0.03855545521 0.02994454384
v -0.2389999962 0.03775000095 0.02799999952
v -0.2389999962 0.03855545521 0.02994454384
v -0.2389999962 0.04050000191 0.03075000048
v -0.2389999962 0.04244454384 0.02994454384
v -0.2389999962 0.04324999809 0.02799999952
v -0.2389999962 0.04244454384 0.02605545521
v -0.2389999962 0.04050000191 0.02525000095
v -0.2389999962 0.03855545521 0.02605545521
v -0.235 0.03775000095 0.02799999952
v -0.2389999962 0.03775000095 0.02799999952
v -0.235 0.07775000095 0.02799999952
v -0.235 0.07855545521 0.02605545521
v -0.235 0.08050000191 0.02525000095
v -0.235 0.08244454384 0.02605545521
v -0.235 0.08324999809 0.02799999952
v -0.235 0.08244454384 0.02994454384
v -0.235 0.08050000191 0.03075000048
v -0.235 0.07855545521 0.02994454384
v -0.2389999962 0.07775000095 0.02799999952
v -0.2389999962 0.07855545521 0.02994454384
v -0.2389999962 0.08050000191 0.03075000048
v -0.2389999962 0.08244454384 0.02994454384
v -0.2389999962 0.08324999809 0.02799999952
v -0.2389999962 0.08244454384 0.02605545521
v -0.2389999962 0.08050000191 0.02525000095
v -0.2389999962 0.07855545521 0.02605545521
v -0.235 0.07775000095 0.02799999952
v -0.2389999962 0.07775000095 0.02799999952
f 1 2 4
f 4 2 3
f 5 6 8
f 8 6 7
f 9 10 12
f 12 10 11
f 14 38 13
f 13 38 39
f 13 39 20
f 20 39 40
f 20 40 22
f 22 40 21
f 21 40 30
f 21 30 31
f 15 45 14
f 14 45 46
f 14 46 38
f 38 46 37
f 37 46 44
f 44 46 43
f 43 46 47
f 43 47 35
f 35 47 34
f 34 47 33
f 33 47 26
f 33 26 27
f 15 16 45
f 45 16 17
f 45 17 25
f 25 17 18
f 25 18 24
f 24 18 19
f 24 19 23
f 23 19 20
f 23 20 22
f 45 25 47
f 47 25 26
f 33 27 32
f 32 27 28
f 32 28 31
f 31 28 21
f 30 40 29
f 29 40 41
f 29 41 36
f 36 41 42
f 36 42 35
f 35 42 43
f 49 78 48
f 48 78 79
f 48 79 55
f 55 79 80
f 55 80 81
f 50 62 49
f 49 62 63
f 49 63 77
f 77 63 56
f 77 56 71
f 71 56 70
f 70 56 57
f 70 57 69
f 69 57 58
f 69 58 68
f 68 58 59
f 68 59 82
f 82 59 60
f 82 60 81
f 81 60 52
f 81 52 53
f 62 50 61
f 61 50 51
f 61 51 60
f 60 51 52
f 53 54 81
f 81 54 55
f 65 75 64
f 64 75 76
f 64 76 71
f 71 76 77
f 75 65 74
f 74 65 66
f 74 66 80
f 80 66 82
f 82 66 67
f 82 67 68
f 79 72 80
f 80 72 73
f 80 73 74
f 77 78 49
f 84 98 83
f 83 98 100
f 99 91 90
f 90 91 92
f 90 92 89
f 89 92 93
f 89 93 88
f 88 93 94
f 88 94 87
f 87 94 95
f 87 95 86
f 86 95 96
f 86 96 85
f 85 96 97
f 85 97 84
f 84 97 98
f 102 116 101
f 101 116 118
f 117 109 108
f 108 109 110
f 108 110 107
f 107 110 111
f 107 111 106
f 106 111 112
f 106 112 105
f 105 112 113
f 105 113 104
f 104 113 114
f 104 114 103
f 103 114 115
f 103 115 102
f 102 115 116
f 120 134 119
f 119 134 136
f 135 127 126
f 126 127 128
f 126 128 125
f 125 128 129
f 125 129 124
f 124 129 130
f 124 130 123
f 123 130 131
f 123 131 122
f 122 131 132
f 122 132 121
f 121 132 133
f 121 133 120
f 120 133 134
f 138 152 137
f 137 152 154
f 153 145 144
f 144 145 146
f 144 146 143
f 143 146 147
f 143 147 142
f 142 147 148
f 142 148 141
f 141 148 149
f 141 149 140
f 140 149 150
f 140 150 139
f 139 150 151
f 139 151 138
f 138 151 152
