v 0.2225 0.08600000381 0.4198767549
v 0.2232322311 0.08600000381 0.4216445238
v 0.225 0.08600000381 0.4223767549
v 0.2267677689 0.08600000381 0.4216445238
v 0.2275 0.08600000381 0.4198767549
v 0.2267677689 0.08600000381 0.4181089861
v 0.225 0.08600000381 0.4173767549
v 0.2232322311 0.08600000381 0.4181089861
v 0.2225 0.08600000381 0.4198767549
v 0.2232322311 0.08600000381 0.4181089861
v 0.225 0.08600000381 0.4173767549
v 0.2267677689 0.08600000381 0.4181089861
v 0.2275 0.08600000381 0.4198767549
v 0.2267677689 0.08600000381 0.4216445238
v 0.225 0.08600000381 0.4223767549
v 0.2232322311 0.08600000381 0.4216445238
v 0.2225 0.07099999905 0.4198767549
v 0.2232322311 0.07099999905 0.4216445238
v 0.225 0.07099999905 0.4223767549
v 0.2267677689 0.07099999905 0.4216445238
v 0.2275 0.07099999905 0.4198767549
v 0.2267677689 0.07099999905 0.4181089861
v 0.225 0.07099999905 0.4173767549
v 0.2232322311 0.07099999905 0.4181089861
v 0.2225 0.07099999905 0.4198767549
v 0.2225 0.08600000381 0.4198767549
v 0.2125 0.07099999905 0.4198767549
v 0.2134514999 0.07099999905 0.4150932008
v 0.2161611557 0.07099999905 0.4110379106
v 0.220216465 0.07099999905 0.4083282549
v 0.225 0.07099999905 0.4073767549
v 0.229783535 0.07099999905 0.4083282549
v 0.2338388443 0.07099999905 0.4110379106
v 0.2365485001 0.07099999905 0.4150932008
v 0.2375 0.07099999905 0.4198767549
v 0.2365485001 0.07099999905 0.4246602899
v 0.2338388443 0.07099999905 0.4287155801
v 0.229783535 0.07099999905 0.431425255
v 0.225 0.07099999905 0.4323767549
v 0.220216465 0.07099999905 0.431425255
v 0.2161611557 0.07099999905 0.4287155801
v 0.2134514999 0.07099999905 0.4246602899
v 0.2125 0.055 0.4198767549
v 0.2134514999 0.055 0.4246602899
v 0.2161611557 0.055 0.4287155801
v 0.220216465 0.055 0.431425255
v 0.225 0.055 0.4323767549
v 0.229783535 0.055 0.431425255
v 0.2338388443 0.055 0.4287155801
v 0.2365485001 0.055 0.4246602899
v 0.2375 0.055 0.4198767549
v 0.2365485001 0.055 0.4150932008
v 0.2338388443 0.055 0.4110379106
v 0.229783535 0.055 0.4083282549
v 0.225 0.055 0.4073767549
v 0.220216465 0.055 0.4083282549
v 0.2161611557 0.055 0.4110379106
v 0.2134514999 0.055 0.4150932008
v 0.2125 0.055 0.4198767549
v 0.2125 0.07099999905 0.4198767549
v 0.2125 0.055 0.4198767549
v 0.2134514999 0.055 0.4150932008
v 0.2161611557 0.055 0.4110379106
v 0.220216465 0.055 0.4083282549
v 0.225 0.055 0.4073767549
v 0.229783535 0.055 0.4083282549
v 0.2338388443 0.055 0.4110379106
v 0.2365485001 0.055 0.4150932008
v 0.2375 0.055 0.4198767549
v 0.2365485001 0.055 0.4246602899
v 0.2338388443 0.055 0.4287155801
v 0.229783535 0.055 0.431425255
v 0.225 0.055 0.4323767549
v 0.220216465 0.055 0.431425255
v 0.2161611557 0.055 0.4287155801
v 0.2134514999 0.055 0.4246602899
v 0.2125 0.07099999905 0.4198767549
v 0.2134514999 0.07099999905 0.4246602899
v 0.2161611557 0.07099999905 0.4287155801
v 0.220216465 0.07099999905 0.431425255
v 0.225 0.07099999905 0.4323767549
v 0.229783535 0.07099999905 0.431425255
v 0.2338388443 0.07099999905 0.4287155801
v 0.2365485001 0.07099999905 0.4246602899
v 0.2375 0.07099999905 0.4198767549
v 0.2365485001 0.07099999905 0.4150932008
v 0.2338388443 0.07099999905 0.4110379106
v 0.229783535 0.07099999905 0.4083282549
v 0.225 0.07099999905 0.4073767549
v 0.220216465 0.07099999905 0.4083282549
v 0.2161611557 0.07099999905 0.4110379106
v 0.2134514999 0.07099999905 0.4150932008
v 0.2225 0.07099999905 0.4198767549
v 0.2232322311 0.07099999905 0.4181089861
v 0.225 0.07099999905 0.4173767549
v 0.2267677689 0.07099999905 0.4181089861
v 0.2275 0.07099999905 0.4198767549
v 0.2267677689 0.07099999905 0.4216445238
v 0.225 0.07099999905 0.4223767549
v 0.2232322311 0.07099999905 0.4216445238
f 2 4 1
f 1 4 5
f 1 5 8
f 8 5 6
f 8 6 7
f 2 3 4
f 10 24 9
f 9 24 25
f 26 17 16
f 16 17 18
f 16 18 19
f 10 11 24
f 24 11 23
f 23 11 12
f 23 12 22
f 22 12 13
f 22 13 21
f 21 13 14
f 21 14 20
f 20 14 15
f 20 15 19
f 19 15 16
f 28 58 27
f 27 58 59
f 60 43 42
f 42 43 44
f 42 44 41
f 41 44 45
f 41 45 40
f 40 45 46
f 40 46 39
f 39 46 47
f 39 47 38
f 38 47 48
f 38 48 37
f 37 48 49
f 37 49 36
f 36 49 50
f 36 50 35
f 35 50 51
f 35 51 34
f 34 51 52
f 34 52 33
f 33 52 53
f 33 53 32
f 32 53 54
f 32 54 31
f 31 54 55
f 31 55 30
f 30 55 56
f 30 56 29
f 29 56 57
f 29 57 28
f 28 57 58
f 62 68 61
f 61 68 69
f 61 69 76
f 76 69 70
f 76 70 75
f 75 70 71
f 75 71 74
f 74 71 72
f 74 72 73
f 68 62 67
f 67 62 63
f 67 63 66
f 66 63 64
f 66 64 65
f 92 77 93
f 93 77 78
f 93 78 100
f 100 78 79
f 100 79 80
f 100 80 99
f 99 80 81
f 99 81 82
f 99 82 98
f 98 82 83
f 98 83 84
f 98 84 97
f 97 84 85
f 97 85 86
f 97 86 96
f 96 86 87
f 96 87 88
f 96 88 95
f 95 88 89
f 95 89 90
f 95 90 94
f 94 90 91
f 94 91 92
f 94 92 93
