v 0.2035103035 0.06699999809 0.381876753
v 0.2058197021 0.06699999809 0.381876753
v 0.2069743919 0.06699999809 0.3798767549
v 0.2058197021 0.06699999809 0.3778767568
v 0.2035103035 0.06699999809 0.3778767568
v 0.2023555946 0.06699999809 0.3798767549
v 0.2004150009 0.06699999809 0.3798767549
v 0.2012266731 0.06699999809 0.3773786623
v 0.2033516693 0.06699999809 0.3758347589
v 0.2059783173 0.06699999809 0.3758347589
v 0.2081033134 0.06699999809 0.3773786623
v 0.2089150047 0.06699999809 0.3798767549
v 0.2081033134 0.06699999809 0.382374838
v 0.2059783173 0.06699999809 0.3839187414
v 0.2033516693 0.06699999809 0.3839187414
v 0.2012266731 0.06699999809 0.382374838
v 0.2004150009 0.07199999809 0.3798767549
v 0.2012266731 0.07199999809 0.3773786623
v 0.2033516693 0.07199999809 0.3758347589
v 0.2059783173 0.07199999809 0.3758347589
v 0.2081033134 0.07199999809 0.3773786623
v 0.2089150047 0.07199999809 0.3798767549
v 0.2081033134 0.07199999809 0.382374838
v 0.2059783173 0.07199999809 0.3839187414
v 0.2033516693 0.07199999809 0.3839187414
v 0.2012266731 0.07199999809 0.382374838
v 0.2004150009 0.06699999809 0.3798767549
v 0.2012266731 0.06699999809 0.382374838
v 0.2033516693 0.06699999809 0.3839187414
v 0.2059783173 0.06699999809 0.3839187414
v 0.2081033134 0.06699999809 0.382374838
v 0.2089150047 0.06699999809 0.3798767549
v 0.2081033134 0.06699999809 0.3773786623
v 0.2059783173 0.06699999809 0.3758347589
v 0.2033516693 0.06699999809 0.3758347589
v 0.2012266731 0.06699999809 0.3773786623
v 0.2004150009 0.06699999809 0.3798767549
v 0.2004150009 0.07199999809 0.3798767549
v 0.2058197021 0.06699999809 0.381876753
v 0.2035103035 0.06699999809 0.381876753
v 0.2035103035 0.06949999809 0.381876753
v 0.2058197021 0.06949999809 0.381876753
v 0.2035103035 0.06699999809 0.381876753
v 0.2023555946 0.06699999809 0.3798767549
v 0.2023555946 0.06949999809 0.3798767549
v 0.2035103035 0.06949999809 0.381876753
v 0.2058197021 0.06699999809 0.3778767568
v 0.2069743919 0.06699999809 0.3798767549
v 0.2069743919 0.06949999809 0.3798767549
v 0.2058197021 0.06949999809 0.3778767568
v 0.2069743919 0.06949999809 0.3798767549
v 0.2058197021 0.06949999809 0.381876753
v 0.2035103035 0.06949999809 0.381876753
v 0.2023555946 0.06949999809 0.3798767549
v 0.2035103035 0.06949999809 0.3778767568
v 0.2058197021 0.06949999809 0.3778767568
v 0.2023555946 0.06699999809 0.3798767549
v 0.2035103035 0.06699999809 0.3778767568
v 0.2035103035 0.06949999809 0.3778767568
v 0.2023555946 0.06949999809 0.3798767549
v 0.2035103035 0.06699999809 0.3778767568
v 0.2058197021 0.06699999809 0.3778767568
v 0.2058197021 0.06949999809 0.3778767568
v 0.2035103035 0.06949999809 0.3778767568
v 0.2069743919 0.06699999809 0.3798767549
v 0.2058197021 0.06699999809 0.381876753
v 0.2058197021 0.06949999809 0.381876753
v 0.2069743919 0.06949999809 0.3798767549
v 0.2004150009 0.07199999809 0.3798767549
v 0.2012266731 0.07199999809 0.382374838
v 0.2033516693 0.07199999809 0.3839187414
v 0.2059783173 0.07199999809 0.3839187414
v 0.2081033134 0.07199999809 0.382374838
v 0.2089150047 0.07199999809 0.3798767549
v 0.2081033134 0.07199999809 0.3773786623
v 0.2059783173 0.07199999809 0.3758347589
v 0.2033516693 0.07199999809 0.3758347589
v 0.2012266731 0.07199999809 0.3773786623
v 0.2021649933 0.07199999809 0.3798767549
v 0.2028972244 0.07199999809 0.3781089861
v 0.2046649933 0.07199999809 0.3773767549
v 0.2064327621 0.07199999809 0.3781089861
v 0.2071649933 0.07199999809 0.3798767549
v 0.2064327621 0.07199999809 0.3816445238
v 0.2046649933 0.07199999809 0.3823767549
v 0.2028972244 0.07199999809 0.3816445238
v 0.2021649933 0.1069999981 0.3798767549
v 0.2028972244 0.1069999981 0.3816445238
v 0.2046649933 0.1069999981 0.3823767549
v 0.2064327621 0.1069999981 0.3816445238
v 0.2071649933 0.1069999981 0.3798767549
v 0.2064327621 0.1069999981 0.3781089861
v 0.2046649933 0.1069999981 0.3773767549
v 0.2028972244 0.1069999981 0.3781089861
v 0.2021649933 0.1069999981 0.3798767549
v 0.2028972244 0.1069999981 0.3781089861
v 0.2046649933 0.1069999981 0.3773767549
v 0.2064327621 0.1069999981 0.3781089861
v 0.2071649933 0.1069999981 0.3798767549
v 0.2064327621 0.1069999981 0.3816445238
v 0.2046649933 0.1069999981 0.3823767549
v 0.2028972244 0.1069999981 0.3816445238
v 0.2021649933 0.07199999809 0.3798767549
v 0.2028972244 0.07199999809 0.3816445238
v 0.2046649933 0.07199999809 0.3823767549
v 0.2064327621 0.07199999809 0.3816445238
v 0.2071649933 0.07199999809 0.3798767549
v 0.2064327621 0.07199999809 0.3781089861
v 0.2046649933 0.07199999809 0.3773767549
v 0.2028972244 0.07199999809 0.3781089861
v 0.2021649933 0.07199999809 0.3798767549
v 0.2021649933 0.1069999981 0.3798767549
f 2 15 1
f 1 15 16
f 1 16 6
f 6 16 7
f 6 7 8
f 3 13 2
f 2 13 14
f 2 14 15
f 4 11 3
f 3 11 12
f 3 12 13
f 11 4 10
f 10 4 5
f 10 5 9
f 9 5 8
f 8 5 6
f 18 36 17
f 17 36 37
f 38 27 26
f 26 27 28
f 26 28 25
f 25 28 29
f 25 29 24
f 24 29 30
f 24 30 23
f 23 30 31
f 23 31 22
f 22 31 32
f 22 32 21
f 21 32 33
f 21 33 20
f 20 33 34
f 20 34 19
f 19 34 35
f 19 35 18
f 18 35 36
f 39 40 42
f 42 40 41
f 43 44 46
f 46 44 45
f 47 48 50
f 50 48 49
f 52 54 51
f 51 54 55
f 51 55 56
f 52 53 54
f 57 58 60
f 60 58 59
f 61 62 64
f 64 62 63
f 65 66 68
f 68 66 67
f 78 69 79
f 79 69 70
f 79 70 86
f 86 70 71
f 86 71 85
f 85 71 72
f 85 72 84
f 84 72 73
f 84 73 83
f 83 73 74
f 83 74 75
f 83 75 82
f 82 75 76
f 82 76 81
f 81 76 77
f 81 77 80
f 80 77 78
f 80 78 79
f 88 90 87
f 87 90 91
f 87 91 94
f 94 91 92
f 94 92 93
f 88 89 90
f 96 110 95
f 95 110 111
f 112 103 102
f 102 103 104
f 102 104 105
f 96 97 110
f 110 97 109
f 109 97 98
f 109 98 108
f 108 98 99
f 108 99 107
f 107 99 100
f 107 100 106
f 106 100 101
f 106 101 105
f 105 101 102
