v -0.1740781691 -0.003000000119 0.4254628363
v -0.1765172897 -0.003000000119 0.4272349497
v -0.1740781691 -0.003000000119 0.4254628363
v -0.1765172897 -0.003000000119 0.4272349497
v -0.1740781691 -0.003000000119 0.4254628363
v -0.1765172897 -0.003000000119 0.4272349497
v -0.1765172897 -0.003000000119 0.4272349497
v -0.1765172897 -0.003000000119 0.4272349497
v -0.1740781691 -0.003000000119 0.4254628363
v -0.1740781691 -0.003000000119 0.4254628363
v -0.1740781691 -0.003000000119 0.4254628363
v -0.1740781691 -0.003000000119 0.4254628363
v -0.1765172897 -0.003000000119 0.4272349497
v -0.1765172897 -0.003000000119 0.4272349497
v -0.1738088344 -0.003000000119 0.4265847202
v -0.1744116727 -0.003000000119 0.4275684533
v -0.1755335566 -0.003000000119 0.427837788
v -0.1767866244 -0.003000000119 0.4261130849
v -0.1767866244 -0.003000000119 0.4261130849
v -0.1761837861 -0.003000000119 0.4251293518
v -0.1761837861 -0.003000000119 0.4251293518
v -0.1750619022 -0.003000000119 0.424859998
v -0.1750619022 -0.003000000119 0.424859998
v -0.17474864 -0.003923120499 0.4252911928
v -0.1757407482 -0.004305489659 0.4257391129
v -0.1764733432 -0.003923120499 0.4265442607
v -0.1764733432 -0.002076879442 0.4265442607
v -0.1757407482 -0.00169451043 0.4257391129
v -0.17474864 -0.002076879442 0.4252911928
v -0.1741221157 -0.002076879442 0.4261535444
v -0.1748547106 -0.00169451043 0.4269586731
v -0.1758468188 -0.002076879442 0.4274066122
v -0.1758468188 -0.003923120499 0.4274066122
v -0.1748547106 -0.004305489659 0.4269586731
v -0.1741221157 -0.003923120499 0.4261535444
f 33 7 26
f 26 8 18
f 24 9 35
f 35 10 15
f 30 11 29
f 29 12 23
f 27 13 32
f 32 14 17
f 15 16 35
f 35 16 34
f 35 34 24
f 24 34 25
f 24 25 22
f 22 25 20
f 23 21 29
f 29 21 28
f 29 28 30
f 30 28 31
f 30 31 15
f 15 31 16
f 15 3 30
f 16 17 34
f 34 17 33
f 34 33 25
f 25 33 26
f 25 26 20
f 20 26 18
f 21 19 28
f 28 19 27
f 28 27 31
f 31 27 32
f 31 32 16
f 16 32 17
f 17 4 33
f 19 2 27
f 22 1 24
