v 0.205 0.195 0.03349999905
v 0.2071047592 0.1971047592 0.03308133841
v 0.2088890839 0.1988890839 0.03188908815
v 0.2100813293 0.2000813293 0.03010475874
v 0.2104999924 0.2004999924 0.02799999952
v 0.2100813293 0.2000813293 0.02589524031
v 0.2088890839 0.1988890839 0.02411091328
v 0.2071047592 0.1971047592 0.02291866302
v 0.205 0.195 0.0225
v 0.2071047592 0.1928952408 0.02291866302
v 0.2088890839 0.1911109161 0.02411091328
v 0.2100813293 0.1899186707 0.02589524031
v 0.2104999924 0.1895000076 0.02799999952
v 0.2100813293 0.1899186707 0.03010475874
v 0.2088890839 0.1911109161 0.03188908815
v 0.2071047592 0.1928952408 0.03308133841
v 0.2114999962 0.195 0.03349999905
v 0.2114999962 0.1920264816 0.03262689352
v 0.2114999962 0.1899970245 0.03028478146
v 0.2114999962 0.1895559883 0.02721726894
v 0.2114999962 0.1908433723 0.02439826488
v 0.2114999962 0.19345047 0.02272278786
v 0.2114999962 0.19654953 0.02272278786
v 0.2114999962 0.1991566277 0.02439826488
v 0.2114999962 0.2004440117 0.02721726894
v 0.2114999962 0.2000029755 0.03028478146
v 0.2114999962 0.1979735184 0.03262689352
v 0.205 0.195 0.03349999905
v 0.2114999962 0.195 0.03349999905
v 0.2114999962 0.195 0.03160000086
v 0.2114999962 0.1926859665 0.030757761
v 0.2114999962 0.1914546967 0.02862513304
v 0.2114999962 0.1918823051 0.02619999886
v 0.2114999962 0.1937687302 0.02461710691
v 0.2114999962 0.1962312698 0.02461710691
v 0.2114999962 0.1981176949 0.02619999886
v 0.2114999962 0.1985453033 0.02862513304
v 0.2114999962 0.1973140335 0.030757761
v 0.2114999962 0.195 0.03349999905
v 0.2114999962 0.1979735184 0.03262689352
v 0.2114999962 0.2000029755 0.03028478146
v 0.2114999962 0.2004440117 0.02721726894
v 0.2114999962 0.1991566277 0.02439826488
v 0.2114999962 0.19654953 0.02272278786
v 0.2114999962 0.19345047 0.02272278786
v 0.2114999962 0.1908433723 0.02439826488
v 0.2114999962 0.1895559883 0.02721726894
v 0.2114999962 0.1899970245 0.03028478146
v 0.2114999962 0.1920264816 0.03262689352
v 0.2086000061 0.2014999962 0.02799999952
v 0.2077577591 0.2014999962 0.03031403542
v 0.2056251335 0.2014999962 0.03154530764
v 0.2031999969 0.2014999962 0.03111769199
v 0.2016171074 0.2014999962 0.02923127174
v 0.2016171074 0.2014999962 0.0267687273
v 0.2031999969 0.2014999962 0.02488230944
v 0.2056251335 0.2014999962 0.02445469141
v 0.2077577591 0.2014999962 0.02568596363
v 0.2086000061 0.205 0.02799999952
v 0.2077577591 0.205 0.02568596363
v 0.2056251335 0.205 0.02445469141
v 0.2031999969 0.205 0.02488230944
v 0.2016171074 0.205 0.0267687273
v 0.2016171074 0.205 0.02923127174
v 0.2031999969 0.205 0.03111769199
v 0.2056251335 0.205 0.03154530764
v 0.2077577591 0.205 0.03031403542
v 0.2086000061 0.2014999962 0.02799999952
v 0.2086000061 0.205 0.02799999952
v 0.205 0.195 0.03349999905
v 0.2071047592 0.1928952408 0.03308133841
v 0.2088890839 0.1911109161 0.03188908815
v 0.2100813293 0.1899186707 0.03010475874
v 0.2104999924 0.1895000076 0.02799999952
v 0.2100813293 0.1899186707 0.02589524031
v 0.2088890839 0.1911109161 0.02411091328
v 0.2071047592 0.1928952408 0.02291866302
v 0.205 0.195 0.0225
v 0.2045000076 0.1945000076 0.02252277374
v 0.2067531967 0.1922468185 0.02278690815
v 0.2087080956 0.1902919006 0.02393798113
v 0.2100321198 0.1889678764 0.02578015089
v 0.2104999924 0.1885000038 0.02799999952
v 0.2100321198 0.1889678764 0.03021984816
v 0.2087080956 0.1902919006 0.0320620203
v 0.2067531967 0.1922468185 0.0332130909
v 0.2045000076 0.1945000076 0.0334772253
v 0.2114999962 0.195 0.03160000086
v 0.2114999962 0.1973140335 0.030757761
v 0.2114999962 0.1985453033 0.02862513304
v 0.2114999962 0.1981176949 0.02619999886
v 0.2114999962 0.1962312698 0.02461710691
v 0.2114999962 0.1937687302 0.02461710691
v 0.2114999962 0.1918823051 0.02619999886
v 0.2114999962 0.1914546967 0.02862513304
v 0.2114999962 0.1926859665 0.030757761
v 0.215 0.195 0.03160000086
v 0.215 0.1926859665 0.030757761
v 0.215 0.1914546967 0.02862513304
v 0.215 0.1918823051 0.02619999886
v 0.215 0.1937687302 0.02461710691
v 0.215 0.1962312698 0.02461710691
v 0.215 0.1981176949 0.02619999886
v 0.215 0.1985453033 0.02862513304
v 0.215 0.1973140335 0.030757761
v 0.2114999962 0.195 0.03160000086
v 0.215 0.195 0.03160000086
v 0.215 0.205 0.01799999952
v 0.215 0.185 0.01799999952
v 0.2139999962 0.185 0.01799999952
v 0.195 0.2039999962 0.01799999952
v 0.195 0.205 0.01799999952
v 0.2086000061 0.205 0.02799999952
v 0.2077577591 0.205 0.03031403542
v 0.2056251335 0.205 0.03154530764
v 0.2031999969 0.205 0.03111769199
v 0.2016171074 0.205 0.02923127174
v 0.2016171074 0.205 0.0267687273
v 0.2031999969 0.205 0.02488230944
v 0.2056251335 0.205 0.02445469141
v 0.2077577591 0.205 0.02568596363
v 0.215 0.205 0.01799999952
v 0.195 0.205 0.01799999952
v 0.195 0.205 0.03799999952
v 0.215 0.205 0.03799999952
v 0.215 0.195 0.03160000086
v 0.215 0.1973140335 0.030757761
v 0.215 0.1985453033 0.02862513304
v 0.215 0.1981176949 0.02619999886
v 0.215 0.1962312698 0.02461710691
v 0.215 0.1937687302 0.02461710691
v 0.215 0.1918823051 0.02619999886
v 0.215 0.1914546967 0.02862513304
v 0.215 0.1926859665 0.030757761
v 0.215 0.185 0.01799999952
v 0.215 0.205 0.01799999952
v 0.215 0.205 0.03799999952
v 0.215 0.185 0.03799999952
v 0.215 0.185 0.03799999952
v 0.215 0.205 0.03799999952
v 0.195 0.205 0.03799999952
v 0.195 0.2039999962 0.03799999952
v 0.2139999962 0.185 0.03799999952
v 0.2139999962 0.185 0.01799999952
v 0.215 0.185 0.01799999952
v 0.215 0.185 0.03799999952
v 0.2139999962 0.185 0.03799999952
v 0.2045000076 0.1945000076 0.0334772253
v 0.2067531967 0.1922468185 0.0332130909
v 0.2087080956 0.1902919006 0.0320620203
v 0.2100321198 0.1889678764 0.03021984816
v 0.2104999924 0.1885000038 0.02799999952
v 0.2100321198 0.1889678764 0.02578015089
v 0.2087080956 0.1902919006 0.02393798113
v 0.2067531967 0.1922468185 0.02278690815
v 0.2045000076 0.1945000076 0.02252277374
v 0.2022468185 0.1967531967 0.02278690815
v 0.2002919006 0.1987080956 0.02393798113
v 0.1989678764 0.2000321198 0.02578015089
v 0.1985000038 0.2004999924 0.02799999952
v 0.1989678764 0.2000321198 0.03021984816
v 0.2002919006 0.1987080956 0.0320620203
v 0.2022468185 0.1967531967 0.0332130909
v 0.195 0.2039999962 0.01799999952
v 0.2139999962 0.185 0.01799999952
v 0.2139999962 0.185 0.03799999952
v 0.195 0.2039999962 0.03799999952
v 0.195 0.205 0.01799999952
v 0.195 0.2039999962 0.01799999952
v 0.195 0.2039999962 0.03799999952
v 0.195 0.205 0.03799999952
v 0.205 0.195 0.0225
v 0.2071047592 0.1971047592 0.02291866302
v 0.2088890839 0.1988890839 0.02411091328
v 0.2100813293 0.2000813293 0.02589524031
v 0.2104999924 0.2004999924 0.02799999952
v 0.2100813293 0.2000813293 0.03010475874
v 0.2088890839 0.1988890839 0.03188908815
v 0.2071047592 0.1971047592 0.03308133841
v 0.205 0.195 0.03349999905
v 0.2028952408 0.1971047592 0.03308133841
v 0.2011109161 0.1988890839 0.03188908815
v 0.1999186707 0.2000813293 0.03010475874
v 0.1995000076 0.2004999924 0.02799999952
v 0.1999186707 0.2000813293 0.02589524031
v 0.2011109161 0.1988890839 0.02411091328
v 0.2028952408 0.1971047592 0.02291866302
v 0.2104999924 0.2014999962 0.02799999952
v 0.2096269035 0.2014999962 0.02502647638
v 0.2072847748 0.2014999962 0.02299702406
v 0.2042172623 0.2014999962 0.02255598307
v 0.2013982582 0.2014999962 0.02384337664
v 0.1997227859 0.2014999962 0.02645047188
v 0.1997227859 0.2014999962 0.02954952955
v 0.2013982582 0.2014999962 0.03215662241
v 0.2042172623 0.2014999962 0.03344401836
v 0.2072847748 0.2014999962 0.03300297499
v 0.2096269035 0.2014999962 0.03097352505
v 0.2104999924 0.2004999924 0.02799999952
v 0.2104999924 0.2014999962 0.02799999952
v 0.2086000061 0.2014999962 0.02799999952
v 0.2077577591 0.2014999962 0.02568596363
v 0.2056251335 0.2014999962 0.02445469141
v 0.2031999969 0.2014999962 0.02488230944
v 0.2016171074 0.2014999962 0.0267687273
v 0.2016171074 0.2014999962 0.02923127174
v 0.2031999969 0.2014999962 0.03111769199
v 0.2056251335 0.2014999962 0.03154530764
v 0.2077577591 0.2014999962 0.03031403542
v 0.2104999924 0.2014999962 0.02799999952
v 0.2096269035 0.2014999962 0.03097352505
v 0.2072847748 0.2014999962 0.03300297499
v 0.2042172623 0.2014999962 0.03344401836
v 0.2013982582 0.2014999962 0.03215662241
v 0.1997227859 0.2014999962 0.02954952955
v 0.1997227859 0.2014999962 0.02645047188
v 0.2013982582 0.2014999962 0.02384337664
v 0.2042172623 0.2014999962 0.02255598307
v 0.2072847748 0.2014999962 0.02299702406
v 0.2096269035 0.2014999962 0.02502647638
v 0.2045000076 0.1945000076 0.02252277374
v 0.205 0.195 0.0225
v 0.2028952408 0.1971047592 0.02291866302
v 0.2011109161 0.1988890839 0.02411091328
v 0.1999186707 0.2000813293 0.02589524031
v 0.1995000076 0.2004999924 0.02799999952
v 0.1999186707 0.2000813293 0.03010475874
v 0.2011109161 0.1988890839 0.03188908815
v 0.2028952408 0.1971047592 0.03308133841
v 0.205 0.195 0.03349999905
v 0.2045000076 0.1945000076 0.0334772253
v 0.2022468185 0.1967531967 0.0332130909
v 0.2002919006 0.1987080956 0.0320620203
v 0.1989678764 0.2000321198 0.03021984816
v 0.1985000038 0.2004999924 0.02799999952
v 0.1989678764 0.2000321198 0.02578015089
v 0.2002919006 0.1987080956 0.02393798113
v 0.2022468185 0.1967531967 0.02278690815
f 16 28 17
f 29 1 2
f 29 2 27
f 27 2 3
f 27 3 26
f 26 3 4
f 26 4 5
f 26 5 25
f 25 5 6
f 25 6 24
f 24 6 7
f 24 7 8
f 24 8 23
f 23 8 9
f 23 9 22
f 22 9 10
f 22 10 11
f 22 11 21
f 21 11 12
f 21 12 20
f 20 12 13
f 20 13 19
f 19 13 14
f 19 14 15
f 19 15 18
f 18 15 16
f 18 16 17
f 31 49 30
f 30 49 39
f 30 39 40
f 49 31 48
f 48 31 32
f 48 32 47
f 47 32 33
f 47 33 46
f 46 33 34
f 46 34 45
f 45 34 44
f 44 34 35
f 44 35 43
f 43 35 36
f 43 36 42
f 42 36 37
f 42 37 41
f 41 37 38
f 41 38 40
f 40 38 30
f 51 67 50
f 50 67 69
f 68 59 58
f 58 59 60
f 58 60 57
f 57 60 61
f 57 61 56
f 56 61 62
f 56 62 55
f 55 62 63
f 55 63 54
f 54 63 64
f 54 64 53
f 53 64 65
f 53 65 52
f 52 65 66
f 52 66 51
f 51 66 67
f 87 70 86
f 86 70 71
f 86 71 85
f 85 71 72
f 85 72 84
f 84 72 73
f 84 73 83
f 83 73 74
f 83 74 75
f 83 75 82
f 82 75 76
f 82 76 81
f 81 76 77
f 81 77 80
f 80 77 78
f 80 78 79
f 89 105 88
f 88 105 107
f 106 97 96
f 96 97 98
f 96 98 95
f 95 98 99
f 95 99 94
f 94 99 100
f 94 100 93
f 93 100 101
f 93 101 92
f 92 101 102
f 92 102 91
f 91 102 103
f 91 103 90
f 90 103 104
f 90 104 89
f 89 104 105
f 109 110 108
f 108 110 111
f 108 111 112
f 114 125 113
f 113 125 122
f 113 122 121
f 121 122 120
f 120 122 123
f 120 123 119
f 119 123 118
f 118 123 117
f 117 123 124
f 117 124 116
f 116 124 115
f 115 124 125
f 115 125 114
f 127 137 126
f 126 137 138
f 126 138 134
f 134 138 133
f 133 138 135
f 133 135 132
f 132 135 131
f 131 135 136
f 131 136 130
f 130 136 129
f 129 136 128
f 128 136 137
f 128 137 127
f 139 140 143
f 143 140 142
f 142 140 141
f 144 145 147
f 147 145 146
f 149 166 148
f 148 166 167
f 148 167 163
f 163 167 162
f 162 167 161
f 161 167 160
f 160 167 164
f 160 164 159
f 159 164 158
f 158 164 157
f 157 164 156
f 156 164 165
f 156 165 155
f 155 165 154
f 154 165 153
f 153 165 152
f 152 165 166
f 152 166 151
f 151 166 150
f 150 166 149
f 168 169 171
f 171 169 170
f 187 172 191
f 191 172 173
f 191 173 190
f 190 173 174
f 190 174 189
f 189 174 175
f 189 175 188
f 188 175 199
f 200 176 177
f 200 177 198
f 198 177 178
f 198 178 197
f 197 178 179
f 197 179 180
f 197 180 196
f 196 180 181
f 196 181 195
f 195 181 182
f 195 182 183
f 195 183 194
f 194 183 184
f 194 184 193
f 193 184 185
f 193 185 192
f 192 185 186
f 192 186 187
f 192 187 191
f 202 220 201
f 201 220 210
f 201 210 211
f 220 202 219
f 219 202 203
f 219 203 218
f 218 203 204
f 218 204 217
f 217 204 205
f 217 205 216
f 216 205 215
f 215 205 206
f 215 206 214
f 214 206 207
f 214 207 213
f 213 207 208
f 213 208 212
f 212 208 209
f 212 209 211
f 211 209 201
f 221 222 238
f 238 222 223
f 238 223 237
f 237 223 224
f 237 224 236
f 236 224 225
f 236 225 235
f 235 225 226
f 235 226 227
f 235 227 234
f 234 227 228
f 234 228 233
f 233 228 229
f 233 229 232
f 232 229 230
f 232 230 231
