v 0.2434529495 0.09699999809 0.4590211755
v 0.2428405952 0.09699999809 0.4608339578
v 0.2436894226 0.09699999809 0.4625487978
v 0.245502224 0.09699999809 0.463161152
v 0.2472170448 0.09699999809 0.4623123247
v 0.2478293991 0.09699999809 0.4604995424
v 0.2469805717 0.09699999809 0.4587847025
v 0.2451677895 0.09699999809 0.4581723482
v 0.2434529495 0.09600000381 0.4590211755
v 0.2451677895 0.09600000381 0.4581723482
v 0.2469805717 0.09600000381 0.4587847025
v 0.2478293991 0.09600000381 0.4604995424
v 0.2472170448 0.09600000381 0.4623123247
v 0.245502224 0.09600000381 0.463161152
v 0.2436894226 0.09600000381 0.4625487978
v 0.2428405952 0.09600000381 0.4608339578
v 0.2434529495 0.09699999809 0.4590211755
v 0.2434529495 0.09600000381 0.4590211755
v 0.2434529495 0.09600000381 0.4590211755
v 0.2428405952 0.09600000381 0.4608339578
v 0.2436894226 0.09600000381 0.4625487978
v 0.245502224 0.09600000381 0.463161152
v 0.2472170448 0.09600000381 0.4623123247
v 0.2478293991 0.09600000381 0.4604995424
v 0.2469805717 0.09600000381 0.4587847025
v 0.2451677895 0.09600000381 0.4581723482
v 0.2415709114 0.09600000381 0.4573756105
v 0.2442242622 0.09600000381 0.455791691
v 0.2473018837 0.09600000381 0.4560698587
v 0.2496282196 0.09600000381 0.4581039125
v 0.2503146935 0.09600000381 0.4611168558
v 0.249099102 0.09600000381 0.4639578897
v 0.2464457321 0.09600000381 0.4655418092
v 0.2433681107 0.09600000381 0.4652636415
v 0.2410417747 0.09600000381 0.4632296068
v 0.2403553009 0.09600000381 0.4602166444
v 0.2415709114 0.09699999809 0.4573756105
v 0.2442242622 0.09699999809 0.455791691
v 0.2473018837 0.09699999809 0.4560698587
v 0.2496282196 0.09699999809 0.4581039125
v 0.2503146935 0.09699999809 0.4611168558
v 0.249099102 0.09699999809 0.4639578897
v 0.2464457321 0.09699999809 0.4655418092
v 0.2433681107 0.09699999809 0.4652636415
v 0.2410417747 0.09699999809 0.4632296068
v 0.2403553009 0.09699999809 0.4602166444
v 0.2415709114 0.09600000381 0.4573756105
v 0.2403553009 0.09600000381 0.4602166444
v 0.2410417747 0.09600000381 0.4632296068
v 0.2433681107 0.09600000381 0.4652636415
v 0.2464457321 0.09600000381 0.4655418092
v 0.249099102 0.09600000381 0.4639578897
v 0.2503146935 0.09600000381 0.4611168558
v 0.2496282196 0.09600000381 0.4581039125
v 0.2473018837 0.09600000381 0.4560698587
v 0.2442242622 0.09600000381 0.455791691
v 0.2415709114 0.09600000381 0.4573756105
v 0.2415709114 0.09699999809 0.4573756105
v 0.2434529495 0.09699999809 0.4590211755
v 0.2451677895 0.09699999809 0.4581723482
v 0.2469805717 0.09699999809 0.4587847025
v 0.2478293991 0.09699999809 0.4604995424
v 0.2472170448 0.09699999809 0.4623123247
v 0.245502224 0.09699999809 0.463161152
v 0.2436894226 0.09699999809 0.4625487978
v 0.2428405952 0.09699999809 0.4608339578
v 0.2415709114 0.09699999809 0.4573756105
v 0.2403553009 0.09699999809 0.4602166444
v 0.2410417747 0.09699999809 0.4632296068
v 0.2433681107 0.09699999809 0.4652636415
v 0.2464457321 0.09699999809 0.4655418092
v 0.249099102 0.09699999809 0.4639578897
v 0.2503146935 0.09699999809 0.4611168558
v 0.2496282196 0.09699999809 0.4581039125
v 0.2473018837 0.09699999809 0.4560698587
v 0.2442242622 0.09699999809 0.455791691
f 2 16 1
f 1 16 18
f 17 9 8
f 8 9 10
f 8 10 11
f 2 3 16
f 16 3 15
f 15 3 4
f 15 4 14
f 14 4 5
f 14 5 13
f 13 5 6
f 13 6 12
f 12 6 7
f 12 7 11
f 11 7 8
f 20 36 19
f 19 36 27
f 19 27 28
f 36 20 35
f 35 20 21
f 35 21 34
f 34 21 22
f 34 22 33
f 33 22 23
f 33 23 32
f 32 23 31
f 31 23 24
f 31 24 30
f 30 24 25
f 30 25 29
f 29 25 26
f 29 26 28
f 28 26 19
f 38 56 37
f 37 56 57
f 58 47 46
f 46 47 48
f 46 48 45
f 45 48 49
f 45 49 44
f 44 49 50
f 44 50 43
f 43 50 51
f 43 51 42
f 42 51 52
f 42 52 41
f 41 52 53
f 41 53 40
f 40 53 54
f 40 54 39
f 39 54 55
f 39 55 38
f 38 55 56
f 60 76 59
f 59 76 67
f 59 67 68
f 76 60 75
f 75 60 61
f 75 61 74
f 74 61 62
f 74 62 73
f 73 62 63
f 73 63 72
f 72 63 71
f 71 63 64
f 71 64 70
f 70 64 65
f 70 65 69
f 69 65 66
f 69 66 68
f 68 66 59
