v 0.01799999952 0.1085000038 0.4393767435
v 0.01929903865 0.1085000038 0.4401267511
v 0.01929903865 0.1085000038 0.4416267473
v 0.01799999952 0.1085000038 0.4423767549
v 0.01670096159 0.1085000038 0.4416267473
v 0.01670096159 0.1085000038 0.4401267511
v 0.01799999952 0.1144999981 0.4393767435
v 0.01670096159 0.1144999981 0.4401267511
v 0.01670096159 0.1144999981 0.4416267473
v 0.01799999952 0.1144999981 0.4423767549
v 0.01929903865 0.1144999981 0.4416267473
v 0.01929903865 0.1144999981 0.4401267511
v 0.01799999952 0.1144999981 0.4393767435
v 0.01799999952 0.1085000038 0.4393767435
v 0.01799999952 0.1085000038 0.4393767435
v 0.01670096159 0.1085000038 0.4401267511
v 0.01670096159 0.1085000038 0.4416267473
v 0.01799999952 0.1085000038 0.4423767549
v 0.01929903865 0.1085000038 0.4416267473
v 0.01929903865 0.1085000038 0.4401267511
v 0.01799999952 0.1085000038 0.4421267587
v 0.01711611629 0.1085000038 0.4417606432
v 0.01674999952 0.1085000038 0.4408767587
v 0.01711611629 0.1085000038 0.4399928743
v 0.01799999952 0.1085000038 0.4396267587
v 0.01888388395 0.1085000038 0.4399928743
v 0.01924999952 0.1085000038 0.4408767587
v 0.01888388395 0.1085000038 0.4417606432
f 2 12 1
f 1 12 13
f 14 7 6
f 6 7 8
f 6 8 5
f 5 8 9
f 5 9 4
f 4 9 10
f 4 10 3
f 3 10 11
f 3 11 2
f 2 11 12
f 16 24 15
f 15 24 25
f 15 25 26
f 24 16 23
f 23 16 17
f 23 17 22
f 22 17 18
f 22 18 21
f 21 18 28
f 28 18 19
f 28 19 27
f 27 19 20
f 27 20 26
f 26 20 15
