v -0.1859218309 -0.003000000119 0.4142906544
v -0.1834827103 -0.003000000119 0.4125185602
v -0.1859218309 -0.003000000119 0.4142906544
v -0.1834827103 -0.003000000119 0.4125185602
v -0.1859218309 -0.003000000119 0.4142906544
v -0.1834827103 -0.003000000119 0.4125185602
v -0.1834827103 -0.003000000119 0.4125185602
v -0.1834827103 -0.003000000119 0.4125185602
v -0.1859218309 -0.003000000119 0.4142906544
v -0.1859218309 -0.003000000119 0.4142906544
v -0.1859218309 -0.003000000119 0.4142906544
v -0.1859218309 -0.003000000119 0.4142906544
v -0.1834827103 -0.003000000119 0.4125185602
v -0.1834827103 -0.003000000119 0.4125185602
v -0.1861911656 -0.003000000119 0.4131687896
v -0.1855883273 -0.003000000119 0.4121850566
v -0.1844664434 -0.003000000119 0.4119157218
v -0.1832133756 -0.003000000119 0.413640425
v -0.1832133756 -0.003000000119 0.413640425
v -0.1838162139 -0.003000000119 0.414624158
v -0.1838162139 -0.003000000119 0.414624158
v -0.1849380978 -0.003000000119 0.4148934928
v -0.1849380978 -0.003000000119 0.4148934928
v -0.18525136 -0.003923120499 0.414462317
v -0.1842592518 -0.004305489659 0.4140143779
v -0.1835266568 -0.003923120499 0.4132092492
v -0.1835266568 -0.002076879442 0.4132092492
v -0.1842592518 -0.00169451043 0.4140143779
v -0.18525136 -0.002076879442 0.414462317
v -0.1858778843 -0.002076879442 0.4135999654
v -0.1851452894 -0.00169451043 0.4127948367
v -0.1841531812 -0.002076879442 0.4123468976
v -0.1841531812 -0.003923120499 0.4123468976
v -0.1851452894 -0.004305489659 0.4127948367
v -0.1858778843 -0.003923120499 0.4135999654
f 33 7 26
f 26 8 18
f 24 9 35
f 35 10 15
f 30 11 29
f 29 12 23
f 27 13 32
f 32 14 17
f 15 16 35
f 35 16 34
f 35 34 24
f 24 34 25
f 24 25 22
f 22 25 20
f 23 21 29
f 29 21 28
f 29 28 30
f 30 28 31
f 30 31 15
f 15 31 16
f 15 3 30
f 16 17 34
f 34 17 33
f 34 33 25
f 25 33 26
f 25 26 20
f 20 26 18
f 21 19 28
f 28 19 27
f 28 27 31
f 31 27 32
f 31 32 16
f 16 32 17
f 17 4 33
f 19 2 27
f 22 1 24
