v 0.01664999962 0.04010344028 0.3988767511
v 0.01732499957 0.04010344028 0.4000458891
v 0.01867499948 0.04010344028 0.4000458891
v 0.01934999943 0.04010344028 0.3988767511
v 0.01867499948 0.04010344028 0.3977076131
v 0.01732499957 0.04010344028 0.3977076131
v 0.01664999962 0.04580343723 0.3988767511
v 0.0170454061 0.04580343723 0.3979221613
v 0.01799999952 0.04580343723 0.3975267488
v 0.01895459414 0.04580343723 0.3979221613
v 0.01934999943 0.04580343723 0.3988767511
v 0.01895459414 0.04580343723 0.3998313505
v 0.01799999952 0.04580343723 0.4002267534
v 0.0170454061 0.04580343723 0.3998313505
v 0.01934999943 0.04580343723 0.3988767511
v 0.01934999943 0.04010344028 0.3988767511
v 0.01950000048 0.04580343723 0.3988767511
v 0.0190606606 0.04580343723 0.3999374086
v 0.01799999952 0.04580343723 0.4003767568
v 0.01693933964 0.04580343723 0.3999374086
v 0.01649999976 0.04580343723 0.3988767511
v 0.01693933964 0.04580343723 0.3978160936
v 0.01799999952 0.04580343723 0.3973767549
v 0.0190606606 0.04580343723 0.3978160936
v 0.01664999962 0.04580343723 0.3988767511
v 0.0170454061 0.04580343723 0.3998313505
v 0.01799999952 0.04580343723 0.4002267534
v 0.01895459414 0.04580343723 0.3998313505
v 0.01934999943 0.04580343723 0.3988767511
v 0.01895459414 0.04580343723 0.3979221613
v 0.01799999952 0.04580343723 0.3975267488
v 0.0170454061 0.04580343723 0.3979221613
f 2 14 1
f 1 14 7
f 1 7 8
f 14 2 13
f 13 2 3
f 13 3 12
f 12 3 16
f 12 16 11
f 15 4 10
f 10 4 5
f 10 5 9
f 9 5 6
f 9 6 8
f 8 6 1
f 24 17 29
f 29 17 18
f 29 18 28
f 28 18 27
f 27 18 19
f 27 19 26
f 26 19 20
f 26 20 25
f 25 20 21
f 25 21 22
f 25 22 32
f 32 22 23
f 32 23 31
f 31 23 30
f 30 23 24
f 30 24 29
