v -0.2075 -0.2095000076 0.02799999952
v -0.2067677689 -0.2095000076 0.02623223305
v -0.205 -0.2095000076 0.02549999952
v -0.2032322311 -0.2095000076 0.02623223305
v -0.2025 -0.2095000076 0.02799999952
v -0.2032322311 -0.2095000076 0.029767766
v -0.205 -0.2095000076 0.03049999952
v -0.2067677689 -0.2095000076 0.029767766
v -0.2075 -0.2095000076 0.02799999952
v -0.2067677689 -0.2095000076 0.029767766
v -0.205 -0.2095000076 0.03049999952
v -0.2032322311 -0.2095000076 0.029767766
v -0.2025 -0.2095000076 0.02799999952
v -0.2032322311 -0.2095000076 0.02623223305
v -0.205 -0.2095000076 0.02549999952
v -0.2067677689 -0.2095000076 0.02623223305
v -0.2075 -0.2014999962 0.02799999952
v -0.2067677689 -0.2014999962 0.02623223305
v -0.205 -0.2014999962 0.02549999952
v -0.2032322311 -0.2014999962 0.02623223305
v -0.2025 -0.2014999962 0.02799999952
v -0.2032322311 -0.2014999962 0.029767766
v -0.205 -0.2014999962 0.03049999952
v -0.2067677689 -0.2014999962 0.029767766
v -0.2075 -0.2014999962 0.02799999952
v -0.2075 -0.2095000076 0.02799999952
v -0.2095000076 -0.2014999962 0.02799999952
v -0.2086405754 -0.2014999962 0.02535496712
v -0.2063905716 -0.2014999962 0.02372024536
v -0.2036094284 -0.2014999962 0.02372024536
v -0.2013594246 -0.2014999962 0.02535496712
v -0.2004999924 -0.2014999962 0.02799999952
v -0.2013594246 -0.2014999962 0.03064503431
v -0.2036094284 -0.2014999962 0.03227975368
v -0.2063905716 -0.2014999962 0.03227975368
v -0.2086405754 -0.2014999962 0.03064503431
v -0.2075 -0.2014999962 0.02799999952
v -0.2067677689 -0.2014999962 0.029767766
v -0.205 -0.2014999962 0.03049999952
v -0.2032322311 -0.2014999962 0.029767766
v -0.2025 -0.2014999962 0.02799999952
v -0.2032322311 -0.2014999962 0.02623223305
v -0.205 -0.2014999962 0.02549999952
v -0.2067677689 -0.2014999962 0.02623223305
v -0.2041339684 -0.2 0.02650000095
v -0.2032679558 -0.2 0.02799999952
v -0.2041339684 -0.2 0.02950000048
v -0.2058660316 -0.2 0.02950000048
v -0.2067320442 -0.2 0.02799999952
v -0.2058660316 -0.2 0.02650000095
v -0.2095000076 -0.2 0.02799999952
v -0.2086405754 -0.2 0.03064503431
v -0.2063905716 -0.2 0.03227975368
v -0.2036094284 -0.2 0.03227975368
v -0.2013594246 -0.2 0.03064503431
v -0.2004999924 -0.2 0.02799999952
v -0.2013594246 -0.2 0.02535496712
v -0.2036094284 -0.2 0.02372024536
v -0.2063905716 -0.2 0.02372024536
v -0.2086405754 -0.2 0.02535496712
v -0.2095000076 -0.2 0.02799999952
v -0.2086405754 -0.2 0.02535496712
v -0.2063905716 -0.2 0.02372024536
v -0.2036094284 -0.2 0.02372024536
v -0.2013594246 -0.2 0.02535496712
v -0.2004999924 -0.2 0.02799999952
v -0.2013594246 -0.2 0.03064503431
v -0.2036094284 -0.2 0.03227975368
v -0.2063905716 -0.2 0.03227975368
v -0.2086405754 -0.2 0.03064503431
v -0.2095000076 -0.2014999962 0.02799999952
v -0.2086405754 -0.2014999962 0.03064503431
v -0.2063905716 -0.2014999962 0.03227975368
v -0.2036094284 -0.2014999962 0.03227975368
v -0.2013594246 -0.2014999962 0.03064503431
v -0.2004999924 -0.2014999962 0.02799999952
v -0.2013594246 -0.2014999962 0.02535496712
v -0.2036094284 -0.2014999962 0.02372024536
v -0.2063905716 -0.2014999962 0.02372024536
v -0.2086405754 -0.2014999962 0.02535496712
v -0.2095000076 -0.2014999962 0.02799999952
v -0.2095000076 -0.2 0.02799999952
v -0.2041339684 -0.2 0.02950000048
v -0.2032679558 -0.2 0.02799999952
v -0.2032679558 -0.2010000038 0.02799999952
v -0.2041339684 -0.2010000038 0.02950000048
v -0.2032679558 -0.2 0.02799999952
v -0.2041339684 -0.2 0.02650000095
v -0.2041339684 -0.2010000038 0.02650000095
v -0.2032679558 -0.2010000038 0.02799999952
v -0.2058660316 -0.2 0.02950000048
v -0.2041339684 -0.2 0.02950000048
v -0.2041339684 -0.2010000038 0.02950000048
v -0.2058660316 -0.2010000038 0.02950000048
v -0.2041339684 -0.2 0.02650000095
v -0.2058660316 -0.2 0.02650000095
v -0.2058660316 -0.2010000038 0.02650000095
v -0.2041339684 -0.2010000038 0.02650000095
v -0.2067320442 -0.2 0.02799999952
v -0.2058660316 -0.2 0.02950000048
v -0.2058660316 -0.2010000038 0.02950000048
v -0.2067320442 -0.2010000038 0.02799999952
v -0.2041339684 -0.2010000038 0.02950000048
v -0.2032679558 -0.2010000038 0.02799999952
v -0.2041339684 -0.2010000038 0.02650000095
v -0.2058660316 -0.2010000038 0.02650000095
v -0.2067320442 -0.2010000038 0.02799999952
v -0.2058660316 -0.2010000038 0.02950000048
v -0.2058660316 -0.2 0.02650000095
v -0.2067320442 -0.2 0.02799999952
v -0.2067320442 -0.2010000038 0.02799999952
v -0.2058660316 -0.2010000038 0.02650000095
f 2 4 1
f 1 4 5
f 1 5 8
f 8 5 6
f 8 6 7
f 2 3 4
f 10 24 9
f 9 24 25
f 26 17 16
f 16 17 18
f 16 18 19
f 10 11 24
f 24 11 23
f 23 11 12
f 23 12 22
f 22 12 13
f 22 13 21
f 21 13 14
f 21 14 20
f 20 14 15
f 20 15 19
f 19 15 16
f 36 27 37
f 37 27 28
f 37 28 44
f 44 28 29
f 44 29 43
f 43 29 30
f 43 30 42
f 42 30 31
f 42 31 41
f 41 31 32
f 41 32 33
f 41 33 40
f 40 33 34
f 40 34 39
f 39 34 35
f 39 35 38
f 38 35 36
f 38 36 37
f 46 57 45
f 45 57 58
f 45 58 59
f 47 55 46
f 46 55 56
f 46 56 57
f 55 47 54
f 54 47 48
f 54 48 53
f 53 48 52
f 52 48 49
f 52 49 51
f 51 49 60
f 60 49 50
f 60 50 59
f 59 50 45
f 62 80 61
f 61 80 81
f 82 71 70
f 70 71 72
f 70 72 69
f 69 72 73
f 69 73 68
f 68 73 74
f 68 74 67
f 67 74 75
f 67 75 66
f 66 75 76
f 66 76 65
f 65 76 77
f 65 77 64
f 64 77 78
f 64 78 63
f 63 78 79
f 63 79 62
f 62 79 80
f 83 84 86
f 86 84 85
f 87 88 90
f 90 88 89
f 91 92 94
f 94 92 93
f 95 96 98
f 98 96 97
f 99 100 102
f 102 100 101
f 103 104 108
f 108 104 107
f 107 104 105
f 107 105 106
f 109 110 112
f 112 110 111
