v -0.2086000061 -0.2014999962 0.02799999952
v -0.2077577591 -0.2014999962 0.02568596363
v -0.2056251335 -0.2014999962 0.02445469141
v -0.2031999969 -0.2014999962 0.02488230944
v -0.2016171074 -0.2014999962 0.0267687273
v -0.2016171074 -0.2014999962 0.02923127174
v -0.2031999969 -0.2014999962 0.03111769199
v -0.2056251335 -0.2014999962 0.03154530764
v -0.2077577591 -0.2014999962 0.03031403542
v -0.2104999924 -0.2014999962 0.02799999952
v -0.2096269035 -0.2014999962 0.03097352505
v -0.2072847748 -0.2014999962 0.03300297499
v -0.2042172623 -0.2014999962 0.03344401836
v -0.2013982582 -0.2014999962 0.03215662241
v -0.1997227859 -0.2014999962 0.02954952955
v -0.1997227859 -0.2014999962 0.02645047188
v -0.2013982582 -0.2014999962 0.02384337664
v -0.2042172623 -0.2014999962 0.02255598307
v -0.2072847748 -0.2014999962 0.02299702406
v -0.2096269035 -0.2014999962 0.02502647638
v -0.205 -0.195 0.0225
v -0.2071047592 -0.1971047592 0.02291866302
v -0.2088890839 -0.1988890839 0.02411091328
v -0.2100813293 -0.2000813293 0.02589524031
v -0.2104999924 -0.2004999924 0.02799999952
v -0.2100813293 -0.2000813293 0.03010475874
v -0.2088890839 -0.1988890839 0.03188908815
v -0.2071047592 -0.1971047592 0.03308133841
v -0.205 -0.195 0.03349999905
v -0.2028952408 -0.1971047592 0.03308133841
v -0.2011109161 -0.1988890839 0.03188908815
v -0.1999186707 -0.2000813293 0.03010475874
v -0.1995000076 -0.2004999924 0.02799999952
v -0.1999186707 -0.2000813293 0.02589524031
v -0.2011109161 -0.1988890839 0.02411091328
v -0.2028952408 -0.1971047592 0.02291866302
v -0.2104999924 -0.2014999962 0.02799999952
v -0.2096269035 -0.2014999962 0.02502647638
v -0.2072847748 -0.2014999962 0.02299702406
v -0.2042172623 -0.2014999962 0.02255598307
v -0.2013982582 -0.2014999962 0.02384337664
v -0.1997227859 -0.2014999962 0.02645047188
v -0.1997227859 -0.2014999962 0.02954952955
v -0.2013982582 -0.2014999962 0.03215662241
v -0.2042172623 -0.2014999962 0.03344401836
v -0.2072847748 -0.2014999962 0.03300297499
v -0.2096269035 -0.2014999962 0.03097352505
v -0.2104999924 -0.2004999924 0.02799999952
v -0.2104999924 -0.2014999962 0.02799999952
v -0.205 -0.195 0.03349999905
v -0.2071047592 -0.1928952408 0.03308133841
v -0.2088890839 -0.1911109161 0.03188908815
v -0.2100813293 -0.1899186707 0.03010475874
v -0.2104999924 -0.1895000076 0.02799999952
v -0.2100813293 -0.1899186707 0.02589524031
v -0.2088890839 -0.1911109161 0.02411091328
v -0.2071047592 -0.1928952408 0.02291866302
v -0.205 -0.195 0.0225
v -0.2045000076 -0.1945000076 0.02252277374
v -0.2067531967 -0.1922468185 0.02278690815
v -0.2087080956 -0.1902919006 0.02393798113
v -0.2100321198 -0.1889678764 0.02578015089
v -0.2104999924 -0.1885000038 0.02799999952
v -0.2100321198 -0.1889678764 0.03021984816
v -0.2087080956 -0.1902919006 0.0320620203
v -0.2067531967 -0.1922468185 0.0332130909
v -0.2045000076 -0.1945000076 0.0334772253
v -0.2045000076 -0.1945000076 0.02252277374
v -0.205 -0.195 0.0225
v -0.2028952408 -0.1971047592 0.02291866302
v -0.2011109161 -0.1988890839 0.02411091328
v -0.1999186707 -0.2000813293 0.02589524031
v -0.1995000076 -0.2004999924 0.02799999952
v -0.1999186707 -0.2000813293 0.03010475874
v -0.2011109161 -0.1988890839 0.03188908815
v -0.2028952408 -0.1971047592 0.03308133841
v -0.205 -0.195 0.03349999905
v -0.2045000076 -0.1945000076 0.0334772253
v -0.2022468185 -0.1967531967 0.0332130909
v -0.2002919006 -0.1987080956 0.0320620203
v -0.1989678764 -0.2000321198 0.03021984816
v -0.1985000038 -0.2004999924 0.02799999952
v -0.1989678764 -0.2000321198 0.02578015089
v -0.2002919006 -0.1987080956 0.02393798113
v -0.2022468185 -0.1967531967 0.02278690815
v -0.2139999962 -0.185 0.01799999952
v -0.215 -0.185 0.01799999952
v -0.215 -0.185 0.03799999952
v -0.2139999962 -0.185 0.03799999952
v -0.2045000076 -0.1945000076 0.0334772253
v -0.2067531967 -0.1922468185 0.0332130909
v -0.2087080956 -0.1902919006 0.0320620203
v -0.2100321198 -0.1889678764 0.03021984816
v -0.2104999924 -0.1885000038 0.02799999952
v -0.2100321198 -0.1889678764 0.02578015089
v -0.2087080956 -0.1902919006 0.02393798113
v -0.2067531967 -0.1922468185 0.02278690815
v -0.2045000076 -0.1945000076 0.02252277374
v -0.2022468185 -0.1967531967 0.02278690815
v -0.2002919006 -0.1987080956 0.02393798113
v -0.1989678764 -0.2000321198 0.02578015089
v -0.1985000038 -0.2004999924 0.02799999952
v -0.1989678764 -0.2000321198 0.03021984816
v -0.2002919006 -0.1987080956 0.0320620203
v -0.2022468185 -0.1967531967 0.0332130909
v -0.195 -0.2039999962 0.01799999952
v -0.2139999962 -0.185 0.01799999952
v -0.2139999962 -0.185 0.03799999952
v -0.195 -0.2039999962 0.03799999952
v -0.195 -0.205 0.01799999952
v -0.195 -0.2039999962 0.01799999952
v -0.195 -0.2039999962 0.03799999952
v -0.195 -0.205 0.03799999952
v -0.2086000061 -0.205 0.02799999952
v -0.2077577591 -0.205 0.03031403542
v -0.2056251335 -0.205 0.03154530764
v -0.2031999969 -0.205 0.03111769199
v -0.2016171074 -0.205 0.02923127174
v -0.2016171074 -0.205 0.0267687273
v -0.2031999969 -0.205 0.02488230944
v -0.2056251335 -0.205 0.02445469141
v -0.2077577591 -0.205 0.02568596363
v -0.215 -0.205 0.01799999952
v -0.195 -0.205 0.01799999952
v -0.195 -0.205 0.03799999952
v -0.215 -0.205 0.03799999952
v -0.215 -0.195 0.03160000086
v -0.215 -0.1973140335 0.030757761
v -0.215 -0.1985453033 0.02862513304
v -0.215 -0.1981176949 0.02619999886
v -0.215 -0.1962312698 0.02461710691
v -0.215 -0.1937687302 0.02461710691
v -0.215 -0.1918823051 0.02619999886
v -0.215 -0.1914546967 0.02862513304
v -0.215 -0.1926859665 0.030757761
v -0.215 -0.185 0.01799999952
v -0.215 -0.205 0.01799999952
v -0.215 -0.205 0.03799999952
v -0.215 -0.185 0.03799999952
v -0.215 -0.185 0.03799999952
v -0.215 -0.205 0.03799999952
v -0.195 -0.205 0.03799999952
v -0.195 -0.2039999962 0.03799999952
v -0.2139999962 -0.185 0.03799999952
v -0.215 -0.205 0.01799999952
v -0.215 -0.185 0.01799999952
v -0.2139999962 -0.185 0.01799999952
v -0.195 -0.2039999962 0.01799999952
v -0.195 -0.205 0.01799999952
v -0.2114999962 -0.195 0.03160000086
v -0.2114999962 -0.1973140335 0.030757761
v -0.2114999962 -0.1985453033 0.02862513304
v -0.2114999962 -0.1981176949 0.02619999886
v -0.2114999962 -0.1962312698 0.02461710691
v -0.2114999962 -0.1937687302 0.02461710691
v -0.2114999962 -0.1918823051 0.02619999886
v -0.2114999962 -0.1914546967 0.02862513304
v -0.2114999962 -0.1926859665 0.030757761
v -0.215 -0.195 0.03160000086
v -0.215 -0.1926859665 0.030757761
v -0.215 -0.1914546967 0.02862513304
v -0.215 -0.1918823051 0.02619999886
v -0.215 -0.1937687302 0.02461710691
v -0.215 -0.1962312698 0.02461710691
v -0.215 -0.1981176949 0.02619999886
v -0.215 -0.1985453033 0.02862513304
v -0.215 -0.1973140335 0.030757761
v -0.2114999962 -0.195 0.03160000086
v -0.215 -0.195 0.03160000086
v -0.2086000061 -0.2014999962 0.02799999952
v -0.2077577591 -0.2014999962 0.03031403542
v -0.2056251335 -0.2014999962 0.03154530764
v -0.2031999969 -0.2014999962 0.03111769199
v -0.2016171074 -0.2014999962 0.02923127174
v -0.2016171074 -0.2014999962 0.0267687273
v -0.2031999969 -0.2014999962 0.02488230944
v -0.2056251335 -0.2014999962 0.02445469141
v -0.2077577591 -0.2014999962 0.02568596363
v -0.2086000061 -0.205 0.02799999952
v -0.2077577591 -0.205 0.02568596363
v -0.2056251335 -0.205 0.02445469141
v -0.2031999969 -0.205 0.02488230944
v -0.2016171074 -0.205 0.0267687273
v -0.2016171074 -0.205 0.02923127174
v -0.2031999969 -0.205 0.03111769199
v -0.2056251335 -0.205 0.03154530764
v -0.2077577591 -0.205 0.03031403542
v -0.2086000061 -0.2014999962 0.02799999952
v -0.2086000061 -0.205 0.02799999952
v -0.205 -0.195 0.03349999905
v -0.2071047592 -0.1971047592 0.03308133841
v -0.2088890839 -0.1988890839 0.03188908815
v -0.2100813293 -0.2000813293 0.03010475874
v -0.2104999924 -0.2004999924 0.02799999952
v -0.2100813293 -0.2000813293 0.02589524031
v -0.2088890839 -0.1988890839 0.02411091328
v -0.2071047592 -0.1971047592 0.02291866302
v -0.205 -0.195 0.0225
v -0.2071047592 -0.1928952408 0.02291866302
v -0.2088890839 -0.1911109161 0.02411091328
v -0.2100813293 -0.1899186707 0.02589524031
v -0.2104999924 -0.1895000076 0.02799999952
v -0.2100813293 -0.1899186707 0.03010475874
v -0.2088890839 -0.1911109161 0.03188908815
v -0.2071047592 -0.1928952408 0.03308133841
v -0.2114999962 -0.195 0.03349999905
v -0.2114999962 -0.1920264816 0.03262689352
v -0.2114999962 -0.1899970245 0.03028478146
v -0.2114999962 -0.1895559883 0.02721726894
v -0.2114999962 -0.1908433723 0.02439826488
v -0.2114999962 -0.19345047 0.02272278786
v -0.2114999962 -0.19654953 0.02272278786
v -0.2114999962 -0.1991566277 0.02439826488
v -0.2114999962 -0.2004440117 0.02721726894
v -0.2114999962 -0.2000029755 0.03028478146
v -0.2114999962 -0.1979735184 0.03262689352
v -0.205 -0.195 0.03349999905
v -0.2114999962 -0.195 0.03349999905
v -0.2114999962 -0.195 0.03160000086
v -0.2114999962 -0.1926859665 0.030757761
v -0.2114999962 -0.1914546967 0.02862513304
v -0.2114999962 -0.1918823051 0.02619999886
v -0.2114999962 -0.1937687302 0.02461710691
v -0.2114999962 -0.1962312698 0.02461710691
v -0.2114999962 -0.1981176949 0.02619999886
v -0.2114999962 -0.1985453033 0.02862513304
v -0.2114999962 -0.1973140335 0.030757761
v -0.2114999962 -0.195 0.03349999905
v -0.2114999962 -0.1979735184 0.03262689352
v -0.2114999962 -0.2000029755 0.03028478146
v -0.2114999962 -0.2004440117 0.02721726894
v -0.2114999962 -0.1991566277 0.02439826488
v -0.2114999962 -0.19654953 0.02272278786
v -0.2114999962 -0.19345047 0.02272278786
v -0.2114999962 -0.1908433723 0.02439826488
v -0.2114999962 -0.1895559883 0.02721726894
v -0.2114999962 -0.1899970245 0.03028478146
v -0.2114999962 -0.1920264816 0.03262689352
f 2 20 1
f 1 20 10
f 1 10 11
f 20 2 19
f 19 2 3
f 19 3 18
f 18 3 4
f 18 4 17
f 17 4 5
f 17 5 16
f 16 5 15
f 15 5 6
f 15 6 14
f 14 6 7
f 14 7 13
f 13 7 8
f 13 8 12
f 12 8 9
f 12 9 11
f 11 9 1
f 36 21 40
f 40 21 22
f 40 22 39
f 39 22 23
f 39 23 38
f 38 23 24
f 38 24 37
f 37 24 48
f 49 25 26
f 49 26 47
f 47 26 27
f 47 27 46
f 46 27 28
f 46 28 29
f 46 29 45
f 45 29 30
f 45 30 44
f 44 30 31
f 44 31 32
f 44 32 43
f 43 32 33
f 43 33 42
f 42 33 34
f 42 34 41
f 41 34 35
f 41 35 36
f 41 36 40
f 67 50 66
f 66 50 51
f 66 51 65
f 65 51 52
f 65 52 64
f 64 52 53
f 64 53 63
f 63 53 54
f 63 54 55
f 63 55 62
f 62 55 56
f 62 56 61
f 61 56 57
f 61 57 60
f 60 57 58
f 60 58 59
f 68 69 85
f 85 69 70
f 85 70 84
f 84 70 71
f 84 71 83
f 83 71 72
f 83 72 82
f 82 72 73
f 82 73 74
f 82 74 81
f 81 74 75
f 81 75 80
f 80 75 76
f 80 76 79
f 79 76 77
f 79 77 78
f 86 87 89
f 89 87 88
f 91 108 90
f 90 108 109
f 90 109 105
f 105 109 104
f 104 109 103
f 103 109 102
f 102 109 106
f 102 106 101
f 101 106 100
f 100 106 99
f 99 106 98
f 98 106 107
f 98 107 97
f 97 107 96
f 96 107 95
f 95 107 94
f 94 107 108
f 94 108 93
f 93 108 92
f 92 108 91
f 110 111 113
f 113 111 112
f 115 126 114
f 114 126 123
f 114 123 122
f 122 123 121
f 121 123 124
f 121 124 120
f 120 124 119
f 119 124 118
f 118 124 125
f 118 125 117
f 117 125 116
f 116 125 126
f 116 126 115
f 128 138 127
f 127 138 139
f 127 139 135
f 135 139 134
f 134 139 136
f 134 136 133
f 133 136 132
f 132 136 137
f 132 137 131
f 131 137 130
f 130 137 129
f 129 137 138
f 129 138 128
f 140 141 144
f 144 141 143
f 143 141 142
f 146 147 145
f 145 147 148
f 145 148 149
f 151 167 150
f 150 167 169
f 168 159 158
f 158 159 160
f 158 160 157
f 157 160 161
f 157 161 156
f 156 161 162
f 156 162 155
f 155 162 163
f 155 163 154
f 154 163 164
f 154 164 153
f 153 164 165
f 153 165 152
f 152 165 166
f 152 166 151
f 151 166 167
f 171 187 170
f 170 187 189
f 188 179 178
f 178 179 180
f 178 180 177
f 177 180 181
f 177 181 176
f 176 181 182
f 176 182 175
f 175 182 183
f 175 183 174
f 174 183 184
f 174 184 173
f 173 184 185
f 173 185 172
f 172 185 186
f 172 186 171
f 171 186 187
f 205 217 206
f 218 190 191
f 218 191 216
f 216 191 192
f 216 192 215
f 215 192 193
f 215 193 194
f 215 194 214
f 214 194 195
f 214 195 213
f 213 195 196
f 213 196 197
f 213 197 212
f 212 197 198
f 212 198 211
f 211 198 199
f 211 199 200
f 211 200 210
f 210 200 201
f 210 201 209
f 209 201 202
f 209 202 208
f 208 202 203
f 208 203 204
f 208 204 207
f 207 204 205
f 207 205 206
f 220 238 219
f 219 238 228
f 219 228 229
f 238 220 237
f 237 220 221
f 237 221 236
f 236 221 222
f 236 222 235
f 235 222 223
f 235 223 234
f 234 223 233
f 233 223 224
f 233 224 232
f 232 224 225
f 232 225 231
f 231 225 226
f 231 226 230
f 230 226 227
f 230 227 229
f 229 227 219
