v -0.21 0.09550000191 0.6168000031
v -0.21 0.09399999619 0.6202000046
v -0.2 0.09399999619 0.6202000046
v -0.2 0.09550000191 0.6168000031
v -0.21 0.08699999809 0.6202000046
v -0.21 0.08550000191 0.6168000031
v -0.2 0.08550000191 0.6168000031
v -0.2 0.08699999809 0.6202000046
v -0.2 0.08699999809 0.6202000046
v -0.2 0.08550000191 0.6168000031
v -0.2 0.09550000191 0.6168000031
v -0.2 0.09399999619 0.6202000046
v -0.2075 0.09050000191 0.6168000031
v -0.2067677689 0.08873223305 0.6168000031
v -0.205 0.08800000191 0.6168000031
v -0.2032322311 0.08873223305 0.6168000031
v -0.2025 0.09050000191 0.6168000031
v -0.2032322311 0.09226777077 0.6168000031
v -0.205 0.09300000191 0.6168000031
v -0.2067677689 0.09226777077 0.6168000031
v -0.21 0.08550000191 0.6168000031
v -0.21 0.09550000191 0.6168000031
v -0.2 0.09550000191 0.6168000031
v -0.2 0.08550000191 0.6168000031
v -0.21 0.08550000191 0.6168000031
v -0.21 0.08699999809 0.6202000046
v -0.21 0.09399999619 0.6202000046
v -0.21 0.09550000191 0.6168000031
v -0.2075 0.09050000191 0.6202000046
v -0.2067677689 0.09226777077 0.6202000046
v -0.205 0.09300000191 0.6202000046
v -0.2032322311 0.09226777077 0.6202000046
v -0.2025 0.09050000191 0.6202000046
v -0.2032322311 0.08873223305 0.6202000046
v -0.205 0.08800000191 0.6202000046
v -0.2067677689 0.08873223305 0.6202000046
v -0.21 0.09399999619 0.6202000046
v -0.21 0.08699999809 0.6202000046
v -0.2 0.08699999809 0.6202000046
v -0.2 0.09399999619 0.6202000046
v -0.2075 0.09050000191 0.6202000046
v -0.2067677689 0.08873223305 0.6202000046
v -0.205 0.08800000191 0.6202000046
v -0.2032322311 0.08873223305 0.6202000046
v -0.2025 0.09050000191 0.6202000046
v -0.2032322311 0.09226777077 0.6202000046
v -0.205 0.09300000191 0.6202000046
v -0.2067677689 0.09226777077 0.6202000046
v -0.2075 0.09050000191 0.6168000031
v -0.2067677689 0.09226777077 0.6168000031
v -0.205 0.09300000191 0.6168000031
v -0.2032322311 0.09226777077 0.6168000031
v -0.2025 0.09050000191 0.6168000031
v -0.2032322311 0.08873223305 0.6168000031
v -0.205 0.08800000191 0.6168000031
v -0.2067677689 0.08873223305 0.6168000031
v -0.2075 0.09050000191 0.6202000046
v -0.2075 0.09050000191 0.6168000031
f 1 2 4
f 4 2 3
f 5 6 8
f 8 6 7
f 10 11 9
f 9 11 12
f 14 21 13
f 13 21 22
f 13 22 20
f 20 22 19
f 19 22 23
f 19 23 18
f 18 23 17
f 17 23 24
f 17 24 16
f 16 24 15
f 15 24 21
f 15 21 14
f 26 27 25
f 25 27 28
f 30 37 29
f 29 37 38
f 29 38 36
f 36 38 35
f 35 38 39
f 35 39 34
f 34 39 33
f 33 39 40
f 33 40 32
f 32 40 31
f 31 40 37
f 31 37 30
f 42 56 41
f 41 56 58
f 57 49 48
f 48 49 50
f 48 50 51
f 42 43 56
f 56 43 55
f 55 43 44
f 55 44 54
f 54 44 45
f 54 45 53
f 53 45 46
f 53 46 52
f 52 46 47
f 52 47 51
f 51 47 48
