v -0.2570000076 0.07800000191 0.5098767549
v -0.2570000076 0.07300000191 0.5098767549
v 0.2570000076 0.07300000191 0.5098767549
v 0.2570000076 0.07800000191 0.5098767549
v 0.2417749977 0.07300000191 0.3798767549
v 0.2426078796 0.07300000191 0.3821650774
v 0.2447168159 0.07300000191 0.3833826715
v 0.2471150017 0.07300000191 0.3829598028
v 0.2486803055 0.07300000191 0.3810943395
v 0.2486803055 0.07300000191 0.3786591608
v 0.2471150017 0.07300000191 0.3767936975
v 0.2447168159 0.07300000191 0.3763708383
v 0.2426078796 0.07300000191 0.3775884325
v 0.2020149994 0.07300000191 0.4598767549
v 0.2027911758 0.07300000191 0.4617505914
v 0.2046649933 0.07300000191 0.4625267488
v 0.2065388298 0.07300000191 0.4617505914
v 0.2073150063 0.07300000191 0.4598767549
v 0.2065388298 0.07300000191 0.4580029184
v 0.2046649933 0.07300000191 0.457226761
v 0.2027911758 0.07300000191 0.4580029184
v -0.2479850006 0.07300000191 0.3798767549
v -0.2472088242 0.07300000191 0.3817505819
v -0.2453350067 0.07300000191 0.3825267488
v -0.2434611702 0.07300000191 0.3817505819
v -0.2426849937 0.07300000191 0.3798767549
v -0.2434611702 0.07300000191 0.3780029184
v -0.2453350067 0.07300000191 0.3772267515
v -0.2472088242 0.07300000191 0.3780029184
v -0.2082250023 0.07300000191 0.4598767549
v -0.2073921204 0.07300000191 0.4621650774
v -0.2052831841 0.07300000191 0.4633826715
v -0.2028849983 0.07300000191 0.4629597932
v -0.2013196945 0.07300000191 0.4610943491
v -0.2013196945 0.07300000191 0.4586591608
v -0.2028849983 0.07300000191 0.4567936975
v -0.2052831841 0.07300000191 0.4563708383
v -0.2073921204 0.07300000191 0.4575884325
v -0.2082250023 0.07300000191 0.3798767549
v -0.2073921204 0.07300000191 0.3821650774
v -0.2052831841 0.07300000191 0.3833826715
v -0.2028849983 0.07300000191 0.3829598028
v -0.2013196945 0.07300000191 0.3810943395
v -0.2013196945 0.07300000191 0.3786591608
v -0.2028849983 0.07300000191 0.3767936975
v -0.2052831841 0.07300000191 0.3763708383
v -0.2073921204 0.07300000191 0.3775884325
v -0.2479850006 0.07300000191 0.4598767549
v -0.2472088242 0.07300000191 0.4617505914
v -0.2453350067 0.07300000191 0.4625267488
v -0.2434611702 0.07300000191 0.4617505914
v -0.2426849937 0.07300000191 0.4598767549
v -0.2434611702 0.07300000191 0.4580029184
v -0.2453350067 0.07300000191 0.457226761
v -0.2472088242 0.07300000191 0.4580029184
v 0.2417749977 0.07300000191 0.4598767549
v 0.2426078796 0.07300000191 0.4621650774
v 0.2447168159 0.07300000191 0.4633826715
v 0.2471150017 0.07300000191 0.4629597932
v 0.2486803055 0.07300000191 0.4610943491
v 0.2486803055 0.07300000191 0.4586591608
v 0.2471150017 0.07300000191 0.4567936975
v 0.2447168159 0.07300000191 0.4563708383
v 0.2426078796 0.07300000191 0.4575884325
v 0.2020149994 0.07300000191 0.3798767549
v 0.2027911758 0.07300000191 0.3817505819
v 0.2046649933 0.07300000191 0.3825267488
v 0.2065388298 0.07300000191 0.3817505819
v 0.2073150063 0.07300000191 0.3798767549
v 0.2065388298 0.07300000191 0.3780029184
v 0.2046649933 0.07300000191 0.3772267515
v 0.2027911758 0.07300000191 0.3780029184
v -0.2570000076 0.07300000191 0.5098767549
v -0.2600614738 0.07300000191 0.5092677957
v -0.2626568604 0.07300000191 0.5075336153
v -0.2643910408 0.07300000191 0.5049382288
v -0.265 0.07300000191 0.5018767435
v -0.265 0.07300000191 0.3378767568
v -0.2643910408 0.07300000191 0.3348152811
v -0.2626568604 0.07300000191 0.3322198946
v -0.2600614738 0.07300000191 0.3304857141
v -0.2570000076 0.07300000191 0.3298767501
v 0.2570000076 0.07300000191 0.3298767501
v 0.2600614738 0.07300000191 0.3304857141
v 0.2626568604 0.07300000191 0.3322198946
v 0.2643910408 0.07300000191 0.3348152811
v 0.265 0.07300000191 0.3378767568
v 0.265 0.07300000191 0.5018767435
v 0.2643910408 0.07300000191 0.5049382288
v 0.2626568604 0.07300000191 0.5075336153
v 0.2600614738 0.07300000191 0.5092677957
v 0.2570000076 0.07300000191 0.5098767549
v -0.06300000191 0.07300000191 0.4198767549
v -0.0620428896 0.07300000191 0.4308165819
v -0.05920063496 0.07300000191 0.4414240152
v -0.05455960274 0.07300000191 0.4513767511
v -0.04826079845 0.07300000191 0.4603723795
v -0.04049561977 0.07300000191 0.4681375581
v -0.03150000095 0.07300000191 0.4744363481
v -0.02154726982 0.07300000191 0.4790773851
v -0.01093983531 0.07300000191 0.4819196397
v 1.361918199e-17 0.07300000191 0.4828767473
v 0.01093983531 0.07300000191 0.4819196397
v 0.02154726982 0.07300000191 0.4790773851
v 0.03150000095 0.07300000191 0.4744363481
v 0.04049561977 0.07300000191 0.4681375581
v 0.04826079845 0.07300000191 0.4603723795
v 0.05455960274 0.07300000191 0.4513767511
v 0.05920063496 0.07300000191 0.4414240152
v 0.0620428896 0.07300000191 0.4308165819
v 0.06300000191 0.07300000191 0.4198767549
v 0.0620428896 0.07300000191 0.4089369184
v 0.05920063496 0.07300000191 0.3983294851
v 0.05455960274 0.07300000191 0.3883767492
v 0.04826079845 0.07300000191 0.3793811304
v 0.04049561977 0.07300000191 0.3716159517
v 0.03150000095 0.07300000191 0.3653171522
v 0.02154726982 0.07300000191 0.3606761152
v 0.01093983531 0.07300000191 0.3578338606
v 5.903907503e-18 0.07300000191 0.356876753
v -0.01093983531 0.07300000191 0.3578338606
v -0.02154726982 0.07300000191 0.3606761152
v -0.03150000095 0.07300000191 0.3653171522
v -0.04049561977 0.07300000191 0.3716159517
v -0.04826079845 0.07300000191 0.3793811304
v -0.05455960274 0.07300000191 0.3883767492
v -0.05920063496 0.07300000191 0.3983294851
v -0.0620428896 0.07300000191 0.4089369184
v -0.06775000095 0.07300000191 0.3548767549
v -0.06694454193 0.07300000191 0.3568212968
v -0.065 0.07300000191 0.3576267511
v -0.06305545807 0.07300000191 0.3568212968
v -0.06224999905 0.07300000191 0.3548767549
v -0.06305545807 0.07300000191 0.352932213
v -0.065 0.07300000191 0.3521267492
v -0.06694454193 0.07300000191 0.352932213
v -0.06775000095 0.07300000191 0.4848767549
v -0.06694454193 0.07300000191 0.4868212968
v -0.065 0.07300000191 0.4876267511
v -0.06305545807 0.07300000191 0.4868212968
v -0.06224999905 0.07300000191 0.4848767549
v -0.06305545807 0.07300000191 0.482932213
v -0.065 0.07300000191 0.4821267587
v -0.06694454193 0.07300000191 0.482932213
v 0.06224999905 0.07300000191 0.4848767549
v 0.06305545807 0.07300000191 0.4868212968
v 0.065 0.07300000191 0.4876267511
v 0.06694454193 0.07300000191 0.4868212968
v 0.06775000095 0.07300000191 0.4848767549
v 0.06694454193 0.07300000191 0.482932213
v 0.065 0.07300000191 0.4821267587
v 0.06305545807 0.07300000191 0.482932213
v 0.06224999905 0.07300000191 0.3548767549
v 0.06305545807 0.07300000191 0.3568212968
v 0.065 0.07300000191 0.3576267511
v 0.06694454193 0.07300000191 0.3568212968
v 0.06775000095 0.07300000191 0.3548767549
v 0.06694454193 0.07300000191 0.352932213
v 0.065 0.07300000191 0.3521267492
v 0.06305545807 0.07300000191 0.352932213
v 0.2222500038 0.07300000191 0.4198767549
v 0.2230554581 0.07300000191 0.4218212968
v 0.225 0.07300000191 0.4226267511
v 0.2269445419 0.07300000191 0.4218212968
v 0.2277499962 0.07300000191 0.4198767549
v 0.2269445419 0.07300000191 0.417932213
v 0.225 0.07300000191 0.4171267587
v 0.2230554581 0.07300000191 0.417932213
v -0.2277499962 0.07300000191 0.4198767549
v -0.2269445419 0.07300000191 0.4218212968
v -0.225 0.07300000191 0.4226267511
v -0.2230554581 0.07300000191 0.4218212968
v -0.2222500038 0.07300000191 0.4198767549
v -0.2230554581 0.07300000191 0.417932213
v -0.225 0.07300000191 0.4171267587
v -0.2269445419 0.07300000191 0.417932213
v -0.265 0.07800000191 0.3378767568
v -0.2643910408 0.07800000191 0.3348152811
v -0.2626568604 0.07800000191 0.3322198946
v -0.2600614738 0.07800000191 0.3304857141
v -0.2570000076 0.07800000191 0.3298767501
v -0.2570000076 0.07300000191 0.3298767501
v -0.2600614738 0.07300000191 0.3304857141
v -0.2626568604 0.07300000191 0.3322198946
v -0.2643910408 0.07300000191 0.3348152811
v -0.265 0.07300000191 0.3378767568
v 0.2570000076 0.07800000191 0.3298767501
v 0.2570000076 0.07300000191 0.3298767501
v -0.2570000076 0.07300000191 0.3298767501
v -0.2570000076 0.07800000191 0.3298767501
v 0.06224999905 0.07800000191 0.4848767549
v 0.06305545807 0.07800000191 0.4868212968
v 0.065 0.07800000191 0.4876267511
v 0.06694454193 0.07800000191 0.4868212968
v 0.06775000095 0.07800000191 0.4848767549
v 0.06694454193 0.07800000191 0.482932213
v 0.065 0.07800000191 0.4821267587
v 0.06305545807 0.07800000191 0.482932213
v 0.06224999905 0.07300000191 0.4848767549
v 0.06305545807 0.07300000191 0.482932213
v 0.065 0.07300000191 0.4821267587
v 0.06694454193 0.07300000191 0.482932213
v 0.06775000095 0.07300000191 0.4848767549
v 0.06694454193 0.07300000191 0.4868212968
v 0.065 0.07300000191 0.4876267511
v 0.06305545807 0.07300000191 0.4868212968
v 0.06224999905 0.07800000191 0.4848767549
v 0.06224999905 0.07300000191 0.4848767549
v -0.06775000095 0.07800000191 0.4848767549
v -0.06694454193 0.07800000191 0.4868212968
v -0.065 0.07800000191 0.4876267511
v -0.06305545807 0.07800000191 0.4868212968
v -0.06224999905 0.07800000191 0.4848767549
v -0.06305545807 0.07800000191 0.482932213
v -0.065 0.07800000191 0.4821267587
v -0.06694454193 0.07800000191 0.482932213
v -0.06775000095 0.07300000191 0.4848767549
v -0.06694454193 0.07300000191 0.482932213
v -0.065 0.07300000191 0.4821267587
v -0.06305545807 0.07300000191 0.482932213
v -0.06224999905 0.07300000191 0.4848767549
v -0.06305545807 0.07300000191 0.4868212968
v -0.065 0.07300000191 0.4876267511
v -0.06694454193 0.07300000191 0.4868212968
v -0.06775000095 0.07800000191 0.4848767549
v -0.06775000095 0.07300000191 0.4848767549
v 0.06224999905 0.07800000191 0.3548767549
v 0.06305545807 0.07800000191 0.3568212968
v 0.065 0.07800000191 0.3576267511
v 0.06694454193 0.07800000191 0.3568212968
v 0.06775000095 0.07800000191 0.3548767549
v 0.06694454193 0.07800000191 0.352932213
v 0.065 0.07800000191 0.3521267492
v 0.06305545807 0.07800000191 0.352932213
v 0.06224999905 0.07300000191 0.3548767549
v 0.06305545807 0.07300000191 0.352932213
v 0.065 0.07300000191 0.3521267492
v 0.06694454193 0.07300000191 0.352932213
v 0.06775000095 0.07300000191 0.3548767549
v 0.06694454193 0.07300000191 0.3568212968
v 0.065 0.07300000191 0.3576267511
v 0.06305545807 0.07300000191 0.3568212968
v 0.06224999905 0.07800000191 0.3548767549
v 0.06224999905 0.07300000191 0.3548767549
v -0.06775000095 0.07800000191 0.3548767549
v -0.06694454193 0.07800000191 0.3568212968
v -0.065 0.07800000191 0.3576267511
v -0.06305545807 0.07800000191 0.3568212968
v -0.06224999905 0.07800000191 0.3548767549
v -0.06305545807 0.07800000191 0.352932213
v -0.065 0.07800000191 0.3521267492
v -0.06694454193 0.07800000191 0.352932213
v -0.06775000095 0.07300000191 0.3548767549
v -0.06694454193 0.07300000191 0.352932213
v -0.065 0.07300000191 0.3521267492
v -0.06305545807 0.07300000191 0.352932213
v -0.06224999905 0.07300000191 0.3548767549
v -0.06305545807 0.07300000191 0.3568212968
v -0.065 0.07300000191 0.3576267511
v -0.06694454193 0.07300000191 0.3568212968
v -0.06775000095 0.07800000191 0.3548767549
v -0.06775000095 0.07300000191 0.3548767549
v 0.2222500038 0.07800000191 0.4198767549
v 0.2230554581 0.07800000191 0.4218212968
v 0.225 0.07800000191 0.4226267511
v 0.2269445419 0.07800000191 0.4218212968
v 0.2277499962 0.07800000191 0.4198767549
v 0.2269445419 0.07800000191 0.417932213
v 0.225 0.07800000191 0.4171267587
v 0.2230554581 0.07800000191 0.417932213
v 0.2222500038 0.07300000191 0.4198767549
v 0.2230554581 0.07300000191 0.417932213
v 0.225 0.07300000191 0.4171267587
v 0.2269445419 0.07300000191 0.417932213
v 0.2277499962 0.07300000191 0.4198767549
v 0.2269445419 0.07300000191 0.4218212968
v 0.225 0.07300000191 0.4226267511
v 0.2230554581 0.07300000191 0.4218212968
v 0.2222500038 0.07800000191 0.4198767549
v 0.2222500038 0.07300000191 0.4198767549
v -0.2277499962 0.07800000191 0.4198767549
v -0.2269445419 0.07800000191 0.4218212968
v -0.225 0.07800000191 0.4226267511
v -0.2230554581 0.07800000191 0.4218212968
v -0.2222500038 0.07800000191 0.4198767549
v -0.2230554581 0.07800000191 0.417932213
v -0.225 0.07800000191 0.4171267587
v -0.2269445419 0.07800000191 0.417932213
v -0.2277499962 0.07300000191 0.4198767549
v -0.2269445419 0.07300000191 0.417932213
v -0.225 0.07300000191 0.4171267587
v -0.2230554581 0.07300000191 0.417932213
v -0.2222500038 0.07300000191 0.4198767549
v -0.2230554581 0.07300000191 0.4218212968
v -0.225 0.07300000191 0.4226267511
v -0.2269445419 0.07300000191 0.4218212968
v -0.2277499962 0.07800000191 0.4198767549
v -0.2277499962 0.07300000191 0.4198767549
v -0.2082250023 0.07800000191 0.4598767549
v -0.2073921204 0.07800000191 0.4621650774
v -0.2052831841 0.07800000191 0.4633826715
v -0.2028849983 0.07800000191 0.4629597932
v -0.2013196945 0.07800000191 0.4610943491
v -0.2013196945 0.07800000191 0.4586591608
v -0.2028849983 0.07800000191 0.4567936975
v -0.2052831841 0.07800000191 0.4563708383
v -0.2073921204 0.07800000191 0.4575884325
v -0.2082250023 0.07300000191 0.4598767549
v -0.2073921204 0.07300000191 0.4575884325
v -0.2052831841 0.07300000191 0.4563708383
v -0.2028849983 0.07300000191 0.4567936975
v -0.2013196945 0.07300000191 0.4586591608
v -0.2013196945 0.07300000191 0.4610943491
v -0.2028849983 0.07300000191 0.4629597932
v -0.2052831841 0.07300000191 0.4633826715
v -0.2073921204 0.07300000191 0.4621650774
v -0.2082250023 0.07800000191 0.4598767549
v -0.2082250023 0.07300000191 0.4598767549
v 0.2020149994 0.07800000191 0.3798767549
v 0.2027911758 0.07800000191 0.3817505819
v 0.2046649933 0.07800000191 0.3825267488
v 0.2065388298 0.07800000191 0.3817505819
v 0.2073150063 0.07800000191 0.3798767549
v 0.2065388298 0.07800000191 0.3780029184
v 0.2046649933 0.07800000191 0.3772267515
v 0.2027911758 0.07800000191 0.3780029184
v 0.2020149994 0.07300000191 0.3798767549
v 0.2027911758 0.07300000191 0.3780029184
v 0.2046649933 0.07300000191 0.3772267515
v 0.2065388298 0.07300000191 0.3780029184
v 0.2073150063 0.07300000191 0.3798767549
v 0.2065388298 0.07300000191 0.3817505819
v 0.2046649933 0.07300000191 0.3825267488
v 0.2027911758 0.07300000191 0.3817505819
v 0.2020149994 0.07800000191 0.3798767549
v 0.2020149994 0.07300000191 0.3798767549
v 0.2020149994 0.07800000191 0.4598767549
v 0.2027911758 0.07800000191 0.4617505914
v 0.2046649933 0.07800000191 0.4625267488
v 0.2065388298 0.07800000191 0.4617505914
v 0.2073150063 0.07800000191 0.4598767549
v 0.2065388298 0.07800000191 0.4580029184
v 0.2046649933 0.07800000191 0.457226761
v 0.2027911758 0.07800000191 0.4580029184
v 0.2020149994 0.07300000191 0.4598767549
v 0.2027911758 0.07300000191 0.4580029184
v 0.2046649933 0.07300000191 0.457226761
v 0.2065388298 0.07300000191 0.4580029184
v 0.2073150063 0.07300000191 0.4598767549
v 0.2065388298 0.07300000191 0.4617505914
v 0.2046649933 0.07300000191 0.4625267488
v 0.2027911758 0.07300000191 0.4617505914
v 0.2020149994 0.07800000191 0.4598767549
v 0.2020149994 0.07300000191 0.4598767549
v -0.2479850006 0.07800000191 0.4598767549
v -0.2472088242 0.07800000191 0.4617505914
v -0.2453350067 0.07800000191 0.4625267488
v -0.2434611702 0.07800000191 0.4617505914
v -0.2426849937 0.07800000191 0.4598767549
v -0.2434611702 0.07800000191 0.4580029184
v -0.2453350067 0.07800000191 0.457226761
v -0.2472088242 0.07800000191 0.4580029184
v -0.2479850006 0.07300000191 0.4598767549
v -0.2472088242 0.07300000191 0.4580029184
v -0.2453350067 0.07300000191 0.457226761
v -0.2434611702 0.07300000191 0.4580029184
v -0.2426849937 0.07300000191 0.4598767549
v -0.2434611702 0.07300000191 0.4617505914
v -0.2453350067 0.07300000191 0.4625267488
v -0.2472088242 0.07300000191 0.4617505914
v -0.2479850006 0.07800000191 0.4598767549
v -0.2479850006 0.07300000191 0.4598767549
v -0.2479850006 0.07800000191 0.3798767549
v -0.2472088242 0.07800000191 0.3817505819
v -0.2453350067 0.07800000191 0.3825267488
v -0.2434611702 0.07800000191 0.3817505819
v -0.2426849937 0.07800000191 0.3798767549
v -0.2434611702 0.07800000191 0.3780029184
v -0.2453350067 0.07800000191 0.3772267515
v -0.2472088242 0.07800000191 0.3780029184
v -0.2479850006 0.07300000191 0.3798767549
v -0.2472088242 0.07300000191 0.3780029184
v -0.2453350067 0.07300000191 0.3772267515
v -0.2434611702 0.07300000191 0.3780029184
v -0.2426849937 0.07300000191 0.3798767549
v -0.2434611702 0.07300000191 0.3817505819
v -0.2453350067 0.07300000191 0.3825267488
v -0.2472088242 0.07300000191 0.3817505819
v -0.2479850006 0.07800000191 0.3798767549
v -0.2479850006 0.07300000191 0.3798767549
v 0.2417749977 0.07800000191 0.4598767549
v 0.2426078796 0.07800000191 0.4621650774
v 0.2447168159 0.07800000191 0.4633826715
v 0.2471150017 0.07800000191 0.4629597932
v 0.2486803055 0.07800000191 0.4610943491
v 0.2486803055 0.07800000191 0.4586591608
v 0.2471150017 0.07800000191 0.4567936975
v 0.2447168159 0.07800000191 0.4563708383
v 0.2426078796 0.07800000191 0.4575884325
v 0.2417749977 0.07300000191 0.4598767549
v 0.2426078796 0.07300000191 0.4575884325
v 0.2447168159 0.07300000191 0.4563708383
v 0.2471150017 0.07300000191 0.4567936975
v 0.2486803055 0.07300000191 0.4586591608
v 0.2486803055 0.07300000191 0.4610943491
v 0.2471150017 0.07300000191 0.4629597932
v 0.2447168159 0.07300000191 0.4633826715
v 0.2426078796 0.07300000191 0.4621650774
v 0.2417749977 0.07800000191 0.4598767549
v 0.2417749977 0.07300000191 0.4598767549
v 0.2417749977 0.07800000191 0.3798767549
v 0.2426078796 0.07800000191 0.3821650774
v 0.2447168159 0.07800000191 0.3833826715
v 0.2471150017 0.07800000191 0.3829598028
v 0.2486803055 0.07800000191 0.3810943395
v 0.2486803055 0.07800000191 0.3786591608
v 0.2471150017 0.07800000191 0.3767936975
v 0.2447168159 0.07800000191 0.3763708383
v 0.2426078796 0.07800000191 0.3775884325
v 0.2417749977 0.07300000191 0.3798767549
v 0.2426078796 0.07300000191 0.3775884325
v 0.2447168159 0.07300000191 0.3763708383
v 0.2471150017 0.07300000191 0.3767936975
v 0.2486803055 0.07300000191 0.3786591608
v 0.2486803055 0.07300000191 0.3810943395
v 0.2471150017 0.07300000191 0.3829598028
v 0.2447168159 0.07300000191 0.3833826715
v 0.2426078796 0.07300000191 0.3821650774
v 0.2417749977 0.07800000191 0.3798767549
v 0.2417749977 0.07300000191 0.3798767549
v -0.2082250023 0.07800000191 0.3798767549
v -0.2073921204 0.07800000191 0.3821650774
v -0.2052831841 0.07800000191 0.3833826715
v -0.2028849983 0.07800000191 0.3829598028
v -0.2013196945 0.07800000191 0.3810943395
v -0.2013196945 0.07800000191 0.3786591608
v -0.2028849983 0.07800000191 0.3767936975
v -0.2052831841 0.07800000191 0.3763708383
v -0.2073921204 0.07800000191 0.3775884325
v -0.2082250023 0.07300000191 0.3798767549
v -0.2073921204 0.07300000191 0.3775884325
v -0.2052831841 0.07300000191 0.3763708383
v -0.2028849983 0.07300000191 0.3767936975
v -0.2013196945 0.07300000191 0.3786591608
v -0.2013196945 0.07300000191 0.3810943395
v -0.2028849983 0.07300000191 0.3829598028
v -0.2052831841 0.07300000191 0.3833826715
v -0.2073921204 0.07300000191 0.3821650774
v -0.2082250023 0.07800000191 0.3798767549
v -0.2082250023 0.07300000191 0.3798767549
v 0.265 0.07800000191 0.5018767435
v 0.265 0.07300000191 0.5018767435
v 0.265 0.07300000191 0.3378767568
v 0.265 0.07800000191 0.3378767568
v -0.2570000076 0.07800000191 0.5098767549
v -0.2600614738 0.07800000191 0.5092677957
v -0.2626568604 0.07800000191 0.5075336153
v -0.2643910408 0.07800000191 0.5049382288
v -0.265 0.07800000191 0.5018767435
v -0.265 0.07300000191 0.5018767435
v -0.2643910408 0.07300000191 0.5049382288
v -0.2626568604 0.07300000191 0.5075336153
v -0.2600614738 0.07300000191 0.5092677957
v -0.2570000076 0.07300000191 0.5098767549
v -0.265 0.07300000191 0.5018767435
v -0.265 0.07800000191 0.5018767435
v -0.265 0.07800000191 0.3378767568
v -0.265 0.07300000191 0.3378767568
v 0.2417749977 0.07800000191 0.3798767549
v 0.2426078796 0.07800000191 0.3775884325
v 0.2447168159 0.07800000191 0.3763708383
v 0.2471150017 0.07800000191 0.3767936975
v 0.2486803055 0.07800000191 0.3786591608
v 0.2486803055 0.07800000191 0.3810943395
v 0.2471150017 0.07800000191 0.3829598028
v 0.2447168159 0.07800000191 0.3833826715
v 0.2426078796 0.07800000191 0.3821650774
v 0.2020149994 0.07800000191 0.4598767549
v 0.2027911758 0.07800000191 0.4580029184
v 0.2046649933 0.07800000191 0.457226761
v 0.2065388298 0.07800000191 0.4580029184
v 0.2073150063 0.07800000191 0.4598767549
v 0.2065388298 0.07800000191 0.4617505914
v 0.2046649933 0.07800000191 0.4625267488
v 0.2027911758 0.07800000191 0.4617505914
v -0.2479850006 0.07800000191 0.3798767549
v -0.2472088242 0.07800000191 0.3780029184
v -0.2453350067 0.07800000191 0.3772267515
v -0.2434611702 0.07800000191 0.3780029184
v -0.2426849937 0.07800000191 0.3798767549
v -0.2434611702 0.07800000191 0.3817505819
v -0.2453350067 0.07800000191 0.3825267488
v -0.2472088242 0.07800000191 0.3817505819
v -0.2082250023 0.07800000191 0.4598767549
v -0.2073921204 0.07800000191 0.4575884325
v -0.2052831841 0.07800000191 0.4563708383
v -0.2028849983 0.07800000191 0.4567936975
v -0.2013196945 0.07800000191 0.4586591608
v -0.2013196945 0.07800000191 0.4610943491
v -0.2028849983 0.07800000191 0.4629597932
v -0.2052831841 0.07800000191 0.4633826715
v -0.2073921204 0.07800000191 0.4621650774
v -0.2082250023 0.07800000191 0.3798767549
v -0.2073921204 0.07800000191 0.3775884325
v -0.2052831841 0.07800000191 0.3763708383
v -0.2028849983 0.07800000191 0.3767936975
v -0.2013196945 0.07800000191 0.3786591608
v -0.2013196945 0.07800000191 0.3810943395
v -0.2028849983 0.07800000191 0.3829598028
v -0.2052831841 0.07800000191 0.3833826715
v -0.2073921204 0.07800000191 0.3821650774
v -0.2479850006 0.07800000191 0.4598767549
v -0.2472088242 0.07800000191 0.4580029184
v -0.2453350067 0.07800000191 0.457226761
v -0.2434611702 0.07800000191 0.4580029184
v -0.2426849937 0.07800000191 0.4598767549
v -0.2434611702 0.07800000191 0.4617505914
v -0.2453350067 0.07800000191 0.4625267488
v -0.2472088242 0.07800000191 0.4617505914
v 0.2417749977 0.07800000191 0.4598767549
v 0.2426078796 0.07800000191 0.4575884325
v 0.2447168159 0.07800000191 0.4563708383
v 0.2471150017 0.07800000191 0.4567936975
v 0.2486803055 0.07800000191 0.4586591608
v 0.2486803055 0.07800000191 0.4610943491
v 0.2471150017 0.07800000191 0.4629597932
v 0.2447168159 0.07800000191 0.4633826715
v 0.2426078796 0.07800000191 0.4621650774
v 0.2020149994 0.07800000191 0.3798767549
v 0.2027911758 0.07800000191 0.3780029184
v 0.2046649933 0.07800000191 0.3772267515
v 0.2065388298 0.07800000191 0.3780029184
v 0.2073150063 0.07800000191 0.3798767549
v 0.2065388298 0.07800000191 0.3817505819
v 0.2046649933 0.07800000191 0.3825267488
v 0.2027911758 0.07800000191 0.3817505819
v -0.265 0.07800000191 0.5018767435
v -0.2643910408 0.07800000191 0.5049382288
v -0.2626568604 0.07800000191 0.5075336153
v -0.2600614738 0.07800000191 0.5092677957
v -0.2570000076 0.07800000191 0.5098767549
v 0.2570000076 0.07800000191 0.5098767549
v 0.2600614738 0.07800000191 0.5092677957
v 0.2626568604 0.07800000191 0.5075336153
v 0.2643910408 0.07800000191 0.5049382288
v 0.265 0.07800000191 0.5018767435
v 0.265 0.07800000191 0.3378767568
v 0.2643910408 0.07800000191 0.3348152811
v 0.2626568604 0.07800000191 0.3322198946
v 0.2600614738 0.07800000191 0.3304857141
v 0.2570000076 0.07800000191 0.3298767501
v -0.2570000076 0.07800000191 0.3298767501
v -0.2600614738 0.07800000191 0.3304857141
v -0.2626568604 0.07800000191 0.3322198946
v -0.2643910408 0.07800000191 0.3348152811
v -0.265 0.07800000191 0.3378767568
v -0.06300000191 0.07800000191 0.4198767549
v -0.0620428896 0.07800000191 0.4089369184
v -0.05920063496 0.07800000191 0.3983294851
v -0.05455960274 0.07800000191 0.3883767492
v -0.04826079845 0.07800000191 0.3793811304
v -0.04049561977 0.07800000191 0.3716159517
v -0.03150000095 0.07800000191 0.3653171522
v -0.02154726982 0.07800000191 0.3606761152
v -0.01093983531 0.07800000191 0.3578338606
v 5.597745804e-18 0.07800000191 0.356876753
v 0.01093983531 0.07800000191 0.3578338606
v 0.02154726982 0.07800000191 0.3606761152
v 0.03150000095 0.07800000191 0.3653171522
v 0.04049561977 0.07800000191 0.3716159517
v 0.04826079845 0.07800000191 0.3793811304
v 0.05455960274 0.07800000191 0.3883767492
v 0.05920063496 0.07800000191 0.3983294851
v 0.0620428896 0.07800000191 0.4089369184
v 0.06300000191 0.07800000191 0.4198767549
v 0.0620428896 0.07800000191 0.4308165819
v 0.05920063496 0.07800000191 0.4414240152
v 0.05455960274 0.07800000191 0.4513767511
v 0.04826079845 0.07800000191 0.4603723795
v 0.04049561977 0.07800000191 0.4681375581
v 0.03150000095 0.07800000191 0.4744363481
v 0.02154726982 0.07800000191 0.4790773851
v 0.01093983531 0.07800000191 0.4819196397
v 1.331302029e-17 0.07800000191 0.4828767473
v -0.01093983531 0.07800000191 0.4819196397
v -0.02154726982 0.07800000191 0.4790773851
v -0.03150000095 0.07800000191 0.4744363481
v -0.04049561977 0.07800000191 0.4681375581
v -0.04826079845 0.07800000191 0.4603723795
v -0.05455960274 0.07800000191 0.4513767511
v -0.05920063496 0.07800000191 0.4414240152
v -0.0620428896 0.07800000191 0.4308165819
v -0.06775000095 0.07800000191 0.3548767549
v -0.06694454193 0.07800000191 0.352932213
v -0.065 0.07800000191 0.3521267492
v -0.06305545807 0.07800000191 0.352932213
v -0.06224999905 0.07800000191 0.3548767549
v -0.06305545807 0.07800000191 0.3568212968
v -0.065 0.07800000191 0.3576267511
v -0.06694454193 0.07800000191 0.3568212968
v -0.06775000095 0.07800000191 0.4848767549
v -0.06694454193 0.07800000191 0.482932213
v -0.065 0.07800000191 0.4821267587
v -0.06305545807 0.07800000191 0.482932213
v -0.06224999905 0.07800000191 0.4848767549
v -0.06305545807 0.07800000191 0.4868212968
v -0.065 0.07800000191 0.4876267511
v -0.06694454193 0.07800000191 0.4868212968
v 0.06224999905 0.07800000191 0.4848767549
v 0.06305545807 0.07800000191 0.482932213
v 0.065 0.07800000191 0.4821267587
v 0.06694454193 0.07800000191 0.482932213
v 0.06775000095 0.07800000191 0.4848767549
v 0.06694454193 0.07800000191 0.4868212968
v 0.065 0.07800000191 0.4876267511
v 0.06305545807 0.07800000191 0.4868212968
v 0.06224999905 0.07800000191 0.3548767549
v 0.06305545807 0.07800000191 0.352932213
v 0.065 0.07800000191 0.3521267492
v 0.06694454193 0.07800000191 0.352932213
v 0.06775000095 0.07800000191 0.3548767549
v 0.06694454193 0.07800000191 0.3568212968
v 0.065 0.07800000191 0.3576267511
v 0.06305545807 0.07800000191 0.3568212968
v 0.2222500038 0.07800000191 0.4198767549
v 0.2230554581 0.07800000191 0.417932213
v 0.225 0.07800000191 0.4171267587
v 0.2269445419 0.07800000191 0.417932213
v 0.2277499962 0.07800000191 0.4198767549
v 0.2269445419 0.07800000191 0.4218212968
v 0.225 0.07800000191 0.4226267511
v 0.2230554581 0.07800000191 0.4218212968
v -0.2277499962 0.07800000191 0.4198767549
v -0.2269445419 0.07800000191 0.417932213
v -0.225 0.07800000191 0.4171267587
v -0.2230554581 0.07800000191 0.417932213
v -0.2222500038 0.07800000191 0.4198767549
v -0.2230554581 0.07800000191 0.4218212968
v -0.225 0.07800000191 0.4226267511
v -0.2269445419 0.07800000191 0.4218212968
v 0.265 0.07800000191 0.5018767435
v 0.2643910408 0.07800000191 0.5049382288
v 0.2626568604 0.07800000191 0.5075336153
v 0.2600614738 0.07800000191 0.5092677957
v 0.2570000076 0.07800000191 0.5098767549
v 0.2570000076 0.07300000191 0.5098767549
v 0.2600614738 0.07300000191 0.5092677957
v 0.2626568604 0.07300000191 0.5075336153
v 0.2643910408 0.07300000191 0.5049382288
v 0.265 0.07300000191 0.5018767435
v 0.2570000076 0.07800000191 0.3298767501
v 0.2600614738 0.07800000191 0.3304857141
v 0.2626568604 0.07800000191 0.3322198946
v 0.2643910408 0.07800000191 0.3348152811
v 0.265 0.07800000191 0.3378767568
v 0.265 0.07300000191 0.3378767568
v 0.2643910408 0.07300000191 0.3348152811
v 0.2626568604 0.07300000191 0.3322198946
v 0.2600614738 0.07300000191 0.3304857141
v 0.2570000076 0.07300000191 0.3298767501
v -0.06300000191 0.07800000191 0.4198767549
v -0.0620428896 0.07800000191 0.4308165819
v -0.05920063496 0.07800000191 0.4414240152
v -0.05455960274 0.07800000191 0.4513767511
v -0.04826079845 0.07800000191 0.4603723795
v -0.04049561977 0.07800000191 0.4681375581
v -0.03150000095 0.07800000191 0.4744363481
v -0.02154726982 0.07800000191 0.4790773851
v -0.01093983531 0.07800000191 0.4819196397
v 1.331302029e-17 0.07800000191 0.4828767473
v 0.01093983531 0.07800000191 0.4819196397
v 0.02154726982 0.07800000191 0.4790773851
v 0.03150000095 0.07800000191 0.4744363481
v 0.04049561977 0.07800000191 0.4681375581
v 0.04826079845 0.07800000191 0.4603723795
v 0.05455960274 0.07800000191 0.4513767511
v 0.05920063496 0.07800000191 0.4414240152
v 0.0620428896 0.07800000191 0.4308165819
v 0.06300000191 0.07800000191 0.4198767549
v 0.0620428896 0.07800000191 0.4089369184
v 0.05920063496 0.07800000191 0.3983294851
v 0.05455960274 0.07800000191 0.3883767492
v 0.04826079845 0.07800000191 0.3793811304
v 0.04049561977 0.07800000191 0.3716159517
v 0.03150000095 0.07800000191 0.3653171522
v 0.02154726982 0.07800000191 0.3606761152
v 0.01093983531 0.07800000191 0.3578338606
v 5.597745804e-18 0.07800000191 0.356876753
v -0.01093983531 0.07800000191 0.3578338606
v -0.02154726982 0.07800000191 0.3606761152
v -0.03150000095 0.07800000191 0.3653171522
v -0.04049561977 0.07800000191 0.3716159517
v -0.04826079845 0.07800000191 0.3793811304
v -0.05455960274 0.07800000191 0.3883767492
v -0.05920063496 0.07800000191 0.3983294851
v -0.0620428896 0.07800000191 0.4089369184
v -0.06300000191 0.07300000191 0.4198767549
v -0.0620428896 0.07300000191 0.4089369184
v -0.05920063496 0.07300000191 0.3983294851
v -0.05455960274 0.07300000191 0.3883767492
v -0.04826079845 0.07300000191 0.3793811304
v -0.04049561977 0.07300000191 0.3716159517
v -0.03150000095 0.07300000191 0.3653171522
v -0.02154726982 0.07300000191 0.3606761152
v -0.01093983531 0.07300000191 0.3578338606
v 5.903907503e-18 0.07300000191 0.356876753
v 0.01093983531 0.07300000191 0.3578338606
v 0.02154726982 0.07300000191 0.3606761152
v 0.03150000095 0.07300000191 0.3653171522
v 0.04049561977 0.07300000191 0.3716159517
v 0.04826079845 0.07300000191 0.3793811304
v 0.05455960274 0.07300000191 0.3883767492
v 0.05920063496 0.07300000191 0.3983294851
v 0.0620428896 0.07300000191 0.4089369184
v 0.06300000191 0.07300000191 0.4198767549
v 0.0620428896 0.07300000191 0.4308165819
v 0.05920063496 0.07300000191 0.4414240152
v 0.05455960274 0.07300000191 0.4513767511
v 0.04826079845 0.07300000191 0.4603723795
v 0.04049561977 0.07300000191 0.4681375581
v 0.03150000095 0.07300000191 0.4744363481
v 0.02154726982 0.07300000191 0.4790773851
v 0.01093983531 0.07300000191 0.4819196397
v 1.361918199e-17 0.07300000191 0.4828767473
v -0.01093983531 0.07300000191 0.4819196397
v -0.02154726982 0.07300000191 0.4790773851
v -0.03150000095 0.07300000191 0.4744363481
v -0.04049561977 0.07300000191 0.4681375581
v -0.04826079845 0.07300000191 0.4603723795
v -0.05455960274 0.07300000191 0.4513767511
v -0.05920063496 0.07300000191 0.4414240152
v -0.0620428896 0.07300000191 0.4308165819
v -0.06300000191 0.07800000191 0.4198767549
v -0.06300000191 0.07300000191 0.4198767549
f 2 3 1
f 1 3 4
f 6 68 5
f 5 68 69
f 5 69 70
f 6 7 68
f 68 7 67
f 67 7 167
f 67 167 168
f 7 8 167
f 167 8 166
f 166 8 165
f 165 8 62
f 165 62 164
f 164 62 163
f 163 62 63
f 163 63 20
f 20 63 19
f 19 63 64
f 19 64 56
f 62 8 61
f 61 8 9
f 61 9 88
f 88 9 87
f 87 9 10
f 87 10 11
f 11 12 87
f 87 12 71
f 87 71 158
f 158 71 157
f 157 71 156
f 156 71 72
f 156 72 155
f 155 72 115
f 155 115 116
f 71 12 70
f 70 12 13
f 70 13 5
f 15 107 14
f 14 107 108
f 14 108 21
f 21 108 109
f 21 109 20
f 20 109 110
f 20 110 162
f 162 110 111
f 162 111 161
f 161 111 168
f 168 111 112
f 168 112 67
f 67 112 113
f 67 113 66
f 66 113 114
f 66 114 65
f 65 114 115
f 65 115 72
f 16 150 15
f 15 150 151
f 15 151 107
f 107 151 106
f 106 151 105
f 105 151 152
f 105 152 104
f 104 152 145
f 104 145 146
f 17 58 16
f 16 58 88
f 16 88 148
f 148 88 92
f 148 92 147
f 147 92 73
f 147 73 139
f 139 73 138
f 138 73 77
f 138 77 32
f 32 77 50
f 32 50 51
f 18 56 17
f 17 56 57
f 17 57 58
f 18 19 56
f 23 48 22
f 22 48 77
f 22 77 78
f 24 176 23
f 23 176 169
f 23 169 55
f 55 169 170
f 55 170 54
f 54 170 171
f 54 171 37
f 37 171 36
f 36 171 172
f 36 172 94
f 94 172 93
f 93 172 173
f 93 173 174
f 25 41 24
f 24 41 175
f 24 175 176
f 26 39 25
f 25 39 40
f 25 40 41
f 26 27 39
f 39 27 47
f 47 27 46
f 46 27 28
f 46 28 78
f 78 28 29
f 78 29 22
f 31 51 30
f 30 51 52
f 30 52 53
f 31 32 51
f 32 33 138
f 138 33 137
f 137 33 144
f 144 33 34
f 144 34 143
f 143 34 97
f 143 97 98
f 97 34 96
f 96 34 35
f 96 35 36
f 54 37 53
f 53 37 38
f 53 38 30
f 41 42 175
f 175 42 174
f 174 42 128
f 174 128 93
f 43 126 42
f 42 126 127
f 42 127 128
f 43 44 126
f 126 44 125
f 125 44 131
f 125 131 124
f 124 131 123
f 123 131 132
f 123 132 122
f 122 132 133
f 122 133 134
f 131 44 130
f 130 44 45
f 130 45 129
f 129 45 136
f 136 45 46
f 136 46 78
f 48 49 77
f 77 49 50
f 55 48 23
f 58 59 88
f 88 59 60
f 88 60 61
f 74 75 73
f 73 75 76
f 73 76 77
f 136 78 82
f 82 78 79
f 82 79 80
f 80 81 82
f 136 82 135
f 135 82 83
f 135 83 159
f 159 83 158
f 158 83 87
f 84 85 83
f 83 85 86
f 83 86 87
f 88 89 92
f 92 89 90
f 92 90 91
f 94 95 36
f 36 95 96
f 98 99 143
f 143 99 142
f 142 99 100
f 142 100 141
f 141 100 140
f 140 100 101
f 140 101 139
f 139 101 102
f 139 102 147
f 147 102 103
f 147 103 146
f 146 103 104
f 116 117 155
f 155 117 154
f 154 117 118
f 154 118 153
f 153 118 160
f 160 118 119
f 160 119 159
f 159 119 120
f 159 120 135
f 135 120 121
f 135 121 134
f 134 121 122
f 148 149 16
f 16 149 150
f 162 163 20
f 186 177 185
f 185 177 178
f 185 178 184
f 184 178 179
f 184 179 183
f 183 179 180
f 183 180 182
f 182 180 181
f 188 189 187
f 187 189 190
f 192 206 191
f 191 206 208
f 207 199 198
f 198 199 200
f 198 200 197
f 197 200 201
f 197 201 196
f 196 201 202
f 196 202 195
f 195 202 203
f 195 203 194
f 194 203 204
f 194 204 193
f 193 204 205
f 193 205 192
f 192 205 206
f 210 224 209
f 209 224 226
f 225 217 216
f 216 217 218
f 216 218 215
f 215 218 219
f 215 219 214
f 214 219 220
f 214 220 213
f 213 220 221
f 213 221 212
f 212 221 222
f 212 222 211
f 211 222 223
f 211 223 210
f 210 223 224
f 228 242 227
f 227 242 244
f 243 235 234
f 234 235 236
f 234 236 233
f 233 236 237
f 233 237 232
f 232 237 238
f 232 238 231
f 231 238 239
f 231 239 230
f 230 239 240
f 230 240 229
f 229 240 241
f 229 241 228
f 228 241 242
f 246 260 245
f 245 260 262
f 261 253 252
f 252 253 254
f 252 254 251
f 251 254 255
f 251 255 250
f 250 255 256
f 250 256 249
f 249 256 257
f 249 257 248
f 248 257 258
f 248 258 247
f 247 258 259
f 247 259 246
f 246 259 260
f 264 278 263
f 263 278 280
f 279 271 270
f 270 271 272
f 270 272 269
f 269 272 273
f 269 273 268
f 268 273 274
f 268 274 267
f 267 274 275
f 267 275 266
f 266 275 276
f 266 276 265
f 265 276 277
f 265 277 264
f 264 277 278
f 282 296 281
f 281 296 298
f 297 289 288
f 288 289 290
f 288 290 287
f 287 290 291
f 287 291 286
f 286 291 292
f 286 292 285
f 285 292 293
f 285 293 284
f 284 293 294
f 284 294 283
f 283 294 295
f 283 295 282
f 282 295 296
f 300 316 299
f 299 316 318
f 317 308 307
f 307 308 309
f 307 309 306
f 306 309 310
f 306 310 305
f 305 310 311
f 305 311 304
f 304 311 312
f 304 312 303
f 303 312 313
f 303 313 302
f 302 313 314
f 302 314 301
f 301 314 315
f 301 315 300
f 300 315 316
f 320 334 319
f 319 334 336
f 335 327 326
f 326 327 328
f 326 328 325
f 325 328 329
f 325 329 324
f 324 329 330
f 324 330 323
f 323 330 331
f 323 331 322
f 322 331 332
f 322 332 321
f 321 332 333
f 321 333 320
f 320 333 334
f 338 352 337
f 337 352 354
f 353 345 344
f 344 345 346
f 344 346 343
f 343 346 347
f 343 347 342
f 342 347 348
f 342 348 341
f 341 348 349
f 341 349 340
f 340 349 350
f 340 350 339
f 339 350 351
f 339 351 338
f 338 351 352
f 356 370 355
f 355 370 372
f 371 363 362
f 362 363 364
f 362 364 361
f 361 364 365
f 361 365 360
f 360 365 366
f 360 366 359
f 359 366 367
f 359 367 358
f 358 367 368
f 358 368 357
f 357 368 369
f 357 369 356
f 356 369 370
f 374 388 373
f 373 388 390
f 389 381 380
f 380 381 382
f 380 382 379
f 379 382 383
f 379 383 378
f 378 383 384
f 378 384 377
f 377 384 385
f 377 385 376
f 376 385 386
f 376 386 375
f 375 386 387
f 375 387 374
f 374 387 388
f 392 408 391
f 391 408 410
f 409 400 399
f 399 400 401
f 399 401 398
f 398 401 402
f 398 402 397
f 397 402 403
f 397 403 396
f 396 403 404
f 396 404 395
f 395 404 405
f 395 405 394
f 394 405 406
f 394 406 393
f 393 406 407
f 393 407 392
f 392 407 408
f 412 428 411
f 411 428 430
f 429 420 419
f 419 420 421
f 419 421 418
f 418 421 422
f 418 422 417
f 417 422 423
f 417 423 416
f 416 423 424
f 416 424 415
f 415 424 425
f 415 425 414
f 414 425 426
f 414 426 413
f 413 426 427
f 413 427 412
f 412 427 428
f 432 448 431
f 431 448 450
f 449 440 439
f 439 440 441
f 439 441 438
f 438 441 442
f 438 442 437
f 437 442 443
f 437 443 436
f 436 443 444
f 436 444 435
f 435 444 445
f 435 445 434
f 434 445 446
f 434 446 433
f 433 446 447
f 433 447 432
f 432 447 448
f 452 453 451
f 451 453 454
f 464 455 463
f 463 455 456
f 463 456 462
f 462 456 457
f 462 457 461
f 461 457 458
f 461 458 460
f 460 458 459
f 466 467 465
f 465 467 468
f 470 532 469
f 469 532 533
f 469 533 534
f 470 471 532
f 532 471 531
f 531 471 547
f 531 547 620
f 620 547 551
f 620 551 619
f 619 551 552
f 619 552 595
f 595 552 594
f 594 552 556
f 594 556 505
f 505 556 488
f 505 488 489
f 471 472 547
f 547 472 473
f 547 473 474
f 475 523 474
f 474 523 524
f 474 524 547
f 547 524 546
f 546 524 525
f 546 525 526
f 476 627 475
f 475 627 628
f 475 628 629
f 477 534 476
f 476 534 535
f 476 535 627
f 627 535 626
f 626 535 574
f 626 574 575
f 477 469 534
f 479 578 478
f 478 578 579
f 478 579 485
f 485 579 611
f 485 611 612
f 578 479 577
f 577 479 480
f 577 480 576
f 576 480 632
f 576 632 575
f 575 632 625
f 575 625 626
f 481 522 480
f 480 522 631
f 480 631 632
f 482 520 481
f 481 520 521
f 481 521 522
f 482 483 520
f 520 483 528
f 528 483 527
f 527 483 484
f 527 484 546
f 546 484 614
f 546 614 542
f 542 614 615
f 542 615 541
f 541 615 607
f 541 607 608
f 485 612 484
f 484 612 613
f 484 613 614
f 487 556 486
f 486 556 537
f 486 537 512
f 512 537 519
f 519 537 518
f 518 537 501
f 518 501 517
f 517 501 502
f 517 502 494
f 487 488 556
f 490 503 489
f 489 503 504
f 489 504 505
f 490 491 503
f 503 491 511
f 511 491 510
f 510 491 492
f 510 492 635
f 635 492 634
f 634 492 493
f 634 493 633
f 633 493 513
f 633 513 640
f 640 513 514
f 640 514 639
f 639 514 496
f 639 496 497
f 513 493 512
f 512 493 486
f 495 515 494
f 494 515 516
f 494 516 517
f 495 496 515
f 515 496 514
f 498 590 497
f 497 590 591
f 497 591 592
f 498 499 590
f 590 499 589
f 589 499 603
f 589 603 588
f 588 603 587
f 587 603 604
f 587 604 586
f 586 604 605
f 586 605 606
f 603 499 602
f 602 499 500
f 602 500 601
f 601 500 608
f 608 500 501
f 608 501 537
f 505 506 594
f 594 506 593
f 593 506 600
f 600 506 507
f 600 507 599
f 599 507 561
f 599 561 562
f 561 507 560
f 560 507 508
f 560 508 509
f 510 635 509
f 509 635 636
f 509 636 558
f 558 636 557
f 557 636 637
f 557 637 638
f 522 523 631
f 631 523 630
f 630 523 629
f 629 523 475
f 526 527 546
f 530 571 529
f 529 571 572
f 529 572 536
f 536 572 573
f 536 573 535
f 535 573 574
f 531 622 530
f 530 622 623
f 530 623 571
f 571 623 570
f 570 623 569
f 569 623 624
f 569 624 568
f 568 624 617
f 568 617 618
f 608 537 541
f 541 537 538
f 541 538 539
f 539 540 541
f 543 544 542
f 542 544 545
f 542 545 546
f 547 548 551
f 551 548 549
f 551 549 550
f 553 554 552
f 552 554 555
f 552 555 556
f 558 559 509
f 509 559 560
f 562 563 599
f 599 563 598
f 598 563 564
f 598 564 597
f 597 564 596
f 596 564 565
f 596 565 595
f 595 565 566
f 595 566 619
f 619 566 567
f 619 567 618
f 618 567 568
f 579 580 611
f 611 580 581
f 611 581 610
f 610 581 582
f 610 582 609
f 609 582 616
f 616 582 583
f 616 583 615
f 615 583 584
f 615 584 607
f 607 584 585
f 607 585 606
f 606 585 586
f 497 592 638
f 638 592 557
f 620 621 531
f 531 621 622
f 638 639 497
f 650 641 649
f 649 641 642
f 649 642 648
f 648 642 643
f 648 643 647
f 647 643 644
f 647 644 646
f 646 644 645
f 660 651 659
f 659 651 652
f 659 652 658
f 658 652 653
f 658 653 657
f 657 653 654
f 657 654 656
f 656 654 655
f 662 732 661
f 661 732 734
f 733 697 696
f 696 697 698
f 696 698 695
f 695 698 699
f 695 699 694
f 694 699 700
f 694 700 693
f 693 700 701
f 693 701 692
f 692 701 702
f 692 702 691
f 691 702 703
f 691 703 690
f 690 703 704
f 690 704 689
f 689 704 705
f 689 705 688
f 688 705 706
f 688 706 687
f 687 706 707
f 687 707 686
f 686 707 708
f 686 708 685
f 685 708 709
f 685 709 684
f 684 709 710
f 684 710 683
f 683 710 711
f 683 711 682
f 682 711 712
f 682 712 681
f 681 712 713
f 681 713 680
f 680 713 714
f 680 714 679
f 679 714 715
f 679 715 678
f 678 715 716
f 678 716 677
f 677 716 717
f 677 717 676
f 676 717 718
f 676 718 675
f 675 718 719
f 675 719 674
f 674 719 720
f 674 720 673
f 673 720 721
f 673 721 672
f 672 721 722
f 672 722 671
f 671 722 723
f 671 723 670
f 670 723 724
f 670 724 669
f 669 724 725
f 669 725 668
f 668 725 726
f 668 726 667
f 667 726 727
f 667 727 666
f 666 727 728
f 666 728 665
f 665 728 729
f 665 729 664
f 664 729 730
f 664 730 663
f 663 730 731
f 663 731 662
f 662 731 732
