v 0.21 -0.1941339684 0.02650000095
v 0.21 -0.1932679558 0.02799999952
v 0.21 -0.1941339684 0.02950000048
v 0.21 -0.1958660316 0.02950000048
v 0.21 -0.1967320442 0.02799999952
v 0.21 -0.1958660316 0.02650000095
v 0.21 -0.1995000076 0.02799999952
v 0.21 -0.1986405754 0.03064503431
v 0.21 -0.1963905716 0.03227975368
v 0.21 -0.1936094284 0.03227975368
v 0.21 -0.1913594246 0.03064503431
v 0.21 -0.1904999924 0.02799999952
v 0.21 -0.1913594246 0.02535496712
v 0.21 -0.1936094284 0.02372024536
v 0.21 -0.1963905716 0.02372024536
v 0.21 -0.1986405754 0.02535496712
v 0.21 -0.1995000076 0.02799999952
v 0.21 -0.1986405754 0.02535496712
v 0.21 -0.1963905716 0.02372024536
v 0.21 -0.1936094284 0.02372024536
v 0.21 -0.1913594246 0.02535496712
v 0.21 -0.1904999924 0.02799999952
v 0.21 -0.1913594246 0.03064503431
v 0.21 -0.1936094284 0.03227975368
v 0.21 -0.1963905716 0.03227975368
v 0.21 -0.1986405754 0.03064503431
v 0.2114999962 -0.1995000076 0.02799999952
v 0.2114999962 -0.1986405754 0.03064503431
v 0.2114999962 -0.1963905716 0.03227975368
v 0.2114999962 -0.1936094284 0.03227975368
v 0.2114999962 -0.1913594246 0.03064503431
v 0.2114999962 -0.1904999924 0.02799999952
v 0.2114999962 -0.1913594246 0.02535496712
v 0.2114999962 -0.1936094284 0.02372024536
v 0.2114999962 -0.1963905716 0.02372024536
v 0.2114999962 -0.1986405754 0.02535496712
v 0.2114999962 -0.1995000076 0.02799999952
v 0.21 -0.1995000076 0.02799999952
v 0.21 -0.1967320442 0.02799999952
v 0.21 -0.1958660316 0.02950000048
v 0.2110000038 -0.1958660316 0.02950000048
v 0.2110000038 -0.1967320442 0.02799999952
v 0.21 -0.1932679558 0.02799999952
v 0.21 -0.1941339684 0.02650000095
v 0.2110000038 -0.1941339684 0.02650000095
v 0.2110000038 -0.1932679558 0.02799999952
v 0.2110000038 -0.1941339684 0.02950000048
v 0.2110000038 -0.1932679558 0.02799999952
v 0.2110000038 -0.1941339684 0.02650000095
v 0.2110000038 -0.1958660316 0.02650000095
v 0.2110000038 -0.1967320442 0.02799999952
v 0.2110000038 -0.1958660316 0.02950000048
v 0.21 -0.1941339684 0.02650000095
v 0.21 -0.1958660316 0.02650000095
v 0.2110000038 -0.1958660316 0.02650000095
v 0.2110000038 -0.1941339684 0.02650000095
v 0.21 -0.1958660316 0.02650000095
v 0.21 -0.1967320442 0.02799999952
v 0.2110000038 -0.1967320442 0.02799999952
v 0.2110000038 -0.1958660316 0.02650000095
v 0.21 -0.1958660316 0.02950000048
v 0.21 -0.1941339684 0.02950000048
v 0.2110000038 -0.1941339684 0.02950000048
v 0.2110000038 -0.1958660316 0.02950000048
v 0.21 -0.1941339684 0.02950000048
v 0.21 -0.1932679558 0.02799999952
v 0.2110000038 -0.1932679558 0.02799999952
v 0.2110000038 -0.1941339684 0.02950000048
v 0.2195000076 -0.1975 0.02799999952
v 0.2195000076 -0.1967677689 0.02623223305
v 0.2195000076 -0.195 0.02549999952
v 0.2195000076 -0.1932322311 0.02623223305
v 0.2195000076 -0.1925 0.02799999952
v 0.2195000076 -0.1932322311 0.029767766
v 0.2195000076 -0.195 0.03049999952
v 0.2195000076 -0.1967677689 0.029767766
v 0.2195000076 -0.1975 0.02799999952
v 0.2195000076 -0.1967677689 0.029767766
v 0.2195000076 -0.195 0.03049999952
v 0.2195000076 -0.1932322311 0.029767766
v 0.2195000076 -0.1925 0.02799999952
v 0.2195000076 -0.1932322311 0.02623223305
v 0.2195000076 -0.195 0.02549999952
v 0.2195000076 -0.1967677689 0.02623223305
v 0.2114999962 -0.1975 0.02799999952
v 0.2114999962 -0.1967677689 0.02623223305
v 0.2114999962 -0.195 0.02549999952
v 0.2114999962 -0.1932322311 0.02623223305
v 0.2114999962 -0.1925 0.02799999952
v 0.2114999962 -0.1932322311 0.029767766
v 0.2114999962 -0.195 0.03049999952
v 0.2114999962 -0.1967677689 0.029767766
v 0.2114999962 -0.1975 0.02799999952
v 0.2195000076 -0.1975 0.02799999952
v 0.2114999962 -0.1995000076 0.02799999952
v 0.2114999962 -0.1986405754 0.02535496712
v 0.2114999962 -0.1963905716 0.02372024536
v 0.2114999962 -0.1936094284 0.02372024536
v 0.2114999962 -0.1913594246 0.02535496712
v 0.2114999962 -0.1904999924 0.02799999952
v 0.2114999962 -0.1913594246 0.03064503431
v 0.2114999962 -0.1936094284 0.03227975368
v 0.2114999962 -0.1963905716 0.03227975368
v 0.2114999962 -0.1986405754 0.03064503431
v 0.2114999962 -0.1975 0.02799999952
v 0.2114999962 -0.1967677689 0.029767766
v 0.2114999962 -0.195 0.03049999952
v 0.2114999962 -0.1932322311 0.029767766
v 0.2114999962 -0.1925 0.02799999952
v 0.2114999962 -0.1932322311 0.02623223305
v 0.2114999962 -0.195 0.02549999952
v 0.2114999962 -0.1967677689 0.02623223305
f 2 13 1
f 1 13 14
f 1 14 15
f 3 11 2
f 2 11 12
f 2 12 13
f 11 3 10
f 10 3 4
f 10 4 9
f 9 4 8
f 8 4 5
f 8 5 7
f 7 5 16
f 16 5 6
f 16 6 15
f 15 6 1
f 18 36 17
f 17 36 37
f 38 27 26
f 26 27 28
f 26 28 25
f 25 28 29
f 25 29 24
f 24 29 30
f 24 30 23
f 23 30 31
f 23 31 22
f 22 31 32
f 22 32 21
f 21 32 33
f 21 33 20
f 20 33 34
f 20 34 19
f 19 34 35
f 19 35 18
f 18 35 36
f 39 40 42
f 42 40 41
f 43 44 46
f 46 44 45
f 47 48 52
f 52 48 51
f 51 48 49
f 51 49 50
f 53 54 56
f 56 54 55
f 57 58 60
f 60 58 59
f 61 62 64
f 64 62 63
f 65 66 68
f 68 66 67
f 70 72 69
f 69 72 73
f 69 73 76
f 76 73 74
f 76 74 75
f 70 71 72
f 78 92 77
f 77 92 93
f 94 85 84
f 84 85 86
f 84 86 87
f 78 79 92
f 92 79 91
f 91 79 80
f 91 80 90
f 90 80 81
f 90 81 89
f 89 81 82
f 89 82 88
f 88 82 83
f 88 83 87
f 87 83 84
f 104 95 105
f 105 95 96
f 105 96 112
f 112 96 97
f 112 97 111
f 111 97 98
f 111 98 110
f 110 98 99
f 110 99 109
f 109 99 100
f 109 100 101
f 109 101 108
f 108 101 102
f 108 102 107
f 107 102 103
f 107 103 106
f 106 103 104
f 106 104 105
