v -0.1728573868 -0.02390000105 0.4237825788
v -0.1719257182 -0.02390000105 0.4209152251
v -0.1728573868 -0.02390000105 0.4237825788
v -0.1719257182 -0.02390000105 0.4209152251
v -0.1728573868 -0.02390000105 0.4237825788
v -0.1719257182 -0.02390000105 0.4209152251
v -0.1719257182 -0.02390000105 0.4209152251
v -0.1719257182 -0.02390000105 0.4209152251
v -0.1728573868 -0.02390000105 0.4237825788
v -0.1728573868 -0.02390000105 0.4237825788
v -0.1728573868 -0.02390000105 0.4237825788
v -0.1728573868 -0.02390000105 0.4237825788
v -0.1719257182 -0.02390000105 0.4209152251
v -0.1719257182 -0.02390000105 0.4209152251
v -0.1717071791 -0.02390000105 0.423692058
v -0.1709578756 -0.02390000105 0.4228147362
v -0.1710483964 -0.02390000105 0.4216645285
v -0.1730759259 -0.02390000105 0.4210057458
v -0.1730759259 -0.02390000105 0.4210057458
v -0.1738252294 -0.02390000105 0.4218830676
v -0.1738252294 -0.02390000105 0.4218830676
v -0.1737347086 -0.02390000105 0.4230332753
v -0.1737347086 -0.02390000105 0.4230332753
v -0.173227831 -0.02297688007 0.4231979567
v -0.1731083909 -0.02259451151 0.4221159943
v -0.1725690483 -0.02297688007 0.4211704462
v -0.1725690483 -0.02482311964 0.4211704462
v -0.1731083909 -0.02520549059 0.4221159943
v -0.173227831 -0.02482311964 0.4231979567
v -0.1722140567 -0.02482311964 0.4235273576
v -0.1716747141 -0.02520549059 0.4225818095
v -0.171555274 -0.02482311964 0.4214998471
v -0.171555274 -0.02297688007 0.4214998471
v -0.1716747141 -0.02259451151 0.4225818095
v -0.1722140567 -0.02297688007 0.4235273576
f 33 7 26
f 26 8 18
f 24 9 35
f 35 10 15
f 30 11 29
f 29 12 23
f 27 13 32
f 32 14 17
f 15 16 35
f 35 16 34
f 35 34 24
f 24 34 25
f 24 25 22
f 22 25 20
f 23 21 29
f 29 21 28
f 29 28 30
f 30 28 31
f 30 31 15
f 15 31 16
f 15 3 30
f 16 17 34
f 34 17 33
f 34 33 25
f 25 33 26
f 25 26 20
f 20 26 18
f 21 19 28
f 28 19 27
f 28 27 31
f 31 27 32
f 31 32 16
f 16 32 17
f 17 4 33
f 19 2 27
f 22 1 24
