v -0.0675 0.08399999619 0.4848767549
v -0.06676776886 0.08399999619 0.4866445238
v -0.065 0.08399999619 0.4873767549
v -0.06323223114 0.08399999619 0.4866445238
v -0.0625 0.08399999619 0.4848767549
v -0.06323223114 0.08399999619 0.4831089861
v -0.065 0.08399999619 0.4823767549
v -0.06676776886 0.08399999619 0.4831089861
v -0.0675 0.07900000095 0.4848767549
v -0.06676776886 0.07900000095 0.4831089861
v -0.065 0.07900000095 0.4823767549
v -0.06323223114 0.07900000095 0.4831089861
v -0.0625 0.07900000095 0.4848767549
v -0.06323223114 0.07900000095 0.4866445238
v -0.065 0.07900000095 0.4873767549
v -0.06676776886 0.07900000095 0.4866445238
v -0.0675 0.08399999619 0.4848767549
v -0.0675 0.07900000095 0.4848767549
v -0.06730940342 0.07900000095 0.4808767587
v -0.06961880207 0.07900000095 0.4848767549
v -0.06961880207 0.08399999619 0.4848767549
v -0.06730940342 0.08399999619 0.4808767587
v -0.06730940342 0.07900000095 0.4888767511
v -0.06269059658 0.07900000095 0.4888767511
v -0.06269059658 0.08399999619 0.4888767511
v -0.06730940342 0.08399999619 0.4888767511
v -0.06961880207 0.07900000095 0.4848767549
v -0.06730940342 0.07900000095 0.4888767511
v -0.06730940342 0.08399999619 0.4888767511
v -0.06961880207 0.08399999619 0.4848767549
v -0.06269059658 0.07900000095 0.4808767587
v -0.06730940342 0.07900000095 0.4808767587
v -0.06730940342 0.08399999619 0.4808767587
v -0.06269059658 0.08399999619 0.4808767587
v -0.06038119793 0.07900000095 0.4848767549
v -0.06269059658 0.07900000095 0.4808767587
v -0.06269059658 0.08399999619 0.4808767587
v -0.06038119793 0.08399999619 0.4848767549
v -0.06269059658 0.07900000095 0.4888767511
v -0.06038119793 0.07900000095 0.4848767549
v -0.06038119793 0.08399999619 0.4848767549
v -0.06269059658 0.08399999619 0.4888767511
v -0.0675 0.07900000095 0.4848767549
v -0.06676776886 0.07900000095 0.4866445238
v -0.065 0.07900000095 0.4873767549
v -0.06323223114 0.07900000095 0.4866445238
v -0.0625 0.07900000095 0.4848767549
v -0.06323223114 0.07900000095 0.4831089861
v -0.065 0.07900000095 0.4823767549
v -0.06676776886 0.07900000095 0.4831089861
v -0.06038119793 0.07900000095 0.4848767549
v -0.06269059658 0.07900000095 0.4888767511
v -0.06730940342 0.07900000095 0.4888767511
v -0.06961880207 0.07900000095 0.4848767549
v -0.06730940342 0.07900000095 0.4808767587
v -0.06269059658 0.07900000095 0.4808767587
v -0.0675 0.08399999619 0.4848767549
v -0.06676776886 0.08399999619 0.4831089861
v -0.065 0.08399999619 0.4823767549
v -0.06323223114 0.08399999619 0.4831089861
v -0.0625 0.08399999619 0.4848767549
v -0.06323223114 0.08399999619 0.4866445238
v -0.065 0.08399999619 0.4873767549
v -0.06676776886 0.08399999619 0.4866445238
v -0.06269059658 0.08399999619 0.4888767511
v -0.06038119793 0.08399999619 0.4848767549
v -0.06269059658 0.08399999619 0.4808767587
v -0.06730940342 0.08399999619 0.4808767587
v -0.06961880207 0.08399999619 0.4848767549
v -0.06730940342 0.08399999619 0.4888767511
f 2 16 1
f 1 16 18
f 17 9 8
f 8 9 10
f 8 10 11
f 2 3 16
f 16 3 15
f 15 3 4
f 15 4 14
f 14 4 5
f 14 5 13
f 13 5 6
f 13 6 12
f 12 6 7
f 12 7 11
f 11 7 8
f 19 20 22
f 22 20 21
f 23 24 26
f 26 24 25
f 27 28 30
f 30 28 29
f 31 32 34
f 34 32 33
f 35 36 38
f 38 36 37
f 39 40 42
f 42 40 41
f 50 43 54
f 54 43 44
f 54 44 53
f 53 44 45
f 53 45 52
f 52 45 46
f 52 46 51
f 51 46 47
f 51 47 48
f 51 48 56
f 56 48 49
f 56 49 55
f 55 49 50
f 55 50 54
f 64 57 69
f 69 57 58
f 69 58 68
f 68 58 59
f 68 59 67
f 67 59 60
f 67 60 66
f 66 60 61
f 66 61 62
f 66 62 65
f 65 62 63
f 65 63 70
f 70 63 64
f 70 64 69
