v -0.2503350067 0.085 0.4598767549
v -0.2493800926 0.085 0.4569378168
v -0.2468800926 0.085 0.4551214677
v -0.2437899208 0.085 0.4551214677
v -0.2412899208 0.085 0.4569378168
v -0.2403350067 0.085 0.4598767549
v -0.2412899208 0.085 0.462815674
v -0.2437899208 0.085 0.4646320421
v -0.2468800926 0.085 0.4646320421
v -0.2493800926 0.085 0.462815674
v -0.2503350067 0.08399999619 0.4598767549
v -0.2493800926 0.08399999619 0.462815674
v -0.2468800926 0.08399999619 0.4646320421
v -0.2437899208 0.08399999619 0.4646320421
v -0.2412899208 0.08399999619 0.462815674
v -0.2403350067 0.08399999619 0.4598767549
v -0.2412899208 0.08399999619 0.4569378168
v -0.2437899208 0.08399999619 0.4551214677
v -0.2468800926 0.08399999619 0.4551214677
v -0.2493800926 0.08399999619 0.4569378168
v -0.2503350067 0.08399999619 0.4598767549
v -0.2503350067 0.085 0.4598767549
v -0.2478350067 0.08399999619 0.4598767549
v -0.2471027756 0.08399999619 0.4616445238
v -0.2453350067 0.08399999619 0.4623767549
v -0.2435672379 0.08399999619 0.4616445238
v -0.2428350067 0.08399999619 0.4598767549
v -0.2435672379 0.08399999619 0.4581089861
v -0.2453350067 0.08399999619 0.4573767549
v -0.2471027756 0.08399999619 0.4581089861
v -0.2503350067 0.08399999619 0.4598767549
v -0.2493800926 0.08399999619 0.4569378168
v -0.2468800926 0.08399999619 0.4551214677
v -0.2437899208 0.08399999619 0.4551214677
v -0.2412899208 0.08399999619 0.4569378168
v -0.2403350067 0.08399999619 0.4598767549
v -0.2412899208 0.08399999619 0.462815674
v -0.2437899208 0.08399999619 0.4646320421
v -0.2468800926 0.08399999619 0.4646320421
v -0.2493800926 0.08399999619 0.462815674
v -0.2478350067 0.085 0.4598767549
v -0.2471027756 0.085 0.4581089861
v -0.2453350067 0.085 0.4573767549
v -0.2435672379 0.085 0.4581089861
v -0.2428350067 0.085 0.4598767549
v -0.2435672379 0.085 0.4616445238
v -0.2453350067 0.085 0.4623767549
v -0.2471027756 0.085 0.4616445238
v -0.2503350067 0.085 0.4598767549
v -0.2493800926 0.085 0.462815674
v -0.2468800926 0.085 0.4646320421
v -0.2437899208 0.085 0.4646320421
v -0.2412899208 0.085 0.462815674
v -0.2403350067 0.085 0.4598767549
v -0.2412899208 0.085 0.4569378168
v -0.2437899208 0.085 0.4551214677
v -0.2468800926 0.085 0.4551214677
v -0.2493800926 0.085 0.4569378168
v -0.2478350067 0.085 0.4598767549
v -0.2471027756 0.085 0.4616445238
v -0.2453350067 0.085 0.4623767549
v -0.2435672379 0.085 0.4616445238
v -0.2428350067 0.085 0.4598767549
v -0.2435672379 0.085 0.4581089861
v -0.2453350067 0.085 0.4573767549
v -0.2471027756 0.085 0.4581089861
v -0.2478350067 0.08399999619 0.4598767549
v -0.2471027756 0.08399999619 0.4581089861
v -0.2453350067 0.08399999619 0.4573767549
v -0.2435672379 0.08399999619 0.4581089861
v -0.2428350067 0.08399999619 0.4598767549
v -0.2435672379 0.08399999619 0.4616445238
v -0.2453350067 0.08399999619 0.4623767549
v -0.2471027756 0.08399999619 0.4616445238
v -0.2478350067 0.085 0.4598767549
v -0.2478350067 0.08399999619 0.4598767549
f 2 20 1
f 1 20 21
f 22 11 10
f 10 11 12
f 10 12 9
f 9 12 13
f 9 13 8
f 8 13 14
f 8 14 7
f 7 14 15
f 7 15 6
f 6 15 16
f 6 16 5
f 5 16 17
f 5 17 4
f 4 17 18
f 4 18 3
f 3 18 19
f 3 19 2
f 2 19 20
f 24 40 23
f 23 40 31
f 23 31 32
f 40 24 39
f 39 24 25
f 39 25 38
f 38 25 26
f 38 26 37
f 37 26 27
f 37 27 36
f 36 27 35
f 35 27 28
f 35 28 34
f 34 28 29
f 34 29 33
f 33 29 30
f 33 30 32
f 32 30 23
f 42 58 41
f 41 58 49
f 41 49 50
f 58 42 57
f 57 42 43
f 57 43 56
f 56 43 44
f 56 44 55
f 55 44 45
f 55 45 54
f 54 45 53
f 53 45 46
f 53 46 52
f 52 46 47
f 52 47 51
f 51 47 48
f 51 48 50
f 50 48 41
f 60 74 59
f 59 74 76
f 75 67 66
f 66 67 68
f 66 68 69
f 60 61 74
f 74 61 73
f 73 61 62
f 73 62 72
f 72 62 63
f 72 63 71
f 71 63 64
f 71 64 70
f 70 64 65
f 70 65 69
f 69 65 66
