v -0.235 0.06050000191 0.07941813946
v -0.215 0.06050000191 0.07941813946
v -0.215 0.08050000191 0.07941813946
v -0.235 0.08050000191 0.07941813946
v -0.2277499962 0.08050000191 0.06941813946
v -0.2269445419 0.08050000191 0.06747359753
v -0.225 0.08050000191 0.06666814327
v -0.2230554581 0.08050000191 0.06747359753
v -0.2222500038 0.08050000191 0.06941813946
v -0.2230554581 0.08050000191 0.07136268616
v -0.225 0.08050000191 0.07216814041
v -0.2269445419 0.08050000191 0.07136268616
v -0.235 0.08050000191 0.05941813946
v -0.235 0.08050000191 0.07941813946
v -0.215 0.08050000191 0.07941813946
v -0.215 0.08050000191 0.05941813946
v -0.2302499962 0.06050000191 0.06941813946
v -0.2294165802 0.06050000191 0.07225650787
v -0.2271809196 0.06050000191 0.07419371128
v -0.2242528534 0.06050000191 0.07461470604
v -0.221561985 0.06050000191 0.07338582516
v -0.2199626541 0.06050000191 0.07089723587
v -0.2199626541 0.06050000191 0.06793904781
v -0.221561985 0.06050000191 0.06545045853
v -0.2242528534 0.06050000191 0.06422157764
v -0.2271809196 0.06050000191 0.0646425724
v -0.2294165802 0.06050000191 0.06657977581
v -0.235 0.06050000191 0.07941813946
v -0.235 0.06050000191 0.05941813946
v -0.215 0.06050000191 0.05941813946
v -0.215 0.06050000191 0.07941813946
v -0.235 0.06050000191 0.05941813946
v -0.235 0.06050000191 0.07941813946
v -0.235 0.08050000191 0.07941813946
v -0.235 0.08050000191 0.05941813946
v -0.215 0.06050000191 0.05941813946
v -0.235 0.06050000191 0.05941813946
v -0.235 0.08050000191 0.05941813946
v -0.215 0.08050000191 0.05941813946
v -0.215 0.06050000191 0.07941813946
v -0.215 0.06050000191 0.05941813946
v -0.215 0.08050000191 0.05941813946
v -0.215 0.08050000191 0.07941813946
v -0.2277499962 0.06199999809 0.06941813946
v -0.2269445419 0.06199999809 0.06747359753
v -0.225 0.06199999809 0.06666814327
v -0.2230554581 0.06199999809 0.06747359753
v -0.2222500038 0.06199999809 0.06941813946
v -0.2230554581 0.06199999809 0.07136268616
v -0.225 0.06199999809 0.07216814041
v -0.2269445419 0.06199999809 0.07136268616
v -0.2277499962 0.08050000191 0.06941813946
v -0.2269445419 0.08050000191 0.07136268616
v -0.225 0.08050000191 0.07216814041
v -0.2230554581 0.08050000191 0.07136268616
v -0.2222500038 0.08050000191 0.06941813946
v -0.2230554581 0.08050000191 0.06747359753
v -0.225 0.08050000191 0.06666814327
v -0.2269445419 0.08050000191 0.06747359753
v -0.2277499962 0.08050000191 0.06941813946
v -0.2277499962 0.06199999809 0.06941813946
v -0.2302499962 0.06199999809 0.06941813946
v -0.2294165802 0.06199999809 0.07225650787
v -0.2271809196 0.06199999809 0.07419371128
v -0.2242528534 0.06199999809 0.07461470604
v -0.221561985 0.06199999809 0.07338582516
v -0.2199626541 0.06199999809 0.07089723587
v -0.2199626541 0.06199999809 0.06793904781
v -0.221561985 0.06199999809 0.06545045853
v -0.2242528534 0.06199999809 0.06422157764
v -0.2271809196 0.06199999809 0.0646425724
v -0.2294165802 0.06199999809 0.06657977581
v -0.2302499962 0.06050000191 0.06941813946
v -0.2294165802 0.06050000191 0.06657977581
v -0.2271809196 0.06050000191 0.0646425724
v -0.2242528534 0.06050000191 0.06422157764
v -0.221561985 0.06050000191 0.06545045853
v -0.2199626541 0.06050000191 0.06793904781
v -0.2199626541 0.06050000191 0.07089723587
v -0.221561985 0.06050000191 0.07338582516
v -0.2242528534 0.06050000191 0.07461470604
v -0.2271809196 0.06050000191 0.07419371128
v -0.2294165802 0.06050000191 0.07225650787
v -0.2302499962 0.06199999809 0.06941813946
v -0.2302499962 0.06050000191 0.06941813946
v -0.2277499962 0.06199999809 0.06941813946
v -0.2269445419 0.06199999809 0.07136268616
v -0.225 0.06199999809 0.07216814041
v -0.2230554581 0.06199999809 0.07136268616
v -0.2222500038 0.06199999809 0.06941813946
v -0.2230554581 0.06199999809 0.06747359753
v -0.225 0.06199999809 0.06666814327
v -0.2269445419 0.06199999809 0.06747359753
v -0.2302499962 0.06199999809 0.06941813946
v -0.2294165802 0.06199999809 0.06657977581
v -0.2271809196 0.06199999809 0.0646425724
v -0.2242528534 0.06199999809 0.06422157764
v -0.221561985 0.06199999809 0.06545045853
v -0.2199626541 0.06199999809 0.06793904781
v -0.2199626541 0.06199999809 0.07089723587
v -0.221561985 0.06199999809 0.07338582516
v -0.2242528534 0.06199999809 0.07461470604
v -0.2271809196 0.06199999809 0.07419371128
v -0.2294165802 0.06199999809 0.07225650787
f 1 2 4
f 4 2 3
f 6 13 5
f 5 13 14
f 5 14 12
f 12 14 11
f 11 14 15
f 11 15 10
f 10 15 9
f 9 15 16
f 9 16 8
f 8 16 7
f 7 16 13
f 7 13 6
f 18 28 17
f 17 28 29
f 17 29 27
f 27 29 26
f 26 29 25
f 25 29 30
f 25 30 24
f 24 30 23
f 23 30 31
f 23 31 22
f 22 31 21
f 21 31 20
f 20 31 28
f 20 28 19
f 19 28 18
f 32 33 35
f 35 33 34
f 36 37 39
f 39 37 38
f 40 41 43
f 43 41 42
f 45 59 44
f 44 59 60
f 61 52 51
f 51 52 53
f 51 53 50
f 50 53 54
f 50 54 49
f 49 54 55
f 49 55 48
f 48 55 56
f 48 56 47
f 47 56 57
f 47 57 46
f 46 57 58
f 46 58 45
f 45 58 59
f 63 83 62
f 62 83 85
f 84 73 72
f 72 73 74
f 72 74 71
f 71 74 75
f 71 75 70
f 70 75 76
f 70 76 69
f 69 76 77
f 69 77 68
f 68 77 78
f 68 78 67
f 67 78 79
f 67 79 66
f 66 79 80
f 66 80 65
f 65 80 81
f 65 81 64
f 64 81 82
f 64 82 63
f 63 82 83
f 87 104 86
f 86 104 94
f 86 94 95
f 104 87 103
f 103 87 88
f 103 88 102
f 102 88 89
f 102 89 101
f 101 89 100
f 100 89 90
f 100 90 99
f 99 90 91
f 99 91 98
f 98 91 97
f 97 91 92
f 97 92 96
f 96 92 93
f 96 93 95
f 95 93 86
