v 0.2434529495 0.1069999981 0.4590211755
v 0.2428405952 0.1069999981 0.4608339578
v 0.2436894226 0.1069999981 0.4625487978
v 0.245502224 0.1069999981 0.463161152
v 0.2472170448 0.1069999981 0.4623123247
v 0.2478293991 0.1069999981 0.4604995424
v 0.2469805717 0.1069999981 0.4587847025
v 0.2451677895 0.1069999981 0.4581723482
v 0.2421355247 0.07199999809 0.4578692896
v 0.2411022568 0.07199999809 0.4602841646
v 0.2416857529 0.07199999809 0.4628451807
v 0.2436631393 0.07199999809 0.4645740968
v 0.2462791252 0.07199999809 0.4648105508
v 0.2485344887 0.07199999809 0.4634642297
v 0.2495677376 0.07199999809 0.4610493356
v 0.2489842415 0.07199999809 0.4584883386
v 0.247006855 0.07199999809 0.4567594034
v 0.2443908691 0.07199999809 0.4565229494
v 0.2434529495 0.07199999809 0.4590211755
v 0.2451677895 0.07199999809 0.4581723482
v 0.2469805717 0.07199999809 0.4587847025
v 0.2478293991 0.07199999809 0.4604995424
v 0.2472170448 0.07199999809 0.4623123247
v 0.245502224 0.07199999809 0.463161152
v 0.2436894226 0.07199999809 0.4625487978
v 0.2428405952 0.07199999809 0.4608339578
v 0.2434529495 0.1069999981 0.4590211755
v 0.2451677895 0.1069999981 0.4581723482
v 0.2469805717 0.1069999981 0.4587847025
v 0.2478293991 0.1069999981 0.4604995424
v 0.2472170448 0.1069999981 0.4623123247
v 0.245502224 0.1069999981 0.463161152
v 0.2436894226 0.1069999981 0.4625487978
v 0.2428405952 0.1069999981 0.4608339578
v 0.2434529495 0.07199999809 0.4590211755
v 0.2428405952 0.07199999809 0.4608339578
v 0.2436894226 0.07199999809 0.4625487978
v 0.245502224 0.07199999809 0.463161152
v 0.2472170448 0.07199999809 0.4623123247
v 0.2478293991 0.07199999809 0.4604995424
v 0.2469805717 0.07199999809 0.4587847025
v 0.2451677895 0.07199999809 0.4581723482
v 0.2434529495 0.07199999809 0.4590211755
v 0.2434529495 0.1069999981 0.4590211755
v 0.2421355247 0.07199999809 0.4578692896
v 0.2443908691 0.07199999809 0.4565229494
v 0.247006855 0.07199999809 0.4567594034
v 0.2489842415 0.07199999809 0.4584883386
v 0.2495677376 0.07199999809 0.4610493356
v 0.2485344887 0.07199999809 0.4634642297
v 0.2462791252 0.07199999809 0.4648105508
v 0.2436631393 0.07199999809 0.4645740968
v 0.2416857529 0.07199999809 0.4628451807
v 0.2411022568 0.07199999809 0.4602841646
v 0.2421355247 0.06699999809 0.4578692896
v 0.2411022568 0.06699999809 0.4602841646
v 0.2416857529 0.06699999809 0.4628451807
v 0.2436631393 0.06699999809 0.4645740968
v 0.2462791252 0.06699999809 0.4648105508
v 0.2485344887 0.06699999809 0.4634642297
v 0.2495677376 0.06699999809 0.4610493356
v 0.2489842415 0.06699999809 0.4584883386
v 0.247006855 0.06699999809 0.4567594034
v 0.2443908691 0.06699999809 0.4565229494
v 0.2421355247 0.06699999809 0.4578692896
v 0.2421355247 0.07199999809 0.4578692896
v 0.2431492615 0.06699999809 0.4614123422
v 0.2448878288 0.06699999809 0.4629324419
v 0.247073555 0.06699999809 0.4621868593
v 0.2475207329 0.06699999809 0.4599211771
v 0.2457821846 0.06699999809 0.4584010584
v 0.2435964394 0.06699999809 0.4591466409
v 0.2421355247 0.06699999809 0.4578692896
v 0.2443908691 0.06699999809 0.4565229494
v 0.247006855 0.06699999809 0.4567594034
v 0.2489842415 0.06699999809 0.4584883386
v 0.2495677376 0.06699999809 0.4610493356
v 0.2485344887 0.06699999809 0.4634642297
v 0.2462791252 0.06699999809 0.4648105508
v 0.2436631393 0.06699999809 0.4645740968
v 0.2416857529 0.06699999809 0.4628451807
v 0.2411022568 0.06699999809 0.4602841646
v 0.2431492615 0.06699999809 0.4614123422
v 0.2435964394 0.06699999809 0.4591466409
v 0.2435964394 0.06949999809 0.4591466409
v 0.2431492615 0.06949999809 0.4614123422
v 0.2475207329 0.06699999809 0.4599211771
v 0.247073555 0.06699999809 0.4621868593
v 0.247073555 0.06949999809 0.4621868593
v 0.2475207329 0.06949999809 0.4599211771
v 0.247073555 0.06699999809 0.4621868593
v 0.2448878288 0.06699999809 0.4629324419
v 0.2448878288 0.06949999809 0.4629324419
v 0.247073555 0.06949999809 0.4621868593
v 0.2448878288 0.06699999809 0.4629324419
v 0.2431492615 0.06699999809 0.4614123422
v 0.2431492615 0.06949999809 0.4614123422
v 0.2448878288 0.06949999809 0.4629324419
v 0.2435964394 0.06699999809 0.4591466409
v 0.2457821846 0.06699999809 0.4584010584
v 0.2457821846 0.06949999809 0.4584010584
v 0.2435964394 0.06949999809 0.4591466409
v 0.247073555 0.06949999809 0.4621868593
v 0.2448878288 0.06949999809 0.4629324419
v 0.2431492615 0.06949999809 0.4614123422
v 0.2435964394 0.06949999809 0.4591466409
v 0.2457821846 0.06949999809 0.4584010584
v 0.2475207329 0.06949999809 0.4599211771
v 0.2457821846 0.06699999809 0.4584010584
v 0.2475207329 0.06699999809 0.4599211771
v 0.2475207329 0.06949999809 0.4599211771
v 0.2457821846 0.06949999809 0.4584010584
f 2 4 1
f 1 4 5
f 1 5 8
f 8 5 6
f 8 6 7
f 2 3 4
f 18 9 19
f 19 9 10
f 19 10 26
f 26 10 11
f 26 11 25
f 25 11 12
f 25 12 24
f 24 12 13
f 24 13 23
f 23 13 14
f 23 14 15
f 23 15 22
f 22 15 16
f 22 16 21
f 21 16 17
f 21 17 20
f 20 17 18
f 20 18 19
f 28 42 27
f 27 42 43
f 44 35 34
f 34 35 36
f 34 36 37
f 28 29 42
f 42 29 41
f 41 29 30
f 41 30 40
f 40 30 31
f 40 31 39
f 39 31 32
f 39 32 38
f 38 32 33
f 38 33 37
f 37 33 34
f 46 64 45
f 45 64 65
f 66 55 54
f 54 55 56
f 54 56 53
f 53 56 57
f 53 57 52
f 52 57 58
f 52 58 51
f 51 58 59
f 51 59 50
f 50 59 60
f 50 60 49
f 49 60 61
f 49 61 48
f 48 61 62
f 48 62 47
f 47 62 63
f 47 63 46
f 46 63 64
f 68 81 67
f 67 81 82
f 67 82 72
f 72 82 73
f 72 73 74
f 69 79 68
f 68 79 80
f 68 80 81
f 70 77 69
f 69 77 78
f 69 78 79
f 77 70 76
f 76 70 71
f 76 71 75
f 75 71 74
f 74 71 72
f 83 84 86
f 86 84 85
f 87 88 90
f 90 88 89
f 91 92 94
f 94 92 93
f 95 96 98
f 98 96 97
f 99 100 102
f 102 100 101
f 104 106 103
f 103 106 107
f 103 107 108
f 104 105 106
f 109 110 112
f 112 110 111
