v -0.2099347305 0.09 0.3760591585
v -0.2115325165 0.09 0.3793113214
v -0.2112901688 0.09 0.3829266721
v -0.2092725945 0.09 0.3859364874
v -0.2060204315 0.09 0.3875342733
v -0.2024050713 0.09 0.3872919161
v -0.1993952751 0.09 0.3852743513
v -0.1977974892 0.09 0.3820221788
v -0.1980398369 0.09 0.3784068281
v -0.2000574112 0.09 0.3753970224
v -0.2033095741 0.09 0.3737992365
v -0.2069249153 0.09 0.3740415937
v -0.210687542 0.09 0.3754009325
v -0.2075505447 0.09 0.3732052786
v -0.2037525177 0.09 0.3727189619
v -0.200163517 0.09 0.3740533907
v -0.1976057434 0.09 0.3769028551
v -0.1966651726 0.09 0.3806145841
v -0.1975572586 0.09 0.3843382723
v -0.2000776482 0.09 0.3872208482
v -0.2036489487 0.09 0.3886019689
v -0.2074530029 0.09 0.3881652242
v -0.2106183624 0.09 0.3860106641
v -0.2124198914 0.09 0.3826318819
v -0.2124448586 0.09 0.3788029176
v -0.210687542 0.09 0.3754009325
v -0.2124448586 0.09 0.3788029176
v -0.2124198914 0.09 0.3826318819
v -0.2106183624 0.09 0.3860106641
v -0.2074530029 0.09 0.3881652242
v -0.2036489487 0.09 0.3886019689
v -0.2000776482 0.09 0.3872208482
v -0.1975572586 0.09 0.3843382723
v -0.1966651726 0.09 0.3806145841
v -0.1976057434 0.09 0.3769028551
v -0.200163517 0.09 0.3740533907
v -0.2037525177 0.09 0.3727189619
v -0.2075505447 0.09 0.3732052786
v -0.210687542 0.08538499832 0.3754009325
v -0.2075505447 0.08538499832 0.3732052786
v -0.2037525177 0.08538499832 0.3727189619
v -0.200163517 0.08538499832 0.3740533907
v -0.1976057434 0.08538499832 0.3769028551
v -0.1966651726 0.08538499832 0.3806145841
v -0.1975572586 0.08538499832 0.3843382723
v -0.2000776482 0.08538499832 0.3872208482
v -0.2036489487 0.08538499832 0.3886019689
v -0.2074530029 0.08538499832 0.3881652242
v -0.2106183624 0.08538499832 0.3860106641
v -0.2124198914 0.08538499832 0.3826318819
v -0.2124448586 0.08538499832 0.3788029176
v -0.210687542 0.09 0.3754009325
v -0.210687542 0.08538499832 0.3754009325
v -0.2099347305 0.09100000381 0.3760591585
v -0.2115325165 0.09100000381 0.3793113214
v -0.2112901688 0.09100000381 0.3829266721
v -0.2092725945 0.09100000381 0.3859364874
v -0.2060204315 0.09100000381 0.3875342733
v -0.2024050713 0.09100000381 0.3872919161
v -0.1993952751 0.09100000381 0.3852743513
v -0.1977974892 0.09100000381 0.3820221788
v -0.1980398369 0.09100000381 0.3784068281
v -0.2000574112 0.09100000381 0.3753970224
v -0.2033095741 0.09100000381 0.3737992365
v -0.2069249153 0.09100000381 0.3740415937
v -0.2099347305 0.09 0.3760591585
v -0.2069249153 0.09 0.3740415937
v -0.2033095741 0.09 0.3737992365
v -0.2000574112 0.09 0.3753970224
v -0.1980398369 0.09 0.3784068281
v -0.1977974892 0.09 0.3820221788
v -0.1993952751 0.09 0.3852743513
v -0.2024050713 0.09 0.3872919161
v -0.2060204315 0.09 0.3875342733
v -0.2092725945 0.09 0.3859364874
v -0.2112901688 0.09 0.3829266721
v -0.2115325165 0.09 0.3793113214
v -0.2099347305 0.09100000381 0.3760591585
v -0.2099347305 0.09 0.3760591585
v -0.210687542 0.09100000381 0.3754009325
v -0.2075505447 0.09100000381 0.3732052786
v -0.2037525177 0.09100000381 0.3727189619
v -0.200163517 0.09100000381 0.3740533907
v -0.1976057434 0.09100000381 0.3769028551
v -0.1966651726 0.09100000381 0.3806145841
v -0.1975572586 0.09100000381 0.3843382723
v -0.2000776482 0.09100000381 0.3872208482
v -0.2036489487 0.09100000381 0.3886019689
v -0.2074530029 0.09100000381 0.3881652242
v -0.2106183624 0.09100000381 0.3860106641
v -0.2124198914 0.09100000381 0.3826318819
v -0.2124448586 0.09100000381 0.3788029176
v -0.210687542 0.09561499596 0.3754009325
v -0.2124448586 0.09561499596 0.3788029176
v -0.2124198914 0.09561499596 0.3826318819
v -0.2106183624 0.09561499596 0.3860106641
v -0.2074530029 0.09561499596 0.3881652242
v -0.2036489487 0.09561499596 0.3886019689
v -0.2000776482 0.09561499596 0.3872208482
v -0.1975572586 0.09561499596 0.3843382723
v -0.1966651726 0.09561499596 0.3806145841
v -0.1976057434 0.09561499596 0.3769028551
v -0.200163517 0.09561499596 0.3740533907
v -0.2037525177 0.09561499596 0.3727189619
v -0.2075505447 0.09561499596 0.3732052786
v -0.210687542 0.09100000381 0.3754009325
v -0.210687542 0.09561499596 0.3754009325
v -0.2099347305 0.09100000381 0.3760591585
v -0.2069249153 0.09100000381 0.3740415937
v -0.2033095741 0.09100000381 0.3737992365
v -0.2000574112 0.09100000381 0.3753970224
v -0.1980398369 0.09100000381 0.3784068281
v -0.1977974892 0.09100000381 0.3820221788
v -0.1993952751 0.09100000381 0.3852743513
v -0.2024050713 0.09100000381 0.3872919161
v -0.2060204315 0.09100000381 0.3875342733
v -0.2092725945 0.09100000381 0.3859364874
v -0.2112901688 0.09100000381 0.3829266721
v -0.2115325165 0.09100000381 0.3793113214
v -0.210687542 0.09100000381 0.3754009325
v -0.2124448586 0.09100000381 0.3788029176
v -0.2124198914 0.09100000381 0.3826318819
v -0.2106183624 0.09100000381 0.3860106641
v -0.2074530029 0.09100000381 0.3881652242
v -0.2036489487 0.09100000381 0.3886019689
v -0.2000776482 0.09100000381 0.3872208482
v -0.1975572586 0.09100000381 0.3843382723
v -0.1966651726 0.09100000381 0.3806145841
v -0.1976057434 0.09100000381 0.3769028551
v -0.200163517 0.09100000381 0.3740533907
v -0.2037525177 0.09100000381 0.3727189619
v -0.2075505447 0.09100000381 0.3732052786
v -0.210687542 0.09561499596 0.3754009325
v -0.2075505447 0.09561499596 0.3732052786
v -0.2037525177 0.09561499596 0.3727189619
v -0.200163517 0.09561499596 0.3740533907
v -0.1976057434 0.09561499596 0.3769028551
v -0.1966651726 0.09561499596 0.3806145841
v -0.1975572586 0.09561499596 0.3843382723
v -0.2000776482 0.09561499596 0.3872208482
v -0.2036489487 0.09561499596 0.3886019689
v -0.2074530029 0.09561499596 0.3881652242
v -0.2106183624 0.09561499596 0.3860106641
v -0.2124198914 0.09561499596 0.3826318819
v -0.2124448586 0.09561499596 0.3788029176
v -0.2120426178 0.09561499596 0.3742161161
v -0.2141108322 0.09561499596 0.3780559618
v -0.2143081856 0.09561499596 0.3824129087
v -0.2125955772 0.09561499596 0.3864240057
v -0.2093122292 0.09561499596 0.3892948038
v -0.2051084328 0.09561499596 0.3904567129
v -0.2008168221 0.09561499596 0.3896796018
v -0.1972873688 0.09561499596 0.3871173841
v -0.1952191734 0.09561499596 0.3832775385
v -0.1950218201 0.09561499596 0.378920601
v -0.1967344284 0.09561499596 0.3749095041
v -0.2000177765 0.09561499596 0.3720386964
v -0.2042215729 0.09561499596 0.3708767873
v -0.2085131836 0.09561499596 0.3716538984
v -0.210687542 0.08538499832 0.3754009325
v -0.2124448586 0.08538499832 0.3788029176
v -0.2124198914 0.08538499832 0.3826318819
v -0.2106183624 0.08538499832 0.3860106641
v -0.2074530029 0.08538499832 0.3881652242
v -0.2036489487 0.08538499832 0.3886019689
v -0.2000776482 0.08538499832 0.3872208482
v -0.1975572586 0.08538499832 0.3843382723
v -0.1966651726 0.08538499832 0.3806145841
v -0.1976057434 0.08538499832 0.3769028551
v -0.200163517 0.08538499832 0.3740533907
v -0.2037525177 0.08538499832 0.3727189619
v -0.2075505447 0.08538499832 0.3732052786
v -0.2120426178 0.08538499832 0.3742161161
v -0.2085131836 0.08538499832 0.3716538984
v -0.2042215729 0.08538499832 0.3708767873
v -0.2000177765 0.08538499832 0.3720386964
v -0.1967344284 0.08538499832 0.3749095041
v -0.1950218201 0.08538499832 0.378920601
v -0.1952191734 0.08538499832 0.3832775385
v -0.1972873688 0.08538499832 0.3871173841
v -0.2008168221 0.08538499832 0.3896796018
v -0.2051084328 0.08538499832 0.3904567129
v -0.2093122292 0.08538499832 0.3892948038
v -0.2125955772 0.08538499832 0.3864240057
v -0.2143081856 0.08538499832 0.3824129087
v -0.2141108322 0.08538499832 0.3780559618
v -0.2136611748 0.09346500397 0.3728009302
v -0.2159865189 0.09346500397 0.3768423731
v -0.2165882301 0.09346500397 0.3814660341
v -0.2153747559 0.09346500397 0.3859680254
v -0.2125308228 0.09346500397 0.3896629411
v -0.2084893799 0.09346500397 0.3919882661
v -0.2038657188 0.09346500397 0.392589987
v -0.1993637276 0.09346500397 0.3913765127
v -0.1956688118 0.09346500397 0.3885325796
v -0.1933434868 0.09346500397 0.3844911367
v -0.1927417564 0.09346500397 0.3798674661
v -0.1939552307 0.09346500397 0.3753654844
v -0.1967991829 0.09346500397 0.3716705686
v -0.2008406258 0.09346500397 0.3693452436
v -0.2054642868 0.09346500397 0.3687435133
v -0.2099662781 0.09346500397 0.3699569875
v -0.2120426178 0.09561499596 0.3742161161
v -0.2085131836 0.09561499596 0.3716538984
v -0.2042215729 0.09561499596 0.3708767873
v -0.2000177765 0.09561499596 0.3720386964
v -0.1967344284 0.09561499596 0.3749095041
v -0.1950218201 0.09561499596 0.378920601
v -0.1952191734 0.09561499596 0.3832775385
v -0.1972873688 0.09561499596 0.3871173841
v -0.2008168221 0.09561499596 0.3896796018
v -0.2051084328 0.09561499596 0.3904567129
v -0.2093122292 0.09561499596 0.3892948038
v -0.2125955772 0.09561499596 0.3864240057
v -0.2143081856 0.09561499596 0.3824129087
v -0.2141108322 0.09561499596 0.3780559618
v -0.2136611748 0.09346500397 0.3728009302
v -0.2120426178 0.09561499596 0.3742161161
v -0.2136611748 0.09346500397 0.3728009302
v -0.2099662781 0.09346500397 0.3699569875
v -0.2054642868 0.09346500397 0.3687435133
v -0.2008406258 0.09346500397 0.3693452436
v -0.1967991829 0.09346500397 0.3716705686
v -0.1939552307 0.09346500397 0.3753654844
v -0.1927417564 0.09346500397 0.3798674661
v -0.1933434868 0.09346500397 0.3844911367
v -0.1956688118 0.09346500397 0.3885325796
v -0.1993637276 0.09346500397 0.3913765127
v -0.2038657188 0.09346500397 0.392589987
v -0.2084893799 0.09346500397 0.3919882661
v -0.2125308228 0.09346500397 0.3896629411
v -0.2153747559 0.09346500397 0.3859680254
v -0.2165882301 0.09346500397 0.3814660341
v -0.2159865189 0.09346500397 0.3768423731
v -0.2136611748 0.08753499985 0.3728009302
v -0.2159865189 0.08753499985 0.3768423731
v -0.2165882301 0.08753499985 0.3814660341
v -0.2153747559 0.08753499985 0.3859680254
v -0.2125308228 0.08753499985 0.3896629411
v -0.2084893799 0.08753499985 0.3919882661
v -0.2038657188 0.08753499985 0.392589987
v -0.1993637276 0.08753499985 0.3913765127
v -0.1956688118 0.08753499985 0.3885325796
v -0.1933434868 0.08753499985 0.3844911367
v -0.1927417564 0.08753499985 0.3798674661
v -0.1939552307 0.08753499985 0.3753654844
v -0.1967991829 0.08753499985 0.3716705686
v -0.2008406258 0.08753499985 0.3693452436
v -0.2054642868 0.08753499985 0.3687435133
v -0.2099662781 0.08753499985 0.3699569875
v -0.2136611748 0.08753499985 0.3728009302
v -0.2136611748 0.09346500397 0.3728009302
v -0.2120426178 0.08538499832 0.3742161161
v -0.2141108322 0.08538499832 0.3780559618
v -0.2143081856 0.08538499832 0.3824129087
v -0.2125955772 0.08538499832 0.3864240057
v -0.2093122292 0.08538499832 0.3892948038
v -0.2051084328 0.08538499832 0.3904567129
v -0.2008168221 0.08538499832 0.3896796018
v -0.1972873688 0.08538499832 0.3871173841
v -0.1952191734 0.08538499832 0.3832775385
v -0.1950218201 0.08538499832 0.378920601
v -0.1967344284 0.08538499832 0.3749095041
v -0.2000177765 0.08538499832 0.3720386964
v -0.2042215729 0.08538499832 0.3708767873
v -0.2085131836 0.08538499832 0.3716538984
v -0.2136611748 0.08753499985 0.3728009302
v -0.2099662781 0.08753499985 0.3699569875
v -0.2054642868 0.08753499985 0.3687435133
v -0.2008406258 0.08753499985 0.3693452436
v -0.1967991829 0.08753499985 0.3716705686
v -0.1939552307 0.08753499985 0.3753654844
v -0.1927417564 0.08753499985 0.3798674661
v -0.1933434868 0.08753499985 0.3844911367
v -0.1956688118 0.08753499985 0.3885325796
v -0.1993637276 0.08753499985 0.3913765127
v -0.2038657188 0.08753499985 0.392589987
v -0.2084893799 0.08753499985 0.3919882661
v -0.2125308228 0.08753499985 0.3896629411
v -0.2153747559 0.08753499985 0.3859680254
v -0.2165882301 0.08753499985 0.3814660341
v -0.2159865189 0.08753499985 0.3768423731
v -0.2120426178 0.08538499832 0.3742161161
v -0.2136611748 0.08753499985 0.3728009302
f 2 25 1
f 1 25 13
f 1 13 14
f 25 2 24
f 24 2 3
f 24 3 23
f 23 3 4
f 23 4 22
f 22 4 5
f 22 5 21
f 21 5 6
f 21 6 20
f 20 6 7
f 20 7 19
f 19 7 8
f 19 8 18
f 18 8 9
f 18 9 17
f 17 9 10
f 17 10 16
f 16 10 11
f 16 11 15
f 15 11 12
f 15 12 14
f 14 12 1
f 27 51 26
f 26 51 53
f 52 39 38
f 38 39 40
f 38 40 37
f 37 40 41
f 37 41 36
f 36 41 42
f 36 42 35
f 35 42 43
f 35 43 34
f 34 43 44
f 34 44 33
f 33 44 45
f 33 45 32
f 32 45 46
f 32 46 31
f 31 46 47
f 31 47 30
f 30 47 48
f 30 48 29
f 29 48 49
f 29 49 28
f 28 49 50
f 28 50 27
f 27 50 51
f 55 77 54
f 54 77 79
f 78 66 65
f 65 66 67
f 65 67 64
f 64 67 68
f 64 68 63
f 63 68 69
f 63 69 62
f 62 69 70
f 62 70 61
f 61 70 71
f 61 71 60
f 60 71 72
f 60 72 59
f 59 72 73
f 59 73 58
f 58 73 74
f 58 74 57
f 57 74 75
f 57 75 56
f 56 75 76
f 56 76 55
f 55 76 77
f 81 105 80
f 80 105 107
f 106 93 92
f 92 93 94
f 92 94 91
f 91 94 95
f 91 95 90
f 90 95 96
f 90 96 89
f 89 96 97
f 89 97 88
f 88 97 98
f 88 98 87
f 87 98 99
f 87 99 86
f 86 99 100
f 86 100 85
f 85 100 101
f 85 101 84
f 84 101 102
f 84 102 83
f 83 102 103
f 83 103 82
f 82 103 104
f 82 104 81
f 81 104 105
f 109 132 108
f 108 132 120
f 108 120 121
f 132 109 131
f 131 109 110
f 131 110 130
f 130 110 111
f 130 111 129
f 129 111 112
f 129 112 128
f 128 112 113
f 128 113 127
f 127 113 114
f 127 114 126
f 126 114 115
f 126 115 125
f 125 115 116
f 125 116 124
f 124 116 117
f 124 117 123
f 123 117 118
f 123 118 122
f 122 118 119
f 122 119 121
f 121 119 108
f 134 159 133
f 133 159 146
f 133 146 147
f 159 134 158
f 158 134 135
f 158 135 157
f 157 135 136
f 157 136 156
f 156 136 137
f 156 137 155
f 155 137 138
f 155 138 154
f 154 138 139
f 154 139 153
f 153 139 140
f 153 140 152
f 152 140 141
f 152 141 151
f 151 141 142
f 151 142 150
f 150 142 143
f 150 143 149
f 149 143 144
f 149 144 148
f 148 144 145
f 148 145 147
f 147 145 133
f 161 186 160
f 160 186 173
f 160 173 174
f 186 161 185
f 185 161 162
f 185 162 184
f 184 162 163
f 184 163 183
f 183 163 164
f 183 164 182
f 182 164 165
f 182 165 181
f 181 165 166
f 181 166 180
f 180 166 167
f 180 167 179
f 179 167 168
f 179 168 178
f 178 168 169
f 178 169 177
f 177 169 170
f 177 170 176
f 176 170 171
f 176 171 175
f 175 171 172
f 175 172 174
f 174 172 160
f 202 217 203
f 218 187 188
f 218 188 216
f 216 188 189
f 216 189 215
f 215 189 190
f 215 190 214
f 214 190 191
f 214 191 213
f 213 191 192
f 213 192 212
f 212 192 193
f 212 193 211
f 211 193 194
f 211 194 210
f 210 194 195
f 210 195 196
f 210 196 209
f 209 196 197
f 209 197 208
f 208 197 198
f 208 198 207
f 207 198 199
f 207 199 206
f 206 199 200
f 206 200 205
f 205 200 201
f 205 201 204
f 204 201 202
f 204 202 203
f 220 250 219
f 219 250 251
f 252 235 234
f 234 235 236
f 234 236 233
f 233 236 237
f 233 237 232
f 232 237 238
f 232 238 231
f 231 238 239
f 231 239 230
f 230 239 240
f 230 240 229
f 229 240 241
f 229 241 228
f 228 241 242
f 228 242 227
f 227 242 243
f 227 243 226
f 226 243 244
f 226 244 225
f 225 244 245
f 225 245 224
f 224 245 246
f 224 246 223
f 223 246 247
f 223 247 222
f 222 247 248
f 222 248 221
f 221 248 249
f 221 249 220
f 220 249 250
f 254 282 253
f 253 282 284
f 283 267 268
f 282 254 281
f 281 254 255
f 281 255 280
f 280 255 256
f 280 256 279
f 279 256 257
f 279 257 278
f 278 257 258
f 278 258 277
f 277 258 259
f 277 259 276
f 276 259 260
f 276 260 275
f 275 260 274
f 274 260 261
f 274 261 273
f 273 261 262
f 273 262 272
f 272 262 263
f 272 263 271
f 271 263 264
f 271 264 270
f 270 264 265
f 270 265 269
f 269 265 266
f 269 266 268
f 268 266 283
