v 0.2225 0.17 0.02319999933
v 0.2232322311 0.1682322311 0.02319999933
v 0.225 0.1675 0.02319999933
v 0.2267677689 0.1682322311 0.02319999933
v 0.2275 0.17 0.02319999933
v 0.2267677689 0.1717677689 0.02319999933
v 0.225 0.1725 0.02319999933
v 0.2232322311 0.1717677689 0.02319999933
v 0.2225 0.17 0.01980000019
v 0.2232322311 0.1717677689 0.01980000019
v 0.225 0.1725 0.01980000019
v 0.2267677689 0.1717677689 0.01980000019
v 0.2275 0.17 0.01980000019
v 0.2267677689 0.1682322311 0.01980000019
v 0.225 0.1675 0.01980000019
v 0.2232322311 0.1682322311 0.01980000019
v 0.2225 0.17 0.02319999933
v 0.2225 0.17 0.01980000019
v 0.22 0.175 0.01980000019
v 0.2214999962 0.175 0.02319999933
v 0.2285000038 0.175 0.02319999933
v 0.23 0.175 0.01980000019
v 0.2214999962 0.175 0.02319999933
v 0.22 0.175 0.01980000019
v 0.22 0.165 0.01980000019
v 0.2214999962 0.165 0.02319999933
v 0.2214999962 0.165 0.02319999933
v 0.22 0.165 0.01980000019
v 0.23 0.165 0.01980000019
v 0.2285000038 0.165 0.02319999933
v 0.23 0.175 0.01980000019
v 0.2285000038 0.175 0.02319999933
v 0.2285000038 0.165 0.02319999933
v 0.23 0.165 0.01980000019
v 0.2225 0.17 0.01980000019
v 0.2232322311 0.1682322311 0.01980000019
v 0.225 0.1675 0.01980000019
v 0.2267677689 0.1682322311 0.01980000019
v 0.2275 0.17 0.01980000019
v 0.2267677689 0.1717677689 0.01980000019
v 0.225 0.1725 0.01980000019
v 0.2232322311 0.1717677689 0.01980000019
v 0.22 0.175 0.01980000019
v 0.23 0.175 0.01980000019
v 0.23 0.165 0.01980000019
v 0.22 0.165 0.01980000019
v 0.2225 0.17 0.02319999933
v 0.2232322311 0.1717677689 0.02319999933
v 0.225 0.1725 0.02319999933
v 0.2267677689 0.1717677689 0.02319999933
v 0.2275 0.17 0.02319999933
v 0.2267677689 0.1682322311 0.02319999933
v 0.225 0.1675 0.02319999933
v 0.2232322311 0.1682322311 0.02319999933
v 0.2285000038 0.175 0.02319999933
v 0.2214999962 0.175 0.02319999933
v 0.2214999962 0.165 0.02319999933
v 0.2285000038 0.165 0.02319999933
f 2 16 1
f 1 16 18
f 17 9 8
f 8 9 10
f 8 10 11
f 2 3 16
f 16 3 15
f 15 3 4
f 15 4 14
f 14 4 5
f 14 5 13
f 13 5 6
f 13 6 12
f 12 6 7
f 12 7 11
f 11 7 8
f 20 21 19
f 19 21 22
f 23 24 26
f 26 24 25
f 28 29 27
f 27 29 30
f 31 32 34
f 34 32 33
f 36 46 35
f 35 46 43
f 35 43 42
f 42 43 41
f 41 43 44
f 41 44 40
f 40 44 39
f 39 44 45
f 39 45 38
f 38 45 37
f 37 45 46
f 37 46 36
f 48 56 47
f 47 56 57
f 47 57 54
f 54 57 53
f 53 57 58
f 53 58 52
f 52 58 51
f 51 58 55
f 51 55 50
f 50 55 49
f 49 55 56
f 49 56 48
