v -0.06050000191 0.055 0.4198767549
v -0.05952774048 0.055 0.4306794435
v -0.0566422081 0.055 0.4411349374
v -0.05193615437 0.055 0.4509071619
v -0.04556082249 0.055 0.4596820528
v -0.03772113323 0.055 0.4671775514
v -0.02866905451 0.055 0.4731527788
v -0.01869552851 0.055 0.4774156648
v -0.008121112584 0.055 0.4798292047
v 0.00271432221 0.055 0.4803158266
v 0.01346251607 0.055 0.4788598901
v 0.02377801418 0.055 0.4755081827
v 0.0333292675 0.055 0.4703684312
v 0.04180929184 0.055 0.4636058504
v 0.04894552708 0.055 0.4554377634
v 0.05450861454 0.055 0.4461267168
v 0.0583197546 0.055 0.4359719736
v 0.06025644302 0.055 0.4252999384
v 0.06025644302 0.055 0.4144535715
v 0.0583197546 0.055 0.4037815267
v 0.05450861454 0.055 0.3936267835
v 0.04894552708 0.055 0.3843157465
v 0.04180929184 0.055 0.3761476595
v 0.0333292675 0.055 0.369385069
v 0.02377801418 0.055 0.3642453176
v 0.01346251607 0.055 0.3608936102
v 0.002714322209 0.055 0.3594376737
v -0.008121112586 0.055 0.3599242956
v -0.01869552851 0.055 0.3623378355
v -0.02866905451 0.055 0.3666007215
v -0.03772113323 0.055 0.3725759489
v -0.04556082249 0.055 0.3800714571
v -0.05193615437 0.055 0.388846348
v -0.0566422081 0.055 0.3986185724
v -0.05952774048 0.055 0.4090740568
v -0.06199999809 0.05650000095 0.4198767549
v -0.06100363255 0.05650000095 0.4088062269
v -0.05804656029 0.05650000095 0.3980915147
v -0.0532238245 0.05650000095 0.3880769998
v -0.04669043064 0.05650000095 0.3790845472
v -0.03865636826 0.05650000095 0.3714031965
v -0.02937985659 0.05650000095 0.3652798254
v -0.01915905356 0.05650000095 0.3609112436
v -0.00832246244 0.05650000095 0.3584378702
v 0.002781619429 0.05650000095 0.3579391843
v 0.01379629731 0.05650000095 0.3594312174
v 0.0243675518 0.05650000095 0.362866028
v 0.03415561199 0.05650000095 0.3681332094
v 0.04284588337 0.05650000095 0.3750634748
v 0.0501590538 0.05650000095 0.383434065
v 0.05586007118 0.05650000095 0.392975958
v 0.05976569653 0.05650000095 0.4033824712
v 0.06175040722 0.05650000095 0.4143191225
v 0.06175040722 0.05650000095 0.4254343874
v 0.05976569653 0.05650000095 0.4363710291
v 0.05586007118 0.05650000095 0.4467775423
v 0.0501590538 0.05650000095 0.4563194353
v 0.04284588337 0.05650000095 0.4646900255
v 0.03415561199 0.05650000095 0.4716203004
v 0.0243675518 0.05650000095 0.4768874818
v 0.01379629731 0.05650000095 0.4803222734
v 0.00278161943 0.05650000095 0.481814316
v -0.008322462439 0.05650000095 0.4813156397
v -0.01915905356 0.05650000095 0.4788422472
v -0.02937985659 0.05650000095 0.4744736749
v -0.03865636826 0.05650000095 0.4683503038
v -0.04669043064 0.05650000095 0.4606689531
v -0.0532238245 0.05650000095 0.45167651
v -0.05804656029 0.05650000095 0.4416619951
v -0.06100363255 0.05650000095 0.4309472734
v -0.06149867058 0.05543933868 0.422638653
v -0.06100352287 0.05543933868 0.4116132623
v -0.06001720428 0.05543933868 0.4335752947
v -0.05660673618 0.05543933868 0.4440716249
v -0.0513768816 0.05543933868 0.4537903291
v -0.0444957304 0.05543933868 0.4624190218
v -0.0361844492 0.05543933868 0.4696803743
v -0.02671016931 0.05543933868 0.4753409845
v -0.01637740374 0.05543933868 0.4792189485
v -0.005518255233 0.05543933868 0.481189583
v 0.005518255234 0.05543933868 0.481189583
v 0.01637740374 0.05543933868 0.4792189485
v 0.02671016932 0.05543933868 0.4753409845
v 0.0361844492 0.05543933868 0.4696803743
v 0.0444957304 0.05543933868 0.4624190218
v 0.0513768816 0.05543933868 0.4537903291
v 0.05660673618 0.05543933868 0.4440716249
v 0.06001720428 0.05543933868 0.4335752947
v 0.06149867058 0.05543933868 0.422638653
v 0.06100352287 0.05543933868 0.4116132623
v 0.05854766846 0.05543933868 0.4008534605
v 0.05421004295 0.05543933868 0.3907050878
v 0.04813006401 0.05543933868 0.3814943105
v 0.04050314426 0.05543933868 0.3735171777
v 0.03157441854 0.05543933868 0.3670300752
v 0.02163086653 0.05543933868 0.3622415144
v 0.01099207997 0.05543933868 0.3593053991
v -6.790544053e-13 0.05543933868 0.3583160955
v -0.01099207997 0.05543933868 0.3593053991
v -6.790544053e-13 0.05543933868 0.3583160955
v -0.02163086653 0.05543933868 0.3622415144
v -0.03157441855 0.05543933868 0.3670300752
v -0.04050314426 0.05543933868 0.3735171777
v -0.04813006401 0.05543933868 0.3814943105
v -0.05421004295 0.05543933868 0.3907050878
v -0.05854766846 0.05543933868 0.4008534605
v 0.002714322209 0.055 0.3594376737
v -0.00832246244 0.05650000095 0.3584378702
v -0.06199999809 0.06349999905 0.4198767549
v -0.06100363255 0.06349999905 0.4088062269
v -0.05804656029 0.06349999905 0.3980915147
v -0.0532238245 0.06349999905 0.3880769998
v -0.04669043064 0.06349999905 0.3790845472
v -0.03865636826 0.06349999905 0.3714031965
v -0.02937985659 0.06349999905 0.3652798254
v -0.01915905356 0.06349999905 0.3609112436
v -0.00832246244 0.06349999905 0.3584378702
v 0.002781619429 0.06349999905 0.3579391843
v 0.01379629731 0.06349999905 0.3594312174
v 0.0243675518 0.06349999905 0.362866028
v 0.03415561199 0.06349999905 0.3681332094
v 0.04284588337 0.06349999905 0.3750634748
v 0.0501590538 0.06349999905 0.383434065
v 0.05586007118 0.06349999905 0.392975958
v 0.05976569653 0.06349999905 0.4033824712
v 0.06175040722 0.06349999905 0.4143191225
v 0.06175040722 0.06349999905 0.4254343874
v 0.05976569653 0.06349999905 0.4363710291
v 0.05586007118 0.06349999905 0.4467775423
v 0.0501590538 0.06349999905 0.4563194353
v 0.04284588337 0.06349999905 0.4646900255
v 0.03415561199 0.06349999905 0.4716203004
v 0.0243675518 0.06349999905 0.4768874818
v 0.01379629731 0.06349999905 0.4803222734
v 0.00278161943 0.06349999905 0.481814316
v -0.008322462439 0.06349999905 0.4813156397
v -0.01915905356 0.06349999905 0.4788422472
v -0.02937985659 0.06349999905 0.4744736749
v -0.03865636826 0.06349999905 0.4683503038
v -0.04669043064 0.06349999905 0.4606689531
v -0.0532238245 0.06349999905 0.45167651
v -0.05804656029 0.06349999905 0.4416619951
v -0.06100363255 0.06349999905 0.4309472734
v -0.06199999809 0.05650000095 0.4198767549
v -0.06100363255 0.05650000095 0.4309472734
v -0.05804656029 0.05650000095 0.4416619951
v -0.0532238245 0.05650000095 0.45167651
v -0.04669043064 0.05650000095 0.4606689531
v -0.03865636826 0.05650000095 0.4683503038
v -0.02937985659 0.05650000095 0.4744736749
v -0.01915905356 0.05650000095 0.4788422472
v -0.008322462439 0.05650000095 0.4813156397
v 0.00278161943 0.05650000095 0.481814316
v 0.01379629731 0.05650000095 0.4803222734
v 0.0243675518 0.05650000095 0.4768874818
v 0.03415561199 0.05650000095 0.4716203004
v 0.04284588337 0.05650000095 0.4646900255
v 0.0501590538 0.05650000095 0.4563194353
v 0.05586007118 0.05650000095 0.4467775423
v 0.05976569653 0.05650000095 0.4363710291
v 0.06175040722 0.05650000095 0.4254343874
v 0.06175040722 0.05650000095 0.4143191225
v 0.05976569653 0.05650000095 0.4033824712
v 0.05586007118 0.05650000095 0.392975958
v 0.0501590538 0.05650000095 0.383434065
v 0.04284588337 0.05650000095 0.3750634748
v 0.03415561199 0.05650000095 0.3681332094
v 0.0243675518 0.05650000095 0.362866028
v 0.01379629731 0.05650000095 0.3594312174
v 0.002781619429 0.05650000095 0.3579391843
v -0.00832246244 0.05650000095 0.3584378702
v -0.01915905356 0.05650000095 0.3609112436
v -0.02937985659 0.05650000095 0.3652798254
v -0.03865636826 0.05650000095 0.3714031965
v -0.04669043064 0.05650000095 0.3790845472
v -0.0532238245 0.05650000095 0.3880769998
v -0.05804656029 0.05650000095 0.3980915147
v -0.06100363255 0.05650000095 0.4088062269
v -0.06199999809 0.05650000095 0.4198767549
v -0.06199999809 0.06349999905 0.4198767549
v -0.05119061947 0.055 0.3970553667
v -0.05034347057 0.055 0.3988144857
v -0.04843994617 0.055 0.3992489511
v -0.04691344261 0.055 0.3980316049
v -0.04691344261 0.055 0.3960791284
v -0.04843994617 0.055 0.3948617822
v -0.05034347057 0.055 0.3952962476
v 0.02057138681 0.055 0.3709361345
v 0.02141853332 0.055 0.3726952535
v 0.02332205772 0.055 0.3731297189
v 0.02484856605 0.055 0.3719123727
v 0.02484856605 0.055 0.3699598962
v 0.02332205772 0.055 0.3687425405
v 0.02141853332 0.055 0.3691770155
v 0.04669062138 0.055 0.4426981432
v 0.04753777027 0.055 0.4444572527
v 0.04944129467 0.055 0.4448917276
v 0.05096779823 0.055 0.4436743814
v 0.05096779823 0.055 0.4417219049
v 0.04944129467 0.055 0.4405045587
v 0.04753777027 0.055 0.4409390146
v -0.02507138729 0.055 0.4688173753
v -0.0242242384 0.055 0.4705764848
v -0.022320714 0.055 0.4710109598
v -0.02079420567 0.055 0.4697936136
v -0.02079420567 0.055 0.4678411371
v -0.022320714 0.055 0.4666237909
v -0.0242242384 0.055 0.4670582468
v -0.01515096545 0.055 0.425881756
v -0.01424379587 0.055 0.4286737329
v -0.01186879635 0.055 0.4303992731
v -0.008933134079 0.055 0.4303992731
v -0.006558134556 0.055 0.4286737329
v -0.005650964975 0.055 0.425881756
v -0.006558134556 0.055 0.4230897791
v -0.008933134079 0.055 0.4213642389
v -0.01186879635 0.055 0.4213642389
v -0.01424379587 0.055 0.4230897791
v 0.005650964975 0.055 0.425881756
v 0.006558134556 0.055 0.4286737329
v 0.008933134079 0.055 0.4303992731
v 0.01186879635 0.055 0.4303992731
v 0.01424379587 0.055 0.4286737329
v 0.01515096545 0.055 0.425881756
v 0.01424379587 0.055 0.4230897791
v 0.01186879635 0.055 0.4213642389
v 0.008933134079 0.055 0.4213642389
v 0.006558134556 0.055 0.4230897791
v 0.005650964975 0.055 0.4138717538
v 0.006558134556 0.055 0.4166637308
v 0.008933134079 0.055 0.4183892709
v 0.01186879635 0.055 0.4183892709
v 0.01424379587 0.055 0.4166637308
v 0.01515096545 0.055 0.4138717538
v 0.01424379587 0.055 0.4110797769
v 0.01186879635 0.055 0.4093542368
v 0.008933134079 0.055 0.4093542368
v 0.006558134556 0.055 0.4110797769
v -0.004749999941 0.055 0.4078667528
v -0.003842830658 0.055 0.4106587297
v -0.001467830688 0.055 0.4123842699
v 0.001467830688 0.055 0.4123842699
v 0.003842830658 0.055 0.4106587297
v 0.00474999994 0.055 0.4078667528
v 0.003842830658 0.055 0.4050747759
v 0.001467830688 0.055 0.4033492357
v -0.001467830688 0.055 0.4033492357
v -0.003842830658 0.055 0.4050747759
v -0.01515096545 0.055 0.4138717538
v -0.01424379587 0.055 0.4166637308
v -0.01186879635 0.055 0.4183892709
v -0.008933134079 0.055 0.4183892709
v -0.006558134556 0.055 0.4166637308
v -0.005650964975 0.055 0.4138717538
v -0.006558134556 0.055 0.4110797769
v -0.008933134079 0.055 0.4093542368
v -0.01186879635 0.055 0.4093542368
v -0.01424379587 0.055 0.4110797769
v -0.00474999994 0.055 0.4318867571
v -0.003842830658 0.055 0.434678734
v -0.001467830688 0.055 0.4364042741
v 0.001467830688 0.055 0.4364042741
v 0.003842830658 0.055 0.434678734
v 0.004749999941 0.055 0.4318867571
v 0.003842830658 0.055 0.4290947801
v 0.001467830688 0.055 0.42736924
v -0.001467830688 0.055 0.42736924
v -0.003842830658 0.055 0.4290947801
v -0.05058770657 0.055 0.4335575563
v -0.04970984459 0.055 0.4382536966
v -0.04719481945 0.055 0.4423156053
v -0.04338230133 0.055 0.4451946718
v -0.0387871933 0.055 0.4465021021
v -0.03403008699 0.055 0.4460612947
v -0.02975345373 0.055 0.4439317781
v -0.02653488159 0.055 0.4404011804
v -0.02480905533 0.055 0.4359463007
v -0.02480905533 0.055 0.431168812
v -0.02653488159 0.055 0.4267139322
v -0.02975345373 0.055 0.4231833345
v -0.03403008699 0.055 0.4210538179
v -0.0387871933 0.055 0.4206130106
v -0.04338230133 0.055 0.4219204408
v -0.04719481945 0.055 0.4247995073
v -0.04970984459 0.055 0.428861416
v 0.0006808057432 0.055 0.4574644548
v 0.001558666677 0.055 0.4621605951
v 0.004073689878 0.055 0.4662225038
v 0.007886207104 0.055 0.4691015703
v 0.01248131752 0.055 0.4704090006
v 0.01723842502 0.055 0.4699681932
v 0.02151505709 0.055 0.4678386766
v 0.02473362923 0.055 0.4643080789
v 0.02645945549 0.055 0.4598531992
v 0.02645945549 0.055 0.4550757105
v 0.02473362923 0.055 0.4506208307
v 0.02151505709 0.055 0.447090233
v 0.01723842502 0.055 0.4449607164
v 0.01248131752 0.055 0.4445199091
v 0.007886207104 0.055 0.4458273393
v 0.004073689878 0.055 0.4487064058
v 0.001558666677 0.055 0.4527683145
v 0.02458770514 0.055 0.406195944
v 0.02546556473 0.055 0.4108920938
v 0.02798058987 0.055 0.4149539835
v 0.0317931056 0.055 0.417833069
v 0.03638821602 0.055 0.4191404993
v 0.04114532471 0.055 0.4186996729
v 0.0454219532 0.055 0.4165701753
v 0.04864052773 0.055 0.4130395586
v 0.05036635399 0.055 0.4085846883
v 0.05036635399 0.055 0.4038071996
v 0.04864052772 0.055 0.3993523294
v 0.0454219532 0.055 0.3958217222
v 0.04114532471 0.055 0.3936922151
v 0.03638821602 0.055 0.3932513982
v 0.0317931056 0.055 0.394558819
v 0.02798058987 0.055 0.3974379045
v 0.02546556473 0.055 0.4014998037
v -0.02668080568 0.055 0.3822890455
v -0.02580294371 0.055 0.3869851858
v -0.02328792095 0.055 0.3910470945
v -0.01947540402 0.055 0.3939261705
v -0.0148802948 0.055 0.3952335912
v -0.0101231873 0.055 0.3947927839
v -0.005846555233 0.055 0.3926632673
v -0.002627983094 0.055 0.3891326696
v -0.0009021554146 0.055 0.3846777898
v -0.0009021554147 0.055 0.3799003011
v -0.002627983094 0.055 0.3754454309
v -0.005846555234 0.055 0.3719148237
v -0.0101231873 0.055 0.3697853166
v -0.0148802948 0.055 0.3693444997
v -0.01947540402 0.055 0.3706519205
v -0.02328792095 0.055 0.373531006
v -0.02580294371 0.055 0.3775929052
v -0.00400000006 0.055 0.4198767549
v -0.003064177632 0.055 0.422447899
v -0.0006945927441 0.055 0.423815983
v 0.00200000003 0.055 0.4233408624
v 0.003758770525 0.055 0.4212448389
v 0.003758770525 0.055 0.418508671
v 0.00200000003 0.055 0.4164126474
v -0.0006945927442 0.055 0.4159375269
v -0.003064177632 0.055 0.4173056108
v -0.06050000191 0.055 0.4198767549
v -0.05952774048 0.055 0.4090740568
v -0.0566422081 0.055 0.3986185724
v -0.05193615437 0.055 0.388846348
v -0.04556082249 0.055 0.3800714571
v -0.03772113323 0.055 0.3725759489
v -0.02866905451 0.055 0.3666007215
v -0.01869552851 0.055 0.3623378355
v -0.008121112586 0.055 0.3599242956
v 0.002714322209 0.055 0.3594376737
v 0.01346251607 0.055 0.3608936102
v 0.02377801418 0.055 0.3642453176
v 0.0333292675 0.055 0.369385069
v 0.04180929184 0.055 0.3761476595
v 0.04894552708 0.055 0.3843157465
v 0.05450861454 0.055 0.3936267835
v 0.0583197546 0.055 0.4037815267
v 0.06025644302 0.055 0.4144535715
v 0.06025644302 0.055 0.4252999384
v 0.0583197546 0.055 0.4359719736
v 0.05450861454 0.055 0.4461267168
v 0.04894552708 0.055 0.4554377634
v 0.04180929184 0.055 0.4636058504
v 0.0333292675 0.055 0.4703684312
v 0.02377801418 0.055 0.4755081827
v 0.01346251607 0.055 0.4788598901
v 0.00271432221 0.055 0.4803158266
v -0.008121112584 0.055 0.4798292047
v -0.01869552851 0.055 0.4774156648
v -0.02866905451 0.055 0.4731527788
v -0.03772113323 0.055 0.4671775514
v -0.04556082249 0.055 0.4596820528
v -0.05193615437 0.055 0.4509071619
v -0.0566422081 0.055 0.4411349374
v -0.05952774048 0.055 0.4306794435
v -0.06199999809 0.06349999905 0.4198767549
v -0.06100363255 0.06349999905 0.4309472734
v -0.05804656029 0.06349999905 0.4416619951
v -0.0532238245 0.06349999905 0.45167651
v -0.04669043064 0.06349999905 0.4606689531
v -0.03865636826 0.06349999905 0.4683503038
v -0.02937985659 0.06349999905 0.4744736749
v -0.01915905356 0.06349999905 0.4788422472
v -0.008322462439 0.06349999905 0.4813156397
v 0.00278161943 0.06349999905 0.481814316
v 0.01379629731 0.06349999905 0.4803222734
v 0.0243675518 0.06349999905 0.4768874818
v 0.03415561199 0.06349999905 0.4716203004
v 0.04284588337 0.06349999905 0.4646900255
v 0.0501590538 0.06349999905 0.4563194353
v 0.05586007118 0.06349999905 0.4467775423
v 0.05976569653 0.06349999905 0.4363710291
v 0.06175040722 0.06349999905 0.4254343874
v 0.06175040722 0.06349999905 0.4143191225
v 0.05976569653 0.06349999905 0.4033824712
v 0.05586007118 0.06349999905 0.392975958
v 0.0501590538 0.06349999905 0.383434065
v 0.04284588337 0.06349999905 0.3750634748
v 0.03415561199 0.06349999905 0.3681332094
v 0.0243675518 0.06349999905 0.362866028
v 0.01379629731 0.06349999905 0.3594312174
v 0.002781619429 0.06349999905 0.3579391843
v -0.00832246244 0.06349999905 0.3584378702
v -0.01915905356 0.06349999905 0.3609112436
v -0.02937985659 0.06349999905 0.3652798254
v -0.03865636826 0.06349999905 0.3714031965
v -0.04669043064 0.06349999905 0.3790845472
v -0.0532238245 0.06349999905 0.3880769998
v -0.05804656029 0.06349999905 0.3980915147
v -0.06100363255 0.06349999905 0.4088062269
v -0.06050000191 0.065 0.4198767549
v -0.05952774048 0.065 0.4090740568
v -0.0566422081 0.065 0.3986185724
v -0.05193615437 0.065 0.388846348
v -0.04556082249 0.065 0.3800714571
v -0.03772113323 0.065 0.3725759489
v -0.02866905451 0.065 0.3666007215
v -0.01869552851 0.065 0.3623378355
v -0.008121112586 0.065 0.3599242956
v 0.002714322209 0.065 0.3594376737
v 0.01346251607 0.065 0.3608936102
v 0.02377801418 0.065 0.3642453176
v 0.0333292675 0.065 0.369385069
v 0.04180929184 0.065 0.3761476595
v 0.04894552708 0.065 0.3843157465
v 0.05450861454 0.065 0.3936267835
v 0.0583197546 0.065 0.4037815267
v 0.06025644302 0.065 0.4144535715
v 0.06025644302 0.065 0.4252999384
v 0.0583197546 0.065 0.4359719736
v 0.05450861454 0.065 0.4461267168
v 0.04894552708 0.065 0.4554377634
v 0.04180929184 0.065 0.4636058504
v 0.0333292675 0.065 0.4703684312
v 0.02377801418 0.065 0.4755081827
v 0.01346251607 0.065 0.4788598901
v 0.00271432221 0.065 0.4803158266
v -0.008121112584 0.065 0.4798292047
v -0.01869552851 0.065 0.4774156648
v -0.02866905451 0.065 0.4731527788
v -0.03772113323 0.065 0.4671775514
v -0.04556082249 0.065 0.4596820528
v -0.05193615437 0.065 0.4509071619
v -0.0566422081 0.065 0.4411349374
v -0.05952774048 0.065 0.4306794435
v -0.06149867058 0.06456066132 0.422638653
v -0.06100352287 0.06456066132 0.4116132623
v -0.06001720428 0.06456066132 0.4335752947
v -0.05660673618 0.06456066132 0.4440716249
v -0.0513768816 0.06456066132 0.4537903291
v -0.0444957304 0.06456066132 0.4624190218
v -0.0361844492 0.06456066132 0.4696803743
v -0.02671016931 0.06456066132 0.4753409845
v -0.01637740374 0.06456066132 0.4792189485
v -0.005518255233 0.06456066132 0.481189583
v 0.005518255234 0.06456066132 0.481189583
v 0.01637740374 0.06456066132 0.4792189485
v 0.02671016932 0.06456066132 0.4753409845
v 0.0361844492 0.06456066132 0.4696803743
v 0.0444957304 0.06456066132 0.4624190218
v 0.0513768816 0.06456066132 0.4537903291
v 0.05660673618 0.06456066132 0.4440716249
v 0.06001720428 0.06456066132 0.4335752947
v 0.06149867058 0.06456066132 0.422638653
v 0.06100352287 0.06456066132 0.4116132623
v 0.05854766846 0.06456066132 0.4008534605
v 0.05421004295 0.06456066132 0.3907050878
v 0.04813006401 0.06456066132 0.3814943105
v 0.04050314426 0.06456066132 0.3735171777
v 0.03157441854 0.06456066132 0.3670300752
v 0.02163086653 0.06456066132 0.3622415144
v 0.01099207997 0.06456066132 0.3593053991
v -6.790555224e-13 0.06456066132 0.3583160955
v -0.01099207997 0.06456066132 0.3593053991
v -6.790555224e-13 0.06456066132 0.3583160955
v -0.02163086653 0.06456066132 0.3622415144
v -0.03157441855 0.06456066132 0.3670300752
v -0.04050314426 0.06456066132 0.3735171777
v -0.04813006401 0.06456066132 0.3814943105
v -0.05421004295 0.06456066132 0.3907050878
v -0.05854766846 0.06456066132 0.4008534605
v 0.002781619429 0.06349999905 0.3579391843
v -0.008121112586 0.065 0.3599242956
v -0.02450000048 0.065 0.4198767549
v -0.02350757837 0.065 0.4129743082
v -0.02061071157 0.065 0.4066310484
v -0.01604408741 0.065 0.4013608915
v -0.01017766833 0.065 0.397590769
v -0.003486713469 0.065 0.3956261236
v 0.003486713469 0.065 0.3956261236
v 0.01017766833 0.065 0.397590769
v 0.01604408741 0.065 0.4013608915
v 0.02061071157 0.065 0.4066310484
v 0.02350757837 0.065 0.4129743082
v 0.02450000048 0.065 0.4198767549
v 0.02350757837 0.065 0.4267792017
v 0.02061071157 0.065 0.4331224519
v 0.01604408741 0.065 0.4383926088
v 0.01017766833 0.065 0.4421627313
v 0.003486713469 0.065 0.4441273767
v -0.003486713469 0.065 0.4441273767
v -0.01017766833 0.065 0.4421627313
v -0.01604408741 0.065 0.4383926088
v -0.02061071157 0.065 0.4331224519
v -0.02350757837 0.065 0.4267792017
v -0.05058770657 0.065 0.4335575563
v -0.04970984459 0.065 0.428861416
v -0.04719481945 0.065 0.4247995073
v -0.04338230133 0.065 0.4219204408
v -0.0387871933 0.065 0.4206130106
v -0.03403008699 0.065 0.4210538179
v -0.02975345373 0.065 0.4231833345
v -0.02653488159 0.065 0.4267139322
v -0.02480905533 0.065 0.431168812
v -0.02480905533 0.065 0.4359463007
v -0.02653488159 0.065 0.4404011804
v -0.02975345373 0.065 0.4439317781
v -0.03403008699 0.065 0.4460612947
v -0.0387871933 0.065 0.4465021021
v -0.04338230133 0.065 0.4451946718
v -0.04719481945 0.065 0.4423156053
v -0.04970984459 0.065 0.4382536966
v 0.0006808057432 0.065 0.4574644548
v 0.001558666677 0.065 0.4527683145
v 0.004073689878 0.065 0.4487064058
v 0.007886207104 0.065 0.4458273393
v 0.01248131752 0.065 0.4445199091
v 0.01723842502 0.065 0.4449607164
v 0.02151505709 0.065 0.447090233
v 0.02473362923 0.065 0.4506208307
v 0.02645945549 0.065 0.4550757105
v 0.02645945549 0.065 0.4598531992
v 0.02473362923 0.065 0.4643080789
v 0.02151505709 0.065 0.4678386766
v 0.01723842502 0.065 0.4699681932
v 0.01248131752 0.065 0.4704090006
v 0.007886207104 0.065 0.4691015703
v 0.004073689878 0.065 0.4662225038
v 0.001558666677 0.065 0.4621605951
v 0.02458770514 0.065 0.406195944
v 0.02546556473 0.065 0.4014998037
v 0.02798058987 0.065 0.3974379045
v 0.0317931056 0.065 0.394558819
v 0.03638821602 0.065 0.3932513982
v 0.04114532471 0.065 0.3936922151
v 0.0454219532 0.065 0.3958217222
v 0.04864052772 0.065 0.3993523294
v 0.05036635399 0.065 0.4038071996
v 0.05036635399 0.065 0.4085846883
v 0.04864052773 0.065 0.4130395586
v 0.0454219532 0.065 0.4165701753
v 0.04114532471 0.065 0.4186996729
v 0.03638821602 0.065 0.4191404993
v 0.0317931056 0.065 0.417833069
v 0.02798058987 0.065 0.4149539835
v 0.02546556473 0.065 0.4108920938
v -0.02668080568 0.065 0.3822890455
v -0.02580294371 0.065 0.3775929052
v -0.02328792095 0.065 0.373531006
v -0.01947540402 0.065 0.3706519205
v -0.0148802948 0.065 0.3693444997
v -0.0101231873 0.065 0.3697853166
v -0.005846555234 0.065 0.3719148237
v -0.002627983094 0.065 0.3754454309
v -0.0009021554147 0.065 0.3799003011
v -0.0009021554146 0.065 0.3846777898
v -0.002627983094 0.065 0.3891326696
v -0.005846555233 0.065 0.3926632673
v -0.0101231873 0.065 0.3947927839
v -0.0148802948 0.065 0.3952335912
v -0.01947540402 0.065 0.3939261705
v -0.02328792095 0.065 0.3910470945
v -0.02580294371 0.065 0.3869851858
v -0.02757138729 0.065 0.4688173753
v -0.02666421652 0.065 0.4660253984
v -0.02428921699 0.065 0.4642998583
v -0.02135355473 0.065 0.4642998583
v -0.0189785552 0.065 0.4660253984
v -0.01807138562 0.065 0.4688173753
v -0.0189785552 0.065 0.4716093523
v -0.02135355473 0.065 0.4733348924
v -0.02428921699 0.065 0.4733348924
v -0.02666421652 0.065 0.4716093523
v 0.04419062138 0.065 0.4426981432
v 0.04509778976 0.065 0.4399061662
v 0.04747279167 0.065 0.4381806261
v 0.05040844917 0.065 0.4381806261
v 0.05278345108 0.065 0.4399061662
v 0.05369061947 0.065 0.4426981432
v 0.05278345108 0.065 0.4454901201
v 0.05040844917 0.065 0.4472156603
v 0.04747279167 0.065 0.4472156603
v 0.04509778976 0.065 0.4454901201
v 0.01807138562 0.065 0.3709361345
v 0.0189785552 0.065 0.368144148
v 0.02135355473 0.065 0.3664186174
v 0.02428921699 0.065 0.3664186174
v 0.02666421652 0.065 0.368144148
v 0.02757138729 0.065 0.3709361345
v 0.02666421652 0.065 0.3737281114
v 0.02428921699 0.065 0.3754536516
v 0.02135355473 0.065 0.3754536516
v 0.0189785552 0.065 0.3737281114
v -0.05369061947 0.065 0.3970553667
v -0.05278345108 0.065 0.3942633897
v -0.05040844917 0.065 0.3925378496
v -0.04747279167 0.065 0.3925378496
v -0.04509778976 0.065 0.3942633897
v -0.04419062138 0.065 0.3970553667
v -0.04509778976 0.065 0.3998473436
v -0.04747279167 0.065 0.4015728838
v -0.05040844917 0.065 0.4015728838
v -0.05278345108 0.065 0.3998473436
v -0.06050000191 0.065 0.4198767549
v -0.05952774048 0.065 0.4306794435
v -0.0566422081 0.065 0.4411349374
v -0.05193615437 0.065 0.4509071619
v -0.04556082249 0.065 0.4596820528
v -0.03772113323 0.065 0.4671775514
v -0.02866905451 0.065 0.4731527788
v -0.01869552851 0.065 0.4774156648
v -0.008121112584 0.065 0.4798292047
v 0.00271432221 0.065 0.4803158266
v 0.01346251607 0.065 0.4788598901
v 0.02377801418 0.065 0.4755081827
v 0.0333292675 0.065 0.4703684312
v 0.04180929184 0.065 0.4636058504
v 0.04894552708 0.065 0.4554377634
v 0.05450861454 0.065 0.4461267168
v 0.0583197546 0.065 0.4359719736
v 0.06025644302 0.065 0.4252999384
v 0.06025644302 0.065 0.4144535715
v 0.0583197546 0.065 0.4037815267
v 0.05450861454 0.065 0.3936267835
v 0.04894552708 0.065 0.3843157465
v 0.04180929184 0.065 0.3761476595
v 0.0333292675 0.065 0.369385069
v 0.02377801418 0.065 0.3642453176
v 0.01346251607 0.065 0.3608936102
v 0.002714322209 0.065 0.3594376737
v -0.008121112586 0.065 0.3599242956
v -0.01869552851 0.065 0.3623378355
v -0.02866905451 0.065 0.3666007215
v -0.03772113323 0.065 0.3725759489
v -0.04556082249 0.065 0.3800714571
v -0.05193615437 0.065 0.388846348
v -0.0566422081 0.065 0.3986185724
v -0.05952774048 0.065 0.4090740568
v -0.02299999952 0.06650000095 0.4198767549
v -0.02206833839 0.06650000095 0.4133969003
v -0.01934883118 0.06650000095 0.4074420149
v -0.0150617969 0.06650000095 0.4024945146
v -0.009554545284 0.06650000095 0.3989552194
v -0.003273241222 0.06650000095 0.397110861
v 0.003273241222 0.06650000095 0.397110861
v 0.009554545283 0.06650000095 0.3989552194
v 0.0150617969 0.06650000095 0.4024945146
v 0.01934883118 0.06650000095 0.4074420149
v 0.02206833839 0.06650000095 0.4133969003
v 0.02299999952 0.06650000095 0.4198767549
v 0.02206833839 0.06650000095 0.4263566095
v 0.01934883118 0.06650000095 0.4323114854
v 0.0150617969 0.06650000095 0.4372589952
v 0.009554545284 0.06650000095 0.4407982904
v 0.003273241222 0.06650000095 0.4426426393
v -0.003273241222 0.06650000095 0.4426426393
v -0.009554545283 0.06650000095 0.4407982904
v -0.0150617969 0.06650000095 0.4372589952
v -0.01934883118 0.06650000095 0.4323114854
v -0.02206833839 0.06650000095 0.4263566095
v -0.02450000048 0.065 0.4198767549
v -0.02350757837 0.065 0.4267792017
v -0.02061071157 0.065 0.4331224519
v -0.01604408741 0.065 0.4383926088
v -0.01017766833 0.065 0.4421627313
v -0.003486713469 0.065 0.4441273767
v 0.003486713469 0.065 0.4441273767
v 0.01017766833 0.065 0.4421627313
v 0.01604408741 0.065 0.4383926088
v 0.02061071157 0.065 0.4331224519
v 0.02350757837 0.065 0.4267792017
v 0.02450000048 0.065 0.4198767549
v 0.02350757837 0.065 0.4129743082
v 0.02061071157 0.065 0.4066310484
v 0.01604408741 0.065 0.4013608915
v 0.01017766833 0.065 0.397590769
v 0.003486713469 0.065 0.3956261236
v -0.003486713469 0.065 0.3956261236
v -0.01017766833 0.065 0.397590769
v -0.01604408741 0.065 0.4013608915
v -0.02061071157 0.065 0.4066310484
v -0.02350757837 0.065 0.4129743082
v 0.00319165647 0.06543933868 0.3966557295
v -0.003191656471 0.06543933868 0.3966557295
v -0.02338469744 0.06543933868 0.4182771951
v -0.02294908524 0.06543933868 0.4246456224
v -0.02208597422 0.06543933868 0.4120273859
v -0.01914923549 0.06543933868 0.4063597471
v -0.01479228497 0.06543933868 0.4016945917
v -0.009338258505 0.06543933868 0.3983779222
v 0.009338258505 0.06543933868 0.3983779222
v 0.01479228497 0.06543933868 0.4016945917
v 0.01914923549 0.06543933868 0.4063597471
v 0.02208597422 0.06543933868 0.4120273859
v 0.02338469744 0.06543933868 0.4182771951
v 0.02294908524 0.06543933868 0.4246456224
v 0.02081144333 0.06543933868 0.43066037
v 0.01713031292 0.06543933868 0.4358753473
v 0.01217870474 0.06543933868 0.439903782
v 0.0063238585 0.06543933868 0.4424469072
v 2.585419788e-13 0.06543933868 0.443316086
v -0.006323858499 0.06543933868 0.4424469072
v 2.585419788e-13 0.06543933868 0.443316086
v -0.01217870474 0.06543933868 0.439903782
v -0.01713031292 0.06543933868 0.4358753473
v -0.02081144333 0.06543933868 0.43066037
v 0.003273241222 0.06650000095 0.4426426393
v -0.003486713469 0.065 0.4441273767
v -0.02299999952 0.0725 0.4198767549
v -0.02206833839 0.0725 0.4133969003
v -0.01934883118 0.0725 0.4074420149
v -0.0150617969 0.0725 0.4024945146
v -0.009554545284 0.0725 0.3989552194
v -0.003273241222 0.0725 0.397110861
v 0.003273241222 0.0725 0.397110861
v 0.009554545283 0.0725 0.3989552194
v 0.0150617969 0.0725 0.4024945146
v 0.01934883118 0.0725 0.4074420149
v 0.02206833839 0.0725 0.4133969003
v 0.02299999952 0.0725 0.4198767549
v 0.02206833839 0.0725 0.4263566095
v 0.01934883118 0.0725 0.4323114854
v 0.0150617969 0.0725 0.4372589952
v 0.009554545284 0.0725 0.4407982904
v 0.003273241222 0.0725 0.4426426393
v -0.003273241222 0.0725 0.4426426393
v -0.009554545283 0.0725 0.4407982904
v -0.0150617969 0.0725 0.4372589952
v -0.01934883118 0.0725 0.4323114854
v -0.02206833839 0.0725 0.4263566095
v -0.02299999952 0.06650000095 0.4198767549
v -0.02206833839 0.06650000095 0.4263566095
v -0.01934883118 0.06650000095 0.4323114854
v -0.0150617969 0.06650000095 0.4372589952
v -0.009554545283 0.06650000095 0.4407982904
v -0.003273241222 0.06650000095 0.4426426393
v 0.003273241222 0.06650000095 0.4426426393
v 0.009554545284 0.06650000095 0.4407982904
v 0.0150617969 0.06650000095 0.4372589952
v 0.01934883118 0.06650000095 0.4323114854
v 0.02206833839 0.06650000095 0.4263566095
v 0.02299999952 0.06650000095 0.4198767549
v 0.02206833839 0.06650000095 0.4133969003
v 0.01934883118 0.06650000095 0.4074420149
v 0.0150617969 0.06650000095 0.4024945146
v 0.009554545283 0.06650000095 0.3989552194
v 0.003273241222 0.06650000095 0.397110861
v -0.003273241222 0.06650000095 0.397110861
v -0.009554545284 0.06650000095 0.3989552194
v -0.0150617969 0.06650000095 0.4024945146
v -0.01934883118 0.06650000095 0.4074420149
v -0.02206833839 0.06650000095 0.4133969003
v -0.02299999952 0.06650000095 0.4198767549
v -0.02299999952 0.0725 0.4198767549
v -0.05369061947 0.05980000019 0.3970553667
v -0.05278345108 0.05980000019 0.3942633897
v -0.05040844917 0.05980000019 0.3925378496
v -0.04747279167 0.05980000019 0.3925378496
v -0.04509778976 0.05980000019 0.3942633897
v -0.04419062138 0.05980000019 0.3970553667
v -0.04509778976 0.05980000019 0.3998473436
v -0.04747279167 0.05980000019 0.4015728838
v -0.05040844917 0.05980000019 0.4015728838
v -0.05278345108 0.05980000019 0.3998473436
v -0.05369061947 0.065 0.3970553667
v -0.05278345108 0.065 0.3998473436
v -0.05040844917 0.065 0.4015728838
v -0.04747279167 0.065 0.4015728838
v -0.04509778976 0.065 0.3998473436
v -0.04419062138 0.065 0.3970553667
v -0.04509778976 0.065 0.3942633897
v -0.04747279167 0.065 0.3925378496
v -0.05040844917 0.065 0.3925378496
v -0.05278345108 0.065 0.3942633897
v -0.05369061947 0.05980000019 0.3970553667
v -0.05369061947 0.065 0.3970553667
v -0.05119061947 0.05980000019 0.3970553667
v -0.05034347057 0.05980000019 0.3988144857
v -0.04843994617 0.05980000019 0.3992489511
v -0.04691344261 0.05980000019 0.3980316049
v -0.04691344261 0.05980000019 0.3960791284
v -0.04843994617 0.05980000019 0.3948617822
v -0.05034347057 0.05980000019 0.3952962476
v -0.05119061947 0.055 0.3970553667
v -0.05034347057 0.055 0.3952962476
v -0.04843994617 0.055 0.3948617822
v -0.04691344261 0.055 0.3960791284
v -0.04691344261 0.055 0.3980316049
v -0.04843994617 0.055 0.3992489511
v -0.05034347057 0.055 0.3988144857
v -0.05119061947 0.05980000019 0.3970553667
v -0.05119061947 0.055 0.3970553667
v -0.05119061947 0.05980000019 0.3970553667
v -0.05034347057 0.05980000019 0.3952962476
v -0.04843994617 0.05980000019 0.3948617822
v -0.04691344261 0.05980000019 0.3960791284
v -0.04691344261 0.05980000019 0.3980316049
v -0.04843994617 0.05980000019 0.3992489511
v -0.05034347057 0.05980000019 0.3988144857
v -0.05369061947 0.05980000019 0.3970553667
v -0.05278345108 0.05980000019 0.3998473436
v -0.05040844917 0.05980000019 0.4015728838
v -0.04747279167 0.05980000019 0.4015728838
v -0.04509778976 0.05980000019 0.3998473436
v -0.04419062138 0.05980000019 0.3970553667
v -0.04509778976 0.05980000019 0.3942633897
v -0.04747279167 0.05980000019 0.3925378496
v -0.05040844917 0.05980000019 0.3925378496
v -0.05278345108 0.05980000019 0.3942633897
v 0.02057138681 0.05980000019 0.3709361345
v 0.02141853332 0.05980000019 0.3726952535
v 0.02332205772 0.05980000019 0.3731297189
v 0.02484856605 0.05980000019 0.3719123727
v 0.02484856605 0.05980000019 0.3699598962
v 0.02332205772 0.05980000019 0.3687425405
v 0.02141853332 0.05980000019 0.3691770155
v 0.02057138681 0.055 0.3709361345
v 0.02141853332 0.055 0.3691770155
v 0.02332205772 0.055 0.3687425405
v 0.02484856605 0.055 0.3699598962
v 0.02484856605 0.055 0.3719123727
v 0.02332205772 0.055 0.3731297189
v 0.02141853332 0.055 0.3726952535
v 0.02057138681 0.05980000019 0.3709361345
v 0.02057138681 0.055 0.3709361345
v 0.01807138562 0.05980000019 0.3709361345
v 0.0189785552 0.05980000019 0.368144148
v 0.02135355473 0.05980000019 0.3664186174
v 0.02428921699 0.05980000019 0.3664186174
v 0.02666421652 0.05980000019 0.368144148
v 0.02757138729 0.05980000019 0.3709361345
v 0.02666421652 0.05980000019 0.3737281114
v 0.02428921699 0.05980000019 0.3754536516
v 0.02135355473 0.05980000019 0.3754536516
v 0.0189785552 0.05980000019 0.3737281114
v 0.01807138562 0.065 0.3709361345
v 0.0189785552 0.065 0.3737281114
v 0.02135355473 0.065 0.3754536516
v 0.02428921699 0.065 0.3754536516
v 0.02666421652 0.065 0.3737281114
v 0.02757138729 0.065 0.3709361345
v 0.02666421652 0.065 0.368144148
v 0.02428921699 0.065 0.3664186174
v 0.02135355473 0.065 0.3664186174
v 0.0189785552 0.065 0.368144148
v 0.01807138562 0.05980000019 0.3709361345
v 0.01807138562 0.065 0.3709361345
v 0.04669062138 0.05980000019 0.4426981432
v 0.04753777027 0.05980000019 0.4444572527
v 0.04944129467 0.05980000019 0.4448917276
v 0.05096779823 0.05980000019 0.4436743814
v 0.05096779823 0.05980000019 0.4417219049
v 0.04944129467 0.05980000019 0.4405045587
v 0.04753777027 0.05980000019 0.4409390146
v 0.04669062138 0.055 0.4426981432
v 0.04753777027 0.055 0.4409390146
v 0.04944129467 0.055 0.4405045587
v 0.05096779823 0.055 0.4417219049
v 0.05096779823 0.055 0.4436743814
v 0.04944129467 0.055 0.4448917276
v 0.04753777027 0.055 0.4444572527
v 0.04669062138 0.05980000019 0.4426981432
v 0.04669062138 0.055 0.4426981432
v 0.02057138681 0.05980000019 0.3709361345
v 0.02141853332 0.05980000019 0.3691770155
v 0.02332205772 0.05980000019 0.3687425405
v 0.02484856605 0.05980000019 0.3699598962
v 0.02484856605 0.05980000019 0.3719123727
v 0.02332205772 0.05980000019 0.3731297189
v 0.02141853332 0.05980000019 0.3726952535
v 0.01807138562 0.05980000019 0.3709361345
v 0.0189785552 0.05980000019 0.3737281114
v 0.02135355473 0.05980000019 0.3754536516
v 0.02428921699 0.05980000019 0.3754536516
v 0.02666421652 0.05980000019 0.3737281114
v 0.02757138729 0.05980000019 0.3709361345
v 0.02666421652 0.05980000019 0.368144148
v 0.02428921699 0.05980000019 0.3664186174
v 0.02135355473 0.05980000019 0.3664186174
v 0.0189785552 0.05980000019 0.368144148
v -0.05058770657 0.065 0.4335575563
v -0.04970984459 0.065 0.4382536966
v -0.04719481945 0.065 0.4423156053
v -0.04338230133 0.065 0.4451946718
v -0.0387871933 0.065 0.4465021021
v -0.03403008699 0.065 0.4460612947
v -0.02975345373 0.065 0.4439317781
v -0.02653488159 0.065 0.4404011804
v -0.02480905533 0.065 0.4359463007
v -0.02480905533 0.065 0.431168812
v -0.02653488159 0.065 0.4267139322
v -0.02975345373 0.065 0.4231833345
v -0.03403008699 0.065 0.4210538179
v -0.0387871933 0.065 0.4206130106
v -0.04338230133 0.065 0.4219204408
v -0.04719481945 0.065 0.4247995073
v -0.04970984459 0.065 0.428861416
v -0.05058770657 0.055 0.4335575563
v -0.04970984459 0.055 0.428861416
v -0.04719481945 0.055 0.4247995073
v -0.04338230133 0.055 0.4219204408
v -0.0387871933 0.055 0.4206130106
v -0.03403008699 0.055 0.4210538179
v -0.02975345373 0.055 0.4231833345
v -0.02653488159 0.055 0.4267139322
v -0.02480905533 0.055 0.431168812
v -0.02480905533 0.055 0.4359463007
v -0.02653488159 0.055 0.4404011804
v -0.02975345373 0.055 0.4439317781
v -0.03403008699 0.055 0.4460612947
v -0.0387871933 0.055 0.4465021021
v -0.04338230133 0.055 0.4451946718
v -0.04719481945 0.055 0.4423156053
v -0.04970984459 0.055 0.4382536966
v -0.05058770657 0.065 0.4335575563
v -0.05058770657 0.055 0.4335575563
v -0.02507138729 0.05980000019 0.4688173753
v -0.0242242384 0.05980000019 0.4705764848
v -0.022320714 0.05980000019 0.4710109598
v -0.02079420567 0.05980000019 0.4697936136
v -0.02079420567 0.05980000019 0.4678411371
v -0.022320714 0.05980000019 0.4666237909
v -0.0242242384 0.05980000019 0.4670582468
v -0.02507138729 0.055 0.4688173753
v -0.0242242384 0.055 0.4670582468
v -0.022320714 0.055 0.4666237909
v -0.02079420567 0.055 0.4678411371
v -0.02079420567 0.055 0.4697936136
v -0.022320714 0.055 0.4710109598
v -0.0242242384 0.055 0.4705764848
v -0.02507138729 0.05980000019 0.4688173753
v -0.02507138729 0.055 0.4688173753
v 0.04419062138 0.05980000019 0.4426981432
v 0.04509778976 0.05980000019 0.4399061662
v 0.04747279167 0.05980000019 0.4381806261
v 0.05040844917 0.05980000019 0.4381806261
v 0.05278345108 0.05980000019 0.4399061662
v 0.05369061947 0.05980000019 0.4426981432
v 0.05278345108 0.05980000019 0.4454901201
v 0.05040844917 0.05980000019 0.4472156603
v 0.04747279167 0.05980000019 0.4472156603
v 0.04509778976 0.05980000019 0.4454901201
v 0.04419062138 0.065 0.4426981432
v 0.04509778976 0.065 0.4454901201
v 0.04747279167 0.065 0.4472156603
v 0.05040844917 0.065 0.4472156603
v 0.05278345108 0.065 0.4454901201
v 0.05369061947 0.065 0.4426981432
v 0.05278345108 0.065 0.4399061662
v 0.05040844917 0.065 0.4381806261
v 0.04747279167 0.065 0.4381806261
v 0.04509778976 0.065 0.4399061662
v 0.04419062138 0.05980000019 0.4426981432
v 0.04419062138 0.065 0.4426981432
v -0.0186500001 0.0725 0.4198767549
v -0.01773720384 0.0725 0.4141135866
v -0.01508816719 0.0725 0.4089145548
v -0.0109621954 0.0725 0.4047885877
v -0.005763167143 0.0725 0.4021395475
v -2.05731954e-13 0.0725 0.4012267477
v 0.005763167143 0.0725 0.4021395475
v 0.0109621954 0.0725 0.4047885877
v 0.01508816719 0.0725 0.4089145548
v 0.01773720384 0.0725 0.4141135866
v 0.0186500001 0.0725 0.4198767549
v 0.01773720384 0.0725 0.4256399233
v 0.01508816719 0.0725 0.4308389551
v 0.0109621954 0.0725 0.4349649126
v 0.005763167143 0.0725 0.4376139528
v 2.057100873e-13 0.0725 0.4385267526
v -0.005763167143 0.0725 0.4376139528
v -0.0109621954 0.0725 0.4349649126
v -0.01508816719 0.0725 0.4308389551
v -0.01773720384 0.0725 0.4256399233
v -0.02299999952 0.0725 0.4198767549
v -0.02206833839 0.0725 0.4263566095
v -0.01934883118 0.0725 0.4323114854
v -0.0150617969 0.0725 0.4372589952
v -0.009554545283 0.0725 0.4407982904
v -0.003273241222 0.0725 0.4426426393
v 0.003273241222 0.0725 0.4426426393
v 0.009554545284 0.0725 0.4407982904
v 0.0150617969 0.0725 0.4372589952
v 0.01934883118 0.0725 0.4323114854
v 0.02206833839 0.0725 0.4263566095
v 0.02299999952 0.0725 0.4198767549
v 0.02206833839 0.0725 0.4133969003
v 0.01934883118 0.0725 0.4074420149
v 0.0150617969 0.0725 0.4024945146
v 0.009554545283 0.0725 0.3989552194
v 0.003273241222 0.0725 0.397110861
v -0.003273241222 0.0725 0.397110861
v -0.009554545284 0.0725 0.3989552194
v -0.0150617969 0.0725 0.4024945146
v -0.01934883118 0.0725 0.4074420149
v -0.02206833839 0.0725 0.4133969003
v 0.0006808057432 0.065 0.4574644548
v 0.001558666677 0.065 0.4621605951
v 0.004073689878 0.065 0.4662225038
v 0.007886207104 0.065 0.4691015703
v 0.01248131752 0.065 0.4704090006
v 0.01723842502 0.065 0.4699681932
v 0.02151505709 0.065 0.4678386766
v 0.02473362923 0.065 0.4643080789
v 0.02645945549 0.065 0.4598531992
v 0.02645945549 0.065 0.4550757105
v 0.02473362923 0.065 0.4506208307
v 0.02151505709 0.065 0.447090233
v 0.01723842502 0.065 0.4449607164
v 0.01248131752 0.065 0.4445199091
v 0.007886207104 0.065 0.4458273393
v 0.004073689878 0.065 0.4487064058
v 0.001558666677 0.065 0.4527683145
v 0.0006808057432 0.055 0.4574644548
v 0.001558666677 0.055 0.4527683145
v 0.004073689878 0.055 0.4487064058
v 0.007886207104 0.055 0.4458273393
v 0.01248131752 0.055 0.4445199091
v 0.01723842502 0.055 0.4449607164
v 0.02151505709 0.055 0.447090233
v 0.02473362923 0.055 0.4506208307
v 0.02645945549 0.055 0.4550757105
v 0.02645945549 0.055 0.4598531992
v 0.02473362923 0.055 0.4643080789
v 0.02151505709 0.055 0.4678386766
v 0.01723842502 0.055 0.4699681932
v 0.01248131752 0.055 0.4704090006
v 0.007886207104 0.055 0.4691015703
v 0.004073689878 0.055 0.4662225038
v 0.001558666677 0.055 0.4621605951
v 0.0006808057432 0.065 0.4574644548
v 0.0006808057432 0.055 0.4574644548
v -0.0186500001 0.07150000095 0.4198767549
v -0.01773720384 0.07150000095 0.4141135866
v -0.01508816719 0.07150000095 0.4089145548
v -0.0109621954 0.07150000095 0.4047885877
v -0.005763167143 0.07150000095 0.4021395475
v -2.057318316e-13 0.07150000095 0.4012267477
v 0.005763167143 0.07150000095 0.4021395475
v 0.0109621954 0.07150000095 0.4047885877
v 0.01508816719 0.07150000095 0.4089145548
v 0.01773720384 0.07150000095 0.4141135866
v 0.0186500001 0.07150000095 0.4198767549
v 0.01773720384 0.07150000095 0.4256399233
v 0.01508816719 0.07150000095 0.4308389551
v 0.0109621954 0.07150000095 0.4349649126
v 0.005763167143 0.07150000095 0.4376139528
v 2.057102098e-13 0.07150000095 0.4385267526
v -0.005763167143 0.07150000095 0.4376139528
v -0.0109621954 0.07150000095 0.4349649126
v -0.01508816719 0.07150000095 0.4308389551
v -0.01773720384 0.07150000095 0.4256399233
v -0.0186500001 0.0725 0.4198767549
v -0.01773720384 0.0725 0.4256399233
v -0.01508816719 0.0725 0.4308389551
v -0.0109621954 0.0725 0.4349649126
v -0.005763167143 0.0725 0.4376139528
v 2.057100873e-13 0.0725 0.4385267526
v 0.005763167143 0.0725 0.4376139528
v 0.0109621954 0.0725 0.4349649126
v 0.01508816719 0.0725 0.4308389551
v 0.01773720384 0.0725 0.4256399233
v 0.0186500001 0.0725 0.4198767549
v 0.01773720384 0.0725 0.4141135866
v 0.01508816719 0.0725 0.4089145548
v 0.0109621954 0.0725 0.4047885877
v 0.005763167143 0.0725 0.4021395475
v -2.05731954e-13 0.0725 0.4012267477
v -0.005763167143 0.0725 0.4021395475
v -0.0109621954 0.0725 0.4047885877
v -0.01508816719 0.0725 0.4089145548
v -0.01773720384 0.0725 0.4141135866
v -0.0186500001 0.07150000095 0.4198767549
v -0.0186500001 0.0725 0.4198767549
v -0.01515096545 0.06650000095 0.425881756
v -0.01424379587 0.06650000095 0.4286737329
v -0.01186879635 0.06650000095 0.4303992731
v -0.008933134079 0.06650000095 0.4303992731
v -0.006558134556 0.06650000095 0.4286737329
v -0.005650964975 0.06650000095 0.425881756
v -0.006558134556 0.06650000095 0.4230897791
v -0.008933134079 0.06650000095 0.4213642389
v -0.01186879635 0.06650000095 0.4213642389
v -0.01424379587 0.06650000095 0.4230897791
v -0.01515096545 0.055 0.425881756
v -0.01424379587 0.055 0.4230897791
v -0.01186879635 0.055 0.4213642389
v -0.008933134079 0.055 0.4213642389
v -0.006558134556 0.055 0.4230897791
v -0.005650964975 0.055 0.425881756
v -0.006558134556 0.055 0.4286737329
v -0.008933134079 0.055 0.4303992731
v -0.01186879635 0.055 0.4303992731
v -0.01424379587 0.055 0.4286737329
v -0.01515096545 0.06650000095 0.425881756
v -0.01515096545 0.055 0.425881756
v -0.00400000006 0.07150000095 0.4198767549
v -0.003064177632 0.07150000095 0.422447899
v -0.0006945927441 0.07150000095 0.423815983
v 0.00200000003 0.07150000095 0.4233408624
v 0.003758770525 0.07150000095 0.4212448389
v 0.003758770525 0.07150000095 0.418508671
v 0.00200000003 0.07150000095 0.4164126474
v -0.0006945927442 0.07150000095 0.4159375269
v -0.003064177632 0.07150000095 0.4173056108
v -0.00400000006 0.055 0.4198767549
v -0.003064177632 0.055 0.4173056108
v -0.0006945927442 0.055 0.4159375269
v 0.00200000003 0.055 0.4164126474
v 0.003758770525 0.055 0.418508671
v 0.003758770525 0.055 0.4212448389
v 0.00200000003 0.055 0.4233408624
v -0.0006945927441 0.055 0.423815983
v -0.003064177632 0.055 0.422447899
v -0.00400000006 0.07150000095 0.4198767549
v -0.00400000006 0.055 0.4198767549
v 0.04669062138 0.05980000019 0.4426981432
v 0.04753777027 0.05980000019 0.4409390146
v 0.04944129467 0.05980000019 0.4405045587
v 0.05096779823 0.05980000019 0.4417219049
v 0.05096779823 0.05980000019 0.4436743814
v 0.04944129467 0.05980000019 0.4448917276
v 0.04753777027 0.05980000019 0.4444572527
v 0.04419062138 0.05980000019 0.4426981432
v 0.04509778976 0.05980000019 0.4454901201
v 0.04747279167 0.05980000019 0.4472156603
v 0.05040844917 0.05980000019 0.4472156603
v 0.05278345108 0.05980000019 0.4454901201
v 0.05369061947 0.05980000019 0.4426981432
v 0.05278345108 0.05980000019 0.4399061662
v 0.05040844917 0.05980000019 0.4381806261
v 0.04747279167 0.05980000019 0.4381806261
v 0.04509778976 0.05980000019 0.4399061662
v 0.02458770514 0.065 0.406195944
v 0.02546556473 0.065 0.4108920938
v 0.02798058987 0.065 0.4149539835
v 0.0317931056 0.065 0.417833069
v 0.03638821602 0.065 0.4191404993
v 0.04114532471 0.065 0.4186996729
v 0.0454219532 0.065 0.4165701753
v 0.04864052773 0.065 0.4130395586
v 0.05036635399 0.065 0.4085846883
v 0.05036635399 0.065 0.4038071996
v 0.04864052772 0.065 0.3993523294
v 0.0454219532 0.065 0.3958217222
v 0.04114532471 0.065 0.3936922151
v 0.03638821602 0.065 0.3932513982
v 0.0317931056 0.065 0.394558819
v 0.02798058987 0.065 0.3974379045
v 0.02546556473 0.065 0.4014998037
v 0.02458770514 0.055 0.406195944
v 0.02546556473 0.055 0.4014998037
v 0.02798058987 0.055 0.3974379045
v 0.0317931056 0.055 0.394558819
v 0.03638821602 0.055 0.3932513982
v 0.04114532471 0.055 0.3936922151
v 0.0454219532 0.055 0.3958217222
v 0.04864052772 0.055 0.3993523294
v 0.05036635399 0.055 0.4038071996
v 0.05036635399 0.055 0.4085846883
v 0.04864052773 0.055 0.4130395586
v 0.0454219532 0.055 0.4165701753
v 0.04114532471 0.055 0.4186996729
v 0.03638821602 0.055 0.4191404993
v 0.0317931056 0.055 0.417833069
v 0.02798058987 0.055 0.4149539835
v 0.02546556473 0.055 0.4108920938
v 0.02458770514 0.065 0.406195944
v 0.02458770514 0.055 0.406195944
v -0.00400000006 0.07150000095 0.4198767549
v -0.003064177632 0.07150000095 0.4173056108
v -0.0006945927442 0.07150000095 0.4159375269
v 0.00200000003 0.07150000095 0.4164126474
v 0.003758770525 0.07150000095 0.418508671
v 0.003758770525 0.07150000095 0.4212448389
v 0.00200000003 0.07150000095 0.4233408624
v -0.0006945927441 0.07150000095 0.423815983
v -0.003064177632 0.07150000095 0.422447899
v -0.0186500001 0.07150000095 0.4198767549
v -0.01773720384 0.07150000095 0.4256399233
v -0.01508816719 0.07150000095 0.4308389551
v -0.0109621954 0.07150000095 0.4349649126
v -0.005763167143 0.07150000095 0.4376139528
v 2.057102098e-13 0.07150000095 0.4385267526
v 0.005763167143 0.07150000095 0.4376139528
v 0.0109621954 0.07150000095 0.4349649126
v 0.01508816719 0.07150000095 0.4308389551
v 0.01773720384 0.07150000095 0.4256399233
v 0.0186500001 0.07150000095 0.4198767549
v 0.01773720384 0.07150000095 0.4141135866
v 0.01508816719 0.07150000095 0.4089145548
v 0.0109621954 0.07150000095 0.4047885877
v 0.005763167143 0.07150000095 0.4021395475
v -2.057318316e-13 0.07150000095 0.4012267477
v -0.005763167143 0.07150000095 0.4021395475
v -0.0109621954 0.07150000095 0.4047885877
v -0.01508816719 0.07150000095 0.4089145548
v -0.01773720384 0.07150000095 0.4141135866
v -0.00224999994 0.07150000095 0.4318867571
v -0.001402852088 0.07150000095 0.4301276285
v 0.0005006720872 0.07150000095 0.4296931726
v 0.002027179897 0.07150000095 0.4309105188
v 0.002027179897 0.07150000095 0.4328629953
v 0.0005006720872 0.07150000095 0.4340803415
v -0.001402852088 0.07150000095 0.4336458666
v -0.01265096545 0.07150000095 0.4138717538
v -0.01180381775 0.07150000095 0.4121126253
v -0.009900292754 0.07150000095 0.4116781694
v -0.008373785019 0.07150000095 0.4128955156
v -0.008373785019 0.07150000095 0.4148479921
v -0.009900292754 0.07150000095 0.4160653383
v -0.01180381775 0.07150000095 0.4156308824
v -0.002249999941 0.07150000095 0.4078667528
v -0.001402852088 0.07150000095 0.4061076337
v 0.0005006720869 0.07150000095 0.4056731683
v 0.002027179897 0.07150000095 0.4068905145
v 0.002027179897 0.07150000095 0.408842991
v 0.000500672087 0.07150000095 0.4100603372
v -0.001402852088 0.07150000095 0.4096258718
v 0.008150964975 0.07150000095 0.4138717538
v 0.008998113274 0.07150000095 0.4121126253
v 0.01090163708 0.07150000095 0.4116781694
v 0.01242814541 0.07150000095 0.4128955156
v 0.01242814541 0.07150000095 0.4148479921
v 0.01090163708 0.07150000095 0.4160653383
v 0.008998113275 0.07150000095 0.4156308824
v 0.008150964975 0.07150000095 0.425881756
v 0.008998113275 0.07150000095 0.4241226274
v 0.01090163708 0.07150000095 0.4236881715
v 0.01242814541 0.07150000095 0.4249055177
v 0.01242814541 0.07150000095 0.4268579942
v 0.01090163708 0.07150000095 0.4280753404
v 0.008998113275 0.07150000095 0.4276408655
v -0.01265096545 0.07150000095 0.425881756
v -0.01180381775 0.07150000095 0.4241226274
v -0.009900292754 0.07150000095 0.4236881715
v -0.008373785019 0.07150000095 0.4249055177
v -0.008373785019 0.07150000095 0.4268579942
v -0.009900292754 0.07150000095 0.4280753404
v -0.01180381775 0.07150000095 0.4276408655
v 0.005650964975 0.06650000095 0.425881756
v 0.006558134556 0.06650000095 0.4286737329
v 0.008933134079 0.06650000095 0.4303992731
v 0.01186879635 0.06650000095 0.4303992731
v 0.01424379587 0.06650000095 0.4286737329
v 0.01515096545 0.06650000095 0.425881756
v 0.01424379587 0.06650000095 0.4230897791
v 0.01186879635 0.06650000095 0.4213642389
v 0.008933134079 0.06650000095 0.4213642389
v 0.006558134556 0.06650000095 0.4230897791
v 0.005650964975 0.055 0.425881756
v 0.006558134556 0.055 0.4230897791
v 0.008933134079 0.055 0.4213642389
v 0.01186879635 0.055 0.4213642389
v 0.01424379587 0.055 0.4230897791
v 0.01515096545 0.055 0.425881756
v 0.01424379587 0.055 0.4286737329
v 0.01186879635 0.055 0.4303992731
v 0.008933134079 0.055 0.4303992731
v 0.006558134556 0.055 0.4286737329
v 0.005650964975 0.06650000095 0.425881756
v 0.005650964975 0.055 0.425881756
v -0.01265096545 0.06650000095 0.425881756
v -0.01180381775 0.06650000095 0.4276408655
v -0.009900292754 0.06650000095 0.4280753404
v -0.008373785019 0.06650000095 0.4268579942
v -0.008373785019 0.06650000095 0.4249055177
v -0.009900292754 0.06650000095 0.4236881715
v -0.01180381775 0.06650000095 0.4241226274
v -0.01515096545 0.06650000095 0.425881756
v -0.01424379587 0.06650000095 0.4230897791
v -0.01186879635 0.06650000095 0.4213642389
v -0.008933134079 0.06650000095 0.4213642389
v -0.006558134556 0.06650000095 0.4230897791
v -0.005650964975 0.06650000095 0.425881756
v -0.006558134556 0.06650000095 0.4286737329
v -0.008933134079 0.06650000095 0.4303992731
v -0.01186879635 0.06650000095 0.4303992731
v -0.01424379587 0.06650000095 0.4286737329
v -0.02757138729 0.05980000019 0.4688173753
v -0.02666421652 0.05980000019 0.4660253984
v -0.02428921699 0.05980000019 0.4642998583
v -0.02135355473 0.05980000019 0.4642998583
v -0.0189785552 0.05980000019 0.4660253984
v -0.01807138562 0.05980000019 0.4688173753
v -0.0189785552 0.05980000019 0.4716093523
v -0.02135355473 0.05980000019 0.4733348924
v -0.02428921699 0.05980000019 0.4733348924
v -0.02666421652 0.05980000019 0.4716093523
v -0.02757138729 0.065 0.4688173753
v -0.02666421652 0.065 0.4716093523
v -0.02428921699 0.065 0.4733348924
v -0.02135355473 0.065 0.4733348924
v -0.0189785552 0.065 0.4716093523
v -0.01807138562 0.065 0.4688173753
v -0.0189785552 0.065 0.4660253984
v -0.02135355473 0.065 0.4642998583
v -0.02428921699 0.065 0.4642998583
v -0.02666421652 0.065 0.4660253984
v -0.02757138729 0.05980000019 0.4688173753
v -0.02757138729 0.065 0.4688173753
v -0.02668080568 0.065 0.3822890455
v -0.02580294371 0.065 0.3869851858
v -0.02328792095 0.065 0.3910470945
v -0.01947540402 0.065 0.3939261705
v -0.0148802948 0.065 0.3952335912
v -0.0101231873 0.065 0.3947927839
v -0.005846555233 0.065 0.3926632673
v -0.002627983094 0.065 0.3891326696
v -0.0009021554146 0.065 0.3846777898
v -0.0009021554147 0.065 0.3799003011
v -0.002627983094 0.065 0.3754454309
v -0.005846555234 0.065 0.3719148237
v -0.0101231873 0.065 0.3697853166
v -0.0148802948 0.065 0.3693444997
v -0.01947540402 0.065 0.3706519205
v -0.02328792095 0.065 0.373531006
v -0.02580294371 0.065 0.3775929052
v -0.02668080568 0.055 0.3822890455
v -0.02580294371 0.055 0.3775929052
v -0.02328792095 0.055 0.373531006
v -0.01947540402 0.055 0.3706519205
v -0.0148802948 0.055 0.3693444997
v -0.0101231873 0.055 0.3697853166
v -0.005846555234 0.055 0.3719148237
v -0.002627983094 0.055 0.3754454309
v -0.0009021554147 0.055 0.3799003011
v -0.0009021554146 0.055 0.3846777898
v -0.002627983094 0.055 0.3891326696
v -0.005846555233 0.055 0.3926632673
v -0.0101231873 0.055 0.3947927839
v -0.0148802948 0.055 0.3952335912
v -0.01947540402 0.055 0.3939261705
v -0.02328792095 0.055 0.3910470945
v -0.02580294371 0.055 0.3869851858
v -0.02668080568 0.065 0.3822890455
v -0.02668080568 0.055 0.3822890455
v 0.005650964975 0.06650000095 0.4138717538
v 0.006558134556 0.06650000095 0.4166637308
v 0.008933134079 0.06650000095 0.4183892709
v 0.01186879635 0.06650000095 0.4183892709
v 0.01424379587 0.06650000095 0.4166637308
v 0.01515096545 0.06650000095 0.4138717538
v 0.01424379587 0.06650000095 0.4110797769
v 0.01186879635 0.06650000095 0.4093542368
v 0.008933134079 0.06650000095 0.4093542368
v 0.006558134556 0.06650000095 0.4110797769
v 0.005650964975 0.055 0.4138717538
v 0.006558134556 0.055 0.4110797769
v 0.008933134079 0.055 0.4093542368
v 0.01186879635 0.055 0.4093542368
v 0.01424379587 0.055 0.4110797769
v 0.01515096545 0.055 0.4138717538
v 0.01424379587 0.055 0.4166637308
v 0.01186879635 0.055 0.4183892709
v 0.008933134079 0.055 0.4183892709
v 0.006558134556 0.055 0.4166637308
v 0.005650964975 0.06650000095 0.4138717538
v 0.005650964975 0.055 0.4138717538
v 0.008150964975 0.06650000095 0.425881756
v 0.008998113275 0.06650000095 0.4276408655
v 0.01090163708 0.06650000095 0.4280753404
v 0.01242814541 0.06650000095 0.4268579942
v 0.01242814541 0.06650000095 0.4249055177
v 0.01090163708 0.06650000095 0.4236881715
v 0.008998113275 0.06650000095 0.4241226274
v 0.005650964975 0.06650000095 0.425881756
v 0.006558134556 0.06650000095 0.4230897791
v 0.008933134079 0.06650000095 0.4213642389
v 0.01186879635 0.06650000095 0.4213642389
v 0.01424379587 0.06650000095 0.4230897791
v 0.01515096545 0.06650000095 0.425881756
v 0.01424379587 0.06650000095 0.4286737329
v 0.01186879635 0.06650000095 0.4303992731
v 0.008933134079 0.06650000095 0.4303992731
v 0.006558134556 0.06650000095 0.4286737329
v -0.02507138729 0.05980000019 0.4688173753
v -0.0242242384 0.05980000019 0.4670582468
v -0.022320714 0.05980000019 0.4666237909
v -0.02079420567 0.05980000019 0.4678411371
v -0.02079420567 0.05980000019 0.4697936136
v -0.022320714 0.05980000019 0.4710109598
v -0.0242242384 0.05980000019 0.4705764848
v -0.02757138729 0.05980000019 0.4688173753
v -0.02666421652 0.05980000019 0.4716093523
v -0.02428921699 0.05980000019 0.4733348924
v -0.02135355473 0.05980000019 0.4733348924
v -0.0189785552 0.05980000019 0.4716093523
v -0.01807138562 0.05980000019 0.4688173753
v -0.0189785552 0.05980000019 0.4660253984
v -0.02135355473 0.05980000019 0.4642998583
v -0.02428921699 0.05980000019 0.4642998583
v -0.02666421652 0.05980000019 0.4660253984
v -0.004749999941 0.06650000095 0.4078667528
v -0.003842830658 0.06650000095 0.4106587297
v -0.001467830688 0.06650000095 0.4123842699
v 0.001467830688 0.06650000095 0.4123842699
v 0.003842830658 0.06650000095 0.4106587297
v 0.00474999994 0.06650000095 0.4078667528
v 0.003842830658 0.06650000095 0.4050747759
v 0.001467830688 0.06650000095 0.4033492357
v -0.001467830688 0.06650000095 0.4033492357
v -0.003842830658 0.06650000095 0.4050747759
v -0.004749999941 0.055 0.4078667528
v -0.003842830658 0.055 0.4050747759
v -0.001467830688 0.055 0.4033492357
v 0.001467830688 0.055 0.4033492357
v 0.003842830658 0.055 0.4050747759
v 0.00474999994 0.055 0.4078667528
v 0.003842830658 0.055 0.4106587297
v 0.001467830688 0.055 0.4123842699
v -0.001467830688 0.055 0.4123842699
v -0.003842830658 0.055 0.4106587297
v -0.004749999941 0.06650000095 0.4078667528
v -0.004749999941 0.055 0.4078667528
v 0.008150964975 0.06650000095 0.4138717538
v 0.008998113275 0.06650000095 0.4156308824
v 0.01090163708 0.06650000095 0.4160653383
v 0.01242814541 0.06650000095 0.4148479921
v 0.01242814541 0.06650000095 0.4128955156
v 0.01090163708 0.06650000095 0.4116781694
v 0.008998113274 0.06650000095 0.4121126253
v 0.005650964975 0.06650000095 0.4138717538
v 0.006558134556 0.06650000095 0.4110797769
v 0.008933134079 0.06650000095 0.4093542368
v 0.01186879635 0.06650000095 0.4093542368
v 0.01424379587 0.06650000095 0.4110797769
v 0.01515096545 0.06650000095 0.4138717538
v 0.01424379587 0.06650000095 0.4166637308
v 0.01186879635 0.06650000095 0.4183892709
v 0.008933134079 0.06650000095 0.4183892709
v 0.006558134556 0.06650000095 0.4166637308
v -0.01515096545 0.06650000095 0.4138717538
v -0.01424379587 0.06650000095 0.4166637308
v -0.01186879635 0.06650000095 0.4183892709
v -0.008933134079 0.06650000095 0.4183892709
v -0.006558134556 0.06650000095 0.4166637308
v -0.005650964975 0.06650000095 0.4138717538
v -0.006558134556 0.06650000095 0.4110797769
v -0.008933134079 0.06650000095 0.4093542368
v -0.01186879635 0.06650000095 0.4093542368
v -0.01424379587 0.06650000095 0.4110797769
v -0.01515096545 0.055 0.4138717538
v -0.01424379587 0.055 0.4110797769
v -0.01186879635 0.055 0.4093542368
v -0.008933134079 0.055 0.4093542368
v -0.006558134556 0.055 0.4110797769
v -0.005650964975 0.055 0.4138717538
v -0.006558134556 0.055 0.4166637308
v -0.008933134079 0.055 0.4183892709
v -0.01186879635 0.055 0.4183892709
v -0.01424379587 0.055 0.4166637308
v -0.01515096545 0.06650000095 0.4138717538
v -0.01515096545 0.055 0.4138717538
v -0.002249999941 0.06650000095 0.4078667528
v -0.001402852088 0.06650000095 0.4096258718
v 0.000500672087 0.06650000095 0.4100603372
v 0.002027179897 0.06650000095 0.408842991
v 0.002027179897 0.06650000095 0.4068905145
v 0.0005006720869 0.06650000095 0.4056731683
v -0.001402852088 0.06650000095 0.4061076337
v -0.004749999941 0.06650000095 0.4078667528
v -0.003842830658 0.06650000095 0.4050747759
v -0.001467830688 0.06650000095 0.4033492357
v 0.001467830688 0.06650000095 0.4033492357
v 0.003842830658 0.06650000095 0.4050747759
v 0.00474999994 0.06650000095 0.4078667528
v 0.003842830658 0.06650000095 0.4106587297
v 0.001467830688 0.06650000095 0.4123842699
v -0.001467830688 0.06650000095 0.4123842699
v -0.003842830658 0.06650000095 0.4106587297
v -0.00474999994 0.06650000095 0.4318867571
v -0.003842830658 0.06650000095 0.434678734
v -0.001467830688 0.06650000095 0.4364042741
v 0.001467830688 0.06650000095 0.4364042741
v 0.003842830658 0.06650000095 0.434678734
v 0.004749999941 0.06650000095 0.4318867571
v 0.003842830658 0.06650000095 0.4290947801
v 0.001467830688 0.06650000095 0.42736924
v -0.001467830688 0.06650000095 0.42736924
v -0.003842830658 0.06650000095 0.4290947801
v -0.00474999994 0.055 0.4318867571
v -0.003842830658 0.055 0.4290947801
v -0.001467830688 0.055 0.42736924
v 0.001467830688 0.055 0.42736924
v 0.003842830658 0.055 0.4290947801
v 0.004749999941 0.055 0.4318867571
v 0.003842830658 0.055 0.434678734
v 0.001467830688 0.055 0.4364042741
v -0.001467830688 0.055 0.4364042741
v -0.003842830658 0.055 0.434678734
v -0.00474999994 0.06650000095 0.4318867571
v -0.00474999994 0.055 0.4318867571
v -0.01265096545 0.06650000095 0.4138717538
v -0.01180381775 0.06650000095 0.4156308824
v -0.009900292754 0.06650000095 0.4160653383
v -0.008373785019 0.06650000095 0.4148479921
v -0.008373785019 0.06650000095 0.4128955156
v -0.009900292754 0.06650000095 0.4116781694
v -0.01180381775 0.06650000095 0.4121126253
v -0.01515096545 0.06650000095 0.4138717538
v -0.01424379587 0.06650000095 0.4110797769
v -0.01186879635 0.06650000095 0.4093542368
v -0.008933134079 0.06650000095 0.4093542368
v -0.006558134556 0.06650000095 0.4110797769
v -0.005650964975 0.06650000095 0.4138717538
v -0.006558134556 0.06650000095 0.4166637308
v -0.008933134079 0.06650000095 0.4183892709
v -0.01186879635 0.06650000095 0.4183892709
v -0.01424379587 0.06650000095 0.4166637308
v -0.00224999994 0.06650000095 0.4318867571
v -0.001402852088 0.06650000095 0.4336458666
v 0.0005006720872 0.06650000095 0.4340803415
v 0.002027179897 0.06650000095 0.4328629953
v 0.002027179897 0.06650000095 0.4309105188
v 0.0005006720872 0.06650000095 0.4296931726
v -0.001402852088 0.06650000095 0.4301276285
v -0.00474999994 0.06650000095 0.4318867571
v -0.003842830658 0.06650000095 0.4290947801
v -0.001467830688 0.06650000095 0.42736924
v 0.001467830688 0.06650000095 0.42736924
v 0.003842830658 0.06650000095 0.4290947801
v 0.004749999941 0.06650000095 0.4318867571
v 0.003842830658 0.06650000095 0.434678734
v 0.001467830688 0.06650000095 0.4364042741
v -0.001467830688 0.06650000095 0.4364042741
v -0.003842830658 0.06650000095 0.434678734
v -0.01265096545 0.06650000095 0.425881756
v -0.01180381775 0.06650000095 0.4241226274
v -0.009900292754 0.06650000095 0.4236881715
v -0.008373785019 0.06650000095 0.4249055177
v -0.008373785019 0.06650000095 0.4268579942
v -0.009900292754 0.06650000095 0.4280753404
v -0.01180381775 0.06650000095 0.4276408655
v -0.01265096545 0.07150000095 0.425881756
v -0.01180381775 0.07150000095 0.4276408655
v -0.009900292754 0.07150000095 0.4280753404
v -0.008373785019 0.07150000095 0.4268579942
v -0.008373785019 0.07150000095 0.4249055177
v -0.009900292754 0.07150000095 0.4236881715
v -0.01180381775 0.07150000095 0.4241226274
v -0.01265096545 0.07150000095 0.425881756
v -0.01265096545 0.06650000095 0.425881756
v 0.008150964975 0.06650000095 0.425881756
v 0.008998113275 0.06650000095 0.4241226274
v 0.01090163708 0.06650000095 0.4236881715
v 0.01242814541 0.06650000095 0.4249055177
v 0.01242814541 0.06650000095 0.4268579942
v 0.01090163708 0.06650000095 0.4280753404
v 0.008998113275 0.06650000095 0.4276408655
v 0.008150964975 0.07150000095 0.425881756
v 0.008998113275 0.07150000095 0.4276408655
v 0.01090163708 0.07150000095 0.4280753404
v 0.01242814541 0.07150000095 0.4268579942
v 0.01242814541 0.07150000095 0.4249055177
v 0.01090163708 0.07150000095 0.4236881715
v 0.008998113275 0.07150000095 0.4241226274
v 0.008150964975 0.07150000095 0.425881756
v 0.008150964975 0.06650000095 0.425881756
v -0.00224999994 0.06650000095 0.4318867571
v -0.001402852088 0.06650000095 0.4301276285
v 0.0005006720872 0.06650000095 0.4296931726
v 0.002027179897 0.06650000095 0.4309105188
v 0.002027179897 0.06650000095 0.4328629953
v 0.0005006720872 0.06650000095 0.4340803415
v -0.001402852088 0.06650000095 0.4336458666
v -0.00224999994 0.07150000095 0.4318867571
v -0.001402852088 0.07150000095 0.4336458666
v 0.0005006720872 0.07150000095 0.4340803415
v 0.002027179897 0.07150000095 0.4328629953
v 0.002027179897 0.07150000095 0.4309105188
v 0.0005006720872 0.07150000095 0.4296931726
v -0.001402852088 0.07150000095 0.4301276285
v -0.00224999994 0.07150000095 0.4318867571
v -0.00224999994 0.06650000095 0.4318867571
v 0.008150964975 0.06650000095 0.4138717538
v 0.008998113274 0.06650000095 0.4121126253
v 0.01090163708 0.06650000095 0.4116781694
v 0.01242814541 0.06650000095 0.4128955156
v 0.01242814541 0.06650000095 0.4148479921
v 0.01090163708 0.06650000095 0.4160653383
v 0.008998113275 0.06650000095 0.4156308824
v 0.008150964975 0.07150000095 0.4138717538
v 0.008998113275 0.07150000095 0.4156308824
v 0.01090163708 0.07150000095 0.4160653383
v 0.01242814541 0.07150000095 0.4148479921
v 0.01242814541 0.07150000095 0.4128955156
v 0.01090163708 0.07150000095 0.4116781694
v 0.008998113274 0.07150000095 0.4121126253
v 0.008150964975 0.07150000095 0.4138717538
v 0.008150964975 0.06650000095 0.4138717538
v -0.01265096545 0.06650000095 0.4138717538
v -0.01180381775 0.06650000095 0.4121126253
v -0.009900292754 0.06650000095 0.4116781694
v -0.008373785019 0.06650000095 0.4128955156
v -0.008373785019 0.06650000095 0.4148479921
v -0.009900292754 0.06650000095 0.4160653383
v -0.01180381775 0.06650000095 0.4156308824
v -0.01265096545 0.07150000095 0.4138717538
v -0.01180381775 0.07150000095 0.4156308824
v -0.009900292754 0.07150000095 0.4160653383
v -0.008373785019 0.07150000095 0.4148479921
v -0.008373785019 0.07150000095 0.4128955156
v -0.009900292754 0.07150000095 0.4116781694
v -0.01180381775 0.07150000095 0.4121126253
v -0.01265096545 0.07150000095 0.4138717538
v -0.01265096545 0.06650000095 0.4138717538
v -0.002249999941 0.06650000095 0.4078667528
v -0.001402852088 0.06650000095 0.4061076337
v 0.0005006720869 0.06650000095 0.4056731683
v 0.002027179897 0.06650000095 0.4068905145
v 0.002027179897 0.06650000095 0.408842991
v 0.000500672087 0.06650000095 0.4100603372
v -0.001402852088 0.06650000095 0.4096258718
v -0.002249999941 0.07150000095 0.4078667528
v -0.001402852088 0.07150000095 0.4096258718
v 0.000500672087 0.07150000095 0.4100603372
v 0.002027179897 0.07150000095 0.408842991
v 0.002027179897 0.07150000095 0.4068905145
v 0.0005006720869 0.07150000095 0.4056731683
v -0.001402852088 0.07150000095 0.4061076337
v -0.002249999941 0.07150000095 0.4078667528
v -0.002249999941 0.06650000095 0.4078667528
f 2 71 1
f 1 71 72
f 1 72 35
f 35 72 106
f 35 106 34
f 34 106 105
f 34 105 33
f 33 105 104
f 33 104 32
f 32 104 103
f 32 103 31
f 31 103 102
f 31 102 30
f 30 102 101
f 30 101 29
f 29 101 99
f 29 99 28
f 28 99 100
f 28 100 27
f 107 98 97
f 107 97 26
f 26 97 96
f 26 96 25
f 25 96 95
f 25 95 24
f 24 95 94
f 24 94 23
f 23 94 93
f 23 93 22
f 22 93 92
f 22 92 21
f 21 92 91
f 21 91 20
f 20 91 90
f 20 90 19
f 19 90 89
f 19 89 18
f 18 89 88
f 18 88 17
f 17 88 87
f 17 87 16
f 16 87 86
f 16 86 15
f 15 86 85
f 15 85 14
f 14 85 84
f 14 84 13
f 13 84 83
f 13 83 12
f 12 83 82
f 12 82 11
f 11 82 81
f 11 81 10
f 10 81 80
f 10 80 9
f 9 80 79
f 9 79 8
f 8 79 78
f 8 78 7
f 7 78 77
f 7 77 6
f 6 77 76
f 6 76 5
f 5 76 75
f 5 75 4
f 4 75 74
f 4 74 3
f 3 74 73
f 3 73 2
f 2 73 71
f 37 72 36
f 36 72 71
f 36 71 70
f 70 71 73
f 70 73 69
f 69 73 74
f 69 74 68
f 68 74 75
f 68 75 67
f 67 75 76
f 67 76 66
f 66 76 77
f 66 77 65
f 65 77 78
f 65 78 64
f 64 78 79
f 64 79 63
f 63 79 80
f 63 80 62
f 62 80 81
f 62 81 61
f 61 81 82
f 61 82 60
f 60 82 83
f 60 83 59
f 59 83 84
f 59 84 58
f 58 84 85
f 58 85 57
f 57 85 86
f 57 86 56
f 56 86 87
f 56 87 55
f 55 87 88
f 55 88 54
f 54 88 89
f 54 89 53
f 53 89 90
f 53 90 52
f 52 90 91
f 52 91 51
f 51 91 92
f 51 92 50
f 50 92 93
f 50 93 49
f 49 93 94
f 49 94 48
f 48 94 95
f 48 95 47
f 47 95 96
f 47 96 46
f 46 96 97
f 46 97 45
f 45 97 98
f 45 98 44
f 108 100 99
f 108 99 43
f 43 99 101
f 43 101 42
f 42 101 102
f 42 102 41
f 41 102 103
f 41 103 40
f 40 103 104
f 40 104 39
f 39 104 105
f 39 105 38
f 38 105 106
f 38 106 37
f 37 106 72
f 110 178 109
f 109 178 179
f 180 144 143
f 143 144 145
f 143 145 142
f 142 145 146
f 142 146 141
f 141 146 147
f 141 147 140
f 140 147 148
f 140 148 139
f 139 148 149
f 139 149 138
f 138 149 150
f 138 150 137
f 137 150 151
f 137 151 136
f 136 151 152
f 136 152 135
f 135 152 153
f 135 153 134
f 134 153 154
f 134 154 133
f 133 154 155
f 133 155 132
f 132 155 156
f 132 156 131
f 131 156 157
f 131 157 130
f 130 157 158
f 130 158 129
f 129 158 159
f 129 159 128
f 128 159 160
f 128 160 127
f 127 160 161
f 127 161 126
f 126 161 162
f 126 162 125
f 125 162 163
f 125 163 124
f 124 163 164
f 124 164 123
f 123 164 165
f 123 165 122
f 122 165 166
f 122 166 121
f 121 166 167
f 121 167 120
f 120 167 168
f 120 168 119
f 119 168 169
f 119 169 118
f 118 169 170
f 118 170 117
f 117 170 171
f 117 171 116
f 116 171 172
f 116 172 115
f 115 172 173
f 115 173 114
f 114 173 174
f 114 174 113
f 113 174 175
f 113 175 112
f 112 175 176
f 112 176 111
f 111 176 177
f 111 177 110
f 110 177 178
f 187 181 348
f 348 181 182
f 348 182 347
f 347 182 183
f 347 183 283
f 283 183 282
f 282 183 184
f 282 184 281
f 281 184 322
f 281 322 323
f 184 185 322
f 322 185 321
f 321 185 350
f 321 350 320
f 320 350 351
f 320 351 336
f 336 351 352
f 336 352 335
f 335 352 334
f 334 352 353
f 334 353 333
f 333 353 354
f 333 354 332
f 332 354 331
f 331 354 355
f 331 355 330
f 330 355 356
f 330 356 188
f 188 356 194
f 194 356 357
f 194 357 193
f 193 357 192
f 192 357 358
f 192 358 191
f 191 358 359
f 191 359 190
f 190 359 316
f 190 316 317
f 185 186 350
f 350 186 349
f 349 186 187
f 349 187 348
f 330 188 329
f 329 188 189
f 329 189 328
f 328 189 318
f 328 318 319
f 189 190 318
f 318 190 317
f 196 295 195
f 195 295 296
f 195 296 297
f 295 196 367
f 367 196 197
f 367 197 366
f 366 197 198
f 366 198 199
f 366 199 365
f 365 199 200
f 365 200 309
f 309 200 308
f 308 200 201
f 308 201 307
f 307 201 195
f 307 195 297
f 203 375 202
f 202 375 376
f 202 376 208
f 208 376 274
f 208 274 275
f 203 204 375
f 375 204 374
f 374 204 205
f 374 205 373
f 373 205 206
f 373 206 287
f 287 206 286
f 286 206 207
f 286 207 302
f 302 207 276
f 302 276 260
f 260 276 277
f 260 277 211
f 211 277 210
f 210 277 278
f 210 278 209
f 209 278 279
f 209 279 218
f 218 279 250
f 218 250 217
f 217 250 251
f 217 251 216
f 216 251 252
f 216 252 337
f 337 252 253
f 337 253 345
f 345 253 254
f 345 254 344
f 344 254 241
f 344 241 242
f 276 207 275
f 275 207 208
f 211 212 260
f 260 212 259
f 259 212 213
f 259 213 268
f 268 213 214
f 268 214 267
f 267 214 339
f 267 339 266
f 266 339 340
f 266 340 219
f 219 340 228
f 228 340 341
f 228 341 227
f 227 341 231
f 227 231 232
f 339 214 338
f 338 214 215
f 338 215 337
f 337 215 216
f 266 219 265
f 265 219 220
f 265 220 264
f 264 220 221
f 264 221 263
f 263 221 299
f 263 299 300
f 221 222 299
f 299 222 298
f 298 222 223
f 298 223 297
f 297 223 306
f 297 306 307
f 223 224 306
f 306 224 305
f 305 224 225
f 305 225 233
f 233 225 226
f 233 226 232
f 232 226 227
f 230 343 229
f 229 343 242
f 229 242 243
f 343 230 342
f 342 230 231
f 342 231 341
f 233 234 305
f 305 234 304
f 304 234 235
f 304 235 303
f 303 235 236
f 303 236 319
f 319 236 245
f 319 245 327
f 327 245 246
f 327 246 326
f 326 246 247
f 326 247 325
f 325 247 248
f 325 248 256
f 256 248 239
f 256 239 255
f 255 239 240
f 255 240 254
f 254 240 241
f 236 237 245
f 245 237 244
f 244 237 238
f 244 238 243
f 243 238 229
f 250 280 249
f 249 280 281
f 249 281 258
f 258 281 323
f 258 323 324
f 256 257 325
f 325 257 324
f 324 257 258
f 260 261 302
f 302 261 301
f 301 261 262
f 301 262 300
f 300 262 263
f 270 379 269
f 269 379 380
f 269 380 285
f 285 380 346
f 285 346 284
f 284 346 347
f 284 347 283
f 270 271 379
f 379 271 378
f 378 271 272
f 378 272 377
f 377 272 273
f 377 273 376
f 376 273 274
f 279 280 250
f 287 288 373
f 373 288 372
f 372 288 289
f 372 289 371
f 371 289 290
f 371 290 291
f 371 291 370
f 370 291 292
f 370 292 369
f 369 292 293
f 369 293 294
f 369 294 368
f 368 294 295
f 368 295 367
f 365 309 364
f 364 309 310
f 364 310 363
f 363 310 311
f 363 311 362
f 362 311 312
f 362 312 313
f 362 313 361
f 361 313 314
f 361 314 360
f 360 314 315
f 360 315 359
f 359 315 316
f 327 328 319
f 343 344 242
f 382 451 381
f 381 451 452
f 381 452 415
f 415 452 486
f 415 486 414
f 414 486 485
f 414 485 413
f 413 485 484
f 413 484 412
f 412 484 483
f 412 483 411
f 411 483 482
f 411 482 410
f 410 482 481
f 410 481 409
f 409 481 479
f 409 479 408
f 408 479 480
f 408 480 407
f 487 478 477
f 487 477 406
f 406 477 476
f 406 476 405
f 405 476 475
f 405 475 404
f 404 475 474
f 404 474 403
f 403 474 473
f 403 473 402
f 402 473 472
f 402 472 401
f 401 472 471
f 401 471 400
f 400 471 470
f 400 470 399
f 399 470 469
f 399 469 398
f 398 469 468
f 398 468 397
f 397 468 467
f 397 467 396
f 396 467 466
f 396 466 395
f 395 466 465
f 395 465 394
f 394 465 464
f 394 464 393
f 393 464 463
f 393 463 392
f 392 463 462
f 392 462 391
f 391 462 461
f 391 461 390
f 390 461 460
f 390 460 389
f 389 460 459
f 389 459 388
f 388 459 458
f 388 458 387
f 387 458 457
f 387 457 386
f 386 457 456
f 386 456 385
f 385 456 455
f 385 455 384
f 384 455 454
f 384 454 383
f 383 454 453
f 383 453 382
f 382 453 451
f 417 452 416
f 416 452 451
f 416 451 450
f 450 451 453
f 450 453 449
f 449 453 454
f 449 454 448
f 448 454 455
f 448 455 447
f 447 455 456
f 447 456 446
f 446 456 457
f 446 457 445
f 445 457 458
f 445 458 444
f 444 458 459
f 444 459 443
f 443 459 460
f 443 460 442
f 442 460 461
f 442 461 441
f 441 461 462
f 441 462 440
f 440 462 463
f 440 463 439
f 439 463 464
f 439 464 438
f 438 464 465
f 438 465 437
f 437 465 466
f 437 466 436
f 436 466 467
f 436 467 435
f 435 467 468
f 435 468 434
f 434 468 469
f 434 469 433
f 433 469 470
f 433 470 432
f 432 470 471
f 432 471 431
f 431 471 472
f 431 472 430
f 430 472 473
f 430 473 429
f 429 473 474
f 429 474 428
f 428 474 475
f 428 475 427
f 427 475 476
f 427 476 426
f 426 476 477
f 426 477 425
f 425 477 478
f 425 478 424
f 488 480 479
f 488 479 423
f 423 479 481
f 423 481 422
f 422 481 482
f 422 482 421
f 421 482 483
f 421 483 420
f 420 483 484
f 420 484 419
f 419 484 485
f 419 485 418
f 418 485 486
f 418 486 417
f 417 486 452
f 490 516 489
f 489 516 517
f 489 517 518
f 516 490 615
f 615 490 491
f 615 491 614
f 614 491 577
f 614 577 578
f 577 491 576
f 576 491 492
f 576 492 575
f 575 492 493
f 575 493 574
f 574 493 494
f 574 494 573
f 573 494 572
f 572 494 495
f 572 495 571
f 571 495 496
f 571 496 608
f 608 496 607
f 607 496 547
f 607 547 606
f 606 547 548
f 606 548 549
f 496 497 547
f 547 497 546
f 546 497 498
f 546 498 545
f 545 498 561
f 561 498 499
f 561 499 560
f 560 499 500
f 560 500 559
f 559 500 501
f 559 501 558
f 558 501 590
f 558 590 591
f 501 502 590
f 590 502 589
f 589 502 534
f 589 534 535
f 534 502 533
f 533 502 503
f 533 503 532
f 532 503 504
f 532 504 531
f 531 504 505
f 531 505 530
f 530 505 506
f 530 506 529
f 529 506 507
f 529 507 528
f 528 507 583
f 528 583 544
f 544 583 584
f 544 584 627
f 627 584 585
f 627 585 626
f 626 585 586
f 626 586 587
f 508 521 507
f 507 521 522
f 507 522 582
f 582 522 581
f 581 522 523
f 581 523 580
f 580 523 624
f 580 624 579
f 579 624 625
f 579 625 588
f 588 625 587
f 587 625 626
f 521 508 520
f 520 508 509
f 520 509 519
f 519 509 510
f 519 510 518
f 518 510 489
f 512 620 511
f 511 620 621
f 511 621 527
f 527 621 526
f 526 621 622
f 526 622 525
f 525 622 623
f 525 623 524
f 524 623 624
f 524 624 523
f 620 512 619
f 619 512 513
f 619 513 653
f 653 513 514
f 653 514 617
f 617 514 616
f 616 514 515
f 616 515 615
f 615 515 516
f 589 535 598
f 598 535 536
f 598 536 633
f 633 536 632
f 632 536 537
f 632 537 631
f 631 537 538
f 631 538 539
f 631 539 630
f 630 539 540
f 630 540 629
f 629 540 541
f 629 541 542
f 629 542 628
f 628 542 543
f 628 543 627
f 627 543 544
f 550 641 549
f 549 641 605
f 549 605 606
f 641 550 640
f 640 550 551
f 640 551 639
f 639 551 552
f 639 552 638
f 638 552 553
f 638 553 554
f 638 554 637
f 637 554 555
f 637 555 636
f 636 555 556
f 636 556 592
f 592 556 591
f 591 556 557
f 591 557 558
f 563 649 562
f 562 649 650
f 562 650 578
f 578 650 613
f 578 613 614
f 649 563 648
f 648 563 564
f 648 564 565
f 648 565 647
f 647 565 566
f 647 566 646
f 646 566 567
f 646 567 568
f 646 568 645
f 645 568 569
f 645 569 644
f 644 569 599
f 644 599 600
f 569 570 599
f 599 570 608
f 608 570 571
f 582 583 507
f 636 592 635
f 635 592 593
f 635 593 594
f 635 594 634
f 634 594 595
f 634 595 596
f 634 596 633
f 633 596 597
f 633 597 598
f 600 601 644
f 644 601 643
f 643 601 602
f 643 602 603
f 643 603 642
f 642 603 604
f 642 604 605
f 618 609 652
f 652 609 610
f 652 610 651
f 651 610 611
f 651 611 612
f 651 612 650
f 650 612 613
f 617 618 653
f 653 618 652
f 641 642 605
f 655 700 654
f 654 700 701
f 654 701 675
f 675 701 721
f 675 721 674
f 674 721 720
f 674 720 673
f 673 720 719
f 673 719 672
f 672 719 717
f 672 717 671
f 671 717 718
f 671 718 670
f 722 716 715
f 722 715 669
f 669 715 714
f 669 714 668
f 668 714 713
f 668 713 667
f 667 713 712
f 667 712 666
f 666 712 711
f 666 711 665
f 665 711 710
f 665 710 664
f 664 710 709
f 664 709 663
f 663 709 708
f 663 708 662
f 662 708 707
f 662 707 661
f 661 707 706
f 661 706 660
f 660 706 698
f 660 698 699
f 699 698 693
f 699 693 705
f 705 693 694
f 705 694 704
f 704 694 695
f 704 695 703
f 703 695 696
f 703 696 702
f 702 696 697
f 702 697 700
f 700 697 676
f 700 676 701
f 701 676 677
f 701 677 721
f 721 677 678
f 721 678 720
f 720 678 679
f 720 679 719
f 719 679 680
f 719 680 717
f 717 680 723
f 717 723 718
f 716 681 682
f 716 682 715
f 715 682 683
f 715 683 714
f 714 683 684
f 714 684 713
f 713 684 685
f 713 685 712
f 712 685 686
f 712 686 711
f 711 686 687
f 711 687 710
f 710 687 688
f 710 688 709
f 709 688 689
f 709 689 708
f 708 689 690
f 708 690 707
f 707 690 691
f 707 691 706
f 706 691 692
f 706 692 698
f 698 692 693
f 700 655 702
f 702 655 656
f 702 656 703
f 703 656 657
f 703 657 704
f 704 657 658
f 704 658 705
f 705 658 659
f 705 659 699
f 699 659 660
f 725 767 724
f 724 767 768
f 769 746 745
f 745 746 747
f 745 747 744
f 744 747 748
f 744 748 743
f 743 748 749
f 743 749 742
f 742 749 750
f 742 750 741
f 741 750 751
f 741 751 740
f 740 751 752
f 740 752 739
f 739 752 753
f 739 753 738
f 738 753 754
f 738 754 737
f 737 754 755
f 737 755 736
f 736 755 756
f 736 756 735
f 735 756 757
f 735 757 734
f 734 757 758
f 734 758 733
f 733 758 759
f 733 759 732
f 732 759 760
f 732 760 731
f 731 760 761
f 731 761 730
f 730 761 762
f 730 762 729
f 729 762 763
f 729 763 728
f 728 763 764
f 728 764 727
f 727 764 765
f 727 765 726
f 726 765 766
f 726 766 725
f 725 766 767
f 771 789 770
f 770 789 791
f 790 780 779
f 779 780 781
f 779 781 778
f 778 781 782
f 778 782 777
f 777 782 783
f 777 783 776
f 776 783 784
f 776 784 775
f 775 784 785
f 775 785 774
f 774 785 786
f 774 786 773
f 773 786 787
f 773 787 772
f 772 787 788
f 772 788 771
f 771 788 789
f 793 805 792
f 792 805 807
f 806 799 798
f 798 799 800
f 798 800 797
f 797 800 801
f 797 801 796
f 796 801 802
f 796 802 795
f 795 802 803
f 795 803 794
f 794 803 804
f 794 804 793
f 793 804 805
f 809 824 808
f 808 824 815
f 808 815 816
f 824 809 823
f 823 809 810
f 823 810 822
f 822 810 821
f 821 810 811
f 821 811 820
f 820 811 812
f 820 812 819
f 819 812 813
f 819 813 818
f 818 813 817
f 817 813 814
f 817 814 816
f 816 814 808
f 826 838 825
f 825 838 840
f 839 832 831
f 831 832 833
f 831 833 830
f 830 833 834
f 830 834 829
f 829 834 835
f 829 835 828
f 828 835 836
f 828 836 827
f 827 836 837
f 827 837 826
f 826 837 838
f 842 860 841
f 841 860 862
f 861 851 850
f 850 851 852
f 850 852 849
f 849 852 853
f 849 853 848
f 848 853 854
f 848 854 847
f 847 854 855
f 847 855 846
f 846 855 856
f 846 856 845
f 845 856 857
f 845 857 844
f 844 857 858
f 844 858 843
f 843 858 859
f 843 859 842
f 842 859 860
f 864 876 863
f 863 876 878
f 877 870 869
f 869 870 871
f 869 871 868
f 868 871 872
f 868 872 867
f 867 872 873
f 867 873 866
f 866 873 874
f 866 874 865
f 865 874 875
f 865 875 864
f 864 875 876
f 880 895 879
f 879 895 886
f 879 886 887
f 895 880 894
f 894 880 881
f 894 881 893
f 893 881 892
f 892 881 882
f 892 882 891
f 891 882 883
f 891 883 890
f 890 883 884
f 890 884 889
f 889 884 888
f 888 884 885
f 888 885 887
f 887 885 879
f 897 929 896
f 896 929 931
f 930 913 912
f 912 913 914
f 912 914 915
f 897 898 929
f 929 898 928
f 928 898 899
f 928 899 927
f 927 899 900
f 927 900 926
f 926 900 901
f 926 901 925
f 925 901 902
f 925 902 924
f 924 902 903
f 924 903 923
f 923 903 904
f 923 904 922
f 922 904 905
f 922 905 921
f 921 905 906
f 921 906 920
f 920 906 907
f 920 907 919
f 919 907 908
f 919 908 918
f 918 908 909
f 918 909 917
f 917 909 910
f 917 910 916
f 916 910 911
f 916 911 915
f 915 911 912
f 933 945 932
f 932 945 947
f 946 939 938
f 938 939 940
f 938 940 937
f 937 940 941
f 937 941 936
f 936 941 942
f 936 942 935
f 935 942 943
f 935 943 934
f 934 943 944
f 934 944 933
f 933 944 945
f 949 967 948
f 948 967 969
f 968 958 957
f 957 958 959
f 957 959 956
f 956 959 960
f 956 960 955
f 955 960 961
f 955 961 954
f 954 961 962
f 954 962 953
f 953 962 963
f 953 963 952
f 952 963 964
f 952 964 951
f 951 964 965
f 951 965 950
f 950 965 966
f 950 966 949
f 949 966 967
f 971 1011 970
f 970 1011 990
f 970 990 991
f 1011 971 1010
f 1010 971 972
f 1010 972 1009
f 1009 972 973
f 1009 973 1008
f 1008 973 974
f 1008 974 1007
f 1007 974 975
f 1007 975 1006
f 1006 975 976
f 1006 976 1005
f 1005 976 977
f 1005 977 1004
f 1004 977 978
f 1004 978 1003
f 1003 978 979
f 1003 979 1002
f 1002 979 980
f 1002 980 1001
f 1001 980 1000
f 1000 980 981
f 1000 981 999
f 999 981 982
f 999 982 998
f 998 982 983
f 998 983 997
f 997 983 984
f 997 984 996
f 996 984 985
f 996 985 995
f 995 985 986
f 995 986 994
f 994 986 987
f 994 987 993
f 993 987 988
f 993 988 992
f 992 988 989
f 992 989 991
f 991 989 970
f 1013 1045 1012
f 1012 1045 1047
f 1046 1029 1028
f 1028 1029 1030
f 1028 1030 1031
f 1013 1014 1045
f 1045 1014 1044
f 1044 1014 1015
f 1044 1015 1043
f 1043 1015 1016
f 1043 1016 1042
f 1042 1016 1017
f 1042 1017 1041
f 1041 1017 1018
f 1041 1018 1040
f 1040 1018 1019
f 1040 1019 1039
f 1039 1019 1020
f 1039 1020 1038
f 1038 1020 1021
f 1038 1021 1037
f 1037 1021 1022
f 1037 1022 1036
f 1036 1022 1023
f 1036 1023 1035
f 1035 1023 1024
f 1035 1024 1034
f 1034 1024 1025
f 1034 1025 1033
f 1033 1025 1026
f 1033 1026 1032
f 1032 1026 1027
f 1032 1027 1031
f 1031 1027 1028
f 1049 1087 1048
f 1048 1087 1089
f 1088 1068 1067
f 1067 1068 1069
f 1067 1069 1066
f 1066 1069 1070
f 1066 1070 1065
f 1065 1070 1071
f 1065 1071 1064
f 1064 1071 1072
f 1064 1072 1063
f 1063 1072 1073
f 1063 1073 1062
f 1062 1073 1074
f 1062 1074 1061
f 1061 1074 1075
f 1061 1075 1060
f 1060 1075 1076
f 1060 1076 1059
f 1059 1076 1077
f 1059 1077 1058
f 1058 1077 1078
f 1058 1078 1057
f 1057 1078 1079
f 1057 1079 1056
f 1056 1079 1080
f 1056 1080 1055
f 1055 1080 1081
f 1055 1081 1054
f 1054 1081 1082
f 1054 1082 1053
f 1053 1082 1083
f 1053 1083 1052
f 1052 1083 1084
f 1052 1084 1051
f 1051 1084 1085
f 1051 1085 1050
f 1050 1085 1086
f 1050 1086 1049
f 1049 1086 1087
f 1091 1109 1090
f 1090 1109 1111
f 1110 1100 1099
f 1099 1100 1101
f 1099 1101 1098
f 1098 1101 1102
f 1098 1102 1097
f 1097 1102 1103
f 1097 1103 1096
f 1096 1103 1104
f 1096 1104 1095
f 1095 1104 1105
f 1095 1105 1094
f 1094 1105 1106
f 1094 1106 1093
f 1093 1106 1107
f 1093 1107 1092
f 1092 1107 1108
f 1092 1108 1091
f 1091 1108 1109
f 1113 1129 1112
f 1112 1129 1131
f 1130 1121 1120
f 1120 1121 1122
f 1120 1122 1119
f 1119 1122 1123
f 1119 1123 1118
f 1118 1123 1124
f 1118 1124 1117
f 1117 1124 1125
f 1117 1125 1116
f 1116 1125 1126
f 1116 1126 1115
f 1115 1126 1127
f 1115 1127 1114
f 1114 1127 1128
f 1114 1128 1113
f 1113 1128 1129
f 1133 1148 1132
f 1132 1148 1139
f 1132 1139 1140
f 1148 1133 1147
f 1147 1133 1134
f 1147 1134 1146
f 1146 1134 1145
f 1145 1134 1135
f 1145 1135 1144
f 1144 1135 1136
f 1144 1136 1143
f 1143 1136 1137
f 1143 1137 1142
f 1142 1137 1141
f 1141 1137 1138
f 1141 1138 1140
f 1140 1138 1132
f 1150 1182 1149
f 1149 1182 1184
f 1183 1166 1165
f 1165 1166 1167
f 1165 1167 1168
f 1150 1151 1182
f 1182 1151 1181
f 1181 1151 1152
f 1181 1152 1180
f 1180 1152 1153
f 1180 1153 1179
f 1179 1153 1154
f 1179 1154 1178
f 1178 1154 1155
f 1178 1155 1177
f 1177 1155 1156
f 1177 1156 1176
f 1176 1156 1157
f 1176 1157 1175
f 1175 1157 1158
f 1175 1158 1174
f 1174 1158 1159
f 1174 1159 1173
f 1173 1159 1160
f 1173 1160 1172
f 1172 1160 1161
f 1172 1161 1171
f 1171 1161 1162
f 1171 1162 1170
f 1170 1162 1163
f 1170 1163 1169
f 1169 1163 1164
f 1169 1164 1168
f 1168 1164 1165
f 1186 1225 1185
f 1185 1225 1226
f 1185 1226 1251
f 1251 1226 1227
f 1251 1227 1250
f 1250 1227 1194
f 1250 1194 1195
f 1187 1234 1186
f 1186 1234 1224
f 1186 1224 1225
f 1234 1187 1233
f 1233 1187 1188
f 1233 1188 1232
f 1232 1188 1235
f 1232 1235 1236
f 1188 1189 1235
f 1235 1189 1241
f 1241 1189 1243
f 1241 1243 1240
f 1240 1243 1244
f 1240 1244 1204
f 1204 1244 1245
f 1204 1245 1203
f 1203 1245 1246
f 1203 1246 1202
f 1202 1246 1247
f 1202 1247 1201
f 1201 1247 1248
f 1201 1248 1218
f 1218 1248 1217
f 1217 1248 1242
f 1217 1242 1191
f 1191 1242 1190
f 1190 1242 1243
f 1190 1243 1189
f 1217 1191 1216
f 1216 1191 1192
f 1216 1192 1215
f 1215 1192 1193
f 1215 1193 1253
f 1253 1193 1252
f 1252 1193 1185
f 1252 1185 1251
f 1250 1195 1249
f 1249 1195 1196
f 1249 1196 1255
f 1255 1196 1197
f 1255 1197 1254
f 1254 1197 1214
f 1254 1214 1253
f 1253 1214 1215
f 1197 1198 1214
f 1214 1198 1220
f 1220 1198 1199
f 1220 1199 1219
f 1219 1199 1200
f 1219 1200 1218
f 1218 1200 1201
f 1240 1204 1239
f 1239 1204 1205
f 1239 1205 1238
f 1238 1205 1206
f 1238 1206 1237
f 1237 1206 1207
f 1237 1207 1236
f 1236 1207 1231
f 1236 1231 1232
f 1207 1208 1231
f 1231 1208 1230
f 1230 1208 1209
f 1230 1209 1229
f 1229 1209 1210
f 1229 1210 1228
f 1228 1210 1211
f 1228 1211 1223
f 1223 1211 1222
f 1222 1211 1212
f 1222 1212 1221
f 1221 1212 1213
f 1221 1213 1227
f 1227 1213 1194
f 1223 1224 1228
f 1228 1224 1234
f 1257 1275 1256
f 1256 1275 1277
f 1276 1266 1265
f 1265 1266 1267
f 1265 1267 1264
f 1264 1267 1268
f 1264 1268 1263
f 1263 1268 1269
f 1263 1269 1262
f 1262 1269 1270
f 1262 1270 1261
f 1261 1270 1271
f 1261 1271 1260
f 1260 1271 1272
f 1260 1272 1259
f 1259 1272 1273
f 1259 1273 1258
f 1258 1273 1274
f 1258 1274 1257
f 1257 1274 1275
f 1279 1294 1278
f 1278 1294 1285
f 1278 1285 1286
f 1294 1279 1293
f 1293 1279 1280
f 1293 1280 1292
f 1292 1280 1291
f 1291 1280 1281
f 1291 1281 1290
f 1290 1281 1282
f 1290 1282 1289
f 1289 1282 1283
f 1289 1283 1288
f 1288 1283 1287
f 1287 1283 1284
f 1287 1284 1286
f 1286 1284 1278
f 1296 1314 1295
f 1295 1314 1316
f 1315 1305 1304
f 1304 1305 1306
f 1304 1306 1303
f 1303 1306 1307
f 1303 1307 1302
f 1302 1307 1308
f 1302 1308 1301
f 1301 1308 1309
f 1301 1309 1300
f 1300 1309 1310
f 1300 1310 1299
f 1299 1310 1311
f 1299 1311 1298
f 1298 1311 1312
f 1298 1312 1297
f 1297 1312 1313
f 1297 1313 1296
f 1296 1313 1314
f 1318 1350 1317
f 1317 1350 1352
f 1351 1334 1333
f 1333 1334 1335
f 1333 1335 1336
f 1318 1319 1350
f 1350 1319 1349
f 1349 1319 1320
f 1349 1320 1348
f 1348 1320 1321
f 1348 1321 1347
f 1347 1321 1322
f 1347 1322 1346
f 1346 1322 1323
f 1346 1323 1345
f 1345 1323 1324
f 1345 1324 1344
f 1344 1324 1325
f 1344 1325 1343
f 1343 1325 1326
f 1343 1326 1342
f 1342 1326 1327
f 1342 1327 1341
f 1341 1327 1328
f 1341 1328 1340
f 1340 1328 1329
f 1340 1329 1339
f 1339 1329 1330
f 1339 1330 1338
f 1338 1330 1331
f 1338 1331 1337
f 1337 1331 1332
f 1337 1332 1336
f 1336 1332 1333
f 1354 1372 1353
f 1353 1372 1374
f 1373 1363 1362
f 1362 1363 1364
f 1362 1364 1361
f 1361 1364 1365
f 1361 1365 1360
f 1360 1365 1366
f 1360 1366 1359
f 1359 1366 1367
f 1359 1367 1358
f 1358 1367 1368
f 1358 1368 1357
f 1357 1368 1369
f 1357 1369 1356
f 1356 1369 1370
f 1356 1370 1355
f 1355 1370 1371
f 1355 1371 1354
f 1354 1371 1372
f 1376 1391 1375
f 1375 1391 1382
f 1375 1382 1383
f 1391 1376 1390
f 1390 1376 1377
f 1390 1377 1389
f 1389 1377 1388
f 1388 1377 1378
f 1388 1378 1387
f 1387 1378 1379
f 1387 1379 1386
f 1386 1379 1380
f 1386 1380 1385
f 1385 1380 1384
f 1384 1380 1381
f 1384 1381 1383
f 1383 1381 1375
f 1393 1408 1392
f 1392 1408 1399
f 1392 1399 1400
f 1408 1393 1407
f 1407 1393 1394
f 1407 1394 1406
f 1406 1394 1405
f 1405 1394 1395
f 1405 1395 1404
f 1404 1395 1396
f 1404 1396 1403
f 1403 1396 1397
f 1403 1397 1402
f 1402 1397 1401
f 1401 1397 1398
f 1401 1398 1400
f 1400 1398 1392
f 1410 1428 1409
f 1409 1428 1430
f 1429 1419 1418
f 1418 1419 1420
f 1418 1420 1417
f 1417 1420 1421
f 1417 1421 1416
f 1416 1421 1422
f 1416 1422 1415
f 1415 1422 1423
f 1415 1423 1414
f 1414 1423 1424
f 1414 1424 1413
f 1413 1424 1425
f 1413 1425 1412
f 1412 1425 1426
f 1412 1426 1411
f 1411 1426 1427
f 1411 1427 1410
f 1410 1427 1428
f 1432 1447 1431
f 1431 1447 1438
f 1431 1438 1439
f 1447 1432 1446
f 1446 1432 1433
f 1446 1433 1445
f 1445 1433 1444
f 1444 1433 1434
f 1444 1434 1443
f 1443 1434 1435
f 1443 1435 1442
f 1442 1435 1436
f 1442 1436 1441
f 1441 1436 1440
f 1440 1436 1437
f 1440 1437 1439
f 1439 1437 1431
f 1449 1467 1448
f 1448 1467 1469
f 1468 1458 1457
f 1457 1458 1459
f 1457 1459 1456
f 1456 1459 1460
f 1456 1460 1455
f 1455 1460 1461
f 1455 1461 1454
f 1454 1461 1462
f 1454 1462 1453
f 1453 1462 1463
f 1453 1463 1452
f 1452 1463 1464
f 1452 1464 1451
f 1451 1464 1465
f 1451 1465 1450
f 1450 1465 1466
f 1450 1466 1449
f 1449 1466 1467
f 1471 1486 1470
f 1470 1486 1477
f 1470 1477 1478
f 1486 1471 1485
f 1485 1471 1472
f 1485 1472 1484
f 1484 1472 1483
f 1483 1472 1473
f 1483 1473 1482
f 1482 1473 1474
f 1482 1474 1481
f 1481 1474 1475
f 1481 1475 1480
f 1480 1475 1479
f 1479 1475 1476
f 1479 1476 1478
f 1478 1476 1470
f 1488 1506 1487
f 1487 1506 1508
f 1507 1497 1496
f 1496 1497 1498
f 1496 1498 1495
f 1495 1498 1499
f 1495 1499 1494
f 1494 1499 1500
f 1494 1500 1493
f 1493 1500 1501
f 1493 1501 1492
f 1492 1501 1502
f 1492 1502 1491
f 1491 1502 1503
f 1491 1503 1490
f 1490 1503 1504
f 1490 1504 1489
f 1489 1504 1505
f 1489 1505 1488
f 1488 1505 1506
f 1510 1525 1509
f 1509 1525 1516
f 1509 1516 1517
f 1525 1510 1524
f 1524 1510 1511
f 1524 1511 1523
f 1523 1511 1522
f 1522 1511 1512
f 1522 1512 1521
f 1521 1512 1513
f 1521 1513 1520
f 1520 1513 1514
f 1520 1514 1519
f 1519 1514 1518
f 1518 1514 1515
f 1518 1515 1517
f 1517 1515 1509
f 1527 1542 1526
f 1526 1542 1533
f 1526 1533 1534
f 1542 1527 1541
f 1541 1527 1528
f 1541 1528 1540
f 1540 1528 1539
f 1539 1528 1529
f 1539 1529 1538
f 1538 1529 1530
f 1538 1530 1537
f 1537 1530 1531
f 1537 1531 1536
f 1536 1531 1535
f 1535 1531 1532
f 1535 1532 1534
f 1534 1532 1526
f 1544 1556 1543
f 1543 1556 1557
f 1558 1550 1549
f 1549 1550 1551
f 1549 1551 1548
f 1548 1551 1552
f 1548 1552 1547
f 1547 1552 1553
f 1547 1553 1546
f 1546 1553 1554
f 1546 1554 1545
f 1545 1554 1555
f 1545 1555 1544
f 1544 1555 1556
f 1560 1572 1559
f 1559 1572 1573
f 1574 1566 1565
f 1565 1566 1567
f 1565 1567 1564
f 1564 1567 1568
f 1564 1568 1563
f 1563 1568 1569
f 1563 1569 1562
f 1562 1569 1570
f 1562 1570 1561
f 1561 1570 1571
f 1561 1571 1560
f 1560 1571 1572
f 1576 1588 1575
f 1575 1588 1589
f 1590 1582 1581
f 1581 1582 1583
f 1581 1583 1580
f 1580 1583 1584
f 1580 1584 1579
f 1579 1584 1585
f 1579 1585 1578
f 1578 1585 1586
f 1578 1586 1577
f 1577 1586 1587
f 1577 1587 1576
f 1576 1587 1588
f 1592 1604 1591
f 1591 1604 1605
f 1606 1598 1597
f 1597 1598 1599
f 1597 1599 1596
f 1596 1599 1600
f 1596 1600 1595
f 1595 1600 1601
f 1595 1601 1594
f 1594 1601 1602
f 1594 1602 1593
f 1593 1602 1603
f 1593 1603 1592
f 1592 1603 1604
f 1608 1620 1607
f 1607 1620 1621
f 1622 1614 1613
f 1613 1614 1615
f 1613 1615 1612
f 1612 1615 1616
f 1612 1616 1611
f 1611 1616 1617
f 1611 1617 1610
f 1610 1617 1618
f 1610 1618 1609
f 1609 1618 1619
f 1609 1619 1608
f 1608 1619 1620
f 1624 1636 1623
f 1623 1636 1637
f 1638 1630 1629
f 1629 1630 1631
f 1629 1631 1628
f 1628 1631 1632
f 1628 1632 1627
f 1627 1632 1633
f 1627 1633 1626
f 1626 1633 1634
f 1626 1634 1625
f 1625 1634 1635
f 1625 1635 1624
f 1624 1635 1636
