v 0.23 0.08800000191 0.04800000191
v 0.23 0.08873223305 0.049767766
v 0.23 0.09050000191 0.05050000191
v 0.23 0.09226777077 0.049767766
v 0.23 0.09300000191 0.04800000191
v 0.23 0.09226777077 0.04623223305
v 0.23 0.09050000191 0.04550000191
v 0.23 0.08873223305 0.04623223305
v 0.24 0.08625 0.04800000191
v 0.24 0.08706168175 0.05049808502
v 0.24 0.08918667793 0.05204198837
v 0.24 0.09181332588 0.05204198837
v 0.24 0.09393832207 0.05049808502
v 0.24 0.09475000381 0.04800000191
v 0.24 0.09393832207 0.04550191402
v 0.24 0.09181332588 0.04395801067
v 0.24 0.08918667793 0.04395801067
v 0.24 0.08706168175 0.04550191402
v 0.24 0.08800000191 0.04800000191
v 0.24 0.08873223305 0.04623223305
v 0.24 0.09050000191 0.04550000191
v 0.24 0.09226777077 0.04623223305
v 0.24 0.09300000191 0.04800000191
v 0.24 0.09226777077 0.049767766
v 0.24 0.09050000191 0.05050000191
v 0.24 0.08873223305 0.049767766
v 0.245 0.08625 0.04800000191
v 0.245 0.08706168175 0.04550191402
v 0.245 0.08918667793 0.04395801067
v 0.245 0.09181332588 0.04395801067
v 0.245 0.09393832207 0.04550191402
v 0.245 0.09475000381 0.04800000191
v 0.245 0.09393832207 0.05049808502
v 0.245 0.09181332588 0.05204198837
v 0.245 0.08918667793 0.05204198837
v 0.245 0.08706168175 0.05049808502
v 0.23 0.08800000191 0.04800000191
v 0.23 0.08873223305 0.04623223305
v 0.23 0.09050000191 0.04550000191
v 0.23 0.09226777077 0.04623223305
v 0.23 0.09300000191 0.04800000191
v 0.23 0.09226777077 0.049767766
v 0.23 0.09050000191 0.05050000191
v 0.23 0.08873223305 0.049767766
v 0.24 0.08800000191 0.04800000191
v 0.24 0.08873223305 0.049767766
v 0.24 0.09050000191 0.05050000191
v 0.24 0.09226777077 0.049767766
v 0.24 0.09300000191 0.04800000191
v 0.24 0.09226777077 0.04623223305
v 0.24 0.09050000191 0.04550000191
v 0.24 0.08873223305 0.04623223305
v 0.24 0.08800000191 0.04800000191
v 0.23 0.08800000191 0.04800000191
v 0.24 0.08625 0.04800000191
v 0.24 0.08706168175 0.04550191402
v 0.24 0.08918667793 0.04395801067
v 0.24 0.09181332588 0.04395801067
v 0.24 0.09393832207 0.04550191402
v 0.24 0.09475000381 0.04800000191
v 0.24 0.09393832207 0.05049808502
v 0.24 0.09181332588 0.05204198837
v 0.24 0.08918667793 0.05204198837
v 0.24 0.08706168175 0.05049808502
v 0.245 0.08625 0.04800000191
v 0.245 0.08706168175 0.05049808502
v 0.245 0.08918667793 0.05204198837
v 0.245 0.09181332588 0.05204198837
v 0.245 0.09393832207 0.05049808502
v 0.245 0.09475000381 0.04800000191
v 0.245 0.09393832207 0.04550191402
v 0.245 0.09181332588 0.04395801067
v 0.245 0.08918667793 0.04395801067
v 0.245 0.08706168175 0.04550191402
v 0.245 0.08625 0.04800000191
v 0.24 0.08625 0.04800000191
f 2 4 1
f 1 4 5
f 1 5 8
f 8 5 6
f 8 6 7
f 2 3 4
f 18 9 19
f 19 9 10
f 19 10 26
f 26 10 11
f 26 11 25
f 25 11 12
f 25 12 24
f 24 12 13
f 24 13 23
f 23 13 14
f 23 14 15
f 23 15 22
f 22 15 16
f 22 16 21
f 21 16 17
f 21 17 20
f 20 17 18
f 20 18 19
f 28 31 27
f 27 31 32
f 27 32 36
f 36 32 33
f 36 33 35
f 35 33 34
f 29 30 28
f 28 30 31
f 38 52 37
f 37 52 53
f 54 45 44
f 44 45 46
f 44 46 47
f 38 39 52
f 52 39 51
f 51 39 40
f 51 40 50
f 50 40 41
f 50 41 49
f 49 41 42
f 49 42 48
f 48 42 43
f 48 43 47
f 47 43 44
f 56 74 55
f 55 74 75
f 76 65 64
f 64 65 66
f 64 66 63
f 63 66 67
f 63 67 62
f 62 67 68
f 62 68 61
f 61 68 69
f 61 69 60
f 60 69 70
f 60 70 59
f 59 70 71
f 59 71 58
f 58 71 72
f 58 72 57
f 57 72 73
f 57 73 56
f 56 73 74
