v -0.04516927317 -0.04630000114 0.3252019608
v -0.04668307967 -0.04630000114 0.3312734637
v -0.04999899551 -0.04630000114 0.3365800165
v -0.05479243194 -0.04630000114 0.3406021772
v -0.06059417575 -0.04630000114 0.3429462222
v -0.06683631347 -0.04630000114 0.343382708
v -0.07290782113 -0.04630000114 0.3418688919
v -0.07821436915 -0.04630000114 0.3385529856
v -0.08223652985 -0.04630000114 0.3337595444
v -0.08458057485 -0.04630000114 0.3279578006
v -0.08501705109 -0.04630000114 0.3217156629
v -0.08350324458 -0.04630000114 0.3156441553
v -0.08018732874 -0.04630000114 0.3103376072
v -0.07539389708 -0.04630000114 0.3063154465
v -0.06959215327 -0.04630000114 0.3039714015
v -0.06335001555 -0.04630000114 0.3035349205
v -0.05727850789 -0.04630000114 0.305048727
v -0.0519719551 -0.04630000114 0.3083646429
v -0.04794979917 -0.04630000114 0.3131580793
v -0.04560575418 -0.04630000114 0.3189598231
v -0.04516927317 -0.02380000114 0.3252019608
v -0.04560575418 -0.02380000114 0.3189598231
v -0.04794979917 -0.02380000114 0.3131580793
v -0.0519719551 -0.02380000114 0.3083646429
v -0.05727850789 -0.02380000114 0.305048727
v -0.06335001555 -0.02380000114 0.3035349205
v -0.06959215327 -0.02380000114 0.3039714015
v -0.07539389708 -0.02380000114 0.3063154465
v -0.08018732874 -0.02380000114 0.3103376072
v -0.08350324458 -0.02380000114 0.3156441553
v -0.08501705109 -0.02380000114 0.3217156629
v -0.08458057485 -0.02380000114 0.3279578006
v -0.08223652985 -0.02380000114 0.3337595444
v -0.07821436915 -0.02380000114 0.3385529856
v -0.07290782113 -0.02380000114 0.3418688919
v -0.06683631347 -0.02380000114 0.343382708
v -0.06059417575 -0.02380000114 0.3429462222
v -0.05479243194 -0.02380000114 0.3406021772
v -0.04999899551 -0.02380000114 0.3365800165
v -0.04668307967 -0.02380000114 0.3312734637
v -0.08501705109 -0.02380000114 0.3217156629
v -0.08501705109 -0.04630000114 0.3217156629
v -0.03622995168 -0.02730000019 0.3018505981
v -0.03576965379 -0.02730000019 0.3033104835
v -0.03647646951 -0.02730000019 0.3046682618
v -0.03793635735 -0.02730000019 0.3051285597
v -0.03929413322 -0.02730000019 0.3044217416
v -0.03929413322 -0.02609999895 0.3044217416
v -0.03793635735 -0.02609999895 0.3051285597
v -0.03647646951 -0.02609999895 0.3046682618
v -0.03576965379 -0.02609999895 0.3033104835
v -0.03622995168 -0.02609999895 0.3018505981
v -0.06693574063 -0.02279999971 0.3634503996
v -0.06788214555 -0.02279999971 0.3648020024
v -0.06952586974 -0.02279999971 0.364658195
v -0.07022318424 -0.02279999971 0.3631627847
v -0.06927677932 -0.02279999971 0.3618111819
v -0.06763305989 -0.02279999971 0.3619549989
v -0.06693574063 -0.01480000019 0.3634503996
v -0.06763305989 -0.01480000019 0.3619549989
v -0.06927677932 -0.01480000019 0.3618111819
v -0.07022318424 -0.01480000019 0.3631627847
v -0.06952586974 -0.01480000019 0.364658195
v -0.06788214555 -0.01480000019 0.3648020024
v -0.07022318424 -0.01480000019 0.3631627847
v -0.07022318424 -0.02279999971 0.3631627847
v -0.1032972206 -0.02279999971 0.3201163238
v -0.1042436303 -0.02279999971 0.3214679218
v -0.105887345 -0.02279999971 0.3213241096
v -0.106584669 -0.02279999971 0.3198287041
v -0.1056382593 -0.02279999971 0.3184771013
v -0.1039945447 -0.02279999971 0.3186209135
v -0.1032972206 -0.01480000019 0.3201163238
v -0.1039945447 -0.01480000019 0.3186209135
v -0.1056382593 -0.01480000019 0.3184771013
v -0.106584669 -0.01480000019 0.3198287041
v -0.105887345 -0.01480000019 0.3213241096
v -0.1042436303 -0.01480000019 0.3214679218
v -0.106584669 -0.01480000019 0.3198287041
v -0.106584669 -0.02279999971 0.3198287041
v -0.0236016624 -0.02279999971 0.3270889196
v -0.02454806494 -0.02279999971 0.3284405224
v -0.02619178674 -0.02279999971 0.3282967102
v -0.02688910362 -0.02279999971 0.3268013
v -0.02594270109 -0.02279999971 0.3254497019
v -0.02429897928 -0.02279999971 0.3255935141
v -0.0236016624 -0.01480000019 0.3270889196
v -0.02429897928 -0.01480000019 0.3255935141
v -0.02594270109 -0.01480000019 0.3254497019
v -0.02688910362 -0.01480000019 0.3268013
v -0.02619178674 -0.01480000019 0.3282967102
v -0.02454806494 -0.01480000019 0.3284405224
v -0.02688910362 -0.01480000019 0.3268013
v -0.02688910362 -0.02279999971 0.3268013
v -0.06734672247 -0.0200999999 0.3583953433
v -0.06796371762 -0.0200999999 0.3591051143
v -0.06882941007 -0.0200999999 0.3587376525
v -0.06874744488 -0.0200999999 0.3578007726
v -0.06783109224 -0.0200999999 0.3575892206
v -0.06734672247 -0.01610000014 0.3583953433
v -0.06783109224 -0.01610000014 0.3575892206
v -0.06874744488 -0.01610000014 0.3578007726
v -0.06882941007 -0.01610000014 0.3587376525
v -0.06796371762 -0.01610000014 0.3591051143
v -0.06874744488 -0.0200999999 0.3578007726
v -0.06874744488 -0.01610000014 0.3578007726
v -0.1079295308 -0.04630000114 0.3197110422
v -0.1062142462 -0.04630000114 0.3108867588
v -0.1027017729 -0.04630000114 0.3026119331
v -0.09754562441 -0.04630000114 0.2952482175
v -0.09097115457 -0.04630000114 0.2891174407
v -0.08326567732 -0.04630000114 0.2844875466
v -0.07476598785 -0.04630000114 0.2815608829
v -0.06584354253 -0.04630000114 0.2804653604
v -0.05688830366 -0.04630000114 0.2812488577
v -0.04829165433 -0.04630000114 0.2838771324
v -0.04042931342 -0.04630000114 0.2882353187
v -0.03364490376 -0.04630000114 0.294132936
v -0.02823493177 -0.04630000114 0.3013122391
v -0.02443584138 -0.04630000114 0.3094594521
v -0.02241367143 -0.04630000114 0.318218506
v -0.02225679824 -0.04630000114 0.3272065863
v -0.02397208281 -0.04630000114 0.3360308698
v -0.02748455375 -0.04630000114 0.3443056954
v -0.03264070223 -0.04630000114 0.3516694063
v -0.03921517922 -0.04630000114 0.3578001854
v -0.04692064694 -0.04630000114 0.3624300795
v -0.05542034118 -0.04630000114 0.3653567385
v -0.06434278649 -0.04630000114 0.3664522657
v -0.07329802537 -0.04630000114 0.3656687684
v -0.08189466992 -0.04630000114 0.3630404937
v -0.08975701083 -0.04630000114 0.3586823027
v -0.0965414205 -0.04630000114 0.352784683
v -0.1019513925 -0.04630000114 0.3456053846
v -0.1057504829 -0.04630000114 0.3374581669
v -0.1077726576 -0.04630000114 0.3286991177
v -0.04516927317 -0.04630000114 0.3252019608
v -0.04560575418 -0.04630000114 0.3189598231
v -0.04794979917 -0.04630000114 0.3131580793
v -0.0519719551 -0.04630000114 0.3083646429
v -0.05727850789 -0.04630000114 0.305048727
v -0.06335001555 -0.04630000114 0.3035349205
v -0.06959215327 -0.04630000114 0.3039714015
v -0.07539389708 -0.04630000114 0.3063154465
v -0.08018732874 -0.04630000114 0.3103376072
v -0.08350324458 -0.04630000114 0.3156441553
v -0.08501705109 -0.04630000114 0.3217156629
v -0.08458057485 -0.04630000114 0.3279578006
v -0.08223652985 -0.04630000114 0.3337595444
v -0.07821436915 -0.04630000114 0.3385529856
v -0.07290782113 -0.04630000114 0.3418688919
v -0.06683631347 -0.04630000114 0.343382708
v -0.06059417575 -0.04630000114 0.3429462222
v -0.05479243194 -0.04630000114 0.3406021772
v -0.04999899551 -0.04630000114 0.3365800165
v -0.04668307967 -0.04630000114 0.3312734637
v -0.03880109517 -0.02730000019 0.2987864141
v -0.03880109517 -0.02609999895 0.2987864141
v -0.04015887343 -0.02609999895 0.2980796008
v -0.04161875888 -0.02609999895 0.2985398987
v -0.04232557699 -0.02609999895 0.2998976722
v -0.0418652791 -0.02609999895 0.3013575624
v -0.0418652791 -0.02730000019 0.3013575624
v -0.04232557699 -0.02730000019 0.2998976722
v -0.04161875888 -0.02730000019 0.2985398987
v -0.04015887343 -0.02730000019 0.2980796008
v -0.09916301449 -0.0200999999 0.3204780263
v -0.09978001441 -0.0200999999 0.3211877973
v -0.1006457116 -0.0200999999 0.3208203308
v -0.1005637417 -0.0200999999 0.3198834508
v -0.09964738426 -0.0200999999 0.3196718989
v -0.09916301449 -0.01610000014 0.3204780263
v -0.09964738426 -0.01610000014 0.3196718989
v -0.1005637417 -0.01610000014 0.3198834508
v -0.1006457116 -0.01610000014 0.3208203308
v -0.09978001441 -0.01610000014 0.3211877973
v -0.1005637417 -0.0200999999 0.3198834508
v -0.1005637417 -0.01610000014 0.3198834508
v -0.03622995168 -0.02730000019 0.3018505981
v -0.03880109517 -0.02730000019 0.2987864141
v -0.04015887343 -0.02730000019 0.2980796008
v -0.04161875888 -0.02730000019 0.2985398987
v -0.04232557699 -0.02730000019 0.2998976722
v -0.0418652791 -0.02730000019 0.3013575624
v -0.03929413322 -0.02730000019 0.3044217416
v -0.03793635735 -0.02730000019 0.3051285597
v -0.03647646951 -0.02730000019 0.3046682618
v -0.03576965379 -0.02730000019 0.3033104835
v -0.04040921718 -0.02380000114 0.3331000185
v -0.03911434577 -0.02380000114 0.331151998
v -0.03712704607 -0.02380000114 0.3299182568
v -0.03480677024 -0.02380000114 0.3296219543
v -0.02270398461 -0.02380000114 0.3306808258
v -0.02262520073 -0.02380000114 0.3302021101
v -0.0225518218 -0.02380000114 0.329722536
v -0.02248385974 -0.02380000114 0.3292421608
v -0.02267424733 -0.02380000114 0.3297069623
v -0.02306660142 -0.02380000114 0.3300205679
v -0.02356193047 -0.02380000114 0.3301038561
v -0.02550685595 -0.02380000114 0.3299336934
v -0.02560647675 -0.02380000114 0.3299233029
v -0.025705697 -0.02380000114 0.3299095889
v -0.02580440227 -0.02380000114 0.3298925656
v -0.03558000898 -0.02380000114 0.3280385055
v -0.0370471514 -0.02380000114 0.3268577873
v -0.03688301122 -0.02380000114 0.32498171
v -0.03523312683 -0.02380000114 0.3240737053
v -0.02528407904 -0.02380000114 0.3239453629
v -0.02518391701 -0.02380000114 0.3239457398
v -0.02508382413 -0.02380000114 0.3239494641
v -0.02498391007 -0.02380000114 0.3239565262
v -0.02303898459 -0.02380000114 0.324126689
v -0.02256564532 -0.02380000114 0.324294732
v -0.0222337101 -0.02380000114 0.3246717057
v -0.02212692805 -0.02380000114 0.3251625048
v -0.02211044055 -0.02380000114 0.3246776282
v -0.02209942476 -0.02380000114 0.3241925943
v -0.02209388307 -0.02380000114 0.3237074697
v -0.03419666632 -0.02380000114 0.3226485886
v -0.0364302371 -0.02380000114 0.3219538664
v -0.03817310517 -0.02380000114 0.3203937713
v -0.03911002682 -0.02380000114 0.3182504916
v -0.04120806832 -0.02380000114 0.3119804702
v -0.04479295848 -0.02380000114 0.3064249773
v -0.04964152618 -0.02380000114 0.3019298344
v -0.05545195784 -0.02380000114 0.2987748645
v -0.05739997841 -0.02380000114 0.2974799955
v -0.05863371955 -0.02380000114 0.2954926934
v -0.05893002685 -0.02380000114 0.2931724176
v -0.05787114579 -0.02380000114 0.2810696343
v -0.05834986632 -0.02380000114 0.2809908481
v -0.05882944039 -0.02380000114 0.2809174692
v -0.05930981556 -0.02380000114 0.2808495071
v -0.05884501411 -0.02380000114 0.2810398947
v -0.05853140853 -0.02380000114 0.2814322488
v -0.05844812026 -0.02380000114 0.2819275778
v -0.05861828301 -0.02380000114 0.2838725033
v -0.05862867347 -0.02380000114 0.2839721241
v -0.05864238748 -0.02380000114 0.2840713444
v -0.05865941074 -0.02380000114 0.2841700496
v -0.0605134709 -0.02380000114 0.293945654
v -0.06169418903 -0.02380000114 0.2954127988
v -0.0635702664 -0.02380000114 0.2952486586
v -0.06447827113 -0.02380000114 0.2935987718
v -0.06460661346 -0.02380000114 0.2836497264
v -0.06460623658 -0.02380000114 0.2835495644
v -0.06460251231 -0.02380000114 0.2834494715
v -0.06459545017 -0.02380000114 0.2833495574
v -0.06442528742 -0.02380000114 0.2814046343
v -0.06425724441 -0.02380000114 0.2809312927
v -0.06388027067 -0.02380000114 0.2805993598
v -0.06338947154 -0.02380000114 0.2804925754
v -0.06387434814 -0.02380000114 0.2804760903
v -0.06435938211 -0.02380000114 0.2804650745
v -0.06484450669 -0.02380000114 0.2804595304
v -0.06590338775 -0.02380000114 0.2925623161
v -0.06659811003 -0.02380000114 0.2947958868
v -0.06815820506 -0.02380000114 0.2965387525
v -0.07030148483 -0.02380000114 0.2974756766
v -0.07657150614 -0.02380000114 0.2995737205
v -0.08212700387 -0.02380000114 0.3031586058
v -0.08662214674 -0.02380000114 0.3080071735
v -0.08977711184 -0.02380000114 0.3138176052
v -0.09107198564 -0.02380000114 0.3157656258
v -0.09305928296 -0.02380000114 0.3169993669
v -0.09537956355 -0.02380000114 0.3172956742
v -0.1074823468 -0.02380000114 0.3162367931
v -0.1075611307 -0.02380000114 0.3167155137
v -0.1076345072 -0.02380000114 0.3171950925
v -0.1077024669 -0.02380000114 0.3176754629
v -0.1075120841 -0.02380000114 0.3172106615
v -0.1071197324 -0.02380000114 0.3168970559
v -0.1066243938 -0.02380000114 0.3168137676
v -0.1046794707 -0.02380000114 0.3169839304
v -0.1045798499 -0.02380000114 0.3169943256
v -0.1044806296 -0.02380000114 0.3170080396
v -0.1043819244 -0.02380000114 0.3170250581
v -0.09460631766 -0.02380000114 0.3188791183
v -0.09313917762 -0.02380000114 0.3200598364
v -0.0933033178 -0.02380000114 0.3219359138
v -0.09495320457 -0.02380000114 0.3228439233
v -0.10490225 -0.02380000114 0.3229722608
v -0.1050024144 -0.02380000114 0.3229718839
v -0.1051025025 -0.02380000114 0.3229681597
v -0.105202419 -0.02380000114 0.3229610975
v -0.1071473421 -0.02380000114 0.3227909348
v -0.1076206885 -0.02380000114 0.3226228965
v -0.1079526142 -0.02380000114 0.3222459228
v -0.1080593962 -0.02380000114 0.3217551189
v -0.1080758861 -0.02380000114 0.3222399955
v -0.1080869019 -0.02380000114 0.3227250295
v -0.1080924436 -0.02380000114 0.3232101588
v -0.09598966032 -0.02380000114 0.3242690351
v -0.09375608954 -0.02380000114 0.3249637574
v -0.09201322385 -0.02380000114 0.3265238524
v -0.09107629982 -0.02380000114 0.3286671322
v -0.08897825593 -0.02380000114 0.3349371487
v -0.08539337532 -0.02380000114 0.3404926512
v -0.08054479808 -0.02380000114 0.3449877941
v -0.07473437118 -0.02380000114 0.3481427592
v -0.07278635061 -0.02380000114 0.349437633
v -0.07155260948 -0.02380000114 0.3514249303
v -0.07125630217 -0.02380000114 0.3537452109
v -0.07231518324 -0.02380000114 0.3658479942
v -0.07183646271 -0.02380000114 0.365926778
v -0.07135688387 -0.02380000114 0.3660001546
v -0.07087651346 -0.02380000114 0.3660681143
v -0.07134131492 -0.02380000114 0.3658777314
v -0.07165492049 -0.02380000114 0.3654853797
v -0.07173820877 -0.02380000114 0.3649900507
v -0.07156804602 -0.02380000114 0.363045118
v -0.07155765079 -0.02380000114 0.3629454972
v -0.07154393678 -0.02380000114 0.362846277
v -0.07152691829 -0.02380000114 0.3627475717
v -0.06967285813 -0.02380000114 0.352971965
v -0.06849213999 -0.02380000114 0.351504825
v -0.06661606263 -0.02380000114 0.3516689652
v -0.06570805313 -0.02380000114 0.3533188519
v -0.06557971556 -0.02380000114 0.3632678973
v -0.06558009244 -0.02380000114 0.3633680618
v -0.06558381672 -0.02380000114 0.3634681499
v -0.06559087885 -0.02380000114 0.3635680663
v -0.0657610416 -0.02380000114 0.3655129894
v -0.06592907985 -0.02380000114 0.3659863358
v -0.06630605358 -0.02380000114 0.3663182615
v -0.06679685749 -0.02380000114 0.3664250436
v -0.06631198088 -0.02380000114 0.3664415334
v -0.06582694692 -0.02380000114 0.3664525492
v -0.06534182234 -0.02380000114 0.3664580909
v -0.06428294127 -0.02380000114 0.3543553077
v -0.06358821899 -0.02380000114 0.3521217369
v -0.06202812396 -0.02380000114 0.3503788712
v -0.05988484419 -0.02380000114 0.3494419472
v -0.05361482289 -0.02380000114 0.3473439033
v -0.04805932992 -0.02380000114 0.3437590227
v -0.04356418706 -0.02380000114 0.3389104454
v -0.04516927317 -0.02380000114 0.3252019608
v -0.04668307967 -0.02380000114 0.3312734637
v -0.04999899551 -0.02380000114 0.3365800165
v -0.05479243194 -0.02380000114 0.3406021772
v -0.06059417575 -0.02380000114 0.3429462222
v -0.06683631347 -0.02380000114 0.343382708
v -0.07290782113 -0.02380000114 0.3418688919
v -0.07821436915 -0.02380000114 0.3385529856
v -0.08223652985 -0.02380000114 0.3337595444
v -0.08458057485 -0.02380000114 0.3279578006
v -0.08501705109 -0.02380000114 0.3217156629
v -0.08350324458 -0.02380000114 0.3156441553
v -0.08018732874 -0.02380000114 0.3103376072
v -0.07539389708 -0.02380000114 0.3063154465
v -0.06959215327 -0.02380000114 0.3039714015
v -0.06335001555 -0.02380000114 0.3035349205
v -0.05727850789 -0.02380000114 0.305048727
v -0.0519719551 -0.02380000114 0.3083646429
v -0.04794979917 -0.02380000114 0.3131580793
v -0.04560575418 -0.02380000114 0.3189598231
v -0.02942940074 -0.0200999999 0.3265790513
v -0.03004639589 -0.0200999999 0.3272888223
v -0.03091209072 -0.0200999999 0.3269213557
v -0.03083012316 -0.0200999999 0.3259844758
v -0.02991376813 -0.0200999999 0.325772919
v -0.02942940074 -0.01610000014 0.3265790513
v -0.02991376813 -0.01610000014 0.325772919
v -0.03083012316 -0.01610000014 0.3259844758
v -0.03091209072 -0.01610000014 0.3269213557
v -0.03004639589 -0.01610000014 0.3272888223
v -0.03083012316 -0.0200999999 0.3259844758
v -0.03083012316 -0.01610000014 0.3259844758
v -0.06693574063 -0.02279999971 0.3634503996
v -0.06763305989 -0.02279999971 0.3619549989
v -0.06927677932 -0.02279999971 0.3618111819
v -0.07022318424 -0.02279999971 0.3631627847
v -0.06952586974 -0.02279999971 0.364658195
v -0.06788214555 -0.02279999971 0.3648020024
v -0.0418652791 -0.02730000019 0.3013575624
v -0.0418652791 -0.02609999895 0.3013575624
v -0.03929413322 -0.02609999895 0.3044217416
v -0.03929413322 -0.02730000019 0.3044217416
v -0.03622995168 -0.02730000019 0.3018505981
v -0.03622995168 -0.02609999895 0.3018505981
v -0.03880109517 -0.02609999895 0.2987864141
v -0.03880109517 -0.02730000019 0.2987864141
v -0.1071473421 -0.01610000014 0.3227909348
v -0.105202419 -0.01610000014 0.3229610975
v -0.1066616828 -0.01610000014 0.3224299651
v -0.1076598725 -0.01610000014 0.3212403643
v -0.1079295308 -0.01610000014 0.3197110422
v -0.1079836339 -0.01610000014 0.3203916842
v -0.1080269319 -0.01610000014 0.3210730988
v -0.1080593962 -0.01610000014 0.3217551189
v -0.1079526142 -0.01610000014 0.3222459228
v -0.1076206885 -0.01610000014 0.3226228965
v -0.06691093225 -0.02380000114 0.3534143794
v -0.0675279274 -0.02380000114 0.3541241409
v -0.06839362462 -0.02380000114 0.3537566791
v -0.06831165466 -0.02380000114 0.3528197991
v -0.06739530202 -0.02380000114 0.3526082472
v -0.06691093225 -0.01980000019 0.3534143794
v -0.06739530202 -0.01980000019 0.3526082472
v -0.06831165466 -0.01980000019 0.3528197991
v -0.06839362462 -0.01980000019 0.3537566791
v -0.0675279274 -0.01980000019 0.3541241409
v -0.06831165466 -0.02380000114 0.3528197991
v -0.06831165466 -0.01980000019 0.3528197991
v -0.1032972206 -0.02279999971 0.3201163238
v -0.1039945447 -0.02279999971 0.3186209135
v -0.1056382593 -0.02279999971 0.3184771013
v -0.106584669 -0.02279999971 0.3198287041
v -0.105887345 -0.02279999971 0.3213241096
v -0.1042436303 -0.02279999971 0.3214679218
v -0.07156804602 -0.01480000019 0.363045118
v -0.07087759919 -0.01480000019 0.3652349558
v -0.06884093418 -0.01480000019 0.3662951781
v -0.066651106 -0.01480000019 0.3656047313
v -0.06559087885 -0.01480000019 0.3635680663
v -0.06628132567 -0.01480000019 0.3613782381
v -0.06831799068 -0.01480000019 0.3603180062
v -0.07050782363 -0.01480000019 0.361008453
v -0.06693574063 -0.01480000019 0.3634503996
v -0.06788214555 -0.01480000019 0.3648020024
v -0.06952586974 -0.01480000019 0.364658195
v -0.07022318424 -0.01480000019 0.3631627847
v -0.06927677932 -0.01480000019 0.3618111819
v -0.06763305989 -0.01480000019 0.3619549989
v -0.05737686608 -0.02609999895 0.2811568177
v -0.0584319276 -0.02609999895 0.2932159966
v -0.05816256123 -0.02609999895 0.2953253387
v -0.05704097664 -0.02609999895 0.2971319765
v -0.05527004842 -0.02609999895 0.2983091332
v -0.04934998723 -0.02609999895 0.3015236269
v -0.0444099337 -0.02609999895 0.3061035849
v -0.04075740914 -0.02609999895 0.3117639011
v -0.03861977845 -0.02609999895 0.318152221
v -0.03776803149 -0.02609999895 0.3201006602
v -0.03618360663 -0.02609999895 0.3215189245
v -0.0341530873 -0.02609999895 0.3221504941
v -0.02209391079 -0.02609999895 0.3232055557
v -0.02298195988 -0.02609999895 0.3147613116
v -0.02551195779 -0.02609999895 0.3066561913
v -0.02958525461 -0.02609999895 0.2992062187
v -0.03504303071 -0.02609999895 0.2927018689
v -0.04167248364 -0.02609999895 0.2873967578
v -0.04921512512 -0.02609999895 0.283497733
v -0.03880109517 -0.02609999895 0.2987864141
v -0.03622995168 -0.02609999895 0.3018505981
v -0.03576965379 -0.02609999895 0.3033104835
v -0.03647646951 -0.02609999895 0.3046682618
v -0.03793635735 -0.02609999895 0.3051285597
v -0.03929413322 -0.02609999895 0.3044217416
v -0.0418652791 -0.02609999895 0.3013575624
v -0.04232557699 -0.02609999895 0.2998976722
v -0.04161875888 -0.02609999895 0.2985398987
v -0.04015887343 -0.02609999895 0.2980796008
v -0.107395161 -0.02609999895 0.3157425134
v -0.107395161 -0.02430000067 0.3157425134
v -0.09533597976 -0.02430000067 0.316797575
v -0.09533597976 -0.02609999895 0.316797575
v -0.1077024669 -0.01610000014 0.3176754629
v -0.1077889282 -0.01610000014 0.3183527575
v -0.1078646225 -0.01610000014 0.3190313396
v -0.1079295308 -0.01610000014 0.3197110422
v -0.1073983984 -0.01610000014 0.3182517784
v -0.1062087928 -0.01610000014 0.3172535886
v -0.1046794707 -0.01610000014 0.3169839304
v -0.1066243938 -0.01610000014 0.3168137676
v -0.1071197324 -0.01610000014 0.3168970559
v -0.1075120841 -0.01610000014 0.3172106615
v -0.09418204106 -0.02380000114 0.3209138118
v -0.09479904098 -0.02380000114 0.3216235828
v -0.0956647382 -0.02380000114 0.3212561163
v -0.09558276824 -0.02380000114 0.3203192411
v -0.09466641083 -0.02380000114 0.3201076843
v -0.09418204106 -0.01980000019 0.3209138118
v -0.09466641083 -0.01980000019 0.3201076843
v -0.09558276824 -0.01980000019 0.3203192411
v -0.0956647382 -0.01980000019 0.3212561163
v -0.09479904098 -0.01980000019 0.3216235828
v -0.09558276824 -0.02380000114 0.3203192411
v -0.09558276824 -0.01980000019 0.3203192411
v -0.0236016624 -0.02279999971 0.3270889196
v -0.02429897928 -0.02279999971 0.3255935141
v -0.02594270109 -0.02279999971 0.3254497019
v -0.02688910362 -0.02279999971 0.3268013
v -0.02619178674 -0.02279999971 0.3282967102
v -0.02454806494 -0.02279999971 0.3284405224
v -0.1079295308 -0.01480000019 0.3197110422
v -0.107239084 -0.01480000019 0.3219008704
v -0.105202419 -0.01480000019 0.3229610975
v -0.1030125908 -0.01480000019 0.3222706507
v -0.1019523589 -0.01480000019 0.3202339857
v -0.1026428057 -0.01480000019 0.3180441528
v -0.1046794707 -0.01480000019 0.3169839304
v -0.1068693084 -0.01480000019 0.3176743772
v -0.1032972206 -0.01480000019 0.3201163238
v -0.1042436303 -0.01480000019 0.3214679218
v -0.105887345 -0.01480000019 0.3213241096
v -0.106584669 -0.01480000019 0.3198287041
v -0.1056382593 -0.01480000019 0.3184771013
v -0.1039945447 -0.01480000019 0.3186209135
v -0.03861977845 -0.02609999895 0.318152221
v -0.03861977845 -0.02430000067 0.318152221
v -0.03776803149 -0.02430000067 0.3201006602
v -0.03618360663 -0.02430000067 0.3215189245
v -0.0341530873 -0.02430000067 0.3221504941
v -0.0341530873 -0.02609999895 0.3221504941
v -0.03618360663 -0.02609999895 0.3215189245
v -0.03776803149 -0.02609999895 0.3201006602
v -0.06640148223 -0.02609999895 0.292518737
v -0.06640148223 -0.02430000067 0.292518737
v -0.06534642071 -0.02430000067 0.2804595582
v -0.06534642071 -0.02609999895 0.2804595582
v -0.0657610416 -0.01610000014 0.3655129894
v -0.06559087885 -0.01610000014 0.3635680663
v -0.06612201125 -0.01610000014 0.3650273301
v -0.06731161204 -0.01610000014 0.3660255199
v -0.06884093418 -0.01610000014 0.3662951781
v -0.06816029215 -0.01610000014 0.3663492813
v -0.06747887762 -0.01610000014 0.3663925793
v -0.06679685749 -0.01610000014 0.3664250436
v -0.06630605358 -0.01610000014 0.3663182615
v -0.06592907985 -0.01610000014 0.3659863358
v -0.03441037179 -0.02380000114 0.326143261
v -0.03502736933 -0.02380000114 0.3268530321
v -0.03589306177 -0.02380000114 0.3264855655
v -0.03581109421 -0.02380000114 0.3255486903
v -0.03489474156 -0.02380000114 0.3253371336
v -0.03441037179 -0.01980000019 0.326143261
v -0.03489474156 -0.01980000019 0.3253371336
v -0.03581109421 -0.01980000019 0.3255486903
v -0.03589306177 -0.01980000019 0.3264855655
v -0.03502736933 -0.01980000019 0.3268530321
v -0.03581109421 -0.02380000114 0.3255486903
v -0.03581109421 -0.01980000019 0.3255486903
v -0.06734672247 -0.0200999999 0.3583953433
v -0.06783109224 -0.0200999999 0.3575892206
v -0.06874744488 -0.0200999999 0.3578007726
v -0.06882941007 -0.0200999999 0.3587376525
v -0.06796371762 -0.0200999999 0.3591051143
v -0.0282339654 -0.01480000019 0.326683638
v -0.02754351858 -0.01480000019 0.328873471
v -0.02550685595 -0.01480000019 0.3299336934
v -0.02331702301 -0.01480000019 0.3292432465
v -0.02225679824 -0.01480000019 0.3272065863
v -0.02294724506 -0.01480000019 0.3250167534
v -0.02498391007 -0.01480000019 0.3239565262
v -0.02717374063 -0.01480000019 0.324646973
v -0.0236016624 -0.01480000019 0.3270889196
v -0.02454806494 -0.01480000019 0.3284405224
v -0.02619178674 -0.01480000019 0.3282967102
v -0.02688910362 -0.01480000019 0.3268013
v -0.02594270109 -0.01480000019 0.3254497019
v -0.02429897928 -0.01480000019 0.3255935141
v -0.03441037179 -0.02380000114 0.326143261
v -0.03489474156 -0.02380000114 0.3253371336
v -0.03581109421 -0.02380000114 0.3255486903
v -0.03589306177 -0.02380000114 0.3264855655
v -0.03502736933 -0.02380000114 0.3268530321
v -0.05527004842 -0.02609999895 0.2983091332
v -0.05527004842 -0.02430000067 0.2983091332
v -0.04934998723 -0.02430000067 0.3015236269
v -0.0444099337 -0.02430000067 0.3061035849
v -0.04075740914 -0.02430000067 0.3117639011
v -0.03861977845 -0.02430000067 0.318152221
v -0.03861977845 -0.02609999895 0.318152221
v -0.04075740914 -0.02609999895 0.3117639011
v -0.0444099337 -0.02609999895 0.3061035849
v -0.04934998723 -0.02609999895 0.3015236269
v -0.06534642071 -0.02609999895 0.2804595582
v -0.07379066475 -0.02609999895 0.2813476072
v -0.08189578031 -0.02609999895 0.2838776051
v -0.0893457577 -0.02609999895 0.287950902
v -0.09585010269 -0.02609999895 0.2934086781
v -0.1011552138 -0.02609999895 0.300038131
v -0.1050542482 -0.02609999895 0.3075807725
v -0.107395161 -0.02609999895 0.3157425134
v -0.09533597976 -0.02609999895 0.316797575
v -0.09322664244 -0.02609999895 0.3165282086
v -0.09141999984 -0.02609999895 0.315406624
v -0.09024284791 -0.02609999895 0.3136356958
v -0.08702835426 -0.02609999895 0.3077156346
v -0.08244839145 -0.02609999895 0.3027755811
v -0.07678807525 -0.02609999895 0.2991230565
v -0.07039975534 -0.02609999895 0.2969854258
v -0.06845131615 -0.02609999895 0.2961336789
v -0.06703305185 -0.02609999895 0.2945492564
v -0.06640148223 -0.02609999895 0.292518737
v -0.07087651346 -0.01610000014 0.3660681143
v -0.07019921888 -0.01610000014 0.3661545756
v -0.06952063683 -0.01610000014 0.3662302699
v -0.06884093418 -0.01610000014 0.3662951781
v -0.070300198 -0.01610000014 0.3657640457
v -0.07129838775 -0.01610000014 0.3645744402
v -0.07156804602 -0.01610000014 0.363045118
v -0.07173820877 -0.01610000014 0.3649900507
v -0.07165492049 -0.01610000014 0.3654853797
v -0.07134131492 -0.01610000014 0.3658777314
v -0.1079295308 -0.01610000014 0.3197110422
v -0.1078646225 -0.01610000014 0.3190313396
v -0.1077889282 -0.01610000014 0.3183527575
v -0.1077024669 -0.01610000014 0.3176754629
v -0.1077024669 -0.02380000114 0.3176754629
v -0.1076345072 -0.02380000114 0.3171950925
v -0.1075611307 -0.02380000114 0.3167155137
v -0.1074823468 -0.02380000114 0.3162367931
v -0.107453927 -0.02396669388 0.3160719506
v -0.1074248683 -0.02413336277 0.3159071891
v -0.107395161 -0.02430000067 0.3157425134
v -0.107395161 -0.02609999895 0.3157425134
v -0.1050542482 -0.02609999895 0.3075807725
v -0.1011552138 -0.02609999895 0.300038131
v -0.09585010269 -0.02609999895 0.2934086781
v -0.0893457577 -0.02609999895 0.287950902
v -0.08189578031 -0.02609999895 0.2838776051
v -0.07379066475 -0.02609999895 0.2813476072
v -0.06534642071 -0.02609999895 0.2804595582
v -0.06534642071 -0.02430000067 0.2804595582
v -0.06517908902 -0.02413336277 0.280458898
v -0.06501178593 -0.02396669388 0.2804588888
v -0.06484450669 -0.02380000114 0.2804595304
v -0.06435938211 -0.02380000114 0.2804650745
v -0.06387434814 -0.02380000114 0.2804760903
v -0.06338947154 -0.02380000114 0.2804925754
v -0.06338947154 -0.01610000014 0.2804925754
v -0.06270745141 -0.01610000014 0.2805250444
v -0.06202603688 -0.01610000014 0.2805683377
v -0.06134539008 -0.01610000014 0.280622448
v -0.0606656922 -0.01610000014 0.2806873562
v -0.05998711014 -0.01610000014 0.2807630482
v -0.05930981556 -0.01610000014 0.2808495071
v -0.05930981556 -0.02380000114 0.2808495071
v -0.05882944039 -0.02380000114 0.2809174692
v -0.05834986632 -0.02380000114 0.2809908481
v -0.05787114579 -0.02380000114 0.2810696343
v -0.05770630323 -0.02396669388 0.2810980494
v -0.05754154174 -0.02413336277 0.2811271105
v -0.05737686608 -0.02430000067 0.2811568177
v -0.05737686608 -0.02609999895 0.2811568177
v -0.04921512512 -0.02609999895 0.283497733
v -0.04167248364 -0.02609999895 0.2873967578
v -0.03504303071 -0.02609999895 0.2927018689
v -0.02958525461 -0.02609999895 0.2992062187
v -0.02551195779 -0.02609999895 0.3066561913
v -0.02298195988 -0.02609999895 0.3147613116
v -0.02209391079 -0.02609999895 0.3232055557
v -0.02209391079 -0.02430000067 0.3232055557
v -0.02209325067 -0.02413336277 0.3233728874
v -0.02209324143 -0.02396669388 0.3235401905
v -0.02209388307 -0.02380000114 0.3237074697
v -0.02209942476 -0.02380000114 0.3241925943
v -0.02211044055 -0.02380000114 0.3246776282
v -0.02212692805 -0.02380000114 0.3251625048
v -0.02212692805 -0.01610000014 0.3251625048
v -0.02215939709 -0.01610000014 0.325844525
v -0.02220269033 -0.01610000014 0.3265259395
v -0.02225679824 -0.01610000014 0.3272065863
v -0.0223217065 -0.01610000014 0.3278862842
v -0.02239740083 -0.01610000014 0.3285648662
v -0.02248385974 -0.01610000014 0.3292421608
v -0.02248385974 -0.02380000114 0.3292421608
v -0.0225518218 -0.02380000114 0.329722536
v -0.02262520073 -0.02380000114 0.3302021101
v -0.02270398461 -0.02380000114 0.3306808258
v -0.02273240201 -0.02396669388 0.3308456779
v -0.02276146313 -0.02413336277 0.3310104346
v -0.02279117038 -0.02430000067 0.3311751151
v -0.02279117038 -0.02609999895 0.3311751151
v -0.0251320856 -0.02609999895 0.3393368465
v -0.02903111045 -0.02609999895 0.3468794975
v -0.03433622395 -0.02609999895 0.3535089457
v -0.04084057132 -0.02609999895 0.3589667265
v -0.04829054395 -0.02609999895 0.3630400186
v -0.05639566428 -0.02609999895 0.3655700165
v -0.06483990831 -0.02609999895 0.3664580632
v -0.06483990831 -0.02430000067 0.3664580632
v -0.06500724001 -0.02413336277 0.3664587305
v -0.06517454309 -0.02396669388 0.3664587397
v -0.06534182234 -0.02380000114 0.3664580909
v -0.06582694692 -0.02380000114 0.3664525492
v -0.06631198088 -0.02380000114 0.3664415334
v -0.06679685749 -0.02380000114 0.3664250436
v -0.06679685749 -0.01610000014 0.3664250436
v -0.06747887762 -0.01610000014 0.3663925793
v -0.06816029215 -0.01610000014 0.3663492813
v -0.06884093418 -0.01610000014 0.3662951781
v -0.06952063683 -0.01610000014 0.3662302699
v -0.07019921888 -0.01610000014 0.3661545756
v -0.07087651346 -0.01610000014 0.3660681143
v -0.07087651346 -0.02380000114 0.3660681143
v -0.07135688387 -0.02380000114 0.3660001546
v -0.07183646271 -0.02380000114 0.365926778
v -0.07231518324 -0.02380000114 0.3658479942
v -0.07248002579 -0.02396669388 0.3658195744
v -0.07264478728 -0.02413336277 0.3657905156
v -0.07280946294 -0.02430000067 0.3657608084
v -0.07280946294 -0.02609999895 0.3657608084
v -0.08097119914 -0.02609999895 0.3634198956
v -0.08851385015 -0.02609999895 0.3595208612
v -0.09514329831 -0.02609999895 0.35421575
v -0.1006010792 -0.02609999895 0.3477114051
v -0.1046743712 -0.02609999895 0.3402614277
v -0.1072043691 -0.02609999895 0.3321563073
v -0.1080924158 -0.02609999895 0.3237120681
v -0.1080924158 -0.02430000067 0.3237120681
v -0.1080930831 -0.02413336277 0.3235447364
v -0.1080930828 -0.02396669388 0.3233774333
v -0.1080924436 -0.02380000114 0.3232101588
v -0.1080869019 -0.02380000114 0.3227250295
v -0.1080758861 -0.02380000114 0.3222399955
v -0.1080593962 -0.02380000114 0.3217551189
v -0.1080593962 -0.01610000014 0.3217551189
v -0.1080269319 -0.01610000014 0.3210730988
v -0.1079836339 -0.01610000014 0.3203916842
v -0.1079295308 -0.04630000114 0.3197110422
v -0.1077726576 -0.04630000114 0.3286991177
v -0.1057504829 -0.04630000114 0.3374581669
v -0.1019513925 -0.04630000114 0.3456053846
v -0.0965414205 -0.04630000114 0.352784683
v -0.08975701083 -0.04630000114 0.3586823027
v -0.08189466992 -0.04630000114 0.3630404937
v -0.07329802537 -0.04630000114 0.3656687684
v -0.06434278649 -0.04630000114 0.3664522657
v -0.05542034118 -0.04630000114 0.3653567385
v -0.04692064694 -0.04630000114 0.3624300795
v -0.03921517922 -0.04630000114 0.3578001854
v -0.03264070223 -0.04630000114 0.3516694063
v -0.02748455375 -0.04630000114 0.3443056954
v -0.02397208281 -0.04630000114 0.3360308698
v -0.02225679824 -0.04630000114 0.3272065863
v -0.02241367143 -0.04630000114 0.318218506
v -0.02443584138 -0.04630000114 0.3094594521
v -0.02823493177 -0.04630000114 0.3013122391
v -0.03364490376 -0.04630000114 0.294132936
v -0.04042931342 -0.04630000114 0.2882353187
v -0.04829165433 -0.04630000114 0.2838771324
v -0.05688830366 -0.04630000114 0.2812488577
v -0.06584354253 -0.04630000114 0.2804653604
v -0.07476598785 -0.04630000114 0.2815608829
v -0.08326567732 -0.04630000114 0.2844875466
v -0.09097115457 -0.04630000114 0.2891174407
v -0.09754562441 -0.04630000114 0.2952482175
v -0.1027017729 -0.04630000114 0.3026119331
v -0.1062142462 -0.04630000114 0.3108867588
v -0.02225679824 -0.01610000014 0.3272065863
v -0.02225679824 -0.04630000114 0.3272065863
v -0.03079562589 -0.01610000014 0.3284265973
v -0.03209157897 -0.01610000014 0.3272310832
v -0.03193790796 -0.01610000014 0.32547463
v -0.03045403912 -0.01610000014 0.3245223268
v -0.03045403912 -0.01980000019 0.3245223268
v -0.03193790796 -0.01980000019 0.32547463
v -0.03209157897 -0.01980000019 0.3272310832
v -0.03079562589 -0.01980000019 0.3284265973
v -0.09916301449 -0.0200999999 0.3204780263
v -0.09964738426 -0.0200999999 0.3196718989
v -0.1005637417 -0.0200999999 0.3198834508
v -0.1006457116 -0.0200999999 0.3208203308
v -0.09978001441 -0.0200999999 0.3211877973
v -0.07006094998 -0.01610000014 0.3577563481
v -0.07145537312 -0.01610000014 0.3624526862
v -0.070267073 -0.01610000014 0.3608262731
v -0.06831799068 -0.01610000014 0.3603180062
v -0.06648678011 -0.01610000014 0.3611570139
v -0.06559896972 -0.01610000014 0.3629650676
v -0.06615667945 -0.01610000014 0.3580979325
v -0.06710898264 -0.01610000014 0.3566140708
v -0.06886543589 -0.01610000014 0.3564603926
v -0.06734672247 -0.01610000014 0.3583953433
v -0.06796371762 -0.01610000014 0.3591051143
v -0.06882941007 -0.01610000014 0.3587376525
v -0.06874744488 -0.01610000014 0.3578007726
v -0.06783109224 -0.01610000014 0.3575892206
v -0.09418204106 -0.02380000114 0.3209138118
v -0.09466641083 -0.02380000114 0.3201076843
v -0.09558276824 -0.02380000114 0.3203192411
v -0.0956647382 -0.02380000114 0.3212561163
v -0.09479904098 -0.02380000114 0.3216235828
v -0.0584319276 -0.02609999895 0.2932159966
v -0.0584319276 -0.02430000067 0.2932159966
v -0.05816256123 -0.02430000067 0.2953253387
v -0.05704097664 -0.02430000067 0.2971319765
v -0.05527004842 -0.02430000067 0.2983091332
v -0.05527004842 -0.02609999895 0.2983091332
v -0.05704097664 -0.02609999895 0.2971319765
v -0.05816256123 -0.02609999895 0.2953253387
v -0.09533597976 -0.02609999895 0.316797575
v -0.09533597976 -0.02430000067 0.316797575
v -0.09322664244 -0.02430000067 0.3165282086
v -0.09141999984 -0.02430000067 0.315406624
v -0.09024284791 -0.02430000067 0.3136356958
v -0.09024284791 -0.02609999895 0.3136356958
v -0.09141999984 -0.02609999895 0.315406624
v -0.09322664244 -0.02609999895 0.3165282086
v -0.04040921718 -0.02380000114 0.3331000185
v -0.03994348349 -0.02430000067 0.3332819232
v -0.0387663268 -0.02430000067 0.3315109997
v -0.03695969136 -0.02430000067 0.3303894199
v -0.03485034926 -0.02430000067 0.3301200488
v -0.03480677024 -0.02380000114 0.3296219543
v -0.03712704607 -0.02380000114 0.3299182568
v -0.03911434577 -0.02380000114 0.331151998
v -0.1079295308 -0.01480000019 0.3197110422
v -0.1068693084 -0.01480000019 0.3176743772
v -0.1046794707 -0.01480000019 0.3169839304
v -0.1026428057 -0.01480000019 0.3180441528
v -0.1019523589 -0.01480000019 0.3202339857
v -0.1030125908 -0.01480000019 0.3222706507
v -0.105202419 -0.01480000019 0.3229610975
v -0.107239084 -0.01480000019 0.3219008704
v -0.1079295308 -0.01610000014 0.3197110422
v -0.1076598725 -0.01610000014 0.3212403643
v -0.1066616828 -0.01610000014 0.3224299651
v -0.105202419 -0.01610000014 0.3229610975
v -0.105202419 -0.02380000114 0.3229610975
v -0.1051025025 -0.02380000114 0.3229681597
v -0.1050024144 -0.02380000114 0.3229718839
v -0.10490225 -0.02380000114 0.3229722608
v -0.10490225 -0.01980000019 0.3229722608
v -0.1048011128 -0.01980000019 0.3229692522
v -0.1047001282 -0.01980000019 0.3229628293
v -0.1045994202 -0.01980000019 0.3229530114
v -0.1045994202 -0.01610000014 0.3229530114
v -0.1027913666 -0.01610000014 0.3220651963
v -0.1019523589 -0.01610000014 0.3202339857
v -0.1024606257 -0.01610000014 0.3182849034
v -0.1040870389 -0.01610000014 0.3170966033
v -0.1040870389 -0.01980000019 0.3170966033
v -0.1041845139 -0.01980000019 0.3170694424
v -0.1042828472 -0.01980000019 0.3170455861
v -0.1043819244 -0.01980000019 0.3170250581
v -0.1043819244 -0.02380000114 0.3170250581
v -0.1044806296 -0.02380000114 0.3170080396
v -0.1045798499 -0.02380000114 0.3169943256
v -0.1046794707 -0.02380000114 0.3169839304
v -0.1046794707 -0.01610000014 0.3169839304
v -0.1062087928 -0.01610000014 0.3172535886
v -0.1073983984 -0.01610000014 0.3182517784
v -0.1019523589 -0.01480000019 0.3202339857
v -0.1019523589 -0.01610000014 0.3202339857
v -0.02942940074 -0.0200999999 0.3265790513
v -0.02991376813 -0.0200999999 0.325772919
v -0.03083012316 -0.0200999999 0.3259844758
v -0.03091209072 -0.0200999999 0.3269213557
v -0.03004639589 -0.0200999999 0.3272888223
v -0.09939070075 -0.01610000014 0.3184910264
v -0.1040870389 -0.01610000014 0.3170966033
v -0.1024606257 -0.01610000014 0.3182849034
v -0.1019523589 -0.01610000014 0.3202339857
v -0.1027913666 -0.01610000014 0.3220651963
v -0.1045994202 -0.01610000014 0.3229530114
v -0.09973228513 -0.01610000014 0.3223952969
v -0.09824842344 -0.01610000014 0.3214429937
v -0.09809474528 -0.01610000014 0.3196865405
v -0.09916301449 -0.01610000014 0.3204780263
v -0.09978001441 -0.01610000014 0.3211877973
v -0.1006457116 -0.01610000014 0.3208203308
v -0.1005637417 -0.01610000014 0.3198834508
v -0.09964738426 -0.01610000014 0.3196718989
v -0.03079562589 -0.01610000014 0.3284265973
v -0.02609928778 -0.01610000014 0.3298210205
v -0.02772569856 -0.01610000014 0.3286327204
v -0.0282339654 -0.01610000014 0.326683638
v -0.02739496006 -0.01610000014 0.3248524322
v -0.02558690882 -0.01610000014 0.3239646171
v -0.03045403912 -0.01610000014 0.3245223268
v -0.03193790796 -0.01610000014 0.32547463
v -0.03209157897 -0.01610000014 0.3272310832
v -0.02942940074 -0.01610000014 0.3265790513
v -0.03004639589 -0.01610000014 0.3272888223
v -0.03091209072 -0.01610000014 0.3269213557
v -0.03083012316 -0.01610000014 0.3259844758
v -0.02991376813 -0.01610000014 0.325772919
v -0.06691093225 -0.02380000114 0.3534143794
v -0.06739530202 -0.02380000114 0.3526082472
v -0.06831165466 -0.02380000114 0.3528197991
v -0.06839362462 -0.02380000114 0.3537566791
v -0.0675279274 -0.02380000114 0.3541241409
v -0.02279117038 -0.02609999895 0.3311751151
v -0.02279117038 -0.02430000067 0.3311751151
v -0.03485034926 -0.02430000067 0.3301200488
v -0.03485034926 -0.02609999895 0.3301200488
v -0.07039975534 -0.02609999895 0.2969854258
v -0.07039975534 -0.02430000067 0.2969854258
v -0.06845131615 -0.02430000067 0.2961336789
v -0.06703305185 -0.02430000067 0.2945492564
v -0.06640148223 -0.02430000067 0.292518737
v -0.06640148223 -0.02609999895 0.292518737
v -0.06703305185 -0.02609999895 0.2945492564
v -0.06845131615 -0.02609999895 0.2961336789
v -0.1071473421 -0.02380000114 0.3227909348
v -0.105202419 -0.02380000114 0.3229610975
v -0.105202419 -0.01610000014 0.3229610975
v -0.1071473421 -0.01610000014 0.3227909348
v -0.02279117038 -0.02430000067 0.3311751151
v -0.02276146313 -0.02413336277 0.3310104346
v -0.02273240201 -0.02396669388 0.3308456779
v -0.02270398461 -0.02380000114 0.3306808258
v -0.03480677024 -0.02380000114 0.3296219543
v -0.03485034926 -0.02430000067 0.3301200488
v -0.05988484419 -0.02380000114 0.3494419472
v -0.05978657368 -0.02430000067 0.3499321932
v -0.05339825378 -0.02430000067 0.347794572
v -0.04773793281 -0.02430000067 0.3441420475
v -0.04315797953 -0.02430000067 0.3392019939
v -0.03994348349 -0.02430000067 0.3332819232
v -0.04040921718 -0.02380000114 0.3331000185
v -0.04356418706 -0.02380000114 0.3389104454
v -0.04805932992 -0.02380000114 0.3437590227
v -0.05361482289 -0.02380000114 0.3473439033
v -0.07156804602 -0.01480000019 0.363045118
v -0.07050782363 -0.01480000019 0.361008453
v -0.06831799068 -0.01480000019 0.3603180062
v -0.06628132567 -0.01480000019 0.3613782381
v -0.06559087885 -0.01480000019 0.3635680663
v -0.066651106 -0.01480000019 0.3656047313
v -0.06884093418 -0.01480000019 0.3662951781
v -0.07087759919 -0.01480000019 0.3652349558
v -0.07156804602 -0.01610000014 0.363045118
v -0.07129838775 -0.01610000014 0.3645744402
v -0.070300198 -0.01610000014 0.3657640457
v -0.06884093418 -0.01610000014 0.3662951781
v -0.06731161204 -0.01610000014 0.3660255199
v -0.06612201125 -0.01610000014 0.3650273301
v -0.06559087885 -0.01610000014 0.3635680663
v -0.06559087885 -0.02380000114 0.3635680663
v -0.06558381672 -0.02380000114 0.3634681499
v -0.06558009244 -0.02380000114 0.3633680618
v -0.06557971556 -0.02380000114 0.3632678973
v -0.06557971556 -0.01980000019 0.3632678973
v -0.06558272423 -0.01980000019 0.3631667602
v -0.06558914705 -0.01980000019 0.3630657756
v -0.06559896972 -0.01980000019 0.3629650676
v -0.06559896972 -0.01610000014 0.3629650676
v -0.06648678011 -0.01610000014 0.3611570139
v -0.06831799068 -0.01610000014 0.3603180062
v -0.070267073 -0.01610000014 0.3608262731
v -0.07145537312 -0.01610000014 0.3624526862
v -0.07145537312 -0.01980000019 0.3624526862
v -0.07148253394 -0.01980000019 0.3625501612
v -0.07150639027 -0.01980000019 0.3626484945
v -0.07152691829 -0.01980000019 0.3627475717
v -0.07152691829 -0.02380000114 0.3627475717
v -0.07154393678 -0.02380000114 0.362846277
v -0.07155765079 -0.02380000114 0.3629454972
v -0.07156804602 -0.02380000114 0.363045118
v -0.06559087885 -0.01480000019 0.3635680663
v -0.06559087885 -0.01610000014 0.3635680663
v -0.02248385974 -0.01610000014 0.3292421608
v -0.02239740083 -0.01610000014 0.3285648662
v -0.0223217065 -0.01610000014 0.3278862842
v -0.02225679824 -0.01610000014 0.3272065863
v -0.02278792825 -0.01610000014 0.3286658454
v -0.02397753142 -0.01610000014 0.3296640399
v -0.02550685595 -0.01610000014 0.3299336934
v -0.02356193047 -0.01610000014 0.3301038561
v -0.02306660142 -0.01610000014 0.3300205679
v -0.02267424733 -0.01610000014 0.3297069623
v -0.06378484679 -0.02609999895 0.3543988915
v -0.06378484679 -0.02430000067 0.3543988915
v -0.06483990831 -0.02430000067 0.3664580632
v -0.06483990831 -0.02609999895 0.3664580632
v -0.05737686608 -0.02609999895 0.2811568177
v -0.05737686608 -0.02430000067 0.2811568177
v -0.0584319276 -0.02430000067 0.2932159966
v -0.0584319276 -0.02609999895 0.2932159966
v -0.09024284791 -0.02609999895 0.3136356958
v -0.09024284791 -0.02430000067 0.3136356958
v -0.08702835426 -0.02430000067 0.3077156346
v -0.08244839145 -0.02430000067 0.3027755811
v -0.07678807525 -0.02430000067 0.2991230565
v -0.07039975534 -0.02430000067 0.2969854258
v -0.07039975534 -0.02609999895 0.2969854258
v -0.07678807525 -0.02609999895 0.2991230565
v -0.08244839145 -0.02609999895 0.3027755811
v -0.08702835426 -0.02609999895 0.3077156346
v -0.1080593962 -0.02380000114 0.3217551189
v -0.1079526142 -0.02380000114 0.3222459228
v -0.1076206885 -0.02380000114 0.3226228965
v -0.1071473421 -0.02380000114 0.3227909348
v -0.1071473421 -0.01610000014 0.3227909348
v -0.1076206885 -0.01610000014 0.3226228965
v -0.1079526142 -0.01610000014 0.3222459228
v -0.1080593962 -0.01610000014 0.3217551189
v -0.09460631766 -0.01980000019 0.3188791183
v -0.1043819244 -0.01980000019 0.3170250581
v -0.1042828472 -0.01980000019 0.3170455861
v -0.1041845139 -0.01980000019 0.3170694424
v -0.1040870389 -0.01980000019 0.3170966033
v -0.09939070075 -0.01980000019 0.3184910264
v -0.09809474528 -0.01980000019 0.3196865405
v -0.09824842344 -0.01980000019 0.3214429937
v -0.09973228513 -0.01980000019 0.3223952969
v -0.1045994202 -0.01980000019 0.3229530114
v -0.1047001282 -0.01980000019 0.3229628293
v -0.1048011128 -0.01980000019 0.3229692522
v -0.10490225 -0.01980000019 0.3229722608
v -0.09495320457 -0.01980000019 0.3228439233
v -0.0933033178 -0.01980000019 0.3219359138
v -0.09313917762 -0.01980000019 0.3200598364
v -0.09418204106 -0.01980000019 0.3209138118
v -0.09479904098 -0.01980000019 0.3216235828
v -0.0956647382 -0.01980000019 0.3212561163
v -0.09558276824 -0.01980000019 0.3203192411
v -0.09466641083 -0.01980000019 0.3201076843
v -0.1080924436 -0.02380000114 0.3232101588
v -0.1080930828 -0.02396669388 0.3233774333
v -0.1080930831 -0.02413336277 0.3235447364
v -0.1080924158 -0.02430000067 0.3237120681
v -0.09603324411 -0.02430000067 0.3247671296
v -0.09598966032 -0.02380000114 0.3242690351
v -0.06428294127 -0.02380000114 0.3543553077
v -0.06378484679 -0.02430000067 0.3543988915
v -0.06315327718 -0.02430000067 0.3523683674
v -0.06173501287 -0.02430000067 0.3507839449
v -0.05978657368 -0.02430000067 0.3499321932
v -0.05988484419 -0.02380000114 0.3494419472
v -0.06202812396 -0.02380000114 0.3503788712
v -0.06358821899 -0.02380000114 0.3521217369
v -0.03558000898 -0.01980000019 0.3280385055
v -0.0370471514 -0.01980000019 0.3268577873
v -0.03688301122 -0.01980000019 0.32498171
v -0.03523312683 -0.01980000019 0.3240737053
v -0.03523312683 -0.02380000114 0.3240737053
v -0.03688301122 -0.02380000114 0.32498171
v -0.0370471514 -0.02380000114 0.3268577873
v -0.03558000898 -0.02380000114 0.3280385055
v -0.06967285813 -0.01980000019 0.352971965
v -0.07152691829 -0.01980000019 0.3627475717
v -0.07150639027 -0.01980000019 0.3626484945
v -0.07148253394 -0.01980000019 0.3625501612
v -0.07145537312 -0.01980000019 0.3624526862
v -0.07006094998 -0.01980000019 0.3577563481
v -0.06886543589 -0.01980000019 0.3564603926
v -0.06710898264 -0.01980000019 0.3566140708
v -0.06615667945 -0.01980000019 0.3580979325
v -0.06559896972 -0.01980000019 0.3629650676
v -0.06558914705 -0.01980000019 0.3630657756
v -0.06558272423 -0.01980000019 0.3631667602
v -0.06557971556 -0.01980000019 0.3632678973
v -0.06570805313 -0.01980000019 0.3533188519
v -0.06661606263 -0.01980000019 0.3516689652
v -0.06849213999 -0.01980000019 0.351504825
v -0.06691093225 -0.01980000019 0.3534143794
v -0.0675279274 -0.01980000019 0.3541241409
v -0.06839362462 -0.01980000019 0.3537566791
v -0.06831165466 -0.01980000019 0.3528197991
v -0.06739530202 -0.01980000019 0.3526082472
v -0.02279117038 -0.02609999895 0.3311751151
v -0.03485034926 -0.02609999895 0.3301200488
v -0.03695969136 -0.02609999895 0.3303894199
v -0.0387663268 -0.02609999895 0.3315109997
v -0.03994348349 -0.02609999895 0.3332819232
v -0.04315797953 -0.02609999895 0.3392019939
v -0.04773793281 -0.02609999895 0.3441420475
v -0.05339825378 -0.02609999895 0.347794572
v -0.05978657368 -0.02609999895 0.3499321932
v -0.06173501287 -0.02609999895 0.3507839449
v -0.06315327718 -0.02609999895 0.3523683674
v -0.06378484679 -0.02609999895 0.3543988915
v -0.06483990831 -0.02609999895 0.3664580632
v -0.05639566428 -0.02609999895 0.3655700165
v -0.04829054395 -0.02609999895 0.3630400186
v -0.04084057132 -0.02609999895 0.3589667265
v -0.03433622395 -0.02609999895 0.3535089457
v -0.02903111045 -0.02609999895 0.3468794975
v -0.0251320856 -0.02609999895 0.3393368465
v -0.0341530873 -0.02609999895 0.3221504941
v -0.0341530873 -0.02430000067 0.3221504941
v -0.02209391079 -0.02430000067 0.3232055557
v -0.02209391079 -0.02609999895 0.3232055557
v -0.107395161 -0.02430000067 0.3157425134
v -0.1074248683 -0.02413336277 0.3159071891
v -0.107453927 -0.02396669388 0.3160719506
v -0.1074823468 -0.02380000114 0.3162367931
v -0.09537956355 -0.02380000114 0.3172956742
v -0.09533597976 -0.02430000067 0.316797575
v -0.0657610416 -0.02380000114 0.3655129894
v -0.06559087885 -0.02380000114 0.3635680663
v -0.06559087885 -0.01610000014 0.3635680663
v -0.0657610416 -0.01610000014 0.3655129894
v -0.1066243938 -0.02380000114 0.3168137676
v -0.1071197324 -0.02380000114 0.3168970559
v -0.1075120841 -0.02380000114 0.3172106615
v -0.1077024669 -0.02380000114 0.3176754629
v -0.1077024669 -0.01610000014 0.3176754629
v -0.1075120841 -0.01610000014 0.3172106615
v -0.1071197324 -0.01610000014 0.3168970559
v -0.1066243938 -0.01610000014 0.3168137676
v -0.02558690882 -0.01610000014 0.3239646171
v -0.02558690882 -0.01980000019 0.3239646171
v -0.03045403912 -0.01980000019 0.3245223268
v -0.03045403912 -0.01610000014 0.3245223268
v -0.02356193047 -0.02380000114 0.3301038561
v -0.02306660142 -0.02380000114 0.3300205679
v -0.02267424733 -0.02380000114 0.3297069623
v -0.02248385974 -0.02380000114 0.3292421608
v -0.02248385974 -0.01610000014 0.3292421608
v -0.02267424733 -0.01610000014 0.3297069623
v -0.02306660142 -0.01610000014 0.3300205679
v -0.02356193047 -0.01610000014 0.3301038561
v -0.09598966032 -0.02380000114 0.3242690351
v -0.09603324411 -0.02430000067 0.3247671296
v -0.09400272001 -0.02430000067 0.3253986992
v -0.09241829753 -0.02430000067 0.3268169635
v -0.09156654581 -0.02430000067 0.3287654027
v -0.09107629982 -0.02380000114 0.3286671322
v -0.09201322385 -0.02380000114 0.3265238524
v -0.09375608954 -0.02380000114 0.3249637574
v -0.06534182234 -0.02380000114 0.3664580909
v -0.06517454309 -0.02396669388 0.3664587397
v -0.06500724001 -0.02413336277 0.3664587305
v -0.06483990831 -0.02430000067 0.3664580632
v -0.06378484679 -0.02430000067 0.3543988915
v -0.06428294127 -0.02380000114 0.3543553077
v -0.03485034926 -0.02609999895 0.3301200488
v -0.03485034926 -0.02430000067 0.3301200488
v -0.03695969136 -0.02430000067 0.3303894199
v -0.0387663268 -0.02430000067 0.3315109997
v -0.03994348349 -0.02430000067 0.3332819232
v -0.03994348349 -0.02609999895 0.3332819232
v -0.0387663268 -0.02609999895 0.3315109997
v -0.03695969136 -0.02609999895 0.3303894199
v -0.0282339654 -0.01480000019 0.326683638
v -0.02717374063 -0.01480000019 0.324646973
v -0.02498391007 -0.01480000019 0.3239565262
v -0.02294724506 -0.01480000019 0.3250167534
v -0.02225679824 -0.01480000019 0.3272065863
v -0.02331702301 -0.01480000019 0.3292432465
v -0.02550685595 -0.01480000019 0.3299336934
v -0.02754351858 -0.01480000019 0.328873471
v -0.02558690882 -0.01610000014 0.3239646171
v -0.02739496006 -0.01610000014 0.3248524322
v -0.0282339654 -0.01610000014 0.326683638
v -0.02772569856 -0.01610000014 0.3286327204
v -0.02609928778 -0.01610000014 0.3298210205
v -0.02609928778 -0.01980000019 0.3298210205
v -0.02600181754 -0.01980000019 0.3298481813
v -0.02590348422 -0.01980000019 0.3298720376
v -0.02580440227 -0.01980000019 0.3298925656
v -0.02580440227 -0.02380000114 0.3298925656
v -0.025705697 -0.02380000114 0.3299095889
v -0.02560647675 -0.02380000114 0.3299233029
v -0.02550685595 -0.02380000114 0.3299336934
v -0.02550685595 -0.01610000014 0.3299336934
v -0.02397753142 -0.01610000014 0.3296640399
v -0.02278792825 -0.01610000014 0.3286658454
v -0.02225679824 -0.01610000014 0.3272065863
v -0.0225264565 -0.01610000014 0.3256772642
v -0.02352464863 -0.01610000014 0.3244876586
v -0.02498391007 -0.01610000014 0.3239565262
v -0.02498391007 -0.02380000114 0.3239565262
v -0.02508382413 -0.02380000114 0.3239494641
v -0.02518391701 -0.02380000114 0.3239457398
v -0.02528407904 -0.02380000114 0.3239453629
v -0.02528407904 -0.01980000019 0.3239453629
v -0.02538522098 -0.01980000019 0.3239483716
v -0.02548620079 -0.01980000019 0.3239547944
v -0.02558690882 -0.01980000019 0.3239646171
v -0.02225679824 -0.01480000019 0.3272065863
v -0.02225679824 -0.01610000014 0.3272065863
v -0.06012537904 -0.01610000014 0.2891612732
v -0.0587309559 -0.01610000014 0.2844649375
v -0.05991925603 -0.01610000014 0.2860913483
v -0.06186833834 -0.01610000014 0.2865996151
v -0.06369954891 -0.01610000014 0.2857606074
v -0.06458735931 -0.01610000014 0.2839525586
v -0.06402964957 -0.01610000014 0.2888196889
v -0.06307734638 -0.01610000014 0.2903035553
v -0.06132089314 -0.01610000014 0.2904572287
v -0.06124569753 -0.01610000014 0.2886617295
v -0.06186269268 -0.01610000014 0.2893715006
v -0.06272838513 -0.01610000014 0.2890040316
v -0.06264641995 -0.01610000014 0.288067154
v -0.06173006731 -0.01610000014 0.2878555997
v -0.05978657368 -0.02609999895 0.3499321932
v -0.05978657368 -0.02430000067 0.3499321932
v -0.06173501287 -0.02430000067 0.3507839449
v -0.06315327718 -0.02430000067 0.3523683674
v -0.06378484679 -0.02430000067 0.3543988915
v -0.06378484679 -0.02609999895 0.3543988915
v -0.06315327718 -0.02609999895 0.3523683674
v -0.06173501287 -0.02609999895 0.3507839449
v -0.03419666632 -0.02380000114 0.3226485886
v -0.0341530873 -0.02430000067 0.3221504941
v -0.03618360663 -0.02430000067 0.3215189245
v -0.03776803149 -0.02430000067 0.3201006602
v -0.03861977845 -0.02430000067 0.318152221
v -0.03911002682 -0.02380000114 0.3182504916
v -0.03817310517 -0.02380000114 0.3203937713
v -0.0364302371 -0.02380000114 0.3219538664
v -0.06484450669 -0.02380000114 0.2804595304
v -0.06501178593 -0.02396669388 0.2804588888
v -0.06517908902 -0.02413336277 0.280458898
v -0.06534642071 -0.02430000067 0.2804595582
v -0.06640148223 -0.02430000067 0.292518737
v -0.06590338775 -0.02380000114 0.2925623161
v -0.02209388307 -0.02380000114 0.3237074697
v -0.02209324143 -0.02396669388 0.3235401905
v -0.02209325067 -0.02413336277 0.3233728874
v -0.02209391079 -0.02430000067 0.3232055557
v -0.0341530873 -0.02430000067 0.3221504941
v -0.03419666632 -0.02380000114 0.3226485886
v -0.06679685749 -0.02380000114 0.3664250436
v -0.06630605358 -0.02380000114 0.3663182615
v -0.06592907985 -0.02380000114 0.3659863358
v -0.0657610416 -0.02380000114 0.3655129894
v -0.0657610416 -0.01610000014 0.3655129894
v -0.06592907985 -0.01610000014 0.3659863358
v -0.06630605358 -0.01610000014 0.3663182615
v -0.06679685749 -0.01610000014 0.3664250436
v -0.10490225 -0.02380000114 0.3229722608
v -0.09495320457 -0.02380000114 0.3228439233
v -0.09495320457 -0.01980000019 0.3228439233
v -0.10490225 -0.01980000019 0.3229722608
v -0.1046794707 -0.02380000114 0.3169839304
v -0.1066243938 -0.02380000114 0.3168137676
v -0.1066243938 -0.01610000014 0.3168137676
v -0.1046794707 -0.01610000014 0.3169839304
v -0.03079562589 -0.01980000019 0.3284265973
v -0.02609928778 -0.01980000019 0.3298210205
v -0.02609928778 -0.01610000014 0.3298210205
v -0.03079562589 -0.01610000014 0.3284265973
v -0.02550685595 -0.02380000114 0.3299336934
v -0.02356193047 -0.02380000114 0.3301038561
v -0.02356193047 -0.01610000014 0.3301038561
v -0.02550685595 -0.01610000014 0.3299336934
v -0.02212692805 -0.02380000114 0.3251625048
v -0.0222337101 -0.02380000114 0.3246717057
v -0.02256564532 -0.02380000114 0.324294732
v -0.02303898459 -0.02380000114 0.324126689
v -0.02303898459 -0.01610000014 0.324126689
v -0.02256564532 -0.01610000014 0.324294732
v -0.0222337101 -0.01610000014 0.3246717057
v -0.02212692805 -0.01610000014 0.3251625048
v -0.09107629982 -0.02380000114 0.3286671322
v -0.09156654581 -0.02430000067 0.3287654027
v -0.08942892465 -0.02430000067 0.3351537274
v -0.08577639056 -0.02430000067 0.3408140388
v -0.08083633703 -0.02430000067 0.3453940016
v -0.07491628061 -0.02430000067 0.3486084953
v -0.07473437118 -0.02380000114 0.3481427592
v -0.08054479808 -0.02380000114 0.3449877941
v -0.08539337532 -0.02380000114 0.3404926512
v -0.08897825593 -0.02380000114 0.3349371487
v -0.03994348349 -0.02609999895 0.3332819232
v -0.03994348349 -0.02430000067 0.3332819232
v -0.04315797953 -0.02430000067 0.3392019939
v -0.04773793281 -0.02430000067 0.3441420475
v -0.05339825378 -0.02430000067 0.347794572
v -0.05978657368 -0.02430000067 0.3499321932
v -0.05978657368 -0.02609999895 0.3499321932
v -0.05339825378 -0.02609999895 0.347794572
v -0.04773793281 -0.02609999895 0.3441420475
v -0.04315797953 -0.02609999895 0.3392019939
v -0.07280946294 -0.02609999895 0.3657608084
v -0.07280946294 -0.02430000067 0.3657608084
v -0.07175440142 -0.02430000067 0.3537016271
v -0.07175440142 -0.02609999895 0.3537016271
v -0.05996314479 -0.02279999971 0.2837548414
v -0.06090954494 -0.02279999971 0.2851064394
v -0.06255326913 -0.02279999971 0.2849626296
v -0.06325058363 -0.02279999971 0.2834672217
v -0.06230418348 -0.02279999971 0.2821156213
v -0.06066045929 -0.02279999971 0.2822594311
v -0.05996314479 -0.01480000019 0.2837548414
v -0.06066045929 -0.01480000019 0.2822594311
v -0.06230418348 -0.01480000019 0.2821156213
v -0.06325058363 -0.01480000019 0.2834672217
v -0.06255326913 -0.01480000019 0.2849626296
v -0.06090954494 -0.01480000019 0.2851064394
v -0.06325058363 -0.01480000019 0.2834672217
v -0.06325058363 -0.02279999971 0.2834672217
v -0.03558000898 -0.01980000019 0.3280385055
v -0.02580440227 -0.01980000019 0.3298925656
v -0.02590348422 -0.01980000019 0.3298720376
v -0.02600181754 -0.01980000019 0.3298481813
v -0.02609928778 -0.01980000019 0.3298210205
v -0.03079562589 -0.01980000019 0.3284265973
v -0.03209157897 -0.01980000019 0.3272310832
v -0.03193790796 -0.01980000019 0.32547463
v -0.03045403912 -0.01980000019 0.3245223268
v -0.02558690882 -0.01980000019 0.3239646171
v -0.02548620079 -0.01980000019 0.3239547944
v -0.02538522098 -0.01980000019 0.3239483716
v -0.02528407904 -0.01980000019 0.3239453629
v -0.03523312683 -0.01980000019 0.3240737053
v -0.03688301122 -0.01980000019 0.32498171
v -0.0370471514 -0.01980000019 0.3268577873
v -0.03441037179 -0.01980000019 0.326143261
v -0.03502736933 -0.01980000019 0.3268530321
v -0.03589306177 -0.01980000019 0.3264855655
v -0.03581109421 -0.01980000019 0.3255486903
v -0.03489474156 -0.01980000019 0.3253371336
v -0.06442528742 -0.01610000014 0.2814046343
v -0.06459545017 -0.01610000014 0.2833495574
v -0.06406431778 -0.01610000014 0.281890296
v -0.06287471699 -0.01610000014 0.2808921039
v -0.06134539008 -0.01610000014 0.280622448
v -0.06202603688 -0.01610000014 0.2805683377
v -0.06270745141 -0.01610000014 0.2805250444
v -0.06338947154 -0.01610000014 0.2804925754
v -0.06388027067 -0.01610000014 0.2805993598
v -0.06425724441 -0.01610000014 0.2809312927
v -0.07006094998 -0.01980000019 0.3577563481
v -0.07145537312 -0.01980000019 0.3624526862
v -0.07145537312 -0.01610000014 0.3624526862
v -0.07006094998 -0.01610000014 0.3577563481
v -0.03911002682 -0.02380000114 0.3182504916
v -0.03861977845 -0.02430000067 0.318152221
v -0.04075740914 -0.02430000067 0.3117639011
v -0.0444099337 -0.02430000067 0.3061035849
v -0.04934998723 -0.02430000067 0.3015236269
v -0.05527004842 -0.02430000067 0.2983091332
v -0.05545195784 -0.02380000114 0.2987748645
v -0.04964152618 -0.02380000114 0.3019298344
v -0.04479295848 -0.02380000114 0.3064249773
v -0.04120806832 -0.02380000114 0.3119804702
v -0.05737686608 -0.02430000067 0.2811568177
v -0.05754154174 -0.02413336277 0.2811271105
v -0.05770630323 -0.02396669388 0.2810980494
v -0.05787114579 -0.02380000114 0.2810696343
v -0.05893002685 -0.02380000114 0.2931724176
v -0.0584319276 -0.02430000067 0.2932159966
v -0.06590338775 -0.02380000114 0.2925623161
v -0.06640148223 -0.02430000067 0.292518737
v -0.06703305185 -0.02430000067 0.2945492564
v -0.06845131615 -0.02430000067 0.2961336789
v -0.07039975534 -0.02430000067 0.2969854258
v -0.07030148483 -0.02380000114 0.2974756766
v -0.06815820506 -0.02380000114 0.2965387525
v -0.06659811003 -0.02380000114 0.2947958868
v -0.08977711184 -0.02380000114 0.3138176052
v -0.09024284791 -0.02430000067 0.3136356958
v -0.09141999984 -0.02430000067 0.315406624
v -0.09322664244 -0.02430000067 0.3165282086
v -0.09533597976 -0.02430000067 0.316797575
v -0.09537956355 -0.02380000114 0.3172956742
v -0.09305928296 -0.02380000114 0.3169993669
v -0.09107198564 -0.02380000114 0.3157656258
v -0.07173820877 -0.02380000114 0.3649900507
v -0.07165492049 -0.02380000114 0.3654853797
v -0.07134131492 -0.02380000114 0.3658777314
v -0.07087651346 -0.02380000114 0.3660681143
v -0.07087651346 -0.01610000014 0.3660681143
v -0.07134131492 -0.01610000014 0.3658777314
v -0.07165492049 -0.01610000014 0.3654853797
v -0.07173820877 -0.01610000014 0.3649900507
v -0.09495320457 -0.02380000114 0.3228439233
v -0.0933033178 -0.02380000114 0.3219359138
v -0.09313917762 -0.02380000114 0.3200598364
v -0.09460631766 -0.02380000114 0.3188791183
v -0.09460631766 -0.01980000019 0.3188791183
v -0.09313917762 -0.01980000019 0.3200598364
v -0.0933033178 -0.01980000019 0.3219359138
v -0.09495320457 -0.01980000019 0.3228439233
v -0.02303898459 -0.01610000014 0.324126689
v -0.02498391007 -0.01610000014 0.3239565262
v -0.02352464863 -0.01610000014 0.3244876586
v -0.0225264565 -0.01610000014 0.3256772642
v -0.02225679824 -0.01610000014 0.3272065863
v -0.02220269033 -0.01610000014 0.3265259395
v -0.02215939709 -0.01610000014 0.325844525
v -0.02212692805 -0.01610000014 0.3251625048
v -0.0222337101 -0.01610000014 0.3246717057
v -0.02256564532 -0.01610000014 0.324294732
v -0.02303898459 -0.02380000114 0.324126689
v -0.02498391007 -0.02380000114 0.3239565262
v -0.02498391007 -0.01610000014 0.3239565262
v -0.02303898459 -0.01610000014 0.324126689
v -0.07473437118 -0.02380000114 0.3481427592
v -0.07491628061 -0.02430000067 0.3486084953
v -0.07314535238 -0.02430000067 0.3497856472
v -0.0720237678 -0.02430000067 0.3515922898
v -0.07175440142 -0.02430000067 0.3537016271
v -0.07125630217 -0.02380000114 0.3537452109
v -0.07155260948 -0.02380000114 0.3514249303
v -0.07278635061 -0.02380000114 0.349437633
v -0.09603324411 -0.02609999895 0.3247671296
v -0.09603324411 -0.02430000067 0.3247671296
v -0.1080924158 -0.02430000067 0.3237120681
v -0.1080924158 -0.02609999895 0.3237120681
v -0.06124569753 -0.0200999999 0.2886617295
v -0.06186269268 -0.0200999999 0.2893715006
v -0.06272838513 -0.0200999999 0.2890040316
v -0.06264641995 -0.0200999999 0.288067154
v -0.06173006731 -0.0200999999 0.2878555997
v -0.06124569753 -0.01610000014 0.2886617295
v -0.06173006731 -0.01610000014 0.2878555997
v -0.06264641995 -0.01610000014 0.288067154
v -0.06272838513 -0.01610000014 0.2890040316
v -0.06186269268 -0.01610000014 0.2893715006
v -0.06264641995 -0.0200999999 0.288067154
v -0.06264641995 -0.01610000014 0.288067154
v -0.06557971556 -0.02380000114 0.3632678973
v -0.06570805313 -0.02380000114 0.3533188519
v -0.06570805313 -0.01980000019 0.3533188519
v -0.06557971556 -0.01980000019 0.3632678973
v -0.06460661346 -0.02380000114 0.2836497264
v -0.06447827113 -0.02380000114 0.2935987718
v -0.06447827113 -0.01980000019 0.2935987718
v -0.06460661346 -0.01980000019 0.2836497264
v -0.09939070075 -0.01980000019 0.3184910264
v -0.1040870389 -0.01980000019 0.3170966033
v -0.1040870389 -0.01610000014 0.3170966033
v -0.09939070075 -0.01610000014 0.3184910264
v -0.06615667945 -0.01980000019 0.3580979325
v -0.06710898264 -0.01980000019 0.3566140708
v -0.06886543589 -0.01980000019 0.3564603926
v -0.07006094998 -0.01980000019 0.3577563481
v -0.07006094998 -0.01610000014 0.3577563481
v -0.06886543589 -0.01610000014 0.3564603926
v -0.06710898264 -0.01610000014 0.3566140708
v -0.06615667945 -0.01610000014 0.3580979325
v -0.1045994202 -0.01610000014 0.3229530114
v -0.1045994202 -0.01980000019 0.3229530114
v -0.09973228513 -0.01980000019 0.3223952969
v -0.09973228513 -0.01610000014 0.3223952969
v -0.05545195784 -0.02380000114 0.2987748645
v -0.05527004842 -0.02430000067 0.2983091332
v -0.05704097664 -0.02430000067 0.2971319765
v -0.05816256123 -0.02430000067 0.2953253387
v -0.0584319276 -0.02430000067 0.2932159966
v -0.05893002685 -0.02380000114 0.2931724176
v -0.05863371955 -0.02380000114 0.2954926934
v -0.05739997841 -0.02380000114 0.2974799955
v -0.07030148483 -0.02380000114 0.2974756766
v -0.07039975534 -0.02430000067 0.2969854258
v -0.07678807525 -0.02430000067 0.2991230565
v -0.08244839145 -0.02430000067 0.3027755811
v -0.08702835426 -0.02430000067 0.3077156346
v -0.09024284791 -0.02430000067 0.3136356958
v -0.08977711184 -0.02380000114 0.3138176052
v -0.08662214674 -0.02380000114 0.3080071735
v -0.08212700387 -0.02380000114 0.3031586058
v -0.07657150614 -0.02380000114 0.2995737205
v -0.07156804602 -0.02380000114 0.363045118
v -0.07173820877 -0.02380000114 0.3649900507
v -0.07173820877 -0.01610000014 0.3649900507
v -0.07156804602 -0.01610000014 0.363045118
v -0.09460631766 -0.02380000114 0.3188791183
v -0.1043819244 -0.02380000114 0.3170250581
v -0.1043819244 -0.01980000019 0.3170250581
v -0.09460631766 -0.01980000019 0.3188791183
v -0.06559896972 -0.01610000014 0.3629650676
v -0.06559896972 -0.01980000019 0.3629650676
v -0.06615667945 -0.01980000019 0.3580979325
v -0.06615667945 -0.01610000014 0.3580979325
v -0.03558000898 -0.02380000114 0.3280385055
v -0.02580440227 -0.02380000114 0.3298925656
v -0.02580440227 -0.01980000019 0.3298925656
v -0.03558000898 -0.01980000019 0.3280385055
v -0.07280946294 -0.02430000067 0.3657608084
v -0.07264478728 -0.02413336277 0.3657905156
v -0.07248002579 -0.02396669388 0.3658195744
v -0.07231518324 -0.02380000114 0.3658479942
v -0.07125630217 -0.02380000114 0.3537452109
v -0.07175440142 -0.02430000067 0.3537016271
v -0.07280946294 -0.02609999895 0.3657608084
v -0.07175440142 -0.02609999895 0.3537016271
v -0.0720237678 -0.02609999895 0.3515922898
v -0.07314535238 -0.02609999895 0.3497856472
v -0.07491628061 -0.02609999895 0.3486084953
v -0.08083633703 -0.02609999895 0.3453940016
v -0.08577639056 -0.02609999895 0.3408140388
v -0.08942892465 -0.02609999895 0.3351537274
v -0.09156654581 -0.02609999895 0.3287654027
v -0.09241829753 -0.02609999895 0.3268169635
v -0.09400272001 -0.02609999895 0.3253986992
v -0.09603324411 -0.02609999895 0.3247671296
v -0.1080924158 -0.02609999895 0.3237120681
v -0.1072043691 -0.02609999895 0.3321563073
v -0.1046743712 -0.02609999895 0.3402614277
v -0.1006010792 -0.02609999895 0.3477114051
v -0.09514329831 -0.02609999895 0.35421575
v -0.08851385015 -0.02609999895 0.3595208612
v -0.08097119914 -0.02609999895 0.3634198956
v -0.06168148299 -0.02380000114 0.293642703
v -0.06229847814 -0.02380000114 0.294352474
v -0.06316417535 -0.02380000114 0.2939850074
v -0.0630822054 -0.02380000114 0.2930481275
v -0.06216585276 -0.02380000114 0.2928365707
v -0.06168148299 -0.01980000019 0.293642703
v -0.06216585276 -0.01980000019 0.2928365707
v -0.0630822054 -0.01980000019 0.2930481275
v -0.06316417535 -0.01980000019 0.2939850074
v -0.06229847814 -0.01980000019 0.294352474
v -0.0630822054 -0.02380000114 0.2930481275
v -0.0630822054 -0.01980000019 0.2930481275
v -0.06570805313 -0.02380000114 0.3533188519
v -0.06661606263 -0.02380000114 0.3516689652
v -0.06849213999 -0.02380000114 0.351504825
v -0.06967285813 -0.02380000114 0.352971965
v -0.06967285813 -0.01980000019 0.352971965
v -0.06849213999 -0.01980000019 0.351504825
v -0.06661606263 -0.01980000019 0.3516689652
v -0.06570805313 -0.01980000019 0.3533188519
v -0.06447827113 -0.02380000114 0.2935987718
v -0.0635702664 -0.02380000114 0.2952486586
v -0.06169418903 -0.02380000114 0.2954127988
v -0.0605134709 -0.02380000114 0.293945654
v -0.0605134709 -0.01980000019 0.293945654
v -0.06169418903 -0.01980000019 0.2954127988
v -0.0635702664 -0.01980000019 0.2952486586
v -0.06447827113 -0.01980000019 0.2935987718
v -0.09973228513 -0.01980000019 0.3223952969
v -0.09824842344 -0.01980000019 0.3214429937
v -0.09809474528 -0.01980000019 0.3196865405
v -0.09939070075 -0.01980000019 0.3184910264
v -0.09939070075 -0.01610000014 0.3184910264
v -0.09809474528 -0.01610000014 0.3196865405
v -0.09824842344 -0.01610000014 0.3214429937
v -0.09973228513 -0.01610000014 0.3223952969
v -0.09156654581 -0.02609999895 0.3287654027
v -0.09156654581 -0.02430000067 0.3287654027
v -0.09241829753 -0.02430000067 0.3268169635
v -0.09400272001 -0.02430000067 0.3253986992
v -0.09603324411 -0.02430000067 0.3247671296
v -0.09603324411 -0.02609999895 0.3247671296
v -0.09400272001 -0.02609999895 0.3253986992
v -0.09241829753 -0.02609999895 0.3268169635
v -0.06459545017 -0.01480000019 0.2833495574
v -0.06353522302 -0.01480000019 0.2813128948
v -0.06134539008 -0.01480000019 0.280622448
v -0.05930872983 -0.01480000019 0.2816826728
v -0.05861828301 -0.01480000019 0.2838725033
v -0.05967850539 -0.01480000019 0.2859091683
v -0.06186833834 -0.01480000019 0.2865996151
v -0.06390500335 -0.01480000019 0.2855393904
v -0.06459545017 -0.01610000014 0.2833495574
v -0.06459545017 -0.02380000114 0.2833495574
v -0.06460251231 -0.02380000114 0.2834494715
v -0.06460623658 -0.02380000114 0.2835495644
v -0.06460661346 -0.02380000114 0.2836497264
v -0.06460661346 -0.01980000019 0.2836497264
v -0.06460360479 -0.01980000019 0.2837508683
v -0.06459718198 -0.01980000019 0.2838518505
v -0.06458735931 -0.01980000019 0.2839525586
v -0.06458735931 -0.01610000014 0.2839525586
v -0.06369954891 -0.01610000014 0.2857606074
v -0.06186833834 -0.01610000014 0.2865996151
v -0.05991925603 -0.01610000014 0.2860913483
v -0.0587309559 -0.01610000014 0.2844649375
v -0.0587309559 -0.01980000019 0.2844649375
v -0.05870379509 -0.01980000019 0.2843674649
v -0.05867993875 -0.01980000019 0.2842691316
v -0.05865941074 -0.01980000019 0.2841700496
v -0.05865941074 -0.02380000114 0.2841700496
v -0.05864238748 -0.02380000114 0.2840713444
v -0.05862867347 -0.02380000114 0.2839721241
v -0.05861828301 -0.02380000114 0.2838725033
v -0.05861828301 -0.01610000014 0.2838725033
v -0.05888794128 -0.01610000014 0.2823431812
v -0.05988613102 -0.01610000014 0.281153578
v -0.06134539008 -0.01610000014 0.280622448
v -0.06287471699 -0.01610000014 0.2808921039
v -0.06406431778 -0.01610000014 0.281890296
v -0.05861828301 -0.01480000019 0.2838725033
v -0.05861828301 -0.01610000014 0.2838725033
v -0.06967285813 -0.02380000114 0.352971965
v -0.07152691829 -0.02380000114 0.3627475717
v -0.07152691829 -0.01980000019 0.3627475717
v -0.06967285813 -0.01980000019 0.352971965
v -0.0605134709 -0.02380000114 0.293945654
v -0.05865941074 -0.02380000114 0.2841700496
v -0.05865941074 -0.01980000019 0.2841700496
v -0.0605134709 -0.01980000019 0.293945654
v -0.05844812026 -0.02380000114 0.2819275778
v -0.05853140853 -0.02380000114 0.2814322488
v -0.05884501411 -0.02380000114 0.2810398947
v -0.05930981556 -0.02380000114 0.2808495071
v -0.05930981556 -0.01610000014 0.2808495071
v -0.05884501411 -0.01610000014 0.2810398947
v -0.05853140853 -0.01610000014 0.2814322488
v -0.05844812026 -0.01610000014 0.2819275778
v -0.06338947154 -0.02380000114 0.2804925754
v -0.06388027067 -0.02380000114 0.2805993598
v -0.06425724441 -0.02380000114 0.2809312927
v -0.06442528742 -0.02380000114 0.2814046343
v -0.06442528742 -0.01610000014 0.2814046343
v -0.06425724441 -0.01610000014 0.2809312927
v -0.06388027067 -0.01610000014 0.2805993598
v -0.06338947154 -0.01610000014 0.2804925754
v -0.02528407904 -0.02380000114 0.3239453629
v -0.03523312683 -0.02380000114 0.3240737053
v -0.03523312683 -0.01980000019 0.3240737053
v -0.02528407904 -0.01980000019 0.3239453629
v -0.07491628061 -0.02609999895 0.3486084953
v -0.07491628061 -0.02430000067 0.3486084953
v -0.08083633703 -0.02430000067 0.3453940016
v -0.08577639056 -0.02430000067 0.3408140388
v -0.08942892465 -0.02430000067 0.3351537274
v -0.09156654581 -0.02430000067 0.3287654027
v -0.09156654581 -0.02609999895 0.3287654027
v -0.08942892465 -0.02609999895 0.3351537274
v -0.08577639056 -0.02609999895 0.3408140388
v -0.08083633703 -0.02609999895 0.3453940016
v -0.05861828301 -0.02380000114 0.2838725033
v -0.05844812026 -0.02380000114 0.2819275778
v -0.05844812026 -0.01610000014 0.2819275778
v -0.05861828301 -0.01610000014 0.2838725033
v -0.06012537904 -0.01980000019 0.2891612732
v -0.0587309559 -0.01980000019 0.2844649375
v -0.0587309559 -0.01610000014 0.2844649375
v -0.06012537904 -0.01610000014 0.2891612732
v -0.05930981556 -0.01610000014 0.2808495071
v -0.05998711014 -0.01610000014 0.2807630482
v -0.0606656922 -0.01610000014 0.2806873562
v -0.06134539008 -0.01610000014 0.280622448
v -0.05988613102 -0.01610000014 0.281153578
v -0.05888794128 -0.01610000014 0.2823431812
v -0.05861828301 -0.01610000014 0.2838725033
v -0.05844812026 -0.01610000014 0.2819275778
v -0.05853140853 -0.01610000014 0.2814322488
v -0.05884501411 -0.01610000014 0.2810398947
v -0.06442528742 -0.02380000114 0.2814046343
v -0.06459545017 -0.02380000114 0.2833495574
v -0.06459545017 -0.01610000014 0.2833495574
v -0.06442528742 -0.01610000014 0.2814046343
v -0.07175440142 -0.02609999895 0.3537016271
v -0.07175440142 -0.02430000067 0.3537016271
v -0.0720237678 -0.02430000067 0.3515922898
v -0.07314535238 -0.02430000067 0.3497856472
v -0.07491628061 -0.02430000067 0.3486084953
v -0.07491628061 -0.02609999895 0.3486084953
v -0.07314535238 -0.02609999895 0.3497856472
v -0.0720237678 -0.02609999895 0.3515922898
v -0.05996314479 -0.02279999971 0.2837548414
v -0.06066045929 -0.02279999971 0.2822594311
v -0.06230418348 -0.02279999971 0.2821156213
v -0.06325058363 -0.02279999971 0.2834672217
v -0.06255326913 -0.02279999971 0.2849626296
v -0.06090954494 -0.02279999971 0.2851064394
v -0.06402964957 -0.01980000019 0.2888196889
v -0.06307734638 -0.01980000019 0.2903035553
v -0.06132089314 -0.01980000019 0.2904572287
v -0.06012537904 -0.01980000019 0.2891612732
v -0.06012537904 -0.01610000014 0.2891612732
v -0.06132089314 -0.01610000014 0.2904572287
v -0.06307734638 -0.01610000014 0.2903035553
v -0.06402964957 -0.01610000014 0.2888196889
v -0.06459545017 -0.01480000019 0.2833495574
v -0.06390500335 -0.01480000019 0.2855393904
v -0.06186833834 -0.01480000019 0.2865996151
v -0.05967850539 -0.01480000019 0.2859091683
v -0.05861828301 -0.01480000019 0.2838725033
v -0.05930872983 -0.01480000019 0.2816826728
v -0.06134539008 -0.01480000019 0.280622448
v -0.06353522302 -0.01480000019 0.2813128948
v -0.05996314479 -0.01480000019 0.2837548414
v -0.06090954494 -0.01480000019 0.2851064394
v -0.06255326913 -0.01480000019 0.2849626296
v -0.06325058363 -0.01480000019 0.2834672217
v -0.06230418348 -0.01480000019 0.2821156213
v -0.06066045929 -0.01480000019 0.2822594311
v -0.0605134709 -0.01980000019 0.293945654
v -0.05865941074 -0.01980000019 0.2841700496
v -0.05867993875 -0.01980000019 0.2842691316
v -0.05870379509 -0.01980000019 0.2843674649
v -0.0587309559 -0.01980000019 0.2844649375
v -0.06012537904 -0.01980000019 0.2891612732
v -0.06132089314 -0.01980000019 0.2904572287
v -0.06307734638 -0.01980000019 0.2903035553
v -0.06402964957 -0.01980000019 0.2888196889
v -0.06458735931 -0.01980000019 0.2839525586
v -0.06459718198 -0.01980000019 0.2838518505
v -0.06460360479 -0.01980000019 0.2837508683
v -0.06460661346 -0.01980000019 0.2836497264
v -0.06447827113 -0.01980000019 0.2935987718
v -0.0635702664 -0.01980000019 0.2952486586
v -0.06169418903 -0.01980000019 0.2954127988
v -0.06168148299 -0.01980000019 0.293642703
v -0.06229847814 -0.01980000019 0.294352474
v -0.06316417535 -0.01980000019 0.2939850074
v -0.0630822054 -0.01980000019 0.2930481275
v -0.06216585276 -0.01980000019 0.2928365707
v -0.06124569753 -0.0200999999 0.2886617295
v -0.06173006731 -0.0200999999 0.2878555997
v -0.06264641995 -0.0200999999 0.288067154
v -0.06272838513 -0.0200999999 0.2890040316
v -0.06186269268 -0.0200999999 0.2893715006
v -0.06458735931 -0.01610000014 0.2839525586
v -0.06458735931 -0.01980000019 0.2839525586
v -0.06402964957 -0.01980000019 0.2888196889
v -0.06402964957 -0.01610000014 0.2888196889
v -0.06168148299 -0.02380000114 0.293642703
v -0.06216585276 -0.02380000114 0.2928365707
v -0.0630822054 -0.02380000114 0.2930481275
v -0.06316417535 -0.02380000114 0.2939850074
v -0.06229847814 -0.02380000114 0.294352474
f 2 40 1
f 1 40 21
f 1 21 20
f 20 21 22
f 20 22 19
f 19 22 23
f 19 23 18
f 18 23 24
f 18 24 17
f 17 24 25
f 17 25 16
f 16 25 26
f 16 26 15
f 15 26 27
f 15 27 14
f 14 27 28
f 14 28 13
f 13 28 29
f 13 29 12
f 12 29 30
f 12 30 11
f 11 30 41
f 42 31 10
f 10 31 32
f 10 32 9
f 9 32 33
f 9 33 8
f 8 33 34
f 8 34 7
f 7 34 35
f 7 35 6
f 6 35 36
f 6 36 5
f 5 36 37
f 5 37 4
f 4 37 38
f 4 38 3
f 3 38 39
f 3 39 2
f 2 39 40
f 52 43 51
f 51 43 44
f 51 44 50
f 50 44 45
f 50 45 49
f 49 45 46
f 49 46 48
f 48 46 47
f 54 64 53
f 53 64 59
f 53 59 58
f 58 59 60
f 58 60 57
f 57 60 61
f 57 61 56
f 56 61 65
f 66 62 55
f 55 62 63
f 55 63 54
f 54 63 64
f 68 78 67
f 67 78 73
f 67 73 72
f 72 73 74
f 72 74 71
f 71 74 75
f 71 75 70
f 70 75 79
f 80 76 69
f 69 76 77
f 69 77 68
f 68 77 78
f 82 92 81
f 81 92 87
f 81 87 86
f 86 87 88
f 86 88 85
f 85 88 89
f 85 89 84
f 84 89 93
f 94 90 83
f 83 90 91
f 83 91 82
f 82 91 92
f 96 104 95
f 95 104 100
f 95 100 99
f 99 100 101
f 99 101 106
f 96 97 104
f 104 97 103
f 103 97 105
f 103 105 102
f 106 98 99
f 136 107 147
f 147 107 108
f 147 108 146
f 146 108 109
f 146 109 145
f 145 109 110
f 145 110 111
f 145 111 144
f 144 111 112
f 144 112 143
f 143 112 113
f 143 113 114
f 143 114 142
f 142 114 115
f 142 115 141
f 141 115 116
f 141 116 117
f 141 117 140
f 140 117 118
f 140 118 139
f 139 118 119
f 139 119 120
f 139 120 138
f 138 120 121
f 138 121 137
f 137 121 122
f 137 122 123
f 137 123 156
f 156 123 124
f 156 124 155
f 155 124 125
f 155 125 126
f 155 126 154
f 154 126 127
f 154 127 153
f 153 127 128
f 153 128 129
f 153 129 152
f 152 129 130
f 152 130 151
f 151 130 131
f 151 131 132
f 151 132 150
f 150 132 133
f 150 133 149
f 149 133 134
f 149 134 135
f 149 135 148
f 148 135 136
f 148 136 147
f 157 158 166
f 166 158 159
f 166 159 165
f 165 159 160
f 165 160 164
f 164 160 161
f 164 161 163
f 163 161 162
f 168 176 167
f 167 176 172
f 167 172 171
f 171 172 173
f 171 173 178
f 168 169 176
f 176 169 175
f 175 169 177
f 175 177 174
f 178 170 171
f 180 184 179
f 179 184 185
f 179 185 188
f 188 185 187
f 187 185 186
f 181 182 180
f 180 182 183
f 180 183 184
f 336 189 338
f 338 189 190
f 338 190 337
f 337 190 205
f 337 205 206
f 190 191 205
f 205 191 204
f 204 191 192
f 204 192 203
f 203 192 193
f 203 193 202
f 202 193 201
f 201 193 200
f 200 193 199
f 199 193 198
f 198 193 194
f 198 194 197
f 197 194 195
f 197 195 196
f 207 220 206
f 206 220 221
f 206 221 337
f 337 221 356
f 356 221 222
f 356 222 223
f 220 207 219
f 219 207 208
f 219 208 218
f 218 208 209
f 218 209 210
f 210 211 218
f 218 211 212
f 218 212 213
f 218 213 217
f 217 213 214
f 217 214 216
f 216 214 215
f 356 223 355
f 355 223 224
f 355 224 354
f 354 224 225
f 354 225 353
f 353 225 226
f 353 226 227
f 228 242 227
f 227 242 352
f 227 352 353
f 242 228 241
f 241 228 229
f 241 229 240
f 240 229 230
f 240 230 239
f 239 230 238
f 238 230 237
f 237 230 236
f 236 230 235
f 235 230 231
f 235 231 234
f 234 231 232
f 234 232 233
f 242 243 352
f 352 243 258
f 352 258 351
f 351 258 259
f 351 259 260
f 258 243 257
f 257 243 244
f 257 244 256
f 256 244 245
f 256 245 255
f 255 245 246
f 255 246 247
f 247 248 255
f 255 248 249
f 255 249 250
f 255 250 254
f 254 250 251
f 254 251 253
f 253 251 252
f 351 260 350
f 350 260 261
f 350 261 349
f 349 261 262
f 349 262 348
f 348 262 263
f 348 263 264
f 265 279 264
f 264 279 347
f 264 347 348
f 279 265 278
f 278 265 266
f 278 266 277
f 277 266 267
f 277 267 276
f 276 267 275
f 275 267 274
f 274 267 273
f 273 267 272
f 272 267 268
f 272 268 271
f 271 268 269
f 271 269 270
f 279 280 347
f 347 280 295
f 347 295 346
f 346 295 296
f 346 296 297
f 295 280 294
f 294 280 281
f 294 281 293
f 293 281 282
f 293 282 292
f 292 282 283
f 292 283 284
f 284 285 292
f 292 285 286
f 292 286 287
f 292 287 291
f 291 287 288
f 291 288 290
f 290 288 289
f 346 297 345
f 345 297 298
f 345 298 344
f 344 298 299
f 344 299 343
f 343 299 300
f 343 300 301
f 302 316 301
f 301 316 342
f 301 342 343
f 316 302 315
f 315 302 303
f 315 303 314
f 314 303 304
f 314 304 313
f 313 304 312
f 312 304 311
f 311 304 310
f 310 304 309
f 309 304 305
f 309 305 308
f 308 305 306
f 308 306 307
f 316 317 342
f 342 317 332
f 342 332 341
f 341 332 333
f 341 333 334
f 332 317 331
f 331 317 318
f 331 318 330
f 330 318 319
f 330 319 329
f 329 319 320
f 329 320 321
f 321 322 329
f 329 322 323
f 329 323 324
f 329 324 328
f 328 324 325
f 328 325 327
f 327 325 326
f 341 334 340
f 340 334 335
f 340 335 339
f 339 335 336
f 339 336 338
f 358 366 357
f 357 366 362
f 357 362 361
f 361 362 363
f 361 363 368
f 358 359 366
f 366 359 365
f 365 359 367
f 365 367 364
f 368 360 361
f 370 371 369
f 369 371 372
f 369 372 374
f 374 372 373
f 376 377 375
f 375 377 378
f 380 381 379
f 379 381 382
f 384 385 383
f 383 385 392
f 392 385 391
f 391 385 386
f 391 386 390
f 390 386 389
f 389 386 388
f 388 386 387
f 394 402 393
f 393 402 398
f 393 398 397
f 397 398 399
f 397 399 404
f 394 395 402
f 402 395 401
f 401 395 403
f 401 403 400
f 404 396 397
f 406 408 405
f 405 408 409
f 405 409 410
f 406 407 408
f 418 411 422
f 422 411 412
f 422 412 421
f 421 412 413
f 421 413 420
f 420 413 414
f 420 414 419
f 419 414 415
f 419 415 416
f 419 416 424
f 424 416 417
f 424 417 423
f 423 417 418
f 423 418 422
f 425 426 443
f 443 426 429
f 443 429 442
f 442 429 430
f 442 430 452
f 452 430 451
f 451 430 450
f 450 430 431
f 450 431 449
f 449 431 432
f 449 432 448
f 448 432 447
f 447 432 439
f 447 439 446
f 446 439 440
f 446 440 445
f 445 440 444
f 444 440 441
f 444 441 453
f 453 441 442
f 453 442 452
f 426 427 429
f 429 427 428
f 432 433 439
f 439 433 438
f 438 433 436
f 438 436 437
f 434 435 433
f 433 435 436
f 455 456 454
f 454 456 457
f 467 458 462
f 462 458 459
f 462 459 460
f 460 461 462
f 462 463 467
f 467 463 466
f 466 463 465
f 465 463 464
f 469 477 468
f 468 477 473
f 468 473 472
f 472 473 474
f 472 474 479
f 469 470 477
f 477 470 476
f 476 470 478
f 476 478 475
f 479 471 472
f 481 483 480
f 480 483 484
f 480 484 485
f 481 482 483
f 493 486 497
f 497 486 487
f 497 487 496
f 496 487 488
f 496 488 495
f 495 488 489
f 495 489 494
f 494 489 490
f 494 490 491
f 494 491 499
f 499 491 492
f 499 492 498
f 498 492 493
f 498 493 497
f 500 501 507
f 507 501 502
f 507 502 503
f 504 505 503
f 503 505 506
f 503 506 507
f 509 510 508
f 508 510 511
f 513 514 512
f 512 514 521
f 521 514 520
f 520 514 515
f 520 515 519
f 519 515 518
f 518 515 517
f 517 515 516
f 523 531 522
f 522 531 527
f 522 527 526
f 526 527 528
f 526 528 533
f 523 524 531
f 531 524 530
f 530 524 532
f 530 532 529
f 533 525 526
f 534 535 538
f 538 535 536
f 538 536 537
f 546 539 550
f 550 539 540
f 550 540 549
f 549 540 541
f 549 541 548
f 548 541 542
f 548 542 547
f 547 542 543
f 547 543 544
f 547 544 552
f 552 544 545
f 552 545 551
f 551 545 546
f 551 546 550
f 553 554 557
f 557 554 556
f 556 554 555
f 558 559 567
f 567 559 560
f 567 560 566
f 566 560 561
f 566 561 565
f 565 561 562
f 565 562 564
f 564 562 563
f 568 569 586
f 586 569 583
f 586 583 584
f 569 570 583
f 583 570 582
f 582 570 571
f 582 571 581
f 581 571 572
f 581 572 580
f 580 572 573
f 580 573 579
f 579 573 574
f 579 574 576
f 576 574 575
f 576 577 579
f 579 577 578
f 584 585 586
f 596 587 591
f 591 587 588
f 591 588 589
f 589 590 591
f 591 592 596
f 596 592 595
f 595 592 594
f 594 592 593
f 712 597 713
f 713 597 598
f 713 598 601
f 601 598 599
f 601 599 600
f 713 601 608
f 608 601 602
f 608 602 603
f 603 604 608
f 608 604 605
f 608 605 606
f 606 607 608
f 713 608 742
f 742 608 609
f 742 609 741
f 741 609 610
f 741 610 740
f 740 610 611
f 740 611 739
f 739 611 612
f 739 612 738
f 738 612 613
f 738 613 737
f 737 613 614
f 737 614 736
f 736 614 615
f 736 615 617
f 617 615 616
f 736 617 620
f 620 617 618
f 620 618 619
f 620 621 736
f 736 621 622
f 736 622 625
f 625 622 624
f 624 622 623
f 736 625 630
f 630 625 626
f 630 626 627
f 627 628 630
f 630 628 629
f 631 637 630
f 630 637 735
f 630 735 736
f 631 632 637
f 637 632 633
f 637 633 634
f 634 635 637
f 637 635 636
f 637 638 735
f 735 638 734
f 734 638 639
f 734 639 733
f 733 639 640
f 733 640 732
f 732 640 641
f 732 641 731
f 731 641 642
f 731 642 730
f 730 642 643
f 730 643 729
f 729 643 644
f 729 644 728
f 728 644 651
f 728 651 654
f 654 651 653
f 653 651 652
f 645 646 644
f 644 646 647
f 644 647 648
f 648 649 644
f 644 649 650
f 644 650 651
f 654 743 728
f 744 655 656
f 744 656 659
f 659 656 657
f 659 657 658
f 744 659 666
f 666 659 660
f 666 660 661
f 661 662 666
f 666 662 663
f 666 663 664
f 664 665 666
f 744 666 727
f 727 666 667
f 727 667 726
f 726 667 668
f 726 668 725
f 725 668 669
f 725 669 724
f 724 669 670
f 724 670 723
f 723 670 671
f 723 671 722
f 722 671 672
f 722 672 721
f 721 672 673
f 721 673 675
f 675 673 674
f 721 675 678
f 678 675 676
f 678 676 677
f 678 679 721
f 721 679 680
f 721 680 683
f 683 680 682
f 682 680 681
f 721 683 688
f 688 683 684
f 688 684 685
f 685 686 688
f 688 686 687
f 689 695 688
f 688 695 720
f 688 720 721
f 689 690 695
f 695 690 691
f 695 691 692
f 692 693 695
f 695 693 694
f 695 696 720
f 720 696 719
f 719 696 697
f 719 697 718
f 718 697 698
f 718 698 717
f 717 698 699
f 717 699 716
f 716 699 700
f 716 700 715
f 715 700 701
f 715 701 714
f 714 701 702
f 714 702 713
f 713 702 709
f 713 709 712
f 712 709 711
f 711 709 710
f 703 704 702
f 702 704 705
f 702 705 706
f 706 707 702
f 702 707 708
f 702 708 709
f 752 745 751
f 751 745 746
f 751 746 750
f 750 746 747
f 750 747 749
f 749 747 748
f 753 754 757
f 757 754 756
f 756 754 755
f 759 760 758
f 758 760 769
f 758 769 770
f 760 761 769
f 769 761 768
f 768 761 762
f 768 762 767
f 767 762 764
f 767 764 765
f 762 763 764
f 767 765 771
f 771 765 766
f 771 766 770
f 770 766 758
f 772 773 776
f 776 773 775
f 775 773 774
f 777 778 784
f 784 778 779
f 784 779 780
f 781 782 780
f 780 782 783
f 780 783 784
f 785 786 792
f 792 786 787
f 792 787 788
f 789 790 788
f 788 790 791
f 788 791 792
f 793 794 800
f 800 794 795
f 800 795 799
f 799 795 796
f 799 796 798
f 798 796 797
f 802 836 801
f 801 836 809
f 801 809 810
f 836 802 835
f 835 802 803
f 835 803 834
f 834 803 832
f 834 832 833
f 804 825 803
f 803 825 829
f 803 829 832
f 832 829 831
f 831 829 830
f 825 804 824
f 824 804 837
f 824 837 823
f 838 805 822
f 822 805 806
f 822 806 821
f 821 806 807
f 821 807 812
f 812 807 811
f 811 807 808
f 811 808 810
f 810 808 801
f 821 812 817
f 817 812 813
f 817 813 814
f 814 815 817
f 817 815 816
f 817 818 821
f 821 818 819
f 821 819 820
f 826 827 825
f 825 827 828
f 825 828 829
f 839 840 843
f 843 840 842
f 842 840 841
f 845 846 844
f 844 846 856
f 844 856 857
f 846 847 856
f 856 847 855
f 855 847 848
f 855 848 850
f 850 848 849
f 855 850 854
f 854 850 851
f 854 851 853
f 853 851 852
f 853 852 857
f 857 852 844
f 859 860 858
f 858 860 868
f 858 868 869
f 868 860 867
f 867 860 861
f 867 861 862
f 863 864 862
f 862 864 871
f 862 871 867
f 871 864 870
f 870 864 865
f 870 865 866
f 870 866 869
f 869 866 858
f 872 873 876
f 876 873 874
f 876 874 875
f 878 879 877
f 877 879 880
f 881 882 888
f 888 882 883
f 888 883 884
f 885 886 884
f 884 886 887
f 884 887 888
f 889 890 892
f 892 890 891
f 893 894 898
f 898 894 897
f 897 894 895
f 897 895 896
f 899 900 908
f 908 900 901
f 908 901 907
f 907 901 902
f 907 902 906
f 906 902 903
f 906 903 905
f 905 903 904
f 910 936 909
f 909 936 940
f 909 940 943
f 943 940 942
f 942 940 941
f 936 910 935
f 935 910 911
f 935 911 934
f 934 911 933
f 933 911 912
f 933 912 932
f 932 912 945
f 932 945 923
f 946 913 922
f 922 913 914
f 922 914 921
f 921 914 915
f 921 915 920
f 920 915 919
f 919 915 916
f 919 916 918
f 918 916 909
f 918 909 917
f 917 909 943
f 917 943 944
f 932 923 928
f 928 923 924
f 928 924 925
f 925 926 928
f 928 926 927
f 928 929 932
f 932 929 930
f 932 930 931
f 937 938 936
f 936 938 939
f 936 939 940
f 956 947 951
f 951 947 948
f 951 948 949
f 949 950 951
f 951 952 956
f 956 952 955
f 955 952 954
f 954 952 953
f 958 959 957
f 957 959 960
f 962 963 961
f 961 963 964
f 965 966 974
f 974 966 967
f 974 967 973
f 973 967 968
f 973 968 972
f 972 968 969
f 972 969 971
f 971 969 970
f 982 975 981
f 981 975 976
f 981 976 980
f 980 976 977
f 980 977 979
f 979 977 978
f 984 985 983
f 983 985 986
f 983 986 987
f 987 988 983
f 983 988 989
f 983 989 1002
f 1002 989 990
f 1002 990 1001
f 1001 990 996
f 1001 996 1000
f 1000 996 997
f 1000 997 999
f 999 997 998
f 999 998 1003
f 1003 998 983
f 1003 983 1002
f 990 991 996
f 996 991 992
f 996 992 993
f 993 994 996
f 996 994 995
f 1004 1005 1009
f 1009 1005 1006
f 1009 1006 1008
f 1008 1006 1007
f 1010 1011 1017
f 1017 1011 1012
f 1017 1012 1016
f 1016 1012 1013
f 1016 1013 1015
f 1015 1013 1014
f 1025 1018 1024
f 1024 1018 1019
f 1024 1019 1023
f 1023 1019 1020
f 1023 1020 1022
f 1022 1020 1021
f 1027 1028 1026
f 1026 1028 1029
f 1026 1029 1030
f 1030 1031 1026
f 1026 1031 1032
f 1026 1032 1044
f 1044 1032 1043
f 1043 1032 1033
f 1043 1033 1042
f 1042 1033 1039
f 1042 1039 1040
f 1033 1034 1039
f 1039 1034 1035
f 1039 1035 1036
f 1036 1037 1039
f 1039 1037 1038
f 1042 1040 1046
f 1046 1040 1041
f 1046 1041 1045
f 1045 1041 1026
f 1045 1026 1044
f 1047 1048 1065
f 1065 1048 1051
f 1065 1051 1064
f 1064 1051 1052
f 1064 1052 1063
f 1063 1052 1053
f 1063 1053 1062
f 1062 1053 1054
f 1062 1054 1061
f 1061 1054 1055
f 1061 1055 1060
f 1060 1055 1058
f 1060 1058 1059
f 1049 1050 1048
f 1048 1050 1051
f 1056 1057 1055
f 1055 1057 1058
f 1067 1068 1066
f 1066 1068 1069
f 1070 1071 1075
f 1075 1071 1074
f 1074 1071 1072
f 1074 1072 1073
f 1077 1078 1076
f 1076 1078 1079
f 1087 1080 1086
f 1086 1080 1081
f 1086 1081 1085
f 1085 1081 1082
f 1085 1082 1084
f 1084 1082 1083
f 1089 1090 1088
f 1088 1090 1091
f 1099 1092 1098
f 1098 1092 1093
f 1098 1093 1097
f 1097 1093 1094
f 1097 1094 1096
f 1096 1094 1095
f 1100 1101 1107
f 1107 1101 1102
f 1107 1102 1106
f 1106 1102 1103
f 1106 1103 1105
f 1105 1103 1104
f 1108 1109 1113
f 1113 1109 1110
f 1113 1110 1112
f 1112 1110 1111
f 1114 1115 1121
f 1121 1115 1116
f 1121 1116 1117
f 1118 1119 1117
f 1117 1119 1120
f 1117 1120 1121
f 1123 1131 1122
f 1122 1131 1132
f 1122 1132 1133
f 1131 1123 1130
f 1130 1123 1124
f 1130 1124 1149
f 1149 1124 1148
f 1148 1124 1125
f 1148 1125 1147
f 1147 1125 1158
f 1147 1158 1146
f 1159 1126 1145
f 1145 1126 1127
f 1145 1127 1144
f 1144 1127 1128
f 1144 1128 1143
f 1143 1128 1141
f 1143 1141 1142
f 1129 1134 1128
f 1128 1134 1138
f 1128 1138 1141
f 1141 1138 1140
f 1140 1138 1139
f 1134 1129 1133
f 1133 1129 1122
f 1135 1136 1134
f 1134 1136 1137
f 1134 1137 1138
f 1130 1149 1154
f 1154 1149 1150
f 1154 1150 1151
f 1151 1152 1154
f 1154 1152 1153
f 1154 1155 1130
f 1130 1155 1156
f 1130 1156 1157
f 1161 1162 1160
f 1160 1162 1169
f 1160 1169 1168
f 1168 1169 1170
f 1168 1170 1167
f 1167 1170 1171
f 1167 1171 1166
f 1166 1171 1172
f 1166 1172 1164
f 1164 1172 1163
f 1163 1172 1173
f 1163 1173 1162
f 1162 1173 1169
f 1164 1165 1166
f 1174 1175 1181
f 1181 1175 1176
f 1181 1176 1177
f 1178 1179 1177
f 1177 1179 1180
f 1177 1180 1181
f 1182 1183 1189
f 1189 1183 1184
f 1189 1184 1188
f 1188 1184 1185
f 1188 1185 1187
f 1187 1185 1186
f 1190 1191 1195
f 1195 1191 1192
f 1195 1192 1194
f 1194 1192 1193
f 1196 1197 1201
f 1201 1197 1198
f 1201 1198 1200
f 1200 1198 1199
f 1209 1202 1208
f 1208 1202 1203
f 1208 1203 1207
f 1207 1203 1204
f 1207 1204 1206
f 1206 1204 1205
f 1210 1211 1213
f 1213 1211 1212
f 1214 1215 1217
f 1217 1215 1216
f 1218 1219 1221
f 1221 1219 1220
f 1222 1223 1225
f 1225 1223 1224
f 1233 1226 1232
f 1232 1226 1227
f 1232 1227 1231
f 1231 1227 1228
f 1231 1228 1230
f 1230 1228 1229
f 1234 1235 1243
f 1243 1235 1236
f 1243 1236 1242
f 1242 1236 1237
f 1242 1237 1241
f 1241 1237 1238
f 1241 1238 1240
f 1240 1238 1239
f 1244 1245 1253
f 1253 1245 1246
f 1253 1246 1252
f 1252 1246 1247
f 1252 1247 1251
f 1251 1247 1248
f 1251 1248 1250
f 1250 1248 1249
f 1255 1256 1254
f 1254 1256 1257
f 1259 1269 1258
f 1258 1269 1264
f 1258 1264 1263
f 1263 1264 1265
f 1263 1265 1262
f 1262 1265 1266
f 1262 1266 1261
f 1261 1266 1270
f 1271 1267 1260
f 1260 1267 1268
f 1260 1268 1259
f 1259 1268 1269
f 1273 1274 1272
f 1272 1274 1275
f 1272 1275 1276
f 1276 1277 1272
f 1272 1277 1278
f 1272 1278 1289
f 1289 1278 1288
f 1288 1278 1279
f 1288 1279 1292
f 1292 1279 1285
f 1292 1285 1286
f 1279 1280 1285
f 1285 1280 1281
f 1285 1281 1282
f 1282 1283 1285
f 1285 1283 1284
f 1292 1286 1291
f 1291 1286 1287
f 1291 1287 1290
f 1290 1287 1289
f 1289 1287 1272
f 1294 1295 1293
f 1293 1295 1302
f 1302 1295 1301
f 1301 1295 1296
f 1301 1296 1300
f 1300 1296 1299
f 1299 1296 1298
f 1298 1296 1297
f 1303 1304 1306
f 1306 1304 1305
f 1307 1308 1316
f 1316 1308 1309
f 1316 1309 1315
f 1315 1309 1310
f 1315 1310 1314
f 1314 1310 1311
f 1314 1311 1313
f 1313 1311 1312
f 1317 1318 1322
f 1322 1318 1321
f 1321 1318 1319
f 1321 1319 1320
f 1323 1324 1330
f 1330 1324 1325
f 1330 1325 1329
f 1329 1325 1326
f 1329 1326 1328
f 1328 1326 1327
f 1331 1332 1338
f 1338 1332 1333
f 1338 1333 1337
f 1337 1333 1334
f 1337 1334 1336
f 1336 1334 1335
f 1346 1339 1345
f 1345 1339 1340
f 1345 1340 1344
f 1344 1340 1341
f 1344 1341 1343
f 1343 1341 1342
f 1354 1347 1353
f 1353 1347 1348
f 1353 1348 1352
f 1352 1348 1349
f 1352 1349 1351
f 1351 1349 1350
f 1356 1357 1355
f 1355 1357 1364
f 1364 1357 1363
f 1363 1357 1358
f 1363 1358 1362
f 1362 1358 1361
f 1361 1358 1360
f 1360 1358 1359
f 1365 1366 1368
f 1368 1366 1367
f 1369 1370 1376
f 1376 1370 1371
f 1376 1371 1375
f 1375 1371 1372
f 1375 1372 1374
f 1374 1372 1373
f 1378 1379 1377
f 1377 1379 1380
f 1382 1390 1381
f 1381 1390 1386
f 1381 1386 1385
f 1385 1386 1387
f 1385 1387 1392
f 1382 1383 1390
f 1390 1383 1389
f 1389 1383 1391
f 1389 1391 1388
f 1392 1384 1385
f 1393 1394 1396
f 1396 1394 1395
f 1397 1398 1400
f 1400 1398 1399
f 1401 1402 1404
f 1404 1402 1403
f 1412 1405 1411
f 1411 1405 1406
f 1411 1406 1410
f 1410 1406 1407
f 1410 1407 1409
f 1409 1407 1408
f 1414 1415 1413
f 1413 1415 1416
f 1417 1418 1424
f 1424 1418 1419
f 1424 1419 1423
f 1423 1419 1420
f 1423 1420 1422
f 1422 1420 1421
f 1425 1426 1434
f 1434 1426 1427
f 1434 1427 1433
f 1433 1427 1428
f 1433 1428 1432
f 1432 1428 1429
f 1432 1429 1431
f 1431 1429 1430
f 1436 1437 1435
f 1435 1437 1438
f 1439 1440 1442
f 1442 1440 1441
f 1444 1445 1443
f 1443 1445 1446
f 1447 1448 1450
f 1450 1448 1449
f 1451 1452 1456
f 1456 1452 1455
f 1455 1452 1453
f 1455 1453 1454
f 1457 1458 1475
f 1475 1458 1461
f 1475 1461 1474
f 1474 1461 1462
f 1474 1462 1473
f 1473 1462 1463
f 1473 1463 1472
f 1472 1463 1464
f 1472 1464 1471
f 1471 1464 1465
f 1471 1465 1470
f 1470 1465 1468
f 1470 1468 1469
f 1458 1459 1461
f 1461 1459 1460
f 1465 1466 1468
f 1468 1466 1467
f 1477 1485 1476
f 1476 1485 1481
f 1476 1481 1480
f 1480 1481 1482
f 1480 1482 1487
f 1477 1478 1485
f 1485 1478 1484
f 1484 1478 1486
f 1484 1486 1483
f 1487 1479 1480
f 1495 1488 1494
f 1494 1488 1489
f 1494 1489 1493
f 1493 1489 1490
f 1493 1490 1492
f 1492 1490 1491
f 1503 1496 1502
f 1502 1496 1497
f 1502 1497 1501
f 1501 1497 1498
f 1501 1498 1500
f 1500 1498 1499
f 1511 1504 1510
f 1510 1504 1505
f 1510 1505 1509
f 1509 1505 1506
f 1509 1506 1508
f 1508 1506 1507
f 1512 1513 1519
f 1519 1513 1514
f 1519 1514 1515
f 1516 1517 1515
f 1515 1517 1518
f 1515 1518 1519
f 1521 1555 1520
f 1520 1555 1528
f 1520 1528 1537
f 1537 1528 1533
f 1537 1533 1534
f 1555 1521 1554
f 1554 1521 1522
f 1554 1522 1553
f 1553 1522 1552
f 1552 1522 1523
f 1552 1523 1551
f 1551 1523 1556
f 1551 1556 1550
f 1557 1524 1548
f 1557 1548 1549
f 1525 1541 1524
f 1524 1541 1545
f 1524 1545 1548
f 1548 1545 1547
f 1547 1545 1546
f 1541 1525 1540
f 1540 1525 1526
f 1540 1526 1539
f 1539 1526 1538
f 1538 1526 1527
f 1538 1527 1537
f 1537 1527 1520
f 1528 1529 1533
f 1533 1529 1530
f 1533 1530 1531
f 1531 1532 1533
f 1534 1535 1537
f 1537 1535 1536
f 1542 1543 1541
f 1541 1543 1544
f 1541 1544 1545
f 1558 1559 1561
f 1561 1559 1560
f 1562 1563 1565
f 1565 1563 1564
f 1573 1566 1572
f 1572 1566 1567
f 1572 1567 1571
f 1571 1567 1568
f 1571 1568 1570
f 1570 1568 1569
f 1581 1574 1580
f 1580 1574 1575
f 1580 1575 1579
f 1579 1575 1576
f 1579 1576 1578
f 1578 1576 1577
f 1582 1583 1585
f 1585 1583 1584
f 1586 1587 1595
f 1595 1587 1588
f 1595 1588 1594
f 1594 1588 1589
f 1594 1589 1593
f 1593 1589 1590
f 1593 1590 1592
f 1592 1590 1591
f 1597 1598 1596
f 1596 1598 1599
f 1600 1601 1603
f 1603 1601 1602
f 1613 1604 1608
f 1608 1604 1605
f 1608 1605 1606
f 1606 1607 1608
f 1608 1609 1613
f 1613 1609 1612
f 1612 1609 1611
f 1611 1609 1610
f 1615 1616 1614
f 1614 1616 1617
f 1618 1619 1625
f 1625 1619 1620
f 1625 1620 1621
f 1622 1623 1621
f 1621 1623 1624
f 1621 1624 1625
f 1627 1628 1626
f 1626 1628 1629
f 1626 1629 1631
f 1631 1629 1630
f 1639 1632 1638
f 1638 1632 1633
f 1638 1633 1637
f 1637 1633 1634
f 1637 1634 1636
f 1636 1634 1635
f 1647 1640 1651
f 1651 1640 1641
f 1651 1641 1650
f 1650 1641 1642
f 1650 1642 1649
f 1649 1642 1643
f 1649 1643 1648
f 1648 1643 1644
f 1648 1644 1645
f 1648 1645 1653
f 1653 1645 1646
f 1653 1646 1652
f 1652 1646 1647
f 1652 1647 1651
f 1655 1656 1654
f 1654 1656 1657
f 1654 1657 1658
f 1658 1659 1654
f 1654 1659 1660
f 1654 1660 1670
f 1670 1660 1674
f 1674 1660 1661
f 1674 1661 1673
f 1673 1661 1667
f 1673 1667 1672
f 1672 1667 1668
f 1672 1668 1671
f 1671 1668 1669
f 1671 1669 1670
f 1670 1669 1654
f 1661 1662 1667
f 1667 1662 1663
f 1667 1663 1664
f 1664 1665 1667
f 1667 1665 1666
f 1675 1676 1679
f 1679 1676 1678
f 1678 1676 1677
f 1681 1682 1680
f 1680 1682 1683
f 1684 1685 1688
f 1688 1685 1687
f 1687 1685 1686
