v 0.2421355247 0.07199999809 0.37786928
v 0.2411022568 0.07199999809 0.380284155
v 0.2416857529 0.07199999809 0.3828451711
v 0.2436631393 0.07199999809 0.3845741064
v 0.2462791252 0.07199999809 0.3848105604
v 0.2485344887 0.07199999809 0.3834642202
v 0.2495677376 0.07199999809 0.3810493452
v 0.2489842415 0.07199999809 0.3784883291
v 0.247006855 0.07199999809 0.3767594034
v 0.2443908691 0.07199999809 0.3765229494
v 0.2434529495 0.07199999809 0.3790211851
v 0.2451677895 0.07199999809 0.3781723482
v 0.2469805717 0.07199999809 0.3787847025
v 0.2478293991 0.07199999809 0.3804995329
v 0.2472170448 0.07199999809 0.3823123247
v 0.245502224 0.07199999809 0.383161152
v 0.2436894226 0.07199999809 0.3825487978
v 0.2428405952 0.07199999809 0.3808339674
v 0.2434529495 0.1069999981 0.3790211851
v 0.2428405952 0.1069999981 0.3808339674
v 0.2436894226 0.1069999981 0.3825487978
v 0.245502224 0.1069999981 0.383161152
v 0.2472170448 0.1069999981 0.3823123247
v 0.2478293991 0.1069999981 0.3804995329
v 0.2469805717 0.1069999981 0.3787847025
v 0.2451677895 0.1069999981 0.3781723482
v 0.2434529495 0.1069999981 0.3790211851
v 0.2451677895 0.1069999981 0.3781723482
v 0.2469805717 0.1069999981 0.3787847025
v 0.2478293991 0.1069999981 0.3804995329
v 0.2472170448 0.1069999981 0.3823123247
v 0.245502224 0.1069999981 0.383161152
v 0.2436894226 0.1069999981 0.3825487978
v 0.2428405952 0.1069999981 0.3808339674
v 0.2434529495 0.07199999809 0.3790211851
v 0.2428405952 0.07199999809 0.3808339674
v 0.2436894226 0.07199999809 0.3825487978
v 0.245502224 0.07199999809 0.383161152
v 0.2472170448 0.07199999809 0.3823123247
v 0.2478293991 0.07199999809 0.3804995329
v 0.2469805717 0.07199999809 0.3787847025
v 0.2451677895 0.07199999809 0.3781723482
v 0.2434529495 0.07199999809 0.3790211851
v 0.2434529495 0.1069999981 0.3790211851
v 0.2431492615 0.06699999809 0.3814123327
v 0.2448878288 0.06699999809 0.3829324419
v 0.247073555 0.06699999809 0.3821868688
v 0.2475207329 0.06699999809 0.3799211675
v 0.2457821846 0.06699999809 0.3784010584
v 0.2435964394 0.06699999809 0.3791466409
v 0.2421355247 0.06699999809 0.37786928
v 0.2443908691 0.06699999809 0.3765229494
v 0.247006855 0.06699999809 0.3767594034
v 0.2489842415 0.06699999809 0.3784883291
v 0.2495677376 0.06699999809 0.3810493452
v 0.2485344887 0.06699999809 0.3834642202
v 0.2462791252 0.06699999809 0.3848105604
v 0.2436631393 0.06699999809 0.3845741064
v 0.2416857529 0.06699999809 0.3828451711
v 0.2411022568 0.06699999809 0.380284155
v 0.2421355247 0.07199999809 0.37786928
v 0.2443908691 0.07199999809 0.3765229494
v 0.247006855 0.07199999809 0.3767594034
v 0.2489842415 0.07199999809 0.3784883291
v 0.2495677376 0.07199999809 0.3810493452
v 0.2485344887 0.07199999809 0.3834642202
v 0.2462791252 0.07199999809 0.3848105604
v 0.2436631393 0.07199999809 0.3845741064
v 0.2416857529 0.07199999809 0.3828451711
v 0.2411022568 0.07199999809 0.380284155
v 0.2421355247 0.06699999809 0.37786928
v 0.2411022568 0.06699999809 0.380284155
v 0.2416857529 0.06699999809 0.3828451711
v 0.2436631393 0.06699999809 0.3845741064
v 0.2462791252 0.06699999809 0.3848105604
v 0.2485344887 0.06699999809 0.3834642202
v 0.2495677376 0.06699999809 0.3810493452
v 0.2489842415 0.06699999809 0.3784883291
v 0.247006855 0.06699999809 0.3767594034
v 0.2443908691 0.06699999809 0.3765229494
v 0.2421355247 0.06699999809 0.37786928
v 0.2421355247 0.07199999809 0.37786928
v 0.2431492615 0.06699999809 0.3814123327
v 0.2435964394 0.06699999809 0.3791466409
v 0.2435964394 0.06949999809 0.3791466409
v 0.2431492615 0.06949999809 0.3814123327
v 0.2475207329 0.06699999809 0.3799211675
v 0.247073555 0.06699999809 0.3821868688
v 0.247073555 0.06949999809 0.3821868688
v 0.2475207329 0.06949999809 0.3799211675
v 0.247073555 0.06699999809 0.3821868688
v 0.2448878288 0.06699999809 0.3829324419
v 0.2448878288 0.06949999809 0.3829324419
v 0.247073555 0.06949999809 0.3821868688
v 0.247073555 0.06949999809 0.3821868688
v 0.2448878288 0.06949999809 0.3829324419
v 0.2431492615 0.06949999809 0.3814123327
v 0.2435964394 0.06949999809 0.3791466409
v 0.2457821846 0.06949999809 0.3784010584
v 0.2475207329 0.06949999809 0.3799211675
v 0.2448878288 0.06699999809 0.3829324419
v 0.2431492615 0.06699999809 0.3814123327
v 0.2431492615 0.06949999809 0.3814123327
v 0.2448878288 0.06949999809 0.3829324419
v 0.2435964394 0.06699999809 0.3791466409
v 0.2457821846 0.06699999809 0.3784010584
v 0.2457821846 0.06949999809 0.3784010584
v 0.2435964394 0.06949999809 0.3791466409
v 0.2457821846 0.06699999809 0.3784010584
v 0.2475207329 0.06699999809 0.3799211675
v 0.2475207329 0.06949999809 0.3799211675
v 0.2457821846 0.06949999809 0.3784010584
f 10 1 11
f 11 1 2
f 11 2 18
f 18 2 3
f 18 3 17
f 17 3 4
f 17 4 16
f 16 4 5
f 16 5 15
f 15 5 6
f 15 6 7
f 15 7 14
f 14 7 8
f 14 8 13
f 13 8 9
f 13 9 12
f 12 9 10
f 12 10 11
f 20 22 19
f 19 22 23
f 19 23 26
f 26 23 24
f 26 24 25
f 20 21 22
f 28 42 27
f 27 42 43
f 44 35 34
f 34 35 36
f 34 36 37
f 28 29 42
f 42 29 41
f 41 29 30
f 41 30 40
f 40 30 31
f 40 31 39
f 39 31 32
f 39 32 38
f 38 32 33
f 38 33 37
f 37 33 34
f 46 59 45
f 45 59 60
f 45 60 50
f 50 60 51
f 50 51 52
f 47 57 46
f 46 57 58
f 46 58 59
f 48 55 47
f 47 55 56
f 47 56 57
f 55 48 54
f 54 48 49
f 54 49 53
f 53 49 52
f 52 49 50
f 62 80 61
f 61 80 81
f 82 71 70
f 70 71 72
f 70 72 69
f 69 72 73
f 69 73 68
f 68 73 74
f 68 74 67
f 67 74 75
f 67 75 66
f 66 75 76
f 66 76 65
f 65 76 77
f 65 77 64
f 64 77 78
f 64 78 63
f 63 78 79
f 63 79 62
f 62 79 80
f 83 84 86
f 86 84 85
f 87 88 90
f 90 88 89
f 91 92 94
f 94 92 93
f 96 98 95
f 95 98 99
f 95 99 100
f 96 97 98
f 101 102 104
f 104 102 103
f 105 106 108
f 108 106 107
f 109 110 112
f 112 110 111
