v 0.0625 0.08399999619 0.3548767549
v 0.06323223114 0.08399999619 0.3566445238
v 0.065 0.08399999619 0.3573767549
v 0.06676776886 0.08399999619 0.3566445238
v 0.0675 0.08399999619 0.3548767549
v 0.06676776886 0.08399999619 0.3531089861
v 0.065 0.08399999619 0.3523767549
v 0.06323223114 0.08399999619 0.3531089861
v 0.0625 0.07900000095 0.3548767549
v 0.06323223114 0.07900000095 0.3531089861
v 0.065 0.07900000095 0.3523767549
v 0.06676776886 0.07900000095 0.3531089861
v 0.0675 0.07900000095 0.3548767549
v 0.06676776886 0.07900000095 0.3566445238
v 0.065 0.07900000095 0.3573767549
v 0.06323223114 0.07900000095 0.3566445238
v 0.0625 0.08399999619 0.3548767549
v 0.0625 0.07900000095 0.3548767549
v 0.06038119793 0.07900000095 0.3548767549
v 0.06269059658 0.07900000095 0.3588767511
v 0.06269059658 0.08399999619 0.3588767511
v 0.06038119793 0.08399999619 0.3548767549
v 0.06269059658 0.07900000095 0.3588767511
v 0.06730940342 0.07900000095 0.3588767511
v 0.06730940342 0.08399999619 0.3588767511
v 0.06269059658 0.08399999619 0.3588767511
v 0.06730940342 0.07900000095 0.3588767511
v 0.06961880207 0.07900000095 0.3548767549
v 0.06961880207 0.08399999619 0.3548767549
v 0.06730940342 0.08399999619 0.3588767511
v 0.06269059658 0.07900000095 0.3508767492
v 0.06038119793 0.07900000095 0.3548767549
v 0.06038119793 0.08399999619 0.3548767549
v 0.06269059658 0.08399999619 0.3508767492
v 0.0625 0.08399999619 0.3548767549
v 0.06323223114 0.08399999619 0.3531089861
v 0.065 0.08399999619 0.3523767549
v 0.06676776886 0.08399999619 0.3531089861
v 0.0675 0.08399999619 0.3548767549
v 0.06676776886 0.08399999619 0.3566445238
v 0.065 0.08399999619 0.3573767549
v 0.06323223114 0.08399999619 0.3566445238
v 0.06730940342 0.08399999619 0.3588767511
v 0.06961880207 0.08399999619 0.3548767549
v 0.06730940342 0.08399999619 0.3508767492
v 0.06269059658 0.08399999619 0.3508767492
v 0.06038119793 0.08399999619 0.3548767549
v 0.06269059658 0.08399999619 0.3588767511
v 0.06730940342 0.07900000095 0.3508767492
v 0.06269059658 0.07900000095 0.3508767492
v 0.06269059658 0.08399999619 0.3508767492
v 0.06730940342 0.08399999619 0.3508767492
v 0.0625 0.07900000095 0.3548767549
v 0.06323223114 0.07900000095 0.3566445238
v 0.065 0.07900000095 0.3573767549
v 0.06676776886 0.07900000095 0.3566445238
v 0.0675 0.07900000095 0.3548767549
v 0.06676776886 0.07900000095 0.3531089861
v 0.065 0.07900000095 0.3523767549
v 0.06323223114 0.07900000095 0.3531089861
v 0.06961880207 0.07900000095 0.3548767549
v 0.06730940342 0.07900000095 0.3588767511
v 0.06269059658 0.07900000095 0.3588767511
v 0.06038119793 0.07900000095 0.3548767549
v 0.06269059658 0.07900000095 0.3508767492
v 0.06730940342 0.07900000095 0.3508767492
v 0.06961880207 0.07900000095 0.3548767549
v 0.06730940342 0.07900000095 0.3508767492
v 0.06730940342 0.08399999619 0.3508767492
v 0.06961880207 0.08399999619 0.3548767549
f 2 16 1
f 1 16 18
f 17 9 8
f 8 9 10
f 8 10 11
f 2 3 16
f 16 3 15
f 15 3 4
f 15 4 14
f 14 4 5
f 14 5 13
f 13 5 6
f 13 6 12
f 12 6 7
f 12 7 11
f 11 7 8
f 19 20 22
f 22 20 21
f 23 24 26
f 26 24 25
f 27 28 30
f 30 28 29
f 31 32 34
f 34 32 33
f 42 35 47
f 47 35 36
f 47 36 46
f 46 36 37
f 46 37 45
f 45 37 38
f 45 38 44
f 44 38 39
f 44 39 40
f 44 40 43
f 43 40 41
f 43 41 48
f 48 41 42
f 48 42 47
f 49 50 52
f 52 50 51
f 60 53 64
f 64 53 54
f 64 54 63
f 63 54 55
f 63 55 62
f 62 55 56
f 62 56 61
f 61 56 57
f 61 57 58
f 61 58 66
f 66 58 59
f 66 59 65
f 65 59 60
f 65 60 64
f 67 68 70
f 70 68 69
