v -0.2195000076 0.09300000191 0.605
v -0.2195000076 0.09226777077 0.6032322311
v -0.2195000076 0.09050000191 0.6025
v -0.2195000076 0.08873223305 0.6032322311
v -0.2195000076 0.08800000191 0.605
v -0.2195000076 0.08873223305 0.6067677689
v -0.2195000076 0.09050000191 0.6075
v -0.2195000076 0.09226777077 0.6067677689
v -0.2114999962 0.095 0.605
v -0.2114999962 0.09414057732 0.6023549652
v -0.2114999962 0.0918905735 0.600720253
v -0.2114999962 0.08910942078 0.600720253
v -0.2114999962 0.0868594265 0.6023549652
v -0.2114999962 0.08600000381 0.605
v -0.2114999962 0.0868594265 0.6076450348
v -0.2114999962 0.08910942078 0.609279747
v -0.2114999962 0.0918905735 0.609279747
v -0.2114999962 0.09414057732 0.6076450348
v -0.2114999962 0.09300000191 0.605
v -0.2114999962 0.09226777077 0.6067677689
v -0.2114999962 0.09050000191 0.6075
v -0.2114999962 0.08873223305 0.6067677689
v -0.2114999962 0.08800000191 0.605
v -0.2114999962 0.08873223305 0.6032322311
v -0.2114999962 0.09050000191 0.6025
v -0.2114999962 0.09226777077 0.6032322311
v -0.2195000076 0.09300000191 0.605
v -0.2195000076 0.09226777077 0.6067677689
v -0.2195000076 0.09050000191 0.6075
v -0.2195000076 0.08873223305 0.6067677689
v -0.2195000076 0.08800000191 0.605
v -0.2195000076 0.08873223305 0.6032322311
v -0.2195000076 0.09050000191 0.6025
v -0.2195000076 0.09226777077 0.6032322311
v -0.2114999962 0.09300000191 0.605
v -0.2114999962 0.09226777077 0.6032322311
v -0.2114999962 0.09050000191 0.6025
v -0.2114999962 0.08873223305 0.6032322311
v -0.2114999962 0.08800000191 0.605
v -0.2114999962 0.08873223305 0.6067677689
v -0.2114999962 0.09050000191 0.6075
v -0.2114999962 0.09226777077 0.6067677689
v -0.2114999962 0.09300000191 0.605
v -0.2195000076 0.09300000191 0.605
v -0.21 0.08963397026 0.6034999847
v -0.21 0.08876794815 0.605
v -0.21 0.08963397026 0.6065000153
v -0.21 0.09136602402 0.6065000153
v -0.21 0.09223204613 0.605
v -0.21 0.09136602402 0.6034999847
v -0.21 0.095 0.605
v -0.21 0.09414057732 0.6076450348
v -0.21 0.0918905735 0.609279747
v -0.21 0.08910942078 0.609279747
v -0.21 0.0868594265 0.6076450348
v -0.21 0.08600000381 0.605
v -0.21 0.0868594265 0.6023549652
v -0.21 0.08910942078 0.600720253
v -0.21 0.0918905735 0.600720253
v -0.21 0.09414057732 0.6023549652
v -0.21 0.095 0.605
v -0.21 0.09414057732 0.6023549652
v -0.21 0.0918905735 0.600720253
v -0.21 0.08910942078 0.600720253
v -0.21 0.0868594265 0.6023549652
v -0.21 0.08600000381 0.605
v -0.21 0.0868594265 0.6076450348
v -0.21 0.08910942078 0.609279747
v -0.21 0.0918905735 0.609279747
v -0.21 0.09414057732 0.6076450348
v -0.2114999962 0.095 0.605
v -0.2114999962 0.09414057732 0.6076450348
v -0.2114999962 0.0918905735 0.609279747
v -0.2114999962 0.08910942078 0.609279747
v -0.2114999962 0.0868594265 0.6076450348
v -0.2114999962 0.08600000381 0.605
v -0.2114999962 0.0868594265 0.6023549652
v -0.2114999962 0.08910942078 0.600720253
v -0.2114999962 0.0918905735 0.600720253
v -0.2114999962 0.09414057732 0.6023549652
v -0.2114999962 0.095 0.605
v -0.21 0.095 0.605
v -0.2110000038 0.08963397026 0.6065000153
v -0.2110000038 0.08876794815 0.605
v -0.2110000038 0.08963397026 0.6034999847
v -0.2110000038 0.09136602402 0.6034999847
v -0.2110000038 0.09223204613 0.605
v -0.2110000038 0.09136602402 0.6065000153
v -0.21 0.08963397026 0.6034999847
v -0.21 0.09136602402 0.6034999847
v -0.2110000038 0.09136602402 0.6034999847
v -0.2110000038 0.08963397026 0.6034999847
v -0.21 0.08963397026 0.6065000153
v -0.21 0.08876794815 0.605
v -0.2110000038 0.08876794815 0.605
v -0.2110000038 0.08963397026 0.6065000153
v -0.21 0.08876794815 0.605
v -0.21 0.08963397026 0.6034999847
v -0.2110000038 0.08963397026 0.6034999847
v -0.2110000038 0.08876794815 0.605
v -0.21 0.09136602402 0.6065000153
v -0.21 0.08963397026 0.6065000153
v -0.2110000038 0.08963397026 0.6065000153
v -0.2110000038 0.09136602402 0.6065000153
v -0.21 0.09136602402 0.6034999847
v -0.21 0.09223204613 0.605
v -0.2110000038 0.09223204613 0.605
v -0.2110000038 0.09136602402 0.6034999847
v -0.21 0.09223204613 0.605
v -0.21 0.09136602402 0.6065000153
v -0.2110000038 0.09136602402 0.6065000153
v -0.2110000038 0.09223204613 0.605
f 2 4 1
f 1 4 5
f 1 5 8
f 8 5 6
f 8 6 7
f 2 3 4
f 18 9 19
f 19 9 10
f 19 10 26
f 26 10 11
f 26 11 25
f 25 11 12
f 25 12 24
f 24 12 13
f 24 13 23
f 23 13 14
f 23 14 15
f 23 15 22
f 22 15 16
f 22 16 21
f 21 16 17
f 21 17 20
f 20 17 18
f 20 18 19
f 28 42 27
f 27 42 43
f 44 35 34
f 34 35 36
f 34 36 37
f 28 29 42
f 42 29 41
f 41 29 30
f 41 30 40
f 40 30 31
f 40 31 39
f 39 31 32
f 39 32 38
f 38 32 33
f 38 33 37
f 37 33 34
f 46 57 45
f 45 57 58
f 45 58 59
f 47 55 46
f 46 55 56
f 46 56 57
f 55 47 54
f 54 47 48
f 54 48 53
f 53 48 52
f 52 48 49
f 52 49 51
f 51 49 60
f 60 49 50
f 60 50 59
f 59 50 45
f 62 80 61
f 61 80 81
f 82 71 70
f 70 71 72
f 70 72 69
f 69 72 73
f 69 73 68
f 68 73 74
f 68 74 67
f 67 74 75
f 67 75 66
f 66 75 76
f 66 76 65
f 65 76 77
f 65 77 64
f 64 77 78
f 64 78 63
f 63 78 79
f 63 79 62
f 62 79 80
f 88 83 87
f 87 83 84
f 87 84 86
f 86 84 85
f 89 90 92
f 92 90 91
f 93 94 96
f 96 94 95
f 97 98 100
f 100 98 99
f 101 102 104
f 104 102 103
f 105 106 108
f 108 106 107
f 109 110 112
f 112 110 111
