v -0.2065470505 0.09 0.4590211755
v -0.2071594048 0.09 0.4608339578
v -0.2063105774 0.09 0.4625487978
v -0.204497776 0.09 0.463161152
v -0.2027829552 0.09 0.4623123247
v -0.2021706009 0.09 0.4604995424
v -0.2030194283 0.09 0.4587847025
v -0.2048322105 0.09 0.4581723482
v -0.2084290886 0.09 0.4573756105
v -0.2057757378 0.09 0.455791691
v -0.2026981163 0.09 0.4560698587
v -0.2003717804 0.09 0.4581039125
v -0.1996853065 0.09 0.4611168558
v -0.200900898 0.09 0.4639578897
v -0.2035542679 0.09 0.4655418092
v -0.2066318893 0.09 0.4652636415
v -0.2089582253 0.09 0.4632296068
v -0.2096446991 0.09 0.4602166444
v -0.2084290886 0.09100000381 0.4573756105
v -0.2057757378 0.09100000381 0.455791691
v -0.2026981163 0.09100000381 0.4560698587
v -0.2003717804 0.09100000381 0.4581039125
v -0.1996853065 0.09100000381 0.4611168558
v -0.200900898 0.09100000381 0.4639578897
v -0.2035542679 0.09100000381 0.4655418092
v -0.2066318893 0.09100000381 0.4652636415
v -0.2089582253 0.09100000381 0.4632296068
v -0.2096446991 0.09100000381 0.4602166444
v -0.2084290886 0.09 0.4573756105
v -0.2096446991 0.09 0.4602166444
v -0.2089582253 0.09 0.4632296068
v -0.2066318893 0.09 0.4652636415
v -0.2035542679 0.09 0.4655418092
v -0.200900898 0.09 0.4639578897
v -0.1996853065 0.09 0.4611168558
v -0.2003717804 0.09 0.4581039125
v -0.2026981163 0.09 0.4560698587
v -0.2057757378 0.09 0.455791691
v -0.2084290886 0.09 0.4573756105
v -0.2084290886 0.09100000381 0.4573756105
v -0.2065470505 0.09100000381 0.4590211755
v -0.2071594048 0.09100000381 0.4608339578
v -0.2063105774 0.09100000381 0.4625487978
v -0.204497776 0.09100000381 0.463161152
v -0.2027829552 0.09100000381 0.4623123247
v -0.2021706009 0.09100000381 0.4604995424
v -0.2030194283 0.09100000381 0.4587847025
v -0.2048322105 0.09100000381 0.4581723482
v -0.2065470505 0.09 0.4590211755
v -0.2048322105 0.09 0.4581723482
v -0.2030194283 0.09 0.4587847025
v -0.2021706009 0.09 0.4604995424
v -0.2027829552 0.09 0.4623123247
v -0.204497776 0.09 0.463161152
v -0.2063105774 0.09 0.4625487978
v -0.2071594048 0.09 0.4608339578
v -0.2065470505 0.09100000381 0.4590211755
v -0.2065470505 0.09 0.4590211755
v -0.2065470505 0.09100000381 0.4590211755
v -0.2048322105 0.09100000381 0.4581723482
v -0.2030194283 0.09100000381 0.4587847025
v -0.2021706009 0.09100000381 0.4604995424
v -0.2027829552 0.09100000381 0.4623123247
v -0.204497776 0.09100000381 0.463161152
v -0.2063105774 0.09100000381 0.4625487978
v -0.2071594048 0.09100000381 0.4608339578
v -0.2084290886 0.09100000381 0.4573756105
v -0.2096446991 0.09100000381 0.4602166444
v -0.2089582253 0.09100000381 0.4632296068
v -0.2066318893 0.09100000381 0.4652636415
v -0.2035542679 0.09100000381 0.4655418092
v -0.200900898 0.09100000381 0.4639578897
v -0.1996853065 0.09100000381 0.4611168558
v -0.2003717804 0.09100000381 0.4581039125
v -0.2026981163 0.09100000381 0.4560698587
v -0.2057757378 0.09100000381 0.455791691
f 2 18 1
f 1 18 9
f 1 9 10
f 18 2 17
f 17 2 3
f 17 3 16
f 16 3 4
f 16 4 15
f 15 4 5
f 15 5 14
f 14 5 13
f 13 5 6
f 13 6 12
f 12 6 7
f 12 7 11
f 11 7 8
f 11 8 10
f 10 8 1
f 20 38 19
f 19 38 39
f 40 29 28
f 28 29 30
f 28 30 27
f 27 30 31
f 27 31 26
f 26 31 32
f 26 32 25
f 25 32 33
f 25 33 24
f 24 33 34
f 24 34 23
f 23 34 35
f 23 35 22
f 22 35 36
f 22 36 21
f 21 36 37
f 21 37 20
f 20 37 38
f 42 56 41
f 41 56 58
f 57 49 48
f 48 49 50
f 48 50 51
f 42 43 56
f 56 43 55
f 55 43 44
f 55 44 54
f 54 44 45
f 54 45 53
f 53 45 46
f 53 46 52
f 52 46 47
f 52 47 51
f 51 47 48
f 60 76 59
f 59 76 67
f 59 67 68
f 76 60 75
f 75 60 61
f 75 61 74
f 74 61 62
f 74 62 73
f 73 62 63
f 73 63 72
f 72 63 71
f 71 63 64
f 71 64 70
f 70 64 65
f 70 65 69
f 69 65 66
f 69 66 68
f 68 66 59
