v 0.2223500061 0.17 0.008000000119
v 0.2231261635 0.1718738365 0.008000000119
v 0.225 0.1726499939 0.008000000119
v 0.2268738365 0.1718738365 0.008000000119
v 0.2276499939 0.17 0.008000000119
v 0.2268738365 0.1681261635 0.008000000119
v 0.225 0.1673500061 0.008000000119
v 0.2231261635 0.1681261635 0.008000000119
v 0.2175 0.17 0.008000000119
v 0.2183590889 0.1665145683 0.008000000119
v 0.2207395172 0.1638276291 0.008000000119
v 0.224095974 0.1625546837 0.008000000119
v 0.2276595306 0.1629873848 0.008000000119
v 0.2306138229 0.1650265884 0.008000000119
v 0.2322820663 0.1682051277 0.008000000119
v 0.2322820663 0.1717948723 0.008000000119
v 0.2306138229 0.1749734116 0.008000000119
v 0.2276595306 0.1770126152 0.008000000119
v 0.224095974 0.1774453163 0.008000000119
v 0.2207395172 0.1761723709 0.008000000119
v 0.2183590889 0.1734854317 0.008000000119
v 0.2223500061 0.17 0.008000000119
v 0.2231261635 0.1681261635 0.008000000119
v 0.225 0.1673500061 0.008000000119
v 0.2268738365 0.1681261635 0.008000000119
v 0.2276499939 0.17 0.008000000119
v 0.2268738365 0.1718738365 0.008000000119
v 0.225 0.1726499939 0.008000000119
v 0.2231261635 0.1718738365 0.008000000119
v 0.2223500061 0.17 0.006800000072
v 0.2231261635 0.1718738365 0.006800000072
v 0.225 0.1726499939 0.006800000072
v 0.2268738365 0.1718738365 0.006800000072
v 0.2276499939 0.17 0.006800000072
v 0.2268738365 0.1681261635 0.006800000072
v 0.225 0.1673500061 0.006800000072
v 0.2231261635 0.1681261635 0.006800000072
v 0.2223500061 0.17 0.008000000119
v 0.2223500061 0.17 0.006800000072
v 0.2175 0.17 0.008000000119
v 0.2183590889 0.1734854317 0.008000000119
v 0.2207395172 0.1761723709 0.008000000119
v 0.224095974 0.1774453163 0.008000000119
v 0.2276595306 0.1770126152 0.008000000119
v 0.2306138229 0.1749734116 0.008000000119
v 0.2322820663 0.1717948723 0.008000000119
v 0.2322820663 0.1682051277 0.008000000119
v 0.2306138229 0.1650265884 0.008000000119
v 0.2276595306 0.1629873848 0.008000000119
v 0.224095974 0.1625546837 0.008000000119
v 0.2207395172 0.1638276291 0.008000000119
v 0.2183590889 0.1665145683 0.008000000119
v 0.2175 0.17 0.006800000072
v 0.2183590889 0.1665145683 0.006800000072
v 0.2207395172 0.1638276291 0.006800000072
v 0.224095974 0.1625546837 0.006800000072
v 0.2276595306 0.1629873848 0.006800000072
v 0.2306138229 0.1650265884 0.006800000072
v 0.2322820663 0.1682051277 0.006800000072
v 0.2322820663 0.1717948723 0.006800000072
v 0.2306138229 0.1749734116 0.006800000072
v 0.2276595306 0.1770126152 0.006800000072
v 0.224095974 0.1774453163 0.006800000072
v 0.2207395172 0.1761723709 0.006800000072
v 0.2183590889 0.1734854317 0.006800000072
v 0.2175 0.17 0.006800000072
v 0.2175 0.17 0.008000000119
v 0.2223500061 0.17 0.006800000072
v 0.2231261635 0.1681261635 0.006800000072
v 0.225 0.1673500061 0.006800000072
v 0.2268738365 0.1681261635 0.006800000072
v 0.2276499939 0.17 0.006800000072
v 0.2268738365 0.1718738365 0.006800000072
v 0.225 0.1726499939 0.006800000072
v 0.2231261635 0.1718738365 0.006800000072
v 0.2175 0.17 0.006800000072
v 0.2183590889 0.1734854317 0.006800000072
v 0.2207395172 0.1761723709 0.006800000072
v 0.224095974 0.1774453163 0.006800000072
v 0.2276595306 0.1770126152 0.006800000072
v 0.2306138229 0.1749734116 0.006800000072
v 0.2322820663 0.1717948723 0.006800000072
v 0.2322820663 0.1682051277 0.006800000072
v 0.2306138229 0.1650265884 0.006800000072
v 0.2276595306 0.1629873848 0.006800000072
v 0.224095974 0.1625546837 0.006800000072
v 0.2207395172 0.1638276291 0.006800000072
v 0.2183590889 0.1665145683 0.006800000072
f 2 21 1
f 1 21 9
f 1 9 10
f 21 2 20
f 20 2 3
f 20 3 19
f 19 3 18
f 18 3 4
f 18 4 17
f 17 4 16
f 16 4 5
f 16 5 15
f 15 5 6
f 15 6 14
f 14 6 13
f 13 6 7
f 13 7 12
f 12 7 11
f 11 7 8
f 11 8 10
f 10 8 1
f 23 37 22
f 22 37 39
f 38 30 29
f 29 30 31
f 29 31 28
f 28 31 32
f 28 32 27
f 27 32 33
f 27 33 26
f 26 33 34
f 26 34 25
f 25 34 35
f 25 35 24
f 24 35 36
f 24 36 23
f 23 36 37
f 41 65 40
f 40 65 66
f 67 53 52
f 52 53 54
f 52 54 51
f 51 54 55
f 51 55 50
f 50 55 56
f 50 56 49
f 49 56 57
f 49 57 48
f 48 57 58
f 48 58 47
f 47 58 59
f 47 59 46
f 46 59 60
f 46 60 45
f 45 60 61
f 45 61 44
f 44 61 62
f 44 62 43
f 43 62 63
f 43 63 42
f 42 63 64
f 42 64 41
f 41 64 65
f 69 88 68
f 68 88 76
f 68 76 77
f 88 69 87
f 87 69 70
f 87 70 86
f 86 70 85
f 85 70 71
f 85 71 84
f 84 71 83
f 83 71 72
f 83 72 82
f 82 72 73
f 82 73 81
f 81 73 80
f 80 73 74
f 80 74 79
f 79 74 78
f 78 74 75
f 78 75 77
f 77 75 68
