v 0.2197500038 0.06199999809 0.6279999924
v 0.2205834198 0.06199999809 0.630838356
v 0.2228190804 0.06199999809 0.6327755737
v 0.2257471466 0.06199999809 0.6331965637
v 0.228438015 0.06199999809 0.6319676971
v 0.2300373459 0.06199999809 0.6294791031
v 0.2300373459 0.06199999809 0.6265209198
v 0.228438015 0.06199999809 0.6240323257
v 0.2257471466 0.06199999809 0.622803421
v 0.2228190804 0.06199999809 0.6232244492
v 0.2205834198 0.06199999809 0.6251616287
v 0.2197500038 0.06050000191 0.6279999924
v 0.2205834198 0.06050000191 0.6251616287
v 0.2228190804 0.06050000191 0.6232244492
v 0.2257471466 0.06050000191 0.622803421
v 0.228438015 0.06050000191 0.6240323257
v 0.2300373459 0.06050000191 0.6265209198
v 0.2300373459 0.06050000191 0.6294791031
v 0.228438015 0.06050000191 0.6319676971
v 0.2257471466 0.06050000191 0.6331965637
v 0.2228190804 0.06050000191 0.6327755737
v 0.2205834198 0.06050000191 0.630838356
v 0.2197500038 0.06199999809 0.6279999924
v 0.2197500038 0.06050000191 0.6279999924
v 0.2222500038 0.06199999809 0.6279999924
v 0.2230554581 0.06199999809 0.6299445343
v 0.225 0.06199999809 0.6307500076
v 0.2269445419 0.06199999809 0.6299445343
v 0.2277499962 0.06199999809 0.6279999924
v 0.2269445419 0.06199999809 0.6260554504
v 0.225 0.06199999809 0.6252500153
v 0.2230554581 0.06199999809 0.6260554504
v 0.2197500038 0.06199999809 0.6279999924
v 0.2205834198 0.06199999809 0.6251616287
v 0.2228190804 0.06199999809 0.6232244492
v 0.2257471466 0.06199999809 0.622803421
v 0.228438015 0.06199999809 0.6240323257
v 0.2300373459 0.06199999809 0.6265209198
v 0.2300373459 0.06199999809 0.6294791031
v 0.228438015 0.06199999809 0.6319676971
v 0.2257471466 0.06199999809 0.6331965637
v 0.2228190804 0.06199999809 0.6327755737
v 0.2205834198 0.06199999809 0.630838356
v 0.215 0.06050000191 0.635
v 0.235 0.06050000191 0.635
v 0.235 0.08050000191 0.635
v 0.215 0.08050000191 0.635
v 0.2222500038 0.08050000191 0.6279999924
v 0.2230554581 0.08050000191 0.6260554504
v 0.225 0.08050000191 0.6252500153
v 0.2269445419 0.08050000191 0.6260554504
v 0.2277499962 0.08050000191 0.6279999924
v 0.2269445419 0.08050000191 0.6299445343
v 0.225 0.08050000191 0.6307500076
v 0.2230554581 0.08050000191 0.6299445343
v 0.215 0.08050000191 0.6209999847
v 0.215 0.08050000191 0.635
v 0.235 0.08050000191 0.635
v 0.235 0.08050000191 0.6209999847
v 0.2197500038 0.06050000191 0.6279999924
v 0.2205834198 0.06050000191 0.630838356
v 0.2228190804 0.06050000191 0.6327755737
v 0.2257471466 0.06050000191 0.6331965637
v 0.228438015 0.06050000191 0.6319676971
v 0.2300373459 0.06050000191 0.6294791031
v 0.2300373459 0.06050000191 0.6265209198
v 0.228438015 0.06050000191 0.6240323257
v 0.2257471466 0.06050000191 0.622803421
v 0.2228190804 0.06050000191 0.6232244492
v 0.2205834198 0.06050000191 0.6251616287
v 0.215 0.06050000191 0.635
v 0.215 0.06050000191 0.6209999847
v 0.235 0.06050000191 0.6209999847
v 0.235 0.06050000191 0.635
v 0.215 0.06050000191 0.6209999847
v 0.215 0.06050000191 0.635
v 0.215 0.08050000191 0.635
v 0.215 0.08050000191 0.6209999847
v 0.235 0.06050000191 0.6209999847
v 0.215 0.06050000191 0.6209999847
v 0.215 0.08050000191 0.6209999847
v 0.235 0.08050000191 0.6209999847
v 0.235 0.06050000191 0.635
v 0.235 0.06050000191 0.6209999847
v 0.235 0.08050000191 0.6209999847
v 0.235 0.08050000191 0.635
v 0.2222500038 0.06199999809 0.6279999924
v 0.2230554581 0.06199999809 0.6260554504
v 0.225 0.06199999809 0.6252500153
v 0.2269445419 0.06199999809 0.6260554504
v 0.2277499962 0.06199999809 0.6279999924
v 0.2269445419 0.06199999809 0.6299445343
v 0.225 0.06199999809 0.6307500076
v 0.2230554581 0.06199999809 0.6299445343
v 0.2222500038 0.08050000191 0.6279999924
v 0.2230554581 0.08050000191 0.6299445343
v 0.225 0.08050000191 0.6307500076
v 0.2269445419 0.08050000191 0.6299445343
v 0.2277499962 0.08050000191 0.6279999924
v 0.2269445419 0.08050000191 0.6260554504
v 0.225 0.08050000191 0.6252500153
v 0.2230554581 0.08050000191 0.6260554504
v 0.2222500038 0.08050000191 0.6279999924
v 0.2222500038 0.06199999809 0.6279999924
f 2 22 1
f 1 22 24
f 23 12 11
f 11 12 13
f 11 13 10
f 10 13 14
f 10 14 9
f 9 14 15
f 9 15 8
f 8 15 16
f 8 16 7
f 7 16 17
f 7 17 6
f 6 17 18
f 6 18 5
f 5 18 19
f 5 19 4
f 4 19 20
f 4 20 3
f 3 20 21
f 3 21 2
f 2 21 22
f 26 43 25
f 25 43 33
f 25 33 34
f 43 26 42
f 42 26 27
f 42 27 41
f 41 27 28
f 41 28 40
f 40 28 39
f 39 28 29
f 39 29 38
f 38 29 30
f 38 30 37
f 37 30 36
f 36 30 31
f 36 31 35
f 35 31 32
f 35 32 34
f 34 32 25
f 44 45 47
f 47 45 46
f 49 56 48
f 48 56 57
f 48 57 55
f 55 57 54
f 54 57 58
f 54 58 53
f 53 58 52
f 52 58 59
f 52 59 51
f 51 59 50
f 50 59 56
f 50 56 49
f 61 71 60
f 60 71 72
f 60 72 70
f 70 72 69
f 69 72 68
f 68 72 73
f 68 73 67
f 67 73 66
f 66 73 74
f 66 74 65
f 65 74 64
f 64 74 63
f 63 74 71
f 63 71 62
f 62 71 61
f 75 76 78
f 78 76 77
f 79 80 82
f 82 80 81
f 83 84 86
f 86 84 85
f 88 102 87
f 87 102 103
f 104 95 94
f 94 95 96
f 94 96 93
f 93 96 97
f 93 97 92
f 92 97 98
f 92 98 91
f 91 98 99
f 91 99 90
f 90 99 100
f 90 100 89
f 89 100 101
f 89 101 88
f 88 101 102
