v 0.2434529495 0.09600000381 0.4590211755
v 0.2428405952 0.09600000381 0.4608339578
v 0.2436894226 0.09600000381 0.4625487978
v 0.245502224 0.09600000381 0.463161152
v 0.2472170448 0.09600000381 0.4623123247
v 0.2478293991 0.09600000381 0.4604995424
v 0.2469805717 0.09600000381 0.4587847025
v 0.2451677895 0.09600000381 0.4581723482
v 0.2434529495 0.09100000381 0.4590211755
v 0.2451677895 0.09100000381 0.4581723482
v 0.2469805717 0.09100000381 0.4587847025
v 0.2478293991 0.09100000381 0.4604995424
v 0.2472170448 0.09100000381 0.4623123247
v 0.245502224 0.09100000381 0.463161152
v 0.2436894226 0.09100000381 0.4625487978
v 0.2428405952 0.09100000381 0.4608339578
v 0.2434529495 0.09600000381 0.4590211755
v 0.2434529495 0.09100000381 0.4590211755
v 0.239312458 0.09600000381 0.4554009325
v 0.2424494553 0.09600000381 0.4532052881
v 0.2462474823 0.09600000381 0.4527189714
v 0.249836483 0.09600000381 0.4540533907
v 0.2523942566 0.09600000381 0.4569028551
v 0.2533348274 0.09600000381 0.4606145937
v 0.2524427414 0.09600000381 0.4643382723
v 0.2499223518 0.09600000381 0.4672208482
v 0.2463510513 0.09600000381 0.4686019594
v 0.2425469971 0.09600000381 0.4681652147
v 0.2393816376 0.09600000381 0.4660106737
v 0.2375801086 0.09600000381 0.4626318819
v 0.2375551414 0.09600000381 0.4588029176
v 0.239312458 0.09100000381 0.4554009325
v 0.2375551414 0.09100000381 0.4588029176
v 0.2375801086 0.09100000381 0.4626318819
v 0.2393816376 0.09100000381 0.4660106737
v 0.2425469971 0.09100000381 0.4681652147
v 0.2463510513 0.09100000381 0.4686019594
v 0.2499223518 0.09100000381 0.4672208482
v 0.2524427414 0.09100000381 0.4643382723
v 0.2533348274 0.09100000381 0.4606145937
v 0.2523942566 0.09100000381 0.4569028551
v 0.249836483 0.09100000381 0.4540533907
v 0.2462474823 0.09100000381 0.4527189714
v 0.2424494553 0.09100000381 0.4532052881
v 0.239312458 0.09100000381 0.4554009325
v 0.239312458 0.09600000381 0.4554009325
v 0.2434529495 0.09600000381 0.4590211755
v 0.2451677895 0.09600000381 0.4581723482
v 0.2469805717 0.09600000381 0.4587847025
v 0.2478293991 0.09600000381 0.4604995424
v 0.2472170448 0.09600000381 0.4623123247
v 0.245502224 0.09600000381 0.463161152
v 0.2436894226 0.09600000381 0.4625487978
v 0.2428405952 0.09600000381 0.4608339578
v 0.239312458 0.09600000381 0.4554009325
v 0.2375551414 0.09600000381 0.4588029176
v 0.2375801086 0.09600000381 0.4626318819
v 0.2393816376 0.09600000381 0.4660106737
v 0.2425469971 0.09600000381 0.4681652147
v 0.2463510513 0.09600000381 0.4686019594
v 0.2499223518 0.09600000381 0.4672208482
v 0.2524427414 0.09600000381 0.4643382723
v 0.2533348274 0.09600000381 0.4606145937
v 0.2523942566 0.09600000381 0.4569028551
v 0.249836483 0.09600000381 0.4540533907
v 0.2462474823 0.09600000381 0.4527189714
v 0.2424494553 0.09600000381 0.4532052881
v 0.2434529495 0.09100000381 0.4590211755
v 0.2428405952 0.09100000381 0.4608339578
v 0.2436894226 0.09100000381 0.4625487978
v 0.245502224 0.09100000381 0.463161152
v 0.2472170448 0.09100000381 0.4623123247
v 0.2478293991 0.09100000381 0.4604995424
v 0.2469805717 0.09100000381 0.4587847025
v 0.2451677895 0.09100000381 0.4581723482
v 0.239312458 0.09100000381 0.4554009325
v 0.2424494553 0.09100000381 0.4532052881
v 0.2462474823 0.09100000381 0.4527189714
v 0.249836483 0.09100000381 0.4540533907
v 0.2523942566 0.09100000381 0.4569028551
v 0.2533348274 0.09100000381 0.4606145937
v 0.2524427414 0.09100000381 0.4643382723
v 0.2499223518 0.09100000381 0.4672208482
v 0.2463510513 0.09100000381 0.4686019594
v 0.2425469971 0.09100000381 0.4681652147
v 0.2393816376 0.09100000381 0.4660106737
v 0.2375801086 0.09100000381 0.4626318819
v 0.2375551414 0.09100000381 0.4588029176
f 2 16 1
f 1 16 18
f 17 9 8
f 8 9 10
f 8 10 11
f 2 3 16
f 16 3 15
f 15 3 4
f 15 4 14
f 14 4 5
f 14 5 13
f 13 5 6
f 13 6 12
f 12 6 7
f 12 7 11
f 11 7 8
f 20 44 19
f 19 44 45
f 46 32 31
f 31 32 33
f 31 33 30
f 30 33 34
f 30 34 29
f 29 34 35
f 29 35 28
f 28 35 36
f 28 36 27
f 27 36 37
f 27 37 26
f 26 37 38
f 26 38 25
f 25 38 39
f 25 39 24
f 24 39 40
f 24 40 23
f 23 40 41
f 23 41 22
f 22 41 42
f 22 42 21
f 21 42 43
f 21 43 20
f 20 43 44
f 48 67 47
f 47 67 55
f 47 55 56
f 67 48 66
f 66 48 49
f 66 49 65
f 65 49 64
f 64 49 50
f 64 50 63
f 63 50 62
f 62 50 51
f 62 51 61
f 61 51 52
f 61 52 60
f 60 52 59
f 59 52 53
f 59 53 58
f 58 53 57
f 57 53 54
f 57 54 56
f 56 54 47
f 69 88 68
f 68 88 76
f 68 76 77
f 88 69 87
f 87 69 70
f 87 70 86
f 86 70 85
f 85 70 71
f 85 71 84
f 84 71 83
f 83 71 72
f 83 72 82
f 82 72 73
f 82 73 81
f 81 73 80
f 80 73 74
f 80 74 79
f 79 74 78
f 78 74 75
f 78 75 77
f 77 75 68
