v 0.2075 0.2102000046 0.02799999952
v 0.2067677689 0.2102000046 0.02623223305
v 0.205 0.2102000046 0.02549999952
v 0.2032322311 0.2102000046 0.02623223305
v 0.2025 0.2102000046 0.02799999952
v 0.2032322311 0.2102000046 0.029767766
v 0.205 0.2102000046 0.03049999952
v 0.2067677689 0.2102000046 0.029767766
v 0.2075 0.2068000031 0.02799999952
v 0.2067677689 0.2068000031 0.029767766
v 0.205 0.2068000031 0.03049999952
v 0.2032322311 0.2068000031 0.029767766
v 0.2025 0.2068000031 0.02799999952
v 0.2032322311 0.2068000031 0.02623223305
v 0.205 0.2068000031 0.02549999952
v 0.2067677689 0.2068000031 0.02623223305
v 0.2075 0.2102000046 0.02799999952
v 0.2075 0.2068000031 0.02799999952
v 0.21 0.2102000046 0.02450000048
v 0.21 0.2068000031 0.02299999952
v 0.2 0.2068000031 0.02299999952
v 0.2 0.2102000046 0.02450000048
v 0.21 0.2068000031 0.02299999952
v 0.21 0.2102000046 0.02450000048
v 0.21 0.2102000046 0.03150000095
v 0.21 0.2068000031 0.03299999952
v 0.2 0.2102000046 0.02450000048
v 0.2 0.2068000031 0.02299999952
v 0.2 0.2068000031 0.03299999952
v 0.2 0.2102000046 0.03150000095
v 0.2075 0.2068000031 0.02799999952
v 0.2067677689 0.2068000031 0.02623223305
v 0.205 0.2068000031 0.02549999952
v 0.2032322311 0.2068000031 0.02623223305
v 0.2025 0.2068000031 0.02799999952
v 0.2032322311 0.2068000031 0.029767766
v 0.205 0.2068000031 0.03049999952
v 0.2067677689 0.2068000031 0.029767766
v 0.21 0.2068000031 0.02299999952
v 0.21 0.2068000031 0.03299999952
v 0.2 0.2068000031 0.03299999952
v 0.2 0.2068000031 0.02299999952
v 0.2075 0.2102000046 0.02799999952
v 0.2067677689 0.2102000046 0.029767766
v 0.205 0.2102000046 0.03049999952
v 0.2032322311 0.2102000046 0.029767766
v 0.2025 0.2102000046 0.02799999952
v 0.2032322311 0.2102000046 0.02623223305
v 0.205 0.2102000046 0.02549999952
v 0.2067677689 0.2102000046 0.02623223305
v 0.21 0.2102000046 0.03150000095
v 0.21 0.2102000046 0.02450000048
v 0.2 0.2102000046 0.02450000048
v 0.2 0.2102000046 0.03150000095
v 0.21 0.2068000031 0.03299999952
v 0.21 0.2102000046 0.03150000095
v 0.2 0.2102000046 0.03150000095
v 0.2 0.2068000031 0.03299999952
f 2 16 1
f 1 16 18
f 17 9 8
f 8 9 10
f 8 10 11
f 2 3 16
f 16 3 15
f 15 3 4
f 15 4 14
f 14 4 5
f 14 5 13
f 13 5 6
f 13 6 12
f 12 6 7
f 12 7 11
f 11 7 8
f 19 20 22
f 22 20 21
f 24 25 23
f 23 25 26
f 28 29 27
f 27 29 30
f 32 39 31
f 31 39 40
f 31 40 38
f 38 40 37
f 37 40 41
f 37 41 36
f 36 41 35
f 35 41 42
f 35 42 34
f 34 42 33
f 33 42 39
f 33 39 32
f 44 51 43
f 43 51 52
f 43 52 50
f 50 52 49
f 49 52 53
f 49 53 48
f 48 53 47
f 47 53 54
f 47 54 46
f 46 54 45
f 45 54 51
f 45 51 44
f 55 56 58
f 58 56 57
