v -0.1872966957 -0.004333333373 0.4198767421
v -0.1864609206 -0.004333333373 0.4232676852
v -0.1841450034 -0.004333333373 0.4258818059
v -0.1808795293 -0.004333333373 0.4271202531
v -0.17741256 -0.004333333373 0.4266992883
v -0.1745383538 -0.004333333373 0.4247153647
v -0.1729153282 -0.004333333373 0.4216229832
v -0.1729153221 -0.004333333373 0.4181305515
v -0.1745383368 -0.004333333373 0.4150381453
v -0.1774125361 -0.004333333373 0.4130542115
v -0.1808795039 -0.004333333373 0.4126332536
v -0.1841449823 -0.004333333373 0.4138716703
v -0.1864609087 -0.004333333373 0.416485802
v -0.1727033043 -0.001666666716 0.4198767677
v -0.1735390913 -0.001666666716 0.4232677079
v -0.1758550177 -0.001666666716 0.4258818205
v -0.1791204961 -0.001666666716 0.4271202562
v -0.1825874639 -0.001666666716 0.4266992792
v -0.1854616632 -0.001666666716 0.4247153455
v -0.1870846779 -0.001666666716 0.4216229583
v -0.1870846718 -0.001666666716 0.4181305267
v -0.1854616462 -0.001666666716 0.4150381261
v -0.18258744 -0.001666666716 0.4130542025
v -0.1791204707 -0.001666666716 0.4126332567
v -0.1758549966 -0.001666666716 0.4138716848
v -0.1735390794 -0.001666666716 0.4164858246
v -0.1872966957 -0.004333333373 0.4198767421
v -0.1864925575 -0.003000000119 0.4198767435
v -0.1864925575 -0.003000000119 0.4198767435
v -0.1864925575 -0.003000000119 0.4198767435
v -0.1864925575 -0.003000000119 0.4198767435
v -0.1858495854 -0.003000000119 0.4170597242
v -0.1858495854 -0.003000000119 0.4170597242
v -0.1840480334 -0.003000000119 0.4148006637
v -0.1840480334 -0.003000000119 0.4148006637
v -0.1814447101 -0.003000000119 0.4135469871
v -0.1814447101 -0.003000000119 0.4135469871
v -0.1785552677 -0.003000000119 0.4135469921
v -0.1785552677 -0.003000000119 0.4135469921
v -0.1759519488 -0.003000000119 0.4148006779
v -0.1759519488 -0.003000000119 0.4148006779
v -0.1741504048 -0.003000000119 0.4170597448
v -0.1741504048 -0.003000000119 0.4170597448
v -0.1735074425 -0.003000000119 0.4198767663
v -0.1735074425 -0.003000000119 0.4198767663
v -0.1741504146 -0.003000000119 0.4226937665
v -0.1741504146 -0.003000000119 0.4226937665
v -0.1759519666 -0.003000000119 0.4249528462
v -0.1759519666 -0.003000000119 0.4249528462
v -0.1785552899 -0.003000000119 0.4262065228
v -0.1785552899 -0.003000000119 0.4262065228
v -0.1814447323 -0.003000000119 0.4262065177
v -0.1814447323 -0.003000000119 0.4262065177
v -0.1840480512 -0.003000000119 0.424952832
v -0.1840480512 -0.003000000119 0.424952832
v -0.1858495952 -0.003000000119 0.422693746
v -0.1858495952 -0.003000000119 0.422693746
v -0.1872462845 -0.004305489659 0.4198767422
v -0.1872462845 -0.004305489659 0.4198767422
v -0.1872462845 -0.00169451043 0.4198767422
v -0.1865286692 -0.004305489659 0.4230207788
v -0.1845179848 -0.004305489659 0.4255421065
v -0.1816124659 -0.004305489659 0.4269413425
v -0.1783875589 -0.004305489659 0.4269413482
v -0.1754820351 -0.004305489659 0.4255421223
v -0.1734713419 -0.004305489659 0.4230208017
v -0.1727537155 -0.004305489659 0.4198767676
v -0.1734713308 -0.004305489659 0.416732731
v -0.1754820152 -0.004305489659 0.4142114034
v -0.1783875341 -0.004305489659 0.4128121673
v -0.1816124411 -0.004305489659 0.4128121616
v -0.1845179649 -0.004305489659 0.4142113875
v -0.1865286581 -0.004305489659 0.4167327081
v -0.1734713419 -0.00169451043 0.4230208017
v -0.1727537155 -0.00169451043 0.4198767676
v -0.1754820351 -0.00169451043 0.4255421223
v -0.1783875589 -0.00169451043 0.4269413482
v -0.1816124659 -0.00169451043 0.4269413425
v -0.1845179848 -0.00169451043 0.4255421065
v -0.1865286692 -0.00169451043 0.4230207788
v -0.1865286581 -0.00169451043 0.4167327081
v -0.1872462845 -0.00169451043 0.4198767422
v -0.1845179649 -0.00169451043 0.4142113875
v -0.1816124411 -0.00169451043 0.4128121616
v -0.1783875341 -0.00169451043 0.4128121673
v -0.1754820152 -0.00169451043 0.4142114034
v -0.1734713308 -0.00169451043 0.416732731
v -0.1870846779 -0.001666666716 0.4216229583
v -0.175 -0.005699999928 0.4198767637
v -0.1759549089 -0.005699999928 0.4169378239
v -0.1784549057 -0.005699999928 0.4151214705
v -0.1815450776 -0.005699999928 0.415121465
v -0.1840450807 -0.005699999928 0.4169378097
v -0.185 -0.005699999928 0.4198767461
v -0.1840450911 -0.005699999928 0.4228156669
v -0.1815450943 -0.005699999928 0.4246320394
v -0.1784549224 -0.005699999928 0.4246320448
v -0.1759549193 -0.005699999928 0.4228156811
v -0.1746999931 -0.006000000238 0.4198767642
v -0.1755413678 -0.006000000238 0.4227421535
v -0.1777983178 -0.006000000238 0.4246978113
v -0.1807542702 -0.006000000238 0.4251228016
v -0.1834707712 -0.006000000238 0.4238822191
v -0.1850853183 -0.006000000238 0.4213699329
v -0.1850853131 -0.006000000238 0.418383559
v -0.1834707571 -0.006000000238 0.4158712786
v -0.1807542518 -0.006000000238 0.4146307056
v -0.1777983009 -0.006000000238 0.4150557062
v -0.1755413577 -0.006000000238 0.417011372
v -0.185 -0.005699999928 0.4198767461
v -0.1850853183 -0.006000000238 0.4213699329
v -0.175 -0.0002999999933 0.4198767637
v -0.1759549089 -0.0002999999933 0.4169378239
v -0.1784549057 -0.0002999999933 0.4151214705
v -0.1815450776 -0.0002999999933 0.415121465
v -0.1840450807 -0.0002999999933 0.4169378097
v -0.185 -0.0002999999933 0.4198767461
v -0.1840450911 -0.0002999999933 0.4228156669
v -0.1815450943 -0.0002999999933 0.4246320394
v -0.1784549224 -0.0002999999933 0.4246320448
v -0.1759549193 -0.0002999999933 0.4228156811
v -0.175 -0.005699999928 0.4198767637
v -0.1759549193 -0.005699999928 0.4228156811
v -0.1784549224 -0.005699999928 0.4246320448
v -0.1815450943 -0.005699999928 0.4246320394
v -0.1840450911 -0.005699999928 0.4228156669
v -0.185 -0.005699999928 0.4198767461
v -0.1840450807 -0.005699999928 0.4169378097
v -0.1815450776 -0.005699999928 0.415121465
v -0.1784549057 -0.005699999928 0.4151214705
v -0.1759549089 -0.005699999928 0.4169378239
v -0.185 -0.005699999928 0.4198767461
v -0.185 -0.0002999999933 0.4198767461
v -0.175 -0.0002999999933 0.4198767637
v -0.1759549193 -0.0002999999933 0.4228156811
v -0.1784549224 -0.0002999999933 0.4246320448
v -0.1815450943 -0.0002999999933 0.4246320394
v -0.1840450911 -0.0002999999933 0.4228156669
v -0.185 -0.0002999999933 0.4198767461
v -0.1840450807 -0.0002999999933 0.4169378097
v -0.1815450776 -0.0002999999933 0.415121465
v -0.1784549057 -0.0002999999933 0.4151214705
v -0.1759549089 -0.0002999999933 0.4169378239
v -0.1853000069 -1.960946131e-17 0.4198767456
v -0.1844586423 -1.973339748e-17 0.4227421379
v -0.1822016991 -1.971494953e-17 0.4246978036
v -0.1792457482 -1.955997324e-17 0.4251228042
v -0.1765292429 -1.931767166e-17 0.4238822313
v -0.1749146869 -1.906497536e-17 0.4213699508
v -0.1749146817 -1.888211206e-17 0.4183835769
v -0.1765292288 -1.88271413e-17 0.4158712907
v -0.1792457298 -1.89175154e-17 0.4146307083
v -0.1822016822 -1.91245388e-17 0.4150556985
v -0.1844586322 -1.938248708e-17 0.4170113563
v -0.175 -0.0002999999933 0.4198767637
v -0.1749146869 -1.906497536e-17 0.4213699508
v -0.1727033043 -1.994835876e-17 0.4198767677
v -0.1735390913 -2.020717161e-17 0.4232677079
v -0.1758550177 -2.050904997e-17 0.4258818205
v -0.1791204961 -2.078483565e-17 0.4271202562
v -0.1825874639 -2.097134912e-17 0.4266992792
v -0.1854616632 -2.102586226e-17 0.4247153455
v -0.1870846779 -2.093588899e-17 0.4216229583
v -0.1870846718 -2.072203848e-17 0.4181305267
v -0.1854616462 -2.043330139e-17 0.4150381261
v -0.18258744 -2.013582621e-17 0.4130542025
v -0.1791204707 -1.989775966e-17 0.4126332567
v -0.1758549966 -1.977363868e-17 0.4138716848
v -0.1735390794 -1.979189958e-17 0.4164858246
v -0.1727033043 -0.001666666716 0.4198767677
v -0.1735390794 -0.001666666716 0.4164858246
v -0.1758549966 -0.001666666716 0.4138716848
v -0.1791204707 -0.001666666716 0.4126332567
v -0.18258744 -0.001666666716 0.4130542025
v -0.1854616462 -0.001666666716 0.4150381261
v -0.1870846718 -0.001666666716 0.4181305267
v -0.1870846779 -0.001666666716 0.4216229583
v -0.1854616632 -0.001666666716 0.4247153455
v -0.1825874639 -0.001666666716 0.4266992792
v -0.1791204961 -0.001666666716 0.4271202562
v -0.1758550177 -0.001666666716 0.4258818205
v -0.1735390913 -0.001666666716 0.4232677079
v -0.1870846718 -2.072203848e-17 0.4181305267
v -0.1870846718 -0.001666666716 0.4181305267
v -0.1872966957 -0.004333333373 0.4198767421
v -0.1864609087 -0.004333333373 0.416485802
v -0.1841449823 -0.004333333373 0.4138716703
v -0.1808795039 -0.004333333373 0.4126332536
v -0.1774125361 -0.004333333373 0.4130542115
v -0.1745383368 -0.004333333373 0.4150381453
v -0.1729153221 -0.004333333373 0.4181305515
v -0.1729153282 -0.004333333373 0.4216229832
v -0.1745383538 -0.004333333373 0.4247153647
v -0.17741256 -0.004333333373 0.4266992883
v -0.1808795293 -0.004333333373 0.4271202531
v -0.1841450034 -0.004333333373 0.4258818059
v -0.1864609206 -0.004333333373 0.4232676852
v -0.1727033043 -0.006000000238 0.4198767677
v -0.1735390794 -0.006000000238 0.4164858246
v -0.1758549966 -0.006000000238 0.4138716848
v -0.1791204707 -0.006000000238 0.4126332567
v -0.18258744 -0.006000000238 0.4130542025
v -0.1854616462 -0.006000000238 0.4150381261
v -0.1870846718 -0.006000000238 0.4181305267
v -0.1870846779 -0.006000000238 0.4216229583
v -0.1854616632 -0.006000000238 0.4247153455
v -0.1825874639 -0.006000000238 0.4266992792
v -0.1791204961 -0.006000000238 0.4271202562
v -0.1758550177 -0.006000000238 0.4258818205
v -0.1735390913 -0.006000000238 0.4232677079
v -0.1870846718 -0.006000000238 0.4181305267
v -0.1872966957 -0.004333333373 0.4198767421
v -0.1727033043 -0.006000000238 0.4198767677
v -0.1735390913 -0.006000000238 0.4232677079
v -0.1758550177 -0.006000000238 0.4258818205
v -0.1791204961 -0.006000000238 0.4271202562
v -0.1825874639 -0.006000000238 0.4266992792
v -0.1854616632 -0.006000000238 0.4247153455
v -0.1870846779 -0.006000000238 0.4216229583
v -0.1870846718 -0.006000000238 0.4181305267
v -0.1854616462 -0.006000000238 0.4150381261
v -0.18258744 -0.006000000238 0.4130542025
v -0.1791204707 -0.006000000238 0.4126332567
v -0.1758549966 -0.006000000238 0.4138716848
v -0.1735390794 -0.006000000238 0.4164858246
v -0.1746999931 -0.006000000238 0.4198767642
v -0.1755413577 -0.006000000238 0.417011372
v -0.1777983009 -0.006000000238 0.4150557062
v -0.1807542518 -0.006000000238 0.4146307056
v -0.1834707571 -0.006000000238 0.4158712786
v -0.1850853131 -0.006000000238 0.418383559
v -0.1850853183 -0.006000000238 0.4213699329
v -0.1834707712 -0.006000000238 0.4238822191
v -0.1807542702 -0.006000000238 0.4251228016
v -0.1777983178 -0.006000000238 0.4246978113
v -0.1755413678 -0.006000000238 0.4227421535
v -0.1727033043 -1.994835876e-17 0.4198767677
v -0.1735390794 -1.979189958e-17 0.4164858246
v -0.1758549966 -1.977363868e-17 0.4138716848
v -0.1791204707 -1.989775966e-17 0.4126332567
v -0.18258744 -2.013582621e-17 0.4130542025
v -0.1854616462 -2.043330139e-17 0.4150381261
v -0.1870846718 -2.072203848e-17 0.4181305267
v -0.1870846779 -2.093588899e-17 0.4216229583
v -0.1854616632 -2.102586226e-17 0.4247153455
v -0.1825874639 -2.097134912e-17 0.4266992792
v -0.1791204961 -2.078483565e-17 0.4271202562
v -0.1758550177 -2.050904997e-17 0.4258818205
v -0.1735390913 -2.020717161e-17 0.4232677079
v -0.1853000069 -1.960946131e-17 0.4198767456
v -0.1844586322 -1.938248708e-17 0.4170113563
v -0.1822016822 -1.91245388e-17 0.4150556985
v -0.1792457298 -1.89175154e-17 0.4146307083
v -0.1765292288 -1.88271413e-17 0.4158712907
v -0.1749146817 -1.888211206e-17 0.4183835769
v -0.1749146869 -1.906497536e-17 0.4213699508
v -0.1765292429 -1.931767166e-17 0.4238822313
v -0.1792457482 -1.955997324e-17 0.4251228042
v -0.1822016991 -1.971494953e-17 0.4246978036
v -0.1844586423 -1.973339748e-17 0.4227421379
f 2 61 1
f 1 61 59
f 27 58 73
f 73 58 31
f 73 31 32
f 33 29 82
f 33 82 81
f 81 82 21
f 81 21 22
f 61 2 62
f 62 2 3
f 62 3 63
f 63 3 4
f 63 4 64
f 64 4 5
f 64 5 65
f 65 5 6
f 65 6 66
f 66 6 7
f 66 7 67
f 67 7 8
f 67 8 68
f 68 8 9
f 68 9 69
f 69 9 10
f 69 10 70
f 70 10 11
f 70 11 71
f 71 11 12
f 71 12 72
f 72 12 13
f 72 13 73
f 73 13 27
f 15 74 14
f 14 74 75
f 14 75 87
f 87 75 45
f 87 45 43
f 42 44 67
f 42 67 68
f 74 15 76
f 76 15 16
f 76 16 77
f 77 16 17
f 77 17 78
f 78 17 18
f 78 18 79
f 79 18 19
f 79 19 80
f 80 19 88
f 80 88 60
f 82 20 21
f 81 22 83
f 83 22 23
f 83 23 84
f 84 23 24
f 84 24 85
f 85 24 25
f 85 25 86
f 86 25 26
f 86 26 87
f 87 26 14
f 28 59 56
f 56 59 61
f 56 61 54
f 54 61 62
f 54 62 52
f 52 62 63
f 52 63 50
f 50 63 64
f 50 64 48
f 48 64 65
f 48 65 46
f 46 65 66
f 46 66 44
f 44 66 67
f 80 60 30
f 79 80 57
f 57 80 30
f 72 73 32
f 71 72 34
f 34 72 32
f 35 33 81
f 70 71 36
f 36 71 34
f 37 35 83
f 83 35 81
f 69 70 38
f 38 70 36
f 39 37 84
f 84 37 83
f 68 69 40
f 40 69 38
f 41 39 85
f 85 39 84
f 68 40 42
f 43 41 86
f 43 86 87
f 86 41 85
f 45 75 47
f 47 75 74
f 47 74 49
f 49 74 76
f 49 76 51
f 51 76 77
f 51 77 53
f 53 77 78
f 53 78 55
f 55 78 79
f 55 79 57
f 90 109 89
f 89 109 99
f 89 99 100
f 109 90 108
f 108 90 91
f 108 91 107
f 107 91 92
f 107 92 106
f 106 92 93
f 106 93 105
f 105 93 110
f 105 110 104
f 111 94 95
f 111 95 103
f 103 95 96
f 103 96 102
f 102 96 97
f 102 97 101
f 101 97 98
f 101 98 100
f 100 98 89
f 113 131 112
f 112 131 122
f 112 122 121
f 121 122 123
f 121 123 120
f 120 123 124
f 120 124 119
f 119 124 125
f 119 125 118
f 118 125 126
f 118 126 117
f 117 126 132
f 133 127 116
f 116 127 128
f 116 128 115
f 115 128 129
f 115 129 114
f 114 129 130
f 114 130 113
f 113 130 131
f 135 156 134
f 155 149 150
f 155 150 143
f 143 150 151
f 143 151 142
f 142 151 152
f 142 152 141
f 141 152 153
f 141 153 140
f 140 153 154
f 140 154 139
f 139 154 144
f 139 144 145
f 156 135 148
f 148 135 136
f 148 136 147
f 147 136 137
f 147 137 146
f 146 137 138
f 146 138 145
f 145 138 139
f 158 182 157
f 157 182 170
f 157 170 169
f 169 170 171
f 169 171 172
f 158 159 182
f 182 159 181
f 181 159 160
f 181 160 180
f 180 160 161
f 180 161 179
f 179 161 162
f 179 162 178
f 178 162 163
f 178 163 177
f 177 163 183
f 177 183 176
f 184 164 165
f 184 165 175
f 175 165 166
f 175 166 174
f 174 166 167
f 174 167 173
f 173 167 168
f 173 168 172
f 172 168 169
f 186 211 185
f 212 204 205
f 212 205 197
f 197 205 206
f 197 206 196
f 196 206 207
f 196 207 195
f 195 207 208
f 195 208 194
f 194 208 209
f 194 209 193
f 193 209 210
f 193 210 192
f 192 210 198
f 192 198 191
f 191 198 199
f 191 199 190
f 190 199 200
f 190 200 189
f 189 200 201
f 189 201 188
f 188 201 202
f 188 202 187
f 187 202 203
f 187 203 186
f 186 203 211
f 225 213 226
f 226 213 214
f 226 214 236
f 236 214 215
f 236 215 235
f 235 215 216
f 235 216 234
f 234 216 217
f 234 217 233
f 233 217 218
f 233 218 232
f 232 218 219
f 232 219 220
f 232 220 231
f 231 220 221
f 231 221 230
f 230 221 222
f 230 222 229
f 229 222 223
f 229 223 228
f 228 223 224
f 228 224 227
f 227 224 225
f 227 225 226
f 238 255 237
f 237 255 256
f 237 256 249
f 249 256 257
f 249 257 248
f 248 257 258
f 248 258 247
f 247 258 246
f 246 258 259
f 246 259 245
f 245 259 260
f 245 260 244
f 244 260 250
f 244 250 243
f 243 250 251
f 243 251 242
f 242 251 252
f 242 252 241
f 241 252 253
f 241 253 240
f 240 253 239
f 239 253 254
f 239 254 238
f 238 254 255
