v -0.2195000076 -0.195 0.03049999952
v -0.2195000076 -0.1967677689 0.029767766
v -0.2195000076 -0.1975 0.02799999952
v -0.2195000076 -0.1967677689 0.02623223305
v -0.2195000076 -0.195 0.02549999952
v -0.2195000076 -0.1932322311 0.02623223305
v -0.2195000076 -0.1925 0.02799999952
v -0.2195000076 -0.1932322311 0.029767766
v -0.2114999962 -0.195 0.03049999952
v -0.2114999962 -0.1932322311 0.029767766
v -0.2114999962 -0.1925 0.02799999952
v -0.2114999962 -0.1932322311 0.02623223305
v -0.2114999962 -0.195 0.02549999952
v -0.2114999962 -0.1967677689 0.02623223305
v -0.2114999962 -0.1975 0.02799999952
v -0.2114999962 -0.1967677689 0.029767766
v -0.2114999962 -0.195 0.03049999952
v -0.2195000076 -0.195 0.03049999952
v -0.2114999962 -0.195 0.0325
v -0.2114999962 -0.1923549652 0.03164057732
v -0.2114999962 -0.190720253 0.02939057589
v -0.2114999962 -0.190720253 0.02660942316
v -0.2114999962 -0.1923549652 0.02435942411
v -0.2114999962 -0.195 0.02349999905
v -0.2114999962 -0.1976450348 0.02435942411
v -0.2114999962 -0.199279747 0.02660942316
v -0.2114999962 -0.199279747 0.02939057589
v -0.2114999962 -0.1976450348 0.03164057732
v -0.2114999962 -0.195 0.03049999952
v -0.2114999962 -0.1967677689 0.029767766
v -0.2114999962 -0.1975 0.02799999952
v -0.2114999962 -0.1967677689 0.02623223305
v -0.2114999962 -0.195 0.02549999952
v -0.2114999962 -0.1932322311 0.02623223305
v -0.2114999962 -0.1925 0.02799999952
v -0.2114999962 -0.1932322311 0.029767766
v -0.2195000076 -0.195 0.03049999952
v -0.2195000076 -0.1932322311 0.029767766
v -0.2195000076 -0.1925 0.02799999952
v -0.2195000076 -0.1932322311 0.02623223305
v -0.2195000076 -0.195 0.02549999952
v -0.2195000076 -0.1967677689 0.02623223305
v -0.2195000076 -0.1975 0.02799999952
v -0.2195000076 -0.1967677689 0.029767766
v -0.21 -0.1935000038 0.02713397503
v -0.21 -0.195 0.02626794815
v -0.21 -0.1964999962 0.02713397503
v -0.21 -0.1964999962 0.0288660264
v -0.21 -0.195 0.0297320509
v -0.21 -0.1935000038 0.0288660264
v -0.21 -0.195 0.0325
v -0.21 -0.1976450348 0.03164057732
v -0.21 -0.199279747 0.02939057589
v -0.21 -0.199279747 0.02660942316
v -0.21 -0.1976450348 0.02435942411
v -0.21 -0.195 0.02349999905
v -0.21 -0.1923549652 0.02435942411
v -0.21 -0.190720253 0.02660942316
v -0.21 -0.190720253 0.02939057589
v -0.21 -0.1923549652 0.03164057732
v -0.21 -0.195 0.0325
v -0.21 -0.1923549652 0.03164057732
v -0.21 -0.190720253 0.02939057589
v -0.21 -0.190720253 0.02660942316
v -0.21 -0.1923549652 0.02435942411
v -0.21 -0.195 0.02349999905
v -0.21 -0.1976450348 0.02435942411
v -0.21 -0.199279747 0.02660942316
v -0.21 -0.199279747 0.02939057589
v -0.21 -0.1976450348 0.03164057732
v -0.2114999962 -0.195 0.0325
v -0.2114999962 -0.1976450348 0.03164057732
v -0.2114999962 -0.199279747 0.02939057589
v -0.2114999962 -0.199279747 0.02660942316
v -0.2114999962 -0.1976450348 0.02435942411
v -0.2114999962 -0.195 0.02349999905
v -0.2114999962 -0.1923549652 0.02435942411
v -0.2114999962 -0.190720253 0.02660942316
v -0.2114999962 -0.190720253 0.02939057589
v -0.2114999962 -0.1923549652 0.03164057732
v -0.2114999962 -0.195 0.0325
v -0.21 -0.195 0.0325
v -0.21 -0.195 0.02626794815
v -0.21 -0.1935000038 0.02713397503
v -0.2110000038 -0.1935000038 0.02713397503
v -0.2110000038 -0.195 0.02626794815
v -0.21 -0.1964999962 0.02713397503
v -0.21 -0.195 0.02626794815
v -0.2110000038 -0.195 0.02626794815
v -0.2110000038 -0.1964999962 0.02713397503
v -0.21 -0.1964999962 0.0288660264
v -0.21 -0.1964999962 0.02713397503
v -0.2110000038 -0.1964999962 0.02713397503
v -0.2110000038 -0.1964999962 0.0288660264
v -0.21 -0.1935000038 0.02713397503
v -0.21 -0.1935000038 0.0288660264
v -0.2110000038 -0.1935000038 0.0288660264
v -0.2110000038 -0.1935000038 0.02713397503
v -0.21 -0.195 0.0297320509
v -0.21 -0.1964999962 0.0288660264
v -0.2110000038 -0.1964999962 0.0288660264
v -0.2110000038 -0.195 0.0297320509
v -0.21 -0.1935000038 0.0288660264
v -0.21 -0.195 0.0297320509
v -0.2110000038 -0.195 0.0297320509
v -0.2110000038 -0.1935000038 0.0288660264
v -0.2110000038 -0.1964999962 0.02713397503
v -0.2110000038 -0.195 0.02626794815
v -0.2110000038 -0.1935000038 0.02713397503
v -0.2110000038 -0.1935000038 0.0288660264
v -0.2110000038 -0.195 0.0297320509
v -0.2110000038 -0.1964999962 0.0288660264
f 2 16 1
f 1 16 17
f 18 9 8
f 8 9 10
f 8 10 11
f 2 3 16
f 16 3 15
f 15 3 4
f 15 4 14
f 14 4 5
f 14 5 13
f 13 5 6
f 13 6 12
f 12 6 7
f 12 7 11
f 11 7 8
f 28 19 29
f 29 19 20
f 29 20 36
f 36 20 21
f 36 21 35
f 35 21 22
f 35 22 34
f 34 22 23
f 34 23 33
f 33 23 24
f 33 24 25
f 33 25 32
f 32 25 26
f 32 26 31
f 31 26 27
f 31 27 30
f 30 27 28
f 30 28 29
f 38 40 37
f 37 40 41
f 37 41 44
f 44 41 42
f 44 42 43
f 38 39 40
f 46 57 45
f 45 57 58
f 45 58 59
f 47 55 46
f 46 55 56
f 46 56 57
f 55 47 54
f 54 47 48
f 54 48 53
f 53 48 52
f 52 48 49
f 52 49 51
f 51 49 60
f 60 49 50
f 60 50 59
f 59 50 45
f 62 80 61
f 61 80 81
f 82 71 70
f 70 71 72
f 70 72 69
f 69 72 73
f 69 73 68
f 68 73 74
f 68 74 67
f 67 74 75
f 67 75 66
f 66 75 76
f 66 76 65
f 65 76 77
f 65 77 64
f 64 77 78
f 64 78 63
f 63 78 79
f 63 79 62
f 62 79 80
f 83 84 86
f 86 84 85
f 87 88 90
f 90 88 89
f 91 92 94
f 94 92 93
f 95 96 98
f 98 96 97
f 99 100 102
f 102 100 101
f 103 104 106
f 106 104 105
f 112 107 111
f 111 107 108
f 111 108 110
f 110 108 109
