v -0.1880742854 -0.02390000105 0.4209151967
v -0.1871426269 -0.02390000105 0.4237825537
v -0.1880742854 -0.02390000105 0.4209151967
v -0.1871426269 -0.02390000105 0.4237825537
v -0.1880742854 -0.02390000105 0.4209151967
v -0.1871426269 -0.02390000105 0.4237825537
v -0.1871426269 -0.02390000105 0.4237825537
v -0.1871426269 -0.02390000105 0.4237825537
v -0.1880742854 -0.02390000105 0.4209151967
v -0.1880742854 -0.02390000105 0.4209151967
v -0.1880742854 -0.02390000105 0.4209151967
v -0.1880742854 -0.02390000105 0.4209151967
v -0.1871426269 -0.02390000105 0.4237825537
v -0.1871426269 -0.02390000105 0.4237825537
v -0.1889516099 -0.02390000105 0.4216644971
v -0.1890421347 -0.02390000105 0.4228147044
v -0.1882928343 -0.02390000105 0.4236920289
v -0.1862653025 -0.02390000105 0.4230332533
v -0.1862653025 -0.02390000105 0.4230332533
v -0.1861747777 -0.02390000105 0.421883046
v -0.1861747777 -0.02390000105 0.421883046
v -0.1869240781 -0.02390000105 0.4210057215
v -0.1869240781 -0.02390000105 0.4210057215
v -0.1874309562 -0.02297688007 0.4211704202
v -0.1868916169 -0.02259451151 0.4221159701
v -0.1867721807 -0.02297688007 0.4231979329
v -0.1867721807 -0.02482311964 0.4231979329
v -0.1868916169 -0.02520549059 0.4221159701
v -0.1874309562 -0.02482311964 0.4211704202
v -0.1884447317 -0.02482311964 0.4214998175
v -0.1883252954 -0.02520549059 0.4225817803
v -0.1877859561 -0.02482311964 0.4235273302
v -0.1877859561 -0.02297688007 0.4235273302
v -0.1883252954 -0.02259451151 0.4225817803
v -0.1884447317 -0.02297688007 0.4214998175
f 33 7 26
f 26 8 18
f 24 9 35
f 35 10 15
f 30 11 29
f 29 12 23
f 27 13 32
f 32 14 17
f 15 16 35
f 35 16 34
f 35 34 24
f 24 34 25
f 24 25 22
f 22 25 20
f 23 21 29
f 29 21 28
f 29 28 30
f 30 28 31
f 30 31 15
f 15 31 16
f 15 3 30
f 16 17 34
f 34 17 33
f 34 33 25
f 25 33 26
f 25 26 20
f 20 26 18
f 21 19 28
f 28 19 27
f 28 27 31
f 31 27 32
f 31 32 16
f 16 32 17
f 17 4 33
f 19 2 27
f 22 1 24
