v -0.2275 0.08569999695 0.06941813946
v -0.2267677689 0.08569999695 0.07118590832
v -0.225 0.08569999695 0.07191813946
v -0.2232322311 0.08569999695 0.07118590832
v -0.2225 0.08569999695 0.06941813946
v -0.2232322311 0.08569999695 0.06765037537
v -0.225 0.08569999695 0.06691813946
v -0.2267677689 0.08569999695 0.06765037537
v -0.2275 0.08229999542 0.06941813946
v -0.2267677689 0.08229999542 0.06765037537
v -0.225 0.08229999542 0.06691813946
v -0.2232322311 0.08229999542 0.06765037537
v -0.2225 0.08229999542 0.06941813946
v -0.2232322311 0.08229999542 0.07118590832
v -0.225 0.08229999542 0.07191813946
v -0.2267677689 0.08229999542 0.07118590832
v -0.2275 0.08569999695 0.06941813946
v -0.2275 0.08229999542 0.06941813946
v -0.22 0.08229999542 0.06441813946
v -0.2214999962 0.08569999695 0.06441813946
v -0.2214999962 0.08569999695 0.07441813946
v -0.22 0.08229999542 0.07441813946
v -0.2285000038 0.08569999695 0.07441813946
v -0.23 0.08229999542 0.07441813946
v -0.22 0.08229999542 0.07441813946
v -0.2214999962 0.08569999695 0.07441813946
v -0.2275 0.08569999695 0.06941813946
v -0.2267677689 0.08569999695 0.06765037537
v -0.225 0.08569999695 0.06691813946
v -0.2232322311 0.08569999695 0.06765037537
v -0.2225 0.08569999695 0.06941813946
v -0.2232322311 0.08569999695 0.07118590832
v -0.225 0.08569999695 0.07191813946
v -0.2267677689 0.08569999695 0.07118590832
v -0.2214999962 0.08569999695 0.06441813946
v -0.2285000038 0.08569999695 0.06441813946
v -0.2285000038 0.08569999695 0.07441813946
v -0.2214999962 0.08569999695 0.07441813946
v -0.2285000038 0.08569999695 0.06441813946
v -0.23 0.08229999542 0.06441813946
v -0.23 0.08229999542 0.07441813946
v -0.2285000038 0.08569999695 0.07441813946
v -0.23 0.08229999542 0.06441813946
v -0.2285000038 0.08569999695 0.06441813946
v -0.2214999962 0.08569999695 0.06441813946
v -0.22 0.08229999542 0.06441813946
v -0.2275 0.08229999542 0.06941813946
v -0.2267677689 0.08229999542 0.07118590832
v -0.225 0.08229999542 0.07191813946
v -0.2232322311 0.08229999542 0.07118590832
v -0.2225 0.08229999542 0.06941813946
v -0.2232322311 0.08229999542 0.06765037537
v -0.225 0.08229999542 0.06691813946
v -0.2267677689 0.08229999542 0.06765037537
v -0.23 0.08229999542 0.06441813946
v -0.22 0.08229999542 0.06441813946
v -0.22 0.08229999542 0.07441813946
v -0.23 0.08229999542 0.07441813946
f 2 16 1
f 1 16 18
f 17 9 8
f 8 9 10
f 8 10 11
f 2 3 16
f 16 3 15
f 15 3 4
f 15 4 14
f 14 4 5
f 14 5 13
f 13 5 6
f 13 6 12
f 12 6 7
f 12 7 11
f 11 7 8
f 19 20 22
f 22 20 21
f 24 25 23
f 23 25 26
f 28 36 27
f 27 36 37
f 27 37 34
f 34 37 33
f 33 37 38
f 33 38 32
f 32 38 31
f 31 38 35
f 31 35 30
f 30 35 29
f 29 35 36
f 29 36 28
f 39 40 42
f 42 40 41
f 44 45 43
f 43 45 46
f 48 58 47
f 47 58 55
f 47 55 54
f 54 55 53
f 53 55 56
f 53 56 52
f 52 56 51
f 51 56 57
f 51 57 50
f 50 57 49
f 49 57 58
f 49 58 48
