v 0.2434529495 0.1019999981 0.3790211851
v 0.2428405952 0.1019999981 0.3808339674
v 0.2436894226 0.1019999981 0.3825487978
v 0.245502224 0.1019999981 0.383161152
v 0.2472170448 0.1019999981 0.3823123247
v 0.2478293991 0.1019999981 0.3804995329
v 0.2469805717 0.1019999981 0.3787847025
v 0.2451677895 0.1019999981 0.3781723482
v 0.2434529495 0.09699999809 0.3790211851
v 0.2451677895 0.09699999809 0.3781723482
v 0.2469805717 0.09699999809 0.3787847025
v 0.2478293991 0.09699999809 0.3804995329
v 0.2472170448 0.09699999809 0.3823123247
v 0.245502224 0.09699999809 0.383161152
v 0.2436894226 0.09699999809 0.3825487978
v 0.2428405952 0.09699999809 0.3808339674
v 0.2434529495 0.1019999981 0.3790211851
v 0.2434529495 0.09699999809 0.3790211851
v 0.2497064781 0.09699999809 0.3791755849
v 0.2462293434 0.09699999809 0.3761353666
v 0.2462293434 0.1019999981 0.3761353666
v 0.2497064781 0.1019999981 0.3791755849
v 0.2462293434 0.09699999809 0.3761353666
v 0.241857872 0.09699999809 0.3776265318
v 0.241857872 0.1019999981 0.3776265318
v 0.2462293434 0.1019999981 0.3761353666
v 0.2488121223 0.09699999809 0.383706978
v 0.2497064781 0.09699999809 0.3791755849
v 0.2497064781 0.1019999981 0.3791755849
v 0.2488121223 0.1019999981 0.383706978
v 0.2444406509 0.09699999809 0.3851981432
v 0.2488121223 0.09699999809 0.383706978
v 0.2488121223 0.1019999981 0.383706978
v 0.2444406509 0.1019999981 0.3851981432
v 0.2434529495 0.1019999981 0.3790211851
v 0.2451677895 0.1019999981 0.3781723482
v 0.2469805717 0.1019999981 0.3787847025
v 0.2478293991 0.1019999981 0.3804995329
v 0.2472170448 0.1019999981 0.3823123247
v 0.245502224 0.1019999981 0.383161152
v 0.2436894226 0.1019999981 0.3825487978
v 0.2428405952 0.1019999981 0.3808339674
v 0.2444406509 0.1019999981 0.3851981432
v 0.2488121223 0.1019999981 0.383706978
v 0.2497064781 0.1019999981 0.3791755849
v 0.2462293434 0.1019999981 0.3761353666
v 0.241857872 0.1019999981 0.3776265318
v 0.2409635353 0.1019999981 0.3821579153
v 0.2409635353 0.09699999809 0.3821579153
v 0.2444406509 0.09699999809 0.3851981432
v 0.2444406509 0.1019999981 0.3851981432
v 0.2409635353 0.1019999981 0.3821579153
v 0.241857872 0.09699999809 0.3776265318
v 0.2409635353 0.09699999809 0.3821579153
v 0.2409635353 0.1019999981 0.3821579153
v 0.241857872 0.1019999981 0.3776265318
v 0.2434529495 0.09699999809 0.3790211851
v 0.2428405952 0.09699999809 0.3808339674
v 0.2436894226 0.09699999809 0.3825487978
v 0.245502224 0.09699999809 0.383161152
v 0.2472170448 0.09699999809 0.3823123247
v 0.2478293991 0.09699999809 0.3804995329
v 0.2469805717 0.09699999809 0.3787847025
v 0.2451677895 0.09699999809 0.3781723482
v 0.2488121223 0.09699999809 0.383706978
v 0.2444406509 0.09699999809 0.3851981432
v 0.2409635353 0.09699999809 0.3821579153
v 0.241857872 0.09699999809 0.3776265318
v 0.2462293434 0.09699999809 0.3761353666
v 0.2497064781 0.09699999809 0.3791755849
f 2 16 1
f 1 16 18
f 17 9 8
f 8 9 10
f 8 10 11
f 2 3 16
f 16 3 15
f 15 3 4
f 15 4 14
f 14 4 5
f 14 5 13
f 13 5 6
f 13 6 12
f 12 6 7
f 12 7 11
f 11 7 8
f 19 20 22
f 22 20 21
f 23 24 26
f 26 24 25
f 27 28 30
f 30 28 29
f 31 32 34
f 34 32 33
f 42 35 47
f 47 35 36
f 47 36 46
f 46 36 37
f 46 37 45
f 45 37 38
f 45 38 44
f 44 38 39
f 44 39 40
f 44 40 43
f 43 40 41
f 43 41 48
f 48 41 42
f 48 42 47
f 49 50 52
f 52 50 51
f 53 54 56
f 56 54 55
f 64 57 68
f 68 57 58
f 68 58 67
f 67 58 59
f 67 59 66
f 66 59 60
f 66 60 65
f 65 60 61
f 65 61 62
f 65 62 70
f 70 62 63
f 70 63 69
f 69 63 64
f 69 64 68
