v -0.2065470505 0.1019999981 0.3790211851
v -0.2048322105 0.1019999981 0.3781723482
v -0.2030194283 0.1019999981 0.3787847025
v -0.2021706009 0.1019999981 0.3804995329
v -0.2027829552 0.1019999981 0.3823123247
v -0.204497776 0.1019999981 0.383161152
v -0.2063105774 0.1019999981 0.3825487978
v -0.2071594048 0.1019999981 0.3808339674
v -0.2055593491 0.1019999981 0.3851981432
v -0.2011878777 0.1019999981 0.383706978
v -0.2002935219 0.1019999981 0.3791755849
v -0.2037706566 0.1019999981 0.3761353666
v -0.208142128 0.1019999981 0.3776265318
v -0.2090364647 0.1019999981 0.3821579153
v -0.2002935219 0.09699999809 0.3791755849
v -0.2037706566 0.09699999809 0.3761353666
v -0.2037706566 0.1019999981 0.3761353666
v -0.2002935219 0.1019999981 0.3791755849
v -0.2011878777 0.09699999809 0.383706978
v -0.2002935219 0.09699999809 0.3791755849
v -0.2002935219 0.1019999981 0.3791755849
v -0.2011878777 0.1019999981 0.383706978
v -0.2090364647 0.09699999809 0.3821579153
v -0.2055593491 0.09699999809 0.3851981432
v -0.2055593491 0.1019999981 0.3851981432
v -0.2090364647 0.1019999981 0.3821579153
v -0.2055593491 0.09699999809 0.3851981432
v -0.2011878777 0.09699999809 0.383706978
v -0.2011878777 0.1019999981 0.383706978
v -0.2055593491 0.1019999981 0.3851981432
v -0.2037706566 0.09699999809 0.3761353666
v -0.208142128 0.09699999809 0.3776265318
v -0.208142128 0.1019999981 0.3776265318
v -0.2037706566 0.1019999981 0.3761353666
v -0.2065470505 0.09699999809 0.3790211851
v -0.2071594048 0.09699999809 0.3808339674
v -0.2063105774 0.09699999809 0.3825487978
v -0.204497776 0.09699999809 0.383161152
v -0.2027829552 0.09699999809 0.3823123247
v -0.2021706009 0.09699999809 0.3804995329
v -0.2030194283 0.09699999809 0.3787847025
v -0.2048322105 0.09699999809 0.3781723482
v -0.2011878777 0.09699999809 0.383706978
v -0.2055593491 0.09699999809 0.3851981432
v -0.2090364647 0.09699999809 0.3821579153
v -0.208142128 0.09699999809 0.3776265318
v -0.2037706566 0.09699999809 0.3761353666
v -0.2002935219 0.09699999809 0.3791755849
v -0.208142128 0.09699999809 0.3776265318
v -0.2090364647 0.09699999809 0.3821579153
v -0.2090364647 0.1019999981 0.3821579153
v -0.208142128 0.1019999981 0.3776265318
v -0.2065470505 0.1019999981 0.3790211851
v -0.2071594048 0.1019999981 0.3808339674
v -0.2063105774 0.1019999981 0.3825487978
v -0.204497776 0.1019999981 0.383161152
v -0.2027829552 0.1019999981 0.3823123247
v -0.2021706009 0.1019999981 0.3804995329
v -0.2030194283 0.1019999981 0.3787847025
v -0.2048322105 0.1019999981 0.3781723482
v -0.2065470505 0.09699999809 0.3790211851
v -0.2048322105 0.09699999809 0.3781723482
v -0.2030194283 0.09699999809 0.3787847025
v -0.2021706009 0.09699999809 0.3804995329
v -0.2027829552 0.09699999809 0.3823123247
v -0.204497776 0.09699999809 0.383161152
v -0.2063105774 0.09699999809 0.3825487978
v -0.2071594048 0.09699999809 0.3808339674
v -0.2065470505 0.1019999981 0.3790211851
v -0.2065470505 0.09699999809 0.3790211851
f 8 1 13
f 13 1 2
f 13 2 12
f 12 2 3
f 12 3 11
f 11 3 4
f 11 4 10
f 10 4 5
f 10 5 6
f 10 6 9
f 9 6 7
f 9 7 14
f 14 7 8
f 14 8 13
f 15 16 18
f 18 16 17
f 19 20 22
f 22 20 21
f 23 24 26
f 26 24 25
f 27 28 30
f 30 28 29
f 31 32 34
f 34 32 33
f 42 35 46
f 46 35 36
f 46 36 45
f 45 36 37
f 45 37 44
f 44 37 38
f 44 38 43
f 43 38 39
f 43 39 40
f 43 40 48
f 48 40 41
f 48 41 47
f 47 41 42
f 47 42 46
f 49 50 52
f 52 50 51
f 54 68 53
f 53 68 70
f 69 61 60
f 60 61 62
f 60 62 63
f 54 55 68
f 68 55 67
f 67 55 56
f 67 56 66
f 66 56 57
f 66 57 65
f 65 57 58
f 65 58 64
f 64 58 59
f 64 59 63
f 63 59 60
