v -0.2533349991 0.09600000381 0.3798767549
v -0.2524186516 0.09600000381 0.37615897
v -0.2498795128 0.09600000381 0.3732928831
v -0.2462992859 0.09600000381 0.3719350797
v -0.2424981689 0.09600000381 0.37239662
v -0.2393469048 0.09600000381 0.3745717699
v -0.2375674629 0.09600000381 0.3779622251
v -0.2375674629 0.09600000381 0.3817912752
v -0.2393469048 0.09600000381 0.3851817304
v -0.2424981689 0.09600000381 0.3873568803
v -0.2462992859 0.09600000381 0.3878184206
v -0.2498795128 0.09600000381 0.3864606268
v -0.2524186516 0.09600000381 0.3835945398
v -0.2533349991 0.09100000381 0.3798767549
v -0.2524186516 0.09100000381 0.3835945398
v -0.2498795128 0.09100000381 0.3864606268
v -0.2462992859 0.09100000381 0.3878184206
v -0.2424981689 0.09100000381 0.3873568803
v -0.2393469048 0.09100000381 0.3851817304
v -0.2375674629 0.09100000381 0.3817912752
v -0.2375674629 0.09100000381 0.3779622251
v -0.2393469048 0.09100000381 0.3745717699
v -0.2424981689 0.09100000381 0.37239662
v -0.2462992859 0.09100000381 0.3719350797
v -0.2498795128 0.09100000381 0.3732928831
v -0.2524186516 0.09100000381 0.37615897
v -0.2533349991 0.09100000381 0.3798767549
v -0.2533349991 0.09600000381 0.3798767549
v -0.2478350067 0.09600000381 0.3798767549
v -0.2471027756 0.09600000381 0.3816445238
v -0.2453350067 0.09600000381 0.3823767549
v -0.2435672379 0.09600000381 0.3816445238
v -0.2428350067 0.09600000381 0.3798767549
v -0.2435672379 0.09600000381 0.3781089861
v -0.2453350067 0.09600000381 0.3773767549
v -0.2471027756 0.09600000381 0.3781089861
v -0.2478350067 0.09100000381 0.3798767549
v -0.2471027756 0.09100000381 0.3781089861
v -0.2453350067 0.09100000381 0.3773767549
v -0.2435672379 0.09100000381 0.3781089861
v -0.2428350067 0.09100000381 0.3798767549
v -0.2435672379 0.09100000381 0.3816445238
v -0.2453350067 0.09100000381 0.3823767549
v -0.2471027756 0.09100000381 0.3816445238
v -0.2478350067 0.09600000381 0.3798767549
v -0.2478350067 0.09100000381 0.3798767549
v -0.2478350067 0.09600000381 0.3798767549
v -0.2471027756 0.09600000381 0.3781089861
v -0.2453350067 0.09600000381 0.3773767549
v -0.2435672379 0.09600000381 0.3781089861
v -0.2428350067 0.09600000381 0.3798767549
v -0.2435672379 0.09600000381 0.3816445238
v -0.2453350067 0.09600000381 0.3823767549
v -0.2471027756 0.09600000381 0.3816445238
v -0.2533349991 0.09600000381 0.3798767549
v -0.2524186516 0.09600000381 0.3835945398
v -0.2498795128 0.09600000381 0.3864606268
v -0.2462992859 0.09600000381 0.3878184206
v -0.2424981689 0.09600000381 0.3873568803
v -0.2393469048 0.09600000381 0.3851817304
v -0.2375674629 0.09600000381 0.3817912752
v -0.2375674629 0.09600000381 0.3779622251
v -0.2393469048 0.09600000381 0.3745717699
v -0.2424981689 0.09600000381 0.37239662
v -0.2462992859 0.09600000381 0.3719350797
v -0.2498795128 0.09600000381 0.3732928831
v -0.2524186516 0.09600000381 0.37615897
v -0.2478350067 0.09100000381 0.3798767549
v -0.2471027756 0.09100000381 0.3816445238
v -0.2453350067 0.09100000381 0.3823767549
v -0.2435672379 0.09100000381 0.3816445238
v -0.2428350067 0.09100000381 0.3798767549
v -0.2435672379 0.09100000381 0.3781089861
v -0.2453350067 0.09100000381 0.3773767549
v -0.2471027756 0.09100000381 0.3781089861
v -0.2533349991 0.09100000381 0.3798767549
v -0.2524186516 0.09100000381 0.37615897
v -0.2498795128 0.09100000381 0.3732928831
v -0.2462992859 0.09100000381 0.3719350797
v -0.2424981689 0.09100000381 0.37239662
v -0.2393469048 0.09100000381 0.3745717699
v -0.2375674629 0.09100000381 0.3779622251
v -0.2375674629 0.09100000381 0.3817912752
v -0.2393469048 0.09100000381 0.3851817304
v -0.2424981689 0.09100000381 0.3873568803
v -0.2462992859 0.09100000381 0.3878184206
v -0.2498795128 0.09100000381 0.3864606268
v -0.2524186516 0.09100000381 0.3835945398
f 2 26 1
f 1 26 27
f 28 14 13
f 13 14 15
f 13 15 12
f 12 15 16
f 12 16 11
f 11 16 17
f 11 17 10
f 10 17 18
f 10 18 9
f 9 18 19
f 9 19 8
f 8 19 20
f 8 20 7
f 7 20 21
f 7 21 6
f 6 21 22
f 6 22 5
f 5 22 23
f 5 23 4
f 4 23 24
f 4 24 3
f 3 24 25
f 3 25 2
f 2 25 26
f 30 44 29
f 29 44 46
f 45 37 36
f 36 37 38
f 36 38 39
f 30 31 44
f 44 31 43
f 43 31 32
f 43 32 42
f 42 32 33
f 42 33 41
f 41 33 34
f 41 34 40
f 40 34 35
f 40 35 39
f 39 35 36
f 48 67 47
f 47 67 55
f 47 55 56
f 67 48 66
f 66 48 49
f 66 49 65
f 65 49 64
f 64 49 50
f 64 50 63
f 63 50 62
f 62 50 51
f 62 51 61
f 61 51 52
f 61 52 60
f 60 52 59
f 59 52 53
f 59 53 58
f 58 53 57
f 57 53 54
f 57 54 56
f 56 54 47
f 69 88 68
f 68 88 76
f 68 76 77
f 88 69 87
f 87 69 70
f 87 70 86
f 86 70 85
f 85 70 71
f 85 71 84
f 84 71 83
f 83 71 72
f 83 72 82
f 82 72 73
f 82 73 81
f 81 73 80
f 80 73 74
f 80 74 79
f 79 74 78
f 78 74 75
f 78 75 77
f 77 75 68
