v 0.24 0.08784999847 0.07800000191
v 0.24 0.08862616539 0.07987383366
v 0.24 0.09050000191 0.0806499958
v 0.24 0.09237382889 0.07987383366
v 0.24 0.0931499958 0.07800000191
v 0.24 0.09237382889 0.07612616539
v 0.24 0.09050000191 0.07534999847
v 0.24 0.08862616539 0.07612616539
v 0.24 0.08550000191 0.07800000191
v 0.24 0.086454916 0.0750610733
v 0.24 0.088954916 0.07324471951
v 0.24 0.09204508781 0.07324471951
v 0.24 0.09454508781 0.0750610733
v 0.24 0.09550000191 0.07800000191
v 0.24 0.09454508781 0.08093893051
v 0.24 0.09204508781 0.08275527954
v 0.24 0.088954916 0.08275527954
v 0.24 0.086454916 0.08093893051
v 0.2389999962 0.08784999847 0.07800000191
v 0.2389999962 0.08862616539 0.07612616539
v 0.2389999962 0.09050000191 0.07534999847
v 0.2389999962 0.09237382889 0.07612616539
v 0.2389999962 0.0931499958 0.07800000191
v 0.2389999962 0.09237382889 0.07987383366
v 0.2389999962 0.09050000191 0.0806499958
v 0.2389999962 0.08862616539 0.07987383366
v 0.2389999962 0.08550000191 0.07800000191
v 0.2389999962 0.086454916 0.08093893051
v 0.2389999962 0.088954916 0.08275527954
v 0.2389999962 0.09204508781 0.08275527954
v 0.2389999962 0.09454508781 0.08093893051
v 0.2389999962 0.09550000191 0.07800000191
v 0.2389999962 0.09454508781 0.0750610733
v 0.2389999962 0.09204508781 0.07324471951
v 0.2389999962 0.088954916 0.07324471951
v 0.2389999962 0.086454916 0.0750610733
v 0.2389999962 0.08784999847 0.07800000191
v 0.2389999962 0.08862616539 0.07987383366
v 0.2389999962 0.09050000191 0.0806499958
v 0.2389999962 0.09237382889 0.07987383366
v 0.2389999962 0.0931499958 0.07800000191
v 0.2389999962 0.09237382889 0.07612616539
v 0.2389999962 0.09050000191 0.07534999847
v 0.2389999962 0.08862616539 0.07612616539
v 0.24 0.08784999847 0.07800000191
v 0.24 0.08862616539 0.07612616539
v 0.24 0.09050000191 0.07534999847
v 0.24 0.09237382889 0.07612616539
v 0.24 0.0931499958 0.07800000191
v 0.24 0.09237382889 0.07987383366
v 0.24 0.09050000191 0.0806499958
v 0.24 0.08862616539 0.07987383366
v 0.2389999962 0.08784999847 0.07800000191
v 0.24 0.08784999847 0.07800000191
v 0.2389999962 0.08550000191 0.07800000191
v 0.2389999962 0.086454916 0.0750610733
v 0.2389999962 0.088954916 0.07324471951
v 0.2389999962 0.09204508781 0.07324471951
v 0.2389999962 0.09454508781 0.0750610733
v 0.2389999962 0.09550000191 0.07800000191
v 0.2389999962 0.09454508781 0.08093893051
v 0.2389999962 0.09204508781 0.08275527954
v 0.2389999962 0.088954916 0.08275527954
v 0.2389999962 0.086454916 0.08093893051
v 0.24 0.08550000191 0.07800000191
v 0.24 0.086454916 0.08093893051
v 0.24 0.088954916 0.08275527954
v 0.24 0.09204508781 0.08275527954
v 0.24 0.09454508781 0.08093893051
v 0.24 0.09550000191 0.07800000191
v 0.24 0.09454508781 0.0750610733
v 0.24 0.09204508781 0.07324471951
v 0.24 0.088954916 0.07324471951
v 0.24 0.086454916 0.0750610733
v 0.24 0.08550000191 0.07800000191
v 0.2389999962 0.08550000191 0.07800000191
f 2 18 1
f 1 18 9
f 1 9 10
f 18 2 17
f 17 2 3
f 17 3 16
f 16 3 4
f 16 4 15
f 15 4 5
f 15 5 14
f 14 5 13
f 13 5 6
f 13 6 12
f 12 6 7
f 12 7 11
f 11 7 8
f 11 8 10
f 10 8 1
f 20 36 19
f 19 36 27
f 19 27 28
f 36 20 35
f 35 20 21
f 35 21 34
f 34 21 22
f 34 22 33
f 33 22 23
f 33 23 32
f 32 23 31
f 31 23 24
f 31 24 30
f 30 24 25
f 30 25 29
f 29 25 26
f 29 26 28
f 28 26 19
f 38 52 37
f 37 52 54
f 53 45 44
f 44 45 46
f 44 46 43
f 43 46 47
f 43 47 42
f 42 47 48
f 42 48 41
f 41 48 49
f 41 49 40
f 40 49 50
f 40 50 39
f 39 50 51
f 39 51 38
f 38 51 52
f 56 74 55
f 55 74 75
f 76 65 64
f 64 65 66
f 64 66 63
f 63 66 67
f 63 67 62
f 62 67 68
f 62 68 61
f 61 68 69
f 61 69 60
f 60 69 70
f 60 70 59
f 59 70 71
f 59 71 58
f 58 71 72
f 58 72 57
f 57 72 73
f 57 73 56
f 56 73 74
