v -0.06925000191 0.06599999905 0.4848767549
v -0.06843832016 0.06599999905 0.4873748476
v -0.06631332397 0.06599999905 0.4889187509
v -0.06368667603 0.06599999905 0.4889187509
v -0.06156167984 0.06599999905 0.4873748476
v -0.06074999809 0.06599999905 0.4848767549
v -0.06156167984 0.06599999905 0.4823786623
v -0.06368667603 0.06599999905 0.4808347589
v -0.06631332397 0.06599999905 0.4808347589
v -0.06843832016 0.06599999905 0.4823786623
v -0.0675 0.06599999905 0.4848767549
v -0.06676776886 0.06599999905 0.4831089861
v -0.065 0.06599999905 0.4823767549
v -0.06323223114 0.06599999905 0.4831089861
v -0.0625 0.06599999905 0.4848767549
v -0.06323223114 0.06599999905 0.4866445238
v -0.065 0.06599999905 0.4873767549
v -0.06676776886 0.06599999905 0.4866445238
v -0.06925000191 0.06599999905 0.4848767549
v -0.06843832016 0.06599999905 0.4823786623
v -0.06631332397 0.06599999905 0.4808347589
v -0.06368667603 0.06599999905 0.4808347589
v -0.06156167984 0.06599999905 0.4823786623
v -0.06074999809 0.06599999905 0.4848767549
v -0.06156167984 0.06599999905 0.4873748476
v -0.06368667603 0.06599999905 0.4889187509
v -0.06631332397 0.06599999905 0.4889187509
v -0.06843832016 0.06599999905 0.4873748476
v -0.06925000191 0.06099999905 0.4848767549
v -0.06843832016 0.06099999905 0.4873748476
v -0.06631332397 0.06099999905 0.4889187509
v -0.06368667603 0.06099999905 0.4889187509
v -0.06156167984 0.06099999905 0.4873748476
v -0.06074999809 0.06099999905 0.4848767549
v -0.06156167984 0.06099999905 0.4823786623
v -0.06368667603 0.06099999905 0.4808347589
v -0.06631332397 0.06099999905 0.4808347589
v -0.06843832016 0.06099999905 0.4823786623
v -0.06925000191 0.06099999905 0.4848767549
v -0.06925000191 0.06599999905 0.4848767549
v -0.06925000191 0.06099999905 0.4848767549
v -0.06843832016 0.06099999905 0.4823786623
v -0.06631332397 0.06099999905 0.4808347589
v -0.06368667603 0.06099999905 0.4808347589
v -0.06156167984 0.06099999905 0.4823786623
v -0.06074999809 0.06099999905 0.4848767549
v -0.06156167984 0.06099999905 0.4873748476
v -0.06368667603 0.06099999905 0.4889187509
v -0.06631332397 0.06099999905 0.4889187509
v -0.06843832016 0.06099999905 0.4873748476
v -0.0675 0.09100000381 0.4848767549
v -0.06676776886 0.09100000381 0.4831089861
v -0.065 0.09100000381 0.4823767549
v -0.06323223114 0.09100000381 0.4831089861
v -0.0625 0.09100000381 0.4848767549
v -0.06323223114 0.09100000381 0.4866445238
v -0.065 0.09100000381 0.4873767549
v -0.06676776886 0.09100000381 0.4866445238
v -0.0675 0.06599999905 0.4848767549
v -0.06676776886 0.06599999905 0.4866445238
v -0.065 0.06599999905 0.4873767549
v -0.06323223114 0.06599999905 0.4866445238
v -0.0625 0.06599999905 0.4848767549
v -0.06323223114 0.06599999905 0.4831089861
v -0.065 0.06599999905 0.4823767549
v -0.06676776886 0.06599999905 0.4831089861
v -0.0675 0.06599999905 0.4848767549
v -0.0675 0.09100000381 0.4848767549
v -0.0675 0.09100000381 0.4848767549
v -0.06676776886 0.09100000381 0.4866445238
v -0.065 0.09100000381 0.4873767549
v -0.06323223114 0.09100000381 0.4866445238
v -0.0625 0.09100000381 0.4848767549
v -0.06323223114 0.09100000381 0.4831089861
v -0.065 0.09100000381 0.4823767549
v -0.06676776886 0.09100000381 0.4831089861
f 10 1 11
f 11 1 2
f 11 2 18
f 18 2 3
f 18 3 17
f 17 3 4
f 17 4 16
f 16 4 5
f 16 5 15
f 15 5 6
f 15 6 7
f 15 7 14
f 14 7 8
f 14 8 13
f 13 8 9
f 13 9 12
f 12 9 10
f 12 10 11
f 20 38 19
f 19 38 39
f 40 29 28
f 28 29 30
f 28 30 27
f 27 30 31
f 27 31 26
f 26 31 32
f 26 32 25
f 25 32 33
f 25 33 24
f 24 33 34
f 24 34 23
f 23 34 35
f 23 35 22
f 22 35 36
f 22 36 21
f 21 36 37
f 21 37 20
f 20 37 38
f 42 45 41
f 41 45 46
f 41 46 50
f 50 46 47
f 50 47 49
f 49 47 48
f 43 44 42
f 42 44 45
f 52 66 51
f 51 66 67
f 68 59 58
f 58 59 60
f 58 60 61
f 52 53 66
f 66 53 65
f 65 53 54
f 65 54 64
f 64 54 55
f 64 55 63
f 63 55 56
f 63 56 62
f 62 56 57
f 62 57 61
f 61 57 58
f 70 72 69
f 69 72 73
f 69 73 76
f 76 73 74
f 76 74 75
f 70 71 72
