v 0.01713793755 0.03769999981 0.3816071302
v 0.01714006066 0.03769999981 0.3816092569
v 0.01714006066 0.03900000095 0.3816092569
v 0.0160789299 0.03900000095 0.3805481226
v 0.0160789299 0.03769999981 0.3805481226
v 0.01608058214 0.03769999981 0.3805497724
v 0.01424105644 0.03769999981 0.3823843462
v 0.01424045205 0.03769999981 0.3823865968
v 0.01424210429 0.03769999981 0.3823882562
v 0.01424175382 0.03769999981 0.3823869497
v 0.01424140453 0.03769999981 0.3823856527
v 0.01424210429 0.03769999981 0.3823882562
v 0.01424045205 0.03769999981 0.3823865968
v 0.01424045205 0.03900000095 0.3823865968
v 0.01530158281 0.03900000095 0.3834477312
v 0.01530158281 0.03769999981 0.3834477312
v 0.0152994597 0.03769999981 0.3834456045
v 0.01675126314 0.03769999981 0.3830572969
v 0.01675091624 0.03770038366 0.3830585844
v 0.01675091624 0.03900000095 0.3830585844
v 0.01714006066 0.03900000095 0.3816092569
v 0.01714006066 0.03769999981 0.3816092569
v 0.01713928223 0.03769999981 0.3816121561
v 0.0152994597 0.03769999981 0.3834456045
v 0.01530158281 0.03769999981 0.3834477312
v 0.01530448198 0.03769999981 0.3834469492
v 0.01530280709 0.03769999981 0.3834465105
v 0.01530113339 0.03769999981 0.3834460622
v 0.01530448198 0.03769999981 0.3834469492
v 0.01530158281 0.03769999981 0.3834477312
v 0.01530158281 0.03900000095 0.3834477312
v 0.01675091624 0.03900000095 0.3830585844
v 0.01675091624 0.03770038366 0.3830585844
v 0.01674962759 0.03769999981 0.3830589372
v 0.01608058214 0.03769999981 0.3805497724
v 0.0160789299 0.03769999981 0.3805481226
v 0.01607667685 0.03769999981 0.3805487234
v 0.01607797861 0.03769999981 0.3805490762
v 0.01607928038 0.03769999981 0.3805494291
v 0.01713928223 0.03769999981 0.3816121561
v 0.01714006066 0.03769999981 0.3816092569
v 0.01713793755 0.03769999981 0.3816071302
v 0.01713838816 0.03769999981 0.3816087991
v 0.01713883638 0.03769999981 0.3816104776
v 0.0137454772 0.03599999905 0.3839422304
v 0.01294002056 0.03599999905 0.3819976885
v 0.0137454772 0.03599999905 0.3800531465
v 0.01569002032 0.03599999905 0.3792476923
v 0.01763456464 0.03599999905 0.3800531465
v 0.01844002128 0.03599999905 0.3819976884
v 0.01763456464 0.03599999905 0.3839422304
v 0.01569002032 0.03599999905 0.3847476942
v 0.01448793888 0.03599999905 0.3831997759
v 0.01613001347 0.03599999905 0.383639763
v 0.01733209491 0.03599999905 0.3824376852
v 0.01689210176 0.03599999905 0.3807956106
v 0.01525002837 0.03599999905 0.3803556139
v 0.01404794693 0.03599999905 0.3815577013
v 0.0137454772 0.03880000114 0.3839422304
v 0.01294002056 0.03880000114 0.3819976885
v 0.0137454772 0.03880000114 0.3800531465
v 0.01569002032 0.03880000114 0.3792476923
v 0.01763456464 0.03880000114 0.3800531465
v 0.01844002128 0.03880000114 0.3819976884
v 0.01763456464 0.03880000114 0.3839422304
v 0.01569002032 0.03880000114 0.3847476942
v 0.0137454772 0.03599999905 0.3839422304
v 0.01569002032 0.03599999905 0.3847476942
v 0.01763456464 0.03599999905 0.3839422304
v 0.01844002128 0.03599999905 0.3819976884
v 0.01763456464 0.03599999905 0.3800531465
v 0.01569002032 0.03599999905 0.3792476923
v 0.0137454772 0.03599999905 0.3800531465
v 0.01294002056 0.03599999905 0.3819976885
v 0.0137454772 0.03599999905 0.3839422304
v 0.0137454772 0.03880000114 0.3839422304
v 0.01388689876 0.03900000095 0.38380081
v 0.01314002037 0.03900000095 0.3819976885
v 0.01388689876 0.03900000095 0.3801945669
v 0.01569002032 0.03900000095 0.3794476873
v 0.01749314308 0.03900000095 0.3801945669
v 0.01824002027 0.03900000095 0.3819976884
v 0.01749314308 0.03900000095 0.38380081
v 0.01569002032 0.03900000095 0.3845476896
v 0.0137454772 0.03880000114 0.3839422304
v 0.01569002032 0.03880000114 0.3847476942
v 0.01763456464 0.03880000114 0.3839422304
v 0.01844002128 0.03880000114 0.3819976884
v 0.01763456464 0.03880000114 0.3800531465
v 0.01569002032 0.03880000114 0.3792476923
v 0.0137454772 0.03880000114 0.3800531465
v 0.01294002056 0.03880000114 0.3819976885
v 0.01314002037 0.03900000095 0.3819976885
v 0.01294002056 0.03880000114 0.3819976885
v 0.01388689876 0.03900000095 0.38380081
v 0.01569002032 0.03900000095 0.3845476896
v 0.01749314308 0.03900000095 0.38380081
v 0.01824002027 0.03900000095 0.3819976884
v 0.01749314308 0.03900000095 0.3801945669
v 0.01569002032 0.03900000095 0.3794476873
v 0.01388689876 0.03900000095 0.3801945669
v 0.01314002037 0.03900000095 0.3819976885
v 0.01462959647 0.03900000095 0.3809372694
v 0.0160789299 0.03900000095 0.3805481226
v 0.01714006066 0.03900000095 0.3816092569
v 0.01675091624 0.03900000095 0.3830585844
v 0.01530158281 0.03900000095 0.3834477312
v 0.01424045205 0.03900000095 0.3823865968
v 0.01462959647 0.03769999981 0.3809372694
v 0.01462959647 0.03900000095 0.3809372694
v 0.01424045205 0.03900000095 0.3823865968
v 0.01424045205 0.03769999981 0.3823865968
v 0.01424105644 0.03769999981 0.3823843462
v 0.01424105644 0.03769999981 0.3823843462
v 0.0141961503 0.03769999981 0.381865967
v 0.01433107734 0.03769999981 0.3813634378
v 0.01462959647 0.03769999981 0.3809372694
v 0.0152994597 0.03769999981 0.3834456045
v 0.01482916355 0.03769999981 0.3832256681
v 0.01446204424 0.03769999981 0.3828585512
v 0.01424210429 0.03769999981 0.3823882562
v 0.01448793888 0.03599999905 0.3831997759
v 0.01404794693 0.03599999905 0.3815577013
v 0.01525002837 0.03599999905 0.3803556139
v 0.01689210176 0.03599999905 0.3807956106
v 0.01733209491 0.03599999905 0.3824376852
v 0.01613001347 0.03599999905 0.383639763
v 0.01462936044 0.03579999924 0.3830583555
v 0.01607824922 0.03579999924 0.3834465772
v 0.0171389091 0.03579999924 0.3823859197
v 0.0167506814 0.03579999924 0.3809370309
v 0.01530179262 0.03579999924 0.3805487997
v 0.01424113154 0.03579999924 0.3816094667
v 0.01689210176 0.03599999905 0.3807956106
v 0.0167506814 0.03579999924 0.3809370309
v 0.01674962759 0.03769999981 0.3830589372
v 0.01632392287 0.03769999981 0.3833567983
v 0.01582213044 0.03769999981 0.3834915239
v 0.01530448198 0.03769999981 0.3834469492
v 0.0167506814 0.02630000114 0.3830583555
v 0.0171389091 0.02630000114 0.3816094667
v 0.01607824922 0.02630000114 0.3805487997
v 0.01462936044 0.02630000114 0.3809370309
v 0.01424113154 0.02630000114 0.3823859197
v 0.01530179262 0.02630000114 0.3834465772
v 0.01462936044 0.03579999924 0.3830583555
v 0.01424113154 0.03579999924 0.3816094667
v 0.01530179262 0.03579999924 0.3805487997
v 0.0167506814 0.03579999924 0.3809370309
v 0.0171389091 0.03579999924 0.3823859197
v 0.01607824922 0.03579999924 0.3834465772
v 0.0171389091 0.02630000114 0.3816094667
v 0.0167506814 0.03579999924 0.3809370309
v 0.01713928223 0.03769999981 0.3816121561
v 0.01718385696 0.03769999981 0.382129801
v 0.01704912662 0.03769999981 0.3826315958
v 0.01675126314 0.03769999981 0.3830572969
v 0.0167506814 0.02630000114 0.3830583555
v 0.01530179262 0.02630000114 0.3834465772
v 0.01424113154 0.02630000114 0.3823859197
v 0.01462936044 0.02630000114 0.3809370309
v 0.01607824922 0.02630000114 0.3805487997
v 0.0171389091 0.02630000114 0.3816094667
v 0.01484149218 0.02599999905 0.3828462202
v 0.01623480916 0.02599999905 0.3830669004
v 0.01687524676 0.02599999905 0.3818099672
v 0.01587774157 0.02599999905 0.380812462
v 0.01462081313 0.02599999905 0.381452902
v 0.01587774157 0.02599999905 0.380812462
v 0.01462936044 0.02630000114 0.3809370309
v 0.01608058214 0.03769999981 0.3805497724
v 0.01655087829 0.03769999981 0.3807697183
v 0.01691799641 0.03769999981 0.3811368353
v 0.01713793755 0.03769999981 0.3816071302
v 0.01607667685 0.03769999981 0.3805487234
v 0.0160789299 0.03769999981 0.3805481226
v 0.0160789299 0.03900000095 0.3805481226
v 0.01462959647 0.03900000095 0.3809372694
v 0.01462959647 0.03769999981 0.3809372694
v 0.01484149218 0.02599999905 0.3828462202
v 0.01462081313 0.02599999905 0.381452902
v 0.01587774157 0.02599999905 0.380812462
v 0.01687524676 0.02599999905 0.3818099672
v 0.01623480916 0.02599999905 0.3830669004
v 0.01462959647 0.03769999981 0.3809372694
v 0.01505576968 0.03769999981 0.3806387502
v 0.01555829525 0.03769999981 0.3805038244
v 0.01607667685 0.03769999981 0.3805487234
v 0.01424210429 0.03769999981 0.3823882562
v 0.01446204424 0.03769999981 0.3828585512
v 0.01482916355 0.03769999981 0.3832256681
v 0.0152994597 0.03769999981 0.3834456045
v 0.01530113339 0.03769999981 0.3834460622
v 0.01530280709 0.03769999981 0.3834465105
v 0.01530448198 0.03769999981 0.3834469492
v 0.01582213044 0.03769999981 0.3834915239
v 0.01632392287 0.03769999981 0.3833567983
v 0.01674962759 0.03769999981 0.3830589372
v 0.01675091624 0.03770038366 0.3830585844
v 0.01675126314 0.03769999981 0.3830572969
v 0.01704912662 0.03769999981 0.3826315958
v 0.01718385696 0.03769999981 0.382129801
v 0.01713928223 0.03769999981 0.3816121561
v 0.01713883638 0.03769999981 0.3816104776
v 0.01713838816 0.03769999981 0.3816087991
v 0.01713793755 0.03769999981 0.3816071302
v 0.01691799641 0.03769999981 0.3811368353
v 0.01655087829 0.03769999981 0.3807697183
v 0.01608058214 0.03769999981 0.3805497724
v 0.01607928038 0.03769999981 0.3805494291
v 0.01607797861 0.03769999981 0.3805490762
v 0.01607667685 0.03769999981 0.3805487234
v 0.01555829525 0.03769999981 0.3805038244
v 0.01505576968 0.03769999981 0.3806387502
v 0.01462959647 0.03769999981 0.3809372694
v 0.01433107734 0.03769999981 0.3813634378
v 0.0141961503 0.03769999981 0.381865967
v 0.01424105644 0.03769999981 0.3823843462
v 0.01424140453 0.03769999981 0.3823856527
v 0.01424175382 0.03769999981 0.3823869497
v 0.01569002032 0.03683416605 0.3819976885
v 0.01462959647 0.03769999981 0.3809372694
v 0.01569002032 0.03683416605 0.3819976885
v 0.01569002032 0.03683416605 0.3819976885
v 0.01569002032 0.03683416605 0.3819976885
v 0.01569002032 0.03683416605 0.3819976885
v 0.01569002032 0.03683416605 0.3819976885
v 0.01569002032 0.03683416605 0.3819976885
f 2 3 1
f 1 3 4
f 1 4 6
f 6 4 5
f 7 8 11
f 11 8 10
f 10 8 9
f 13 14 12
f 12 14 17
f 17 14 15
f 17 15 16
f 19 20 18
f 18 20 23
f 23 20 21
f 23 21 22
f 24 25 28
f 28 25 27
f 27 25 26
f 30 31 29
f 29 31 32
f 29 32 34
f 34 32 33
f 35 36 39
f 39 36 38
f 38 36 37
f 40 41 44
f 44 41 43
f 43 41 42
f 52 45 53
f 53 45 46
f 53 46 58
f 58 46 47
f 58 47 57
f 57 47 48
f 57 48 56
f 56 48 49
f 56 49 50
f 56 50 55
f 55 50 51
f 55 51 54
f 54 51 52
f 54 52 53
f 60 74 59
f 59 74 75
f 76 67 66
f 66 67 68
f 66 68 65
f 65 68 69
f 65 69 64
f 64 69 70
f 64 70 63
f 63 70 71
f 63 71 62
f 62 71 72
f 62 72 61
f 61 72 73
f 61 73 60
f 60 73 74
f 84 77 85
f 85 77 93
f 85 93 92
f 94 78 91
f 91 78 79
f 91 79 90
f 90 79 80
f 90 80 89
f 89 80 81
f 89 81 88
f 88 81 82
f 88 82 87
f 87 82 83
f 87 83 86
f 86 83 84
f 86 84 85
f 96 107 95
f 95 107 108
f 95 108 102
f 102 108 103
f 102 103 101
f 101 103 100
f 100 103 104
f 100 104 99
f 99 104 105
f 99 105 98
f 98 105 106
f 98 106 97
f 97 106 96
f 96 106 107
f 109 110 113
f 113 110 111
f 113 111 112
f 114 115 117
f 117 115 116
f 118 119 121
f 121 119 120
f 123 128 122
f 122 128 129
f 122 129 127
f 127 129 130
f 127 130 126
f 126 130 135
f 126 135 125
f 134 131 132
f 134 132 124
f 124 132 133
f 124 133 123
f 123 133 128
f 137 138 136
f 136 138 139
f 152 150 140
f 140 150 151
f 140 151 145
f 145 151 146
f 145 146 144
f 144 146 147
f 144 147 143
f 143 147 148
f 143 148 142
f 142 148 153
f 142 153 141
f 152 149 150
f 154 155 157
f 157 155 156
f 159 165 158
f 158 165 166
f 158 166 163
f 163 166 169
f 163 169 162
f 162 169 161
f 170 167 168
f 170 168 160
f 160 168 164
f 160 164 159
f 159 164 165
f 172 173 171
f 171 173 174
f 176 177 175
f 175 177 178
f 175 178 179
f 180 181 184
f 184 181 183
f 183 181 182
f 186 187 185
f 185 187 188
f 220 189 228
f 228 189 190
f 228 190 191
f 191 192 228
f 228 192 193
f 193 194 225
f 225 194 195
f 225 195 196
f 196 197 225
f 225 197 198
f 199 200 198
f 198 200 227
f 200 201 227
f 227 201 202
f 227 202 203
f 203 204 227
f 204 205 224
f 224 205 206
f 224 206 207
f 207 208 224
f 224 208 209
f 224 209 210
f 210 211 226
f 226 211 212
f 226 212 213
f 213 214 226
f 214 222 221
f 223 215 216
f 223 216 217
f 217 218 223
f 223 218 219
f 219 220 228
