v -0.175 0.008500000238 0.4198767549
v -0.1759549141 0.008500000238 0.422815674
v -0.1784549141 0.008500000238 0.4246320421
v -0.1815450859 0.008500000238 0.4246320421
v -0.1840450859 0.008500000238 0.422815674
v -0.185 0.008500000238 0.4198767549
v -0.1840450859 0.008500000238 0.4169378168
v -0.1815450859 0.008500000238 0.4151214677
v -0.1784549141 0.008500000238 0.4151214677
v -0.1759549141 0.008500000238 0.4169378168
v -0.175 0.01100000024 0.4198767549
v -0.1759549141 0.01100000024 0.4169378168
v -0.1784549141 0.01100000024 0.4151214677
v -0.1815450859 0.01100000024 0.4151214677
v -0.1840450859 0.01100000024 0.4169378168
v -0.185 0.01100000024 0.4198767549
v -0.1840450859 0.01100000024 0.422815674
v -0.1815450859 0.01100000024 0.4246320421
v -0.1784549141 0.01100000024 0.4246320421
v -0.1759549141 0.01100000024 0.422815674
v -0.175 0.008500000238 0.4198767549
v -0.175 0.01100000024 0.4198767549
v -0.18 0.008500000238 0.4176267511
v -0.1782408714 0.008500000238 0.4184739
v -0.1778064156 0.008500000238 0.4203774149
v -0.1790237617 0.008500000238 0.4219039232
v -0.1809762383 0.008500000238 0.4219039232
v -0.1821935844 0.008500000238 0.4203774149
v -0.1817591286 0.008500000238 0.4184739
v -0.175 0.008500000238 0.4198767549
v -0.1759549141 0.008500000238 0.4169378168
v -0.1784549141 0.008500000238 0.4151214677
v -0.1815450859 0.008500000238 0.4151214677
v -0.1840450859 0.008500000238 0.4169378168
v -0.185 0.008500000238 0.4198767549
v -0.1840450859 0.008500000238 0.422815674
v -0.1815450859 0.008500000238 0.4246320421
v -0.1784549141 0.008500000238 0.4246320421
v -0.1759549141 0.008500000238 0.422815674
v -0.1900499916 0.01049999952 0.4198767549
v -0.1891811371 0.01049999952 0.423964451
v -0.1867247581 0.01049999952 0.42734536
v -0.1831056213 0.01049999952 0.4294348795
v -0.1789494896 0.01049999952 0.4298717004
v -0.1749749947 0.01049999952 0.428580311
v -0.1718693733 0.01049999952 0.4257839853
v -0.1701696205 0.01049999952 0.4219662553
v -0.1701696205 0.01049999952 0.4177872354
v -0.1718693733 0.01049999952 0.4139695055
v -0.1749749947 0.01049999952 0.4111731989
v -0.1789494896 0.01049999952 0.4098818094
v -0.1831056213 0.01049999952 0.4103186304
v -0.1867247581 0.01049999952 0.4124081499
v -0.1891811371 0.01049999952 0.4157890398
v -0.1895499992 0.01100000024 0.4198767549
v -0.1886042595 0.01100000024 0.4157331545
v -0.1859543228 0.01100000024 0.412410267
v -0.1821250725 0.01100000024 0.4105661852
v -0.1778749275 0.01100000024 0.4105661852
v -0.1740456772 0.01100000024 0.412410267
v -0.1713957405 0.01100000024 0.4157331545
v -0.1704500008 0.01100000024 0.4198767549
v -0.1713957405 0.01100000024 0.4240203363
v -0.1740456772 0.01100000024 0.4273432428
v -0.1778749275 0.01100000024 0.4291873056
v -0.1821250725 0.01100000024 0.4291873056
v -0.1859543228 0.01100000024 0.4273432428
v -0.1886042595 0.01100000024 0.4240203363
v -0.1821250725 0.01100000024 0.4105661852
v -0.1831056213 0.01049999952 0.4103186304
v -0.1900499916 0.008500000238 0.4198767549
v -0.1891811371 0.008500000238 0.423964451
v -0.1867247581 0.008500000238 0.42734536
v -0.1831056213 0.008500000238 0.4294348795
v -0.1789494896 0.008500000238 0.4298717004
v -0.1749749947 0.008500000238 0.428580311
v -0.1718693733 0.008500000238 0.4257839853
v -0.1701696205 0.008500000238 0.4219662553
v -0.1701696205 0.008500000238 0.4177872354
v -0.1718693733 0.008500000238 0.4139695055
v -0.1749749947 0.008500000238 0.4111731989
v -0.1789494896 0.008500000238 0.4098818094
v -0.1831056213 0.008500000238 0.4103186304
v -0.1867247581 0.008500000238 0.4124081499
v -0.1891811371 0.008500000238 0.4157890398
v -0.1900499916 0.01049999952 0.4198767549
v -0.1891811371 0.01049999952 0.4157890398
v -0.1867247581 0.01049999952 0.4124081499
v -0.1831056213 0.01049999952 0.4103186304
v -0.1789494896 0.01049999952 0.4098818094
v -0.1749749947 0.01049999952 0.4111731989
v -0.1718693733 0.01049999952 0.4139695055
v -0.1701696205 0.01049999952 0.4177872354
v -0.1701696205 0.01049999952 0.4219662553
v -0.1718693733 0.01049999952 0.4257839853
v -0.1749749947 0.01049999952 0.428580311
v -0.1789494896 0.01049999952 0.4298717004
v -0.1831056213 0.01049999952 0.4294348795
v -0.1867247581 0.01049999952 0.42734536
v -0.1891811371 0.01049999952 0.423964451
v -0.1900499916 0.008500000238 0.4198767549
v -0.1900499916 0.01049999952 0.4198767549
v -0.175 0.01100000024 0.4198767549
v -0.1759549141 0.01100000024 0.422815674
v -0.1784549141 0.01100000024 0.4246320421
v -0.1815450859 0.01100000024 0.4246320421
v -0.1840450859 0.01100000024 0.422815674
v -0.185 0.01100000024 0.4198767549
v -0.1840450859 0.01100000024 0.4169378168
v -0.1815450859 0.01100000024 0.4151214677
v -0.1784549141 0.01100000024 0.4151214677
v -0.1759549141 0.01100000024 0.4169378168
v -0.1895499992 0.01100000024 0.4198767549
v -0.1886042595 0.01100000024 0.4240203363
v -0.1859543228 0.01100000024 0.4273432428
v -0.1821250725 0.01100000024 0.4291873056
v -0.1778749275 0.01100000024 0.4291873056
v -0.1740456772 0.01100000024 0.4273432428
v -0.1713957405 0.01100000024 0.4240203363
v -0.1704500008 0.01100000024 0.4198767549
v -0.1713957405 0.01100000024 0.4157331545
v -0.1740456772 0.01100000024 0.412410267
v -0.1778749275 0.01100000024 0.4105661852
v -0.1821250725 0.01100000024 0.4105661852
v -0.1859543228 0.01100000024 0.412410267
v -0.1886042595 0.01100000024 0.4157331545
v -0.1844499969 -0.008299999833 0.4198767549
v -0.1836001205 -0.008299999833 0.4224923975
v -0.1813751221 -0.008299999833 0.4241089517
v -0.1786248779 -0.008299999833 0.4241089517
v -0.1763998795 -0.008299999833 0.4224923975
v -0.1755500031 -0.008299999833 0.4198767549
v -0.1763998795 -0.008299999833 0.4172611124
v -0.1786248779 -0.008299999833 0.4156445581
v -0.1813751221 -0.008299999833 0.4156445581
v -0.1836001205 -0.008299999833 0.4172611124
v -0.1849500084 -0.007799999714 0.4198767549
v -0.184004631 -0.007799999714 0.416967209
v -0.1815296364 -0.007799999714 0.415169018
v -0.1784703636 -0.007799999714 0.415169018
v -0.175995369 -0.007799999714 0.416967209
v -0.1750499916 -0.007799999714 0.4198767549
v -0.175995369 -0.007799999714 0.4227862817
v -0.1784703636 -0.007799999714 0.4245844728
v -0.1815296364 -0.007799999714 0.4245844728
v -0.184004631 -0.007799999714 0.4227862817
v -0.1815296364 -0.007799999714 0.415169018
v -0.1813751221 -0.008299999833 0.4156445581
v -0.1849500084 -0.0005000000075 0.4198767549
v -0.184004631 -0.0005000000075 0.416967209
v -0.1815296364 -0.0005000000075 0.415169018
v -0.1784703636 -0.0005000000075 0.415169018
v -0.175995369 -0.0005000000075 0.416967209
v -0.1750499916 -0.0005000000075 0.4198767549
v -0.175995369 -0.0005000000075 0.4227862817
v -0.1784703636 -0.0005000000075 0.4245844728
v -0.1815296364 -0.0005000000075 0.4245844728
v -0.184004631 -0.0005000000075 0.4227862817
v -0.1849500084 -0.007799999714 0.4198767549
v -0.184004631 -0.007799999714 0.4227862817
v -0.1815296364 -0.007799999714 0.4245844728
v -0.1784703636 -0.007799999714 0.4245844728
v -0.175995369 -0.007799999714 0.4227862817
v -0.1750499916 -0.007799999714 0.4198767549
v -0.175995369 -0.007799999714 0.416967209
v -0.1784703636 -0.007799999714 0.415169018
v -0.1815296364 -0.007799999714 0.415169018
v -0.184004631 -0.007799999714 0.416967209
v -0.1849500084 -0.0005000000075 0.4198767549
v -0.1849500084 -0.007799999714 0.4198767549
v -0.18 -0.008299999833 0.4176267511
v -0.1782408714 -0.008299999833 0.4184739
v -0.1778064156 -0.008299999833 0.4203774149
v -0.1790237617 -0.008299999833 0.4219039232
v -0.1809762383 -0.008299999833 0.4219039232
v -0.1821935844 -0.008299999833 0.4203774149
v -0.1817591286 -0.008299999833 0.4184739
v -0.18 0.008500000238 0.4176267511
v -0.1817591286 0.008500000238 0.4184739
v -0.1821935844 0.008500000238 0.4203774149
v -0.1809762383 0.008500000238 0.4219039232
v -0.1790237617 0.008500000238 0.4219039232
v -0.1778064156 0.008500000238 0.4203774149
v -0.1782408714 0.008500000238 0.4184739
v -0.1809762383 -0.008299999833 0.4219039232
v -0.1809762383 0.008500000238 0.4219039232
v -0.18 -0.008299999833 0.4176267511
v -0.1817591286 -0.008299999833 0.4184739
v -0.1821935844 -0.008299999833 0.4203774149
v -0.1809762383 -0.008299999833 0.4219039232
v -0.1790237617 -0.008299999833 0.4219039232
v -0.1778064156 -0.008299999833 0.4203774149
v -0.1782408714 -0.008299999833 0.4184739
v -0.1844499969 -0.008299999833 0.4198767549
v -0.1836001205 -0.008299999833 0.4172611124
v -0.1813751221 -0.008299999833 0.4156445581
v -0.1786248779 -0.008299999833 0.4156445581
v -0.1763998795 -0.008299999833 0.4172611124
v -0.1755500031 -0.008299999833 0.4198767549
v -0.1763998795 -0.008299999833 0.4224923975
v -0.1786248779 -0.008299999833 0.4241089517
v -0.1813751221 -0.008299999833 0.4241089517
v -0.1836001205 -0.008299999833 0.4224923975
v -0.1867499924 0.008000000119 0.4198767549
v -0.1858456802 0.008000000119 0.4232517511
v -0.1833749962 0.008000000119 0.4257224161
v -0.18 0.008000000119 0.4266267473
v -0.1766250038 0.008000000119 0.4257224161
v -0.1741543198 0.008000000119 0.4232517511
v -0.1732500076 0.008000000119 0.4198767549
v -0.1741543198 0.008000000119 0.4165017587
v -0.1766250038 0.008000000119 0.4140310747
v -0.18 0.008000000119 0.4131267435
v -0.1833749962 0.008000000119 0.4140310747
v -0.1858456802 0.008000000119 0.4165017587
v -0.1872500038 0.008500000238 0.4198767549
v -0.1862786865 0.008500000238 0.4162517435
v -0.1836249924 0.008500000238 0.4135980684
v -0.18 0.008500000238 0.4126267511
v -0.1763750076 0.008500000238 0.4135980684
v -0.1737213135 0.008500000238 0.4162517435
v -0.1727499962 0.008500000238 0.4198767549
v -0.1737213135 0.008500000238 0.4235017473
v -0.1763750076 0.008500000238 0.4261554414
v -0.18 0.008500000238 0.4271267587
v -0.1836249924 0.008500000238 0.4261554414
v -0.1862786865 0.008500000238 0.4235017473
v -0.18 0.008000000119 0.4131267435
v -0.18 0.008500000238 0.4126267511
v -0.1900499916 0.008500000238 0.4198767549
v -0.1891811371 0.008500000238 0.4157890398
v -0.1867247581 0.008500000238 0.4124081499
v -0.1831056213 0.008500000238 0.4103186304
v -0.1789494896 0.008500000238 0.4098818094
v -0.1749749947 0.008500000238 0.4111731989
v -0.1718693733 0.008500000238 0.4139695055
v -0.1701696205 0.008500000238 0.4177872354
v -0.1701696205 0.008500000238 0.4219662553
v -0.1718693733 0.008500000238 0.4257839853
v -0.1749749947 0.008500000238 0.428580311
v -0.1789494896 0.008500000238 0.4298717004
v -0.1831056213 0.008500000238 0.4294348795
v -0.1867247581 0.008500000238 0.42734536
v -0.1891811371 0.008500000238 0.423964451
v -0.1872500038 0.008500000238 0.4198767549
v -0.1862786865 0.008500000238 0.4235017473
v -0.1836249924 0.008500000238 0.4261554414
v -0.18 0.008500000238 0.4271267587
v -0.1763750076 0.008500000238 0.4261554414
v -0.1737213135 0.008500000238 0.4235017473
v -0.1727499962 0.008500000238 0.4198767549
v -0.1737213135 0.008500000238 0.4162517435
v -0.1763750076 0.008500000238 0.4135980684
v -0.18 0.008500000238 0.4126267511
v -0.1836249924 0.008500000238 0.4135980684
v -0.1862786865 0.008500000238 0.4162517435
v -0.1867499924 -3.271540677e-17 0.4198767549
v -0.1858456802 -3.260466048e-17 0.4232517511
v -0.1833749962 -3.230208894e-17 0.4257224161
v -0.18 -3.188877112e-17 0.4266267473
v -0.1766250038 -3.147545329e-17 0.4257224161
v -0.1741543198 -3.117288176e-17 0.4232517511
v -0.1732500076 -3.106213546e-17 0.4198767549
v -0.1741543198 -3.117288176e-17 0.4165017587
v -0.1766250038 -3.147545329e-17 0.4140310747
v -0.18 -3.188877112e-17 0.4131267435
v -0.1833749962 -3.230208894e-17 0.4140310747
v -0.1858456802 -3.260466048e-17 0.4165017587
v -0.1867499924 0.008000000119 0.4198767549
v -0.1858456802 0.008000000119 0.4165017587
v -0.1833749962 0.008000000119 0.4140310747
v -0.18 0.008000000119 0.4131267435
v -0.1766250038 0.008000000119 0.4140310747
v -0.1741543198 0.008000000119 0.4165017587
v -0.1732500076 0.008000000119 0.4198767549
v -0.1741543198 0.008000000119 0.4232517511
v -0.1766250038 0.008000000119 0.4257224161
v -0.18 0.008000000119 0.4266267473
v -0.1833749962 0.008000000119 0.4257224161
v -0.1858456802 0.008000000119 0.4232517511
v -0.1867499924 0.008000000119 0.4198767549
v -0.1867499924 -3.271540677e-17 0.4198767549
v -0.1849500084 -0.0005000000075 0.4198767549
v -0.184004631 -0.0005000000075 0.4227862817
v -0.1815296364 -0.0005000000075 0.4245844728
v -0.1784703636 -0.0005000000075 0.4245844728
v -0.175995369 -0.0005000000075 0.4227862817
v -0.1750499916 -0.0005000000075 0.4198767549
v -0.175995369 -0.0005000000075 0.416967209
v -0.1784703636 -0.0005000000075 0.415169018
v -0.1815296364 -0.0005000000075 0.415169018
v -0.184004631 -0.0005000000075 0.416967209
v -0.1854500008 -3.255620372e-17 0.4198767549
v -0.1845848274 -3.245025054e-17 0.4169302637
v -0.1822640038 -3.216603161e-17 0.4149192506
v -0.1792243767 -3.179378466e-17 0.4144822199
v -0.1764310074 -3.145169558e-17 0.4157579118
v -0.1747707558 -3.12483734e-17 0.4183413011
v -0.1747707558 -3.12483734e-17 0.4214121896
v -0.1764310074 -3.145169558e-17 0.4239955789
v -0.1792243767 -3.179378466e-17 0.4252712709
v -0.1822640038 -3.216603161e-17 0.4248342401
v -0.1845848274 -3.245025054e-17 0.4228232462
v -0.1822640038 -3.216603161e-17 0.4149192506
v -0.1815296364 -0.0005000000075 0.415169018
v -0.1867499924 -3.271540677e-17 0.4198767549
v -0.1858456802 -3.260466048e-17 0.4165017587
v -0.1833749962 -3.230208894e-17 0.4140310747
v -0.18 -3.188877112e-17 0.4131267435
v -0.1766250038 -3.147545329e-17 0.4140310747
v -0.1741543198 -3.117288176e-17 0.4165017587
v -0.1732500076 -3.106213546e-17 0.4198767549
v -0.1741543198 -3.117288176e-17 0.4232517511
v -0.1766250038 -3.147545329e-17 0.4257224161
v -0.18 -3.188877112e-17 0.4266267473
v -0.1833749962 -3.230208894e-17 0.4257224161
v -0.1858456802 -3.260466048e-17 0.4232517511
v -0.1854500008 -3.255620372e-17 0.4198767549
v -0.1845848274 -3.245025054e-17 0.4228232462
v -0.1822640038 -3.216603161e-17 0.4248342401
v -0.1792243767 -3.179378466e-17 0.4252712709
v -0.1764310074 -3.145169558e-17 0.4239955789
v -0.1747707558 -3.12483734e-17 0.4214121896
v -0.1747707558 -3.12483734e-17 0.4183413011
v -0.1764310074 -3.145169558e-17 0.4157579118
v -0.1792243767 -3.179378466e-17 0.4144822199
v -0.1822640038 -3.216603161e-17 0.4149192506
v -0.1845848274 -3.245025054e-17 0.4169302637
f 2 20 1
f 1 20 22
f 21 11 10
f 10 11 12
f 10 12 9
f 9 12 13
f 9 13 8
f 8 13 14
f 8 14 7
f 7 14 15
f 7 15 6
f 6 15 16
f 6 16 5
f 5 16 17
f 5 17 4
f 4 17 18
f 4 18 3
f 3 18 19
f 3 19 2
f 2 19 20
f 24 32 23
f 23 32 33
f 23 33 29
f 29 33 34
f 29 34 35
f 25 30 24
f 24 30 31
f 24 31 32
f 30 25 39
f 39 25 26
f 39 26 38
f 38 26 37
f 37 26 27
f 37 27 36
f 36 27 28
f 36 28 35
f 35 28 29
f 54 40 55
f 55 40 41
f 55 41 68
f 68 41 42
f 68 42 67
f 67 42 43
f 67 43 66
f 66 43 44
f 66 44 65
f 65 44 45
f 65 45 64
f 64 45 46
f 64 46 63
f 63 46 47
f 63 47 62
f 62 47 48
f 62 48 61
f 61 48 49
f 61 49 60
f 60 49 50
f 60 50 59
f 59 50 51
f 59 51 58
f 58 51 70
f 69 52 57
f 57 52 53
f 57 53 56
f 56 53 54
f 56 54 55
f 72 100 71
f 71 100 102
f 101 86 85
f 85 86 87
f 85 87 88
f 72 73 100
f 100 73 99
f 99 73 74
f 99 74 98
f 98 74 75
f 98 75 97
f 97 75 76
f 97 76 96
f 96 76 77
f 96 77 95
f 95 77 78
f 95 78 94
f 94 78 79
f 94 79 93
f 93 79 80
f 93 80 92
f 92 80 81
f 92 81 91
f 91 81 82
f 91 82 90
f 90 82 83
f 90 83 89
f 89 83 84
f 89 84 88
f 88 84 85
f 104 119 103
f 103 119 120
f 103 120 121
f 119 104 118
f 118 104 105
f 118 105 117
f 117 105 116
f 116 105 106
f 116 106 115
f 115 106 107
f 115 107 114
f 114 107 108
f 114 108 113
f 113 108 126
f 126 108 109
f 126 109 125
f 125 109 110
f 125 110 124
f 124 110 111
f 124 111 123
f 123 111 122
f 122 111 112
f 122 112 121
f 121 112 103
f 128 137 127
f 127 137 138
f 127 138 136
f 136 138 147
f 136 147 135
f 148 139 140
f 148 140 134
f 134 140 141
f 134 141 133
f 133 141 142
f 133 142 132
f 132 142 143
f 132 143 131
f 131 143 144
f 131 144 130
f 130 144 145
f 130 145 129
f 129 145 146
f 129 146 128
f 128 146 137
f 150 168 149
f 149 168 170
f 169 159 158
f 158 159 160
f 158 160 157
f 157 160 161
f 157 161 156
f 156 161 162
f 156 162 155
f 155 162 163
f 155 163 154
f 154 163 164
f 154 164 153
f 153 164 165
f 153 165 152
f 152 165 166
f 152 166 151
f 151 166 167
f 151 167 150
f 150 167 168
f 172 178 171
f 171 178 179
f 171 179 177
f 177 179 180
f 177 180 176
f 176 180 186
f 176 186 175
f 185 181 182
f 185 182 174
f 174 182 183
f 174 183 173
f 173 183 184
f 173 184 172
f 172 184 178
f 188 196 187
f 187 196 197
f 187 197 193
f 193 197 198
f 193 198 199
f 189 194 188
f 188 194 195
f 188 195 196
f 194 189 203
f 203 189 190
f 203 190 202
f 202 190 191
f 202 191 201
f 201 191 200
f 200 191 192
f 200 192 199
f 199 192 193
f 205 216 204
f 204 216 217
f 204 217 215
f 215 217 218
f 215 218 214
f 214 218 229
f 214 229 213
f 228 219 220
f 228 220 212
f 212 220 221
f 212 221 211
f 211 221 222
f 211 222 210
f 210 222 223
f 210 223 209
f 209 223 224
f 209 224 208
f 208 224 225
f 208 225 207
f 207 225 226
f 207 226 206
f 206 226 227
f 206 227 205
f 205 227 216
f 244 230 245
f 245 230 231
f 245 231 256
f 256 231 232
f 256 232 255
f 255 232 233
f 255 233 254
f 254 233 234
f 254 234 253
f 253 234 235
f 253 235 236
f 253 236 252
f 252 236 237
f 252 237 251
f 251 237 238
f 251 238 250
f 250 238 239
f 250 239 249
f 249 239 240
f 249 240 241
f 249 241 248
f 248 241 242
f 248 242 247
f 247 242 243
f 247 243 246
f 246 243 244
f 246 244 245
f 258 280 257
f 257 280 281
f 282 269 268
f 268 269 270
f 268 270 267
f 267 270 271
f 267 271 266
f 266 271 272
f 266 272 265
f 265 272 273
f 265 273 264
f 264 273 274
f 264 274 263
f 263 274 275
f 263 275 262
f 262 275 276
f 262 276 261
f 261 276 277
f 261 277 260
f 260 277 278
f 260 278 259
f 259 278 279
f 259 279 258
f 258 279 280
f 284 303 283
f 283 303 293
f 283 293 294
f 303 284 302
f 302 284 285
f 302 285 301
f 301 285 286
f 301 286 300
f 300 286 287
f 300 287 299
f 299 287 288
f 299 288 298
f 298 288 289
f 298 289 297
f 297 289 290
f 297 290 296
f 296 290 305
f 296 305 295
f 304 291 292
f 304 292 294
f 294 292 283
f 317 306 318
f 318 306 307
f 318 307 328
f 328 307 308
f 328 308 327
f 327 308 309
f 327 309 326
f 326 309 310
f 326 310 325
f 325 310 311
f 325 311 324
f 324 311 312
f 324 312 323
f 323 312 313
f 323 313 322
f 322 313 314
f 322 314 321
f 321 314 315
f 321 315 320
f 320 315 316
f 320 316 319
f 319 316 317
f 319 317 318
