v -0.2297999954 0.09300000191 0.07800000191
v -0.2297999954 0.09226777077 0.079767766
v -0.2297999954 0.09050000191 0.08050000191
v -0.2297999954 0.08873223305 0.079767766
v -0.2297999954 0.08800000191 0.07800000191
v -0.2297999954 0.08873223305 0.07623223305
v -0.2297999954 0.09050000191 0.07550000191
v -0.2297999954 0.09226777077 0.07623223305
v -0.2331999969 0.09300000191 0.07800000191
v -0.2331999969 0.09226777077 0.07623223305
v -0.2331999969 0.09050000191 0.07550000191
v -0.2331999969 0.08873223305 0.07623223305
v -0.2331999969 0.08800000191 0.07800000191
v -0.2331999969 0.08873223305 0.079767766
v -0.2331999969 0.09050000191 0.08050000191
v -0.2331999969 0.09226777077 0.079767766
v -0.2297999954 0.09300000191 0.07800000191
v -0.2331999969 0.09300000191 0.07800000191
v -0.2297999954 0.09300000191 0.07800000191
v -0.2297999954 0.09226777077 0.07623223305
v -0.2297999954 0.09050000191 0.07550000191
v -0.2297999954 0.08873223305 0.07623223305
v -0.2297999954 0.08800000191 0.07800000191
v -0.2297999954 0.08873223305 0.079767766
v -0.2297999954 0.09050000191 0.08050000191
v -0.2297999954 0.09226777077 0.079767766
v -0.2297999954 0.08699999809 0.07300000191
v -0.2297999954 0.09399999619 0.07300000191
v -0.2297999954 0.09399999619 0.08300000191
v -0.2297999954 0.08699999809 0.08300000191
v -0.2331999969 0.09300000191 0.07800000191
v -0.2331999969 0.09226777077 0.079767766
v -0.2331999969 0.09050000191 0.08050000191
v -0.2331999969 0.08873223305 0.079767766
v -0.2331999969 0.08800000191 0.07800000191
v -0.2331999969 0.08873223305 0.07623223305
v -0.2331999969 0.09050000191 0.07550000191
v -0.2331999969 0.09226777077 0.07623223305
v -0.2331999969 0.09550000191 0.07300000191
v -0.2331999969 0.08550000191 0.07300000191
v -0.2331999969 0.08550000191 0.08300000191
v -0.2331999969 0.09550000191 0.08300000191
v -0.2297999954 0.09399999619 0.08300000191
v -0.2331999969 0.09550000191 0.08300000191
v -0.2331999969 0.08550000191 0.08300000191
v -0.2297999954 0.08699999809 0.08300000191
v -0.2331999969 0.08550000191 0.07300000191
v -0.2297999954 0.08699999809 0.07300000191
v -0.2297999954 0.08699999809 0.08300000191
v -0.2331999969 0.08550000191 0.08300000191
v -0.2331999969 0.09550000191 0.07300000191
v -0.2297999954 0.09399999619 0.07300000191
v -0.2297999954 0.08699999809 0.07300000191
v -0.2331999969 0.08550000191 0.07300000191
v -0.2297999954 0.09399999619 0.07300000191
v -0.2331999969 0.09550000191 0.07300000191
v -0.2331999969 0.09550000191 0.08300000191
v -0.2297999954 0.09399999619 0.08300000191
f 2 16 1
f 1 16 18
f 17 9 8
f 8 9 10
f 8 10 11
f 2 3 16
f 16 3 15
f 15 3 4
f 15 4 14
f 14 4 5
f 14 5 13
f 13 5 6
f 13 6 12
f 12 6 7
f 12 7 11
f 11 7 8
f 20 28 19
f 19 28 29
f 19 29 26
f 26 29 25
f 25 29 30
f 25 30 24
f 24 30 23
f 23 30 27
f 23 27 22
f 22 27 21
f 21 27 28
f 21 28 20
f 32 42 31
f 31 42 39
f 31 39 38
f 38 39 37
f 37 39 40
f 37 40 36
f 36 40 35
f 35 40 41
f 35 41 34
f 34 41 33
f 33 41 42
f 33 42 32
f 44 45 43
f 43 45 46
f 47 48 50
f 50 48 49
f 52 53 51
f 51 53 54
f 55 56 58
f 58 56 57
