v -0.2029813694 -0.01333198667 0.4375103434
v -0.2015524234 -0.01333198667 0.4383353505
v -0.2015524263 -0.01333198667 0.4399853406
v -0.2029813752 -0.01333198667 0.4408103427
v -0.2044103022 -0.01333198667 0.4399853356
v -0.2044102993 -0.01333198667 0.4383353455
v -0.2029813694 -0.005331987143 0.4375103434
v -0.2044102993 -0.005331987143 0.4383353455
v -0.2044103022 -0.005331987143 0.4399853356
v -0.2029813752 -0.005331987143 0.4408103427
v -0.2015524263 -0.005331987143 0.4399853406
v -0.2015524234 -0.005331987143 0.4383353505
v -0.2029813752 -0.005331987143 0.4408103427
v -0.2029813752 -0.01333198667 0.4408103427
v -0.2029813694 -0.005331987143 0.4375103434
v -0.2015524234 -0.005331987143 0.4383353505
v -0.2015524263 -0.005331987143 0.4399853406
v -0.2029813752 -0.005331987143 0.4408103427
v -0.2044103022 -0.005331987143 0.4399853356
v -0.2044102993 -0.005331987143 0.4383353455
v -0.2097313647 -0.003700000048 0.4391603217
v -0.2088270276 -0.003700000048 0.4357853271
v -0.2063563583 -0.003700000048 0.4333146664
v -0.2029813605 -0.003700000048 0.4324103411
v -0.1996063659 -0.003700000048 0.4333146783
v -0.1971356862 -0.003700000048 0.4357853476
v -0.1962313609 -0.003700000048 0.4391603454
v -0.197135698 -0.003700000048 0.442535359
v -0.1996063864 -0.003700000048 0.4450060197
v -0.2029813842 -0.003700000048 0.445910345
v -0.2063563788 -0.003700000048 0.4450060078
v -0.2088270394 -0.003700000048 0.4425353385
v -0.2094313578 -0.00400000006 0.4391603222
v -0.2085672392 -0.00400000006 0.442385326
v -0.2062063844 -0.00400000006 0.4447461891
v -0.2029813837 -0.00400000006 0.4456103381
v -0.1997563799 -0.00400000006 0.4447462004
v -0.1973955168 -0.00400000006 0.4423853456
v -0.1965313678 -0.00400000006 0.4391603448
v -0.1973955055 -0.00400000006 0.435935341
v -0.1997563603 -0.00400000006 0.433574478
v -0.202981361 -0.00400000006 0.432710348
v -0.2062063648 -0.00400000006 0.4335744666
v -0.2085672279 -0.00400000006 0.4359353214
v -0.2029813842 -0.003700000048 0.445910345
v -0.2029813837 -0.00400000006 0.4456103381
v -0.2084313731 -0.00400000006 0.439160324
v -0.2075662049 -0.00400000006 0.4421068167
v -0.2052453848 -0.00400000006 0.4441178338
v -0.2022057585 -0.00400000006 0.4445548699
v -0.199412387 -0.00400000006 0.4432791829
v -0.1977521308 -0.00400000006 0.4406957965
v -0.1977521254 -0.00400000006 0.437624908
v -0.1994123725 -0.00400000006 0.4350415158
v -0.2022057396 -0.00400000006 0.4337658189
v -0.2052453674 -0.00400000006 0.4342028443
v -0.2075661946 -0.00400000006 0.4362138342
v -0.2094313578 -0.00400000006 0.4391603222
v -0.2085672279 -0.00400000006 0.4359353214
v -0.2062063648 -0.00400000006 0.4335744666
v -0.202981361 -0.00400000006 0.432710348
v -0.1997563603 -0.00400000006 0.433574478
v -0.1973955055 -0.00400000006 0.435935341
v -0.1965313678 -0.00400000006 0.4391603448
v -0.1973955168 -0.00400000006 0.4423853456
v -0.1997563799 -0.00400000006 0.4447462004
v -0.2029813837 -0.00400000006 0.4456103381
v -0.2062063844 -0.00400000006 0.4447461891
v -0.2085672392 -0.00400000006 0.442385326
v -0.2097313647 -0.002300000042 0.4391603217
v -0.2088270276 -0.002300000042 0.4357853271
v -0.2063563583 -0.002300000042 0.4333146664
v -0.2029813605 -0.002300000042 0.4324103411
v -0.1996063659 -0.002300000042 0.4333146783
v -0.1971356862 -0.002300000042 0.4357853476
v -0.1962313609 -0.002300000042 0.4391603454
v -0.197135698 -0.002300000042 0.442535359
v -0.1996063864 -0.002300000042 0.4450060197
v -0.2029813842 -0.002300000042 0.445910345
v -0.2063563788 -0.002300000042 0.4450060078
v -0.2088270394 -0.002300000042 0.4425353385
v -0.2097313647 -0.003700000048 0.4391603217
v -0.2088270394 -0.003700000048 0.4425353385
v -0.2063563788 -0.003700000048 0.4450060078
v -0.2029813842 -0.003700000048 0.445910345
v -0.1996063864 -0.003700000048 0.4450060197
v -0.197135698 -0.003700000048 0.442535359
v -0.1962313609 -0.003700000048 0.4391603454
v -0.1971356862 -0.003700000048 0.4357853476
v -0.1996063659 -0.003700000048 0.4333146783
v -0.2029813605 -0.003700000048 0.4324103411
v -0.2063563583 -0.003700000048 0.4333146664
v -0.2088270276 -0.003700000048 0.4357853271
v -0.2097313647 -0.002300000042 0.4391603217
v -0.2097313647 -0.003700000048 0.4391603217
v -0.2081313662 -0.004300000072 0.4391603245
v -0.2073138243 -0.004300000072 0.4419446353
v -0.2051207582 -0.004300000072 0.4438449497
v -0.2022484635 -0.004300000072 0.4442579148
v -0.1996088435 -0.004300000072 0.443052456
v -0.1980399877 -0.004300000072 0.4406112623
v -0.1980399826 -0.004300000072 0.4377094221
v -0.1996088298 -0.004300000072 0.435268242
v -0.2022484456 -0.004300000072 0.4340627548
v -0.2051207417 -0.004300000072 0.4344757289
v -0.2073138145 -0.004300000072 0.4363760356
v -0.2084313731 -0.00400000006 0.439160324
v -0.2075661946 -0.00400000006 0.4362138342
v -0.2052453674 -0.00400000006 0.4342028443
v -0.2022057396 -0.00400000006 0.4337658189
v -0.1994123725 -0.00400000006 0.4350415158
v -0.1977521254 -0.00400000006 0.437624908
v -0.1977521308 -0.00400000006 0.4406957965
v -0.199412387 -0.00400000006 0.4432791829
v -0.2022057585 -0.00400000006 0.4445548699
v -0.2052453848 -0.00400000006 0.4441178338
v -0.2075662049 -0.00400000006 0.4421068167
v -0.2052453674 -0.00400000006 0.4342028443
v -0.2051207417 -0.004300000072 0.4344757289
v -0.2029813694 -0.01333198667 0.4375103434
v -0.2044102993 -0.01333198667 0.4383353455
v -0.2044103022 -0.01333198667 0.4399853356
v -0.2029813752 -0.01333198667 0.4408103427
v -0.2015524263 -0.01333198667 0.4399853406
v -0.2015524234 -0.01333198667 0.4383353505
v -0.2053313594 -0.01333198667 0.4391603294
v -0.2044465562 -0.01333198667 0.4373230392
v -0.2024584305 -0.01333198667 0.4368692654
v -0.2008640801 -0.01333198667 0.4381407259
v -0.2008640836 -0.01333198667 0.4401799677
v -0.2024584386 -0.01333198667 0.4414514225
v -0.2044465626 -0.01333198667 0.4409976417
v -0.2081313662 -0.00903198719 0.4391603245
v -0.2073138243 -0.00903198719 0.4419446353
v -0.2051207582 -0.00903198719 0.4438449497
v -0.2022484635 -0.00903198719 0.4442579148
v -0.1996088435 -0.00903198719 0.443052456
v -0.1980399877 -0.00903198719 0.4406112623
v -0.1980399826 -0.00903198719 0.4377094221
v -0.1996088298 -0.00903198719 0.435268242
v -0.2022484456 -0.00903198719 0.4340627548
v -0.2051207417 -0.00903198719 0.4344757289
v -0.2073138145 -0.00903198719 0.4363760356
v -0.2081313662 -0.004300000072 0.4391603245
v -0.2073138145 -0.004300000072 0.4363760356
v -0.2051207417 -0.004300000072 0.4344757289
v -0.2022484456 -0.004300000072 0.4340627548
v -0.1996088298 -0.004300000072 0.435268242
v -0.1980399826 -0.004300000072 0.4377094221
v -0.1980399877 -0.004300000072 0.4406112623
v -0.1996088435 -0.004300000072 0.443052456
v -0.2022484635 -0.004300000072 0.4442579148
v -0.2051207582 -0.004300000072 0.4438449497
v -0.2073138243 -0.004300000072 0.4419446353
v -0.2081313662 -0.004300000072 0.4391603245
v -0.2081313662 -0.00903198719 0.4391603245
v -0.2097313647 -0.002300000042 0.4391603217
v -0.2088270394 -0.002300000042 0.4425353385
v -0.2063563788 -0.002300000042 0.4450060078
v -0.2029813842 -0.002300000042 0.445910345
v -0.1996063864 -0.002300000042 0.4450060197
v -0.197135698 -0.002300000042 0.442535359
v -0.1962313609 -0.002300000042 0.4391603454
v -0.1971356862 -0.002300000042 0.4357853476
v -0.1996063659 -0.002300000042 0.4333146783
v -0.2029813605 -0.002300000042 0.4324103411
v -0.2063563583 -0.002300000042 0.4333146664
v -0.2088270276 -0.002300000042 0.4357853271
v -0.2094313578 -0.00200000003 0.4391603222
v -0.2085672279 -0.00200000003 0.4359353214
v -0.2062063648 -0.00200000003 0.4335744666
v -0.202981361 -0.00200000003 0.432710348
v -0.1997563603 -0.00200000003 0.433574478
v -0.1973955055 -0.00200000003 0.435935341
v -0.1965313678 -0.00200000003 0.4391603448
v -0.1973955168 -0.00200000003 0.4423853456
v -0.1997563799 -0.00200000003 0.4447462004
v -0.2029813837 -0.00200000003 0.4456103381
v -0.2062063844 -0.00200000003 0.4447461891
v -0.2085672392 -0.00200000003 0.442385326
v -0.2029813605 -0.002300000042 0.4324103411
v -0.202981361 -0.00200000003 0.432710348
v -0.2094313578 -0.00200000003 0.4391603222
v -0.2085672392 -0.00200000003 0.442385326
v -0.2062063844 -0.00200000003 0.4447461891
v -0.2029813837 -0.00200000003 0.4456103381
v -0.1997563799 -0.00200000003 0.4447462004
v -0.1973955168 -0.00200000003 0.4423853456
v -0.1965313678 -0.00200000003 0.4391603448
v -0.1973955055 -0.00200000003 0.435935341
v -0.1997563603 -0.00200000003 0.433574478
v -0.202981361 -0.00200000003 0.432710348
v -0.2062063648 -0.00200000003 0.4335744666
v -0.2085672279 -0.00200000003 0.4359353214
v -0.2081313662 -0.00903198719 0.4391603245
v -0.2073138145 -0.00903198719 0.4363760356
v -0.2051207417 -0.00903198719 0.4344757289
v -0.2022484456 -0.00903198719 0.4340627548
v -0.1996088298 -0.00903198719 0.435268242
v -0.1980399826 -0.00903198719 0.4377094221
v -0.1980399877 -0.00903198719 0.4406112623
v -0.1996088435 -0.00903198719 0.443052456
v -0.2022484635 -0.00903198719 0.4442579148
v -0.2051207582 -0.00903198719 0.4438449497
v -0.2073138243 -0.00903198719 0.4419446353
v -0.2078313594 -0.009331986904 0.439160325
v -0.2069050987 -0.009331986904 0.442011088
v -0.2044800987 -0.009331986904 0.4437729675
v -0.2014826431 -0.009331986904 0.4437729727
v -0.199057637 -0.009331986904 0.4420111018
v -0.1981313662 -0.009331986904 0.439160342
v -0.199057627 -0.009331986904 0.436309579
v -0.2014826269 -0.009331986904 0.4345477187
v -0.2044800825 -0.009331986904 0.4345477134
v -0.2069050887 -0.009331986904 0.4363095652
v -0.2044800987 -0.009331986904 0.4437729675
v -0.2051207582 -0.00903198719 0.4438449497
v -0.2056313662 -0.01303198695 0.4391603289
v -0.2048552056 -0.01303198695 0.4372865128
v -0.2029813677 -0.01303198695 0.4365103396
v -0.2011075325 -0.01303198695 0.4372865194
v -0.2003313594 -0.01303198695 0.4391603382
v -0.2011075391 -0.01303198695 0.4410341733
v -0.202981377 -0.01303198695 0.4418103465
v -0.2048552121 -0.01303198695 0.4410341667
v -0.2053313594 -0.01333198667 0.4391603294
v -0.2044465626 -0.01333198667 0.4409976417
v -0.2024584386 -0.01333198667 0.4414514225
v -0.2008640836 -0.01333198667 0.4401799677
v -0.2008640801 -0.01333198667 0.4381407259
v -0.2024584305 -0.01333198667 0.4368692654
v -0.2044465562 -0.01333198667 0.4373230392
v -0.2044465626 -0.01333198667 0.4409976417
v -0.202981377 -0.01303198695 0.4418103465
v -0.2059313731 -0.009331986904 0.4391603283
v -0.2050673288 -0.009331986904 0.4412463017
v -0.2029813775 -0.009331986904 0.4421103343
v -0.2008954042 -0.009331986904 0.441246309
v -0.2000313716 -0.009331986904 0.4391603387
v -0.2008953968 -0.009331986904 0.4370743844
v -0.2029813672 -0.009331986904 0.4362103328
v -0.2050673214 -0.009331986904 0.4370743771
v -0.2078313594 -0.009331986904 0.439160325
v -0.2069050887 -0.009331986904 0.4363095652
v -0.2044800825 -0.009331986904 0.4345477134
v -0.2014826269 -0.009331986904 0.4345477187
v -0.199057627 -0.009331986904 0.436309579
v -0.1981313662 -0.009331986904 0.439160342
v -0.199057637 -0.009331986904 0.4420111018
v -0.2014826431 -0.009331986904 0.4437729727
v -0.2044800987 -0.009331986904 0.4437729675
v -0.2069050987 -0.009331986904 0.442011088
v -0.2056313662 -0.009631987214 0.4391603289
v -0.2048552121 -0.009631987214 0.4410341667
v -0.202981377 -0.009631987214 0.4418103465
v -0.2011075391 -0.009631987214 0.4410341733
v -0.2003313594 -0.009631987214 0.4391603382
v -0.2011075325 -0.009631987214 0.4372865194
v -0.2029813677 -0.009631987214 0.4365103396
v -0.2048552056 -0.009631987214 0.4372865128
v -0.2059313731 -0.009331986904 0.4391603283
v -0.2050673214 -0.009331986904 0.4370743771
v -0.2029813672 -0.009331986904 0.4362103328
v -0.2008953968 -0.009331986904 0.4370743844
v -0.2000313716 -0.009331986904 0.4391603387
v -0.2008954042 -0.009331986904 0.441246309
v -0.2029813775 -0.009331986904 0.4421103343
v -0.2050673288 -0.009331986904 0.4412463017
v -0.2029813677 -0.009631987214 0.4365103396
v -0.2029813672 -0.009331986904 0.4362103328
v -0.2056313662 -0.01303198695 0.4391603289
v -0.2048552121 -0.01303198695 0.4410341667
v -0.202981377 -0.01303198695 0.4418103465
v -0.2011075391 -0.01303198695 0.4410341733
v -0.2003313594 -0.01303198695 0.4391603382
v -0.2011075325 -0.01303198695 0.4372865194
v -0.2029813677 -0.01303198695 0.4365103396
v -0.2048552056 -0.01303198695 0.4372865128
v -0.2056313662 -0.009631987214 0.4391603289
v -0.2048552056 -0.009631987214 0.4372865128
v -0.2029813677 -0.009631987214 0.4365103396
v -0.2011075325 -0.009631987214 0.4372865194
v -0.2003313594 -0.009631987214 0.4391603382
v -0.2011075391 -0.009631987214 0.4410341733
v -0.202981377 -0.009631987214 0.4418103465
v -0.2048552121 -0.009631987214 0.4410341667
v -0.2056313662 -0.009631987214 0.4391603289
v -0.2056313662 -0.01303198695 0.4391603289
f 2 12 1
f 1 12 7
f 1 7 6
f 6 7 8
f 6 8 5
f 5 8 9
f 5 9 4
f 4 9 13
f 14 10 3
f 3 10 11
f 3 11 2
f 2 11 12
f 16 17 15
f 15 17 18
f 15 18 20
f 20 18 19
f 22 44 21
f 21 44 33
f 21 33 32
f 32 33 34
f 32 34 31
f 31 34 35
f 31 35 30
f 30 35 46
f 45 36 29
f 29 36 37
f 29 37 28
f 28 37 38
f 28 38 27
f 27 38 39
f 27 39 26
f 26 39 40
f 26 40 25
f 25 40 41
f 25 41 24
f 24 41 42
f 24 42 23
f 23 42 43
f 23 43 22
f 22 43 44
f 48 69 47
f 47 69 58
f 47 58 59
f 69 48 68
f 68 48 49
f 68 49 67
f 67 49 50
f 67 50 66
f 66 50 51
f 66 51 65
f 65 51 52
f 65 52 64
f 64 52 53
f 64 53 63
f 63 53 54
f 63 54 62
f 62 54 55
f 62 55 61
f 61 55 56
f 61 56 60
f 60 56 57
f 60 57 59
f 59 57 47
f 71 93 70
f 70 93 95
f 94 82 81
f 81 82 83
f 81 83 80
f 80 83 84
f 80 84 79
f 79 84 85
f 79 85 78
f 78 85 86
f 78 86 77
f 77 86 87
f 77 87 76
f 76 87 88
f 76 88 75
f 75 88 89
f 75 89 74
f 74 89 90
f 74 90 73
f 73 90 91
f 73 91 72
f 72 91 92
f 72 92 71
f 71 92 93
f 97 107 96
f 96 107 108
f 96 108 106
f 106 108 118
f 106 118 105
f 119 109 110
f 119 110 104
f 104 110 111
f 104 111 103
f 103 111 112
f 103 112 102
f 102 112 113
f 102 113 101
f 101 113 114
f 101 114 100
f 100 114 115
f 100 115 99
f 99 115 116
f 99 116 98
f 98 116 117
f 98 117 97
f 97 117 107
f 121 127 120
f 120 127 128
f 120 128 125
f 125 128 129
f 125 129 130
f 127 121 126
f 126 121 122
f 126 122 132
f 132 122 123
f 132 123 131
f 131 123 124
f 131 124 130
f 130 124 125
f 134 154 133
f 133 154 155
f 156 144 143
f 143 144 145
f 143 145 146
f 134 135 154
f 154 135 153
f 153 135 136
f 153 136 152
f 152 136 137
f 152 137 151
f 151 137 138
f 151 138 150
f 150 138 139
f 150 139 149
f 149 139 140
f 149 140 148
f 148 140 141
f 148 141 147
f 147 141 142
f 147 142 146
f 146 142 143
f 158 180 157
f 157 180 169
f 157 169 168
f 168 169 170
f 168 170 167
f 167 170 171
f 167 171 166
f 166 171 182
f 181 172 165
f 165 172 173
f 165 173 164
f 164 173 174
f 164 174 163
f 163 174 175
f 163 175 162
f 162 175 176
f 162 176 161
f 161 176 177
f 161 177 160
f 160 177 178
f 160 178 159
f 159 178 179
f 159 179 158
f 158 179 180
f 184 188 183
f 183 188 189
f 183 189 194
f 194 189 190
f 194 190 193
f 193 190 191
f 193 191 192
f 188 184 187
f 187 184 185
f 187 185 186
f 205 195 206
f 206 195 196
f 206 196 215
f 215 196 197
f 215 197 214
f 214 197 198
f 214 198 213
f 213 198 199
f 213 199 212
f 212 199 200
f 212 200 211
f 211 200 201
f 211 201 210
f 210 201 202
f 210 202 209
f 209 202 203
f 209 203 208
f 208 203 217
f 216 204 207
f 207 204 205
f 207 205 206
f 225 218 226
f 226 218 219
f 226 219 232
f 232 219 220
f 232 220 231
f 231 220 221
f 231 221 230
f 230 221 222
f 230 222 229
f 229 222 223
f 229 223 228
f 228 223 234
f 228 234 227
f 233 224 225
f 233 225 226
f 236 252 235
f 235 252 243
f 235 243 244
f 252 236 251
f 251 236 237
f 251 237 250
f 250 237 238
f 250 238 249
f 249 238 239
f 249 239 248
f 248 239 247
f 247 239 240
f 247 240 246
f 246 240 241
f 246 241 245
f 245 241 242
f 245 242 244
f 244 242 235
f 254 268 253
f 253 268 261
f 253 261 260
f 260 261 262
f 260 262 259
f 259 262 270
f 269 263 258
f 258 263 264
f 258 264 257
f 257 264 265
f 257 265 256
f 256 265 266
f 256 266 255
f 255 266 267
f 255 267 254
f 254 267 268
f 272 286 271
f 271 286 287
f 288 279 278
f 278 279 280
f 278 280 277
f 277 280 281
f 277 281 276
f 276 281 282
f 276 282 275
f 275 282 283
f 275 283 274
f 274 283 284
f 274 284 273
f 273 284 285
f 273 285 272
f 272 285 286
