v 0.2021649933 0.1019999981 0.4598767549
v 0.2028972244 0.1019999981 0.4616445238
v 0.2046649933 0.1019999981 0.4623767549
v 0.2064327621 0.1019999981 0.4616445238
v 0.2071649933 0.1019999981 0.4598767549
v 0.2064327621 0.1019999981 0.4581089861
v 0.2046649933 0.1019999981 0.4573767549
v 0.2028972244 0.1019999981 0.4581089861
v 0.2021649933 0.09699999809 0.4598767549
v 0.2028972244 0.09699999809 0.4581089861
v 0.2046649933 0.09699999809 0.4573767549
v 0.2064327621 0.09699999809 0.4581089861
v 0.2071649933 0.09699999809 0.4598767549
v 0.2064327621 0.09699999809 0.4616445238
v 0.2046649933 0.09699999809 0.4623767549
v 0.2028972244 0.09699999809 0.4616445238
v 0.2021649933 0.1019999981 0.4598767549
v 0.2021649933 0.09699999809 0.4598767549
v 0.2069743919 0.09699999809 0.4638767511
v 0.2092838097 0.09699999809 0.4598767549
v 0.2092838097 0.1019999981 0.4598767549
v 0.2069743919 0.1019999981 0.4638767511
v 0.200046196 0.09699999809 0.4598767549
v 0.2023555946 0.09699999809 0.4638767511
v 0.2023555946 0.1019999981 0.4638767511
v 0.200046196 0.1019999981 0.4598767549
v 0.2021649933 0.09699999809 0.4598767549
v 0.2028972244 0.09699999809 0.4616445238
v 0.2046649933 0.09699999809 0.4623767549
v 0.2064327621 0.09699999809 0.4616445238
v 0.2071649933 0.09699999809 0.4598767549
v 0.2064327621 0.09699999809 0.4581089861
v 0.2046649933 0.09699999809 0.4573767549
v 0.2028972244 0.09699999809 0.4581089861
v 0.2092838097 0.09699999809 0.4598767549
v 0.2069743919 0.09699999809 0.4638767511
v 0.2023555946 0.09699999809 0.4638767511
v 0.200046196 0.09699999809 0.4598767549
v 0.2023555946 0.09699999809 0.4558767587
v 0.2069743919 0.09699999809 0.4558767587
v 0.2021649933 0.1019999981 0.4598767549
v 0.2028972244 0.1019999981 0.4581089861
v 0.2046649933 0.1019999981 0.4573767549
v 0.2064327621 0.1019999981 0.4581089861
v 0.2071649933 0.1019999981 0.4598767549
v 0.2064327621 0.1019999981 0.4616445238
v 0.2046649933 0.1019999981 0.4623767549
v 0.2028972244 0.1019999981 0.4616445238
v 0.2069743919 0.1019999981 0.4638767511
v 0.2092838097 0.1019999981 0.4598767549
v 0.2069743919 0.1019999981 0.4558767587
v 0.2023555946 0.1019999981 0.4558767587
v 0.200046196 0.1019999981 0.4598767549
v 0.2023555946 0.1019999981 0.4638767511
v 0.2092838097 0.09699999809 0.4598767549
v 0.2069743919 0.09699999809 0.4558767587
v 0.2069743919 0.1019999981 0.4558767587
v 0.2092838097 0.1019999981 0.4598767549
v 0.2023555946 0.09699999809 0.4558767587
v 0.200046196 0.09699999809 0.4598767549
v 0.200046196 0.1019999981 0.4598767549
v 0.2023555946 0.1019999981 0.4558767587
v 0.2023555946 0.09699999809 0.4638767511
v 0.2069743919 0.09699999809 0.4638767511
v 0.2069743919 0.1019999981 0.4638767511
v 0.2023555946 0.1019999981 0.4638767511
v 0.2069743919 0.09699999809 0.4558767587
v 0.2023555946 0.09699999809 0.4558767587
v 0.2023555946 0.1019999981 0.4558767587
v 0.2069743919 0.1019999981 0.4558767587
f 2 16 1
f 1 16 18
f 17 9 8
f 8 9 10
f 8 10 11
f 2 3 16
f 16 3 15
f 15 3 4
f 15 4 14
f 14 4 5
f 14 5 13
f 13 5 6
f 13 6 12
f 12 6 7
f 12 7 11
f 11 7 8
f 19 20 22
f 22 20 21
f 23 24 26
f 26 24 25
f 34 27 38
f 38 27 28
f 38 28 37
f 37 28 29
f 37 29 36
f 36 29 30
f 36 30 35
f 35 30 31
f 35 31 32
f 35 32 40
f 40 32 33
f 40 33 39
f 39 33 34
f 39 34 38
f 48 41 53
f 53 41 42
f 53 42 52
f 52 42 43
f 52 43 51
f 51 43 44
f 51 44 50
f 50 44 45
f 50 45 46
f 50 46 49
f 49 46 47
f 49 47 54
f 54 47 48
f 54 48 53
f 55 56 58
f 58 56 57
f 59 60 62
f 62 60 61
f 63 64 66
f 66 64 65
f 67 68 70
f 70 68 69
