v 0.01569002032 0.1060000038 0.4550058061
v 0.01763456464 0.1060000038 0.4558112604
v 0.01844002128 0.1060000038 0.4577558214
v 0.01763456464 0.1060000038 0.4597003633
v 0.01569002032 0.1060000038 0.4605058176
v 0.0137454772 0.1060000038 0.4597003633
v 0.01294002056 0.1060000038 0.4577558214
v 0.0137454772 0.1060000038 0.4558112604
v 0.01569002032 0.1060000038 0.4560558206
v 0.01421777725 0.1060000038 0.4569058115
v 0.01421777725 0.1060000038 0.4586058122
v 0.01569002032 0.1060000038 0.4594558221
v 0.01716226339 0.1060000038 0.4586058122
v 0.01716226339 0.1060000038 0.4569058115
v 0.01569002032 0.1088000011 0.4550058061
v 0.01763456464 0.1088000011 0.4558112604
v 0.01844002128 0.1088000011 0.4577558214
v 0.01763456464 0.1088000011 0.4597003633
v 0.01569002032 0.1088000011 0.4605058176
v 0.0137454772 0.1088000011 0.4597003633
v 0.01294002056 0.1088000011 0.4577558214
v 0.0137454772 0.1088000011 0.4558112604
v 0.01569002032 0.1060000038 0.4550058061
v 0.0137454772 0.1060000038 0.4558112604
v 0.01294002056 0.1060000038 0.4577558214
v 0.0137454772 0.1060000038 0.4597003633
v 0.01569002032 0.1060000038 0.4605058176
v 0.01763456464 0.1060000038 0.4597003633
v 0.01844002128 0.1060000038 0.4577558214
v 0.01763456464 0.1060000038 0.4558112604
v 0.01569002032 0.1060000038 0.4550058061
v 0.01569002032 0.1088000011 0.4550058061
v 0.01569002032 0.1089999962 0.4552058107
v 0.01749314308 0.1089999962 0.4559526903
v 0.01824002028 0.1089999962 0.4577558214
v 0.01749314308 0.1089999962 0.4595589334
v 0.01569002032 0.1089999962 0.460305813
v 0.01388689876 0.1089999962 0.4595589334
v 0.01314002037 0.1089999962 0.4577558214
v 0.01388689876 0.1089999962 0.4559526903
v 0.01569002032 0.1088000011 0.4550058061
v 0.0137454772 0.1088000011 0.4558112604
v 0.01294002056 0.1088000011 0.4577558214
v 0.0137454772 0.1088000011 0.4597003633
v 0.01569002032 0.1088000011 0.4605058176
v 0.01763456464 0.1088000011 0.4597003633
v 0.01844002128 0.1088000011 0.4577558214
v 0.01763456464 0.1088000011 0.4558112604
v 0.01749314308 0.1089999962 0.4559526903
v 0.01763456464 0.1088000011 0.4558112604
v 0.01569002032 0.1089999962 0.4552058107
v 0.01388689876 0.1089999962 0.4559526903
v 0.01314002037 0.1089999962 0.4577558214
v 0.01388689876 0.1089999962 0.4595589334
v 0.01569002032 0.1089999962 0.460305813
v 0.01749314308 0.1089999962 0.4595589334
v 0.01824002028 0.1089999962 0.4577558214
v 0.01749314308 0.1089999962 0.4559526903
v 0.01718968749 0.1089999962 0.4577558214
v 0.0164400208 0.1089999962 0.459055813
v 0.01493935466 0.1089999962 0.459055813
v 0.01418968797 0.1089999962 0.4577558214
v 0.01493935466 0.1089999962 0.4564558107
v 0.0164400208 0.1089999962 0.4564558107
v 0.01718968749 0.1077000046 0.4577558214
v 0.01718968749 0.1089999962 0.4577558214
v 0.0164400208 0.1089999962 0.4564558107
v 0.0164400208 0.1077000046 0.4564558107
v 0.01644118547 0.1077000046 0.4564578325
v 0.01644118547 0.1077000046 0.4564578325
v 0.01683949113 0.1077000046 0.4567926294
v 0.01709942222 0.1077000046 0.457243374
v 0.01718968749 0.1077000046 0.4577558214
v 0.01494235754 0.1077000046 0.4564558107
v 0.01543042898 0.1077000046 0.4562787897
v 0.01594961286 0.1077000046 0.4562787897
v 0.0164376843 0.1077000046 0.4564558107
v 0.01569002032 0.1060000038 0.4560558206
v 0.01716226339 0.1060000038 0.4569058115
v 0.01716226339 0.1060000038 0.4586058122
v 0.01569002032 0.1060000038 0.4594558221
v 0.01421777725 0.1060000038 0.4586058122
v 0.01421777725 0.1060000038 0.4569058115
v 0.01569002032 0.1057999992 0.4562558061
v 0.01439098239 0.1057999992 0.4570058138
v 0.01439098239 0.1057999992 0.4585058099
v 0.01569002032 0.1057999992 0.4592558176
v 0.01698905826 0.1057999992 0.4585058099
v 0.01698905826 0.1057999992 0.4570058138
v 0.01569002032 0.1060000038 0.4594558221
v 0.01569002032 0.1057999992 0.4592558176
v 0.01419035435 0.1077000046 0.4577546579
v 0.01428075194 0.1077000046 0.4572430116
v 0.01454030275 0.1077000046 0.4567929346
v 0.01493785501 0.1077000046 0.4564584047
v 0.01419002056 0.09630000114 0.4577558214
v 0.01494002104 0.09630000114 0.4590548593
v 0.0164400208 0.09630000114 0.4590548593
v 0.01719002128 0.09630000114 0.4577558214
v 0.0164400208 0.09630000114 0.4564567835
v 0.01494002104 0.09630000114 0.4564567835
v 0.01569002032 0.1057999992 0.4562558061
v 0.01698905826 0.1057999992 0.4570058138
v 0.01698905826 0.1057999992 0.4585058099
v 0.01569002032 0.1057999992 0.4592558176
v 0.01439098239 0.1057999992 0.4585058099
v 0.01439098239 0.1057999992 0.4570058138
v 0.01494002104 0.09630000114 0.4590548593
v 0.01569002032 0.1057999992 0.4592558176
v 0.01493785501 0.1077000046 0.459053219
v 0.01454030275 0.1077000046 0.4587187082
v 0.01428075194 0.1077000046 0.4582686121
v 0.01419035435 0.1077000046 0.4577569658
v 0.01419002056 0.09630000114 0.4577558214
v 0.01494002104 0.09630000114 0.4564567835
v 0.0164400208 0.09630000114 0.4564567835
v 0.01719002128 0.09630000114 0.4577558214
v 0.0164400208 0.09630000114 0.4590548593
v 0.01494002104 0.09630000114 0.4590548593
v 0.01569002032 0.09600000381 0.456555813
v 0.0145487535 0.09600000381 0.4573849947
v 0.01498467803 0.09600000381 0.4587266428
v 0.01639536262 0.09600000381 0.4587266428
v 0.01683128834 0.09600000381 0.4573849947
v 0.01639536262 0.09600000381 0.4587266428
v 0.01719002128 0.09630000114 0.4577558214
v 0.0164376843 0.1077000046 0.459055813
v 0.01594961286 0.1077000046 0.459232834
v 0.01543042898 0.1077000046 0.459232834
v 0.01494235754 0.1077000046 0.459055813
v 0.01644118547 0.1077000046 0.4590537912
v 0.0164400208 0.1077000046 0.459055813
v 0.0164400208 0.1089999962 0.459055813
v 0.01718968749 0.1089999962 0.4577558214
v 0.01718968749 0.1077000046 0.4577558214
v 0.01569002032 0.09600000381 0.456555813
v 0.01683128834 0.09600000381 0.4573849947
v 0.01639536262 0.09600000381 0.4587266428
v 0.01498467803 0.09600000381 0.4587266428
v 0.0145487535 0.09600000381 0.4573849947
v 0.01718968749 0.1077000046 0.4577558214
v 0.01709942222 0.1077000046 0.4582682497
v 0.01683949113 0.1077000046 0.4587189943
v 0.01644118547 0.1077000046 0.4590537912
v 0.0164376843 0.1077000046 0.4564558107
v 0.01594961286 0.1077000046 0.4562787897
v 0.01543042898 0.1077000046 0.4562787897
v 0.01494235754 0.1077000046 0.4564558107
v 0.0149408555 0.1077000046 0.456456669
v 0.01493935466 0.1077000046 0.4564575464
v 0.01493785501 0.1077000046 0.4564584047
v 0.01454030275 0.1077000046 0.4567929346
v 0.01428075194 0.1077000046 0.4572430116
v 0.01419035435 0.1077000046 0.4577546579
v 0.01418968797 0.107700386 0.4577558214
v 0.01419035435 0.1077000046 0.4577569658
v 0.01428075194 0.1077000046 0.4582686121
v 0.01454030275 0.1077000046 0.4587187082
v 0.01493785501 0.1077000046 0.459053219
v 0.01493935466 0.1077000046 0.4590540773
v 0.0149408555 0.1077000046 0.4590549547
v 0.01494235754 0.1077000046 0.459055813
v 0.01543042898 0.1077000046 0.459232834
v 0.01594961286 0.1077000046 0.459232834
v 0.0164376843 0.1077000046 0.459055813
v 0.01643885136 0.1077000046 0.4590551454
v 0.01644001961 0.1077000046 0.4590544588
v 0.01644118547 0.1077000046 0.4590537912
v 0.01683949113 0.1077000046 0.4587189943
v 0.01709942222 0.1077000046 0.4582682497
v 0.01718968749 0.1077000046 0.4577558214
v 0.01709942222 0.1077000046 0.457243374
v 0.01683949113 0.1077000046 0.4567926294
v 0.01644118547 0.1077000046 0.4564578325
v 0.01644001961 0.1077000046 0.4564571649
v 0.01643885136 0.1077000046 0.4564564783
v 0.01569002032 0.1068341637 0.4577558214
v 0.01718968749 0.1077000046 0.4577558214
v 0.01569002032 0.1068341637 0.4577558214
v 0.01569002032 0.1068341637 0.4577558214
v 0.01569002032 0.1068341637 0.4577558214
v 0.01569002032 0.1068341637 0.4577558214
v 0.01569002032 0.1068341637 0.4577558214
v 0.01569002032 0.1068341637 0.4577558214
v 0.01494235754 0.1077000046 0.459055813
v 0.01493935466 0.1077000046 0.459055813
v 0.01493935466 0.1089999962 0.459055813
v 0.0164400208 0.1089999962 0.459055813
v 0.0164400208 0.1077000046 0.459055813
v 0.0164376843 0.1077000046 0.459055813
v 0.01644118547 0.1077000046 0.4564578325
v 0.0164400208 0.1077000046 0.4564558107
v 0.0164376843 0.1077000046 0.4564558107
v 0.01643885136 0.1077000046 0.4564564783
v 0.01644001961 0.1077000046 0.4564571649
v 0.0164376843 0.1077000046 0.4564558107
v 0.0164400208 0.1077000046 0.4564558107
v 0.0164400208 0.1089999962 0.4564558107
v 0.01493935466 0.1089999962 0.4564558107
v 0.01493935466 0.1077000046 0.4564558107
v 0.01494235754 0.1077000046 0.4564558107
v 0.01419035435 0.1077000046 0.4577569658
v 0.01418968797 0.107700386 0.4577558214
v 0.01418968797 0.1089999962 0.4577558214
v 0.01493935466 0.1089999962 0.459055813
v 0.01493935466 0.1077000046 0.459055813
v 0.01493785501 0.1077000046 0.459053219
v 0.01494235754 0.1077000046 0.4564558107
v 0.01493935466 0.1077000046 0.4564558107
v 0.01493785501 0.1077000046 0.4564584047
v 0.01493935466 0.1077000046 0.4564575464
v 0.0149408555 0.1077000046 0.456456669
v 0.01493785501 0.1077000046 0.4564584047
v 0.01493935466 0.1077000046 0.4564558107
v 0.01493935466 0.1089999962 0.4564558107
v 0.01418968797 0.1089999962 0.4577558214
v 0.01418968797 0.107700386 0.4577558214
v 0.01419035435 0.1077000046 0.4577546579
v 0.0164376843 0.1077000046 0.459055813
v 0.0164400208 0.1077000046 0.459055813
v 0.01644118547 0.1077000046 0.4590537912
v 0.01644001961 0.1077000046 0.4590544588
v 0.01643885136 0.1077000046 0.4590551454
v 0.01493785501 0.1077000046 0.459053219
v 0.01493935466 0.1077000046 0.459055813
v 0.01494235754 0.1077000046 0.459055813
v 0.0149408555 0.1077000046 0.4590549547
v 0.01493935466 0.1077000046 0.4590540773
f 8 1 9
f 9 1 2
f 9 2 14
f 14 2 3
f 14 3 13
f 13 3 4
f 13 4 12
f 12 4 5
f 12 5 6
f 12 6 11
f 11 6 7
f 11 7 10
f 10 7 8
f 10 8 9
f 16 30 15
f 15 30 31
f 32 23 22
f 22 23 24
f 22 24 21
f 21 24 25
f 21 25 20
f 20 25 26
f 20 26 19
f 19 26 27
f 19 27 18
f 18 27 28
f 18 28 17
f 17 28 29
f 17 29 16
f 16 29 30
f 40 33 41
f 41 33 49
f 41 49 48
f 50 34 47
f 47 34 35
f 47 35 46
f 46 35 36
f 46 36 45
f 45 36 37
f 45 37 44
f 44 37 38
f 44 38 43
f 43 38 39
f 43 39 42
f 42 39 40
f 42 40 41
f 52 63 51
f 51 63 64
f 51 64 58
f 58 64 59
f 58 59 57
f 57 59 56
f 56 59 60
f 56 60 55
f 55 60 61
f 55 61 54
f 54 61 62
f 54 62 53
f 53 62 52
f 52 62 63
f 65 66 69
f 69 66 67
f 69 67 68
f 70 71 73
f 73 71 72
f 74 75 77
f 77 75 76
f 79 84 78
f 78 84 85
f 78 85 83
f 83 85 86
f 83 86 82
f 82 86 91
f 82 91 81
f 90 87 88
f 90 88 80
f 80 88 89
f 80 89 79
f 79 89 84
f 93 94 92
f 92 94 95
f 108 106 96
f 96 106 107
f 96 107 101
f 101 107 102
f 101 102 100
f 100 102 103
f 100 103 99
f 99 103 104
f 99 104 98
f 98 104 109
f 98 109 97
f 108 105 106
f 110 111 113
f 113 111 112
f 115 121 114
f 114 121 122
f 114 122 119
f 119 122 125
f 119 125 118
f 118 125 117
f 126 123 124
f 126 124 116
f 116 124 120
f 116 120 115
f 115 120 121
f 128 129 127
f 127 129 130
f 132 133 131
f 131 133 134
f 131 134 135
f 136 137 140
f 140 137 139
f 139 137 138
f 142 143 141
f 141 143 144
f 176 145 184
f 184 145 146
f 184 146 147
f 147 148 184
f 184 148 149
f 149 150 181
f 181 150 151
f 181 151 152
f 152 153 181
f 181 153 154
f 155 156 154
f 154 156 183
f 156 157 183
f 183 157 158
f 183 158 159
f 159 160 183
f 160 161 180
f 180 161 162
f 180 162 163
f 163 164 180
f 180 164 165
f 180 165 166
f 166 167 182
f 182 167 168
f 182 168 169
f 169 170 182
f 170 178 177
f 179 171 172
f 179 172 173
f 173 174 179
f 179 174 175
f 175 176 184
f 186 187 185
f 185 187 188
f 185 188 190
f 190 188 189
f 191 192 195
f 195 192 194
f 194 192 193
f 197 198 196
f 196 198 201
f 201 198 199
f 201 199 200
f 203 204 202
f 202 204 207
f 207 204 205
f 207 205 206
f 208 209 212
f 212 209 211
f 211 209 210
f 214 215 213
f 213 215 216
f 213 216 218
f 218 216 217
f 219 220 223
f 223 220 222
f 222 220 221
f 224 225 228
f 228 225 227
f 227 225 226
