v 0.2434529495 0.08399999619 0.4590211755
v 0.2428405952 0.08399999619 0.4608339578
v 0.2436894226 0.08399999619 0.4625487978
v 0.245502224 0.08399999619 0.463161152
v 0.2472170448 0.08399999619 0.4623123247
v 0.2478293991 0.08399999619 0.4604995424
v 0.2469805717 0.08399999619 0.4587847025
v 0.2451677895 0.08399999619 0.4581723482
v 0.2434529495 0.07550000191 0.4590211755
v 0.2451677895 0.07550000191 0.4581723482
v 0.2469805717 0.07550000191 0.4587847025
v 0.2478293991 0.07550000191 0.4604995424
v 0.2472170448 0.07550000191 0.4623123247
v 0.245502224 0.07550000191 0.463161152
v 0.2436894226 0.07550000191 0.4625487978
v 0.2428405952 0.07550000191 0.4608339578
v 0.2434529495 0.08399999619 0.4590211755
v 0.2434529495 0.07550000191 0.4590211755
v 0.2434529495 0.07550000191 0.4590211755
v 0.2428405952 0.07550000191 0.4608339578
v 0.2436894226 0.07550000191 0.4625487978
v 0.245502224 0.07550000191 0.463161152
v 0.2472170448 0.07550000191 0.4623123247
v 0.2478293991 0.07550000191 0.4604995424
v 0.2469805717 0.07550000191 0.4587847025
v 0.2451677895 0.07550000191 0.4581723482
v 0.2426587296 0.07550000191 0.4575367433
v 0.24478899 0.07550000191 0.4563639337
v 0.2471747208 0.07550000191 0.4568348009
v 0.2486996269 0.07550000191 0.458729027
v 0.2486502075 0.07550000191 0.4611602861
v 0.2470495415 0.07550000191 0.4629909784
v 0.2446466446 0.07550000191 0.4633644754
v 0.2425658226 0.07550000191 0.4621060259
v 0.2417807388 0.07550000191 0.4598044855
v 0.2426587296 0.07800000191 0.4575367433
v 0.24478899 0.07800000191 0.4563639337
v 0.2471747208 0.07800000191 0.4568348009
v 0.2486996269 0.07800000191 0.458729027
v 0.2486502075 0.07800000191 0.4611602861
v 0.2470495415 0.07800000191 0.4629909784
v 0.2446466446 0.07800000191 0.4633644754
v 0.2425658226 0.07800000191 0.4621060259
v 0.2417807388 0.07800000191 0.4598044855
v 0.2426587296 0.07550000191 0.4575367433
v 0.2417807388 0.07550000191 0.4598044855
v 0.2425658226 0.07550000191 0.4621060259
v 0.2446466446 0.07550000191 0.4633644754
v 0.2470495415 0.07550000191 0.4629909784
v 0.2486502075 0.07550000191 0.4611602861
v 0.2486996269 0.07550000191 0.458729027
v 0.2471747208 0.07550000191 0.4568348009
v 0.24478899 0.07550000191 0.4563639337
v 0.2426587296 0.07550000191 0.4575367433
v 0.2426587296 0.07800000191 0.4575367433
v 0.2444406509 0.07800000191 0.4644081384
v 0.2488121223 0.07800000191 0.4629169733
v 0.2488121223 0.08399999619 0.4629169733
v 0.2444406509 0.08399999619 0.4644081384
v 0.2434529495 0.08399999619 0.4590211755
v 0.2451677895 0.08399999619 0.4581723482
v 0.2469805717 0.08399999619 0.4587847025
v 0.2478293991 0.08399999619 0.4604995424
v 0.2472170448 0.08399999619 0.4623123247
v 0.245502224 0.08399999619 0.463161152
v 0.2436894226 0.08399999619 0.4625487978
v 0.2428405952 0.08399999619 0.4608339578
v 0.2444406509 0.08399999619 0.4644081384
v 0.2488121223 0.08399999619 0.4629169733
v 0.2497064781 0.08399999619 0.4583855898
v 0.2462293434 0.08399999619 0.4553453714
v 0.241857872 0.08399999619 0.4568365366
v 0.2409635353 0.08399999619 0.4613679201
v 0.2409635353 0.07800000191 0.4613679201
v 0.2444406509 0.07800000191 0.4644081384
v 0.2444406509 0.08399999619 0.4644081384
v 0.2409635353 0.08399999619 0.4613679201
v 0.2426587296 0.07800000191 0.4575367433
v 0.2417807388 0.07800000191 0.4598044855
v 0.2425658226 0.07800000191 0.4621060259
v 0.2446466446 0.07800000191 0.4633644754
v 0.2470495415 0.07800000191 0.4629909784
v 0.2486502075 0.07800000191 0.4611602861
v 0.2486996269 0.07800000191 0.458729027
v 0.2471747208 0.07800000191 0.4568348009
v 0.24478899 0.07800000191 0.4563639337
v 0.2488121223 0.07800000191 0.4629169733
v 0.2444406509 0.07800000191 0.4644081384
v 0.2409635353 0.07800000191 0.4613679201
v 0.241857872 0.07800000191 0.4568365366
v 0.2462293434 0.07800000191 0.4553453714
v 0.2497064781 0.07800000191 0.4583855898
v 0.241857872 0.07800000191 0.4568365366
v 0.2409635353 0.07800000191 0.4613679201
v 0.2409635353 0.08399999619 0.4613679201
v 0.241857872 0.08399999619 0.4568365366
v 0.2497064781 0.07800000191 0.4583855898
v 0.2462293434 0.07800000191 0.4553453714
v 0.2462293434 0.08399999619 0.4553453714
v 0.2497064781 0.08399999619 0.4583855898
v 0.2462293434 0.07800000191 0.4553453714
v 0.241857872 0.07800000191 0.4568365366
v 0.241857872 0.08399999619 0.4568365366
v 0.2462293434 0.08399999619 0.4553453714
v 0.2488121223 0.07800000191 0.4629169733
v 0.2497064781 0.07800000191 0.4583855898
v 0.2497064781 0.08399999619 0.4583855898
v 0.2488121223 0.08399999619 0.4629169733
f 2 16 1
f 1 16 18
f 17 9 8
f 8 9 10
f 8 10 11
f 2 3 16
f 16 3 15
f 15 3 4
f 15 4 14
f 14 4 5
f 14 5 13
f 13 5 6
f 13 6 12
f 12 6 7
f 12 7 11
f 11 7 8
f 20 35 19
f 19 35 27
f 19 27 26
f 26 27 28
f 26 28 29
f 35 20 34
f 34 20 21
f 34 21 33
f 33 21 22
f 33 22 32
f 32 22 23
f 32 23 31
f 31 23 24
f 31 24 30
f 30 24 25
f 30 25 29
f 29 25 26
f 37 53 36
f 36 53 54
f 55 45 44
f 44 45 46
f 44 46 43
f 43 46 47
f 43 47 42
f 42 47 48
f 42 48 41
f 41 48 49
f 41 49 40
f 40 49 50
f 40 50 39
f 39 50 51
f 39 51 38
f 38 51 52
f 38 52 37
f 37 52 53
f 56 57 59
f 59 57 58
f 67 60 72
f 72 60 61
f 72 61 71
f 71 61 62
f 71 62 70
f 70 62 63
f 70 63 69
f 69 63 64
f 69 64 65
f 69 65 68
f 68 65 66
f 68 66 73
f 73 66 67
f 73 67 72
f 74 75 77
f 77 75 76
f 86 78 90
f 90 78 79
f 90 79 89
f 89 79 80
f 89 80 88
f 88 80 81
f 88 81 82
f 88 82 87
f 87 82 83
f 87 83 92
f 92 83 84
f 92 84 85
f 92 85 91
f 91 85 86
f 91 86 90
f 93 94 96
f 96 94 95
f 97 98 100
f 100 98 99
f 101 102 104
f 104 102 103
f 105 106 108
f 108 106 107
