v -0.245 0.08475000381 0.02799999952
v -0.245 0.08393832207 0.02550191164
v -0.245 0.08181332588 0.02395801067
v -0.245 0.07918667793 0.02395801067
v -0.245 0.07706167698 0.02550191164
v -0.245 0.07625 0.02799999952
v -0.245 0.07706167698 0.03049808741
v -0.245 0.07918667793 0.03204199076
v -0.245 0.08181332588 0.03204199076
v -0.245 0.08393832207 0.03049808741
v -0.24 0.08475000381 0.02799999952
v -0.24 0.08393832207 0.02550191164
v -0.24 0.08181332588 0.02395801067
v -0.24 0.07918667793 0.02395801067
v -0.24 0.07706167698 0.02550191164
v -0.24 0.07625 0.02799999952
v -0.24 0.07706167698 0.03049808741
v -0.24 0.07918667793 0.03204199076
v -0.24 0.08181332588 0.03204199076
v -0.24 0.08393832207 0.03049808741
v -0.245 0.08475000381 0.02799999952
v -0.245 0.08393832207 0.03049808741
v -0.245 0.08181332588 0.03204199076
v -0.245 0.07918667793 0.03204199076
v -0.245 0.07706167698 0.03049808741
v -0.245 0.07625 0.02799999952
v -0.245 0.07706167698 0.02550191164
v -0.245 0.07918667793 0.02395801067
v -0.245 0.08181332588 0.02395801067
v -0.245 0.08393832207 0.02550191164
v -0.245 0.08475000381 0.02799999952
v -0.24 0.08475000381 0.02799999952
v -0.23 0.08300000191 0.02799999952
v -0.23 0.08226777077 0.02623223305
v -0.23 0.08050000191 0.02549999952
v -0.23 0.07873223305 0.02623223305
v -0.23 0.07800000191 0.02799999952
v -0.23 0.07873223305 0.029767766
v -0.23 0.08050000191 0.03049999952
v -0.23 0.08226777077 0.029767766
v -0.24 0.08300000191 0.02799999952
v -0.24 0.08226777077 0.029767766
v -0.24 0.08050000191 0.03049999952
v -0.24 0.07873223305 0.029767766
v -0.24 0.07800000191 0.02799999952
v -0.24 0.07873223305 0.02623223305
v -0.24 0.08050000191 0.02549999952
v -0.24 0.08226777077 0.02623223305
v -0.24 0.08300000191 0.02799999952
v -0.23 0.08300000191 0.02799999952
v -0.24 0.08475000381 0.02799999952
v -0.24 0.08393832207 0.03049808741
v -0.24 0.08181332588 0.03204199076
v -0.24 0.07918667793 0.03204199076
v -0.24 0.07706167698 0.03049808741
v -0.24 0.07625 0.02799999952
v -0.24 0.07706167698 0.02550191164
v -0.24 0.07918667793 0.02395801067
v -0.24 0.08181332588 0.02395801067
v -0.24 0.08393832207 0.02550191164
v -0.24 0.08300000191 0.02799999952
v -0.24 0.08226777077 0.02623223305
v -0.24 0.08050000191 0.02549999952
v -0.24 0.07873223305 0.02623223305
v -0.24 0.07800000191 0.02799999952
v -0.24 0.07873223305 0.029767766
v -0.24 0.08050000191 0.03049999952
v -0.24 0.08226777077 0.029767766
v -0.23 0.08300000191 0.02799999952
v -0.23 0.08226777077 0.029767766
v -0.23 0.08050000191 0.03049999952
v -0.23 0.07873223305 0.029767766
v -0.23 0.07800000191 0.02799999952
v -0.23 0.07873223305 0.02623223305
v -0.23 0.08050000191 0.02549999952
v -0.23 0.08226777077 0.02623223305
f 2 5 1
f 1 5 6
f 1 6 10
f 10 6 7
f 10 7 9
f 9 7 8
f 3 4 2
f 2 4 5
f 12 30 11
f 11 30 31
f 32 21 20
f 20 21 22
f 20 22 19
f 19 22 23
f 19 23 18
f 18 23 24
f 18 24 17
f 17 24 25
f 17 25 16
f 16 25 26
f 16 26 15
f 15 26 27
f 15 27 14
f 14 27 28
f 14 28 13
f 13 28 29
f 13 29 12
f 12 29 30
f 34 48 33
f 33 48 49
f 50 41 40
f 40 41 42
f 40 42 43
f 34 35 48
f 48 35 47
f 47 35 36
f 47 36 46
f 46 36 37
f 46 37 45
f 45 37 38
f 45 38 44
f 44 38 39
f 44 39 43
f 43 39 40
f 60 51 61
f 61 51 52
f 61 52 68
f 68 52 53
f 68 53 67
f 67 53 54
f 67 54 66
f 66 54 55
f 66 55 65
f 65 55 56
f 65 56 57
f 65 57 64
f 64 57 58
f 64 58 63
f 63 58 59
f 63 59 62
f 62 59 60
f 62 60 61
f 70 72 69
f 69 72 73
f 69 73 76
f 76 73 74
f 76 74 75
f 70 71 72
