v 0.2389999962 0.03549999952 0.02799999952
v 0.2389999962 0.036454916 0.0250610733
v 0.2389999962 0.038954916 0.02324471712
v 0.2389999962 0.04204508305 0.02324471712
v 0.2389999962 0.04454508305 0.0250610733
v 0.2389999962 0.04550000191 0.02799999952
v 0.2389999962 0.04454508305 0.03093892574
v 0.2389999962 0.04204508305 0.03275528193
v 0.2389999962 0.038954916 0.03275528193
v 0.2389999962 0.036454916 0.03093892574
v 0.24 0.03549999952 0.02799999952
v 0.24 0.036454916 0.03093892574
v 0.24 0.038954916 0.03275528193
v 0.24 0.04204508305 0.03275528193
v 0.24 0.04454508305 0.03093892574
v 0.24 0.04550000191 0.02799999952
v 0.24 0.04454508305 0.0250610733
v 0.24 0.04204508305 0.02324471712
v 0.24 0.038954916 0.02324471712
v 0.24 0.036454916 0.0250610733
v 0.24 0.03549999952 0.02799999952
v 0.2389999962 0.03549999952 0.02799999952
v 0.2389999962 0.03785000086 0.02799999952
v 0.2389999962 0.03862616777 0.02987383366
v 0.2389999962 0.04050000191 0.03065000057
v 0.2389999962 0.04237383366 0.02987383366
v 0.2389999962 0.04315000057 0.02799999952
v 0.2389999962 0.04237383366 0.02612616777
v 0.2389999962 0.04050000191 0.02535000086
v 0.2389999962 0.03862616777 0.02612616777
v 0.24 0.03785000086 0.02799999952
v 0.24 0.03862616777 0.02612616777
v 0.24 0.04050000191 0.02535000086
v 0.24 0.04237383366 0.02612616777
v 0.24 0.04315000057 0.02799999952
v 0.24 0.04237383366 0.02987383366
v 0.24 0.04050000191 0.03065000057
v 0.24 0.03862616777 0.02987383366
v 0.2389999962 0.03785000086 0.02799999952
v 0.24 0.03785000086 0.02799999952
v 0.2389999962 0.03785000086 0.02799999952
v 0.2389999962 0.03862616777 0.02612616777
v 0.2389999962 0.04050000191 0.02535000086
v 0.2389999962 0.04237383366 0.02612616777
v 0.2389999962 0.04315000057 0.02799999952
v 0.2389999962 0.04237383366 0.02987383366
v 0.2389999962 0.04050000191 0.03065000057
v 0.2389999962 0.03862616777 0.02987383366
v 0.2389999962 0.03549999952 0.02799999952
v 0.2389999962 0.036454916 0.03093892574
v 0.2389999962 0.038954916 0.03275528193
v 0.2389999962 0.04204508305 0.03275528193
v 0.2389999962 0.04454508305 0.03093892574
v 0.2389999962 0.04550000191 0.02799999952
v 0.2389999962 0.04454508305 0.0250610733
v 0.2389999962 0.04204508305 0.02324471712
v 0.2389999962 0.038954916 0.02324471712
v 0.2389999962 0.036454916 0.0250610733
v 0.24 0.03785000086 0.02799999952
v 0.24 0.03862616777 0.02987383366
v 0.24 0.04050000191 0.03065000057
v 0.24 0.04237383366 0.02987383366
v 0.24 0.04315000057 0.02799999952
v 0.24 0.04237383366 0.02612616777
v 0.24 0.04050000191 0.02535000086
v 0.24 0.03862616777 0.02612616777
v 0.24 0.03549999952 0.02799999952
v 0.24 0.036454916 0.0250610733
v 0.24 0.038954916 0.02324471712
v 0.24 0.04204508305 0.02324471712
v 0.24 0.04454508305 0.0250610733
v 0.24 0.04550000191 0.02799999952
v 0.24 0.04454508305 0.03093892574
v 0.24 0.04204508305 0.03275528193
v 0.24 0.038954916 0.03275528193
v 0.24 0.036454916 0.03093892574
f 2 20 1
f 1 20 21
f 22 11 10
f 10 11 12
f 10 12 9
f 9 12 13
f 9 13 8
f 8 13 14
f 8 14 7
f 7 14 15
f 7 15 6
f 6 15 16
f 6 16 5
f 5 16 17
f 5 17 4
f 4 17 18
f 4 18 3
f 3 18 19
f 3 19 2
f 2 19 20
f 24 38 23
f 23 38 40
f 39 31 30
f 30 31 32
f 30 32 29
f 29 32 33
f 29 33 28
f 28 33 34
f 28 34 27
f 27 34 35
f 27 35 26
f 26 35 36
f 26 36 25
f 25 36 37
f 25 37 24
f 24 37 38
f 42 58 41
f 41 58 49
f 41 49 50
f 58 42 57
f 57 42 43
f 57 43 56
f 56 43 44
f 56 44 55
f 55 44 45
f 55 45 54
f 54 45 53
f 53 45 46
f 53 46 52
f 52 46 47
f 52 47 51
f 51 47 48
f 51 48 50
f 50 48 41
f 60 76 59
f 59 76 67
f 59 67 68
f 76 60 75
f 75 60 61
f 75 61 74
f 74 61 62
f 74 62 73
f 73 62 63
f 73 63 72
f 72 63 71
f 71 63 64
f 71 64 70
f 70 64 65
f 70 65 69
f 69 65 66
f 69 66 68
f 68 66 59
