v 0.2202000046 0.195 0.03049999952
v 0.2202000046 0.1932322311 0.029767766
v 0.2202000046 0.1925 0.02799999952
v 0.2202000046 0.1932322311 0.02623223305
v 0.2202000046 0.195 0.02549999952
v 0.2202000046 0.1967677689 0.02623223305
v 0.2202000046 0.1975 0.02799999952
v 0.2202000046 0.1967677689 0.029767766
v 0.2168000031 0.195 0.03049999952
v 0.2168000031 0.1967677689 0.029767766
v 0.2168000031 0.1975 0.02799999952
v 0.2168000031 0.1967677689 0.02623223305
v 0.2168000031 0.195 0.02549999952
v 0.2168000031 0.1932322311 0.02623223305
v 0.2168000031 0.1925 0.02799999952
v 0.2168000031 0.1932322311 0.029767766
v 0.2202000046 0.195 0.03049999952
v 0.2168000031 0.195 0.03049999952
v 0.2202000046 0.2 0.03150000095
v 0.2202000046 0.2 0.02450000048
v 0.2168000031 0.2 0.02299999952
v 0.2168000031 0.2 0.03299999952
v 0.2168000031 0.2 0.02299999952
v 0.2202000046 0.2 0.02450000048
v 0.2202000046 0.19 0.02450000048
v 0.2168000031 0.19 0.02299999952
v 0.2202000046 0.195 0.03049999952
v 0.2202000046 0.1967677689 0.029767766
v 0.2202000046 0.1975 0.02799999952
v 0.2202000046 0.1967677689 0.02623223305
v 0.2202000046 0.195 0.02549999952
v 0.2202000046 0.1932322311 0.02623223305
v 0.2202000046 0.1925 0.02799999952
v 0.2202000046 0.1932322311 0.029767766
v 0.2202000046 0.2 0.02450000048
v 0.2202000046 0.2 0.03150000095
v 0.2202000046 0.19 0.03150000095
v 0.2202000046 0.19 0.02450000048
v 0.2168000031 0.195 0.03049999952
v 0.2168000031 0.1932322311 0.029767766
v 0.2168000031 0.1925 0.02799999952
v 0.2168000031 0.1932322311 0.02623223305
v 0.2168000031 0.195 0.02549999952
v 0.2168000031 0.1967677689 0.02623223305
v 0.2168000031 0.1975 0.02799999952
v 0.2168000031 0.1967677689 0.029767766
v 0.2168000031 0.2 0.03299999952
v 0.2168000031 0.2 0.02299999952
v 0.2168000031 0.19 0.02299999952
v 0.2168000031 0.19 0.03299999952
v 0.2202000046 0.19 0.02450000048
v 0.2202000046 0.19 0.03150000095
v 0.2168000031 0.19 0.03299999952
v 0.2168000031 0.19 0.02299999952
v 0.2202000046 0.2 0.03150000095
v 0.2168000031 0.2 0.03299999952
v 0.2168000031 0.19 0.03299999952
v 0.2202000046 0.19 0.03150000095
f 2 16 1
f 1 16 18
f 17 9 8
f 8 9 10
f 8 10 11
f 2 3 16
f 16 3 15
f 15 3 4
f 15 4 14
f 14 4 5
f 14 5 13
f 13 5 6
f 13 6 12
f 12 6 7
f 12 7 11
f 11 7 8
f 19 20 22
f 22 20 21
f 23 24 26
f 26 24 25
f 28 36 27
f 27 36 37
f 27 37 34
f 34 37 33
f 33 37 38
f 33 38 32
f 32 38 31
f 31 38 35
f 31 35 30
f 30 35 29
f 29 35 36
f 29 36 28
f 40 50 39
f 39 50 47
f 39 47 46
f 46 47 45
f 45 47 48
f 45 48 44
f 44 48 43
f 43 48 49
f 43 49 42
f 42 49 41
f 41 49 50
f 41 50 40
f 51 52 54
f 54 52 53
f 55 56 58
f 58 56 57
