v -0.01799999952 0.03849999905 0.4003767568
v -0.0190606606 0.03849999905 0.3999374086
v -0.01950000048 0.03849999905 0.3988767511
v -0.0190606606 0.03849999905 0.3978160936
v -0.01799999952 0.03849999905 0.3973767549
v -0.01693933964 0.03849999905 0.3978160936
v -0.01649999976 0.03849999905 0.3988767511
v -0.01693933964 0.03849999905 0.3999374086
v -0.01799999952 0.04449999809 0.4003767568
v -0.01670096159 0.04449999809 0.3996267492
v -0.01670096159 0.04449999809 0.398126753
v -0.01799999952 0.04449999809 0.3973767549
v -0.01929903865 0.04449999809 0.398126753
v -0.01929903865 0.04449999809 0.3996267492
v -0.01799999952 0.04449999809 0.4003767568
v -0.01799999952 0.03849999905 0.4003767568
v -0.01799999952 0.03849999905 0.4003767568
v -0.01693933964 0.03849999905 0.3999374086
v -0.01649999976 0.03849999905 0.3988767511
v -0.01693933964 0.03849999905 0.3978160936
v -0.01799999952 0.03849999905 0.3973767549
v -0.0190606606 0.03849999905 0.3978160936
v -0.01950000048 0.03849999905 0.3988767511
v -0.0190606606 0.03849999905 0.3999374086
v -0.01799999952 0.03849999905 0.3976267511
v -0.01711611629 0.03849999905 0.3979928667
v -0.01674999952 0.03849999905 0.3988767511
v -0.01711611629 0.03849999905 0.3997606355
v -0.01799999952 0.03849999905 0.4001267511
v -0.01888388395 0.03849999905 0.3997606355
v -0.01924999952 0.03849999905 0.3988767511
v -0.01888388395 0.03849999905 0.3979928667
f 8 16 9
f 15 1 2
f 15 2 14
f 14 2 3
f 14 3 13
f 13 3 4
f 13 4 12
f 12 4 5
f 12 5 6
f 12 6 11
f 11 6 7
f 11 7 10
f 10 7 8
f 10 8 9
f 24 17 29
f 29 17 18
f 29 18 28
f 28 18 19
f 28 19 27
f 27 19 26
f 26 19 20
f 26 20 25
f 25 20 21
f 25 21 22
f 23 31 22
f 22 31 32
f 22 32 25
f 31 23 30
f 30 23 24
f 30 24 29
