v -0.02298136582 -0.00488443315 0.4381603488
v -0.02203031055 -0.00488443315 0.4388513256
v -0.02239358375 -0.00488443315 0.4399693555
v -0.02356915424 -0.00488443315 0.4399693535
v -0.02393242351 -0.00488443315 0.4388513223
v -0.02298136933 -0.00288443327 0.4401603373
v -0.02203031164 -0.00288443327 0.4394693638
v -0.02239358091 -0.00288443327 0.4383513326
v -0.0235691514 -0.00288443327 0.4383513306
v -0.0239324246 -0.00288443327 0.4394693605
v -0.02239358091 -0.00288443327 0.4383513326
v -0.02298136582 -0.00488443315 0.4381603488
v -0.02298137021 -0.008884432912 0.4406603488
v -0.02168233096 -0.008884432912 0.4399103434
v -0.02168232832 -0.008884432912 0.4384103472
v -0.02298136494 -0.008884432912 0.4376603373
v -0.02428040419 -0.008884432912 0.4384103427
v -0.02428040682 -0.008884432912 0.4399103389
v -0.02298136494 -0.01308443308 0.4376603373
v -0.02168232832 -0.01308443308 0.4384103472
v -0.02168233096 -0.01308443308 0.4399103434
v -0.02298137021 -0.01308443308 0.4406603488
v -0.02428040682 -0.01308443308 0.4399103389
v -0.02428040419 -0.01308443308 0.4384103427
v -0.02298137021 -0.008884432912 0.4406603488
v -0.02298137021 -0.01308443308 0.4406603488
v -0.01573136734 -0.003384433091 0.4391603462
v -0.01670267707 -0.003384433091 0.4355353522
v -0.01935635584 -0.003384433091 0.4328816534
v -0.02298135485 -0.003384433091 0.4319103488
v -0.02660635608 -0.003384433091 0.4328816406
v -0.02926004535 -0.003384433091 0.4355353301
v -0.03023136662 -0.003384433091 0.4391603208
v -0.02926005808 -0.003384433091 0.4427853339
v -0.02660637812 -0.003384433091 0.4454390137
v -0.0229813803 -0.003384433091 0.4464103373
v -0.01935637788 -0.003384433091 0.4454390264
v -0.0167026898 -0.003384433091 0.442785356
v -0.01623136686 -0.00288443327 0.4391603454
v -0.01713570161 -0.00288443327 0.442535359
v -0.01960637688 -0.00288443327 0.4450060197
v -0.02298137942 -0.00288443327 0.445910345
v -0.0263563764 -0.00288443327 0.4450060078
v -0.0288270442 -0.00288443327 0.4425353385
v -0.0297313671 -0.00288443327 0.4391603217
v -0.02882703235 -0.00288443327 0.4357853271
v -0.02635635589 -0.00288443327 0.4333146664
v -0.02298135573 -0.00288443327 0.4324103411
v -0.01960635636 -0.00288443327 0.4333146783
v -0.01713568976 -0.00288443327 0.4357853476
v -0.02298137942 -0.00288443327 0.445910345
v -0.0229813803 -0.003384433091 0.4464103373
v -0.01573136734 -0.00488443315 0.4391603462
v -0.01670267707 -0.00488443315 0.4355353522
v -0.01935635584 -0.00488443315 0.4328816534
v -0.02298135485 -0.00488443315 0.4319103488
v -0.02660635608 -0.00488443315 0.4328816406
v -0.02926004535 -0.00488443315 0.4355353301
v -0.03023136662 -0.00488443315 0.4391603208
v -0.02926005808 -0.00488443315 0.4427853339
v -0.02660637812 -0.00488443315 0.4454390137
v -0.0229813803 -0.00488443315 0.4464103373
v -0.01935637788 -0.00488443315 0.4454390264
v -0.0167026898 -0.00488443315 0.442785356
v -0.01573136734 -0.003384433091 0.4391603462
v -0.0167026898 -0.003384433091 0.442785356
v -0.01935637788 -0.003384433091 0.4454390264
v -0.0229813803 -0.003384433091 0.4464103373
v -0.02660637812 -0.003384433091 0.4454390137
v -0.02926005808 -0.003384433091 0.4427853339
v -0.03023136662 -0.003384433091 0.4391603208
v -0.02926004535 -0.003384433091 0.4355353301
v -0.02660635608 -0.003384433091 0.4328816406
v -0.02298135485 -0.003384433091 0.4319103488
v -0.01935635584 -0.003384433091 0.4328816534
v -0.01670267707 -0.003384433091 0.4355353522
v -0.01573136734 -0.00488443315 0.4391603462
v -0.01573136734 -0.003384433091 0.4391603462
v -0.02298136933 -0.00288443327 0.4401603373
v -0.0239324246 -0.00288443327 0.4394693605
v -0.0235691514 -0.00288443327 0.4383513306
v -0.02239358091 -0.00288443327 0.4383513326
v -0.02203031164 -0.00288443327 0.4394693638
v -0.01623136686 -0.00288443327 0.4391603454
v -0.01713568976 -0.00288443327 0.4357853476
v -0.01960635636 -0.00288443327 0.4333146783
v -0.02298135573 -0.00288443327 0.4324103411
v -0.02635635589 -0.00288443327 0.4333146664
v -0.02882703235 -0.00288443327 0.4357853271
v -0.0297313671 -0.00288443327 0.4391603217
v -0.0288270442 -0.00288443327 0.4425353385
v -0.0263563764 -0.00288443327 0.4450060078
v -0.02298137942 -0.00288443327 0.445910345
v -0.01960637688 -0.00288443327 0.4450060197
v -0.01713570161 -0.00288443327 0.442535359
v -0.02043136643 -0.01258443356 0.439160338
v -0.02117824917 -0.01258443356 0.4409634678
v -0.02298137205 -0.01258443356 0.4417103442
v -0.02478449231 -0.01258443356 0.4409634615
v -0.02553136633 -0.01258443356 0.439160329
v -0.02478448598 -0.01258443356 0.4373572183
v -0.0229813631 -0.01258443356 0.4366103419
v -0.02117824284 -0.01258443356 0.4373572246
v -0.02093136595 -0.01308443308 0.4391603371
v -0.02170320991 -0.01308443308 0.4375575907
v -0.02343753272 -0.01308443308 0.4371617365
v -0.02482835183 -0.01308443308 0.4382708764
v -0.02482835495 -0.01308443308 0.4400498032
v -0.02343753973 -0.01308443308 0.441158948
v -0.02170321554 -0.01308443308 0.4407630999
v -0.02170320991 -0.01308443308 0.4375575907
v -0.0229813631 -0.01258443356 0.4366103419
v -0.02298136582 -0.00488443315 0.4381603488
v -0.02393242351 -0.00488443315 0.4388513223
v -0.02356915424 -0.00488443315 0.4399693535
v -0.02239358375 -0.00488443315 0.4399693555
v -0.02203031055 -0.00488443315 0.4388513256
v -0.02043136643 -0.00488443315 0.439160338
v -0.02117824917 -0.00488443315 0.4409634678
v -0.02298137205 -0.00488443315 0.4417103442
v -0.02478449231 -0.00488443315 0.4409634615
v -0.02553136633 -0.00488443315 0.439160329
v -0.02478448598 -0.00488443315 0.4373572183
v -0.0229813631 -0.00488443315 0.4366103419
v -0.02117824284 -0.00488443315 0.4373572246
v -0.02043136643 -0.008884432912 0.439160338
v -0.02117824917 -0.008884432912 0.4409634678
v -0.02298137205 -0.008884432912 0.4417103442
v -0.02478449231 -0.008884432912 0.4409634615
v -0.02553136633 -0.008884432912 0.439160329
v -0.02478448598 -0.008884432912 0.4373572183
v -0.0229813631 -0.008884432912 0.4366103419
v -0.02117824284 -0.008884432912 0.4373572246
v -0.02043136643 -0.01258443356 0.439160338
v -0.02117824284 -0.01258443356 0.4373572246
v -0.0229813631 -0.01258443356 0.4366103419
v -0.02478448598 -0.01258443356 0.4373572183
v -0.02553136633 -0.01258443356 0.439160329
v -0.02478449231 -0.01258443356 0.4409634615
v -0.02298137205 -0.01258443356 0.4417103442
v -0.02117824917 -0.01258443356 0.4409634678
v -0.02043136643 -0.01258443356 0.439160338
v -0.02043136643 -0.008884432912 0.439160338
v -0.02298137021 -0.008884432912 0.4406603488
v -0.02428040682 -0.008884432912 0.4399103389
v -0.02428040419 -0.008884432912 0.4384103427
v -0.02298136494 -0.008884432912 0.4376603373
v -0.02168232832 -0.008884432912 0.4384103472
v -0.02168233096 -0.008884432912 0.4399103434
v -0.02043136643 -0.008884432912 0.439160338
v -0.02117824284 -0.008884432912 0.4373572246
v -0.0229813631 -0.008884432912 0.4366103419
v -0.02478448598 -0.008884432912 0.4373572183
v -0.02553136633 -0.008884432912 0.439160329
v -0.02478449231 -0.008884432912 0.4409634615
v -0.02298137205 -0.008884432912 0.4417103442
v -0.02117824917 -0.008884432912 0.4409634678
v -0.02298136494 -0.01308443308 0.4376603373
v -0.02428040419 -0.01308443308 0.4384103427
v -0.02428040682 -0.01308443308 0.4399103389
v -0.02298137021 -0.01308443308 0.4406603488
v -0.02168233096 -0.01308443308 0.4399103434
v -0.02168232832 -0.01308443308 0.4384103472
v -0.02093136595 -0.01308443308 0.4391603371
v -0.02170321554 -0.01308443308 0.4407630999
v -0.02343753973 -0.01308443308 0.441158948
v -0.02482835495 -0.01308443308 0.4400498032
v -0.02482835183 -0.01308443308 0.4382708764
v -0.02343753272 -0.01308443308 0.4371617365
v -0.02170320991 -0.01308443308 0.4375575907
v -0.02043136643 -0.008884432912 0.439160338
v -0.02117824917 -0.008884432912 0.4409634678
v -0.02298137205 -0.008884432912 0.4417103442
v -0.02478449231 -0.008884432912 0.4409634615
v -0.02553136633 -0.008884432912 0.439160329
v -0.02478448598 -0.008884432912 0.4373572183
v -0.0229813631 -0.008884432912 0.4366103419
v -0.02117824284 -0.008884432912 0.4373572246
v -0.02043136643 -0.00488443315 0.439160338
v -0.02117824284 -0.00488443315 0.4373572246
v -0.0229813631 -0.00488443315 0.4366103419
v -0.02478448598 -0.00488443315 0.4373572183
v -0.02553136633 -0.00488443315 0.439160329
v -0.02478449231 -0.00488443315 0.4409634615
v -0.02298137205 -0.00488443315 0.4417103442
v -0.02117824917 -0.00488443315 0.4409634678
v -0.02043136643 -0.00488443315 0.439160338
v -0.02043136643 -0.008884432912 0.439160338
v -0.01803136753 -0.00538443327 0.4391603422
v -0.01897672785 -0.00538443327 0.4362508137
v -0.02145172531 -0.00538443327 0.4344526183
v -0.02451099331 -0.00538443327 0.4344526129
v -0.02698599589 -0.00538443327 0.4362507997
v -0.02793136643 -0.00538443327 0.4391603248
v -0.02698600611 -0.00538443327 0.4420698724
v -0.02451100984 -0.00538443327 0.4438680678
v -0.02145174184 -0.00538443327 0.4438680732
v -0.01897673806 -0.00538443327 0.4420698864
v -0.01753136681 -0.00488443315 0.4391603431
v -0.01839654055 -0.00488443315 0.4421068328
v -0.02071736298 -0.00488443315 0.4441178418
v -0.02375699321 -0.00488443315 0.4445548672
v -0.02655036503 -0.00488443315 0.4432791703
v -0.02821060735 -0.00488443315 0.4406957781
v -0.02821060196 -0.00488443315 0.4376248896
v -0.02655035058 -0.00488443315 0.4350415032
v -0.02375697428 -0.00488443315 0.4337658162
v -0.02071734558 -0.00488443315 0.4342028523
v -0.01839653021 -0.00488443315 0.4362138503
v -0.02375699321 -0.00488443315 0.4445548672
v -0.02451100984 -0.00538443327 0.4438680678
v -0.01573136734 -0.00488443315 0.4391603462
v -0.0167026898 -0.00488443315 0.442785356
v -0.01935637788 -0.00488443315 0.4454390264
v -0.0229813803 -0.00488443315 0.4464103373
v -0.02660637812 -0.00488443315 0.4454390137
v -0.02926005808 -0.00488443315 0.4427853339
v -0.03023136662 -0.00488443315 0.4391603208
v -0.02926004535 -0.00488443315 0.4355353301
v -0.02660635608 -0.00488443315 0.4328816406
v -0.02298135485 -0.00488443315 0.4319103488
v -0.01935635584 -0.00488443315 0.4328816534
v -0.01670267707 -0.00488443315 0.4355353522
v -0.01753136681 -0.00488443315 0.4391603431
v -0.01839653021 -0.00488443315 0.4362138503
v -0.02071734558 -0.00488443315 0.4342028523
v -0.02375697428 -0.00488443315 0.4337658162
v -0.02655035058 -0.00488443315 0.4350415032
v -0.02821060196 -0.00488443315 0.4376248896
v -0.02821060735 -0.00488443315 0.4406957781
v -0.02655036503 -0.00488443315 0.4432791703
v -0.02375699321 -0.00488443315 0.4445548672
v -0.02071736298 -0.00488443315 0.4441178418
v -0.01839654055 -0.00488443315 0.4421068328
v -0.02043136643 -0.008884432912 0.439160338
v -0.02117824284 -0.008884432912 0.4373572246
v -0.0229813631 -0.008884432912 0.4366103419
v -0.02478448598 -0.008884432912 0.4373572183
v -0.02553136633 -0.008884432912 0.439160329
v -0.02478449231 -0.008884432912 0.4409634615
v -0.02298137205 -0.008884432912 0.4417103442
v -0.02117824917 -0.008884432912 0.4409634678
v -0.01803136753 -0.008884432912 0.4391603422
v -0.01897673806 -0.008884432912 0.4420698864
v -0.02145174184 -0.008884432912 0.4438680732
v -0.02451100984 -0.008884432912 0.4438680678
v -0.02698600611 -0.008884432912 0.4420698724
v -0.02793136643 -0.008884432912 0.4391603248
v -0.02698599589 -0.008884432912 0.4362507997
v -0.02451099331 -0.008884432912 0.4344526129
v -0.02145172531 -0.008884432912 0.4344526183
v -0.01897672785 -0.008884432912 0.4362508137
v -0.01803136753 -0.008884432912 0.4391603422
v -0.01897672785 -0.008884432912 0.4362508137
v -0.02145172531 -0.008884432912 0.4344526183
v -0.02451099331 -0.008884432912 0.4344526129
v -0.02698599589 -0.008884432912 0.4362507997
v -0.02793136643 -0.008884432912 0.4391603248
v -0.02698600611 -0.008884432912 0.4420698724
v -0.02451100984 -0.008884432912 0.4438680678
v -0.02145174184 -0.008884432912 0.4438680732
v -0.01897673806 -0.008884432912 0.4420698864
v -0.01803136753 -0.00538443327 0.4391603422
v -0.01897673806 -0.00538443327 0.4420698864
v -0.02145174184 -0.00538443327 0.4438680732
v -0.02451100984 -0.00538443327 0.4438680678
v -0.02698600611 -0.00538443327 0.4420698724
v -0.02793136643 -0.00538443327 0.4391603248
v -0.02698599589 -0.00538443327 0.4362507997
v -0.02451099331 -0.00538443327 0.4344526129
v -0.02145172531 -0.00538443327 0.4344526183
v -0.01897672785 -0.00538443327 0.4362508137
v -0.01803136753 -0.008884432912 0.4391603422
v -0.01803136753 -0.00538443327 0.4391603422
f 2 11 1
f 12 8 9
f 12 9 5
f 5 9 10
f 5 10 4
f 4 10 6
f 4 6 3
f 3 6 7
f 3 7 2
f 2 7 11
f 14 21 13
f 13 21 26
f 25 22 18
f 18 22 23
f 18 23 17
f 17 23 24
f 17 24 16
f 16 24 19
f 16 19 15
f 15 19 20
f 15 20 14
f 14 20 21
f 28 50 27
f 27 50 39
f 27 39 38
f 38 39 40
f 38 40 37
f 37 40 41
f 37 41 36
f 36 41 51
f 52 42 35
f 35 42 43
f 35 43 34
f 34 43 44
f 34 44 33
f 33 44 45
f 33 45 32
f 32 45 46
f 32 46 31
f 31 46 47
f 31 47 30
f 30 47 48
f 30 48 29
f 29 48 49
f 29 49 28
f 28 49 50
f 54 76 53
f 53 76 78
f 77 65 64
f 64 65 66
f 64 66 63
f 63 66 67
f 63 67 62
f 62 67 68
f 62 68 61
f 61 68 69
f 61 69 60
f 60 69 70
f 60 70 59
f 59 70 71
f 59 71 58
f 58 71 72
f 58 72 57
f 57 72 73
f 57 73 56
f 56 73 74
f 56 74 55
f 55 74 75
f 55 75 54
f 54 75 76
f 80 92 79
f 79 92 93
f 79 93 94
f 81 89 80
f 80 89 90
f 80 90 91
f 82 87 81
f 81 87 88
f 81 88 89
f 83 85 82
f 82 85 86
f 82 86 87
f 79 94 83
f 83 94 95
f 83 95 84
f 84 85 83
f 91 92 80
f 103 96 104
f 104 96 97
f 104 97 110
f 110 97 98
f 110 98 109
f 109 98 99
f 109 99 108
f 108 99 100
f 108 100 107
f 107 100 101
f 107 101 106
f 106 101 112
f 106 112 105
f 111 102 103
f 111 103 104
f 114 123 113
f 113 123 124
f 113 124 125
f 123 114 122
f 122 114 115
f 122 115 121
f 121 115 120
f 120 115 116
f 120 116 119
f 119 116 118
f 118 116 117
f 118 117 125
f 125 117 113
f 127 141 126
f 126 141 142
f 143 134 133
f 133 134 135
f 133 135 136
f 127 128 141
f 141 128 140
f 140 128 129
f 140 129 139
f 139 129 130
f 139 130 138
f 138 130 131
f 138 131 137
f 137 131 132
f 137 132 136
f 136 132 133
f 145 155 144
f 144 155 156
f 144 156 157
f 155 145 154
f 154 145 146
f 154 146 153
f 153 146 147
f 153 147 152
f 152 147 151
f 151 147 148
f 151 148 150
f 150 148 149
f 150 149 157
f 157 149 144
f 159 169 158
f 158 169 170
f 158 170 163
f 163 170 164
f 163 164 162
f 162 164 165
f 162 165 161
f 161 165 166
f 161 166 160
f 160 166 167
f 160 167 168
f 169 159 168
f 168 159 160
f 172 186 171
f 171 186 187
f 188 179 178
f 178 179 180
f 178 180 181
f 172 173 186
f 186 173 185
f 185 173 174
f 185 174 184
f 184 174 175
f 184 175 183
f 183 175 176
f 183 176 182
f 182 176 177
f 182 177 181
f 181 177 178
f 190 209 189
f 189 209 199
f 189 199 200
f 209 190 208
f 208 190 191
f 208 191 207
f 207 191 192
f 207 192 206
f 206 192 193
f 206 193 205
f 205 193 194
f 205 194 204
f 204 194 195
f 204 195 203
f 203 195 211
f 203 211 202
f 210 196 197
f 210 197 201
f 201 197 198
f 201 198 200
f 200 198 189
f 223 212 224
f 224 212 213
f 224 213 234
f 234 213 214
f 234 214 233
f 233 214 215
f 233 215 232
f 232 215 216
f 232 216 231
f 231 216 217
f 231 217 230
f 230 217 218
f 230 218 229
f 229 218 219
f 229 219 228
f 228 219 220
f 228 220 227
f 227 220 221
f 227 221 226
f 226 221 222
f 226 222 225
f 225 222 223
f 225 223 224
f 236 252 235
f 235 252 243
f 235 243 244
f 252 236 251
f 251 236 237
f 251 237 250
f 250 237 238
f 250 238 249
f 249 238 239
f 249 239 248
f 248 239 247
f 247 239 240
f 247 240 246
f 246 240 241
f 246 241 245
f 245 241 242
f 245 242 244
f 244 242 235
f 254 272 253
f 253 272 274
f 273 263 262
f 262 263 264
f 262 264 261
f 261 264 265
f 261 265 260
f 260 265 266
f 260 266 259
f 259 266 267
f 259 267 258
f 258 267 268
f 258 268 257
f 257 268 269
f 257 269 256
f 256 269 270
f 256 270 255
f 255 270 271
f 255 271 254
f 254 271 272
