v 0.21 0.09136602402 0.6065000153
v 0.21 0.09223204613 0.605
v 0.2110000038 0.09223204613 0.605
v 0.2110000038 0.09136602402 0.6065000153
v 0.21 0.09223204613 0.605
v 0.21 0.09136602402 0.6034999847
v 0.2110000038 0.09136602402 0.6034999847
v 0.2110000038 0.09223204613 0.605
v 0.21 0.08963397026 0.6034999847
v 0.21 0.08876794815 0.605
v 0.2110000038 0.08876794815 0.605
v 0.2110000038 0.08963397026 0.6034999847
v 0.2110000038 0.09136602402 0.6065000153
v 0.2110000038 0.09223204613 0.605
v 0.2110000038 0.09136602402 0.6034999847
v 0.2110000038 0.08963397026 0.6034999847
v 0.2110000038 0.08876794815 0.605
v 0.2110000038 0.08963397026 0.6065000153
v 0.21 0.08876794815 0.605
v 0.21 0.08963397026 0.6065000153
v 0.2110000038 0.08963397026 0.6065000153
v 0.2110000038 0.08876794815 0.605
v 0.21 0.08963397026 0.6065000153
v 0.21 0.09136602402 0.6065000153
v 0.2110000038 0.09136602402 0.6065000153
v 0.2110000038 0.08963397026 0.6065000153
v 0.21 0.09136602402 0.6034999847
v 0.21 0.08963397026 0.6034999847
v 0.2110000038 0.08963397026 0.6034999847
v 0.2110000038 0.09136602402 0.6034999847
v 0.2195000076 0.08800000191 0.605
v 0.2195000076 0.08873223305 0.6032322311
v 0.2195000076 0.09050000191 0.6025
v 0.2195000076 0.09226777077 0.6032322311
v 0.2195000076 0.09300000191 0.605
v 0.2195000076 0.09226777077 0.6067677689
v 0.2195000076 0.09050000191 0.6075
v 0.2195000076 0.08873223305 0.6067677689
v 0.2195000076 0.08800000191 0.605
v 0.2195000076 0.08873223305 0.6067677689
v 0.2195000076 0.09050000191 0.6075
v 0.2195000076 0.09226777077 0.6067677689
v 0.2195000076 0.09300000191 0.605
v 0.2195000076 0.09226777077 0.6032322311
v 0.2195000076 0.09050000191 0.6025
v 0.2195000076 0.08873223305 0.6032322311
v 0.2114999962 0.08800000191 0.605
v 0.2114999962 0.08873223305 0.6032322311
v 0.2114999962 0.09050000191 0.6025
v 0.2114999962 0.09226777077 0.6032322311
v 0.2114999962 0.09300000191 0.605
v 0.2114999962 0.09226777077 0.6067677689
v 0.2114999962 0.09050000191 0.6075
v 0.2114999962 0.08873223305 0.6067677689
v 0.2114999962 0.08800000191 0.605
v 0.2195000076 0.08800000191 0.605
v 0.21 0.08600000381 0.605
v 0.21 0.0868594265 0.6023549652
v 0.21 0.08910942078 0.600720253
v 0.21 0.0918905735 0.600720253
v 0.21 0.09414057732 0.6023549652
v 0.21 0.095 0.605
v 0.21 0.09414057732 0.6076450348
v 0.21 0.0918905735 0.609279747
v 0.21 0.08910942078 0.609279747
v 0.21 0.0868594265 0.6076450348
v 0.2114999962 0.08600000381 0.605
v 0.2114999962 0.0868594265 0.6076450348
v 0.2114999962 0.08910942078 0.609279747
v 0.2114999962 0.0918905735 0.609279747
v 0.2114999962 0.09414057732 0.6076450348
v 0.2114999962 0.095 0.605
v 0.2114999962 0.09414057732 0.6023549652
v 0.2114999962 0.0918905735 0.600720253
v 0.2114999962 0.08910942078 0.600720253
v 0.2114999962 0.0868594265 0.6023549652
v 0.2114999962 0.08600000381 0.605
v 0.21 0.08600000381 0.605
v 0.2114999962 0.08600000381 0.605
v 0.2114999962 0.0868594265 0.6023549652
v 0.2114999962 0.08910942078 0.600720253
v 0.2114999962 0.0918905735 0.600720253
v 0.2114999962 0.09414057732 0.6023549652
v 0.2114999962 0.095 0.605
v 0.2114999962 0.09414057732 0.6076450348
v 0.2114999962 0.0918905735 0.609279747
v 0.2114999962 0.08910942078 0.609279747
v 0.2114999962 0.0868594265 0.6076450348
v 0.2114999962 0.08800000191 0.605
v 0.2114999962 0.08873223305 0.6067677689
v 0.2114999962 0.09050000191 0.6075
v 0.2114999962 0.09226777077 0.6067677689
v 0.2114999962 0.09300000191 0.605
v 0.2114999962 0.09226777077 0.6032322311
v 0.2114999962 0.09050000191 0.6025
v 0.2114999962 0.08873223305 0.6032322311
v 0.21 0.09136602402 0.6034999847
v 0.21 0.09223204613 0.605
v 0.21 0.09136602402 0.6065000153
v 0.21 0.08963397026 0.6065000153
v 0.21 0.08876794815 0.605
v 0.21 0.08963397026 0.6034999847
v 0.21 0.08600000381 0.605
v 0.21 0.0868594265 0.6076450348
v 0.21 0.08910942078 0.609279747
v 0.21 0.0918905735 0.609279747
v 0.21 0.09414057732 0.6076450348
v 0.21 0.095 0.605
v 0.21 0.09414057732 0.6023549652
v 0.21 0.0918905735 0.600720253
v 0.21 0.08910942078 0.600720253
v 0.21 0.0868594265 0.6023549652
f 1 2 4
f 4 2 3
f 5 6 8
f 8 6 7
f 9 10 12
f 12 10 11
f 18 13 17
f 17 13 14
f 17 14 16
f 16 14 15
f 19 20 22
f 22 20 21
f 23 24 26
f 26 24 25
f 27 28 30
f 30 28 29
f 32 34 31
f 31 34 35
f 31 35 38
f 38 35 36
f 38 36 37
f 32 33 34
f 40 54 39
f 39 54 55
f 56 47 46
f 46 47 48
f 46 48 49
f 40 41 54
f 54 41 53
f 53 41 42
f 53 42 52
f 52 42 43
f 52 43 51
f 51 43 44
f 51 44 50
f 50 44 45
f 50 45 49
f 49 45 46
f 58 76 57
f 57 76 77
f 78 67 66
f 66 67 68
f 66 68 65
f 65 68 69
f 65 69 64
f 64 69 70
f 64 70 63
f 63 70 71
f 63 71 62
f 62 71 72
f 62 72 61
f 61 72 73
f 61 73 60
f 60 73 74
f 60 74 59
f 59 74 75
f 59 75 58
f 58 75 76
f 88 79 89
f 89 79 80
f 89 80 96
f 96 80 81
f 96 81 95
f 95 81 82
f 95 82 94
f 94 82 83
f 94 83 93
f 93 83 84
f 93 84 85
f 93 85 92
f 92 85 86
f 92 86 91
f 91 86 87
f 91 87 90
f 90 87 88
f 90 88 89
f 98 109 97
f 97 109 110
f 97 110 111
f 99 107 98
f 98 107 108
f 98 108 109
f 107 99 106
f 106 99 100
f 106 100 105
f 105 100 104
f 104 100 101
f 104 101 103
f 103 101 112
f 112 101 102
f 112 102 111
f 111 102 97
