v -0.2430256081 0.06699999809 0.3798767549
v -0.2441802979 0.06699999809 0.381876753
v -0.2441802979 0.06949999809 0.381876753
v -0.2430256081 0.06949999809 0.3798767549
v -0.2464896965 0.06699999809 0.3778767568
v -0.2441802979 0.06699999809 0.3778767568
v -0.2441802979 0.06949999809 0.3778767568
v -0.2464896965 0.06949999809 0.3778767568
v -0.2430256081 0.06949999809 0.3798767549
v -0.2441802979 0.06949999809 0.381876753
v -0.2464896965 0.06949999809 0.381876753
v -0.2476444054 0.06949999809 0.3798767549
v -0.2464896965 0.06949999809 0.3778767568
v -0.2441802979 0.06949999809 0.3778767568
v -0.2441802979 0.06699999809 0.3778767568
v -0.2430256081 0.06699999809 0.3798767549
v -0.2430256081 0.06949999809 0.3798767549
v -0.2441802979 0.06949999809 0.3778767568
v -0.2476444054 0.06699999809 0.3798767549
v -0.2464896965 0.06699999809 0.3778767568
v -0.2464896965 0.06949999809 0.3778767568
v -0.2476444054 0.06949999809 0.3798767549
v -0.2441802979 0.06699999809 0.381876753
v -0.2464896965 0.06699999809 0.381876753
v -0.2464896965 0.06949999809 0.381876753
v -0.2441802979 0.06949999809 0.381876753
v -0.2464896965 0.06699999809 0.381876753
v -0.2476444054 0.06699999809 0.3798767549
v -0.2476444054 0.06949999809 0.3798767549
v -0.2464896965 0.06949999809 0.381876753
v -0.2478350067 0.1069999981 0.3798767549
v -0.2471027756 0.1069999981 0.3816445238
v -0.2453350067 0.1069999981 0.3823767549
v -0.2435672379 0.1069999981 0.3816445238
v -0.2428350067 0.1069999981 0.3798767549
v -0.2435672379 0.1069999981 0.3781089861
v -0.2453350067 0.1069999981 0.3773767549
v -0.2471027756 0.1069999981 0.3781089861
v -0.2478350067 0.1069999981 0.3798767549
v -0.2471027756 0.1069999981 0.3781089861
v -0.2453350067 0.1069999981 0.3773767549
v -0.2435672379 0.1069999981 0.3781089861
v -0.2428350067 0.1069999981 0.3798767549
v -0.2435672379 0.1069999981 0.3816445238
v -0.2453350067 0.1069999981 0.3823767549
v -0.2471027756 0.1069999981 0.3816445238
v -0.2478350067 0.07199999809 0.3798767549
v -0.2471027756 0.07199999809 0.3816445238
v -0.2453350067 0.07199999809 0.3823767549
v -0.2435672379 0.07199999809 0.3816445238
v -0.2428350067 0.07199999809 0.3798767549
v -0.2435672379 0.07199999809 0.3781089861
v -0.2453350067 0.07199999809 0.3773767549
v -0.2471027756 0.07199999809 0.3781089861
v -0.2478350067 0.07199999809 0.3798767549
v -0.2478350067 0.1069999981 0.3798767549
v -0.2495849991 0.07199999809 0.3798767549
v -0.2487733269 0.07199999809 0.382374838
v -0.2466483307 0.07199999809 0.3839187414
v -0.2440216827 0.07199999809 0.3839187414
v -0.2418966866 0.07199999809 0.382374838
v -0.2410849953 0.07199999809 0.3798767549
v -0.2418966866 0.07199999809 0.3773786623
v -0.2440216827 0.07199999809 0.3758347589
v -0.2466483307 0.07199999809 0.3758347589
v -0.2487733269 0.07199999809 0.3773786623
v -0.2478350067 0.07199999809 0.3798767549
v -0.2471027756 0.07199999809 0.3781089861
v -0.2453350067 0.07199999809 0.3773767549
v -0.2435672379 0.07199999809 0.3781089861
v -0.2428350067 0.07199999809 0.3798767549
v -0.2435672379 0.07199999809 0.3816445238
v -0.2453350067 0.07199999809 0.3823767549
v -0.2471027756 0.07199999809 0.3816445238
v -0.2495849991 0.07199999809 0.3798767549
v -0.2487733269 0.07199999809 0.3773786623
v -0.2466483307 0.07199999809 0.3758347589
v -0.2440216827 0.07199999809 0.3758347589
v -0.2418966866 0.07199999809 0.3773786623
v -0.2410849953 0.07199999809 0.3798767549
v -0.2418966866 0.07199999809 0.382374838
v -0.2440216827 0.07199999809 0.3839187414
v -0.2466483307 0.07199999809 0.3839187414
v -0.2487733269 0.07199999809 0.382374838
v -0.2495849991 0.06699999809 0.3798767549
v -0.2487733269 0.06699999809 0.382374838
v -0.2466483307 0.06699999809 0.3839187414
v -0.2440216827 0.06699999809 0.3839187414
v -0.2418966866 0.06699999809 0.382374838
v -0.2410849953 0.06699999809 0.3798767549
v -0.2418966866 0.06699999809 0.3773786623
v -0.2440216827 0.06699999809 0.3758347589
v -0.2466483307 0.06699999809 0.3758347589
v -0.2487733269 0.06699999809 0.3773786623
v -0.2495849991 0.06699999809 0.3798767549
v -0.2495849991 0.07199999809 0.3798767549
v -0.2464896965 0.06699999809 0.381876753
v -0.2441802979 0.06699999809 0.381876753
v -0.2430256081 0.06699999809 0.3798767549
v -0.2441802979 0.06699999809 0.3778767568
v -0.2464896965 0.06699999809 0.3778767568
v -0.2476444054 0.06699999809 0.3798767549
v -0.2495849991 0.06699999809 0.3798767549
v -0.2487733269 0.06699999809 0.3773786623
v -0.2466483307 0.06699999809 0.3758347589
v -0.2440216827 0.06699999809 0.3758347589
v -0.2418966866 0.06699999809 0.3773786623
v -0.2410849953 0.06699999809 0.3798767549
v -0.2418966866 0.06699999809 0.382374838
v -0.2440216827 0.06699999809 0.3839187414
v -0.2466483307 0.06699999809 0.3839187414
v -0.2487733269 0.06699999809 0.382374838
f 1 2 4
f 4 2 3
f 5 6 8
f 8 6 7
f 10 12 9
f 9 12 13
f 9 13 14
f 10 11 12
f 15 16 18
f 18 16 17
f 19 20 22
f 22 20 21
f 23 24 26
f 26 24 25
f 27 28 30
f 30 28 29
f 32 34 31
f 31 34 35
f 31 35 38
f 38 35 36
f 38 36 37
f 32 33 34
f 40 54 39
f 39 54 55
f 56 47 46
f 46 47 48
f 46 48 49
f 40 41 54
f 54 41 53
f 53 41 42
f 53 42 52
f 52 42 43
f 52 43 51
f 51 43 44
f 51 44 50
f 50 44 45
f 50 45 49
f 49 45 46
f 66 57 67
f 67 57 58
f 67 58 74
f 74 58 59
f 74 59 73
f 73 59 60
f 73 60 72
f 72 60 61
f 72 61 71
f 71 61 62
f 71 62 63
f 71 63 70
f 70 63 64
f 70 64 69
f 69 64 65
f 69 65 68
f 68 65 66
f 68 66 67
f 76 94 75
f 75 94 95
f 96 85 84
f 84 85 86
f 84 86 83
f 83 86 87
f 83 87 82
f 82 87 88
f 82 88 81
f 81 88 89
f 81 89 80
f 80 89 90
f 80 90 79
f 79 90 91
f 79 91 78
f 78 91 92
f 78 92 77
f 77 92 93
f 77 93 76
f 76 93 94
f 98 111 97
f 97 111 112
f 97 112 102
f 102 112 103
f 102 103 104
f 99 109 98
f 98 109 110
f 98 110 111
f 100 107 99
f 99 107 108
f 99 108 109
f 107 100 106
f 106 100 101
f 106 101 105
f 105 101 104
f 104 101 102
