v 0.2021649933 0.09100000381 0.3798767549
v 0.2028972244 0.09100000381 0.3816445238
v 0.2046649933 0.09100000381 0.3823767549
v 0.2064327621 0.09100000381 0.3816445238
v 0.2071649933 0.09100000381 0.3798767549
v 0.2064327621 0.09100000381 0.3781089861
v 0.2046649933 0.09100000381 0.3773767549
v 0.2028972244 0.09100000381 0.3781089861
v 0.2021649933 0.09 0.3798767549
v 0.2028972244 0.09 0.3781089861
v 0.2046649933 0.09 0.3773767549
v 0.2064327621 0.09 0.3781089861
v 0.2071649933 0.09 0.3798767549
v 0.2064327621 0.09 0.3816445238
v 0.2046649933 0.09 0.3823767549
v 0.2028972244 0.09 0.3816445238
v 0.2021649933 0.09100000381 0.3798767549
v 0.2021649933 0.09 0.3798767549
v 0.2021649933 0.09 0.3798767549
v 0.2028972244 0.09 0.3816445238
v 0.2046649933 0.09 0.3823767549
v 0.2064327621 0.09 0.3816445238
v 0.2071649933 0.09 0.3798767549
v 0.2064327621 0.09 0.3781089861
v 0.2046649933 0.09 0.3773767549
v 0.2028972244 0.09 0.3781089861
v 0.1996649933 0.09 0.3798767549
v 0.2006199074 0.09 0.3769378263
v 0.2031199074 0.09 0.3751214677
v 0.2062100792 0.09 0.3751214677
v 0.2087100792 0.09 0.3769378263
v 0.2096649933 0.09 0.3798767549
v 0.2087100792 0.09 0.382815674
v 0.2062100792 0.09 0.3846320326
v 0.2031199074 0.09 0.3846320326
v 0.2006199074 0.09 0.382815674
v 0.2021649933 0.09100000381 0.3798767549
v 0.2028972244 0.09100000381 0.3781089861
v 0.2046649933 0.09100000381 0.3773767549
v 0.2064327621 0.09100000381 0.3781089861
v 0.2071649933 0.09100000381 0.3798767549
v 0.2064327621 0.09100000381 0.3816445238
v 0.2046649933 0.09100000381 0.3823767549
v 0.2028972244 0.09100000381 0.3816445238
v 0.1996649933 0.09100000381 0.3798767549
v 0.2006199074 0.09100000381 0.382815674
v 0.2031199074 0.09100000381 0.3846320326
v 0.2062100792 0.09100000381 0.3846320326
v 0.2087100792 0.09100000381 0.382815674
v 0.2096649933 0.09100000381 0.3798767549
v 0.2087100792 0.09100000381 0.3769378263
v 0.2062100792 0.09100000381 0.3751214677
v 0.2031199074 0.09100000381 0.3751214677
v 0.2006199074 0.09100000381 0.3769378263
v 0.1996649933 0.09100000381 0.3798767549
v 0.2006199074 0.09100000381 0.3769378263
v 0.2031199074 0.09100000381 0.3751214677
v 0.2062100792 0.09100000381 0.3751214677
v 0.2087100792 0.09100000381 0.3769378263
v 0.2096649933 0.09100000381 0.3798767549
v 0.2087100792 0.09100000381 0.382815674
v 0.2062100792 0.09100000381 0.3846320326
v 0.2031199074 0.09100000381 0.3846320326
v 0.2006199074 0.09100000381 0.382815674
v 0.1996649933 0.09 0.3798767549
v 0.2006199074 0.09 0.382815674
v 0.2031199074 0.09 0.3846320326
v 0.2062100792 0.09 0.3846320326
v 0.2087100792 0.09 0.382815674
v 0.2096649933 0.09 0.3798767549
v 0.2087100792 0.09 0.3769378263
v 0.2062100792 0.09 0.3751214677
v 0.2031199074 0.09 0.3751214677
v 0.2006199074 0.09 0.3769378263
v 0.1996649933 0.09 0.3798767549
v 0.1996649933 0.09100000381 0.3798767549
f 2 16 1
f 1 16 18
f 17 9 8
f 8 9 10
f 8 10 11
f 2 3 16
f 16 3 15
f 15 3 4
f 15 4 14
f 14 4 5
f 14 5 13
f 13 5 6
f 13 6 12
f 12 6 7
f 12 7 11
f 11 7 8
f 20 36 19
f 19 36 27
f 19 27 28
f 36 20 35
f 35 20 21
f 35 21 34
f 34 21 22
f 34 22 33
f 33 22 23
f 33 23 32
f 32 23 31
f 31 23 24
f 31 24 30
f 30 24 25
f 30 25 29
f 29 25 26
f 29 26 28
f 28 26 19
f 38 54 37
f 37 54 45
f 37 45 46
f 54 38 53
f 53 38 39
f 53 39 52
f 52 39 40
f 52 40 51
f 51 40 41
f 51 41 50
f 50 41 49
f 49 41 42
f 49 42 48
f 48 42 43
f 48 43 47
f 47 43 44
f 47 44 46
f 46 44 37
f 56 74 55
f 55 74 75
f 76 65 64
f 64 65 66
f 64 66 63
f 63 66 67
f 63 67 62
f 62 67 68
f 62 68 61
f 61 68 69
f 61 69 60
f 60 69 70
f 60 70 59
f 59 70 71
f 59 71 58
f 58 71 72
f 58 72 57
f 57 72 73
f 57 73 56
f 56 73 74
