v 0.2214999962 -0.175 0.02319999933
v 0.22 -0.175 0.01980000019
v 0.23 -0.175 0.01980000019
v 0.2285000038 -0.175 0.02319999933
v 0.23 -0.165 0.01980000019
v 0.2285000038 -0.165 0.02319999933
v 0.2285000038 -0.175 0.02319999933
v 0.23 -0.175 0.01980000019
v 0.2214999962 -0.165 0.02319999933
v 0.22 -0.165 0.01980000019
v 0.22 -0.175 0.01980000019
v 0.2214999962 -0.175 0.02319999933
v 0.2225 -0.17 0.01980000019
v 0.2232322311 -0.1717677689 0.01980000019
v 0.225 -0.1725 0.01980000019
v 0.2267677689 -0.1717677689 0.01980000019
v 0.2275 -0.17 0.01980000019
v 0.2267677689 -0.1682322311 0.01980000019
v 0.225 -0.1675 0.01980000019
v 0.2232322311 -0.1682322311 0.01980000019
v 0.22 -0.165 0.01980000019
v 0.23 -0.165 0.01980000019
v 0.23 -0.175 0.01980000019
v 0.22 -0.175 0.01980000019
v 0.2225 -0.17 0.02319999933
v 0.2232322311 -0.1682322311 0.02319999933
v 0.225 -0.1675 0.02319999933
v 0.2267677689 -0.1682322311 0.02319999933
v 0.2275 -0.17 0.02319999933
v 0.2267677689 -0.1717677689 0.02319999933
v 0.225 -0.1725 0.02319999933
v 0.2232322311 -0.1717677689 0.02319999933
v 0.2285000038 -0.165 0.02319999933
v 0.2214999962 -0.165 0.02319999933
v 0.2214999962 -0.175 0.02319999933
v 0.2285000038 -0.175 0.02319999933
v 0.22 -0.165 0.01980000019
v 0.2214999962 -0.165 0.02319999933
v 0.2285000038 -0.165 0.02319999933
v 0.23 -0.165 0.01980000019
v 0.2225 -0.17 0.02319999933
v 0.2232322311 -0.1717677689 0.02319999933
v 0.225 -0.1725 0.02319999933
v 0.2267677689 -0.1717677689 0.02319999933
v 0.2275 -0.17 0.02319999933
v 0.2267677689 -0.1682322311 0.02319999933
v 0.225 -0.1675 0.02319999933
v 0.2232322311 -0.1682322311 0.02319999933
v 0.2225 -0.17 0.01980000019
v 0.2232322311 -0.1682322311 0.01980000019
v 0.225 -0.1675 0.01980000019
v 0.2267677689 -0.1682322311 0.01980000019
v 0.2275 -0.17 0.01980000019
v 0.2267677689 -0.1717677689 0.01980000019
v 0.225 -0.1725 0.01980000019
v 0.2232322311 -0.1717677689 0.01980000019
v 0.2225 -0.17 0.02319999933
v 0.2225 -0.17 0.01980000019
f 2 3 1
f 1 3 4
f 5 6 8
f 8 6 7
f 9 10 12
f 12 10 11
f 14 24 13
f 13 24 21
f 13 21 20
f 20 21 19
f 19 21 22
f 19 22 18
f 18 22 17
f 17 22 23
f 17 23 16
f 16 23 15
f 15 23 24
f 15 24 14
f 26 34 25
f 25 34 35
f 25 35 32
f 32 35 31
f 31 35 36
f 31 36 30
f 30 36 29
f 29 36 33
f 29 33 28
f 28 33 27
f 27 33 34
f 27 34 26
f 38 39 37
f 37 39 40
f 42 56 41
f 41 56 58
f 57 49 48
f 48 49 50
f 48 50 51
f 42 43 56
f 56 43 55
f 55 43 44
f 55 44 54
f 54 44 45
f 54 45 53
f 53 45 46
f 53 46 52
f 52 46 47
f 52 47 51
f 51 47 48
