v -0.2295800018 0.08050000191 0.03799999952
v -0.2295800018 0.08050000191 0.6379999924
v -0.2345000076 0.08050000191 0.6379999924
v -0.2345000076 0.08050000191 0.03799999952
v -0.2204199982 0.1005000019 0.03799999952
v -0.2204199982 0.1005000019 0.6379999924
v -0.2154999924 0.1005000019 0.6379999924
v -0.2154999924 0.1005000019 0.03799999952
v -0.221875 0.09869999886 0.03799999952
v -0.2195000076 0.09869999886 0.03799999952
v -0.2195000076 0.09869999886 0.6379999924
v -0.221875 0.09869999886 0.6379999924
v -0.2335449982 0.09362500191 0.03799999952
v -0.2331999969 0.09362500191 0.03799999952
v -0.2331999969 0.09362500191 0.6379999924
v -0.2335449982 0.09362500191 0.6379999924
v -0.2304999924 0.0839393425 0.03799999952
v -0.2278393364 0.08659999847 0.03799999952
v -0.2278393364 0.08659999847 0.6379999924
v -0.2304999924 0.0839393425 0.6379999924
v -0.215 0.08592000008 0.03799999952
v -0.2164550018 0.08737500191 0.03799999952
v -0.2164550018 0.08737500191 0.6379999924
v -0.215 0.08592000008 0.6379999924
v -0.2331999969 0.09362500191 0.03799999952
v -0.2331999969 0.09600000381 0.03799999952
v -0.2331999969 0.09600000381 0.6379999924
v -0.2331999969 0.09362500191 0.6379999924
v -0.228125 0.08229999542 0.03799999952
v -0.2304999924 0.08229999542 0.03799999952
v -0.2304999924 0.08229999542 0.6379999924
v -0.228125 0.08229999542 0.6379999924
v -0.2195000076 0.09706066132 0.03799999952
v -0.2221606636 0.0943999958 0.03799999952
v -0.2221606636 0.0943999958 0.6379999924
v -0.2195000076 0.09706066132 0.6379999924
v -0.2221606636 0.0943999958 0.03799999952
v -0.2247900009 0.0943999958 0.03799999952
v -0.2247900009 0.0943999958 0.6379999924
v -0.2221606636 0.0943999958 0.6379999924
v -0.2168000031 0.085 0.03799999952
v -0.2184393311 0.085 0.03799999952
v -0.2184393311 0.085 0.6379999924
v -0.2168000031 0.085 0.6379999924
v -0.2168000031 0.08737500191 0.03799999952
v -0.2168000031 0.085 0.03799999952
v -0.2168000031 0.085 0.6379999924
v -0.2168000031 0.08737500191 0.6379999924
v -0.2315606689 0.09600000381 0.03799999952
v -0.2288999939 0.0933393383 0.03799999952
v -0.2288999939 0.0933393383 0.6379999924
v -0.2315606689 0.09600000381 0.6379999924
v -0.2164550018 0.08737500191 0.03799999952
v -0.2168000031 0.08737500191 0.03799999952
v -0.2168000031 0.08737500191 0.6379999924
v -0.2164550018 0.08737500191 0.6379999924
v -0.2331999969 0.09600000381 0.03799999952
v -0.2315606689 0.09600000381 0.03799999952
v -0.2315606689 0.09600000381 0.6379999924
v -0.2331999969 0.09600000381 0.6379999924
v -0.2304999924 0.08229999542 0.03799999952
v -0.2304999924 0.0839393425 0.03799999952
v -0.2304999924 0.0839393425 0.6379999924
v -0.2304999924 0.08229999542 0.6379999924
v -0.2288999939 0.0933393383 0.03799999952
v -0.2288999939 0.09071000099 0.03799999952
v -0.2288999939 0.09071000099 0.6379999924
v -0.2288999939 0.0933393383 0.6379999924
v -0.2195000076 0.09869999886 0.03799999952
v -0.2195000076 0.09706066132 0.03799999952
v -0.2195000076 0.09706066132 0.6379999924
v -0.2195000076 0.09869999886 0.6379999924
v -0.2247900009 0.0943999958 0.03799999952
v -0.225 0.09418999672 0.03799999952
v -0.225 0.09418999672 0.6379999924
v -0.2247900009 0.0943999958 0.6379999924
v -0.235 0.09508000374 0.03799999952
v -0.2335449982 0.09362500191 0.03799999952
v -0.2335449982 0.09362500191 0.6379999924
v -0.235 0.09508000374 0.6379999924
v -0.2278393364 0.08659999847 0.03799999952
v -0.2252099991 0.08659999847 0.03799999952
v -0.2252099991 0.08659999847 0.6379999924
v -0.2278393364 0.08659999847 0.6379999924
v -0.228125 0.08195500374 0.03799999952
v -0.228125 0.08229999542 0.03799999952
v -0.228125 0.08229999542 0.6379999924
v -0.228125 0.08195500374 0.6379999924
v -0.2295800018 0.08050000191 0.03799999952
v -0.228125 0.08195500374 0.03799999952
v -0.228125 0.08195500374 0.6379999924
v -0.2295800018 0.08050000191 0.6379999924
v -0.2270999908 0.09050000191 0.6379999924
v -0.2263093376 0.0888581562 0.6379999924
v -0.2245326996 0.08845265388 0.6379999924
v -0.2231079674 0.08958884239 0.6379999924
v -0.2231079674 0.09141115189 0.6379999924
v -0.2245326996 0.09254734993 0.6379999924
v -0.2263093376 0.09214184761 0.6379999924
v -0.2270999908 0.09050000191 0.03799999952
v -0.2263093376 0.09214184761 0.03799999952
v -0.2245326996 0.09254734993 0.03799999952
v -0.2231079674 0.09141115189 0.03799999952
v -0.2231079674 0.08958884239 0.03799999952
v -0.2245326996 0.08845265388 0.03799999952
v -0.2263093376 0.0888581562 0.03799999952
v -0.2270999908 0.09050000191 0.6379999924
v -0.2270999908 0.09050000191 0.03799999952
v -0.2204199982 0.1005000019 0.03799999952
v -0.221875 0.09904500008 0.03799999952
v -0.221875 0.09904500008 0.6379999924
v -0.2204199982 0.1005000019 0.6379999924
v -0.221875 0.09904500008 0.03799999952
v -0.221875 0.09869999886 0.03799999952
v -0.221875 0.09869999886 0.6379999924
v -0.221875 0.09904500008 0.6379999924
v -0.235 0.08592000008 0.6379999924
v -0.235 0.08592000008 0.03799999952
v -0.235 0.08100000381 0.03799999952
v -0.235 0.08100000381 0.6379999924
v -0.2270999908 0.09050000191 0.03799999952
v -0.2263093376 0.0888581562 0.03799999952
v -0.2245326996 0.08845265388 0.03799999952
v -0.2231079674 0.08958884239 0.03799999952
v -0.2231079674 0.09141115189 0.03799999952
v -0.2245326996 0.09254734993 0.03799999952
v -0.2263093376 0.09214184761 0.03799999952
v -0.2295800018 0.1005000019 0.03799999952
v -0.228125 0.09904500008 0.03799999952
v -0.228125 0.09869999886 0.03799999952
v -0.2304999924 0.09869999886 0.03799999952
v -0.2304999924 0.09706066132 0.03799999952
v -0.2278393364 0.0943999958 0.03799999952
v -0.2252099991 0.0943999958 0.03799999952
v -0.225 0.09418999672 0.03799999952
v -0.2247900009 0.0943999958 0.03799999952
v -0.2221606636 0.0943999958 0.03799999952
v -0.2195000076 0.09706066132 0.03799999952
v -0.2195000076 0.09869999886 0.03799999952
v -0.221875 0.09869999886 0.03799999952
v -0.221875 0.09904500008 0.03799999952
v -0.2204199982 0.1005000019 0.03799999952
v -0.2154999924 0.1005000019 0.03799999952
v -0.2152499962 0.1004330158 0.03799999952
v -0.2150669861 0.1002499962 0.03799999952
v -0.215 0.1 0.03799999952
v -0.215 0.09508000374 0.03799999952
v -0.2164550018 0.09362500191 0.03799999952
v -0.2168000031 0.09362500191 0.03799999952
v -0.2168000031 0.09600000381 0.03799999952
v -0.2184393311 0.09600000381 0.03799999952
v -0.2211000061 0.0933393383 0.03799999952
v -0.2211000061 0.09071000099 0.03799999952
v -0.2213100052 0.09050000191 0.03799999952
v -0.2211000061 0.09029000282 0.03799999952
v -0.2211000061 0.08766065598 0.03799999952
v -0.2184393311 0.085 0.03799999952
v -0.2168000031 0.085 0.03799999952
v -0.2168000031 0.08737500191 0.03799999952
v -0.2164550018 0.08737500191 0.03799999952
v -0.215 0.08592000008 0.03799999952
v -0.215 0.08100000381 0.03799999952
v -0.2150669861 0.08074999809 0.03799999952
v -0.2152499962 0.08056698799 0.03799999952
v -0.2154999924 0.08050000191 0.03799999952
v -0.2204199982 0.08050000191 0.03799999952
v -0.221875 0.08195500374 0.03799999952
v -0.221875 0.08229999542 0.03799999952
v -0.2195000076 0.08229999542 0.03799999952
v -0.2195000076 0.0839393425 0.03799999952
v -0.2221606636 0.08659999847 0.03799999952
v -0.2247900009 0.08659999847 0.03799999952
v -0.225 0.08680999756 0.03799999952
v -0.2252099991 0.08659999847 0.03799999952
v -0.2278393364 0.08659999847 0.03799999952
v -0.2304999924 0.0839393425 0.03799999952
v -0.2304999924 0.08229999542 0.03799999952
v -0.228125 0.08229999542 0.03799999952
v -0.228125 0.08195500374 0.03799999952
v -0.2295800018 0.08050000191 0.03799999952
v -0.2345000076 0.08050000191 0.03799999952
v -0.2347500038 0.08056698799 0.03799999952
v -0.2349330139 0.08074999809 0.03799999952
v -0.235 0.08100000381 0.03799999952
v -0.235 0.08592000008 0.03799999952
v -0.2335449982 0.08737500191 0.03799999952
v -0.2331999969 0.08737500191 0.03799999952
v -0.2331999969 0.085 0.03799999952
v -0.2315606689 0.085 0.03799999952
v -0.2288999939 0.08766065598 0.03799999952
v -0.2288999939 0.09029000282 0.03799999952
v -0.2286899948 0.09050000191 0.03799999952
v -0.2288999939 0.09071000099 0.03799999952
v -0.2288999939 0.0933393383 0.03799999952
v -0.2315606689 0.09600000381 0.03799999952
v -0.2331999969 0.09600000381 0.03799999952
v -0.2331999969 0.09362500191 0.03799999952
v -0.2335449982 0.09362500191 0.03799999952
v -0.235 0.09508000374 0.03799999952
v -0.235 0.1 0.03799999952
v -0.2349330139 0.1002499962 0.03799999952
v -0.2347500038 0.1004330158 0.03799999952
v -0.2345000076 0.1005000019 0.03799999952
v -0.215 0.08592000008 0.03799999952
v -0.215 0.08592000008 0.6379999924
v -0.215 0.08100000381 0.6379999924
v -0.215 0.08100000381 0.03799999952
v -0.2304999924 0.09869999886 0.03799999952
v -0.228125 0.09869999886 0.03799999952
v -0.228125 0.09869999886 0.6379999924
v -0.2304999924 0.09869999886 0.6379999924
v -0.2331999969 0.085 0.03799999952
v -0.2331999969 0.08737500191 0.03799999952
v -0.2331999969 0.08737500191 0.6379999924
v -0.2331999969 0.085 0.6379999924
v -0.2315606689 0.085 0.03799999952
v -0.2331999969 0.085 0.03799999952
v -0.2331999969 0.085 0.6379999924
v -0.2315606689 0.085 0.6379999924
v -0.2288999939 0.08766065598 0.03799999952
v -0.2315606689 0.085 0.03799999952
v -0.2315606689 0.085 0.6379999924
v -0.2288999939 0.08766065598 0.6379999924
v -0.2211000061 0.09071000099 0.03799999952
v -0.2211000061 0.0933393383 0.03799999952
v -0.2211000061 0.0933393383 0.6379999924
v -0.2211000061 0.09071000099 0.6379999924
v -0.2304999924 0.09706066132 0.03799999952
v -0.2304999924 0.09869999886 0.03799999952
v -0.2304999924 0.09869999886 0.6379999924
v -0.2304999924 0.09706066132 0.6379999924
v -0.2213100052 0.09050000191 0.03799999952
v -0.2211000061 0.09071000099 0.03799999952
v -0.2211000061 0.09071000099 0.6379999924
v -0.2213100052 0.09050000191 0.6379999924
v -0.2168000031 0.09600000381 0.03799999952
v -0.2168000031 0.09362500191 0.03799999952
v -0.2168000031 0.09362500191 0.6379999924
v -0.2168000031 0.09600000381 0.6379999924
v -0.2184393311 0.09600000381 0.03799999952
v -0.2168000031 0.09600000381 0.03799999952
v -0.2168000031 0.09600000381 0.6379999924
v -0.2184393311 0.09600000381 0.6379999924
v -0.2195000076 0.0839393425 0.03799999952
v -0.2195000076 0.08229999542 0.03799999952
v -0.2195000076 0.08229999542 0.6379999924
v -0.2195000076 0.0839393425 0.6379999924
v -0.2331999969 0.08737500191 0.03799999952
v -0.2335449982 0.08737500191 0.03799999952
v -0.2335449982 0.08737500191 0.6379999924
v -0.2331999969 0.08737500191 0.6379999924
v -0.2221606636 0.08659999847 0.03799999952
v -0.2195000076 0.0839393425 0.03799999952
v -0.2195000076 0.0839393425 0.6379999924
v -0.2221606636 0.08659999847 0.6379999924
v -0.2211000061 0.0933393383 0.03799999952
v -0.2184393311 0.09600000381 0.03799999952
v -0.2184393311 0.09600000381 0.6379999924
v -0.2211000061 0.0933393383 0.6379999924
v -0.2168000031 0.09362500191 0.03799999952
v -0.2164550018 0.09362500191 0.03799999952
v -0.2164550018 0.09362500191 0.6379999924
v -0.2168000031 0.09362500191 0.6379999924
v -0.2195000076 0.08229999542 0.03799999952
v -0.221875 0.08229999542 0.03799999952
v -0.221875 0.08229999542 0.6379999924
v -0.2195000076 0.08229999542 0.6379999924
v -0.2295800018 0.1005000019 0.6379999924
v -0.2295800018 0.1005000019 0.03799999952
v -0.2345000076 0.1005000019 0.03799999952
v -0.2345000076 0.1005000019 0.6379999924
v -0.2204199982 0.08050000191 0.6379999924
v -0.2204199982 0.08050000191 0.03799999952
v -0.2154999924 0.08050000191 0.03799999952
v -0.2154999924 0.08050000191 0.6379999924
v -0.235 0.1 0.6379999924
v -0.2349330139 0.1002499962 0.6379999924
v -0.2347500038 0.1004330158 0.6379999924
v -0.2345000076 0.1005000019 0.6379999924
v -0.2345000076 0.1005000019 0.03799999952
v -0.2347500038 0.1004330158 0.03799999952
v -0.2349330139 0.1002499962 0.03799999952
v -0.235 0.1 0.03799999952
v -0.2288999939 0.09071000099 0.03799999952
v -0.2286899948 0.09050000191 0.03799999952
v -0.2286899948 0.09050000191 0.6379999924
v -0.2288999939 0.09071000099 0.6379999924
v -0.2164550018 0.09362500191 0.03799999952
v -0.215 0.09508000374 0.03799999952
v -0.215 0.09508000374 0.6379999924
v -0.2164550018 0.09362500191 0.6379999924
v -0.2211000061 0.09029000282 0.03799999952
v -0.2213100052 0.09050000191 0.03799999952
v -0.2213100052 0.09050000191 0.6379999924
v -0.2211000061 0.09029000282 0.6379999924
v -0.2278393364 0.0943999958 0.03799999952
v -0.2304999924 0.09706066132 0.03799999952
v -0.2304999924 0.09706066132 0.6379999924
v -0.2278393364 0.0943999958 0.6379999924
v -0.228125 0.09869999886 0.03799999952
v -0.228125 0.09904500008 0.03799999952
v -0.228125 0.09904500008 0.6379999924
v -0.228125 0.09869999886 0.6379999924
v -0.225 0.08680999756 0.03799999952
v -0.2247900009 0.08659999847 0.03799999952
v -0.2247900009 0.08659999847 0.6379999924
v -0.225 0.08680999756 0.6379999924
v -0.2252099991 0.08659999847 0.03799999952
v -0.225 0.08680999756 0.03799999952
v -0.225 0.08680999756 0.6379999924
v -0.2252099991 0.08659999847 0.6379999924
v -0.2335449982 0.08737500191 0.03799999952
v -0.235 0.08592000008 0.03799999952
v -0.235 0.08592000008 0.6379999924
v -0.2335449982 0.08737500191 0.6379999924
v -0.225 0.09418999672 0.03799999952
v -0.2252099991 0.0943999958 0.03799999952
v -0.2252099991 0.0943999958 0.6379999924
v -0.225 0.09418999672 0.6379999924
v -0.221875 0.08229999542 0.03799999952
v -0.221875 0.08195500374 0.03799999952
v -0.221875 0.08195500374 0.6379999924
v -0.221875 0.08229999542 0.6379999924
v -0.2286899948 0.09050000191 0.03799999952
v -0.2288999939 0.09029000282 0.03799999952
v -0.2288999939 0.09029000282 0.6379999924
v -0.2286899948 0.09050000191 0.6379999924
v -0.2247900009 0.08659999847 0.03799999952
v -0.2221606636 0.08659999847 0.03799999952
v -0.2221606636 0.08659999847 0.6379999924
v -0.2247900009 0.08659999847 0.6379999924
v -0.2252099991 0.0943999958 0.03799999952
v -0.2278393364 0.0943999958 0.03799999952
v -0.2278393364 0.0943999958 0.6379999924
v -0.2252099991 0.0943999958 0.6379999924
v -0.228125 0.09904500008 0.03799999952
v -0.2295800018 0.1005000019 0.03799999952
v -0.2295800018 0.1005000019 0.6379999924
v -0.228125 0.09904500008 0.6379999924
v -0.221875 0.08195500374 0.03799999952
v -0.2204199982 0.08050000191 0.03799999952
v -0.2204199982 0.08050000191 0.6379999924
v -0.221875 0.08195500374 0.6379999924
v -0.2184393311 0.085 0.03799999952
v -0.2211000061 0.08766065598 0.03799999952
v -0.2211000061 0.08766065598 0.6379999924
v -0.2184393311 0.085 0.6379999924
v -0.2288999939 0.09029000282 0.03799999952
v -0.2288999939 0.08766065598 0.03799999952
v -0.2288999939 0.08766065598 0.6379999924
v -0.2288999939 0.09029000282 0.6379999924
v -0.2211000061 0.08766065598 0.03799999952
v -0.2211000061 0.09029000282 0.03799999952
v -0.2211000061 0.09029000282 0.6379999924
v -0.2211000061 0.08766065598 0.6379999924
v -0.2154999924 0.1005000019 0.6379999924
v -0.2152499962 0.1004330158 0.6379999924
v -0.2150669861 0.1002499962 0.6379999924
v -0.215 0.1 0.6379999924
v -0.215 0.1 0.03799999952
v -0.2150669861 0.1002499962 0.03799999952
v -0.2152499962 0.1004330158 0.03799999952
v -0.2154999924 0.1005000019 0.03799999952
v -0.215 0.09508000374 0.6379999924
v -0.215 0.09508000374 0.03799999952
v -0.215 0.1 0.03799999952
v -0.215 0.1 0.6379999924
v -0.228125 0.09904500008 0.6379999924
v -0.2295800018 0.1005000019 0.6379999924
v -0.2345000076 0.1005000019 0.6379999924
v -0.2347500038 0.1004330158 0.6379999924
v -0.2349330139 0.1002499962 0.6379999924
v -0.235 0.1 0.6379999924
v -0.235 0.09508000374 0.6379999924
v -0.2335449982 0.09362500191 0.6379999924
v -0.2331999969 0.09362500191 0.6379999924
v -0.2331999969 0.09600000381 0.6379999924
v -0.2315606689 0.09600000381 0.6379999924
v -0.2288999939 0.0933393383 0.6379999924
v -0.2288999939 0.09071000099 0.6379999924
v -0.2286899948 0.09050000191 0.6379999924
v -0.2288999939 0.09029000282 0.6379999924
v -0.2288999939 0.08766065598 0.6379999924
v -0.2315606689 0.085 0.6379999924
v -0.2331999969 0.085 0.6379999924
v -0.2331999969 0.08737500191 0.6379999924
v -0.2335449982 0.08737500191 0.6379999924
v -0.235 0.08592000008 0.6379999924
v -0.235 0.08100000381 0.6379999924
v -0.2349330139 0.08074999809 0.6379999924
v -0.2347500038 0.08056698799 0.6379999924
v -0.2345000076 0.08050000191 0.6379999924
v -0.2295800018 0.08050000191 0.6379999924
v -0.228125 0.08195500374 0.6379999924
v -0.228125 0.08229999542 0.6379999924
v -0.2304999924 0.08229999542 0.6379999924
v -0.2304999924 0.0839393425 0.6379999924
v -0.2278393364 0.08659999847 0.6379999924
v -0.2252099991 0.08659999847 0.6379999924
v -0.225 0.08680999756 0.6379999924
v -0.2247900009 0.08659999847 0.6379999924
v -0.2221606636 0.08659999847 0.6379999924
v -0.2195000076 0.0839393425 0.6379999924
v -0.2195000076 0.08229999542 0.6379999924
v -0.221875 0.08229999542 0.6379999924
v -0.221875 0.08195500374 0.6379999924
v -0.2204199982 0.08050000191 0.6379999924
v -0.2154999924 0.08050000191 0.6379999924
v -0.2152499962 0.08056698799 0.6379999924
v -0.2150669861 0.08074999809 0.6379999924
v -0.215 0.08100000381 0.6379999924
v -0.215 0.08592000008 0.6379999924
v -0.2164550018 0.08737500191 0.6379999924
v -0.2168000031 0.08737500191 0.6379999924
v -0.2168000031 0.085 0.6379999924
v -0.2184393311 0.085 0.6379999924
v -0.2211000061 0.08766065598 0.6379999924
v -0.2211000061 0.09029000282 0.6379999924
v -0.2213100052 0.09050000191 0.6379999924
v -0.2211000061 0.09071000099 0.6379999924
v -0.2211000061 0.0933393383 0.6379999924
v -0.2184393311 0.09600000381 0.6379999924
v -0.2168000031 0.09600000381 0.6379999924
v -0.2168000031 0.09362500191 0.6379999924
v -0.2164550018 0.09362500191 0.6379999924
v -0.215 0.09508000374 0.6379999924
v -0.215 0.1 0.6379999924
v -0.2150669861 0.1002499962 0.6379999924
v -0.2152499962 0.1004330158 0.6379999924
v -0.2154999924 0.1005000019 0.6379999924
v -0.2204199982 0.1005000019 0.6379999924
v -0.221875 0.09904500008 0.6379999924
v -0.221875 0.09869999886 0.6379999924
v -0.2195000076 0.09869999886 0.6379999924
v -0.2195000076 0.09706066132 0.6379999924
v -0.2221606636 0.0943999958 0.6379999924
v -0.2247900009 0.0943999958 0.6379999924
v -0.225 0.09418999672 0.6379999924
v -0.2252099991 0.0943999958 0.6379999924
v -0.2278393364 0.0943999958 0.6379999924
v -0.2304999924 0.09706066132 0.6379999924
v -0.2304999924 0.09869999886 0.6379999924
v -0.228125 0.09869999886 0.6379999924
v -0.2270999908 0.09050000191 0.6379999924
v -0.2263093376 0.09214184761 0.6379999924
v -0.2245326996 0.09254734993 0.6379999924
v -0.2231079674 0.09141115189 0.6379999924
v -0.2231079674 0.08958884239 0.6379999924
v -0.2245326996 0.08845265388 0.6379999924
v -0.2263093376 0.0888581562 0.6379999924
v -0.2345000076 0.08050000191 0.6379999924
v -0.2347500038 0.08056698799 0.6379999924
v -0.2349330139 0.08074999809 0.6379999924
v -0.235 0.08100000381 0.6379999924
v -0.235 0.08100000381 0.03799999952
v -0.2349330139 0.08074999809 0.03799999952
v -0.2347500038 0.08056698799 0.03799999952
v -0.2345000076 0.08050000191 0.03799999952
v -0.215 0.08100000381 0.6379999924
v -0.2150669861 0.08074999809 0.6379999924
v -0.2152499962 0.08056698799 0.6379999924
v -0.2154999924 0.08050000191 0.6379999924
v -0.2154999924 0.08050000191 0.03799999952
v -0.2152499962 0.08056698799 0.03799999952
v -0.2150669861 0.08074999809 0.03799999952
v -0.215 0.08100000381 0.03799999952
v -0.235 0.09508000374 0.03799999952
v -0.235 0.09508000374 0.6379999924
v -0.235 0.1 0.6379999924
v -0.235 0.1 0.03799999952
f 2 3 1
f 1 3 4
f 6 7 5
f 5 7 8
f 9 10 12
f 12 10 11
f 13 14 16
f 16 14 15
f 17 18 20
f 20 18 19
f 21 22 24
f 24 22 23
f 25 26 28
f 28 26 27
f 29 30 32
f 32 30 31
f 33 34 36
f 36 34 35
f 37 38 40
f 40 38 39
f 41 42 44
f 44 42 43
f 45 46 48
f 48 46 47
f 49 50 52
f 52 50 51
f 53 54 56
f 56 54 55
f 57 58 60
f 60 58 59
f 61 62 64
f 64 62 63
f 65 66 68
f 68 66 67
f 69 70 72
f 72 70 71
f 73 74 76
f 76 74 75
f 77 78 80
f 80 78 79
f 81 82 84
f 84 82 83
f 85 86 88
f 88 86 87
f 89 90 92
f 92 90 91
f 94 106 93
f 93 106 108
f 107 100 99
f 99 100 101
f 99 101 98
f 98 101 102
f 98 102 97
f 97 102 103
f 97 103 96
f 96 103 104
f 96 104 95
f 95 104 105
f 95 105 94
f 94 105 106
f 109 110 112
f 112 110 111
f 113 114 116
f 116 114 115
f 118 119 117
f 117 119 120
f 122 190 121
f 121 190 191
f 121 191 192
f 123 173 122
f 122 173 174
f 122 174 175
f 124 171 123
f 123 171 172
f 123 172 173
f 125 154 124
f 124 154 155
f 124 155 156
f 126 137 125
f 125 137 152
f 125 152 153
f 127 135 126
f 126 135 136
f 126 136 137
f 121 194 127
f 127 194 133
f 127 133 134
f 203 128 131
f 131 128 129
f 131 129 130
f 132 196 131
f 131 196 200
f 131 200 203
f 203 200 201
f 203 201 202
f 196 132 195
f 195 132 133
f 195 133 194
f 134 135 127
f 152 137 151
f 151 137 138
f 151 138 150
f 150 138 139
f 150 139 146
f 146 139 143
f 146 143 145
f 145 143 144
f 140 141 139
f 139 141 142
f 139 142 143
f 146 147 150
f 150 147 148
f 150 148 149
f 153 154 125
f 124 156 171
f 171 156 157
f 171 157 170
f 170 157 158
f 170 158 169
f 169 158 162
f 169 162 165
f 165 162 164
f 164 162 163
f 159 160 158
f 158 160 161
f 158 161 162
f 165 166 169
f 169 166 167
f 169 167 168
f 176 189 175
f 175 189 190
f 175 190 122
f 189 176 184
f 184 176 177
f 184 177 181
f 181 177 180
f 180 177 179
f 179 177 178
f 181 182 184
f 184 182 183
f 189 184 188
f 188 184 185
f 188 185 186
f 186 187 188
f 192 193 121
f 121 193 194
f 197 198 196
f 196 198 199
f 196 199 200
f 205 206 204
f 204 206 207
f 208 209 211
f 211 209 210
f 212 213 215
f 215 213 214
f 216 217 219
f 219 217 218
f 220 221 223
f 223 221 222
f 224 225 227
f 227 225 226
f 228 229 231
f 231 229 230
f 232 233 235
f 235 233 234
f 236 237 239
f 239 237 238
f 240 241 243
f 243 241 242
f 244 245 247
f 247 245 246
f 248 249 251
f 251 249 250
f 252 253 255
f 255 253 254
f 256 257 259
f 259 257 258
f 260 261 263
f 263 261 262
f 264 265 267
f 267 265 266
f 269 270 268
f 268 270 271
f 273 274 272
f 272 274 275
f 283 276 282
f 282 276 277
f 282 277 281
f 281 277 278
f 281 278 280
f 280 278 279
f 284 285 287
f 287 285 286
f 288 289 291
f 291 289 290
f 292 293 295
f 295 293 294
f 296 297 299
f 299 297 298
f 300 301 303
f 303 301 302
f 304 305 307
f 307 305 306
f 308 309 311
f 311 309 310
f 312 313 315
f 315 313 314
f 316 317 319
f 319 317 318
f 320 321 323
f 323 321 322
f 324 325 327
f 327 325 326
f 328 329 331
f 331 329 330
f 332 333 335
f 335 333 334
f 336 337 339
f 339 337 338
f 340 341 343
f 343 341 342
f 344 345 347
f 347 345 346
f 348 349 351
f 351 349 350
f 352 353 355
f 355 353 354
f 363 356 362
f 362 356 357
f 362 357 361
f 361 357 358
f 361 358 360
f 360 358 359
f 365 366 364
f 364 366 367
f 443 368 442
f 442 368 369
f 442 369 370
f 371 372 370
f 370 372 373
f 370 373 442
f 442 373 377
f 442 377 441
f 441 377 378
f 441 378 440
f 440 378 379
f 440 379 445
f 445 379 444
f 444 379 380
f 444 380 381
f 373 374 377
f 377 374 375
f 377 375 376
f 381 382 444
f 444 382 383
f 444 383 450
f 450 383 398
f 450 398 399
f 383 384 398
f 398 384 397
f 397 384 385
f 397 385 396
f 396 385 389
f 396 389 392
f 392 389 391
f 391 389 390
f 386 387 385
f 385 387 388
f 385 388 389
f 392 393 396
f 396 393 394
f 396 394 395
f 399 400 450
f 450 400 449
f 449 400 401
f 449 401 402
f 403 416 402
f 402 416 417
f 402 417 448
f 448 417 418
f 448 418 419
f 416 403 411
f 411 403 404
f 411 404 408
f 408 404 407
f 407 404 406
f 406 404 405
f 408 409 411
f 411 409 410
f 416 411 415
f 415 411 412
f 415 412 413
f 413 414 415
f 448 419 447
f 447 419 420
f 447 420 421
f 447 421 436
f 436 421 422
f 436 422 435
f 435 422 423
f 435 423 434
f 434 423 427
f 434 427 430
f 430 427 428
f 430 428 429
f 424 425 423
f 423 425 426
f 423 426 427
f 430 431 434
f 434 431 432
f 434 432 433
f 447 436 446
f 446 436 437
f 446 437 438
f 446 438 445
f 445 438 439
f 445 439 440
f 448 449 402
f 458 451 457
f 457 451 452
f 457 452 456
f 456 452 453
f 456 453 455
f 455 453 454
f 466 459 465
f 465 459 460
f 465 460 464
f 464 460 461
f 464 461 463
f 463 461 462
f 468 469 467
f 467 469 470
