v -0.2276499939 -0.17 0.006800000072
v -0.2268738365 -0.1718738365 0.006800000072
v -0.225 -0.1726499939 0.006800000072
v -0.2231261635 -0.1718738365 0.006800000072
v -0.2223500061 -0.17 0.006800000072
v -0.2231261635 -0.1681261635 0.006800000072
v -0.225 -0.1673500061 0.006800000072
v -0.2268738365 -0.1681261635 0.006800000072
v -0.2325 -0.17 0.006800000072
v -0.2316409111 -0.1665145683 0.006800000072
v -0.2292604828 -0.1638276291 0.006800000072
v -0.225904026 -0.1625546837 0.006800000072
v -0.2223404694 -0.1629873848 0.006800000072
v -0.2193861771 -0.1650265884 0.006800000072
v -0.2177179337 -0.1682051277 0.006800000072
v -0.2177179337 -0.1717948723 0.006800000072
v -0.2193861771 -0.1749734116 0.006800000072
v -0.2223404694 -0.1770126152 0.006800000072
v -0.225904026 -0.1774453163 0.006800000072
v -0.2292604828 -0.1761723709 0.006800000072
v -0.2316409111 -0.1734854317 0.006800000072
v -0.2276499939 -0.17 0.008000000119
v -0.2268738365 -0.1681261635 0.008000000119
v -0.225 -0.1673500061 0.008000000119
v -0.2231261635 -0.1681261635 0.008000000119
v -0.2223500061 -0.17 0.008000000119
v -0.2231261635 -0.1718738365 0.008000000119
v -0.225 -0.1726499939 0.008000000119
v -0.2268738365 -0.1718738365 0.008000000119
v -0.2325 -0.17 0.008000000119
v -0.2316409111 -0.1734854317 0.008000000119
v -0.2292604828 -0.1761723709 0.008000000119
v -0.225904026 -0.1774453163 0.008000000119
v -0.2223404694 -0.1770126152 0.008000000119
v -0.2193861771 -0.1749734116 0.008000000119
v -0.2177179337 -0.1717948723 0.008000000119
v -0.2177179337 -0.1682051277 0.008000000119
v -0.2193861771 -0.1650265884 0.008000000119
v -0.2223404694 -0.1629873848 0.008000000119
v -0.225904026 -0.1625546837 0.008000000119
v -0.2292604828 -0.1638276291 0.008000000119
v -0.2316409111 -0.1665145683 0.008000000119
v -0.2276499939 -0.17 0.008000000119
v -0.2268738365 -0.1718738365 0.008000000119
v -0.225 -0.1726499939 0.008000000119
v -0.2231261635 -0.1718738365 0.008000000119
v -0.2223500061 -0.17 0.008000000119
v -0.2231261635 -0.1681261635 0.008000000119
v -0.225 -0.1673500061 0.008000000119
v -0.2268738365 -0.1681261635 0.008000000119
v -0.2276499939 -0.17 0.006800000072
v -0.2268738365 -0.1681261635 0.006800000072
v -0.225 -0.1673500061 0.006800000072
v -0.2231261635 -0.1681261635 0.006800000072
v -0.2223500061 -0.17 0.006800000072
v -0.2231261635 -0.1718738365 0.006800000072
v -0.225 -0.1726499939 0.006800000072
v -0.2268738365 -0.1718738365 0.006800000072
v -0.2276499939 -0.17 0.008000000119
v -0.2276499939 -0.17 0.006800000072
v -0.2325 -0.17 0.008000000119
v -0.2316409111 -0.1665145683 0.008000000119
v -0.2292604828 -0.1638276291 0.008000000119
v -0.225904026 -0.1625546837 0.008000000119
v -0.2223404694 -0.1629873848 0.008000000119
v -0.2193861771 -0.1650265884 0.008000000119
v -0.2177179337 -0.1682051277 0.008000000119
v -0.2177179337 -0.1717948723 0.008000000119
v -0.2193861771 -0.1749734116 0.008000000119
v -0.2223404694 -0.1770126152 0.008000000119
v -0.225904026 -0.1774453163 0.008000000119
v -0.2292604828 -0.1761723709 0.008000000119
v -0.2316409111 -0.1734854317 0.008000000119
v -0.2325 -0.17 0.006800000072
v -0.2316409111 -0.1734854317 0.006800000072
v -0.2292604828 -0.1761723709 0.006800000072
v -0.225904026 -0.1774453163 0.006800000072
v -0.2223404694 -0.1770126152 0.006800000072
v -0.2193861771 -0.1749734116 0.006800000072
v -0.2177179337 -0.1717948723 0.006800000072
v -0.2177179337 -0.1682051277 0.006800000072
v -0.2193861771 -0.1650265884 0.006800000072
v -0.2223404694 -0.1629873848 0.006800000072
v -0.225904026 -0.1625546837 0.006800000072
v -0.2292604828 -0.1638276291 0.006800000072
v -0.2316409111 -0.1665145683 0.006800000072
v -0.2325 -0.17 0.006800000072
v -0.2325 -0.17 0.008000000119
f 2 21 1
f 1 21 9
f 1 9 10
f 21 2 20
f 20 2 3
f 20 3 19
f 19 3 18
f 18 3 4
f 18 4 17
f 17 4 16
f 16 4 5
f 16 5 15
f 15 5 6
f 15 6 14
f 14 6 13
f 13 6 7
f 13 7 12
f 12 7 11
f 11 7 8
f 11 8 10
f 10 8 1
f 23 42 22
f 22 42 30
f 22 30 31
f 42 23 41
f 41 23 24
f 41 24 40
f 40 24 39
f 39 24 25
f 39 25 38
f 38 25 37
f 37 25 26
f 37 26 36
f 36 26 27
f 36 27 35
f 35 27 34
f 34 27 28
f 34 28 33
f 33 28 32
f 32 28 29
f 32 29 31
f 31 29 22
f 44 58 43
f 43 58 60
f 59 51 50
f 50 51 52
f 50 52 49
f 49 52 53
f 49 53 48
f 48 53 54
f 48 54 47
f 47 54 55
f 47 55 46
f 46 55 56
f 46 56 45
f 45 56 57
f 45 57 44
f 44 57 58
f 62 86 61
f 61 86 87
f 88 74 73
f 73 74 75
f 73 75 72
f 72 75 76
f 72 76 71
f 71 76 77
f 71 77 70
f 70 77 78
f 70 78 69
f 69 78 79
f 69 79 68
f 68 79 80
f 68 80 67
f 67 80 81
f 67 81 66
f 66 81 82
f 66 82 65
f 65 82 83
f 65 83 64
f 64 83 84
f 64 84 63
f 63 84 85
f 63 85 62
f 62 85 86
