v -1.142891738e-13 0.07199999809 0.4095167524
v 0.001428941935 0.07199999809 0.4086917478
v 0.001428941935 0.07199999809 0.4070417482
v -1.506897827e-13 0.07199999809 0.4062167532
v -0.001428941935 0.07199999809 0.4070417482
v -0.001428941935 0.07199999809 0.4086917478
v -1.087737834e-13 0.07150000095 0.4100167543
v -0.001680937708 0.07150000095 0.4092072565
v -0.002096095085 0.07150000095 0.4073883325
v -0.0009328500183 0.07150000095 0.4059296686
v 0.000932850018 0.07150000095 0.4059296686
v 0.002096095085 0.07150000095 0.4073883325
v 0.001680937707 0.07150000095 0.4092072565
v -1.506897827e-13 0.07199999809 0.4062167532
v -0.0009328500183 0.07150000095 0.4059296686
v -0.01205096483 0.07199999809 0.4138717538
v -0.01122596502 0.07199999809 0.4124428064
v -0.009575964809 0.07199999809 0.4124428064
v -0.008750964999 0.07199999809 0.4138717538
v -0.009575964809 0.07199999809 0.4153007013
v -0.01122596502 0.07199999809 0.4153007013
v -0.01205096483 0.07849999905 0.4138717538
v -0.01122596502 0.07849999905 0.4153007013
v -0.009575964809 0.07849999905 0.4153007013
v -0.008750964999 0.07849999905 0.4138717538
v -0.009575964809 0.07849999905 0.4124428064
v -0.01122596502 0.07849999905 0.4124428064
v -0.01205096483 0.07199999809 0.4138717538
v -0.01205096483 0.07849999905 0.4138717538
v -0.01483893394 0.07449999809 0.4176844865
v -0.01483893394 0.07150000095 0.4176844865
v -0.01461829782 0.07150000095 0.417190941
v -0.01417301655 0.07150000095 0.4168843538
v -0.01363323212 0.07150000095 0.4168543321
v -0.01363323212 0.07449999809 0.4168543321
v -0.01417301655 0.07449999809 0.4168843538
v -0.01461829782 0.07449999809 0.417190941
v -0.008937416077 0.07449999809 0.4209362871
v -0.008937416077 0.07150000095 0.4209362871
v -0.008998936415 0.07150000095 0.4214176828
v -0.009279860854 0.07150000095 0.4218134195
v -0.009714022875 0.07150000095 0.4220303041
v -0.009714022875 0.07449999809 0.4220303041
v -0.009279860854 0.07449999809 0.4218134195
v -0.008998936415 0.07449999809 0.4214176828
v 0.004199127853 0.07449999809 0.4065588171
v 0.002991984784 0.07449999809 0.4103873903
v 0.002991984784 0.07150000095 0.4103873903
v 0.004199127853 0.07150000095 0.4065588171
v 0.00538628459 0.07150000095 0.4126664812
v 0.004803010225 0.07150000095 0.4122654993
v 0.004190028906 0.07150000095 0.4119115907
v 0.003551131785 0.07150000095 0.4116069681
v 0.003551131785 0.07449999809 0.4116069681
v 0.004190028906 0.07449999809 0.4119115907
v 0.004803010225 0.07449999809 0.4122654993
v 0.00538628459 0.07449999809 0.4126664812
v 0.00538628459 0.07449999809 0.4126664812
v 0.004803010225 0.07449999809 0.4122654993
v 0.004190028906 0.07449999809 0.4119115907
v 0.003551131785 0.07449999809 0.4116069681
v 0.00316498667 0.07449999809 0.4113129884
v 0.002962724566 0.07449999809 0.4108718187
v 0.002991984784 0.07449999809 0.4103873903
v 0.004199127853 0.07449999809 0.4065588171
v 0.004495013952 0.07449999809 0.4061063558
v 0.004983163476 0.07449999809 0.4058740312
v 0.005520905256 0.07449999809 0.4059297258
v 0.006856161952 0.07449999809 0.4065353471
v 0.008125913143 0.07449999809 0.4072684366
v 0.009318028092 0.07449999809 0.4081219942
v 0.009635134339 0.07449999809 0.4085598451
v 0.009678002596 0.07449999809 0.4090987569
v 0.009434103966 0.07449999809 0.4095812303
v 0.006722037792 0.07449999809 0.4125409395
v 0.006317136288 0.07449999809 0.4128084833
v 0.005833950043 0.07449999809 0.4128539163
v 0.009434103966 0.07449999809 0.4301722604
v 0.009434103966 0.07150000095 0.4301722604
v 0.009678002596 0.07150000095 0.4306547434
v 0.009635134339 0.07150000095 0.4311936647
v 0.009318028093 0.07150000095 0.4316315157
v 0.009318028093 0.07449999809 0.4316315157
v 0.009635134339 0.07449999809 0.4311936647
v 0.009678002596 0.07449999809 0.4306547434
v 0.01200999975 0.07599999905 0.4218767435
v 0.01044633746 0.07599999905 0.4211237222
v 0.01006014466 0.07599999905 0.4194317133
v 0.01114223242 0.07599999905 0.4180748064
v 0.01287776709 0.07599999905 0.4180748064
v 0.01395985603 0.07599999905 0.4194317133
v 0.01357366323 0.07599999905 0.4211237222
v 0.01200999975 0.07599999905 0.4186267549
v 0.01082117915 0.07599999905 0.4194904787
v 0.01127526879 0.07599999905 0.4208880312
v 0.0127447319 0.07599999905 0.4208880312
v 0.01319882035 0.07599999905 0.4194904787
v 0.00736679852 0.08149999619 0.4085639173
v 0.006859315038 0.08149999619 0.4085067636
v 0.006417043209 0.08149999619 0.4082514173
v 0.006113805175 0.08149999619 0.4078404981
v 0.005515940189 0.08199999809 0.4075550443
v 0.005961411595 0.08199999809 0.4085034639
v 0.006868852973 0.08199999809 0.4090273744
v 0.007912938595 0.08199999809 0.4089389593
v -0.01456416607 0.08199999809 0.4155577928
v -0.01456416607 0.08069999695 0.4155577928
v -0.0141481626 0.08069999695 0.4161044389
v -0.01369730592 0.08069999695 0.4166227037
v -0.01321352482 0.08069999695 0.4171103937
v -0.01321352482 0.08199999809 0.4171103937
v -0.01369730592 0.08199999809 0.4166227037
v -0.0141481626 0.08199999809 0.4161044389
v -0.01342887878 0.08199999809 0.4212606508
v -0.01348060369 0.08149999619 0.4206001741
v -0.01348060369 0.08069999695 0.4206001741
v -0.01342630744 0.08069999695 0.4212853891
v -0.01333720446 0.08069999695 0.4219669611
v -0.01321352482 0.08069999695 0.4226431162
v -0.01321352482 0.08199999809 0.4226431162
v -0.0133012259 0.08199999809 0.4221848756
v -0.01337303877 0.08199999809 0.4217238695
v -0.01321352482 0.08199999809 0.4171103937
v -0.01321352482 0.08069999695 0.4171103937
v -0.01333720446 0.08069999695 0.4177865488
v -0.01342630744 0.08069999695 0.4184681207
v -0.01348060369 0.08069999695 0.4191533357
v -0.01348060369 0.08149999619 0.4191533357
v -0.01342887878 0.08199999809 0.41849284
v -0.01337303877 0.08199999809 0.4180296404
v -0.0133012259 0.08199999809 0.4175686342
v 0.01102241993 0.08199999809 0.430330208
v 0.01102241993 0.08069999695 0.430330208
v 0.01180175543 0.08069999695 0.4305708963
v 0.01242018223 0.08069999695 0.4311027223
v 0.0127748394 0.08069999695 0.4318372423
v 0.0127748394 0.08149999619 0.4318372423
v 0.01256802559 0.08199999809 0.4313242227
v 0.01216900468 0.08199999809 0.4308318407
v 0.01163596034 0.08199999809 0.4304890329
v 0.007875000239 0.07650000095 0.4335166437
v 0.008472684622 0.07650000095 0.4321742326
v 0.007380660772 0.07650000095 0.4311909753
v 0.006108068228 0.07650000095 0.4319257051
v 0.006413586736 0.07650000095 0.4333630449
v 0.007250000239 0.07574892521 0.432434128
v 0.007250000239 0.07574892521 0.432434128
v 0.007250000239 0.07574892521 0.432434128
v 0.007250000239 0.07574892521 0.432434128
v 0.007250000239 0.07574892521 0.432434128
v 0.007250000239 0.07574892521 0.432434128
v 0.007250000239 0.07574892521 0.432434128
v 0.007380660772 0.07650000095 0.4311909753
v 0.007250000239 0.07574892521 0.432434128
v 0.004211022854 0.08199999809 0.4327031786
v 0.004211022854 0.08069999695 0.4327031786
v 0.004858427644 0.08069999695 0.4324722177
v 0.00549323678 0.08069999695 0.4322086031
v 0.006113805175 0.08069999695 0.4319130022
v 0.006113805175 0.08149999619 0.4319130022
v 0.005515940189 0.08199999809 0.432198456
v 0.005086870194 0.08199999809 0.432381695
v 0.004651724696 0.08199999809 0.4325500185
v 0.009325965047 0.07150000095 0.4157337076
v 0.008274978995 0.07150000095 0.4141921884
v 0.008824903369 0.07150000095 0.4124093897
v 0.0105616343 0.07150000095 0.4117277605
v 0.01217737794 0.07150000095 0.4126606065
v 0.01245544672 0.07150000095 0.4145054704
v 0.01118644834 0.07150000095 0.4158731348
v 0.009575964808 0.07199999809 0.4153007013
v 0.01122596502 0.07199999809 0.4153007013
v 0.01205096483 0.07199999809 0.4138717538
v 0.01122596502 0.07199999809 0.4124428064
v 0.009575964808 0.07199999809 0.4124428064
v 0.008750964999 0.07199999809 0.4138717538
v 0.01122596502 0.07199999809 0.4124428064
v 0.0105616343 0.07150000095 0.4117277605
v -1.142891738e-13 0.07199999809 0.4095167524
v -0.001428941935 0.07199999809 0.4086917478
v -0.001428941935 0.07199999809 0.4070417482
v -1.506897827e-13 0.07199999809 0.4062167532
v 0.001428941935 0.07199999809 0.4070417482
v 0.001428941935 0.07199999809 0.4086917478
v 0.0008250000327 0.07849999905 0.4092956907
v 0.001650000065 0.07849999905 0.4078667528
v 0.0008250000326 0.07849999905 0.4064378149
v -0.0008250000329 0.07849999905 0.4064378149
v -0.001650000066 0.07849999905 0.4078667528
v -0.0008250000329 0.07849999905 0.4092956907
v -0.001428941935 0.07199999809 0.4070417482
v -0.0008250000329 0.07849999905 0.4064378149
v -0.01205096483 0.07849999905 0.4138717538
v -0.01122596502 0.07849999905 0.4124428064
v -0.009575964809 0.07849999905 0.4124428064
v -0.008750964999 0.07849999905 0.4138717538
v -0.009575964809 0.07849999905 0.4153007013
v -0.01122596502 0.07849999905 0.4153007013
v -0.01040096521 0.07949141979 0.4138717538
v -0.01205096483 0.07849999905 0.4138717538
v -0.01040096521 0.07949141979 0.4138717538
v -0.01040096521 0.07949141979 0.4138717538
v -0.01040096521 0.07949141979 0.4138717538
v -0.01040096521 0.07949141979 0.4138717538
v -0.01040096521 0.07949141979 0.4138717538
v -0.01040096521 0.07949141979 0.4138717538
v -0.01483893394 0.07150000095 0.4220690233
v -0.01498207569 0.07150000095 0.4206098444
v -0.01498207569 0.07150000095 0.4191436655
v -0.01483893394 0.07150000095 0.4176844865
v -0.01483893394 0.07449999809 0.4176844865
v -0.01498207569 0.07449999809 0.4191436655
v -0.01498207569 0.07449999809 0.4206098444
v -0.01483893394 0.07449999809 0.4220690233
v -0.009714022875 0.07150000095 0.4220303041
v -0.01363323212 0.07150000095 0.4228991586
v -0.01363323212 0.07449999809 0.4228991586
v -0.009714022875 0.07449999809 0.4220303041
v -0.009714022875 0.07449999809 0.4220303041
v -0.01363323212 0.07449999809 0.4228991586
v -0.01417301655 0.07449999809 0.422869156
v -0.01461829782 0.07449999809 0.4225625688
v -0.01483893394 0.07449999809 0.4220690233
v -0.01498207569 0.07449999809 0.4206098444
v -0.01498207569 0.07449999809 0.4191436655
v -0.01483893394 0.07449999809 0.4176844865
v -0.01461829782 0.07449999809 0.417190941
v -0.01417301655 0.07449999809 0.4168843538
v -0.01363323212 0.07449999809 0.4168543321
v -0.009714022875 0.07449999809 0.4177232057
v -0.009279860854 0.07449999809 0.4179400903
v -0.008998936415 0.07449999809 0.418335827
v -0.008937416077 0.07449999809 0.4188172228
v -0.008993039131 0.07449999809 0.4195228464
v -0.008993039131 0.07449999809 0.4202306635
v -0.008937416077 0.07449999809 0.4209362871
v -0.008998936415 0.07449999809 0.4214176828
v -0.009279860854 0.07449999809 0.4218134195
v 0.003551131785 0.07449999809 0.4116069681
v 0.003551131785 0.07150000095 0.4116069681
v 0.00316498667 0.07150000095 0.4113129884
v 0.002962724566 0.07150000095 0.4108718187
v 0.002991984784 0.07150000095 0.4103873903
v 0.002991984784 0.07449999809 0.4103873903
v 0.002962724566 0.07449999809 0.4108718187
v 0.00316498667 0.07449999809 0.4113129884
v -0.006004999876 0.07599999905 0.4114757806
v -0.007568662763 0.07599999905 0.4107227594
v -0.007954855561 0.07599999905 0.4090307409
v -0.00687276721 0.07599999905 0.4076738531
v -0.005137232542 0.07599999905 0.4076738531
v -0.004055144191 0.07599999905 0.4090307409
v -0.00444133699 0.07599999905 0.4107227594
v -0.006004999876 0.07599999905 0.4082257826
v -0.007193820477 0.07599999905 0.4090895158
v -0.006739731431 0.07599999905 0.4104870493
v -0.005270268321 0.07599999905 0.4104870493
v -0.004816179276 0.07599999905 0.4090895158
v -0.006004999876 0.08170000076 0.4114757806
v -0.007568662763 0.08170000076 0.4107227594
v -0.007954855561 0.08170000076 0.4090307409
v -0.00687276721 0.08170000076 0.4076738531
v -0.005137232542 0.08170000076 0.4076738531
v -0.004055144191 0.08170000076 0.4090307409
v -0.00444133699 0.08170000076 0.4107227594
v -0.006004999876 0.08199999809 0.4117757875
v -0.004206787646 0.08199999809 0.4109098131
v -0.003762665689 0.08199999809 0.4089639932
v -0.005007067323 0.08199999809 0.4074035627
v -0.007002932429 0.08199999809 0.4074035627
v -0.008247334361 0.08199999809 0.4089639932
v -0.007803212404 0.08199999809 0.4109098131
v -0.005137232542 0.08170000076 0.4076738531
v -0.005007067323 0.08199999809 0.4074035627
v 0.005515940189 0.08199999809 0.4075550443
v 0.006113805175 0.08149999619 0.4078404981
v 0.006113805175 0.08069999695 0.4078404981
v 0.00549323678 0.08069999695 0.4075449068
v 0.004858427644 0.08069999695 0.4072812921
v 0.004211022854 0.08069999695 0.4070503217
v 0.004211022854 0.08199999809 0.4070503217
v 0.004651724696 0.08199999809 0.4072034914
v 0.005086870193 0.08199999809 0.4073718053
v 0.009002501964 0.08199999809 0.409816683
v 0.009002501964 0.08069999695 0.409816683
v 0.008478776812 0.08069999695 0.4093714983
v 0.00793307066 0.08069999695 0.4089535505
v 0.00736679852 0.08069999695 0.4085639173
v 0.00736679852 0.08149999619 0.4085639173
v 0.007912938595 0.08199999809 0.4089389593
v 0.008286167979 0.08199999809 0.4092189199
v 0.008649500608 0.08199999809 0.4095116121
v 0.00736679852 0.08069999695 0.4085639173
v 0.008471217155 0.08069999695 0.4075860864
v 0.007875000238 0.08069999695 0.4062368566
v 0.006408423185 0.08069999695 0.4063951284
v 0.006113805175 0.08069999695 0.4078404981
v 0.006113805175 0.08149999619 0.4078404981
v 0.006417043209 0.08149999619 0.4082514173
v 0.006859315038 0.08149999619 0.4085067636
v 0.00736679852 0.08149999619 0.4085639173
v 0.007875000238 0.07650000095 0.4062368566
v 0.008472684622 0.07650000095 0.4075792772
v 0.007380660772 0.07650000095 0.4085625345
v 0.006108068228 0.07650000095 0.4078278047
v 0.006413586736 0.07650000095 0.4063904554
v 0.007380660772 0.07650000095 0.4085625345
v 0.006859315038 0.08149999619 0.4085067636
v 0.00736679852 0.08069999695 0.4085639173
v 0.0127748394 0.08069999695 0.407916258
v 0.01242018223 0.08069999695 0.4086507684
v 0.01180175543 0.08069999695 0.409182604
v 0.01102241993 0.08069999695 0.4094233019
v 0.01102241993 0.08199999809 0.4094233019
v 0.01163596034 0.08199999809 0.4092644769
v 0.01216900468 0.08199999809 0.4089216596
v 0.01256802559 0.08199999809 0.4084292776
v 0.0127748394 0.08149999619 0.407916258
v -0.01348060369 0.08069999695 0.4191533357
v -0.01487964034 0.08069999695 0.4186858064
v -0.01575000048 0.08069999695 0.4198767549
v -0.01487964034 0.08069999695 0.4210677034
v -0.01348060369 0.08069999695 0.4206001741
v -0.01348060369 0.08149999619 0.4206001741
v -0.01327635884 0.08149999619 0.4201320917
v -0.01327635884 0.08149999619 0.4196213991
v -0.01348060369 0.08149999619 0.4191533357
v -0.01575000048 0.07650000095 0.4198767549
v -0.01488627076 0.07650000095 0.4186879236
v -0.013488729 0.07650000095 0.4191420252
v -0.013488729 0.07650000095 0.4206114847
v -0.01488627076 0.07650000095 0.4210655672
v -0.013488729 0.07650000095 0.4191420252
v -0.01327635884 0.08149999619 0.4196213991
v -0.01348060369 0.08069999695 0.4191533357
v -0.01348060369 0.08149999619 0.4206001741
v -0.01342887878 0.08199999809 0.4212606508
v -0.01283026457 0.08199999809 0.4204006654
v -0.01283026457 0.08199999809 0.4193528444
v -0.01342887878 0.08199999809 0.41849284
v -0.01348060369 0.08149999619 0.4191533357
v -0.01327635884 0.08149999619 0.4196213991
v -0.01327635884 0.08149999619 0.4201320917
v 0.009002501965 0.08199999809 0.4299368173
v 0.009002501965 0.08069999695 0.4299368173
v 0.009666740298 0.08069999695 0.4301119501
v 0.01034100771 0.08069999695 0.430243252
v 0.01102241993 0.08069999695 0.430330208
v 0.01102241993 0.08199999809 0.430330208
v 0.01034100771 0.08199999809 0.430243252
v 0.009666740298 0.08199999809 0.4301119501
v 0.007912938595 0.08199999809 0.430814541
v 0.00736679852 0.08149999619 0.431189583
v 0.00736679852 0.08069999695 0.431189583
v 0.00793307066 0.08069999695 0.4307999498
v 0.008478776813 0.08069999695 0.4303820116
v 0.009002501965 0.08069999695 0.4299368173
v 0.009002501965 0.08199999809 0.4299368173
v 0.008649500609 0.08199999809 0.4302418977
v 0.008286167979 0.08199999809 0.4305345804
v 0.00825096488 0.07150000095 0.425881756
v 0.009060462117 0.07150000095 0.4242008096
v 0.01087938547 0.07150000095 0.4237856561
v 0.01233804822 0.07150000095 0.4249489099
v 0.01233804822 0.07150000095 0.4268146021
v 0.01087938547 0.07150000095 0.4279778558
v 0.009060462117 0.07150000095 0.4275626833
v 0.008750964999 0.07199999809 0.425881756
v 0.009575964809 0.07199999809 0.4273107034
v 0.01122596502 0.07199999809 0.4273107034
v 0.01205096483 0.07199999809 0.425881756
v 0.01122596502 0.07199999809 0.4244528085
v 0.009575964809 0.07199999809 0.4244528085
v 0.01122596502 0.07199999809 0.4244528085
v 0.01087938547 0.07150000095 0.4237856561
v 0.009575964808 0.07199999809 0.4153007013
v 0.008750964999 0.07199999809 0.4138717538
v 0.009575964808 0.07199999809 0.4124428064
v 0.01122596502 0.07199999809 0.4124428064
v 0.01205096483 0.07199999809 0.4138717538
v 0.01122596502 0.07199999809 0.4153007013
v 0.009575964808 0.07849999905 0.4153007013
v 0.01122596502 0.07849999905 0.4153007013
v 0.01205096483 0.07849999905 0.4138717538
v 0.01122596502 0.07849999905 0.4124428064
v 0.009575964808 0.07849999905 0.4124428064
v 0.008750964999 0.07849999905 0.4138717538
v 0.01122596502 0.07199999809 0.4124428064
v 0.01122596502 0.07849999905 0.4124428064
v 0.0008250000327 0.07849999905 0.4092956907
v -0.0008250000329 0.07849999905 0.4092956907
v -0.001650000066 0.07849999905 0.4078667528
v -0.0008250000329 0.07849999905 0.4064378149
v 0.0008250000326 0.07849999905 0.4064378149
v 0.001650000065 0.07849999905 0.4078667528
v -1.324906512e-13 0.07949141979 0.4078667528
v -0.0008250000329 0.07849999905 0.4064378149
v -1.324906512e-13 0.07949141979 0.4078667528
v -1.324906512e-13 0.07949141979 0.4078667528
v -1.324905092e-13 0.07949141979 0.4078667528
v -1.324906985e-13 0.07949141979 0.4078667528
v -1.324905565e-13 0.07949141979 0.4078667528
v -1.324905565e-13 0.07949141979 0.4078667528
v -0.01363323212 0.07449999809 0.4228991586
v -0.01363323212 0.07150000095 0.4228991586
v -0.01417301655 0.07150000095 0.422869156
v -0.01461829782 0.07150000095 0.4225625688
v -0.01483893394 0.07150000095 0.4220690233
v -0.01483893394 0.07449999809 0.4220690233
v -0.01461829782 0.07449999809 0.4225625688
v -0.01417301655 0.07449999809 0.422869156
v -0.006004999876 0.07599999905 0.4322777254
v -0.007568662763 0.07599999905 0.4315247041
v -0.007954855561 0.07599999905 0.4298326761
v -0.00687276721 0.07599999905 0.4284757883
v -0.005137232542 0.07599999905 0.4284757883
v -0.004055144191 0.07599999905 0.4298326761
v -0.004441336989 0.07599999905 0.4315247041
v -0.006004999876 0.07599999905 0.4290277177
v -0.007193820476 0.07599999905 0.4298914415
v -0.006739731431 0.07599999905 0.431288994
v -0.005270268321 0.07599999905 0.431288994
v -0.004816179275 0.07599999905 0.4298914415
v 0.01200999975 0.08199999809 0.4221767503
v 0.01380821228 0.08199999809 0.4213107759
v 0.01425233364 0.08199999809 0.4193649561
v 0.0130079329 0.08199999809 0.417804516
v 0.01101206779 0.08199999809 0.417804516
v 0.009767665863 0.08199999809 0.4193649561
v 0.01021178722 0.08199999809 0.4213107759
v 0.01200999975 0.08170000076 0.4218767435
v 0.01044633746 0.08170000076 0.4211237222
v 0.01006014466 0.08170000076 0.4194317133
v 0.01114223242 0.08170000076 0.4180748064
v 0.01287776709 0.08170000076 0.4180748064
v 0.01395985603 0.08170000076 0.4194317133
v 0.01357366323 0.08170000076 0.4211237222
v 0.01101206779 0.08199999809 0.417804516
v 0.01114223242 0.08170000076 0.4180748064
v 0.004211022854 0.08199999809 0.4070503217
v 0.004211022854 0.08069999695 0.4070503217
v 0.004030565321 0.08069999695 0.4063875181
v 0.003807154298 0.08069999695 0.4057379228
v 0.003541746437 0.08069999695 0.4051043302
v 0.003541746437 0.08199999809 0.4051043302
v 0.003807154298 0.08199999809 0.4057379228
v 0.004030565321 0.08199999809 0.4063875181
v 0.01102241993 0.08199999809 0.4094233019
v 0.01102241993 0.08069999695 0.4094233019
v 0.01034100771 0.08069999695 0.4095102483
v 0.009666740298 0.08069999695 0.4096415598
v 0.009002501964 0.08069999695 0.409816683
v 0.009002501964 0.08199999809 0.409816683
v 0.009666740298 0.08199999809 0.4096415598
v 0.01034100771 0.08199999809 0.4095102483
v 0.003970674872 0.08069999695 0.4028331644
v 0.003511891961 0.08069999695 0.4035075647
v 0.003360523581 0.08069999695 0.4043090612
v 0.003541746437 0.08069999695 0.4051043302
v 0.003807154298 0.08069999695 0.4057379228
v 0.004030565321 0.08069999695 0.4063875181
v 0.004211022854 0.08069999695 0.4070503217
v 0.004858427644 0.08069999695 0.4072812921
v 0.00549323678 0.08069999695 0.4075449068
v 0.006113805175 0.08069999695 0.4078404981
v 0.006408423185 0.08069999695 0.4063951284
v 0.007875000238 0.08069999695 0.4062368566
v 0.008471217155 0.08069999695 0.4075860864
v 0.00736679852 0.08069999695 0.4085639173
v 0.00793307066 0.08069999695 0.4089535505
v 0.008478776812 0.08069999695 0.4093714983
v 0.009002501964 0.08069999695 0.409816683
v 0.009666740298 0.08069999695 0.4096415598
v 0.01034100771 0.08069999695 0.4095102483
v 0.01102241993 0.08069999695 0.4094233019
v 0.01180175543 0.08069999695 0.409182604
v 0.01242018223 0.08069999695 0.4086507684
v 0.0127748394 0.08069999695 0.407916258
v 0.01019423842 0.08069999695 0.405652569
v 0.007221388221 0.08069999695 0.4039361936
v -0.01575000048 0.07650000095 0.4198767549
v -0.01488627076 0.07650000095 0.4210655672
v -0.013488729 0.07650000095 0.4206114847
v -0.013488729 0.07650000095 0.4191420252
v -0.01488627076 0.07650000095 0.4186879236
v -0.01450000048 0.07574892521 0.4198767549
v -0.01450000048 0.07574892521 0.4198767549
v -0.01450000048 0.07574892521 0.4198767549
v -0.01450000048 0.07574892521 0.4198767549
v -0.01450000048 0.07574892521 0.4198767549
v -0.01450000048 0.07574892521 0.4198767549
v -0.01450000048 0.07574892521 0.4198767549
v -0.013488729 0.07650000095 0.4206114847
v -0.01450000048 0.07574892521 0.4198767549
v 0.003541746437 0.08199999809 0.4051043302
v 0.003541746437 0.08069999695 0.4051043302
v 0.003360523581 0.08069999695 0.4043090612
v 0.003511891961 0.08069999695 0.4035075647
v 0.003970674872 0.08069999695 0.4028331644
v 0.003970674872 0.08149999619 0.4028331644
v 0.003629793823 0.08199999809 0.4032687837
v 0.003402888179 0.08199999809 0.4038605386
v 0.003372522592 0.08199999809 0.4044935781
v 0.005515940189 0.08199999809 0.432198456
v 0.006113805175 0.08149999619 0.4319130022
v 0.006417043209 0.08149999619 0.431502083
v 0.006859315038 0.08149999619 0.4312467462
v 0.00736679852 0.08149999619 0.431189583
v 0.007912938595 0.08199999809 0.430814541
v 0.006868852973 0.08199999809 0.4307261354
v 0.005961411595 0.08199999809 0.4312500459
v 1.506661708e-13 0.07199999809 0.4335367471
v 0.001428941935 0.07199999809 0.4327117616
v 0.001428941935 0.07199999809 0.4310617525
v 1.142655619e-13 0.07199999809 0.4302367479
v -0.001428941935 0.07199999809 0.4310617525
v -0.001428941935 0.07199999809 0.4327117616
v 1.561816664e-13 0.07150000095 0.4340367586
v -0.001680937707 0.07150000095 0.4332272607
v -0.002096095085 0.07150000095 0.4314083368
v -0.000932850018 0.07150000095 0.4299496729
v 0.0009328500183 0.07150000095 0.4299496729
v 0.002096095085 0.07150000095 0.4314083368
v 0.001680937708 0.07150000095 0.4332272607
v 1.142655619e-13 0.07199999809 0.4302367479
v -0.000932850018 0.07150000095 0.4299496729
v 0.008750964999 0.07199999809 0.425881756
v 0.009575964809 0.07199999809 0.4244528085
v 0.01122596502 0.07199999809 0.4244528085
v 0.01205096483 0.07199999809 0.425881756
v 0.01122596502 0.07199999809 0.4273107034
v 0.009575964809 0.07199999809 0.4273107034
v 0.008750964999 0.07849999905 0.425881756
v 0.009575964809 0.07849999905 0.4273107034
v 0.01122596502 0.07849999905 0.4273107034
v 0.01205096483 0.07849999905 0.425881756
v 0.01122596502 0.07849999905 0.4244528085
v 0.009575964809 0.07849999905 0.4244528085
v 0.01205096483 0.07199999809 0.425881756
v 0.01205096483 0.07849999905 0.425881756
v 0.009575964808 0.07849999905 0.4153007013
v 0.008750964999 0.07849999905 0.4138717538
v 0.009575964808 0.07849999905 0.4124428064
v 0.01122596502 0.07849999905 0.4124428064
v 0.01205096483 0.07849999905 0.4138717538
v 0.01122596502 0.07849999905 0.4153007013
v 0.01040096521 0.07949141979 0.4138717538
v 0.01122596502 0.07849999905 0.4124428064
v 0.01040096521 0.07949141979 0.4138717538
v 0.01040096521 0.07949141979 0.4138717538
v 0.01040096521 0.07949141979 0.4138717538
v 0.01040096521 0.07949141979 0.4138717538
v 0.01040096521 0.07949141979 0.4138717538
v 0.01040096521 0.07949141979 0.4138717538
v 0.01200999975 0.07179999828 0.4218767435
v 0.01044633746 0.07179999828 0.4211237222
v 0.01006014466 0.07179999828 0.4194317133
v 0.01114223242 0.07179999828 0.4180748064
v 0.01287776709 0.07179999828 0.4180748064
v 0.01395985603 0.07179999828 0.4194317133
v 0.01357366323 0.07179999828 0.4211237222
v 0.01200999975 0.07599999905 0.4218767435
v 0.01357366323 0.07599999905 0.4211237222
v 0.01395985603 0.07599999905 0.4194317133
v 0.01287776709 0.07599999905 0.4180748064
v 0.01114223242 0.07599999905 0.4180748064
v 0.01006014466 0.07599999905 0.4194317133
v 0.01044633746 0.07599999905 0.4211237222
v 0.01287776709 0.07179999828 0.4180748064
v 0.01287776709 0.07599999905 0.4180748064
v -0.006004999876 0.07599999905 0.4082257826
v -0.004816179276 0.07599999905 0.4090895158
v -0.005270268321 0.07599999905 0.4104870493
v -0.006739731431 0.07599999905 0.4104870493
v -0.007193820477 0.07599999905 0.4090895158
v -0.006004999876 0.07800000191 0.4082257826
v -0.007193820477 0.07800000191 0.4090895158
v -0.006739731431 0.07800000191 0.4104870493
v -0.005270268321 0.07800000191 0.4104870493
v -0.004816179276 0.07800000191 0.4090895158
v -0.006004999876 0.07800000191 0.4082257826
v -0.006004999876 0.07599999905 0.4082257826
v 0.007875000238 0.07650000095 0.4062368566
v 0.006413586736 0.07650000095 0.4063904554
v 0.006108068228 0.07650000095 0.4078278047
v 0.007380660772 0.07650000095 0.4085625345
v 0.008472684622 0.07650000095 0.4075792772
v 0.007250000238 0.07574892521 0.4073193819
v 0.007250000238 0.07574892521 0.4073193819
v 0.007250000238 0.07574892521 0.4073193819
v 0.007250000238 0.07574892521 0.4073193819
v 0.007250000238 0.07574892521 0.4073193819
v 0.007250000238 0.07574892521 0.4073193819
v 0.007250000238 0.07574892521 0.4073193819
v 0.006108068228 0.07650000095 0.4078278047
v 0.007250000238 0.07574892521 0.4073193819
v 0.006113805175 0.08069999695 0.4319130022
v 0.006408423185 0.08069999695 0.4333583719
v 0.007875000239 0.08069999695 0.4335166437
v 0.008471217156 0.08069999695 0.4321674234
v 0.00736679852 0.08069999695 0.431189583
v 0.00736679852 0.08149999619 0.431189583
v 0.006859315038 0.08149999619 0.4312467462
v 0.006417043209 0.08149999619 0.431502083
v 0.006113805175 0.08149999619 0.4319130022
v 0.007875000239 0.07650000095 0.4335166437
v 0.006413586736 0.07650000095 0.4333630449
v 0.006108068228 0.07650000095 0.4319257051
v 0.007380660772 0.07650000095 0.4311909753
v 0.008472684622 0.07650000095 0.4321742326
v 0.006108068228 0.07650000095 0.4319257051
v 0.006417043209 0.08149999619 0.431502083
v 0.006113805175 0.08069999695 0.4319130022
v -0.01147596478 0.07150000095 0.4277437097
v -0.01252695084 0.07150000095 0.4262021906
v -0.01197702646 0.07150000095 0.4244193727
v -0.01024029493 0.07150000095 0.4237377626
v -0.008624551892 0.07150000095 0.4246706087
v -0.008346483707 0.07150000095 0.4265154726
v -0.009615482092 0.07150000095 0.4278831369
v -0.01122596502 0.07199999809 0.4273107034
v -0.009575964808 0.07199999809 0.4273107034
v -0.008750964999 0.07199999809 0.425881756
v -0.009575964808 0.07199999809 0.4244528085
v -0.01122596502 0.07199999809 0.4244528085
v -0.01205096483 0.07199999809 0.425881756
v -0.009575964808 0.07199999809 0.4244528085
v -0.01024029493 0.07150000095 0.4237377626
v 1.506661708e-13 0.07199999809 0.4335367471
v -0.001428941935 0.07199999809 0.4327117616
v -0.001428941935 0.07199999809 0.4310617525
v 1.142655619e-13 0.07199999809 0.4302367479
v 0.001428941935 0.07199999809 0.4310617525
v 0.001428941935 0.07199999809 0.4327117616
v 0.0008250000329 0.07849999905 0.4333156854
v 0.001650000066 0.07849999905 0.4318867571
v 0.0008250000329 0.07849999905 0.4304578096
v -0.0008250000327 0.07849999905 0.4304578096
v -0.001650000065 0.07849999905 0.4318867571
v -0.0008250000326 0.07849999905 0.4333156854
v 0.0008250000329 0.07849999905 0.4333156854
v 0.001428941935 0.07199999809 0.4327117616
v 0.008750964999 0.07849999905 0.425881756
v 0.009575964809 0.07849999905 0.4244528085
v 0.01122596502 0.07849999905 0.4244528085
v 0.01205096483 0.07849999905 0.425881756
v 0.01122596502 0.07849999905 0.4273107034
v 0.009575964809 0.07849999905 0.4273107034
v 0.01040096521 0.07949141979 0.425881756
v 0.01205096483 0.07849999905 0.425881756
v 0.01040096521 0.07949141979 0.425881756
v 0.01040096521 0.07949141979 0.425881756
v 0.01040096521 0.07949141979 0.425881756
v 0.01040096521 0.07949141979 0.425881756
v 0.01040096521 0.07949141979 0.425881756
v 0.01040096521 0.07949141979 0.425881756
v 0.01200999975 0.07150000095 0.4221767503
v 0.01021178722 0.07150000095 0.4213107759
v 0.009767665863 0.07150000095 0.4193649561
v 0.01101206779 0.07150000095 0.417804516
v 0.0130079329 0.07150000095 0.417804516
v 0.01425233364 0.07150000095 0.4193649561
v 0.01380821228 0.07150000095 0.4213107759
v 0.01200999975 0.07179999828 0.4218767435
v 0.01357366323 0.07179999828 0.4211237222
v 0.01395985603 0.07179999828 0.4194317133
v 0.01287776709 0.07179999828 0.4180748064
v 0.01114223242 0.07179999828 0.4180748064
v 0.01006014466 0.07179999828 0.4194317133
v 0.01044633746 0.07179999828 0.4211237222
v 0.0130079329 0.07150000095 0.417804516
v 0.01287776709 0.07179999828 0.4180748064
v 9.374709416e-14 0.08199999809 0.4283767587
v 0.003950147033 0.08199999809 0.4274031335
v 0.006995362639 0.08199999809 0.4247053033
v 0.008438025713 0.08199999809 0.4209013063
v 0.007947638035 0.08199999809 0.41686261
v 0.005636542439 0.08199999809 0.4135144121
v 0.002034183144 0.08199999809 0.4116237528
v -0.002034183145 0.08199999809 0.4116237528
v -0.00563654244 0.08199999809 0.4135144121
v -0.007947638035 0.08199999809 0.41686261
v -0.008438025713 0.08199999809 0.4209013063
v -0.006995362639 0.08199999809 0.4247053033
v -0.003950147033 0.08199999809 0.4274031335
v 8.823172102e-14 0.08149999619 0.4278767473
v -0.003717785478 0.08149999619 0.4269603998
v -0.006583870649 0.08149999619 0.424421261
v -0.007941671014 0.08149999619 0.4208410532
v -0.007480130196 0.08149999619 0.4170399171
v -0.00530498147 0.08149999619 0.413888672
v -0.00191452533 0.08149999619 0.4121092111
v 0.00191452533 0.08149999619 0.4121092111
v 0.00530498147 0.08149999619 0.413888672
v 0.007480130196 0.08149999619 0.4170399171
v 0.007941671014 0.08149999619 0.4208410532
v 0.006583870649 0.08149999619 0.424421261
v 0.003717785478 0.08149999619 0.4269603998
v -0.002034183145 0.08199999809 0.4116237528
v -0.00191452533 0.08149999619 0.4121092111
v -0.0042729491 0.07800000191 0.4084757883
v -0.005706915259 0.07800000191 0.407498129
v -0.007365345359 0.07800000191 0.40800968
v -0.007999407649 0.07800000191 0.4096252519
v -0.007131640315 0.07800000191 0.4111282617
v -0.005415489674 0.07800000191 0.4113869363
v -0.004143252373 0.07800000191 0.4102064687
v -0.006004999876 0.07800000191 0.4082257826
v -0.004816179276 0.07800000191 0.4090895158
v -0.005270268321 0.07800000191 0.4104870493
v -0.006739731431 0.07800000191 0.4104870493
v -0.007193820477 0.07800000191 0.4090895158
v -0.006004999876 0.07150000095 0.4117757875
v -0.007803212404 0.07150000095 0.4109098131
v -0.008247334361 0.07150000095 0.4089639932
v -0.007002932429 0.07150000095 0.4074035627
v -0.005007067323 0.07150000095 0.4074035627
v -0.003762665689 0.07150000095 0.4089639932
v -0.004206787646 0.07150000095 0.4109098131
v -0.006004999876 0.07179999828 0.4114757806
v -0.00444133699 0.07179999828 0.4107227594
v -0.004055144191 0.07179999828 0.4090307409
v -0.005137232542 0.07179999828 0.4076738531
v -0.00687276721 0.07179999828 0.4076738531
v -0.007954855561 0.07179999828 0.4090307409
v -0.007568662763 0.07179999828 0.4107227594
v -0.005007067323 0.07150000095 0.4074035627
v -0.005137232542 0.07179999828 0.4076738531
v -0.01122596502 0.07199999809 0.4273107034
v -0.01205096483 0.07199999809 0.425881756
v -0.01122596502 0.07199999809 0.4244528085
v -0.009575964808 0.07199999809 0.4244528085
v -0.008750964999 0.07199999809 0.425881756
v -0.009575964808 0.07199999809 0.4273107034
v -0.01122596502 0.07849999905 0.4273107034
v -0.009575964808 0.07849999905 0.4273107034
v -0.008750964999 0.07849999905 0.425881756
v -0.009575964808 0.07849999905 0.4244528085
v -0.01122596502 0.07849999905 0.4244528085
v -0.01205096483 0.07849999905 0.425881756
v -0.01122596502 0.07199999809 0.4273107034
v -0.01122596502 0.07849999905 0.4273107034
v 0.0008250000329 0.07849999905 0.4333156854
v -0.0008250000326 0.07849999905 0.4333156854
v -0.001650000065 0.07849999905 0.4318867571
v -0.0008250000327 0.07849999905 0.4304578096
v 0.0008250000329 0.07849999905 0.4304578096
v 0.001650000066 0.07849999905 0.4318867571
v 1.324648933e-13 0.07949141979 0.4318867571
v 0.0008250000329 0.07849999905 0.4333156854
v 1.324648933e-13 0.07949141979 0.4318867571
v 1.324648933e-13 0.07949141979 0.4318867571
v 1.324647513e-13 0.07949141979 0.4318867571
v 1.324649406e-13 0.07949141979 0.4318867571
v 1.324647986e-13 0.07949141979 0.4318867571
v 1.324647986e-13 0.07949141979 0.4318867571
v -0.006004999876 0.07179999828 0.4114757806
v -0.007568662763 0.07179999828 0.4107227594
v -0.007954855561 0.07179999828 0.4090307409
v -0.00687276721 0.07179999828 0.4076738531
v -0.005137232542 0.07179999828 0.4076738531
v -0.004055144191 0.07179999828 0.4090307409
v -0.00444133699 0.07179999828 0.4107227594
v -0.006004999876 0.07599999905 0.4114757806
v -0.00444133699 0.07599999905 0.4107227594
v -0.004055144191 0.07599999905 0.4090307409
v -0.005137232542 0.07599999905 0.4076738531
v -0.00687276721 0.07599999905 0.4076738531
v -0.007954855561 0.07599999905 0.4090307409
v -0.007568662763 0.07599999905 0.4107227594
v -0.005137232542 0.07179999828 0.4076738531
v -0.005137232542 0.07599999905 0.4076738531
v 8.823172102e-14 0.08149999619 0.4278767473
v 0.003717785478 0.08149999619 0.4269603998
v 0.006583870649 0.08149999619 0.424421261
v 0.007941671014 0.08149999619 0.4208410532
v 0.007480130196 0.08149999619 0.4170399171
v 0.00530498147 0.08149999619 0.413888672
v 0.00191452533 0.08149999619 0.4121092111
v -0.00191452533 0.08149999619 0.4121092111
v -0.00530498147 0.08149999619 0.413888672
v -0.007480130196 0.08149999619 0.4170399171
v -0.007941671014 0.08149999619 0.4208410532
v -0.006583870649 0.08149999619 0.424421261
v -0.003717785478 0.08149999619 0.4269603998
v -8.825753222e-14 0.07619999886 0.4118767435
v 0.003717785478 0.07619999886 0.4127931101
v 0.006583870649 0.07619999886 0.4153322298
v 0.007941671014 0.07619999886 0.4189124567
v 0.007480130196 0.07619999886 0.4227135927
v 0.00530498147 0.07619999886 0.4258648378
v 0.00191452533 0.07619999886 0.4276442796
v -0.00191452533 0.07619999886 0.4276442796
v -0.00530498147 0.07619999886 0.4258648378
v -0.007480130196 0.07619999886 0.4227135927
v -0.007941671014 0.07619999886 0.4189124567
v -0.006583870649 0.07619999886 0.4153322298
v -0.003717785478 0.07619999886 0.4127931101
v 0.00191452533 0.08149999619 0.4121092111
v -8.825753222e-14 0.07619999886 0.4118767435
v -0.006004999876 0.08170000076 0.4114757806
v -0.00444133699 0.08170000076 0.4107227594
v -0.004055144191 0.08170000076 0.4090307409
v -0.005137232542 0.08170000076 0.4076738531
v -0.00687276721 0.08170000076 0.4076738531
v -0.007954855561 0.08170000076 0.4090307409
v -0.007568662763 0.08170000076 0.4107227594
v -0.0042729491 0.07800000191 0.4084757883
v -0.004143252373 0.07800000191 0.4102064687
v -0.005415489674 0.07800000191 0.4113869363
v -0.007131640315 0.07800000191 0.4111282617
v -0.007999407649 0.07800000191 0.4096252519
v -0.007365345359 0.07800000191 0.40800968
v -0.005706915259 0.07800000191 0.407498129
v -0.007131640315 0.07800000191 0.4111282617
v -0.007568662763 0.08170000076 0.4107227594
v -0.006004999876 0.07150000095 0.4325777132
v -0.007803212404 0.07150000095 0.4317117387
v -0.008247334361 0.07150000095 0.4297659189
v -0.007002932429 0.07150000095 0.4282054979
v -0.005007067323 0.07150000095 0.4282054979
v -0.003762665689 0.07150000095 0.4297659189
v -0.004206787646 0.07150000095 0.4317117387
v -0.006004999876 0.07179999828 0.4322777254
v -0.004441336989 0.07179999828 0.4315247041
v -0.004055144191 0.07179999828 0.4298326761
v -0.005137232542 0.07179999828 0.4284757883
v -0.00687276721 0.07179999828 0.4284757883
v -0.007954855561 0.07179999828 0.4298326761
v -0.007568662763 0.07179999828 0.4315247041
v -0.005007067323 0.07150000095 0.4282054979
v -0.005137232542 0.07179999828 0.4284757883
v -0.006004999876 0.07179999828 0.4322777254
v -0.007568662763 0.07179999828 0.4315247041
v -0.007954855561 0.07179999828 0.4298326761
v -0.00687276721 0.07179999828 0.4284757883
v -0.005137232542 0.07179999828 0.4284757883
v -0.004055144191 0.07179999828 0.4298326761
v -0.004441336989 0.07179999828 0.4315247041
v -0.006004999876 0.07599999905 0.4322777254
v -0.004441336989 0.07599999905 0.4315247041
v -0.004055144191 0.07599999905 0.4298326761
v -0.005137232542 0.07599999905 0.4284757883
v -0.00687276721 0.07599999905 0.4284757883
v -0.007954855561 0.07599999905 0.4298326761
v -0.007568662763 0.07599999905 0.4315247041
v -0.005137232542 0.07179999828 0.4284757883
v -0.005137232542 0.07599999905 0.4284757883
v -0.01122596502 0.07849999905 0.4273107034
v -0.01205096483 0.07849999905 0.425881756
v -0.01122596502 0.07849999905 0.4244528085
v -0.009575964808 0.07849999905 0.4244528085
v -0.008750964999 0.07849999905 0.425881756
v -0.009575964808 0.07849999905 0.4273107034
v -0.01040096521 0.07949141979 0.425881756
v -0.01122596502 0.07849999905 0.4273107034
v -0.01040096521 0.07949141979 0.425881756
v -0.01040096521 0.07949141979 0.425881756
v -0.01040096521 0.07949141979 0.425881756
v -0.01040096521 0.07949141979 0.425881756
v -0.01040096521 0.07949141979 0.425881756
v -0.01040096521 0.07949141979 0.425881756
v 0.01200999975 0.07599999905 0.4186267549
v 0.01319882035 0.07599999905 0.4194904787
v 0.0127447319 0.07599999905 0.4208880312
v 0.01127526879 0.07599999905 0.4208880312
v 0.01082117915 0.07599999905 0.4194904787
v 0.01200999975 0.07800000191 0.4186267549
v 0.01082117915 0.07800000191 0.4194904787
v 0.01127526879 0.07800000191 0.4208880312
v 0.0127447319 0.07800000191 0.4208880312
v 0.01319882035 0.07800000191 0.4194904787
v 0.01200999975 0.07800000191 0.4186267549
v 0.01200999975 0.07599999905 0.4186267549
v -8.825753222e-14 0.07619999886 0.4118767435
v -0.003717785478 0.07619999886 0.4127931101
v -0.006583870649 0.07619999886 0.4153322298
v -0.007941671014 0.07619999886 0.4189124567
v -0.007480130196 0.07619999886 0.4227135927
v -0.00530498147 0.07619999886 0.4258648378
v -0.00191452533 0.07619999886 0.4276442796
v 0.00191452533 0.07619999886 0.4276442796
v 0.00530498147 0.07619999886 0.4258648378
v 0.007480130196 0.07619999886 0.4227135927
v 0.007941671014 0.07619999886 0.4189124567
v 0.006583870649 0.07619999886 0.4153322298
v 0.003717785478 0.07619999886 0.4127931101
v -5.516555719e-14 0.07619999886 0.4148767549
v 0.00293892622 0.07619999886 0.415831669
v 0.0047552827 0.07619999886 0.418331669
v 0.0047552827 0.07619999886 0.4214218408
v 0.00293892622 0.07619999886 0.4239218408
v 5.513999312e-14 0.07619999886 0.4248767549
v -0.00293892622 0.07619999886 0.4239218408
v -0.0047552827 0.07619999886 0.4214218408
v -0.0047552827 0.07619999886 0.418331669
v -0.00293892622 0.07619999886 0.415831669
v 0.01200999975 0.08170000076 0.4218767435
v 0.01357366323 0.08170000076 0.4211237222
v 0.01395985603 0.08170000076 0.4194317133
v 0.01287776709 0.08170000076 0.4180748064
v 0.01114223242 0.08170000076 0.4180748064
v 0.01006014466 0.08170000076 0.4194317133
v 0.01044633746 0.08170000076 0.4211237222
v 0.01200999975 0.07800000191 0.4218767435
v 0.01044633746 0.07800000191 0.4211237222
v 0.01006014466 0.07800000191 0.4194317133
v 0.01114223242 0.07800000191 0.4180748064
v 0.01287776709 0.07800000191 0.4180748064
v 0.01395985603 0.07800000191 0.4194317133
v 0.01357366323 0.07800000191 0.4211237222
v 0.01114223242 0.08170000076 0.4180748064
v 0.01114223242 0.07800000191 0.4180748064
v 0.01200999975 0.07800000191 0.4218767435
v 0.01357366323 0.07800000191 0.4211237222
v 0.01395985603 0.07800000191 0.4194317133
v 0.01287776709 0.07800000191 0.4180748064
v 0.01114223242 0.07800000191 0.4180748064
v 0.01006014466 0.07800000191 0.4194317133
v 0.01044633746 0.07800000191 0.4211237222
v 0.01200999975 0.07800000191 0.4186267549
v 0.01319882035 0.07800000191 0.4194904787
v 0.0127447319 0.07800000191 0.4208880312
v 0.01127526879 0.07800000191 0.4208880312
v 0.01082117915 0.07800000191 0.4194904787
v -5.5165349e-14 0.07449999809 0.4148767549
v 0.00293892622 0.07449999809 0.415831669
v 0.0047552827 0.07449999809 0.418331669
v 0.0047552827 0.07449999809 0.4214218408
v 0.00293892622 0.07449999809 0.4239218408
v 5.514020131e-14 0.07449999809 0.4248767549
v -0.00293892622 0.07449999809 0.4239218408
v -0.0047552827 0.07449999809 0.4214218408
v -0.0047552827 0.07449999809 0.418331669
v -0.00293892622 0.07449999809 0.415831669
v -5.516555719e-14 0.07619999886 0.4148767549
v -0.00293892622 0.07619999886 0.415831669
v -0.0047552827 0.07619999886 0.418331669
v -0.0047552827 0.07619999886 0.4214218408
v -0.00293892622 0.07619999886 0.4239218408
v 5.513999312e-14 0.07619999886 0.4248767549
v 0.00293892622 0.07619999886 0.4239218408
v 0.0047552827 0.07619999886 0.4214218408
v 0.0047552827 0.07619999886 0.418331669
v 0.00293892622 0.07619999886 0.415831669
v -5.516555719e-14 0.07619999886 0.4148767549
v -5.5165349e-14 0.07449999809 0.4148767549
v 8.271772169e-14 0.07150000095 0.4273767549
v -0.003485423922 0.07150000095 0.426517666
v -0.006172379255 0.07150000095 0.4241372377
v -0.007445316315 0.07150000095 0.4207807809
v -0.00701262176 0.07150000095 0.4172172243
v -0.004973419905 0.07150000095 0.4142629129
v -0.001794867516 0.07150000095 0.4125946886
v 0.001794867515 0.07150000095 0.4125946886
v 0.004973419905 0.07150000095 0.4142629129
v 0.00701262176 0.07150000095 0.4172172243
v 0.007445316315 0.07150000095 0.4207807809
v 0.006172379255 0.07150000095 0.4241372377
v 0.003485423923 0.07150000095 0.426517666
v 7.720222609e-14 0.07199999809 0.4268767435
v 0.00349999994 0.07199999809 0.4259389383
v 0.006062178016 0.07199999809 0.4233767587
v 0.006999999881 0.07199999809 0.4198767549
v 0.006062178016 0.07199999809 0.4163767511
v 0.00349999994 0.07199999809 0.4138145715
v -7.722550227e-14 0.07199999809 0.4128767473
v -0.00349999994 0.07199999809 0.4138145715
v -0.006062178016 0.07199999809 0.4163767511
v -0.006999999881 0.07199999809 0.4198767549
v -0.006062178016 0.07199999809 0.4233767587
v -0.00349999994 0.07199999809 0.4259389383
v -0.001794867516 0.07150000095 0.4125946886
v -7.722550227e-14 0.07199999809 0.4128767473
v 7.720191993e-14 0.07449999809 0.4268767435
v -0.00349999994 0.07449999809 0.4259389383
v -0.006062178016 0.07449999809 0.4233767587
v -0.006999999881 0.07449999809 0.4198767549
v -0.006062178016 0.07449999809 0.4163767511
v -0.00349999994 0.07449999809 0.4138145715
v -7.722666569e-14 0.07449999809 0.4128767473
v 0.00349999994 0.07449999809 0.4138145715
v 0.006062178016 0.07449999809 0.4163767511
v 0.006999999881 0.07449999809 0.4198767549
v 0.006062178016 0.07449999809 0.4233767587
v 0.00349999994 0.07449999809 0.4259389383
v -5.5165349e-14 0.07449999809 0.4148767549
v -0.00293892622 0.07449999809 0.415831669
v -0.0047552827 0.07449999809 0.418331669
v -0.0047552827 0.07449999809 0.4214218408
v -0.00293892622 0.07449999809 0.4239218408
v 5.514020131e-14 0.07449999809 0.4248767549
v 0.00293892622 0.07449999809 0.4239218408
v 0.0047552827 0.07449999809 0.4214218408
v 0.0047552827 0.07449999809 0.418331669
v 0.00293892622 0.07449999809 0.415831669
v 7.720222609e-14 0.07199999809 0.4268767435
v -0.00349999994 0.07199999809 0.4259389383
v -0.006062178016 0.07199999809 0.4233767587
v -0.006999999881 0.07199999809 0.4198767549
v -0.006062178016 0.07199999809 0.4163767511
v -0.00349999994 0.07199999809 0.4138145715
v -7.722550227e-14 0.07199999809 0.4128767473
v 0.00349999994 0.07199999809 0.4138145715
v 0.006062178016 0.07199999809 0.4163767511
v 0.006999999881 0.07199999809 0.4198767549
v 0.006062178016 0.07199999809 0.4233767587
v 0.00349999994 0.07199999809 0.4259389383
v 7.720191993e-14 0.07449999809 0.4268767435
v 0.00349999994 0.07449999809 0.4259389383
v 0.006062178016 0.07449999809 0.4233767587
v 0.006999999881 0.07449999809 0.4198767549
v 0.006062178016 0.07449999809 0.4163767511
v 0.00349999994 0.07449999809 0.4138145715
v -7.722666569e-14 0.07449999809 0.4128767473
v -0.00349999994 0.07449999809 0.4138145715
v -0.006062178016 0.07449999809 0.4163767511
v -0.006999999881 0.07449999809 0.4198767549
v -0.006062178016 0.07449999809 0.4233767587
v -0.00349999994 0.07449999809 0.4259389383
v -7.722550227e-14 0.07199999809 0.4128767473
v -7.722666569e-14 0.07449999809 0.4128767473
v 0.009318028092 0.07449999809 0.4081219942
v 0.009318028092 0.07150000095 0.4081219942
v 0.009635134339 0.07150000095 0.4085598451
v 0.009678002596 0.07150000095 0.4090987569
v 0.009434103966 0.07150000095 0.4095812303
v 0.009434103966 0.07449999809 0.4095812303
v 0.009678002596 0.07449999809 0.4090987569
v 0.009635134339 0.07449999809 0.4085598451
v 0.004199127853 0.07150000095 0.4331946832
v 0.002991984785 0.07150000095 0.4293661195
v 0.002991984785 0.07449999809 0.4293661195
v 0.004199127853 0.07449999809 0.4331946832
v 0.00538628459 0.07449999809 0.4270870096
v 0.004803010225 0.07449999809 0.4274879915
v 0.004190028906 0.07449999809 0.4278419
v 0.003551131785 0.07449999809 0.4281465418
v 0.003551131785 0.07150000095 0.4281465418
v 0.004190028906 0.07150000095 0.4278419
v 0.004803010225 0.07150000095 0.4274879915
v 0.00538628459 0.07150000095 0.4270870096
v 0.009434103966 0.07449999809 0.4301722604
v 0.006722037792 0.07449999809 0.4272125703
v 0.006722037792 0.07150000095 0.4272125703
v 0.009434103966 0.07150000095 0.4301722604
v -0.006004999876 0.08170000076 0.4322777254
v -0.004441336989 0.08170000076 0.4315247041
v -0.004055144191 0.08170000076 0.4298326761
v -0.005137232542 0.08170000076 0.4284757883
v -0.00687276721 0.08170000076 0.4284757883
v -0.007954855561 0.08170000076 0.4298326761
v -0.007568662763 0.08170000076 0.4315247041
v -0.007737050652 0.07800000191 0.4292777139
v -0.006303084493 0.07800000191 0.4283000642
v -0.004644654393 0.07800000191 0.4288116151
v -0.004010592401 0.07800000191 0.4304271776
v -0.004878359735 0.07800000191 0.4319301874
v -0.006594510078 0.07800000191 0.432188862
v -0.007866747379 0.07800000191 0.4310084039
v -0.004010592401 0.07800000191 0.4304271776
v -0.004055144191 0.08170000076 0.4298326761
v 0.003629793823 0.08199999809 0.4364847261
v -0.001364229768 0.08199999809 0.4368219263
v -0.006239985823 0.08199999809 0.4356901247
v -0.01057478428 0.08199999809 0.4331874162
v -0.01399283528 0.08199999809 0.4295308
v -0.01619781852 0.08199999809 0.4250372392
v -0.01674551368 0.08149999619 0.424959839
v -0.01448568106 0.08149999619 0.429695862
v -0.01092335224 0.08149999619 0.4335489923
v -0.006378837824 0.08149999619 0.4361727792
v -0.001260763109 0.08149999619 0.4373312837
v 0.003970674873 0.08149999619 0.4369203264
v -0.009714022875 0.07449999809 0.4177232057
v -0.009714022875 0.07150000095 0.4177232057
v -0.009279860854 0.07150000095 0.4179400903
v -0.008998936415 0.07150000095 0.418335827
v -0.008937416077 0.07150000095 0.4188172228
v -0.008937416077 0.07449999809 0.4188172228
v -0.008998936415 0.07449999809 0.418335827
v -0.009279860854 0.07449999809 0.4179400903
v 0.009318028092 0.07449999809 0.4081219942
v 0.008125913143 0.07449999809 0.4072684366
v 0.006856161952 0.07449999809 0.4065353471
v 0.005520905256 0.07449999809 0.4059297258
v 0.005520905256 0.07150000095 0.4059297258
v 0.006856161952 0.07150000095 0.4065353471
v 0.008125913143 0.07150000095 0.4072684366
v 0.009318028092 0.07150000095 0.4081219942
v 0.006722037792 0.07449999809 0.4125409395
v 0.009434103966 0.07449999809 0.4095812303
v 0.009434103966 0.07150000095 0.4095812303
v 0.006722037792 0.07150000095 0.4125409395
v 0.005520905256 0.07449999809 0.433823784
v 0.005520905256 0.07150000095 0.433823784
v 0.004983163476 0.07150000095 0.4338794786
v 0.004495013952 0.07150000095 0.4336471445
v 0.004199127853 0.07150000095 0.4331946832
v 0.004199127853 0.07449999809 0.4331946832
v 0.004495013952 0.07449999809 0.4336471445
v 0.004983163476 0.07449999809 0.4338794786
v 0.00538628459 0.07449999809 0.4270870096
v 0.00538628459 0.07150000095 0.4270870096
v 0.005833950043 0.07150000095 0.4268995935
v 0.006317136288 0.07150000095 0.4269450075
v 0.006722037792 0.07150000095 0.4272125703
v 0.006722037792 0.07449999809 0.4272125703
v 0.006317136288 0.07449999809 0.4269450075
v 0.005833950043 0.07449999809 0.4268995935
v -0.007737050652 0.07800000191 0.4292777139
v -0.007866747379 0.07800000191 0.4310084039
v -0.006594510078 0.07800000191 0.432188862
v -0.004878359735 0.07800000191 0.4319301874
v -0.004010592401 0.07800000191 0.4304271776
v -0.004644654393 0.07800000191 0.4288116151
v -0.006303084493 0.07800000191 0.4283000642
v -0.006004999876 0.07800000191 0.4290277177
v -0.004816179275 0.07800000191 0.4298914415
v -0.005270268321 0.07800000191 0.431288994
v -0.006739731431 0.07800000191 0.431288994
v -0.007193820476 0.07800000191 0.4298914415
v -0.01456416607 0.08199999809 0.424195717
v -0.01456416607 0.08069999695 0.424195717
v -0.01516227961 0.08069999695 0.4247502977
v -0.01593207359 0.08069999695 0.4250199587
v -0.01674551368 0.08069999695 0.424959839
v -0.01674551368 0.08149999619 0.424959839
v -0.01619781852 0.08199999809 0.4250372392
v -0.01557189226 0.08199999809 0.4249378664
v -0.01500848293 0.08199999809 0.4246476442
v 0.003970674873 0.08069999695 0.4369203264
v 0.003511891961 0.08069999695 0.4362459261
v 0.003360523582 0.08069999695 0.4354444391
v 0.003541746438 0.08069999695 0.4346491701
v 0.003541746438 0.08199999809 0.4346491701
v 0.003372522593 0.08199999809 0.4352599222
v 0.003402888179 0.08199999809 0.4358929712
v 0.003629793823 0.08199999809 0.4364847261
v 0.003970674873 0.08149999619 0.4369203264
v 0.01256802559 0.08199999809 0.4084292776
v 0.0153570652 0.08199999809 0.4125856287
v 0.0168147707 0.08199999809 0.4173740465
v 0.0168147707 0.08199999809 0.4223794443
v 0.0153570652 0.08199999809 0.4271678812
v 0.01256802559 0.08199999809 0.4313242227
v 0.0127748394 0.08149999619 0.4318372423
v 0.01574644446 0.08149999619 0.4275121576
v 0.01730219007 0.08149999619 0.4225005228
v 0.01730219007 0.08149999619 0.417252968
v 0.01574644446 0.08149999619 0.4122413332
v 0.0127748394 0.08149999619 0.407916258
v -0.01255096555 0.07150000095 0.4138717538
v -0.01174146771 0.07150000095 0.4121908075
v -0.009922544956 0.07150000095 0.411775654
v -0.008463882208 0.07150000095 0.4129389078
v -0.008463882208 0.07150000095 0.4148045999
v -0.009922544956 0.07150000095 0.4159678537
v -0.01174146771 0.07150000095 0.4155526811
v -0.01205096483 0.07199999809 0.4138717538
v -0.01122596502 0.07199999809 0.4153007013
v -0.009575964809 0.07199999809 0.4153007013
v -0.008750964999 0.07199999809 0.4138717538
v -0.009575964809 0.07199999809 0.4124428064
v -0.01122596502 0.07199999809 0.4124428064
v -0.009575964809 0.07199999809 0.4124428064
v -0.009922544956 0.07150000095 0.411775654
v -0.009714022875 0.07449999809 0.4177232057
v -0.01363323212 0.07449999809 0.4168543321
v -0.01363323212 0.07150000095 0.4168543321
v -0.009714022875 0.07150000095 0.4177232057
v -0.008937416077 0.07449999809 0.4209362871
v -0.008993039131 0.07449999809 0.4202306635
v -0.008993039131 0.07449999809 0.4195228464
v -0.008937416077 0.07449999809 0.4188172228
v -0.008937416077 0.07150000095 0.4188172228
v -0.008993039131 0.07150000095 0.4195228464
v -0.008993039131 0.07150000095 0.4202306635
v -0.008937416077 0.07150000095 0.4209362871
v 0.004199127853 0.07449999809 0.4065588171
v 0.004199127853 0.07150000095 0.4065588171
v 0.004495013952 0.07150000095 0.4061063558
v 0.004983163476 0.07150000095 0.4058740312
v 0.005520905256 0.07150000095 0.4059297258
v 0.005520905256 0.07449999809 0.4059297258
v 0.004983163476 0.07449999809 0.4058740312
v 0.004495013952 0.07449999809 0.4061063558
v 0.006722037792 0.07449999809 0.4125409395
v 0.006722037792 0.07150000095 0.4125409395
v 0.006317136288 0.07150000095 0.4128084833
v 0.005833950043 0.07150000095 0.4128539163
v 0.00538628459 0.07150000095 0.4126664812
v 0.00538628459 0.07449999809 0.4126664812
v 0.005833950043 0.07449999809 0.4128539163
v 0.006317136288 0.07449999809 0.4128084833
v 0.009318028093 0.07150000095 0.4316315157
v 0.008125913143 0.07150000095 0.4324850732
v 0.006856161952 0.07150000095 0.4332181627
v 0.005520905256 0.07150000095 0.433823784
v 0.005520905256 0.07449999809 0.433823784
v 0.006856161952 0.07449999809 0.4332181627
v 0.008125913143 0.07449999809 0.4324850732
v 0.009318028093 0.07449999809 0.4316315157
v 0.009318028093 0.07449999809 0.4316315157
v 0.008125913143 0.07449999809 0.4324850732
v 0.006856161952 0.07449999809 0.4332181627
v 0.005520905256 0.07449999809 0.433823784
v 0.004983163476 0.07449999809 0.4338794786
v 0.004495013952 0.07449999809 0.4336471445
v 0.004199127853 0.07449999809 0.4331946832
v 0.002991984785 0.07449999809 0.4293661195
v 0.002962724567 0.07449999809 0.4288816911
v 0.00316498667 0.07449999809 0.4284405214
v 0.003551131785 0.07449999809 0.4281465418
v 0.004190028906 0.07449999809 0.4278419
v 0.004803010225 0.07449999809 0.4274879915
v 0.00538628459 0.07449999809 0.4270870096
v 0.005833950043 0.07449999809 0.4268995935
v 0.006317136288 0.07449999809 0.4269450075
v 0.006722037792 0.07449999809 0.4272125703
v 0.009434103966 0.07449999809 0.4301722604
v 0.009678002596 0.07449999809 0.4306547434
v 0.009635134339 0.07449999809 0.4311936647
v -0.006004999876 0.07599999905 0.4290277177
v -0.004816179275 0.07599999905 0.4298914415
v -0.005270268321 0.07599999905 0.431288994
v -0.006739731431 0.07599999905 0.431288994
v -0.007193820476 0.07599999905 0.4298914415
v -0.006004999876 0.07800000191 0.4290277177
v -0.007193820476 0.07800000191 0.4298914415
v -0.006739731431 0.07800000191 0.431288994
v -0.005270268321 0.07800000191 0.431288994
v -0.004816179275 0.07800000191 0.4298914415
v -0.006004999876 0.07800000191 0.4290277177
v -0.006004999876 0.07599999905 0.4290277177
v -0.01321352482 0.08199999809 0.4226431162
v -0.01321352482 0.08069999695 0.4226431162
v -0.01369730592 0.08069999695 0.4231308061
v -0.0141481626 0.08069999695 0.4236490709
v -0.01456416607 0.08069999695 0.424195717
v -0.01456416607 0.08199999809 0.424195717
v -0.0141481626 0.08199999809 0.4236490709
v -0.01369730592 0.08199999809 0.4231308061
v 0.0127748394 0.08069999695 0.4318372423
v 0.01242018223 0.08069999695 0.4311027223
v 0.01180175543 0.08069999695 0.4305708963
v 0.01102241993 0.08069999695 0.430330208
v 0.01034100771 0.08069999695 0.430243252
v 0.009666740298 0.08069999695 0.4301119501
v 0.009002501965 0.08069999695 0.4299368173
v 0.008478776813 0.08069999695 0.4303820116
v 0.00793307066 0.08069999695 0.4307999498
v 0.00736679852 0.08069999695 0.431189583
v 0.008471217156 0.08069999695 0.4321674234
v 0.007875000239 0.08069999695 0.4335166437
v 0.006408423185 0.08069999695 0.4333583719
v 0.006113805175 0.08069999695 0.4319130022
v 0.00549323678 0.08069999695 0.4322086031
v 0.004858427644 0.08069999695 0.4324722177
v 0.004211022854 0.08069999695 0.4327031786
v 0.004030565322 0.08069999695 0.4333659822
v 0.003807154298 0.08069999695 0.434015587
v 0.003541746438 0.08069999695 0.4346491701
v 0.003360523582 0.08069999695 0.4354444391
v 0.003511891961 0.08069999695 0.4362459261
v 0.003970674873 0.08069999695 0.4369203264
v 0.007221388221 0.08069999695 0.4358173067
v 0.01019423842 0.08069999695 0.4341009409
v 0.003541746438 0.08199999809 0.4346491701
v 0.003541746438 0.08069999695 0.4346491701
v 0.003807154298 0.08069999695 0.434015587
v 0.004030565322 0.08069999695 0.4333659822
v 0.004211022854 0.08069999695 0.4327031786
v 0.004211022854 0.08199999809 0.4327031786
v 0.004030565322 0.08199999809 0.4333659822
v 0.003807154298 0.08199999809 0.434015587
v 0.003970674872 0.08149999619 0.4028331644
v -0.001260763109 0.08149999619 0.4024222261
v -0.006378837824 0.08149999619 0.4035807306
v -0.01092335224 0.08149999619 0.406204508
v -0.01448568106 0.08149999619 0.4100576383
v -0.01674551368 0.08149999619 0.4147936708
v -0.01619781852 0.08199999809 0.4147162706
v -0.01399283528 0.08199999809 0.4102227098
v -0.01057478428 0.08199999809 0.4065660841
v -0.006239985824 0.08199999809 0.4040633852
v -0.001364229769 0.08199999809 0.4029315836
v 0.003629793823 0.08199999809 0.4032687837
v -2.040783433e-13 0.07150000095 0.4013767511
v 0.005716814399 0.07150000095 0.4022822076
v 0.01087402701 0.07150000095 0.4049099332
v 0.01496681452 0.07150000095 0.4090027219
v 0.01759454608 0.07150000095 0.4141599352
v 0.01850000024 0.07150000095 0.4198767549
v 0.01759454608 0.07150000095 0.4255935747
v 0.01496681452 0.07150000095 0.4307507784
v 0.01087402701 0.07150000095 0.4348435671
v 0.005716814399 0.07150000095 0.4374713022
v 2.040522771e-13 0.07150000095 0.4383767587
v -0.005716814399 0.07150000095 0.4374713022
v -0.01087402701 0.07150000095 0.4348435671
v -0.01496681452 0.07150000095 0.4307507784
v -0.01759454608 0.07150000095 0.4255935747
v -0.01850000024 0.07150000095 0.4198767549
v -0.01759454608 0.07150000095 0.4141599352
v -0.01496681452 0.07150000095 0.4090027219
v -0.01087402701 0.07150000095 0.4049099332
v -0.005716814399 0.07150000095 0.4022822076
v 0.003551131785 0.07150000095 0.4281465418
v 0.00316498667 0.07150000095 0.4284405214
v 0.002962724567 0.07150000095 0.4288816911
v 0.002991984785 0.07150000095 0.4293661195
v 0.004199127853 0.07150000095 0.4331946832
v 0.004495013952 0.07150000095 0.4336471445
v 0.004983163476 0.07150000095 0.4338794786
v 0.005520905256 0.07150000095 0.433823784
v 0.006856161952 0.07150000095 0.4332181627
v 0.008125913143 0.07150000095 0.4324850732
v 0.009318028093 0.07150000095 0.4316315157
v 0.009635134339 0.07150000095 0.4311936647
v 0.009678002596 0.07150000095 0.4306547434
v 0.009434103966 0.07150000095 0.4301722604
v 0.006722037792 0.07150000095 0.4272125703
v 0.006317136288 0.07150000095 0.4269450075
v 0.005833950043 0.07150000095 0.4268995935
v 0.00538628459 0.07150000095 0.4270870096
v 0.004803010225 0.07150000095 0.4274879915
v 0.004190028906 0.07150000095 0.4278419
v 0.009434103966 0.07150000095 0.4095812303
v 0.009678002596 0.07150000095 0.4090987569
v 0.009635134339 0.07150000095 0.4085598451
v 0.009318028092 0.07150000095 0.4081219942
v 0.008125913143 0.07150000095 0.4072684366
v 0.006856161952 0.07150000095 0.4065353471
v 0.005520905256 0.07150000095 0.4059297258
v 0.004983163476 0.07150000095 0.4058740312
v 0.004495013952 0.07150000095 0.4061063558
v 0.004199127853 0.07150000095 0.4065588171
v 0.002991984784 0.07150000095 0.4103873903
v 0.002962724566 0.07150000095 0.4108718187
v 0.00316498667 0.07150000095 0.4113129884
v 0.003551131785 0.07150000095 0.4116069681
v 0.004190028906 0.07150000095 0.4119115907
v 0.004803010225 0.07150000095 0.4122654993
v 0.00538628459 0.07150000095 0.4126664812
v 0.005833950043 0.07150000095 0.4128539163
v 0.006317136288 0.07150000095 0.4128084833
v 0.006722037792 0.07150000095 0.4125409395
v -0.008937416077 0.07150000095 0.4188172228
v -0.008998936415 0.07150000095 0.418335827
v -0.009279860854 0.07150000095 0.4179400903
v -0.009714022875 0.07150000095 0.4177232057
v -0.01363323212 0.07150000095 0.4168543321
v -0.01417301655 0.07150000095 0.4168843538
v -0.01461829782 0.07150000095 0.417190941
v -0.01483893394 0.07150000095 0.4176844865
v -0.01498207569 0.07150000095 0.4191436655
v -0.01498207569 0.07150000095 0.4206098444
v -0.01483893394 0.07150000095 0.4220690233
v -0.01461829782 0.07150000095 0.4225625688
v -0.01417301655 0.07150000095 0.422869156
v -0.01363323212 0.07150000095 0.4228991586
v -0.009714022875 0.07150000095 0.4220303041
v -0.009279860854 0.07150000095 0.4218134195
v -0.008998936415 0.07150000095 0.4214176828
v -0.008937416077 0.07150000095 0.4209362871
v -0.008993039131 0.07150000095 0.4202306635
v -0.008993039131 0.07150000095 0.4195228464
v -0.01255096555 0.07150000095 0.4138717538
v -0.01174146771 0.07150000095 0.4155526811
v -0.009922544956 0.07150000095 0.4159678537
v -0.008463882208 0.07150000095 0.4148045999
v -0.008463882208 0.07150000095 0.4129389078
v -0.009922544956 0.07150000095 0.411775654
v -0.01174146771 0.07150000095 0.4121908075
v -1.087737834e-13 0.07150000095 0.4100167543
v 0.001680937707 0.07150000095 0.4092072565
v 0.002096095085 0.07150000095 0.4073883325
v 0.000932850018 0.07150000095 0.4059296686
v -0.0009328500183 0.07150000095 0.4059296686
v -0.002096095085 0.07150000095 0.4073883325
v -0.001680937708 0.07150000095 0.4092072565
v 0.009325965047 0.07150000095 0.4157337076
v 0.01118644834 0.07150000095 0.4158731348
v 0.01245544672 0.07150000095 0.4145054704
v 0.01217737794 0.07150000095 0.4126606065
v 0.0105616343 0.07150000095 0.4117277605
v 0.008824903369 0.07150000095 0.4124093897
v 0.008274978995 0.07150000095 0.4141921884
v 0.00825096488 0.07150000095 0.425881756
v 0.009060462117 0.07150000095 0.4275626833
v 0.01087938547 0.07150000095 0.4279778558
v 0.01233804822 0.07150000095 0.4268146021
v 0.01233804822 0.07150000095 0.4249489099
v 0.01087938547 0.07150000095 0.4237856561
v 0.009060462117 0.07150000095 0.4242008096
v 1.561816664e-13 0.07150000095 0.4340367586
v 0.001680937708 0.07150000095 0.4332272607
v 0.002096095085 0.07150000095 0.4314083368
v 0.0009328500183 0.07150000095 0.4299496729
v -0.000932850018 0.07150000095 0.4299496729
v -0.002096095085 0.07150000095 0.4314083368
v -0.001680937707 0.07150000095 0.4332272607
v -0.01147596478 0.07150000095 0.4277437097
v -0.009615482092 0.07150000095 0.4278831369
v -0.008346483707 0.07150000095 0.4265154726
v -0.008624551892 0.07150000095 0.4246706087
v -0.01024029493 0.07150000095 0.4237377626
v -0.01197702646 0.07150000095 0.4244193727
v -0.01252695084 0.07150000095 0.4262021906
v -0.006004999876 0.07150000095 0.4117757875
v -0.004206787646 0.07150000095 0.4109098131
v -0.003762665689 0.07150000095 0.4089639932
v -0.005007067323 0.07150000095 0.4074035627
v -0.007002932429 0.07150000095 0.4074035627
v -0.008247334361 0.07150000095 0.4089639932
v -0.007803212404 0.07150000095 0.4109098131
v -0.006004999876 0.07150000095 0.4325777132
v -0.004206787646 0.07150000095 0.4317117387
v -0.003762665689 0.07150000095 0.4297659189
v -0.005007067323 0.07150000095 0.4282054979
v -0.007002932429 0.07150000095 0.4282054979
v -0.008247334361 0.07150000095 0.4297659189
v -0.007803212404 0.07150000095 0.4317117387
v 0.01200999975 0.07150000095 0.4221767503
v 0.01380821228 0.07150000095 0.4213107759
v 0.01425233364 0.07150000095 0.4193649561
v 0.0130079329 0.07150000095 0.417804516
v 0.01101206779 0.07150000095 0.417804516
v 0.009767665863 0.07150000095 0.4193649561
v 0.01021178722 0.07150000095 0.4213107759
v 8.271772169e-14 0.07150000095 0.4273767549
v 0.003485423923 0.07150000095 0.426517666
v 0.006172379255 0.07150000095 0.4241372377
v 0.007445316315 0.07150000095 0.4207807809
v 0.00701262176 0.07150000095 0.4172172243
v 0.004973419905 0.07150000095 0.4142629129
v 0.001794867515 0.07150000095 0.4125946886
v -0.001794867516 0.07150000095 0.4125946886
v -0.004973419905 0.07150000095 0.4142629129
v -0.00701262176 0.07150000095 0.4172172243
v -0.007445316315 0.07150000095 0.4207807809
v -0.006172379255 0.07150000095 0.4241372377
v -0.003485423922 0.07150000095 0.426517666
v -2.040787719e-13 0.075 0.4013767511
v 0.005716814399 0.075 0.4022822076
v 0.01087402701 0.075 0.4049099332
v 0.01496681452 0.075 0.4090027219
v 0.01759454608 0.075 0.4141599352
v 0.01850000024 0.075 0.4198767549
v 0.01759454608 0.075 0.4255935747
v 0.01496681452 0.075 0.4307507784
v 0.01087402701 0.075 0.4348435671
v 0.005716814399 0.075 0.4374713022
v 2.040518485e-13 0.075 0.4383767587
v -0.005716814399 0.075 0.4374713022
v -0.01087402701 0.075 0.4348435671
v -0.01496681452 0.075 0.4307507784
v -0.01759454608 0.075 0.4255935747
v -0.01850000024 0.075 0.4198767549
v -0.01759454608 0.075 0.4141599352
v -0.01496681452 0.075 0.4090027219
v -0.01087402701 0.075 0.4049099332
v -0.005716814399 0.075 0.4022822076
v -2.040783433e-13 0.07150000095 0.4013767511
v -0.005716814399 0.07150000095 0.4022822076
v -0.01087402701 0.07150000095 0.4049099332
v -0.01496681452 0.07150000095 0.4090027219
v -0.01759454608 0.07150000095 0.4141599352
v -0.01850000024 0.07150000095 0.4198767549
v -0.01759454608 0.07150000095 0.4255935747
v -0.01496681452 0.07150000095 0.4307507784
v -0.01087402701 0.07150000095 0.4348435671
v -0.005716814399 0.07150000095 0.4374713022
v 2.040522771e-13 0.07150000095 0.4383767587
v 0.005716814399 0.07150000095 0.4374713022
v 0.01087402701 0.07150000095 0.4348435671
v 0.01496681452 0.07150000095 0.4307507784
v 0.01759454608 0.07150000095 0.4255935747
v 0.01850000024 0.07150000095 0.4198767549
v 0.01759454608 0.07150000095 0.4141599352
v 0.01496681452 0.07150000095 0.4090027219
v 0.01087402701 0.07150000095 0.4049099332
v 0.005716814399 0.07150000095 0.4022822076
v -2.040783433e-13 0.07150000095 0.4013767511
v -2.040787719e-13 0.075 0.4013767511
v -2.040787719e-13 0.075 0.4013767511
v -0.005716814399 0.075 0.4022822076
v -0.01087402701 0.075 0.4049099332
v -0.01496681452 0.075 0.4090027219
v -0.01759454608 0.075 0.4141599352
v -0.01850000024 0.075 0.4198767549
v -0.01759454608 0.075 0.4255935747
v -0.01496681452 0.075 0.4307507784
v -0.01087402701 0.075 0.4348435671
v -0.005716814399 0.075 0.4374713022
v 2.040518485e-13 0.075 0.4383767587
v 0.005716814399 0.075 0.4374713022
v 0.01087402701 0.075 0.4348435671
v 0.01496681452 0.075 0.4307507784
v 0.01759454608 0.075 0.4255935747
v 0.01850000024 0.075 0.4198767549
v 0.01759454608 0.075 0.4141599352
v 0.01496681452 0.075 0.4090027219
v 0.01087402701 0.075 0.4049099332
v 0.005716814399 0.075 0.4022822076
v 1.930234557e-13 0.075 0.4373767549
v -0.005682240724 0.075 0.4364285547
v -0.01074872255 0.075 0.4336867029
v -0.0146504128 0.075 0.4294483453
v -0.01696450472 0.075 0.4241727525
v -0.01744022846 0.075 0.4184316141
v -0.01602603316 0.075 0.412847088
v -0.01287516832 0.075 0.4080243284
v -0.008329079151 0.075 0.4044859583
v -0.002880405188 0.075 0.402615431
v 0.002880405187 0.075 0.402615431
v 0.008329079151 0.075 0.4044859583
v 0.01287516832 0.075 0.4080243284
v 0.01602603316 0.075 0.412847088
v 0.01744022846 0.075 0.4184316141
v 0.01696450472 0.075 0.4241727525
v 0.0146504128 0.075 0.4294483453
v 0.01074872255 0.075 0.4336867029
v 0.005682240725 0.075 0.4364285547
v 0.003970674873 0.08149999619 0.4369203264
v -0.001260763109 0.08149999619 0.4373312837
v -0.006378837824 0.08149999619 0.4361727792
v -0.01092335224 0.08149999619 0.4335489923
v -0.01448568106 0.08149999619 0.429695862
v -0.01674551368 0.08149999619 0.424959839
v -0.01674551368 0.08069999695 0.424959839
v -0.01741562724 0.08069999695 0.4215931207
v -0.01741562724 0.08069999695 0.41816037
v -0.01674551368 0.08069999695 0.4147936708
v -0.01674551368 0.08149999619 0.4147936708
v -0.01448568106 0.08149999619 0.4100576383
v -0.01092335224 0.08149999619 0.406204508
v -0.006378837824 0.08149999619 0.4035807306
v -0.001260763109 0.08149999619 0.4024222261
v 0.003970674872 0.08149999619 0.4028331644
v 0.003970674872 0.08069999695 0.4028331644
v 0.007221388221 0.08069999695 0.4039361936
v 0.01019423842 0.08069999695 0.405652569
v 0.0127748394 0.08069999695 0.407916258
v 0.0127748394 0.08149999619 0.407916258
v 0.01574644446 0.08149999619 0.4122413332
v 0.01730219007 0.08149999619 0.417252968
v 0.01730219007 0.08149999619 0.4225005228
v 0.01574644446 0.08149999619 0.4275121576
v 0.0127748394 0.08149999619 0.4318372423
v 0.0127748394 0.08069999695 0.4318372423
v 0.01019423842 0.08069999695 0.4341009409
v 0.007221388221 0.08069999695 0.4358173067
v 0.003970674873 0.08069999695 0.4369203264
v 1.930234557e-13 0.075 0.4373767549
v 0.005682240725 0.075 0.4364285547
v 0.01074872255 0.075 0.4336867029
v 0.0146504128 0.075 0.4294483453
v 0.01696450472 0.075 0.4241727525
v 0.01744022846 0.075 0.4184316141
v 0.01602603316 0.075 0.412847088
v 0.01287516832 0.075 0.4080243284
v 0.008329079151 0.075 0.4044859583
v 0.002880405187 0.075 0.402615431
v -0.002880405188 0.075 0.402615431
v -0.008329079151 0.075 0.4044859583
v -0.01287516832 0.075 0.4080243284
v -0.01602603316 0.075 0.412847088
v -0.01744022846 0.075 0.4184316141
v -0.01696450472 0.075 0.4241727525
v -0.0146504128 0.075 0.4294483453
v -0.01074872255 0.075 0.4336867029
v -0.005682240724 0.075 0.4364285547
v 0.002880405187 0.075 0.402615431
v 0.003970674872 0.08149999619 0.4028331644
v -0.01674551368 0.08069999695 0.424959839
v -0.01593207359 0.08069999695 0.4250199587
v -0.01516227961 0.08069999695 0.4247502977
v -0.01456416607 0.08069999695 0.424195717
v -0.0141481626 0.08069999695 0.4236490709
v -0.01369730592 0.08069999695 0.4231308061
v -0.01321352482 0.08069999695 0.4226431162
v -0.01333720446 0.08069999695 0.4219669611
v -0.01342630744 0.08069999695 0.4212853891
v -0.01348060369 0.08069999695 0.4206001741
v -0.01487964034 0.08069999695 0.4210677034
v -0.01575000048 0.08069999695 0.4198767549
v -0.01487964034 0.08069999695 0.4186858064
v -0.01348060369 0.08069999695 0.4191533357
v -0.01342630744 0.08069999695 0.4184681207
v -0.01333720446 0.08069999695 0.4177865488
v -0.01321352482 0.08069999695 0.4171103937
v -0.01369730592 0.08069999695 0.4166227037
v -0.0141481626 0.08069999695 0.4161044389
v -0.01456416607 0.08069999695 0.4155577928
v -0.01516227961 0.08069999695 0.4150032121
v -0.01593207359 0.08069999695 0.4147335512
v -0.01674551368 0.08069999695 0.4147936708
v -0.01741562724 0.08069999695 0.41816037
v -0.01741562724 0.08069999695 0.4215931207
v -0.01674551368 0.08069999695 0.4147936708
v -0.01593207359 0.08069999695 0.4147335512
v -0.01516227961 0.08069999695 0.4150032121
v -0.01456416607 0.08069999695 0.4155577928
v -0.01456416607 0.08199999809 0.4155577928
v -0.01500848293 0.08199999809 0.4151058466
v -0.01557189226 0.08199999809 0.4148156244
v -0.01619781852 0.08199999809 0.4147162706
v -0.01674551368 0.08149999619 0.4147936708
v 0.007912938595 0.08199999809 0.4089389593
v 0.006868852973 0.08199999809 0.4090273744
v 0.005961411595 0.08199999809 0.4085034639
v 0.005515940189 0.08199999809 0.4075550443
v 0.005086870193 0.08199999809 0.4073718053
v 0.004651724696 0.08199999809 0.4072034914
v 0.004211022854 0.08199999809 0.4070503217
v 0.004030565321 0.08199999809 0.4063875181
v 0.003807154298 0.08199999809 0.4057379228
v 0.003541746437 0.08199999809 0.4051043302
v 0.003372522592 0.08199999809 0.4044935781
v 0.003402888179 0.08199999809 0.4038605386
v 0.003629793823 0.08199999809 0.4032687837
v -0.001364229769 0.08199999809 0.4029315836
v -0.006239985824 0.08199999809 0.4040633852
v -0.01057478428 0.08199999809 0.4065660841
v -0.01399283528 0.08199999809 0.4102227098
v -0.01619781852 0.08199999809 0.4147162706
v -0.01557189226 0.08199999809 0.4148156244
v -0.01500848293 0.08199999809 0.4151058466
v -0.01456416607 0.08199999809 0.4155577928
v -0.0141481626 0.08199999809 0.4161044389
v -0.01369730592 0.08199999809 0.4166227037
v -0.01321352482 0.08199999809 0.4171103937
v -0.0133012259 0.08199999809 0.4175686342
v -0.01337303877 0.08199999809 0.4180296404
v -0.01342887878 0.08199999809 0.41849284
v -0.01283026457 0.08199999809 0.4193528444
v -0.01283026457 0.08199999809 0.4204006654
v -0.01342887878 0.08199999809 0.4212606508
v -0.01337303877 0.08199999809 0.4217238695
v -0.0133012259 0.08199999809 0.4221848756
v -0.01321352482 0.08199999809 0.4226431162
v -0.01369730592 0.08199999809 0.4231308061
v -0.0141481626 0.08199999809 0.4236490709
v -0.01456416607 0.08199999809 0.424195717
v -0.01500848293 0.08199999809 0.4246476442
v -0.01557189226 0.08199999809 0.4249378664
v -0.01619781852 0.08199999809 0.4250372392
v -0.01399283528 0.08199999809 0.4295308
v -0.01057478428 0.08199999809 0.4331874162
v -0.006239985823 0.08199999809 0.4356901247
v -0.001364229768 0.08199999809 0.4368219263
v 0.003629793823 0.08199999809 0.4364847261
v 0.003402888179 0.08199999809 0.4358929712
v 0.003372522593 0.08199999809 0.4352599222
v 0.003541746438 0.08199999809 0.4346491701
v 0.003807154298 0.08199999809 0.434015587
v 0.004030565322 0.08199999809 0.4333659822
v 0.004211022854 0.08199999809 0.4327031786
v 0.004651724696 0.08199999809 0.4325500185
v 0.005086870194 0.08199999809 0.432381695
v 0.005515940189 0.08199999809 0.432198456
v 0.005961411595 0.08199999809 0.4312500459
v 0.006868852973 0.08199999809 0.4307261354
v 0.007912938595 0.08199999809 0.430814541
v 0.008286167979 0.08199999809 0.4305345804
v 0.008649500609 0.08199999809 0.4302418977
v 0.009002501965 0.08199999809 0.4299368173
v 0.009666740298 0.08199999809 0.4301119501
v 0.01034100771 0.08199999809 0.430243252
v 0.01102241993 0.08199999809 0.430330208
v 0.01163596034 0.08199999809 0.4304890329
v 0.01216900468 0.08199999809 0.4308318407
v 0.01256802559 0.08199999809 0.4313242227
v 0.0153570652 0.08199999809 0.4271678812
v 0.0168147707 0.08199999809 0.4223794443
v 0.0168147707 0.08199999809 0.4173740465
v 0.0153570652 0.08199999809 0.4125856287
v 0.01256802559 0.08199999809 0.4084292776
v 0.01216900468 0.08199999809 0.4089216596
v 0.01163596034 0.08199999809 0.4092644769
v 0.01102241993 0.08199999809 0.4094233019
v 0.01034100771 0.08199999809 0.4095102483
v 0.009666740298 0.08199999809 0.4096415598
v 0.009002501964 0.08199999809 0.409816683
v 0.008649500608 0.08199999809 0.4095116121
v 0.008286167979 0.08199999809 0.4092189199
v -0.006004999876 0.08199999809 0.4117757875
v -0.007803212404 0.08199999809 0.4109098131
v -0.008247334361 0.08199999809 0.4089639932
v -0.007002932429 0.08199999809 0.4074035627
v -0.005007067323 0.08199999809 0.4074035627
v -0.003762665689 0.08199999809 0.4089639932
v -0.004206787646 0.08199999809 0.4109098131
v 0.01200999975 0.08199999809 0.4221767503
v 0.01021178722 0.08199999809 0.4213107759
v 0.009767665863 0.08199999809 0.4193649561
v 0.01101206779 0.08199999809 0.417804516
v 0.0130079329 0.08199999809 0.417804516
v 0.01425233364 0.08199999809 0.4193649561
v 0.01380821228 0.08199999809 0.4213107759
v -0.006004999876 0.08199999809 0.4325777132
v -0.007803212404 0.08199999809 0.4317117387
v -0.008247334361 0.08199999809 0.4297659189
v -0.007002932429 0.08199999809 0.4282054979
v -0.005007067323 0.08199999809 0.4282054979
v -0.003762665689 0.08199999809 0.4297659189
v -0.004206787646 0.08199999809 0.4317117387
v 9.374709416e-14 0.08199999809 0.4283767587
v -0.003950147033 0.08199999809 0.4274031335
v -0.006995362639 0.08199999809 0.4247053033
v -0.008438025713 0.08199999809 0.4209013063
v -0.007947638035 0.08199999809 0.41686261
v -0.00563654244 0.08199999809 0.4135144121
v -0.002034183145 0.08199999809 0.4116237528
v 0.002034183144 0.08199999809 0.4116237528
v 0.005636542439 0.08199999809 0.4135144121
v 0.007947638035 0.08199999809 0.41686261
v 0.008438025713 0.08199999809 0.4209013063
v 0.006995362639 0.08199999809 0.4247053033
v 0.003950147033 0.08199999809 0.4274031335
v 0.002991984785 0.07449999809 0.4293661195
v 0.002991984785 0.07150000095 0.4293661195
v 0.002962724567 0.07150000095 0.4288816911
v 0.00316498667 0.07150000095 0.4284405214
v 0.003551131785 0.07150000095 0.4281465418
v 0.003551131785 0.07449999809 0.4281465418
v 0.00316498667 0.07449999809 0.4284405214
v 0.002962724567 0.07449999809 0.4288816911
v -0.006004999876 0.08170000076 0.4322777254
v -0.007568662763 0.08170000076 0.4315247041
v -0.007954855561 0.08170000076 0.4298326761
v -0.00687276721 0.08170000076 0.4284757883
v -0.005137232542 0.08170000076 0.4284757883
v -0.004055144191 0.08170000076 0.4298326761
v -0.004441336989 0.08170000076 0.4315247041
v -0.006004999876 0.08199999809 0.4325777132
v -0.004206787646 0.08199999809 0.4317117387
v -0.003762665689 0.08199999809 0.4297659189
v -0.005007067323 0.08199999809 0.4282054979
v -0.007002932429 0.08199999809 0.4282054979
v -0.008247334361 0.08199999809 0.4297659189
v -0.007803212404 0.08199999809 0.4317117387
v -0.005137232542 0.08170000076 0.4284757883
v -0.005007067323 0.08199999809 0.4282054979
f 2 13 1
f 1 13 7
f 1 7 8
f 13 2 12
f 12 2 3
f 12 3 11
f 11 3 14
f 11 14 10
f 15 4 5
f 15 5 9
f 9 5 6
f 9 6 8
f 8 6 1
f 17 27 16
f 16 27 29
f 28 22 21
f 21 22 23
f 21 23 20
f 20 23 24
f 20 24 19
f 19 24 25
f 19 25 18
f 18 25 26
f 18 26 17
f 17 26 27
f 30 31 37
f 37 31 32
f 37 32 33
f 34 35 33
f 33 35 36
f 33 36 37
f 38 39 45
f 45 39 40
f 45 40 44
f 44 40 41
f 44 41 43
f 43 41 42
f 47 48 46
f 46 48 49
f 57 50 56
f 56 50 51
f 56 51 55
f 55 51 52
f 55 52 54
f 54 52 53
f 77 58 75
f 75 58 59
f 75 59 70
f 70 59 69
f 69 59 60
f 69 60 64
f 64 60 61
f 64 61 62
f 62 63 64
f 64 65 69
f 69 65 68
f 68 65 67
f 67 65 66
f 75 70 74
f 74 70 71
f 74 71 72
f 72 73 74
f 75 76 77
f 78 79 85
f 85 79 80
f 85 80 81
f 82 83 81
f 81 83 84
f 81 84 85
f 87 95 86
f 86 95 96
f 86 96 92
f 92 96 97
f 92 97 91
f 91 97 90
f 90 97 93
f 90 93 89
f 89 93 94
f 89 94 88
f 88 94 87
f 87 94 95
f 105 98 104
f 104 98 99
f 104 99 100
f 104 100 103
f 103 100 101
f 103 101 102
f 106 107 113
f 113 107 108
f 113 108 112
f 112 108 109
f 112 109 111
f 111 109 110
f 115 116 114
f 114 116 117
f 114 117 122
f 122 117 118
f 122 118 121
f 121 118 119
f 121 119 120
f 123 124 131
f 131 124 125
f 131 125 130
f 130 125 126
f 130 126 129
f 129 126 128
f 128 126 127
f 132 133 140
f 140 133 134
f 140 134 139
f 139 134 135
f 139 135 138
f 138 135 136
f 138 136 137
f 142 150 141
f 153 149 142
f 145 152 144
f 141 151 145
f 144 154 143
f 155 156 163
f 163 156 157
f 163 157 162
f 162 157 158
f 162 158 161
f 161 158 160
f 160 158 159
f 170 164 171
f 171 164 165
f 171 165 176
f 176 165 166
f 176 166 175
f 175 166 178
f 175 178 174
f 177 167 168
f 177 168 173
f 173 168 169
f 173 169 172
f 172 169 170
f 172 170 171
f 180 190 179
f 179 190 185
f 179 185 184
f 184 185 186
f 184 186 183
f 183 186 187
f 183 187 182
f 182 187 192
f 182 192 181
f 191 188 189
f 191 189 180
f 180 189 190
f 194 206 193
f 196 205 195
f 198 204 197
f 200 199 198
f 197 202 196
f 195 203 194
f 214 207 213
f 213 207 208
f 213 208 212
f 212 208 209
f 212 209 211
f 211 209 210
f 216 217 215
f 215 217 218
f 220 224 219
f 219 224 235
f 219 235 236
f 224 220 223
f 223 220 221
f 223 221 222
f 224 225 235
f 235 225 234
f 234 225 230
f 234 230 233
f 233 230 231
f 233 231 232
f 230 225 229
f 229 225 226
f 229 226 228
f 228 226 227
f 237 238 236
f 236 238 219
f 239 240 246
f 246 240 241
f 246 241 245
f 245 241 242
f 245 242 244
f 244 242 243
f 248 256 247
f 247 256 257
f 247 257 253
f 253 257 258
f 253 258 252
f 252 258 251
f 251 258 254
f 251 254 250
f 250 254 255
f 250 255 249
f 249 255 248
f 248 255 256
f 260 266 259
f 259 266 267
f 259 267 265
f 265 267 268
f 265 268 264
f 264 268 274
f 264 274 263
f 273 269 270
f 273 270 262
f 262 270 271
f 262 271 261
f 261 271 272
f 261 272 260
f 260 272 266
f 276 277 275
f 275 277 278
f 275 278 283
f 283 278 279
f 283 279 282
f 282 279 280
f 282 280 281
f 284 285 292
f 292 285 286
f 292 286 291
f 291 286 287
f 291 287 290
f 290 287 289
f 289 287 288
f 294 307 293
f 309 304 308
f 293 300 301
f 307 294 303
f 303 294 295
f 303 295 302
f 302 295 306
f 306 295 296
f 306 296 305
f 305 296 297
f 305 297 299
f 299 297 298
f 299 308 305
f 305 308 304
f 318 310 317
f 317 310 311
f 317 311 316
f 316 311 312
f 316 312 315
f 315 312 313
f 315 313 314
f 320 333 319
f 335 330 334
f 319 326 327
f 333 320 329
f 329 320 321
f 329 321 328
f 328 321 332
f 332 321 322
f 332 322 331
f 331 322 323
f 331 323 325
f 325 323 324
f 325 334 331
f 331 334 330
f 337 338 336
f 336 338 343
f 343 338 339
f 343 339 342
f 342 339 341
f 341 339 340
f 344 345 351
f 351 345 346
f 351 346 350
f 350 346 347
f 350 347 349
f 349 347 348
f 353 354 352
f 352 354 355
f 352 355 360
f 360 355 356
f 360 356 359
f 359 356 357
f 359 357 358
f 367 361 368
f 368 361 362
f 368 362 373
f 373 362 375
f 373 375 372
f 374 363 364
f 374 364 371
f 371 364 365
f 371 365 370
f 370 365 366
f 370 366 369
f 369 366 367
f 369 367 368
f 377 387 376
f 376 387 382
f 376 382 381
f 381 382 383
f 381 383 380
f 380 383 384
f 380 384 379
f 379 384 389
f 388 385 378
f 378 385 386
f 378 386 377
f 377 386 387
f 391 399 390
f 397 396 392
f 395 400 394
f 394 403 393
f 392 401 391
f 390 402 395
f 404 405 411
f 411 405 406
f 411 406 407
f 408 409 407
f 407 409 410
f 407 410 411
f 413 421 412
f 412 421 422
f 412 422 418
f 418 422 423
f 418 423 417
f 417 423 416
f 416 423 419
f 416 419 415
f 415 419 420
f 415 420 414
f 414 420 413
f 413 420 421
f 425 431 424
f 424 431 432
f 424 432 430
f 430 432 433
f 430 433 429
f 429 433 439
f 429 439 428
f 438 434 435
f 438 435 427
f 427 435 436
f 427 436 426
f 426 436 437
f 426 437 425
f 425 437 431
f 440 441 447
f 447 441 442
f 447 442 446
f 446 442 443
f 446 443 445
f 445 443 444
f 448 449 455
f 455 449 450
f 455 450 454
f 454 450 451
f 454 451 453
f 453 451 452
f 456 457 480
f 480 457 458
f 480 458 459
f 459 460 480
f 480 460 466
f 480 466 467
f 460 461 466
f 466 461 463
f 466 463 464
f 461 462 463
f 464 465 466
f 480 467 479
f 479 467 468
f 479 468 478
f 478 468 477
f 477 468 476
f 476 468 475
f 475 468 474
f 474 468 473
f 473 468 471
f 473 471 472
f 469 470 468
f 468 470 471
f 482 490 481
f 493 489 482
f 485 492 484
f 481 491 485
f 484 494 483
f 495 496 503
f 503 496 497
f 503 497 502
f 502 497 498
f 502 498 501
f 501 498 499
f 501 499 500
f 504 505 511
f 511 505 506
f 511 506 507
f 511 507 510
f 510 507 508
f 510 508 509
f 513 524 512
f 512 524 518
f 512 518 519
f 524 513 523
f 523 513 514
f 523 514 522
f 522 514 525
f 522 525 521
f 526 515 516
f 526 516 520
f 520 516 517
f 520 517 519
f 519 517 512
f 528 538 527
f 527 538 533
f 527 533 532
f 532 533 534
f 532 534 531
f 531 534 535
f 531 535 530
f 530 535 540
f 539 536 529
f 529 536 537
f 529 537 528
f 528 537 538
f 542 550 541
f 548 547 543
f 546 551 545
f 545 554 544
f 543 552 542
f 541 553 546
f 556 562 555
f 555 562 563
f 555 563 561
f 561 563 564
f 561 564 560
f 560 564 570
f 560 570 559
f 569 565 566
f 569 566 558
f 558 566 567
f 558 567 557
f 557 567 568
f 557 568 556
f 556 568 562
f 572 580 571
f 571 580 581
f 582 576 575
f 575 576 577
f 575 577 574
f 574 577 578
f 574 578 573
f 573 578 579
f 573 579 572
f 572 579 580
f 584 592 583
f 595 591 584
f 587 594 586
f 583 593 587
f 586 596 585
f 598 611 597
f 613 608 612
f 597 604 605
f 611 598 607
f 607 598 599
f 607 599 606
f 606 599 610
f 610 599 600
f 610 600 609
f 609 600 601
f 609 601 603
f 603 601 602
f 603 612 609
f 609 612 608
f 620 614 621
f 621 614 615
f 621 615 626
f 626 615 616
f 626 616 625
f 625 616 628
f 625 628 624
f 627 617 618
f 627 618 623
f 623 618 619
f 623 619 622
f 622 619 620
f 622 620 621
f 630 640 629
f 629 640 641
f 629 641 634
f 642 635 636
f 642 636 633
f 633 636 637
f 633 637 632
f 632 637 638
f 632 638 631
f 631 638 639
f 631 639 630
f 630 639 640
f 644 652 643
f 650 649 645
f 648 653 647
f 647 656 646
f 645 654 644
f 643 655 648
f 658 664 657
f 657 664 665
f 657 665 663
f 663 665 666
f 663 666 662
f 662 666 672
f 662 672 661
f 671 667 668
f 671 668 660
f 660 668 669
f 660 669 659
f 659 669 670
f 659 670 658
f 658 670 664
f 674 686 673
f 673 686 687
f 673 687 685
f 685 687 688
f 685 688 684
f 684 688 689
f 684 689 683
f 683 689 690
f 683 690 682
f 682 690 691
f 682 691 681
f 681 691 700
f 681 700 680
f 699 692 693
f 699 693 679
f 679 693 694
f 679 694 678
f 678 694 695
f 678 695 677
f 677 695 696
f 677 696 676
f 676 696 697
f 676 697 675
f 675 697 698
f 675 698 674
f 674 698 686
f 702 708 701
f 701 708 709
f 701 709 707
f 707 709 710
f 707 710 706
f 706 710 711
f 706 711 705
f 705 711 704
f 704 711 712
f 704 712 703
f 703 712 708
f 703 708 702
f 714 720 713
f 713 720 721
f 713 721 719
f 719 721 722
f 719 722 718
f 718 722 728
f 718 728 717
f 727 723 724
f 727 724 716
f 716 724 725
f 716 725 715
f 715 725 726
f 715 726 714
f 714 726 720
f 730 740 729
f 729 740 742
f 741 735 734
f 734 735 736
f 734 736 733
f 733 736 737
f 733 737 732
f 732 737 738
f 732 738 731
f 731 738 739
f 731 739 730
f 730 739 740
f 744 756 743
f 746 755 745
f 748 754 747
f 750 749 748
f 747 752 746
f 745 753 744
f 758 764 757
f 757 764 765
f 757 765 763
f 763 765 766
f 763 766 762
f 762 766 772
f 762 772 761
f 771 767 768
f 771 768 760
f 760 768 769
f 760 769 759
f 759 769 770
f 759 770 758
f 758 770 764
f 774 792 773
f 773 792 793
f 773 793 785
f 785 793 794
f 785 794 784
f 784 794 795
f 784 795 783
f 783 795 796
f 783 796 782
f 782 796 797
f 782 797 781
f 781 797 798
f 781 798 780
f 780 798 800
f 780 800 779
f 799 786 787
f 799 787 778
f 778 787 788
f 778 788 777
f 777 788 789
f 777 789 776
f 776 789 790
f 776 790 775
f 775 790 791
f 775 791 774
f 774 791 792
f 802 810 801
f 801 810 815
f 801 815 807
f 816 811 812
f 816 812 806
f 806 812 813
f 806 813 805
f 805 813 814
f 805 814 804
f 804 814 808
f 804 808 803
f 803 808 809
f 803 809 802
f 802 809 810
f 818 824 817
f 817 824 825
f 817 825 823
f 823 825 826
f 823 826 822
f 822 826 832
f 822 832 821
f 831 827 828
f 831 828 820
f 820 828 829
f 820 829 819
f 819 829 830
f 819 830 818
f 818 830 824
f 834 840 833
f 833 840 841
f 833 841 839
f 839 841 842
f 839 842 838
f 838 842 848
f 838 848 837
f 847 843 844
f 847 844 836
f 836 844 845
f 836 845 835
f 835 845 846
f 835 846 834
f 834 846 840
f 850 862 849
f 852 861 851
f 854 860 853
f 856 855 854
f 853 858 852
f 851 859 850
f 864 872 863
f 863 872 873
f 874 868 867
f 867 868 869
f 867 869 866
f 866 869 870
f 866 870 865
f 865 870 871
f 865 871 864
f 864 871 872
f 887 875 888
f 888 875 876
f 888 876 897
f 897 876 877
f 897 877 896
f 896 877 878
f 896 878 895
f 895 878 879
f 895 879 880
f 895 880 894
f 894 880 881
f 894 881 893
f 893 881 882
f 893 882 892
f 892 882 883
f 892 883 891
f 891 883 884
f 891 884 885
f 891 885 890
f 890 885 886
f 890 886 889
f 889 886 887
f 889 887 888
f 899 905 898
f 898 905 906
f 898 906 904
f 904 906 907
f 904 907 903
f 903 907 913
f 903 913 902
f 912 908 909
f 912 909 901
f 901 909 910
f 901 910 900
f 900 910 911
f 900 911 899
f 899 911 905
f 915 923 914
f 914 923 924
f 914 924 920
f 920 924 925
f 920 925 919
f 919 925 918
f 918 925 921
f 918 921 917
f 917 921 922
f 917 922 916
f 916 922 915
f 915 922 923
f 927 945 926
f 926 945 946
f 947 936 935
f 935 936 937
f 935 937 934
f 934 937 938
f 934 938 933
f 933 938 939
f 933 939 932
f 932 939 940
f 932 940 931
f 931 940 941
f 931 941 930
f 930 941 942
f 930 942 929
f 929 942 943
f 929 943 928
f 928 943 944
f 928 944 927
f 927 944 945
f 960 948 961
f 961 948 949
f 961 949 972
f 972 949 950
f 972 950 971
f 971 950 951
f 971 951 970
f 970 951 952
f 970 952 969
f 969 952 953
f 969 953 968
f 968 953 973
f 968 973 967
f 974 954 955
f 974 955 966
f 966 955 956
f 966 956 965
f 965 956 957
f 965 957 964
f 964 957 958
f 964 958 963
f 963 958 959
f 963 959 962
f 962 959 960
f 962 960 961
f 986 975 992
f 992 975 976
f 992 976 991
f 991 976 977
f 991 977 990
f 990 977 978
f 990 978 989
f 989 978 979
f 989 979 988
f 988 979 980
f 988 980 987
f 987 980 981
f 987 981 982
f 987 982 996
f 996 982 983
f 996 983 995
f 995 983 984
f 995 984 994
f 994 984 985
f 994 985 993
f 993 985 986
f 993 986 992
f 998 1020 997
f 997 1020 1009
f 997 1009 1008
f 1008 1009 1010
f 1008 1010 1007
f 1007 1010 1011
f 1007 1011 1006
f 1006 1011 1012
f 1006 1012 1005
f 1005 1012 1013
f 1005 1013 1004
f 1004 1013 1014
f 1004 1014 1003
f 1003 1014 1022
f 1021 1015 1002
f 1002 1015 1016
f 1002 1016 1001
f 1001 1016 1017
f 1001 1017 1000
f 1000 1017 1018
f 1000 1018 999
f 999 1018 1019
f 999 1019 998
f 998 1019 1020
f 1023 1024 1030
f 1030 1024 1025
f 1030 1025 1026
f 1027 1028 1026
f 1026 1028 1029
f 1026 1029 1030
f 1031 1032 1034
f 1034 1032 1033
f 1042 1035 1041
f 1041 1035 1036
f 1041 1036 1040
f 1040 1036 1037
f 1040 1037 1039
f 1039 1037 1038
f 1044 1045 1043
f 1043 1045 1046
f 1048 1058 1047
f 1047 1058 1059
f 1047 1059 1053
f 1053 1059 1060
f 1053 1060 1052
f 1052 1060 1054
f 1052 1054 1051
f 1051 1054 1055
f 1051 1055 1050
f 1050 1055 1056
f 1050 1056 1049
f 1049 1056 1061
f 1062 1057 1048
f 1048 1057 1058
f 1074 1063 1073
f 1073 1063 1064
f 1073 1064 1072
f 1072 1064 1065
f 1072 1065 1066
f 1072 1066 1071
f 1071 1066 1067
f 1071 1067 1070
f 1070 1067 1068
f 1070 1068 1069
f 1075 1076 1082
f 1082 1076 1077
f 1082 1077 1081
f 1081 1077 1078
f 1081 1078 1080
f 1080 1078 1079
f 1090 1083 1089
f 1089 1083 1084
f 1089 1084 1088
f 1088 1084 1085
f 1088 1085 1087
f 1087 1085 1086
f 1092 1093 1091
f 1091 1093 1094
f 1095 1096 1102
f 1102 1096 1097
f 1102 1097 1098
f 1099 1100 1098
f 1098 1100 1101
f 1098 1101 1102
f 1103 1104 1110
f 1110 1104 1105
f 1110 1105 1109
f 1109 1105 1106
f 1109 1106 1108
f 1108 1106 1107
f 1112 1122 1111
f 1111 1122 1118
f 1111 1118 1117
f 1117 1118 1116
f 1116 1118 1119
f 1116 1119 1115
f 1115 1119 1120
f 1115 1120 1114
f 1114 1120 1113
f 1113 1120 1121
f 1113 1121 1112
f 1112 1121 1122
f 1123 1124 1131
f 1131 1124 1125
f 1131 1125 1130
f 1130 1125 1126
f 1130 1126 1129
f 1129 1126 1127
f 1129 1127 1128
f 1140 1132 1139
f 1139 1132 1133
f 1139 1133 1138
f 1138 1133 1134
f 1138 1134 1137
f 1137 1134 1135
f 1137 1135 1136
f 1152 1141 1151
f 1151 1141 1142
f 1151 1142 1150
f 1150 1142 1143
f 1150 1143 1144
f 1150 1144 1149
f 1149 1144 1145
f 1149 1145 1148
f 1148 1145 1146
f 1148 1146 1147
f 1159 1153 1160
f 1160 1153 1154
f 1160 1154 1165
f 1165 1154 1167
f 1165 1167 1164
f 1166 1155 1156
f 1166 1156 1163
f 1163 1156 1157
f 1163 1157 1162
f 1162 1157 1158
f 1162 1158 1161
f 1161 1158 1159
f 1161 1159 1160
f 1169 1170 1168
f 1168 1170 1171
f 1179 1172 1178
f 1178 1172 1173
f 1178 1173 1177
f 1177 1173 1174
f 1177 1174 1176
f 1176 1174 1175
f 1180 1181 1187
f 1187 1181 1182
f 1187 1182 1183
f 1184 1185 1183
f 1183 1185 1186
f 1183 1186 1187
f 1188 1189 1195
f 1195 1189 1190
f 1195 1190 1194
f 1194 1190 1191
f 1194 1191 1193
f 1193 1191 1192
f 1203 1196 1202
f 1202 1196 1197
f 1202 1197 1201
f 1201 1197 1198
f 1201 1198 1200
f 1200 1198 1199
f 1223 1204 1221
f 1221 1204 1205
f 1221 1205 1220
f 1220 1205 1216
f 1220 1216 1217
f 1205 1206 1216
f 1216 1206 1215
f 1215 1206 1211
f 1215 1211 1214
f 1214 1211 1213
f 1213 1211 1212
f 1211 1206 1210
f 1210 1206 1207
f 1210 1207 1208
f 1208 1209 1210
f 1217 1218 1220
f 1220 1218 1219
f 1221 1222 1223
f 1225 1233 1224
f 1224 1233 1234
f 1235 1229 1228
f 1228 1229 1230
f 1228 1230 1227
f 1227 1230 1231
f 1227 1231 1226
f 1226 1231 1232
f 1226 1232 1225
f 1225 1232 1233
f 1236 1237 1243
f 1243 1237 1238
f 1243 1238 1242
f 1242 1238 1239
f 1242 1239 1241
f 1241 1239 1240
f 1268 1244 1254
f 1254 1244 1245
f 1254 1245 1246
f 1246 1247 1254
f 1254 1247 1248
f 1254 1248 1249
f 1250 1251 1249
f 1249 1251 1254
f 1251 1252 1254
f 1254 1252 1253
f 1254 1255 1268
f 1268 1255 1267
f 1267 1255 1256
f 1267 1256 1262
f 1262 1256 1261
f 1261 1256 1259
f 1261 1259 1260
f 1257 1258 1256
f 1256 1258 1259
f 1262 1263 1267
f 1267 1263 1264
f 1267 1264 1265
f 1265 1266 1267
f 1269 1270 1276
f 1276 1270 1271
f 1276 1271 1275
f 1275 1271 1272
f 1275 1272 1274
f 1274 1272 1273
f 1277 1278 1288
f 1288 1278 1287
f 1287 1278 1279
f 1287 1279 1286
f 1286 1279 1280
f 1286 1280 1285
f 1285 1280 1284
f 1284 1280 1281
f 1284 1281 1283
f 1283 1281 1282
f 1290 1379 1289
f 1289 1379 1380
f 1289 1380 1308
f 1308 1380 1381
f 1308 1381 1414
f 1414 1381 1413
f 1413 1381 1382
f 1413 1382 1412
f 1412 1382 1439
f 1412 1439 1440
f 1291 1334 1290
f 1290 1334 1335
f 1290 1335 1336
f 1292 1331 1291
f 1291 1331 1332
f 1291 1332 1333
f 1293 1386 1292
f 1292 1386 1387
f 1292 1387 1330
f 1330 1387 1329
f 1329 1387 1388
f 1329 1388 1348
f 1348 1388 1389
f 1348 1389 1347
f 1347 1389 1437
f 1347 1437 1346
f 1346 1437 1345
f 1345 1437 1344
f 1344 1437 1343
f 1343 1437 1438
f 1343 1438 1342
f 1342 1438 1341
f 1341 1438 1340
f 1340 1438 1376
f 1340 1376 1377
f 1294 1427 1293
f 1293 1427 1428
f 1293 1428 1385
f 1385 1428 1384
f 1384 1428 1429
f 1384 1429 1383
f 1383 1429 1436
f 1383 1436 1389
f 1389 1436 1437
f 1427 1294 1426
f 1426 1294 1295
f 1426 1295 1394
f 1394 1295 1393
f 1393 1295 1296
f 1393 1296 1392
f 1392 1296 1321
f 1392 1321 1322
f 1321 1296 1320
f 1320 1296 1297
f 1320 1297 1319
f 1319 1297 1318
f 1318 1297 1317
f 1317 1297 1298
f 1317 1298 1316
f 1316 1298 1315
f 1315 1298 1314
f 1314 1298 1299
f 1314 1299 1398
f 1398 1299 1397
f 1397 1299 1403
f 1403 1299 1300
f 1403 1300 1418
f 1418 1300 1301
f 1418 1301 1424
f 1424 1301 1302
f 1424 1302 1423
f 1423 1302 1404
f 1423 1404 1405
f 1404 1302 1410
f 1410 1302 1303
f 1410 1303 1361
f 1361 1303 1360
f 1360 1303 1359
f 1359 1303 1304
f 1359 1304 1358
f 1358 1304 1357
f 1357 1304 1356
f 1356 1304 1305
f 1356 1305 1355
f 1355 1305 1354
f 1354 1305 1369
f 1354 1369 1353
f 1353 1369 1370
f 1353 1370 1352
f 1352 1370 1371
f 1352 1371 1351
f 1351 1371 1441
f 1351 1441 1350
f 1350 1441 1349
f 1349 1441 1442
f 1349 1442 1368
f 1368 1442 1367
f 1367 1442 1366
f 1366 1442 1365
f 1365 1442 1443
f 1365 1443 1364
f 1364 1443 1407
f 1364 1407 1363
f 1363 1407 1408
f 1363 1408 1362
f 1362 1408 1409
f 1362 1409 1410
f 1305 1306 1369
f 1369 1306 1375
f 1375 1306 1374
f 1374 1306 1416
f 1374 1416 1417
f 1306 1307 1416
f 1416 1307 1415
f 1415 1307 1308
f 1415 1308 1414
f 1328 1309 1433
f 1433 1309 1310
f 1433 1310 1432
f 1432 1310 1311
f 1432 1311 1400
f 1400 1311 1312
f 1400 1312 1399
f 1399 1312 1313
f 1399 1313 1398
f 1398 1313 1314
f 1392 1322 1391
f 1391 1322 1323
f 1391 1323 1390
f 1390 1323 1324
f 1390 1324 1434
f 1434 1324 1325
f 1434 1325 1326
f 1434 1326 1433
f 1433 1326 1327
f 1433 1327 1328
f 1330 1331 1292
f 1333 1334 1291
f 1336 1337 1290
f 1290 1337 1379
f 1337 1338 1379
f 1379 1338 1378
f 1378 1338 1339
f 1378 1339 1377
f 1377 1339 1340
f 1361 1362 1410
f 1371 1372 1441
f 1441 1372 1440
f 1440 1372 1373
f 1440 1373 1411
f 1411 1373 1417
f 1417 1373 1374
f 1382 1376 1439
f 1439 1376 1438
f 1385 1386 1293
f 1426 1394 1425
f 1425 1394 1395
f 1425 1395 1431
f 1431 1395 1396
f 1431 1396 1435
f 1435 1396 1434
f 1434 1396 1390
f 1400 1401 1432
f 1432 1401 1444
f 1444 1401 1420
f 1444 1420 1421
f 1401 1402 1420
f 1420 1402 1419
f 1419 1402 1403
f 1419 1403 1418
f 1423 1405 1422
f 1422 1405 1406
f 1422 1406 1443
f 1443 1406 1407
f 1411 1412 1440
f 1444 1421 1443
f 1443 1421 1422
f 1429 1430 1436
f 1436 1430 1435
f 1435 1430 1431
f 1446 1484 1445
f 1445 1484 1485
f 1486 1465 1464
f 1464 1465 1466
f 1464 1466 1467
f 1446 1447 1484
f 1484 1447 1483
f 1483 1447 1448
f 1483 1448 1482
f 1482 1448 1449
f 1482 1449 1481
f 1481 1449 1450
f 1481 1450 1480
f 1480 1450 1451
f 1480 1451 1479
f 1479 1451 1452
f 1479 1452 1478
f 1478 1452 1453
f 1478 1453 1477
f 1477 1453 1454
f 1477 1454 1476
f 1476 1454 1455
f 1476 1455 1475
f 1475 1455 1456
f 1475 1456 1474
f 1474 1456 1457
f 1474 1457 1473
f 1473 1457 1458
f 1473 1458 1472
f 1472 1458 1459
f 1472 1459 1471
f 1471 1459 1460
f 1471 1460 1470
f 1470 1460 1461
f 1470 1461 1469
f 1469 1461 1462
f 1469 1462 1468
f 1468 1462 1463
f 1468 1463 1467
f 1467 1463 1464
f 1488 1516 1487
f 1487 1516 1517
f 1487 1517 1506
f 1506 1517 1518
f 1506 1518 1505
f 1505 1518 1519
f 1505 1519 1504
f 1504 1519 1520
f 1504 1520 1503
f 1503 1520 1521
f 1503 1521 1502
f 1502 1521 1522
f 1502 1522 1501
f 1501 1522 1523
f 1501 1523 1500
f 1500 1523 1524
f 1500 1524 1499
f 1499 1524 1525
f 1499 1525 1498
f 1498 1525 1507
f 1498 1507 1497
f 1497 1507 1496
f 1496 1507 1508
f 1496 1508 1495
f 1495 1508 1509
f 1495 1509 1494
f 1494 1509 1510
f 1494 1510 1493
f 1493 1510 1511
f 1493 1511 1492
f 1492 1511 1512
f 1492 1512 1491
f 1491 1512 1513
f 1491 1513 1490
f 1490 1513 1514
f 1490 1514 1489
f 1489 1514 1515
f 1489 1515 1488
f 1488 1515 1516
f 1526 1527 1555
f 1555 1527 1556
f 1555 1556 1557
f 1556 1527 1574
f 1574 1527 1528
f 1574 1528 1573
f 1573 1528 1529
f 1573 1529 1530
f 1531 1532 1530
f 1530 1532 1572
f 1530 1572 1573
f 1572 1532 1571
f 1571 1532 1533
f 1571 1533 1570
f 1570 1533 1534
f 1570 1534 1535
f 1570 1535 1569
f 1569 1535 1536
f 1569 1536 1537
f 1569 1537 1568
f 1568 1537 1538
f 1568 1538 1567
f 1567 1538 1539
f 1567 1539 1566
f 1566 1539 1540
f 1566 1540 1565
f 1565 1540 1576
f 1575 1541 1542
f 1542 1543 1575
f 1575 1543 1564
f 1564 1543 1544
f 1564 1544 1563
f 1563 1544 1545
f 1563 1545 1546
f 1546 1547 1563
f 1563 1547 1562
f 1562 1547 1548
f 1562 1548 1561
f 1561 1548 1549
f 1561 1549 1560
f 1560 1549 1550
f 1560 1550 1559
f 1559 1550 1551
f 1559 1551 1552
f 1559 1552 1558
f 1558 1552 1553
f 1558 1553 1554
f 1558 1554 1557
f 1557 1554 1555
f 1601 1577 1588
f 1588 1577 1578
f 1588 1578 1579
f 1588 1579 1587
f 1587 1579 1580
f 1587 1580 1581
f 1581 1582 1587
f 1587 1582 1585
f 1587 1585 1586
f 1583 1584 1582
f 1582 1584 1585
f 1589 1597 1588
f 1588 1597 1598
f 1588 1598 1599
f 1590 1591 1589
f 1589 1591 1594
f 1589 1594 1595
f 1591 1592 1594
f 1594 1592 1593
f 1595 1596 1589
f 1589 1596 1597
f 1599 1600 1588
f 1588 1600 1601
f 1610 1602 1609
f 1609 1602 1603
f 1609 1603 1608
f 1608 1603 1604
f 1608 1604 1607
f 1607 1604 1605
f 1607 1605 1606
f 1611 1612 1688
f 1688 1612 1687
f 1687 1612 1718
f 1687 1718 1686
f 1686 1718 1719
f 1686 1719 1685
f 1685 1719 1699
f 1685 1699 1684
f 1684 1699 1683
f 1683 1699 1679
f 1683 1679 1682
f 1682 1679 1681
f 1681 1679 1680
f 1612 1613 1718
f 1718 1613 1717
f 1717 1613 1616
f 1717 1616 1617
f 1614 1615 1613
f 1613 1615 1616
f 1618 1694 1617
f 1617 1694 1716
f 1617 1716 1717
f 1618 1619 1694
f 1694 1619 1620
f 1694 1620 1624
f 1624 1620 1621
f 1624 1621 1622
f 1622 1623 1624
f 1694 1624 1693
f 1693 1624 1625
f 1693 1625 1692
f 1692 1625 1626
f 1692 1626 1691
f 1691 1626 1627
f 1691 1627 1690
f 1690 1627 1631
f 1690 1631 1632
f 1628 1629 1627
f 1627 1629 1630
f 1627 1630 1631
f 1632 1633 1690
f 1690 1633 1714
f 1690 1714 1715
f 1633 1634 1714
f 1714 1634 1638
f 1714 1638 1713
f 1713 1638 1639
f 1713 1639 1642
f 1642 1639 1641
f 1641 1639 1640
f 1634 1635 1638
f 1638 1635 1636
f 1638 1636 1637
f 1642 1643 1713
f 1713 1643 1712
f 1712 1643 1644
f 1712 1644 1645
f 1646 1650 1645
f 1645 1650 1705
f 1645 1705 1706
f 1646 1647 1650
f 1650 1647 1648
f 1650 1648 1649
f 1650 1651 1705
f 1705 1651 1704
f 1704 1651 1652
f 1704 1652 1703
f 1703 1652 1709
f 1709 1652 1653
f 1709 1653 1657
f 1657 1653 1656
f 1656 1653 1655
f 1655 1653 1654
f 1657 1658 1709
f 1709 1658 1710
f 1709 1710 1708
f 1708 1710 1711
f 1708 1711 1707
f 1707 1711 1712
f 1707 1712 1706
f 1706 1712 1645
f 1658 1659 1710
f 1710 1659 1660
f 1710 1660 1722
f 1722 1660 1661
f 1722 1661 1664
f 1664 1661 1662
f 1664 1662 1663
f 1664 1665 1722
f 1722 1665 1721
f 1721 1665 1669
f 1721 1669 1670
f 1666 1667 1665
f 1665 1667 1668
f 1665 1668 1669
f 1670 1671 1721
f 1721 1671 1696
f 1721 1696 1697
f 1671 1672 1696
f 1696 1672 1676
f 1696 1676 1702
f 1702 1676 1677
f 1702 1677 1701
f 1701 1677 1678
f 1701 1678 1700
f 1700 1678 1679
f 1700 1679 1699
f 1672 1673 1676
f 1676 1673 1674
f 1676 1674 1675
f 1695 1689 1715
f 1715 1689 1690
f 1694 1695 1716
f 1716 1695 1715
f 1721 1697 1720
f 1720 1697 1698
f 1720 1698 1719
f 1719 1698 1699
f 1723 1724 1730
f 1730 1724 1725
f 1730 1725 1729
f 1729 1725 1726
f 1729 1726 1728
f 1728 1726 1727
f 1732 1738 1731
f 1731 1738 1739
f 1731 1739 1737
f 1737 1739 1740
f 1737 1740 1736
f 1736 1740 1746
f 1736 1746 1735
f 1745 1741 1742
f 1745 1742 1734
f 1734 1742 1743
f 1734 1743 1733
f 1733 1743 1744
f 1733 1744 1732
f 1732 1744 1738
