v -0.01799999952 0.1144999981 0.4393767435
v -0.01929903865 0.1144999981 0.4401267511
v -0.01929903865 0.1144999981 0.4416267473
v -0.01799999952 0.1144999981 0.4423767549
v -0.01670096159 0.1144999981 0.4416267473
v -0.01670096159 0.1144999981 0.4401267511
v -0.01799999952 0.1085000038 0.4393767435
v -0.01693933964 0.1085000038 0.4398161012
v -0.01649999976 0.1085000038 0.4408767587
v -0.01693933964 0.1085000038 0.4419374162
v -0.01799999952 0.1085000038 0.4423767549
v -0.0190606606 0.1085000038 0.4419374162
v -0.01950000048 0.1085000038 0.4408767587
v -0.0190606606 0.1085000038 0.4398161012
v -0.01799999952 0.1085000038 0.4393767435
v -0.01799999952 0.1144999981 0.4393767435
v -0.01799999952 0.1085000038 0.4393767435
v -0.0190606606 0.1085000038 0.4398161012
v -0.01950000048 0.1085000038 0.4408767587
v -0.0190606606 0.1085000038 0.4419374162
v -0.01799999952 0.1085000038 0.4423767549
v -0.01693933964 0.1085000038 0.4419374162
v -0.01649999976 0.1085000038 0.4408767587
v -0.01693933964 0.1085000038 0.4398161012
v -0.01799999952 0.1085000038 0.4396267587
v -0.01711611629 0.1085000038 0.4399928743
v -0.01674999952 0.1085000038 0.4408767587
v -0.01711611629 0.1085000038 0.4417606432
v -0.01799999952 0.1085000038 0.4421267587
v -0.01888388395 0.1085000038 0.4417606432
v -0.01924999952 0.1085000038 0.4408767587
v -0.01888388395 0.1085000038 0.4399928743
f 2 14 1
f 1 14 15
f 16 7 8
f 14 2 13
f 13 2 3
f 13 3 12
f 12 3 4
f 12 4 11
f 11 4 10
f 10 4 5
f 10 5 9
f 9 5 6
f 9 6 8
f 8 6 16
f 18 32 17
f 17 32 25
f 17 25 26
f 32 18 31
f 31 18 19
f 31 19 20
f 21 29 20
f 20 29 30
f 20 30 31
f 29 21 28
f 28 21 22
f 28 22 27
f 27 22 23
f 27 23 24
f 27 24 26
f 26 24 17
