v -0.01746994853 0.0468234396 0.4411767465
v -0.0174000001 0.0468234396 0.4411767465
v -0.0174000001 0.04694459438 0.4411767465
v -0.01853005171 0.0468234396 0.4411767465
v -0.01860000014 0.04694459438 0.4411767465
v -0.01860000014 0.0468234396 0.4411767465
v -0.01830000043 0.04694459438 0.440276745
v -0.01830000043 0.0468234396 0.4403467065
v -0.01769999981 0.0468234396 0.4403467065
v -0.01769999981 0.04694459438 0.440276745
v -0.01769999981 0.04829924583 0.4394946367
v -0.01789994359 0.04830639362 0.4394905168
v -0.01810005665 0.04830639362 0.4394905168
v -0.01830000043 0.04829924583 0.4394946367
v -0.01853005171 0.0468234396 0.4405767519
v -0.01860000014 0.0468234396 0.4405767519
v -0.01860000014 0.04694459438 0.4405767519
v -0.01830000043 0.04694459438 0.440276745
v -0.01830000043 0.04829924583 0.4394946367
v -0.01830000043 0.04836613655 0.4397523958
v -0.01830000043 0.04841917992 0.4400133402
v -0.01830000043 0.04845823288 0.440276745
v -0.01769999981 0.0468234396 0.4403467065
v -0.01769999981 0.0468234396 0.440276745
v -0.01769999981 0.04694459438 0.440276745
v -0.01860000014 0.04694459438 0.4405767519
v -0.01860000014 0.04845823288 0.4405767519
v -0.01886340857 0.04841917992 0.4405767519
v -0.01912435889 0.04836613655 0.4405767519
v -0.01938210964 0.04829924583 0.4405767519
v -0.01830000043 0.0468234396 0.4414068109
v -0.01830000043 0.0468234396 0.4414767534
v -0.01830000043 0.04694459438 0.4414767534
v -0.01830000043 0.04694459438 0.440276745
v -0.01830000043 0.04845823288 0.440276745
v -0.0183878684 0.04847325802 0.4404888803
v -0.01860000014 0.04845823288 0.4405767519
v -0.01860000014 0.04694459438 0.4405767519
v -0.01860000014 0.0468234396 0.4405767519
v -0.01845000029 0.0468234396 0.440536564
v -0.01834019184 0.0468234396 0.440426758
v -0.01830000043 0.0468234396 0.440276745
v -0.01830000043 0.0468234396 0.4403467065
v -0.01830000043 0.04694459438 0.440276745
v -0.01830000043 0.0468234396 0.440276745
v -0.01669999957 0.04010344028 0.4408767587
v -0.01735000014 0.04010344028 0.4397509271
v -0.0186500001 0.04010344028 0.4397509271
v -0.01929999948 0.04010344028 0.4408767587
v -0.0186500001 0.04010344028 0.4420025903
v -0.01735000014 0.04010344028 0.4420025903
v -0.01649999976 0.04030344009 0.4408767587
v -0.01725000024 0.04030344009 0.4421757967
v -0.01875 0.04030344009 0.4421757967
v -0.01950000048 0.04030344009 0.4408767587
v -0.01875 0.04030344009 0.4395777208
v -0.01725000024 0.04030344009 0.4395777208
v -0.0186500001 0.04010344028 0.4397509271
v -0.01875 0.04030344009 0.4395777208
v -0.01649999976 0.04030344009 0.4408767587
v -0.01725000024 0.04030344009 0.4395777208
v -0.01875 0.04030344009 0.4395777208
v -0.01950000048 0.04030344009 0.4408767587
v -0.01875 0.04030344009 0.4421757967
v -0.01725000024 0.04030344009 0.4421757967
v -0.01950000048 0.04580343723 0.4408767587
v -0.01875 0.04580343723 0.4395777208
v -0.01725000024 0.04580343723 0.4395777208
v -0.01649999976 0.04580343723 0.4408767587
v -0.01725000024 0.04580343723 0.4421757967
v -0.01875 0.04580343723 0.4421757967
v -0.01950000048 0.04580343723 0.4408767587
v -0.01950000048 0.04030344009 0.4408767587
v -0.01669999957 0.04010344028 0.4408767587
v -0.01735000014 0.04010344028 0.4420025903
v -0.0186500001 0.04010344028 0.4420025903
v -0.01929999948 0.04010344028 0.4408767587
v -0.0186500001 0.04010344028 0.4397509271
v -0.01735000014 0.04010344028 0.4397509271
v -0.01950000048 0.04580343723 0.4408767587
v -0.01875 0.04580343723 0.4421757967
v -0.01725000024 0.04580343723 0.4421757967
v -0.01649999976 0.04580343723 0.4408767587
v -0.01725000024 0.04580343723 0.4395777208
v -0.01875 0.04580343723 0.4395777208
v -0.01980000019 0.04610343933 0.4408767587
v -0.01927279234 0.04610343933 0.4396039659
v -0.01799999952 0.04610343933 0.4390767557
v -0.0167272079 0.04610343933 0.4396039659
v -0.01620000005 0.04610343933 0.4408767587
v -0.0167272079 0.04610343933 0.4421495515
v -0.01799999952 0.04610343933 0.4426767427
v -0.01927279234 0.04610343933 0.4421495515
v -0.01980000019 0.04610343933 0.4408767587
v -0.01950000048 0.04580343723 0.4408767587
v -0.01519999981 0.04610343933 0.4408767587
v -0.01602010131 0.04610343933 0.4428566438
v -0.01799999952 0.04610343933 0.4436767465
v -0.01997989893 0.04610343933 0.4428566438
v -0.02079999924 0.04610343933 0.4408767587
v -0.01997989893 0.04610343933 0.4388968546
v -0.01799999952 0.04610343933 0.4380767519
v -0.01602010131 0.04610343933 0.4388968546
v -0.01980000019 0.04610343933 0.4408767587
v -0.01927279234 0.04610343933 0.4421495515
v -0.01799999952 0.04610343933 0.4426767427
v -0.0167272079 0.04610343933 0.4421495515
v -0.01620000005 0.04610343933 0.4408767587
v -0.0167272079 0.04610343933 0.4396039659
v -0.01799999952 0.04610343933 0.4390767557
v -0.01927279234 0.04610343933 0.4396039659
v -0.01519999981 0.04764590263 0.4408767587
v -0.01602010131 0.04764590263 0.4428566438
v -0.01799999952 0.04764590263 0.4436767465
v -0.01997989893 0.04764590263 0.4428566438
v -0.02079999924 0.04764590263 0.4408767587
v -0.01997989893 0.04764590263 0.4388968546
v -0.01799999952 0.04764590263 0.4380767519
v -0.01602010131 0.04764590263 0.4388968546
v -0.01519999981 0.04610343933 0.4408767587
v -0.01602010131 0.04610343933 0.4388968546
v -0.01799999952 0.04610343933 0.4380767519
v -0.01997989893 0.04610343933 0.4388968546
v -0.02079999924 0.04610343933 0.4408767587
v -0.01997989893 0.04610343933 0.4428566438
v -0.01799999952 0.04610343933 0.4436767465
v -0.01602010131 0.04610343933 0.4428566438
v -0.02079999924 0.04764590263 0.4408767587
v -0.02079999924 0.04610343933 0.4408767587
v -0.0166178906 0.04829924583 0.4405767519
v -0.01661376595 0.04830638885 0.4407766992
v -0.01661376595 0.04830638885 0.4409768182
v -0.0166178906 0.04829924583 0.4411767465
v -0.01687564015 0.04836613655 0.4411767465
v -0.01713659167 0.04841917992 0.4411767465
v -0.0174000001 0.04845823288 0.4411767465
v -0.01761213183 0.04847325802 0.4412646181
v -0.01769999981 0.04845823288 0.4414767534
v -0.01769999981 0.04841917992 0.4417401582
v -0.01769999981 0.04836613655 0.4420011026
v -0.01769999981 0.04829924583 0.4422588617
v -0.01789994359 0.04830639362 0.4422629816
v -0.01810005665 0.04830639362 0.4422629816
v -0.01830000043 0.04829924583 0.4422588617
v -0.01830000043 0.04836613655 0.4420011026
v -0.01830000043 0.04841917992 0.4417401582
v -0.01830000043 0.04845823288 0.4414767534
v -0.0183878684 0.04847325802 0.4412646181
v -0.01860000014 0.04845823288 0.4411767465
v -0.01886340857 0.04841917992 0.4411767465
v -0.01912435889 0.04836613655 0.4411767465
v -0.01938210964 0.04829924583 0.4411767465
v -0.01938623428 0.04830638885 0.4409768182
v -0.01938623428 0.04830638885 0.4407766992
v -0.01938210964 0.04829924583 0.4405767519
v -0.01912435889 0.04836613655 0.4405767519
v -0.01886340857 0.04841917992 0.4405767519
v -0.01860000014 0.04845823288 0.4405767519
v -0.0183878684 0.04847325802 0.4404888803
v -0.01830000043 0.04845823288 0.440276745
v -0.01830000043 0.04841917992 0.4400133402
v -0.01830000043 0.04836613655 0.4397523958
v -0.01830000043 0.04829924583 0.4394946367
v -0.01810005665 0.04830639362 0.4394905168
v -0.01789994359 0.04830639362 0.4394905168
v -0.01769999981 0.04829924583 0.4394946367
v -0.01769999981 0.04836613655 0.4397523958
v -0.01769999981 0.04841917992 0.4400133402
v -0.01769999981 0.04845823288 0.440276745
v -0.01761213183 0.04847325802 0.4404888803
v -0.0174000001 0.04845823288 0.4405767519
v -0.01713659167 0.04841917992 0.4405767519
v -0.01687564015 0.04836613655 0.4405767519
v -0.01519999981 0.04764590263 0.4408767587
v -0.01602010131 0.04764590263 0.4388968546
v -0.01799999952 0.04764590263 0.4380767519
v -0.01997989893 0.04764590263 0.4388968546
v -0.02079999924 0.04764590263 0.4408767587
v -0.01997989893 0.04764590263 0.4428566438
v -0.01799999952 0.04764590263 0.4436767465
v -0.01602010131 0.04764590263 0.4428566438
v -0.01938623428 0.04830638885 0.4409768182
v -0.02079999924 0.04764590263 0.4408767587
v -0.01769999981 0.04694459438 0.4414767534
v -0.01769999981 0.04845823288 0.4414767534
v -0.01761213183 0.04847325802 0.4412646181
v -0.0174000001 0.04845823288 0.4411767465
v -0.0174000001 0.04694459438 0.4411767465
v -0.0174000001 0.0468234396 0.4411767465
v -0.01754999995 0.0468234396 0.4412169534
v -0.0176598072 0.0468234396 0.4413267595
v -0.01769999981 0.0468234396 0.4414767534
v -0.0174000001 0.04694459438 0.4411767465
v -0.0174000001 0.04845823288 0.4411767465
v -0.01713659167 0.04841917992 0.4411767465
v -0.01687564015 0.04836613655 0.4411767465
v -0.0166178906 0.04829924583 0.4411767465
v -0.0174000001 0.04694459438 0.4405767519
v -0.01746994853 0.0468234396 0.4405767519
v -0.01746994853 0.0468234396 0.4411767465
v -0.0174000001 0.04694459438 0.4411767465
v -0.0166178906 0.04829924583 0.4411767465
v -0.01661376595 0.04830638885 0.4409768182
v -0.01661376595 0.04830638885 0.4407766992
v -0.0166178906 0.04829924583 0.4405767519
v -0.01938210964 0.04829924583 0.4411767465
v -0.01860000014 0.04694459438 0.4411767465
v -0.01853005171 0.0468234396 0.4411767465
v -0.01853005171 0.0468234396 0.4405767519
v -0.01860000014 0.04694459438 0.4405767519
v -0.01938210964 0.04829924583 0.4405767519
v -0.01938623428 0.04830638885 0.4407766992
v -0.01938623428 0.04830638885 0.4409768182
v -0.01860000014 0.04694459438 0.4411767465
v -0.01938210964 0.04829924583 0.4411767465
v -0.01912435889 0.04836613655 0.4411767465
v -0.01886340857 0.04841917992 0.4411767465
v -0.01860000014 0.04845823288 0.4411767465
v -0.01860000014 0.04694459438 0.4411767465
v -0.01860000014 0.04845823288 0.4411767465
v -0.0183878684 0.04847325802 0.4412646181
v -0.01830000043 0.04845823288 0.4414767534
v -0.01830000043 0.04694459438 0.4414767534
v -0.01830000043 0.0468234396 0.4414767534
v -0.01834019184 0.0468234396 0.4413267595
v -0.01845000029 0.0468234396 0.4412169534
v -0.01860000014 0.0468234396 0.4411767465
v -0.01769999981 0.04694459438 0.4414767534
v -0.01769999981 0.04829924583 0.4422588617
v -0.01769999981 0.04836613655 0.4420011026
v -0.01769999981 0.04841917992 0.4417401582
v -0.01769999981 0.04845823288 0.4414767534
v -0.0174000001 0.04694459438 0.4405767519
v -0.0166178906 0.04829924583 0.4405767519
v -0.01687564015 0.04836613655 0.4405767519
v -0.01713659167 0.04841917992 0.4405767519
v -0.0174000001 0.04845823288 0.4405767519
v -0.01830000043 0.04694459438 0.4414767534
v -0.01830000043 0.04845823288 0.4414767534
v -0.01830000043 0.04841917992 0.4417401582
v -0.01830000043 0.04836613655 0.4420011026
v -0.01830000043 0.04829924583 0.4422588617
v -0.01769999981 0.0468234396 0.4414068109
v -0.01769999981 0.04694459438 0.4414767534
v -0.01769999981 0.0468234396 0.4414767534
v -0.0174000001 0.04694459438 0.4405767519
v -0.0174000001 0.04845823288 0.4405767519
v -0.01761213183 0.04847325802 0.4404888803
v -0.01769999981 0.04845823288 0.440276745
v -0.01769999981 0.04694459438 0.440276745
v -0.01769999981 0.0468234396 0.440276745
v -0.0176598072 0.0468234396 0.440426758
v -0.01754999995 0.0468234396 0.440536564
v -0.0174000001 0.0468234396 0.4405767519
v -0.01769999981 0.04694459438 0.4414767534
v -0.01769999981 0.0468234396 0.4414068109
v -0.01830000043 0.0468234396 0.4414068109
v -0.01830000043 0.04694459438 0.4414767534
v -0.01830000043 0.04829924583 0.4422588617
v -0.01810005665 0.04830639362 0.4422629816
v -0.01789994359 0.04830639362 0.4422629816
v -0.01769999981 0.04829924583 0.4422588617
v -0.01746994853 0.0468234396 0.4405767519
v -0.0174000001 0.04694459438 0.4405767519
v -0.0174000001 0.0468234396 0.4405767519
v -0.01769999981 0.0468234396 0.4414767534
v -0.0176598072 0.0468234396 0.4413267595
v -0.01754999995 0.0468234396 0.4412169534
v -0.0174000001 0.0468234396 0.4411767465
v -0.01746994853 0.0468234396 0.4411767465
v -0.01746994853 0.0468234396 0.4405767519
v -0.0174000001 0.0468234396 0.4405767519
v -0.01754999995 0.0468234396 0.440536564
v -0.0176598072 0.0468234396 0.440426758
v -0.01769999981 0.0468234396 0.440276745
v -0.01769999981 0.0468234396 0.4403467065
v -0.01830000043 0.0468234396 0.4403467065
v -0.01830000043 0.0468234396 0.440276745
v -0.01834019184 0.0468234396 0.440426758
v -0.01845000029 0.0468234396 0.440536564
v -0.01860000014 0.0468234396 0.4405767519
v -0.01853005171 0.0468234396 0.4405767519
v -0.01853005171 0.0468234396 0.4411767465
v -0.01860000014 0.0468234396 0.4411767465
v -0.01845000029 0.0468234396 0.4412169534
v -0.01834019184 0.0468234396 0.4413267595
v -0.01830000043 0.0468234396 0.4414767534
v -0.01830000043 0.0468234396 0.4414068109
v -0.01769999981 0.0468234396 0.4414068109
v -0.01769999981 0.04694459438 0.440276745
v -0.01769999981 0.04845823288 0.440276745
v -0.01769999981 0.04841917992 0.4400133402
v -0.01769999981 0.04836613655 0.4397523958
v -0.01769999981 0.04829924583 0.4394946367
f 1 2 3
f 4 5 6
f 8 9 7
f 7 9 10
f 7 10 13
f 13 10 12
f 12 10 11
f 13 14 7
f 15 16 17
f 19 20 18
f 18 20 21
f 18 21 22
f 23 24 25
f 27 28 26
f 26 28 29
f 26 29 30
f 31 32 33
f 42 34 41
f 41 34 35
f 41 35 36
f 41 36 40
f 40 36 37
f 40 37 38
f 38 39 40
f 43 44 45
f 47 52 46
f 46 52 53
f 46 53 51
f 51 53 54
f 51 54 50
f 50 54 55
f 50 55 49
f 49 55 59
f 49 59 48
f 58 56 57
f 58 57 47
f 47 57 52
f 61 68 60
f 60 68 69
f 60 69 65
f 65 69 70
f 65 70 64
f 64 70 71
f 64 71 63
f 63 71 72
f 73 66 62
f 62 66 67
f 62 67 61
f 61 67 68
f 75 77 74
f 74 77 78
f 74 78 79
f 75 76 77
f 81 93 80
f 80 93 94
f 95 86 87
f 93 81 92
f 92 81 82
f 92 82 91
f 91 82 83
f 91 83 90
f 90 83 89
f 89 83 84
f 89 84 88
f 88 84 85
f 88 85 87
f 87 85 95
f 103 96 108
f 108 96 97
f 108 97 107
f 107 97 106
f 106 97 98
f 106 98 105
f 105 98 99
f 105 99 104
f 104 99 100
f 104 100 101
f 104 101 111
f 111 101 102
f 111 102 110
f 110 102 109
f 109 102 103
f 109 103 108
f 113 127 112
f 112 127 120
f 112 120 119
f 119 120 121
f 119 121 118
f 118 121 122
f 118 122 117
f 117 122 123
f 117 123 116
f 116 123 129
f 128 124 115
f 115 124 125
f 115 125 114
f 114 125 126
f 114 126 113
f 113 126 127
f 173 130 174
f 174 130 131
f 174 131 132
f 132 133 174
f 174 133 181
f 181 133 136
f 181 136 137
f 133 134 136
f 136 134 135
f 137 138 181
f 181 138 139
f 181 139 140
f 181 140 180
f 180 140 141
f 180 141 142
f 142 143 180
f 180 143 144
f 180 144 145
f 180 145 179
f 179 145 146
f 179 146 147
f 147 148 179
f 179 148 149
f 179 149 150
f 150 151 179
f 179 151 178
f 178 151 152
f 178 152 182
f 153 154 183
f 183 154 155
f 183 155 177
f 177 155 158
f 177 158 159
f 155 156 158
f 158 156 157
f 159 160 177
f 177 160 161
f 177 161 162
f 177 162 176
f 176 162 163
f 176 163 164
f 164 165 176
f 176 165 166
f 176 166 175
f 175 166 168
f 175 168 169
f 166 167 168
f 169 170 175
f 175 170 171
f 175 171 172
f 172 173 175
f 175 173 174
f 192 184 191
f 191 184 185
f 191 185 186
f 191 186 190
f 190 186 187
f 190 187 188
f 188 189 190
f 194 195 193
f 193 195 196
f 193 196 197
f 199 201 198
f 198 201 204
f 198 204 205
f 199 200 201
f 202 203 201
f 201 203 204
f 206 207 213
f 213 207 210
f 213 210 212
f 212 210 211
f 208 209 207
f 207 209 210
f 215 216 214
f 214 216 217
f 214 217 218
f 227 219 226
f 226 219 220
f 226 220 221
f 226 221 225
f 225 221 222
f 225 222 223
f 223 224 225
f 229 230 228
f 228 230 231
f 228 231 232
f 234 235 233
f 233 235 236
f 233 236 237
f 239 240 238
f 238 240 241
f 238 241 242
f 243 244 245
f 254 246 253
f 253 246 247
f 253 247 248
f 253 248 252
f 252 248 249
f 252 249 250
f 250 251 252
f 256 257 255
f 255 257 258
f 255 258 260
f 260 258 259
f 260 261 255
f 255 261 262
f 263 264 265
f 266 267 289
f 289 267 286
f 289 286 288
f 288 286 287
f 268 280 267
f 267 280 285
f 267 285 286
f 269 270 268
f 268 270 271
f 268 271 273
f 273 271 272
f 268 273 279
f 279 273 274
f 279 274 277
f 277 274 276
f 276 274 275
f 277 278 279
f 279 280 268
f 281 282 280
f 280 282 285
f 282 283 285
f 285 283 284
f 291 292 290
f 290 292 293
f 290 293 294
