v 0.007771100402 0.1219999981 0.4529767496
v 0.01491013527 0.1219999981 0.4504330522
v 0.02130835533 0.1219999981 0.4463711626
v 0.02664786577 0.1219999981 0.4409928972
v 0.03066336632 0.1219999981 0.4345654565
v 0.03315535069 0.1219999981 0.4274082071
v 0.03400000095 0.1219999981 0.4198767549
v 0.03315535069 0.1219999981 0.4123453027
v 0.03066336632 0.1219999981 0.4051880533
v 0.02664786577 0.1219999981 0.3987606126
v 0.02130835533 0.1219999981 0.3933823377
v 0.01491013527 0.1219999981 0.3893204481
v 0.007771100402 0.1219999981 0.3867767507
v -0.007771100402 0.1219999981 0.3867767507
v -0.01491013527 0.1219999981 0.3893204481
v -0.02130835533 0.1219999981 0.3933823377
v -0.02664786577 0.1219999981 0.3987606126
v -0.03066336632 0.1219999981 0.4051880533
v -0.03315535069 0.1219999981 0.4123453027
v -0.03400000095 0.1219999981 0.4198767549
v -0.03315535069 0.1219999981 0.4274082071
v -0.03066336632 0.1219999981 0.4345654565
v -0.02664786577 0.1219999981 0.4409928972
v -0.02130835533 0.1219999981 0.4463711626
v -0.01491013527 0.1219999981 0.4504330522
v -0.007771100402 0.1219999981 0.4529767496
v 0.02962120295 0.1219999981 0.4058030492
v 0.02886818171 0.1219999981 0.4073667127
v 0.02717616081 0.1219999981 0.4077529031
v 0.02581926346 0.1219999981 0.4066708166
v 0.02581926346 0.1219999981 0.4049352819
v 0.02717616081 0.1219999981 0.4038531953
v 0.02886818171 0.1219999981 0.4042393858
v -0.02562120199 0.1219999981 0.4339504511
v -0.02637422323 0.1219999981 0.4355141145
v -0.02806624413 0.1219999981 0.4359003145
v -0.0294231391 0.1219999981 0.4348182184
v -0.0294231391 0.1219999981 0.4330826837
v -0.02806624413 0.1219999981 0.4320006067
v -0.02637422323 0.1219999981 0.4323867876
v 0.02962120295 0.1219999981 0.4339504511
v 0.02886818171 0.1219999981 0.4355141145
v 0.02717616081 0.1219999981 0.4359003145
v 0.02581926346 0.1219999981 0.4348182184
v 0.02581926346 0.1219999981 0.4330826837
v 0.02717616081 0.1219999981 0.4320006067
v 0.02886818171 0.1219999981 0.4323867876
v -0.02562120199 0.1219999981 0.4058030492
v -0.02637422323 0.1219999981 0.4073667127
v -0.02806624413 0.1219999981 0.4077529031
v -0.0294231391 0.1219999981 0.4066708166
v -0.0294231391 0.1219999981 0.4049352819
v -0.02806624413 0.1219999981 0.4038531953
v -0.02637422323 0.1219999981 0.4042393858
v -0.02562120199 0.1219999981 0.4058030492
v -0.02637422323 0.1219999981 0.4042393858
v -0.02806624413 0.1219999981 0.4038531953
v -0.0294231391 0.1219999981 0.4049352819
v -0.0294231391 0.1219999981 0.4066708166
v -0.02806624413 0.1219999981 0.4077529031
v -0.02637422323 0.1219999981 0.4073667127
v -0.02562120199 0.1189999962 0.4058030492
v -0.02637422323 0.1189999962 0.4073667127
v -0.02806624413 0.1189999962 0.4077529031
v -0.0294231391 0.1189999962 0.4066708166
v -0.0294231391 0.1189999962 0.4049352819
v -0.02806624413 0.1189999962 0.4038531953
v -0.02637422323 0.1189999962 0.4042393858
v -0.0294231391 0.1219999981 0.4066708166
v -0.0294231391 0.1189999962 0.4066708166
v -0.02562120199 0.1189999962 0.4058030492
v -0.02637422323 0.1189999962 0.4042393858
v -0.02806624413 0.1189999962 0.4038531953
v -0.0294231391 0.1189999962 0.4049352819
v -0.0294231391 0.1189999962 0.4066708166
v -0.02806624413 0.1189999962 0.4077529031
v -0.02637422323 0.1189999962 0.4073667127
v -0.02882120132 0.1189999962 0.4058030492
v -0.02799202204 0.1189999962 0.4046617777
v -0.02665038109 0.1189999962 0.4050977022
v -0.02665038109 0.1189999962 0.4065083868
v -0.02799202204 0.1189999962 0.4069443113
v 0.02962120295 0.1189999962 0.4058030492
v 0.02886818171 0.1189999962 0.4042393858
v 0.02717616081 0.1189999962 0.4038531953
v 0.02581926346 0.1189999962 0.4049352819
v 0.02581926346 0.1189999962 0.4066708166
v 0.02717616081 0.1189999962 0.4077529031
v 0.02886818171 0.1189999962 0.4073667127
v 0.02642120123 0.1189999962 0.4058030492
v 0.0272503829 0.1189999962 0.4046617777
v 0.02859202147 0.1189999962 0.4050977022
v 0.02859202147 0.1189999962 0.4065083868
v 0.0272503829 0.1189999962 0.4069443113
v -0.02562120199 0.1189999962 0.4339504511
v -0.02637422323 0.1189999962 0.4323867876
v -0.02806624413 0.1189999962 0.4320006067
v -0.0294231391 0.1189999962 0.4330826837
v -0.0294231391 0.1189999962 0.4348182184
v -0.02806624413 0.1189999962 0.4359003145
v -0.02637422323 0.1189999962 0.4355141145
v -0.02882120132 0.1189999962 0.4339504511
v -0.02799202204 0.1189999962 0.432809189
v -0.02665038109 0.1189999962 0.4332451135
v -0.02665038109 0.1189999962 0.4346558077
v -0.02799202204 0.1189999962 0.4350917322
v 0.02962120295 0.1189999962 0.4339504511
v 0.02886818171 0.1189999962 0.4323867876
v 0.02717616081 0.1189999962 0.4320006067
v 0.02581926346 0.1189999962 0.4330826837
v 0.02581926346 0.1189999962 0.4348182184
v 0.02717616081 0.1189999962 0.4359003145
v 0.02886818171 0.1189999962 0.4355141145
v 0.02642120123 0.1189999962 0.4339504511
v 0.0272503829 0.1189999962 0.432809189
v 0.02859202147 0.1189999962 0.4332451135
v 0.02859202147 0.1189999962 0.4346558077
v 0.0272503829 0.1189999962 0.4350917322
v 0.007771100402 0.1219999981 0.3867767507
v 0.01491013527 0.1219999981 0.3893204481
v 0.02130835533 0.1219999981 0.3933823377
v 0.02664786577 0.1219999981 0.3987606126
v 0.03066336632 0.1219999981 0.4051880533
v 0.03315535069 0.1219999981 0.4123453027
v 0.03400000095 0.1219999981 0.4198767549
v 0.03315535069 0.1219999981 0.4274082071
v 0.03066336632 0.1219999981 0.4345654565
v 0.02664786577 0.1219999981 0.4409928972
v 0.02130835533 0.1219999981 0.4463711626
v 0.01491013527 0.1219999981 0.4504330522
v 0.007771100402 0.1219999981 0.4529767496
v 0.009748747945 0.1218627453 0.4529767496
v 0.01137497306 0.1210000038 0.4529767496
v 0.01848542809 0.1210000038 0.4495969278
v 0.02466057062 0.1210000038 0.4447133524
v 0.02958795071 0.1210000038 0.4385731012
v 0.03301826 0.1210000038 0.4314868623
v 0.03477793217 0.1210000038 0.4238131792
v 0.03477793217 0.1210000038 0.4159403307
v 0.03301826 0.1210000038 0.4082666475
v 0.02958795071 0.1210000038 0.4011804086
v 0.02466057062 0.1210000038 0.3950401575
v 0.01848542809 0.1210000038 0.3901565725
v 0.01137497306 0.1210000038 0.3867767507
v 0.009748747945 0.1218627453 0.3867767507
v 0.02962120295 0.1219999981 0.4058030492
v 0.02886818171 0.1219999981 0.4042393858
v 0.02717616081 0.1219999981 0.4038531953
v 0.02581926346 0.1219999981 0.4049352819
v 0.02581926346 0.1219999981 0.4066708166
v 0.02717616081 0.1219999981 0.4077529031
v 0.02886818171 0.1219999981 0.4073667127
v 0.02962120295 0.1189999962 0.4058030492
v 0.02886818171 0.1189999962 0.4073667127
v 0.02717616081 0.1189999962 0.4077529031
v 0.02581926346 0.1189999962 0.4066708166
v 0.02581926346 0.1189999962 0.4049352819
v 0.02717616081 0.1189999962 0.4038531953
v 0.02886818171 0.1189999962 0.4042393858
v 0.02581926346 0.1219999981 0.4066708166
v 0.02581926346 0.1189999962 0.4066708166
v 0.007699999809 0.1147000027 0.3867767507
v -0.007699999809 0.1147000027 0.3867767507
v -0.007699999809 0.1060000038 0.3867767507
v -0.01137497306 0.1060000038 0.3867767507
v -0.01137497306 0.1210000038 0.3867767507
v -0.009748747945 0.1218627453 0.3867767507
v -0.007771100402 0.1219999981 0.3867767507
v 0.007771100402 0.1219999981 0.3867767507
v 0.009748747945 0.1218627453 0.3867767507
v 0.01137497306 0.1210000038 0.3867767507
v 0.01137497306 0.1060000038 0.3867767507
v 0.007699999809 0.1060000038 0.3867767507
v 0.007699999809 0.1060000038 0.4529767496
v 0.01137497306 0.1060000038 0.4529767496
v 0.01137497306 0.1210000038 0.4529767496
v 0.009748747945 0.1218627453 0.4529767496
v 0.007771100402 0.1219999981 0.4529767496
v -0.007771100402 0.1219999981 0.4529767496
v -0.009748747945 0.1218627453 0.4529767496
v -0.01137497306 0.1210000038 0.4529767496
v -0.01137497306 0.1060000038 0.4529767496
v -0.007699999809 0.1060000038 0.4529767496
v -0.007699999809 0.1147000027 0.4529767496
v 0.007699999809 0.1147000027 0.4529767496
v -0.007771100402 0.1219999981 0.4529767496
v -0.01491013527 0.1219999981 0.4504330522
v -0.02130835533 0.1219999981 0.4463711626
v -0.02664786577 0.1219999981 0.4409928972
v -0.03066336632 0.1219999981 0.4345654565
v -0.03315535069 0.1219999981 0.4274082071
v -0.03400000095 0.1219999981 0.4198767549
v -0.03315535069 0.1219999981 0.4123453027
v -0.03066336632 0.1219999981 0.4051880533
v -0.02664786577 0.1219999981 0.3987606126
v -0.02130835533 0.1219999981 0.3933823377
v -0.01491013527 0.1219999981 0.3893204481
v -0.007771100402 0.1219999981 0.3867767507
v -0.009748747945 0.1218627453 0.3867767507
v -0.01137497306 0.1210000038 0.3867767507
v -0.01848542809 0.1210000038 0.3901565725
v -0.02466057062 0.1210000038 0.3950401575
v -0.02958795071 0.1210000038 0.4011804086
v -0.03301826 0.1210000038 0.4082666475
v -0.03477793217 0.1210000038 0.4159403307
v -0.03477793217 0.1210000038 0.4238131792
v -0.03301826 0.1210000038 0.4314868623
v -0.02958795071 0.1210000038 0.4385731012
v -0.02466057062 0.1210000038 0.4447133524
v -0.01848542809 0.1210000038 0.4495969278
v -0.01137497306 0.1210000038 0.4529767496
v -0.009748747945 0.1218627453 0.4529767496
v -0.02562120199 0.1219999981 0.4339504511
v -0.02637422323 0.1219999981 0.4323867876
v -0.02806624413 0.1219999981 0.4320006067
v -0.0294231391 0.1219999981 0.4330826837
v -0.0294231391 0.1219999981 0.4348182184
v -0.02806624413 0.1219999981 0.4359003145
v -0.02637422323 0.1219999981 0.4355141145
v -0.02562120199 0.1189999962 0.4339504511
v -0.02637422323 0.1189999962 0.4355141145
v -0.02806624413 0.1189999962 0.4359003145
v -0.0294231391 0.1189999962 0.4348182184
v -0.0294231391 0.1189999962 0.4330826837
v -0.02806624413 0.1189999962 0.4320006067
v -0.02637422323 0.1189999962 0.4323867876
v -0.0294231391 0.1219999981 0.4348182184
v -0.0294231391 0.1189999962 0.4348182184
v 0.01137497306 0.1060000038 0.4529767496
v 0.01848542809 0.1060000038 0.4495969278
v 0.02466057062 0.1060000038 0.4447133524
v 0.02958795071 0.1060000038 0.4385731012
v 0.03301826 0.1060000038 0.4314868623
v 0.03477793217 0.1060000038 0.4238131792
v 0.03477793217 0.1060000038 0.4159403307
v 0.03301826 0.1060000038 0.4082666475
v 0.02958795071 0.1060000038 0.4011804086
v 0.02466057062 0.1060000038 0.3950401575
v 0.01848542809 0.1060000038 0.3901565725
v 0.01137497306 0.1060000038 0.3867767507
v 0.01137497306 0.1210000038 0.3867767507
v 0.01848542809 0.1210000038 0.3901565725
v 0.02466057062 0.1210000038 0.3950401575
v 0.02958795071 0.1210000038 0.4011804086
v 0.03301826 0.1210000038 0.4082666475
v 0.03477793217 0.1210000038 0.4159403307
v 0.03477793217 0.1210000038 0.4238131792
v 0.03301826 0.1210000038 0.4314868623
v 0.02958795071 0.1210000038 0.4385731012
v 0.02466057062 0.1210000038 0.4447133524
v 0.01848542809 0.1210000038 0.4495969278
v 0.01137497306 0.1210000038 0.4529767496
v 0.007699999809 0.1147000027 0.4529767496
v 0.007599999905 0.1147000027 0.4529499513
v 0.007526794672 0.1147000027 0.4528767473
v 0.0075 0.1147000027 0.452776745
v 0.0075 0.1060000038 0.452776745
v 0.007526794672 0.1060000038 0.4528767473
v 0.007599999905 0.1060000038 0.4529499513
v 0.007699999809 0.1060000038 0.4529767496
v -0.007699999809 0.1147000027 0.3867767507
v -0.007599999905 0.1147000027 0.386803549
v -0.007526794672 0.1147000027 0.386876753
v -0.0075 0.1147000027 0.3869767553
v -0.0075 0.1060000038 0.3869767553
v -0.007526794672 0.1060000038 0.386876753
v -0.007599999905 0.1060000038 0.386803549
v -0.007699999809 0.1060000038 0.3867767507
v 0.02962120295 0.1219999981 0.4339504511
v 0.02886818171 0.1219999981 0.4323867876
v 0.02717616081 0.1219999981 0.4320006067
v 0.02581926346 0.1219999981 0.4330826837
v 0.02581926346 0.1219999981 0.4348182184
v 0.02717616081 0.1219999981 0.4359003145
v 0.02886818171 0.1219999981 0.4355141145
v 0.02962120295 0.1189999962 0.4339504511
v 0.02886818171 0.1189999962 0.4355141145
v 0.02717616081 0.1189999962 0.4359003145
v 0.02581926346 0.1189999962 0.4348182184
v 0.02581926346 0.1189999962 0.4330826837
v 0.02717616081 0.1189999962 0.4320006067
v 0.02886818171 0.1189999962 0.4323867876
v 0.02581926346 0.1219999981 0.4348182184
v 0.02581926346 0.1189999962 0.4348182184
v -0.02882120132 0.1169999981 0.4058030492
v -0.02799202204 0.1169999981 0.4046617777
v -0.02665038109 0.1169999981 0.4050977022
v -0.02665038109 0.1169999981 0.4065083868
v -0.02799202204 0.1169999981 0.4069443113
v -0.02882120132 0.1189999962 0.4058030492
v -0.02799202204 0.1189999962 0.4069443113
v -0.02665038109 0.1189999962 0.4065083868
v -0.02665038109 0.1189999962 0.4050977022
v -0.02799202204 0.1189999962 0.4046617777
v -0.02882120132 0.1189999962 0.4058030492
v -0.02882120132 0.1169999981 0.4058030492
v -0.01137497306 0.1210000038 0.4529767496
v -0.01848542809 0.1210000038 0.4495969278
v -0.02466057062 0.1210000038 0.4447133524
v -0.02958795071 0.1210000038 0.4385731012
v -0.03301826 0.1210000038 0.4314868623
v -0.03477793217 0.1210000038 0.4238131792
v -0.03477793217 0.1210000038 0.4159403307
v -0.03301826 0.1210000038 0.4082666475
v -0.02958795071 0.1210000038 0.4011804086
v -0.02466057062 0.1210000038 0.3950401575
v -0.01848542809 0.1210000038 0.3901565725
v -0.01137497306 0.1210000038 0.3867767507
v -0.01137497306 0.1060000038 0.3867767507
v -0.01848542809 0.1060000038 0.3901565725
v -0.02466057062 0.1060000038 0.3950401575
v -0.02958795071 0.1060000038 0.4011804086
v -0.03301826 0.1060000038 0.4082666475
v -0.03477793217 0.1060000038 0.4159403307
v -0.03477793217 0.1060000038 0.4238131792
v -0.03301826 0.1060000038 0.4314868623
v -0.02958795071 0.1060000038 0.4385731012
v -0.02466057062 0.1060000038 0.4447133524
v -0.01848542809 0.1060000038 0.4495969278
v -0.01137497306 0.1060000038 0.4529767496
v 0.007699999809 0.1060000038 0.3867767507
v 0.01137497306 0.1060000038 0.3867767507
v 0.01848542809 0.1060000038 0.3901565725
v 0.02466057062 0.1060000038 0.3950401575
v 0.02958795071 0.1060000038 0.4011804086
v 0.03301826 0.1060000038 0.4082666475
v 0.03477793217 0.1060000038 0.4159403307
v 0.03477793217 0.1060000038 0.4238131792
v 0.03301826 0.1060000038 0.4314868623
v 0.02958795071 0.1060000038 0.4385731012
v 0.02466057062 0.1060000038 0.4447133524
v 0.01848542809 0.1060000038 0.4495969278
v 0.01137497306 0.1060000038 0.4529767496
v 0.007699999809 0.1060000038 0.4529767496
v 0.007599999905 0.1060000038 0.4529499513
v 0.007526794672 0.1060000038 0.4528767473
v 0.0075 0.1060000038 0.452776745
v 0.0075 0.1060000038 0.4524284441
v 0.007519578934 0.1060000038 0.4523421365
v 0.00757448256 0.1060000038 0.4522727281
v 0.007653961182 0.1060000038 0.4522338182
v 0.0152255559 0.1060000038 0.4494359285
v 0.02189981937 0.1060000038 0.4448959428
v 0.02728340149 0.1060000038 0.4388814432
v 0.0310590148 0.1060000038 0.4317468912
v 0.03300413847 0.1060000038 0.4239127618
v 0.03300413847 0.1060000038 0.415840748
v 0.0310590148 0.1060000038 0.4080066187
v 0.02728340149 0.1060000038 0.4008720571
v 0.02189981937 0.1060000038 0.3948575479
v 0.0152255559 0.1060000038 0.3903175718
v 0.007653961182 0.1060000038 0.3875196916
v 0.00757448256 0.1060000038 0.3874807722
v 0.007519578934 0.1060000038 0.3874113638
v 0.0075 0.1060000038 0.3873250658
v 0.0075 0.1060000038 0.3869767553
v 0.007526794672 0.1060000038 0.386876753
v 0.007599999905 0.1060000038 0.386803549
v -0.0075 0.1060000038 0.3873250658
v -0.0075 0.1060000038 0.3869767553
v -0.0075 0.1147000027 0.3869767553
v -0.0075 0.1147000027 0.3873250658
v 0.02642120123 0.1169999981 0.4058030492
v 0.0272503829 0.1169999981 0.4046617777
v 0.02859202147 0.1169999981 0.4050977022
v 0.02859202147 0.1169999981 0.4065083868
v 0.0272503829 0.1169999981 0.4069443113
v 0.02642120123 0.1189999962 0.4058030492
v 0.0272503829 0.1189999962 0.4069443113
v 0.02859202147 0.1189999962 0.4065083868
v 0.02859202147 0.1189999962 0.4050977022
v 0.0272503829 0.1189999962 0.4046617777
v 0.02642120123 0.1189999962 0.4058030492
v 0.02642120123 0.1169999981 0.4058030492
v -0.03198673964 0.1169999981 0.4289547998
v -0.03121010542 0.1169999981 0.4302689249
v -0.02988736153 0.1169999981 0.4310307581
v -0.02836096048 0.1169999981 0.4310430986
v -0.02638369083 0.1169999981 0.4312175829
v -0.02494818211 0.1169999981 0.4325884897
v -0.02468287468 0.1169999981 0.4345556337
v -0.02570391417 0.1169999981 0.436257847
v -0.02659113169 0.1169999981 0.4374999696
v -0.0267522788 0.1169999981 0.4390178949
v -0.02614563227 0.1169999981 0.4404186136
v -0.02858458519 0.1169999981 0.436861561
v -0.03054260254 0.1169999981 0.4330187494
v -0.02882120132 0.1169999981 0.4339504511
v -0.02799202204 0.1169999981 0.4350917322
v -0.02665038109 0.1169999981 0.4346558077
v -0.02665038109 0.1169999981 0.4332451135
v -0.02799202204 0.1169999981 0.432809189
v 0.01202341437 0.1147000027 0.3888767511
v -0.01202341437 0.1147000027 0.3888767511
v -0.0105882144 0.1147000027 0.3883576757
v -0.009130706191 0.1147000027 0.3879050047
v -0.007653961182 0.1147000027 0.3875196916
v -0.00757448256 0.1147000027 0.3874807722
v -0.007519578934 0.1147000027 0.3874113638
v -0.0075 0.1147000027 0.3873250658
v -0.0075 0.1147000027 0.3869767553
v -0.007526794672 0.1147000027 0.386876753
v -0.007599999905 0.1147000027 0.386803549
v -0.007699999809 0.1147000027 0.3867767507
v 0.007699999809 0.1147000027 0.3867767507
v 0.007599999905 0.1147000027 0.386803549
v 0.007526794672 0.1147000027 0.386876753
v 0.0075 0.1147000027 0.3869767553
v 0.0075 0.1147000027 0.3873250658
v 0.007519578934 0.1147000027 0.3874113638
v 0.00757448256 0.1147000027 0.3874807722
v 0.007653961182 0.1147000027 0.3875196916
v 0.009130706191 0.1147000027 0.3879050047
v 0.0105882144 0.1147000027 0.3883576757
v -0.007653961182 0.1060000038 0.3875196916
v -0.0152255559 0.1060000038 0.3903175718
v -0.02189981937 0.1060000038 0.3948575479
v -0.02728340149 0.1060000038 0.4008720571
v -0.0310590148 0.1060000038 0.4080066187
v -0.03300413847 0.1060000038 0.415840748
v -0.03300413847 0.1060000038 0.4239127618
v -0.0310590148 0.1060000038 0.4317468912
v -0.02728340149 0.1060000038 0.4388814432
v -0.02189981937 0.1060000038 0.4448959428
v -0.0152255559 0.1060000038 0.4494359285
v -0.007653961182 0.1060000038 0.4522338182
v -0.00757448256 0.1060000038 0.4522727281
v -0.007519578934 0.1060000038 0.4523421365
v -0.0075 0.1060000038 0.4524284441
v -0.0075 0.1060000038 0.452776745
v -0.007526794672 0.1060000038 0.4528767473
v -0.007599999905 0.1060000038 0.4529499513
v -0.007699999809 0.1060000038 0.4529767496
v -0.01137497306 0.1060000038 0.4529767496
v -0.01848542809 0.1060000038 0.4495969278
v -0.02466057062 0.1060000038 0.4447133524
v -0.02958795071 0.1060000038 0.4385731012
v -0.03301826 0.1060000038 0.4314868623
v -0.03477793217 0.1060000038 0.4238131792
v -0.03477793217 0.1060000038 0.4159403307
v -0.03301826 0.1060000038 0.4082666475
v -0.02958795071 0.1060000038 0.4011804086
v -0.02466057062 0.1060000038 0.3950401575
v -0.01848542809 0.1060000038 0.3901565725
v -0.01137497306 0.1060000038 0.3867767507
v -0.007699999809 0.1060000038 0.3867767507
v -0.007599999905 0.1060000038 0.386803549
v -0.007526794672 0.1060000038 0.386876753
v -0.0075 0.1060000038 0.3869767553
v -0.0075 0.1060000038 0.3873250658
v -0.007519578934 0.1060000038 0.3874113638
v -0.00757448256 0.1060000038 0.3874807722
v -0.0075 0.1147000027 0.3873250658
v -0.007519578934 0.1147000027 0.3874113638
v -0.00757448256 0.1147000027 0.3874807722
v -0.007653961182 0.1147000027 0.3875196916
v -0.007653961182 0.1060000038 0.3875196916
v -0.00757448256 0.1060000038 0.3874807722
v -0.007519578934 0.1060000038 0.3874113638
v -0.0075 0.1060000038 0.3873250658
v -0.02882120132 0.1169999981 0.4339504511
v -0.02799202204 0.1169999981 0.432809189
v -0.02665038109 0.1169999981 0.4332451135
v -0.02665038109 0.1169999981 0.4346558077
v -0.02799202204 0.1169999981 0.4350917322
v -0.02882120132 0.1189999962 0.4339504511
v -0.02799202204 0.1189999962 0.4350917322
v -0.02665038109 0.1189999962 0.4346558077
v -0.02665038109 0.1189999962 0.4332451135
v -0.02799202204 0.1189999962 0.432809189
v -0.02882120132 0.1189999962 0.4339504511
v -0.02882120132 0.1169999981 0.4339504511
v 0.02642120123 0.1169999981 0.4339504511
v 0.0272503829 0.1169999981 0.432809189
v 0.02859202147 0.1169999981 0.4332451135
v 0.02859202147 0.1169999981 0.4346558077
v 0.0272503829 0.1169999981 0.4350917322
v 0.02642120123 0.1189999962 0.4339504511
v 0.0272503829 0.1189999962 0.4350917322
v 0.02859202147 0.1189999962 0.4346558077
v 0.02859202147 0.1189999962 0.4332451135
v 0.0272503829 0.1189999962 0.432809189
v 0.02642120123 0.1189999962 0.4339504511
v 0.02642120123 0.1169999981 0.4339504511
v 0.02836096048 0.1169999981 0.4310430986
v 0.02988736153 0.1169999981 0.4310307581
v 0.03121010542 0.1169999981 0.4302689249
v 0.03198673964 0.1169999981 0.4289547998
v 0.03054260254 0.1169999981 0.4330187494
v 0.02858458519 0.1169999981 0.436861561
v 0.02614563227 0.1169999981 0.4404186136
v 0.0267522788 0.1169999981 0.4390178949
v 0.02659113169 0.1169999981 0.4374999696
v 0.02570391417 0.1169999981 0.436257847
v 0.02468287468 0.1169999981 0.4345556337
v 0.02494818211 0.1169999981 0.4325884897
v 0.02638369083 0.1169999981 0.4312175829
v 0.02642120123 0.1169999981 0.4339504511
v 0.0272503829 0.1169999981 0.4350917322
v 0.02859202147 0.1169999981 0.4346558077
v 0.02859202147 0.1169999981 0.4332451135
v 0.0272503829 0.1169999981 0.432809189
v 0.0075 0.1060000038 0.3869767553
v 0.0075 0.1147000027 0.3869767553
v 0.007526794672 0.1147000027 0.386876753
v 0.007599999905 0.1147000027 0.386803549
v 0.007699999809 0.1147000027 0.3867767507
v 0.007699999809 0.1060000038 0.3867767507
v 0.007599999905 0.1060000038 0.386803549
v 0.007526794672 0.1060000038 0.386876753
v 0.007653961182 0.1060000038 0.3875196916
v 0.007653961182 0.1147000027 0.3875196916
v 0.00757448256 0.1147000027 0.3874807722
v 0.007519578934 0.1147000027 0.3874113638
v 0.0075 0.1147000027 0.3873250658
v 0.0075 0.1060000038 0.3873250658
v 0.007519578934 0.1060000038 0.3874113638
v 0.00757448256 0.1060000038 0.3874807722
v -0.03198673964 0.1189999962 0.410798691
v -0.03310883999 0.1189999962 0.4168161661
v -0.03310883999 0.1189999962 0.4229373438
v -0.03198673964 0.1189999962 0.4289547998
v -0.03198673964 0.1169999981 0.4289547998
v -0.03054260254 0.1169999981 0.4330187494
v -0.02858458519 0.1169999981 0.436861561
v -0.02614563227 0.1169999981 0.4404186136
v -0.02614563227 0.1189999962 0.4404186136
v -0.02208819866 0.1189999962 0.4447297937
v -0.01733051658 0.1189999962 0.4482530672
v -0.01202341437 0.1189999962 0.4508767587
v -0.01202341437 0.1147000027 0.4508767587
v -0.0105882144 0.1147000027 0.4513958246
v -0.009130706191 0.1147000027 0.4518484956
v -0.007653961182 0.1147000027 0.4522338182
v -0.007653961182 0.1060000038 0.4522338182
v -0.0152255559 0.1060000038 0.4494359285
v -0.02189981937 0.1060000038 0.4448959428
v -0.02728340149 0.1060000038 0.4388814432
v -0.0310590148 0.1060000038 0.4317468912
v -0.03300413847 0.1060000038 0.4239127618
v -0.03300413847 0.1060000038 0.415840748
v -0.0310590148 0.1060000038 0.4080066187
v -0.02728340149 0.1060000038 0.4008720571
v -0.02189981937 0.1060000038 0.3948575479
v -0.0152255559 0.1060000038 0.3903175718
v -0.007653961182 0.1060000038 0.3875196916
v -0.007653961182 0.1147000027 0.3875196916
v -0.009130706191 0.1147000027 0.3879050047
v -0.0105882144 0.1147000027 0.3883576757
v -0.01202341437 0.1147000027 0.3888767511
v -0.01202341437 0.1189999962 0.3888767511
v -0.01733051658 0.1189999962 0.3915004331
v -0.02208819866 0.1189999962 0.3950237066
v -0.02614563227 0.1189999962 0.3993348772
v -0.02614563227 0.1169999981 0.3993348772
v -0.02858458519 0.1169999981 0.4028919393
v -0.03054260254 0.1169999981 0.4067347604
v -0.03198673964 0.1169999981 0.410798691
v -0.02614563227 0.1169999981 0.3993348772
v -0.0267522788 0.1169999981 0.4007356054
v -0.02659113169 0.1169999981 0.4022535307
v -0.02570391417 0.1169999981 0.4034956628
v -0.02468287468 0.1169999981 0.4051978761
v -0.02494818211 0.1169999981 0.4071650201
v -0.02638369083 0.1169999981 0.4085359174
v -0.02836096048 0.1169999981 0.4087104112
v -0.02988736153 0.1169999981 0.4087227422
v -0.03121010542 0.1169999981 0.409484585
v -0.03198673964 0.1169999981 0.410798691
v -0.03054260254 0.1169999981 0.4067347604
v -0.02858458519 0.1169999981 0.4028919393
v -0.02882120132 0.1169999981 0.4058030492
v -0.02799202204 0.1169999981 0.4069443113
v -0.02665038109 0.1169999981 0.4065083868
v -0.02665038109 0.1169999981 0.4050977022
v -0.02799202204 0.1169999981 0.4046617777
v 0.0075 0.1060000038 0.3869767553
v 0.0075 0.1060000038 0.3873250658
v 0.0075 0.1147000027 0.3873250658
v 0.0075 0.1147000027 0.3869767553
v -0.0075 0.1060000038 0.452776745
v -0.0075 0.1147000027 0.452776745
v -0.007526794672 0.1147000027 0.4528767473
v -0.007599999905 0.1147000027 0.4529499513
v -0.007699999809 0.1147000027 0.4529767496
v -0.007699999809 0.1060000038 0.4529767496
v -0.007599999905 0.1060000038 0.4529499513
v -0.007526794672 0.1060000038 0.4528767473
v -0.007699999809 0.1147000027 0.4529767496
v -0.007599999905 0.1147000027 0.4529499513
v -0.007526794672 0.1147000027 0.4528767473
v -0.0075 0.1147000027 0.452776745
v -0.0075 0.1147000027 0.4524284441
v -0.007519578934 0.1147000027 0.4523421365
v -0.00757448256 0.1147000027 0.4522727281
v -0.007653961182 0.1147000027 0.4522338182
v -0.009130706191 0.1147000027 0.4518484956
v -0.0105882144 0.1147000027 0.4513958246
v -0.01202341437 0.1147000027 0.4508767587
v 0.01202341437 0.1147000027 0.4508767587
v 0.0105882144 0.1147000027 0.4513958246
v 0.009130706191 0.1147000027 0.4518484956
v 0.007653961182 0.1147000027 0.4522338182
v 0.00757448256 0.1147000027 0.4522727281
v 0.007519578934 0.1147000027 0.4523421365
v 0.0075 0.1147000027 0.4524284441
v 0.0075 0.1147000027 0.452776745
v 0.007526794672 0.1147000027 0.4528767473
v 0.007599999905 0.1147000027 0.4529499513
v 0.007699999809 0.1147000027 0.4529767496
v 0.01202341437 0.1189999962 0.3888767511
v 0.01202341437 0.1147000027 0.3888767511
v 0.0105882144 0.1147000027 0.3883576757
v 0.009130706191 0.1147000027 0.3879050047
v 0.007653961182 0.1147000027 0.3875196916
v 0.007653961182 0.1060000038 0.3875196916
v 0.0152255559 0.1060000038 0.3903175718
v 0.02189981937 0.1060000038 0.3948575479
v 0.02728340149 0.1060000038 0.4008720571
v 0.0310590148 0.1060000038 0.4080066187
v 0.03300413847 0.1060000038 0.415840748
v 0.03300413847 0.1060000038 0.4239127618
v 0.0310590148 0.1060000038 0.4317468912
v 0.02728340149 0.1060000038 0.4388814432
v 0.02189981937 0.1060000038 0.4448959428
v 0.0152255559 0.1060000038 0.4494359285
v 0.007653961182 0.1060000038 0.4522338182
v 0.007653961182 0.1147000027 0.4522338182
v 0.009130706191 0.1147000027 0.4518484956
v 0.0105882144 0.1147000027 0.4513958246
v 0.01202341437 0.1147000027 0.4508767587
v 0.01202341437 0.1189999962 0.4508767587
v 0.01733051658 0.1189999962 0.4482530672
v 0.02208819866 0.1189999962 0.4447297937
v 0.02614563227 0.1189999962 0.4404186136
v 0.02614563227 0.1169999981 0.4404186136
v 0.02858458519 0.1169999981 0.436861561
v 0.03054260254 0.1169999981 0.4330187494
v 0.03198673964 0.1169999981 0.4289547998
v 0.03198673964 0.1189999962 0.4289547998
v 0.03310883999 0.1189999962 0.4229373438
v 0.03310883999 0.1189999962 0.4168161661
v 0.03198673964 0.1189999962 0.410798691
v 0.03198673964 0.1169999981 0.410798691
v 0.03054260254 0.1169999981 0.4067347604
v 0.02858458519 0.1169999981 0.4028919393
v 0.02614563227 0.1169999981 0.3993348772
v 0.02614563227 0.1189999962 0.3993348772
v 0.02208819866 0.1189999962 0.3950237066
v 0.01733051658 0.1189999962 0.3915004331
v 0.03198673964 0.1169999981 0.410798691
v 0.03121010542 0.1169999981 0.409484585
v 0.02988736153 0.1169999981 0.4087227422
v 0.02836096048 0.1169999981 0.4087104112
v 0.02638369083 0.1169999981 0.4085359174
v 0.02494818211 0.1169999981 0.4071650201
v 0.02468287468 0.1169999981 0.4051978761
v 0.02570391417 0.1169999981 0.4034956628
v 0.02659113169 0.1169999981 0.4022535307
v 0.0267522788 0.1169999981 0.4007356054
v 0.02614563227 0.1169999981 0.3993348772
v 0.02858458519 0.1169999981 0.4028919393
v 0.03054260254 0.1169999981 0.4067347604
v 0.02642120123 0.1169999981 0.4058030492
v 0.0272503829 0.1169999981 0.4069443113
v 0.02859202147 0.1169999981 0.4065083868
v 0.02859202147 0.1169999981 0.4050977022
v 0.0272503829 0.1169999981 0.4046617777
v -0.01202341437 0.1189999962 0.3888767511
v -0.01202341437 0.1147000027 0.3888767511
v 0.01202341437 0.1147000027 0.3888767511
v 0.01202341437 0.1189999962 0.3888767511
v -0.0075 0.1147000027 0.4524284441
v -0.0075 0.1147000027 0.452776745
v -0.0075 0.1060000038 0.452776745
v -0.0075 0.1060000038 0.4524284441
v 0.0075 0.1060000038 0.4524284441
v 0.0075 0.1060000038 0.452776745
v 0.0075 0.1147000027 0.452776745
v 0.0075 0.1147000027 0.4524284441
v -0.01183480024 0.12 0.4498767549
v -0.01202341437 0.1189999962 0.4508767587
v -0.01733051658 0.1189999962 0.4482530672
v -0.02208819866 0.1189999962 0.4447297937
v -0.02614563227 0.1189999962 0.4404186136
v -0.02604028225 0.1194999981 0.4403358537
v -0.02575246334 0.1198660278 0.4401097185
v -0.0253592968 0.12 0.4398008234
v -0.02147013426 0.12 0.4439411623
v -0.01691486001 0.12 0.4473349077
v 0.0075 0.1147000027 0.4524284441
v 0.007519578934 0.1147000027 0.4523421365
v 0.00757448256 0.1147000027 0.4522727281
v 0.007653961182 0.1147000027 0.4522338182
v 0.007653961182 0.1060000038 0.4522338182
v 0.00757448256 0.1060000038 0.4522727281
v 0.007519578934 0.1060000038 0.4523421365
v 0.0075 0.1060000038 0.4524284441
v -0.007653961182 0.1060000038 0.4522338182
v -0.007653961182 0.1147000027 0.4522338182
v -0.00757448256 0.1147000027 0.4522727281
v -0.007519578934 0.1147000027 0.4523421365
v -0.0075 0.1147000027 0.4524284441
v -0.0075 0.1060000038 0.4524284441
v -0.007519578934 0.1060000038 0.4523421365
v -0.00757448256 0.1060000038 0.4522727281
v 0.01183480024 0.12 0.3898767549
v 0.01691486001 0.12 0.3924186021
v 0.02147013426 0.12 0.395812338
v 0.0253592968 0.12 0.3999526865
v 0.02576372862 0.12 0.4008864957
v 0.02565629721 0.12 0.4018984491
v 0.02506481886 0.12 0.402726534
v 0.02370343208 0.12 0.4049961549
v 0.02405717611 0.12 0.4076190073
v 0.02597118616 0.12 0.4094468671
v 0.0286075449 0.12 0.4096795351
v 0.02962514639 0.12 0.4096877557
v 0.03050697565 0.12 0.4101956445
v 0.03102473259 0.12 0.4110717279
v 0.03211308479 0.12 0.4169082147
v 0.03211308479 0.12 0.4228452951
v 0.03102473259 0.12 0.4286817819
v 0.03050697565 0.12 0.4295578653
v 0.02962514639 0.12 0.4300657541
v 0.0286075449 0.12 0.4300739748
v 0.02597118616 0.12 0.4303066332
v 0.02405717611 0.12 0.4321345026
v 0.02370343208 0.12 0.4347573549
v 0.02506481886 0.12 0.4370269663
v 0.02565629721 0.12 0.4378550607
v 0.02576372862 0.12 0.4388670046
v 0.0253592968 0.12 0.4398008234
v 0.02147013426 0.12 0.4439411623
v 0.01691486001 0.12 0.4473349077
v 0.01183480024 0.12 0.4498767549
v -0.01183480024 0.12 0.4498767549
v -0.01691486001 0.12 0.4473349077
v -0.02147013426 0.12 0.4439411623
v -0.0253592968 0.12 0.4398008234
v -0.02576372862 0.12 0.4388670046
v -0.02565629721 0.12 0.4378550607
v -0.02506481886 0.12 0.4370269663
v -0.02370343208 0.12 0.4347573549
v -0.02405717611 0.12 0.4321345026
v -0.02597118616 0.12 0.4303066332
v -0.0286075449 0.12 0.4300739748
v -0.02962514639 0.12 0.4300657541
v -0.03050697565 0.12 0.4295578653
v -0.03102473259 0.12 0.4286817819
v -0.03211308479 0.12 0.4228452951
v -0.03211308479 0.12 0.4169082147
v -0.03102473259 0.12 0.4110717279
v -0.03050697565 0.12 0.4101956445
v -0.02962514639 0.12 0.4096877557
v -0.0286075449 0.12 0.4096795351
v -0.02597118616 0.12 0.4094468671
v -0.02405717611 0.12 0.4076190073
v -0.02370343208 0.12 0.4049961549
v -0.02506481886 0.12 0.402726534
v -0.02565629721 0.12 0.4018984491
v -0.02576372862 0.12 0.4008864957
v -0.0253592968 0.12 0.3999526865
v -0.02147013426 0.12 0.395812338
v -0.01691486001 0.12 0.3924186021
v -0.01183480024 0.12 0.3898767549
v -0.02836096048 0.1189999962 0.4310430986
v -0.02836096048 0.1169999981 0.4310430986
v -0.02988736153 0.1169999981 0.4310307581
v -0.03121010542 0.1169999981 0.4302689249
v -0.03198673964 0.1169999981 0.4289547998
v -0.03198673964 0.1189999962 0.4289547998
v -0.03121010542 0.1189999962 0.4302689249
v -0.02988736153 0.1189999962 0.4310307581
v 0.02570391417 0.1189999962 0.436257847
v 0.02570391417 0.1169999981 0.436257847
v 0.02659113169 0.1169999981 0.4374999696
v 0.0267522788 0.1169999981 0.4390178949
v 0.02614563227 0.1169999981 0.4404186136
v 0.02614563227 0.1189999962 0.4404186136
v 0.0267522788 0.1189999962 0.4390178949
v 0.02659113169 0.1189999962 0.4374999696
v -0.01183480024 0.12 0.3898767549
v -0.01183565259 0.1199999905 0.3898722631
v -0.01196828604 0.119708128 0.389170664
v -0.01202341437 0.1189999962 0.3888767511
v 0.01202341437 0.1189999962 0.3888767511
v 0.01183480024 0.12 0.3898767549
v 0.03198673964 0.1189999962 0.4289547998
v 0.03198673964 0.1169999981 0.4289547998
v 0.03121010542 0.1169999981 0.4302689249
v 0.02988736153 0.1169999981 0.4310307581
v 0.02836096048 0.1169999981 0.4310430986
v 0.02836096048 0.1189999962 0.4310430986
v 0.02988736153 0.1189999962 0.4310307581
v 0.03121010542 0.1189999962 0.4302689249
v -0.02570391417 0.1189999962 0.436257847
v -0.02570391417 0.1169999981 0.436257847
v -0.02468287468 0.1169999981 0.4345556337
v -0.02494818211 0.1169999981 0.4325884897
v -0.02638369083 0.1169999981 0.4312175829
v -0.02836096048 0.1169999981 0.4310430986
v -0.02836096048 0.1189999962 0.4310430986
v -0.02638369083 0.1189999962 0.4312175829
v -0.02494818211 0.1189999962 0.4325884897
v -0.02468287468 0.1189999962 0.4345556337
v 0.02570391417 0.1189999962 0.436257847
v 0.02468287468 0.1189999962 0.4345556337
v 0.02494818211 0.1189999962 0.4325884897
v 0.02638369083 0.1189999962 0.4312175829
v 0.02836096048 0.1189999962 0.4310430986
v 0.02836096048 0.1169999981 0.4310430986
v 0.02638369083 0.1169999981 0.4312175829
v 0.02494818211 0.1169999981 0.4325884897
v 0.02468287468 0.1169999981 0.4345556337
v 0.02570391417 0.1169999981 0.436257847
v 0.01183480024 0.12 0.3898767549
v 0.01202341437 0.1189999962 0.3888767511
v 0.01733051658 0.1189999962 0.3915004331
v 0.02208819866 0.1189999962 0.3950237066
v 0.02614563227 0.1189999962 0.3993348772
v 0.02604028225 0.1194999981 0.3994176561
v 0.02575246334 0.1198660278 0.3996437818
v 0.0253592968 0.12 0.3999526865
v 0.02147013426 0.12 0.395812338
v 0.01691486001 0.12 0.3924186021
v -0.03102473259 0.12 0.4286817819
v -0.03150573492 0.1198660278 0.4288182909
v -0.03185785532 0.1194999981 0.4289182169
v -0.03198673964 0.1189999962 0.4289547998
v -0.03310883999 0.1189999962 0.4229373438
v -0.03310883999 0.1189999962 0.4168161661
v -0.03198673964 0.1189999962 0.410798691
v -0.03185785532 0.1194999981 0.4108352739
v -0.03150573492 0.1198660278 0.410935219
v -0.03102473259 0.12 0.4110717279
v -0.03211308479 0.12 0.4169082147
v -0.03211308479 0.12 0.4228452951
v -0.02570391417 0.1189999962 0.4034956628
v -0.02570391417 0.1169999981 0.4034956628
v -0.02659113169 0.1169999981 0.4022535307
v -0.0267522788 0.1169999981 0.4007356054
v -0.02614563227 0.1169999981 0.3993348772
v -0.02614563227 0.1189999962 0.3993348772
v -0.0267522788 0.1189999962 0.4007356054
v -0.02659113169 0.1189999962 0.4022535307
v 0.02836096048 0.1189999962 0.4087104112
v 0.02836096048 0.1169999981 0.4087104112
v 0.02988736153 0.1169999981 0.4087227422
v 0.03121010542 0.1169999981 0.409484585
v 0.03198673964 0.1169999981 0.410798691
v 0.03198673964 0.1189999962 0.410798691
v 0.03121010542 0.1189999962 0.409484585
v 0.02988736153 0.1189999962 0.4087227422
v -0.02614563227 0.1189999962 0.4404186136
v -0.02614563227 0.1169999981 0.4404186136
v -0.0267522788 0.1169999981 0.4390178949
v -0.02659113169 0.1169999981 0.4374999696
v -0.02570391417 0.1169999981 0.436257847
v -0.02570391417 0.1189999962 0.436257847
v -0.02659113169 0.1189999962 0.4374999696
v -0.0267522788 0.1189999962 0.4390178949
v -0.02506481886 0.12 0.4370269663
v -0.02538436651 0.1198660278 0.4366424066
v -0.02561829329 0.1194999981 0.436360882
v -0.02570391417 0.1189999962 0.436257847
v -0.02468287468 0.1189999962 0.4345556337
v -0.02494818211 0.1189999962 0.4325884897
v -0.02638369083 0.1189999962 0.4312175829
v -0.02836096048 0.1189999962 0.4310430986
v -0.02839399576 0.1194999981 0.4309132654
v -0.02848425388 0.1198660278 0.4305585367
v -0.0286075449 0.12 0.4300739748
v -0.02597118616 0.12 0.4303066332
v -0.02405717611 0.12 0.4321345026
v -0.02370343208 0.12 0.4347573549
v -0.01202341437 0.1189999962 0.3888767511
v -0.01196828604 0.119708128 0.389170664
v -0.01183565259 0.1199999905 0.3898722631
v -0.01183480024 0.12 0.3898767549
v -0.01691486001 0.12 0.3924186021
v -0.02147013426 0.12 0.395812338
v -0.0253592968 0.12 0.3999526865
v -0.02575246334 0.1198660278 0.3996437818
v -0.02604028225 0.1194999981 0.3994176561
v -0.02614563227 0.1189999962 0.3993348772
v -0.02208819866 0.1189999962 0.3950237066
v -0.01733051658 0.1189999962 0.3915004331
v 0.0253592968 0.12 0.3999526865
v 0.02575246334 0.1198660278 0.3996437818
v 0.02604028225 0.1194999981 0.3994176561
v 0.02614563227 0.1189999962 0.3993348772
v 0.0267522788 0.1189999962 0.4007356054
v 0.02659113169 0.1189999962 0.4022535307
v 0.02570391417 0.1189999962 0.4034956628
v 0.02561829329 0.1194999981 0.4033926183
v 0.02538436651 0.1198660278 0.4031111032
v 0.02506481886 0.12 0.402726534
v 0.02565629721 0.12 0.4018984491
v 0.02576372862 0.12 0.4008864957
v -0.03198673964 0.1189999962 0.410798691
v -0.03198673964 0.1169999981 0.410798691
v -0.03121010542 0.1169999981 0.409484585
v -0.02988736153 0.1169999981 0.4087227422
v -0.02836096048 0.1169999981 0.4087104112
v -0.02836096048 0.1189999962 0.4087104112
v -0.02988736153 0.1189999962 0.4087227422
v -0.03121010542 0.1189999962 0.409484585
v -0.0286075449 0.12 0.4300739748
v -0.02848425388 0.1198660278 0.4305585367
v -0.02839399576 0.1194999981 0.4309132654
v -0.02836096048 0.1189999962 0.4310430986
v -0.02988736153 0.1189999962 0.4310307581
v -0.03121010542 0.1189999962 0.4302689249
v -0.03198673964 0.1189999962 0.4289547998
v -0.03185785532 0.1194999981 0.4289182169
v -0.03150573492 0.1198660278 0.4288182909
v -0.03102473259 0.12 0.4286817819
v -0.03050697565 0.12 0.4295578653
v -0.02962514639 0.12 0.4300657541
v -0.02836096048 0.1189999962 0.4087104112
v -0.02836096048 0.1169999981 0.4087104112
v -0.02638369083 0.1169999981 0.4085359174
v -0.02494818211 0.1169999981 0.4071650201
v -0.02468287468 0.1169999981 0.4051978761
v -0.02570391417 0.1169999981 0.4034956628
v -0.02570391417 0.1189999962 0.4034956628
v -0.02468287468 0.1189999962 0.4051978761
v -0.02494818211 0.1189999962 0.4071650201
v -0.02638369083 0.1189999962 0.4085359174
v 0.02836096048 0.1189999962 0.4087104112
v 0.02638369083 0.1189999962 0.4085359174
v 0.02494818211 0.1189999962 0.4071650201
v 0.02468287468 0.1189999962 0.4051978761
v 0.02570391417 0.1189999962 0.4034956628
v 0.02570391417 0.1169999981 0.4034956628
v 0.02468287468 0.1169999981 0.4051978761
v 0.02494818211 0.1169999981 0.4071650201
v 0.02638369083 0.1169999981 0.4085359174
v 0.02836096048 0.1169999981 0.4087104112
v -0.0253592968 0.12 0.4398008234
v -0.02575246334 0.1198660278 0.4401097185
v -0.02604028225 0.1194999981 0.4403358537
v -0.02614563227 0.1189999962 0.4404186136
v -0.0267522788 0.1189999962 0.4390178949
v -0.02659113169 0.1189999962 0.4374999696
v -0.02570391417 0.1189999962 0.436257847
v -0.02561829329 0.1194999981 0.436360882
v -0.02538436651 0.1198660278 0.4366424066
v -0.02506481886 0.12 0.4370269663
v -0.02565629721 0.12 0.4378550607
v -0.02576372862 0.12 0.4388670046
v 0.01202341437 0.1189999962 0.4508767587
v 0.01202341437 0.1147000027 0.4508767587
v -0.01202341437 0.1147000027 0.4508767587
v -0.01202341437 0.1189999962 0.4508767587
v -0.02506481886 0.12 0.402726534
v -0.02538436651 0.1198660278 0.4031111032
v -0.02561829329 0.1194999981 0.4033926183
v -0.02570391417 0.1189999962 0.4034956628
v -0.02659113169 0.1189999962 0.4022535307
v -0.0267522788 0.1189999962 0.4007356054
v -0.02614563227 0.1189999962 0.3993348772
v -0.02604028225 0.1194999981 0.3994176561
v -0.02575246334 0.1198660278 0.3996437818
v -0.0253592968 0.12 0.3999526865
v -0.02576372862 0.12 0.4008864957
v -0.02565629721 0.12 0.4018984491
v 0.02614563227 0.1189999962 0.3993348772
v 0.02614563227 0.1169999981 0.3993348772
v 0.0267522788 0.1169999981 0.4007356054
v 0.02659113169 0.1169999981 0.4022535307
v 0.02570391417 0.1169999981 0.4034956628
v 0.02570391417 0.1189999962 0.4034956628
v 0.02659113169 0.1189999962 0.4022535307
v 0.0267522788 0.1189999962 0.4007356054
v 0.02506481886 0.12 0.402726534
v 0.02538436651 0.1198660278 0.4031111032
v 0.02561829329 0.1194999981 0.4033926183
v 0.02570391417 0.1189999962 0.4034956628
v 0.02468287468 0.1189999962 0.4051978761
v 0.02494818211 0.1189999962 0.4071650201
v 0.02638369083 0.1189999962 0.4085359174
v 0.02836096048 0.1189999962 0.4087104112
v 0.02839399576 0.1194999981 0.4088402444
v 0.02848425388 0.1198660278 0.4091949731
v 0.0286075449 0.12 0.4096795351
v 0.02597118616 0.12 0.4094468671
v 0.02405717611 0.12 0.4076190073
v 0.02370343208 0.12 0.4049961549
v -0.01202341437 0.1189999962 0.4508767587
v -0.01183480024 0.12 0.4498767549
v 0.01183480024 0.12 0.4498767549
v 0.01202341437 0.1189999962 0.4508767587
v -0.03102473259 0.12 0.4110717279
v -0.03150573492 0.1198660278 0.410935219
v -0.03185785532 0.1194999981 0.4108352739
v -0.03198673964 0.1189999962 0.410798691
v -0.03121010542 0.1189999962 0.409484585
v -0.02988736153 0.1189999962 0.4087227422
v -0.02836096048 0.1189999962 0.4087104112
v -0.02839399576 0.1194999981 0.4088402444
v -0.02848425388 0.1198660278 0.4091949731
v -0.0286075449 0.12 0.4096795351
v -0.02962514639 0.12 0.4096877557
v -0.03050697565 0.12 0.4101956445
v -0.0286075449 0.12 0.4096795351
v -0.02848425388 0.1198660278 0.4091949731
v -0.02839399576 0.1194999981 0.4088402444
v -0.02836096048 0.1189999962 0.4087104112
v -0.02638369083 0.1189999962 0.4085359174
v -0.02494818211 0.1189999962 0.4071650201
v -0.02468287468 0.1189999962 0.4051978761
v -0.02570391417 0.1189999962 0.4034956628
v -0.02561829329 0.1194999981 0.4033926183
v -0.02538436651 0.1198660278 0.4031111032
v -0.02506481886 0.12 0.402726534
v -0.02370343208 0.12 0.4049961549
v -0.02405717611 0.12 0.4076190073
v -0.02597118616 0.12 0.4094468671
v 0.03102473259 0.12 0.4286817819
v 0.03150573492 0.1198660278 0.4288182909
v 0.03185785532 0.1194999981 0.4289182169
v 0.03198673964 0.1189999962 0.4289547998
v 0.03121010542 0.1189999962 0.4302689249
v 0.02988736153 0.1189999962 0.4310307581
v 0.02836096048 0.1189999962 0.4310430986
v 0.02839399576 0.1194999981 0.4309132654
v 0.02848425388 0.1198660278 0.4305585367
v 0.0286075449 0.12 0.4300739748
v 0.02962514639 0.12 0.4300657541
v 0.03050697565 0.12 0.4295578653
v 0.0286075449 0.12 0.4096795351
v 0.02848425388 0.1198660278 0.4091949731
v 0.02839399576 0.1194999981 0.4088402444
v 0.02836096048 0.1189999962 0.4087104112
v 0.02988736153 0.1189999962 0.4087227422
v 0.03121010542 0.1189999962 0.409484585
v 0.03198673964 0.1189999962 0.410798691
v 0.03185785532 0.1194999981 0.4108352739
v 0.03150573492 0.1198660278 0.410935219
v 0.03102473259 0.12 0.4110717279
v 0.03050697565 0.12 0.4101956445
v 0.02962514639 0.12 0.4096877557
v 0.03102473259 0.12 0.4110717279
v 0.03150573492 0.1198660278 0.410935219
v 0.03185785532 0.1194999981 0.4108352739
v 0.03198673964 0.1189999962 0.410798691
v 0.03310883999 0.1189999962 0.4168161661
v 0.03310883999 0.1189999962 0.4229373438
v 0.03198673964 0.1189999962 0.4289547998
v 0.03185785532 0.1194999981 0.4289182169
v 0.03150573492 0.1198660278 0.4288182909
v 0.03102473259 0.12 0.4286817819
v 0.03211308479 0.12 0.4228452951
v 0.03211308479 0.12 0.4169082147
v 0.01202341437 0.1189999962 0.4508767587
v 0.01183480024 0.12 0.4498767549
v 0.01691486001 0.12 0.4473349077
v 0.02147013426 0.12 0.4439411623
v 0.0253592968 0.12 0.4398008234
v 0.02575246334 0.1198660278 0.4401097185
v 0.02604028225 0.1194999981 0.4403358537
v 0.02614563227 0.1189999962 0.4404186136
v 0.02208819866 0.1189999962 0.4447297937
v 0.01733051658 0.1189999962 0.4482530672
v 0.0286075449 0.12 0.4300739748
v 0.02848425388 0.1198660278 0.4305585367
v 0.02839399576 0.1194999981 0.4309132654
v 0.02836096048 0.1189999962 0.4310430986
v 0.02638369083 0.1189999962 0.4312175829
v 0.02494818211 0.1189999962 0.4325884897
v 0.02468287468 0.1189999962 0.4345556337
v 0.02570391417 0.1189999962 0.436257847
v 0.02561829329 0.1194999981 0.436360882
v 0.02538436651 0.1198660278 0.4366424066
v 0.02506481886 0.12 0.4370269663
v 0.02370343208 0.12 0.4347573549
v 0.02405717611 0.12 0.4321345026
v 0.02597118616 0.12 0.4303066332
v 0.02506481886 0.12 0.4370269663
v 0.02538436651 0.1198660278 0.4366424066
v 0.02561829329 0.1194999981 0.436360882
v 0.02570391417 0.1189999962 0.436257847
v 0.02659113169 0.1189999962 0.4374999696
v 0.0267522788 0.1189999962 0.4390178949
v 0.02614563227 0.1189999962 0.4404186136
v 0.02604028225 0.1194999981 0.4403358537
v 0.02575246334 0.1198660278 0.4401097185
v 0.0253592968 0.12 0.4398008234
v 0.02576372862 0.12 0.4388670046
v 0.02565629721 0.12 0.4378550607
f 26 1 45
f 45 1 2
f 45 2 44
f 44 2 3
f 44 3 4
f 5 42 4
f 4 42 43
f 4 43 44
f 6 47 5
f 5 47 41
f 5 41 42
f 47 6 46
f 46 6 7
f 46 7 29
f 29 7 8
f 29 8 28
f 28 8 9
f 28 9 27
f 27 9 33
f 33 9 10
f 33 10 32
f 32 10 31
f 31 10 11
f 31 11 12
f 31 12 30
f 30 12 13
f 30 13 14
f 30 14 48
f 48 14 15
f 48 15 16
f 48 16 54
f 54 16 17
f 54 17 53
f 53 17 18
f 53 18 52
f 52 18 51
f 51 18 19
f 51 19 50
f 50 19 49
f 49 19 20
f 49 20 40
f 40 20 21
f 40 21 39
f 39 21 38
f 38 21 22
f 38 22 37
f 37 22 36
f 36 22 23
f 36 23 35
f 35 23 24
f 35 24 34
f 34 24 25
f 34 25 26
f 34 26 45
f 46 29 45
f 45 29 30
f 45 30 40
f 40 30 49
f 40 34 45
f 48 49 30
f 56 62 55
f 55 62 63
f 55 63 61
f 61 63 64
f 61 64 60
f 60 64 70
f 60 70 59
f 69 65 66
f 69 66 58
f 58 66 67
f 58 67 57
f 57 67 68
f 57 68 56
f 56 68 62
f 72 80 71
f 71 80 81
f 71 81 77
f 77 81 82
f 77 82 76
f 76 82 75
f 75 82 78
f 75 78 74
f 74 78 79
f 74 79 73
f 73 79 72
f 72 79 80
f 84 92 83
f 83 92 93
f 83 93 89
f 89 93 94
f 89 94 88
f 88 94 87
f 87 94 90
f 87 90 86
f 86 90 91
f 86 91 85
f 85 91 84
f 84 91 92
f 96 104 95
f 95 104 105
f 95 105 101
f 101 105 106
f 101 106 100
f 100 106 99
f 99 106 102
f 99 102 98
f 98 102 103
f 98 103 97
f 97 103 96
f 96 103 104
f 108 116 107
f 107 116 117
f 107 117 113
f 113 117 118
f 113 118 112
f 112 118 111
f 111 118 114
f 111 114 110
f 110 114 115
f 110 115 109
f 109 115 108
f 108 115 116
f 119 120 145
f 145 120 144
f 144 120 143
f 143 120 121
f 143 121 142
f 142 121 122
f 142 122 141
f 141 122 123
f 141 123 140
f 140 123 124
f 140 124 139
f 139 124 125
f 139 125 138
f 138 125 126
f 138 126 137
f 137 126 127
f 137 127 136
f 136 127 128
f 136 128 135
f 135 128 129
f 135 129 134
f 134 129 130
f 134 130 133
f 133 130 132
f 132 130 131
f 147 153 146
f 146 153 154
f 146 154 152
f 152 154 155
f 152 155 151
f 151 155 161
f 151 161 150
f 160 156 157
f 160 157 149
f 149 157 158
f 149 158 148
f 148 158 159
f 148 159 147
f 147 159 153
f 163 168 162
f 162 168 169
f 162 169 170
f 164 165 163
f 163 165 166
f 163 166 167
f 167 168 163
f 170 171 162
f 162 171 172
f 162 172 173
f 174 175 185
f 185 175 176
f 185 176 177
f 177 178 185
f 185 178 179
f 185 179 184
f 184 179 180
f 184 180 181
f 181 182 184
f 184 182 183
f 186 187 212
f 212 187 211
f 211 187 210
f 210 187 188
f 210 188 209
f 209 188 189
f 209 189 208
f 208 189 190
f 208 190 207
f 207 190 191
f 207 191 206
f 206 191 192
f 206 192 205
f 205 192 193
f 205 193 204
f 204 193 194
f 204 194 203
f 203 194 195
f 203 195 202
f 202 195 196
f 202 196 201
f 201 196 197
f 201 197 200
f 200 197 199
f 199 197 198
f 214 220 213
f 213 220 221
f 213 221 219
f 219 221 222
f 219 222 218
f 218 222 228
f 218 228 217
f 227 223 224
f 227 224 216
f 216 224 225
f 216 225 215
f 215 225 226
f 215 226 214
f 214 226 220
f 252 229 251
f 251 229 230
f 251 230 250
f 250 230 231
f 250 231 249
f 249 231 232
f 249 232 248
f 248 232 233
f 248 233 247
f 247 233 234
f 247 234 246
f 246 234 235
f 246 235 245
f 245 235 236
f 245 236 244
f 244 236 237
f 244 237 243
f 243 237 238
f 243 238 242
f 242 238 239
f 242 239 241
f 241 239 240
f 260 253 259
f 259 253 254
f 259 254 258
f 258 254 255
f 258 255 257
f 257 255 256
f 268 261 267
f 267 261 262
f 267 262 266
f 266 262 263
f 266 263 265
f 265 263 264
f 270 276 269
f 269 276 277
f 269 277 275
f 275 277 278
f 275 278 274
f 274 278 284
f 274 284 273
f 283 279 280
f 283 280 272
f 272 280 281
f 272 281 271
f 271 281 282
f 271 282 270
f 270 282 276
f 286 294 285
f 285 294 295
f 296 290 289
f 289 290 291
f 289 291 288
f 288 291 292
f 288 292 287
f 287 292 293
f 287 293 286
f 286 293 294
f 320 297 319
f 319 297 298
f 319 298 318
f 318 298 299
f 318 299 317
f 317 299 300
f 317 300 316
f 316 300 301
f 316 301 315
f 315 301 302
f 315 302 314
f 314 302 303
f 314 303 313
f 313 303 304
f 313 304 312
f 312 304 305
f 312 305 311
f 311 305 306
f 311 306 310
f 310 306 307
f 310 307 309
f 309 307 308
f 358 321 352
f 352 321 322
f 352 322 351
f 351 322 323
f 351 323 350
f 350 323 324
f 350 324 349
f 349 324 325
f 349 325 348
f 348 325 326
f 348 326 347
f 347 326 327
f 347 327 328
f 347 328 346
f 346 328 329
f 346 329 345
f 345 329 330
f 345 330 344
f 344 330 331
f 344 331 343
f 343 331 332
f 343 332 342
f 342 332 333
f 342 333 341
f 341 333 334
f 341 334 335
f 336 337 335
f 335 337 338
f 335 338 340
f 340 338 339
f 340 341 335
f 352 353 358
f 358 353 355
f 358 355 356
f 353 354 355
f 356 357 358
f 360 361 359
f 359 361 362
f 364 372 363
f 363 372 373
f 374 368 367
f 367 368 369
f 367 369 366
f 366 369 370
f 366 370 365
f 365 370 371
f 365 371 364
f 364 371 372
f 375 376 387
f 387 376 377
f 387 377 388
f 388 377 392
f 392 377 378
f 392 378 379
f 392 379 391
f 391 379 380
f 391 380 381
f 391 381 390
f 390 381 382
f 390 382 383
f 384 386 383
f 383 386 389
f 383 389 390
f 384 385 386
f 389 386 388
f 388 386 387
f 393 394 414
f 414 394 395
f 414 395 396
f 414 396 413
f 413 396 397
f 413 397 412
f 412 397 411
f 411 397 398
f 411 398 410
f 410 398 399
f 410 399 409
f 409 399 400
f 409 400 401
f 409 401 408
f 408 401 402
f 408 402 407
f 407 402 403
f 407 403 406
f 406 403 404
f 406 404 405
f 416 445 415
f 415 445 446
f 415 446 447
f 445 416 444
f 444 416 417
f 444 417 443
f 443 417 418
f 443 418 442
f 442 418 419
f 442 419 441
f 441 419 420
f 441 420 440
f 440 420 421
f 440 421 439
f 439 421 438
f 438 421 422
f 438 422 437
f 437 422 423
f 437 423 436
f 436 423 424
f 436 424 435
f 435 424 425
f 435 425 434
f 434 425 426
f 434 426 433
f 433 426 432
f 432 426 427
f 432 427 429
f 429 427 428
f 429 430 432
f 432 430 431
f 448 449 447
f 447 449 450
f 447 450 452
f 452 450 451
f 452 415 447
f 460 453 459
f 459 453 454
f 459 454 458
f 458 454 455
f 458 455 457
f 457 455 456
f 462 470 461
f 461 470 471
f 472 466 465
f 465 466 467
f 465 467 464
f 464 467 468
f 464 468 463
f 463 468 469
f 463 469 462
f 462 469 470
f 474 482 473
f 473 482 483
f 484 478 477
f 477 478 479
f 477 479 476
f 476 479 480
f 476 480 475
f 475 480 481
f 475 481 474
f 474 481 482
f 486 501 485
f 485 501 502
f 485 502 497
f 497 502 498
f 497 498 496
f 496 498 495
f 495 498 494
f 494 498 499
f 494 499 493
f 493 499 490
f 493 490 492
f 492 490 491
f 501 486 489
f 489 486 487
f 489 487 488
f 501 489 500
f 500 489 490
f 500 490 499
f 503 504 510
f 510 504 505
f 510 505 509
f 509 505 506
f 509 506 508
f 508 506 507
f 511 512 518
f 518 512 513
f 518 513 517
f 517 513 514
f 517 514 516
f 516 514 515
f 558 519 541
f 541 519 520
f 541 520 540
f 540 520 521
f 540 521 523
f 523 521 522
f 540 523 539
f 539 523 524
f 539 524 525
f 539 525 538
f 538 525 526
f 538 526 537
f 537 526 528
f 537 528 529
f 526 527 528
f 530 531 529
f 529 531 536
f 529 536 537
f 536 531 535
f 535 531 532
f 535 532 533
f 533 534 535
f 541 542 558
f 558 542 557
f 557 542 556
f 556 542 543
f 556 543 555
f 555 543 544
f 555 544 553
f 553 544 552
f 552 544 545
f 552 545 551
f 551 545 550
f 550 545 546
f 550 546 549
f 549 546 548
f 548 546 547
f 553 554 555
f 559 560 571
f 571 560 561
f 571 561 576
f 576 561 575
f 575 561 562
f 575 562 563
f 575 563 574
f 574 563 564
f 574 564 565
f 574 565 573
f 573 565 566
f 573 566 567
f 568 570 567
f 567 570 572
f 567 572 573
f 568 569 570
f 570 571 572
f 572 571 576
f 577 578 580
f 580 578 579
f 581 582 588
f 588 582 583
f 588 583 587
f 587 583 584
f 587 584 586
f 586 584 585
f 610 589 609
f 609 589 590
f 609 590 608
f 608 590 591
f 608 591 607
f 607 591 592
f 607 592 606
f 606 592 593
f 606 593 605
f 605 593 594
f 605 594 604
f 604 594 595
f 604 595 603
f 603 595 596
f 603 596 602
f 602 596 597
f 602 597 601
f 601 597 598
f 601 598 600
f 600 598 599
f 611 612 650
f 650 612 617
f 650 617 618
f 617 612 616
f 616 612 613
f 616 613 614
f 614 615 616
f 619 647 618
f 618 647 649
f 618 649 650
f 647 619 646
f 646 619 620
f 646 620 645
f 645 620 644
f 644 620 621
f 644 621 642
f 642 621 641
f 641 621 622
f 641 622 640
f 640 622 639
f 639 622 623
f 639 623 638
f 638 623 637
f 637 623 624
f 637 624 636
f 636 624 625
f 636 625 634
f 634 625 633
f 633 625 626
f 633 626 632
f 632 626 631
f 631 626 627
f 631 627 630
f 630 627 629
f 629 627 628
f 634 635 636
f 642 643 644
f 647 648 649
f 651 652 663
f 663 652 653
f 663 653 666
f 666 653 654
f 666 654 665
f 665 654 655
f 665 655 664
f 664 655 656
f 664 656 657
f 657 658 664
f 664 658 668
f 668 658 659
f 668 659 662
f 662 659 660
f 662 660 661
f 668 662 667
f 667 662 663
f 667 663 666
f 669 670 672
f 672 670 671
f 673 674 676
f 676 674 675
f 678 679 677
f 677 679 680
f 682 683 681
f 681 683 690
f 690 683 684
f 690 684 689
f 689 684 686
f 689 686 687
f 684 685 686
f 687 688 689
f 698 691 697
f 697 691 692
f 697 692 696
f 696 692 693
f 696 693 695
f 695 693 694
f 699 700 706
f 706 700 701
f 706 701 705
f 705 701 702
f 705 702 704
f 704 702 703
f 708 714 707
f 707 714 715
f 707 715 758
f 758 715 728
f 758 728 745
f 745 728 736
f 745 736 737
f 708 709 714
f 714 709 713
f 713 709 710
f 713 710 711
f 711 712 713
f 728 715 727
f 727 715 716
f 727 716 722
f 722 716 721
f 721 716 717
f 721 717 720
f 720 717 719
f 719 717 718
f 727 722 726
f 726 722 723
f 726 723 724
f 724 725 726
f 728 729 736
f 736 729 735
f 735 729 734
f 734 729 730
f 734 730 733
f 733 730 732
f 732 730 731
f 745 737 744
f 744 737 738
f 744 738 739
f 744 739 743
f 743 739 740
f 743 740 741
f 741 742 743
f 758 745 757
f 757 745 746
f 757 746 752
f 752 746 751
f 751 746 747
f 751 747 750
f 750 747 749
f 749 747 748
f 757 752 756
f 756 752 753
f 756 753 754
f 754 755 756
f 707 758 766
f 766 758 759
f 766 759 765
f 765 759 764
f 764 759 760
f 764 760 763
f 763 760 762
f 762 760 761
f 767 768 774
f 774 768 769
f 774 769 770
f 771 772 770
f 770 772 773
f 770 773 774
f 775 776 782
f 782 776 777
f 782 777 778
f 779 780 778
f 778 780 781
f 778 781 782
f 783 784 788
f 788 784 785
f 788 785 787
f 787 785 786
f 789 790 796
f 796 790 791
f 796 791 792
f 793 794 792
f 792 794 795
f 792 795 796
f 797 798 806
f 806 798 799
f 806 799 805
f 805 799 800
f 805 800 804
f 804 800 801
f 804 801 803
f 803 801 802
f 816 807 815
f 815 807 808
f 815 808 814
f 814 808 809
f 814 809 813
f 813 809 810
f 813 810 812
f 812 810 811
f 818 819 817
f 817 819 826
f 826 819 820
f 826 820 825
f 825 820 822
f 825 822 823
f 820 821 822
f 823 824 825
f 827 828 838
f 838 828 829
f 838 829 831
f 831 829 830
f 838 831 837
f 837 831 832
f 837 832 835
f 835 832 834
f 834 832 833
f 835 836 837
f 839 840 846
f 846 840 841
f 846 841 842
f 843 844 842
f 842 844 845
f 842 845 846
f 847 848 854
f 854 848 849
f 854 849 850
f 851 852 850
f 850 852 853
f 850 853 854
f 855 856 862
f 862 856 857
f 862 857 861
f 861 857 858
f 861 858 860
f 860 858 859
f 863 864 876
f 876 864 865
f 876 865 867
f 867 865 866
f 867 868 876
f 876 868 875
f 875 868 869
f 875 869 874
f 874 869 872
f 874 872 873
f 870 871 869
f 869 871 872
f 877 878 888
f 888 878 881
f 888 881 887
f 887 881 882
f 887 882 885
f 885 882 884
f 884 882 883
f 878 879 881
f 881 879 880
f 885 886 887
f 889 890 900
f 900 890 891
f 900 891 893
f 893 891 892
f 893 894 900
f 900 894 899
f 899 894 897
f 899 897 898
f 895 896 894
f 894 896 897
f 901 902 908
f 908 902 903
f 908 903 904
f 905 906 904
f 904 906 907
f 904 907 908
f 909 910 920
f 920 910 911
f 920 911 913
f 913 911 912
f 913 914 920
f 920 914 919
f 919 914 917
f 919 917 918
f 915 916 914
f 914 916 917
f 921 922 930
f 930 922 923
f 930 923 929
f 929 923 924
f 929 924 928
f 928 924 925
f 928 925 927
f 927 925 926
f 940 931 939
f 939 931 932
f 939 932 938
f 938 932 933
f 938 933 937
f 937 933 934
f 937 934 936
f 936 934 935
f 941 942 952
f 952 942 943
f 952 943 945
f 945 943 944
f 945 946 952
f 952 946 951
f 951 946 949
f 951 949 950
f 947 948 946
f 946 948 949
f 953 954 956
f 956 954 955
f 957 958 968
f 968 958 959
f 968 959 961
f 961 959 960
f 961 962 968
f 968 962 967
f 967 962 965
f 967 965 966
f 963 964 962
f 962 964 965
f 969 970 976
f 976 970 971
f 976 971 975
f 975 971 972
f 975 972 974
f 974 972 973
f 977 978 990
f 990 978 979
f 990 979 981
f 981 979 980
f 981 982 990
f 990 982 989
f 989 982 983
f 989 983 988
f 988 983 986
f 988 986 987
f 984 985 983
f 983 985 986
f 992 993 991
f 991 993 994
f 995 996 1006
f 1006 996 997
f 1006 997 999
f 999 997 998
f 999 1000 1006
f 1006 1000 1005
f 1005 1000 1003
f 1005 1003 1004
f 1001 1002 1000
f 1000 1002 1003
f 1007 1008 1020
f 1020 1008 1009
f 1020 1009 1011
f 1011 1009 1010
f 1011 1012 1020
f 1020 1012 1019
f 1019 1012 1013
f 1019 1013 1018
f 1018 1013 1016
f 1018 1016 1017
f 1014 1015 1013
f 1013 1015 1016
f 1021 1022 1032
f 1032 1022 1023
f 1032 1023 1025
f 1025 1023 1024
f 1025 1026 1032
f 1032 1026 1031
f 1031 1026 1029
f 1031 1029 1030
f 1027 1028 1026
f 1026 1028 1029
f 1033 1034 1044
f 1044 1034 1035
f 1044 1035 1037
f 1037 1035 1036
f 1037 1038 1044
f 1044 1038 1043
f 1043 1038 1041
f 1043 1041 1042
f 1039 1040 1038
f 1038 1040 1041
f 1045 1046 1056
f 1056 1046 1047
f 1056 1047 1049
f 1049 1047 1048
f 1056 1049 1055
f 1055 1049 1050
f 1055 1050 1053
f 1053 1050 1052
f 1052 1050 1051
f 1053 1054 1055
f 1057 1058 1066
f 1066 1058 1059
f 1066 1059 1065
f 1065 1059 1060
f 1065 1060 1063
f 1063 1060 1062
f 1062 1060 1061
f 1063 1064 1065
f 1067 1068 1080
f 1080 1068 1069
f 1080 1069 1071
f 1071 1069 1070
f 1071 1072 1080
f 1080 1072 1079
f 1079 1072 1073
f 1079 1073 1078
f 1078 1073 1076
f 1078 1076 1077
f 1074 1075 1073
f 1073 1075 1076
f 1081 1082 1092
f 1092 1082 1083
f 1092 1083 1085
f 1085 1083 1084
f 1085 1086 1092
f 1092 1086 1091
f 1091 1086 1089
f 1091 1089 1090
f 1087 1088 1086
f 1086 1088 1089
