v 0.239312458 0.09 0.4554009325
v 0.2375551414 0.09 0.4588029176
v 0.2375801086 0.09 0.4626318819
v 0.2393816376 0.09 0.4660106737
v 0.2425469971 0.09 0.4681652147
v 0.2463510513 0.09 0.4686019594
v 0.2499223518 0.09 0.4672208482
v 0.2524427414 0.09 0.4643382723
v 0.2533348274 0.09 0.4606145937
v 0.2523942566 0.09 0.4569028551
v 0.249836483 0.09 0.4540533907
v 0.2462474823 0.09 0.4527189714
v 0.2424494553 0.09 0.4532052881
v 0.239312458 0.08538499832 0.4554009325
v 0.2424494553 0.08538499832 0.4532052881
v 0.2462474823 0.08538499832 0.4527189714
v 0.249836483 0.08538499832 0.4540533907
v 0.2523942566 0.08538499832 0.4569028551
v 0.2533348274 0.08538499832 0.4606145937
v 0.2524427414 0.08538499832 0.4643382723
v 0.2499223518 0.08538499832 0.4672208482
v 0.2463510513 0.08538499832 0.4686019594
v 0.2425469971 0.08538499832 0.4681652147
v 0.2393816376 0.08538499832 0.4660106737
v 0.2375801086 0.08538499832 0.4626318819
v 0.2375551414 0.08538499832 0.4588029176
v 0.239312458 0.09 0.4554009325
v 0.239312458 0.08538499832 0.4554009325
v 0.2363388252 0.09346500397 0.4528009302
v 0.2400337219 0.09346500397 0.4499569971
v 0.2445357132 0.09346500397 0.4487435037
v 0.2491593742 0.09346500397 0.4493452341
v 0.2532008171 0.09346500397 0.4516705591
v 0.2560447693 0.09346500397 0.4553654749
v 0.2572582436 0.09346500397 0.4598674661
v 0.2566565132 0.09346500397 0.4644911272
v 0.2543311882 0.09346500397 0.46853257
v 0.2506362724 0.09346500397 0.4713765222
v 0.2461342812 0.09346500397 0.4725899965
v 0.2415106201 0.09346500397 0.4719882661
v 0.2374691772 0.09346500397 0.4696629411
v 0.2346252441 0.09346500397 0.4659680254
v 0.2334117699 0.09346500397 0.4614660341
v 0.2340134811 0.09346500397 0.4568423731
v 0.2363388252 0.08753499985 0.4528009302
v 0.2340134811 0.08753499985 0.4568423731
v 0.2334117699 0.08753499985 0.4614660341
v 0.2346252441 0.08753499985 0.4659680254
v 0.2374691772 0.08753499985 0.4696629411
v 0.2415106201 0.08753499985 0.4719882661
v 0.2461342812 0.08753499985 0.4725899965
v 0.2506362724 0.08753499985 0.4713765222
v 0.2543311882 0.08753499985 0.46853257
v 0.2566565132 0.08753499985 0.4644911272
v 0.2572582436 0.08753499985 0.4598674661
v 0.2560447693 0.08753499985 0.4553654749
v 0.2532008171 0.08753499985 0.4516705591
v 0.2491593742 0.08753499985 0.4493452341
v 0.2445357132 0.08753499985 0.4487435037
v 0.2400337219 0.08753499985 0.4499569971
v 0.2363388252 0.08753499985 0.4528009302
v 0.2363388252 0.09346500397 0.4528009302
v 0.2400652695 0.09100000381 0.4560591585
v 0.2384674835 0.09100000381 0.4593113214
v 0.2387098312 0.09100000381 0.4629266817
v 0.2407274055 0.09100000381 0.4659364778
v 0.2439795685 0.09100000381 0.4675342638
v 0.2475949287 0.09100000381 0.4672919161
v 0.2506047249 0.09100000381 0.4652743417
v 0.2522025108 0.09100000381 0.4620221788
v 0.2519601631 0.09100000381 0.4584068376
v 0.2499425888 0.09100000381 0.4553970224
v 0.2466904259 0.09100000381 0.4537992365
v 0.2430750847 0.09100000381 0.4540415842
v 0.2400652695 0.09 0.4560591585
v 0.2430750847 0.09 0.4540415842
v 0.2466904259 0.09 0.4537992365
v 0.2499425888 0.09 0.4553970224
v 0.2519601631 0.09 0.4584068376
v 0.2522025108 0.09 0.4620221788
v 0.2506047249 0.09 0.4652743417
v 0.2475949287 0.09 0.4672919161
v 0.2439795685 0.09 0.4675342638
v 0.2407274055 0.09 0.4659364778
v 0.2387098312 0.09 0.4629266817
v 0.2384674835 0.09 0.4593113214
v 0.2400652695 0.09100000381 0.4560591585
v 0.2400652695 0.09 0.4560591585
v 0.2379573822 0.08538499832 0.4542161256
v 0.2358891678 0.08538499832 0.4580559618
v 0.2356918144 0.08538499832 0.4624128992
v 0.2374044228 0.08538499832 0.4664239961
v 0.2406877708 0.08538499832 0.4692948038
v 0.2448915672 0.08538499832 0.4704567224
v 0.2491831779 0.08538499832 0.4696796114
v 0.2527126312 0.08538499832 0.4671173937
v 0.2547808266 0.08538499832 0.4632775385
v 0.2549781799 0.08538499832 0.458920601
v 0.2532655716 0.08538499832 0.4549095041
v 0.2499822235 0.08538499832 0.4520386964
v 0.2457784271 0.08538499832 0.4508767969
v 0.2414868164 0.08538499832 0.4516539079
v 0.2363388252 0.08753499985 0.4528009302
v 0.2400337219 0.08753499985 0.4499569971
v 0.2445357132 0.08753499985 0.4487435037
v 0.2491593742 0.08753499985 0.4493452341
v 0.2532008171 0.08753499985 0.4516705591
v 0.2560447693 0.08753499985 0.4553654749
v 0.2572582436 0.08753499985 0.4598674661
v 0.2566565132 0.08753499985 0.4644911272
v 0.2543311882 0.08753499985 0.46853257
v 0.2506362724 0.08753499985 0.4713765222
v 0.2461342812 0.08753499985 0.4725899965
v 0.2415106201 0.08753499985 0.4719882661
v 0.2374691772 0.08753499985 0.4696629411
v 0.2346252441 0.08753499985 0.4659680254
v 0.2334117699 0.08753499985 0.4614660341
v 0.2340134811 0.08753499985 0.4568423731
v 0.2379573822 0.08538499832 0.4542161256
v 0.2363388252 0.08753499985 0.4528009302
v 0.2400652695 0.09 0.4560591585
v 0.2384674835 0.09 0.4593113214
v 0.2387098312 0.09 0.4629266817
v 0.2407274055 0.09 0.4659364778
v 0.2439795685 0.09 0.4675342638
v 0.2475949287 0.09 0.4672919161
v 0.2506047249 0.09 0.4652743417
v 0.2522025108 0.09 0.4620221788
v 0.2519601631 0.09 0.4584068376
v 0.2499425888 0.09 0.4553970224
v 0.2466904259 0.09 0.4537992365
v 0.2430750847 0.09 0.4540415842
v 0.239312458 0.09 0.4554009325
v 0.2424494553 0.09 0.4532052881
v 0.2462474823 0.09 0.4527189714
v 0.249836483 0.09 0.4540533907
v 0.2523942566 0.09 0.4569028551
v 0.2533348274 0.09 0.4606145937
v 0.2524427414 0.09 0.4643382723
v 0.2499223518 0.09 0.4672208482
v 0.2463510513 0.09 0.4686019594
v 0.2425469971 0.09 0.4681652147
v 0.2393816376 0.09 0.4660106737
v 0.2375801086 0.09 0.4626318819
v 0.2375551414 0.09 0.4588029176
v 0.239312458 0.09561499596 0.4554009325
v 0.2424494553 0.09561499596 0.4532052881
v 0.2462474823 0.09561499596 0.4527189714
v 0.249836483 0.09561499596 0.4540533907
v 0.2523942566 0.09561499596 0.4569028551
v 0.2533348274 0.09561499596 0.4606145937
v 0.2524427414 0.09561499596 0.4643382723
v 0.2499223518 0.09561499596 0.4672208482
v 0.2463510513 0.09561499596 0.4686019594
v 0.2425469971 0.09561499596 0.4681652147
v 0.2393816376 0.09561499596 0.4660106737
v 0.2375801086 0.09561499596 0.4626318819
v 0.2375551414 0.09561499596 0.4588029176
v 0.2379573822 0.09561499596 0.4542161256
v 0.2358891678 0.09561499596 0.4580559618
v 0.2356918144 0.09561499596 0.4624128992
v 0.2374044228 0.09561499596 0.4664239961
v 0.2406877708 0.09561499596 0.4692948038
v 0.2448915672 0.09561499596 0.4704567224
v 0.2491831779 0.09561499596 0.4696796114
v 0.2527126312 0.09561499596 0.4671173937
v 0.2547808266 0.09561499596 0.4632775385
v 0.2549781799 0.09561499596 0.458920601
v 0.2532655716 0.09561499596 0.4549095041
v 0.2499822235 0.09561499596 0.4520386964
v 0.2457784271 0.09561499596 0.4508767969
v 0.2414868164 0.09561499596 0.4516539079
v 0.239312458 0.08538499832 0.4554009325
v 0.2375551414 0.08538499832 0.4588029176
v 0.2375801086 0.08538499832 0.4626318819
v 0.2393816376 0.08538499832 0.4660106737
v 0.2425469971 0.08538499832 0.4681652147
v 0.2463510513 0.08538499832 0.4686019594
v 0.2499223518 0.08538499832 0.4672208482
v 0.2524427414 0.08538499832 0.4643382723
v 0.2533348274 0.08538499832 0.4606145937
v 0.2523942566 0.08538499832 0.4569028551
v 0.249836483 0.08538499832 0.4540533907
v 0.2462474823 0.08538499832 0.4527189714
v 0.2424494553 0.08538499832 0.4532052881
v 0.2379573822 0.08538499832 0.4542161256
v 0.2414868164 0.08538499832 0.4516539079
v 0.2457784271 0.08538499832 0.4508767969
v 0.2499822235 0.08538499832 0.4520386964
v 0.2532655716 0.08538499832 0.4549095041
v 0.2549781799 0.08538499832 0.458920601
v 0.2547808266 0.08538499832 0.4632775385
v 0.2527126312 0.08538499832 0.4671173937
v 0.2491831779 0.08538499832 0.4696796114
v 0.2448915672 0.08538499832 0.4704567224
v 0.2406877708 0.08538499832 0.4692948038
v 0.2374044228 0.08538499832 0.4664239961
v 0.2356918144 0.08538499832 0.4624128992
v 0.2358891678 0.08538499832 0.4580559618
v 0.239312458 0.09100000381 0.4554009325
v 0.2424494553 0.09100000381 0.4532052881
v 0.2462474823 0.09100000381 0.4527189714
v 0.249836483 0.09100000381 0.4540533907
v 0.2523942566 0.09100000381 0.4569028551
v 0.2533348274 0.09100000381 0.4606145937
v 0.2524427414 0.09100000381 0.4643382723
v 0.2499223518 0.09100000381 0.4672208482
v 0.2463510513 0.09100000381 0.4686019594
v 0.2425469971 0.09100000381 0.4681652147
v 0.2393816376 0.09100000381 0.4660106737
v 0.2375801086 0.09100000381 0.4626318819
v 0.2375551414 0.09100000381 0.4588029176
v 0.239312458 0.09561499596 0.4554009325
v 0.2375551414 0.09561499596 0.4588029176
v 0.2375801086 0.09561499596 0.4626318819
v 0.2393816376 0.09561499596 0.4660106737
v 0.2425469971 0.09561499596 0.4681652147
v 0.2463510513 0.09561499596 0.4686019594
v 0.2499223518 0.09561499596 0.4672208482
v 0.2524427414 0.09561499596 0.4643382723
v 0.2533348274 0.09561499596 0.4606145937
v 0.2523942566 0.09561499596 0.4569028551
v 0.249836483 0.09561499596 0.4540533907
v 0.2462474823 0.09561499596 0.4527189714
v 0.2424494553 0.09561499596 0.4532052881
v 0.239312458 0.09100000381 0.4554009325
v 0.239312458 0.09561499596 0.4554009325
v 0.2400652695 0.09100000381 0.4560591585
v 0.2430750847 0.09100000381 0.4540415842
v 0.2466904259 0.09100000381 0.4537992365
v 0.2499425888 0.09100000381 0.4553970224
v 0.2519601631 0.09100000381 0.4584068376
v 0.2522025108 0.09100000381 0.4620221788
v 0.2506047249 0.09100000381 0.4652743417
v 0.2475949287 0.09100000381 0.4672919161
v 0.2439795685 0.09100000381 0.4675342638
v 0.2407274055 0.09100000381 0.4659364778
v 0.2387098312 0.09100000381 0.4629266817
v 0.2384674835 0.09100000381 0.4593113214
v 0.239312458 0.09100000381 0.4554009325
v 0.2375551414 0.09100000381 0.4588029176
v 0.2375801086 0.09100000381 0.4626318819
v 0.2393816376 0.09100000381 0.4660106737
v 0.2425469971 0.09100000381 0.4681652147
v 0.2463510513 0.09100000381 0.4686019594
v 0.2499223518 0.09100000381 0.4672208482
v 0.2524427414 0.09100000381 0.4643382723
v 0.2533348274 0.09100000381 0.4606145937
v 0.2523942566 0.09100000381 0.4569028551
v 0.249836483 0.09100000381 0.4540533907
v 0.2462474823 0.09100000381 0.4527189714
v 0.2424494553 0.09100000381 0.4532052881
v 0.2363388252 0.09346500397 0.4528009302
v 0.2340134811 0.09346500397 0.4568423731
v 0.2334117699 0.09346500397 0.4614660341
v 0.2346252441 0.09346500397 0.4659680254
v 0.2374691772 0.09346500397 0.4696629411
v 0.2415106201 0.09346500397 0.4719882661
v 0.2461342812 0.09346500397 0.4725899965
v 0.2506362724 0.09346500397 0.4713765222
v 0.2543311882 0.09346500397 0.46853257
v 0.2566565132 0.09346500397 0.4644911272
v 0.2572582436 0.09346500397 0.4598674661
v 0.2560447693 0.09346500397 0.4553654749
v 0.2532008171 0.09346500397 0.4516705591
v 0.2491593742 0.09346500397 0.4493452341
v 0.2445357132 0.09346500397 0.4487435037
v 0.2400337219 0.09346500397 0.4499569971
v 0.2379573822 0.09561499596 0.4542161256
v 0.2414868164 0.09561499596 0.4516539079
v 0.2457784271 0.09561499596 0.4508767969
v 0.2499822235 0.09561499596 0.4520386964
v 0.2532655716 0.09561499596 0.4549095041
v 0.2549781799 0.09561499596 0.458920601
v 0.2547808266 0.09561499596 0.4632775385
v 0.2527126312 0.09561499596 0.4671173937
v 0.2491831779 0.09561499596 0.4696796114
v 0.2448915672 0.09561499596 0.4704567224
v 0.2406877708 0.09561499596 0.4692948038
v 0.2374044228 0.09561499596 0.4664239961
v 0.2356918144 0.09561499596 0.4624128992
v 0.2358891678 0.09561499596 0.4580559618
v 0.2363388252 0.09346500397 0.4528009302
v 0.2379573822 0.09561499596 0.4542161256
f 2 26 1
f 1 26 28
f 27 14 13
f 13 14 15
f 13 15 12
f 12 15 16
f 12 16 11
f 11 16 17
f 11 17 10
f 10 17 18
f 10 18 9
f 9 18 19
f 9 19 8
f 8 19 20
f 8 20 7
f 7 20 21
f 7 21 6
f 6 21 22
f 6 22 5
f 5 22 23
f 5 23 4
f 4 23 24
f 4 24 3
f 3 24 25
f 3 25 2
f 2 25 26
f 30 60 29
f 29 60 61
f 62 45 44
f 44 45 46
f 44 46 43
f 43 46 47
f 43 47 42
f 42 47 48
f 42 48 41
f 41 48 49
f 41 49 40
f 40 49 50
f 40 50 39
f 39 50 51
f 39 51 38
f 38 51 52
f 38 52 37
f 37 52 53
f 37 53 36
f 36 53 54
f 36 54 35
f 35 54 55
f 35 55 34
f 34 55 56
f 34 56 33
f 33 56 57
f 33 57 32
f 32 57 58
f 32 58 31
f 31 58 59
f 31 59 30
f 30 59 60
f 64 86 63
f 63 86 88
f 87 75 74
f 74 75 76
f 74 76 73
f 73 76 77
f 73 77 72
f 72 77 78
f 72 78 71
f 71 78 79
f 71 79 70
f 70 79 80
f 70 80 69
f 69 80 81
f 69 81 68
f 68 81 82
f 68 82 67
f 67 82 83
f 67 83 66
f 66 83 84
f 66 84 65
f 65 84 85
f 65 85 64
f 64 85 86
f 90 118 89
f 89 118 120
f 119 103 104
f 118 90 117
f 117 90 91
f 117 91 116
f 116 91 92
f 116 92 115
f 115 92 93
f 115 93 114
f 114 93 94
f 114 94 113
f 113 94 95
f 113 95 112
f 112 95 96
f 112 96 111
f 111 96 110
f 110 96 97
f 110 97 109
f 109 97 98
f 109 98 108
f 108 98 99
f 108 99 107
f 107 99 100
f 107 100 106
f 106 100 101
f 106 101 105
f 105 101 102
f 105 102 104
f 104 102 119
f 122 145 121
f 121 145 133
f 121 133 134
f 145 122 144
f 144 122 123
f 144 123 143
f 143 123 124
f 143 124 142
f 142 124 125
f 142 125 141
f 141 125 126
f 141 126 140
f 140 126 127
f 140 127 139
f 139 127 128
f 139 128 138
f 138 128 129
f 138 129 137
f 137 129 130
f 137 130 136
f 136 130 131
f 136 131 135
f 135 131 132
f 135 132 134
f 134 132 121
f 147 172 146
f 146 172 159
f 146 159 160
f 172 147 171
f 171 147 148
f 171 148 170
f 170 148 149
f 170 149 169
f 169 149 150
f 169 150 168
f 168 150 151
f 168 151 167
f 167 151 152
f 167 152 166
f 166 152 153
f 166 153 165
f 165 153 154
f 165 154 164
f 164 154 155
f 164 155 163
f 163 155 156
f 163 156 162
f 162 156 157
f 162 157 161
f 161 157 158
f 161 158 160
f 160 158 146
f 174 199 173
f 173 199 186
f 173 186 187
f 199 174 198
f 198 174 175
f 198 175 197
f 197 175 176
f 197 176 196
f 196 176 177
f 196 177 195
f 195 177 178
f 195 178 194
f 194 178 179
f 194 179 193
f 193 179 180
f 193 180 192
f 192 180 181
f 192 181 191
f 191 181 182
f 191 182 190
f 190 182 183
f 190 183 189
f 189 183 184
f 189 184 188
f 188 184 185
f 188 185 187
f 187 185 173
f 201 225 200
f 200 225 227
f 226 213 212
f 212 213 214
f 212 214 211
f 211 214 215
f 211 215 210
f 210 215 216
f 210 216 209
f 209 216 217
f 209 217 208
f 208 217 218
f 208 218 207
f 207 218 219
f 207 219 206
f 206 219 220
f 206 220 205
f 205 220 221
f 205 221 204
f 204 221 222
f 204 222 203
f 203 222 223
f 203 223 202
f 202 223 224
f 202 224 201
f 201 224 225
f 229 252 228
f 228 252 240
f 228 240 241
f 252 229 251
f 251 229 230
f 251 230 250
f 250 230 231
f 250 231 249
f 249 231 232
f 249 232 248
f 248 232 233
f 248 233 247
f 247 233 234
f 247 234 246
f 246 234 235
f 246 235 245
f 245 235 236
f 245 236 244
f 244 236 237
f 244 237 243
f 243 237 238
f 243 238 242
f 242 238 239
f 242 239 241
f 241 239 228
f 268 283 269
f 284 253 254
f 284 254 282
f 282 254 255
f 282 255 281
f 281 255 256
f 281 256 280
f 280 256 257
f 280 257 279
f 279 257 258
f 279 258 278
f 278 258 259
f 278 259 277
f 277 259 260
f 277 260 276
f 276 260 261
f 276 261 262
f 276 262 275
f 275 262 263
f 275 263 274
f 274 263 264
f 274 264 273
f 273 264 265
f 273 265 272
f 272 265 266
f 272 266 271
f 271 266 267
f 271 267 270
f 270 267 268
f 270 268 269
