v -0.2168000031 0.2 0.03299999952
v -0.2202000046 0.2 0.03150000095
v -0.2202000046 0.19 0.03150000095
v -0.2168000031 0.19 0.03299999952
v -0.2202000046 0.19 0.02450000048
v -0.2168000031 0.19 0.02299999952
v -0.2168000031 0.19 0.03299999952
v -0.2202000046 0.19 0.03150000095
v -0.2168000031 0.2 0.02299999952
v -0.2202000046 0.2 0.02450000048
v -0.2202000046 0.2 0.03150000095
v -0.2168000031 0.2 0.03299999952
v -0.2168000031 0.1975 0.02799999952
v -0.2168000031 0.1967677689 0.02623223305
v -0.2168000031 0.195 0.02549999952
v -0.2168000031 0.1932322311 0.02623223305
v -0.2168000031 0.1925 0.02799999952
v -0.2168000031 0.1932322311 0.029767766
v -0.2168000031 0.195 0.03049999952
v -0.2168000031 0.1967677689 0.029767766
v -0.2168000031 0.2 0.02299999952
v -0.2168000031 0.2 0.03299999952
v -0.2168000031 0.19 0.03299999952
v -0.2168000031 0.19 0.02299999952
v -0.2202000046 0.1975 0.02799999952
v -0.2202000046 0.1967677689 0.029767766
v -0.2202000046 0.195 0.03049999952
v -0.2202000046 0.1932322311 0.029767766
v -0.2202000046 0.1925 0.02799999952
v -0.2202000046 0.1932322311 0.02623223305
v -0.2202000046 0.195 0.02549999952
v -0.2202000046 0.1967677689 0.02623223305
v -0.2202000046 0.2 0.03150000095
v -0.2202000046 0.2 0.02450000048
v -0.2202000046 0.19 0.02450000048
v -0.2202000046 0.19 0.03150000095
v -0.2202000046 0.2 0.02450000048
v -0.2168000031 0.2 0.02299999952
v -0.2168000031 0.19 0.02299999952
v -0.2202000046 0.19 0.02450000048
v -0.2202000046 0.1975 0.02799999952
v -0.2202000046 0.1967677689 0.02623223305
v -0.2202000046 0.195 0.02549999952
v -0.2202000046 0.1932322311 0.02623223305
v -0.2202000046 0.1925 0.02799999952
v -0.2202000046 0.1932322311 0.029767766
v -0.2202000046 0.195 0.03049999952
v -0.2202000046 0.1967677689 0.029767766
v -0.2168000031 0.1975 0.02799999952
v -0.2168000031 0.1967677689 0.029767766
v -0.2168000031 0.195 0.03049999952
v -0.2168000031 0.1932322311 0.029767766
v -0.2168000031 0.1925 0.02799999952
v -0.2168000031 0.1932322311 0.02623223305
v -0.2168000031 0.195 0.02549999952
v -0.2168000031 0.1967677689 0.02623223305
v -0.2202000046 0.1975 0.02799999952
v -0.2168000031 0.1975 0.02799999952
f 1 2 4
f 4 2 3
f 6 7 5
f 5 7 8
f 10 11 9
f 9 11 12
f 14 21 13
f 13 21 22
f 13 22 20
f 20 22 19
f 19 22 23
f 19 23 18
f 18 23 17
f 17 23 24
f 17 24 16
f 16 24 15
f 15 24 21
f 15 21 14
f 26 33 25
f 25 33 34
f 25 34 32
f 32 34 31
f 31 34 35
f 31 35 30
f 30 35 29
f 29 35 36
f 29 36 28
f 28 36 27
f 27 36 33
f 27 33 26
f 37 38 40
f 40 38 39
f 42 56 41
f 41 56 58
f 57 49 48
f 48 49 50
f 48 50 51
f 42 43 56
f 56 43 55
f 55 43 44
f 55 44 54
f 54 44 45
f 54 45 53
f 53 45 46
f 53 46 52
f 52 46 47
f 52 47 51
f 51 47 48
