v 0.03893948555 0.1077000046 0.4345063478
v 0.03923800468 0.1077000046 0.4349325258
v 0.03937293053 0.1077000046 0.4354350549
v 0.03932802439 0.1077000046 0.4359534341
v 0.03593451738 0.1060000038 0.4336222345
v 0.0378790617 0.1060000038 0.4328167802
v 0.03982360363 0.1060000038 0.4336222345
v 0.04062906265 0.1060000038 0.4355667764
v 0.03982360363 0.1060000038 0.4375113184
v 0.0378790617 0.1060000038 0.4383167726
v 0.03593451738 0.1060000038 0.4375113184
v 0.03512906075 0.1060000038 0.4355667764
v 0.03667697906 0.1060000038 0.434364689
v 0.03623698711 0.1060000038 0.4360067636
v 0.03743906736 0.1060000038 0.437208851
v 0.03908114195 0.1060000038 0.4367688638
v 0.0395211339 0.1060000038 0.4351267892
v 0.03831905365 0.1060000038 0.4339247018
v 0.03593451738 0.1088000011 0.4336222345
v 0.0378790617 0.1088000011 0.4328167802
v 0.03982360363 0.1088000011 0.4336222345
v 0.04062906265 0.1088000011 0.4355667764
v 0.03982360363 0.1088000011 0.4375113184
v 0.0378790617 0.1088000011 0.4383167726
v 0.03593451738 0.1088000011 0.4375113184
v 0.03512906075 0.1088000011 0.4355667764
v 0.03593451738 0.1060000038 0.4336222345
v 0.03512906075 0.1060000038 0.4355667764
v 0.03593451738 0.1060000038 0.4375113184
v 0.0378790617 0.1060000038 0.4383167726
v 0.03982360363 0.1060000038 0.4375113184
v 0.04062906265 0.1060000038 0.4355667764
v 0.03982360363 0.1060000038 0.4336222345
v 0.0378790617 0.1060000038 0.4328167802
v 0.03593451738 0.1060000038 0.4336222345
v 0.03593451738 0.1088000011 0.4336222345
v 0.03607593775 0.1089999962 0.4337636453
v 0.0378790617 0.1089999962 0.4330167658
v 0.03968218327 0.1089999962 0.4337636453
v 0.04042906284 0.1089999962 0.4355667764
v 0.03968218327 0.1089999962 0.4373698885
v 0.0378790617 0.1089999962 0.438116768
v 0.03607593775 0.1089999962 0.4373698885
v 0.03532906055 0.1089999962 0.4355667764
v 0.03593451738 0.1088000011 0.4336222345
v 0.03512906075 0.1088000011 0.4355667764
v 0.03593451738 0.1088000011 0.4375113184
v 0.0378790617 0.1088000011 0.4383167726
v 0.03982360363 0.1088000011 0.4375113184
v 0.04062906265 0.1088000011 0.4355667764
v 0.03982360363 0.1088000011 0.4336222345
v 0.0378790617 0.1088000011 0.4328167802
v 0.0378790617 0.1089999962 0.4330167658
v 0.0378790617 0.1088000011 0.4328167802
v 0.03607593775 0.1089999962 0.4337636453
v 0.03532906055 0.1089999962 0.4355667764
v 0.03607593775 0.1089999962 0.4373698885
v 0.0378790617 0.1089999962 0.438116768
v 0.03968218327 0.1089999962 0.4373698885
v 0.04042906284 0.1089999962 0.4355667764
v 0.03968218327 0.1089999962 0.4337636453
v 0.0378790617 0.1089999962 0.4330167658
v 0.03893948555 0.1089999962 0.4345063478
v 0.03932862997 0.1089999962 0.4359556848
v 0.03826749802 0.1089999962 0.4370168192
v 0.03681816578 0.1089999962 0.4366276628
v 0.03642902136 0.1089999962 0.4351783449
v 0.03749015093 0.1089999962 0.4341172105
v 0.03893948555 0.1077000046 0.4345063478
v 0.03893948555 0.1089999962 0.4345063478
v 0.03749015093 0.1089999962 0.4341172105
v 0.03749015093 0.1077000046 0.4341172105
v 0.03749240398 0.1077000046 0.4341178018
v 0.03749240398 0.1077000046 0.4341178018
v 0.03801078796 0.1077000046 0.4340729028
v 0.03851331234 0.1077000046 0.4342078287
v 0.03893948555 0.1077000046 0.4345063478
v 0.03643114328 0.1077000046 0.4351762087
v 0.03665108442 0.1077000046 0.4347059137
v 0.03701820374 0.1077000046 0.4343388063
v 0.03748849869 0.1077000046 0.4341188509
v 0.03667697906 0.1060000038 0.434364689
v 0.03831905365 0.1060000038 0.4339247018
v 0.0395211339 0.1060000038 0.4351267892
v 0.03908114195 0.1060000038 0.4367688638
v 0.03743906736 0.1060000038 0.437208851
v 0.03623698711 0.1060000038 0.4360067636
v 0.03681840181 0.1057999992 0.4345061189
v 0.03643017292 0.1057999992 0.4359549982
v 0.03749083281 0.1057999992 0.4370156557
v 0.03893972158 0.1057999992 0.4366274339
v 0.03932795048 0.1057999992 0.4351785356
v 0.03826729059 0.1057999992 0.4341178781
v 0.03908114195 0.1060000038 0.4367688638
v 0.03893972158 0.1057999992 0.4366274339
v 0.03681781769 0.1077000046 0.4366263849
v 0.0365199542 0.1077000046 0.4362006838
v 0.03638522387 0.1077000046 0.4356988794
v 0.0364297986 0.1077000046 0.435181225
v 0.03681840181 0.09630000114 0.4366274339
v 0.03826729059 0.09630000114 0.4370156557
v 0.03932795048 0.09630000114 0.4359549982
v 0.03893972158 0.09630000114 0.4345061189
v 0.03749083281 0.09630000114 0.4341178781
v 0.03643017292 0.09630000114 0.4351785356
v 0.03681840181 0.1057999992 0.4345061189
v 0.03826729059 0.1057999992 0.4341178781
v 0.03932795048 0.1057999992 0.4351785356
v 0.03893972158 0.1057999992 0.4366274339
v 0.03749083281 0.1057999992 0.4370156557
v 0.03643017292 0.1057999992 0.4359549982
v 0.03826729059 0.09630000114 0.4370156557
v 0.03893972158 0.1057999992 0.4366274339
v 0.03826459885 0.1077000046 0.4370160371
v 0.03774695158 0.1077000046 0.4370606119
v 0.03724515915 0.1077000046 0.4369258768
v 0.03681945562 0.1077000046 0.4366280061
v 0.03681840181 0.09630000114 0.4366274339
v 0.03643017292 0.09630000114 0.4351785356
v 0.03749083281 0.09630000114 0.4341178781
v 0.03893972158 0.09630000114 0.4345061189
v 0.03932795048 0.09630000114 0.4359549982
v 0.03826729059 0.09630000114 0.4370156557
v 0.03703053236 0.09600000381 0.4347182542
v 0.03680985212 0.09600000381 0.4361115533
v 0.03806678295 0.09600000381 0.4367520029
v 0.03906428576 0.09600000381 0.4357544977
v 0.03842385054 0.09600000381 0.434497574
v 0.03906428576 0.09600000381 0.4357544977
v 0.03893972158 0.09630000114 0.4345061189
v 0.03932697773 0.1077000046 0.4359573251
v 0.03910703659 0.1077000046 0.4364276392
v 0.03873991728 0.1077000046 0.4367947466
v 0.03826962233 0.1077000046 0.4370146829
v 0.03932802439 0.1077000046 0.4359534341
v 0.03932862997 0.1077000046 0.4359556848
v 0.03932862997 0.1089999962 0.4359556848
v 0.03893948555 0.1089999962 0.4345063478
v 0.03893948555 0.1077000046 0.4345063478
v 0.03703053236 0.09600000381 0.4347182542
v 0.03842385054 0.09600000381 0.434497574
v 0.03906428576 0.09600000381 0.4357544977
v 0.03806678295 0.09600000381 0.4367520029
v 0.03680985212 0.09600000381 0.4361115533
v 0.03748849869 0.1077000046 0.4341188509
v 0.03701820374 0.1077000046 0.4343388063
v 0.03665108442 0.1077000046 0.4347059137
v 0.03643114328 0.1077000046 0.4351762087
v 0.03643069506 0.1077000046 0.4351778871
v 0.03643024445 0.1077000046 0.4351795656
v 0.0364297986 0.1077000046 0.435181225
v 0.03638522387 0.1077000046 0.4356988794
v 0.0365199542 0.1077000046 0.4362006838
v 0.03681781769 0.1077000046 0.4366263849
v 0.03681816578 0.107700386 0.4366276628
v 0.03681945562 0.1077000046 0.4366280061
v 0.03724515915 0.1077000046 0.4369258768
v 0.03774695158 0.1077000046 0.4370606119
v 0.03826459885 0.1077000046 0.4370160371
v 0.03826627493 0.1077000046 0.4370155794
v 0.03826794863 0.1077000046 0.4370151407
v 0.03826962233 0.1077000046 0.4370146829
v 0.03873991728 0.1077000046 0.4367947466
v 0.03910703659 0.1077000046 0.4364276392
v 0.03932697773 0.1077000046 0.4359573251
v 0.03932732821 0.1077000046 0.4359560281
v 0.0393276763 0.1077000046 0.4359547311
v 0.03932802439 0.1077000046 0.4359534341
v 0.03937293053 0.1077000046 0.4354350549
v 0.03923800468 0.1077000046 0.4349325258
v 0.03893948555 0.1077000046 0.4345063478
v 0.03851331234 0.1077000046 0.4342078287
v 0.03801078796 0.1077000046 0.4340729028
v 0.03749240398 0.1077000046 0.4341178018
v 0.03749110222 0.1077000046 0.4341181642
v 0.03748980045 0.1077000046 0.4341185075
v 0.0378790617 0.1068341637 0.4355667764
v 0.03893948555 0.1077000046 0.4345063478
v 0.0378790617 0.1068341637 0.4355667764
v 0.0378790617 0.1068341637 0.4355667764
v 0.0378790617 0.1068341637 0.4355667764
v 0.0378790617 0.1068341637 0.4355667764
v 0.0378790617 0.1068341637 0.4355667764
v 0.0378790617 0.1068341637 0.4355667764
v 0.03826962233 0.1077000046 0.4370146829
v 0.03826749802 0.1077000046 0.4370168192
v 0.03826749802 0.1089999962 0.4370168192
v 0.03932862997 0.1089999962 0.4359556848
v 0.03932862997 0.1077000046 0.4359556848
v 0.03932697773 0.1077000046 0.4359573251
v 0.03749240398 0.1077000046 0.4341178018
v 0.03749015093 0.1077000046 0.4341172105
v 0.03748849869 0.1077000046 0.4341188509
v 0.03748980045 0.1077000046 0.4341185075
v 0.03749110222 0.1077000046 0.4341181642
v 0.03748849869 0.1077000046 0.4341188509
v 0.03749015093 0.1077000046 0.4341172105
v 0.03749015093 0.1089999962 0.4341172105
v 0.03642902136 0.1089999962 0.4351783449
v 0.03642902136 0.1077000046 0.4351783449
v 0.03643114328 0.1077000046 0.4351762087
v 0.03681945562 0.1077000046 0.4366280061
v 0.03681816578 0.107700386 0.4366276628
v 0.03681816578 0.1089999962 0.4366276628
v 0.03826749802 0.1089999962 0.4370168192
v 0.03826749802 0.1077000046 0.4370168192
v 0.03826459885 0.1077000046 0.4370160371
v 0.03643114328 0.1077000046 0.4351762087
v 0.03642902136 0.1077000046 0.4351783449
v 0.0364297986 0.1077000046 0.435181225
v 0.03643024445 0.1077000046 0.4351795656
v 0.03643069506 0.1077000046 0.4351778871
v 0.0364297986 0.1077000046 0.435181225
v 0.03642902136 0.1077000046 0.4351783449
v 0.03642902136 0.1089999962 0.4351783449
v 0.03681816578 0.1089999962 0.4366276628
v 0.03681816578 0.107700386 0.4366276628
v 0.03681781769 0.1077000046 0.4366263849
v 0.03932697773 0.1077000046 0.4359573251
v 0.03932862997 0.1077000046 0.4359556848
v 0.03932802439 0.1077000046 0.4359534341
v 0.0393276763 0.1077000046 0.4359547311
v 0.03932732821 0.1077000046 0.4359560281
v 0.03826459885 0.1077000046 0.4370160371
v 0.03826749802 0.1077000046 0.4370168192
v 0.03826962233 0.1077000046 0.4370146829
v 0.03826794863 0.1077000046 0.4370151407
v 0.03826627493 0.1077000046 0.4370155794
f 2 3 1
f 1 3 4
f 12 5 13
f 13 5 6
f 13 6 18
f 18 6 7
f 18 7 17
f 17 7 8
f 17 8 16
f 16 8 9
f 16 9 10
f 16 10 15
f 15 10 11
f 15 11 14
f 14 11 12
f 14 12 13
f 20 34 19
f 19 34 35
f 36 27 26
f 26 27 28
f 26 28 25
f 25 28 29
f 25 29 24
f 24 29 30
f 24 30 23
f 23 30 31
f 23 31 22
f 22 31 32
f 22 32 21
f 21 32 33
f 21 33 20
f 20 33 34
f 44 37 45
f 45 37 53
f 45 53 52
f 54 38 51
f 51 38 39
f 51 39 50
f 50 39 40
f 50 40 49
f 49 40 41
f 49 41 48
f 48 41 42
f 48 42 47
f 47 42 43
f 47 43 46
f 46 43 44
f 46 44 45
f 56 67 55
f 55 67 68
f 55 68 62
f 62 68 63
f 62 63 61
f 61 63 60
f 60 63 64
f 60 64 59
f 59 64 65
f 59 65 58
f 58 65 66
f 58 66 57
f 57 66 56
f 56 66 67
f 69 70 73
f 73 70 71
f 73 71 72
f 74 75 77
f 77 75 76
f 78 79 81
f 81 79 80
f 83 88 82
f 82 88 89
f 82 89 87
f 87 89 90
f 87 90 86
f 86 90 95
f 86 95 85
f 94 91 92
f 94 92 84
f 84 92 93
f 84 93 83
f 83 93 88
f 97 98 96
f 96 98 99
f 112 110 100
f 100 110 111
f 100 111 105
f 105 111 106
f 105 106 104
f 104 106 107
f 104 107 103
f 103 107 108
f 103 108 102
f 102 108 113
f 102 113 101
f 112 109 110
f 114 115 117
f 117 115 116
f 119 125 118
f 118 125 126
f 118 126 123
f 123 126 129
f 123 129 122
f 122 129 121
f 130 127 128
f 130 128 120
f 120 128 124
f 120 124 119
f 119 124 125
f 132 133 131
f 131 133 134
f 136 137 135
f 135 137 138
f 135 138 139
f 140 141 144
f 144 141 143
f 143 141 142
f 176 145 184
f 184 145 146
f 184 146 147
f 147 148 184
f 184 148 149
f 149 150 181
f 181 150 151
f 181 151 152
f 152 153 181
f 181 153 154
f 155 156 154
f 154 156 183
f 156 157 183
f 183 157 158
f 183 158 159
f 159 160 183
f 160 161 180
f 180 161 162
f 180 162 163
f 163 164 180
f 180 164 165
f 180 165 166
f 166 167 182
f 182 167 168
f 182 168 169
f 169 170 182
f 170 178 177
f 179 171 172
f 179 172 173
f 173 174 179
f 179 174 175
f 175 176 184
f 186 187 185
f 185 187 188
f 185 188 190
f 190 188 189
f 191 192 195
f 195 192 194
f 194 192 193
f 197 198 196
f 196 198 201
f 201 198 199
f 201 199 200
f 203 204 202
f 202 204 207
f 207 204 205
f 207 205 206
f 208 209 212
f 212 209 211
f 211 209 210
f 214 215 213
f 213 215 216
f 213 216 218
f 218 216 217
f 219 220 223
f 223 220 222
f 222 220 221
f 224 225 228
f 228 225 227
f 227 225 226
