v -0.006004999876 0.008000000119 0.428568886
v -0.004525115192 0.008000000119 0.4294233019
v -0.004525115192 0.008000000119 0.4311321336
v -0.006004999876 0.008000000119 0.4319865495
v -0.007484884858 0.008000000119 0.4311321336
v -0.007484884858 0.008000000119 0.4294233019
v -0.006004999876 0.008000000119 0.428568886
v -0.007484884858 0.008000000119 0.4294233019
v -0.007484884858 0.008000000119 0.4311321336
v -0.006004999876 0.008000000119 0.4319865495
v -0.004525115192 0.008000000119 0.4311321336
v -0.004525115192 0.008000000119 0.4294233019
v -0.006004999876 0.008799999952 0.4282777101
v -0.004441336989 0.008799999952 0.4290307314
v -0.004055144191 0.008799999952 0.4307227594
v -0.005137232542 0.008799999952 0.4320796472
v -0.00687276721 0.008799999952 0.4320796472
v -0.007954855561 0.008799999952 0.4307227594
v -0.007568662763 0.008799999952 0.4290307314
v -0.006004999876 0.008000000119 0.428568886
v -0.006004999876 0.008799999952 0.4282777101
v -0.006004999876 0.008799999952 0.4282777101
v -0.007568662763 0.008799999952 0.4290307314
v -0.007954855561 0.008799999952 0.4307227594
v -0.00687276721 0.008799999952 0.4320796472
v -0.005137232542 0.008799999952 0.4320796472
v -0.004055144191 0.008799999952 0.4307227594
v -0.004441336989 0.008799999952 0.4290307314
v -0.006004999876 0.02269999981 0.4322777254
v -0.007568662763 0.02269999981 0.4315247041
v -0.007954855561 0.02269999981 0.4298326761
v -0.00687276721 0.02269999981 0.4284757883
v -0.005137232542 0.02269999981 0.4284757883
v -0.004055144191 0.02269999981 0.4298326761
v -0.004441336989 0.02269999981 0.4315247041
v -0.00687276721 0.02269999981 0.4284757883
v -0.006004999876 0.008799999952 0.4282777101
v -0.006004999876 0.02349999905 0.4319865495
v -0.007484884858 0.02349999905 0.4311321336
v -0.007484884858 0.02349999905 0.4294233019
v -0.006004999876 0.02349999905 0.428568886
v -0.004525115192 0.02349999905 0.4294233019
v -0.004525115192 0.02349999905 0.4311321336
v -0.006004999876 0.02269999981 0.4322777254
v -0.004441336989 0.02269999981 0.4315247041
v -0.004055144191 0.02269999981 0.4298326761
v -0.005137232542 0.02269999981 0.4284757883
v -0.00687276721 0.02269999981 0.4284757883
v -0.007954855561 0.02269999981 0.4298326761
v -0.007568662763 0.02269999981 0.4315247041
v -0.005137232542 0.02269999981 0.4284757883
v -0.006004999876 0.02349999905 0.428568886
v -0.006004999876 0.02349999905 0.4319865495
v -0.004525115192 0.02349999905 0.4311321336
v -0.004525115192 0.02349999905 0.4294233019
v -0.006004999876 0.02349999905 0.428568886
v -0.007484884858 0.02349999905 0.4294233019
v -0.007484884858 0.02349999905 0.4311321336
f 2 4 1
f 1 4 5
f 1 5 6
f 2 3 4
f 8 19 7
f 7 19 21
f 20 13 14
f 19 8 18
f 18 8 9
f 18 9 17
f 17 9 10
f 17 10 16
f 16 10 11
f 16 11 15
f 15 11 12
f 15 12 14
f 14 12 20
f 23 36 22
f 37 32 33
f 37 33 28
f 28 33 34
f 28 34 27
f 27 34 35
f 27 35 26
f 26 35 29
f 26 29 25
f 25 29 30
f 25 30 24
f 24 30 31
f 24 31 23
f 23 31 36
f 39 50 38
f 38 50 44
f 38 44 45
f 50 39 49
f 49 39 40
f 49 40 48
f 48 40 52
f 48 52 47
f 51 41 42
f 51 42 46
f 46 42 43
f 46 43 45
f 45 43 38
f 54 56 53
f 53 56 57
f 53 57 58
f 54 55 56
