v -0.03658107996 0.03769999981 0.4363179285
v -0.03657906055 0.03769999981 0.436316765
v -0.03657906055 0.03769999981 0.436314438
v -0.03657973289 0.03769999981 0.4363156015
v -0.03658040762 0.03769999981 0.436316765
v -0.03657906055 0.03769999981 0.436314438
v -0.03657906055 0.03769999981 0.436316765
v -0.03657906055 0.03900000095 0.436316765
v -0.03657906055 0.03900000095 0.4348161012
v -0.03657906055 0.03769999981 0.4348161012
v -0.03657906055 0.03769999981 0.4348191148
v -0.03788021803 0.03769999981 0.4340671045
v -0.0378790617 0.03770038366 0.4340664369
v -0.0378790617 0.03900000095 0.4340664369
v -0.03917906046 0.03900000095 0.4348161012
v -0.03917906046 0.03769999981 0.4348161012
v -0.0391764617 0.03769999981 0.4348146135
v -0.03657906055 0.03769999981 0.4348191148
v -0.03657906055 0.03769999981 0.4348161012
v -0.0365816617 0.03769999981 0.4348146135
v -0.03658079147 0.03769999981 0.4348161012
v -0.03657992601 0.03769999981 0.434817608
v -0.0365816617 0.03769999981 0.4348146135
v -0.03657906055 0.03769999981 0.4348161012
v -0.03657906055 0.03900000095 0.4348161012
v -0.0378790617 0.03900000095 0.4340664369
v -0.0378790617 0.03770038366 0.4340664369
v -0.03787790298 0.03769999981 0.4340671045
v -0.03917906046 0.03769999981 0.436314438
v -0.03917906046 0.03769999981 0.436316765
v -0.03917704105 0.03769999981 0.4363179285
v -0.03917771578 0.03769999981 0.436316765
v -0.03917838812 0.03769999981 0.4363156015
v -0.0391764617 0.03769999981 0.4348146135
v -0.03917906046 0.03769999981 0.4348161012
v -0.03917906046 0.03769999981 0.4348191148
v -0.039178195 0.03769999981 0.434817608
v -0.03917732954 0.03769999981 0.4348161012
v -0.03512906075 0.03599999905 0.4355667764
v -0.03593451738 0.03599999905 0.4375113184
v -0.0378790617 0.03599999905 0.4383167726
v -0.03982360363 0.03599999905 0.4375113184
v -0.04062906265 0.03599999905 0.4355667764
v -0.03982360363 0.03599999905 0.4336222345
v -0.0378790617 0.03599999905 0.4328167802
v -0.03593451738 0.03599999905 0.4336222345
v -0.03617906094 0.03599999905 0.4355667764
v -0.03702906132 0.03599999905 0.4340945322
v -0.0387290597 0.03599999905 0.4340945322
v -0.03957906008 0.03599999905 0.4355667764
v -0.0387290597 0.03599999905 0.4370390207
v -0.03702906132 0.03599999905 0.4370390207
v -0.03512906075 0.03880000114 0.4355667764
v -0.03593451738 0.03880000114 0.4375113184
v -0.0378790617 0.03880000114 0.4383167726
v -0.03982360363 0.03880000114 0.4375113184
v -0.04062906265 0.03880000114 0.4355667764
v -0.03982360363 0.03880000114 0.4336222345
v -0.0378790617 0.03880000114 0.4328167802
v -0.03593451738 0.03880000114 0.4336222345
v -0.03512906075 0.03599999905 0.4355667764
v -0.03593451738 0.03599999905 0.4336222345
v -0.0378790617 0.03599999905 0.4328167802
v -0.03982360363 0.03599999905 0.4336222345
v -0.04062906265 0.03599999905 0.4355667764
v -0.03982360363 0.03599999905 0.4375113184
v -0.0378790617 0.03599999905 0.4383167726
v -0.03593451738 0.03599999905 0.4375113184
v -0.03512906075 0.03599999905 0.4355667764
v -0.03512906075 0.03880000114 0.4355667764
v -0.03532906055 0.03900000095 0.4355667764
v -0.03607593775 0.03900000095 0.4373698885
v -0.0378790617 0.03900000095 0.438116768
v -0.03968218327 0.03900000095 0.4373698885
v -0.04042906284 0.03900000095 0.4355667764
v -0.03968218327 0.03900000095 0.4337636453
v -0.0378790617 0.03900000095 0.4330167658
v -0.03607593775 0.03900000095 0.4337636453
v -0.03512906075 0.03880000114 0.4355667764
v -0.03593451738 0.03880000114 0.4336222345
v -0.0378790617 0.03880000114 0.4328167802
v -0.03982360363 0.03880000114 0.4336222345
v -0.04062906265 0.03880000114 0.4355667764
v -0.03982360363 0.03880000114 0.4375113184
v -0.0378790617 0.03880000114 0.4383167726
v -0.03593451738 0.03880000114 0.4375113184
v -0.03607593775 0.03900000095 0.4373698885
v -0.03593451738 0.03880000114 0.4375113184
v -0.03532906055 0.03900000095 0.4355667764
v -0.03607593775 0.03900000095 0.4337636453
v -0.0378790617 0.03900000095 0.4330167658
v -0.03968218327 0.03900000095 0.4337636453
v -0.04042906284 0.03900000095 0.4355667764
v -0.03968218327 0.03900000095 0.4373698885
v -0.0378790617 0.03900000095 0.438116768
v -0.03607593775 0.03900000095 0.4373698885
v -0.0378790617 0.03900000095 0.4370664484
v -0.03917906046 0.03900000095 0.436316765
v -0.03917906046 0.03900000095 0.4348161012
v -0.0378790617 0.03900000095 0.4340664369
v -0.03657906055 0.03900000095 0.4348161012
v -0.03657906055 0.03900000095 0.436316765
v -0.0378790617 0.03769999981 0.4370664484
v -0.0378790617 0.03900000095 0.4370664484
v -0.03657906055 0.03900000095 0.436316765
v -0.03657906055 0.03769999981 0.436316765
v -0.03658107996 0.03769999981 0.4363179285
v -0.03658107996 0.03769999981 0.4363179285
v -0.03691587925 0.03769999981 0.4367162401
v -0.03736662626 0.03769999981 0.4369761736
v -0.0378790617 0.03769999981 0.4370664484
v -0.03657906055 0.03769999981 0.4348191148
v -0.03640203238 0.03769999981 0.4353071863
v -0.03640203238 0.03769999981 0.4358263666
v -0.03657906055 0.03769999981 0.436314438
v -0.03617906094 0.03599999905 0.4355667764
v -0.03702906132 0.03599999905 0.4370390207
v -0.0387290597 0.03599999905 0.4370390207
v -0.03957906008 0.03599999905 0.4355667764
v -0.0387290597 0.03599999905 0.4340945322
v -0.03702906132 0.03599999905 0.4340945322
v -0.03637906075 0.03579999924 0.4355667764
v -0.03712906122 0.03579999924 0.4342677385
v -0.03862905979 0.03579999924 0.4342677385
v -0.03937906027 0.03579999924 0.4355667764
v -0.03862905979 0.03579999924 0.4368658144
v -0.03712906122 0.03579999924 0.4368658144
v -0.03957906008 0.03599999905 0.4355667764
v -0.03937906027 0.03579999924 0.4355667764
v -0.03787790298 0.03769999981 0.4340671045
v -0.03736626387 0.03769999981 0.4341575128
v -0.03691617489 0.03769999981 0.4344170458
v -0.0365816617 0.03769999981 0.4348146135
v -0.0378790617 0.02630000114 0.4340667802
v -0.03917809963 0.02630000114 0.4348167688
v -0.03917809963 0.02630000114 0.436316765
v -0.0378790617 0.02630000114 0.4370667726
v -0.03658002377 0.02630000114 0.436316765
v -0.03658002377 0.02630000114 0.4348167688
v -0.03637906075 0.03579999924 0.4355667764
v -0.03712906122 0.03579999924 0.4368658144
v -0.03862905979 0.03579999924 0.4368658144
v -0.03937906027 0.03579999924 0.4355667764
v -0.03862905979 0.03579999924 0.4342677385
v -0.03712906122 0.03579999924 0.4342677385
v -0.03917809963 0.02630000114 0.4348167688
v -0.03937906027 0.03579999924 0.4355667764
v -0.0391764617 0.03769999981 0.4348146135
v -0.03884194612 0.03769999981 0.4344170458
v -0.03839185715 0.03769999981 0.4341575128
v -0.03788021803 0.03769999981 0.4340671045
v -0.0378790617 0.02630000114 0.4340667802
v -0.03658002377 0.02630000114 0.4348167688
v -0.03658002377 0.02630000114 0.436316765
v -0.0378790617 0.02630000114 0.4370667726
v -0.03917809963 0.02630000114 0.436316765
v -0.03917809963 0.02630000114 0.4348167688
v -0.03667906046 0.02599999905 0.4355667764
v -0.03750823975 0.02599999905 0.4344255144
v -0.0388498807 0.02599999905 0.4348614389
v -0.0388498807 0.02599999905 0.436272114
v -0.03750823975 0.02599999905 0.4367080385
v -0.0388498807 0.02599999905 0.436272114
v -0.0378790617 0.02630000114 0.4370667726
v -0.03917906046 0.03769999981 0.436314438
v -0.03935608864 0.03769999981 0.4358263666
v -0.03935608864 0.03769999981 0.4353071863
v -0.03917906046 0.03769999981 0.4348191148
v -0.03917704105 0.03769999981 0.4363179285
v -0.03917906046 0.03769999981 0.436316765
v -0.03917906046 0.03900000095 0.436316765
v -0.0378790617 0.03900000095 0.4370664484
v -0.0378790617 0.03769999981 0.4370664484
v -0.03667906046 0.02599999905 0.4355667764
v -0.03750823975 0.02599999905 0.4367080385
v -0.0388498807 0.02599999905 0.436272114
v -0.0388498807 0.02599999905 0.4348614389
v -0.03750823975 0.02599999905 0.4344255144
v -0.0378790617 0.03769999981 0.4370664484
v -0.03839149475 0.03769999981 0.4369761736
v -0.03884224176 0.03769999981 0.4367162401
v -0.03917704105 0.03769999981 0.4363179285
v -0.03657906055 0.03769999981 0.436314438
v -0.03640203238 0.03769999981 0.4358263666
v -0.03640203238 0.03769999981 0.4353071863
v -0.03657906055 0.03769999981 0.4348191148
v -0.03657992601 0.03769999981 0.434817608
v -0.03658079147 0.03769999981 0.4348161012
v -0.0365816617 0.03769999981 0.4348146135
v -0.03691617489 0.03769999981 0.4344170458
v -0.03736626387 0.03769999981 0.4341575128
v -0.03787790298 0.03769999981 0.4340671045
v -0.0378790617 0.03770038366 0.4340664369
v -0.03788021803 0.03769999981 0.4340671045
v -0.03839185715 0.03769999981 0.4341575128
v -0.03884194612 0.03769999981 0.4344170458
v -0.0391764617 0.03769999981 0.4348146135
v -0.03917732954 0.03769999981 0.4348161012
v -0.039178195 0.03769999981 0.434817608
v -0.03917906046 0.03769999981 0.4348191148
v -0.03935608864 0.03769999981 0.4353071863
v -0.03935608864 0.03769999981 0.4358263666
v -0.03917906046 0.03769999981 0.436314438
v -0.03917838812 0.03769999981 0.4363156015
v -0.03917771578 0.03769999981 0.436316765
v -0.03917704105 0.03769999981 0.4363179285
v -0.03884224176 0.03769999981 0.4367162401
v -0.03839149475 0.03769999981 0.4369761736
v -0.0378790617 0.03769999981 0.4370664484
v -0.03736662626 0.03769999981 0.4369761736
v -0.03691587925 0.03769999981 0.4367162401
v -0.03658107996 0.03769999981 0.4363179285
v -0.03658040762 0.03769999981 0.436316765
v -0.03657973289 0.03769999981 0.4363156015
v -0.0378790617 0.03683416605 0.4355667764
v -0.0378790617 0.03769999981 0.4370664484
v -0.0378790617 0.03683416605 0.4355667764
v -0.0378790617 0.03683416605 0.4355667764
v -0.0378790617 0.03683416605 0.4355667764
v -0.0378790617 0.03683416605 0.4355667764
v -0.0378790617 0.03683416605 0.4355667764
v -0.0378790617 0.03683416605 0.4355667764
v -0.03917906046 0.03769999981 0.4348191148
v -0.03917906046 0.03769999981 0.4348161012
v -0.03917906046 0.03900000095 0.4348161012
v -0.03917906046 0.03900000095 0.436316765
v -0.03917906046 0.03769999981 0.436316765
v -0.03917906046 0.03769999981 0.436314438
f 1 2 5
f 5 2 4
f 4 2 3
f 7 8 6
f 6 8 11
f 11 8 9
f 11 9 10
f 13 14 12
f 12 14 17
f 17 14 15
f 17 15 16
f 18 19 22
f 22 19 21
f 21 19 20
f 24 25 23
f 23 25 26
f 23 26 28
f 28 26 27
f 29 30 33
f 33 30 32
f 32 30 31
f 34 35 38
f 38 35 37
f 37 35 36
f 46 39 47
f 47 39 40
f 47 40 52
f 52 40 41
f 52 41 51
f 51 41 42
f 51 42 50
f 50 42 43
f 50 43 44
f 50 44 49
f 49 44 45
f 49 45 48
f 48 45 46
f 48 46 47
f 54 68 53
f 53 68 69
f 70 61 60
f 60 61 62
f 60 62 59
f 59 62 63
f 59 63 58
f 58 63 64
f 58 64 57
f 57 64 65
f 57 65 56
f 56 65 66
f 56 66 55
f 55 66 67
f 55 67 54
f 54 67 68
f 78 71 79
f 79 71 87
f 79 87 86
f 88 72 85
f 85 72 73
f 85 73 84
f 84 73 74
f 84 74 83
f 83 74 75
f 83 75 82
f 82 75 76
f 82 76 81
f 81 76 77
f 81 77 80
f 80 77 78
f 80 78 79
f 90 101 89
f 89 101 102
f 89 102 96
f 96 102 97
f 96 97 95
f 95 97 94
f 94 97 98
f 94 98 93
f 93 98 99
f 93 99 92
f 92 99 100
f 92 100 91
f 91 100 90
f 90 100 101
f 103 104 107
f 107 104 105
f 107 105 106
f 108 109 111
f 111 109 110
f 112 113 115
f 115 113 114
f 117 122 116
f 116 122 123
f 116 123 121
f 121 123 124
f 121 124 120
f 120 124 129
f 120 129 119
f 128 125 126
f 128 126 118
f 118 126 127
f 118 127 117
f 117 127 122
f 131 132 130
f 130 132 133
f 146 144 134
f 134 144 145
f 134 145 139
f 139 145 140
f 139 140 138
f 138 140 141
f 138 141 137
f 137 141 142
f 137 142 136
f 136 142 147
f 136 147 135
f 146 143 144
f 148 149 151
f 151 149 150
f 153 159 152
f 152 159 160
f 152 160 157
f 157 160 163
f 157 163 156
f 156 163 155
f 164 161 162
f 164 162 154
f 154 162 158
f 154 158 153
f 153 158 159
f 166 167 165
f 165 167 168
f 170 171 169
f 169 171 172
f 169 172 173
f 174 175 178
f 178 175 177
f 177 175 176
f 180 181 179
f 179 181 182
f 214 183 222
f 222 183 184
f 222 184 185
f 185 186 222
f 222 186 187
f 187 188 219
f 219 188 189
f 219 189 190
f 190 191 219
f 219 191 192
f 193 194 192
f 192 194 221
f 194 195 221
f 221 195 196
f 221 196 197
f 197 198 221
f 198 199 218
f 218 199 200
f 218 200 201
f 201 202 218
f 218 202 203
f 218 203 204
f 204 205 220
f 220 205 206
f 220 206 207
f 207 208 220
f 208 216 215
f 217 209 210
f 217 210 211
f 211 212 217
f 217 212 213
f 213 214 222
f 224 225 223
f 223 225 226
f 223 226 228
f 228 226 227
