v -0.01649999976 0.115803442 0.3988767511
v -0.01693933964 0.115803442 0.3999374086
v -0.01799999952 0.115803442 0.4003767568
v -0.0190606606 0.115803442 0.3999374086
v -0.01950000048 0.115803442 0.3988767511
v -0.0190606606 0.115803442 0.3978160936
v -0.01799999952 0.115803442 0.3973767549
v -0.01693933964 0.115803442 0.3978160936
v -0.01934999943 0.115803442 0.3988767511
v -0.01895459414 0.115803442 0.3998313505
v -0.01799999952 0.115803442 0.4002267534
v -0.0170454061 0.115803442 0.3998313505
v -0.01664999962 0.115803442 0.3988767511
v -0.0170454061 0.115803442 0.3979221613
v -0.01799999952 0.115803442 0.3975267488
v -0.01895459414 0.115803442 0.3979221613
v -0.01934999943 0.1101034355 0.3988767511
v -0.01867499948 0.1101034355 0.4000458891
v -0.01732499957 0.1101034355 0.4000458891
v -0.01664999962 0.1101034355 0.3988767511
v -0.01732499957 0.1101034355 0.3977076131
v -0.01867499948 0.1101034355 0.3977076131
v -0.01934999943 0.115803442 0.3988767511
v -0.01895459414 0.115803442 0.3979221613
v -0.01799999952 0.115803442 0.3975267488
v -0.0170454061 0.115803442 0.3979221613
v -0.01664999962 0.115803442 0.3988767511
v -0.0170454061 0.115803442 0.3998313505
v -0.01799999952 0.115803442 0.4002267534
v -0.01895459414 0.115803442 0.3998313505
v -0.01664999962 0.115803442 0.3988767511
v -0.01664999962 0.1101034355 0.3988767511
f 8 1 13
f 13 1 2
f 13 2 12
f 12 2 11
f 11 2 3
f 11 3 10
f 10 3 4
f 10 4 9
f 9 4 5
f 9 5 6
f 9 6 16
f 16 6 7
f 16 7 15
f 15 7 14
f 14 7 8
f 14 8 13
f 18 30 17
f 17 30 23
f 17 23 24
f 30 18 29
f 29 18 19
f 29 19 28
f 28 19 32
f 28 32 27
f 31 20 26
f 26 20 21
f 26 21 25
f 25 21 22
f 25 22 24
f 24 22 17
