v 0.1927149963 0.09346500397 0.3798767549
v 0.193624649 0.09346500397 0.3844498235
v 0.1962150764 0.09346500397 0.3883266813
v 0.2000919342 0.09346500397 0.3909171087
v 0.2046649933 0.09346500397 0.3918267519
v 0.2092380714 0.09346500397 0.3909171087
v 0.2131149292 0.09346500397 0.3883266813
v 0.2157053566 0.09346500397 0.3844498235
v 0.2166150093 0.09346500397 0.3798767549
v 0.2157053566 0.09346500397 0.3753036863
v 0.2131149292 0.09346500397 0.3714268285
v 0.2092380714 0.09346500397 0.3688363916
v 0.2046649933 0.09346500397 0.3679267484
v 0.2000919342 0.09346500397 0.3688363916
v 0.1962150764 0.09346500397 0.3714268285
v 0.193624649 0.09346500397 0.3753036863
v 0.1948649979 0.09561499596 0.3798767549
v 0.1958355141 0.09561499596 0.3756246931
v 0.1985548019 0.09561499596 0.3722148019
v 0.2024843025 0.09561499596 0.3703224546
v 0.2068457031 0.09561499596 0.3703224546
v 0.2107752037 0.09561499596 0.3722148019
v 0.2134944916 0.09561499596 0.3756246931
v 0.2144650078 0.09561499596 0.3798767549
v 0.2134944916 0.09561499596 0.3841288168
v 0.2107752037 0.09561499596 0.3875386984
v 0.2068457031 0.09561499596 0.3894310457
v 0.2024843025 0.09561499596 0.3894310457
v 0.1985548019 0.09561499596 0.3875386984
v 0.1958355141 0.09561499596 0.3841288168
v 0.1927149963 0.09346500397 0.3798767549
v 0.1948649979 0.09561499596 0.3798767549
v 0.1966650009 0.09100000381 0.3798767549
v 0.1975813484 0.09100000381 0.37615897
v 0.2001204872 0.09100000381 0.3732928831
v 0.2037007141 0.09100000381 0.3719350797
v 0.2075018311 0.09100000381 0.37239662
v 0.2106530952 0.09100000381 0.3745717699
v 0.2124325371 0.09100000381 0.3779622251
v 0.2124325371 0.09100000381 0.3817912752
v 0.2106530952 0.09100000381 0.3851817304
v 0.2075018311 0.09100000381 0.3873568803
v 0.2037007141 0.09100000381 0.3878184206
v 0.2001204872 0.09100000381 0.3864606268
v 0.1975813484 0.09100000381 0.3835945398
v 0.1966650009 0.09561499596 0.3798767549
v 0.1975813484 0.09561499596 0.3835945398
v 0.2001204872 0.09561499596 0.3864606268
v 0.2037007141 0.09561499596 0.3878184206
v 0.2075018311 0.09561499596 0.3873568803
v 0.2106530952 0.09561499596 0.3851817304
v 0.2124325371 0.09561499596 0.3817912752
v 0.2124325371 0.09561499596 0.3779622251
v 0.2106530952 0.09561499596 0.3745717699
v 0.2075018311 0.09561499596 0.37239662
v 0.2037007141 0.09561499596 0.3719350797
v 0.2001204872 0.09561499596 0.3732928831
v 0.1975813484 0.09561499596 0.37615897
v 0.1966650009 0.09100000381 0.3798767549
v 0.1966650009 0.09561499596 0.3798767549
v 0.1966650009 0.09 0.3798767549
v 0.1975813484 0.09 0.3835945398
v 0.2001204872 0.09 0.3864606268
v 0.2037007141 0.09 0.3878184206
v 0.2075018311 0.09 0.3873568803
v 0.2106530952 0.09 0.3851817304
v 0.2124325371 0.09 0.3817912752
v 0.2124325371 0.09 0.3779622251
v 0.2106530952 0.09 0.3745717699
v 0.2075018311 0.09 0.37239662
v 0.2037007141 0.09 0.3719350797
v 0.2001204872 0.09 0.3732928831
v 0.1975813484 0.09 0.37615897
v 0.1966650009 0.08538499832 0.3798767549
v 0.1975813484 0.08538499832 0.37615897
v 0.2001204872 0.08538499832 0.3732928831
v 0.2037007141 0.08538499832 0.3719350797
v 0.2075018311 0.08538499832 0.37239662
v 0.2106530952 0.08538499832 0.3745717699
v 0.2124325371 0.08538499832 0.3779622251
v 0.2124325371 0.08538499832 0.3817912752
v 0.2106530952 0.08538499832 0.3851817304
v 0.2075018311 0.08538499832 0.3873568803
v 0.2037007141 0.08538499832 0.3878184206
v 0.2001204872 0.08538499832 0.3864606268
v 0.1975813484 0.08538499832 0.3835945398
v 0.1966650009 0.09 0.3798767549
v 0.1966650009 0.08538499832 0.3798767549
v 0.1948649979 0.08538499832 0.3798767549
v 0.1958355141 0.08538499832 0.3841288168
v 0.1985548019 0.08538499832 0.3875386984
v 0.2024843025 0.08538499832 0.3894310457
v 0.2068457031 0.08538499832 0.3894310457
v 0.2107752037 0.08538499832 0.3875386984
v 0.2134944916 0.08538499832 0.3841288168
v 0.2144650078 0.08538499832 0.3798767549
v 0.2134944916 0.08538499832 0.3756246931
v 0.2107752037 0.08538499832 0.3722148019
v 0.2068457031 0.08538499832 0.3703224546
v 0.2024843025 0.08538499832 0.3703224546
v 0.1985548019 0.08538499832 0.3722148019
v 0.1958355141 0.08538499832 0.3756246931
v 0.1927149963 0.08753499985 0.3798767549
v 0.193624649 0.08753499985 0.3753036863
v 0.1962150764 0.08753499985 0.3714268285
v 0.2000919342 0.08753499985 0.3688363916
v 0.2046649933 0.08753499985 0.3679267484
v 0.2092380714 0.08753499985 0.3688363916
v 0.2131149292 0.08753499985 0.3714268285
v 0.2157053566 0.08753499985 0.3753036863
v 0.2166150093 0.08753499985 0.3798767549
v 0.2157053566 0.08753499985 0.3844498235
v 0.2131149292 0.08753499985 0.3883266813
v 0.2092380714 0.08753499985 0.3909171087
v 0.2046649933 0.08753499985 0.3918267519
v 0.2000919342 0.08753499985 0.3909171087
v 0.1962150764 0.08753499985 0.3883266813
v 0.193624649 0.08753499985 0.3844498235
v 0.1948649979 0.08538499832 0.3798767549
v 0.1927149963 0.08753499985 0.3798767549
v 0.1976650047 0.09100000381 0.3798767549
v 0.198602829 0.09100000381 0.3833767492
v 0.2011650085 0.09100000381 0.3859389288
v 0.2046649933 0.09100000381 0.386876753
v 0.2081649971 0.09100000381 0.3859389288
v 0.2107271767 0.09100000381 0.3833767492
v 0.2116650009 0.09100000381 0.3798767549
v 0.2107271767 0.09100000381 0.3763767511
v 0.2081649971 0.09100000381 0.3738145715
v 0.2046649933 0.09100000381 0.3728767568
v 0.2011650085 0.09100000381 0.3738145715
v 0.198602829 0.09100000381 0.3763767511
v 0.1976650047 0.09 0.3798767549
v 0.198602829 0.09 0.3763767511
v 0.2011650085 0.09 0.3738145715
v 0.2046649933 0.09 0.3728767568
v 0.2081649971 0.09 0.3738145715
v 0.2107271767 0.09 0.3763767511
v 0.2116650009 0.09 0.3798767549
v 0.2107271767 0.09 0.3833767492
v 0.2081649971 0.09 0.3859389288
v 0.2046649933 0.09 0.386876753
v 0.2011650085 0.09 0.3859389288
v 0.198602829 0.09 0.3833767492
v 0.1976650047 0.09100000381 0.3798767549
v 0.1976650047 0.09 0.3798767549
v 0.1966650009 0.08538499832 0.3798767549
v 0.1975813484 0.08538499832 0.3835945398
v 0.2001204872 0.08538499832 0.3864606268
v 0.2037007141 0.08538499832 0.3878184206
v 0.2075018311 0.08538499832 0.3873568803
v 0.2106530952 0.08538499832 0.3851817304
v 0.2124325371 0.08538499832 0.3817912752
v 0.2124325371 0.08538499832 0.3779622251
v 0.2106530952 0.08538499832 0.3745717699
v 0.2075018311 0.08538499832 0.37239662
v 0.2037007141 0.08538499832 0.3719350797
v 0.2001204872 0.08538499832 0.3732928831
v 0.1975813484 0.08538499832 0.37615897
v 0.1948649979 0.08538499832 0.3798767549
v 0.1958355141 0.08538499832 0.3756246931
v 0.1985548019 0.08538499832 0.3722148019
v 0.2024843025 0.08538499832 0.3703224546
v 0.2068457031 0.08538499832 0.3703224546
v 0.2107752037 0.08538499832 0.3722148019
v 0.2134944916 0.08538499832 0.3756246931
v 0.2144650078 0.08538499832 0.3798767549
v 0.2134944916 0.08538499832 0.3841288168
v 0.2107752037 0.08538499832 0.3875386984
v 0.2068457031 0.08538499832 0.3894310457
v 0.2024843025 0.08538499832 0.3894310457
v 0.1985548019 0.08538499832 0.3875386984
v 0.1958355141 0.08538499832 0.3841288168
v 0.1976650047 0.09 0.3798767549
v 0.198602829 0.09 0.3833767492
v 0.2011650085 0.09 0.3859389288
v 0.2046649933 0.09 0.386876753
v 0.2081649971 0.09 0.3859389288
v 0.2107271767 0.09 0.3833767492
v 0.2116650009 0.09 0.3798767549
v 0.2107271767 0.09 0.3763767511
v 0.2081649971 0.09 0.3738145715
v 0.2046649933 0.09 0.3728767568
v 0.2011650085 0.09 0.3738145715
v 0.198602829 0.09 0.3763767511
v 0.1966650009 0.09 0.3798767549
v 0.1975813484 0.09 0.37615897
v 0.2001204872 0.09 0.3732928831
v 0.2037007141 0.09 0.3719350797
v 0.2075018311 0.09 0.37239662
v 0.2106530952 0.09 0.3745717699
v 0.2124325371 0.09 0.3779622251
v 0.2124325371 0.09 0.3817912752
v 0.2106530952 0.09 0.3851817304
v 0.2075018311 0.09 0.3873568803
v 0.2037007141 0.09 0.3878184206
v 0.2001204872 0.09 0.3864606268
v 0.1975813484 0.09 0.3835945398
v 0.1927149963 0.09346500397 0.3798767549
v 0.193624649 0.09346500397 0.3753036863
v 0.1962150764 0.09346500397 0.3714268285
v 0.2000919342 0.09346500397 0.3688363916
v 0.2046649933 0.09346500397 0.3679267484
v 0.2092380714 0.09346500397 0.3688363916
v 0.2131149292 0.09346500397 0.3714268285
v 0.2157053566 0.09346500397 0.3753036863
v 0.2166150093 0.09346500397 0.3798767549
v 0.2157053566 0.09346500397 0.3844498235
v 0.2131149292 0.09346500397 0.3883266813
v 0.2092380714 0.09346500397 0.3909171087
v 0.2046649933 0.09346500397 0.3918267519
v 0.2000919342 0.09346500397 0.3909171087
v 0.1962150764 0.09346500397 0.3883266813
v 0.193624649 0.09346500397 0.3844498235
v 0.1927149963 0.08753499985 0.3798767549
v 0.193624649 0.08753499985 0.3844498235
v 0.1962150764 0.08753499985 0.3883266813
v 0.2000919342 0.08753499985 0.3909171087
v 0.2046649933 0.08753499985 0.3918267519
v 0.2092380714 0.08753499985 0.3909171087
v 0.2131149292 0.08753499985 0.3883266813
v 0.2157053566 0.08753499985 0.3844498235
v 0.2166150093 0.08753499985 0.3798767549
v 0.2157053566 0.08753499985 0.3753036863
v 0.2131149292 0.08753499985 0.3714268285
v 0.2092380714 0.08753499985 0.3688363916
v 0.2046649933 0.08753499985 0.3679267484
v 0.2000919342 0.08753499985 0.3688363916
v 0.1962150764 0.08753499985 0.3714268285
v 0.193624649 0.08753499985 0.3753036863
v 0.1927149963 0.08753499985 0.3798767549
v 0.1927149963 0.09346500397 0.3798767549
v 0.1976650047 0.09100000381 0.3798767549
v 0.198602829 0.09100000381 0.3763767511
v 0.2011650085 0.09100000381 0.3738145715
v 0.2046649933 0.09100000381 0.3728767568
v 0.2081649971 0.09100000381 0.3738145715
v 0.2107271767 0.09100000381 0.3763767511
v 0.2116650009 0.09100000381 0.3798767549
v 0.2107271767 0.09100000381 0.3833767492
v 0.2081649971 0.09100000381 0.3859389288
v 0.2046649933 0.09100000381 0.386876753
v 0.2011650085 0.09100000381 0.3859389288
v 0.198602829 0.09100000381 0.3833767492
v 0.1966650009 0.09100000381 0.3798767549
v 0.1975813484 0.09100000381 0.3835945398
v 0.2001204872 0.09100000381 0.3864606268
v 0.2037007141 0.09100000381 0.3878184206
v 0.2075018311 0.09100000381 0.3873568803
v 0.2106530952 0.09100000381 0.3851817304
v 0.2124325371 0.09100000381 0.3817912752
v 0.2124325371 0.09100000381 0.3779622251
v 0.2106530952 0.09100000381 0.3745717699
v 0.2075018311 0.09100000381 0.37239662
v 0.2037007141 0.09100000381 0.3719350797
v 0.2001204872 0.09100000381 0.3732928831
v 0.1975813484 0.09100000381 0.37615897
v 0.1966650009 0.09561499596 0.3798767549
v 0.1975813484 0.09561499596 0.37615897
v 0.2001204872 0.09561499596 0.3732928831
v 0.2037007141 0.09561499596 0.3719350797
v 0.2075018311 0.09561499596 0.37239662
v 0.2106530952 0.09561499596 0.3745717699
v 0.2124325371 0.09561499596 0.3779622251
v 0.2124325371 0.09561499596 0.3817912752
v 0.2106530952 0.09561499596 0.3851817304
v 0.2075018311 0.09561499596 0.3873568803
v 0.2037007141 0.09561499596 0.3878184206
v 0.2001204872 0.09561499596 0.3864606268
v 0.1975813484 0.09561499596 0.3835945398
v 0.1948649979 0.09561499596 0.3798767549
v 0.1958355141 0.09561499596 0.3841288168
v 0.1985548019 0.09561499596 0.3875386984
v 0.2024843025 0.09561499596 0.3894310457
v 0.2068457031 0.09561499596 0.3894310457
v 0.2107752037 0.09561499596 0.3875386984
v 0.2134944916 0.09561499596 0.3841288168
v 0.2144650078 0.09561499596 0.3798767549
v 0.2134944916 0.09561499596 0.3756246931
v 0.2107752037 0.09561499596 0.3722148019
v 0.2068457031 0.09561499596 0.3703224546
v 0.2024843025 0.09561499596 0.3703224546
v 0.1985548019 0.09561499596 0.3722148019
v 0.1958355141 0.09561499596 0.3756246931
f 16 31 17
f 32 1 2
f 32 2 30
f 30 2 3
f 30 3 29
f 29 3 4
f 29 4 28
f 28 4 5
f 28 5 27
f 27 5 6
f 27 6 26
f 26 6 7
f 26 7 25
f 25 7 8
f 25 8 24
f 24 8 9
f 24 9 10
f 24 10 23
f 23 10 11
f 23 11 22
f 22 11 12
f 22 12 21
f 21 12 13
f 21 13 20
f 20 13 14
f 20 14 19
f 19 14 15
f 19 15 18
f 18 15 16
f 18 16 17
f 34 58 33
f 33 58 60
f 59 46 45
f 45 46 47
f 45 47 44
f 44 47 48
f 44 48 43
f 43 48 49
f 43 49 42
f 42 49 50
f 42 50 41
f 41 50 51
f 41 51 40
f 40 51 52
f 40 52 39
f 39 52 53
f 39 53 38
f 38 53 54
f 38 54 37
f 37 54 55
f 37 55 36
f 36 55 56
f 36 56 35
f 35 56 57
f 35 57 34
f 34 57 58
f 62 86 61
f 61 86 88
f 87 74 73
f 73 74 75
f 73 75 72
f 72 75 76
f 72 76 71
f 71 76 77
f 71 77 70
f 70 77 78
f 70 78 69
f 69 78 79
f 69 79 68
f 68 79 80
f 68 80 67
f 67 80 81
f 67 81 66
f 66 81 82
f 66 82 65
f 65 82 83
f 65 83 64
f 64 83 84
f 64 84 63
f 63 84 85
f 63 85 62
f 62 85 86
f 90 118 89
f 89 118 120
f 119 103 104
f 118 90 117
f 117 90 91
f 117 91 116
f 116 91 92
f 116 92 115
f 115 92 93
f 115 93 114
f 114 93 94
f 114 94 113
f 113 94 95
f 113 95 112
f 112 95 96
f 112 96 111
f 111 96 110
f 110 96 97
f 110 97 109
f 109 97 98
f 109 98 108
f 108 98 99
f 108 99 107
f 107 99 100
f 107 100 106
f 106 100 101
f 106 101 105
f 105 101 102
f 105 102 104
f 104 102 119
f 122 144 121
f 121 144 146
f 145 133 132
f 132 133 134
f 132 134 131
f 131 134 135
f 131 135 130
f 130 135 136
f 130 136 129
f 129 136 137
f 129 137 128
f 128 137 138
f 128 138 127
f 127 138 139
f 127 139 126
f 126 139 140
f 126 140 125
f 125 140 141
f 125 141 124
f 124 141 142
f 124 142 123
f 123 142 143
f 123 143 122
f 122 143 144
f 148 173 147
f 147 173 160
f 147 160 161
f 173 148 172
f 172 148 149
f 172 149 171
f 171 149 150
f 171 150 170
f 170 150 151
f 170 151 169
f 169 151 152
f 169 152 168
f 168 152 153
f 168 153 167
f 167 153 154
f 167 154 166
f 166 154 155
f 166 155 165
f 165 155 156
f 165 156 164
f 164 156 157
f 164 157 163
f 163 157 158
f 163 158 162
f 162 158 159
f 162 159 161
f 161 159 147
f 175 198 174
f 174 198 186
f 174 186 187
f 198 175 197
f 197 175 176
f 197 176 196
f 196 176 177
f 196 177 195
f 195 177 178
f 195 178 194
f 194 178 179
f 194 179 193
f 193 179 180
f 193 180 192
f 192 180 181
f 192 181 191
f 191 181 182
f 191 182 190
f 190 182 183
f 190 183 189
f 189 183 184
f 189 184 188
f 188 184 185
f 188 185 187
f 187 185 174
f 200 230 199
f 199 230 231
f 232 215 214
f 214 215 216
f 214 216 213
f 213 216 217
f 213 217 212
f 212 217 218
f 212 218 211
f 211 218 219
f 211 219 210
f 210 219 220
f 210 220 209
f 209 220 221
f 209 221 208
f 208 221 222
f 208 222 207
f 207 222 223
f 207 223 206
f 206 223 224
f 206 224 205
f 205 224 225
f 205 225 204
f 204 225 226
f 204 226 203
f 203 226 227
f 203 227 202
f 202 227 228
f 202 228 201
f 201 228 229
f 201 229 200
f 200 229 230
f 234 257 233
f 233 257 245
f 233 245 246
f 257 234 256
f 256 234 235
f 256 235 255
f 255 235 236
f 255 236 254
f 254 236 237
f 254 237 253
f 253 237 238
f 253 238 252
f 252 238 239
f 252 239 251
f 251 239 240
f 251 240 250
f 250 240 241
f 250 241 249
f 249 241 242
f 249 242 248
f 248 242 243
f 248 243 247
f 247 243 244
f 247 244 246
f 246 244 233
f 259 284 258
f 258 284 271
f 258 271 272
f 284 259 283
f 283 259 260
f 283 260 282
f 282 260 261
f 282 261 281
f 281 261 262
f 281 262 280
f 280 262 263
f 280 263 279
f 279 263 264
f 279 264 278
f 278 264 265
f 278 265 277
f 277 265 266
f 277 266 276
f 276 266 267
f 276 267 275
f 275 267 268
f 275 268 274
f 274 268 269
f 274 269 273
f 273 269 270
f 273 270 272
f 272 270 258
