v 0.01929999948 0.1101034355 0.4408767587
v 0.0186500001 0.1101034355 0.4397509271
v 0.01735000014 0.1101034355 0.4397509271
v 0.01669999957 0.1101034355 0.4408767587
v 0.01735000014 0.1101034355 0.4420025903
v 0.0186500001 0.1101034355 0.4420025903
v 0.01950000048 0.1103034401 0.4408767587
v 0.01875 0.1103034401 0.4421757967
v 0.01725000024 0.1103034401 0.4421757967
v 0.01649999976 0.1103034401 0.4408767587
v 0.01725000024 0.1103034401 0.4395777208
v 0.01875 0.1103034401 0.4395777208
v 0.01735000014 0.1101034355 0.4397509271
v 0.01725000024 0.1103034401 0.4395777208
v 0.01950000048 0.1103034401 0.4408767587
v 0.01875 0.1103034401 0.4395777208
v 0.01725000024 0.1103034401 0.4395777208
v 0.01649999976 0.1103034401 0.4408767587
v 0.01725000024 0.1103034401 0.4421757967
v 0.01875 0.1103034401 0.4421757967
v 0.01649999976 0.115803442 0.4408767587
v 0.01725000024 0.115803442 0.4395777208
v 0.01875 0.115803442 0.4395777208
v 0.01950000048 0.115803442 0.4408767587
v 0.01875 0.115803442 0.4421757967
v 0.01725000024 0.115803442 0.4421757967
v 0.01649999976 0.115803442 0.4408767587
v 0.01649999976 0.1103034401 0.4408767587
v 0.01929999948 0.1101034355 0.4408767587
v 0.0186500001 0.1101034355 0.4420025903
v 0.01735000014 0.1101034355 0.4420025903
v 0.01669999957 0.1101034355 0.4408767587
v 0.01735000014 0.1101034355 0.4397509271
v 0.0186500001 0.1101034355 0.4397509271
v 0.01649999976 0.115803442 0.4408767587
v 0.01725000024 0.115803442 0.4421757967
v 0.01875 0.115803442 0.4421757967
v 0.01950000048 0.115803442 0.4408767587
v 0.01875 0.115803442 0.4395777208
v 0.01725000024 0.115803442 0.4395777208
v 0.01620000005 0.1161034393 0.4408767587
v 0.0167272079 0.1161034393 0.4396039659
v 0.01799999952 0.1161034393 0.4390767557
v 0.01927279234 0.1161034393 0.4396039659
v 0.01980000019 0.1161034393 0.4408767587
v 0.01927279234 0.1161034393 0.4421495515
v 0.01799999952 0.1161034393 0.4426767427
v 0.0167272079 0.1161034393 0.4421495515
v 0.01620000005 0.1161034393 0.4408767587
v 0.01649999976 0.115803442 0.4408767587
v 0.02079999924 0.1161034393 0.4408767587
v 0.01997989893 0.1161034393 0.4428566438
v 0.01799999952 0.1161034393 0.4436767465
v 0.01602010131 0.1161034393 0.4428566438
v 0.01519999981 0.1161034393 0.4408767587
v 0.01602010131 0.1161034393 0.4388968546
v 0.01799999952 0.1161034393 0.4380767519
v 0.01997989893 0.1161034393 0.4388968546
v 0.01620000005 0.1161034393 0.4408767587
v 0.0167272079 0.1161034393 0.4421495515
v 0.01799999952 0.1161034393 0.4426767427
v 0.01927279234 0.1161034393 0.4421495515
v 0.01980000019 0.1161034393 0.4408767587
v 0.01927279234 0.1161034393 0.4396039659
v 0.01799999952 0.1161034393 0.4390767557
v 0.0167272079 0.1161034393 0.4396039659
v 0.02079999924 0.1176459026 0.4408767587
v 0.01997989893 0.1176459026 0.4428566438
v 0.01799999952 0.1176459026 0.4436767465
v 0.01602010131 0.1176459026 0.4428566438
v 0.01519999981 0.1176459026 0.4408767587
v 0.01602010131 0.1176459026 0.4388968546
v 0.01799999952 0.1176459026 0.4380767519
v 0.01997989893 0.1176459026 0.4388968546
v 0.02079999924 0.1161034393 0.4408767587
v 0.01997989893 0.1161034393 0.4388968546
v 0.01799999952 0.1161034393 0.4380767519
v 0.01602010131 0.1161034393 0.4388968546
v 0.01519999981 0.1161034393 0.4408767587
v 0.01602010131 0.1161034393 0.4428566438
v 0.01799999952 0.1161034393 0.4436767465
v 0.01997989893 0.1161034393 0.4428566438
v 0.01519999981 0.1176459026 0.4408767587
v 0.01519999981 0.1161034393 0.4408767587
v 0.01938210964 0.1182992458 0.4405767519
v 0.01938623428 0.1183063889 0.4407766992
v 0.01938623428 0.1183063889 0.4409768182
v 0.01938210964 0.1182992458 0.4411767465
v 0.01912435889 0.1183661366 0.4411767465
v 0.01886340857 0.1184191799 0.4411767465
v 0.01860000014 0.1184582329 0.4411767465
v 0.0183878684 0.1184732628 0.4412646181
v 0.01830000043 0.1184582329 0.4414767534
v 0.01830000043 0.1184191799 0.4417401582
v 0.01830000043 0.1183661366 0.4420011026
v 0.01830000043 0.1182992458 0.4422588617
v 0.01810005665 0.1183063889 0.4422629816
v 0.01789994359 0.1183063889 0.4422629816
v 0.01769999981 0.1182992458 0.4422588617
v 0.01769999981 0.1183661366 0.4420011026
v 0.01769999981 0.1184191799 0.4417401582
v 0.01769999981 0.1184582329 0.4414767534
v 0.01761213183 0.1184732628 0.4412646181
v 0.0174000001 0.1184582329 0.4411767465
v 0.01713659167 0.1184191799 0.4411767465
v 0.01687564015 0.1183661366 0.4411767465
v 0.0166178906 0.1182992458 0.4411767465
v 0.01661376595 0.1183063889 0.4409768182
v 0.01661376595 0.1183063889 0.4407766992
v 0.0166178906 0.1182992458 0.4405767519
v 0.01687564015 0.1183661366 0.4405767519
v 0.01713659167 0.1184191799 0.4405767519
v 0.0174000001 0.1184582329 0.4405767519
v 0.01761213183 0.1184732628 0.4404888803
v 0.01769999981 0.1184582329 0.440276745
v 0.01769999981 0.1184191799 0.4400133402
v 0.01769999981 0.1183661366 0.4397523958
v 0.01769999981 0.1182992458 0.4394946367
v 0.01789994359 0.1183063889 0.4394905168
v 0.01810005665 0.1183063889 0.4394905168
v 0.01830000043 0.1182992458 0.4394946367
v 0.01830000043 0.1183661366 0.4397523958
v 0.01830000043 0.1184191799 0.4400133402
v 0.01830000043 0.1184582329 0.440276745
v 0.0183878684 0.1184732628 0.4404888803
v 0.01860000014 0.1184582329 0.4405767519
v 0.01886340857 0.1184191799 0.4405767519
v 0.01912435889 0.1183661366 0.4405767519
v 0.02079999924 0.1176459026 0.4408767587
v 0.01997989893 0.1176459026 0.4388968546
v 0.01799999952 0.1176459026 0.4380767519
v 0.01602010131 0.1176459026 0.4388968546
v 0.01519999981 0.1176459026 0.4408767587
v 0.01602010131 0.1176459026 0.4428566438
v 0.01799999952 0.1176459026 0.4436767465
v 0.01997989893 0.1176459026 0.4428566438
v 0.01661376595 0.1183063889 0.4409768182
v 0.01519999981 0.1176459026 0.4408767587
v 0.01830000043 0.1169445896 0.4414767534
v 0.01830000043 0.1184582329 0.4414767534
v 0.0183878684 0.1184732628 0.4412646181
v 0.01860000014 0.1184582329 0.4411767465
v 0.01860000014 0.1169445896 0.4411767465
v 0.01860000014 0.1168234348 0.4411767465
v 0.01845000029 0.1168234348 0.4412169534
v 0.01834019184 0.1168234348 0.4413267595
v 0.01830000043 0.1168234348 0.4414767534
v 0.01860000014 0.1169445896 0.4411767465
v 0.01860000014 0.1184582329 0.4411767465
v 0.01886340857 0.1184191799 0.4411767465
v 0.01912435889 0.1183661366 0.4411767465
v 0.01938210964 0.1182992458 0.4411767465
v 0.01860000014 0.1169445896 0.4405767519
v 0.01853005171 0.1168234348 0.4405767519
v 0.01853005171 0.1168234348 0.4411767465
v 0.01860000014 0.1169445896 0.4411767465
v 0.01938210964 0.1182992458 0.4411767465
v 0.01938623428 0.1183063889 0.4409768182
v 0.01938623428 0.1183063889 0.4407766992
v 0.01938210964 0.1182992458 0.4405767519
v 0.0166178906 0.1182992458 0.4411767465
v 0.0174000001 0.1169445896 0.4411767465
v 0.01746994853 0.1168234348 0.4411767465
v 0.01746994853 0.1168234348 0.4405767519
v 0.0174000001 0.1169445896 0.4405767519
v 0.0166178906 0.1182992458 0.4405767519
v 0.01661376595 0.1183063889 0.4407766992
v 0.01661376595 0.1183063889 0.4409768182
v 0.0174000001 0.1169445896 0.4411767465
v 0.0166178906 0.1182992458 0.4411767465
v 0.01687564015 0.1183661366 0.4411767465
v 0.01713659167 0.1184191799 0.4411767465
v 0.0174000001 0.1184582329 0.4411767465
v 0.0174000001 0.1169445896 0.4411767465
v 0.0174000001 0.1184582329 0.4411767465
v 0.01761213183 0.1184732628 0.4412646181
v 0.01769999981 0.1184582329 0.4414767534
v 0.01769999981 0.1169445896 0.4414767534
v 0.01769999981 0.1168234348 0.4414767534
v 0.01765980721 0.1168234348 0.4413267595
v 0.01754999995 0.1168234348 0.4412169534
v 0.0174000001 0.1168234348 0.4411767465
v 0.01830000043 0.1169445896 0.4414767534
v 0.01830000043 0.1182992458 0.4422588617
v 0.01830000043 0.1183661366 0.4420011026
v 0.01830000043 0.1184191799 0.4417401582
v 0.01830000043 0.1184582329 0.4414767534
v 0.01860000014 0.1169445896 0.4405767519
v 0.01938210964 0.1182992458 0.4405767519
v 0.01912435889 0.1183661366 0.4405767519
v 0.01886340857 0.1184191799 0.4405767519
v 0.01860000014 0.1184582329 0.4405767519
v 0.01769999981 0.1169445896 0.4414767534
v 0.01769999981 0.1184582329 0.4414767534
v 0.01769999981 0.1184191799 0.4417401582
v 0.01769999981 0.1183661366 0.4420011026
v 0.01769999981 0.1182992458 0.4422588617
v 0.01830000043 0.1168234348 0.4414068109
v 0.01830000043 0.1169445896 0.4414767534
v 0.01830000043 0.1168234348 0.4414767534
v 0.01860000014 0.1169445896 0.4405767519
v 0.01860000014 0.1184582329 0.4405767519
v 0.0183878684 0.1184732628 0.4404888803
v 0.01830000043 0.1184582329 0.440276745
v 0.01830000043 0.1169445896 0.440276745
v 0.01830000043 0.1168234348 0.440276745
v 0.01834019184 0.1168234348 0.440426758
v 0.01845000029 0.1168234348 0.440536564
v 0.01860000014 0.1168234348 0.4405767519
v 0.01830000043 0.1169445896 0.4414767534
v 0.01830000043 0.1168234348 0.4414068109
v 0.01769999981 0.1168234348 0.4414068109
v 0.01769999981 0.1169445896 0.4414767534
v 0.01769999981 0.1182992458 0.4422588617
v 0.01789994359 0.1183063889 0.4422629816
v 0.01810005665 0.1183063889 0.4422629816
v 0.01830000043 0.1182992458 0.4422588617
v 0.01853005171 0.1168234348 0.4405767519
v 0.01860000014 0.1169445896 0.4405767519
v 0.01860000014 0.1168234348 0.4405767519
v 0.01830000043 0.1168234348 0.4414767534
v 0.01834019184 0.1168234348 0.4413267595
v 0.01845000029 0.1168234348 0.4412169534
v 0.01860000014 0.1168234348 0.4411767465
v 0.01853005171 0.1168234348 0.4411767465
v 0.01853005171 0.1168234348 0.4405767519
v 0.01860000014 0.1168234348 0.4405767519
v 0.01845000029 0.1168234348 0.440536564
v 0.01834019184 0.1168234348 0.440426758
v 0.01830000043 0.1168234348 0.440276745
v 0.01830000043 0.1168234348 0.4403467065
v 0.01769999981 0.1168234348 0.4403467065
v 0.01769999981 0.1168234348 0.440276745
v 0.01765980721 0.1168234348 0.440426758
v 0.01754999995 0.1168234348 0.440536564
v 0.0174000001 0.1168234348 0.4405767519
v 0.01746994853 0.1168234348 0.4405767519
v 0.01746994853 0.1168234348 0.4411767465
v 0.0174000001 0.1168234348 0.4411767465
v 0.01754999995 0.1168234348 0.4412169534
v 0.01765980721 0.1168234348 0.4413267595
v 0.01769999981 0.1168234348 0.4414767534
v 0.01769999981 0.1168234348 0.4414068109
v 0.01830000043 0.1168234348 0.4414068109
v 0.01830000043 0.1169445896 0.440276745
v 0.01830000043 0.1184582329 0.440276745
v 0.01830000043 0.1184191799 0.4400133402
v 0.01830000043 0.1183661366 0.4397523958
v 0.01830000043 0.1182992458 0.4394946367
v 0.01853005171 0.1168234348 0.4411767465
v 0.01860000014 0.1168234348 0.4411767465
v 0.01860000014 0.1169445896 0.4411767465
v 0.01746994853 0.1168234348 0.4411767465
v 0.0174000001 0.1169445896 0.4411767465
v 0.0174000001 0.1168234348 0.4411767465
v 0.01769999981 0.1169445896 0.440276745
v 0.01769999981 0.1168234348 0.4403467065
v 0.01830000043 0.1168234348 0.4403467065
v 0.01830000043 0.1169445896 0.440276745
v 0.01830000043 0.1182992458 0.4394946367
v 0.01810005665 0.1183063889 0.4394905168
v 0.01789994359 0.1183063889 0.4394905168
v 0.01769999981 0.1182992458 0.4394946367
v 0.01746994853 0.1168234348 0.4405767519
v 0.0174000001 0.1168234348 0.4405767519
v 0.0174000001 0.1169445896 0.4405767519
v 0.01769999981 0.1169445896 0.440276745
v 0.01769999981 0.1182992458 0.4394946367
v 0.01769999981 0.1183661366 0.4397523958
v 0.01769999981 0.1184191799 0.4400133402
v 0.01769999981 0.1184582329 0.440276745
v 0.01830000043 0.1168234348 0.4403467065
v 0.01830000043 0.1168234348 0.440276745
v 0.01830000043 0.1169445896 0.440276745
v 0.0174000001 0.1169445896 0.4405767519
v 0.0174000001 0.1184582329 0.4405767519
v 0.01713659167 0.1184191799 0.4405767519
v 0.01687564015 0.1183661366 0.4405767519
v 0.0166178906 0.1182992458 0.4405767519
v 0.01769999981 0.1168234348 0.4414068109
v 0.01769999981 0.1168234348 0.4414767534
v 0.01769999981 0.1169445896 0.4414767534
v 0.01769999981 0.1169445896 0.440276745
v 0.01769999981 0.1184582329 0.440276745
v 0.01761213183 0.1184732628 0.4404888803
v 0.0174000001 0.1184582329 0.4405767519
v 0.0174000001 0.1169445896 0.4405767519
v 0.0174000001 0.1168234348 0.4405767519
v 0.01754999995 0.1168234348 0.440536564
v 0.01765980721 0.1168234348 0.440426758
v 0.01769999981 0.1168234348 0.440276745
v 0.01769999981 0.1168234348 0.4403467065
v 0.01769999981 0.1169445896 0.440276745
v 0.01769999981 0.1168234348 0.440276745
f 2 7 1
f 1 7 8
f 1 8 6
f 6 8 9
f 6 9 5
f 5 9 10
f 5 10 4
f 4 10 14
f 4 14 3
f 13 11 12
f 13 12 2
f 2 12 7
f 16 23 15
f 15 23 24
f 15 24 20
f 20 24 25
f 20 25 19
f 19 25 26
f 19 26 18
f 18 26 27
f 28 21 17
f 17 21 22
f 17 22 16
f 16 22 23
f 30 32 29
f 29 32 33
f 29 33 34
f 30 31 32
f 36 48 35
f 35 48 49
f 50 41 42
f 48 36 47
f 47 36 37
f 47 37 46
f 46 37 38
f 46 38 45
f 45 38 44
f 44 38 39
f 44 39 43
f 43 39 40
f 43 40 42
f 42 40 50
f 58 51 63
f 63 51 52
f 63 52 62
f 62 52 61
f 61 52 53
f 61 53 60
f 60 53 54
f 60 54 59
f 59 54 55
f 59 55 56
f 59 56 66
f 66 56 57
f 66 57 65
f 65 57 64
f 64 57 58
f 64 58 63
f 68 82 67
f 67 82 75
f 67 75 74
f 74 75 76
f 74 76 73
f 73 76 77
f 73 77 72
f 72 77 78
f 72 78 71
f 71 78 84
f 83 79 70
f 70 79 80
f 70 80 69
f 69 80 81
f 69 81 68
f 68 81 82
f 128 85 129
f 129 85 86
f 129 86 87
f 87 88 129
f 129 88 136
f 136 88 91
f 136 91 92
f 88 89 91
f 91 89 90
f 92 93 136
f 136 93 94
f 136 94 95
f 136 95 135
f 135 95 96
f 135 96 97
f 97 98 135
f 135 98 99
f 135 99 100
f 135 100 134
f 134 100 101
f 134 101 102
f 102 103 134
f 134 103 104
f 134 104 105
f 105 106 134
f 134 106 133
f 133 106 107
f 133 107 137
f 108 109 138
f 138 109 110
f 138 110 132
f 132 110 113
f 132 113 114
f 110 111 113
f 113 111 112
f 114 115 132
f 132 115 116
f 132 116 117
f 132 117 131
f 131 117 118
f 131 118 119
f 119 120 131
f 131 120 121
f 131 121 130
f 130 121 123
f 130 123 124
f 121 122 123
f 124 125 130
f 130 125 126
f 130 126 127
f 127 128 130
f 130 128 129
f 147 139 146
f 146 139 140
f 146 140 141
f 146 141 145
f 145 141 142
f 145 142 143
f 143 144 145
f 149 150 148
f 148 150 151
f 148 151 152
f 154 156 153
f 153 156 159
f 153 159 160
f 154 155 156
f 157 158 156
f 156 158 159
f 161 162 168
f 168 162 165
f 168 165 167
f 167 165 166
f 163 164 162
f 162 164 165
f 170 171 169
f 169 171 172
f 169 172 173
f 182 174 181
f 181 174 175
f 181 175 176
f 181 176 180
f 180 176 177
f 180 177 178
f 178 179 180
f 184 185 183
f 183 185 186
f 183 186 187
f 189 190 188
f 188 190 191
f 188 191 192
f 194 195 193
f 193 195 196
f 193 196 197
f 198 199 200
f 209 201 208
f 208 201 202
f 208 202 203
f 208 203 207
f 207 203 204
f 207 204 205
f 205 206 207
f 211 212 210
f 210 212 213
f 210 213 215
f 215 213 214
f 215 216 210
f 210 216 217
f 218 219 220
f 221 222 244
f 244 222 241
f 244 241 243
f 243 241 242
f 223 235 222
f 222 235 240
f 222 240 241
f 224 225 223
f 223 225 226
f 223 226 228
f 228 226 227
f 223 228 234
f 234 228 229
f 234 229 232
f 232 229 231
f 231 229 230
f 232 233 234
f 234 235 223
f 236 237 235
f 235 237 240
f 237 238 240
f 240 238 239
f 246 247 245
f 245 247 248
f 245 248 249
f 250 251 252
f 253 254 255
f 257 258 256
f 256 258 259
f 256 259 262
f 262 259 261
f 261 259 260
f 262 263 256
f 264 265 266
f 268 269 267
f 267 269 270
f 267 270 271
f 272 273 274
f 276 277 275
f 275 277 278
f 275 278 279
f 280 281 282
f 291 283 290
f 290 283 284
f 290 284 285
f 290 285 289
f 289 285 286
f 289 286 287
f 287 288 289
f 292 293 294
