v -0.06775000095 0.07900000095 0.3548767549
v -0.06694454193 0.07900000095 0.3568212968
v -0.065 0.07900000095 0.3576267511
v -0.06305545807 0.07900000095 0.3568212968
v -0.06224999905 0.07900000095 0.3548767549
v -0.06305545807 0.07900000095 0.352932213
v -0.065 0.07900000095 0.3521267492
v -0.06694454193 0.07900000095 0.352932213
v -0.06775000095 0.07800000191 0.3548767549
v -0.06694454193 0.07800000191 0.352932213
v -0.065 0.07800000191 0.3521267492
v -0.06305545807 0.07800000191 0.352932213
v -0.06224999905 0.07800000191 0.3548767549
v -0.06305545807 0.07800000191 0.3568212968
v -0.065 0.07800000191 0.3576267511
v -0.06694454193 0.07800000191 0.3568212968
v -0.06775000095 0.07900000095 0.3548767549
v -0.06775000095 0.07800000191 0.3548767549
v -0.07 0.07900000095 0.3548767549
v -0.06904508591 0.07900000095 0.3519378263
v -0.06654508591 0.07900000095 0.3501214677
v -0.06345491409 0.07900000095 0.3501214677
v -0.06095491409 0.07900000095 0.3519378263
v -0.06 0.07900000095 0.3548767549
v -0.06095491409 0.07900000095 0.357815674
v -0.06345491409 0.07900000095 0.3596320326
v -0.06654508591 0.07900000095 0.3596320326
v -0.06904508591 0.07900000095 0.357815674
v -0.07 0.07800000191 0.3548767549
v -0.06904508591 0.07800000191 0.357815674
v -0.06654508591 0.07800000191 0.3596320326
v -0.06345491409 0.07800000191 0.3596320326
v -0.06095491409 0.07800000191 0.357815674
v -0.06 0.07800000191 0.3548767549
v -0.06095491409 0.07800000191 0.3519378263
v -0.06345491409 0.07800000191 0.3501214677
v -0.06654508591 0.07800000191 0.3501214677
v -0.06904508591 0.07800000191 0.3519378263
v -0.07 0.07800000191 0.3548767549
v -0.07 0.07900000095 0.3548767549
v -0.06775000095 0.07900000095 0.3548767549
v -0.06694454193 0.07900000095 0.352932213
v -0.065 0.07900000095 0.3521267492
v -0.06305545807 0.07900000095 0.352932213
v -0.06224999905 0.07900000095 0.3548767549
v -0.06305545807 0.07900000095 0.3568212968
v -0.065 0.07900000095 0.3576267511
v -0.06694454193 0.07900000095 0.3568212968
v -0.07 0.07900000095 0.3548767549
v -0.06904508591 0.07900000095 0.357815674
v -0.06654508591 0.07900000095 0.3596320326
v -0.06345491409 0.07900000095 0.3596320326
v -0.06095491409 0.07900000095 0.357815674
v -0.06 0.07900000095 0.3548767549
v -0.06095491409 0.07900000095 0.3519378263
v -0.06345491409 0.07900000095 0.3501214677
v -0.06654508591 0.07900000095 0.3501214677
v -0.06904508591 0.07900000095 0.3519378263
v -0.06775000095 0.07800000191 0.3548767549
v -0.06694454193 0.07800000191 0.3568212968
v -0.065 0.07800000191 0.3576267511
v -0.06305545807 0.07800000191 0.3568212968
v -0.06224999905 0.07800000191 0.3548767549
v -0.06305545807 0.07800000191 0.352932213
v -0.065 0.07800000191 0.3521267492
v -0.06694454193 0.07800000191 0.352932213
v -0.07 0.07800000191 0.3548767549
v -0.06904508591 0.07800000191 0.3519378263
v -0.06654508591 0.07800000191 0.3501214677
v -0.06345491409 0.07800000191 0.3501214677
v -0.06095491409 0.07800000191 0.3519378263
v -0.06 0.07800000191 0.3548767549
v -0.06095491409 0.07800000191 0.357815674
v -0.06345491409 0.07800000191 0.3596320326
v -0.06654508591 0.07800000191 0.3596320326
v -0.06904508591 0.07800000191 0.357815674
f 2 16 1
f 1 16 18
f 17 9 8
f 8 9 10
f 8 10 7
f 7 10 11
f 7 11 6
f 6 11 12
f 6 12 5
f 5 12 13
f 5 13 4
f 4 13 14
f 4 14 3
f 3 14 15
f 3 15 2
f 2 15 16
f 20 38 19
f 19 38 39
f 40 29 28
f 28 29 30
f 28 30 27
f 27 30 31
f 27 31 26
f 26 31 32
f 26 32 25
f 25 32 33
f 25 33 24
f 24 33 34
f 24 34 23
f 23 34 35
f 23 35 22
f 22 35 36
f 22 36 21
f 21 36 37
f 21 37 20
f 20 37 38
f 42 58 41
f 41 58 49
f 41 49 50
f 58 42 57
f 57 42 43
f 57 43 56
f 56 43 44
f 56 44 55
f 55 44 45
f 55 45 54
f 54 45 53
f 53 45 46
f 53 46 52
f 52 46 47
f 52 47 51
f 51 47 48
f 51 48 50
f 50 48 41
f 60 76 59
f 59 76 67
f 59 67 68
f 76 60 75
f 75 60 61
f 75 61 74
f 74 61 62
f 74 62 73
f 73 62 63
f 73 63 72
f 72 63 71
f 71 63 64
f 71 64 70
f 70 64 65
f 70 65 69
f 69 65 66
f 69 66 68
f 68 66 59
