v -0.2120426178 0.08538499832 0.4542161256
v -0.2141108322 0.08538499832 0.4580559618
v -0.2143081856 0.08538499832 0.4624128992
v -0.2125955772 0.08538499832 0.4664239961
v -0.2093122292 0.08538499832 0.4692948038
v -0.2051084328 0.08538499832 0.4704567224
v -0.2008168221 0.08538499832 0.4696796114
v -0.1972873688 0.08538499832 0.4671173937
v -0.1952191734 0.08538499832 0.4632775385
v -0.1950218201 0.08538499832 0.458920601
v -0.1967344284 0.08538499832 0.4549095041
v -0.2000177765 0.08538499832 0.4520386964
v -0.2042215729 0.08538499832 0.4508767969
v -0.2085131836 0.08538499832 0.4516539079
v -0.2136611748 0.08753499985 0.4528009302
v -0.2099662781 0.08753499985 0.4499569971
v -0.2054642868 0.08753499985 0.4487435037
v -0.2008406258 0.08753499985 0.4493452341
v -0.1967991829 0.08753499985 0.4516705591
v -0.1939552307 0.08753499985 0.4553654749
v -0.1927417564 0.08753499985 0.4598674661
v -0.1933434868 0.08753499985 0.4644911272
v -0.1956688118 0.08753499985 0.46853257
v -0.1993637276 0.08753499985 0.4713765222
v -0.2038657188 0.08753499985 0.4725899965
v -0.2084893799 0.08753499985 0.4719882661
v -0.2125308228 0.08753499985 0.4696629411
v -0.2153747559 0.08753499985 0.4659680254
v -0.2165882301 0.08753499985 0.4614660341
v -0.2159865189 0.08753499985 0.4568423731
v -0.2120426178 0.08538499832 0.4542161256
v -0.2136611748 0.08753499985 0.4528009302
v -0.2136611748 0.09346500397 0.4528009302
v -0.2159865189 0.09346500397 0.4568423731
v -0.2165882301 0.09346500397 0.4614660341
v -0.2153747559 0.09346500397 0.4659680254
v -0.2125308228 0.09346500397 0.4696629411
v -0.2084893799 0.09346500397 0.4719882661
v -0.2038657188 0.09346500397 0.4725899965
v -0.1993637276 0.09346500397 0.4713765222
v -0.1956688118 0.09346500397 0.46853257
v -0.1933434868 0.09346500397 0.4644911272
v -0.1927417564 0.09346500397 0.4598674661
v -0.1939552307 0.09346500397 0.4553654749
v -0.1967991829 0.09346500397 0.4516705591
v -0.2008406258 0.09346500397 0.4493452341
v -0.2054642868 0.09346500397 0.4487435037
v -0.2099662781 0.09346500397 0.4499569971
v -0.2120426178 0.09561499596 0.4542161256
v -0.2085131836 0.09561499596 0.4516539079
v -0.2042215729 0.09561499596 0.4508767969
v -0.2000177765 0.09561499596 0.4520386964
v -0.1967344284 0.09561499596 0.4549095041
v -0.1950218201 0.09561499596 0.458920601
v -0.1952191734 0.09561499596 0.4632775385
v -0.1972873688 0.09561499596 0.4671173937
v -0.2008168221 0.09561499596 0.4696796114
v -0.2051084328 0.09561499596 0.4704567224
v -0.2093122292 0.09561499596 0.4692948038
v -0.2125955772 0.09561499596 0.4664239961
v -0.2143081856 0.09561499596 0.4624128992
v -0.2141108322 0.09561499596 0.4580559618
v -0.2136611748 0.09346500397 0.4528009302
v -0.2120426178 0.09561499596 0.4542161256
v -0.210687542 0.09561499596 0.4554009325
v -0.2075505447 0.09561499596 0.4532052881
v -0.2037525177 0.09561499596 0.4527189714
v -0.200163517 0.09561499596 0.4540533907
v -0.1976057434 0.09561499596 0.4569028551
v -0.1966651726 0.09561499596 0.4606145937
v -0.1975572586 0.09561499596 0.4643382723
v -0.2000776482 0.09561499596 0.4672208482
v -0.2036489487 0.09561499596 0.4686019594
v -0.2074530029 0.09561499596 0.4681652147
v -0.2106183624 0.09561499596 0.4660106737
v -0.2124198914 0.09561499596 0.4626318819
v -0.2124448586 0.09561499596 0.4588029176
v -0.2120426178 0.09561499596 0.4542161256
v -0.2141108322 0.09561499596 0.4580559618
v -0.2143081856 0.09561499596 0.4624128992
v -0.2125955772 0.09561499596 0.4664239961
v -0.2093122292 0.09561499596 0.4692948038
v -0.2051084328 0.09561499596 0.4704567224
v -0.2008168221 0.09561499596 0.4696796114
v -0.1972873688 0.09561499596 0.4671173937
v -0.1952191734 0.09561499596 0.4632775385
v -0.1950218201 0.09561499596 0.458920601
v -0.1967344284 0.09561499596 0.4549095041
v -0.2000177765 0.09561499596 0.4520386964
v -0.2042215729 0.09561499596 0.4508767969
v -0.2085131836 0.09561499596 0.4516539079
v -0.2136611748 0.09346500397 0.4528009302
v -0.2099662781 0.09346500397 0.4499569971
v -0.2054642868 0.09346500397 0.4487435037
v -0.2008406258 0.09346500397 0.4493452341
v -0.1967991829 0.09346500397 0.4516705591
v -0.1939552307 0.09346500397 0.4553654749
v -0.1927417564 0.09346500397 0.4598674661
v -0.1933434868 0.09346500397 0.4644911272
v -0.1956688118 0.09346500397 0.46853257
v -0.1993637276 0.09346500397 0.4713765222
v -0.2038657188 0.09346500397 0.4725899965
v -0.2084893799 0.09346500397 0.4719882661
v -0.2125308228 0.09346500397 0.4696629411
v -0.2153747559 0.09346500397 0.4659680254
v -0.2165882301 0.09346500397 0.4614660341
v -0.2159865189 0.09346500397 0.4568423731
v -0.2136611748 0.08753499985 0.4528009302
v -0.2159865189 0.08753499985 0.4568423731
v -0.2165882301 0.08753499985 0.4614660341
v -0.2153747559 0.08753499985 0.4659680254
v -0.2125308228 0.08753499985 0.4696629411
v -0.2084893799 0.08753499985 0.4719882661
v -0.2038657188 0.08753499985 0.4725899965
v -0.1993637276 0.08753499985 0.4713765222
v -0.1956688118 0.08753499985 0.46853257
v -0.1933434868 0.08753499985 0.4644911272
v -0.1927417564 0.08753499985 0.4598674661
v -0.1939552307 0.08753499985 0.4553654749
v -0.1967991829 0.08753499985 0.4516705591
v -0.2008406258 0.08753499985 0.4493452341
v -0.2054642868 0.08753499985 0.4487435037
v -0.2099662781 0.08753499985 0.4499569971
v -0.2136611748 0.08753499985 0.4528009302
v -0.2136611748 0.09346500397 0.4528009302
v -0.210687542 0.08538499832 0.4554009325
v -0.2124448586 0.08538499832 0.4588029176
v -0.2124198914 0.08538499832 0.4626318819
v -0.2106183624 0.08538499832 0.4660106737
v -0.2074530029 0.08538499832 0.4681652147
v -0.2036489487 0.08538499832 0.4686019594
v -0.2000776482 0.08538499832 0.4672208482
v -0.1975572586 0.08538499832 0.4643382723
v -0.1966651726 0.08538499832 0.4606145937
v -0.1976057434 0.08538499832 0.4569028551
v -0.200163517 0.08538499832 0.4540533907
v -0.2037525177 0.08538499832 0.4527189714
v -0.2075505447 0.08538499832 0.4532052881
v -0.2120426178 0.08538499832 0.4542161256
v -0.2085131836 0.08538499832 0.4516539079
v -0.2042215729 0.08538499832 0.4508767969
v -0.2000177765 0.08538499832 0.4520386964
v -0.1967344284 0.08538499832 0.4549095041
v -0.1950218201 0.08538499832 0.458920601
v -0.1952191734 0.08538499832 0.4632775385
v -0.1972873688 0.08538499832 0.4671173937
v -0.2008168221 0.08538499832 0.4696796114
v -0.2051084328 0.08538499832 0.4704567224
v -0.2093122292 0.08538499832 0.4692948038
v -0.2125955772 0.08538499832 0.4664239961
v -0.2143081856 0.08538499832 0.4624128992
v -0.2141108322 0.08538499832 0.4580559618
v -0.2099347305 0.09100000381 0.4560591585
v -0.2115325165 0.09100000381 0.4593113214
v -0.2112901688 0.09100000381 0.4629266817
v -0.2092725945 0.09100000381 0.4659364778
v -0.2060204315 0.09100000381 0.4675342638
v -0.2024050713 0.09100000381 0.4672919161
v -0.1993952751 0.09100000381 0.4652743417
v -0.1977974892 0.09100000381 0.4620221788
v -0.1980398369 0.09100000381 0.4584068376
v -0.2000574112 0.09100000381 0.4553970224
v -0.2033095741 0.09100000381 0.4537992365
v -0.2069249153 0.09100000381 0.4540415842
v -0.2099347305 0.09 0.4560591585
v -0.2069249153 0.09 0.4540415842
v -0.2033095741 0.09 0.4537992365
v -0.2000574112 0.09 0.4553970224
v -0.1980398369 0.09 0.4584068376
v -0.1977974892 0.09 0.4620221788
v -0.1993952751 0.09 0.4652743417
v -0.2024050713 0.09 0.4672919161
v -0.2060204315 0.09 0.4675342638
v -0.2092725945 0.09 0.4659364778
v -0.2112901688 0.09 0.4629266817
v -0.2115325165 0.09 0.4593113214
v -0.2099347305 0.09100000381 0.4560591585
v -0.2099347305 0.09 0.4560591585
v -0.210687542 0.09100000381 0.4554009325
v -0.2075505447 0.09100000381 0.4532052881
v -0.2037525177 0.09100000381 0.4527189714
v -0.200163517 0.09100000381 0.4540533907
v -0.1976057434 0.09100000381 0.4569028551
v -0.1966651726 0.09100000381 0.4606145937
v -0.1975572586 0.09100000381 0.4643382723
v -0.2000776482 0.09100000381 0.4672208482
v -0.2036489487 0.09100000381 0.4686019594
v -0.2074530029 0.09100000381 0.4681652147
v -0.2106183624 0.09100000381 0.4660106737
v -0.2124198914 0.09100000381 0.4626318819
v -0.2124448586 0.09100000381 0.4588029176
v -0.210687542 0.09561499596 0.4554009325
v -0.2124448586 0.09561499596 0.4588029176
v -0.2124198914 0.09561499596 0.4626318819
v -0.2106183624 0.09561499596 0.4660106737
v -0.2074530029 0.09561499596 0.4681652147
v -0.2036489487 0.09561499596 0.4686019594
v -0.2000776482 0.09561499596 0.4672208482
v -0.1975572586 0.09561499596 0.4643382723
v -0.1966651726 0.09561499596 0.4606145937
v -0.1976057434 0.09561499596 0.4569028551
v -0.200163517 0.09561499596 0.4540533907
v -0.2037525177 0.09561499596 0.4527189714
v -0.2075505447 0.09561499596 0.4532052881
v -0.210687542 0.09100000381 0.4554009325
v -0.210687542 0.09561499596 0.4554009325
v -0.2099347305 0.09 0.4560591585
v -0.2115325165 0.09 0.4593113214
v -0.2112901688 0.09 0.4629266817
v -0.2092725945 0.09 0.4659364778
v -0.2060204315 0.09 0.4675342638
v -0.2024050713 0.09 0.4672919161
v -0.1993952751 0.09 0.4652743417
v -0.1977974892 0.09 0.4620221788
v -0.1980398369 0.09 0.4584068376
v -0.2000574112 0.09 0.4553970224
v -0.2033095741 0.09 0.4537992365
v -0.2069249153 0.09 0.4540415842
v -0.210687542 0.09 0.4554009325
v -0.2075505447 0.09 0.4532052881
v -0.2037525177 0.09 0.4527189714
v -0.200163517 0.09 0.4540533907
v -0.1976057434 0.09 0.4569028551
v -0.1966651726 0.09 0.4606145937
v -0.1975572586 0.09 0.4643382723
v -0.2000776482 0.09 0.4672208482
v -0.2036489487 0.09 0.4686019594
v -0.2074530029 0.09 0.4681652147
v -0.2106183624 0.09 0.4660106737
v -0.2124198914 0.09 0.4626318819
v -0.2124448586 0.09 0.4588029176
v -0.210687542 0.09 0.4554009325
v -0.2124448586 0.09 0.4588029176
v -0.2124198914 0.09 0.4626318819
v -0.2106183624 0.09 0.4660106737
v -0.2074530029 0.09 0.4681652147
v -0.2036489487 0.09 0.4686019594
v -0.2000776482 0.09 0.4672208482
v -0.1975572586 0.09 0.4643382723
v -0.1966651726 0.09 0.4606145937
v -0.1976057434 0.09 0.4569028551
v -0.200163517 0.09 0.4540533907
v -0.2037525177 0.09 0.4527189714
v -0.2075505447 0.09 0.4532052881
v -0.210687542 0.08538499832 0.4554009325
v -0.2075505447 0.08538499832 0.4532052881
v -0.2037525177 0.08538499832 0.4527189714
v -0.200163517 0.08538499832 0.4540533907
v -0.1976057434 0.08538499832 0.4569028551
v -0.1966651726 0.08538499832 0.4606145937
v -0.1975572586 0.08538499832 0.4643382723
v -0.2000776482 0.08538499832 0.4672208482
v -0.2036489487 0.08538499832 0.4686019594
v -0.2074530029 0.08538499832 0.4681652147
v -0.2106183624 0.08538499832 0.4660106737
v -0.2124198914 0.08538499832 0.4626318819
v -0.2124448586 0.08538499832 0.4588029176
v -0.210687542 0.09 0.4554009325
v -0.210687542 0.08538499832 0.4554009325
v -0.2099347305 0.09100000381 0.4560591585
v -0.2069249153 0.09100000381 0.4540415842
v -0.2033095741 0.09100000381 0.4537992365
v -0.2000574112 0.09100000381 0.4553970224
v -0.1980398369 0.09100000381 0.4584068376
v -0.1977974892 0.09100000381 0.4620221788
v -0.1993952751 0.09100000381 0.4652743417
v -0.2024050713 0.09100000381 0.4672919161
v -0.2060204315 0.09100000381 0.4675342638
v -0.2092725945 0.09100000381 0.4659364778
v -0.2112901688 0.09100000381 0.4629266817
v -0.2115325165 0.09100000381 0.4593113214
v -0.210687542 0.09100000381 0.4554009325
v -0.2124448586 0.09100000381 0.4588029176
v -0.2124198914 0.09100000381 0.4626318819
v -0.2106183624 0.09100000381 0.4660106737
v -0.2074530029 0.09100000381 0.4681652147
v -0.2036489487 0.09100000381 0.4686019594
v -0.2000776482 0.09100000381 0.4672208482
v -0.1975572586 0.09100000381 0.4643382723
v -0.1966651726 0.09100000381 0.4606145937
v -0.1976057434 0.09100000381 0.4569028551
v -0.200163517 0.09100000381 0.4540533907
v -0.2037525177 0.09100000381 0.4527189714
v -0.2075505447 0.09100000381 0.4532052881
f 2 30 1
f 1 30 32
f 31 15 16
f 30 2 29
f 29 2 3
f 29 3 28
f 28 3 4
f 28 4 27
f 27 4 5
f 27 5 26
f 26 5 6
f 26 6 25
f 25 6 7
f 25 7 24
f 24 7 8
f 24 8 23
f 23 8 22
f 22 8 9
f 22 9 21
f 21 9 10
f 21 10 20
f 20 10 11
f 20 11 19
f 19 11 12
f 19 12 18
f 18 12 13
f 18 13 17
f 17 13 14
f 17 14 16
f 16 14 31
f 48 63 49
f 64 33 34
f 64 34 62
f 62 34 35
f 62 35 61
f 61 35 36
f 61 36 60
f 60 36 37
f 60 37 59
f 59 37 38
f 59 38 58
f 58 38 39
f 58 39 57
f 57 39 40
f 57 40 56
f 56 40 41
f 56 41 42
f 56 42 55
f 55 42 43
f 55 43 54
f 54 43 44
f 54 44 53
f 53 44 45
f 53 45 52
f 52 45 46
f 52 46 51
f 51 46 47
f 51 47 50
f 50 47 48
f 50 48 49
f 66 91 65
f 65 91 78
f 65 78 79
f 91 66 90
f 90 66 67
f 90 67 89
f 89 67 68
f 89 68 88
f 88 68 69
f 88 69 87
f 87 69 70
f 87 70 86
f 86 70 71
f 86 71 85
f 85 71 72
f 85 72 84
f 84 72 73
f 84 73 83
f 83 73 74
f 83 74 82
f 82 74 75
f 82 75 81
f 81 75 76
f 81 76 80
f 80 76 77
f 80 77 79
f 79 77 65
f 93 123 92
f 92 123 124
f 125 108 107
f 107 108 109
f 107 109 106
f 106 109 110
f 106 110 105
f 105 110 111
f 105 111 104
f 104 111 112
f 104 112 103
f 103 112 113
f 103 113 102
f 102 113 114
f 102 114 101
f 101 114 115
f 101 115 100
f 100 115 116
f 100 116 99
f 99 116 117
f 99 117 98
f 98 117 118
f 98 118 97
f 97 118 119
f 97 119 96
f 96 119 120
f 96 120 95
f 95 120 121
f 95 121 94
f 94 121 122
f 94 122 93
f 93 122 123
f 127 152 126
f 126 152 139
f 126 139 140
f 152 127 151
f 151 127 128
f 151 128 150
f 150 128 129
f 150 129 149
f 149 129 130
f 149 130 148
f 148 130 131
f 148 131 147
f 147 131 132
f 147 132 146
f 146 132 133
f 146 133 145
f 145 133 134
f 145 134 144
f 144 134 135
f 144 135 143
f 143 135 136
f 143 136 142
f 142 136 137
f 142 137 141
f 141 137 138
f 141 138 140
f 140 138 126
f 154 176 153
f 153 176 178
f 177 165 164
f 164 165 166
f 164 166 163
f 163 166 167
f 163 167 162
f 162 167 168
f 162 168 161
f 161 168 169
f 161 169 160
f 160 169 170
f 160 170 159
f 159 170 171
f 159 171 158
f 158 171 172
f 158 172 157
f 157 172 173
f 157 173 156
f 156 173 174
f 156 174 155
f 155 174 175
f 155 175 154
f 154 175 176
f 180 204 179
f 179 204 206
f 205 192 191
f 191 192 193
f 191 193 190
f 190 193 194
f 190 194 189
f 189 194 195
f 189 195 188
f 188 195 196
f 188 196 187
f 187 196 197
f 187 197 186
f 186 197 198
f 186 198 185
f 185 198 199
f 185 199 184
f 184 199 200
f 184 200 183
f 183 200 201
f 183 201 182
f 182 201 202
f 182 202 181
f 181 202 203
f 181 203 180
f 180 203 204
f 208 231 207
f 207 231 219
f 207 219 220
f 231 208 230
f 230 208 209
f 230 209 229
f 229 209 210
f 229 210 228
f 228 210 211
f 228 211 227
f 227 211 212
f 227 212 226
f 226 212 213
f 226 213 225
f 225 213 214
f 225 214 224
f 224 214 215
f 224 215 223
f 223 215 216
f 223 216 222
f 222 216 217
f 222 217 221
f 221 217 218
f 221 218 220
f 220 218 207
f 233 257 232
f 232 257 259
f 258 245 244
f 244 245 246
f 244 246 243
f 243 246 247
f 243 247 242
f 242 247 248
f 242 248 241
f 241 248 249
f 241 249 240
f 240 249 250
f 240 250 239
f 239 250 251
f 239 251 238
f 238 251 252
f 238 252 237
f 237 252 253
f 237 253 236
f 236 253 254
f 236 254 235
f 235 254 255
f 235 255 234
f 234 255 256
f 234 256 233
f 233 256 257
f 261 284 260
f 260 284 272
f 260 272 273
f 284 261 283
f 283 261 262
f 283 262 282
f 282 262 263
f 282 263 281
f 281 263 264
f 281 264 280
f 280 264 265
f 280 265 279
f 279 265 266
f 279 266 278
f 278 266 267
f 278 267 277
f 277 267 268
f 277 268 276
f 276 268 269
f 276 269 275
f 275 269 270
f 275 270 274
f 274 270 271
f 274 271 273
f 273 271 260
