v -0.1834827361 -0.003000000119 0.4272349374
v -0.1859218505 -0.003000000119 0.4254628155
v -0.1834827361 -0.003000000119 0.4272349374
v -0.1859218505 -0.003000000119 0.4254628155
v -0.1834827361 -0.003000000119 0.4272349374
v -0.1859218505 -0.003000000119 0.4254628155
v -0.1859218505 -0.003000000119 0.4254628155
v -0.1859218505 -0.003000000119 0.4254628155
v -0.1834827361 -0.003000000119 0.4272349374
v -0.1834827361 -0.003000000119 0.4272349374
v -0.1834827361 -0.003000000119 0.4272349374
v -0.1834827361 -0.003000000119 0.4272349374
v -0.1859218505 -0.003000000119 0.4254628155
v -0.1859218505 -0.003000000119 0.4254628155
v -0.1844664713 -0.003000000119 0.4278377723
v -0.1855883543 -0.003000000119 0.4275684336
v -0.1861911891 -0.003000000119 0.4265846985
v -0.1849381153 -0.003000000119 0.4248599807
v -0.1849381153 -0.003000000119 0.4248599807
v -0.1838162324 -0.003000000119 0.4251293384
v -0.1838162324 -0.003000000119 0.4251293384
v -0.1832133975 -0.003000000119 0.4261130736
v -0.1832133975 -0.003000000119 0.4261130736
v -0.1835266802 -0.003923120499 0.4265442483
v -0.1842592724 -0.004305489659 0.4257390979
v -0.185251379 -0.003923120499 0.4252911744
v -0.185251379 -0.002076879442 0.4252911744
v -0.1842592724 -0.00169451043 0.4257390979
v -0.1835266802 -0.002076879442 0.4265442483
v -0.1841532076 -0.002076879442 0.4274065976
v -0.1851453142 -0.00169451043 0.4269586551
v -0.1858779064 -0.002076879442 0.4261535238
v -0.1858779064 -0.003923120499 0.4261535238
v -0.1851453142 -0.004305489659 0.4269586551
v -0.1841532076 -0.003923120499 0.4274065976
f 33 7 26
f 26 8 18
f 24 9 35
f 35 10 15
f 30 11 29
f 29 12 23
f 27 13 32
f 32 14 17
f 15 16 35
f 35 16 34
f 35 34 24
f 24 34 25
f 24 25 22
f 22 25 20
f 23 21 29
f 29 21 28
f 29 28 30
f 30 28 31
f 30 31 15
f 15 31 16
f 15 3 30
f 16 17 34
f 34 17 33
f 34 33 25
f 25 33 26
f 25 26 20
f 20 26 18
f 21 19 28
f 28 19 27
f 28 27 31
f 31 27 32
f 31 32 16
f 16 32 17
f 17 4 33
f 19 2 27
f 22 1 24
