v 0.2434529495 0.08399999619 0.3790211851
v 0.2428405952 0.08399999619 0.3808339674
v 0.2436894226 0.08399999619 0.3825487978
v 0.245502224 0.08399999619 0.383161152
v 0.2472170448 0.08399999619 0.3823123247
v 0.2478293991 0.08399999619 0.3804995329
v 0.2469805717 0.08399999619 0.3787847025
v 0.2451677895 0.08399999619 0.3781723482
v 0.2434529495 0.07550000191 0.3790211851
v 0.2451677895 0.07550000191 0.3781723482
v 0.2469805717 0.07550000191 0.3787847025
v 0.2478293991 0.07550000191 0.3804995329
v 0.2472170448 0.07550000191 0.3823123247
v 0.245502224 0.07550000191 0.383161152
v 0.2436894226 0.07550000191 0.3825487978
v 0.2428405952 0.07550000191 0.3808339674
v 0.2434529495 0.08399999619 0.3790211851
v 0.2434529495 0.07550000191 0.3790211851
v 0.2488121223 0.07800000191 0.3829169733
v 0.2497064781 0.07800000191 0.3783855898
v 0.2497064781 0.08399999619 0.3783855898
v 0.2488121223 0.08399999619 0.3829169733
v 0.2462293434 0.07800000191 0.3753453619
v 0.241857872 0.07800000191 0.376836527
v 0.241857872 0.08399999619 0.376836527
v 0.2462293434 0.08399999619 0.3753453619
v 0.2409635353 0.07800000191 0.3813679105
v 0.2444406509 0.07800000191 0.3844081384
v 0.2444406509 0.08399999619 0.3844081384
v 0.2409635353 0.08399999619 0.3813679105
v 0.241857872 0.07800000191 0.376836527
v 0.2409635353 0.07800000191 0.3813679105
v 0.2409635353 0.08399999619 0.3813679105
v 0.241857872 0.08399999619 0.376836527
v 0.2497064781 0.07800000191 0.3783855898
v 0.2462293434 0.07800000191 0.3753453619
v 0.2462293434 0.08399999619 0.3753453619
v 0.2497064781 0.08399999619 0.3783855898
v 0.2444406509 0.07800000191 0.3844081384
v 0.2488121223 0.07800000191 0.3829169733
v 0.2488121223 0.08399999619 0.3829169733
v 0.2444406509 0.08399999619 0.3844081384
v 0.2426587296 0.07800000191 0.3775367529
v 0.2417807388 0.07800000191 0.3798044855
v 0.2425658226 0.07800000191 0.3821060259
v 0.2446466446 0.07800000191 0.3833644659
v 0.2470495415 0.07800000191 0.3829909689
v 0.2486502075 0.07800000191 0.3811602956
v 0.2486996269 0.07800000191 0.3787290365
v 0.2471747208 0.07800000191 0.3768348009
v 0.24478899 0.07800000191 0.3763639337
v 0.2488121223 0.07800000191 0.3829169733
v 0.2444406509 0.07800000191 0.3844081384
v 0.2409635353 0.07800000191 0.3813679105
v 0.241857872 0.07800000191 0.376836527
v 0.2462293434 0.07800000191 0.3753453619
v 0.2497064781 0.07800000191 0.3783855898
v 0.2434529495 0.08399999619 0.3790211851
v 0.2451677895 0.08399999619 0.3781723482
v 0.2469805717 0.08399999619 0.3787847025
v 0.2478293991 0.08399999619 0.3804995329
v 0.2472170448 0.08399999619 0.3823123247
v 0.245502224 0.08399999619 0.383161152
v 0.2436894226 0.08399999619 0.3825487978
v 0.2428405952 0.08399999619 0.3808339674
v 0.2444406509 0.08399999619 0.3844081384
v 0.2488121223 0.08399999619 0.3829169733
v 0.2497064781 0.08399999619 0.3783855898
v 0.2462293434 0.08399999619 0.3753453619
v 0.241857872 0.08399999619 0.376836527
v 0.2409635353 0.08399999619 0.3813679105
v 0.2426587296 0.07800000191 0.3775367529
v 0.24478899 0.07800000191 0.3763639337
v 0.2471747208 0.07800000191 0.3768348009
v 0.2486996269 0.07800000191 0.3787290365
v 0.2486502075 0.07800000191 0.3811602956
v 0.2470495415 0.07800000191 0.3829909689
v 0.2446466446 0.07800000191 0.3833644659
v 0.2425658226 0.07800000191 0.3821060259
v 0.2417807388 0.07800000191 0.3798044855
v 0.2426587296 0.07550000191 0.3775367529
v 0.2417807388 0.07550000191 0.3798044855
v 0.2425658226 0.07550000191 0.3821060259
v 0.2446466446 0.07550000191 0.3833644659
v 0.2470495415 0.07550000191 0.3829909689
v 0.2486502075 0.07550000191 0.3811602956
v 0.2486996269 0.07550000191 0.3787290365
v 0.2471747208 0.07550000191 0.3768348009
v 0.24478899 0.07550000191 0.3763639337
v 0.2426587296 0.07550000191 0.3775367529
v 0.2426587296 0.07800000191 0.3775367529
v 0.2434529495 0.07550000191 0.3790211851
v 0.2428405952 0.07550000191 0.3808339674
v 0.2436894226 0.07550000191 0.3825487978
v 0.245502224 0.07550000191 0.383161152
v 0.2472170448 0.07550000191 0.3823123247
v 0.2478293991 0.07550000191 0.3804995329
v 0.2469805717 0.07550000191 0.3787847025
v 0.2451677895 0.07550000191 0.3781723482
v 0.2426587296 0.07550000191 0.3775367529
v 0.24478899 0.07550000191 0.3763639337
v 0.2471747208 0.07550000191 0.3768348009
v 0.2486996269 0.07550000191 0.3787290365
v 0.2486502075 0.07550000191 0.3811602956
v 0.2470495415 0.07550000191 0.3829909689
v 0.2446466446 0.07550000191 0.3833644659
v 0.2425658226 0.07550000191 0.3821060259
v 0.2417807388 0.07550000191 0.3798044855
f 2 16 1
f 1 16 18
f 17 9 8
f 8 9 10
f 8 10 11
f 2 3 16
f 16 3 15
f 15 3 4
f 15 4 14
f 14 4 5
f 14 5 13
f 13 5 6
f 13 6 12
f 12 6 7
f 12 7 11
f 11 7 8
f 19 20 22
f 22 20 21
f 23 24 26
f 26 24 25
f 27 28 30
f 30 28 29
f 31 32 34
f 34 32 33
f 35 36 38
f 38 36 37
f 39 40 42
f 42 40 41
f 51 43 55
f 55 43 44
f 55 44 54
f 54 44 45
f 54 45 53
f 53 45 46
f 53 46 47
f 53 47 52
f 52 47 48
f 52 48 57
f 57 48 49
f 57 49 50
f 57 50 56
f 56 50 51
f 56 51 55
f 65 58 70
f 70 58 59
f 70 59 69
f 69 59 60
f 69 60 68
f 68 60 61
f 68 61 67
f 67 61 62
f 67 62 63
f 67 63 66
f 66 63 64
f 66 64 71
f 71 64 65
f 71 65 70
f 73 89 72
f 72 89 90
f 91 81 80
f 80 81 82
f 80 82 79
f 79 82 83
f 79 83 78
f 78 83 84
f 78 84 77
f 77 84 85
f 77 85 76
f 76 85 86
f 76 86 75
f 75 86 87
f 75 87 74
f 74 87 88
f 74 88 73
f 73 88 89
f 93 108 92
f 92 108 100
f 92 100 99
f 99 100 101
f 99 101 102
f 108 93 107
f 107 93 94
f 107 94 106
f 106 94 95
f 106 95 105
f 105 95 96
f 105 96 104
f 104 96 97
f 104 97 103
f 103 97 98
f 103 98 102
f 102 98 99
