v -0.2275 0.08600000381 0.6279999924
v -0.2267677689 0.08600000381 0.6262322235
v -0.225 0.08600000381 0.6254999924
v -0.2232322311 0.08600000381 0.6262322235
v -0.2225 0.08600000381 0.6279999924
v -0.2232322311 0.08600000381 0.6297677612
v -0.225 0.08600000381 0.6304999924
v -0.2267677689 0.08600000381 0.6297677612
v -0.2275 0.06099999905 0.6279999924
v -0.2267677689 0.06099999905 0.6297677612
v -0.225 0.06099999905 0.6304999924
v -0.2232322311 0.06099999905 0.6297677612
v -0.2225 0.06099999905 0.6279999924
v -0.2232322311 0.06099999905 0.6262322235
v -0.225 0.06099999905 0.6254999924
v -0.2267677689 0.06099999905 0.6262322235
v -0.2275 0.06099999905 0.6279999924
v -0.2275 0.08600000381 0.6279999924
v -0.2275 0.08600000381 0.6279999924
v -0.2267677689 0.08600000381 0.6297677612
v -0.225 0.08600000381 0.6304999924
v -0.2232322311 0.08600000381 0.6297677612
v -0.2225 0.08600000381 0.6279999924
v -0.2232322311 0.08600000381 0.6262322235
v -0.225 0.08600000381 0.6254999924
v -0.2267677689 0.08600000381 0.6262322235
v -0.2292499924 0.06099999905 0.6279999924
v -0.2284383202 0.06099999905 0.630498085
v -0.226313324 0.06099999905 0.6320420074
v -0.223686676 0.06099999905 0.6320420074
v -0.2215616798 0.06099999905 0.630498085
v -0.2207500076 0.06099999905 0.6279999924
v -0.2215616798 0.06099999905 0.6255018997
v -0.223686676 0.06099999905 0.6239580154
v -0.226313324 0.06099999905 0.6239580154
v -0.2284383202 0.06099999905 0.6255018997
v -0.2275 0.06099999905 0.6279999924
v -0.2267677689 0.06099999905 0.6262322235
v -0.225 0.06099999905 0.6254999924
v -0.2232322311 0.06099999905 0.6262322235
v -0.2225 0.06099999905 0.6279999924
v -0.2232322311 0.06099999905 0.6297677612
v -0.225 0.06099999905 0.6304999924
v -0.2267677689 0.06099999905 0.6297677612
v -0.2292499924 0.06099999905 0.6279999924
v -0.2284383202 0.06099999905 0.6255018997
v -0.226313324 0.06099999905 0.6239580154
v -0.223686676 0.06099999905 0.6239580154
v -0.2215616798 0.06099999905 0.6255018997
v -0.2207500076 0.06099999905 0.6279999924
v -0.2215616798 0.06099999905 0.630498085
v -0.223686676 0.06099999905 0.6320420074
v -0.226313324 0.06099999905 0.6320420074
v -0.2284383202 0.06099999905 0.630498085
v -0.2292499924 0.05599999905 0.6279999924
v -0.2284383202 0.05599999905 0.630498085
v -0.226313324 0.05599999905 0.6320420074
v -0.223686676 0.05599999905 0.6320420074
v -0.2215616798 0.05599999905 0.630498085
v -0.2207500076 0.05599999905 0.6279999924
v -0.2215616798 0.05599999905 0.6255018997
v -0.223686676 0.05599999905 0.6239580154
v -0.226313324 0.05599999905 0.6239580154
v -0.2284383202 0.05599999905 0.6255018997
v -0.2292499924 0.05599999905 0.6279999924
v -0.2292499924 0.06099999905 0.6279999924
v -0.2292499924 0.05599999905 0.6279999924
v -0.2284383202 0.05599999905 0.6255018997
v -0.226313324 0.05599999905 0.6239580154
v -0.223686676 0.05599999905 0.6239580154
v -0.2215616798 0.05599999905 0.6255018997
v -0.2207500076 0.05599999905 0.6279999924
v -0.2215616798 0.05599999905 0.630498085
v -0.223686676 0.05599999905 0.6320420074
v -0.226313324 0.05599999905 0.6320420074
v -0.2284383202 0.05599999905 0.630498085
f 2 16 1
f 1 16 17
f 18 9 8
f 8 9 10
f 8 10 11
f 2 3 16
f 16 3 15
f 15 3 4
f 15 4 14
f 14 4 5
f 14 5 13
f 13 5 6
f 13 6 12
f 12 6 7
f 12 7 11
f 11 7 8
f 20 22 19
f 19 22 23
f 19 23 26
f 26 23 24
f 26 24 25
f 20 21 22
f 36 27 37
f 37 27 28
f 37 28 44
f 44 28 29
f 44 29 43
f 43 29 30
f 43 30 42
f 42 30 31
f 42 31 41
f 41 31 32
f 41 32 33
f 41 33 40
f 40 33 34
f 40 34 39
f 39 34 35
f 39 35 38
f 38 35 36
f 38 36 37
f 46 64 45
f 45 64 65
f 66 55 54
f 54 55 56
f 54 56 53
f 53 56 57
f 53 57 52
f 52 57 58
f 52 58 51
f 51 58 59
f 51 59 50
f 50 59 60
f 50 60 49
f 49 60 61
f 49 61 48
f 48 61 62
f 48 62 47
f 47 62 63
f 47 63 46
f 46 63 64
f 68 71 67
f 67 71 72
f 67 72 76
f 76 72 73
f 76 73 75
f 75 73 74
f 69 70 68
f 68 70 71
