v 0.2064999962 -0.2010000038 0.02713397503
v 0.205 -0.2010000038 0.02626794815
v 0.2035000038 -0.2010000038 0.02713397503
v 0.2035000038 -0.2010000038 0.0288660264
v 0.205 -0.2010000038 0.0297320509
v 0.2064999962 -0.2010000038 0.0288660264
v 0.2035000038 -0.2 0.02713397503
v 0.2035000038 -0.2 0.0288660264
v 0.2035000038 -0.2010000038 0.0288660264
v 0.2035000038 -0.2010000038 0.02713397503
v 0.205 -0.2 0.02626794815
v 0.2035000038 -0.2 0.02713397503
v 0.2035000038 -0.2010000038 0.02713397503
v 0.205 -0.2010000038 0.02626794815
v 0.205 -0.2 0.0297320509
v 0.2064999962 -0.2 0.0288660264
v 0.2064999962 -0.2010000038 0.0288660264
v 0.205 -0.2010000038 0.0297320509
v 0.2064999962 -0.2 0.0288660264
v 0.2064999962 -0.2 0.02713397503
v 0.2064999962 -0.2010000038 0.02713397503
v 0.2064999962 -0.2010000038 0.0288660264
v 0.2035000038 -0.2 0.0288660264
v 0.205 -0.2 0.0297320509
v 0.205 -0.2010000038 0.0297320509
v 0.2035000038 -0.2010000038 0.0288660264
v 0.2035000038 -0.2 0.02713397503
v 0.205 -0.2 0.02626794815
v 0.2064999962 -0.2 0.02713397503
v 0.2064999962 -0.2 0.0288660264
v 0.205 -0.2 0.0297320509
v 0.2035000038 -0.2 0.0288660264
v 0.205 -0.2 0.0325
v 0.2076450348 -0.2 0.03164057732
v 0.209279747 -0.2 0.02939057589
v 0.209279747 -0.2 0.02660942316
v 0.2076450348 -0.2 0.02435942411
v 0.205 -0.2 0.02349999905
v 0.2023549652 -0.2 0.02435942411
v 0.200720253 -0.2 0.02660942316
v 0.200720253 -0.2 0.02939057589
v 0.2023549652 -0.2 0.03164057732
v 0.205 -0.2095000076 0.03049999952
v 0.2032322311 -0.2095000076 0.029767766
v 0.2025 -0.2095000076 0.02799999952
v 0.2032322311 -0.2095000076 0.02623223305
v 0.205 -0.2095000076 0.02549999952
v 0.2067677689 -0.2095000076 0.02623223305
v 0.2075 -0.2095000076 0.02799999952
v 0.2067677689 -0.2095000076 0.029767766
v 0.205 -0.2095000076 0.03049999952
v 0.2067677689 -0.2095000076 0.029767766
v 0.2075 -0.2095000076 0.02799999952
v 0.2067677689 -0.2095000076 0.02623223305
v 0.205 -0.2095000076 0.02549999952
v 0.2032322311 -0.2095000076 0.02623223305
v 0.2025 -0.2095000076 0.02799999952
v 0.2032322311 -0.2095000076 0.029767766
v 0.205 -0.2014999962 0.03049999952
v 0.2032322311 -0.2014999962 0.029767766
v 0.2025 -0.2014999962 0.02799999952
v 0.2032322311 -0.2014999962 0.02623223305
v 0.205 -0.2014999962 0.02549999952
v 0.2067677689 -0.2014999962 0.02623223305
v 0.2075 -0.2014999962 0.02799999952
v 0.2067677689 -0.2014999962 0.029767766
v 0.205 -0.2014999962 0.03049999952
v 0.205 -0.2095000076 0.03049999952
v 0.205 -0.2014999962 0.0325
v 0.2023549652 -0.2014999962 0.03164057732
v 0.200720253 -0.2014999962 0.02939057589
v 0.200720253 -0.2014999962 0.02660942316
v 0.2023549652 -0.2014999962 0.02435942411
v 0.205 -0.2014999962 0.02349999905
v 0.2076450348 -0.2014999962 0.02435942411
v 0.209279747 -0.2014999962 0.02660942316
v 0.209279747 -0.2014999962 0.02939057589
v 0.2076450348 -0.2014999962 0.03164057732
v 0.205 -0.2014999962 0.03049999952
v 0.2067677689 -0.2014999962 0.029767766
v 0.2075 -0.2014999962 0.02799999952
v 0.2067677689 -0.2014999962 0.02623223305
v 0.205 -0.2014999962 0.02549999952
v 0.2032322311 -0.2014999962 0.02623223305
v 0.2025 -0.2014999962 0.02799999952
v 0.2032322311 -0.2014999962 0.029767766
v 0.205 -0.2 0.0325
v 0.2023549652 -0.2 0.03164057732
v 0.200720253 -0.2 0.02939057589
v 0.200720253 -0.2 0.02660942316
v 0.2023549652 -0.2 0.02435942411
v 0.205 -0.2 0.02349999905
v 0.2076450348 -0.2 0.02435942411
v 0.209279747 -0.2 0.02660942316
v 0.209279747 -0.2 0.02939057589
v 0.2076450348 -0.2 0.03164057732
v 0.205 -0.2014999962 0.0325
v 0.2076450348 -0.2014999962 0.03164057732
v 0.209279747 -0.2014999962 0.02939057589
v 0.209279747 -0.2014999962 0.02660942316
v 0.2076450348 -0.2014999962 0.02435942411
v 0.205 -0.2014999962 0.02349999905
v 0.2023549652 -0.2014999962 0.02435942411
v 0.200720253 -0.2014999962 0.02660942316
v 0.200720253 -0.2014999962 0.02939057589
v 0.2023549652 -0.2014999962 0.03164057732
v 0.205 -0.2014999962 0.0325
v 0.205 -0.2 0.0325
v 0.2064999962 -0.2 0.02713397503
v 0.205 -0.2 0.02626794815
v 0.205 -0.2010000038 0.02626794815
v 0.2064999962 -0.2010000038 0.02713397503
f 6 1 5
f 5 1 2
f 5 2 4
f 4 2 3
f 7 8 10
f 10 8 9
f 11 12 14
f 14 12 13
f 15 16 18
f 18 16 17
f 19 20 22
f 22 20 21
f 23 24 26
f 26 24 25
f 28 39 27
f 27 39 40
f 27 40 41
f 29 37 28
f 28 37 38
f 28 38 39
f 37 29 36
f 36 29 30
f 36 30 35
f 35 30 34
f 34 30 31
f 34 31 33
f 33 31 42
f 42 31 32
f 42 32 41
f 41 32 27
f 44 46 43
f 43 46 47
f 43 47 50
f 50 47 48
f 50 48 49
f 44 45 46
f 52 66 51
f 51 66 67
f 68 59 58
f 58 59 60
f 58 60 61
f 52 53 66
f 66 53 65
f 65 53 54
f 65 54 64
f 64 54 55
f 64 55 63
f 63 55 56
f 63 56 62
f 62 56 57
f 62 57 61
f 61 57 58
f 78 69 79
f 79 69 70
f 79 70 86
f 86 70 71
f 86 71 85
f 85 71 72
f 85 72 84
f 84 72 73
f 84 73 83
f 83 73 74
f 83 74 75
f 83 75 82
f 82 75 76
f 82 76 81
f 81 76 77
f 81 77 80
f 80 77 78
f 80 78 79
f 88 106 87
f 87 106 107
f 108 97 96
f 96 97 98
f 96 98 95
f 95 98 99
f 95 99 94
f 94 99 100
f 94 100 93
f 93 100 101
f 93 101 92
f 92 101 102
f 92 102 91
f 91 102 103
f 91 103 90
f 90 103 104
f 90 104 89
f 89 104 105
f 89 105 88
f 88 105 106
f 109 110 112
f 112 110 111
