v 0.2434529495 0.09 0.4590211755
v 0.2428405952 0.09 0.4608339578
v 0.2436894226 0.09 0.4625487978
v 0.245502224 0.09 0.463161152
v 0.2472170448 0.09 0.4623123247
v 0.2478293991 0.09 0.4604995424
v 0.2469805717 0.09 0.4587847025
v 0.2451677895 0.09 0.4581723482
v 0.2434529495 0.085 0.4590211755
v 0.2451677895 0.085 0.4581723482
v 0.2469805717 0.085 0.4587847025
v 0.2478293991 0.085 0.4604995424
v 0.2472170448 0.085 0.4623123247
v 0.245502224 0.085 0.463161152
v 0.2436894226 0.085 0.4625487978
v 0.2428405952 0.085 0.4608339578
v 0.2434529495 0.09 0.4590211755
v 0.2434529495 0.085 0.4590211755
v 0.2434529495 0.085 0.4590211755
v 0.2428405952 0.085 0.4608339578
v 0.2436894226 0.085 0.4625487978
v 0.245502224 0.085 0.463161152
v 0.2472170448 0.085 0.4623123247
v 0.2478293991 0.085 0.4604995424
v 0.2469805717 0.085 0.4587847025
v 0.2451677895 0.085 0.4581723482
v 0.239312458 0.085 0.4554009325
v 0.2424494553 0.085 0.4532052881
v 0.2462474823 0.085 0.4527189714
v 0.249836483 0.085 0.4540533907
v 0.2523942566 0.085 0.4569028551
v 0.2533348274 0.085 0.4606145937
v 0.2524427414 0.085 0.4643382723
v 0.2499223518 0.085 0.4672208482
v 0.2463510513 0.085 0.4686019594
v 0.2425469971 0.085 0.4681652147
v 0.2393816376 0.085 0.4660106737
v 0.2375801086 0.085 0.4626318819
v 0.2375551414 0.085 0.4588029176
v 0.239312458 0.09 0.4554009325
v 0.2424494553 0.09 0.4532052881
v 0.2462474823 0.09 0.4527189714
v 0.249836483 0.09 0.4540533907
v 0.2523942566 0.09 0.4569028551
v 0.2533348274 0.09 0.4606145937
v 0.2524427414 0.09 0.4643382723
v 0.2499223518 0.09 0.4672208482
v 0.2463510513 0.09 0.4686019594
v 0.2425469971 0.09 0.4681652147
v 0.2393816376 0.09 0.4660106737
v 0.2375801086 0.09 0.4626318819
v 0.2375551414 0.09 0.4588029176
v 0.239312458 0.085 0.4554009325
v 0.2375551414 0.085 0.4588029176
v 0.2375801086 0.085 0.4626318819
v 0.2393816376 0.085 0.4660106737
v 0.2425469971 0.085 0.4681652147
v 0.2463510513 0.085 0.4686019594
v 0.2499223518 0.085 0.4672208482
v 0.2524427414 0.085 0.4643382723
v 0.2533348274 0.085 0.4606145937
v 0.2523942566 0.085 0.4569028551
v 0.249836483 0.085 0.4540533907
v 0.2462474823 0.085 0.4527189714
v 0.2424494553 0.085 0.4532052881
v 0.239312458 0.085 0.4554009325
v 0.239312458 0.09 0.4554009325
v 0.2434529495 0.09 0.4590211755
v 0.2451677895 0.09 0.4581723482
v 0.2469805717 0.09 0.4587847025
v 0.2478293991 0.09 0.4604995424
v 0.2472170448 0.09 0.4623123247
v 0.245502224 0.09 0.463161152
v 0.2436894226 0.09 0.4625487978
v 0.2428405952 0.09 0.4608339578
v 0.239312458 0.09 0.4554009325
v 0.2375551414 0.09 0.4588029176
v 0.2375801086 0.09 0.4626318819
v 0.2393816376 0.09 0.4660106737
v 0.2425469971 0.09 0.4681652147
v 0.2463510513 0.09 0.4686019594
v 0.2499223518 0.09 0.4672208482
v 0.2524427414 0.09 0.4643382723
v 0.2533348274 0.09 0.4606145937
v 0.2523942566 0.09 0.4569028551
v 0.249836483 0.09 0.4540533907
v 0.2462474823 0.09 0.4527189714
v 0.2424494553 0.09 0.4532052881
f 2 16 1
f 1 16 18
f 17 9 8
f 8 9 10
f 8 10 11
f 2 3 16
f 16 3 15
f 15 3 4
f 15 4 14
f 14 4 5
f 14 5 13
f 13 5 6
f 13 6 12
f 12 6 7
f 12 7 11
f 11 7 8
f 20 39 19
f 19 39 27
f 19 27 28
f 39 20 38
f 38 20 21
f 38 21 37
f 37 21 36
f 36 21 22
f 36 22 35
f 35 22 34
f 34 22 23
f 34 23 33
f 33 23 24
f 33 24 32
f 32 24 31
f 31 24 25
f 31 25 30
f 30 25 29
f 29 25 26
f 29 26 28
f 28 26 19
f 41 65 40
f 40 65 66
f 67 53 52
f 52 53 54
f 52 54 51
f 51 54 55
f 51 55 50
f 50 55 56
f 50 56 49
f 49 56 57
f 49 57 48
f 48 57 58
f 48 58 47
f 47 58 59
f 47 59 46
f 46 59 60
f 46 60 45
f 45 60 61
f 45 61 44
f 44 61 62
f 44 62 43
f 43 62 63
f 43 63 42
f 42 63 64
f 42 64 41
f 41 64 65
f 69 88 68
f 68 88 76
f 68 76 77
f 88 69 87
f 87 69 70
f 87 70 86
f 86 70 85
f 85 70 71
f 85 71 84
f 84 71 83
f 83 71 72
f 83 72 82
f 82 72 73
f 82 73 81
f 81 73 80
f 80 73 74
f 80 74 79
f 79 74 78
f 78 74 75
f 78 75 77
f 77 75 68
