v 0.2225 0.08600000381 0.06941813946
v 0.2232322311 0.08600000381 0.06765037537
v 0.225 0.08600000381 0.06691813946
v 0.2267677689 0.08600000381 0.06765037537
v 0.2275 0.08600000381 0.06941813946
v 0.2267677689 0.08600000381 0.07118590832
v 0.225 0.08600000381 0.07191813946
v 0.2232322311 0.08600000381 0.07118590832
v 0.2225 0.06099999905 0.06941813946
v 0.2232322311 0.06099999905 0.07118590832
v 0.225 0.06099999905 0.07191813946
v 0.2267677689 0.06099999905 0.07118590832
v 0.2275 0.06099999905 0.06941813946
v 0.2267677689 0.06099999905 0.06765037537
v 0.225 0.06099999905 0.06691813946
v 0.2232322311 0.06099999905 0.06765037537
v 0.2225 0.06099999905 0.06941813946
v 0.2225 0.08600000381 0.06941813946
v 0.2207500076 0.05599999905 0.06941813946
v 0.2215616798 0.05599999905 0.06692005634
v 0.223686676 0.05599999905 0.06537615299
v 0.226313324 0.05599999905 0.06537615299
v 0.2284383202 0.05599999905 0.06692005634
v 0.2292499924 0.05599999905 0.06941813946
v 0.2284383202 0.05599999905 0.07191622734
v 0.226313324 0.05599999905 0.07346013069
v 0.223686676 0.05599999905 0.07346013069
v 0.2215616798 0.05599999905 0.07191622734
v 0.2207500076 0.06099999905 0.06941813946
v 0.2215616798 0.06099999905 0.06692005634
v 0.223686676 0.06099999905 0.06537615299
v 0.226313324 0.06099999905 0.06537615299
v 0.2284383202 0.06099999905 0.06692005634
v 0.2292499924 0.06099999905 0.06941813946
v 0.2284383202 0.06099999905 0.07191622734
v 0.226313324 0.06099999905 0.07346013069
v 0.223686676 0.06099999905 0.07346013069
v 0.2215616798 0.06099999905 0.07191622734
v 0.2207500076 0.05599999905 0.06941813946
v 0.2215616798 0.05599999905 0.07191622734
v 0.223686676 0.05599999905 0.07346013069
v 0.226313324 0.05599999905 0.07346013069
v 0.2284383202 0.05599999905 0.07191622734
v 0.2292499924 0.05599999905 0.06941813946
v 0.2284383202 0.05599999905 0.06692005634
v 0.226313324 0.05599999905 0.06537615299
v 0.223686676 0.05599999905 0.06537615299
v 0.2215616798 0.05599999905 0.06692005634
v 0.2207500076 0.05599999905 0.06941813946
v 0.2207500076 0.06099999905 0.06941813946
v 0.2207500076 0.06099999905 0.06941813946
v 0.2215616798 0.06099999905 0.07191622734
v 0.223686676 0.06099999905 0.07346013069
v 0.226313324 0.06099999905 0.07346013069
v 0.2284383202 0.06099999905 0.07191622734
v 0.2292499924 0.06099999905 0.06941813946
v 0.2284383202 0.06099999905 0.06692005634
v 0.226313324 0.06099999905 0.06537615299
v 0.223686676 0.06099999905 0.06537615299
v 0.2215616798 0.06099999905 0.06692005634
v 0.2225 0.06099999905 0.06941813946
v 0.2232322311 0.06099999905 0.06765037537
v 0.225 0.06099999905 0.06691813946
v 0.2267677689 0.06099999905 0.06765037537
v 0.2275 0.06099999905 0.06941813946
v 0.2267677689 0.06099999905 0.07118590832
v 0.225 0.06099999905 0.07191813946
v 0.2232322311 0.06099999905 0.07118590832
v 0.2225 0.08600000381 0.06941813946
v 0.2232322311 0.08600000381 0.07118590832
v 0.225 0.08600000381 0.07191813946
v 0.2267677689 0.08600000381 0.07118590832
v 0.2275 0.08600000381 0.06941813946
v 0.2267677689 0.08600000381 0.06765037537
v 0.225 0.08600000381 0.06691813946
v 0.2232322311 0.08600000381 0.06765037537
f 2 16 1
f 1 16 17
f 18 9 8
f 8 9 10
f 8 10 11
f 2 3 16
f 16 3 15
f 15 3 4
f 15 4 14
f 14 4 5
f 14 5 13
f 13 5 6
f 13 6 12
f 12 6 7
f 12 7 11
f 11 7 8
f 20 23 19
f 19 23 24
f 19 24 28
f 28 24 25
f 28 25 27
f 27 25 26
f 21 22 20
f 20 22 23
f 30 48 29
f 29 48 49
f 50 39 38
f 38 39 40
f 38 40 37
f 37 40 41
f 37 41 36
f 36 41 42
f 36 42 35
f 35 42 43
f 35 43 34
f 34 43 44
f 34 44 33
f 33 44 45
f 33 45 32
f 32 45 46
f 32 46 31
f 31 46 47
f 31 47 30
f 30 47 48
f 60 51 61
f 61 51 52
f 61 52 68
f 68 52 53
f 68 53 67
f 67 53 54
f 67 54 66
f 66 54 55
f 66 55 65
f 65 55 56
f 65 56 57
f 65 57 64
f 64 57 58
f 64 58 63
f 63 58 59
f 63 59 62
f 62 59 60
f 62 60 61
f 70 72 69
f 69 72 73
f 69 73 76
f 76 73 74
f 76 74 75
f 70 71 72
