v 0.2114999962 0.0868999958 0.605
v 0.2114999962 0.08774224281 0.6026859665
v 0.2114999962 0.08987486839 0.6014546967
v 0.2114999962 0.09229999542 0.6018823242
v 0.2114999962 0.09388289452 0.6037687302
v 0.2114999962 0.09388289452 0.6062312698
v 0.2114999962 0.09229999542 0.6081176758
v 0.2114999962 0.08987486839 0.6085453033
v 0.2114999962 0.08774224281 0.6073140335
v 0.2114999962 0.085 0.605
v 0.2114999962 0.08587310791 0.6079735184
v 0.2114999962 0.08821521759 0.6100029755
v 0.2114999962 0.0912827301 0.6104440308
v 0.2114999962 0.09410173416 0.6091566086
v 0.2114999962 0.09577721596 0.60654953
v 0.2114999962 0.09577721596 0.60345047
v 0.2114999962 0.09410173416 0.6008433914
v 0.2114999962 0.0912827301 0.5995559692
v 0.2114999962 0.08821521759 0.5999970245
v 0.2114999962 0.08587310791 0.6020264816
v 0.205 0.085 0.605
v 0.2071047592 0.08541866302 0.6071047592
v 0.2088890839 0.08661090851 0.6088890839
v 0.2100813293 0.08839524269 0.6100813293
v 0.2104999924 0.09050000191 0.6104999924
v 0.2100813293 0.09260476112 0.6100813293
v 0.2088890839 0.09438908577 0.6088890839
v 0.2071047592 0.09558134079 0.6071047592
v 0.205 0.09600000381 0.605
v 0.2071047592 0.09558134079 0.6028952408
v 0.2088890839 0.09438908577 0.6011109161
v 0.2100813293 0.09260476112 0.5999186707
v 0.2104999924 0.09050000191 0.5995000076
v 0.2100813293 0.08839524269 0.5999186707
v 0.2088890839 0.08661090851 0.6011109161
v 0.2071047592 0.08541866302 0.6028952408
v 0.2114999962 0.085 0.605
v 0.2114999962 0.08587310791 0.6020264816
v 0.2114999962 0.08821521759 0.5999970245
v 0.2114999962 0.0912827301 0.5995559692
v 0.2114999962 0.09410173416 0.6008433914
v 0.2114999962 0.09577721596 0.60345047
v 0.2114999962 0.09577721596 0.60654953
v 0.2114999962 0.09410173416 0.6091566086
v 0.2114999962 0.0912827301 0.6104440308
v 0.2114999962 0.08821521759 0.6100029755
v 0.2114999962 0.08587310791 0.6079735184
v 0.205 0.085 0.605
v 0.2114999962 0.085 0.605
v 0.2086000061 0.09050000191 0.6115000153
v 0.2077577591 0.0881859684 0.6115000153
v 0.2056251335 0.08695468903 0.6115000153
v 0.2031999969 0.08738230705 0.6115000153
v 0.2016171074 0.08926873207 0.6115000153
v 0.2016171074 0.09173127174 0.6115000153
v 0.2031999969 0.09361768723 0.6115000153
v 0.2056251335 0.09404530525 0.6115000153
v 0.2077577591 0.09281403542 0.6115000153
v 0.2086000061 0.09050000191 0.615
v 0.2077577591 0.09281403542 0.615
v 0.2056251335 0.09404530525 0.615
v 0.2031999969 0.09361768723 0.615
v 0.2016171074 0.09173127174 0.615
v 0.2016171074 0.08926873207 0.615
v 0.2031999969 0.08738230705 0.615
v 0.2056251335 0.08695468903 0.615
v 0.2077577591 0.0881859684 0.615
v 0.2086000061 0.09050000191 0.6115000153
v 0.2086000061 0.09050000191 0.615
v 0.205 0.085 0.605
v 0.2071047592 0.08541866302 0.6028952408
v 0.2088890839 0.08661090851 0.6011109161
v 0.2100813293 0.08839524269 0.5999186707
v 0.2104999924 0.09050000191 0.5995000076
v 0.2100813293 0.09260476112 0.5999186707
v 0.2088890839 0.09438908577 0.6011109161
v 0.2071047592 0.09558134079 0.6028952408
v 0.205 0.09600000381 0.605
v 0.2045000076 0.09597723007 0.6045000076
v 0.2067531967 0.0957130909 0.6022468185
v 0.2087080956 0.09456201553 0.6002919006
v 0.2100321198 0.09271985054 0.5989678574
v 0.2104999924 0.09050000191 0.5984999847
v 0.2100321198 0.08828015327 0.5989678574
v 0.2087080956 0.08643797874 0.6002919006
v 0.2067531967 0.08528691292 0.6022468185
v 0.2045000076 0.08502277374 0.6045000076
v 0.2114999962 0.0868999958 0.605
v 0.2114999962 0.08774224281 0.6073140335
v 0.2114999962 0.08987486839 0.6085453033
v 0.2114999962 0.09229999542 0.6081176758
v 0.2114999962 0.09388289452 0.6062312698
v 0.2114999962 0.09388289452 0.6037687302
v 0.2114999962 0.09229999542 0.6018823242
v 0.2114999962 0.08987486839 0.6014546967
v 0.2114999962 0.08774224281 0.6026859665
v 0.215 0.0868999958 0.605
v 0.215 0.08774224281 0.6026859665
v 0.215 0.08987486839 0.6014546967
v 0.215 0.09229999542 0.6018823242
v 0.215 0.09388289452 0.6037687302
v 0.215 0.09388289452 0.6062312698
v 0.215 0.09229999542 0.6081176758
v 0.215 0.08987486839 0.6085453033
v 0.215 0.08774224281 0.6073140335
v 0.2114999962 0.0868999958 0.605
v 0.215 0.0868999958 0.605
v 0.2086000061 0.09050000191 0.6115000153
v 0.2077577591 0.09281403542 0.6115000153
v 0.2056251335 0.09404530525 0.6115000153
v 0.2031999969 0.09361768723 0.6115000153
v 0.2016171074 0.09173127174 0.6115000153
v 0.2016171074 0.08926873207 0.6115000153
v 0.2031999969 0.08738230705 0.6115000153
v 0.2056251335 0.08695468903 0.6115000153
v 0.2077577591 0.0881859684 0.6115000153
v 0.2104999924 0.09050000191 0.6115000153
v 0.2096269035 0.087526474 0.6115000153
v 0.2072847748 0.08549702644 0.6115000153
v 0.2042172623 0.08505598068 0.6115000153
v 0.2013982582 0.08634337425 0.6115000153
v 0.1997227859 0.08895047188 0.6115000153
v 0.1997227859 0.09204953194 0.6115000153
v 0.2013982582 0.09465662003 0.6115000153
v 0.2042172623 0.0959440136 0.6115000153
v 0.2072847748 0.09550297737 0.6115000153
v 0.2096269035 0.09347352028 0.6115000153
v 0.205 0.09600000381 0.605
v 0.2071047592 0.09558134079 0.6071047592
v 0.2088890839 0.09438908577 0.6088890839
v 0.2100813293 0.09260476112 0.6100813293
v 0.2104999924 0.09050000191 0.6104999924
v 0.2100813293 0.08839524269 0.6100813293
v 0.2088890839 0.08661090851 0.6088890839
v 0.2071047592 0.08541866302 0.6071047592
v 0.205 0.085 0.605
v 0.2028952408 0.08541866302 0.6071047592
v 0.2011109161 0.08661090851 0.6088890839
v 0.1999186707 0.08839524269 0.6100813293
v 0.1995000076 0.09050000191 0.6104999924
v 0.1999186707 0.09260476112 0.6100813293
v 0.2011109161 0.09438908577 0.6088890839
v 0.2028952408 0.09558134079 0.6071047592
v 0.2104999924 0.09050000191 0.6115000153
v 0.2096269035 0.09347352028 0.6115000153
v 0.2072847748 0.09550297737 0.6115000153
v 0.2042172623 0.0959440136 0.6115000153
v 0.2013982582 0.09465662003 0.6115000153
v 0.1997227859 0.09204953194 0.6115000153
v 0.1997227859 0.08895047188 0.6115000153
v 0.2013982582 0.08634337425 0.6115000153
v 0.2042172623 0.08505598068 0.6115000153
v 0.2072847748 0.08549702644 0.6115000153
v 0.2096269035 0.087526474 0.6115000153
v 0.2104999924 0.09050000191 0.6104999924
v 0.2104999924 0.09050000191 0.6115000153
v 0.2045000076 0.09597723007 0.6045000076
v 0.205 0.09600000381 0.605
v 0.2028952408 0.09558134079 0.6071047592
v 0.2011109161 0.09438908577 0.6088890839
v 0.1999186707 0.09260476112 0.6100813293
v 0.1995000076 0.09050000191 0.6104999924
v 0.1999186707 0.08839524269 0.6100813293
v 0.2011109161 0.08661090851 0.6088890839
v 0.2028952408 0.08541866302 0.6071047592
v 0.205 0.085 0.605
v 0.2045000076 0.08502277374 0.6045000076
v 0.2022468185 0.08528691292 0.6067531967
v 0.2002919006 0.08643797874 0.6087081146
v 0.1989678764 0.08828015327 0.6100321198
v 0.1985000038 0.09050000191 0.6104999924
v 0.1989678764 0.09271985054 0.6100321198
v 0.2002919006 0.09456201553 0.6087081146
v 0.2022468185 0.0957130909 0.6067531967
v 0.2139999962 0.1005000019 0.595
v 0.215 0.1005000019 0.595
v 0.215 0.08050000191 0.595
v 0.2139999962 0.08050000191 0.595
v 0.195 0.1005000019 0.615
v 0.195 0.1005000019 0.6140000153
v 0.195 0.08050000191 0.6140000153
v 0.195 0.08050000191 0.615
v 0.2086000061 0.09050000191 0.615
v 0.2077577591 0.0881859684 0.615
v 0.2056251335 0.08695468903 0.615
v 0.2031999969 0.08738230705 0.615
v 0.2016171074 0.08926873207 0.615
v 0.2016171074 0.09173127174 0.615
v 0.2031999969 0.09361768723 0.615
v 0.2056251335 0.09404530525 0.615
v 0.2077577591 0.09281403542 0.615
v 0.215 0.1005000019 0.615
v 0.195 0.1005000019 0.615
v 0.195 0.08050000191 0.615
v 0.215 0.08050000191 0.615
v 0.215 0.0868999958 0.605
v 0.215 0.08774224281 0.6073140335
v 0.215 0.08987486839 0.6085453033
v 0.215 0.09229999542 0.6081176758
v 0.215 0.09388289452 0.6062312698
v 0.215 0.09388289452 0.6037687302
v 0.215 0.09229999542 0.6018823242
v 0.215 0.08987486839 0.6014546967
v 0.215 0.08774224281 0.6026859665
v 0.215 0.1005000019 0.595
v 0.215 0.1005000019 0.615
v 0.215 0.08050000191 0.615
v 0.215 0.08050000191 0.595
v 0.2045000076 0.08502277374 0.6045000076
v 0.2067531967 0.08528691292 0.6022468185
v 0.2087080956 0.08643797874 0.6002919006
v 0.2100321198 0.08828015327 0.5989678574
v 0.2104999924 0.09050000191 0.5984999847
v 0.2100321198 0.09271985054 0.5989678574
v 0.2087080956 0.09456201553 0.6002919006
v 0.2067531967 0.0957130909 0.6022468185
v 0.2045000076 0.09597723007 0.6045000076
v 0.2022468185 0.0957130909 0.6067531967
v 0.2002919006 0.09456201553 0.6087081146
v 0.1989678764 0.09271985054 0.6100321198
v 0.1985000038 0.09050000191 0.6104999924
v 0.1989678764 0.08828015327 0.6100321198
v 0.2002919006 0.08643797874 0.6087081146
v 0.2022468185 0.08528691292 0.6067531967
v 0.195 0.1005000019 0.6140000153
v 0.2139999962 0.1005000019 0.595
v 0.2139999962 0.08050000191 0.595
v 0.195 0.08050000191 0.6140000153
v 0.215 0.08050000191 0.595
v 0.215 0.08050000191 0.615
v 0.195 0.08050000191 0.615
v 0.195 0.08050000191 0.6140000153
v 0.2139999962 0.08050000191 0.595
v 0.215 0.1005000019 0.615
v 0.215 0.1005000019 0.595
v 0.2139999962 0.1005000019 0.595
v 0.195 0.1005000019 0.6140000153
v 0.195 0.1005000019 0.615
f 2 20 1
f 1 20 10
f 1 10 11
f 20 2 19
f 19 2 3
f 19 3 18
f 18 3 4
f 18 4 17
f 17 4 5
f 17 5 16
f 16 5 15
f 15 5 6
f 15 6 14
f 14 6 7
f 14 7 13
f 13 7 8
f 13 8 12
f 12 8 9
f 12 9 11
f 11 9 1
f 36 48 37
f 49 21 22
f 49 22 47
f 47 22 23
f 47 23 46
f 46 23 24
f 46 24 25
f 46 25 45
f 45 25 26
f 45 26 44
f 44 26 27
f 44 27 28
f 44 28 43
f 43 28 29
f 43 29 42
f 42 29 30
f 42 30 31
f 42 31 41
f 41 31 32
f 41 32 40
f 40 32 33
f 40 33 39
f 39 33 34
f 39 34 35
f 39 35 38
f 38 35 36
f 38 36 37
f 51 67 50
f 50 67 69
f 68 59 58
f 58 59 60
f 58 60 57
f 57 60 61
f 57 61 56
f 56 61 62
f 56 62 55
f 55 62 63
f 55 63 54
f 54 63 64
f 54 64 53
f 53 64 65
f 53 65 52
f 52 65 66
f 52 66 51
f 51 66 67
f 87 70 86
f 86 70 71
f 86 71 85
f 85 71 72
f 85 72 84
f 84 72 73
f 84 73 83
f 83 73 74
f 83 74 75
f 83 75 82
f 82 75 76
f 82 76 81
f 81 76 77
f 81 77 80
f 80 77 78
f 80 78 79
f 89 105 88
f 88 105 107
f 106 97 96
f 96 97 98
f 96 98 95
f 95 98 99
f 95 99 94
f 94 99 100
f 94 100 93
f 93 100 101
f 93 101 92
f 92 101 102
f 92 102 91
f 91 102 103
f 91 103 90
f 90 103 104
f 90 104 89
f 89 104 105
f 109 127 108
f 108 127 117
f 108 117 118
f 127 109 126
f 126 109 110
f 126 110 125
f 125 110 111
f 125 111 124
f 124 111 112
f 124 112 123
f 123 112 122
f 122 112 113
f 122 113 121
f 121 113 114
f 121 114 120
f 120 114 115
f 120 115 119
f 119 115 116
f 119 116 118
f 118 116 108
f 143 128 147
f 147 128 129
f 147 129 146
f 146 129 130
f 146 130 145
f 145 130 131
f 145 131 144
f 144 131 155
f 156 132 133
f 156 133 154
f 154 133 134
f 154 134 153
f 153 134 135
f 153 135 136
f 153 136 152
f 152 136 137
f 152 137 151
f 151 137 138
f 151 138 139
f 151 139 150
f 150 139 140
f 150 140 149
f 149 140 141
f 149 141 148
f 148 141 142
f 148 142 143
f 148 143 147
f 157 158 174
f 174 158 159
f 174 159 173
f 173 159 160
f 173 160 172
f 172 160 161
f 172 161 171
f 171 161 162
f 171 162 163
f 171 163 170
f 170 163 164
f 170 164 169
f 169 164 165
f 169 165 168
f 168 165 166
f 168 166 167
f 175 176 178
f 178 176 177
f 179 180 182
f 182 180 181
f 184 195 183
f 183 195 192
f 183 192 191
f 191 192 190
f 190 192 193
f 190 193 189
f 189 193 188
f 188 193 187
f 187 193 194
f 187 194 186
f 186 194 185
f 185 194 195
f 185 195 184
f 197 207 196
f 196 207 208
f 196 208 204
f 204 208 203
f 203 208 205
f 203 205 202
f 202 205 201
f 201 205 206
f 201 206 200
f 200 206 199
f 199 206 198
f 198 206 207
f 198 207 197
f 210 227 209
f 209 227 228
f 209 228 224
f 224 228 223
f 223 228 222
f 222 228 221
f 221 228 225
f 221 225 220
f 220 225 219
f 219 225 218
f 218 225 217
f 217 225 226
f 217 226 216
f 216 226 215
f 215 226 214
f 214 226 213
f 213 226 227
f 213 227 212
f 212 227 211
f 211 227 210
f 229 230 233
f 233 230 232
f 232 230 231
f 235 236 234
f 234 236 237
f 234 237 238
