v -0.2065470505 0.09699999809 0.4590211755
v -0.2071594048 0.09699999809 0.4608339578
v -0.2063105774 0.09699999809 0.4625487978
v -0.204497776 0.09699999809 0.463161152
v -0.2027829552 0.09699999809 0.4623123247
v -0.2021706009 0.09699999809 0.4604995424
v -0.2030194283 0.09699999809 0.4587847025
v -0.2048322105 0.09699999809 0.4581723482
v -0.2011878777 0.09699999809 0.463706978
v -0.2055593491 0.09699999809 0.4651981432
v -0.2090364647 0.09699999809 0.4621579057
v -0.208142128 0.09699999809 0.4576265222
v -0.2037706566 0.09699999809 0.4561353571
v -0.2002935219 0.09699999809 0.4591755945
v -0.2065470505 0.1019999981 0.4590211755
v -0.2048322105 0.1019999981 0.4581723482
v -0.2030194283 0.1019999981 0.4587847025
v -0.2021706009 0.1019999981 0.4604995424
v -0.2027829552 0.1019999981 0.4623123247
v -0.204497776 0.1019999981 0.463161152
v -0.2063105774 0.1019999981 0.4625487978
v -0.2071594048 0.1019999981 0.4608339578
v -0.2055593491 0.1019999981 0.4651981432
v -0.2011878777 0.1019999981 0.463706978
v -0.2002935219 0.1019999981 0.4591755945
v -0.2037706566 0.1019999981 0.4561353571
v -0.208142128 0.1019999981 0.4576265222
v -0.2090364647 0.1019999981 0.4621579057
v -0.2065470505 0.1019999981 0.4590211755
v -0.2071594048 0.1019999981 0.4608339578
v -0.2063105774 0.1019999981 0.4625487978
v -0.204497776 0.1019999981 0.463161152
v -0.2027829552 0.1019999981 0.4623123247
v -0.2021706009 0.1019999981 0.4604995424
v -0.2030194283 0.1019999981 0.4587847025
v -0.2048322105 0.1019999981 0.4581723482
v -0.2065470505 0.09699999809 0.4590211755
v -0.2048322105 0.09699999809 0.4581723482
v -0.2030194283 0.09699999809 0.4587847025
v -0.2021706009 0.09699999809 0.4604995424
v -0.2027829552 0.09699999809 0.4623123247
v -0.204497776 0.09699999809 0.463161152
v -0.2063105774 0.09699999809 0.4625487978
v -0.2071594048 0.09699999809 0.4608339578
v -0.2065470505 0.1019999981 0.4590211755
v -0.2065470505 0.09699999809 0.4590211755
v -0.208142128 0.09699999809 0.4576265222
v -0.2090364647 0.09699999809 0.4621579057
v -0.2090364647 0.1019999981 0.4621579057
v -0.208142128 0.1019999981 0.4576265222
v -0.2011878777 0.09699999809 0.463706978
v -0.2002935219 0.09699999809 0.4591755945
v -0.2002935219 0.1019999981 0.4591755945
v -0.2011878777 0.1019999981 0.463706978
v -0.2090364647 0.09699999809 0.4621579057
v -0.2055593491 0.09699999809 0.4651981432
v -0.2055593491 0.1019999981 0.4651981432
v -0.2090364647 0.1019999981 0.4621579057
v -0.2037706566 0.09699999809 0.4561353571
v -0.208142128 0.09699999809 0.4576265222
v -0.208142128 0.1019999981 0.4576265222
v -0.2037706566 0.1019999981 0.4561353571
v -0.2002935219 0.09699999809 0.4591755945
v -0.2037706566 0.09699999809 0.4561353571
v -0.2037706566 0.1019999981 0.4561353571
v -0.2002935219 0.1019999981 0.4591755945
v -0.2055593491 0.09699999809 0.4651981432
v -0.2011878777 0.09699999809 0.463706978
v -0.2011878777 0.1019999981 0.463706978
v -0.2055593491 0.1019999981 0.4651981432
f 8 1 12
f 12 1 2
f 12 2 11
f 11 2 3
f 11 3 10
f 10 3 4
f 10 4 9
f 9 4 5
f 9 5 6
f 9 6 14
f 14 6 7
f 14 7 13
f 13 7 8
f 13 8 12
f 22 15 27
f 27 15 16
f 27 16 26
f 26 16 17
f 26 17 25
f 25 17 18
f 25 18 24
f 24 18 19
f 24 19 20
f 24 20 23
f 23 20 21
f 23 21 28
f 28 21 22
f 28 22 27
f 30 44 29
f 29 44 46
f 45 37 36
f 36 37 38
f 36 38 39
f 30 31 44
f 44 31 43
f 43 31 32
f 43 32 42
f 42 32 33
f 42 33 41
f 41 33 34
f 41 34 40
f 40 34 35
f 40 35 39
f 39 35 36
f 47 48 50
f 50 48 49
f 51 52 54
f 54 52 53
f 55 56 58
f 58 56 57
f 59 60 62
f 62 60 61
f 63 64 66
f 66 64 65
f 67 68 70
f 70 68 69
