v -0.2478849983 0.07800000191 0.4598767549
v -0.2471381187 0.07800000191 0.4616798669
v -0.2453350067 0.07800000191 0.4624267465
v -0.2435318756 0.07800000191 0.4616798669
v -0.242784996 0.07800000191 0.4598767549
v -0.2435318756 0.07800000191 0.4580736238
v -0.2453350067 0.07800000191 0.4573267442
v -0.2471381187 0.07800000191 0.4580736238
v -0.2503350067 0.07800000191 0.4598767549
v -0.2493800926 0.07800000191 0.4569378168
v -0.2468800926 0.07800000191 0.4551214677
v -0.2437899208 0.07800000191 0.4551214677
v -0.2412899208 0.07800000191 0.4569378168
v -0.2403350067 0.07800000191 0.4598767549
v -0.2412899208 0.07800000191 0.462815674
v -0.2437899208 0.07800000191 0.4646320421
v -0.2468800926 0.07800000191 0.4646320421
v -0.2493800926 0.07800000191 0.462815674
v -0.2503350067 0.08399999619 0.4598767549
v -0.2493800926 0.08399999619 0.4569378168
v -0.2468800926 0.08399999619 0.4551214677
v -0.2437899208 0.08399999619 0.4551214677
v -0.2412899208 0.08399999619 0.4569378168
v -0.2403350067 0.08399999619 0.4598767549
v -0.2412899208 0.08399999619 0.462815674
v -0.2437899208 0.08399999619 0.4646320421
v -0.2468800926 0.08399999619 0.4646320421
v -0.2493800926 0.08399999619 0.462815674
v -0.2503350067 0.07800000191 0.4598767549
v -0.2493800926 0.07800000191 0.462815674
v -0.2468800926 0.07800000191 0.4646320421
v -0.2437899208 0.07800000191 0.4646320421
v -0.2412899208 0.07800000191 0.462815674
v -0.2403350067 0.07800000191 0.4598767549
v -0.2412899208 0.07800000191 0.4569378168
v -0.2437899208 0.07800000191 0.4551214677
v -0.2468800926 0.07800000191 0.4551214677
v -0.2493800926 0.07800000191 0.4569378168
v -0.2503350067 0.07800000191 0.4598767549
v -0.2503350067 0.08399999619 0.4598767549
v -0.2478849983 0.08399999619 0.4598767549
v -0.2471381187 0.08399999619 0.4616798669
v -0.2453350067 0.08399999619 0.4624267465
v -0.2435318756 0.08399999619 0.4616798669
v -0.242784996 0.08399999619 0.4598767549
v -0.2435318756 0.08399999619 0.4580736238
v -0.2453350067 0.08399999619 0.4573267442
v -0.2471381187 0.08399999619 0.4580736238
v -0.2478849983 0.07800000191 0.4598767549
v -0.2471381187 0.07800000191 0.4580736238
v -0.2453350067 0.07800000191 0.4573267442
v -0.2435318756 0.07800000191 0.4580736238
v -0.242784996 0.07800000191 0.4598767549
v -0.2435318756 0.07800000191 0.4616798669
v -0.2453350067 0.07800000191 0.4624267465
v -0.2471381187 0.07800000191 0.4616798669
v -0.2478849983 0.08399999619 0.4598767549
v -0.2478849983 0.07800000191 0.4598767549
v -0.2478849983 0.08399999619 0.4598767549
v -0.2471381187 0.08399999619 0.4580736238
v -0.2453350067 0.08399999619 0.4573267442
v -0.2435318756 0.08399999619 0.4580736238
v -0.242784996 0.08399999619 0.4598767549
v -0.2435318756 0.08399999619 0.4616798669
v -0.2453350067 0.08399999619 0.4624267465
v -0.2471381187 0.08399999619 0.4616798669
v -0.2503350067 0.08399999619 0.4598767549
v -0.2493800926 0.08399999619 0.462815674
v -0.2468800926 0.08399999619 0.4646320421
v -0.2437899208 0.08399999619 0.4646320421
v -0.2412899208 0.08399999619 0.462815674
v -0.2403350067 0.08399999619 0.4598767549
v -0.2412899208 0.08399999619 0.4569378168
v -0.2437899208 0.08399999619 0.4551214677
v -0.2468800926 0.08399999619 0.4551214677
v -0.2493800926 0.08399999619 0.4569378168
f 2 18 1
f 1 18 9
f 1 9 10
f 18 2 17
f 17 2 3
f 17 3 16
f 16 3 4
f 16 4 15
f 15 4 5
f 15 5 14
f 14 5 13
f 13 5 6
f 13 6 12
f 12 6 7
f 12 7 11
f 11 7 8
f 11 8 10
f 10 8 1
f 20 38 19
f 19 38 39
f 40 29 28
f 28 29 30
f 28 30 27
f 27 30 31
f 27 31 26
f 26 31 32
f 26 32 25
f 25 32 33
f 25 33 24
f 24 33 34
f 24 34 23
f 23 34 35
f 23 35 22
f 22 35 36
f 22 36 21
f 21 36 37
f 21 37 20
f 20 37 38
f 42 56 41
f 41 56 58
f 57 49 48
f 48 49 50
f 48 50 51
f 42 43 56
f 56 43 55
f 55 43 44
f 55 44 54
f 54 44 45
f 54 45 53
f 53 45 46
f 53 46 52
f 52 46 47
f 52 47 51
f 51 47 48
f 60 76 59
f 59 76 67
f 59 67 68
f 76 60 75
f 75 60 61
f 75 61 74
f 74 61 62
f 74 62 73
f 73 62 63
f 73 63 72
f 72 63 71
f 71 63 64
f 71 64 70
f 70 64 65
f 70 65 69
f 69 65 66
f 69 66 68
f 68 66 59
