v -0.2285000038 0.08569999695 0.6329999924
v -0.23 0.08229999542 0.6329999924
v -0.22 0.08229999542 0.6329999924
v -0.2214999962 0.08569999695 0.6329999924
v -0.2275 0.08229999542 0.6279999924
v -0.2267677689 0.08229999542 0.6297677612
v -0.225 0.08229999542 0.6304999924
v -0.2232322311 0.08229999542 0.6297677612
v -0.2225 0.08229999542 0.6279999924
v -0.2232322311 0.08229999542 0.6262322235
v -0.225 0.08229999542 0.6254999924
v -0.2267677689 0.08229999542 0.6262322235
v -0.23 0.08229999542 0.6229999924
v -0.22 0.08229999542 0.6229999924
v -0.22 0.08229999542 0.6329999924
v -0.23 0.08229999542 0.6329999924
v -0.22 0.08229999542 0.6229999924
v -0.2214999962 0.08569999695 0.6229999924
v -0.2214999962 0.08569999695 0.6329999924
v -0.22 0.08229999542 0.6329999924
v -0.2285000038 0.08569999695 0.6229999924
v -0.23 0.08229999542 0.6229999924
v -0.23 0.08229999542 0.6329999924
v -0.2285000038 0.08569999695 0.6329999924
v -0.23 0.08229999542 0.6229999924
v -0.2285000038 0.08569999695 0.6229999924
v -0.2214999962 0.08569999695 0.6229999924
v -0.22 0.08229999542 0.6229999924
v -0.2275 0.08569999695 0.6279999924
v -0.2267677689 0.08569999695 0.6262322235
v -0.225 0.08569999695 0.6254999924
v -0.2232322311 0.08569999695 0.6262322235
v -0.2225 0.08569999695 0.6279999924
v -0.2232322311 0.08569999695 0.6297677612
v -0.225 0.08569999695 0.6304999924
v -0.2267677689 0.08569999695 0.6297677612
v -0.2214999962 0.08569999695 0.6229999924
v -0.2285000038 0.08569999695 0.6229999924
v -0.2285000038 0.08569999695 0.6329999924
v -0.2214999962 0.08569999695 0.6329999924
v -0.2275 0.08569999695 0.6279999924
v -0.2267677689 0.08569999695 0.6297677612
v -0.225 0.08569999695 0.6304999924
v -0.2232322311 0.08569999695 0.6297677612
v -0.2225 0.08569999695 0.6279999924
v -0.2232322311 0.08569999695 0.6262322235
v -0.225 0.08569999695 0.6254999924
v -0.2267677689 0.08569999695 0.6262322235
v -0.2275 0.08229999542 0.6279999924
v -0.2267677689 0.08229999542 0.6262322235
v -0.225 0.08229999542 0.6254999924
v -0.2232322311 0.08229999542 0.6262322235
v -0.2225 0.08229999542 0.6279999924
v -0.2232322311 0.08229999542 0.6297677612
v -0.225 0.08229999542 0.6304999924
v -0.2267677689 0.08229999542 0.6297677612
v -0.2275 0.08569999695 0.6279999924
v -0.2275 0.08229999542 0.6279999924
f 2 3 1
f 1 3 4
f 6 16 5
f 5 16 13
f 5 13 12
f 12 13 11
f 11 13 14
f 11 14 10
f 10 14 9
f 9 14 15
f 9 15 8
f 8 15 7
f 7 15 16
f 7 16 6
f 17 18 20
f 20 18 19
f 21 22 24
f 24 22 23
f 26 27 25
f 25 27 28
f 30 38 29
f 29 38 39
f 29 39 36
f 36 39 35
f 35 39 40
f 35 40 34
f 34 40 33
f 33 40 37
f 33 37 32
f 32 37 31
f 31 37 38
f 31 38 30
f 42 56 41
f 41 56 58
f 57 49 48
f 48 49 50
f 48 50 51
f 42 43 56
f 56 43 55
f 55 43 44
f 55 44 54
f 54 44 45
f 54 45 53
f 53 45 46
f 53 46 52
f 52 46 47
f 52 47 51
f 51 47 48
