v -0.2275 0.17 0.02319999933
v -0.2267677689 0.1717677689 0.02319999933
v -0.225 0.1725 0.02319999933
v -0.2232322311 0.1717677689 0.02319999933
v -0.2225 0.17 0.02319999933
v -0.2232322311 0.1682322311 0.02319999933
v -0.225 0.1675 0.02319999933
v -0.2267677689 0.1682322311 0.02319999933
v -0.2214999962 0.175 0.02319999933
v -0.2285000038 0.175 0.02319999933
v -0.2285000038 0.165 0.02319999933
v -0.2214999962 0.165 0.02319999933
v -0.2275 0.17 0.01980000019
v -0.2267677689 0.1682322311 0.01980000019
v -0.225 0.1675 0.01980000019
v -0.2232322311 0.1682322311 0.01980000019
v -0.2225 0.17 0.01980000019
v -0.2232322311 0.1717677689 0.01980000019
v -0.225 0.1725 0.01980000019
v -0.2267677689 0.1717677689 0.01980000019
v -0.23 0.175 0.01980000019
v -0.22 0.175 0.01980000019
v -0.22 0.165 0.01980000019
v -0.23 0.165 0.01980000019
v -0.2285000038 0.175 0.02319999933
v -0.23 0.175 0.01980000019
v -0.23 0.165 0.01980000019
v -0.2285000038 0.165 0.02319999933
v -0.2285000038 0.165 0.02319999933
v -0.23 0.165 0.01980000019
v -0.22 0.165 0.01980000019
v -0.2214999962 0.165 0.02319999933
v -0.23 0.175 0.01980000019
v -0.2285000038 0.175 0.02319999933
v -0.2214999962 0.175 0.02319999933
v -0.22 0.175 0.01980000019
v -0.2275 0.17 0.02319999933
v -0.2267677689 0.1682322311 0.02319999933
v -0.225 0.1675 0.02319999933
v -0.2232322311 0.1682322311 0.02319999933
v -0.2225 0.17 0.02319999933
v -0.2232322311 0.1717677689 0.02319999933
v -0.225 0.1725 0.02319999933
v -0.2267677689 0.1717677689 0.02319999933
v -0.2275 0.17 0.01980000019
v -0.2267677689 0.1717677689 0.01980000019
v -0.225 0.1725 0.01980000019
v -0.2232322311 0.1717677689 0.01980000019
v -0.2225 0.17 0.01980000019
v -0.2232322311 0.1682322311 0.01980000019
v -0.225 0.1675 0.01980000019
v -0.2267677689 0.1682322311 0.01980000019
v -0.2275 0.17 0.02319999933
v -0.2275 0.17 0.01980000019
v -0.22 0.175 0.01980000019
v -0.2214999962 0.175 0.02319999933
v -0.2214999962 0.165 0.02319999933
v -0.22 0.165 0.01980000019
f 2 10 1
f 1 10 11
f 1 11 8
f 8 11 7
f 7 11 12
f 7 12 6
f 6 12 5
f 5 12 9
f 5 9 4
f 4 9 3
f 3 9 10
f 3 10 2
f 14 24 13
f 13 24 21
f 13 21 20
f 20 21 19
f 19 21 22
f 19 22 18
f 18 22 17
f 17 22 23
f 17 23 16
f 16 23 15
f 15 23 24
f 15 24 14
f 25 26 28
f 28 26 27
f 30 31 29
f 29 31 32
f 34 35 33
f 33 35 36
f 38 52 37
f 37 52 54
f 53 45 44
f 44 45 46
f 44 46 47
f 38 39 52
f 52 39 51
f 51 39 40
f 51 40 50
f 50 40 41
f 50 41 49
f 49 41 42
f 49 42 48
f 48 42 43
f 48 43 47
f 47 43 44
f 55 56 58
f 58 56 57
