v 0.02762120247 0.03815999985 0.4329504663
v 0.02832830906 0.03815999985 0.4332433588
v 0.02862120152 0.03815999985 0.4339504511
v 0.02832830906 0.03815999985 0.4346575624
v 0.02762120247 0.03815999985 0.4349504549
v 0.02691409588 0.03815999985 0.4346575624
v 0.02662120342 0.03815999985 0.4339504511
v 0.02691409588 0.03815999985 0.4332433588
v 0.02762120247 0.04199999809 0.4329504663
v 0.02667014599 0.04199999809 0.4336414415
v 0.02703341723 0.04199999809 0.434759472
v 0.02820898771 0.04199999809 0.434759472
v 0.02857225895 0.04199999809 0.4336414415
v 0.02762120247 0.04199999809 0.4329504663
v 0.02762120247 0.03815999985 0.4329504663
v 0.02762120247 0.03815999985 0.4329504663
v 0.02691409588 0.03815999985 0.4332433588
v 0.02662120342 0.03815999985 0.4339504511
v 0.02691409588 0.03815999985 0.4346575624
v 0.02762120247 0.03815999985 0.4349504549
v 0.02832830906 0.03815999985 0.4346575624
v 0.02862120152 0.03815999985 0.4339504511
v 0.02832830906 0.03815999985 0.4332433588
v 0.02762120247 0.03815999985 0.4347504503
v 0.02682120323 0.03815999985 0.4339504511
v 0.02705551624 0.03815999985 0.4333847696
v 0.02762120247 0.03815999985 0.4331504518
v 0.02842120171 0.03815999985 0.4339504511
v 0.02818688869 0.03815999985 0.4345161516
f 8 15 9
f 14 1 2
f 14 2 13
f 13 2 3
f 13 3 12
f 12 3 4
f 12 4 5
f 12 5 11
f 11 5 6
f 11 6 7
f 11 7 10
f 10 7 8
f 10 8 9
f 23 16 27
f 27 16 17
f 27 17 26
f 26 17 25
f 25 17 18
f 25 18 19
f 25 19 24
f 24 19 20
f 24 20 21
f 24 21 29
f 29 21 22
f 29 22 28
f 28 22 23
f 28 23 27
