v 0.215 -0.225 0.02342000008
v 0.215 0.225 0.02342000008
v 0.215 0.225 0.01850000024
v 0.215 -0.225 0.01850000024
v 0.221875 0.225 0.01945500016
v 0.2204199982 0.225 0.01799999952
v 0.2154999924 0.225 0.01799999952
v 0.2152499962 0.225 0.0180669868
v 0.2150669861 0.225 0.01825000048
v 0.215 0.225 0.01850000024
v 0.215 0.225 0.02342000008
v 0.2164550018 0.225 0.02487499952
v 0.2168000031 0.225 0.02487499952
v 0.2168000031 0.225 0.0225
v 0.2184393311 0.225 0.0225
v 0.2211000061 0.225 0.02516066074
v 0.2211000061 0.225 0.02779000044
v 0.2213100052 0.225 0.02799999952
v 0.2211000061 0.225 0.02821000099
v 0.2211000061 0.225 0.03083934069
v 0.2184393311 0.225 0.03349999905
v 0.2168000031 0.225 0.03349999905
v 0.2168000031 0.225 0.03112499952
v 0.2164550018 0.225 0.03112499952
v 0.215 0.225 0.03257999897
v 0.215 0.225 0.0375
v 0.2150669861 0.225 0.03775000095
v 0.2152499962 0.225 0.03793301344
v 0.2154999924 0.225 0.03799999952
v 0.2204199982 0.225 0.03799999952
v 0.221875 0.225 0.03654500008
v 0.221875 0.225 0.03619999886
v 0.2195000076 0.225 0.03619999886
v 0.2195000076 0.225 0.03456066132
v 0.2221606636 0.225 0.03190000057
v 0.2247900009 0.225 0.03190000057
v 0.225 0.225 0.0316899991
v 0.2252099991 0.225 0.03190000057
v 0.2278393364 0.225 0.03190000057
v 0.2304999924 0.225 0.03456066132
v 0.2304999924 0.225 0.03619999886
v 0.228125 0.225 0.03619999886
v 0.228125 0.225 0.03654500008
v 0.2295800018 0.225 0.03799999952
v 0.2345000076 0.225 0.03799999952
v 0.2347500038 0.225 0.03793301344
v 0.2349330139 0.225 0.03775000095
v 0.235 0.225 0.0375
v 0.235 0.225 0.03257999897
v 0.2335449982 0.225 0.03112499952
v 0.2331999969 0.225 0.03112499952
v 0.2331999969 0.225 0.03349999905
v 0.2315606689 0.225 0.03349999905
v 0.2288999939 0.225 0.03083934069
v 0.2288999939 0.225 0.02821000099
v 0.2286899948 0.225 0.02799999952
v 0.2288999939 0.225 0.02779000044
v 0.2288999939 0.225 0.02516066074
v 0.2315606689 0.225 0.0225
v 0.2331999969 0.225 0.0225
v 0.2331999969 0.225 0.02487499952
v 0.2335449982 0.225 0.02487499952
v 0.235 0.225 0.02342000008
v 0.235 0.225 0.01850000024
v 0.2349330139 0.225 0.01825000048
v 0.2347500038 0.225 0.0180669868
v 0.2345000076 0.225 0.01799999952
v 0.2295800018 0.225 0.01799999952
v 0.228125 0.225 0.01945500016
v 0.228125 0.225 0.01980000019
v 0.2304999924 0.225 0.01980000019
v 0.2304999924 0.225 0.02143934011
v 0.2278393364 0.225 0.02410000086
v 0.2252099991 0.225 0.02410000086
v 0.225 0.225 0.02430999994
v 0.2247900009 0.225 0.02410000086
v 0.2221606636 0.225 0.02410000086
v 0.2195000076 0.225 0.02143934011
v 0.2195000076 0.225 0.01980000019
v 0.221875 0.225 0.01980000019
v 0.2229000092 0.225 0.02799999952
v 0.2236906624 0.225 0.02635815382
v 0.2254673004 0.225 0.0259526515
v 0.2268920326 0.225 0.02708884478
v 0.2268920326 0.225 0.02891115665
v 0.2254673004 0.225 0.03004734755
v 0.2236906624 0.225 0.02964184523
v 0.2288999939 -0.225 0.02779000044
v 0.2288999939 -0.225 0.02516066074
v 0.2288999939 0.225 0.02516066074
v 0.2288999939 0.225 0.02779000044
v 0.2304999924 -0.225 0.03456066132
v 0.2304999924 -0.225 0.03619999886
v 0.2304999924 0.225 0.03619999886
v 0.2304999924 0.225 0.03456066132
v 0.215 0.225 0.01850000024
v 0.2150669861 0.225 0.01825000048
v 0.2152499962 0.225 0.0180669868
v 0.2154999924 0.225 0.01799999952
v 0.2154999924 -0.225 0.01799999952
v 0.2152499962 -0.225 0.0180669868
v 0.2150669861 -0.225 0.01825000048
v 0.215 -0.225 0.01850000024
v 0.2184393311 -0.225 0.0225
v 0.2211000061 -0.225 0.02516066074
v 0.2211000061 0.225 0.02516066074
v 0.2184393311 0.225 0.0225
v 0.228125 -0.225 0.01945500016
v 0.228125 -0.225 0.01980000019
v 0.228125 0.225 0.01980000019
v 0.228125 0.225 0.01945500016
v 0.2164550018 -0.225 0.02487499952
v 0.2168000031 -0.225 0.02487499952
v 0.2168000031 0.225 0.02487499952
v 0.2164550018 0.225 0.02487499952
v 0.2304999924 -0.225 0.01980000019
v 0.2304999924 -0.225 0.02143934011
v 0.2304999924 0.225 0.02143934011
v 0.2304999924 0.225 0.01980000019
v 0.2211000061 -0.225 0.02516066074
v 0.2211000061 -0.225 0.02779000044
v 0.2211000061 0.225 0.02779000044
v 0.2211000061 0.225 0.02516066074
v 0.2331999969 -0.225 0.03349999905
v 0.2315606689 -0.225 0.03349999905
v 0.2315606689 0.225 0.03349999905
v 0.2331999969 0.225 0.03349999905
v 0.2204199982 -0.225 0.03799999952
v 0.221875 -0.225 0.03654500008
v 0.221875 0.225 0.03654500008
v 0.2204199982 0.225 0.03799999952
v 0.2278393364 -0.225 0.02410000086
v 0.2252099991 -0.225 0.02410000086
v 0.2252099991 0.225 0.02410000086
v 0.2278393364 0.225 0.02410000086
v 0.215 -0.225 0.02342000008
v 0.2164550018 -0.225 0.02487499952
v 0.2164550018 0.225 0.02487499952
v 0.215 0.225 0.02342000008
v 0.2252099991 -0.225 0.02410000086
v 0.225 -0.225 0.02430999994
v 0.225 0.225 0.02430999994
v 0.2252099991 0.225 0.02410000086
v 0.228125 -0.225 0.01980000019
v 0.2304999924 -0.225 0.01980000019
v 0.2304999924 0.225 0.01980000019
v 0.228125 0.225 0.01980000019
v 0.2195000076 -0.225 0.03456066132
v 0.2221606636 -0.225 0.03190000057
v 0.2221606636 0.225 0.03190000057
v 0.2195000076 0.225 0.03456066132
v 0.2335449982 -0.225 0.03112499952
v 0.2331999969 -0.225 0.03112499952
v 0.2331999969 0.225 0.03112499952
v 0.2335449982 0.225 0.03112499952
v 0.2331999969 -0.225 0.03112499952
v 0.2331999969 -0.225 0.03349999905
v 0.2331999969 0.225 0.03349999905
v 0.2331999969 0.225 0.03112499952
v 0.2295800018 -0.225 0.01799999952
v 0.228125 -0.225 0.01945500016
v 0.228125 0.225 0.01945500016
v 0.2295800018 0.225 0.01799999952
v 0.221875 -0.225 0.03654500008
v 0.221875 -0.225 0.03619999886
v 0.221875 0.225 0.03619999886
v 0.221875 0.225 0.03654500008
v 0.2168000031 -0.225 0.02487499952
v 0.2168000031 -0.225 0.0225
v 0.2168000031 0.225 0.0225
v 0.2168000031 0.225 0.02487499952
v 0.235 -0.225 0.03257999897
v 0.2335449982 -0.225 0.03112499952
v 0.2335449982 0.225 0.03112499952
v 0.235 0.225 0.03257999897
v 0.2304999924 -0.225 0.02143934011
v 0.2278393364 -0.225 0.02410000086
v 0.2278393364 0.225 0.02410000086
v 0.2304999924 0.225 0.02143934011
v 0.2168000031 -0.225 0.0225
v 0.2184393311 -0.225 0.0225
v 0.2184393311 0.225 0.0225
v 0.2168000031 0.225 0.0225
v 0.221875 -0.225 0.03619999886
v 0.2195000076 -0.225 0.03619999886
v 0.2195000076 0.225 0.03619999886
v 0.221875 0.225 0.03619999886
v 0.2195000076 -0.225 0.03619999886
v 0.2195000076 -0.225 0.03456066132
v 0.2195000076 0.225 0.03456066132
v 0.2195000076 0.225 0.03619999886
v 0.2229000092 0.225 0.02799999952
v 0.2236906624 0.225 0.02964184523
v 0.2254673004 0.225 0.03004734755
v 0.2268920326 0.225 0.02891115665
v 0.2268920326 0.225 0.02708884478
v 0.2254673004 0.225 0.0259526515
v 0.2236906624 0.225 0.02635815382
v 0.2229000092 -0.225 0.02799999952
v 0.2236906624 -0.225 0.02635815382
v 0.2254673004 -0.225 0.0259526515
v 0.2268920326 -0.225 0.02708884478
v 0.2268920326 -0.225 0.02891115665
v 0.2254673004 -0.225 0.03004734755
v 0.2236906624 -0.225 0.02964184523
v 0.2229000092 0.225 0.02799999952
v 0.2229000092 -0.225 0.02799999952
v 0.225 -0.225 0.02430999994
v 0.2247900009 -0.225 0.02410000086
v 0.2247900009 0.225 0.02410000086
v 0.225 0.225 0.02430999994
v 0.2315606689 -0.225 0.03349999905
v 0.2288999939 -0.225 0.03083934069
v 0.2288999939 0.225 0.03083934069
v 0.2315606689 0.225 0.03349999905
v 0.228125 -0.225 0.03654500008
v 0.2295800018 -0.225 0.03799999952
v 0.2295800018 0.225 0.03799999952
v 0.228125 0.225 0.03654500008
v 0.2211000061 -0.225 0.02779000044
v 0.2213100052 -0.225 0.02799999952
v 0.2213100052 0.225 0.02799999952
v 0.2211000061 0.225 0.02779000044
v 0.2247900009 -0.225 0.02410000086
v 0.2221606636 -0.225 0.02410000086
v 0.2221606636 0.225 0.02410000086
v 0.2247900009 0.225 0.02410000086
v 0.2247900009 -0.225 0.03190000057
v 0.225 -0.225 0.0316899991
v 0.225 0.225 0.0316899991
v 0.2247900009 0.225 0.03190000057
v 0.221875 -0.225 0.01945500016
v 0.2204199982 -0.225 0.01799999952
v 0.2204199982 0.225 0.01799999952
v 0.221875 0.225 0.01945500016
v 0.2288999939 -0.225 0.03083934069
v 0.2288999939 -0.225 0.02821000099
v 0.2288999939 0.225 0.02821000099
v 0.2288999939 0.225 0.03083934069
v 0.2221606636 -0.225 0.03190000057
v 0.2247900009 -0.225 0.03190000057
v 0.2247900009 0.225 0.03190000057
v 0.2221606636 0.225 0.03190000057
v 0.2184393311 -0.225 0.03349999905
v 0.2168000031 -0.225 0.03349999905
v 0.2168000031 0.225 0.03349999905
v 0.2184393311 0.225 0.03349999905
v 0.2288999939 -0.225 0.02516066074
v 0.2315606689 -0.225 0.0225
v 0.2315606689 0.225 0.0225
v 0.2288999939 0.225 0.02516066074
v 0.2315606689 -0.225 0.0225
v 0.2331999969 -0.225 0.0225
v 0.2331999969 0.225 0.0225
v 0.2315606689 0.225 0.0225
v 0.235 0.225 0.02342000008
v 0.235 -0.225 0.02342000008
v 0.235 -0.225 0.01850000024
v 0.235 0.225 0.01850000024
v 0.235 0.225 0.0375
v 0.2349330139 0.225 0.03775000095
v 0.2347500038 0.225 0.03793301344
v 0.2345000076 0.225 0.03799999952
v 0.2345000076 -0.225 0.03799999952
v 0.2347500038 -0.225 0.03793301344
v 0.2349330139 -0.225 0.03775000095
v 0.235 -0.225 0.0375
v 0.2168000031 -0.225 0.03349999905
v 0.2168000031 -0.225 0.03112499952
v 0.2168000031 0.225 0.03112499952
v 0.2168000031 0.225 0.03349999905
v 0.2331999969 -0.225 0.0225
v 0.2331999969 -0.225 0.02487499952
v 0.2331999969 0.225 0.02487499952
v 0.2331999969 0.225 0.0225
v 0.2154999924 0.225 0.03799999952
v 0.2152499962 0.225 0.03793301344
v 0.2150669861 0.225 0.03775000095
v 0.215 0.225 0.0375
v 0.215 -0.225 0.0375
v 0.2150669861 -0.225 0.03775000095
v 0.2152499962 -0.225 0.03793301344
v 0.2154999924 -0.225 0.03799999952
v 0.2345000076 0.225 0.01799999952
v 0.2347500038 0.225 0.0180669868
v 0.2349330139 0.225 0.01825000048
v 0.235 0.225 0.01850000024
v 0.235 -0.225 0.01850000024
v 0.2349330139 -0.225 0.01825000048
v 0.2347500038 -0.225 0.0180669868
v 0.2345000076 -0.225 0.01799999952
v 0.2295800018 -0.225 0.01799999952
v 0.2295800018 0.225 0.01799999952
v 0.2345000076 0.225 0.01799999952
v 0.2345000076 -0.225 0.01799999952
v 0.235 -0.225 0.03257999897
v 0.235 0.225 0.03257999897
v 0.235 0.225 0.0375
v 0.235 -0.225 0.0375
v 0.2229000092 -0.225 0.02799999952
v 0.2236906624 -0.225 0.02964184523
v 0.2254673004 -0.225 0.03004734755
v 0.2268920326 -0.225 0.02891115665
v 0.2268920326 -0.225 0.02708884478
v 0.2254673004 -0.225 0.0259526515
v 0.2236906624 -0.225 0.02635815382
v 0.2204199982 -0.225 0.01799999952
v 0.221875 -0.225 0.01945500016
v 0.221875 -0.225 0.01980000019
v 0.2195000076 -0.225 0.01980000019
v 0.2195000076 -0.225 0.02143934011
v 0.2221606636 -0.225 0.02410000086
v 0.2247900009 -0.225 0.02410000086
v 0.225 -0.225 0.02430999994
v 0.2252099991 -0.225 0.02410000086
v 0.2278393364 -0.225 0.02410000086
v 0.2304999924 -0.225 0.02143934011
v 0.2304999924 -0.225 0.01980000019
v 0.228125 -0.225 0.01980000019
v 0.228125 -0.225 0.01945500016
v 0.2295800018 -0.225 0.01799999952
v 0.2345000076 -0.225 0.01799999952
v 0.2347500038 -0.225 0.0180669868
v 0.2349330139 -0.225 0.01825000048
v 0.235 -0.225 0.01850000024
v 0.235 -0.225 0.02342000008
v 0.2335449982 -0.225 0.02487499952
v 0.2331999969 -0.225 0.02487499952
v 0.2331999969 -0.225 0.0225
v 0.2315606689 -0.225 0.0225
v 0.2288999939 -0.225 0.02516066074
v 0.2288999939 -0.225 0.02779000044
v 0.2286899948 -0.225 0.02799999952
v 0.2288999939 -0.225 0.02821000099
v 0.2288999939 -0.225 0.03083934069
v 0.2315606689 -0.225 0.03349999905
v 0.2331999969 -0.225 0.03349999905
v 0.2331999969 -0.225 0.03112499952
v 0.2335449982 -0.225 0.03112499952
v 0.235 -0.225 0.03257999897
v 0.235 -0.225 0.0375
v 0.2349330139 -0.225 0.03775000095
v 0.2347500038 -0.225 0.03793301344
v 0.2345000076 -0.225 0.03799999952
v 0.2295800018 -0.225 0.03799999952
v 0.228125 -0.225 0.03654500008
v 0.228125 -0.225 0.03619999886
v 0.2304999924 -0.225 0.03619999886
v 0.2304999924 -0.225 0.03456066132
v 0.2278393364 -0.225 0.03190000057
v 0.2252099991 -0.225 0.03190000057
v 0.225 -0.225 0.0316899991
v 0.2247900009 -0.225 0.03190000057
v 0.2221606636 -0.225 0.03190000057
v 0.2195000076 -0.225 0.03456066132
v 0.2195000076 -0.225 0.03619999886
v 0.221875 -0.225 0.03619999886
v 0.221875 -0.225 0.03654500008
v 0.2204199982 -0.225 0.03799999952
v 0.2154999924 -0.225 0.03799999952
v 0.2152499962 -0.225 0.03793301344
v 0.2150669861 -0.225 0.03775000095
v 0.215 -0.225 0.0375
v 0.215 -0.225 0.03257999897
v 0.2164550018 -0.225 0.03112499952
v 0.2168000031 -0.225 0.03112499952
v 0.2168000031 -0.225 0.03349999905
v 0.2184393311 -0.225 0.03349999905
v 0.2211000061 -0.225 0.03083934069
v 0.2211000061 -0.225 0.02821000099
v 0.2213100052 -0.225 0.02799999952
v 0.2211000061 -0.225 0.02779000044
v 0.2211000061 -0.225 0.02516066074
v 0.2184393311 -0.225 0.0225
v 0.2168000031 -0.225 0.0225
v 0.2168000031 -0.225 0.02487499952
v 0.2164550018 -0.225 0.02487499952
v 0.215 -0.225 0.02342000008
v 0.215 -0.225 0.01850000024
v 0.2150669861 -0.225 0.01825000048
v 0.2152499962 -0.225 0.0180669868
v 0.2154999924 -0.225 0.01799999952
v 0.215 0.225 0.03257999897
v 0.215 -0.225 0.03257999897
v 0.215 -0.225 0.0375
v 0.215 0.225 0.0375
v 0.2204199982 -0.225 0.03799999952
v 0.2204199982 0.225 0.03799999952
v 0.2154999924 0.225 0.03799999952
v 0.2154999924 -0.225 0.03799999952
v 0.2204199982 0.225 0.01799999952
v 0.2204199982 -0.225 0.01799999952
v 0.2154999924 -0.225 0.01799999952
v 0.2154999924 0.225 0.01799999952
v 0.2295800018 0.225 0.03799999952
v 0.2295800018 -0.225 0.03799999952
v 0.2345000076 -0.225 0.03799999952
v 0.2345000076 0.225 0.03799999952
v 0.2304999924 -0.225 0.03619999886
v 0.228125 -0.225 0.03619999886
v 0.228125 0.225 0.03619999886
v 0.2304999924 0.225 0.03619999886
v 0.2331999969 -0.225 0.02487499952
v 0.2335449982 -0.225 0.02487499952
v 0.2335449982 0.225 0.02487499952
v 0.2331999969 0.225 0.02487499952
v 0.2195000076 -0.225 0.01980000019
v 0.221875 -0.225 0.01980000019
v 0.221875 0.225 0.01980000019
v 0.2195000076 0.225 0.01980000019
v 0.2252099991 -0.225 0.03190000057
v 0.2278393364 -0.225 0.03190000057
v 0.2278393364 0.225 0.03190000057
v 0.2252099991 0.225 0.03190000057
v 0.221875 -0.225 0.01980000019
v 0.221875 -0.225 0.01945500016
v 0.221875 0.225 0.01945500016
v 0.221875 0.225 0.01980000019
v 0.2211000061 -0.225 0.03083934069
v 0.2184393311 -0.225 0.03349999905
v 0.2184393311 0.225 0.03349999905
v 0.2211000061 0.225 0.03083934069
v 0.2288999939 -0.225 0.02821000099
v 0.2286899948 -0.225 0.02799999952
v 0.2286899948 0.225 0.02799999952
v 0.2288999939 0.225 0.02821000099
v 0.2278393364 -0.225 0.03190000057
v 0.2304999924 -0.225 0.03456066132
v 0.2304999924 0.225 0.03456066132
v 0.2278393364 0.225 0.03190000057
v 0.2211000061 -0.225 0.02821000099
v 0.2211000061 -0.225 0.03083934069
v 0.2211000061 0.225 0.03083934069
v 0.2211000061 0.225 0.02821000099
v 0.2335449982 -0.225 0.02487499952
v 0.235 -0.225 0.02342000008
v 0.235 0.225 0.02342000008
v 0.2335449982 0.225 0.02487499952
v 0.225 -0.225 0.0316899991
v 0.2252099991 -0.225 0.03190000057
v 0.2252099991 0.225 0.03190000057
v 0.225 0.225 0.0316899991
v 0.2221606636 -0.225 0.02410000086
v 0.2195000076 -0.225 0.02143934011
v 0.2195000076 0.225 0.02143934011
v 0.2221606636 0.225 0.02410000086
v 0.2168000031 -0.225 0.03112499952
v 0.2164550018 -0.225 0.03112499952
v 0.2164550018 0.225 0.03112499952
v 0.2168000031 0.225 0.03112499952
v 0.2213100052 -0.225 0.02799999952
v 0.2211000061 -0.225 0.02821000099
v 0.2211000061 0.225 0.02821000099
v 0.2213100052 0.225 0.02799999952
v 0.228125 -0.225 0.03619999886
v 0.228125 -0.225 0.03654500008
v 0.228125 0.225 0.03654500008
v 0.228125 0.225 0.03619999886
v 0.2195000076 -0.225 0.02143934011
v 0.2195000076 -0.225 0.01980000019
v 0.2195000076 0.225 0.01980000019
v 0.2195000076 0.225 0.02143934011
v 0.2286899948 -0.225 0.02799999952
v 0.2288999939 -0.225 0.02779000044
v 0.2288999939 0.225 0.02779000044
v 0.2286899948 0.225 0.02799999952
v 0.2164550018 -0.225 0.03112499952
v 0.215 -0.225 0.03257999897
v 0.215 0.225 0.03257999897
v 0.2164550018 0.225 0.03112499952
f 2 3 1
f 1 3 4
f 80 5 79
f 79 5 6
f 79 6 7
f 8 9 7
f 7 9 10
f 7 10 79
f 79 10 14
f 79 14 78
f 78 14 15
f 78 15 77
f 77 15 16
f 77 16 82
f 82 16 81
f 81 16 17
f 81 17 18
f 10 11 14
f 14 11 12
f 14 12 13
f 18 19 81
f 81 19 20
f 81 20 87
f 87 20 35
f 87 35 36
f 20 21 35
f 35 21 34
f 34 21 22
f 34 22 33
f 33 22 26
f 33 26 29
f 29 26 28
f 28 26 27
f 23 24 22
f 22 24 25
f 22 25 26
f 29 30 33
f 33 30 31
f 33 31 32
f 36 37 87
f 87 37 86
f 86 37 38
f 86 38 39
f 40 53 39
f 39 53 54
f 39 54 85
f 85 54 55
f 85 55 56
f 53 40 48
f 48 40 41
f 48 41 45
f 45 41 44
f 44 41 43
f 43 41 42
f 45 46 48
f 48 46 47
f 53 48 52
f 52 48 49
f 52 49 50
f 50 51 52
f 85 56 84
f 84 56 57
f 84 57 58
f 84 58 73
f 73 58 59
f 73 59 72
f 72 59 60
f 72 60 71
f 71 60 64
f 71 64 67
f 67 64 65
f 67 65 66
f 61 62 60
f 60 62 63
f 60 63 64
f 67 68 71
f 71 68 69
f 71 69 70
f 84 73 83
f 83 73 74
f 83 74 75
f 83 75 82
f 82 75 76
f 82 76 77
f 85 86 39
f 88 89 91
f 91 89 90
f 92 93 95
f 95 93 94
f 103 96 102
f 102 96 97
f 102 97 101
f 101 97 98
f 101 98 100
f 100 98 99
f 104 105 107
f 107 105 106
f 108 109 111
f 111 109 110
f 112 113 115
f 115 113 114
f 116 117 119
f 119 117 118
f 120 121 123
f 123 121 122
f 124 125 127
f 127 125 126
f 128 129 131
f 131 129 130
f 132 133 135
f 135 133 134
f 136 137 139
f 139 137 138
f 140 141 143
f 143 141 142
f 144 145 147
f 147 145 146
f 148 149 151
f 151 149 150
f 152 153 155
f 155 153 154
f 156 157 159
f 159 157 158
f 160 161 163
f 163 161 162
f 164 165 167
f 167 165 166
f 168 169 171
f 171 169 170
f 172 173 175
f 175 173 174
f 176 177 179
f 179 177 178
f 180 181 183
f 183 181 182
f 184 185 187
f 187 185 186
f 188 189 191
f 191 189 190
f 193 205 192
f 192 205 207
f 206 199 198
f 198 199 200
f 198 200 197
f 197 200 201
f 197 201 196
f 196 201 202
f 196 202 195
f 195 202 203
f 195 203 194
f 194 203 204
f 194 204 193
f 193 204 205
f 208 209 211
f 211 209 210
f 212 213 215
f 215 213 214
f 216 217 219
f 219 217 218
f 220 221 223
f 223 221 222
f 224 225 227
f 227 225 226
f 228 229 231
f 231 229 230
f 232 233 235
f 235 233 234
f 236 237 239
f 239 237 238
f 240 241 243
f 243 241 242
f 244 245 247
f 247 245 246
f 248 249 251
f 251 249 250
f 252 253 255
f 255 253 254
f 257 258 256
f 256 258 259
f 267 260 266
f 266 260 261
f 266 261 265
f 265 261 262
f 265 262 264
f 264 262 263
f 268 269 271
f 271 269 270
f 272 273 275
f 275 273 274
f 283 276 282
f 282 276 277
f 282 277 281
f 281 277 278
f 281 278 280
f 280 278 279
f 291 284 290
f 290 284 285
f 290 285 289
f 289 285 286
f 289 286 288
f 288 286 287
f 293 294 292
f 292 294 295
f 297 298 296
f 296 298 299
f 301 369 300
f 300 369 370
f 300 370 371
f 302 352 301
f 301 352 353
f 301 353 354
f 303 350 302
f 302 350 351
f 302 351 352
f 304 333 303
f 303 333 334
f 303 334 335
f 305 316 304
f 304 316 331
f 304 331 332
f 306 314 305
f 305 314 315
f 305 315 316
f 300 373 306
f 306 373 312
f 306 312 313
f 382 307 310
f 310 307 308
f 310 308 309
f 311 375 310
f 310 375 379
f 310 379 382
f 382 379 380
f 382 380 381
f 375 311 374
f 374 311 312
f 374 312 373
f 313 314 306
f 331 316 330
f 330 316 317
f 330 317 329
f 329 317 318
f 329 318 325
f 325 318 322
f 325 322 324
f 324 322 323
f 319 320 318
f 318 320 321
f 318 321 322
f 325 326 329
f 329 326 327
f 329 327 328
f 332 333 304
f 303 335 350
f 350 335 336
f 350 336 349
f 349 336 337
f 349 337 348
f 348 337 341
f 348 341 344
f 344 341 343
f 343 341 342
f 338 339 337
f 337 339 340
f 337 340 341
f 344 345 348
f 348 345 346
f 348 346 347
f 355 368 354
f 354 368 369
f 354 369 301
f 368 355 363
f 363 355 356
f 363 356 360
f 360 356 359
f 359 356 358
f 358 356 357
f 360 361 363
f 363 361 362
f 368 363 367
f 367 363 364
f 367 364 365
f 365 366 367
f 371 372 300
f 300 372 373
f 376 377 375
f 375 377 378
f 375 378 379
f 384 385 383
f 383 385 386
f 388 389 387
f 387 389 390
f 392 393 391
f 391 393 394
f 396 397 395
f 395 397 398
f 399 400 402
f 402 400 401
f 403 404 406
f 406 404 405
f 407 408 410
f 410 408 409
f 411 412 414
f 414 412 413
f 415 416 418
f 418 416 417
f 419 420 422
f 422 420 421
f 423 424 426
f 426 424 425
f 427 428 430
f 430 428 429
f 431 432 434
f 434 432 433
f 435 436 438
f 438 436 437
f 439 440 442
f 442 440 441
f 443 444 446
f 446 444 445
f 447 448 450
f 450 448 449
f 451 452 454
f 454 452 453
f 455 456 458
f 458 456 457
f 459 460 462
f 462 460 461
f 463 464 466
f 466 464 465
f 467 468 470
f 470 468 469
