v 0.0625 0.09100000381 0.4848767549
v 0.06323223114 0.09100000381 0.4866445238
v 0.065 0.09100000381 0.4873767549
v 0.06676776886 0.09100000381 0.4866445238
v 0.0675 0.09100000381 0.4848767549
v 0.06676776886 0.09100000381 0.4831089861
v 0.065 0.09100000381 0.4823767549
v 0.06323223114 0.09100000381 0.4831089861
v 0.06074999809 0.06099999905 0.4848767549
v 0.06156167984 0.06099999905 0.4823786623
v 0.06368667603 0.06099999905 0.4808347589
v 0.06631332397 0.06099999905 0.4808347589
v 0.06843832016 0.06099999905 0.4823786623
v 0.06925000191 0.06099999905 0.4848767549
v 0.06843832016 0.06099999905 0.4873748476
v 0.06631332397 0.06099999905 0.4889187509
v 0.06368667603 0.06099999905 0.4889187509
v 0.06156167984 0.06099999905 0.4873748476
v 0.06074999809 0.06599999905 0.4848767549
v 0.06156167984 0.06599999905 0.4823786623
v 0.06368667603 0.06599999905 0.4808347589
v 0.06631332397 0.06599999905 0.4808347589
v 0.06843832016 0.06599999905 0.4823786623
v 0.06925000191 0.06599999905 0.4848767549
v 0.06843832016 0.06599999905 0.4873748476
v 0.06631332397 0.06599999905 0.4889187509
v 0.06368667603 0.06599999905 0.4889187509
v 0.06156167984 0.06599999905 0.4873748476
v 0.06074999809 0.06099999905 0.4848767549
v 0.06156167984 0.06099999905 0.4873748476
v 0.06368667603 0.06099999905 0.4889187509
v 0.06631332397 0.06099999905 0.4889187509
v 0.06843832016 0.06099999905 0.4873748476
v 0.06925000191 0.06099999905 0.4848767549
v 0.06843832016 0.06099999905 0.4823786623
v 0.06631332397 0.06099999905 0.4808347589
v 0.06368667603 0.06099999905 0.4808347589
v 0.06156167984 0.06099999905 0.4823786623
v 0.06074999809 0.06099999905 0.4848767549
v 0.06074999809 0.06599999905 0.4848767549
v 0.06074999809 0.06599999905 0.4848767549
v 0.06156167984 0.06599999905 0.4873748476
v 0.06368667603 0.06599999905 0.4889187509
v 0.06631332397 0.06599999905 0.4889187509
v 0.06843832016 0.06599999905 0.4873748476
v 0.06925000191 0.06599999905 0.4848767549
v 0.06843832016 0.06599999905 0.4823786623
v 0.06631332397 0.06599999905 0.4808347589
v 0.06368667603 0.06599999905 0.4808347589
v 0.06156167984 0.06599999905 0.4823786623
v 0.0625 0.06599999905 0.4848767549
v 0.06323223114 0.06599999905 0.4831089861
v 0.065 0.06599999905 0.4823767549
v 0.06676776886 0.06599999905 0.4831089861
v 0.0675 0.06599999905 0.4848767549
v 0.06676776886 0.06599999905 0.4866445238
v 0.065 0.06599999905 0.4873767549
v 0.06323223114 0.06599999905 0.4866445238
v 0.0625 0.09100000381 0.4848767549
v 0.06323223114 0.09100000381 0.4831089861
v 0.065 0.09100000381 0.4823767549
v 0.06676776886 0.09100000381 0.4831089861
v 0.0675 0.09100000381 0.4848767549
v 0.06676776886 0.09100000381 0.4866445238
v 0.065 0.09100000381 0.4873767549
v 0.06323223114 0.09100000381 0.4866445238
v 0.0625 0.06599999905 0.4848767549
v 0.06323223114 0.06599999905 0.4866445238
v 0.065 0.06599999905 0.4873767549
v 0.06676776886 0.06599999905 0.4866445238
v 0.0675 0.06599999905 0.4848767549
v 0.06676776886 0.06599999905 0.4831089861
v 0.065 0.06599999905 0.4823767549
v 0.06323223114 0.06599999905 0.4831089861
v 0.0625 0.06599999905 0.4848767549
v 0.0625 0.09100000381 0.4848767549
f 2 4 1
f 1 4 5
f 1 5 8
f 8 5 6
f 8 6 7
f 2 3 4
f 10 13 9
f 9 13 14
f 9 14 18
f 18 14 15
f 18 15 17
f 17 15 16
f 11 12 10
f 10 12 13
f 20 38 19
f 19 38 39
f 40 29 28
f 28 29 30
f 28 30 27
f 27 30 31
f 27 31 26
f 26 31 32
f 26 32 25
f 25 32 33
f 25 33 24
f 24 33 34
f 24 34 23
f 23 34 35
f 23 35 22
f 22 35 36
f 22 36 21
f 21 36 37
f 21 37 20
f 20 37 38
f 50 41 51
f 51 41 42
f 51 42 58
f 58 42 43
f 58 43 57
f 57 43 44
f 57 44 56
f 56 44 45
f 56 45 55
f 55 45 46
f 55 46 47
f 55 47 54
f 54 47 48
f 54 48 53
f 53 48 49
f 53 49 52
f 52 49 50
f 52 50 51
f 60 74 59
f 59 74 75
f 76 67 66
f 66 67 68
f 66 68 69
f 60 61 74
f 74 61 73
f 73 61 62
f 73 62 72
f 72 62 63
f 72 63 71
f 71 63 64
f 71 64 70
f 70 64 65
f 70 65 69
f 69 65 66
