v 0.2389999962 0.08774999619 0.07800000191
v 0.2389999962 0.08855545998 0.07605545521
v 0.2389999962 0.09050000191 0.07525000095
v 0.2389999962 0.09244454384 0.07605545521
v 0.2389999962 0.09324999809 0.07800000191
v 0.2389999962 0.09244454384 0.07994454384
v 0.2389999962 0.09050000191 0.08074999809
v 0.2389999962 0.08855545998 0.07994454384
v 0.235 0.08774999619 0.07800000191
v 0.235 0.08855545998 0.07994454384
v 0.235 0.09050000191 0.08074999809
v 0.235 0.09244454384 0.07994454384
v 0.235 0.09324999809 0.07800000191
v 0.235 0.09244454384 0.07605545521
v 0.235 0.09050000191 0.07525000095
v 0.235 0.08855545998 0.07605545521
v 0.2389999962 0.08774999619 0.07800000191
v 0.235 0.08774999619 0.07800000191
v 0.2389999962 0.08774999619 0.04800000191
v 0.2389999962 0.08855545998 0.04605545521
v 0.2389999962 0.09050000191 0.04525000095
v 0.2389999962 0.09244454384 0.04605545521
v 0.2389999962 0.09324999809 0.04800000191
v 0.2389999962 0.09244454384 0.04994454384
v 0.2389999962 0.09050000191 0.05074999809
v 0.2389999962 0.08855545998 0.04994454384
v 0.235 0.08774999619 0.04800000191
v 0.235 0.08855545998 0.04994454384
v 0.235 0.09050000191 0.05074999809
v 0.235 0.09244454384 0.04994454384
v 0.235 0.09324999809 0.04800000191
v 0.235 0.09244454384 0.04605545521
v 0.235 0.09050000191 0.04525000095
v 0.235 0.08855545998 0.04605545521
v 0.2389999962 0.08774999619 0.04800000191
v 0.235 0.08774999619 0.04800000191
v 0.2389999962 0.03775000095 0.02799999952
v 0.2389999962 0.03855545521 0.02605545521
v 0.2389999962 0.04050000191 0.02525000095
v 0.2389999962 0.04244454384 0.02605545521
v 0.2389999962 0.04324999809 0.02799999952
v 0.2389999962 0.04244454384 0.02994454384
v 0.2389999962 0.04050000191 0.03075000048
v 0.2389999962 0.03855545521 0.02994454384
v 0.235 0.03775000095 0.02799999952
v 0.235 0.03855545521 0.02994454384
v 0.235 0.04050000191 0.03075000048
v 0.235 0.04244454384 0.02994454384
v 0.235 0.04324999809 0.02799999952
v 0.235 0.04244454384 0.02605545521
v 0.235 0.04050000191 0.02525000095
v 0.235 0.03855545521 0.02605545521
v 0.2389999962 0.03775000095 0.02799999952
v 0.235 0.03775000095 0.02799999952
v 0.2389999962 0.07775000095 0.02799999952
v 0.2389999962 0.07855545521 0.02605545521
v 0.2389999962 0.08050000191 0.02525000095
v 0.2389999962 0.08244454384 0.02605545521
v 0.2389999962 0.08324999809 0.02799999952
v 0.2389999962 0.08244454384 0.02994454384
v 0.2389999962 0.08050000191 0.03075000048
v 0.2389999962 0.07855545521 0.02994454384
v 0.235 0.07775000095 0.02799999952
v 0.235 0.07855545521 0.02994454384
v 0.235 0.08050000191 0.03075000048
v 0.235 0.08244454384 0.02994454384
v 0.235 0.08324999809 0.02799999952
v 0.235 0.08244454384 0.02605545521
v 0.235 0.08050000191 0.02525000095
v 0.235 0.07855545521 0.02605545521
v 0.2389999962 0.07775000095 0.02799999952
v 0.235 0.07775000095 0.02799999952
v 0.2389999962 0.08774999619 0.07800000191
v 0.2389999962 0.08855545998 0.07994454384
v 0.2389999962 0.09050000191 0.08074999809
v 0.2389999962 0.09244454384 0.07994454384
v 0.2389999962 0.09324999809 0.07800000191
v 0.2389999962 0.09244454384 0.07605545521
v 0.2389999962 0.09050000191 0.07525000095
v 0.2389999962 0.08855545998 0.07605545521
v 0.2389999962 0.08774999619 0.04800000191
v 0.2389999962 0.08855545998 0.04994454384
v 0.2389999962 0.09050000191 0.05074999809
v 0.2389999962 0.09244454384 0.04994454384
v 0.2389999962 0.09324999809 0.04800000191
v 0.2389999962 0.09244454384 0.04605545521
v 0.2389999962 0.09050000191 0.04525000095
v 0.2389999962 0.08855545998 0.04605545521
v 0.2389999962 0.07775000095 0.02799999952
v 0.2389999962 0.07855545521 0.02994454384
v 0.2389999962 0.08050000191 0.03075000048
v 0.2389999962 0.08244454384 0.02994454384
v 0.2389999962 0.08324999809 0.02799999952
v 0.2389999962 0.08244454384 0.02605545521
v 0.2389999962 0.08050000191 0.02525000095
v 0.2389999962 0.07855545521 0.02605545521
v 0.2389999962 0.03775000095 0.02799999952
v 0.2389999962 0.03855545521 0.02994454384
v 0.2389999962 0.04050000191 0.03075000048
v 0.2389999962 0.04244454384 0.02994454384
v 0.2389999962 0.04324999809 0.02799999952
v 0.2389999962 0.04244454384 0.02605545521
v 0.2389999962 0.04050000191 0.02525000095
v 0.2389999962 0.03855545521 0.02605545521
v 0.2389999962 0.1005000019 0.09800000191
v 0.2389999962 0.02049999952 0.01799999952
v 0.2389999962 0.1005000019 0.01799999952
v 0.235 0.08774999619 0.07800000191
v 0.235 0.08855545998 0.07605545521
v 0.235 0.09050000191 0.07525000095
v 0.235 0.09244454384 0.07605545521
v 0.235 0.09324999809 0.07800000191
v 0.235 0.09244454384 0.07994454384
v 0.235 0.09050000191 0.08074999809
v 0.235 0.08855545998 0.07994454384
v 0.235 0.08774999619 0.04800000191
v 0.235 0.08855545998 0.04605545521
v 0.235 0.09050000191 0.04525000095
v 0.235 0.09244454384 0.04605545521
v 0.235 0.09324999809 0.04800000191
v 0.235 0.09244454384 0.04994454384
v 0.235 0.09050000191 0.05074999809
v 0.235 0.08855545998 0.04994454384
v 0.235 0.07775000095 0.02799999952
v 0.235 0.07855545521 0.02605545521
v 0.235 0.08050000191 0.02525000095
v 0.235 0.08244454384 0.02605545521
v 0.235 0.08324999809 0.02799999952
v 0.235 0.08244454384 0.02994454384
v 0.235 0.08050000191 0.03075000048
v 0.235 0.07855545521 0.02994454384
v 0.235 0.03775000095 0.02799999952
v 0.235 0.03855545521 0.02605545521
v 0.235 0.04050000191 0.02525000095
v 0.235 0.04244454384 0.02605545521
v 0.235 0.04324999809 0.02799999952
v 0.235 0.04244454384 0.02994454384
v 0.235 0.04050000191 0.03075000048
v 0.235 0.03855545521 0.02994454384
v 0.235 0.02049999952 0.01799999952
v 0.235 0.1005000019 0.09800000191
v 0.235 0.1005000019 0.01799999952
v 0.235 0.1005000019 0.09800000191
v 0.235 0.02049999952 0.01799999952
v 0.2389999962 0.02049999952 0.01799999952
v 0.2389999962 0.1005000019 0.09800000191
v 0.235 0.02049999952 0.01799999952
v 0.235 0.1005000019 0.01799999952
v 0.2389999962 0.1005000019 0.01799999952
v 0.2389999962 0.02049999952 0.01799999952
v 0.235 0.1005000019 0.01799999952
v 0.235 0.1005000019 0.09800000191
v 0.2389999962 0.1005000019 0.09800000191
v 0.2389999962 0.1005000019 0.01799999952
f 2 16 1
f 1 16 18
f 17 9 8
f 8 9 10
f 8 10 7
f 7 10 11
f 7 11 6
f 6 11 12
f 6 12 5
f 5 12 13
f 5 13 4
f 4 13 14
f 4 14 3
f 3 14 15
f 3 15 2
f 2 15 16
f 20 34 19
f 19 34 36
f 35 27 26
f 26 27 28
f 26 28 25
f 25 28 29
f 25 29 24
f 24 29 30
f 24 30 23
f 23 30 31
f 23 31 22
f 22 31 32
f 22 32 21
f 21 32 33
f 21 33 20
f 20 33 34
f 38 52 37
f 37 52 54
f 53 45 44
f 44 45 46
f 44 46 43
f 43 46 47
f 43 47 42
f 42 47 48
f 42 48 41
f 41 48 49
f 41 49 40
f 40 49 50
f 40 50 39
f 39 50 51
f 39 51 38
f 38 51 52
f 56 70 55
f 55 70 72
f 71 63 62
f 62 63 64
f 62 64 61
f 61 64 65
f 61 65 60
f 60 65 66
f 60 66 59
f 59 66 67
f 59 67 58
f 58 67 68
f 58 68 57
f 57 68 69
f 57 69 56
f 56 69 70
f 74 98 73
f 73 98 99
f 73 99 80
f 80 99 100
f 80 100 82
f 82 100 81
f 81 100 90
f 81 90 91
f 75 105 74
f 74 105 106
f 74 106 98
f 98 106 97
f 97 106 104
f 104 106 103
f 103 106 107
f 103 107 95
f 95 107 94
f 94 107 93
f 93 107 86
f 93 86 87
f 75 76 105
f 105 76 77
f 105 77 85
f 85 77 78
f 85 78 84
f 84 78 79
f 84 79 83
f 83 79 80
f 83 80 82
f 105 85 107
f 107 85 86
f 93 87 92
f 92 87 88
f 92 88 91
f 91 88 81
f 90 100 89
f 89 100 101
f 89 101 96
f 96 101 102
f 96 102 95
f 95 102 103
f 109 138 108
f 108 138 139
f 108 139 115
f 115 139 140
f 115 140 141
f 110 122 109
f 109 122 123
f 109 123 137
f 137 123 116
f 137 116 131
f 131 116 130
f 130 116 117
f 130 117 129
f 129 117 118
f 129 118 128
f 128 118 119
f 128 119 142
f 142 119 120
f 142 120 141
f 141 120 112
f 141 112 113
f 122 110 121
f 121 110 111
f 121 111 120
f 120 111 112
f 113 114 141
f 141 114 115
f 125 135 124
f 124 135 136
f 124 136 131
f 131 136 137
f 135 125 134
f 134 125 126
f 134 126 140
f 140 126 142
f 142 126 127
f 142 127 128
f 139 132 140
f 140 132 133
f 140 133 134
f 137 138 109
f 143 144 146
f 146 144 145
f 147 148 150
f 150 148 149
f 151 152 154
f 154 152 153
