v -0.2275 0.08569999695 0.4198767549
v -0.2267677689 0.08569999695 0.4216445238
v -0.225 0.08569999695 0.4223767549
v -0.2232322311 0.08569999695 0.4216445238
v -0.2225 0.08569999695 0.4198767549
v -0.2232322311 0.08569999695 0.4181089861
v -0.225 0.08569999695 0.4173767549
v -0.2267677689 0.08569999695 0.4181089861
v -0.2275 0.08229999542 0.4198767549
v -0.2267677689 0.08229999542 0.4181089861
v -0.225 0.08229999542 0.4173767549
v -0.2232322311 0.08229999542 0.4181089861
v -0.2225 0.08229999542 0.4198767549
v -0.2232322311 0.08229999542 0.4216445238
v -0.225 0.08229999542 0.4223767549
v -0.2267677689 0.08229999542 0.4216445238
v -0.2275 0.08569999695 0.4198767549
v -0.2275 0.08229999542 0.4198767549
v -0.2285000038 0.08569999695 0.4248767549
v -0.23 0.08229999542 0.4248767549
v -0.22 0.08229999542 0.4248767549
v -0.2214999962 0.08569999695 0.4248767549
v -0.2275 0.08229999542 0.4198767549
v -0.2267677689 0.08229999542 0.4216445238
v -0.225 0.08229999542 0.4223767549
v -0.2232322311 0.08229999542 0.4216445238
v -0.2225 0.08229999542 0.4198767549
v -0.2232322311 0.08229999542 0.4181089861
v -0.225 0.08229999542 0.4173767549
v -0.2267677689 0.08229999542 0.4181089861
v -0.23 0.08229999542 0.4148767549
v -0.22 0.08229999542 0.4148767549
v -0.22 0.08229999542 0.4248767549
v -0.23 0.08229999542 0.4248767549
v -0.2285000038 0.08569999695 0.4148767549
v -0.23 0.08229999542 0.4148767549
v -0.23 0.08229999542 0.4248767549
v -0.2285000038 0.08569999695 0.4248767549
v -0.22 0.08229999542 0.4148767549
v -0.2214999962 0.08569999695 0.4148767549
v -0.2214999962 0.08569999695 0.4248767549
v -0.22 0.08229999542 0.4248767549
v -0.23 0.08229999542 0.4148767549
v -0.2285000038 0.08569999695 0.4148767549
v -0.2214999962 0.08569999695 0.4148767549
v -0.22 0.08229999542 0.4148767549
v -0.2275 0.08569999695 0.4198767549
v -0.2267677689 0.08569999695 0.4181089861
v -0.225 0.08569999695 0.4173767549
v -0.2232322311 0.08569999695 0.4181089861
v -0.2225 0.08569999695 0.4198767549
v -0.2232322311 0.08569999695 0.4216445238
v -0.225 0.08569999695 0.4223767549
v -0.2267677689 0.08569999695 0.4216445238
v -0.2214999962 0.08569999695 0.4148767549
v -0.2285000038 0.08569999695 0.4148767549
v -0.2285000038 0.08569999695 0.4248767549
v -0.2214999962 0.08569999695 0.4248767549
f 2 16 1
f 1 16 18
f 17 9 8
f 8 9 10
f 8 10 11
f 2 3 16
f 16 3 15
f 15 3 4
f 15 4 14
f 14 4 5
f 14 5 13
f 13 5 6
f 13 6 12
f 12 6 7
f 12 7 11
f 11 7 8
f 20 21 19
f 19 21 22
f 24 34 23
f 23 34 31
f 23 31 30
f 30 31 29
f 29 31 32
f 29 32 28
f 28 32 27
f 27 32 33
f 27 33 26
f 26 33 25
f 25 33 34
f 25 34 24
f 35 36 38
f 38 36 37
f 39 40 42
f 42 40 41
f 44 45 43
f 43 45 46
f 48 56 47
f 47 56 57
f 47 57 54
f 54 57 53
f 53 57 58
f 53 58 52
f 52 58 51
f 51 58 55
f 51 55 50
f 50 55 49
f 49 55 56
f 49 56 48
