v -0.03593451738 0.1060000038 0.4061312753
v -0.0378790617 0.1060000038 0.4069367296
v -0.03982360363 0.1060000038 0.4061312753
v -0.04062906265 0.1060000038 0.4041867334
v -0.03982360363 0.1060000038 0.4022421915
v -0.0378790617 0.1060000038 0.4014367277
v -0.03593451738 0.1060000038 0.4022421915
v -0.03512906075 0.1060000038 0.4041867334
v -0.03667697906 0.1060000038 0.4053888113
v -0.03623698711 0.1060000038 0.4037467367
v -0.03743906736 0.1060000038 0.4025446588
v -0.03908114195 0.1060000038 0.402984646
v -0.0395211339 0.1060000038 0.4046267206
v -0.03831905365 0.1060000038 0.405828808
v -0.03593451738 0.1088000011 0.4061312753
v -0.0378790617 0.1088000011 0.4069367296
v -0.03982360363 0.1088000011 0.4061312753
v -0.04062906265 0.1088000011 0.4041867334
v -0.03982360363 0.1088000011 0.4022421915
v -0.0378790617 0.1088000011 0.4014367277
v -0.03593451738 0.1088000011 0.4022421915
v -0.03512906075 0.1088000011 0.4041867334
v -0.03593451738 0.1060000038 0.4061312753
v -0.03512906075 0.1060000038 0.4041867334
v -0.03593451738 0.1060000038 0.4022421915
v -0.0378790617 0.1060000038 0.4014367277
v -0.03982360363 0.1060000038 0.4022421915
v -0.04062906265 0.1060000038 0.4041867334
v -0.03982360363 0.1060000038 0.4061312753
v -0.0378790617 0.1060000038 0.4069367296
v -0.03593451738 0.1060000038 0.4061312753
v -0.03593451738 0.1088000011 0.4061312753
v -0.03607593775 0.1089999962 0.405989855
v -0.0378790617 0.1089999962 0.4067367345
v -0.03968218327 0.1089999962 0.405989855
v -0.04042906284 0.1089999962 0.4041867334
v -0.03968218327 0.1089999962 0.4023836118
v -0.0378790617 0.1089999962 0.4016367323
v -0.03607593775 0.1089999962 0.4023836118
v -0.03532906055 0.1089999962 0.4041867334
v -0.03593451738 0.1088000011 0.4061312753
v -0.03512906075 0.1088000011 0.4041867334
v -0.03593451738 0.1088000011 0.4022421915
v -0.0378790617 0.1088000011 0.4014367277
v -0.03982360363 0.1088000011 0.4022421915
v -0.04062906265 0.1088000011 0.4041867334
v -0.03982360363 0.1088000011 0.4061312753
v -0.0378790617 0.1088000011 0.4069367296
v -0.0378790617 0.1089999962 0.4067367345
v -0.0378790617 0.1088000011 0.4069367296
v -0.03607593775 0.1089999962 0.405989855
v -0.03532906055 0.1089999962 0.4041867334
v -0.03607593775 0.1089999962 0.4023836118
v -0.0378790617 0.1089999962 0.4016367323
v -0.03968218327 0.1089999962 0.4023836118
v -0.04042906284 0.1089999962 0.4041867334
v -0.03968218327 0.1089999962 0.405989855
v -0.0378790617 0.1089999962 0.4067367345
v -0.03893948555 0.1089999962 0.4052471525
v -0.03932862997 0.1089999962 0.403797825
v -0.03826749802 0.1089999962 0.4027366907
v -0.03681816578 0.1089999962 0.4031258375
v -0.03642902136 0.1089999962 0.404575165
v -0.03749015093 0.1089999962 0.4056362993
v -0.03893948555 0.1077000046 0.4052471525
v -0.03893948555 0.1089999962 0.4052471525
v -0.03749015093 0.1089999962 0.4056362993
v -0.03749015093 0.1077000046 0.4056362993
v -0.03749240398 0.1077000046 0.4056356985
v -0.03749240398 0.1077000046 0.4056356985
v -0.03801078796 0.1077000046 0.4056805975
v -0.03851331234 0.1077000046 0.4055456716
v -0.03893948555 0.1077000046 0.4052471525
v -0.03643114328 0.1077000046 0.4045772916
v -0.03665108442 0.1077000046 0.4050475866
v -0.03701820374 0.1077000046 0.4054147035
v -0.03748849869 0.1077000046 0.4056346494
v -0.03667697906 0.1060000038 0.4053888113
v -0.03831905365 0.1060000038 0.405828808
v -0.0395211339 0.1060000038 0.4046267206
v -0.03908114195 0.1060000038 0.402984646
v -0.03743906736 0.1060000038 0.4025446588
v -0.03623698711 0.1060000038 0.4037467367
v -0.03681840181 0.1057999992 0.4052473909
v -0.03643017292 0.1057999992 0.4037985021
v -0.03749083281 0.1057999992 0.4027378446
v -0.03893972158 0.1057999992 0.4031260759
v -0.03932795048 0.1057999992 0.4045749647
v -0.03826729059 0.1057999992 0.4056356222
v -0.03908114195 0.1060000038 0.402984646
v -0.03893972158 0.1057999992 0.4031260759
v -0.03681781769 0.1077000046 0.4031271249
v -0.0365199542 0.1077000046 0.4035528261
v -0.03638522387 0.1077000046 0.4040546209
v -0.0364297986 0.1077000046 0.4045722658
v -0.03681840181 0.09630000114 0.4031260759
v -0.03826729059 0.09630000114 0.4027378446
v -0.03932795048 0.09630000114 0.4037985021
v -0.03893972158 0.09630000114 0.4052473909
v -0.03749083281 0.09630000114 0.4056356222
v -0.03643017292 0.09630000114 0.4045749647
v -0.03681840181 0.1057999992 0.4052473909
v -0.03826729059 0.1057999992 0.4056356222
v -0.03932795048 0.1057999992 0.4045749647
v -0.03893972158 0.1057999992 0.4031260759
v -0.03749083281 0.1057999992 0.4027378446
v -0.03643017292 0.1057999992 0.4037985021
v -0.03826729059 0.09630000114 0.4027378446
v -0.03893972158 0.1057999992 0.4031260759
v -0.03826459885 0.1077000046 0.4027374727
v -0.03774695158 0.1077000046 0.402692898
v -0.03724515915 0.1077000046 0.4028276235
v -0.03681945562 0.1077000046 0.4031254846
v -0.03681840181 0.09630000114 0.4031260759
v -0.03643017292 0.09630000114 0.4045749647
v -0.03749083281 0.09630000114 0.4056356222
v -0.03893972158 0.09630000114 0.4052473909
v -0.03932795048 0.09630000114 0.4037985021
v -0.03826729059 0.09630000114 0.4027378446
v -0.03703053236 0.09600000381 0.4050352556
v -0.03680985212 0.09600000381 0.4036419469
v -0.03806678295 0.09600000381 0.403001507
v -0.03906428576 0.09600000381 0.4039990122
v -0.03842385054 0.09600000381 0.4052559358
v -0.03906428576 0.09600000381 0.4039990122
v -0.03893972158 0.09630000114 0.4052473909
v -0.03932697773 0.1077000046 0.4037961656
v -0.03910703659 0.1077000046 0.4033258707
v -0.03873991728 0.1077000046 0.4029587537
v -0.03826962233 0.1077000046 0.4027388174
v -0.03932802439 0.1077000046 0.4038000757
v -0.03932862997 0.1077000046 0.403797825
v -0.03932862997 0.1089999962 0.403797825
v -0.03893948555 0.1089999962 0.4052471525
v -0.03893948555 0.1077000046 0.4052471525
v -0.03703053236 0.09600000381 0.4050352556
v -0.03842385054 0.09600000381 0.4052559358
v -0.03906428576 0.09600000381 0.4039990122
v -0.03806678295 0.09600000381 0.403001507
v -0.03680985212 0.09600000381 0.4036419469
v -0.03893948555 0.1077000046 0.4052471525
v -0.03923800468 0.1077000046 0.404820984
v -0.03937293053 0.1077000046 0.4043184549
v -0.03932802439 0.1077000046 0.4038000757
v -0.03748849869 0.1077000046 0.4056346494
v -0.03701820374 0.1077000046 0.4054147035
v -0.03665108442 0.1077000046 0.4050475866
v -0.03643114328 0.1077000046 0.4045772916
v -0.03643069506 0.1077000046 0.4045756227
v -0.03643024445 0.1077000046 0.4045739442
v -0.0364297986 0.1077000046 0.4045722658
v -0.03638522387 0.1077000046 0.4040546209
v -0.0365199542 0.1077000046 0.4035528261
v -0.03681781769 0.1077000046 0.4031271249
v -0.03681816578 0.107700386 0.4031258375
v -0.03681945562 0.1077000046 0.4031254846
v -0.03724515915 0.1077000046 0.4028276235
v -0.03774695158 0.1077000046 0.402692898
v -0.03826459885 0.1077000046 0.4027374727
v -0.03826627493 0.1077000046 0.4027379114
v -0.03826794863 0.1077000046 0.4027383691
v -0.03826962233 0.1077000046 0.4027388174
v -0.03873991728 0.1077000046 0.4029587537
v -0.03910703659 0.1077000046 0.4033258707
v -0.03932697773 0.1077000046 0.4037961656
v -0.03932732821 0.1077000046 0.4037974722
v -0.0393276763 0.1077000046 0.4037987692
v -0.03932802439 0.1077000046 0.4038000757
v -0.03937293053 0.1077000046 0.4043184549
v -0.03923800468 0.1077000046 0.404820984
v -0.03893948555 0.1077000046 0.4052471525
v -0.03851331234 0.1077000046 0.4055456716
v -0.03801078796 0.1077000046 0.4056805975
v -0.03749240398 0.1077000046 0.4056356985
v -0.03749110222 0.1077000046 0.4056353456
v -0.03748980045 0.1077000046 0.4056350023
v -0.0378790617 0.1068341637 0.4041867334
v -0.03893948555 0.1077000046 0.4052471525
v -0.0378790617 0.1068341637 0.4041867334
v -0.0378790617 0.1068341637 0.4041867334
v -0.0378790617 0.1068341637 0.4041867334
v -0.0378790617 0.1068341637 0.4041867334
v -0.0378790617 0.1068341637 0.4041867334
v -0.0378790617 0.1068341637 0.4041867334
v -0.03826962233 0.1077000046 0.4027388174
v -0.03826749802 0.1077000046 0.4027366907
v -0.03826749802 0.1089999962 0.4027366907
v -0.03932862997 0.1089999962 0.403797825
v -0.03932862997 0.1077000046 0.403797825
v -0.03932697773 0.1077000046 0.4037961656
v -0.03749240398 0.1077000046 0.4056356985
v -0.03749015093 0.1077000046 0.4056362993
v -0.03748849869 0.1077000046 0.4056346494
v -0.03748980045 0.1077000046 0.4056350023
v -0.03749110222 0.1077000046 0.4056353456
v -0.03748849869 0.1077000046 0.4056346494
v -0.03749015093 0.1077000046 0.4056362993
v -0.03749015093 0.1089999962 0.4056362993
v -0.03642902136 0.1089999962 0.404575165
v -0.03642902136 0.1077000046 0.404575165
v -0.03643114328 0.1077000046 0.4045772916
v -0.03681945562 0.1077000046 0.4031254846
v -0.03681816578 0.107700386 0.4031258375
v -0.03681816578 0.1089999962 0.4031258375
v -0.03826749802 0.1089999962 0.4027366907
v -0.03826749802 0.1077000046 0.4027366907
v -0.03826459885 0.1077000046 0.4027374727
v -0.03643114328 0.1077000046 0.4045772916
v -0.03642902136 0.1077000046 0.404575165
v -0.0364297986 0.1077000046 0.4045722658
v -0.03643024445 0.1077000046 0.4045739442
v -0.03643069506 0.1077000046 0.4045756227
v -0.0364297986 0.1077000046 0.4045722658
v -0.03642902136 0.1077000046 0.404575165
v -0.03642902136 0.1089999962 0.404575165
v -0.03681816578 0.1089999962 0.4031258375
v -0.03681816578 0.107700386 0.4031258375
v -0.03681781769 0.1077000046 0.4031271249
v -0.03932697773 0.1077000046 0.4037961656
v -0.03932862997 0.1077000046 0.403797825
v -0.03932802439 0.1077000046 0.4038000757
v -0.0393276763 0.1077000046 0.4037987692
v -0.03932732821 0.1077000046 0.4037974722
v -0.03826459885 0.1077000046 0.4027374727
v -0.03826749802 0.1077000046 0.4027366907
v -0.03826962233 0.1077000046 0.4027388174
v -0.03826794863 0.1077000046 0.4027383691
v -0.03826627493 0.1077000046 0.4027379114
f 8 1 9
f 9 1 2
f 9 2 14
f 14 2 3
f 14 3 13
f 13 3 4
f 13 4 12
f 12 4 5
f 12 5 6
f 12 6 11
f 11 6 7
f 11 7 10
f 10 7 8
f 10 8 9
f 16 30 15
f 15 30 31
f 32 23 22
f 22 23 24
f 22 24 21
f 21 24 25
f 21 25 20
f 20 25 26
f 20 26 19
f 19 26 27
f 19 27 18
f 18 27 28
f 18 28 17
f 17 28 29
f 17 29 16
f 16 29 30
f 40 33 41
f 41 33 49
f 41 49 48
f 50 34 47
f 47 34 35
f 47 35 46
f 46 35 36
f 46 36 45
f 45 36 37
f 45 37 44
f 44 37 38
f 44 38 43
f 43 38 39
f 43 39 42
f 42 39 40
f 42 40 41
f 52 63 51
f 51 63 64
f 51 64 58
f 58 64 59
f 58 59 57
f 57 59 56
f 56 59 60
f 56 60 55
f 55 60 61
f 55 61 54
f 54 61 62
f 54 62 53
f 53 62 52
f 52 62 63
f 65 66 69
f 69 66 67
f 69 67 68
f 70 71 73
f 73 71 72
f 74 75 77
f 77 75 76
f 79 84 78
f 78 84 85
f 78 85 83
f 83 85 86
f 83 86 82
f 82 86 91
f 82 91 81
f 90 87 88
f 90 88 80
f 80 88 89
f 80 89 79
f 79 89 84
f 93 94 92
f 92 94 95
f 108 106 96
f 96 106 107
f 96 107 101
f 101 107 102
f 101 102 100
f 100 102 103
f 100 103 99
f 99 103 104
f 99 104 98
f 98 104 109
f 98 109 97
f 108 105 106
f 110 111 113
f 113 111 112
f 115 121 114
f 114 121 122
f 114 122 119
f 119 122 125
f 119 125 118
f 118 125 117
f 126 123 124
f 126 124 116
f 116 124 120
f 116 120 115
f 115 120 121
f 128 129 127
f 127 129 130
f 132 133 131
f 131 133 134
f 131 134 135
f 136 137 140
f 140 137 139
f 139 137 138
f 142 143 141
f 141 143 144
f 176 145 184
f 184 145 146
f 184 146 147
f 147 148 184
f 184 148 149
f 149 150 181
f 181 150 151
f 181 151 152
f 152 153 181
f 181 153 154
f 155 156 154
f 154 156 183
f 156 157 183
f 183 157 158
f 183 158 159
f 159 160 183
f 160 161 180
f 180 161 162
f 180 162 163
f 163 164 180
f 180 164 165
f 180 165 166
f 166 167 182
f 182 167 168
f 182 168 169
f 169 170 182
f 170 178 177
f 179 171 172
f 179 172 173
f 173 174 179
f 179 174 175
f 175 176 184
f 186 187 185
f 185 187 188
f 185 188 190
f 190 188 189
f 191 192 195
f 195 192 194
f 194 192 193
f 197 198 196
f 196 198 201
f 201 198 199
f 201 199 200
f 203 204 202
f 202 204 207
f 207 204 205
f 207 205 206
f 208 209 212
f 212 209 211
f 211 209 210
f 214 215 213
f 213 215 216
f 213 216 218
f 218 216 217
f 219 220 223
f 223 220 222
f 222 220 221
f 224 225 228
f 228 225 227
f 227 225 226
