v 0.2389999962 0.08784999847 0.04800000191
v 0.2389999962 0.08862616539 0.04987383366
v 0.2389999962 0.09050000191 0.05065000057
v 0.2389999962 0.09237382889 0.04987383366
v 0.2389999962 0.0931499958 0.04800000191
v 0.2389999962 0.09237382889 0.04612616539
v 0.2389999962 0.09050000191 0.04534999847
v 0.2389999962 0.08862616539 0.04612616539
v 0.24 0.08784999847 0.04800000191
v 0.24 0.08862616539 0.04612616539
v 0.24 0.09050000191 0.04534999847
v 0.24 0.09237382889 0.04612616539
v 0.24 0.0931499958 0.04800000191
v 0.24 0.09237382889 0.04987383366
v 0.24 0.09050000191 0.05065000057
v 0.24 0.08862616539 0.04987383366
v 0.2389999962 0.08784999847 0.04800000191
v 0.24 0.08784999847 0.04800000191
v 0.2389999962 0.08784999847 0.04800000191
v 0.2389999962 0.08862616539 0.04612616539
v 0.2389999962 0.09050000191 0.04534999847
v 0.2389999962 0.09237382889 0.04612616539
v 0.2389999962 0.0931499958 0.04800000191
v 0.2389999962 0.09237382889 0.04987383366
v 0.2389999962 0.09050000191 0.05065000057
v 0.2389999962 0.08862616539 0.04987383366
v 0.2389999962 0.08550000191 0.04800000191
v 0.2389999962 0.086454916 0.05093892574
v 0.2389999962 0.088954916 0.05275528431
v 0.2389999962 0.09204508781 0.05275528431
v 0.2389999962 0.09454508781 0.05093892574
v 0.2389999962 0.09550000191 0.04800000191
v 0.2389999962 0.09454508781 0.0450610733
v 0.2389999962 0.09204508781 0.04324471951
v 0.2389999962 0.088954916 0.04324471951
v 0.2389999962 0.086454916 0.0450610733
v 0.2389999962 0.08550000191 0.04800000191
v 0.2389999962 0.086454916 0.0450610733
v 0.2389999962 0.088954916 0.04324471951
v 0.2389999962 0.09204508781 0.04324471951
v 0.2389999962 0.09454508781 0.0450610733
v 0.2389999962 0.09550000191 0.04800000191
v 0.2389999962 0.09454508781 0.05093892574
v 0.2389999962 0.09204508781 0.05275528431
v 0.2389999962 0.088954916 0.05275528431
v 0.2389999962 0.086454916 0.05093892574
v 0.24 0.08550000191 0.04800000191
v 0.24 0.086454916 0.05093892574
v 0.24 0.088954916 0.05275528431
v 0.24 0.09204508781 0.05275528431
v 0.24 0.09454508781 0.05093892574
v 0.24 0.09550000191 0.04800000191
v 0.24 0.09454508781 0.0450610733
v 0.24 0.09204508781 0.04324471951
v 0.24 0.088954916 0.04324471951
v 0.24 0.086454916 0.0450610733
v 0.24 0.08550000191 0.04800000191
v 0.2389999962 0.08550000191 0.04800000191
v 0.24 0.08784999847 0.04800000191
v 0.24 0.08862616539 0.04987383366
v 0.24 0.09050000191 0.05065000057
v 0.24 0.09237382889 0.04987383366
v 0.24 0.0931499958 0.04800000191
v 0.24 0.09237382889 0.04612616539
v 0.24 0.09050000191 0.04534999847
v 0.24 0.08862616539 0.04612616539
v 0.24 0.08550000191 0.04800000191
v 0.24 0.086454916 0.0450610733
v 0.24 0.088954916 0.04324471951
v 0.24 0.09204508781 0.04324471951
v 0.24 0.09454508781 0.0450610733
v 0.24 0.09550000191 0.04800000191
v 0.24 0.09454508781 0.05093892574
v 0.24 0.09204508781 0.05275528431
v 0.24 0.088954916 0.05275528431
v 0.24 0.086454916 0.05093892574
f 2 16 1
f 1 16 18
f 17 9 8
f 8 9 10
f 8 10 7
f 7 10 11
f 7 11 6
f 6 11 12
f 6 12 5
f 5 12 13
f 5 13 4
f 4 13 14
f 4 14 3
f 3 14 15
f 3 15 2
f 2 15 16
f 20 36 19
f 19 36 27
f 19 27 28
f 36 20 35
f 35 20 21
f 35 21 34
f 34 21 22
f 34 22 33
f 33 22 23
f 33 23 32
f 32 23 31
f 31 23 24
f 31 24 30
f 30 24 25
f 30 25 29
f 29 25 26
f 29 26 28
f 28 26 19
f 38 56 37
f 37 56 57
f 58 47 46
f 46 47 48
f 46 48 45
f 45 48 49
f 45 49 44
f 44 49 50
f 44 50 43
f 43 50 51
f 43 51 42
f 42 51 52
f 42 52 41
f 41 52 53
f 41 53 40
f 40 53 54
f 40 54 39
f 39 54 55
f 39 55 38
f 38 55 56
f 60 76 59
f 59 76 67
f 59 67 68
f 76 60 75
f 75 60 61
f 75 61 74
f 74 61 62
f 74 62 73
f 73 62 63
f 73 63 72
f 72 63 71
f 71 63 64
f 71 64 70
f 70 64 65
f 70 65 69
f 69 65 66
f 69 66 68
f 68 66 59
