v 0.2297999954 0.08050000191 0.02549999952
v 0.2297999954 0.07873223305 0.02623223305
v 0.2297999954 0.07800000191 0.02799999952
v 0.2297999954 0.07873223305 0.029767766
v 0.2297999954 0.08050000191 0.03049999952
v 0.2297999954 0.08226777077 0.029767766
v 0.2297999954 0.08300000191 0.02799999952
v 0.2297999954 0.08226777077 0.02623223305
v 0.2331999969 0.08050000191 0.02549999952
v 0.2331999969 0.08226777077 0.02623223305
v 0.2331999969 0.08300000191 0.02799999952
v 0.2331999969 0.08226777077 0.029767766
v 0.2331999969 0.08050000191 0.03049999952
v 0.2331999969 0.07873223305 0.029767766
v 0.2331999969 0.07800000191 0.02799999952
v 0.2331999969 0.07873223305 0.02623223305
v 0.2297999954 0.08050000191 0.02549999952
v 0.2331999969 0.08050000191 0.02549999952
v 0.2331999969 0.08550000191 0.03299999952
v 0.2297999954 0.08550000191 0.03150000095
v 0.2297999954 0.07550000191 0.03150000095
v 0.2331999969 0.07550000191 0.03299999952
v 0.2331999969 0.08050000191 0.02549999952
v 0.2331999969 0.07873223305 0.02623223305
v 0.2331999969 0.07800000191 0.02799999952
v 0.2331999969 0.07873223305 0.029767766
v 0.2331999969 0.08050000191 0.03049999952
v 0.2331999969 0.08226777077 0.029767766
v 0.2331999969 0.08300000191 0.02799999952
v 0.2331999969 0.08226777077 0.02623223305
v 0.2331999969 0.08550000191 0.02299999952
v 0.2331999969 0.08550000191 0.03299999952
v 0.2331999969 0.07550000191 0.03299999952
v 0.2331999969 0.07550000191 0.02299999952
v 0.2297999954 0.08550000191 0.02450000048
v 0.2331999969 0.08550000191 0.02299999952
v 0.2331999969 0.07550000191 0.02299999952
v 0.2297999954 0.07550000191 0.02450000048
v 0.2297999954 0.08050000191 0.02549999952
v 0.2297999954 0.08226777077 0.02623223305
v 0.2297999954 0.08300000191 0.02799999952
v 0.2297999954 0.08226777077 0.029767766
v 0.2297999954 0.08050000191 0.03049999952
v 0.2297999954 0.07873223305 0.029767766
v 0.2297999954 0.07800000191 0.02799999952
v 0.2297999954 0.07873223305 0.02623223305
v 0.2297999954 0.08550000191 0.03150000095
v 0.2297999954 0.08550000191 0.02450000048
v 0.2297999954 0.07550000191 0.02450000048
v 0.2297999954 0.07550000191 0.03150000095
v 0.2331999969 0.08550000191 0.02299999952
v 0.2297999954 0.08550000191 0.02450000048
v 0.2297999954 0.08550000191 0.03150000095
v 0.2331999969 0.08550000191 0.03299999952
v 0.2297999954 0.07550000191 0.02450000048
v 0.2331999969 0.07550000191 0.02299999952
v 0.2331999969 0.07550000191 0.03299999952
v 0.2297999954 0.07550000191 0.03150000095
f 2 16 1
f 1 16 18
f 17 9 8
f 8 9 10
f 8 10 11
f 2 3 16
f 16 3 15
f 15 3 4
f 15 4 14
f 14 4 5
f 14 5 13
f 13 5 6
f 13 6 12
f 12 6 7
f 12 7 11
f 11 7 8
f 19 20 22
f 22 20 21
f 24 34 23
f 23 34 31
f 23 31 30
f 30 31 29
f 29 31 32
f 29 32 28
f 28 32 27
f 27 32 33
f 27 33 26
f 26 33 25
f 25 33 34
f 25 34 24
f 35 36 38
f 38 36 37
f 40 48 39
f 39 48 49
f 39 49 46
f 46 49 45
f 45 49 50
f 45 50 44
f 44 50 43
f 43 50 47
f 43 47 42
f 42 47 41
f 41 47 48
f 41 48 40
f 52 53 51
f 51 53 54
f 56 57 55
f 55 57 58
