v 0.2058660316 0.08899999619 0.61
v 0.2041339684 0.08899999619 0.61
v 0.2041339684 0.08899999619 0.6109999847
v 0.2058660316 0.08899999619 0.6109999847
v 0.2041339684 0.09199999809 0.61
v 0.2058660316 0.09199999809 0.61
v 0.2058660316 0.09199999809 0.6109999847
v 0.2041339684 0.09199999809 0.6109999847
v 0.2067320442 0.09050000191 0.61
v 0.2058660316 0.08899999619 0.61
v 0.2058660316 0.08899999619 0.6109999847
v 0.2067320442 0.09050000191 0.6109999847
v 0.2058660316 0.09199999809 0.61
v 0.2067320442 0.09050000191 0.61
v 0.2067320442 0.09050000191 0.6109999847
v 0.2058660316 0.09199999809 0.6109999847
v 0.2041339684 0.08899999619 0.61
v 0.2032679558 0.09050000191 0.61
v 0.2032679558 0.09050000191 0.6109999847
v 0.2041339684 0.08899999619 0.6109999847
v 0.2032679558 0.09050000191 0.61
v 0.2041339684 0.09199999809 0.61
v 0.2041339684 0.09199999809 0.6109999847
v 0.2032679558 0.09050000191 0.6109999847
v 0.2041339684 0.08899999619 0.6109999847
v 0.2032679558 0.09050000191 0.6109999847
v 0.2041339684 0.09199999809 0.6109999847
v 0.2058660316 0.09199999809 0.6109999847
v 0.2067320442 0.09050000191 0.6109999847
v 0.2058660316 0.08899999619 0.6109999847
v 0.2095000076 0.09050000191 0.6115000153
v 0.2086405754 0.0931450367 0.6115000153
v 0.2063905716 0.09477975845 0.6115000153
v 0.2036094284 0.09477975845 0.6115000153
v 0.2013594246 0.0931450367 0.6115000153
v 0.2004999924 0.09050000191 0.6115000153
v 0.2013594246 0.08785496712 0.6115000153
v 0.2036094284 0.08622024536 0.6115000153
v 0.2063905716 0.08622024536 0.6115000153
v 0.2086405754 0.08785496712 0.6115000153
v 0.2075 0.09050000191 0.6115000153
v 0.2067677689 0.08873223305 0.6115000153
v 0.205 0.08800000191 0.6115000153
v 0.2032322311 0.08873223305 0.6115000153
v 0.2025 0.09050000191 0.6115000153
v 0.2032322311 0.09226777077 0.6115000153
v 0.205 0.09300000191 0.6115000153
v 0.2067677689 0.09226777077 0.6115000153
v 0.2075 0.09050000191 0.6195000076
v 0.2067677689 0.08873223305 0.6195000076
v 0.205 0.08800000191 0.6195000076
v 0.2032322311 0.08873223305 0.6195000076
v 0.2025 0.09050000191 0.6195000076
v 0.2032322311 0.09226777077 0.6195000076
v 0.205 0.09300000191 0.6195000076
v 0.2067677689 0.09226777077 0.6195000076
v 0.2075 0.09050000191 0.6115000153
v 0.2067677689 0.09226777077 0.6115000153
v 0.205 0.09300000191 0.6115000153
v 0.2032322311 0.09226777077 0.6115000153
v 0.2025 0.09050000191 0.6115000153
v 0.2032322311 0.08873223305 0.6115000153
v 0.205 0.08800000191 0.6115000153
v 0.2067677689 0.08873223305 0.6115000153
v 0.2075 0.09050000191 0.6115000153
v 0.2075 0.09050000191 0.6195000076
v 0.2075 0.09050000191 0.6195000076
v 0.2067677689 0.09226777077 0.6195000076
v 0.205 0.09300000191 0.6195000076
v 0.2032322311 0.09226777077 0.6195000076
v 0.2025 0.09050000191 0.6195000076
v 0.2032322311 0.08873223305 0.6195000076
v 0.205 0.08800000191 0.6195000076
v 0.2067677689 0.08873223305 0.6195000076
v 0.2095000076 0.09050000191 0.61
v 0.2086405754 0.0931450367 0.61
v 0.2063905716 0.09477975845 0.61
v 0.2036094284 0.09477975845 0.61
v 0.2013594246 0.0931450367 0.61
v 0.2004999924 0.09050000191 0.61
v 0.2013594246 0.08785496712 0.61
v 0.2036094284 0.08622024536 0.61
v 0.2063905716 0.08622024536 0.61
v 0.2086405754 0.08785496712 0.61
v 0.2095000076 0.09050000191 0.6115000153
v 0.2086405754 0.08785496712 0.6115000153
v 0.2063905716 0.08622024536 0.6115000153
v 0.2036094284 0.08622024536 0.6115000153
v 0.2013594246 0.08785496712 0.6115000153
v 0.2004999924 0.09050000191 0.6115000153
v 0.2013594246 0.0931450367 0.6115000153
v 0.2036094284 0.09477975845 0.6115000153
v 0.2063905716 0.09477975845 0.6115000153
v 0.2086405754 0.0931450367 0.6115000153
v 0.2095000076 0.09050000191 0.6115000153
v 0.2095000076 0.09050000191 0.61
v 0.2041339684 0.09199999809 0.61
v 0.2032679558 0.09050000191 0.61
v 0.2041339684 0.08899999619 0.61
v 0.2058660316 0.08899999619 0.61
v 0.2067320442 0.09050000191 0.61
v 0.2058660316 0.09199999809 0.61
v 0.2095000076 0.09050000191 0.61
v 0.2086405754 0.08785496712 0.61
v 0.2063905716 0.08622024536 0.61
v 0.2036094284 0.08622024536 0.61
v 0.2013594246 0.08785496712 0.61
v 0.2004999924 0.09050000191 0.61
v 0.2013594246 0.0931450367 0.61
v 0.2036094284 0.09477975845 0.61
v 0.2063905716 0.09477975845 0.61
v 0.2086405754 0.0931450367 0.61
f 1 2 4
f 4 2 3
f 5 6 8
f 8 6 7
f 9 10 12
f 12 10 11
f 13 14 16
f 16 14 15
f 17 18 20
f 20 18 19
f 21 22 24
f 24 22 23
f 25 26 30
f 30 26 29
f 29 26 27
f 29 27 28
f 40 31 41
f 41 31 32
f 41 32 48
f 48 32 33
f 48 33 47
f 47 33 34
f 47 34 46
f 46 34 35
f 46 35 45
f 45 35 36
f 45 36 37
f 45 37 44
f 44 37 38
f 44 38 43
f 43 38 39
f 43 39 42
f 42 39 40
f 42 40 41
f 50 64 49
f 49 64 65
f 66 57 56
f 56 57 58
f 56 58 59
f 50 51 64
f 64 51 63
f 63 51 52
f 63 52 62
f 62 52 53
f 62 53 61
f 61 53 54
f 61 54 60
f 60 54 55
f 60 55 59
f 59 55 56
f 68 70 67
f 67 70 71
f 67 71 74
f 74 71 72
f 74 72 73
f 68 69 70
f 76 94 75
f 75 94 95
f 96 85 84
f 84 85 86
f 84 86 83
f 83 86 87
f 83 87 82
f 82 87 88
f 82 88 81
f 81 88 89
f 81 89 80
f 80 89 90
f 80 90 79
f 79 90 91
f 79 91 78
f 78 91 92
f 78 92 77
f 77 92 93
f 77 93 76
f 76 93 94
f 98 109 97
f 97 109 110
f 97 110 111
f 99 107 98
f 98 107 108
f 98 108 109
f 107 99 106
f 106 99 100
f 106 100 105
f 105 100 104
f 104 100 101
f 104 101 103
f 103 101 112
f 112 101 102
f 112 102 111
f 111 102 97
