v -0.02298137108 -0.02188443422 0.4411603411
v -0.02141770628 -0.02188443422 0.4404073226
v -0.02103151051 -0.02188443422 0.4387152953
v -0.02211359708 -0.02188443422 0.4373584056
v -0.02384913175 -0.02188443422 0.4373584025
v -0.02493122307 -0.02188443422 0.4387152884
v -0.02454503325 -0.02188443422 0.4404073172
v -0.02298136055 -0.02388443232 0.4351603373
v -0.02041021094 -0.02388443232 0.4360961634
v -0.01904213472 -0.02388443232 0.4384657603
v -0.01951726953 -0.02388443232 0.4411603472
v -0.0216132926 -0.02388443232 0.4429191097
v -0.02434945336 -0.02388443232 0.4429191049
v -0.02644547145 -0.02388443232 0.4411603351
v -0.0269205968 -0.02388443232 0.4384657465
v -0.02555251107 -0.02388443232 0.4360961543
v -0.0216132926 -0.02388443232 0.4429191097
v -0.02298137108 -0.02188443422 0.4411603411
v -0.02298137021 -0.0136844337 0.4406603488
v -0.02168233096 -0.0136844337 0.4399103434
v -0.02168232832 -0.0136844337 0.4384103472
v -0.02298136494 -0.0136844337 0.4376603373
v -0.02428040419 -0.0136844337 0.4384103427
v -0.02428040682 -0.0136844337 0.4399103389
v -0.02298137021 -0.01788443327 0.4406603488
v -0.02428040682 -0.01788443327 0.4399103389
v -0.02428040419 -0.01788443327 0.4384103427
v -0.02298136494 -0.01788443327 0.4376603373
v -0.02168232832 -0.01788443327 0.4384103472
v -0.02168233096 -0.01788443327 0.4399103434
v -0.02298137021 -0.0136844337 0.4406603488
v -0.02298137021 -0.01788443327 0.4406603488
v -0.01573136734 -0.02338443279 0.4391603462
v -0.0167026898 -0.02338443279 0.442785356
v -0.01935637788 -0.02338443279 0.4454390264
v -0.0229813803 -0.02338443279 0.4464103373
v -0.02660637812 -0.02338443279 0.4454390137
v -0.02926005808 -0.02338443279 0.4427853339
v -0.03023136662 -0.02338443279 0.4391603208
v -0.02926004535 -0.02338443279 0.4355353301
v -0.02660635608 -0.02338443279 0.4328816406
v -0.02298135485 -0.02338443279 0.4319103488
v -0.01935635584 -0.02338443279 0.4328816534
v -0.01670267707 -0.02338443279 0.4355353522
v -0.01623136686 -0.02388443232 0.4391603454
v -0.01713568976 -0.02388443232 0.4357853476
v -0.01960635636 -0.02388443232 0.4333146783
v -0.02298135573 -0.02388443232 0.4324103411
v -0.02635635589 -0.02388443232 0.4333146664
v -0.02882703235 -0.02388443232 0.4357853271
v -0.0297313671 -0.02388443232 0.4391603217
v -0.0288270442 -0.02388443232 0.4425353385
v -0.0263563764 -0.02388443232 0.4450060078
v -0.02298137942 -0.02388443232 0.445910345
v -0.01960637688 -0.02388443232 0.4450060197
v -0.01713570161 -0.02388443232 0.442535359
v -0.0229813803 -0.02338443279 0.4464103373
v -0.02298137942 -0.02388443232 0.445910345
v -0.01573136734 -0.02188443422 0.4391603462
v -0.0167026898 -0.02188443422 0.442785356
v -0.01935637788 -0.02188443422 0.4454390264
v -0.0229813803 -0.02188443422 0.4464103373
v -0.02660637812 -0.02188443422 0.4454390137
v -0.02926005808 -0.02188443422 0.4427853339
v -0.03023136662 -0.02188443422 0.4391603208
v -0.02926004535 -0.02188443422 0.4355353301
v -0.02660635608 -0.02188443422 0.4328816406
v -0.02298135485 -0.02188443422 0.4319103488
v -0.01935635584 -0.02188443422 0.4328816534
v -0.01670267707 -0.02188443422 0.4355353522
v -0.01573136734 -0.02338443279 0.4391603462
v -0.01670267707 -0.02338443279 0.4355353522
v -0.01935635584 -0.02338443279 0.4328816534
v -0.02298135485 -0.02338443279 0.4319103488
v -0.02660635608 -0.02338443279 0.4328816406
v -0.02926004535 -0.02338443279 0.4355353301
v -0.03023136662 -0.02338443279 0.4391603208
v -0.02926005808 -0.02338443279 0.4427853339
v -0.02660637812 -0.02338443279 0.4454390137
v -0.0229813803 -0.02338443279 0.4464103373
v -0.01935637788 -0.02338443279 0.4454390264
v -0.0167026898 -0.02338443279 0.442785356
v -0.01573136734 -0.02338443279 0.4391603462
v -0.01573136734 -0.02188443422 0.4391603462
v -0.02298136055 -0.02388443232 0.4351603373
v -0.02555251107 -0.02388443232 0.4360961543
v -0.0269205968 -0.02388443232 0.4384657465
v -0.02644547145 -0.02388443232 0.4411603351
v -0.02434945336 -0.02388443232 0.4429191049
v -0.0216132926 -0.02388443232 0.4429191097
v -0.01951726953 -0.02388443232 0.4411603472
v -0.01904213472 -0.02388443232 0.4384657603
v -0.02041021094 -0.02388443232 0.4360961634
v -0.01623136686 -0.02388443232 0.4391603454
v -0.01713570161 -0.02388443232 0.442535359
v -0.01960637688 -0.02388443232 0.4450060197
v -0.02298137942 -0.02388443232 0.445910345
v -0.0263563764 -0.02388443232 0.4450060078
v -0.0288270442 -0.02388443232 0.4425353385
v -0.0297313671 -0.02388443232 0.4391603217
v -0.02882703235 -0.02388443232 0.4357853271
v -0.02635635589 -0.02388443232 0.4333146664
v -0.02298135573 -0.02388443232 0.4324103411
v -0.01960635636 -0.02388443232 0.4333146783
v -0.01713568976 -0.02388443232 0.4357853476
v -0.02043136643 -0.01418443322 0.439160338
v -0.02117824284 -0.01418443322 0.4373572246
v -0.0229813631 -0.01418443322 0.4366103419
v -0.02478448598 -0.01418443322 0.4373572183
v -0.02553136633 -0.01418443322 0.439160329
v -0.02478449231 -0.01418443322 0.4409634615
v -0.02298137205 -0.01418443322 0.4417103442
v -0.02117824917 -0.01418443322 0.4409634678
v -0.02093136595 -0.0136844337 0.4391603371
v -0.02170321554 -0.0136844337 0.4407630999
v -0.02343753973 -0.0136844337 0.441158948
v -0.02482835495 -0.0136844337 0.4400498032
v -0.02482835183 -0.0136844337 0.4382708764
v -0.02343753272 -0.0136844337 0.4371617365
v -0.02170320991 -0.0136844337 0.4375575907
v -0.0229813631 -0.01418443322 0.4366103419
v -0.02343753272 -0.0136844337 0.4371617365
v -0.02298137108 -0.02188443422 0.4411603411
v -0.02454503325 -0.02188443422 0.4404073172
v -0.02493122307 -0.02188443422 0.4387152884
v -0.02384913175 -0.02188443422 0.4373584025
v -0.02211359708 -0.02188443422 0.4373584056
v -0.02103151051 -0.02188443422 0.4387152953
v -0.02141770628 -0.02188443422 0.4404073226
v -0.02043136643 -0.02188443422 0.439160338
v -0.02117824284 -0.02188443422 0.4373572246
v -0.0229813631 -0.02188443422 0.4366103419
v -0.02478448598 -0.02188443422 0.4373572183
v -0.02553136633 -0.02188443422 0.439160329
v -0.02478449231 -0.02188443422 0.4409634615
v -0.02298137205 -0.02188443422 0.4417103442
v -0.02117824917 -0.02188443422 0.4409634678
v -0.02043136643 -0.01788443327 0.439160338
v -0.02117824284 -0.01788443327 0.4373572246
v -0.0229813631 -0.01788443327 0.4366103419
v -0.02478448598 -0.01788443327 0.4373572183
v -0.02553136633 -0.01788443327 0.439160329
v -0.02478449231 -0.01788443327 0.4409634615
v -0.02298137205 -0.01788443327 0.4417103442
v -0.02117824917 -0.01788443327 0.4409634678
v -0.02043136643 -0.01418443322 0.439160338
v -0.02117824917 -0.01418443322 0.4409634678
v -0.02298137205 -0.01418443322 0.4417103442
v -0.02478449231 -0.01418443322 0.4409634615
v -0.02553136633 -0.01418443322 0.439160329
v -0.02478448598 -0.01418443322 0.4373572183
v -0.0229813631 -0.01418443322 0.4366103419
v -0.02117824284 -0.01418443322 0.4373572246
v -0.02043136643 -0.01788443327 0.439160338
v -0.02043136643 -0.01418443322 0.439160338
v -0.02298137021 -0.0136844337 0.4406603488
v -0.02428040682 -0.0136844337 0.4399103389
v -0.02428040419 -0.0136844337 0.4384103427
v -0.02298136494 -0.0136844337 0.4376603373
v -0.02168232832 -0.0136844337 0.4384103472
v -0.02168233096 -0.0136844337 0.4399103434
v -0.02093136595 -0.0136844337 0.4391603371
v -0.02170320991 -0.0136844337 0.4375575907
v -0.02343753272 -0.0136844337 0.4371617365
v -0.02482835183 -0.0136844337 0.4382708764
v -0.02482835495 -0.0136844337 0.4400498032
v -0.02343753973 -0.0136844337 0.441158948
v -0.02170321554 -0.0136844337 0.4407630999
v -0.02298137021 -0.01788443327 0.4406603488
v -0.02168233096 -0.01788443327 0.4399103434
v -0.02168232832 -0.01788443327 0.4384103472
v -0.02298136494 -0.01788443327 0.4376603373
v -0.02428040419 -0.01788443327 0.4384103427
v -0.02428040682 -0.01788443327 0.4399103389
v -0.02043136643 -0.01788443327 0.439160338
v -0.02117824917 -0.01788443327 0.4409634678
v -0.02298137205 -0.01788443327 0.4417103442
v -0.02478449231 -0.01788443327 0.4409634615
v -0.02553136633 -0.01788443327 0.439160329
v -0.02478448598 -0.01788443327 0.4373572183
v -0.0229813631 -0.01788443327 0.4366103419
v -0.02117824284 -0.01788443327 0.4373572246
v -0.01803136753 -0.02138443232 0.4391603422
v -0.01897673806 -0.02138443232 0.4420698864
v -0.02145174184 -0.02138443232 0.4438680732
v -0.02451100984 -0.02138443232 0.4438680678
v -0.02698600611 -0.02138443232 0.4420698724
v -0.02793136643 -0.02138443232 0.4391603248
v -0.02698599589 -0.02138443232 0.4362507997
v -0.02451099331 -0.02138443232 0.4344526129
v -0.02145172531 -0.02138443232 0.4344526183
v -0.01897672785 -0.02138443232 0.4362508137
v -0.01753136681 -0.02188443422 0.4391603431
v -0.01839653021 -0.02188443422 0.4362138503
v -0.02071734558 -0.02188443422 0.4342028523
v -0.02375697428 -0.02188443422 0.4337658162
v -0.02655035058 -0.02188443422 0.4350415032
v -0.02821060196 -0.02188443422 0.4376248896
v -0.02821060735 -0.02188443422 0.4406957781
v -0.02655036503 -0.02188443422 0.4432791703
v -0.02375699321 -0.02188443422 0.4445548672
v -0.02071736298 -0.02188443422 0.4441178418
v -0.01839654055 -0.02188443422 0.4421068328
v -0.02375699321 -0.02188443422 0.4445548672
v -0.02451100984 -0.02138443232 0.4438680678
v -0.01573136734 -0.02188443422 0.4391603462
v -0.01670267707 -0.02188443422 0.4355353522
v -0.01935635584 -0.02188443422 0.4328816534
v -0.02298135485 -0.02188443422 0.4319103488
v -0.02660635608 -0.02188443422 0.4328816406
v -0.02926004535 -0.02188443422 0.4355353301
v -0.03023136662 -0.02188443422 0.4391603208
v -0.02926005808 -0.02188443422 0.4427853339
v -0.02660637812 -0.02188443422 0.4454390137
v -0.0229813803 -0.02188443422 0.4464103373
v -0.01935637788 -0.02188443422 0.4454390264
v -0.0167026898 -0.02188443422 0.442785356
v -0.01753136681 -0.02188443422 0.4391603431
v -0.01839654055 -0.02188443422 0.4421068328
v -0.02071736298 -0.02188443422 0.4441178418
v -0.02375699321 -0.02188443422 0.4445548672
v -0.02655036503 -0.02188443422 0.4432791703
v -0.02821060735 -0.02188443422 0.4406957781
v -0.02821060196 -0.02188443422 0.4376248896
v -0.02655035058 -0.02188443422 0.4350415032
v -0.02375697428 -0.02188443422 0.4337658162
v -0.02071734558 -0.02188443422 0.4342028523
v -0.01839653021 -0.02188443422 0.4362138503
v -0.02043136643 -0.01788443327 0.439160338
v -0.02117824284 -0.01788443327 0.4373572246
v -0.0229813631 -0.01788443327 0.4366103419
v -0.02478448598 -0.01788443327 0.4373572183
v -0.02553136633 -0.01788443327 0.439160329
v -0.02478449231 -0.01788443327 0.4409634615
v -0.02298137205 -0.01788443327 0.4417103442
v -0.02117824917 -0.01788443327 0.4409634678
v -0.02043136643 -0.02188443422 0.439160338
v -0.02117824917 -0.02188443422 0.4409634678
v -0.02298137205 -0.02188443422 0.4417103442
v -0.02478449231 -0.02188443422 0.4409634615
v -0.02553136633 -0.02188443422 0.439160329
v -0.02478448598 -0.02188443422 0.4373572183
v -0.0229813631 -0.02188443422 0.4366103419
v -0.02117824284 -0.02188443422 0.4373572246
v -0.02043136643 -0.01788443327 0.439160338
v -0.02043136643 -0.02188443422 0.439160338
v -0.01803136753 -0.01788443327 0.4391603422
v -0.01897673806 -0.01788443327 0.4420698864
v -0.02145174184 -0.01788443327 0.4438680732
v -0.02451100984 -0.01788443327 0.4438680678
v -0.02698600611 -0.01788443327 0.4420698724
v -0.02793136643 -0.01788443327 0.4391603248
v -0.02698599589 -0.01788443327 0.4362507997
v -0.02451099331 -0.01788443327 0.4344526129
v -0.02145172531 -0.01788443327 0.4344526183
v -0.01897672785 -0.01788443327 0.4362508137
v -0.01803136753 -0.02138443232 0.4391603422
v -0.01897672785 -0.02138443232 0.4362508137
v -0.02145172531 -0.02138443232 0.4344526183
v -0.02451099331 -0.02138443232 0.4344526129
v -0.02698599589 -0.02138443232 0.4362507997
v -0.02793136643 -0.02138443232 0.4391603248
v -0.02698600611 -0.02138443232 0.4420698724
v -0.02451100984 -0.02138443232 0.4438680678
v -0.02145174184 -0.02138443232 0.4438680732
v -0.01897673806 -0.02138443232 0.4420698864
v -0.01803136753 -0.02138443232 0.4391603422
v -0.01803136753 -0.01788443327 0.4391603422
v -0.02043136643 -0.01788443327 0.439160338
v -0.02117824917 -0.01788443327 0.4409634678
v -0.02298137205 -0.01788443327 0.4417103442
v -0.02478449231 -0.01788443327 0.4409634615
v -0.02553136633 -0.01788443327 0.439160329
v -0.02478448598 -0.01788443327 0.4373572183
v -0.0229813631 -0.01788443327 0.4366103419
v -0.02117824284 -0.01788443327 0.4373572246
v -0.01803136753 -0.01788443327 0.4391603422
v -0.01897672785 -0.01788443327 0.4362508137
v -0.02145172531 -0.01788443327 0.4344526183
v -0.02451099331 -0.01788443327 0.4344526129
v -0.02698599589 -0.01788443327 0.4362507997
v -0.02793136643 -0.01788443327 0.4391603248
v -0.02698600611 -0.01788443327 0.4420698724
v -0.02451100984 -0.01788443327 0.4438680678
v -0.02145174184 -0.01788443327 0.4438680732
v -0.01897673806 -0.01788443327 0.4420698864
f 2 17 1
f 18 12 13
f 18 13 7
f 7 13 14
f 7 14 6
f 6 14 15
f 6 15 16
f 17 2 11
f 11 2 3
f 11 3 10
f 10 3 9
f 9 3 4
f 9 4 8
f 8 4 5
f 8 5 16
f 16 5 6
f 20 30 19
f 19 30 32
f 31 25 24
f 24 25 26
f 24 26 23
f 23 26 27
f 23 27 22
f 22 27 28
f 22 28 21
f 21 28 29
f 21 29 20
f 20 29 30
f 34 56 33
f 33 56 45
f 33 45 44
f 44 45 46
f 44 46 43
f 43 46 47
f 43 47 42
f 42 47 48
f 42 48 41
f 41 48 49
f 41 49 40
f 40 49 50
f 40 50 39
f 39 50 51
f 39 51 38
f 38 51 52
f 38 52 37
f 37 52 53
f 37 53 36
f 36 53 58
f 57 54 35
f 35 54 55
f 35 55 34
f 34 55 56
f 60 82 59
f 59 82 83
f 84 71 70
f 70 71 72
f 70 72 69
f 69 72 73
f 69 73 68
f 68 73 74
f 68 74 67
f 67 74 75
f 67 75 66
f 66 75 76
f 66 76 65
f 65 76 77
f 65 77 64
f 64 77 78
f 64 78 63
f 63 78 79
f 63 79 62
f 62 79 80
f 62 80 61
f 61 80 81
f 61 81 60
f 60 81 82
f 86 102 85
f 85 102 103
f 85 103 104
f 102 86 101
f 101 86 87
f 101 87 100
f 100 87 88
f 100 88 99
f 99 88 98
f 98 88 89
f 98 89 97
f 97 89 90
f 97 90 96
f 96 90 91
f 96 91 95
f 95 91 94
f 94 91 92
f 94 92 105
f 105 92 93
f 105 93 104
f 104 93 85
f 113 106 114
f 114 106 107
f 114 107 120
f 120 107 121
f 120 121 119
f 122 108 109
f 122 109 118
f 118 109 110
f 118 110 117
f 117 110 111
f 117 111 116
f 116 111 112
f 116 112 115
f 115 112 113
f 115 113 114
f 124 135 123
f 123 135 136
f 123 136 137
f 135 124 134
f 134 124 125
f 134 125 133
f 133 125 126
f 133 126 132
f 132 126 127
f 132 127 131
f 131 127 128
f 131 128 130
f 130 128 129
f 130 129 137
f 137 129 123
f 139 153 138
f 138 153 155
f 154 146 145
f 145 146 147
f 145 147 148
f 139 140 153
f 153 140 152
f 152 140 141
f 152 141 151
f 151 141 142
f 151 142 150
f 150 142 143
f 150 143 149
f 149 143 144
f 149 144 148
f 148 144 145
f 157 167 156
f 156 167 168
f 156 168 161
f 161 168 162
f 161 162 160
f 160 162 163
f 160 163 159
f 159 163 164
f 159 164 158
f 158 164 165
f 158 165 166
f 167 157 166
f 166 157 158
f 170 176 169
f 169 176 177
f 169 177 178
f 176 170 175
f 175 170 171
f 175 171 182
f 182 171 172
f 182 172 181
f 181 172 180
f 180 172 173
f 180 173 179
f 179 173 174
f 179 174 178
f 178 174 169
f 184 203 183
f 183 203 193
f 183 193 194
f 203 184 202
f 202 184 185
f 202 185 201
f 201 185 205
f 204 186 200
f 200 186 187
f 200 187 199
f 199 187 188
f 199 188 198
f 198 188 189
f 198 189 197
f 197 189 190
f 197 190 196
f 196 190 191
f 196 191 195
f 195 191 192
f 195 192 194
f 194 192 183
f 217 206 218
f 218 206 207
f 218 207 228
f 228 207 208
f 228 208 227
f 227 208 209
f 227 209 226
f 226 209 210
f 226 210 225
f 225 210 211
f 225 211 224
f 224 211 212
f 224 212 223
f 223 212 213
f 223 213 222
f 222 213 214
f 222 214 221
f 221 214 215
f 221 215 220
f 220 215 216
f 220 216 219
f 219 216 217
f 219 217 218
f 230 244 229
f 229 244 246
f 245 237 236
f 236 237 238
f 236 238 239
f 230 231 244
f 244 231 243
f 243 231 232
f 243 232 242
f 242 232 233
f 242 233 241
f 241 233 234
f 241 234 240
f 240 234 235
f 240 235 239
f 239 235 236
f 248 266 247
f 247 266 267
f 268 257 256
f 256 257 258
f 256 258 255
f 255 258 259
f 255 259 254
f 254 259 260
f 254 260 253
f 253 260 261
f 253 261 252
f 252 261 262
f 252 262 251
f 251 262 263
f 251 263 250
f 250 263 264
f 250 264 249
f 249 264 265
f 249 265 248
f 248 265 266
f 270 286 269
f 269 286 277
f 269 277 278
f 286 270 285
f 285 270 271
f 285 271 284
f 284 271 272
f 284 272 283
f 283 272 273
f 283 273 282
f 282 273 281
f 281 273 274
f 281 274 280
f 280 274 275
f 280 275 279
f 279 275 276
f 279 276 278
f 278 276 269
