v 0.02762120247 0.04199999809 0.4068030435
v 0.02857225895 0.04199999809 0.4061120683
v 0.02820898771 0.04199999809 0.4049940282
v 0.02703341722 0.04199999809 0.4049940282
v 0.02667014599 0.04199999809 0.4061120683
v 0.02762120247 0.03815999985 0.4068030435
v 0.02691409588 0.03815999985 0.4065101511
v 0.02662120342 0.03815999985 0.4058030492
v 0.02691409588 0.03815999985 0.4050959379
v 0.02762120247 0.03815999985 0.4048030454
v 0.02832830906 0.03815999985 0.4050959379
v 0.02862120152 0.03815999985 0.4058030492
v 0.02832830906 0.03815999985 0.4065101511
v 0.02762120247 0.03815999985 0.4068030435
v 0.02762120247 0.04199999809 0.4068030435
v 0.02762120247 0.03815999985 0.4068030435
v 0.02832830906 0.03815999985 0.4065101511
v 0.02862120152 0.03815999985 0.4058030492
v 0.02832830906 0.03815999985 0.4050959379
v 0.02762120247 0.03815999985 0.4048030454
v 0.02691409588 0.03815999985 0.4050959379
v 0.02662120342 0.03815999985 0.4058030492
v 0.02691409588 0.03815999985 0.4065101511
v 0.02762120247 0.03815999985 0.4066030485
v 0.02705551624 0.03815999985 0.4063687307
v 0.02682120323 0.03815999985 0.4058030492
v 0.02762120247 0.03815999985 0.40500305
v 0.02818688869 0.03815999985 0.4052373582
v 0.02842120171 0.03815999985 0.4058030492
f 2 13 1
f 1 13 14
f 15 6 7
f 13 2 12
f 12 2 3
f 12 3 11
f 11 3 10
f 10 3 4
f 10 4 9
f 9 4 8
f 8 4 5
f 8 5 7
f 7 5 15
f 23 16 24
f 24 16 17
f 24 17 29
f 29 17 18
f 29 18 19
f 29 19 28
f 28 19 20
f 28 20 27
f 27 20 21
f 27 21 26
f 26 21 22
f 26 22 23
f 24 25 23
f 23 25 26
