v -0.2297999954 0.08050000191 0.02549999952
v -0.2297999954 0.07873223305 0.02623223305
v -0.2297999954 0.07800000191 0.02799999952
v -0.2297999954 0.07873223305 0.029767766
v -0.2297999954 0.08050000191 0.03049999952
v -0.2297999954 0.08226777077 0.029767766
v -0.2297999954 0.08300000191 0.02799999952
v -0.2297999954 0.08226777077 0.02623223305
v -0.2297999954 0.07550000191 0.03150000095
v -0.2297999954 0.07550000191 0.02450000048
v -0.2297999954 0.08550000191 0.02450000048
v -0.2297999954 0.08550000191 0.03150000095
v -0.2297999954 0.07550000191 0.02450000048
v -0.2331999969 0.07550000191 0.02299999952
v -0.2331999969 0.08550000191 0.02299999952
v -0.2297999954 0.08550000191 0.02450000048
v -0.2331999969 0.07550000191 0.03299999952
v -0.2297999954 0.07550000191 0.03150000095
v -0.2297999954 0.08550000191 0.03150000095
v -0.2331999969 0.08550000191 0.03299999952
v -0.2331999969 0.08050000191 0.02549999952
v -0.2331999969 0.08226777077 0.02623223305
v -0.2331999969 0.08300000191 0.02799999952
v -0.2331999969 0.08226777077 0.029767766
v -0.2331999969 0.08050000191 0.03049999952
v -0.2331999969 0.07873223305 0.029767766
v -0.2331999969 0.07800000191 0.02799999952
v -0.2331999969 0.07873223305 0.02623223305
v -0.2331999969 0.07550000191 0.02299999952
v -0.2331999969 0.07550000191 0.03299999952
v -0.2331999969 0.08550000191 0.03299999952
v -0.2331999969 0.08550000191 0.02299999952
v -0.2297999954 0.08550000191 0.02450000048
v -0.2331999969 0.08550000191 0.02299999952
v -0.2331999969 0.08550000191 0.03299999952
v -0.2297999954 0.08550000191 0.03150000095
v -0.2331999969 0.07550000191 0.02299999952
v -0.2297999954 0.07550000191 0.02450000048
v -0.2297999954 0.07550000191 0.03150000095
v -0.2331999969 0.07550000191 0.03299999952
v -0.2297999954 0.08050000191 0.02549999952
v -0.2297999954 0.08226777077 0.02623223305
v -0.2297999954 0.08300000191 0.02799999952
v -0.2297999954 0.08226777077 0.029767766
v -0.2297999954 0.08050000191 0.03049999952
v -0.2297999954 0.07873223305 0.029767766
v -0.2297999954 0.07800000191 0.02799999952
v -0.2297999954 0.07873223305 0.02623223305
v -0.2331999969 0.08050000191 0.02549999952
v -0.2331999969 0.07873223305 0.02623223305
v -0.2331999969 0.07800000191 0.02799999952
v -0.2331999969 0.07873223305 0.029767766
v -0.2331999969 0.08050000191 0.03049999952
v -0.2331999969 0.08226777077 0.029767766
v -0.2331999969 0.08300000191 0.02799999952
v -0.2331999969 0.08226777077 0.02623223305
v -0.2297999954 0.08050000191 0.02549999952
v -0.2331999969 0.08050000191 0.02549999952
f 2 10 1
f 1 10 11
f 1 11 8
f 8 11 7
f 7 11 12
f 7 12 6
f 6 12 5
f 5 12 9
f 5 9 4
f 4 9 3
f 3 9 10
f 3 10 2
f 13 14 16
f 16 14 15
f 17 18 20
f 20 18 19
f 22 32 21
f 21 32 29
f 21 29 28
f 28 29 27
f 27 29 30
f 27 30 26
f 26 30 25
f 25 30 31
f 25 31 24
f 24 31 23
f 23 31 32
f 23 32 22
f 34 35 33
f 33 35 36
f 38 39 37
f 37 39 40
f 42 56 41
f 41 56 58
f 57 49 48
f 48 49 50
f 48 50 51
f 42 43 56
f 56 43 55
f 55 43 44
f 55 44 54
f 54 44 45
f 54 45 53
f 53 45 46
f 53 46 52
f 52 46 47
f 52 47 51
f 51 47 48
