v 0.2021649933 0.1019999981 0.3798767549
v 0.2028972244 0.1019999981 0.3816445238
v 0.2046649933 0.1019999981 0.3823767549
v 0.2064327621 0.1019999981 0.3816445238
v 0.2071649933 0.1019999981 0.3798767549
v 0.2064327621 0.1019999981 0.3781089861
v 0.2046649933 0.1019999981 0.3773767549
v 0.2028972244 0.1019999981 0.3781089861
v 0.2021649933 0.09699999809 0.3798767549
v 0.2028972244 0.09699999809 0.3781089861
v 0.2046649933 0.09699999809 0.3773767549
v 0.2064327621 0.09699999809 0.3781089861
v 0.2071649933 0.09699999809 0.3798767549
v 0.2064327621 0.09699999809 0.3816445238
v 0.2046649933 0.09699999809 0.3823767549
v 0.2028972244 0.09699999809 0.3816445238
v 0.2021649933 0.1019999981 0.3798767549
v 0.2021649933 0.09699999809 0.3798767549
v 0.200046196 0.09699999809 0.3798767549
v 0.2023555946 0.09699999809 0.3838767511
v 0.2023555946 0.1019999981 0.3838767511
v 0.200046196 0.1019999981 0.3798767549
v 0.2092838097 0.09699999809 0.3798767549
v 0.2069743919 0.09699999809 0.3758767492
v 0.2069743919 0.1019999981 0.3758767492
v 0.2092838097 0.1019999981 0.3798767549
v 0.2069743919 0.09699999809 0.3838767511
v 0.2092838097 0.09699999809 0.3798767549
v 0.2092838097 0.1019999981 0.3798767549
v 0.2069743919 0.1019999981 0.3838767511
v 0.2069743919 0.09699999809 0.3758767492
v 0.2023555946 0.09699999809 0.3758767492
v 0.2023555946 0.1019999981 0.3758767492
v 0.2069743919 0.1019999981 0.3758767492
v 0.2021649933 0.09699999809 0.3798767549
v 0.2028972244 0.09699999809 0.3816445238
v 0.2046649933 0.09699999809 0.3823767549
v 0.2064327621 0.09699999809 0.3816445238
v 0.2071649933 0.09699999809 0.3798767549
v 0.2064327621 0.09699999809 0.3781089861
v 0.2046649933 0.09699999809 0.3773767549
v 0.2028972244 0.09699999809 0.3781089861
v 0.2092838097 0.09699999809 0.3798767549
v 0.2069743919 0.09699999809 0.3838767511
v 0.2023555946 0.09699999809 0.3838767511
v 0.200046196 0.09699999809 0.3798767549
v 0.2023555946 0.09699999809 0.3758767492
v 0.2069743919 0.09699999809 0.3758767492
v 0.2021649933 0.1019999981 0.3798767549
v 0.2028972244 0.1019999981 0.3781089861
v 0.2046649933 0.1019999981 0.3773767549
v 0.2064327621 0.1019999981 0.3781089861
v 0.2071649933 0.1019999981 0.3798767549
v 0.2064327621 0.1019999981 0.3816445238
v 0.2046649933 0.1019999981 0.3823767549
v 0.2028972244 0.1019999981 0.3816445238
v 0.2069743919 0.1019999981 0.3838767511
v 0.2092838097 0.1019999981 0.3798767549
v 0.2069743919 0.1019999981 0.3758767492
v 0.2023555946 0.1019999981 0.3758767492
v 0.200046196 0.1019999981 0.3798767549
v 0.2023555946 0.1019999981 0.3838767511
v 0.2023555946 0.09699999809 0.3838767511
v 0.2069743919 0.09699999809 0.3838767511
v 0.2069743919 0.1019999981 0.3838767511
v 0.2023555946 0.1019999981 0.3838767511
v 0.2023555946 0.09699999809 0.3758767492
v 0.200046196 0.09699999809 0.3798767549
v 0.200046196 0.1019999981 0.3798767549
v 0.2023555946 0.1019999981 0.3758767492
f 2 16 1
f 1 16 18
f 17 9 8
f 8 9 10
f 8 10 11
f 2 3 16
f 16 3 15
f 15 3 4
f 15 4 14
f 14 4 5
f 14 5 13
f 13 5 6
f 13 6 12
f 12 6 7
f 12 7 11
f 11 7 8
f 19 20 22
f 22 20 21
f 23 24 26
f 26 24 25
f 27 28 30
f 30 28 29
f 31 32 34
f 34 32 33
f 42 35 46
f 46 35 36
f 46 36 45
f 45 36 37
f 45 37 44
f 44 37 38
f 44 38 43
f 43 38 39
f 43 39 40
f 43 40 48
f 48 40 41
f 48 41 47
f 47 41 42
f 47 42 46
f 56 49 61
f 61 49 50
f 61 50 60
f 60 50 51
f 60 51 59
f 59 51 52
f 59 52 58
f 58 52 53
f 58 53 54
f 58 54 57
f 57 54 55
f 57 55 62
f 62 55 56
f 62 56 61
f 63 64 66
f 66 64 65
f 67 68 70
f 70 68 69
