v 0.2389999962 0.07784999847 0.02799999952
v 0.2389999962 0.07862616539 0.02987383366
v 0.2389999962 0.08050000191 0.03065000057
v 0.2389999962 0.08237382889 0.02987383366
v 0.2389999962 0.0831499958 0.02799999952
v 0.2389999962 0.08237382889 0.02612616777
v 0.2389999962 0.08050000191 0.02535000086
v 0.2389999962 0.07862616539 0.02612616777
v 0.24 0.07784999847 0.02799999952
v 0.24 0.07862616539 0.02612616777
v 0.24 0.08050000191 0.02535000086
v 0.24 0.08237382889 0.02612616777
v 0.24 0.0831499958 0.02799999952
v 0.24 0.08237382889 0.02987383366
v 0.24 0.08050000191 0.03065000057
v 0.24 0.07862616539 0.02987383366
v 0.2389999962 0.07784999847 0.02799999952
v 0.24 0.07784999847 0.02799999952
v 0.24 0.07784999847 0.02799999952
v 0.24 0.07862616539 0.02987383366
v 0.24 0.08050000191 0.03065000057
v 0.24 0.08237382889 0.02987383366
v 0.24 0.0831499958 0.02799999952
v 0.24 0.08237382889 0.02612616777
v 0.24 0.08050000191 0.02535000086
v 0.24 0.07862616539 0.02612616777
v 0.24 0.07550000191 0.02799999952
v 0.24 0.076454916 0.0250610733
v 0.24 0.078954916 0.02324471712
v 0.24 0.08204508781 0.02324471712
v 0.24 0.08454508781 0.0250610733
v 0.24 0.08550000191 0.02799999952
v 0.24 0.08454508781 0.03093892574
v 0.24 0.08204508781 0.03275528193
v 0.24 0.078954916 0.03275528193
v 0.24 0.076454916 0.03093892574
v 0.2389999962 0.07784999847 0.02799999952
v 0.2389999962 0.07862616539 0.02612616777
v 0.2389999962 0.08050000191 0.02535000086
v 0.2389999962 0.08237382889 0.02612616777
v 0.2389999962 0.0831499958 0.02799999952
v 0.2389999962 0.08237382889 0.02987383366
v 0.2389999962 0.08050000191 0.03065000057
v 0.2389999962 0.07862616539 0.02987383366
v 0.2389999962 0.07550000191 0.02799999952
v 0.2389999962 0.076454916 0.03093892574
v 0.2389999962 0.078954916 0.03275528193
v 0.2389999962 0.08204508781 0.03275528193
v 0.2389999962 0.08454508781 0.03093892574
v 0.2389999962 0.08550000191 0.02799999952
v 0.2389999962 0.08454508781 0.0250610733
v 0.2389999962 0.08204508781 0.02324471712
v 0.2389999962 0.078954916 0.02324471712
v 0.2389999962 0.076454916 0.0250610733
v 0.2389999962 0.07550000191 0.02799999952
v 0.2389999962 0.076454916 0.0250610733
v 0.2389999962 0.078954916 0.02324471712
v 0.2389999962 0.08204508781 0.02324471712
v 0.2389999962 0.08454508781 0.0250610733
v 0.2389999962 0.08550000191 0.02799999952
v 0.2389999962 0.08454508781 0.03093892574
v 0.2389999962 0.08204508781 0.03275528193
v 0.2389999962 0.078954916 0.03275528193
v 0.2389999962 0.076454916 0.03093892574
v 0.24 0.07550000191 0.02799999952
v 0.24 0.076454916 0.03093892574
v 0.24 0.078954916 0.03275528193
v 0.24 0.08204508781 0.03275528193
v 0.24 0.08454508781 0.03093892574
v 0.24 0.08550000191 0.02799999952
v 0.24 0.08454508781 0.0250610733
v 0.24 0.08204508781 0.02324471712
v 0.24 0.078954916 0.02324471712
v 0.24 0.076454916 0.0250610733
v 0.24 0.07550000191 0.02799999952
v 0.2389999962 0.07550000191 0.02799999952
f 2 16 1
f 1 16 18
f 17 9 8
f 8 9 10
f 8 10 7
f 7 10 11
f 7 11 6
f 6 11 12
f 6 12 5
f 5 12 13
f 5 13 4
f 4 13 14
f 4 14 3
f 3 14 15
f 3 15 2
f 2 15 16
f 20 36 19
f 19 36 27
f 19 27 28
f 36 20 35
f 35 20 21
f 35 21 34
f 34 21 22
f 34 22 33
f 33 22 23
f 33 23 32
f 32 23 31
f 31 23 24
f 31 24 30
f 30 24 25
f 30 25 29
f 29 25 26
f 29 26 28
f 28 26 19
f 38 54 37
f 37 54 45
f 37 45 46
f 54 38 53
f 53 38 39
f 53 39 52
f 52 39 40
f 52 40 51
f 51 40 41
f 51 41 50
f 50 41 49
f 49 41 42
f 49 42 48
f 48 42 43
f 48 43 47
f 47 43 44
f 47 44 46
f 46 44 37
f 56 74 55
f 55 74 75
f 76 65 64
f 64 65 66
f 64 66 63
f 63 66 67
f 63 67 62
f 62 67 68
f 62 68 61
f 61 68 69
f 61 69 60
f 60 69 70
f 60 70 59
f 59 70 71
f 59 71 58
f 58 71 72
f 58 72 57
f 57 72 73
f 57 73 56
f 56 73 74
