v 8.477019782e-14 0.07690000057 0.4275767595
v -0.002940835953 0.0772689724 0.4269931108
v -0.005449746847 0.0771819973 0.425316456
v -0.007110751271 0.07674859524 0.4228309328
v -0.007699999809 0.07650000095 0.4198767549
v -0.007110751271 0.07674859524 0.4169225771
v -0.005449746847 0.0771819973 0.4144370538
v -0.002940835953 0.0772689724 0.412760399
v -8.47987399e-14 0.07690000057 0.4121767503
v 0.002940835953 0.07653102875 0.412760399
v 0.005449746847 0.07661800385 0.4144370538
v 0.007110751271 0.07705140591 0.4169225771
v 0.007699999809 0.07730000019 0.4198767549
v 0.007110751271 0.07705140591 0.4228309328
v 0.005449746847 0.07661800385 0.425316456
v 0.002940835953 0.07653102875 0.4269931108
v 8.476827246e-14 0.07659999847 0.4275767595
v 0.003198695481 0.07621620178 0.4268809206
v 0.005819271803 0.07638374329 0.4249191744
v 0.007388095856 0.0768619442 0.422046097
v 0.007621625066 0.07696385384 0.4187809259
v 0.007004166245 0.07671269417 0.416678055
v 0.005042427778 0.07626349926 0.4140574724
v 0.003198695481 0.07621620178 0.4128725893
v -8.479358205e-14 0.07659999847 0.4121767503
v -0.003198695481 0.07698379517 0.4128725893
v -0.005819271803 0.07681625843 0.4148343164
v -0.007388095856 0.07633805752 0.4177074129
v -0.007621625066 0.07623614788 0.4209725839
v -0.007004166245 0.07648730755 0.4230754549
v -0.005042427778 0.07693650246 0.4256960184
v -0.003198695481 0.07698379517 0.4268809206
v -8.47987399e-14 0.07690000057 0.4121767503
v -8.479358205e-14 0.07659999847 0.4121767503
v -8.479358205e-14 0.07659999847 0.4121767503
v 0.003198695481 0.07621620178 0.4128725893
v 0.005042427778 0.07626349926 0.4140574724
v 0.007004166245 0.07671269417 0.416678055
v 0.007621625066 0.07696385384 0.4187809259
v 0.007388095856 0.0768619442 0.422046097
v 0.005819271803 0.07638374329 0.4249191744
v 0.003198695481 0.07621620178 0.4268809206
v 8.476827246e-14 0.07659999847 0.4275767595
v 6.431612807e-14 0.07659999847 0.4257267458
v 0.002150376588 0.07623847485 0.425317238
v 0.004065293372 0.07630306244 0.4240834123
v 0.005359101295 0.07673068523 0.4222225649
v 0.005849999785 0.07699999809 0.4198767549
v 0.005359101295 0.07673068523 0.4175309259
v 0.004065293372 0.07630306244 0.4156700975
v 0.002150376588 0.07623847485 0.4144362718
v -6.434127522e-14 0.07659999847 0.414026745
v 0.002814436853 0.07621620178 0.413713997
v 0.004706229865 0.07630275249 0.4150031549
v 0.006620162725 0.07692018509 0.4213168794
v 0.006722180247 0.07697221756 0.4190324098
v 0.006058372855 0.07667102337 0.4168441469
v 0.005763961673 0.07656434536 0.4234372789
v 0.004251100123 0.07624233246 0.4251520425
v 0.00225393787 0.07625972271 0.4262658197
v 8.476827246e-14 0.07659999847 0.4275767595
v -0.003198695481 0.07698379517 0.4268809206
v -0.005042427778 0.07693650246 0.4256960184
v -0.007004166245 0.07648730755 0.4230754549
v -0.007621625066 0.07623614788 0.4209725839
v -0.007388095856 0.07633805752 0.4177074129
v -0.005819271803 0.07681625843 0.4148343164
v -0.003198695481 0.07698379517 0.4128725893
v -8.479358205e-14 0.07659999847 0.4121767503
v -6.434127522e-14 0.07659999847 0.414026745
v -0.002150376588 0.07696152687 0.4144362718
v -0.004065293372 0.07689693928 0.4156700975
v -0.005359101295 0.07646931648 0.4175309259
v -0.005849999785 0.07619999886 0.4198767549
v -0.005359101295 0.07646931648 0.4222225649
v -0.004065293372 0.07689693928 0.4240834123
v -0.002150376588 0.07696152687 0.425317238
v 6.431612807e-14 0.07659999847 0.4257267458
v -0.002814436853 0.07698379517 0.4260395128
v -0.004706229865 0.07689724922 0.4247503549
v -0.006620162725 0.07627981186 0.4184366304
v -0.006722180247 0.07622778416 0.4207210809
v -0.006058372855 0.07652897835 0.4229093629
v -0.005763961673 0.07663565636 0.4163162309
v -0.004251100123 0.07695766926 0.4146014673
v -0.00225393787 0.07694027901 0.4134876711
v 6.431612807e-14 0.07659999847 0.4257267458
v -0.002150376588 0.07696152687 0.425317238
v -0.004065293372 0.07689693928 0.4240834123
v -0.005359101295 0.07646931648 0.4222225649
v -0.005849999785 0.07619999886 0.4198767549
v -0.005359101295 0.07646931648 0.4175309259
v -0.004065293372 0.07689693928 0.4156700975
v -0.002150376588 0.07696152687 0.4144362718
v -6.434127522e-14 0.07659999847 0.414026745
v 0.002150376588 0.07623847485 0.4144362718
v 0.004065293372 0.07630306244 0.4156700975
v 0.005359101295 0.07673068523 0.4175309259
v 0.005849999785 0.07699999809 0.4198767549
v 0.005359101295 0.07673068523 0.4222225649
v 0.004065293372 0.07630306244 0.4240834123
v 0.002150376588 0.07623847485 0.425317238
v 6.431786475e-14 0.07690000057 0.4257267458
v 0.002430177778 0.07651620388 0.425198105
v 0.004421134889 0.07668374538 0.4237076837
v 0.005613033772 0.0771619463 0.4215248949
v 0.005790455341 0.07726385117 0.4190442163
v 0.004921333194 0.07684307575 0.4167140085
v 0.003830935359 0.07656349659 0.4154556162
v 0.002430177778 0.07651620388 0.4145554048
v -6.434764551e-14 0.07690000057 0.414026745
v -0.002430177778 0.07728379726 0.4145554048
v -0.004421134889 0.07711625576 0.4160458261
v -0.005613033772 0.07663805485 0.418228615
v -0.005790455341 0.07653614521 0.4207092935
v -0.005321347117 0.07678730488 0.4223069269
v -0.003830935359 0.07723649979 0.4242978937
v -0.002430177778 0.07728379726 0.425198105
v -6.434127522e-14 0.07659999847 0.414026745
v -6.434764551e-14 0.07690000057 0.414026745
v -6.434764551e-14 0.07690000057 0.414026745
v 0.002430177778 0.07651620388 0.4145554048
v 0.003830935359 0.07656349659 0.4154556162
v 0.004921333194 0.07684307575 0.4167140085
v 0.005790455341 0.07726385117 0.4190442163
v 0.005613033772 0.0771619463 0.4215248949
v 0.004421134889 0.07668374538 0.4237076837
v 0.002430177778 0.07651620388 0.425198105
v 6.431786475e-14 0.07690000057 0.4257267458
v 8.477019782e-14 0.07690000057 0.4275767595
v 0.002940835953 0.07653102875 0.4269931108
v 0.005449746847 0.07661800385 0.425316456
v 0.007110751271 0.07705140591 0.4228309328
v 0.007699999809 0.07730000019 0.4198767549
v 0.007110751271 0.07705140591 0.4169225771
v 0.005449746847 0.07661800385 0.4144370538
v 0.002940835953 0.07653102875 0.412760399
v -8.47987399e-14 0.07690000057 0.4121767503
v 0.002814436853 0.07651620388 0.413713997
v 0.006620162725 0.07722018719 0.4213168794
v 0.004704372287 0.07660244465 0.415001362
v 0.006058372855 0.0769710207 0.4168441469
v 0.006722180247 0.07727221966 0.4190324098
v 0.005763961673 0.07686434269 0.4234372789
v 0.004251100123 0.07654232979 0.4251520425
v 0.00225393787 0.07655972004 0.4262658197
v 6.431786475e-14 0.07690000057 0.4257267458
v -0.002430177778 0.07728379726 0.425198105
v -0.003830935359 0.07723649979 0.4242978937
v -0.005321347117 0.07678730488 0.4223069269
v -0.005790455341 0.07653614521 0.4207092935
v -0.005613033772 0.07663805485 0.418228615
v -0.004421134889 0.07711625576 0.4160458261
v -0.002430177778 0.07728379726 0.4145554048
v -6.434764551e-14 0.07690000057 0.414026745
v -8.47987399e-14 0.07690000057 0.4121767503
v -0.002940835953 0.0772689724 0.412760399
v -0.005449746847 0.0771819973 0.4144370538
v -0.007110751271 0.07674859524 0.4169225771
v -0.007699999809 0.07650000095 0.4198767549
v -0.007110751271 0.07674859524 0.4228309328
v -0.005449746847 0.0771819973 0.425316456
v -0.002940835953 0.0772689724 0.4269931108
v 8.477019782e-14 0.07690000057 0.4275767595
v -0.002814436853 0.07728379726 0.4260395128
v -0.004704372287 0.0771975565 0.4247521478
v -0.006620162725 0.07657981396 0.4184366304
v -0.006722180247 0.07652778149 0.4207210809
v -0.006058372855 0.07682897568 0.4229093629
v -0.005763961673 0.07693565369 0.4163162309
v -0.004251100123 0.07725767136 0.4146014673
v -0.00225393787 0.07724028111 0.4134876711
f 16 1 17
f 17 1 2
f 17 2 32
f 32 2 31
f 31 2 3
f 31 3 30
f 30 3 4
f 30 4 29
f 29 4 5
f 29 5 28
f 28 5 6
f 28 6 27
f 27 6 7
f 27 7 26
f 26 7 8
f 26 8 25
f 25 8 33
f 34 9 10
f 11 23 10
f 10 23 24
f 10 24 34
f 23 11 22
f 22 11 12
f 22 12 21
f 21 12 13
f 21 13 20
f 20 13 14
f 20 14 19
f 19 14 15
f 19 15 18
f 18 15 16
f 18 16 17
f 36 53 35
f 35 53 51
f 35 51 52
f 36 37 53
f 53 37 54
f 53 54 50
f 50 54 57
f 50 57 49
f 49 57 56
f 49 56 48
f 48 56 55
f 48 55 47
f 47 55 58
f 47 58 46
f 46 58 59
f 46 59 45
f 45 59 60
f 45 60 44
f 44 60 43
f 43 60 42
f 42 60 59
f 42 59 41
f 41 59 58
f 41 58 40
f 40 58 55
f 40 55 39
f 39 55 56
f 39 56 38
f 38 56 57
f 38 57 54
f 37 38 54
f 50 51 53
f 62 79 61
f 61 79 77
f 61 77 78
f 62 63 79
f 79 63 80
f 79 80 76
f 76 80 83
f 76 83 75
f 75 83 82
f 75 82 74
f 74 82 81
f 74 81 73
f 73 81 84
f 73 84 72
f 72 84 85
f 72 85 71
f 71 85 86
f 71 86 70
f 70 86 69
f 69 86 68
f 68 86 85
f 68 85 67
f 67 85 84
f 67 84 66
f 66 84 81
f 66 81 65
f 65 81 82
f 65 82 64
f 64 82 83
f 64 83 80
f 63 64 80
f 76 77 79
f 88 103 87
f 87 103 104
f 87 104 102
f 102 104 101
f 101 104 105
f 101 105 100
f 100 105 106
f 100 106 99
f 99 106 107
f 99 107 98
f 98 107 108
f 98 108 97
f 97 108 109
f 97 109 110
f 89 117 88
f 88 117 118
f 88 118 103
f 117 89 116
f 116 89 90
f 116 90 115
f 115 90 91
f 115 91 114
f 114 91 92
f 114 92 113
f 113 92 93
f 113 93 112
f 112 93 94
f 112 94 111
f 111 94 119
f 120 95 96
f 120 96 110
f 110 96 97
f 138 121 139
f 139 121 122
f 139 122 123
f 139 123 141
f 141 123 124
f 141 124 142
f 142 124 125
f 142 125 143
f 143 125 140
f 143 140 134
f 134 140 133
f 133 140 144
f 133 144 132
f 132 144 145
f 132 145 131
f 131 145 146
f 131 146 130
f 130 146 129
f 129 146 128
f 128 146 145
f 128 145 127
f 127 145 144
f 127 144 126
f 126 144 140
f 126 140 125
f 134 135 143
f 143 135 142
f 135 136 142
f 142 136 141
f 141 136 139
f 139 136 137
f 139 137 138
f 164 147 165
f 165 147 148
f 165 148 149
f 165 149 166
f 166 149 150
f 166 150 169
f 169 150 151
f 169 151 168
f 168 151 167
f 168 167 160
f 160 167 159
f 159 167 170
f 159 170 158
f 158 170 171
f 158 171 157
f 157 171 172
f 157 172 156
f 156 172 155
f 155 172 154
f 154 172 171
f 154 171 153
f 153 171 170
f 153 170 152
f 152 170 167
f 152 167 151
f 160 161 168
f 168 161 169
f 161 162 169
f 169 162 166
f 166 162 165
f 165 162 163
f 165 163 164
