v 0.2434529495 0.09699999809 0.3790211851
v 0.2428405952 0.09699999809 0.3808339674
v 0.2436894226 0.09699999809 0.3825487978
v 0.245502224 0.09699999809 0.383161152
v 0.2472170448 0.09699999809 0.3823123247
v 0.2478293991 0.09699999809 0.3804995329
v 0.2469805717 0.09699999809 0.3787847025
v 0.2451677895 0.09699999809 0.3781723482
v 0.2434529495 0.09600000381 0.3790211851
v 0.2451677895 0.09600000381 0.3781723482
v 0.2469805717 0.09600000381 0.3787847025
v 0.2478293991 0.09600000381 0.3804995329
v 0.2472170448 0.09600000381 0.3823123247
v 0.245502224 0.09600000381 0.383161152
v 0.2436894226 0.09600000381 0.3825487978
v 0.2428405952 0.09600000381 0.3808339674
v 0.2434529495 0.09699999809 0.3790211851
v 0.2434529495 0.09600000381 0.3790211851
v 0.2415709114 0.09699999809 0.3773756105
v 0.2442242622 0.09699999809 0.3757916814
v 0.2473018837 0.09699999809 0.3760698682
v 0.2496282196 0.09699999809 0.378103903
v 0.2503146935 0.09699999809 0.3811168653
v 0.249099102 0.09699999809 0.3839578897
v 0.2464457321 0.09699999809 0.3855418188
v 0.2433681107 0.09699999809 0.385263632
v 0.2410417747 0.09699999809 0.3832295972
v 0.2403553009 0.09699999809 0.3802166444
v 0.2415709114 0.09600000381 0.3773756105
v 0.2403553009 0.09600000381 0.3802166444
v 0.2410417747 0.09600000381 0.3832295972
v 0.2433681107 0.09600000381 0.385263632
v 0.2464457321 0.09600000381 0.3855418188
v 0.249099102 0.09600000381 0.3839578897
v 0.2503146935 0.09600000381 0.3811168653
v 0.2496282196 0.09600000381 0.378103903
v 0.2473018837 0.09600000381 0.3760698682
v 0.2442242622 0.09600000381 0.3757916814
v 0.2415709114 0.09600000381 0.3773756105
v 0.2415709114 0.09699999809 0.3773756105
v 0.2434529495 0.09699999809 0.3790211851
v 0.2451677895 0.09699999809 0.3781723482
v 0.2469805717 0.09699999809 0.3787847025
v 0.2478293991 0.09699999809 0.3804995329
v 0.2472170448 0.09699999809 0.3823123247
v 0.245502224 0.09699999809 0.383161152
v 0.2436894226 0.09699999809 0.3825487978
v 0.2428405952 0.09699999809 0.3808339674
v 0.2415709114 0.09699999809 0.3773756105
v 0.2403553009 0.09699999809 0.3802166444
v 0.2410417747 0.09699999809 0.3832295972
v 0.2433681107 0.09699999809 0.385263632
v 0.2464457321 0.09699999809 0.3855418188
v 0.249099102 0.09699999809 0.3839578897
v 0.2503146935 0.09699999809 0.3811168653
v 0.2496282196 0.09699999809 0.378103903
v 0.2473018837 0.09699999809 0.3760698682
v 0.2442242622 0.09699999809 0.3757916814
v 0.2434529495 0.09600000381 0.3790211851
v 0.2428405952 0.09600000381 0.3808339674
v 0.2436894226 0.09600000381 0.3825487978
v 0.245502224 0.09600000381 0.383161152
v 0.2472170448 0.09600000381 0.3823123247
v 0.2478293991 0.09600000381 0.3804995329
v 0.2469805717 0.09600000381 0.3787847025
v 0.2451677895 0.09600000381 0.3781723482
v 0.2415709114 0.09600000381 0.3773756105
v 0.2442242622 0.09600000381 0.3757916814
v 0.2473018837 0.09600000381 0.3760698682
v 0.2496282196 0.09600000381 0.378103903
v 0.2503146935 0.09600000381 0.3811168653
v 0.249099102 0.09600000381 0.3839578897
v 0.2464457321 0.09600000381 0.3855418188
v 0.2433681107 0.09600000381 0.385263632
v 0.2410417747 0.09600000381 0.3832295972
v 0.2403553009 0.09600000381 0.3802166444
f 2 16 1
f 1 16 18
f 17 9 8
f 8 9 10
f 8 10 11
f 2 3 16
f 16 3 15
f 15 3 4
f 15 4 14
f 14 4 5
f 14 5 13
f 13 5 6
f 13 6 12
f 12 6 7
f 12 7 11
f 11 7 8
f 20 38 19
f 19 38 39
f 40 29 28
f 28 29 30
f 28 30 27
f 27 30 31
f 27 31 26
f 26 31 32
f 26 32 25
f 25 32 33
f 25 33 24
f 24 33 34
f 24 34 23
f 23 34 35
f 23 35 22
f 22 35 36
f 22 36 21
f 21 36 37
f 21 37 20
f 20 37 38
f 42 58 41
f 41 58 49
f 41 49 50
f 58 42 57
f 57 42 43
f 57 43 56
f 56 43 44
f 56 44 55
f 55 44 45
f 55 45 54
f 54 45 53
f 53 45 46
f 53 46 52
f 52 46 47
f 52 47 51
f 51 47 48
f 51 48 50
f 50 48 41
f 60 76 59
f 59 76 67
f 59 67 68
f 76 60 75
f 75 60 61
f 75 61 74
f 74 61 62
f 74 62 73
f 73 62 63
f 73 63 72
f 72 63 71
f 71 63 64
f 71 64 70
f 70 64 65
f 70 65 69
f 69 65 66
f 69 66 68
f 68 66 59
