v -0.2067352486 0.07300000191 0.3788566286
v -0.204848938 0.07300000191 0.3779229147
v -0.2028548813 0.07300000191 0.3785965044
v -0.2019211578 0.07300000191 0.3804828149
v -0.2025947571 0.07300000191 0.3824768812
v -0.2044810677 0.07300000191 0.3834105951
v -0.2064751244 0.07300000191 0.3827370054
v -0.2074088478 0.07300000191 0.3808506853
v -0.2084290886 0.07300000191 0.3773756105
v -0.2096446991 0.07300000191 0.3802166444
v -0.2089582253 0.07300000191 0.3832295972
v -0.2066318893 0.07300000191 0.385263632
v -0.2035542679 0.07300000191 0.3855418188
v -0.200900898 0.07300000191 0.3839578897
v -0.1996853065 0.07300000191 0.3811168653
v -0.2003717804 0.07300000191 0.378103903
v -0.2026981163 0.07300000191 0.3760698682
v -0.2057757378 0.07300000191 0.3757916814
v -0.2084290886 0.07300000191 0.3773756105
v -0.2057757378 0.07300000191 0.3757916814
v -0.2026981163 0.07300000191 0.3760698682
v -0.2003717804 0.07300000191 0.378103903
v -0.1996853065 0.07300000191 0.3811168653
v -0.200900898 0.07300000191 0.3839578897
v -0.2035542679 0.07300000191 0.3855418188
v -0.2066318893 0.07300000191 0.385263632
v -0.2089582253 0.07300000191 0.3832295972
v -0.2096446991 0.07300000191 0.3802166444
v -0.2084290886 0.07199999809 0.3773756105
v -0.2096446991 0.07199999809 0.3802166444
v -0.2089582253 0.07199999809 0.3832295972
v -0.2066318893 0.07199999809 0.385263632
v -0.2035542679 0.07199999809 0.3855418188
v -0.200900898 0.07199999809 0.3839578897
v -0.1996853065 0.07199999809 0.3811168653
v -0.2003717804 0.07199999809 0.378103903
v -0.2026981163 0.07199999809 0.3760698682
v -0.2057757378 0.07199999809 0.3757916814
v -0.2084290886 0.07199999809 0.3773756105
v -0.2084290886 0.07300000191 0.3773756105
v -0.2067352486 0.07199999809 0.3788566286
v -0.2074088478 0.07199999809 0.3808506853
v -0.2064751244 0.07199999809 0.3827370054
v -0.2044810677 0.07199999809 0.3834105951
v -0.2025947571 0.07199999809 0.3824768812
v -0.2019211578 0.07199999809 0.3804828149
v -0.2028548813 0.07199999809 0.3785965044
v -0.204848938 0.07199999809 0.3779229147
v -0.2084290886 0.07199999809 0.3773756105
v -0.2057757378 0.07199999809 0.3757916814
v -0.2026981163 0.07199999809 0.3760698682
v -0.2003717804 0.07199999809 0.378103903
v -0.1996853065 0.07199999809 0.3811168653
v -0.200900898 0.07199999809 0.3839578897
v -0.2035542679 0.07199999809 0.3855418188
v -0.2066318893 0.07199999809 0.385263632
v -0.2089582253 0.07199999809 0.3832295972
v -0.2096446991 0.07199999809 0.3802166444
v -0.2067352486 0.07300000191 0.3788566286
v -0.2074088478 0.07300000191 0.3808506853
v -0.2064751244 0.07300000191 0.3827370054
v -0.2044810677 0.07300000191 0.3834105951
v -0.2025947571 0.07300000191 0.3824768812
v -0.2019211578 0.07300000191 0.3804828149
v -0.2028548813 0.07300000191 0.3785965044
v -0.204848938 0.07300000191 0.3779229147
v -0.2067352486 0.07199999809 0.3788566286
v -0.204848938 0.07199999809 0.3779229147
v -0.2028548813 0.07199999809 0.3785965044
v -0.2019211578 0.07199999809 0.3804828149
v -0.2025947571 0.07199999809 0.3824768812
v -0.2044810677 0.07199999809 0.3834105951
v -0.2064751244 0.07199999809 0.3827370054
v -0.2074088478 0.07199999809 0.3808506853
v -0.2067352486 0.07300000191 0.3788566286
v -0.2067352486 0.07199999809 0.3788566286
f 2 18 1
f 1 18 9
f 1 9 10
f 18 2 17
f 17 2 3
f 17 3 16
f 16 3 4
f 16 4 15
f 15 4 5
f 15 5 14
f 14 5 13
f 13 5 6
f 13 6 12
f 12 6 7
f 12 7 11
f 11 7 8
f 11 8 10
f 10 8 1
f 20 38 19
f 19 38 39
f 40 29 28
f 28 29 30
f 28 30 27
f 27 30 31
f 27 31 26
f 26 31 32
f 26 32 25
f 25 32 33
f 25 33 24
f 24 33 34
f 24 34 23
f 23 34 35
f 23 35 22
f 22 35 36
f 22 36 21
f 21 36 37
f 21 37 20
f 20 37 38
f 42 58 41
f 41 58 49
f 41 49 50
f 58 42 57
f 57 42 43
f 57 43 56
f 56 43 44
f 56 44 55
f 55 44 45
f 55 45 54
f 54 45 53
f 53 45 46
f 53 46 52
f 52 46 47
f 52 47 51
f 51 47 48
f 51 48 50
f 50 48 41
f 60 74 59
f 59 74 76
f 75 67 66
f 66 67 68
f 66 68 65
f 65 68 69
f 65 69 64
f 64 69 70
f 64 70 63
f 63 70 71
f 63 71 62
f 62 71 72
f 62 72 61
f 61 72 73
f 61 73 60
f 60 73 74
