v -0.2275 0.08600000381 0.4198767549
v -0.2267677689 0.08600000381 0.4181089861
v -0.225 0.08600000381 0.4173767549
v -0.2232322311 0.08600000381 0.4181089861
v -0.2225 0.08600000381 0.4198767549
v -0.2232322311 0.08600000381 0.4216445238
v -0.225 0.08600000381 0.4223767549
v -0.2267677689 0.08600000381 0.4216445238
v -0.2275 0.07099999905 0.4198767549
v -0.2267677689 0.07099999905 0.4216445238
v -0.225 0.07099999905 0.4223767549
v -0.2232322311 0.07099999905 0.4216445238
v -0.2225 0.07099999905 0.4198767549
v -0.2232322311 0.07099999905 0.4181089861
v -0.225 0.07099999905 0.4173767549
v -0.2267677689 0.07099999905 0.4181089861
v -0.2275 0.07099999905 0.4198767549
v -0.2275 0.08600000381 0.4198767549
v -0.2275 0.08600000381 0.4198767549
v -0.2267677689 0.08600000381 0.4216445238
v -0.225 0.08600000381 0.4223767549
v -0.2232322311 0.08600000381 0.4216445238
v -0.2225 0.08600000381 0.4198767549
v -0.2232322311 0.08600000381 0.4181089861
v -0.225 0.08600000381 0.4173767549
v -0.2267677689 0.08600000381 0.4181089861
v -0.2375 0.07099999905 0.4198767549
v -0.2365485001 0.07099999905 0.4246602899
v -0.2338388443 0.07099999905 0.4287155801
v -0.229783535 0.07099999905 0.431425255
v -0.225 0.07099999905 0.4323767549
v -0.220216465 0.07099999905 0.431425255
v -0.2161611557 0.07099999905 0.4287155801
v -0.2134514999 0.07099999905 0.4246602899
v -0.2125 0.07099999905 0.4198767549
v -0.2134514999 0.07099999905 0.4150932008
v -0.2161611557 0.07099999905 0.4110379106
v -0.220216465 0.07099999905 0.4083282549
v -0.225 0.07099999905 0.4073767549
v -0.229783535 0.07099999905 0.4083282549
v -0.2338388443 0.07099999905 0.4110379106
v -0.2365485001 0.07099999905 0.4150932008
v -0.2275 0.07099999905 0.4198767549
v -0.2267677689 0.07099999905 0.4181089861
v -0.225 0.07099999905 0.4173767549
v -0.2232322311 0.07099999905 0.4181089861
v -0.2225 0.07099999905 0.4198767549
v -0.2232322311 0.07099999905 0.4216445238
v -0.225 0.07099999905 0.4223767549
v -0.2267677689 0.07099999905 0.4216445238
v -0.2375 0.07099999905 0.4198767549
v -0.2365485001 0.07099999905 0.4150932008
v -0.2338388443 0.07099999905 0.4110379106
v -0.229783535 0.07099999905 0.4083282549
v -0.225 0.07099999905 0.4073767549
v -0.220216465 0.07099999905 0.4083282549
v -0.2161611557 0.07099999905 0.4110379106
v -0.2134514999 0.07099999905 0.4150932008
v -0.2125 0.07099999905 0.4198767549
v -0.2134514999 0.07099999905 0.4246602899
v -0.2161611557 0.07099999905 0.4287155801
v -0.220216465 0.07099999905 0.431425255
v -0.225 0.07099999905 0.4323767549
v -0.229783535 0.07099999905 0.431425255
v -0.2338388443 0.07099999905 0.4287155801
v -0.2365485001 0.07099999905 0.4246602899
v -0.2375 0.055 0.4198767549
v -0.2365485001 0.055 0.4246602899
v -0.2338388443 0.055 0.4287155801
v -0.229783535 0.055 0.431425255
v -0.225 0.055 0.4323767549
v -0.220216465 0.055 0.431425255
v -0.2161611557 0.055 0.4287155801
v -0.2134514999 0.055 0.4246602899
v -0.2125 0.055 0.4198767549
v -0.2134514999 0.055 0.4150932008
v -0.2161611557 0.055 0.4110379106
v -0.220216465 0.055 0.4083282549
v -0.225 0.055 0.4073767549
v -0.229783535 0.055 0.4083282549
v -0.2338388443 0.055 0.4110379106
v -0.2365485001 0.055 0.4150932008
v -0.2375 0.055 0.4198767549
v -0.2375 0.07099999905 0.4198767549
v -0.2375 0.055 0.4198767549
v -0.2365485001 0.055 0.4150932008
v -0.2338388443 0.055 0.4110379106
v -0.229783535 0.055 0.4083282549
v -0.225 0.055 0.4073767549
v -0.220216465 0.055 0.4083282549
v -0.2161611557 0.055 0.4110379106
v -0.2134514999 0.055 0.4150932008
v -0.2125 0.055 0.4198767549
v -0.2134514999 0.055 0.4246602899
v -0.2161611557 0.055 0.4287155801
v -0.220216465 0.055 0.431425255
v -0.225 0.055 0.4323767549
v -0.229783535 0.055 0.431425255
v -0.2338388443 0.055 0.4287155801
v -0.2365485001 0.055 0.4246602899
f 2 16 1
f 1 16 17
f 18 9 8
f 8 9 10
f 8 10 11
f 2 3 16
f 16 3 15
f 15 3 4
f 15 4 14
f 14 4 5
f 14 5 13
f 13 5 6
f 13 6 12
f 12 6 7
f 12 7 11
f 11 7 8
f 20 22 19
f 19 22 23
f 19 23 26
f 26 23 24
f 26 24 25
f 20 21 22
f 42 27 43
f 43 27 28
f 43 28 50
f 50 28 29
f 50 29 30
f 50 30 49
f 49 30 31
f 49 31 32
f 49 32 48
f 48 32 33
f 48 33 34
f 48 34 47
f 47 34 35
f 47 35 36
f 47 36 46
f 46 36 37
f 46 37 38
f 46 38 45
f 45 38 39
f 45 39 40
f 45 40 44
f 44 40 41
f 44 41 42
f 44 42 43
f 52 82 51
f 51 82 83
f 84 67 66
f 66 67 68
f 66 68 65
f 65 68 69
f 65 69 64
f 64 69 70
f 64 70 63
f 63 70 71
f 63 71 62
f 62 71 72
f 62 72 61
f 61 72 73
f 61 73 60
f 60 73 74
f 60 74 59
f 59 74 75
f 59 75 58
f 58 75 76
f 58 76 57
f 57 76 77
f 57 77 56
f 56 77 78
f 56 78 55
f 55 78 79
f 55 79 54
f 54 79 80
f 54 80 53
f 53 80 81
f 53 81 52
f 52 81 82
f 86 92 85
f 85 92 93
f 85 93 100
f 100 93 94
f 100 94 99
f 99 94 95
f 99 95 98
f 98 95 96
f 98 96 97
f 92 86 91
f 91 86 87
f 91 87 90
f 90 87 88
f 90 88 89
