v -0.004525115192 0.07800000191 0.4103301984
v -0.006004999876 0.07800000191 0.4111846048
v -0.007484884858 0.07800000191 0.4103301984
v -0.007484884858 0.07800000191 0.4086213762
v -0.006004999876 0.07800000191 0.4077669603
v -0.004525115192 0.07800000191 0.4086213762
v -0.004525115192 0.07800000191 0.4103301984
v -0.004525115192 0.07800000191 0.4086213762
v -0.006004999876 0.07800000191 0.4077669603
v -0.007484884858 0.07800000191 0.4086213762
v -0.007484884858 0.07800000191 0.4103301984
v -0.006004999876 0.07800000191 0.4111846048
v -0.0042729491 0.07880000114 0.4104757959
v -0.005706915259 0.07880000114 0.4114534456
v -0.007365345359 0.07880000114 0.4109418947
v -0.007999407649 0.07880000114 0.4093263227
v -0.007131640315 0.07880000114 0.4078233129
v -0.005415489674 0.07880000114 0.4075646383
v -0.004143252373 0.07880000114 0.4087451059
v -0.004525115192 0.07800000191 0.4103301984
v -0.0042729491 0.07880000114 0.4104757959
v -0.0042729491 0.07880000114 0.4104757959
v -0.004143252373 0.07880000114 0.4087451059
v -0.005415489674 0.07880000114 0.4075646383
v -0.007131640315 0.07880000114 0.4078233129
v -0.007999407649 0.07880000114 0.4093263227
v -0.007365345359 0.07880000114 0.4109418947
v -0.005706915259 0.07880000114 0.4114534456
v -0.007737050653 0.09270000458 0.4084757883
v -0.006303084493 0.09270000458 0.407498129
v -0.004644654393 0.09270000458 0.40800968
v -0.004010592401 0.09270000458 0.4096252519
v -0.004878359735 0.09270000458 0.4111282617
v -0.006594510078 0.09270000458 0.4113869363
v -0.007866747379 0.09270000458 0.4102064687
v -0.004010592401 0.09270000458 0.4096252519
v -0.0042729491 0.07880000114 0.4104757959
v -0.007484884858 0.09350000381 0.4086213762
v -0.006004999876 0.09350000381 0.4077669603
v -0.004525115192 0.09350000381 0.4086213762
v -0.004525115192 0.09350000381 0.4103301984
v -0.006004999876 0.09350000381 0.4111846048
v -0.007484884858 0.09350000381 0.4103301984
v -0.007737050653 0.09270000458 0.4084757883
v -0.007866747379 0.09270000458 0.4102064687
v -0.006594510078 0.09270000458 0.4113869363
v -0.004878359735 0.09270000458 0.4111282617
v -0.004010592401 0.09270000458 0.4096252519
v -0.004644654393 0.09270000458 0.40800968
v -0.006303084493 0.09270000458 0.407498129
v -0.004878359735 0.09270000458 0.4111282617
v -0.004525115192 0.09350000381 0.4103301984
v -0.007484884858 0.09350000381 0.4086213762
v -0.007484884858 0.09350000381 0.4103301984
v -0.006004999876 0.09350000381 0.4111846048
v -0.004525115192 0.09350000381 0.4103301984
v -0.004525115192 0.09350000381 0.4086213762
v -0.006004999876 0.09350000381 0.4077669603
f 2 4 1
f 1 4 5
f 1 5 6
f 2 3 4
f 8 19 7
f 7 19 21
f 20 13 14
f 19 8 18
f 18 8 9
f 18 9 17
f 17 9 10
f 17 10 16
f 16 10 11
f 16 11 15
f 15 11 12
f 15 12 14
f 14 12 20
f 23 36 22
f 37 32 33
f 37 33 28
f 28 33 34
f 28 34 27
f 27 34 35
f 27 35 26
f 26 35 29
f 26 29 25
f 25 29 30
f 25 30 24
f 24 30 31
f 24 31 23
f 23 31 36
f 39 50 38
f 38 50 44
f 38 44 45
f 50 39 49
f 49 39 40
f 49 40 48
f 48 40 52
f 48 52 47
f 51 41 42
f 51 42 46
f 46 42 43
f 46 43 45
f 45 43 38
f 54 56 53
f 53 56 57
f 53 57 58
f 54 55 56
