v -0.23 0.06199999809 0.6279999924
v -0.2290450859 0.06199999809 0.6250610733
v -0.2265450859 0.06199999809 0.6232447052
v -0.2234549141 0.06199999809 0.6232447052
v -0.2209549141 0.06199999809 0.6250610733
v -0.22 0.06199999809 0.6279999924
v -0.2209549141 0.06199999809 0.6309389114
v -0.2234549141 0.06199999809 0.6327552795
v -0.2265450859 0.06199999809 0.6327552795
v -0.2290450859 0.06199999809 0.6309389114
v -0.23 0.06099999905 0.6279999924
v -0.2290450859 0.06099999905 0.6309389114
v -0.2265450859 0.06099999905 0.6327552795
v -0.2234549141 0.06099999905 0.6327552795
v -0.2209549141 0.06099999905 0.6309389114
v -0.22 0.06099999905 0.6279999924
v -0.2209549141 0.06099999905 0.6250610733
v -0.2234549141 0.06099999905 0.6232447052
v -0.2265450859 0.06099999905 0.6232447052
v -0.2290450859 0.06099999905 0.6250610733
v -0.23 0.06099999905 0.6279999924
v -0.23 0.06199999809 0.6279999924
v -0.2277499962 0.06099999905 0.6279999924
v -0.2269445419 0.06099999905 0.6299445343
v -0.225 0.06099999905 0.6307500076
v -0.2230554581 0.06099999905 0.6299445343
v -0.2222500038 0.06099999905 0.6279999924
v -0.2230554581 0.06099999905 0.6260554504
v -0.225 0.06099999905 0.6252500153
v -0.2269445419 0.06099999905 0.6260554504
v -0.23 0.06099999905 0.6279999924
v -0.2290450859 0.06099999905 0.6250610733
v -0.2265450859 0.06099999905 0.6232447052
v -0.2234549141 0.06099999905 0.6232447052
v -0.2209549141 0.06099999905 0.6250610733
v -0.22 0.06099999905 0.6279999924
v -0.2209549141 0.06099999905 0.6309389114
v -0.2234549141 0.06099999905 0.6327552795
v -0.2265450859 0.06099999905 0.6327552795
v -0.2290450859 0.06099999905 0.6309389114
v -0.2277499962 0.06199999809 0.6279999924
v -0.2269445419 0.06199999809 0.6260554504
v -0.225 0.06199999809 0.6252500153
v -0.2230554581 0.06199999809 0.6260554504
v -0.2222500038 0.06199999809 0.6279999924
v -0.2230554581 0.06199999809 0.6299445343
v -0.225 0.06199999809 0.6307500076
v -0.2269445419 0.06199999809 0.6299445343
v -0.23 0.06199999809 0.6279999924
v -0.2290450859 0.06199999809 0.6309389114
v -0.2265450859 0.06199999809 0.6327552795
v -0.2234549141 0.06199999809 0.6327552795
v -0.2209549141 0.06199999809 0.6309389114
v -0.22 0.06199999809 0.6279999924
v -0.2209549141 0.06199999809 0.6250610733
v -0.2234549141 0.06199999809 0.6232447052
v -0.2265450859 0.06199999809 0.6232447052
v -0.2290450859 0.06199999809 0.6250610733
v -0.2277499962 0.06199999809 0.6279999924
v -0.2269445419 0.06199999809 0.6299445343
v -0.225 0.06199999809 0.6307500076
v -0.2230554581 0.06199999809 0.6299445343
v -0.2222500038 0.06199999809 0.6279999924
v -0.2230554581 0.06199999809 0.6260554504
v -0.225 0.06199999809 0.6252500153
v -0.2269445419 0.06199999809 0.6260554504
v -0.2277499962 0.06099999905 0.6279999924
v -0.2269445419 0.06099999905 0.6260554504
v -0.225 0.06099999905 0.6252500153
v -0.2230554581 0.06099999905 0.6260554504
v -0.2222500038 0.06099999905 0.6279999924
v -0.2230554581 0.06099999905 0.6299445343
v -0.225 0.06099999905 0.6307500076
v -0.2269445419 0.06099999905 0.6299445343
v -0.2277499962 0.06199999809 0.6279999924
v -0.2277499962 0.06099999905 0.6279999924
f 2 20 1
f 1 20 21
f 22 11 10
f 10 11 12
f 10 12 9
f 9 12 13
f 9 13 8
f 8 13 14
f 8 14 7
f 7 14 15
f 7 15 6
f 6 15 16
f 6 16 5
f 5 16 17
f 5 17 4
f 4 17 18
f 4 18 3
f 3 18 19
f 3 19 2
f 2 19 20
f 24 40 23
f 23 40 31
f 23 31 32
f 40 24 39
f 39 24 25
f 39 25 38
f 38 25 26
f 38 26 37
f 37 26 27
f 37 27 36
f 36 27 35
f 35 27 28
f 35 28 34
f 34 28 29
f 34 29 33
f 33 29 30
f 33 30 32
f 32 30 23
f 42 58 41
f 41 58 49
f 41 49 50
f 58 42 57
f 57 42 43
f 57 43 56
f 56 43 44
f 56 44 55
f 55 44 45
f 55 45 54
f 54 45 53
f 53 45 46
f 53 46 52
f 52 46 47
f 52 47 51
f 51 47 48
f 51 48 50
f 50 48 41
f 60 74 59
f 59 74 76
f 75 67 66
f 66 67 68
f 66 68 65
f 65 68 69
f 65 69 64
f 64 69 70
f 64 70 63
f 63 70 71
f 63 71 62
f 62 71 72
f 62 72 61
f 61 72 73
f 61 73 60
f 60 73 74
