v 0.2114999962 -0.1986000061 0.02799999952
v 0.2114999962 -0.1977577591 0.03031403542
v 0.2114999962 -0.1956251335 0.03154530764
v 0.2114999962 -0.1931999969 0.03111769199
v 0.2114999962 -0.1916171074 0.02923127174
v 0.2114999962 -0.1916171074 0.0267687273
v 0.2114999962 -0.1931999969 0.02488230944
v 0.2114999962 -0.1956251335 0.02445469141
v 0.2114999962 -0.1977577591 0.02568596363
v 0.215 -0.1986000061 0.02799999952
v 0.215 -0.1977577591 0.02568596363
v 0.215 -0.1956251335 0.02445469141
v 0.215 -0.1931999969 0.02488230944
v 0.215 -0.1916171074 0.0267687273
v 0.215 -0.1916171074 0.02923127174
v 0.215 -0.1931999969 0.03111769199
v 0.215 -0.1956251335 0.03154530764
v 0.215 -0.1977577591 0.03031403542
v 0.2114999962 -0.1986000061 0.02799999952
v 0.215 -0.1986000061 0.02799999952
v 0.205 -0.195 0.0225
v 0.2071047592 -0.1971047592 0.02291866302
v 0.2088890839 -0.1988890839 0.02411091328
v 0.2100813293 -0.2000813293 0.02589524031
v 0.2104999924 -0.2004999924 0.02799999952
v 0.2100813293 -0.2000813293 0.03010475874
v 0.2088890839 -0.1988890839 0.03188908815
v 0.2071047592 -0.1971047592 0.03308133841
v 0.205 -0.195 0.03349999905
v 0.2071047592 -0.1928952408 0.03308133841
v 0.2088890839 -0.1911109161 0.03188908815
v 0.2100813293 -0.1899186707 0.03010475874
v 0.2104999924 -0.1895000076 0.02799999952
v 0.2100813293 -0.1899186707 0.02589524031
v 0.2088890839 -0.1911109161 0.02411091328
v 0.2071047592 -0.1928952408 0.02291866302
v 0.2114999962 -0.2004999924 0.02799999952
v 0.2114999962 -0.1996269035 0.02502647638
v 0.2114999962 -0.1972847748 0.02299702406
v 0.2114999962 -0.1942172623 0.02255598307
v 0.2114999962 -0.1913982582 0.02384337664
v 0.2114999962 -0.1897227859 0.02645047188
v 0.2114999962 -0.1897227859 0.02954952955
v 0.2114999962 -0.1913982582 0.03215662241
v 0.2114999962 -0.1942172623 0.03344401836
v 0.2114999962 -0.1972847748 0.03300297499
v 0.2114999962 -0.1996269035 0.03097352505
v 0.2104999924 -0.2004999924 0.02799999952
v 0.2114999962 -0.2004999924 0.02799999952
v 0.2114999962 -0.1986000061 0.02799999952
v 0.2114999962 -0.1977577591 0.02568596363
v 0.2114999962 -0.1956251335 0.02445469141
v 0.2114999962 -0.1931999969 0.02488230944
v 0.2114999962 -0.1916171074 0.0267687273
v 0.2114999962 -0.1916171074 0.02923127174
v 0.2114999962 -0.1931999969 0.03111769199
v 0.2114999962 -0.1956251335 0.03154530764
v 0.2114999962 -0.1977577591 0.03031403542
v 0.2114999962 -0.2004999924 0.02799999952
v 0.2114999962 -0.1996269035 0.03097352505
v 0.2114999962 -0.1972847748 0.03300297499
v 0.2114999962 -0.1942172623 0.03344401836
v 0.2114999962 -0.1913982582 0.03215662241
v 0.2114999962 -0.1897227859 0.02954952955
v 0.2114999962 -0.1897227859 0.02645047188
v 0.2114999962 -0.1913982582 0.02384337664
v 0.2114999962 -0.1942172623 0.02255598307
v 0.2114999962 -0.1972847748 0.02299702406
v 0.2114999962 -0.1996269035 0.02502647638
v 0.205 -0.195 0.03349999905
v 0.2028952408 -0.1971047592 0.03308133841
v 0.2011109161 -0.1988890839 0.03188908815
v 0.1999186707 -0.2000813293 0.03010475874
v 0.1995000076 -0.2004999924 0.02799999952
v 0.1999186707 -0.2000813293 0.02589524031
v 0.2011109161 -0.1988890839 0.02411091328
v 0.2028952408 -0.1971047592 0.02291866302
v 0.205 -0.195 0.0225
v 0.2045000076 -0.1945000076 0.02252277374
v 0.2022468185 -0.1967531967 0.02278690815
v 0.2002919006 -0.1987080956 0.02393798113
v 0.1989678764 -0.2000321198 0.02578015089
v 0.1985000038 -0.2004999924 0.02799999952
v 0.1989678764 -0.2000321198 0.03021984816
v 0.2002919006 -0.1987080956 0.0320620203
v 0.2022468185 -0.1967531967 0.0332130909
v 0.2045000076 -0.1945000076 0.0334772253
v 0.205 -0.2014999962 0.03160000086
v 0.2026859665 -0.2014999962 0.030757761
v 0.2014546967 -0.2014999962 0.02862513304
v 0.2018823051 -0.2014999962 0.02619999886
v 0.2037687302 -0.2014999962 0.02461710691
v 0.2062312698 -0.2014999962 0.02461710691
v 0.2081176949 -0.2014999962 0.02619999886
v 0.2085453033 -0.2014999962 0.02862513304
v 0.2073140335 -0.2014999962 0.030757761
v 0.205 -0.2014999962 0.03349999905
v 0.2079735184 -0.2014999962 0.03262689352
v 0.2100029755 -0.2014999962 0.03028478146
v 0.2104440117 -0.2014999962 0.02721726894
v 0.2091566277 -0.2014999962 0.02439826488
v 0.20654953 -0.2014999962 0.02272278786
v 0.20345047 -0.2014999962 0.02272278786
v 0.2008433723 -0.2014999962 0.02439826488
v 0.1995559883 -0.2014999962 0.02721726894
v 0.1999970245 -0.2014999962 0.03028478146
v 0.2020264816 -0.2014999962 0.03262689352
v 0.2045000076 -0.1945000076 0.0334772253
v 0.2022468185 -0.1967531967 0.0332130909
v 0.2002919006 -0.1987080956 0.0320620203
v 0.1989678764 -0.2000321198 0.03021984816
v 0.1985000038 -0.2004999924 0.02799999952
v 0.1989678764 -0.2000321198 0.02578015089
v 0.2002919006 -0.1987080956 0.02393798113
v 0.2022468185 -0.1967531967 0.02278690815
v 0.2045000076 -0.1945000076 0.02252277374
v 0.2067531967 -0.1922468185 0.02278690815
v 0.2087080956 -0.1902919006 0.02393798113
v 0.2100321198 -0.1889678764 0.02578015089
v 0.2104999924 -0.1885000038 0.02799999952
v 0.2100321198 -0.1889678764 0.03021984816
v 0.2087080956 -0.1902919006 0.0320620203
v 0.2067531967 -0.1922468185 0.0332130909
v 0.2139999962 -0.185 0.01799999952
v 0.195 -0.2039999962 0.01799999952
v 0.195 -0.2039999962 0.03799999952
v 0.2139999962 -0.185 0.03799999952
v 0.195 -0.2039999962 0.01799999952
v 0.195 -0.205 0.01799999952
v 0.195 -0.205 0.03799999952
v 0.195 -0.2039999962 0.03799999952
v 0.215 -0.205 0.01799999952
v 0.195 -0.205 0.01799999952
v 0.195 -0.2039999962 0.01799999952
v 0.2139999962 -0.185 0.01799999952
v 0.215 -0.185 0.01799999952
v 0.205 -0.195 0.03349999905
v 0.2071047592 -0.1971047592 0.03308133841
v 0.2088890839 -0.1988890839 0.03188908815
v 0.2100813293 -0.2000813293 0.03010475874
v 0.2104999924 -0.2004999924 0.02799999952
v 0.2100813293 -0.2000813293 0.02589524031
v 0.2088890839 -0.1988890839 0.02411091328
v 0.2071047592 -0.1971047592 0.02291866302
v 0.205 -0.195 0.0225
v 0.2028952408 -0.1971047592 0.02291866302
v 0.2011109161 -0.1988890839 0.02411091328
v 0.1999186707 -0.2000813293 0.02589524031
v 0.1995000076 -0.2004999924 0.02799999952
v 0.1999186707 -0.2000813293 0.03010475874
v 0.2011109161 -0.1988890839 0.03188908815
v 0.2028952408 -0.1971047592 0.03308133841
v 0.205 -0.2014999962 0.03349999905
v 0.2020264816 -0.2014999962 0.03262689352
v 0.1999970245 -0.2014999962 0.03028478146
v 0.1995559883 -0.2014999962 0.02721726894
v 0.2008433723 -0.2014999962 0.02439826488
v 0.20345047 -0.2014999962 0.02272278786
v 0.20654953 -0.2014999962 0.02272278786
v 0.2091566277 -0.2014999962 0.02439826488
v 0.2104440117 -0.2014999962 0.02721726894
v 0.2100029755 -0.2014999962 0.03028478146
v 0.2079735184 -0.2014999962 0.03262689352
v 0.205 -0.195 0.03349999905
v 0.205 -0.2014999962 0.03349999905
v 0.215 -0.1986000061 0.02799999952
v 0.215 -0.1977577591 0.03031403542
v 0.215 -0.1956251335 0.03154530764
v 0.215 -0.1931999969 0.03111769199
v 0.215 -0.1916171074 0.02923127174
v 0.215 -0.1916171074 0.0267687273
v 0.215 -0.1931999969 0.02488230944
v 0.215 -0.1956251335 0.02445469141
v 0.215 -0.1977577591 0.02568596363
v 0.215 -0.205 0.01799999952
v 0.215 -0.185 0.01799999952
v 0.215 -0.185 0.03799999952
v 0.215 -0.205 0.03799999952
v 0.215 -0.185 0.01799999952
v 0.2139999962 -0.185 0.01799999952
v 0.2139999962 -0.185 0.03799999952
v 0.215 -0.185 0.03799999952
v 0.205 -0.205 0.03160000086
v 0.2073140335 -0.205 0.030757761
v 0.2085453033 -0.205 0.02862513304
v 0.2081176949 -0.205 0.02619999886
v 0.2062312698 -0.205 0.02461710691
v 0.2037687302 -0.205 0.02461710691
v 0.2018823051 -0.205 0.02619999886
v 0.2014546967 -0.205 0.02862513304
v 0.2026859665 -0.205 0.030757761
v 0.195 -0.205 0.01799999952
v 0.215 -0.205 0.01799999952
v 0.215 -0.205 0.03799999952
v 0.195 -0.205 0.03799999952
v 0.195 -0.205 0.03799999952
v 0.215 -0.205 0.03799999952
v 0.215 -0.185 0.03799999952
v 0.2139999962 -0.185 0.03799999952
v 0.195 -0.2039999962 0.03799999952
v 0.205 -0.2014999962 0.03160000086
v 0.2073140335 -0.2014999962 0.030757761
v 0.2085453033 -0.2014999962 0.02862513304
v 0.2081176949 -0.2014999962 0.02619999886
v 0.2062312698 -0.2014999962 0.02461710691
v 0.2037687302 -0.2014999962 0.02461710691
v 0.2018823051 -0.2014999962 0.02619999886
v 0.2014546967 -0.2014999962 0.02862513304
v 0.2026859665 -0.2014999962 0.030757761
v 0.205 -0.205 0.03160000086
v 0.2026859665 -0.205 0.030757761
v 0.2014546967 -0.205 0.02862513304
v 0.2018823051 -0.205 0.02619999886
v 0.2037687302 -0.205 0.02461710691
v 0.2062312698 -0.205 0.02461710691
v 0.2081176949 -0.205 0.02619999886
v 0.2085453033 -0.205 0.02862513304
v 0.2073140335 -0.205 0.030757761
v 0.205 -0.2014999962 0.03160000086
v 0.205 -0.205 0.03160000086
v 0.2045000076 -0.1945000076 0.02252277374
v 0.205 -0.195 0.0225
v 0.2071047592 -0.1928952408 0.02291866302
v 0.2088890839 -0.1911109161 0.02411091328
v 0.2100813293 -0.1899186707 0.02589524031
v 0.2104999924 -0.1895000076 0.02799999952
v 0.2100813293 -0.1899186707 0.03010475874
v 0.2088890839 -0.1911109161 0.03188908815
v 0.2071047592 -0.1928952408 0.03308133841
v 0.205 -0.195 0.03349999905
v 0.2045000076 -0.1945000076 0.0334772253
v 0.2067531967 -0.1922468185 0.0332130909
v 0.2087080956 -0.1902919006 0.0320620203
v 0.2100321198 -0.1889678764 0.03021984816
v 0.2104999924 -0.1885000038 0.02799999952
v 0.2100321198 -0.1889678764 0.02578015089
v 0.2087080956 -0.1902919006 0.02393798113
v 0.2067531967 -0.1922468185 0.02278690815
f 2 18 1
f 1 18 20
f 19 10 9
f 9 10 11
f 9 11 8
f 8 11 12
f 8 12 7
f 7 12 13
f 7 13 6
f 6 13 14
f 6 14 5
f 5 14 15
f 5 15 4
f 4 15 16
f 4 16 3
f 3 16 17
f 3 17 2
f 2 17 18
f 36 21 40
f 40 21 22
f 40 22 39
f 39 22 23
f 39 23 38
f 38 23 24
f 38 24 37
f 37 24 48
f 49 25 26
f 49 26 47
f 47 26 27
f 47 27 46
f 46 27 28
f 46 28 29
f 46 29 45
f 45 29 30
f 45 30 44
f 44 30 31
f 44 31 32
f 44 32 43
f 43 32 33
f 43 33 42
f 42 33 34
f 42 34 41
f 41 34 35
f 41 35 36
f 41 36 40
f 51 69 50
f 50 69 59
f 50 59 60
f 69 51 68
f 68 51 52
f 68 52 67
f 67 52 53
f 67 53 66
f 66 53 54
f 66 54 65
f 65 54 64
f 64 54 55
f 64 55 63
f 63 55 56
f 63 56 62
f 62 56 57
f 62 57 61
f 61 57 58
f 61 58 60
f 60 58 50
f 87 70 86
f 86 70 71
f 86 71 85
f 85 71 72
f 85 72 84
f 84 72 73
f 84 73 83
f 83 73 74
f 83 74 75
f 83 75 82
f 82 75 76
f 82 76 81
f 81 76 77
f 81 77 80
f 80 77 78
f 80 78 79
f 89 107 88
f 88 107 97
f 88 97 98
f 107 89 106
f 106 89 90
f 106 90 105
f 105 90 91
f 105 91 104
f 104 91 92
f 104 92 103
f 103 92 102
f 102 92 93
f 102 93 101
f 101 93 94
f 101 94 100
f 100 94 95
f 100 95 99
f 99 95 96
f 99 96 98
f 98 96 88
f 109 126 108
f 108 126 127
f 108 127 123
f 123 127 122
f 122 127 121
f 121 127 120
f 120 127 124
f 120 124 119
f 119 124 118
f 118 124 117
f 117 124 116
f 116 124 125
f 116 125 115
f 115 125 114
f 114 125 113
f 113 125 112
f 112 125 126
f 112 126 111
f 111 126 110
f 110 126 109
f 128 129 131
f 131 129 130
f 133 134 132
f 132 134 135
f 132 135 136
f 152 164 153
f 165 137 138
f 165 138 163
f 163 138 139
f 163 139 162
f 162 139 140
f 162 140 141
f 162 141 161
f 161 141 142
f 161 142 160
f 160 142 143
f 160 143 144
f 160 144 159
f 159 144 145
f 159 145 158
f 158 145 146
f 158 146 147
f 158 147 157
f 157 147 148
f 157 148 156
f 156 148 149
f 156 149 155
f 155 149 150
f 155 150 151
f 155 151 154
f 154 151 152
f 154 152 153
f 167 178 166
f 166 178 175
f 166 175 174
f 174 175 173
f 173 175 176
f 173 176 172
f 172 176 171
f 171 176 170
f 170 176 177
f 170 177 169
f 169 177 168
f 168 177 178
f 168 178 167
f 179 180 182
f 182 180 181
f 184 194 183
f 183 194 195
f 183 195 191
f 191 195 190
f 190 195 192
f 190 192 189
f 189 192 188
f 188 192 193
f 188 193 187
f 187 193 186
f 186 193 185
f 185 193 194
f 185 194 184
f 196 197 200
f 200 197 199
f 199 197 198
f 202 218 201
f 201 218 220
f 219 210 209
f 209 210 211
f 209 211 208
f 208 211 212
f 208 212 207
f 207 212 213
f 207 213 206
f 206 213 214
f 206 214 205
f 205 214 215
f 205 215 204
f 204 215 216
f 204 216 203
f 203 216 217
f 203 217 202
f 202 217 218
f 221 222 238
f 238 222 223
f 238 223 237
f 237 223 224
f 237 224 236
f 236 224 225
f 236 225 235
f 235 225 226
f 235 226 227
f 235 227 234
f 234 227 228
f 234 228 233
f 233 228 229
f 233 229 232
f 232 229 230
f 232 230 231
