v -0.171296711 -0.02239254951 0.4198767702
v -0.172158597 -0.02239254951 0.4161005426
v -0.1745735621 -0.02239254951 0.413072241
v -0.1780633205 -0.02239254951 0.41139167
v -0.1819366497 -0.02239254951 0.4113916632
v -0.185426414 -0.02239254951 0.4130722219
v -0.1878413897 -0.02239254951 0.4161005151
v -0.188703289 -0.02239254951 0.4198767396
v -0.187841403 -0.02239254951 0.4236529481
v -0.1854264379 -0.02239254951 0.4266812498
v -0.1819366795 -0.02239254951 0.4283618399
v -0.1780633503 -0.02239254951 0.4283618467
v -0.174573586 -0.02239254951 0.4266812688
v -0.1721586103 -0.02239254951 0.4236529757
v -0.171296711 -0.02105000019 0.4198767702
v -0.1721586103 -0.02105000019 0.4236529757
v -0.174573586 -0.02105000019 0.4266812688
v -0.1780633503 -0.02105000019 0.4283618467
v -0.1819366795 -0.02105000019 0.4283618399
v -0.1854264379 -0.02105000019 0.4266812498
v -0.187841403 -0.02105000019 0.4236529481
v -0.188703289 -0.02105000019 0.4198767396
v -0.1878413897 -0.02105000019 0.4161005151
v -0.185426414 -0.02105000019 0.4130722219
v -0.1819366497 -0.02105000019 0.4113916632
v -0.1780633205 -0.02105000019 0.41139167
v -0.1745735621 -0.02105000019 0.413072241
v -0.172158597 -0.02105000019 0.4161005426
v -0.188703289 -0.02239254951 0.4198767396
v -0.188703289 -0.02105000019 0.4198767396
v -0.1727033043 -0.02239254951 0.4198767677
v -0.1735390913 -0.02239254951 0.4232677079
v -0.1758550177 -0.02239254951 0.4258818205
v -0.1791204961 -0.02239254951 0.4271202562
v -0.1825874639 -0.02239254951 0.4266992792
v -0.1854616632 -0.02239254951 0.4247153455
v -0.1870846779 -0.02239254951 0.4216229583
v -0.1870846718 -0.02239254951 0.4181305267
v -0.1854616462 -0.02239254951 0.4150381261
v -0.18258744 -0.02239254951 0.4130542025
v -0.1791204707 -0.02239254951 0.4126332567
v -0.1758549966 -0.02239254951 0.4138716848
v -0.1735390794 -0.02239254951 0.4164858246
v -0.1727033043 -0.02105000019 0.4198767677
v -0.1735390794 -0.02105000019 0.4164858246
v -0.1758549966 -0.02105000019 0.4138716848
v -0.1791204707 -0.02105000019 0.4126332567
v -0.18258744 -0.02105000019 0.4130542025
v -0.1854616462 -0.02105000019 0.4150381261
v -0.1870846718 -0.02105000019 0.4181305267
v -0.1870846779 -0.02105000019 0.4216229583
v -0.1854616632 -0.02105000019 0.4247153455
v -0.1825874639 -0.02105000019 0.4266992792
v -0.1791204961 -0.02105000019 0.4271202562
v -0.1758550177 -0.02105000019 0.4258818205
v -0.1735390913 -0.02105000019 0.4232677079
v -0.1870846718 -0.02239254951 0.4181305267
v -0.1870846718 -0.02105000019 0.4181305267
v -0.171296711 -0.02105000019 0.4198767702
v -0.172158597 -0.02105000019 0.4161005426
v -0.1745735621 -0.02105000019 0.413072241
v -0.1780633205 -0.02105000019 0.41139167
v -0.1819366497 -0.02105000019 0.4113916632
v -0.185426414 -0.02105000019 0.4130722219
v -0.1878413897 -0.02105000019 0.4161005151
v -0.188703289 -0.02105000019 0.4198767396
v -0.187841403 -0.02105000019 0.4236529481
v -0.1854264379 -0.02105000019 0.4266812498
v -0.1819366795 -0.02105000019 0.4283618399
v -0.1780633503 -0.02105000019 0.4283618467
v -0.174573586 -0.02105000019 0.4266812688
v -0.1721586103 -0.02105000019 0.4236529757
v -0.1727033043 -0.02105000019 0.4198767677
v -0.1735390913 -0.02105000019 0.4232677079
v -0.1758550177 -0.02105000019 0.4258818205
v -0.1791204961 -0.02105000019 0.4271202562
v -0.1825874639 -0.02105000019 0.4266992792
v -0.1854616632 -0.02105000019 0.4247153455
v -0.1870846779 -0.02105000019 0.4216229583
v -0.1870846718 -0.02105000019 0.4181305267
v -0.1854616462 -0.02105000019 0.4150381261
v -0.18258744 -0.02105000019 0.4130542025
v -0.1791204707 -0.02105000019 0.4126332567
v -0.1758549966 -0.02105000019 0.4138716848
v -0.1735390794 -0.02105000019 0.4164858246
v -0.171296711 -0.02239254951 0.4198767702
v -0.1721586103 -0.02239254951 0.4236529757
v -0.174573586 -0.02239254951 0.4266812688
v -0.1780633503 -0.02239254951 0.4283618467
v -0.1819366795 -0.02239254951 0.4283618399
v -0.1854264379 -0.02239254951 0.4266812498
v -0.187841403 -0.02239254951 0.4236529481
v -0.188703289 -0.02239254951 0.4198767396
v -0.1878413897 -0.02239254951 0.4161005151
v -0.185426414 -0.02239254951 0.4130722219
v -0.1819366497 -0.02239254951 0.4113916632
v -0.1780633205 -0.02239254951 0.41139167
v -0.1745735621 -0.02239254951 0.413072241
v -0.172158597 -0.02239254951 0.4161005426
v -0.1727033043 -0.02239254951 0.4198767677
v -0.1735390794 -0.02239254951 0.4164858246
v -0.1758549966 -0.02239254951 0.4138716848
v -0.1791204707 -0.02239254951 0.4126332567
v -0.18258744 -0.02239254951 0.4130542025
v -0.1854616462 -0.02239254951 0.4150381261
v -0.1870846718 -0.02239254951 0.4181305267
v -0.1870846779 -0.02239254951 0.4216229583
v -0.1854616632 -0.02239254951 0.4247153455
v -0.1825874639 -0.02239254951 0.4266992792
v -0.1791204961 -0.02239254951 0.4271202562
v -0.1758550177 -0.02239254951 0.4258818205
v -0.1735390913 -0.02239254951 0.4232677079
f 2 15 1
f 1 15 16
f 1 16 14
f 14 16 17
f 14 17 13
f 13 17 18
f 13 18 12
f 12 18 19
f 12 19 11
f 11 19 20
f 11 20 10
f 10 20 21
f 10 21 9
f 9 21 8
f 8 21 30
f 29 22 7
f 7 22 23
f 7 23 24
f 15 2 28
f 28 2 3
f 28 3 27
f 27 3 4
f 27 4 26
f 26 4 5
f 26 5 25
f 25 5 6
f 25 6 24
f 24 6 7
f 32 56 31
f 31 56 44
f 31 44 43
f 43 44 45
f 43 45 46
f 32 33 56
f 56 33 55
f 55 33 34
f 55 34 54
f 54 34 35
f 54 35 53
f 53 35 36
f 53 36 52
f 52 36 37
f 52 37 51
f 51 37 57
f 51 57 50
f 58 38 39
f 58 39 49
f 49 39 40
f 49 40 48
f 48 40 41
f 48 41 47
f 47 41 42
f 47 42 46
f 46 42 43
f 72 59 73
f 73 59 60
f 73 60 85
f 85 60 61
f 85 61 84
f 84 61 62
f 84 62 83
f 83 62 63
f 83 63 82
f 82 63 64
f 82 64 81
f 81 64 65
f 81 65 80
f 80 65 66
f 80 66 79
f 79 66 67
f 79 67 78
f 78 67 68
f 78 68 77
f 77 68 69
f 77 69 76
f 76 69 70
f 76 70 75
f 75 70 71
f 75 71 74
f 74 71 72
f 74 72 73
f 99 86 100
f 100 86 87
f 100 87 112
f 112 87 88
f 112 88 111
f 111 88 89
f 111 89 110
f 110 89 90
f 110 90 109
f 109 90 91
f 109 91 108
f 108 91 92
f 108 92 107
f 107 92 93
f 107 93 106
f 106 93 94
f 106 94 105
f 105 94 95
f 105 95 104
f 104 95 96
f 104 96 103
f 103 96 97
f 103 97 102
f 102 97 98
f 102 98 101
f 101 98 99
f 101 99 100
