v -0.2075 0.09050000191 0.6195000076
v -0.2067677689 0.09226777077 0.6195000076
v -0.205 0.09300000191 0.6195000076
v -0.2032322311 0.09226777077 0.6195000076
v -0.2025 0.09050000191 0.6195000076
v -0.2032322311 0.08873223305 0.6195000076
v -0.205 0.08800000191 0.6195000076
v -0.2067677689 0.08873223305 0.6195000076
v -0.2075 0.09050000191 0.6115000153
v -0.2067677689 0.08873223305 0.6115000153
v -0.205 0.08800000191 0.6115000153
v -0.2032322311 0.08873223305 0.6115000153
v -0.2025 0.09050000191 0.6115000153
v -0.2032322311 0.09226777077 0.6115000153
v -0.205 0.09300000191 0.6115000153
v -0.2067677689 0.09226777077 0.6115000153
v -0.2075 0.09050000191 0.6115000153
v -0.2075 0.09050000191 0.6195000076
v -0.2075 0.09050000191 0.6195000076
v -0.2067677689 0.08873223305 0.6195000076
v -0.205 0.08800000191 0.6195000076
v -0.2032322311 0.08873223305 0.6195000076
v -0.2025 0.09050000191 0.6195000076
v -0.2032322311 0.09226777077 0.6195000076
v -0.205 0.09300000191 0.6195000076
v -0.2067677689 0.09226777077 0.6195000076
v -0.2041339684 0.09199999809 0.6109999847
v -0.2032679558 0.09050000191 0.6109999847
v -0.2041339684 0.08899999619 0.6109999847
v -0.2058660316 0.08899999619 0.6109999847
v -0.2067320442 0.09050000191 0.6109999847
v -0.2058660316 0.09199999809 0.6109999847
v -0.2041339684 0.08899999619 0.61
v -0.2058660316 0.08899999619 0.61
v -0.2058660316 0.08899999619 0.6109999847
v -0.2041339684 0.08899999619 0.6109999847
v -0.2058660316 0.08899999619 0.61
v -0.2067320442 0.09050000191 0.61
v -0.2067320442 0.09050000191 0.6109999847
v -0.2058660316 0.08899999619 0.6109999847
v -0.2067320442 0.09050000191 0.61
v -0.2058660316 0.09199999809 0.61
v -0.2058660316 0.09199999809 0.6109999847
v -0.2067320442 0.09050000191 0.6109999847
v -0.2041339684 0.09199999809 0.61
v -0.2032679558 0.09050000191 0.61
v -0.2032679558 0.09050000191 0.6109999847
v -0.2041339684 0.09199999809 0.6109999847
v -0.2058660316 0.09199999809 0.61
v -0.2041339684 0.09199999809 0.61
v -0.2041339684 0.09199999809 0.6109999847
v -0.2058660316 0.09199999809 0.6109999847
v -0.2032679558 0.09050000191 0.61
v -0.2041339684 0.08899999619 0.61
v -0.2041339684 0.08899999619 0.6109999847
v -0.2032679558 0.09050000191 0.6109999847
v -0.2095000076 0.09050000191 0.61
v -0.2086405754 0.08785496712 0.61
v -0.2063905716 0.08622024536 0.61
v -0.2036094284 0.08622024536 0.61
v -0.2013594246 0.08785496712 0.61
v -0.2004999924 0.09050000191 0.61
v -0.2013594246 0.0931450367 0.61
v -0.2036094284 0.09477975845 0.61
v -0.2063905716 0.09477975845 0.61
v -0.2086405754 0.0931450367 0.61
v -0.2095000076 0.09050000191 0.6115000153
v -0.2086405754 0.0931450367 0.6115000153
v -0.2063905716 0.09477975845 0.6115000153
v -0.2036094284 0.09477975845 0.6115000153
v -0.2013594246 0.0931450367 0.6115000153
v -0.2004999924 0.09050000191 0.6115000153
v -0.2013594246 0.08785496712 0.6115000153
v -0.2036094284 0.08622024536 0.6115000153
v -0.2063905716 0.08622024536 0.6115000153
v -0.2086405754 0.08785496712 0.6115000153
v -0.2095000076 0.09050000191 0.6115000153
v -0.2095000076 0.09050000191 0.61
v -0.2095000076 0.09050000191 0.6115000153
v -0.2086405754 0.08785496712 0.6115000153
v -0.2063905716 0.08622024536 0.6115000153
v -0.2036094284 0.08622024536 0.6115000153
v -0.2013594246 0.08785496712 0.6115000153
v -0.2004999924 0.09050000191 0.6115000153
v -0.2013594246 0.0931450367 0.6115000153
v -0.2036094284 0.09477975845 0.6115000153
v -0.2063905716 0.09477975845 0.6115000153
v -0.2086405754 0.0931450367 0.6115000153
v -0.2075 0.09050000191 0.6115000153
v -0.2067677689 0.09226777077 0.6115000153
v -0.205 0.09300000191 0.6115000153
v -0.2032322311 0.09226777077 0.6115000153
v -0.2025 0.09050000191 0.6115000153
v -0.2032322311 0.08873223305 0.6115000153
v -0.205 0.08800000191 0.6115000153
v -0.2067677689 0.08873223305 0.6115000153
v -0.2041339684 0.08899999619 0.61
v -0.2032679558 0.09050000191 0.61
v -0.2041339684 0.09199999809 0.61
v -0.2058660316 0.09199999809 0.61
v -0.2067320442 0.09050000191 0.61
v -0.2058660316 0.08899999619 0.61
v -0.2095000076 0.09050000191 0.61
v -0.2086405754 0.0931450367 0.61
v -0.2063905716 0.09477975845 0.61
v -0.2036094284 0.09477975845 0.61
v -0.2013594246 0.0931450367 0.61
v -0.2004999924 0.09050000191 0.61
v -0.2013594246 0.08785496712 0.61
v -0.2036094284 0.08622024536 0.61
v -0.2063905716 0.08622024536 0.61
v -0.2086405754 0.08785496712 0.61
f 2 16 1
f 1 16 17
f 18 9 8
f 8 9 10
f 8 10 11
f 2 3 16
f 16 3 15
f 15 3 4
f 15 4 14
f 14 4 5
f 14 5 13
f 13 5 6
f 13 6 12
f 12 6 7
f 12 7 11
f 11 7 8
f 20 22 19
f 19 22 23
f 19 23 26
f 26 23 24
f 26 24 25
f 20 21 22
f 27 28 32
f 32 28 31
f 31 28 29
f 31 29 30
f 33 34 36
f 36 34 35
f 37 38 40
f 40 38 39
f 41 42 44
f 44 42 43
f 45 46 48
f 48 46 47
f 49 50 52
f 52 50 51
f 53 54 56
f 56 54 55
f 58 76 57
f 57 76 77
f 78 67 66
f 66 67 68
f 66 68 65
f 65 68 69
f 65 69 64
f 64 69 70
f 64 70 63
f 63 70 71
f 63 71 62
f 62 71 72
f 62 72 61
f 61 72 73
f 61 73 60
f 60 73 74
f 60 74 59
f 59 74 75
f 59 75 58
f 58 75 76
f 88 79 89
f 89 79 80
f 89 80 96
f 96 80 81
f 96 81 95
f 95 81 82
f 95 82 94
f 94 82 83
f 94 83 93
f 93 83 84
f 93 84 85
f 93 85 92
f 92 85 86
f 92 86 91
f 91 86 87
f 91 87 90
f 90 87 88
f 90 88 89
f 98 109 97
f 97 109 110
f 97 110 111
f 99 107 98
f 98 107 108
f 98 108 109
f 107 99 106
f 106 99 100
f 106 100 105
f 105 100 104
f 104 100 101
f 104 101 103
f 103 101 112
f 112 101 102
f 112 102 111
f 111 102 97
