v -0.2297999954 0.09300000191 0.04800000191
v -0.2297999954 0.09226777077 0.049767766
v -0.2297999954 0.09050000191 0.05050000191
v -0.2297999954 0.08873223305 0.049767766
v -0.2297999954 0.08800000191 0.04800000191
v -0.2297999954 0.08873223305 0.04623223305
v -0.2297999954 0.09050000191 0.04550000191
v -0.2297999954 0.09226777077 0.04623223305
v -0.2331999969 0.09300000191 0.04800000191
v -0.2331999969 0.09226777077 0.04623223305
v -0.2331999969 0.09050000191 0.04550000191
v -0.2331999969 0.08873223305 0.04623223305
v -0.2331999969 0.08800000191 0.04800000191
v -0.2331999969 0.08873223305 0.049767766
v -0.2331999969 0.09050000191 0.05050000191
v -0.2331999969 0.09226777077 0.049767766
v -0.2297999954 0.09300000191 0.04800000191
v -0.2331999969 0.09300000191 0.04800000191
v -0.2331999969 0.09300000191 0.04800000191
v -0.2331999969 0.09226777077 0.049767766
v -0.2331999969 0.09050000191 0.05050000191
v -0.2331999969 0.08873223305 0.049767766
v -0.2331999969 0.08800000191 0.04800000191
v -0.2331999969 0.08873223305 0.04623223305
v -0.2331999969 0.09050000191 0.04550000191
v -0.2331999969 0.09226777077 0.04623223305
v -0.2331999969 0.09550000191 0.04300000191
v -0.2331999969 0.08550000191 0.04300000191
v -0.2331999969 0.08550000191 0.05300000191
v -0.2331999969 0.09550000191 0.05300000191
v -0.2297999954 0.09399999619 0.05300000191
v -0.2331999969 0.09550000191 0.05300000191
v -0.2331999969 0.08550000191 0.05300000191
v -0.2297999954 0.08699999809 0.05300000191
v -0.2297999954 0.09399999619 0.04300000191
v -0.2331999969 0.09550000191 0.04300000191
v -0.2331999969 0.09550000191 0.05300000191
v -0.2297999954 0.09399999619 0.05300000191
v -0.2331999969 0.09550000191 0.04300000191
v -0.2297999954 0.09399999619 0.04300000191
v -0.2297999954 0.08699999809 0.04300000191
v -0.2331999969 0.08550000191 0.04300000191
v -0.2331999969 0.08550000191 0.04300000191
v -0.2297999954 0.08699999809 0.04300000191
v -0.2297999954 0.08699999809 0.05300000191
v -0.2331999969 0.08550000191 0.05300000191
v -0.2297999954 0.09300000191 0.04800000191
v -0.2297999954 0.09226777077 0.04623223305
v -0.2297999954 0.09050000191 0.04550000191
v -0.2297999954 0.08873223305 0.04623223305
v -0.2297999954 0.08800000191 0.04800000191
v -0.2297999954 0.08873223305 0.049767766
v -0.2297999954 0.09050000191 0.05050000191
v -0.2297999954 0.09226777077 0.049767766
v -0.2297999954 0.08699999809 0.04300000191
v -0.2297999954 0.09399999619 0.04300000191
v -0.2297999954 0.09399999619 0.05300000191
v -0.2297999954 0.08699999809 0.05300000191
f 2 16 1
f 1 16 18
f 17 9 8
f 8 9 10
f 8 10 11
f 2 3 16
f 16 3 15
f 15 3 4
f 15 4 14
f 14 4 5
f 14 5 13
f 13 5 6
f 13 6 12
f 12 6 7
f 12 7 11
f 11 7 8
f 20 30 19
f 19 30 27
f 19 27 26
f 26 27 25
f 25 27 28
f 25 28 24
f 24 28 23
f 23 28 29
f 23 29 22
f 22 29 21
f 21 29 30
f 21 30 20
f 32 33 31
f 31 33 34
f 35 36 38
f 38 36 37
f 40 41 39
f 39 41 42
f 43 44 46
f 46 44 45
f 48 56 47
f 47 56 57
f 47 57 54
f 54 57 53
f 53 57 58
f 53 58 52
f 52 58 51
f 51 58 55
f 51 55 50
f 50 55 49
f 49 55 56
f 49 56 48
