v 0.0625 0.09100000381 0.3548767549
v 0.06323223114 0.09100000381 0.3531089861
v 0.065 0.09100000381 0.3523767549
v 0.06676776886 0.09100000381 0.3531089861
v 0.0675 0.09100000381 0.3548767549
v 0.06676776886 0.09100000381 0.3566445238
v 0.065 0.09100000381 0.3573767549
v 0.06323223114 0.09100000381 0.3566445238
v 0.0625 0.06599999905 0.3548767549
v 0.06323223114 0.06599999905 0.3566445238
v 0.065 0.06599999905 0.3573767549
v 0.06676776886 0.06599999905 0.3566445238
v 0.0675 0.06599999905 0.3548767549
v 0.06676776886 0.06599999905 0.3531089861
v 0.065 0.06599999905 0.3523767549
v 0.06323223114 0.06599999905 0.3531089861
v 0.0625 0.06599999905 0.3548767549
v 0.0625 0.09100000381 0.3548767549
v 0.0625 0.09100000381 0.3548767549
v 0.06323223114 0.09100000381 0.3566445238
v 0.065 0.09100000381 0.3573767549
v 0.06676776886 0.09100000381 0.3566445238
v 0.0675 0.09100000381 0.3548767549
v 0.06676776886 0.09100000381 0.3531089861
v 0.065 0.09100000381 0.3523767549
v 0.06323223114 0.09100000381 0.3531089861
v 0.06074999809 0.06099999905 0.3548767549
v 0.06156167984 0.06099999905 0.3523786623
v 0.06368667603 0.06099999905 0.3508347589
v 0.06631332397 0.06099999905 0.3508347589
v 0.06843832016 0.06099999905 0.3523786623
v 0.06925000191 0.06099999905 0.3548767549
v 0.06843832016 0.06099999905 0.357374838
v 0.06631332397 0.06099999905 0.3589187414
v 0.06368667603 0.06099999905 0.3589187414
v 0.06156167984 0.06099999905 0.357374838
v 0.06074999809 0.06599999905 0.3548767549
v 0.06156167984 0.06599999905 0.3523786623
v 0.06368667603 0.06599999905 0.3508347589
v 0.06631332397 0.06599999905 0.3508347589
v 0.06843832016 0.06599999905 0.3523786623
v 0.06925000191 0.06599999905 0.3548767549
v 0.06843832016 0.06599999905 0.357374838
v 0.06631332397 0.06599999905 0.3589187414
v 0.06368667603 0.06599999905 0.3589187414
v 0.06156167984 0.06599999905 0.357374838
v 0.06074999809 0.06099999905 0.3548767549
v 0.06156167984 0.06099999905 0.357374838
v 0.06368667603 0.06099999905 0.3589187414
v 0.06631332397 0.06099999905 0.3589187414
v 0.06843832016 0.06099999905 0.357374838
v 0.06925000191 0.06099999905 0.3548767549
v 0.06843832016 0.06099999905 0.3523786623
v 0.06631332397 0.06099999905 0.3508347589
v 0.06368667603 0.06099999905 0.3508347589
v 0.06156167984 0.06099999905 0.3523786623
v 0.06074999809 0.06099999905 0.3548767549
v 0.06074999809 0.06599999905 0.3548767549
v 0.06074999809 0.06599999905 0.3548767549
v 0.06156167984 0.06599999905 0.357374838
v 0.06368667603 0.06599999905 0.3589187414
v 0.06631332397 0.06599999905 0.3589187414
v 0.06843832016 0.06599999905 0.357374838
v 0.06925000191 0.06599999905 0.3548767549
v 0.06843832016 0.06599999905 0.3523786623
v 0.06631332397 0.06599999905 0.3508347589
v 0.06368667603 0.06599999905 0.3508347589
v 0.06156167984 0.06599999905 0.3523786623
v 0.0625 0.06599999905 0.3548767549
v 0.06323223114 0.06599999905 0.3531089861
v 0.065 0.06599999905 0.3523767549
v 0.06676776886 0.06599999905 0.3531089861
v 0.0675 0.06599999905 0.3548767549
v 0.06676776886 0.06599999905 0.3566445238
v 0.065 0.06599999905 0.3573767549
v 0.06323223114 0.06599999905 0.3566445238
f 2 16 1
f 1 16 17
f 18 9 8
f 8 9 10
f 8 10 11
f 2 3 16
f 16 3 15
f 15 3 4
f 15 4 14
f 14 4 5
f 14 5 13
f 13 5 6
f 13 6 12
f 12 6 7
f 12 7 11
f 11 7 8
f 20 22 19
f 19 22 23
f 19 23 26
f 26 23 24
f 26 24 25
f 20 21 22
f 28 31 27
f 27 31 32
f 27 32 36
f 36 32 33
f 36 33 35
f 35 33 34
f 29 30 28
f 28 30 31
f 38 56 37
f 37 56 57
f 58 47 46
f 46 47 48
f 46 48 45
f 45 48 49
f 45 49 44
f 44 49 50
f 44 50 43
f 43 50 51
f 43 51 42
f 42 51 52
f 42 52 41
f 41 52 53
f 41 53 40
f 40 53 54
f 40 54 39
f 39 54 55
f 39 55 38
f 38 55 56
f 68 59 69
f 69 59 60
f 69 60 76
f 76 60 61
f 76 61 75
f 75 61 62
f 75 62 74
f 74 62 63
f 74 63 73
f 73 63 64
f 73 64 65
f 73 65 72
f 72 65 66
f 72 66 71
f 71 66 67
f 71 67 70
f 70 67 68
f 70 68 69
