v -0.2202000046 0.08699999809 0.6
v -0.2202000046 0.09399999619 0.6
v -0.2168000031 0.09550000191 0.6
v -0.2168000031 0.08550000191 0.6
v -0.2202000046 0.09300000191 0.605
v -0.2202000046 0.09226777077 0.6067677689
v -0.2202000046 0.09050000191 0.6075
v -0.2202000046 0.08873223305 0.6067677689
v -0.2202000046 0.08800000191 0.605
v -0.2202000046 0.08873223305 0.6032322311
v -0.2202000046 0.09050000191 0.6025
v -0.2202000046 0.09226777077 0.6032322311
v -0.2202000046 0.08699999809 0.61
v -0.2202000046 0.09399999619 0.61
v -0.2202000046 0.09399999619 0.6
v -0.2202000046 0.08699999809 0.6
v -0.2202000046 0.09399999619 0.61
v -0.2168000031 0.09550000191 0.61
v -0.2168000031 0.09550000191 0.6
v -0.2202000046 0.09399999619 0.6
v -0.2168000031 0.09300000191 0.605
v -0.2168000031 0.09226777077 0.6032322311
v -0.2168000031 0.09050000191 0.6025
v -0.2168000031 0.08873223305 0.6032322311
v -0.2168000031 0.08800000191 0.605
v -0.2168000031 0.08873223305 0.6067677689
v -0.2168000031 0.09050000191 0.6075
v -0.2168000031 0.09226777077 0.6067677689
v -0.2168000031 0.09550000191 0.61
v -0.2168000031 0.08550000191 0.61
v -0.2168000031 0.08550000191 0.6
v -0.2168000031 0.09550000191 0.6
v -0.2202000046 0.09399999619 0.61
v -0.2202000046 0.08699999809 0.61
v -0.2168000031 0.08550000191 0.61
v -0.2168000031 0.09550000191 0.61
v -0.2168000031 0.08550000191 0.61
v -0.2202000046 0.08699999809 0.61
v -0.2202000046 0.08699999809 0.6
v -0.2168000031 0.08550000191 0.6
v -0.2202000046 0.09300000191 0.605
v -0.2202000046 0.09226777077 0.6032322311
v -0.2202000046 0.09050000191 0.6025
v -0.2202000046 0.08873223305 0.6032322311
v -0.2202000046 0.08800000191 0.605
v -0.2202000046 0.08873223305 0.6067677689
v -0.2202000046 0.09050000191 0.6075
v -0.2202000046 0.09226777077 0.6067677689
v -0.2168000031 0.09300000191 0.605
v -0.2168000031 0.09226777077 0.6067677689
v -0.2168000031 0.09050000191 0.6075
v -0.2168000031 0.08873223305 0.6067677689
v -0.2168000031 0.08800000191 0.605
v -0.2168000031 0.08873223305 0.6032322311
v -0.2168000031 0.09050000191 0.6025
v -0.2168000031 0.09226777077 0.6032322311
v -0.2202000046 0.09300000191 0.605
v -0.2168000031 0.09300000191 0.605
f 1 2 4
f 4 2 3
f 6 14 5
f 5 14 15
f 5 15 12
f 12 15 11
f 11 15 16
f 11 16 10
f 10 16 9
f 9 16 13
f 9 13 8
f 8 13 7
f 7 13 14
f 7 14 6
f 17 18 20
f 20 18 19
f 22 32 21
f 21 32 29
f 21 29 28
f 28 29 27
f 27 29 30
f 27 30 26
f 26 30 25
f 25 30 31
f 25 31 24
f 24 31 23
f 23 31 32
f 23 32 22
f 33 34 36
f 36 34 35
f 37 38 40
f 40 38 39
f 42 56 41
f 41 56 58
f 57 49 48
f 48 49 50
f 48 50 51
f 42 43 56
f 56 43 55
f 55 43 44
f 55 44 54
f 54 44 45
f 54 45 53
f 53 45 46
f 53 46 52
f 52 46 47
f 52 47 51
f 51 47 48
