v -0.03917704105 0.1077000046 0.4363179285
v -0.03917906046 0.1077000046 0.436316765
v -0.03917906046 0.1089999962 0.436316765
v -0.0378790617 0.1089999962 0.4370664484
v -0.0378790617 0.1077000046 0.4370664484
v -0.03512906075 0.1060000038 0.4355667764
v -0.03593451738 0.1060000038 0.4375113184
v -0.0378790617 0.1060000038 0.4383167726
v -0.03982360363 0.1060000038 0.4375113184
v -0.04062906265 0.1060000038 0.4355667764
v -0.03982360363 0.1060000038 0.4336222345
v -0.0378790617 0.1060000038 0.4328167802
v -0.03593451738 0.1060000038 0.4336222345
v -0.03617906094 0.1060000038 0.4355667764
v -0.03702906132 0.1060000038 0.4340945322
v -0.0387290597 0.1060000038 0.4340945322
v -0.03957906008 0.1060000038 0.4355667764
v -0.0387290597 0.1060000038 0.4370390207
v -0.03702906132 0.1060000038 0.4370390207
v -0.03512906075 0.1088000011 0.4355667764
v -0.03593451738 0.1088000011 0.4375113184
v -0.0378790617 0.1088000011 0.4383167726
v -0.03982360363 0.1088000011 0.4375113184
v -0.04062906265 0.1088000011 0.4355667764
v -0.03982360363 0.1088000011 0.4336222345
v -0.0378790617 0.1088000011 0.4328167802
v -0.03593451738 0.1088000011 0.4336222345
v -0.03512906075 0.1060000038 0.4355667764
v -0.03593451738 0.1060000038 0.4336222345
v -0.0378790617 0.1060000038 0.4328167802
v -0.03982360363 0.1060000038 0.4336222345
v -0.04062906265 0.1060000038 0.4355667764
v -0.03982360363 0.1060000038 0.4375113184
v -0.0378790617 0.1060000038 0.4383167726
v -0.03593451738 0.1060000038 0.4375113184
v -0.03512906075 0.1060000038 0.4355667764
v -0.03512906075 0.1088000011 0.4355667764
v -0.03532906055 0.1089999962 0.4355667764
v -0.03607593775 0.1089999962 0.4373698885
v -0.0378790617 0.1089999962 0.438116768
v -0.03968218327 0.1089999962 0.4373698885
v -0.04042906284 0.1089999962 0.4355667764
v -0.03968218327 0.1089999962 0.4337636453
v -0.0378790617 0.1089999962 0.4330167658
v -0.03607593775 0.1089999962 0.4337636453
v -0.03512906075 0.1088000011 0.4355667764
v -0.03593451738 0.1088000011 0.4336222345
v -0.0378790617 0.1088000011 0.4328167802
v -0.03982360363 0.1088000011 0.4336222345
v -0.04062906265 0.1088000011 0.4355667764
v -0.03982360363 0.1088000011 0.4375113184
v -0.0378790617 0.1088000011 0.4383167726
v -0.03593451738 0.1088000011 0.4375113184
v -0.03607593775 0.1089999962 0.4373698885
v -0.03593451738 0.1088000011 0.4375113184
v -0.03532906055 0.1089999962 0.4355667764
v -0.03607593775 0.1089999962 0.4337636453
v -0.0378790617 0.1089999962 0.4330167658
v -0.03968218327 0.1089999962 0.4337636453
v -0.04042906284 0.1089999962 0.4355667764
v -0.03968218327 0.1089999962 0.4373698885
v -0.0378790617 0.1089999962 0.438116768
v -0.03607593775 0.1089999962 0.4373698885
v -0.0378790617 0.1089999962 0.4370664484
v -0.03917906046 0.1089999962 0.436316765
v -0.03917906046 0.1089999962 0.4348161012
v -0.0378790617 0.1089999962 0.4340664369
v -0.03657906055 0.1089999962 0.4348161012
v -0.03657906055 0.1089999962 0.436316765
v -0.0378790617 0.1077000046 0.4370664484
v -0.0378790617 0.1089999962 0.4370664484
v -0.03657906055 0.1089999962 0.436316765
v -0.03657906055 0.1077000046 0.436316765
v -0.03658107996 0.1077000046 0.4363179285
v -0.03658107996 0.1077000046 0.4363179285
v -0.03691587925 0.1077000046 0.4367162401
v -0.03736662626 0.1077000046 0.4369761736
v -0.0378790617 0.1077000046 0.4370664484
v -0.03657906055 0.1077000046 0.4348191148
v -0.03640203238 0.1077000046 0.4353071863
v -0.03640203238 0.1077000046 0.4358263666
v -0.03657906055 0.1077000046 0.436314438
v -0.03617906094 0.1060000038 0.4355667764
v -0.03702906132 0.1060000038 0.4370390207
v -0.0387290597 0.1060000038 0.4370390207
v -0.03957906008 0.1060000038 0.4355667764
v -0.0387290597 0.1060000038 0.4340945322
v -0.03702906132 0.1060000038 0.4340945322
v -0.03637906075 0.1057999992 0.4355667764
v -0.03712906122 0.1057999992 0.4342677385
v -0.03862905979 0.1057999992 0.4342677385
v -0.03937906027 0.1057999992 0.4355667764
v -0.03862905979 0.1057999992 0.4368658144
v -0.03712906122 0.1057999992 0.4368658144
v -0.03957906008 0.1060000038 0.4355667764
v -0.03937906027 0.1057999992 0.4355667764
v -0.03787790298 0.1077000046 0.4340671045
v -0.03736626387 0.1077000046 0.4341575128
v -0.03691617489 0.1077000046 0.4344170457
v -0.0365816617 0.1077000046 0.4348146135
v -0.0378790617 0.09630000114 0.4340667802
v -0.03917809963 0.09630000114 0.4348167688
v -0.03917809963 0.09630000114 0.436316765
v -0.0378790617 0.09630000114 0.4370667726
v -0.03658002377 0.09630000114 0.436316765
v -0.03658002377 0.09630000114 0.4348167688
v -0.03637906075 0.1057999992 0.4355667764
v -0.03712906122 0.1057999992 0.4368658144
v -0.03862905979 0.1057999992 0.4368658144
v -0.03937906027 0.1057999992 0.4355667764
v -0.03862905979 0.1057999992 0.4342677385
v -0.03712906122 0.1057999992 0.4342677385
v -0.03917809963 0.09630000114 0.4348167688
v -0.03937906027 0.1057999992 0.4355667764
v -0.0391764617 0.1077000046 0.4348146135
v -0.03884194613 0.1077000046 0.4344170457
v -0.03839185715 0.1077000046 0.4341575128
v -0.03788021803 0.1077000046 0.4340671045
v -0.0378790617 0.09630000114 0.4340667802
v -0.03658002377 0.09630000114 0.4348167688
v -0.03658002377 0.09630000114 0.436316765
v -0.0378790617 0.09630000114 0.4370667726
v -0.03917809963 0.09630000114 0.436316765
v -0.03917809963 0.09630000114 0.4348167688
v -0.03667906046 0.09600000381 0.4355667764
v -0.03750823975 0.09600000381 0.4344255144
v -0.0388498807 0.09600000381 0.4348614389
v -0.0388498807 0.09600000381 0.436272114
v -0.03750823975 0.09600000381 0.4367080385
v -0.0388498807 0.09600000381 0.436272114
v -0.0378790617 0.09630000114 0.4370667726
v -0.03917906046 0.1077000046 0.436314438
v -0.03935608864 0.1077000046 0.4358263666
v -0.03935608864 0.1077000046 0.4353071863
v -0.03917906046 0.1077000046 0.4348191148
v -0.03667906046 0.09600000381 0.4355667764
v -0.03750823975 0.09600000381 0.4367080385
v -0.0388498807 0.09600000381 0.436272114
v -0.0388498807 0.09600000381 0.4348614389
v -0.03750823975 0.09600000381 0.4344255144
v -0.0378790617 0.1077000046 0.4370664484
v -0.03839149475 0.1077000046 0.4369761736
v -0.03884224176 0.1077000046 0.4367162401
v -0.03917704105 0.1077000046 0.4363179285
v -0.03657906055 0.1077000046 0.436314438
v -0.03640203238 0.1077000046 0.4358263666
v -0.03640203238 0.1077000046 0.4353071863
v -0.03657906055 0.1077000046 0.4348191148
v -0.03657992601 0.1077000046 0.434817608
v -0.03658079147 0.1077000046 0.4348161012
v -0.0365816617 0.1077000046 0.4348146135
v -0.03691617489 0.1077000046 0.4344170457
v -0.03736626387 0.1077000046 0.4341575128
v -0.03787790298 0.1077000046 0.4340671045
v -0.0378790617 0.107700386 0.4340664369
v -0.03788021803 0.1077000046 0.4340671045
v -0.03839185715 0.1077000046 0.4341575128
v -0.03884194613 0.1077000046 0.4344170457
v -0.0391764617 0.1077000046 0.4348146135
v -0.03917732954 0.1077000046 0.4348161012
v -0.039178195 0.1077000046 0.434817608
v -0.03917906046 0.1077000046 0.4348191148
v -0.03935608864 0.1077000046 0.4353071863
v -0.03935608864 0.1077000046 0.4358263666
v -0.03917906046 0.1077000046 0.436314438
v -0.03917838812 0.1077000046 0.4363156015
v -0.03917771578 0.1077000046 0.436316765
v -0.03917704105 0.1077000046 0.4363179285
v -0.03884224176 0.1077000046 0.4367162401
v -0.03839149475 0.1077000046 0.4369761736
v -0.0378790617 0.1077000046 0.4370664484
v -0.03736662626 0.1077000046 0.4369761736
v -0.03691587925 0.1077000046 0.4367162401
v -0.03658107996 0.1077000046 0.4363179285
v -0.03658040762 0.1077000046 0.436316765
v -0.03657973289 0.1077000046 0.4363156015
v -0.0378790617 0.1068341637 0.4355667764
v -0.0378790617 0.1077000046 0.4370664484
v -0.0378790617 0.1068341637 0.4355667764
v -0.0378790617 0.1068341637 0.4355667764
v -0.0378790617 0.1068341637 0.4355667764
v -0.0378790617 0.1068341637 0.4355667764
v -0.0378790617 0.1068341637 0.4355667764
v -0.0378790617 0.1068341637 0.4355667764
v -0.03917906046 0.1077000046 0.4348191148
v -0.03917906046 0.1077000046 0.4348161012
v -0.03917906046 0.1089999962 0.4348161012
v -0.03917906046 0.1089999962 0.436316765
v -0.03917906046 0.1077000046 0.436316765
v -0.03917906046 0.1077000046 0.436314438
v -0.03658107996 0.1077000046 0.4363179285
v -0.03657906055 0.1077000046 0.436316765
v -0.03657906055 0.1077000046 0.436314438
v -0.03657973289 0.1077000046 0.4363156015
v -0.03658040762 0.1077000046 0.436316765
v -0.03657906055 0.1077000046 0.436314438
v -0.03657906055 0.1077000046 0.436316765
v -0.03657906055 0.1089999962 0.436316765
v -0.03657906055 0.1089999962 0.4348161012
v -0.03657906055 0.1077000046 0.4348161012
v -0.03657906055 0.1077000046 0.4348191148
v -0.03788021803 0.1077000046 0.4340671045
v -0.0378790617 0.107700386 0.4340664369
v -0.0378790617 0.1089999962 0.4340664369
v -0.03917906046 0.1089999962 0.4348161012
v -0.03917906046 0.1077000046 0.4348161012
v -0.0391764617 0.1077000046 0.4348146135
v -0.03657906055 0.1077000046 0.4348191148
v -0.03657906055 0.1077000046 0.4348161012
v -0.0365816617 0.1077000046 0.4348146135
v -0.03658079147 0.1077000046 0.4348161012
v -0.03657992601 0.1077000046 0.434817608
v -0.0365816617 0.1077000046 0.4348146135
v -0.03657906055 0.1077000046 0.4348161012
v -0.03657906055 0.1089999962 0.4348161012
v -0.0378790617 0.1089999962 0.4340664369
v -0.0378790617 0.107700386 0.4340664369
v -0.03787790298 0.1077000046 0.4340671045
v -0.03917906046 0.1077000046 0.436314438
v -0.03917906046 0.1077000046 0.436316765
v -0.03917704105 0.1077000046 0.4363179285
v -0.03917771578 0.1077000046 0.436316765
v -0.03917838812 0.1077000046 0.4363156015
v -0.0391764617 0.1077000046 0.4348146135
v -0.03917906046 0.1077000046 0.4348161012
v -0.03917906046 0.1077000046 0.4348191148
v -0.039178195 0.1077000046 0.434817608
v -0.03917732954 0.1077000046 0.4348161012
f 2 3 1
f 1 3 4
f 1 4 5
f 13 6 14
f 14 6 7
f 14 7 19
f 19 7 8
f 19 8 18
f 18 8 9
f 18 9 17
f 17 9 10
f 17 10 11
f 17 11 16
f 16 11 12
f 16 12 15
f 15 12 13
f 15 13 14
f 21 35 20
f 20 35 36
f 37 28 27
f 27 28 29
f 27 29 26
f 26 29 30
f 26 30 25
f 25 30 31
f 25 31 24
f 24 31 32
f 24 32 23
f 23 32 33
f 23 33 22
f 22 33 34
f 22 34 21
f 21 34 35
f 45 38 46
f 46 38 54
f 46 54 53
f 55 39 52
f 52 39 40
f 52 40 51
f 51 40 41
f 51 41 50
f 50 41 42
f 50 42 49
f 49 42 43
f 49 43 48
f 48 43 44
f 48 44 47
f 47 44 45
f 47 45 46
f 57 68 56
f 56 68 69
f 56 69 63
f 63 69 64
f 63 64 62
f 62 64 61
f 61 64 65
f 61 65 60
f 60 65 66
f 60 66 59
f 59 66 67
f 59 67 58
f 58 67 57
f 57 67 68
f 70 71 74
f 74 71 72
f 74 72 73
f 75 76 78
f 78 76 77
f 79 80 82
f 82 80 81
f 84 89 83
f 83 89 90
f 83 90 88
f 88 90 91
f 88 91 87
f 87 91 96
f 87 96 86
f 95 92 93
f 95 93 85
f 85 93 94
f 85 94 84
f 84 94 89
f 98 99 97
f 97 99 100
f 113 111 101
f 101 111 112
f 101 112 106
f 106 112 107
f 106 107 105
f 105 107 108
f 105 108 104
f 104 108 109
f 104 109 103
f 103 109 114
f 103 114 102
f 113 110 111
f 115 116 118
f 118 116 117
f 120 126 119
f 119 126 127
f 119 127 124
f 124 127 130
f 124 130 123
f 123 130 122
f 131 128 129
f 131 129 121
f 121 129 125
f 121 125 120
f 120 125 126
f 133 134 132
f 132 134 135
f 136 137 140
f 140 137 139
f 139 137 138
f 142 143 141
f 141 143 144
f 176 145 184
f 184 145 146
f 184 146 147
f 147 148 184
f 184 148 149
f 149 150 181
f 181 150 151
f 181 151 152
f 152 153 181
f 181 153 154
f 155 156 154
f 154 156 183
f 156 157 183
f 183 157 158
f 183 158 159
f 159 160 183
f 160 161 180
f 180 161 162
f 180 162 163
f 163 164 180
f 180 164 165
f 180 165 166
f 166 167 182
f 182 167 168
f 182 168 169
f 169 170 182
f 170 178 177
f 179 171 172
f 179 172 173
f 173 174 179
f 179 174 175
f 175 176 184
f 186 187 185
f 185 187 188
f 185 188 190
f 190 188 189
f 191 192 195
f 195 192 194
f 194 192 193
f 197 198 196
f 196 198 201
f 201 198 199
f 201 199 200
f 203 204 202
f 202 204 207
f 207 204 205
f 207 205 206
f 208 209 212
f 212 209 211
f 211 209 210
f 214 215 213
f 213 215 216
f 213 216 218
f 218 216 217
f 219 220 223
f 223 220 222
f 222 220 221
f 224 225 228
f 228 225 227
f 227 225 226
