v -0.2407161903 0.09699999809 0.4598767549
v -0.2430256081 0.09699999809 0.4558767587
v -0.2430256081 0.1019999981 0.4558767587
v -0.2407161903 0.1019999981 0.4598767549
v -0.2476444054 0.09699999809 0.4558767587
v -0.249953804 0.09699999809 0.4598767549
v -0.249953804 0.1019999981 0.4598767549
v -0.2476444054 0.1019999981 0.4558767587
v -0.249953804 0.09699999809 0.4598767549
v -0.2476444054 0.09699999809 0.4638767511
v -0.2476444054 0.1019999981 0.4638767511
v -0.249953804 0.1019999981 0.4598767549
v -0.2476444054 0.09699999809 0.4638767511
v -0.2430256081 0.09699999809 0.4638767511
v -0.2430256081 0.1019999981 0.4638767511
v -0.2476444054 0.1019999981 0.4638767511
v -0.2430256081 0.09699999809 0.4558767587
v -0.2476444054 0.09699999809 0.4558767587
v -0.2476444054 0.1019999981 0.4558767587
v -0.2430256081 0.1019999981 0.4558767587
v -0.2478350067 0.1019999981 0.4598767549
v -0.2471027756 0.1019999981 0.4581089861
v -0.2453350067 0.1019999981 0.4573767549
v -0.2435672379 0.1019999981 0.4581089861
v -0.2428350067 0.1019999981 0.4598767549
v -0.2435672379 0.1019999981 0.4616445238
v -0.2453350067 0.1019999981 0.4623767549
v -0.2471027756 0.1019999981 0.4616445238
v -0.2430256081 0.1019999981 0.4638767511
v -0.2407161903 0.1019999981 0.4598767549
v -0.2430256081 0.1019999981 0.4558767587
v -0.2476444054 0.1019999981 0.4558767587
v -0.249953804 0.1019999981 0.4598767549
v -0.2476444054 0.1019999981 0.4638767511
v -0.2478350067 0.09699999809 0.4598767549
v -0.2471027756 0.09699999809 0.4616445238
v -0.2453350067 0.09699999809 0.4623767549
v -0.2435672379 0.09699999809 0.4616445238
v -0.2428350067 0.09699999809 0.4598767549
v -0.2435672379 0.09699999809 0.4581089861
v -0.2453350067 0.09699999809 0.4573767549
v -0.2471027756 0.09699999809 0.4581089861
v -0.2407161903 0.09699999809 0.4598767549
v -0.2430256081 0.09699999809 0.4638767511
v -0.2476444054 0.09699999809 0.4638767511
v -0.249953804 0.09699999809 0.4598767549
v -0.2476444054 0.09699999809 0.4558767587
v -0.2430256081 0.09699999809 0.4558767587
v -0.2430256081 0.09699999809 0.4638767511
v -0.2407161903 0.09699999809 0.4598767549
v -0.2407161903 0.1019999981 0.4598767549
v -0.2430256081 0.1019999981 0.4638767511
v -0.2478350067 0.1019999981 0.4598767549
v -0.2471027756 0.1019999981 0.4616445238
v -0.2453350067 0.1019999981 0.4623767549
v -0.2435672379 0.1019999981 0.4616445238
v -0.2428350067 0.1019999981 0.4598767549
v -0.2435672379 0.1019999981 0.4581089861
v -0.2453350067 0.1019999981 0.4573767549
v -0.2471027756 0.1019999981 0.4581089861
v -0.2478350067 0.09699999809 0.4598767549
v -0.2471027756 0.09699999809 0.4581089861
v -0.2453350067 0.09699999809 0.4573767549
v -0.2435672379 0.09699999809 0.4581089861
v -0.2428350067 0.09699999809 0.4598767549
v -0.2435672379 0.09699999809 0.4616445238
v -0.2453350067 0.09699999809 0.4623767549
v -0.2471027756 0.09699999809 0.4616445238
v -0.2478350067 0.1019999981 0.4598767549
v -0.2478350067 0.09699999809 0.4598767549
f 1 2 4
f 4 2 3
f 5 6 8
f 8 6 7
f 9 10 12
f 12 10 11
f 13 14 16
f 16 14 15
f 17 18 20
f 20 18 19
f 28 21 33
f 33 21 22
f 33 22 32
f 32 22 23
f 32 23 31
f 31 23 24
f 31 24 30
f 30 24 25
f 30 25 26
f 30 26 29
f 29 26 27
f 29 27 34
f 34 27 28
f 34 28 33
f 42 35 46
f 46 35 36
f 46 36 45
f 45 36 37
f 45 37 44
f 44 37 38
f 44 38 43
f 43 38 39
f 43 39 40
f 43 40 48
f 48 40 41
f 48 41 47
f 47 41 42
f 47 42 46
f 49 50 52
f 52 50 51
f 54 68 53
f 53 68 70
f 69 61 60
f 60 61 62
f 60 62 63
f 54 55 68
f 68 55 67
f 67 55 56
f 67 56 66
f 66 56 57
f 66 57 65
f 65 57 58
f 65 58 64
f 64 58 59
f 64 59 63
f 63 59 60
