v 0.2069743919 0.06699999809 0.4598767549
v 0.2058197021 0.06699999809 0.4618767435
v 0.2058197021 0.06949999809 0.4618767435
v 0.2069743919 0.06949999809 0.4598767549
v 0.2035103035 0.06699999809 0.4618767435
v 0.2023555946 0.06699999809 0.4598767549
v 0.2023555946 0.06949999809 0.4598767549
v 0.2035103035 0.06949999809 0.4618767435
v 0.2058197021 0.06699999809 0.4618767435
v 0.2035103035 0.06699999809 0.4618767435
v 0.2035103035 0.06949999809 0.4618767435
v 0.2058197021 0.06949999809 0.4618767435
v 0.2035103035 0.06699999809 0.4578767473
v 0.2058197021 0.06699999809 0.4578767473
v 0.2058197021 0.06949999809 0.4578767473
v 0.2035103035 0.06949999809 0.4578767473
v 0.2069743919 0.06949999809 0.4598767549
v 0.2058197021 0.06949999809 0.4618767435
v 0.2035103035 0.06949999809 0.4618767435
v 0.2023555946 0.06949999809 0.4598767549
v 0.2035103035 0.06949999809 0.4578767473
v 0.2058197021 0.06949999809 0.4578767473
v 0.2023555946 0.06699999809 0.4598767549
v 0.2035103035 0.06699999809 0.4578767473
v 0.2035103035 0.06949999809 0.4578767473
v 0.2023555946 0.06949999809 0.4598767549
v 0.2058197021 0.06699999809 0.4578767473
v 0.2069743919 0.06699999809 0.4598767549
v 0.2069743919 0.06949999809 0.4598767549
v 0.2058197021 0.06949999809 0.4578767473
v 0.2035103035 0.06699999809 0.4618767435
v 0.2058197021 0.06699999809 0.4618767435
v 0.2069743919 0.06699999809 0.4598767549
v 0.2058197021 0.06699999809 0.4578767473
v 0.2035103035 0.06699999809 0.4578767473
v 0.2023555946 0.06699999809 0.4598767549
v 0.2004150009 0.06699999809 0.4598767549
v 0.2012266731 0.06699999809 0.4573786623
v 0.2033516693 0.06699999809 0.4558347589
v 0.2059783173 0.06699999809 0.4558347589
v 0.2081033134 0.06699999809 0.4573786623
v 0.2089150047 0.06699999809 0.4598767549
v 0.2081033134 0.06699999809 0.4623748476
v 0.2059783173 0.06699999809 0.4639187509
v 0.2033516693 0.06699999809 0.4639187509
v 0.2012266731 0.06699999809 0.4623748476
v 0.2004150009 0.07199999809 0.4598767549
v 0.2012266731 0.07199999809 0.4623748476
v 0.2033516693 0.07199999809 0.4639187509
v 0.2059783173 0.07199999809 0.4639187509
v 0.2081033134 0.07199999809 0.4623748476
v 0.2089150047 0.07199999809 0.4598767549
v 0.2081033134 0.07199999809 0.4573786623
v 0.2059783173 0.07199999809 0.4558347589
v 0.2033516693 0.07199999809 0.4558347589
v 0.2012266731 0.07199999809 0.4573786623
v 0.2021649933 0.07199999809 0.4598767549
v 0.2028972244 0.07199999809 0.4581089861
v 0.2046649933 0.07199999809 0.4573767549
v 0.2064327621 0.07199999809 0.4581089861
v 0.2071649933 0.07199999809 0.4598767549
v 0.2064327621 0.07199999809 0.4616445238
v 0.2046649933 0.07199999809 0.4623767549
v 0.2028972244 0.07199999809 0.4616445238
v 0.2021649933 0.1069999981 0.4598767549
v 0.2028972244 0.1069999981 0.4616445238
v 0.2046649933 0.1069999981 0.4623767549
v 0.2064327621 0.1069999981 0.4616445238
v 0.2071649933 0.1069999981 0.4598767549
v 0.2064327621 0.1069999981 0.4581089861
v 0.2046649933 0.1069999981 0.4573767549
v 0.2028972244 0.1069999981 0.4581089861
v 0.2004150009 0.07199999809 0.4598767549
v 0.2012266731 0.07199999809 0.4573786623
v 0.2033516693 0.07199999809 0.4558347589
v 0.2059783173 0.07199999809 0.4558347589
v 0.2081033134 0.07199999809 0.4573786623
v 0.2089150047 0.07199999809 0.4598767549
v 0.2081033134 0.07199999809 0.4623748476
v 0.2059783173 0.07199999809 0.4639187509
v 0.2033516693 0.07199999809 0.4639187509
v 0.2012266731 0.07199999809 0.4623748476
v 0.2004150009 0.06699999809 0.4598767549
v 0.2012266731 0.06699999809 0.4623748476
v 0.2033516693 0.06699999809 0.4639187509
v 0.2059783173 0.06699999809 0.4639187509
v 0.2081033134 0.06699999809 0.4623748476
v 0.2089150047 0.06699999809 0.4598767549
v 0.2081033134 0.06699999809 0.4573786623
v 0.2059783173 0.06699999809 0.4558347589
v 0.2033516693 0.06699999809 0.4558347589
v 0.2012266731 0.06699999809 0.4573786623
v 0.2004150009 0.06699999809 0.4598767549
v 0.2004150009 0.07199999809 0.4598767549
v 0.2021649933 0.1069999981 0.4598767549
v 0.2028972244 0.1069999981 0.4581089861
v 0.2046649933 0.1069999981 0.4573767549
v 0.2064327621 0.1069999981 0.4581089861
v 0.2071649933 0.1069999981 0.4598767549
v 0.2064327621 0.1069999981 0.4616445238
v 0.2046649933 0.1069999981 0.4623767549
v 0.2028972244 0.1069999981 0.4616445238
v 0.2021649933 0.07199999809 0.4598767549
v 0.2028972244 0.07199999809 0.4616445238
v 0.2046649933 0.07199999809 0.4623767549
v 0.2064327621 0.07199999809 0.4616445238
v 0.2071649933 0.07199999809 0.4598767549
v 0.2064327621 0.07199999809 0.4581089861
v 0.2046649933 0.07199999809 0.4573767549
v 0.2028972244 0.07199999809 0.4581089861
v 0.2021649933 0.07199999809 0.4598767549
v 0.2021649933 0.1069999981 0.4598767549
f 1 2 4
f 4 2 3
f 5 6 8
f 8 6 7
f 9 10 12
f 12 10 11
f 13 14 16
f 16 14 15
f 18 20 17
f 17 20 21
f 17 21 22
f 18 19 20
f 23 24 26
f 26 24 25
f 27 28 30
f 30 28 29
f 32 45 31
f 31 45 46
f 31 46 36
f 36 46 37
f 36 37 38
f 33 43 32
f 32 43 44
f 32 44 45
f 34 41 33
f 33 41 42
f 33 42 43
f 41 34 40
f 40 34 35
f 40 35 39
f 39 35 38
f 38 35 36
f 56 47 57
f 57 47 48
f 57 48 64
f 64 48 49
f 64 49 63
f 63 49 50
f 63 50 62
f 62 50 51
f 62 51 61
f 61 51 52
f 61 52 53
f 61 53 60
f 60 53 54
f 60 54 59
f 59 54 55
f 59 55 58
f 58 55 56
f 58 56 57
f 66 68 65
f 65 68 69
f 65 69 72
f 72 69 70
f 72 70 71
f 66 67 68
f 74 92 73
f 73 92 93
f 94 83 82
f 82 83 84
f 82 84 81
f 81 84 85
f 81 85 80
f 80 85 86
f 80 86 79
f 79 86 87
f 79 87 78
f 78 87 88
f 78 88 77
f 77 88 89
f 77 89 76
f 76 89 90
f 76 90 75
f 75 90 91
f 75 91 74
f 74 91 92
f 96 110 95
f 95 110 111
f 112 103 102
f 102 103 104
f 102 104 105
f 96 97 110
f 110 97 109
f 109 97 98
f 109 98 108
f 108 98 99
f 108 99 107
f 107 99 100
f 107 100 106
f 106 100 101
f 106 101 105
f 105 101 102
