v -0.2195000076 0.1975 0.02799999952
v -0.2195000076 0.1967677689 0.029767766
v -0.2195000076 0.195 0.03049999952
v -0.2195000076 0.1932322311 0.029767766
v -0.2195000076 0.1925 0.02799999952
v -0.2195000076 0.1932322311 0.02623223305
v -0.2195000076 0.195 0.02549999952
v -0.2195000076 0.1967677689 0.02623223305
v -0.2114999962 0.1975 0.02799999952
v -0.2114999962 0.1967677689 0.02623223305
v -0.2114999962 0.195 0.02549999952
v -0.2114999962 0.1932322311 0.02623223305
v -0.2114999962 0.1925 0.02799999952
v -0.2114999962 0.1932322311 0.029767766
v -0.2114999962 0.195 0.03049999952
v -0.2114999962 0.1967677689 0.029767766
v -0.2114999962 0.1975 0.02799999952
v -0.2195000076 0.1975 0.02799999952
v -0.21 0.1995000076 0.02799999952
v -0.21 0.1986405754 0.02535496712
v -0.21 0.1963905716 0.02372024536
v -0.21 0.1936094284 0.02372024536
v -0.21 0.1913594246 0.02535496712
v -0.21 0.1904999924 0.02799999952
v -0.21 0.1913594246 0.03064503431
v -0.21 0.1936094284 0.03227975368
v -0.21 0.1963905716 0.03227975368
v -0.21 0.1986405754 0.03064503431
v -0.2114999962 0.1995000076 0.02799999952
v -0.2114999962 0.1986405754 0.03064503431
v -0.2114999962 0.1963905716 0.03227975368
v -0.2114999962 0.1936094284 0.03227975368
v -0.2114999962 0.1913594246 0.03064503431
v -0.2114999962 0.1904999924 0.02799999952
v -0.2114999962 0.1913594246 0.02535496712
v -0.2114999962 0.1936094284 0.02372024536
v -0.2114999962 0.1963905716 0.02372024536
v -0.2114999962 0.1986405754 0.02535496712
v -0.2114999962 0.1995000076 0.02799999952
v -0.21 0.1995000076 0.02799999952
v -0.21 0.1941339684 0.02650000095
v -0.21 0.1932679558 0.02799999952
v -0.21 0.1941339684 0.02950000048
v -0.21 0.1958660316 0.02950000048
v -0.21 0.1967320442 0.02799999952
v -0.21 0.1958660316 0.02650000095
v -0.21 0.1995000076 0.02799999952
v -0.21 0.1986405754 0.03064503431
v -0.21 0.1963905716 0.03227975368
v -0.21 0.1936094284 0.03227975368
v -0.21 0.1913594246 0.03064503431
v -0.21 0.1904999924 0.02799999952
v -0.21 0.1913594246 0.02535496712
v -0.21 0.1936094284 0.02372024536
v -0.21 0.1963905716 0.02372024536
v -0.21 0.1986405754 0.02535496712
v -0.2195000076 0.1975 0.02799999952
v -0.2195000076 0.1967677689 0.02623223305
v -0.2195000076 0.195 0.02549999952
v -0.2195000076 0.1932322311 0.02623223305
v -0.2195000076 0.1925 0.02799999952
v -0.2195000076 0.1932322311 0.029767766
v -0.2195000076 0.195 0.03049999952
v -0.2195000076 0.1967677689 0.029767766
v -0.2110000038 0.1941339684 0.02950000048
v -0.2110000038 0.1932679558 0.02799999952
v -0.2110000038 0.1941339684 0.02650000095
v -0.2110000038 0.1958660316 0.02650000095
v -0.2110000038 0.1967320442 0.02799999952
v -0.2110000038 0.1958660316 0.02950000048
v -0.21 0.1941339684 0.02650000095
v -0.21 0.1958660316 0.02650000095
v -0.2110000038 0.1958660316 0.02650000095
v -0.2110000038 0.1941339684 0.02650000095
v -0.21 0.1958660316 0.02950000048
v -0.21 0.1941339684 0.02950000048
v -0.2110000038 0.1941339684 0.02950000048
v -0.2110000038 0.1958660316 0.02950000048
v -0.21 0.1941339684 0.02950000048
v -0.21 0.1932679558 0.02799999952
v -0.2110000038 0.1932679558 0.02799999952
v -0.2110000038 0.1941339684 0.02950000048
v -0.21 0.1932679558 0.02799999952
v -0.21 0.1941339684 0.02650000095
v -0.2110000038 0.1941339684 0.02650000095
v -0.2110000038 0.1932679558 0.02799999952
v -0.21 0.1958660316 0.02650000095
v -0.21 0.1967320442 0.02799999952
v -0.2110000038 0.1967320442 0.02799999952
v -0.2110000038 0.1958660316 0.02650000095
v -0.21 0.1967320442 0.02799999952
v -0.21 0.1958660316 0.02950000048
v -0.2110000038 0.1958660316 0.02950000048
v -0.2110000038 0.1967320442 0.02799999952
v -0.2114999962 0.1995000076 0.02799999952
v -0.2114999962 0.1986405754 0.02535496712
v -0.2114999962 0.1963905716 0.02372024536
v -0.2114999962 0.1936094284 0.02372024536
v -0.2114999962 0.1913594246 0.02535496712
v -0.2114999962 0.1904999924 0.02799999952
v -0.2114999962 0.1913594246 0.03064503431
v -0.2114999962 0.1936094284 0.03227975368
v -0.2114999962 0.1963905716 0.03227975368
v -0.2114999962 0.1986405754 0.03064503431
v -0.2114999962 0.1975 0.02799999952
v -0.2114999962 0.1967677689 0.029767766
v -0.2114999962 0.195 0.03049999952
v -0.2114999962 0.1932322311 0.029767766
v -0.2114999962 0.1925 0.02799999952
v -0.2114999962 0.1932322311 0.02623223305
v -0.2114999962 0.195 0.02549999952
v -0.2114999962 0.1967677689 0.02623223305
f 2 16 1
f 1 16 17
f 18 9 8
f 8 9 10
f 8 10 11
f 2 3 16
f 16 3 15
f 15 3 4
f 15 4 14
f 14 4 5
f 14 5 13
f 13 5 6
f 13 6 12
f 12 6 7
f 12 7 11
f 11 7 8
f 20 38 19
f 19 38 39
f 40 29 28
f 28 29 30
f 28 30 27
f 27 30 31
f 27 31 26
f 26 31 32
f 26 32 25
f 25 32 33
f 25 33 24
f 24 33 34
f 24 34 23
f 23 34 35
f 23 35 22
f 22 35 36
f 22 36 21
f 21 36 37
f 21 37 20
f 20 37 38
f 42 53 41
f 41 53 54
f 41 54 55
f 43 51 42
f 42 51 52
f 42 52 53
f 51 43 50
f 50 43 44
f 50 44 49
f 49 44 48
f 48 44 45
f 48 45 47
f 47 45 56
f 56 45 46
f 56 46 55
f 55 46 41
f 58 60 57
f 57 60 61
f 57 61 64
f 64 61 62
f 64 62 63
f 58 59 60
f 65 66 70
f 70 66 69
f 69 66 67
f 69 67 68
f 71 72 74
f 74 72 73
f 75 76 78
f 78 76 77
f 79 80 82
f 82 80 81
f 83 84 86
f 86 84 85
f 87 88 90
f 90 88 89
f 91 92 94
f 94 92 93
f 104 95 105
f 105 95 96
f 105 96 112
f 112 96 97
f 112 97 111
f 111 97 98
f 111 98 110
f 110 98 99
f 110 99 109
f 109 99 100
f 109 100 101
f 109 101 108
f 108 101 102
f 108 102 107
f 107 102 103
f 107 103 106
f 106 103 104
f 106 104 105
