v 0.221875 0.09904500008 0.03799999952
v 0.2204199982 0.1005000019 0.03799999952
v 0.2204199982 0.1005000019 0.6379999924
v 0.221875 0.09904500008 0.6379999924
v 0.2211000061 0.09029000282 0.03799999952
v 0.2211000061 0.08766065598 0.03799999952
v 0.2211000061 0.08766065598 0.6379999924
v 0.2211000061 0.09029000282 0.6379999924
v 0.228125 0.08195500374 0.03799999952
v 0.2295800018 0.08050000191 0.03799999952
v 0.2295800018 0.08050000191 0.6379999924
v 0.228125 0.08195500374 0.6379999924
v 0.2247900009 0.0943999958 0.03799999952
v 0.2221606636 0.0943999958 0.03799999952
v 0.2221606636 0.0943999958 0.6379999924
v 0.2247900009 0.0943999958 0.6379999924
v 0.2195000076 0.09869999886 0.03799999952
v 0.221875 0.09869999886 0.03799999952
v 0.221875 0.09869999886 0.6379999924
v 0.2195000076 0.09869999886 0.6379999924
v 0.2221606636 0.0943999958 0.03799999952
v 0.2195000076 0.09706066132 0.03799999952
v 0.2195000076 0.09706066132 0.6379999924
v 0.2221606636 0.0943999958 0.6379999924
v 0.2195000076 0.09706066132 0.03799999952
v 0.2195000076 0.09869999886 0.03799999952
v 0.2195000076 0.09869999886 0.6379999924
v 0.2195000076 0.09706066132 0.6379999924
v 0.2164550018 0.08737500191 0.03799999952
v 0.215 0.08592000008 0.03799999952
v 0.215 0.08592000008 0.6379999924
v 0.2164550018 0.08737500191 0.6379999924
v 0.2335449982 0.09362500191 0.03799999952
v 0.235 0.09508000374 0.03799999952
v 0.235 0.09508000374 0.6379999924
v 0.2335449982 0.09362500191 0.6379999924
v 0.2213100052 0.09050000191 0.03799999952
v 0.2211000061 0.09029000282 0.03799999952
v 0.2211000061 0.09029000282 0.6379999924
v 0.2213100052 0.09050000191 0.6379999924
v 0.2288999939 0.08766065598 0.03799999952
v 0.2288999939 0.09029000282 0.03799999952
v 0.2288999939 0.09029000282 0.6379999924
v 0.2288999939 0.08766065598 0.6379999924
v 0.228125 0.08229999542 0.03799999952
v 0.228125 0.08195500374 0.03799999952
v 0.228125 0.08195500374 0.6379999924
v 0.228125 0.08229999542 0.6379999924
v 0.2252099991 0.08659999847 0.03799999952
v 0.2278393364 0.08659999847 0.03799999952
v 0.2278393364 0.08659999847 0.6379999924
v 0.2252099991 0.08659999847 0.6379999924
v 0.2304999924 0.08229999542 0.03799999952
v 0.228125 0.08229999542 0.03799999952
v 0.228125 0.08229999542 0.6379999924
v 0.2304999924 0.08229999542 0.6379999924
v 0.2288999939 0.09029000282 0.03799999952
v 0.2286899948 0.09050000191 0.03799999952
v 0.2286899948 0.09050000191 0.6379999924
v 0.2288999939 0.09029000282 0.6379999924
v 0.2286899948 0.09050000191 0.03799999952
v 0.2288999939 0.09071000099 0.03799999952
v 0.2288999939 0.09071000099 0.6379999924
v 0.2286899948 0.09050000191 0.6379999924
v 0.221875 0.09869999886 0.03799999952
v 0.221875 0.09904500008 0.03799999952
v 0.221875 0.09904500008 0.6379999924
v 0.221875 0.09869999886 0.6379999924
v 0.225 0.08680999756 0.03799999952
v 0.2252099991 0.08659999847 0.03799999952
v 0.2252099991 0.08659999847 0.6379999924
v 0.225 0.08680999756 0.6379999924
v 0.2168000031 0.085 0.03799999952
v 0.2168000031 0.08737500191 0.03799999952
v 0.2168000031 0.08737500191 0.6379999924
v 0.2168000031 0.085 0.6379999924
v 0.2315606689 0.09600000381 0.03799999952
v 0.2331999969 0.09600000381 0.03799999952
v 0.2331999969 0.09600000381 0.6379999924
v 0.2315606689 0.09600000381 0.6379999924
v 0.2288999939 0.0933393383 0.03799999952
v 0.2315606689 0.09600000381 0.03799999952
v 0.2315606689 0.09600000381 0.6379999924
v 0.2288999939 0.0933393383 0.6379999924
v 0.225 0.09418999672 0.03799999952
v 0.2247900009 0.0943999958 0.03799999952
v 0.2247900009 0.0943999958 0.6379999924
v 0.225 0.09418999672 0.6379999924
v 0.2315606689 0.085 0.03799999952
v 0.2288999939 0.08766065598 0.03799999952
v 0.2288999939 0.08766065598 0.6379999924
v 0.2315606689 0.085 0.6379999924
v 0.2247900009 0.08659999847 0.03799999952
v 0.225 0.08680999756 0.03799999952
v 0.225 0.08680999756 0.6379999924
v 0.2247900009 0.08659999847 0.6379999924
v 0.2211000061 0.09071000099 0.03799999952
v 0.2213100052 0.09050000191 0.03799999952
v 0.2213100052 0.09050000191 0.6379999924
v 0.2211000061 0.09071000099 0.6379999924
v 0.235 0.08100000381 0.6379999924
v 0.2349330139 0.08074999809 0.6379999924
v 0.2347500038 0.08056698799 0.6379999924
v 0.2345000076 0.08050000191 0.6379999924
v 0.2345000076 0.08050000191 0.03799999952
v 0.2347500038 0.08056698799 0.03799999952
v 0.2349330139 0.08074999809 0.03799999952
v 0.235 0.08100000381 0.03799999952
v 0.2168000031 0.09600000381 0.03799999952
v 0.2184393311 0.09600000381 0.03799999952
v 0.2184393311 0.09600000381 0.6379999924
v 0.2168000031 0.09600000381 0.6379999924
v 0.2211000061 0.0933393383 0.03799999952
v 0.2211000061 0.09071000099 0.03799999952
v 0.2211000061 0.09071000099 0.6379999924
v 0.2211000061 0.0933393383 0.6379999924
v 0.221875 0.08195500374 0.03799999952
v 0.221875 0.08229999542 0.03799999952
v 0.221875 0.08229999542 0.6379999924
v 0.221875 0.08195500374 0.6379999924
v 0.2184393311 0.09600000381 0.03799999952
v 0.2211000061 0.0933393383 0.03799999952
v 0.2211000061 0.0933393383 0.6379999924
v 0.2184393311 0.09600000381 0.6379999924
v 0.2252099991 0.0943999958 0.03799999952
v 0.225 0.09418999672 0.03799999952
v 0.225 0.09418999672 0.6379999924
v 0.2252099991 0.0943999958 0.6379999924
v 0.2295800018 0.1005000019 0.03799999952
v 0.228125 0.09904500008 0.03799999952
v 0.228125 0.09904500008 0.6379999924
v 0.2295800018 0.1005000019 0.6379999924
v 0.228125 0.09904500008 0.03799999952
v 0.228125 0.09869999886 0.03799999952
v 0.228125 0.09869999886 0.6379999924
v 0.228125 0.09904500008 0.6379999924
v 0.2164550018 0.09362500191 0.03799999952
v 0.2168000031 0.09362500191 0.03799999952
v 0.2168000031 0.09362500191 0.6379999924
v 0.2164550018 0.09362500191 0.6379999924
v 0.228125 0.09869999886 0.03799999952
v 0.2304999924 0.09869999886 0.03799999952
v 0.2304999924 0.09869999886 0.6379999924
v 0.228125 0.09869999886 0.6379999924
v 0.2335449982 0.08737500191 0.03799999952
v 0.2331999969 0.08737500191 0.03799999952
v 0.2331999969 0.08737500191 0.6379999924
v 0.2335449982 0.08737500191 0.6379999924
v 0.2195000076 0.08229999542 0.03799999952
v 0.2195000076 0.0839393425 0.03799999952
v 0.2195000076 0.0839393425 0.6379999924
v 0.2195000076 0.08229999542 0.6379999924
v 0.2304999924 0.09869999886 0.03799999952
v 0.2304999924 0.09706066132 0.03799999952
v 0.2304999924 0.09706066132 0.6379999924
v 0.2304999924 0.09869999886 0.6379999924
v 0.2278393364 0.0943999958 0.03799999952
v 0.2252099991 0.0943999958 0.03799999952
v 0.2252099991 0.0943999958 0.6379999924
v 0.2278393364 0.0943999958 0.6379999924
v 0.2221606636 0.08659999847 0.03799999952
v 0.2247900009 0.08659999847 0.03799999952
v 0.2247900009 0.08659999847 0.6379999924
v 0.2221606636 0.08659999847 0.6379999924
v 0.2168000031 0.09362500191 0.03799999952
v 0.2168000031 0.09600000381 0.03799999952
v 0.2168000031 0.09600000381 0.6379999924
v 0.2168000031 0.09362500191 0.6379999924
v 0.235 0.08592000008 0.03799999952
v 0.2335449982 0.08737500191 0.03799999952
v 0.2335449982 0.08737500191 0.6379999924
v 0.235 0.08592000008 0.6379999924
v 0.221875 0.08229999542 0.03799999952
v 0.2195000076 0.08229999542 0.03799999952
v 0.2195000076 0.08229999542 0.6379999924
v 0.221875 0.08229999542 0.6379999924
v 0.2331999969 0.085 0.03799999952
v 0.2315606689 0.085 0.03799999952
v 0.2315606689 0.085 0.6379999924
v 0.2331999969 0.085 0.6379999924
v 0.2195000076 0.0839393425 0.03799999952
v 0.2221606636 0.08659999847 0.03799999952
v 0.2221606636 0.08659999847 0.6379999924
v 0.2195000076 0.0839393425 0.6379999924
v 0.2229000092 0.09050000191 0.6379999924
v 0.2236906624 0.0888581562 0.6379999924
v 0.2254673004 0.08845265388 0.6379999924
v 0.2268920326 0.08958884239 0.6379999924
v 0.2268920326 0.09141115189 0.6379999924
v 0.2254673004 0.09254734993 0.6379999924
v 0.2236906624 0.09214184761 0.6379999924
v 0.2229000092 0.09050000191 0.03799999952
v 0.2236906624 0.09214184761 0.03799999952
v 0.2254673004 0.09254734993 0.03799999952
v 0.2268920326 0.09141115189 0.03799999952
v 0.2268920326 0.08958884239 0.03799999952
v 0.2254673004 0.08845265388 0.03799999952
v 0.2236906624 0.0888581562 0.03799999952
v 0.2229000092 0.09050000191 0.6379999924
v 0.2229000092 0.09050000191 0.03799999952
v 0.215 0.09508000374 0.03799999952
v 0.2164550018 0.09362500191 0.03799999952
v 0.2164550018 0.09362500191 0.6379999924
v 0.215 0.09508000374 0.6379999924
v 0.2331999969 0.08737500191 0.03799999952
v 0.2331999969 0.085 0.03799999952
v 0.2331999969 0.085 0.6379999924
v 0.2331999969 0.08737500191 0.6379999924
v 0.2204199982 0.08050000191 0.03799999952
v 0.221875 0.08195500374 0.03799999952
v 0.221875 0.08195500374 0.6379999924
v 0.2204199982 0.08050000191 0.6379999924
v 0.2304999924 0.09706066132 0.03799999952
v 0.2278393364 0.0943999958 0.03799999952
v 0.2278393364 0.0943999958 0.6379999924
v 0.2304999924 0.09706066132 0.6379999924
v 0.215 0.09508000374 0.03799999952
v 0.215 0.09508000374 0.6379999924
v 0.215 0.1 0.6379999924
v 0.215 0.1 0.03799999952
v 0.221875 0.09904500008 0.6379999924
v 0.2204199982 0.1005000019 0.6379999924
v 0.2154999924 0.1005000019 0.6379999924
v 0.2152499962 0.1004330158 0.6379999924
v 0.2150669861 0.1002499962 0.6379999924
v 0.215 0.1 0.6379999924
v 0.215 0.09508000374 0.6379999924
v 0.2164550018 0.09362500191 0.6379999924
v 0.2168000031 0.09362500191 0.6379999924
v 0.2168000031 0.09600000381 0.6379999924
v 0.2184393311 0.09600000381 0.6379999924
v 0.2211000061 0.0933393383 0.6379999924
v 0.2211000061 0.09071000099 0.6379999924
v 0.2213100052 0.09050000191 0.6379999924
v 0.2211000061 0.09029000282 0.6379999924
v 0.2211000061 0.08766065598 0.6379999924
v 0.2184393311 0.085 0.6379999924
v 0.2168000031 0.085 0.6379999924
v 0.2168000031 0.08737500191 0.6379999924
v 0.2164550018 0.08737500191 0.6379999924
v 0.215 0.08592000008 0.6379999924
v 0.215 0.08100000381 0.6379999924
v 0.2150669861 0.08074999809 0.6379999924
v 0.2152499962 0.08056698799 0.6379999924
v 0.2154999924 0.08050000191 0.6379999924
v 0.2204199982 0.08050000191 0.6379999924
v 0.221875 0.08195500374 0.6379999924
v 0.221875 0.08229999542 0.6379999924
v 0.2195000076 0.08229999542 0.6379999924
v 0.2195000076 0.0839393425 0.6379999924
v 0.2221606636 0.08659999847 0.6379999924
v 0.2247900009 0.08659999847 0.6379999924
v 0.225 0.08680999756 0.6379999924
v 0.2252099991 0.08659999847 0.6379999924
v 0.2278393364 0.08659999847 0.6379999924
v 0.2304999924 0.0839393425 0.6379999924
v 0.2304999924 0.08229999542 0.6379999924
v 0.228125 0.08229999542 0.6379999924
v 0.228125 0.08195500374 0.6379999924
v 0.2295800018 0.08050000191 0.6379999924
v 0.2345000076 0.08050000191 0.6379999924
v 0.2347500038 0.08056698799 0.6379999924
v 0.2349330139 0.08074999809 0.6379999924
v 0.235 0.08100000381 0.6379999924
v 0.235 0.08592000008 0.6379999924
v 0.2335449982 0.08737500191 0.6379999924
v 0.2331999969 0.08737500191 0.6379999924
v 0.2331999969 0.085 0.6379999924
v 0.2315606689 0.085 0.6379999924
v 0.2288999939 0.08766065598 0.6379999924
v 0.2288999939 0.09029000282 0.6379999924
v 0.2286899948 0.09050000191 0.6379999924
v 0.2288999939 0.09071000099 0.6379999924
v 0.2288999939 0.0933393383 0.6379999924
v 0.2315606689 0.09600000381 0.6379999924
v 0.2331999969 0.09600000381 0.6379999924
v 0.2331999969 0.09362500191 0.6379999924
v 0.2335449982 0.09362500191 0.6379999924
v 0.235 0.09508000374 0.6379999924
v 0.235 0.1 0.6379999924
v 0.2349330139 0.1002499962 0.6379999924
v 0.2347500038 0.1004330158 0.6379999924
v 0.2345000076 0.1005000019 0.6379999924
v 0.2295800018 0.1005000019 0.6379999924
v 0.228125 0.09904500008 0.6379999924
v 0.228125 0.09869999886 0.6379999924
v 0.2304999924 0.09869999886 0.6379999924
v 0.2304999924 0.09706066132 0.6379999924
v 0.2278393364 0.0943999958 0.6379999924
v 0.2252099991 0.0943999958 0.6379999924
v 0.225 0.09418999672 0.6379999924
v 0.2247900009 0.0943999958 0.6379999924
v 0.2221606636 0.0943999958 0.6379999924
v 0.2195000076 0.09706066132 0.6379999924
v 0.2195000076 0.09869999886 0.6379999924
v 0.221875 0.09869999886 0.6379999924
v 0.2229000092 0.09050000191 0.6379999924
v 0.2236906624 0.09214184761 0.6379999924
v 0.2254673004 0.09254734993 0.6379999924
v 0.2268920326 0.09141115189 0.6379999924
v 0.2268920326 0.08958884239 0.6379999924
v 0.2254673004 0.08845265388 0.6379999924
v 0.2236906624 0.0888581562 0.6379999924
v 0.2331999969 0.09600000381 0.03799999952
v 0.2331999969 0.09362500191 0.03799999952
v 0.2331999969 0.09362500191 0.6379999924
v 0.2331999969 0.09600000381 0.6379999924
v 0.2288999939 0.09071000099 0.03799999952
v 0.2288999939 0.0933393383 0.03799999952
v 0.2288999939 0.0933393383 0.6379999924
v 0.2288999939 0.09071000099 0.6379999924
v 0.2184393311 0.085 0.03799999952
v 0.2168000031 0.085 0.03799999952
v 0.2168000031 0.085 0.6379999924
v 0.2184393311 0.085 0.6379999924
v 0.2345000076 0.1005000019 0.6379999924
v 0.2347500038 0.1004330158 0.6379999924
v 0.2349330139 0.1002499962 0.6379999924
v 0.235 0.1 0.6379999924
v 0.235 0.1 0.03799999952
v 0.2349330139 0.1002499962 0.03799999952
v 0.2347500038 0.1004330158 0.03799999952
v 0.2345000076 0.1005000019 0.03799999952
v 0.235 0.09508000374 0.6379999924
v 0.235 0.09508000374 0.03799999952
v 0.235 0.1 0.03799999952
v 0.235 0.1 0.6379999924
v 0.2154999924 0.08050000191 0.6379999924
v 0.2152499962 0.08056698799 0.6379999924
v 0.2150669861 0.08074999809 0.6379999924
v 0.215 0.08100000381 0.6379999924
v 0.215 0.08100000381 0.03799999952
v 0.2150669861 0.08074999809 0.03799999952
v 0.2152499962 0.08056698799 0.03799999952
v 0.2154999924 0.08050000191 0.03799999952
v 0.2229000092 0.09050000191 0.03799999952
v 0.2236906624 0.0888581562 0.03799999952
v 0.2254673004 0.08845265388 0.03799999952
v 0.2268920326 0.08958884239 0.03799999952
v 0.2268920326 0.09141115189 0.03799999952
v 0.2254673004 0.09254734993 0.03799999952
v 0.2236906624 0.09214184761 0.03799999952
v 0.2204199982 0.1005000019 0.03799999952
v 0.221875 0.09904500008 0.03799999952
v 0.221875 0.09869999886 0.03799999952
v 0.2195000076 0.09869999886 0.03799999952
v 0.2195000076 0.09706066132 0.03799999952
v 0.2221606636 0.0943999958 0.03799999952
v 0.2247900009 0.0943999958 0.03799999952
v 0.225 0.09418999672 0.03799999952
v 0.2252099991 0.0943999958 0.03799999952
v 0.2278393364 0.0943999958 0.03799999952
v 0.2304999924 0.09706066132 0.03799999952
v 0.2304999924 0.09869999886 0.03799999952
v 0.228125 0.09869999886 0.03799999952
v 0.228125 0.09904500008 0.03799999952
v 0.2295800018 0.1005000019 0.03799999952
v 0.2345000076 0.1005000019 0.03799999952
v 0.2347500038 0.1004330158 0.03799999952
v 0.2349330139 0.1002499962 0.03799999952
v 0.235 0.1 0.03799999952
v 0.235 0.09508000374 0.03799999952
v 0.2335449982 0.09362500191 0.03799999952
v 0.2331999969 0.09362500191 0.03799999952
v 0.2331999969 0.09600000381 0.03799999952
v 0.2315606689 0.09600000381 0.03799999952
v 0.2288999939 0.0933393383 0.03799999952
v 0.2288999939 0.09071000099 0.03799999952
v 0.2286899948 0.09050000191 0.03799999952
v 0.2288999939 0.09029000282 0.03799999952
v 0.2288999939 0.08766065598 0.03799999952
v 0.2315606689 0.085 0.03799999952
v 0.2331999969 0.085 0.03799999952
v 0.2331999969 0.08737500191 0.03799999952
v 0.2335449982 0.08737500191 0.03799999952
v 0.235 0.08592000008 0.03799999952
v 0.235 0.08100000381 0.03799999952
v 0.2349330139 0.08074999809 0.03799999952
v 0.2347500038 0.08056698799 0.03799999952
v 0.2345000076 0.08050000191 0.03799999952
v 0.2295800018 0.08050000191 0.03799999952
v 0.228125 0.08195500374 0.03799999952
v 0.228125 0.08229999542 0.03799999952
v 0.2304999924 0.08229999542 0.03799999952
v 0.2304999924 0.0839393425 0.03799999952
v 0.2278393364 0.08659999847 0.03799999952
v 0.2252099991 0.08659999847 0.03799999952
v 0.225 0.08680999756 0.03799999952
v 0.2247900009 0.08659999847 0.03799999952
v 0.2221606636 0.08659999847 0.03799999952
v 0.2195000076 0.0839393425 0.03799999952
v 0.2195000076 0.08229999542 0.03799999952
v 0.221875 0.08229999542 0.03799999952
v 0.221875 0.08195500374 0.03799999952
v 0.2204199982 0.08050000191 0.03799999952
v 0.2154999924 0.08050000191 0.03799999952
v 0.2152499962 0.08056698799 0.03799999952
v 0.2150669861 0.08074999809 0.03799999952
v 0.215 0.08100000381 0.03799999952
v 0.215 0.08592000008 0.03799999952
v 0.2164550018 0.08737500191 0.03799999952
v 0.2168000031 0.08737500191 0.03799999952
v 0.2168000031 0.085 0.03799999952
v 0.2184393311 0.085 0.03799999952
v 0.2211000061 0.08766065598 0.03799999952
v 0.2211000061 0.09029000282 0.03799999952
v 0.2213100052 0.09050000191 0.03799999952
v 0.2211000061 0.09071000099 0.03799999952
v 0.2211000061 0.0933393383 0.03799999952
v 0.2184393311 0.09600000381 0.03799999952
v 0.2168000031 0.09600000381 0.03799999952
v 0.2168000031 0.09362500191 0.03799999952
v 0.2164550018 0.09362500191 0.03799999952
v 0.215 0.09508000374 0.03799999952
v 0.215 0.1 0.03799999952
v 0.2150669861 0.1002499962 0.03799999952
v 0.2152499962 0.1004330158 0.03799999952
v 0.2154999924 0.1005000019 0.03799999952
v 0.235 0.08592000008 0.03799999952
v 0.235 0.08592000008 0.6379999924
v 0.235 0.08100000381 0.6379999924
v 0.235 0.08100000381 0.03799999952
v 0.2204199982 0.08050000191 0.03799999952
v 0.2204199982 0.08050000191 0.6379999924
v 0.2154999924 0.08050000191 0.6379999924
v 0.2154999924 0.08050000191 0.03799999952
v 0.215 0.08592000008 0.6379999924
v 0.215 0.08592000008 0.03799999952
v 0.215 0.08100000381 0.03799999952
v 0.215 0.08100000381 0.6379999924
v 0.2295800018 0.1005000019 0.03799999952
v 0.2295800018 0.1005000019 0.6379999924
v 0.2345000076 0.1005000019 0.6379999924
v 0.2345000076 0.1005000019 0.03799999952
v 0.2204199982 0.1005000019 0.6379999924
v 0.2204199982 0.1005000019 0.03799999952
v 0.2154999924 0.1005000019 0.03799999952
v 0.2154999924 0.1005000019 0.6379999924
v 0.215 0.1 0.6379999924
v 0.2150669861 0.1002499962 0.6379999924
v 0.2152499962 0.1004330158 0.6379999924
v 0.2154999924 0.1005000019 0.6379999924
v 0.2154999924 0.1005000019 0.03799999952
v 0.2152499962 0.1004330158 0.03799999952
v 0.2150669861 0.1002499962 0.03799999952
v 0.215 0.1 0.03799999952
v 0.2211000061 0.08766065598 0.03799999952
v 0.2184393311 0.085 0.03799999952
v 0.2184393311 0.085 0.6379999924
v 0.2211000061 0.08766065598 0.6379999924
v 0.2295800018 0.08050000191 0.6379999924
v 0.2295800018 0.08050000191 0.03799999952
v 0.2345000076 0.08050000191 0.03799999952
v 0.2345000076 0.08050000191 0.6379999924
v 0.2331999969 0.09362500191 0.03799999952
v 0.2335449982 0.09362500191 0.03799999952
v 0.2335449982 0.09362500191 0.6379999924
v 0.2331999969 0.09362500191 0.6379999924
v 0.2168000031 0.08737500191 0.03799999952
v 0.2164550018 0.08737500191 0.03799999952
v 0.2164550018 0.08737500191 0.6379999924
v 0.2168000031 0.08737500191 0.6379999924
v 0.2278393364 0.08659999847 0.03799999952
v 0.2304999924 0.0839393425 0.03799999952
v 0.2304999924 0.0839393425 0.6379999924
v 0.2278393364 0.08659999847 0.6379999924
v 0.2304999924 0.0839393425 0.03799999952
v 0.2304999924 0.08229999542 0.03799999952
v 0.2304999924 0.08229999542 0.6379999924
v 0.2304999924 0.0839393425 0.6379999924
f 1 2 4
f 4 2 3
f 5 6 8
f 8 6 7
f 9 10 12
f 12 10 11
f 13 14 16
f 16 14 15
f 17 18 20
f 20 18 19
f 21 22 24
f 24 22 23
f 25 26 28
f 28 26 27
f 29 30 32
f 32 30 31
f 33 34 36
f 36 34 35
f 37 38 40
f 40 38 39
f 41 42 44
f 44 42 43
f 45 46 48
f 48 46 47
f 49 50 52
f 52 50 51
f 53 54 56
f 56 54 55
f 57 58 60
f 60 58 59
f 61 62 64
f 64 62 63
f 65 66 68
f 68 66 67
f 69 70 72
f 72 70 71
f 73 74 76
f 76 74 75
f 77 78 80
f 80 78 79
f 81 82 84
f 84 82 83
f 85 86 88
f 88 86 87
f 89 90 92
f 92 90 91
f 93 94 96
f 96 94 95
f 97 98 100
f 100 98 99
f 108 101 107
f 107 101 102
f 107 102 106
f 106 102 103
f 106 103 105
f 105 103 104
f 109 110 112
f 112 110 111
f 113 114 116
f 116 114 115
f 117 118 120
f 120 118 119
f 121 122 124
f 124 122 123
f 125 126 128
f 128 126 127
f 129 130 132
f 132 130 131
f 133 134 136
f 136 134 135
f 137 138 140
f 140 138 139
f 141 142 144
f 144 142 143
f 145 146 148
f 148 146 147
f 149 150 152
f 152 150 151
f 153 154 156
f 156 154 155
f 157 158 160
f 160 158 159
f 161 162 164
f 164 162 163
f 165 166 168
f 168 166 167
f 169 170 172
f 172 170 171
f 173 174 176
f 176 174 175
f 177 178 180
f 180 178 179
f 181 182 184
f 184 182 183
f 186 198 185
f 185 198 200
f 199 192 191
f 191 192 193
f 191 193 190
f 190 193 194
f 190 194 189
f 189 194 195
f 189 195 188
f 188 195 196
f 188 196 187
f 187 196 197
f 187 197 186
f 186 197 198
f 201 202 204
f 204 202 203
f 205 206 208
f 208 206 207
f 209 210 212
f 212 210 211
f 213 214 216
f 216 214 215
f 218 219 217
f 217 219 220
f 296 221 295
f 295 221 222
f 295 222 223
f 224 225 223
f 223 225 226
f 223 226 295
f 295 226 230
f 295 230 294
f 294 230 231
f 294 231 293
f 293 231 232
f 293 232 298
f 298 232 297
f 297 232 233
f 297 233 234
f 226 227 230
f 230 227 228
f 230 228 229
f 234 235 297
f 297 235 236
f 297 236 303
f 303 236 251
f 303 251 252
f 236 237 251
f 251 237 250
f 250 237 238
f 250 238 249
f 249 238 242
f 249 242 245
f 245 242 244
f 244 242 243
f 239 240 238
f 238 240 241
f 238 241 242
f 245 246 249
f 249 246 247
f 249 247 248
f 252 253 303
f 303 253 302
f 302 253 254
f 302 254 255
f 256 269 255
f 255 269 270
f 255 270 301
f 301 270 271
f 301 271 272
f 269 256 264
f 264 256 257
f 264 257 261
f 261 257 260
f 260 257 259
f 259 257 258
f 261 262 264
f 264 262 263
f 269 264 268
f 268 264 265
f 268 265 266
f 266 267 268
f 301 272 300
f 300 272 273
f 300 273 274
f 300 274 289
f 289 274 275
f 289 275 288
f 288 275 276
f 288 276 287
f 287 276 280
f 287 280 283
f 283 280 281
f 283 281 282
f 277 278 276
f 276 278 279
f 276 279 280
f 283 284 287
f 287 284 285
f 287 285 286
f 300 289 299
f 299 289 290
f 299 290 291
f 299 291 298
f 298 291 292
f 298 292 293
f 301 302 255
f 304 305 307
f 307 305 306
f 308 309 311
f 311 309 310
f 312 313 315
f 315 313 314
f 323 316 322
f 322 316 317
f 322 317 321
f 321 317 318
f 321 318 320
f 320 318 319
f 325 326 324
f 324 326 327
f 335 328 334
f 334 328 329
f 334 329 333
f 333 329 330
f 333 330 332
f 332 330 331
f 337 405 336
f 336 405 406
f 336 406 407
f 338 388 337
f 337 388 389
f 337 389 390
f 339 386 338
f 338 386 387
f 338 387 388
f 340 369 339
f 339 369 370
f 339 370 371
f 341 352 340
f 340 352 367
f 340 367 368
f 342 350 341
f 341 350 351
f 341 351 352
f 336 409 342
f 342 409 348
f 342 348 349
f 418 343 346
f 346 343 344
f 346 344 345
f 347 411 346
f 346 411 415
f 346 415 418
f 418 415 416
f 418 416 417
f 411 347 410
f 410 347 348
f 410 348 409
f 349 350 342
f 367 352 366
f 366 352 353
f 366 353 365
f 365 353 354
f 365 354 361
f 361 354 358
f 361 358 360
f 360 358 359
f 355 356 354
f 354 356 357
f 354 357 358
f 361 362 365
f 365 362 363
f 365 363 364
f 368 369 340
f 339 371 386
f 386 371 372
f 386 372 385
f 385 372 373
f 385 373 384
f 384 373 377
f 384 377 380
f 380 377 379
f 379 377 378
f 374 375 373
f 373 375 376
f 373 376 377
f 380 381 384
f 384 381 382
f 384 382 383
f 391 404 390
f 390 404 405
f 390 405 337
f 404 391 399
f 399 391 392
f 399 392 396
f 396 392 395
f 395 392 394
f 394 392 393
f 396 397 399
f 399 397 398
f 404 399 403
f 403 399 400
f 403 400 401
f 401 402 403
f 407 408 336
f 336 408 409
f 412 413 411
f 411 413 414
f 411 414 415
f 420 421 419
f 419 421 422
f 424 425 423
f 423 425 426
f 428 429 427
f 427 429 430
f 432 433 431
f 431 433 434
f 436 437 435
f 435 437 438
f 446 439 445
f 445 439 440
f 445 440 444
f 444 440 441
f 444 441 443
f 443 441 442
f 447 448 450
f 450 448 449
f 452 453 451
f 451 453 454
f 455 456 458
f 458 456 457
f 459 460 462
f 462 460 461
f 463 464 466
f 466 464 465
f 467 468 470
f 470 468 469
