v 0.235 0.07800000191 0.4098767549
v 0.215 0.07800000191 0.4098767549
v 0.215 0.08050000191 0.4098767549
v 0.235 0.08050000191 0.4098767549
v 0.235 0.07800000191 0.4298767549
v 0.235 0.07800000191 0.4098767549
v 0.235 0.08050000191 0.4098767549
v 0.235 0.08050000191 0.4298767549
v 0.215 0.07800000191 0.4298767549
v 0.235 0.07800000191 0.4298767549
v 0.235 0.08050000191 0.4298767549
v 0.215 0.08050000191 0.4298767549
v 0.215 0.07800000191 0.4098767549
v 0.215 0.07800000191 0.4298767549
v 0.215 0.08050000191 0.4298767549
v 0.215 0.08050000191 0.4098767549
v 0.2222500038 0.08050000191 0.4198767549
v 0.2230554581 0.08050000191 0.417932213
v 0.225 0.08050000191 0.4171267587
v 0.2269445419 0.08050000191 0.417932213
v 0.2277499962 0.08050000191 0.4198767549
v 0.2269445419 0.08050000191 0.4218212968
v 0.225 0.08050000191 0.4226267511
v 0.2230554581 0.08050000191 0.4218212968
v 0.215 0.08050000191 0.4098767549
v 0.215 0.08050000191 0.4298767549
v 0.235 0.08050000191 0.4298767549
v 0.235 0.08050000191 0.4098767549
v 0.2222500038 0.07800000191 0.4198767549
v 0.2230554581 0.07800000191 0.4218212968
v 0.225 0.07800000191 0.4226267511
v 0.2269445419 0.07800000191 0.4218212968
v 0.2277499962 0.07800000191 0.4198767549
v 0.2269445419 0.07800000191 0.417932213
v 0.225 0.07800000191 0.4171267587
v 0.2230554581 0.07800000191 0.417932213
v 0.215 0.07800000191 0.4298767549
v 0.215 0.07800000191 0.4098767549
v 0.235 0.07800000191 0.4098767549
v 0.235 0.07800000191 0.4298767549
v 0.2222500038 0.08050000191 0.4198767549
v 0.2230554581 0.08050000191 0.4218212968
v 0.225 0.08050000191 0.4226267511
v 0.2269445419 0.08050000191 0.4218212968
v 0.2277499962 0.08050000191 0.4198767549
v 0.2269445419 0.08050000191 0.417932213
v 0.225 0.08050000191 0.4171267587
v 0.2230554581 0.08050000191 0.417932213
v 0.2222500038 0.07800000191 0.4198767549
v 0.2230554581 0.07800000191 0.417932213
v 0.225 0.07800000191 0.4171267587
v 0.2269445419 0.07800000191 0.417932213
v 0.2277499962 0.07800000191 0.4198767549
v 0.2269445419 0.07800000191 0.4218212968
v 0.225 0.07800000191 0.4226267511
v 0.2230554581 0.07800000191 0.4218212968
v 0.2222500038 0.08050000191 0.4198767549
v 0.2222500038 0.07800000191 0.4198767549
f 1 2 4
f 4 2 3
f 5 6 8
f 8 6 7
f 9 10 12
f 12 10 11
f 13 14 16
f 16 14 15
f 18 25 17
f 17 25 26
f 17 26 24
f 24 26 23
f 23 26 27
f 23 27 22
f 22 27 21
f 21 27 28
f 21 28 20
f 20 28 19
f 19 28 25
f 19 25 18
f 30 37 29
f 29 37 38
f 29 38 36
f 36 38 35
f 35 38 39
f 35 39 34
f 34 39 33
f 33 39 40
f 33 40 32
f 32 40 31
f 31 40 37
f 31 37 30
f 42 56 41
f 41 56 58
f 57 49 48
f 48 49 50
f 48 50 47
f 47 50 51
f 47 51 46
f 46 51 52
f 46 52 45
f 45 52 53
f 45 53 44
f 44 53 54
f 44 54 43
f 43 54 55
f 43 55 42
f 42 55 56
