v -0.02440677302 0.004210000038 0.422012027
v -0.02141818852 0.004210000038 0.4217505538
v -0.01998098574 0.004210000038 0.4278146471
v -0.01686495975 0.004210000038 0.4332117816
v -0.01233192435 0.004210000038 0.4374885039
v -0.006762747818 0.004210000038 0.4402854497
v -0.0006253591335 0.004210000038 0.441367652
v 0.00556457332 0.004210000038 0.4406441673
v 0.01128696449 0.004210000038 0.4381757821
v 0.01606101389 0.004210000038 0.4341699006
v 0.01948560193 0.004210000038 0.4289630738
v 0.02127299 0.004210000038 0.4229928277
v 0.02127300094 0.004210000038 0.4167607568
v 0.01948563382 0.004210000038 0.4107904854
v 0.01606106405 0.004210000038 0.4055836656
v 0.01128702872 0.004210000038 0.4015777673
v 0.005564646212 0.004210000038 0.3991093525
v -0.0006252837026 0.004210000038 0.3983858462
v -0.006762676186 0.004210000038 0.3994680268
v -0.01233186254 0.004210000038 0.4022649626
v -0.01686491295 0.004210000038 0.4065416595
v -0.01998095788 0.004210000038 0.4119387926
v -0.02141818195 0.004210000038 0.4180028617
v -0.02240289583 0.004210000038 0.4179167051
v -0.02216735269 0.004210000038 0.4152676462
v -0.02216734803 0.004210000038 0.4126081156
v -0.02240288186 0.004210000038 0.4099590463
v -0.01886488078 0.004210000038 0.4042445311
v -0.01390716351 0.004210000038 0.3997064615
v -0.007902834249 0.004210000038 0.3966863381
v -0.001303760091 0.004210000038 0.3954114683
v 0.005393431405 0.004210000038 0.3959777814
v 0.01168472851 0.004210000038 0.3983426568
v 0.01709666709 0.004210000038 0.402328138
v 0.02122195962 0.004210000038 0.4076342652
v 0.02375014884 0.004210000038 0.4138617247
v 0.0244909704 0.004210000038 0.4205418713
v 0.02338867099 0.004210000038 0.4271719658
v 0.02052620924 0.004210000038 0.4332530269
v 0.01611900429 0.004210000038 0.4383274439
v 0.01049872805 0.004210000038 0.4420132899
v 0.004088349268 0.004210000038 0.4440332372
v -0.002629707586 0.004210000038 0.4442352136
v -0.009149860094 0.004210000038 0.4426040567
v -0.01498142068 0.004210000038 0.4392624861
v -0.01968552288 0.004210000038 0.4344620246
v -0.02290814971 0.004210000038 0.4285639057
v -0.02440677302 0.004210000038 0.422012027
v -0.02440677302 0.005 0.422012027
v -0.02141818852 0.005 0.4217505538
v -0.02141818852 0.004210000038 0.4217505538
v -0.02141818195 0.004210000038 0.4180028617
v -0.01998095788 0.004210000038 0.4119387926
v -0.01686491295 0.004210000038 0.4065416595
v -0.01233186254 0.004210000038 0.4022649626
v -0.006762676186 0.004210000038 0.3994680268
v -0.0006252837026 0.004210000038 0.3983858462
v 0.005564646212 0.004210000038 0.3991093525
v 0.01128702872 0.004210000038 0.4015777673
v 0.01606106405 0.004210000038 0.4055836656
v 0.01948563382 0.004210000038 0.4107904854
v 0.02127300094 0.004210000038 0.4167607568
v 0.02127299 0.004210000038 0.4229928277
v 0.01948560193 0.004210000038 0.4289630738
v 0.01606101389 0.004210000038 0.4341699006
v 0.01128696449 0.004210000038 0.4381757821
v 0.00556457332 0.004210000038 0.4406441673
v -0.0006253591335 0.004210000038 0.441367652
v -0.006762747818 0.004210000038 0.4402854497
v -0.01233192435 0.004210000038 0.4374885039
v -0.01686495975 0.004210000038 0.4332117816
v -0.01998098574 0.004210000038 0.4278146471
v -0.02141818852 0.004210000038 0.4217505538
v -0.02141818852 0.005 0.4217505538
v -0.01998098574 0.005 0.4278146471
v -0.01686495975 0.005 0.4332117816
v -0.01233192435 0.005 0.4374885039
v -0.006762747818 0.005 0.4402854497
v -0.0006253591335 0.005 0.441367652
v 0.00556457332 0.005 0.4406441673
v 0.01128696449 0.005 0.4381757821
v 0.01606101389 0.005 0.4341699006
v 0.01948560193 0.005 0.4289630738
v 0.02127299 0.005 0.4229928277
v 0.02127300094 0.005 0.4167607568
v 0.01948563382 0.005 0.4107904854
v 0.01606106405 0.005 0.4055836656
v 0.01128702872 0.005 0.4015777673
v 0.005564646212 0.005 0.3991093525
v -0.0006252837026 0.005 0.3983858462
v -0.006762676186 0.005 0.3994680268
v -0.01233186254 0.005 0.4022649626
v -0.01686491295 0.005 0.4065416595
v -0.01998095788 0.005 0.4119387926
v -0.02141818195 0.005 0.4180028617
v 0.005564646212 0.004210000038 0.3991093525
v 0.005564646212 0.005 0.3991093525
v -0.02141818195 0.004210000038 0.4180028617
v -0.02141818195 0.005 0.4180028617
v -0.02240289583 0.005 0.4179167051
v -0.02240289583 0.004210000038 0.4179167051
v -0.02240289583 0.004210000038 0.4179167051
v -0.02240289583 0.005 0.4179167051
v -0.02216735269 0.005 0.4152676462
v -0.02216734803 0.005 0.4126081156
v -0.02240288186 0.005 0.4099590463
v -0.02240288186 0.004210000038 0.4099590463
v -0.02216734803 0.004210000038 0.4126081156
v -0.02216735269 0.004210000038 0.4152676462
v -0.02240288186 0.005 0.4099590463
v -0.02216734803 0.005 0.4126081156
v -0.02216735269 0.005 0.4152676462
v -0.02240289583 0.005 0.4179167051
v -0.02141818195 0.005 0.4180028617
v -0.01998095788 0.005 0.4119387926
v -0.01686491295 0.005 0.4065416595
v -0.01233186254 0.005 0.4022649626
v -0.006762676186 0.005 0.3994680268
v -0.0006252837026 0.005 0.3983858462
v 0.005564646212 0.005 0.3991093525
v 0.01128702872 0.005 0.4015777673
v 0.01606106405 0.005 0.4055836656
v 0.01948563382 0.005 0.4107904854
v 0.02127300094 0.005 0.4167607568
v 0.02127299 0.005 0.4229928277
v 0.01948560193 0.005 0.4289630738
v 0.01606101389 0.005 0.4341699006
v 0.01128696449 0.005 0.4381757821
v 0.00556457332 0.005 0.4406441673
v -0.0006253591335 0.005 0.441367652
v -0.006762747818 0.005 0.4402854497
v -0.01233192435 0.005 0.4374885039
v -0.01686495975 0.005 0.4332117816
v -0.01998098574 0.005 0.4278146471
v -0.02141818852 0.005 0.4217505538
v -0.02440677302 0.005 0.422012027
v -0.02290814971 0.005 0.4285639057
v -0.01968552288 0.005 0.4344620246
v -0.01498142068 0.005 0.4392624861
v -0.009149860094 0.005 0.4426040567
v -0.002629707586 0.005 0.4442352136
v 0.004088349268 0.005 0.4440332372
v 0.01049872805 0.005 0.4420132899
v 0.01611900429 0.005 0.4383274439
v 0.02052620924 0.005 0.4332530269
v 0.02338867099 0.005 0.4271719658
v 0.0244909704 0.005 0.4205418713
v 0.02375014884 0.005 0.4138617247
v 0.02122195962 0.005 0.4076342652
v 0.01709666709 0.005 0.402328138
v 0.01168472851 0.005 0.3983426568
v 0.005393431405 0.005 0.3959777814
v -0.001303760091 0.005 0.3954114683
v -0.007902834249 0.005 0.3966863381
v -0.01390716351 0.005 0.3997064615
v -0.01886488078 0.005 0.4042445311
v -0.02440677302 0.004210000038 0.422012027
v -0.02290814971 0.004210000038 0.4285639057
v -0.01968552288 0.004210000038 0.4344620246
v -0.01498142068 0.004210000038 0.4392624861
v -0.009149860094 0.004210000038 0.4426040567
v -0.002629707586 0.004210000038 0.4442352136
v 0.004088349268 0.004210000038 0.4440332372
v 0.01049872805 0.004210000038 0.4420132899
v 0.01611900429 0.004210000038 0.4383274439
v 0.02052620924 0.004210000038 0.4332530269
v 0.02338867099 0.004210000038 0.4271719658
v 0.0244909704 0.004210000038 0.4205418713
v 0.02375014884 0.004210000038 0.4138617247
v 0.02122195962 0.004210000038 0.4076342652
v 0.01709666709 0.004210000038 0.402328138
v 0.01168472851 0.004210000038 0.3983426568
v 0.005393431405 0.004210000038 0.3959777814
v -0.001303760091 0.004210000038 0.3954114683
v -0.007902834249 0.004210000038 0.3966863381
v -0.01390716351 0.004210000038 0.3997064615
v -0.01886488078 0.004210000038 0.4042445311
v -0.02240288186 0.004210000038 0.4099590463
v -0.02240288186 0.005 0.4099590463
v -0.01886488078 0.005 0.4042445311
v -0.01390716351 0.005 0.3997064615
v -0.007902834249 0.005 0.3966863381
v -0.001303760091 0.005 0.3954114683
v 0.005393431405 0.005 0.3959777814
v 0.01168472851 0.005 0.3983426568
v 0.01709666709 0.005 0.402328138
v 0.02122195962 0.005 0.4076342652
v 0.02375014884 0.005 0.4138617247
v 0.0244909704 0.005 0.4205418713
v 0.02338867099 0.005 0.4271719658
v 0.02052620924 0.005 0.4332530269
v 0.01611900429 0.005 0.4383274439
v 0.01049872805 0.005 0.4420132899
v 0.004088349268 0.005 0.4440332372
v -0.002629707586 0.005 0.4442352136
v -0.009149860094 0.005 0.4426040567
v -0.01498142068 0.005 0.4392624861
v -0.01968552288 0.005 0.4344620246
v -0.02290814971 0.005 0.4285639057
v -0.02440677302 0.005 0.422012027
f 1 2 47
f 47 2 3
f 47 3 46
f 46 3 4
f 46 4 45
f 45 4 5
f 45 5 44
f 44 5 6
f 44 6 43
f 43 6 7
f 43 7 42
f 42 7 8
f 42 8 41
f 41 8 9
f 41 9 40
f 40 9 10
f 40 10 39
f 39 10 11
f 39 11 38
f 38 11 12
f 38 12 37
f 37 12 13
f 37 13 36
f 36 13 14
f 36 14 35
f 35 14 15
f 35 15 34
f 34 15 16
f 34 16 33
f 33 16 17
f 33 17 32
f 32 17 18
f 32 18 31
f 31 18 19
f 31 19 30
f 30 19 20
f 30 20 29
f 29 20 28
f 28 20 21
f 28 21 27
f 27 21 22
f 27 22 26
f 26 22 25
f 25 22 23
f 25 23 24
f 48 49 51
f 51 49 50
f 52 53 95
f 95 53 94
f 94 53 93
f 93 53 54
f 93 54 55
f 93 55 92
f 92 55 56
f 92 56 91
f 91 56 57
f 91 57 90
f 90 57 96
f 90 96 89
f 97 58 59
f 97 59 88
f 88 59 60
f 88 60 87
f 87 60 61
f 87 61 86
f 86 61 62
f 86 62 85
f 85 62 63
f 85 63 84
f 84 63 64
f 84 64 83
f 83 64 65
f 83 65 82
f 82 65 66
f 82 66 81
f 81 66 67
f 81 67 80
f 80 67 68
f 80 68 79
f 79 68 69
f 79 69 78
f 78 69 70
f 78 70 77
f 77 70 71
f 77 71 76
f 76 71 72
f 76 72 75
f 75 72 73
f 75 73 74
f 98 99 101
f 101 99 100
f 102 103 109
f 109 103 104
f 109 104 108
f 108 104 105
f 108 105 107
f 107 105 106
f 111 115 110
f 110 115 116
f 110 116 156
f 156 116 117
f 156 117 155
f 155 117 154
f 154 117 118
f 154 118 153
f 153 118 119
f 153 119 152
f 152 119 120
f 152 120 151
f 151 120 121
f 151 121 150
f 150 121 122
f 150 122 149
f 149 122 123
f 149 123 148
f 148 123 124
f 148 124 147
f 147 124 125
f 147 125 146
f 146 125 126
f 146 126 145
f 145 126 127
f 145 127 144
f 144 127 128
f 144 128 143
f 143 128 129
f 143 129 142
f 142 129 130
f 142 130 141
f 141 130 131
f 141 131 140
f 140 131 132
f 140 132 139
f 139 132 133
f 139 133 138
f 138 133 134
f 138 134 137
f 137 134 135
f 137 135 136
f 111 112 115
f 115 112 114
f 114 112 113
f 200 157 199
f 199 157 158
f 199 158 198
f 198 158 159
f 198 159 197
f 197 159 160
f 197 160 196
f 196 160 161
f 196 161 195
f 195 161 162
f 195 162 194
f 194 162 163
f 194 163 193
f 193 163 164
f 193 164 192
f 192 164 165
f 192 165 191
f 191 165 166
f 191 166 190
f 190 166 167
f 190 167 189
f 189 167 168
f 189 168 188
f 188 168 169
f 188 169 187
f 187 169 170
f 187 170 186
f 186 170 171
f 186 171 185
f 185 171 172
f 185 172 184
f 184 172 173
f 184 173 183
f 183 173 174
f 183 174 182
f 182 174 175
f 182 175 181
f 181 175 176
f 181 176 180
f 180 176 177
f 180 177 179
f 179 177 178
