v 0.2434529495 0.085 0.3790211851
v 0.2451677895 0.085 0.3781723482
v 0.2469805717 0.085 0.3787847025
v 0.2478293991 0.085 0.3804995329
v 0.2472170448 0.085 0.3823123247
v 0.245502224 0.085 0.383161152
v 0.2436894226 0.085 0.3825487978
v 0.2428405952 0.085 0.3808339674
v 0.2415709114 0.085 0.3773756105
v 0.2403553009 0.085 0.3802166444
v 0.2410417747 0.085 0.3832295972
v 0.2433681107 0.085 0.385263632
v 0.2464457321 0.085 0.3855418188
v 0.249099102 0.085 0.3839578897
v 0.2503146935 0.085 0.3811168653
v 0.2496282196 0.085 0.378103903
v 0.2473018837 0.085 0.3760698682
v 0.2442242622 0.085 0.3757916814
v 0.2434529495 0.085 0.3790211851
v 0.2428405952 0.085 0.3808339674
v 0.2436894226 0.085 0.3825487978
v 0.245502224 0.085 0.383161152
v 0.2472170448 0.085 0.3823123247
v 0.2478293991 0.085 0.3804995329
v 0.2469805717 0.085 0.3787847025
v 0.2451677895 0.085 0.3781723482
v 0.2434529495 0.08399999619 0.3790211851
v 0.2451677895 0.08399999619 0.3781723482
v 0.2469805717 0.08399999619 0.3787847025
v 0.2478293991 0.08399999619 0.3804995329
v 0.2472170448 0.08399999619 0.3823123247
v 0.245502224 0.08399999619 0.383161152
v 0.2436894226 0.08399999619 0.3825487978
v 0.2428405952 0.08399999619 0.3808339674
v 0.2434529495 0.085 0.3790211851
v 0.2434529495 0.08399999619 0.3790211851
v 0.2415709114 0.085 0.3773756105
v 0.2442242622 0.085 0.3757916814
v 0.2473018837 0.085 0.3760698682
v 0.2496282196 0.085 0.378103903
v 0.2503146935 0.085 0.3811168653
v 0.249099102 0.085 0.3839578897
v 0.2464457321 0.085 0.3855418188
v 0.2433681107 0.085 0.385263632
v 0.2410417747 0.085 0.3832295972
v 0.2403553009 0.085 0.3802166444
v 0.2415709114 0.08399999619 0.3773756105
v 0.2403553009 0.08399999619 0.3802166444
v 0.2410417747 0.08399999619 0.3832295972
v 0.2433681107 0.08399999619 0.385263632
v 0.2464457321 0.08399999619 0.3855418188
v 0.249099102 0.08399999619 0.3839578897
v 0.2503146935 0.08399999619 0.3811168653
v 0.2496282196 0.08399999619 0.378103903
v 0.2473018837 0.08399999619 0.3760698682
v 0.2442242622 0.08399999619 0.3757916814
v 0.2415709114 0.08399999619 0.3773756105
v 0.2415709114 0.085 0.3773756105
v 0.2434529495 0.08399999619 0.3790211851
v 0.2428405952 0.08399999619 0.3808339674
v 0.2436894226 0.08399999619 0.3825487978
v 0.245502224 0.08399999619 0.383161152
v 0.2472170448 0.08399999619 0.3823123247
v 0.2478293991 0.08399999619 0.3804995329
v 0.2469805717 0.08399999619 0.3787847025
v 0.2451677895 0.08399999619 0.3781723482
v 0.2415709114 0.08399999619 0.3773756105
v 0.2442242622 0.08399999619 0.3757916814
v 0.2473018837 0.08399999619 0.3760698682
v 0.2496282196 0.08399999619 0.378103903
v 0.2503146935 0.08399999619 0.3811168653
v 0.249099102 0.08399999619 0.3839578897
v 0.2464457321 0.08399999619 0.3855418188
v 0.2433681107 0.08399999619 0.385263632
v 0.2410417747 0.08399999619 0.3832295972
v 0.2403553009 0.08399999619 0.3802166444
f 2 18 1
f 1 18 9
f 1 9 10
f 18 2 17
f 17 2 3
f 17 3 16
f 16 3 4
f 16 4 15
f 15 4 5
f 15 5 14
f 14 5 13
f 13 5 6
f 13 6 12
f 12 6 7
f 12 7 11
f 11 7 8
f 11 8 10
f 10 8 1
f 20 34 19
f 19 34 36
f 35 27 26
f 26 27 28
f 26 28 29
f 20 21 34
f 34 21 33
f 33 21 22
f 33 22 32
f 32 22 23
f 32 23 31
f 31 23 24
f 31 24 30
f 30 24 25
f 30 25 29
f 29 25 26
f 38 56 37
f 37 56 57
f 58 47 46
f 46 47 48
f 46 48 45
f 45 48 49
f 45 49 44
f 44 49 50
f 44 50 43
f 43 50 51
f 43 51 42
f 42 51 52
f 42 52 41
f 41 52 53
f 41 53 40
f 40 53 54
f 40 54 39
f 39 54 55
f 39 55 38
f 38 55 56
f 60 76 59
f 59 76 67
f 59 67 68
f 76 60 75
f 75 60 61
f 75 61 74
f 74 61 62
f 74 62 73
f 73 62 63
f 73 63 72
f 72 63 71
f 71 63 64
f 71 64 70
f 70 64 65
f 70 65 69
f 69 65 66
f 69 66 68
f 68 66 59
