v -0.2523349953 0.09100000381 0.4598767549
v -0.251397171 0.09100000381 0.4563767511
v -0.2488349915 0.09100000381 0.4538145715
v -0.2453350067 0.09100000381 0.4528767473
v -0.2418350029 0.09100000381 0.4538145715
v -0.2392728233 0.09100000381 0.4563767511
v -0.2383349991 0.09100000381 0.4598767549
v -0.2392728233 0.09100000381 0.4633767587
v -0.2418350029 0.09100000381 0.4659389383
v -0.2453350067 0.09100000381 0.4668767435
v -0.2488349915 0.09100000381 0.4659389383
v -0.251397171 0.09100000381 0.4633767587
v -0.2533349991 0.09100000381 0.4598767549
v -0.2524186516 0.09100000381 0.4635945398
v -0.2498795128 0.09100000381 0.4664606172
v -0.2462992859 0.09100000381 0.4678184206
v -0.2424981689 0.09100000381 0.4673568803
v -0.2393469048 0.09100000381 0.46518174
v -0.2375674629 0.09100000381 0.4617912752
v -0.2375674629 0.09100000381 0.4579622347
v -0.2393469048 0.09100000381 0.4545717699
v -0.2424981689 0.09100000381 0.4523966295
v -0.2462992859 0.09100000381 0.4519350893
v -0.2498795128 0.09100000381 0.4532928735
v -0.2524186516 0.09100000381 0.45615897
v -0.2523349953 0.09100000381 0.4598767549
v -0.251397171 0.09100000381 0.4633767587
v -0.2488349915 0.09100000381 0.4659389383
v -0.2453350067 0.09100000381 0.4668767435
v -0.2418350029 0.09100000381 0.4659389383
v -0.2392728233 0.09100000381 0.4633767587
v -0.2383349991 0.09100000381 0.4598767549
v -0.2392728233 0.09100000381 0.4563767511
v -0.2418350029 0.09100000381 0.4538145715
v -0.2453350067 0.09100000381 0.4528767473
v -0.2488349915 0.09100000381 0.4538145715
v -0.251397171 0.09100000381 0.4563767511
v -0.2523349953 0.09 0.4598767549
v -0.251397171 0.09 0.4563767511
v -0.2488349915 0.09 0.4538145715
v -0.2453350067 0.09 0.4528767473
v -0.2418350029 0.09 0.4538145715
v -0.2392728233 0.09 0.4563767511
v -0.2383349991 0.09 0.4598767549
v -0.2392728233 0.09 0.4633767587
v -0.2418350029 0.09 0.4659389383
v -0.2453350067 0.09 0.4668767435
v -0.2488349915 0.09 0.4659389383
v -0.251397171 0.09 0.4633767587
v -0.2523349953 0.09100000381 0.4598767549
v -0.2523349953 0.09 0.4598767549
v -0.2533349991 0.09100000381 0.4598767549
v -0.2524186516 0.09100000381 0.45615897
v -0.2498795128 0.09100000381 0.4532928735
v -0.2462992859 0.09100000381 0.4519350893
v -0.2424981689 0.09100000381 0.4523966295
v -0.2393469048 0.09100000381 0.4545717699
v -0.2375674629 0.09100000381 0.4579622347
v -0.2375674629 0.09100000381 0.4617912752
v -0.2393469048 0.09100000381 0.46518174
v -0.2424981689 0.09100000381 0.4673568803
v -0.2462992859 0.09100000381 0.4678184206
v -0.2498795128 0.09100000381 0.4664606172
v -0.2524186516 0.09100000381 0.4635945398
v -0.2533349991 0.09561499596 0.4598767549
v -0.2524186516 0.09561499596 0.4635945398
v -0.2498795128 0.09561499596 0.4664606172
v -0.2462992859 0.09561499596 0.4678184206
v -0.2424981689 0.09561499596 0.4673568803
v -0.2393469048 0.09561499596 0.46518174
v -0.2375674629 0.09561499596 0.4617912752
v -0.2375674629 0.09561499596 0.4579622347
v -0.2393469048 0.09561499596 0.4545717699
v -0.2424981689 0.09561499596 0.4523966295
v -0.2462992859 0.09561499596 0.4519350893
v -0.2498795128 0.09561499596 0.4532928735
v -0.2524186516 0.09561499596 0.45615897
v -0.2533349991 0.09100000381 0.4598767549
v -0.2533349991 0.09561499596 0.4598767549
v -0.2533349991 0.09 0.4598767549
v -0.2524186516 0.09 0.4635945398
v -0.2498795128 0.09 0.4664606172
v -0.2462992859 0.09 0.4678184206
v -0.2424981689 0.09 0.4673568803
v -0.2393469048 0.09 0.46518174
v -0.2375674629 0.09 0.4617912752
v -0.2375674629 0.09 0.4579622347
v -0.2393469048 0.09 0.4545717699
v -0.2424981689 0.09 0.4523966295
v -0.2462992859 0.09 0.4519350893
v -0.2498795128 0.09 0.4532928735
v -0.2524186516 0.09 0.45615897
v -0.2533349991 0.08538499832 0.4598767549
v -0.2524186516 0.08538499832 0.45615897
v -0.2498795128 0.08538499832 0.4532928735
v -0.2462992859 0.08538499832 0.4519350893
v -0.2424981689 0.08538499832 0.4523966295
v -0.2393469048 0.08538499832 0.4545717699
v -0.2375674629 0.08538499832 0.4579622347
v -0.2375674629 0.08538499832 0.4617912752
v -0.2393469048 0.08538499832 0.46518174
v -0.2424981689 0.08538499832 0.4673568803
v -0.2462992859 0.08538499832 0.4678184206
v -0.2498795128 0.08538499832 0.4664606172
v -0.2524186516 0.08538499832 0.4635945398
v -0.2533349991 0.09 0.4598767549
v -0.2533349991 0.08538499832 0.4598767549
v -0.2523349953 0.09 0.4598767549
v -0.251397171 0.09 0.4633767587
v -0.2488349915 0.09 0.4659389383
v -0.2453350067 0.09 0.4668767435
v -0.2418350029 0.09 0.4659389383
v -0.2392728233 0.09 0.4633767587
v -0.2383349991 0.09 0.4598767549
v -0.2392728233 0.09 0.4563767511
v -0.2418350029 0.09 0.4538145715
v -0.2453350067 0.09 0.4528767473
v -0.2488349915 0.09 0.4538145715
v -0.251397171 0.09 0.4563767511
v -0.2533349991 0.09 0.4598767549
v -0.2524186516 0.09 0.45615897
v -0.2498795128 0.09 0.4532928735
v -0.2462992859 0.09 0.4519350893
v -0.2424981689 0.09 0.4523966295
v -0.2393469048 0.09 0.4545717699
v -0.2375674629 0.09 0.4579622347
v -0.2375674629 0.09 0.4617912752
v -0.2393469048 0.09 0.46518174
v -0.2424981689 0.09 0.4673568803
v -0.2462992859 0.09 0.4678184206
v -0.2498795128 0.09 0.4664606172
v -0.2524186516 0.09 0.4635945398
v -0.2533349991 0.09561499596 0.4598767549
v -0.2524186516 0.09561499596 0.45615897
v -0.2498795128 0.09561499596 0.4532928735
v -0.2462992859 0.09561499596 0.4519350893
v -0.2424981689 0.09561499596 0.4523966295
v -0.2393469048 0.09561499596 0.4545717699
v -0.2375674629 0.09561499596 0.4579622347
v -0.2375674629 0.09561499596 0.4617912752
v -0.2393469048 0.09561499596 0.46518174
v -0.2424981689 0.09561499596 0.4673568803
v -0.2462992859 0.09561499596 0.4678184206
v -0.2498795128 0.09561499596 0.4664606172
v -0.2524186516 0.09561499596 0.4635945398
v -0.2551350021 0.09561499596 0.4598767549
v -0.2541644859 0.09561499596 0.4641288072
v -0.2514451981 0.09561499596 0.4675387079
v -0.2475156975 0.09561499596 0.4694310457
v -0.2431542969 0.09561499596 0.4694310457
v -0.2392247963 0.09561499596 0.4675387079
v -0.2365055084 0.09561499596 0.4641288072
v -0.2355349922 0.09561499596 0.4598767549
v -0.2365055084 0.09561499596 0.4556246835
v -0.2392247963 0.09561499596 0.4522148019
v -0.2431542969 0.09561499596 0.4503224641
v -0.2475156975 0.09561499596 0.4503224641
v -0.2514451981 0.09561499596 0.4522148019
v -0.2541644859 0.09561499596 0.4556246835
v -0.2572850037 0.09346500397 0.4598767549
v -0.256375351 0.09346500397 0.464449814
v -0.2537849236 0.09346500397 0.4683266718
v -0.2499080658 0.09346500397 0.4709171182
v -0.2453350067 0.09346500397 0.4718267519
v -0.2407619286 0.09346500397 0.4709171182
v -0.2368850708 0.09346500397 0.4683266718
v -0.2342946434 0.09346500397 0.464449814
v -0.2333849907 0.09346500397 0.4598767549
v -0.2342946434 0.09346500397 0.4553036768
v -0.2368850708 0.09346500397 0.451426819
v -0.2407619286 0.09346500397 0.4488363916
v -0.2453350067 0.09346500397 0.447926758
v -0.2499080658 0.09346500397 0.4488363916
v -0.2537849236 0.09346500397 0.451426819
v -0.256375351 0.09346500397 0.4553036768
v -0.2551350021 0.09561499596 0.4598767549
v -0.2541644859 0.09561499596 0.4556246835
v -0.2514451981 0.09561499596 0.4522148019
v -0.2475156975 0.09561499596 0.4503224641
v -0.2431542969 0.09561499596 0.4503224641
v -0.2392247963 0.09561499596 0.4522148019
v -0.2365055084 0.09561499596 0.4556246835
v -0.2355349922 0.09561499596 0.4598767549
v -0.2365055084 0.09561499596 0.4641288072
v -0.2392247963 0.09561499596 0.4675387079
v -0.2431542969 0.09561499596 0.4694310457
v -0.2475156975 0.09561499596 0.4694310457
v -0.2514451981 0.09561499596 0.4675387079
v -0.2541644859 0.09561499596 0.4641288072
v -0.2572850037 0.09346500397 0.4598767549
v -0.2551350021 0.09561499596 0.4598767549
v -0.2572850037 0.09346500397 0.4598767549
v -0.256375351 0.09346500397 0.4553036768
v -0.2537849236 0.09346500397 0.451426819
v -0.2499080658 0.09346500397 0.4488363916
v -0.2453350067 0.09346500397 0.447926758
v -0.2407619286 0.09346500397 0.4488363916
v -0.2368850708 0.09346500397 0.451426819
v -0.2342946434 0.09346500397 0.4553036768
v -0.2333849907 0.09346500397 0.4598767549
v -0.2342946434 0.09346500397 0.464449814
v -0.2368850708 0.09346500397 0.4683266718
v -0.2407619286 0.09346500397 0.4709171182
v -0.2453350067 0.09346500397 0.4718267519
v -0.2499080658 0.09346500397 0.4709171182
v -0.2537849236 0.09346500397 0.4683266718
v -0.256375351 0.09346500397 0.464449814
v -0.2572850037 0.08753499985 0.4598767549
v -0.256375351 0.08753499985 0.464449814
v -0.2537849236 0.08753499985 0.4683266718
v -0.2499080658 0.08753499985 0.4709171182
v -0.2453350067 0.08753499985 0.4718267519
v -0.2407619286 0.08753499985 0.4709171182
v -0.2368850708 0.08753499985 0.4683266718
v -0.2342946434 0.08753499985 0.464449814
v -0.2333849907 0.08753499985 0.4598767549
v -0.2342946434 0.08753499985 0.4553036768
v -0.2368850708 0.08753499985 0.451426819
v -0.2407619286 0.08753499985 0.4488363916
v -0.2453350067 0.08753499985 0.447926758
v -0.2499080658 0.08753499985 0.4488363916
v -0.2537849236 0.08753499985 0.451426819
v -0.256375351 0.08753499985 0.4553036768
v -0.2572850037 0.08753499985 0.4598767549
v -0.2572850037 0.09346500397 0.4598767549
v -0.2551350021 0.08538499832 0.4598767549
v -0.2541644859 0.08538499832 0.4641288072
v -0.2514451981 0.08538499832 0.4675387079
v -0.2475156975 0.08538499832 0.4694310457
v -0.2431542969 0.08538499832 0.4694310457
v -0.2392247963 0.08538499832 0.4675387079
v -0.2365055084 0.08538499832 0.4641288072
v -0.2355349922 0.08538499832 0.4598767549
v -0.2365055084 0.08538499832 0.4556246835
v -0.2392247963 0.08538499832 0.4522148019
v -0.2431542969 0.08538499832 0.4503224641
v -0.2475156975 0.08538499832 0.4503224641
v -0.2514451981 0.08538499832 0.4522148019
v -0.2541644859 0.08538499832 0.4556246835
v -0.2572850037 0.08753499985 0.4598767549
v -0.256375351 0.08753499985 0.4553036768
v -0.2537849236 0.08753499985 0.451426819
v -0.2499080658 0.08753499985 0.4488363916
v -0.2453350067 0.08753499985 0.447926758
v -0.2407619286 0.08753499985 0.4488363916
v -0.2368850708 0.08753499985 0.451426819
v -0.2342946434 0.08753499985 0.4553036768
v -0.2333849907 0.08753499985 0.4598767549
v -0.2342946434 0.08753499985 0.464449814
v -0.2368850708 0.08753499985 0.4683266718
v -0.2407619286 0.08753499985 0.4709171182
v -0.2453350067 0.08753499985 0.4718267519
v -0.2499080658 0.08753499985 0.4709171182
v -0.2537849236 0.08753499985 0.4683266718
v -0.256375351 0.08753499985 0.464449814
v -0.2551350021 0.08538499832 0.4598767549
v -0.2572850037 0.08753499985 0.4598767549
v -0.2533349991 0.08538499832 0.4598767549
v -0.2524186516 0.08538499832 0.4635945398
v -0.2498795128 0.08538499832 0.4664606172
v -0.2462992859 0.08538499832 0.4678184206
v -0.2424981689 0.08538499832 0.4673568803
v -0.2393469048 0.08538499832 0.46518174
v -0.2375674629 0.08538499832 0.4617912752
v -0.2375674629 0.08538499832 0.4579622347
v -0.2393469048 0.08538499832 0.4545717699
v -0.2424981689 0.08538499832 0.4523966295
v -0.2462992859 0.08538499832 0.4519350893
v -0.2498795128 0.08538499832 0.4532928735
v -0.2524186516 0.08538499832 0.45615897
v -0.2551350021 0.08538499832 0.4598767549
v -0.2541644859 0.08538499832 0.4556246835
v -0.2514451981 0.08538499832 0.4522148019
v -0.2475156975 0.08538499832 0.4503224641
v -0.2431542969 0.08538499832 0.4503224641
v -0.2392247963 0.08538499832 0.4522148019
v -0.2365055084 0.08538499832 0.4556246835
v -0.2355349922 0.08538499832 0.4598767549
v -0.2365055084 0.08538499832 0.4641288072
v -0.2392247963 0.08538499832 0.4675387079
v -0.2431542969 0.08538499832 0.4694310457
v -0.2475156975 0.08538499832 0.4694310457
v -0.2514451981 0.08538499832 0.4675387079
v -0.2541644859 0.08538499832 0.4641288072
f 2 25 1
f 1 25 13
f 1 13 14
f 25 2 24
f 24 2 3
f 24 3 23
f 23 3 4
f 23 4 22
f 22 4 5
f 22 5 21
f 21 5 6
f 21 6 20
f 20 6 7
f 20 7 19
f 19 7 8
f 19 8 18
f 18 8 9
f 18 9 17
f 17 9 10
f 17 10 16
f 16 10 11
f 16 11 15
f 15 11 12
f 15 12 14
f 14 12 1
f 27 49 26
f 26 49 51
f 50 38 37
f 37 38 39
f 37 39 36
f 36 39 40
f 36 40 35
f 35 40 41
f 35 41 34
f 34 41 42
f 34 42 33
f 33 42 43
f 33 43 32
f 32 43 44
f 32 44 31
f 31 44 45
f 31 45 30
f 30 45 46
f 30 46 29
f 29 46 47
f 29 47 28
f 28 47 48
f 28 48 27
f 27 48 49
f 53 77 52
f 52 77 79
f 78 65 64
f 64 65 66
f 64 66 63
f 63 66 67
f 63 67 62
f 62 67 68
f 62 68 61
f 61 68 69
f 61 69 60
f 60 69 70
f 60 70 59
f 59 70 71
f 59 71 58
f 58 71 72
f 58 72 57
f 57 72 73
f 57 73 56
f 56 73 74
f 56 74 55
f 55 74 75
f 55 75 54
f 54 75 76
f 54 76 53
f 53 76 77
f 81 105 80
f 80 105 107
f 106 93 92
f 92 93 94
f 92 94 91
f 91 94 95
f 91 95 90
f 90 95 96
f 90 96 89
f 89 96 97
f 89 97 88
f 88 97 98
f 88 98 87
f 87 98 99
f 87 99 86
f 86 99 100
f 86 100 85
f 85 100 101
f 85 101 84
f 84 101 102
f 84 102 83
f 83 102 103
f 83 103 82
f 82 103 104
f 82 104 81
f 81 104 105
f 109 132 108
f 108 132 120
f 108 120 121
f 132 109 131
f 131 109 110
f 131 110 130
f 130 110 111
f 130 111 129
f 129 111 112
f 129 112 128
f 128 112 113
f 128 113 127
f 127 113 114
f 127 114 126
f 126 114 115
f 126 115 125
f 125 115 116
f 125 116 124
f 124 116 117
f 124 117 123
f 123 117 118
f 123 118 122
f 122 118 119
f 122 119 121
f 121 119 108
f 134 159 133
f 133 159 146
f 133 146 147
f 159 134 158
f 158 134 135
f 158 135 157
f 157 135 136
f 157 136 156
f 156 136 137
f 156 137 155
f 155 137 138
f 155 138 154
f 154 138 139
f 154 139 153
f 153 139 140
f 153 140 152
f 152 140 141
f 152 141 151
f 151 141 142
f 151 142 150
f 150 142 143
f 150 143 149
f 149 143 144
f 149 144 148
f 148 144 145
f 148 145 147
f 147 145 133
f 175 190 176
f 191 160 161
f 191 161 189
f 189 161 162
f 189 162 188
f 188 162 163
f 188 163 187
f 187 163 164
f 187 164 186
f 186 164 165
f 186 165 185
f 185 165 166
f 185 166 184
f 184 166 167
f 184 167 183
f 183 167 168
f 183 168 169
f 183 169 182
f 182 169 170
f 182 170 181
f 181 170 171
f 181 171 180
f 180 171 172
f 180 172 179
f 179 172 173
f 179 173 178
f 178 173 174
f 178 174 177
f 177 174 175
f 177 175 176
f 193 223 192
f 192 223 224
f 225 208 207
f 207 208 209
f 207 209 206
f 206 209 210
f 206 210 205
f 205 210 211
f 205 211 204
f 204 211 212
f 204 212 203
f 203 212 213
f 203 213 202
f 202 213 214
f 202 214 201
f 201 214 215
f 201 215 200
f 200 215 216
f 200 216 199
f 199 216 217
f 199 217 198
f 198 217 218
f 198 218 197
f 197 218 219
f 197 219 196
f 196 219 220
f 196 220 195
f 195 220 221
f 195 221 194
f 194 221 222
f 194 222 193
f 193 222 223
f 227 255 226
f 226 255 257
f 256 240 241
f 255 227 254
f 254 227 228
f 254 228 253
f 253 228 229
f 253 229 252
f 252 229 230
f 252 230 251
f 251 230 231
f 251 231 250
f 250 231 232
f 250 232 249
f 249 232 233
f 249 233 248
f 248 233 247
f 247 233 234
f 247 234 246
f 246 234 235
f 246 235 245
f 245 235 236
f 245 236 244
f 244 236 237
f 244 237 243
f 243 237 238
f 243 238 242
f 242 238 239
f 242 239 241
f 241 239 256
f 259 284 258
f 258 284 271
f 258 271 272
f 284 259 283
f 283 259 260
f 283 260 282
f 282 260 261
f 282 261 281
f 281 261 262
f 281 262 280
f 280 262 263
f 280 263 279
f 279 263 264
f 279 264 278
f 278 264 265
f 278 265 277
f 277 265 266
f 277 266 276
f 276 266 267
f 276 267 275
f 275 267 268
f 275 268 274
f 274 268 269
f 274 269 273
f 273 269 270
f 273 270 272
f 272 270 258
