v -0.178492532 -0.02390000105 0.4118767461
v -0.1815074399 -0.02390000105 0.4118767408
v -0.178492532 -0.02390000105 0.4118767461
v -0.1815074399 -0.02390000105 0.4118767408
v -0.178492532 -0.02390000105 0.4118767461
v -0.1815074399 -0.02390000105 0.4118767408
v -0.1815074399 -0.02390000105 0.4118767408
v -0.1815074399 -0.02390000105 0.4118767408
v -0.178492532 -0.02390000105 0.4118767461
v -0.178492532 -0.02390000105 0.4118767461
v -0.178492532 -0.02390000105 0.4118767461
v -0.178492532 -0.02390000105 0.4118767461
v -0.1815074399 -0.02390000105 0.4118767408
v -0.1815074399 -0.02390000105 0.4118767408
v -0.1789340623 -0.02390000105 0.4108108236
v -0.1799999833 -0.02390000105 0.4103692991
v -0.1810659059 -0.02390000105 0.4108108198
v -0.1810659096 -0.02390000105 0.4129426825
v -0.1810659096 -0.02390000105 0.4129426825
v -0.1799999886 -0.02390000105 0.4133841974
v -0.1799999886 -0.02390000105 0.4133841974
v -0.178934066 -0.02390000105 0.4129426862
v -0.178934066 -0.02390000105 0.4129426862
v -0.1789340651 -0.02297688007 0.4124097158
v -0.1799999873 -0.02259451151 0.4126304704
v -0.1810659087 -0.02297688007 0.412409712
v -0.1810659087 -0.02482311964 0.412409712
v -0.1799999873 -0.02520549059 0.4126304704
v -0.1789340651 -0.02482311964 0.4124097158
v -0.1789340632 -0.02482311964 0.411343794
v -0.1799999846 -0.02520549059 0.4111230356
v -0.1810659068 -0.02482311964 0.4113437902
v -0.1810659068 -0.02297688007 0.4113437902
v -0.1799999846 -0.02259451151 0.4111230356
v -0.1789340632 -0.02297688007 0.411343794
f 33 7 26
f 26 8 18
f 24 9 35
f 35 10 15
f 30 11 29
f 29 12 23
f 27 13 32
f 32 14 17
f 15 16 35
f 35 16 34
f 35 34 24
f 24 34 25
f 24 25 22
f 22 25 20
f 23 21 29
f 29 21 28
f 29 28 30
f 30 28 31
f 30 31 15
f 15 31 16
f 15 3 30
f 16 17 34
f 34 17 33
f 34 33 25
f 25 33 26
f 25 26 20
f 20 26 18
f 21 19 28
f 28 19 27
f 28 27 31
f 31 27 32
f 31 32 16
f 16 32 17
f 17 4 33
f 19 2 27
f 22 1 24
