v -0.21 0.2102000046 0.03150000095
v -0.21 0.2102000046 0.02450000048
v -0.21 0.2068000031 0.02299999952
v -0.21 0.2068000031 0.03299999952
v -0.21 0.2068000031 0.02299999952
v -0.21 0.2102000046 0.02450000048
v -0.2 0.2102000046 0.02450000048
v -0.2 0.2068000031 0.02299999952
v -0.2 0.2102000046 0.02450000048
v -0.2 0.2102000046 0.03150000095
v -0.2 0.2068000031 0.03299999952
v -0.2 0.2068000031 0.02299999952
v -0.205 0.2102000046 0.03049999952
v -0.2067677689 0.2102000046 0.029767766
v -0.2075 0.2102000046 0.02799999952
v -0.2067677689 0.2102000046 0.02623223305
v -0.205 0.2102000046 0.02549999952
v -0.2032322311 0.2102000046 0.02623223305
v -0.2025 0.2102000046 0.02799999952
v -0.2032322311 0.2102000046 0.029767766
v -0.21 0.2102000046 0.02450000048
v -0.21 0.2102000046 0.03150000095
v -0.2 0.2102000046 0.03150000095
v -0.2 0.2102000046 0.02450000048
v -0.205 0.2068000031 0.03049999952
v -0.2032322311 0.2068000031 0.029767766
v -0.2025 0.2068000031 0.02799999952
v -0.2032322311 0.2068000031 0.02623223305
v -0.205 0.2068000031 0.02549999952
v -0.2067677689 0.2068000031 0.02623223305
v -0.2075 0.2068000031 0.02799999952
v -0.2067677689 0.2068000031 0.029767766
v -0.21 0.2068000031 0.03299999952
v -0.21 0.2068000031 0.02299999952
v -0.2 0.2068000031 0.02299999952
v -0.2 0.2068000031 0.03299999952
v -0.21 0.2102000046 0.03150000095
v -0.21 0.2068000031 0.03299999952
v -0.2 0.2068000031 0.03299999952
v -0.2 0.2102000046 0.03150000095
v -0.205 0.2102000046 0.03049999952
v -0.2032322311 0.2102000046 0.029767766
v -0.2025 0.2102000046 0.02799999952
v -0.2032322311 0.2102000046 0.02623223305
v -0.205 0.2102000046 0.02549999952
v -0.2067677689 0.2102000046 0.02623223305
v -0.2075 0.2102000046 0.02799999952
v -0.2067677689 0.2102000046 0.029767766
v -0.205 0.2068000031 0.03049999952
v -0.2067677689 0.2068000031 0.029767766
v -0.2075 0.2068000031 0.02799999952
v -0.2067677689 0.2068000031 0.02623223305
v -0.205 0.2068000031 0.02549999952
v -0.2032322311 0.2068000031 0.02623223305
v -0.2025 0.2068000031 0.02799999952
v -0.2032322311 0.2068000031 0.029767766
v -0.205 0.2102000046 0.03049999952
v -0.205 0.2068000031 0.03049999952
f 1 2 4
f 4 2 3
f 5 6 8
f 8 6 7
f 9 10 12
f 12 10 11
f 14 22 13
f 13 22 23
f 13 23 20
f 20 23 19
f 19 23 24
f 19 24 18
f 18 24 17
f 17 24 21
f 17 21 16
f 16 21 15
f 15 21 22
f 15 22 14
f 26 36 25
f 25 36 33
f 25 33 32
f 32 33 31
f 31 33 34
f 31 34 30
f 30 34 29
f 29 34 35
f 29 35 28
f 28 35 27
f 27 35 36
f 27 36 26
f 37 38 40
f 40 38 39
f 42 56 41
f 41 56 58
f 57 49 48
f 48 49 50
f 48 50 51
f 42 43 56
f 56 43 55
f 55 43 44
f 55 44 54
f 54 44 45
f 54 45 53
f 53 45 46
f 53 46 52
f 52 46 47
f 52 47 51
f 51 47 48
