v -0.2275 0.08600000381 0.06941813946
v -0.2267677689 0.08600000381 0.07118590832
v -0.225 0.08600000381 0.07191813946
v -0.2232322311 0.08600000381 0.07118590832
v -0.2225 0.08600000381 0.06941813946
v -0.2232322311 0.08600000381 0.06765037537
v -0.225 0.08600000381 0.06691813946
v -0.2267677689 0.08600000381 0.06765037537
v -0.2292499924 0.06099999905 0.06941813946
v -0.2284383202 0.06099999905 0.07191622734
v -0.226313324 0.06099999905 0.07346013069
v -0.223686676 0.06099999905 0.07346013069
v -0.2215616798 0.06099999905 0.07191622734
v -0.2207500076 0.06099999905 0.06941813946
v -0.2215616798 0.06099999905 0.06692005634
v -0.223686676 0.06099999905 0.06537615299
v -0.226313324 0.06099999905 0.06537615299
v -0.2284383202 0.06099999905 0.06692005634
v -0.2275 0.06099999905 0.06941813946
v -0.2267677689 0.06099999905 0.06765037537
v -0.225 0.06099999905 0.06691813946
v -0.2232322311 0.06099999905 0.06765037537
v -0.2225 0.06099999905 0.06941813946
v -0.2232322311 0.06099999905 0.07118590832
v -0.225 0.06099999905 0.07191813946
v -0.2267677689 0.06099999905 0.07118590832
v -0.2292499924 0.06099999905 0.06941813946
v -0.2284383202 0.06099999905 0.06692005634
v -0.226313324 0.06099999905 0.06537615299
v -0.223686676 0.06099999905 0.06537615299
v -0.2215616798 0.06099999905 0.06692005634
v -0.2207500076 0.06099999905 0.06941813946
v -0.2215616798 0.06099999905 0.07191622734
v -0.223686676 0.06099999905 0.07346013069
v -0.226313324 0.06099999905 0.07346013069
v -0.2284383202 0.06099999905 0.07191622734
v -0.2292499924 0.05599999905 0.06941813946
v -0.2284383202 0.05599999905 0.07191622734
v -0.226313324 0.05599999905 0.07346013069
v -0.223686676 0.05599999905 0.07346013069
v -0.2215616798 0.05599999905 0.07191622734
v -0.2207500076 0.05599999905 0.06941813946
v -0.2215616798 0.05599999905 0.06692005634
v -0.223686676 0.05599999905 0.06537615299
v -0.226313324 0.05599999905 0.06537615299
v -0.2284383202 0.05599999905 0.06692005634
v -0.2292499924 0.05599999905 0.06941813946
v -0.2292499924 0.06099999905 0.06941813946
v -0.2292499924 0.05599999905 0.06941813946
v -0.2284383202 0.05599999905 0.06692005634
v -0.226313324 0.05599999905 0.06537615299
v -0.223686676 0.05599999905 0.06537615299
v -0.2215616798 0.05599999905 0.06692005634
v -0.2207500076 0.05599999905 0.06941813946
v -0.2215616798 0.05599999905 0.07191622734
v -0.223686676 0.05599999905 0.07346013069
v -0.226313324 0.05599999905 0.07346013069
v -0.2284383202 0.05599999905 0.07191622734
v -0.2275 0.08600000381 0.06941813946
v -0.2267677689 0.08600000381 0.06765037537
v -0.225 0.08600000381 0.06691813946
v -0.2232322311 0.08600000381 0.06765037537
v -0.2225 0.08600000381 0.06941813946
v -0.2232322311 0.08600000381 0.07118590832
v -0.225 0.08600000381 0.07191813946
v -0.2267677689 0.08600000381 0.07118590832
v -0.2275 0.06099999905 0.06941813946
v -0.2267677689 0.06099999905 0.07118590832
v -0.225 0.06099999905 0.07191813946
v -0.2232322311 0.06099999905 0.07118590832
v -0.2225 0.06099999905 0.06941813946
v -0.2232322311 0.06099999905 0.06765037537
v -0.225 0.06099999905 0.06691813946
v -0.2267677689 0.06099999905 0.06765037537
v -0.2275 0.06099999905 0.06941813946
v -0.2275 0.08600000381 0.06941813946
f 2 4 1
f 1 4 5
f 1 5 8
f 8 5 6
f 8 6 7
f 2 3 4
f 18 9 19
f 19 9 10
f 19 10 26
f 26 10 11
f 26 11 25
f 25 11 12
f 25 12 24
f 24 12 13
f 24 13 23
f 23 13 14
f 23 14 15
f 23 15 22
f 22 15 16
f 22 16 21
f 21 16 17
f 21 17 20
f 20 17 18
f 20 18 19
f 28 46 27
f 27 46 47
f 48 37 36
f 36 37 38
f 36 38 35
f 35 38 39
f 35 39 34
f 34 39 40
f 34 40 33
f 33 40 41
f 33 41 32
f 32 41 42
f 32 42 31
f 31 42 43
f 31 43 30
f 30 43 44
f 30 44 29
f 29 44 45
f 29 45 28
f 28 45 46
f 50 53 49
f 49 53 54
f 49 54 58
f 58 54 55
f 58 55 57
f 57 55 56
f 51 52 50
f 50 52 53
f 60 74 59
f 59 74 75
f 76 67 66
f 66 67 68
f 66 68 69
f 60 61 74
f 74 61 73
f 73 61 62
f 73 62 72
f 72 62 63
f 72 63 71
f 71 63 64
f 71 64 70
f 70 64 65
f 70 65 69
f 69 65 66
