v -0.2297999954 0.04050000191 0.02549999952
v -0.2297999954 0.042267766 0.02623223305
v -0.2297999954 0.04300000191 0.02799999952
v -0.2297999954 0.042267766 0.029767766
v -0.2297999954 0.04050000191 0.03049999952
v -0.2297999954 0.03873223305 0.029767766
v -0.2297999954 0.03799999952 0.02799999952
v -0.2297999954 0.03873223305 0.02623223305
v -0.2331999969 0.04050000191 0.02549999952
v -0.2331999969 0.03873223305 0.02623223305
v -0.2331999969 0.03799999952 0.02799999952
v -0.2331999969 0.03873223305 0.029767766
v -0.2331999969 0.04050000191 0.03049999952
v -0.2331999969 0.042267766 0.029767766
v -0.2331999969 0.04300000191 0.02799999952
v -0.2331999969 0.042267766 0.02623223305
v -0.2297999954 0.04050000191 0.02549999952
v -0.2331999969 0.04050000191 0.02549999952
v -0.2297999954 0.04050000191 0.02549999952
v -0.2297999954 0.03873223305 0.02623223305
v -0.2297999954 0.03799999952 0.02799999952
v -0.2297999954 0.03873223305 0.029767766
v -0.2297999954 0.04050000191 0.03049999952
v -0.2297999954 0.042267766 0.029767766
v -0.2297999954 0.04300000191 0.02799999952
v -0.2297999954 0.042267766 0.02623223305
v -0.2297999954 0.03549999952 0.03150000095
v -0.2297999954 0.03549999952 0.02450000048
v -0.2297999954 0.04550000191 0.02450000048
v -0.2297999954 0.04550000191 0.03150000095
v -0.2297999954 0.03549999952 0.02450000048
v -0.2331999969 0.03549999952 0.02299999952
v -0.2331999969 0.04550000191 0.02299999952
v -0.2297999954 0.04550000191 0.02450000048
v -0.2331999969 0.03549999952 0.03299999952
v -0.2297999954 0.03549999952 0.03150000095
v -0.2297999954 0.04550000191 0.03150000095
v -0.2331999969 0.04550000191 0.03299999952
v -0.2297999954 0.04550000191 0.02450000048
v -0.2331999969 0.04550000191 0.02299999952
v -0.2331999969 0.04550000191 0.03299999952
v -0.2297999954 0.04550000191 0.03150000095
v -0.2331999969 0.04050000191 0.02549999952
v -0.2331999969 0.042267766 0.02623223305
v -0.2331999969 0.04300000191 0.02799999952
v -0.2331999969 0.042267766 0.029767766
v -0.2331999969 0.04050000191 0.03049999952
v -0.2331999969 0.03873223305 0.029767766
v -0.2331999969 0.03799999952 0.02799999952
v -0.2331999969 0.03873223305 0.02623223305
v -0.2331999969 0.03549999952 0.02299999952
v -0.2331999969 0.03549999952 0.03299999952
v -0.2331999969 0.04550000191 0.03299999952
v -0.2331999969 0.04550000191 0.02299999952
v -0.2331999969 0.03549999952 0.02299999952
v -0.2297999954 0.03549999952 0.02450000048
v -0.2297999954 0.03549999952 0.03150000095
v -0.2331999969 0.03549999952 0.03299999952
f 2 16 1
f 1 16 18
f 17 9 8
f 8 9 10
f 8 10 11
f 2 3 16
f 16 3 15
f 15 3 4
f 15 4 14
f 14 4 5
f 14 5 13
f 13 5 6
f 13 6 12
f 12 6 7
f 12 7 11
f 11 7 8
f 20 28 19
f 19 28 29
f 19 29 26
f 26 29 25
f 25 29 30
f 25 30 24
f 24 30 23
f 23 30 27
f 23 27 22
f 22 27 21
f 21 27 28
f 21 28 20
f 31 32 34
f 34 32 33
f 35 36 38
f 38 36 37
f 40 41 39
f 39 41 42
f 44 54 43
f 43 54 51
f 43 51 50
f 50 51 49
f 49 51 52
f 49 52 48
f 48 52 47
f 47 52 53
f 47 53 46
f 46 53 45
f 45 53 54
f 45 54 44
f 56 57 55
f 55 57 58
