v -0.09690828202 -0.01975000024 0.321371213
v -0.09690828202 -0.01980000019 0.321371213
v -0.0976326952 -0.01980000019 0.3226046083
v -0.09882210966 -0.01980000019 0.3233991647
v -0.100238879 -0.01980000019 0.3235961246
v -0.100238879 -0.01820000052 0.3235961246
v -0.09882210966 -0.01820000052 0.3233991647
v -0.0976326952 -0.01820000052 0.3226046083
v -0.09690828202 -0.01820000052 0.321371213
v -0.09690828202 -0.01825000048 0.321371213
v -0.09680087843 -0.01825000048 0.3209183133
v -0.09676030831 -0.01825000048 0.3204546178
v -0.09678743953 -0.01825000048 0.3199899495
v -0.09678743953 -0.01820000052 0.3199899495
v -0.09680487249 -0.01820000052 0.319874121
v -0.09682653977 -0.01820000052 0.3197590124
v -0.09685240321 -0.01820000052 0.319644767
v -0.09685240321 -0.01980000019 0.319644767
v -0.09682653977 -0.01980000019 0.3197590124
v -0.09680487249 -0.01980000019 0.319874121
v -0.09678743953 -0.01980000019 0.3199899495
v -0.09678743953 -0.01975000024 0.3199899495
v -0.09676030831 -0.01975000024 0.3204546178
v -0.09680087843 -0.01975000024 0.3209183133
v -0.06718076336 -0.01975000024 0.3552739294
v -0.06584678546 -0.01975000024 0.3540769656
v -0.06600737632 -0.01975000024 0.3522919063
v -0.06753357306 -0.01975000024 0.3513522578
v -0.06919975769 -0.01975000024 0.3520126076
v -0.06966788607 -0.01975000024 0.3537426579
v -0.06856202688 -0.01975000024 0.3551530869
v -0.06856202688 -0.01980000019 0.3551530869
v -0.06878621642 -0.01980000019 0.3550290516
v -0.06960605977 -0.01980000019 0.3539746869
v -0.06957939746 -0.01980000019 0.3526393427
v -0.06871811809 -0.01980000019 0.3516185407
v -0.06740631478 -0.01980000019 0.3513675169
v -0.06622900018 -0.01980000019 0.3519982124
v -0.0657112144 -0.01980000019 0.3532293687
v -0.06608386489 -0.01980000019 0.3545119265
v -0.06718076336 -0.01980000019 0.3552739294
v -0.03327804223 -0.01975000024 0.3255464107
v -0.03447500845 -0.01975000024 0.3242124328
v -0.03626006532 -0.01975000024 0.3243730237
v -0.03719971615 -0.01975000024 0.3258992204
v -0.03653936875 -0.01975000024 0.327565405
v -0.03480931615 -0.01975000024 0.3280335334
v -0.03339889188 -0.01975000024 0.326927679
v -0.03339889188 -0.01980000019 0.326927679
v -0.03352292477 -0.01980000019 0.3271518638
v -0.03457729423 -0.01980000019 0.3279717071
v -0.03591263373 -0.01980000019 0.3279450448
v -0.03693343329 -0.01980000019 0.3270837654
v -0.03718445952 -0.01980000019 0.3257719621
v -0.03655376402 -0.01980000019 0.3245946475
v -0.03532261248 -0.01980000019 0.3240768618
v -0.03404004755 -0.01980000019 0.3244495123
v -0.03327804223 -0.01980000019 0.3255464107
v -0.06300556567 -0.01975000024 0.2916436896
v -0.06433954356 -0.01975000024 0.2928406534
v -0.06417895271 -0.01975000024 0.2946257127
v -0.06265275597 -0.01975000024 0.2955653659
v -0.06098657134 -0.01975000024 0.2949050161
v -0.06051844296 -0.01975000024 0.2931749659
v -0.06162430215 -0.01975000024 0.2917645369
v -0.06162430215 -0.01980000019 0.2917645369
v -0.06140011261 -0.01980000019 0.2918885721
v -0.06058026926 -0.01980000019 0.2929429416
v -0.06060693157 -0.01980000019 0.2942782811
v -0.06146821094 -0.01980000019 0.295299083
v -0.06278001424 -0.01980000019 0.2955501069
v -0.06395732885 -0.01980000019 0.2949194114
v -0.06447511462 -0.01980000019 0.2936882598
v -0.06410246413 -0.01980000019 0.2924056973
v -0.06300556567 -0.01980000019 0.2916436896
v -0.09678743953 -0.01825000048 0.3199899495
v -0.09537701049 -0.01825000048 0.3188840903
v -0.09364696027 -0.01825000048 0.3193522187
v -0.09298661049 -0.01825000048 0.3210184033
v -0.09392625894 -0.01825000048 0.3225446001
v -0.09571131819 -0.01825000048 0.3227051909
v -0.09690828202 -0.01825000048 0.321371213
v -0.09690828202 -0.01820000052 0.321371213
v -0.0961462791 -0.01820000052 0.3224681115
v -0.09486371177 -0.01820000052 0.322840762
v -0.093632565 -0.01820000052 0.3223229762
v -0.0930018695 -0.01820000052 0.3211456616
v -0.09325289335 -0.01820000052 0.3198338583
v -0.09427369529 -0.01820000052 0.3189725789
v -0.09560903002 -0.01820000052 0.3189459166
v -0.09666340425 -0.01820000052 0.31976576
v -0.09678743953 -0.01820000052 0.3199899495
v -0.06856202688 -0.01825000048 0.3551530869
v -0.06966788607 -0.01825000048 0.3537426579
v -0.06919975769 -0.01825000048 0.3520126076
v -0.06753357306 -0.01825000048 0.3513522578
v -0.06600737632 -0.01825000048 0.3522919063
v -0.06584678546 -0.01825000048 0.3540769656
v -0.06718076336 -0.01825000048 0.3552739294
v -0.06718076336 -0.01820000052 0.3552739294
v -0.06608386489 -0.01820000052 0.3545119265
v -0.0657112144 -0.01820000052 0.3532293687
v -0.06622900018 -0.01820000052 0.3519982124
v -0.06740631478 -0.01820000052 0.3513675169
v -0.06871811809 -0.01820000052 0.3516185407
v -0.06957939746 -0.01820000052 0.3526393427
v -0.06960605977 -0.01820000052 0.3539746869
v -0.06878621642 -0.01820000052 0.3550290516
v -0.06856202688 -0.01820000052 0.3551530869
v -0.06162430215 -0.01825000048 0.2917645369
v -0.06051844296 -0.01825000048 0.2931749659
v -0.06098657134 -0.01825000048 0.2949050161
v -0.06265275597 -0.01825000048 0.2955653659
v -0.06417895271 -0.01825000048 0.2946257127
v -0.06433954356 -0.01825000048 0.2928406534
v -0.06300556567 -0.01825000048 0.2916436896
v -0.06300556567 -0.01820000052 0.2916436896
v -0.06410246413 -0.01820000052 0.2924056973
v -0.06447511462 -0.01820000052 0.2936882598
v -0.06395732885 -0.01820000052 0.2949194114
v -0.06278001424 -0.01820000052 0.2955501069
v -0.06146821094 -0.01820000052 0.295299083
v -0.06060693157 -0.01820000052 0.2942782811
v -0.06058026926 -0.01820000052 0.2929429416
v -0.06140011261 -0.01820000052 0.2918885721
v -0.06162430215 -0.01820000052 0.2917645369
v -0.06718076336 -0.01975000024 0.3552739294
v -0.0676336631 -0.01975000024 0.3551665258
v -0.06809735856 -0.01975000024 0.3551259557
v -0.06856202688 -0.01975000024 0.3551530869
v -0.06966788607 -0.01975000024 0.3537426579
v -0.06919975769 -0.01975000024 0.3520126076
v -0.06753357306 -0.01975000024 0.3513522578
v -0.06600737632 -0.01975000024 0.3522919063
v -0.06584678546 -0.01975000024 0.3540769656
v -0.06870408288 -0.01975000024 0.3532574873
v -0.06809862066 -0.01975000024 0.3542651502
v -0.06695318105 -0.01975000024 0.3540007078
v -0.066850721 -0.01975000024 0.352829615
v -0.06793284013 -0.01975000024 0.3523702759
v -0.1025784059 -0.01820000052 0.3245107657
v -0.1024395881 -0.01820000052 0.3239737472
v -0.1020359352 -0.01820000052 0.3235933129
v -0.1014916445 -0.01820000052 0.3234865166
v -0.1014916445 -0.01980000019 0.3234865166
v -0.1020359352 -0.01980000019 0.3235933129
v -0.1024395881 -0.01980000019 0.3239737472
v -0.1025784059 -0.01980000019 0.3245107657
v -0.03327804223 -0.01975000024 0.3255464107
v -0.0333854506 -0.01975000024 0.3259993152
v -0.03342602072 -0.01975000024 0.3264630059
v -0.03339889188 -0.01975000024 0.326927679
v -0.03480931615 -0.01975000024 0.3280335334
v -0.03653936875 -0.01975000024 0.327565405
v -0.03719971615 -0.01975000024 0.3258992204
v -0.03626006532 -0.01975000024 0.3243730237
v -0.03447500845 -0.01975000024 0.3242124328
v -0.03620352242 -0.01975000024 0.3259863785
v -0.0355980602 -0.01975000024 0.3269940413
v -0.03445262059 -0.01975000024 0.326729599
v -0.03435016054 -0.01975000024 0.3255585014
v -0.03543227729 -0.01975000024 0.3250991671
v -0.06718076336 -0.01975000024 0.3552739294
v -0.06718076336 -0.01980000019 0.3552739294
v -0.0659473681 -0.01980000019 0.3559983426
v -0.06515281166 -0.01980000019 0.357187757
v -0.06495585179 -0.01980000019 0.3586045264
v -0.06495585179 -0.01820000052 0.3586045264
v -0.06515281166 -0.01820000052 0.357187757
v -0.0659473681 -0.01820000052 0.3559983426
v -0.06718076336 -0.01820000052 0.3552739294
v -0.06718076336 -0.01825000048 0.3552739294
v -0.0676336631 -0.01825000048 0.3551665258
v -0.06809735856 -0.01825000048 0.3551259557
v -0.06856202688 -0.01825000048 0.3551530869
v -0.06856202688 -0.01820000052 0.3551530869
v -0.06867785542 -0.01820000052 0.3551705198
v -0.06879296872 -0.01820000052 0.3551921871
v -0.06890720941 -0.01820000052 0.3552180506
v -0.06890720941 -0.01980000019 0.3552180506
v -0.06879296872 -0.01980000019 0.3551921871
v -0.06867785542 -0.01980000019 0.3551705198
v -0.06856202688 -0.01980000019 0.3551530869
v -0.06856202688 -0.01975000024 0.3551530869
v -0.06809735856 -0.01975000024 0.3551259557
v -0.0676336631 -0.01975000024 0.3551665258
v -0.09690828202 -0.01980000019 0.321371213
v -0.09690828202 -0.01975000024 0.321371213
v -0.09571131819 -0.01975000024 0.3227051909
v -0.09392625894 -0.01975000024 0.3225446001
v -0.09298661049 -0.01975000024 0.3210184033
v -0.09364696027 -0.01975000024 0.3193522187
v -0.09537701049 -0.01975000024 0.3188840903
v -0.09678743953 -0.01975000024 0.3199899495
v -0.09678743953 -0.01980000019 0.3199899495
v -0.09666340425 -0.01980000019 0.31976576
v -0.09560903002 -0.01980000019 0.3189459166
v -0.09427369529 -0.01980000019 0.3189725789
v -0.09325289335 -0.01980000019 0.3198338583
v -0.0930018695 -0.01980000019 0.3211456616
v -0.093632565 -0.01980000019 0.3223229762
v -0.09486371177 -0.01980000019 0.322840762
v -0.0961462791 -0.01980000019 0.3224681115
v -0.09992073407 -0.01820000052 0.3131747346
v -0.1004546005 -0.01820000052 0.3129433628
v -0.1007692931 -0.01820000052 0.3124539652
v -0.1007582867 -0.01820000052 0.3118722238
v -0.1007582867 -0.01980000019 0.3118722238
v -0.1007692931 -0.01980000019 0.3124539652
v -0.1004546005 -0.01980000019 0.3129433628
v -0.09992073407 -0.01980000019 0.3131747346
v -0.06300556567 -0.01975000024 0.2916436896
v -0.06255266115 -0.01975000024 0.291751098
v -0.06208897047 -0.01975000024 0.2917916681
v -0.06162430215 -0.01975000024 0.2917645369
v -0.06051844296 -0.01975000024 0.2931749659
v -0.06098657134 -0.01975000024 0.2949050161
v -0.06265275597 -0.01975000024 0.2955653659
v -0.06417895271 -0.01975000024 0.2946257127
v -0.06433954356 -0.01975000024 0.2928406534
v -0.06347463361 -0.01975000024 0.2934858204
v -0.0628691714 -0.01975000024 0.2944934785
v -0.06172373179 -0.01975000024 0.2942290362
v -0.06162127173 -0.01975000024 0.2930579386
v -0.06270339087 -0.01975000024 0.2925986042
v -0.03327804223 -0.01825000048 0.3255464107
v -0.0333854506 -0.01825000048 0.3259993152
v -0.03342602072 -0.01825000048 0.3264630059
v -0.03339889188 -0.01825000048 0.326927679
v -0.03339889188 -0.01820000052 0.326927679
v -0.03338145415 -0.01820000052 0.3270435028
v -0.03335979164 -0.01820000052 0.3271586161
v -0.03333393058 -0.01820000052 0.3272728568
v -0.03333393058 -0.01980000019 0.3272728568
v -0.03335979164 -0.01980000019 0.3271586161
v -0.03338145415 -0.01980000019 0.3270435028
v -0.03339889188 -0.01980000019 0.326927679
v -0.03339889188 -0.01975000024 0.326927679
v -0.03342602072 -0.01975000024 0.3264630059
v -0.0333854506 -0.01975000024 0.3259993152
v -0.03327804223 -0.01975000024 0.3255464107
v -0.03327804223 -0.01980000019 0.3255464107
v -0.03255363621 -0.01980000019 0.3243130155
v -0.03136422175 -0.01980000019 0.323518459
v -0.02994745237 -0.01980000019 0.3233215039
v -0.02994745237 -0.01820000052 0.3233215039
v -0.03136422175 -0.01820000052 0.323518459
v -0.03255363621 -0.01820000052 0.3243130155
v -0.03327804223 -0.01820000052 0.3255464107
v -0.07973155422 -0.01980000019 0.3487958934
v -0.09258728123 -0.01980000019 0.3334749785
v -0.09920750735 -0.01980000019 0.3390299862
v -0.1009752394 -0.01980000019 0.3343549763
v -0.1021055733 -0.01980000019 0.3294864097
v -0.1025784059 -0.01980000019 0.3245107657
v -0.1024395881 -0.01980000019 0.3239737472
v -0.1020359352 -0.01980000019 0.3235933129
v -0.1014916445 -0.01980000019 0.3234865166
v -0.100238879 -0.01980000019 0.3235961246
v -0.09882210966 -0.01980000019 0.3233991647
v -0.0976326952 -0.01980000019 0.3226046083
v -0.09690828202 -0.01980000019 0.321371213
v -0.0961462791 -0.01980000019 0.3224681115
v -0.09486371177 -0.01980000019 0.322840762
v -0.093632565 -0.01980000019 0.3223229762
v -0.0930018695 -0.01980000019 0.3211456616
v -0.09325289335 -0.01980000019 0.3198338583
v -0.09427369529 -0.01980000019 0.3189725789
v -0.09560903002 -0.01980000019 0.3189459166
v -0.09666340425 -0.01980000019 0.31976576
v -0.09678743953 -0.01980000019 0.3199899495
v -0.09680487249 -0.01980000019 0.319874121
v -0.09682653977 -0.01980000019 0.3197590124
v -0.09685240321 -0.01980000019 0.319644767
v -0.09803401633 -0.01980000019 0.3148355856
v -0.09841416858 -0.01980000019 0.3140356
v -0.09907899299 -0.01980000019 0.3134503623
v -0.09992073407 -0.01980000019 0.3131747346
v -0.1004546005 -0.01980000019 0.3129433628
v -0.1007692931 -0.01980000019 0.3124539652
v -0.1007582867 -0.01980000019 0.3118722238
v -0.09765710673 -0.01980000019 0.3048620507
v -0.09319525421 -0.01980000019 0.2986289386
v -0.0875591634 -0.01980000019 0.2934333403
v -0.08098432547 -0.01980000019 0.2894923452
v -0.07374548953 -0.01980000019 0.2869706332
v -0.06614511832 -0.01980000019 0.2859735705
v -0.06560809502 -0.01980000019 0.2861123907
v -0.06522766551 -0.01980000019 0.2865160412
v -0.06512086925 -0.01980000019 0.2870603343
v -0.06523047247 -0.01980000019 0.2883130997
v -0.06503351736 -0.01980000019 0.2897298691
v -0.06423896093 -0.01980000019 0.290919286
v -0.06300556567 -0.01980000019 0.2916436896
v -0.06410246413 -0.01980000019 0.2924056973
v -0.06447511462 -0.01980000019 0.2936882598
v -0.06395732885 -0.01980000019 0.2949194114
v -0.06278001424 -0.01980000019 0.2955501069
v -0.06146821094 -0.01980000019 0.295299083
v -0.06060693157 -0.01980000019 0.2942782811
v -0.06058026926 -0.01980000019 0.2929429416
v -0.06140011261 -0.01980000019 0.2918885721
v -0.06162430215 -0.01980000019 0.2917645369
v -0.0615084736 -0.01980000019 0.2917471039
v -0.06139336031 -0.01980000019 0.2917254414
v -0.06127911961 -0.01980000019 0.2916995779
v -0.05646993823 -0.01980000019 0.2905179601
v -0.05566995264 -0.01980000019 0.2901378078
v -0.05508471492 -0.01980000019 0.289472981
v -0.05480908726 -0.01980000019 0.2886312423
v -0.0545777154 -0.01980000019 0.2880973782
v -0.0540883178 -0.01980000019 0.2877826809
v -0.05350657171 -0.01980000019 0.2877936897
v -0.04828816975 -0.01980000019 0.2899350577
v -0.04344998476 -0.01980000019 0.2928349204
v -0.03910149129 -0.01980000019 0.2964276671
v -0.04161875888 -0.01980000019 0.2985398987
v -0.03647646951 -0.01980000019 0.3046682618
v -0.03395920191 -0.01980000019 0.3025560302
v -0.03060507104 -0.01980000019 0.3087339574
v -0.02846288471 -0.01980000019 0.315429327
v -0.02760792078 -0.01980000019 0.3224068581
v -0.02774674332 -0.01980000019 0.3229438814
v -0.0281503938 -0.01980000019 0.3233243109
v -0.02869468691 -0.01980000019 0.3234311071
v -0.02994745237 -0.01980000019 0.3233215039
v -0.03136422175 -0.01980000019 0.323518459
v -0.03255363621 -0.01980000019 0.3243130155
v -0.03327804223 -0.01980000019 0.3255464107
v -0.03404004755 -0.01980000019 0.3244495123
v -0.03532261248 -0.01980000019 0.3240768618
v -0.03655376402 -0.01980000019 0.3245946475
v -0.03718445952 -0.01980000019 0.3257719621
v -0.03693343329 -0.01980000019 0.3270837654
v -0.03591263373 -0.01980000019 0.3279450448
v -0.03457729423 -0.01980000019 0.3279717071
v -0.03352292477 -0.01980000019 0.3271518638
v -0.03339889188 -0.01980000019 0.326927679
v -0.03338145415 -0.01980000019 0.3270435028
v -0.03335979164 -0.01980000019 0.3271586161
v -0.03333393058 -0.01980000019 0.3272728568
v -0.0321523127 -0.01980000019 0.3320820429
v -0.03177216045 -0.01980000019 0.3328820237
v -0.03110733365 -0.01980000019 0.3334672662
v -0.03026559496 -0.01980000019 0.3337428891
v -0.02973172848 -0.01980000019 0.333974261
v -0.02941703112 -0.01980000019 0.3344636586
v -0.02942804231 -0.01980000019 0.3350453999
v -0.03252921991 -0.01980000019 0.3420555778
v -0.03699107481 -0.01980000019 0.3482886899
v -0.0426271704 -0.01980000019 0.3534842882
v -0.04920199878 -0.01980000019 0.3574252785
v -0.0564408395 -0.01980000019 0.3599469905
v -0.0640412107 -0.01980000019 0.3609440532
v -0.06457822923 -0.01980000019 0.3608052354
v -0.06495866351 -0.01980000019 0.3604015826
v -0.06506545978 -0.01980000019 0.3598572919
v -0.06495585179 -0.01980000019 0.3586045264
v -0.06515281166 -0.01980000019 0.357187757
v -0.0659473681 -0.01980000019 0.3559983426
v -0.06718076336 -0.01980000019 0.3552739294
v -0.06608386489 -0.01980000019 0.3545119265
v -0.0657112144 -0.01980000019 0.3532293687
v -0.06622900018 -0.01980000019 0.3519982124
v -0.06740631478 -0.01980000019 0.3513675169
v -0.06871811809 -0.01980000019 0.3516185407
v -0.06957939746 -0.01980000019 0.3526393427
v -0.06960605977 -0.01980000019 0.3539746869
v -0.06878621642 -0.01980000019 0.3550290516
v -0.06856202688 -0.01980000019 0.3551530869
v -0.06867785542 -0.01980000019 0.3551705198
v -0.06879296872 -0.01980000019 0.3551921871
v -0.06890720941 -0.01980000019 0.3552180506
v -0.07371639079 -0.01980000019 0.3563996637
v -0.07451637639 -0.01980000019 0.3567798159
v -0.07510161411 -0.01980000019 0.3574446404
v -0.07537724177 -0.01980000019 0.3582863814
v -0.07560861363 -0.01980000019 0.3588202479
v -0.07609801123 -0.01980000019 0.3591349405
v -0.07667975254 -0.01980000019 0.3591239341
v -0.0800520762 -0.01980000019 0.3578460332
v -0.0832860593 -0.01980000019 0.3562501012
v -0.08635178511 -0.01980000019 0.3543509011
v -0.06300556567 -0.01975000024 0.2916436896
v -0.06300556567 -0.01980000019 0.2916436896
v -0.06423896093 -0.01980000019 0.290919286
v -0.06503351736 -0.01980000019 0.2897298691
v -0.06523047247 -0.01980000019 0.2883130997
v -0.06523047247 -0.01820000052 0.2883130997
v -0.06503351736 -0.01820000052 0.2897298691
v -0.06423896093 -0.01820000052 0.290919286
v -0.06300556567 -0.01820000052 0.2916436896
v -0.06300556567 -0.01825000048 0.2916436896
v -0.06255266115 -0.01825000048 0.291751098
v -0.06208897047 -0.01825000048 0.2917916681
v -0.06162430215 -0.01825000048 0.2917645369
v -0.06162430215 -0.01820000052 0.2917645369
v -0.0615084736 -0.01820000052 0.2917471039
v -0.06139336031 -0.01820000052 0.2917254414
v -0.06127911961 -0.01820000052 0.2916995779
v -0.06127911961 -0.01980000019 0.2916995779
v -0.06139336031 -0.01980000019 0.2917254414
v -0.0615084736 -0.01980000019 0.2917471039
v -0.06162430215 -0.01980000019 0.2917645369
v -0.06162430215 -0.01975000024 0.2917645369
v -0.06208897047 -0.01975000024 0.2917916681
v -0.06255266115 -0.01975000024 0.291751098
v -0.09690828202 -0.01975000024 0.321371213
v -0.09680087843 -0.01975000024 0.3209183133
v -0.09676030831 -0.01975000024 0.3204546178
v -0.09678743953 -0.01975000024 0.3199899495
v -0.09537701049 -0.01975000024 0.3188840903
v -0.09364696027 -0.01975000024 0.3193522187
v -0.09298661049 -0.01975000024 0.3210184033
v -0.09392625894 -0.01975000024 0.3225446001
v -0.09571131819 -0.01975000024 0.3227051909
v -0.09597519646 -0.01975000024 0.3207569292
v -0.09536972947 -0.01975000024 0.3217645921
v -0.09422428986 -0.01975000024 0.3215001497
v -0.09412183458 -0.01975000024 0.3203290522
v -0.09520394894 -0.01975000024 0.3198697178
v -0.06347463361 -0.01825000048 0.2934858204
v -0.0628691714 -0.01825000048 0.2944934785
v -0.06172373179 -0.01825000048 0.2942290362
v -0.06162127173 -0.01825000048 0.2930579386
v -0.06270339087 -0.01825000048 0.2925986042
v -0.06347463361 -0.01975000024 0.2934858204
v -0.06270339087 -0.01975000024 0.2925986042
v -0.06162127173 -0.01975000024 0.2930579386
v -0.06172373179 -0.01975000024 0.2942290362
v -0.0628691714 -0.01975000024 0.2944934785
v -0.06162127173 -0.01975000024 0.2930579386
v -0.06162127173 -0.01825000048 0.2930579386
v -0.09678743953 -0.01825000048 0.3199899495
v -0.09676030831 -0.01825000048 0.3204546178
v -0.09680087843 -0.01825000048 0.3209183133
v -0.09690828202 -0.01825000048 0.321371213
v -0.09571131819 -0.01825000048 0.3227051909
v -0.09392625894 -0.01825000048 0.3225446001
v -0.09298661049 -0.01825000048 0.3210184033
v -0.09364696027 -0.01825000048 0.3193522187
v -0.09537701049 -0.01825000048 0.3188840903
v -0.09597519646 -0.01825000048 0.3207569292
v -0.09520394894 -0.01825000048 0.3198697178
v -0.09412183458 -0.01825000048 0.3203290522
v -0.09422428986 -0.01825000048 0.3215001497
v -0.09536972947 -0.01825000048 0.3217645921
v -0.03620352242 -0.01825000048 0.3259863785
v -0.0355980602 -0.01825000048 0.3269940413
v -0.03445262059 -0.01825000048 0.326729599
v -0.03435016054 -0.01825000048 0.3255585014
v -0.03543227729 -0.01825000048 0.3250991671
v -0.03620352242 -0.01975000024 0.3259863785
v -0.03543227729 -0.01975000024 0.3250991671
v -0.03435016054 -0.01975000024 0.3255585014
v -0.03445262059 -0.01975000024 0.326729599
v -0.0355980602 -0.01975000024 0.3269940413
v -0.03435016054 -0.01975000024 0.3255585014
v -0.03435016054 -0.01825000048 0.3255585014
v -0.06523047247 -0.01980000019 0.2883130997
v -0.06512086925 -0.01980000019 0.2870603343
v -0.06512086925 -0.01820000052 0.2870603343
v -0.06523047247 -0.01820000052 0.2883130997
v -0.09858328211 -0.01820000052 0.3403307419
v -0.08752437389 -0.01820000052 0.3535102828
v -0.08412110523 -0.01820000052 0.3557726999
v -0.0804918723 -0.01820000052 0.3576513493
v -0.07667975254 -0.01820000052 0.3591239341
v -0.07609801123 -0.01820000052 0.3591349405
v -0.07560861363 -0.01820000052 0.3588202479
v -0.07537724177 -0.01820000052 0.3582863814
v -0.07510161411 -0.01820000052 0.3574446404
v -0.07451637639 -0.01820000052 0.3567798159
v -0.07371639079 -0.01820000052 0.3563996637
v -0.06890720941 -0.01820000052 0.3552180506
v -0.06879296872 -0.01820000052 0.3551921871
v -0.06867785542 -0.01820000052 0.3551705198
v -0.06856202688 -0.01820000052 0.3551530869
v -0.06878621642 -0.01820000052 0.3550290516
v -0.06960605977 -0.01820000052 0.3539746869
v -0.06957939746 -0.01820000052 0.3526393427
v -0.06871811809 -0.01820000052 0.3516185407
v -0.06740631478 -0.01820000052 0.3513675169
v -0.06622900018 -0.01820000052 0.3519982124
v -0.0657112144 -0.01820000052 0.3532293687
v -0.06608386489 -0.01820000052 0.3545119265
v -0.06718076336 -0.01820000052 0.3552739294
v -0.0659473681 -0.01820000052 0.3559983426
v -0.06515281166 -0.01820000052 0.357187757
v -0.06495585179 -0.01820000052 0.3586045264
v -0.06506545978 -0.01820000052 0.3598572919
v -0.06495866351 -0.01820000052 0.3604015826
v -0.06457822923 -0.01820000052 0.3608052354
v -0.0640412107 -0.01820000052 0.3609440532
v -0.0564408395 -0.01820000052 0.3599469905
v -0.04920199878 -0.01820000052 0.3574252785
v -0.0426271704 -0.01820000052 0.3534842882
v -0.03699107481 -0.01820000052 0.3482886899
v -0.03252921991 -0.01820000052 0.3420555778
v -0.02942804231 -0.01820000052 0.3350453999
v -0.02941703112 -0.01820000052 0.3344636586
v -0.02973172848 -0.01820000052 0.333974261
v -0.03026559496 -0.01820000052 0.3337428891
v -0.03110733365 -0.01820000052 0.3334672662
v -0.03177216045 -0.01820000052 0.3328820237
v -0.0321523127 -0.01820000052 0.3320820429
v -0.03333393058 -0.01820000052 0.3272728568
v -0.03335979164 -0.01820000052 0.3271586161
v -0.03338145415 -0.01820000052 0.3270435028
v -0.03339889188 -0.01820000052 0.326927679
v -0.03352292477 -0.01820000052 0.3271518638
v -0.03457729423 -0.01820000052 0.3279717071
v -0.03591263373 -0.01820000052 0.3279450448
v -0.03693343329 -0.01820000052 0.3270837654
v -0.03718445952 -0.01820000052 0.3257719621
v -0.03655376402 -0.01820000052 0.3245946475
v -0.03532261248 -0.01820000052 0.3240768618
v -0.03404004755 -0.01820000052 0.3244495123
v -0.03327804223 -0.01820000052 0.3255464107
v -0.03255363621 -0.01820000052 0.3243130155
v -0.03136422175 -0.01820000052 0.323518459
v -0.02994745237 -0.01820000052 0.3233215039
v -0.02869468691 -0.01820000052 0.3234311071
v -0.0281503938 -0.01820000052 0.3233243109
v -0.02774674332 -0.01820000052 0.3229438814
v -0.02760792078 -0.01820000052 0.3224068581
v -0.02846288471 -0.01820000052 0.315429327
v -0.03060507104 -0.01820000052 0.3087339574
v -0.03395920191 -0.01820000052 0.3025560302
v -0.03647646951 -0.01820000052 0.3046682618
v -0.04161875888 -0.01820000052 0.2985398987
v -0.03910149129 -0.01820000052 0.2964276671
v -0.04344998476 -0.01820000052 0.2928349204
v -0.04828816975 -0.01820000052 0.2899350577
v -0.05350657171 -0.01820000052 0.2877936897
v -0.0540883178 -0.01820000052 0.2877826809
v -0.0545777154 -0.01820000052 0.2880973782
v -0.05480908726 -0.01820000052 0.2886312423
v -0.05508471492 -0.01820000052 0.289472981
v -0.05566995264 -0.01820000052 0.2901378078
v -0.05646993823 -0.01820000052 0.2905179601
v -0.06127911961 -0.01820000052 0.2916995779
v -0.06139336031 -0.01820000052 0.2917254414
v -0.0615084736 -0.01820000052 0.2917471039
v -0.06162430215 -0.01820000052 0.2917645369
v -0.06140011261 -0.01820000052 0.2918885721
v -0.06058026926 -0.01820000052 0.2929429416
v -0.06060693157 -0.01820000052 0.2942782811
v -0.06146821094 -0.01820000052 0.295299083
v -0.06278001424 -0.01820000052 0.2955501069
v -0.06395732885 -0.01820000052 0.2949194114
v -0.06447511462 -0.01820000052 0.2936882598
v -0.06410246413 -0.01820000052 0.2924056973
v -0.06300556567 -0.01820000052 0.2916436896
v -0.06423896093 -0.01820000052 0.290919286
v -0.06503351736 -0.01820000052 0.2897298691
v -0.06523047247 -0.01820000052 0.2883130997
v -0.06512086925 -0.01820000052 0.2870603343
v -0.06522766551 -0.01820000052 0.2865160412
v -0.06560809502 -0.01820000052 0.2861123907
v -0.06614511832 -0.01820000052 0.2859735705
v -0.07374548953 -0.01820000052 0.2869706332
v -0.08098432547 -0.01820000052 0.2894923452
v -0.0875591634 -0.01820000052 0.2934333403
v -0.09319525421 -0.01820000052 0.2986289386
v -0.09765710673 -0.01820000052 0.3048620507
v -0.1007582867 -0.01820000052 0.3118722238
v -0.1007692931 -0.01820000052 0.3124539652
v -0.1004546005 -0.01820000052 0.3129433628
v -0.09992073407 -0.01820000052 0.3131747346
v -0.09907899299 -0.01820000052 0.3134503623
v -0.09841416858 -0.01820000052 0.3140356
v -0.09803401633 -0.01820000052 0.3148355856
v -0.09685240321 -0.01820000052 0.319644767
v -0.09682653977 -0.01820000052 0.3197590124
v -0.09680487249 -0.01820000052 0.319874121
v -0.09678743953 -0.01820000052 0.3199899495
v -0.09666340425 -0.01820000052 0.31976576
v -0.09560903002 -0.01820000052 0.3189459166
v -0.09427369529 -0.01820000052 0.3189725789
v -0.09325289335 -0.01820000052 0.3198338583
v -0.0930018695 -0.01820000052 0.3211456616
v -0.093632565 -0.01820000052 0.3223229762
v -0.09486371177 -0.01820000052 0.322840762
v -0.0961462791 -0.01820000052 0.3224681115
v -0.09690828202 -0.01820000052 0.321371213
v -0.0976326952 -0.01820000052 0.3226046083
v -0.09882210966 -0.01820000052 0.3233991647
v -0.100238879 -0.01820000052 0.3235961246
v -0.1014916445 -0.01820000052 0.3234865166
v -0.1020359352 -0.01820000052 0.3235933129
v -0.1024395881 -0.01820000052 0.3239737472
v -0.1025784059 -0.01820000052 0.3245107657
v -0.1020252176 -0.01820000052 0.3299606005
v -0.1006839698 -0.01820000052 0.3352717057
v -0.03647646951 -0.01820000052 0.3046682618
v -0.03395920191 -0.01820000052 0.3025560302
v -0.03395920191 -0.01980000019 0.3025560302
v -0.03647646951 -0.01980000019 0.3046682618
v -0.06856202688 -0.01825000048 0.3551530869
v -0.06809735856 -0.01825000048 0.3551259557
v -0.0676336631 -0.01825000048 0.3551665258
v -0.06718076336 -0.01825000048 0.3552739294
v -0.06584678546 -0.01825000048 0.3540769656
v -0.06600737632 -0.01825000048 0.3522919063
v -0.06753357306 -0.01825000048 0.3513522578
v -0.06919975769 -0.01825000048 0.3520126076
v -0.06966788607 -0.01825000048 0.3537426579
v -0.06870408288 -0.01825000048 0.3532574873
v -0.06793284013 -0.01825000048 0.3523702759
v -0.066850721 -0.01825000048 0.352829615
v -0.06695318105 -0.01825000048 0.3540007078
v -0.06809862066 -0.01825000048 0.3542651502
v -0.06870408288 -0.01825000048 0.3532574873
v -0.06809862066 -0.01825000048 0.3542651502
v -0.06695318105 -0.01825000048 0.3540007078
v -0.066850721 -0.01825000048 0.352829615
v -0.06793284013 -0.01825000048 0.3523702759
v -0.06870408288 -0.01975000024 0.3532574873
v -0.06793284013 -0.01975000024 0.3523702759
v -0.066850721 -0.01975000024 0.352829615
v -0.06695318105 -0.01975000024 0.3540007078
v -0.06809862066 -0.01975000024 0.3542651502
v -0.066850721 -0.01975000024 0.352829615
v -0.066850721 -0.01825000048 0.352829615
v -0.06512086925 -0.01980000019 0.2870603343
v -0.06522766551 -0.01980000019 0.2865160412
v -0.06560809502 -0.01980000019 0.2861123907
v -0.06614511832 -0.01980000019 0.2859735705
v -0.06614511832 -0.01820000052 0.2859735705
v -0.06560809502 -0.01820000052 0.2861123907
v -0.06522766551 -0.01820000052 0.2865160412
v -0.06512086925 -0.01820000052 0.2870603343
v -0.07371639079 -0.01980000019 0.3563996637
v -0.06890720941 -0.01980000019 0.3552180506
v -0.06890720941 -0.01820000052 0.3552180506
v -0.07371639079 -0.01820000052 0.3563996637
v -0.06495585179 -0.01980000019 0.3586045264
v -0.06506545978 -0.01980000019 0.3598572919
v -0.06506545978 -0.01820000052 0.3598572919
v -0.06495585179 -0.01820000052 0.3586045264
v -0.04161875888 -0.01820000052 0.2985398987
v -0.03647646951 -0.01820000052 0.3046682618
v -0.03647646951 -0.01980000019 0.3046682618
v -0.04161875888 -0.01980000019 0.2985398987
v -0.06162430215 -0.01825000048 0.2917645369
v -0.06208897047 -0.01825000048 0.2917916681
v -0.06255266115 -0.01825000048 0.291751098
v -0.06300556567 -0.01825000048 0.2916436896
v -0.06433954356 -0.01825000048 0.2928406534
v -0.06417895271 -0.01825000048 0.2946257127
v -0.06265275597 -0.01825000048 0.2955653659
v -0.06098657134 -0.01825000048 0.2949050161
v -0.06051844296 -0.01825000048 0.2931749659
v -0.06347463361 -0.01825000048 0.2934858204
v -0.06270339087 -0.01825000048 0.2925986042
v -0.06162127173 -0.01825000048 0.2930579386
v -0.06172373179 -0.01825000048 0.2942290362
v -0.0628691714 -0.01825000048 0.2944934785
v -0.0321523127 -0.01980000019 0.3320820429
v -0.03333393058 -0.01980000019 0.3272728568
v -0.03333393058 -0.01820000052 0.3272728568
v -0.0321523127 -0.01820000052 0.3320820429
v -0.09597519646 -0.01825000048 0.3207569292
v -0.09536972947 -0.01825000048 0.3217645921
v -0.09422428986 -0.01825000048 0.3215001497
v -0.09412183458 -0.01825000048 0.3203290522
v -0.09520394894 -0.01825000048 0.3198697178
v -0.09597519646 -0.01975000024 0.3207569292
v -0.09520394894 -0.01975000024 0.3198697178
v -0.09412183458 -0.01975000024 0.3203290522
v -0.09422428986 -0.01975000024 0.3215001497
v -0.09536972947 -0.01975000024 0.3217645921
v -0.09412183458 -0.01975000024 0.3203290522
v -0.09412183458 -0.01825000048 0.3203290522
v -0.03339889188 -0.01825000048 0.326927679
v -0.03342602072 -0.01825000048 0.3264630059
v -0.0333854506 -0.01825000048 0.3259993152
v -0.03327804223 -0.01825000048 0.3255464107
v -0.03447500845 -0.01825000048 0.3242124328
v -0.03626006532 -0.01825000048 0.3243730237
v -0.03719971615 -0.01825000048 0.3258992204
v -0.03653936875 -0.01825000048 0.327565405
v -0.03480931615 -0.01825000048 0.3280335334
v -0.03620352242 -0.01825000048 0.3259863785
v -0.03543227729 -0.01825000048 0.3250991671
v -0.03435016054 -0.01825000048 0.3255585014
v -0.03445262059 -0.01825000048 0.326729599
v -0.0355980602 -0.01825000048 0.3269940413
v -0.02994745237 -0.01980000019 0.3233215039
v -0.02869468691 -0.01980000019 0.3234311071
v -0.02869468691 -0.01820000052 0.3234311071
v -0.02994745237 -0.01820000052 0.3233215039
v -0.06614511832 -0.01980000019 0.2859735705
v -0.07374548953 -0.01980000019 0.2869706332
v -0.08098432547 -0.01980000019 0.2894923452
v -0.0875591634 -0.01980000019 0.2934333403
v -0.09319525421 -0.01980000019 0.2986289386
v -0.09765710673 -0.01980000019 0.3048620507
v -0.1007582867 -0.01980000019 0.3118722238
v -0.1007582867 -0.01820000052 0.3118722238
v -0.09765710673 -0.01820000052 0.3048620507
v -0.09319525421 -0.01820000052 0.2986289386
v -0.0875591634 -0.01820000052 0.2934333403
v -0.08098432547 -0.01820000052 0.2894923452
v -0.07374548953 -0.01820000052 0.2869706332
v -0.06614511832 -0.01820000052 0.2859735705
v -0.09258728123 -0.01980000019 0.3334749785
v -0.07973155422 -0.01980000019 0.3487958934
v -0.07973155422 -0.02480000019 0.3487958934
v -0.09258728123 -0.02480000019 0.3334749785
v -0.06506545978 -0.01980000019 0.3598572919
v -0.06495866351 -0.01980000019 0.3604015826
v -0.06457822923 -0.01980000019 0.3608052354
v -0.0640412107 -0.01980000019 0.3609440532
v -0.0640412107 -0.01820000052 0.3609440532
v -0.06457822923 -0.01820000052 0.3608052354
v -0.06495866351 -0.01820000052 0.3604015826
v -0.06506545978 -0.01820000052 0.3598572919
v -0.03910149129 -0.01820000052 0.2964276671
v -0.04161875888 -0.01820000052 0.2985398987
v -0.04161875888 -0.01980000019 0.2985398987
v -0.03910149129 -0.01980000019 0.2964276671
v -0.03327804223 -0.01820000052 0.3255464107
v -0.03404004755 -0.01820000052 0.3244495123
v -0.03532261248 -0.01820000052 0.3240768618
v -0.03655376402 -0.01820000052 0.3245946475
v -0.03718445952 -0.01820000052 0.3257719621
v -0.03693343329 -0.01820000052 0.3270837654
v -0.03591263373 -0.01820000052 0.3279450448
v -0.03457729423 -0.01820000052 0.3279717071
v -0.03352292477 -0.01820000052 0.3271518638
v -0.03339889188 -0.01820000052 0.326927679
v -0.03339889188 -0.01825000048 0.326927679
v -0.03480931615 -0.01825000048 0.3280335334
v -0.03653936875 -0.01825000048 0.327565405
v -0.03719971615 -0.01825000048 0.3258992204
v -0.03626006532 -0.01825000048 0.3243730237
v -0.03447500845 -0.01825000048 0.3242124328
v -0.03327804223 -0.01825000048 0.3255464107
v -0.05646993823 -0.01980000019 0.2905179601
v -0.06127911961 -0.01980000019 0.2916995779
v -0.06127911961 -0.01820000052 0.2916995779
v -0.05646993823 -0.01820000052 0.2905179601
v -0.07667975254 -0.01820000052 0.3591239341
v -0.0804918723 -0.01820000052 0.3576513493
v -0.08412110523 -0.01820000052 0.3557726999
v -0.08752437389 -0.01820000052 0.3535102828
v -0.08752437389 -0.01980000019 0.3535102828
v -0.08713711586 -0.01980000019 0.3537954989
v -0.08674622432 -0.01980000019 0.3540757177
v -0.08635178511 -0.01980000019 0.3543509011
v -0.0832860593 -0.01980000019 0.3562501012
v -0.0800520762 -0.01980000019 0.3578460332
v -0.07667975254 -0.01980000019 0.3591239341
v -0.02869468691 -0.01980000019 0.3234311071
v -0.0281503938 -0.01980000019 0.3233243109
v -0.02774674332 -0.01980000019 0.3229438814
v -0.02760792078 -0.01980000019 0.3224068581
v -0.02760792078 -0.01820000052 0.3224068581
v -0.02774674332 -0.01820000052 0.3229438814
v -0.0281503938 -0.01820000052 0.3233243109
v -0.02869468691 -0.01820000052 0.3234311071
v -0.07537724177 -0.01980000019 0.3582863814
v -0.07510161411 -0.01980000019 0.3574446404
v -0.07451637639 -0.01980000019 0.3567798159
v -0.07371639079 -0.01980000019 0.3563996637
v -0.07371639079 -0.01820000052 0.3563996637
v -0.07451637639 -0.01820000052 0.3567798159
v -0.07510161411 -0.01820000052 0.3574446404
v -0.07537724177 -0.01820000052 0.3582863814
v -0.09992073407 -0.01980000019 0.3131747346
v -0.09907899299 -0.01980000019 0.3134503623
v -0.09841416858 -0.01980000019 0.3140356
v -0.09803401633 -0.01980000019 0.3148355856
v -0.09803401633 -0.01820000052 0.3148355856
v -0.09841416858 -0.01820000052 0.3140356
v -0.09907899299 -0.01820000052 0.3134503623
v -0.09992073407 -0.01820000052 0.3131747346
v -0.09920750735 -0.01980000019 0.3390299862
v -0.09258728123 -0.01980000019 0.3334749785
v -0.09258728123 -0.02480000019 0.3334749785
v -0.09948168912 -0.02480000019 0.3392600597
v -0.09948168912 -0.01980000019 0.3392600597
v -0.08635178511 -0.01980000019 0.3543509011
v -0.08662596688 -0.01980000019 0.354580965
v -0.08662596688 -0.02480000019 0.354580965
v -0.07973155422 -0.02480000019 0.3487958934
v -0.07973155422 -0.01980000019 0.3487958934
v -0.0640412107 -0.01980000019 0.3609440532
v -0.0564408395 -0.01980000019 0.3599469905
v -0.04920199878 -0.01980000019 0.3574252785
v -0.0426271704 -0.01980000019 0.3534842882
v -0.03699107481 -0.01980000019 0.3482886899
v -0.03252921991 -0.01980000019 0.3420555778
v -0.02942804231 -0.01980000019 0.3350453999
v -0.02942804231 -0.01820000052 0.3350453999
v -0.03252921991 -0.01820000052 0.3420555778
v -0.03699107481 -0.01820000052 0.3482886899
v -0.0426271704 -0.01820000052 0.3534842882
v -0.04920199878 -0.01820000052 0.3574252785
v -0.0564408395 -0.01820000052 0.3599469905
v -0.0640412107 -0.01820000052 0.3609440532
v -0.08752437389 -0.01820000052 0.3535102828
v -0.09858328211 -0.01820000052 0.3403307419
v -0.09858328211 -0.01980000019 0.3403307419
v -0.09948168912 -0.01980000019 0.3392600597
v -0.09948168912 -0.02480000019 0.3392600597
v -0.08662596688 -0.02480000019 0.354580965
v -0.08662596688 -0.01980000019 0.354580965
v -0.08752437389 -0.01980000019 0.3535102828
v -0.100238879 -0.01980000019 0.3235961246
v -0.1014916445 -0.01980000019 0.3234865166
v -0.1014916445 -0.01820000052 0.3234865166
v -0.100238879 -0.01820000052 0.3235961246
v -0.1025784059 -0.01980000019 0.3245107657
v -0.1021055733 -0.01980000019 0.3294864097
v -0.1009752394 -0.01980000019 0.3343549763
v -0.09920750735 -0.01980000019 0.3390299862
v -0.09900499537 -0.01980000019 0.3394662258
v -0.09879691394 -0.01980000019 0.3398998333
v -0.09858328211 -0.01980000019 0.3403307419
v -0.09858328211 -0.01820000052 0.3403307419
v -0.1006839698 -0.01820000052 0.3352717057
v -0.1020252176 -0.01820000052 0.3299606005
v -0.1025784059 -0.01820000052 0.3245107657
v -0.09803401633 -0.01980000019 0.3148355856
v -0.09685240321 -0.01980000019 0.319644767
v -0.09685240321 -0.01820000052 0.319644767
v -0.09803401633 -0.01820000052 0.3148355856
v -0.03026559496 -0.01980000019 0.3337428891
v -0.03110733365 -0.01980000019 0.3334672662
v -0.03177216045 -0.01980000019 0.3328820237
v -0.0321523127 -0.01980000019 0.3320820429
v -0.0321523127 -0.01820000052 0.3320820429
v -0.03177216045 -0.01820000052 0.3328820237
v -0.03110733365 -0.01820000052 0.3334672662
v -0.03026559496 -0.01820000052 0.3337428891
v -0.02760792078 -0.01980000019 0.3224068581
v -0.02846288471 -0.01980000019 0.315429327
v -0.03060507104 -0.01980000019 0.3087339574
v -0.03395920191 -0.01980000019 0.3025560302
v -0.03395920191 -0.01820000052 0.3025560302
v -0.03060507104 -0.01820000052 0.3087339574
v -0.02846288471 -0.01820000052 0.315429327
v -0.02760792078 -0.01820000052 0.3224068581
v -0.05350657171 -0.01820000052 0.2877936897
v -0.04828816975 -0.01820000052 0.2899350577
v -0.04344998476 -0.01820000052 0.2928349204
v -0.03910149129 -0.01820000052 0.2964276671
v -0.03910149129 -0.01980000019 0.2964276671
v -0.04344998476 -0.01980000019 0.2928349204
v -0.04828816975 -0.01980000019 0.2899350577
v -0.05350657171 -0.01980000019 0.2877936897
v -0.07667975254 -0.01980000019 0.3591239341
v -0.07609801123 -0.01980000019 0.3591349405
v -0.07560861363 -0.01980000019 0.3588202479
v -0.07537724177 -0.01980000019 0.3582863814
v -0.07537724177 -0.01820000052 0.3582863814
v -0.07560861363 -0.01820000052 0.3588202479
v -0.07609801123 -0.01820000052 0.3591349405
v -0.07667975254 -0.01820000052 0.3591239341
v -0.09948168912 -0.02480000019 0.3392600597
v -0.09258728123 -0.02480000019 0.3334749785
v -0.07973155422 -0.02480000019 0.3487958934
v -0.08662596688 -0.02480000019 0.354580965
v -0.02942804231 -0.01980000019 0.3350453999
v -0.02941703112 -0.01980000019 0.3344636586
v -0.02973172848 -0.01980000019 0.333974261
v -0.03026559496 -0.01980000019 0.3337428891
v -0.03026559496 -0.01820000052 0.3337428891
v -0.02973172848 -0.01820000052 0.333974261
v -0.02941703112 -0.01820000052 0.3344636586
v -0.02942804231 -0.01820000052 0.3350453999
v -0.08662596688 -0.01980000019 0.354580965
v -0.08635178511 -0.01980000019 0.3543509011
v -0.08674622432 -0.01980000019 0.3540757177
v -0.08713711586 -0.01980000019 0.3537954989
v -0.08752437389 -0.01980000019 0.3535102828
v -0.05480908726 -0.01980000019 0.2886312423
v -0.05508471492 -0.01980000019 0.289472981
v -0.05566995264 -0.01980000019 0.2901378078
v -0.05646993823 -0.01980000019 0.2905179601
v -0.05646993823 -0.01820000052 0.2905179601
v -0.05566995264 -0.01820000052 0.2901378078
v -0.05508471492 -0.01820000052 0.289472981
v -0.05480908726 -0.01820000052 0.2886312423
v -0.05350657171 -0.01980000019 0.2877936897
v -0.0540883178 -0.01980000019 0.2877826809
v -0.0545777154 -0.01980000019 0.2880973782
v -0.05480908726 -0.01980000019 0.2886312423
v -0.05480908726 -0.01820000052 0.2886312423
v -0.0545777154 -0.01820000052 0.2880973782
v -0.0540883178 -0.01820000052 0.2877826809
v -0.05350657171 -0.01820000052 0.2877936897
v -0.09948168912 -0.01980000019 0.3392600597
v -0.09858328211 -0.01980000019 0.3403307419
v -0.09879691394 -0.01980000019 0.3398998333
v -0.09900499537 -0.01980000019 0.3394662258
v -0.09920750735 -0.01980000019 0.3390299862
f 2 3 1
f 1 3 8
f 1 8 10
f 10 8 9
f 3 4 8
f 8 4 7
f 7 4 6
f 6 4 5
f 1 10 24
f 24 10 11
f 24 11 23
f 23 11 12
f 23 12 22
f 22 12 13
f 22 13 20
f 20 13 15
f 20 15 19
f 19 15 16
f 19 16 18
f 18 16 17
f 13 14 15
f 20 21 22
f 41 25 40
f 40 25 26
f 40 26 39
f 39 26 27
f 39 27 38
f 38 27 28
f 38 28 37
f 37 28 36
f 36 28 29
f 36 29 35
f 35 29 30
f 35 30 34
f 34 30 33
f 33 30 31
f 33 31 32
f 58 42 57
f 57 42 43
f 57 43 56
f 56 43 44
f 56 44 55
f 55 44 45
f 55 45 54
f 54 45 53
f 53 45 46
f 53 46 52
f 52 46 47
f 52 47 51
f 51 47 50
f 50 47 48
f 50 48 49
f 75 59 74
f 74 59 60
f 74 60 73
f 73 60 61
f 73 61 72
f 72 61 62
f 72 62 71
f 71 62 70
f 70 62 63
f 70 63 69
f 69 63 64
f 69 64 68
f 68 64 67
f 67 64 65
f 67 65 66
f 92 76 91
f 91 76 77
f 91 77 90
f 90 77 89
f 89 77 78
f 89 78 88
f 88 78 79
f 88 79 87
f 87 79 86
f 86 79 80
f 86 80 85
f 85 80 81
f 85 81 84
f 84 81 82
f 84 82 83
f 109 93 108
f 108 93 94
f 108 94 107
f 107 94 106
f 106 94 95
f 106 95 105
f 105 95 96
f 105 96 104
f 104 96 103
f 103 96 97
f 103 97 102
f 102 97 98
f 102 98 101
f 101 98 99
f 101 99 100
f 126 110 125
f 125 110 111
f 125 111 124
f 124 111 123
f 123 111 112
f 123 112 122
f 122 112 113
f 122 113 121
f 121 113 120
f 120 113 114
f 120 114 119
f 119 114 115
f 119 115 118
f 118 115 116
f 118 116 117
f 135 127 138
f 138 127 128
f 138 128 137
f 137 128 129
f 137 129 130
f 130 131 137
f 137 131 136
f 136 131 132
f 136 132 140
f 140 132 133
f 140 133 139
f 139 133 134
f 139 134 135
f 139 135 138
f 148 141 147
f 147 141 142
f 147 142 143
f 144 145 143
f 143 145 146
f 143 146 147
f 157 149 161
f 161 149 150
f 161 150 151
f 161 151 160
f 160 151 152
f 160 152 153
f 160 153 159
f 159 153 154
f 159 154 158
f 158 154 155
f 158 155 156
f 158 156 162
f 162 156 157
f 162 157 161
f 164 165 163
f 163 165 170
f 163 170 172
f 172 170 171
f 165 166 170
f 170 166 169
f 169 166 168
f 168 166 167
f 163 172 186
f 186 172 173
f 186 173 185
f 185 173 174
f 185 174 184
f 184 174 175
f 184 175 182
f 182 175 177
f 182 177 181
f 181 177 178
f 181 178 180
f 180 178 179
f 175 176 177
f 182 183 184
f 187 188 203
f 203 188 189
f 203 189 202
f 202 189 190
f 202 190 201
f 201 190 191
f 201 191 200
f 200 191 199
f 199 191 192
f 199 192 198
f 198 192 193
f 198 193 197
f 197 193 196
f 196 193 194
f 196 194 195
f 211 204 210
f 210 204 205
f 210 205 206
f 207 208 206
f 206 208 209
f 206 209 210
f 220 212 225
f 225 212 213
f 225 213 214
f 225 214 224
f 224 214 215
f 224 215 216
f 224 216 223
f 223 216 217
f 223 217 218
f 223 218 222
f 222 218 219
f 222 219 221
f 221 219 220
f 221 220 225
f 227 240 226
f 226 240 241
f 226 241 248
f 248 241 243
f 248 243 244
f 240 227 239
f 239 227 228
f 239 228 238
f 238 228 229
f 238 229 236
f 236 229 231
f 236 231 235
f 235 231 232
f 235 232 234
f 234 232 233
f 229 230 231
f 236 237 238
f 241 242 243
f 245 246 244
f 244 246 247
f 244 247 248
f 248 249 226
f 251 365 250
f 250 365 366
f 250 366 367
f 252 253 251
f 251 253 254
f 251 254 260
f 260 254 259
f 259 254 255
f 259 255 258
f 258 255 257
f 257 255 256
f 261 263 260
f 260 263 264
f 260 264 251
f 251 264 265
f 251 265 266
f 261 262 263
f 267 298 266
f 266 298 333
f 266 333 365
f 365 333 334
f 365 334 364
f 364 334 351
f 364 351 352
f 268 282 267
f 267 282 283
f 267 283 284
f 282 268 275
f 275 268 269
f 275 269 274
f 274 269 270
f 274 270 273
f 273 270 272
f 272 270 271
f 275 276 282
f 282 276 277
f 282 277 281
f 281 277 278
f 281 278 279
f 279 280 281
f 267 284 297
f 297 284 285
f 297 285 296
f 296 285 286
f 296 286 292
f 292 286 291
f 291 286 287
f 291 287 290
f 290 287 289
f 289 287 288
f 296 292 295
f 295 292 293
f 295 293 294
f 297 298 267
f 298 299 333
f 333 299 332
f 332 299 318
f 332 318 331
f 331 318 320
f 331 320 321
f 318 299 317
f 317 299 300
f 317 300 307
f 307 300 301
f 307 301 306
f 306 301 302
f 306 302 305
f 305 302 304
f 304 302 303
f 307 308 317
f 317 308 314
f 317 314 315
f 308 309 314
f 314 309 313
f 313 309 310
f 313 310 311
f 311 312 313
f 315 316 317
f 318 319 320
f 322 326 321
f 321 326 327
f 321 327 331
f 331 327 330
f 330 327 328
f 330 328 329
f 323 324 322
f 322 324 325
f 322 325 326
f 335 349 334
f 334 349 350
f 334 350 351
f 349 335 342
f 342 335 336
f 342 336 341
f 341 336 337
f 341 337 340
f 340 337 339
f 339 337 338
f 342 343 349
f 349 343 344
f 349 344 348
f 348 344 345
f 348 345 347
f 347 345 346
f 364 352 363
f 363 352 353
f 363 353 359
f 359 353 358
f 358 353 354
f 358 354 357
f 357 354 356
f 356 354 355
f 363 359 362
f 362 359 360
f 362 360 361
f 250 367 374
f 374 367 368
f 374 368 373
f 373 368 369
f 373 369 372
f 372 369 371
f 371 369 370
f 374 375 250
f 250 375 381
f 250 381 382
f 375 376 381
f 381 376 380
f 380 376 377
f 380 377 378
f 378 379 380
f 382 383 250
f 365 251 266
f 385 386 384
f 384 386 391
f 384 391 393
f 393 391 392
f 386 387 391
f 391 387 390
f 390 387 389
f 389 387 388
f 384 393 407
f 407 393 394
f 407 394 406
f 406 394 395
f 406 395 405
f 405 395 396
f 405 396 403
f 403 396 398
f 403 398 402
f 402 398 399
f 402 399 401
f 401 399 400
f 396 397 398
f 403 404 405
f 409 417 408
f 408 417 418
f 408 418 416
f 416 418 415
f 415 418 419
f 415 419 414
f 414 419 420
f 414 420 413
f 413 420 421
f 413 421 412
f 412 421 411
f 411 421 417
f 411 417 410
f 410 417 409
f 423 427 422
f 422 427 428
f 422 428 426
f 426 428 432
f 426 432 425
f 433 429 430
f 433 430 424
f 424 430 431
f 424 431 423
f 423 431 427
f 435 443 434
f 434 443 444
f 434 444 442
f 442 444 441
f 441 444 445
f 441 445 440
f 440 445 446
f 440 446 439
f 439 446 447
f 439 447 438
f 438 447 437
f 437 447 443
f 437 443 436
f 436 443 435
f 449 453 448
f 448 453 454
f 448 454 452
f 452 454 458
f 452 458 451
f 459 455 456
f 459 456 450
f 450 456 457
f 450 457 449
f 449 457 453
f 460 461 463
f 463 461 462
f 465 482 464
f 464 482 583
f 464 583 595
f 595 583 584
f 595 584 594
f 594 584 588
f 594 588 589
f 482 465 481
f 481 465 466
f 481 466 474
f 474 466 473
f 473 466 467
f 473 467 472
f 472 467 468
f 472 468 471
f 471 468 470
f 470 468 469
f 481 474 480
f 480 474 475
f 480 475 479
f 479 475 476
f 479 476 477
f 477 478 479
f 583 482 582
f 582 482 483
f 582 483 515
f 515 483 514
f 514 483 484
f 514 484 497
f 497 484 496
f 496 484 485
f 496 485 495
f 495 485 489
f 495 489 490
f 485 486 489
f 489 486 488
f 488 486 487
f 495 490 494
f 494 490 491
f 494 491 492
f 492 493 494
f 497 498 514
f 514 498 499
f 514 499 513
f 513 499 506
f 513 506 512
f 512 506 507
f 512 507 511
f 511 507 508
f 511 508 509
f 500 504 499
f 499 504 505
f 499 505 506
f 504 500 503
f 503 500 501
f 503 501 502
f 509 510 511
f 516 549 515
f 515 549 550
f 515 550 582
f 582 550 581
f 581 550 551
f 581 551 564
f 564 551 563
f 563 551 552
f 563 552 562
f 562 552 556
f 562 556 557
f 549 516 530
f 530 516 517
f 530 517 528
f 528 517 527
f 527 517 521
f 527 521 522
f 517 518 521
f 521 518 520
f 520 518 519
f 527 522 526
f 526 522 523
f 526 523 524
f 524 525 526
f 528 529 530
f 530 531 549
f 549 531 548
f 548 531 541
f 548 541 547
f 547 541 542
f 547 542 546
f 546 542 543
f 546 543 544
f 532 533 531
f 531 533 534
f 531 534 540
f 540 534 539
f 539 534 535
f 539 535 538
f 538 535 537
f 537 535 536
f 540 541 531
f 544 545 546
f 552 553 556
f 556 553 555
f 555 553 554
f 562 557 561
f 561 557 558
f 561 558 559
f 559 560 561
f 564 565 581
f 581 565 566
f 581 566 580
f 580 566 573
f 580 573 579
f 579 573 574
f 579 574 578
f 578 574 575
f 578 575 576
f 567 571 566
f 566 571 572
f 566 572 573
f 568 569 567
f 567 569 570
f 567 570 571
f 576 577 578
f 584 585 588
f 588 585 587
f 587 585 586
f 594 589 593
f 593 589 590
f 593 590 592
f 592 590 591
f 596 597 599
f 599 597 598
f 608 600 613
f 613 600 601
f 613 601 602
f 613 602 612
f 612 602 603
f 612 603 604
f 612 604 611
f 611 604 605
f 611 605 606
f 611 606 610
f 610 606 607
f 610 607 609
f 609 607 608
f 609 608 613
f 615 619 614
f 614 619 620
f 614 620 618
f 618 620 624
f 618 624 617
f 625 621 622
f 625 622 616
f 616 622 623
f 616 623 615
f 615 623 619
f 633 626 632
f 632 626 627
f 632 627 628
f 629 630 628
f 628 630 631
f 628 631 632
f 634 635 637
f 637 635 636
f 638 639 641
f 641 639 640
f 642 643 645
f 645 643 644
f 654 646 657
f 657 646 647
f 657 647 656
f 656 647 648
f 656 648 649
f 649 650 656
f 656 650 655
f 655 650 651
f 655 651 659
f 659 651 652
f 659 652 658
f 658 652 653
f 658 653 654
f 658 654 657
f 660 661 663
f 663 661 662
f 665 669 664
f 664 669 670
f 664 670 668
f 668 670 674
f 668 674 667
f 675 671 672
f 675 672 666
f 666 672 673
f 666 673 665
f 665 673 669
f 684 676 688
f 688 676 677
f 688 677 678
f 688 678 687
f 687 678 679
f 687 679 680
f 687 680 686
f 686 680 681
f 686 681 685
f 685 681 682
f 685 682 683
f 685 683 689
f 689 683 684
f 689 684 688
f 690 691 693
f 693 691 692
f 707 694 706
f 706 694 695
f 706 695 705
f 705 695 696
f 705 696 704
f 704 696 697
f 704 697 703
f 703 697 698
f 703 698 702
f 702 698 699
f 702 699 701
f 701 699 700
f 708 709 711
f 711 709 710
f 719 712 718
f 718 712 713
f 718 713 714
f 715 716 714
f 714 716 717
f 714 717 718
f 720 721 723
f 723 721 722
f 724 725 740
f 740 725 739
f 739 725 726
f 739 726 738
f 738 726 727
f 738 727 737
f 737 727 728
f 737 728 729
f 737 729 736
f 736 729 730
f 736 730 735
f 735 730 731
f 735 731 732
f 733 734 732
f 732 734 735
f 741 742 744
f 744 742 743
f 755 745 754
f 754 745 746
f 754 746 753
f 753 746 747
f 753 747 752
f 752 747 748
f 752 748 751
f 751 748 750
f 750 748 749
f 763 756 762
f 762 756 757
f 762 757 758
f 759 760 758
f 758 760 761
f 758 761 762
f 771 764 770
f 770 764 765
f 770 765 766
f 767 768 766
f 766 768 769
f 766 769 770
f 779 772 778
f 778 772 773
f 778 773 774
f 775 776 774
f 774 776 777
f 774 777 778
f 781 782 780
f 780 782 783
f 780 783 784
f 786 787 785
f 785 787 788
f 785 788 789
f 803 790 802
f 802 790 791
f 802 791 801
f 801 791 792
f 801 792 800
f 800 792 793
f 800 793 799
f 799 793 794
f 799 794 798
f 798 794 795
f 798 795 797
f 797 795 796
f 804 805 811
f 811 805 806
f 811 806 809
f 809 806 808
f 808 806 807
f 809 810 811
f 812 813 815
f 815 813 814
f 816 817 826
f 826 817 825
f 825 817 818
f 825 818 824
f 824 818 819
f 824 819 823
f 823 819 820
f 823 820 821
f 821 822 823
f 827 828 830
f 830 828 829
f 838 831 837
f 837 831 832
f 837 832 833
f 834 835 833
f 833 835 836
f 833 836 837
f 846 839 845
f 845 839 840
f 845 840 844
f 844 840 841
f 844 841 843
f 843 841 842
f 854 847 853
f 853 847 848
f 853 848 849
f 850 851 849
f 849 851 852
f 849 852 853
f 862 855 861
f 861 855 856
f 861 856 857
f 858 859 857
f 857 859 860
f 857 860 861
f 864 865 863
f 863 865 866
f 874 867 873
f 873 867 868
f 873 868 869
f 870 871 869
f 869 871 872
f 869 872 873
f 876 877 875
f 875 877 878
f 875 878 879
f 887 880 886
f 886 880 881
f 886 881 882
f 883 884 882
f 882 884 885
f 882 885 886
f 895 888 894
f 894 888 889
f 894 889 890
f 891 892 890
f 890 892 893
f 890 893 894
f 897 898 896
f 896 898 899
f 896 899 900
