v -2.040787719e-13 0.075 0.4013767511
v 0.005716814399 0.075 0.4022822076
v 0.01087402701 0.075 0.4049099332
v 0.01496681452 0.075 0.4090027219
v 0.01759454608 0.075 0.4141599352
v 0.01850000024 0.075 0.4198767549
v 0.01759454608 0.075 0.4255935747
v 0.01496681452 0.075 0.4307507784
v 0.01087402701 0.075 0.4348435671
v 0.005716814399 0.075 0.4374713022
v 2.040563796e-13 0.075 0.4383767587
v -0.005716814399 0.075 0.4374713022
v -0.01087402701 0.075 0.4348435671
v -0.01496681452 0.075 0.4307507784
v -0.01759454608 0.075 0.4255935747
v -0.01850000024 0.075 0.4198767549
v -0.01759454608 0.075 0.4141599352
v -0.01496681452 0.075 0.4090027219
v -0.01087402701 0.075 0.4049099332
v -0.005716814399 0.075 0.4022822076
v 1.963325059e-13 0.075 0.4376767427
v 0.005779650808 0.075 0.4367122919
v 0.01093298674 0.075 0.4339234621
v 0.01490156293 0.075 0.4296124345
v 0.01725532532 0.075 0.4242463953
v 0.01773920417 0.075 0.4184068376
v 0.01630076528 0.075 0.4127265817
v 0.01309588552 0.075 0.4078211385
v 0.008471863866 0.075 0.4042221147
v 0.002929783761 0.075 0.4023195249
v -0.002929783762 0.075 0.4023195249
v -0.008471863866 0.075 0.4042221147
v -0.01309588552 0.075 0.4078211385
v -0.01630076528 0.075 0.4127265817
v -0.01773920417 0.075 0.4184068376
v -0.01725532532 0.075 0.4242463953
v -0.01490156293 0.075 0.4296124345
v -0.01093298674 0.075 0.4339234621
v -0.005779650807 0.075 0.4367122919
v -2.559226978e-13 0.075 0.3966767484
v 0.006536195278 0.075 0.3976165182
v 0.01254286647 0.075 0.400359667
v 0.01753339052 0.075 0.4046839792
v 0.02110346317 0.075 0.4102391225
v 0.02296385765 0.075 0.4165750391
v 0.02296385765 0.075 0.4231784517
v 0.02110346317 0.075 0.4295143778
v 0.01753339052 0.075 0.4350695306
v 0.01254286647 0.075 0.4393938333
v 0.006536195278 0.075 0.4421369821
v 2.559007759e-13 0.075 0.4430767519
v -0.006536195278 0.075 0.4421369821
v -0.01254286647 0.075 0.4393938333
v -0.01753339052 0.075 0.4350695306
v -0.02110346317 0.075 0.4295143778
v -0.02296385765 0.075 0.4231784517
v -0.02296385765 0.075 0.4165750391
v -0.02110346317 0.075 0.4102391225
v -0.01753339052 0.075 0.4046839792
v -0.01254286647 0.075 0.400359667
v -0.006536195278 0.075 0.3976165182
v -2.482011949e-13 0.075 0.3973767549
v -0.006338982582 0.075 0.3982881624
v -0.0121644187 0.075 0.4009485513
v -0.01700436592 0.075 0.4051423818
v -0.02046672106 0.075 0.4105299074
v -0.02227098227 0.075 0.4166746599
v -0.02227098227 0.075 0.4230788309
v -0.02046672106 0.075 0.4292235834
v -0.01700436592 0.075 0.4346111185
v -0.0121644187 0.075 0.4388049585
v -0.006338982582 0.075 0.4414653474
v 2.48176537e-13 0.075 0.4423767549
v 0.006338982582 0.075 0.4414653474
v 0.0121644187 0.075 0.4388049585
v 0.01700436592 0.075 0.4346111185
v 0.02046672106 0.075 0.4292235834
v 0.02227098227 0.075 0.4230788309
v 0.02227098227 0.075 0.4166746599
v 0.02046672106 0.075 0.4105299074
v 0.01700436592 0.075 0.4051423818
v 0.0121644187 0.075 0.4009485513
v 0.006338982582 0.075 0.3982881624
v -2.040787719e-13 0.075 0.4013767511
v -0.005716814399 0.075 0.4022822076
v -0.01087402701 0.075 0.4049099332
v -0.01496681452 0.075 0.4090027219
v -0.01759454608 0.075 0.4141599352
v -0.01850000024 0.075 0.4198767549
v -0.01759454608 0.075 0.4255935747
v -0.01496681452 0.075 0.4307507784
v -0.01087402701 0.075 0.4348435671
v -0.005716814399 0.075 0.4374713022
v 2.040563796e-13 0.075 0.4383767587
v 0.005716814399 0.075 0.4374713022
v 0.01087402701 0.075 0.4348435671
v 0.01496681452 0.075 0.4307507784
v 0.01759454608 0.075 0.4255935747
v 0.01850000024 0.075 0.4198767549
v 0.01759454608 0.075 0.4141599352
v 0.01496681452 0.075 0.4090027219
v 0.01087402701 0.075 0.4049099332
v 0.005716814399 0.075 0.4022822076
v -2.040788331e-13 0.07550000191 0.4013767511
v 0.005716814399 0.07550000191 0.4022822076
v 0.01087402701 0.07550000191 0.4049099332
v 0.01496681452 0.07550000191 0.4090027219
v 0.01759454608 0.07550000191 0.4141599352
v 0.01850000024 0.07550000191 0.4198767549
v 0.01759454608 0.07550000191 0.4255935747
v 0.01496681452 0.07550000191 0.4307507784
v 0.01087402701 0.07550000191 0.4348435671
v 0.005716814399 0.07550000191 0.4374713022
v 2.040517872e-13 0.07550000191 0.4383767587
v -0.005716814399 0.07550000191 0.4374713022
v -0.01087402701 0.07550000191 0.4348435671
v -0.01496681452 0.07550000191 0.4307507784
v -0.01759454608 0.07550000191 0.4255935747
v -0.01850000024 0.07550000191 0.4198767549
v -0.01759454608 0.07550000191 0.4141599352
v -0.01496681452 0.07550000191 0.4090027219
v -0.01087402701 0.07550000191 0.4049099332
v -0.005716814399 0.07550000191 0.4022822076
v 2.040517872e-13 0.07550000191 0.4383767587
v 2.040563796e-13 0.075 0.4383767587
v -2.482012561e-13 0.07550000191 0.3973767549
v 0.006338982582 0.07550000191 0.3982881624
v 0.0121644187 0.07550000191 0.4009485513
v 0.01700436592 0.07550000191 0.4051423818
v 0.02046672106 0.07550000191 0.4105299074
v 0.02227098227 0.07550000191 0.4166746599
v 0.02227098227 0.07550000191 0.4230788309
v 0.02046672106 0.07550000191 0.4292235834
v 0.01700436592 0.07550000191 0.4346111185
v 0.0121644187 0.07550000191 0.4388049585
v 0.006338982582 0.07550000191 0.4414653474
v 2.481764758e-13 0.07550000191 0.4423767549
v -0.006338982582 0.07550000191 0.4414653474
v -0.0121644187 0.07550000191 0.4388049585
v -0.01700436592 0.07550000191 0.4346111185
v -0.02046672106 0.07550000191 0.4292235834
v -0.02227098227 0.07550000191 0.4230788309
v -0.02227098227 0.07550000191 0.4166746599
v -0.02046672106 0.07550000191 0.4105299074
v -0.01700436592 0.07550000191 0.4051423818
v -0.0121644187 0.07550000191 0.4009485513
v -0.006338982582 0.07550000191 0.3982881624
v -2.040788331e-13 0.07550000191 0.4013767511
v -0.005716814399 0.07550000191 0.4022822076
v -0.01087402701 0.07550000191 0.4049099332
v -0.01496681452 0.07550000191 0.4090027219
v -0.01759454608 0.07550000191 0.4141599352
v -0.01850000024 0.07550000191 0.4198767549
v -0.01759454608 0.07550000191 0.4255935747
v -0.01496681452 0.07550000191 0.4307507784
v -0.01087402701 0.07550000191 0.4348435671
v -0.005716814399 0.07550000191 0.4374713022
v 2.040517872e-13 0.07550000191 0.4383767587
v 0.005716814399 0.07550000191 0.4374713022
v 0.01087402701 0.07550000191 0.4348435671
v 0.01496681452 0.07550000191 0.4307507784
v 0.01759454608 0.07550000191 0.4255935747
v 0.01850000024 0.07550000191 0.4198767549
v 0.01759454608 0.07550000191 0.4141599352
v 0.01496681452 0.07550000191 0.4090027219
v 0.01087402701 0.07550000191 0.4049099332
v 0.005716814399 0.07550000191 0.4022822076
v -2.482011949e-13 0.075 0.3973767549
v 0.006338982582 0.075 0.3982881624
v 0.0121644187 0.075 0.4009485513
v 0.01700436592 0.075 0.4051423818
v 0.02046672106 0.075 0.4105299074
v 0.02227098227 0.075 0.4166746599
v 0.02227098227 0.075 0.4230788309
v 0.02046672106 0.075 0.4292235834
v 0.01700436592 0.075 0.4346111185
v 0.0121644187 0.075 0.4388049585
v 0.006338982582 0.075 0.4414653474
v 2.48176537e-13 0.075 0.4423767549
v -0.006338982582 0.075 0.4414653474
v -0.0121644187 0.075 0.4388049585
v -0.01700436592 0.075 0.4346111185
v -0.02046672106 0.075 0.4292235834
v -0.02227098227 0.075 0.4230788309
v -0.02227098227 0.075 0.4166746599
v -0.02046672106 0.075 0.4105299074
v -0.01700436592 0.075 0.4051423818
v -0.0121644187 0.075 0.4009485513
v -0.006338982582 0.075 0.3982881624
v -2.482012561e-13 0.07550000191 0.3973767549
v -0.006338982582 0.07550000191 0.3982881624
v -0.0121644187 0.07550000191 0.4009485513
v -0.01700436592 0.07550000191 0.4051423818
v -0.02046672106 0.07550000191 0.4105299074
v -0.02227098227 0.07550000191 0.4166746599
v -0.02227098227 0.07550000191 0.4230788309
v -0.02046672106 0.07550000191 0.4292235834
v -0.01700436592 0.07550000191 0.4346111185
v -0.0121644187 0.07550000191 0.4388049585
v -0.006338982582 0.07550000191 0.4414653474
v 2.481764758e-13 0.07550000191 0.4423767549
v 0.006338982582 0.07550000191 0.4414653474
v 0.0121644187 0.07550000191 0.4388049585
v 0.01700436592 0.07550000191 0.4346111185
v 0.02046672106 0.07550000191 0.4292235834
v 0.02227098227 0.07550000191 0.4230788309
v 0.02227098227 0.07550000191 0.4166746599
v 0.02046672106 0.07550000191 0.4105299074
v 0.01700436592 0.07550000191 0.4051423818
v 0.0121644187 0.07550000191 0.4009485513
v 0.006338982582 0.07550000191 0.3982881624
v 2.48176537e-13 0.075 0.4423767549
v 2.481764758e-13 0.07550000191 0.4423767549
v -2.559226978e-13 0.075 0.3966767484
v -0.006536195278 0.075 0.3976165182
v -0.01254286647 0.075 0.400359667
v -0.01753339052 0.075 0.4046839792
v -0.02110346317 0.075 0.4102391225
v -0.02296385765 0.075 0.4165750391
v -0.02296385765 0.075 0.4231784517
v -0.02110346317 0.075 0.4295143778
v -0.01753339052 0.075 0.4350695306
v -0.01254286647 0.075 0.4393938333
v -0.006536195278 0.075 0.4421369821
v 2.559007759e-13 0.075 0.4430767519
v 0.006536195278 0.075 0.4421369821
v 0.01254286647 0.075 0.4393938333
v 0.01753339052 0.075 0.4350695306
v 0.02110346317 0.075 0.4295143778
v 0.02296385765 0.075 0.4231784517
v 0.02296385765 0.075 0.4165750391
v 0.02110346317 0.075 0.4102391225
v 0.01753339052 0.075 0.4046839792
v 0.01254286647 0.075 0.400359667
v 0.006536195278 0.075 0.3976165182
v -2.592318899e-13 0.0753000021 0.3963767511
v 0.00662071526 0.0753000021 0.3973286707
v 0.01270505905 0.0753000021 0.4001072961
v 0.01776011467 0.0753000021 0.4044875223
v 0.02137635231 0.0753000021 0.4101144964
v 0.02326080322 0.0753000021 0.4165323526
v 0.02326080322 0.0753000021 0.4232211572
v 0.02137635231 0.0753000021 0.4296390039
v 0.01776011467 0.0753000021 0.4352659876
v 0.01270505905 0.0753000021 0.4396462137
v 0.006620715261 0.0753000021 0.4424248392
v 2.592071586e-13 0.0753000021 0.4433767587
v -0.00662071526 0.0753000021 0.4424248392
v -0.01270505905 0.0753000021 0.4396462137
v -0.01776011467 0.0753000021 0.4352659876
v -0.02137635231 0.0753000021 0.4296390039
v -0.02326080322 0.0753000021 0.4232211572
v -0.02326080322 0.0753000021 0.4165323526
v -0.02137635231 0.0753000021 0.4101144964
v -0.01776011467 0.0753000021 0.4044875223
v -0.01270505905 0.0753000021 0.4001072961
v -0.006620715261 0.0753000021 0.3973286707
v -0.006536195278 0.075 0.3976165182
v -0.006620715261 0.0753000021 0.3973286707
v -2.592326737e-13 0.08170000076 0.3963767511
v 0.00662071526 0.08170000076 0.3973286707
v 0.01270505905 0.08170000076 0.4001072961
v 0.01776011467 0.08170000076 0.4044875223
v 0.02137635231 0.08170000076 0.4101144964
v 0.02326080322 0.08170000076 0.4165323526
v 0.02326080322 0.08170000076 0.4232211572
v 0.02137635231 0.08170000076 0.4296390039
v 0.01776011467 0.08170000076 0.4352659876
v 0.01270505905 0.08170000076 0.4396462137
v 0.006620715261 0.08170000076 0.4424248392
v 2.592034969e-13 0.08170000076 0.4433767587
v -0.00662071526 0.08170000076 0.4424248392
v -0.01270505905 0.08170000076 0.4396462137
v -0.01776011467 0.08170000076 0.4352659876
v -0.02137635231 0.08170000076 0.4296390039
v -0.02326080322 0.08170000076 0.4232211572
v -0.02326080322 0.08170000076 0.4165323526
v -0.02137635231 0.08170000076 0.4101144964
v -0.01776011467 0.08170000076 0.4044875223
v -0.01270505905 0.08170000076 0.4001072961
v -0.006620715261 0.08170000076 0.3973286707
v -2.592318899e-13 0.0753000021 0.3963767511
v -0.006620715261 0.0753000021 0.3973286707
v -0.01270505905 0.0753000021 0.4001072961
v -0.01776011467 0.0753000021 0.4044875223
v -0.02137635231 0.0753000021 0.4101144964
v -0.02326080322 0.0753000021 0.4165323526
v -0.02326080322 0.0753000021 0.4232211572
v -0.02137635231 0.0753000021 0.4296390039
v -0.01776011467 0.0753000021 0.4352659876
v -0.01270505905 0.0753000021 0.4396462137
v -0.00662071526 0.0753000021 0.4424248392
v 2.592071586e-13 0.0753000021 0.4433767587
v 0.006620715261 0.0753000021 0.4424248392
v 0.01270505905 0.0753000021 0.4396462137
v 0.01776011467 0.0753000021 0.4352659876
v 0.02137635231 0.0753000021 0.4296390039
v 0.02326080322 0.0753000021 0.4232211572
v 0.02326080322 0.0753000021 0.4165323526
v 0.02137635231 0.0753000021 0.4101144964
v 0.01776011467 0.0753000021 0.4044875223
v 0.01270505905 0.0753000021 0.4001072961
v 0.00662071526 0.0753000021 0.3973286707
v -2.592318899e-13 0.0753000021 0.3963767511
v -2.592326737e-13 0.08170000076 0.3963767511
v 1.963325059e-13 0.075 0.4376767427
v -0.005779650807 0.075 0.4367122919
v -0.01093298674 0.075 0.4339234621
v -0.01490156293 0.075 0.4296124345
v -0.01725532532 0.075 0.4242463953
v -0.01773920417 0.075 0.4184068376
v -0.01630076528 0.075 0.4127265817
v -0.01309588552 0.075 0.4078211385
v -0.008471863866 0.075 0.4042221147
v -0.002929783762 0.075 0.4023195249
v 0.002929783761 0.075 0.4023195249
v 0.008471863866 0.075 0.4042221147
v 0.01309588552 0.075 0.4078211385
v 0.01630076528 0.075 0.4127265817
v 0.01773920417 0.075 0.4184068376
v 0.01725532532 0.075 0.4242463953
v 0.01490156293 0.075 0.4296124345
v 0.01093298674 0.075 0.4339234621
v 0.005779650808 0.075 0.4367122919
v 1.93023419e-13 0.0753000021 0.4373767549
v 0.005682240725 0.0753000021 0.4364285547
v 0.01074872255 0.0753000021 0.4336867029
v 0.0146504128 0.0753000021 0.4294483453
v 0.01696450472 0.0753000021 0.4241727525
v 0.01744022846 0.0753000021 0.4184316141
v 0.01602603316 0.0753000021 0.412847088
v 0.01287516832 0.0753000021 0.4080243284
v 0.008329079151 0.0753000021 0.4044859583
v 0.002880405187 0.0753000021 0.402615431
v -0.002880405188 0.0753000021 0.402615431
v -0.008329079151 0.0753000021 0.4044859583
v -0.01287516832 0.0753000021 0.4080243284
v -0.01602603316 0.0753000021 0.412847088
v -0.01744022846 0.0753000021 0.4184316141
v -0.01696450472 0.0753000021 0.4241727525
v -0.0146504128 0.0753000021 0.4294483453
v -0.01074872255 0.0753000021 0.4336867029
v -0.005682240724 0.0753000021 0.4364285547
v -0.005779650807 0.075 0.4367122919
v -0.005682240724 0.0753000021 0.4364285547
v -2.55923555e-13 0.08199999809 0.3966767484
v 0.006536195278 0.08199999809 0.3976165182
v 0.01254286647 0.08199999809 0.400359667
v 0.01753339052 0.08199999809 0.4046839792
v 0.02110346317 0.08199999809 0.4102391225
v 0.02296385765 0.08199999809 0.4165750391
v 0.02296385765 0.08199999809 0.4231784517
v 0.02110346317 0.08199999809 0.4295143778
v 0.01753339052 0.08199999809 0.4350695306
v 0.01254286647 0.08199999809 0.4393938333
v 0.006536195278 0.08199999809 0.4421369821
v 2.558942363e-13 0.08199999809 0.4430767519
v -0.006536195278 0.08199999809 0.4421369821
v -0.01254286647 0.08199999809 0.4393938333
v -0.01753339052 0.08199999809 0.4350695306
v -0.02110346317 0.08199999809 0.4295143778
v -0.02296385765 0.08199999809 0.4231784517
v -0.02296385765 0.08199999809 0.4165750391
v -0.02110346317 0.08199999809 0.4102391225
v -0.01753339052 0.08199999809 0.4046839792
v -0.01254286647 0.08199999809 0.400359667
v -0.006536195278 0.08199999809 0.3976165182
v -2.592326737e-13 0.08170000076 0.3963767511
v -0.006620715261 0.08170000076 0.3973286707
v -0.01270505905 0.08170000076 0.4001072961
v -0.01776011467 0.08170000076 0.4044875223
v -0.02137635231 0.08170000076 0.4101144964
v -0.02326080322 0.08170000076 0.4165323526
v -0.02326080322 0.08170000076 0.4232211572
v -0.02137635231 0.08170000076 0.4296390039
v -0.01776011467 0.08170000076 0.4352659876
v -0.01270505905 0.08170000076 0.4396462137
v -0.00662071526 0.08170000076 0.4424248392
v 2.592034969e-13 0.08170000076 0.4433767587
v 0.006620715261 0.08170000076 0.4424248392
v 0.01270505905 0.08170000076 0.4396462137
v 0.01776011467 0.08170000076 0.4352659876
v 0.02137635231 0.08170000076 0.4296390039
v 0.02326080322 0.08170000076 0.4232211572
v 0.02326080322 0.08170000076 0.4165323526
v 0.02137635231 0.08170000076 0.4101144964
v 0.01776011467 0.08170000076 0.4044875223
v 0.01270505905 0.08170000076 0.4001072961
v 0.00662071526 0.08170000076 0.3973286707
v 0.006536195278 0.08199999809 0.3976165182
v 0.00662071526 0.08170000076 0.3973286707
v 2.040532568e-13 0.08199999809 0.4383767587
v 0.005716814399 0.08199999809 0.4374713022
v 0.01087402701 0.08199999809 0.4348435671
v 0.01496681452 0.08199999809 0.4307507784
v 0.01759454608 0.08199999809 0.4255935747
v 0.01850000024 0.08199999809 0.4198767549
v 0.01759454608 0.08199999809 0.4141599352
v 0.01496681452 0.08199999809 0.4090027219
v 0.01087402701 0.08199999809 0.4049099332
v 0.005716814399 0.08199999809 0.4022822076
v -2.040773635e-13 0.08199999809 0.4013767511
v -0.005716814399 0.08199999809 0.4022822076
v -0.01087402701 0.08199999809 0.4049099332
v -0.01496681452 0.08199999809 0.4090027219
v -0.01759454608 0.08199999809 0.4141599352
v -0.01850000024 0.08199999809 0.4198767549
v -0.01759454608 0.08199999809 0.4255935747
v -0.01496681452 0.08199999809 0.4307507784
v -0.01087402701 0.08199999809 0.4348435671
v -0.005716814399 0.08199999809 0.4374713022
v -1.963582314e-13 0.08199999809 0.4020767481
v 0.005779650807 0.08199999809 0.4030412084
v 0.01093298674 0.08199999809 0.4058300478
v 0.01490156293 0.08199999809 0.4101410753
v 0.01725532532 0.08199999809 0.4155071146
v 0.01773920417 0.08199999809 0.4213466722
v 0.01630076528 0.08199999809 0.4270269281
v 0.01309588552 0.08199999809 0.4319323618
v 0.008471863866 0.08199999809 0.435531376
v 0.002929783762 0.08199999809 0.4374339754
v -0.002929783761 0.08199999809 0.4374339754
v -0.008471863866 0.08199999809 0.435531376
v -0.01309588552 0.08199999809 0.4319323618
v -0.01630076528 0.08199999809 0.4270269281
v -0.01773920417 0.08199999809 0.4213466722
v -0.01725532532 0.08199999809 0.4155071146
v -0.01490156293 0.08199999809 0.4101410753
v -0.01093298674 0.08199999809 0.4058300478
v -0.005779650808 0.08199999809 0.4030412084
v -2.55923555e-13 0.08199999809 0.3966767484
v -0.006536195278 0.08199999809 0.3976165182
v -0.01254286647 0.08199999809 0.400359667
v -0.01753339052 0.08199999809 0.4046839792
v -0.02110346317 0.08199999809 0.4102391225
v -0.02296385765 0.08199999809 0.4165750391
v -0.02296385765 0.08199999809 0.4231784517
v -0.02110346317 0.08199999809 0.4295143778
v -0.01753339052 0.08199999809 0.4350695306
v -0.01254286647 0.08199999809 0.4393938333
v -0.006536195278 0.08199999809 0.4421369821
v 2.558942363e-13 0.08199999809 0.4430767519
v 0.006536195278 0.08199999809 0.4421369821
v 0.01254286647 0.08199999809 0.4393938333
v 0.01753339052 0.08199999809 0.4350695306
v 0.02110346317 0.08199999809 0.4295143778
v 0.02296385765 0.08199999809 0.4231784517
v 0.02296385765 0.08199999809 0.4165750391
v 0.02110346317 0.08199999809 0.4102391225
v 0.01753339052 0.08199999809 0.4046839792
v 0.01254286647 0.08199999809 0.400359667
v 0.006536195278 0.08199999809 0.3976165182
v 2.481756798e-13 0.08199999809 0.4423767549
v -0.006338982582 0.08199999809 0.4414653474
v -0.0121644187 0.08199999809 0.4388049585
v -0.01700436592 0.08199999809 0.4346111185
v -0.02046672106 0.08199999809 0.4292235834
v -0.02227098227 0.08199999809 0.4230788309
v -0.02227098227 0.08199999809 0.4166746599
v -0.02046672106 0.08199999809 0.4105299074
v -0.01700436592 0.08199999809 0.4051423818
v -0.0121644187 0.08199999809 0.4009485513
v -0.006338982582 0.08199999809 0.3982881624
v -2.482020521e-13 0.08199999809 0.3973767549
v 0.006338982582 0.08199999809 0.3982881624
v 0.0121644187 0.08199999809 0.4009485513
v 0.01700436592 0.08199999809 0.4051423818
v 0.02046672106 0.08199999809 0.4105299074
v 0.02227098227 0.08199999809 0.4166746599
v 0.02227098227 0.08199999809 0.4230788309
v 0.02046672106 0.08199999809 0.4292235834
v 0.01700436592 0.08199999809 0.4346111185
v 0.0121644187 0.08199999809 0.4388049585
v 0.006338982582 0.08199999809 0.4414653474
v 2.040532568e-13 0.08199999809 0.4383767587
v -0.005716814399 0.08199999809 0.4374713022
v -0.01087402701 0.08199999809 0.4348435671
v -0.01496681452 0.08199999809 0.4307507784
v -0.01759454608 0.08199999809 0.4255935747
v -0.01850000024 0.08199999809 0.4198767549
v -0.01759454608 0.08199999809 0.4141599352
v -0.01496681452 0.08199999809 0.4090027219
v -0.01087402701 0.08199999809 0.4049099332
v -0.005716814399 0.08199999809 0.4022822076
v -2.040773635e-13 0.08199999809 0.4013767511
v 0.005716814399 0.08199999809 0.4022822076
v 0.01087402701 0.08199999809 0.4049099332
v 0.01496681452 0.08199999809 0.4090027219
v 0.01759454608 0.08199999809 0.4141599352
v 0.01850000024 0.08199999809 0.4198767549
v 0.01759454608 0.08199999809 0.4255935747
v 0.01496681452 0.08199999809 0.4307507784
v 0.01087402701 0.08199999809 0.4348435671
v 0.005716814399 0.08199999809 0.4374713022
v 2.04053318e-13 0.08149999619 0.4383767587
v 0.005716814399 0.08149999619 0.4374713022
v 0.01087402701 0.08149999619 0.4348435671
v 0.01496681452 0.08149999619 0.4307507784
v 0.01759454608 0.08149999619 0.4255935747
v 0.01850000024 0.08149999619 0.4198767549
v 0.01759454608 0.08149999619 0.4141599352
v 0.01496681452 0.08149999619 0.4090027219
v 0.01087402701 0.08149999619 0.4049099332
v 0.005716814399 0.08149999619 0.4022822076
v -2.040818335e-13 0.08149999619 0.4013767511
v -0.005716814399 0.08149999619 0.4022822076
v -0.01087402701 0.08149999619 0.4049099332
v -0.01496681452 0.08149999619 0.4090027219
v -0.01759454608 0.08149999619 0.4141599352
v -0.01850000024 0.08149999619 0.4198767549
v -0.01759454608 0.08149999619 0.4255935747
v -0.01496681452 0.08149999619 0.4307507784
v -0.01087402701 0.08149999619 0.4348435671
v -0.005716814399 0.08149999619 0.4374713022
v -2.040818335e-13 0.08149999619 0.4013767511
v -2.040773635e-13 0.08199999809 0.4013767511
v -1.93048934e-13 0.08170000076 0.4023767549
v -0.005682240725 0.08170000076 0.4033249551
v -0.01074872255 0.08170000076 0.4060667974
v -0.0146504128 0.08170000076 0.410305155
v -0.01696450472 0.08170000076 0.4155807573
v -0.01744022846 0.08170000076 0.4213218958
v -0.01602603316 0.08170000076 0.4269064218
v -0.01287516832 0.08170000076 0.4317291719
v -0.008329079151 0.08170000076 0.4352675516
v -0.002880405187 0.08170000076 0.4371380693
v 0.002880405188 0.08170000076 0.4371380693
v 0.008329079151 0.08170000076 0.4352675516
v 0.01287516832 0.08170000076 0.4317291719
v 0.01602603316 0.08170000076 0.4269064218
v 0.01744022846 0.08170000076 0.4213218958
v 0.01696450472 0.08170000076 0.4155807573
v 0.0146504128 0.08170000076 0.410305155
v 0.01074872255 0.08170000076 0.4060667974
v 0.005682240724 0.08170000076 0.4033249551
v 1.93023419e-13 0.0753000021 0.4373767549
v -0.005682240724 0.0753000021 0.4364285547
v -0.01074872255 0.0753000021 0.4336867029
v -0.0146504128 0.0753000021 0.4294483453
v -0.01696450472 0.0753000021 0.4241727525
v -0.01744022846 0.0753000021 0.4184316141
v -0.01602603316 0.0753000021 0.412847088
v -0.01287516832 0.0753000021 0.4080243284
v -0.008329079151 0.0753000021 0.4044859583
v -0.002880405188 0.0753000021 0.402615431
v 0.002880405187 0.0753000021 0.402615431
v 0.008329079151 0.0753000021 0.4044859583
v 0.01287516832 0.0753000021 0.4080243284
v 0.01602603316 0.0753000021 0.412847088
v 0.01744022846 0.0753000021 0.4184316141
v 0.01696450472 0.0753000021 0.4241727525
v 0.0146504128 0.0753000021 0.4294483453
v 0.01074872255 0.0753000021 0.4336867029
v 0.005682240725 0.0753000021 0.4364285547
v -0.002880405188 0.0753000021 0.402615431
v -1.93048934e-13 0.08170000076 0.4023767549
v 2.48175741e-13 0.08149999619 0.4423767549
v 0.006338982582 0.08149999619 0.4414653474
v 0.0121644187 0.08149999619 0.4388049585
v 0.01700436592 0.08149999619 0.4346111185
v 0.02046672106 0.08149999619 0.4292235834
v 0.02227098227 0.08149999619 0.4230788309
v 0.02227098227 0.08149999619 0.4166746599
v 0.02046672106 0.08149999619 0.4105299074
v 0.01700436592 0.08149999619 0.4051423818
v 0.0121644187 0.08149999619 0.4009485513
v 0.006338982582 0.08149999619 0.3982881624
v -2.482019909e-13 0.08149999619 0.3973767549
v -0.006338982582 0.08149999619 0.3982881624
v -0.0121644187 0.08149999619 0.4009485513
v -0.01700436592 0.08149999619 0.4051423818
v -0.02046672106 0.08149999619 0.4105299074
v -0.02227098227 0.08149999619 0.4166746599
v -0.02227098227 0.08149999619 0.4230788309
v -0.02046672106 0.08149999619 0.4292235834
v -0.01700436592 0.08149999619 0.4346111185
v -0.0121644187 0.08149999619 0.4388049585
v -0.006338982582 0.08149999619 0.4414653474
v 2.04053318e-13 0.08149999619 0.4383767587
v -0.005716814399 0.08149999619 0.4374713022
v -0.01087402701 0.08149999619 0.4348435671
v -0.01496681452 0.08149999619 0.4307507784
v -0.01759454608 0.08149999619 0.4255935747
v -0.01850000024 0.08149999619 0.4198767549
v -0.01759454608 0.08149999619 0.4141599352
v -0.01496681452 0.08149999619 0.4090027219
v -0.01087402701 0.08149999619 0.4049099332
v -0.005716814399 0.08149999619 0.4022822076
v -2.040818335e-13 0.08149999619 0.4013767511
v 0.005716814399 0.08149999619 0.4022822076
v 0.01087402701 0.08149999619 0.4049099332
v 0.01496681452 0.08149999619 0.4090027219
v 0.01759454608 0.08149999619 0.4141599352
v 0.01850000024 0.08149999619 0.4198767549
v 0.01759454608 0.08149999619 0.4255935747
v 0.01496681452 0.08149999619 0.4307507784
v 0.01087402701 0.08149999619 0.4348435671
v 0.005716814399 0.08149999619 0.4374713022
v 2.481756798e-13 0.08199999809 0.4423767549
v 0.006338982582 0.08199999809 0.4414653474
v 0.0121644187 0.08199999809 0.4388049585
v 0.01700436592 0.08199999809 0.4346111185
v 0.02046672106 0.08199999809 0.4292235834
v 0.02227098227 0.08199999809 0.4230788309
v 0.02227098227 0.08199999809 0.4166746599
v 0.02046672106 0.08199999809 0.4105299074
v 0.01700436592 0.08199999809 0.4051423818
v 0.0121644187 0.08199999809 0.4009485513
v 0.006338982582 0.08199999809 0.3982881624
v -2.482020521e-13 0.08199999809 0.3973767549
v -0.006338982582 0.08199999809 0.3982881624
v -0.0121644187 0.08199999809 0.4009485513
v -0.01700436592 0.08199999809 0.4051423818
v -0.02046672106 0.08199999809 0.4105299074
v -0.02227098227 0.08199999809 0.4166746599
v -0.02227098227 0.08199999809 0.4230788309
v -0.02046672106 0.08199999809 0.4292235834
v -0.01700436592 0.08199999809 0.4346111185
v -0.0121644187 0.08199999809 0.4388049585
v -0.006338982582 0.08199999809 0.4414653474
v 2.48175741e-13 0.08149999619 0.4423767549
v -0.006338982582 0.08149999619 0.4414653474
v -0.0121644187 0.08149999619 0.4388049585
v -0.01700436592 0.08149999619 0.4346111185
v -0.02046672106 0.08149999619 0.4292235834
v -0.02227098227 0.08149999619 0.4230788309
v -0.02227098227 0.08149999619 0.4166746599
v -0.02046672106 0.08149999619 0.4105299074
v -0.01700436592 0.08149999619 0.4051423818
v -0.0121644187 0.08149999619 0.4009485513
v -0.006338982582 0.08149999619 0.3982881624
v -2.482019909e-13 0.08149999619 0.3973767549
v 0.006338982582 0.08149999619 0.3982881624
v 0.0121644187 0.08149999619 0.4009485513
v 0.01700436592 0.08149999619 0.4051423818
v 0.02046672106 0.08149999619 0.4105299074
v 0.02227098227 0.08149999619 0.4166746599
v 0.02227098227 0.08149999619 0.4230788309
v 0.02046672106 0.08149999619 0.4292235834
v 0.01700436592 0.08149999619 0.4346111185
v 0.0121644187 0.08149999619 0.4388049585
v 0.006338982582 0.08149999619 0.4414653474
v -2.482020521e-13 0.08199999809 0.3973767549
v -2.482019909e-13 0.08149999619 0.3973767549
v -1.963582314e-13 0.08199999809 0.4020767481
v -0.005779650808 0.08199999809 0.4030412084
v -0.01093298674 0.08199999809 0.4058300478
v -0.01490156293 0.08199999809 0.4101410753
v -0.01725532532 0.08199999809 0.4155071146
v -0.01773920417 0.08199999809 0.4213466722
v -0.01630076528 0.08199999809 0.4270269281
v -0.01309588552 0.08199999809 0.4319323618
v -0.008471863866 0.08199999809 0.435531376
v -0.002929783761 0.08199999809 0.4374339754
v 0.002929783762 0.08199999809 0.4374339754
v 0.008471863866 0.08199999809 0.435531376
v 0.01309588552 0.08199999809 0.4319323618
v 0.01630076528 0.08199999809 0.4270269281
v 0.01773920417 0.08199999809 0.4213466722
v 0.01725532532 0.08199999809 0.4155071146
v 0.01490156293 0.08199999809 0.4101410753
v 0.01093298674 0.08199999809 0.4058300478
v 0.005779650807 0.08199999809 0.4030412084
v -1.93048934e-13 0.08170000076 0.4023767549
v 0.005682240724 0.08170000076 0.4033249551
v 0.01074872255 0.08170000076 0.4060667974
v 0.0146504128 0.08170000076 0.410305155
v 0.01696450472 0.08170000076 0.4155807573
v 0.01744022846 0.08170000076 0.4213218958
v 0.01602603316 0.08170000076 0.4269064218
v 0.01287516832 0.08170000076 0.4317291719
v 0.008329079151 0.08170000076 0.4352675516
v 0.002880405188 0.08170000076 0.4371380693
v -0.002880405187 0.08170000076 0.4371380693
v -0.008329079151 0.08170000076 0.4352675516
v -0.01287516832 0.08170000076 0.4317291719
v -0.01602603316 0.08170000076 0.4269064218
v -0.01744022846 0.08170000076 0.4213218958
v -0.01696450472 0.08170000076 0.4155807573
v -0.0146504128 0.08170000076 0.410305155
v -0.01074872255 0.08170000076 0.4060667974
v -0.005682240725 0.08170000076 0.4033249551
v -0.005779650808 0.08199999809 0.4030412084
v -0.005682240725 0.08170000076 0.4033249551
f 2 30 1
f 1 30 31
f 1 31 20
f 20 31 32
f 20 32 19
f 19 32 33
f 19 33 18
f 18 33 34
f 18 34 17
f 17 34 35
f 17 35 16
f 16 35 36
f 16 36 15
f 15 36 37
f 15 37 14
f 14 37 38
f 14 38 13
f 13 38 39
f 13 39 12
f 12 39 21
f 12 21 11
f 11 21 10
f 10 21 22
f 10 22 9
f 9 22 23
f 9 23 8
f 8 23 24
f 8 24 7
f 7 24 25
f 7 25 6
f 6 25 26
f 6 26 5
f 5 26 27
f 5 27 4
f 4 27 28
f 4 28 3
f 3 28 29
f 3 29 2
f 2 29 30
f 41 83 40
f 40 83 62
f 40 62 63
f 83 41 82
f 82 41 42
f 82 42 81
f 81 42 43
f 81 43 80
f 80 43 44
f 80 44 79
f 79 44 45
f 79 45 46
f 79 46 78
f 78 46 47
f 78 47 77
f 77 47 48
f 77 48 76
f 76 48 49
f 76 49 75
f 75 49 50
f 75 50 74
f 74 50 51
f 74 51 73
f 73 51 72
f 72 51 52
f 72 52 71
f 71 52 53
f 71 53 70
f 70 53 54
f 70 54 69
f 69 54 55
f 69 55 68
f 68 55 56
f 68 56 67
f 67 56 57
f 67 57 58
f 67 58 66
f 66 58 59
f 66 59 65
f 65 59 60
f 65 60 64
f 64 60 61
f 64 61 63
f 63 61 40
f 85 104 84
f 84 104 105
f 84 105 103
f 103 105 106
f 103 106 102
f 102 106 107
f 102 107 101
f 101 107 108
f 101 108 100
f 100 108 109
f 100 109 99
f 99 109 110
f 99 110 98
f 98 110 111
f 98 111 97
f 97 111 112
f 97 112 96
f 96 112 113
f 96 113 95
f 95 113 94
f 94 113 124
f 125 114 93
f 93 114 115
f 93 115 116
f 104 85 123
f 123 85 86
f 123 86 122
f 122 86 87
f 122 87 121
f 121 87 88
f 121 88 120
f 120 88 89
f 120 89 119
f 119 89 90
f 119 90 118
f 118 90 91
f 118 91 117
f 117 91 92
f 117 92 116
f 116 92 93
f 147 126 148
f 148 126 127
f 148 127 167
f 167 127 128
f 167 128 166
f 166 128 129
f 166 129 165
f 165 129 130
f 165 130 164
f 164 130 131
f 164 131 163
f 163 131 132
f 163 132 162
f 162 132 133
f 162 133 161
f 161 133 134
f 161 134 160
f 160 134 135
f 160 135 159
f 159 135 136
f 159 136 158
f 158 136 137
f 158 137 138
f 158 138 157
f 157 138 139
f 157 139 156
f 156 139 140
f 156 140 155
f 155 140 141
f 155 141 154
f 154 141 142
f 154 142 153
f 153 142 143
f 153 143 152
f 152 143 144
f 152 144 151
f 151 144 145
f 151 145 150
f 150 145 146
f 150 146 149
f 149 146 147
f 149 147 148
f 169 190 168
f 168 190 191
f 168 191 189
f 189 191 192
f 189 192 188
f 188 192 193
f 188 193 187
f 187 193 194
f 187 194 186
f 186 194 195
f 186 195 185
f 185 195 196
f 185 196 184
f 184 196 197
f 184 197 183
f 183 197 198
f 183 198 182
f 182 198 199
f 182 199 181
f 181 199 200
f 181 200 180
f 180 200 179
f 179 200 213
f 212 201 178
f 178 201 202
f 178 202 203
f 190 169 211
f 211 169 170
f 211 170 210
f 210 170 171
f 210 171 209
f 209 171 172
f 209 172 208
f 208 172 173
f 208 173 207
f 207 173 174
f 207 174 206
f 206 174 175
f 206 175 205
f 205 175 176
f 205 176 204
f 204 176 177
f 204 177 203
f 203 177 178
f 258 236 214
f 214 236 237
f 214 237 235
f 235 237 238
f 235 238 234
f 234 238 239
f 234 239 233
f 233 239 240
f 233 240 232
f 232 240 241
f 232 241 231
f 231 241 242
f 231 242 230
f 230 242 243
f 230 243 229
f 229 243 244
f 229 244 228
f 228 244 245
f 228 245 227
f 227 245 246
f 227 246 226
f 226 246 247
f 226 247 225
f 225 247 248
f 225 248 224
f 224 248 249
f 224 249 223
f 223 249 250
f 223 250 222
f 222 250 251
f 222 251 221
f 221 251 252
f 221 252 220
f 220 252 253
f 220 253 219
f 219 253 254
f 219 254 218
f 218 254 255
f 218 255 217
f 217 255 256
f 217 256 216
f 216 256 259
f 216 259 215
f 258 257 236
f 261 303 260
f 260 303 304
f 305 282 281
f 281 282 283
f 281 283 280
f 280 283 284
f 280 284 279
f 279 284 285
f 279 285 278
f 278 285 286
f 278 286 277
f 277 286 287
f 277 287 276
f 276 287 288
f 276 288 275
f 275 288 289
f 275 289 274
f 274 289 290
f 274 290 273
f 273 290 291
f 273 291 272
f 272 291 292
f 272 292 271
f 271 292 293
f 271 293 270
f 270 293 294
f 270 294 269
f 269 294 295
f 269 295 268
f 268 295 296
f 268 296 267
f 267 296 297
f 267 297 266
f 266 297 298
f 266 298 265
f 265 298 299
f 265 299 264
f 264 299 300
f 264 300 263
f 263 300 301
f 263 301 262
f 262 301 302
f 262 302 261
f 261 302 303
f 344 325 306
f 306 325 326
f 306 326 324
f 324 326 327
f 324 327 323
f 323 327 328
f 323 328 322
f 322 328 329
f 322 329 321
f 321 329 330
f 321 330 320
f 320 330 331
f 320 331 319
f 319 331 332
f 319 332 318
f 318 332 333
f 318 333 317
f 317 333 334
f 317 334 316
f 316 334 335
f 316 335 315
f 315 335 336
f 315 336 314
f 314 336 337
f 314 337 313
f 313 337 338
f 313 338 312
f 312 338 339
f 312 339 311
f 311 339 340
f 311 340 310
f 310 340 341
f 310 341 309
f 309 341 342
f 309 342 308
f 308 342 345
f 308 345 307
f 344 343 325
f 390 368 346
f 346 368 369
f 346 369 367
f 367 369 370
f 367 370 366
f 366 370 371
f 366 371 365
f 365 371 372
f 365 372 364
f 364 372 373
f 364 373 363
f 363 373 374
f 363 374 362
f 362 374 375
f 362 375 361
f 361 375 376
f 361 376 360
f 360 376 377
f 360 377 359
f 359 377 378
f 359 378 358
f 358 378 379
f 358 379 357
f 357 379 380
f 357 380 356
f 356 380 381
f 356 381 355
f 355 381 382
f 355 382 354
f 354 382 383
f 354 383 353
f 353 383 384
f 353 384 352
f 352 384 385
f 352 385 351
f 351 385 386
f 351 386 350
f 350 386 387
f 350 387 349
f 349 387 388
f 349 388 348
f 348 388 391
f 348 391 347
f 390 389 368
f 393 421 392
f 392 421 422
f 392 422 411
f 411 422 423
f 411 423 410
f 410 423 424
f 410 424 409
f 409 424 425
f 409 425 408
f 408 425 426
f 408 426 407
f 407 426 427
f 407 427 406
f 406 427 428
f 406 428 405
f 405 428 429
f 405 429 404
f 404 429 430
f 404 430 403
f 403 430 412
f 403 412 402
f 402 412 401
f 401 412 413
f 401 413 400
f 400 413 414
f 400 414 399
f 399 414 415
f 399 415 398
f 398 415 416
f 398 416 397
f 397 416 417
f 397 417 396
f 396 417 418
f 396 418 395
f 395 418 419
f 395 419 394
f 394 419 420
f 394 420 393
f 393 420 421
f 432 463 431
f 431 463 464
f 431 464 465
f 463 432 462
f 462 432 433
f 462 433 461
f 461 433 434
f 461 434 460
f 460 434 435
f 460 435 459
f 459 435 436
f 459 436 437
f 459 437 458
f 458 437 438
f 458 438 457
f 457 438 439
f 457 439 456
f 456 439 440
f 456 440 455
f 455 440 441
f 455 441 454
f 454 441 442
f 454 442 453
f 453 442 474
f 474 442 443
f 474 443 473
f 473 443 444
f 473 444 472
f 472 444 445
f 472 445 471
f 471 445 446
f 471 446 470
f 470 446 447
f 470 447 469
f 469 447 448
f 469 448 449
f 469 449 468
f 468 449 450
f 468 450 467
f 467 450 451
f 467 451 466
f 466 451 452
f 466 452 465
f 465 452 431
f 476 495 475
f 475 495 496
f 475 496 494
f 494 496 497
f 494 497 493
f 493 497 498
f 493 498 492
f 492 498 499
f 492 499 491
f 491 499 500
f 491 500 490
f 490 500 501
f 490 501 489
f 489 501 502
f 489 502 488
f 488 502 503
f 488 503 487
f 487 503 504
f 487 504 486
f 486 504 485
f 485 504 515
f 516 505 484
f 484 505 506
f 484 506 507
f 495 476 514
f 514 476 477
f 514 477 513
f 513 477 478
f 513 478 512
f 512 478 479
f 512 479 511
f 511 479 480
f 511 480 510
f 510 480 481
f 510 481 509
f 509 481 482
f 509 482 508
f 508 482 483
f 508 483 507
f 507 483 484
f 518 555 517
f 556 545 546
f 556 546 535
f 535 546 547
f 535 547 534
f 534 547 548
f 534 548 533
f 533 548 549
f 533 549 532
f 532 549 550
f 532 550 531
f 531 550 551
f 531 551 530
f 530 551 552
f 530 552 529
f 529 552 553
f 529 553 528
f 528 553 554
f 528 554 527
f 527 554 536
f 527 536 526
f 526 536 537
f 526 537 525
f 525 537 538
f 525 538 524
f 524 538 539
f 524 539 523
f 523 539 540
f 523 540 522
f 522 540 541
f 522 541 521
f 521 541 542
f 521 542 520
f 520 542 543
f 520 543 519
f 519 543 544
f 519 544 518
f 518 544 555
f 578 557 579
f 579 557 558
f 579 558 598
f 598 558 559
f 598 559 597
f 597 559 560
f 597 560 596
f 596 560 561
f 596 561 595
f 595 561 562
f 595 562 594
f 594 562 563
f 594 563 593
f 593 563 564
f 593 564 592
f 592 564 565
f 592 565 591
f 591 565 566
f 591 566 590
f 590 566 567
f 590 567 589
f 589 567 568
f 589 568 569
f 589 569 588
f 588 569 570
f 588 570 587
f 587 570 571
f 587 571 586
f 586 571 572
f 586 572 585
f 585 572 573
f 585 573 584
f 584 573 574
f 584 574 583
f 583 574 575
f 583 575 582
f 582 575 576
f 582 576 581
f 581 576 577
f 581 577 580
f 580 577 578
f 580 578 579
f 600 621 599
f 599 621 622
f 599 622 620
f 620 622 623
f 620 623 619
f 619 623 624
f 619 624 618
f 618 624 625
f 618 625 617
f 617 625 626
f 617 626 616
f 616 626 627
f 616 627 615
f 615 627 628
f 615 628 614
f 614 628 629
f 614 629 613
f 613 629 630
f 613 630 612
f 612 630 631
f 612 631 611
f 611 631 610
f 610 631 644
f 643 632 609
f 609 632 633
f 609 633 634
f 621 600 642
f 642 600 601
f 642 601 641
f 641 601 602
f 641 602 640
f 640 602 603
f 640 603 639
f 639 603 604
f 639 604 638
f 638 604 605
f 638 605 637
f 637 605 606
f 637 606 636
f 636 606 607
f 636 607 635
f 635 607 608
f 635 608 634
f 634 608 609
f 683 664 645
f 645 664 665
f 645 665 663
f 663 665 666
f 663 666 662
f 662 666 667
f 662 667 661
f 661 667 668
f 661 668 660
f 660 668 669
f 660 669 659
f 659 669 670
f 659 670 658
f 658 670 671
f 658 671 657
f 657 671 672
f 657 672 656
f 656 672 673
f 656 673 655
f 655 673 674
f 655 674 654
f 654 674 675
f 654 675 653
f 653 675 676
f 653 676 652
f 652 676 677
f 652 677 651
f 651 677 678
f 651 678 650
f 650 678 679
f 650 679 649
f 649 679 680
f 649 680 648
f 648 680 681
f 648 681 647
f 647 681 684
f 647 684 646
f 683 682 664
