v -0.2129999924 -0.2084393311 0.0225
v -0.2129999924 -0.2111000061 0.02516066074
v 0.2129999924 -0.2111000061 0.02516066074
v 0.2129999924 -0.2084393311 0.0225
v -0.2129999924 -0.2188999939 0.02821000099
v -0.2129999924 -0.2186899948 0.02799999952
v 0.2129999924 -0.2186899948 0.02799999952
v 0.2129999924 -0.2188999939 0.02821000099
v -0.2129999924 -0.2095000076 0.02143934011
v -0.2129999924 -0.2095000076 0.01980000019
v 0.2129999924 -0.2095000076 0.01980000019
v 0.2129999924 -0.2095000076 0.02143934011
v -0.2129999924 -0.2111000061 0.03083934069
v -0.2129999924 -0.2084393311 0.03349999905
v 0.2129999924 -0.2084393311 0.03349999905
v 0.2129999924 -0.2111000061 0.03083934069
v -0.2129999924 -0.2068000031 0.03349999905
v -0.2129999924 -0.2068000031 0.03112499952
v 0.2129999924 -0.2068000031 0.03112499952
v 0.2129999924 -0.2068000031 0.03349999905
v -0.2129999924 -0.2231999969 0.02487499952
v -0.2129999924 -0.2235449982 0.02487499952
v 0.2129999924 -0.2235449982 0.02487499952
v 0.2129999924 -0.2231999969 0.02487499952
v -0.2129999924 -0.2231999969 0.0225
v -0.2129999924 -0.2231999969 0.02487499952
v 0.2129999924 -0.2231999969 0.02487499952
v 0.2129999924 -0.2231999969 0.0225
v -0.2129999924 -0.2215606689 0.0225
v -0.2129999924 -0.2231999969 0.0225
v 0.2129999924 -0.2231999969 0.0225
v 0.2129999924 -0.2215606689 0.0225
v -0.2129999924 -0.2111000061 0.02821000099
v -0.2129999924 -0.2111000061 0.03083934069
v 0.2129999924 -0.2111000061 0.03083934069
v 0.2129999924 -0.2111000061 0.02821000099
v -0.2129999924 -0.2121606636 0.02410000086
v -0.2129999924 -0.2095000076 0.02143934011
v 0.2129999924 -0.2095000076 0.02143934011
v 0.2129999924 -0.2121606636 0.02410000086
v -0.2129999924 -0.2084393311 0.03349999905
v -0.2129999924 -0.2068000031 0.03349999905
v 0.2129999924 -0.2068000031 0.03349999905
v 0.2129999924 -0.2084393311 0.03349999905
v 0.2129999924 -0.2104199982 0.01799999952
v -0.2129999924 -0.2104199982 0.01799999952
v -0.2129999924 -0.2054999924 0.01799999952
v 0.2129999924 -0.2054999924 0.01799999952
v 0.2129999924 -0.225 0.0375
v 0.2129999924 -0.2249330139 0.03775000095
v 0.2129999924 -0.2247500038 0.03793301344
v 0.2129999924 -0.2245000076 0.03799999952
v -0.2129999924 -0.2245000076 0.03799999952
v -0.2129999924 -0.2247500038 0.03793301344
v -0.2129999924 -0.2249330139 0.03775000095
v -0.2129999924 -0.225 0.0375
v 0.2129999924 -0.2195800018 0.03799999952
v -0.2129999924 -0.2195800018 0.03799999952
v -0.2129999924 -0.2245000076 0.03799999952
v 0.2129999924 -0.2245000076 0.03799999952
v 0.2129999924 -0.218125 0.03654500008
v 0.2129999924 -0.2195800018 0.03799999952
v 0.2129999924 -0.2245000076 0.03799999952
v 0.2129999924 -0.2247500038 0.03793301344
v 0.2129999924 -0.2249330139 0.03775000095
v 0.2129999924 -0.225 0.0375
v 0.2129999924 -0.225 0.03257999897
v 0.2129999924 -0.2235449982 0.03112499952
v 0.2129999924 -0.2231999969 0.03112499952
v 0.2129999924 -0.2231999969 0.03349999905
v 0.2129999924 -0.2215606689 0.03349999905
v 0.2129999924 -0.2188999939 0.03083934069
v 0.2129999924 -0.2188999939 0.02821000099
v 0.2129999924 -0.2186899948 0.02799999952
v 0.2129999924 -0.2188999939 0.02779000044
v 0.2129999924 -0.2188999939 0.02516066074
v 0.2129999924 -0.2215606689 0.0225
v 0.2129999924 -0.2231999969 0.0225
v 0.2129999924 -0.2231999969 0.02487499952
v 0.2129999924 -0.2235449982 0.02487499952
v 0.2129999924 -0.225 0.02342000008
v 0.2129999924 -0.225 0.01850000024
v 0.2129999924 -0.2249330139 0.01825000048
v 0.2129999924 -0.2247500038 0.0180669868
v 0.2129999924 -0.2245000076 0.01799999952
v 0.2129999924 -0.2195800018 0.01799999952
v 0.2129999924 -0.218125 0.01945500016
v 0.2129999924 -0.218125 0.01980000019
v 0.2129999924 -0.2204999924 0.01980000019
v 0.2129999924 -0.2204999924 0.02143934011
v 0.2129999924 -0.2178393364 0.02410000086
v 0.2129999924 -0.2152099991 0.02410000086
v 0.2129999924 -0.215 0.02430999994
v 0.2129999924 -0.2147900009 0.02410000086
v 0.2129999924 -0.2121606636 0.02410000086
v 0.2129999924 -0.2095000076 0.02143934011
v 0.2129999924 -0.2095000076 0.01980000019
v 0.2129999924 -0.211875 0.01980000019
v 0.2129999924 -0.211875 0.01945500016
v 0.2129999924 -0.2104199982 0.01799999952
v 0.2129999924 -0.2054999924 0.01799999952
v 0.2129999924 -0.2052499962 0.0180669868
v 0.2129999924 -0.2050669861 0.01825000048
v 0.2129999924 -0.205 0.01850000024
v 0.2129999924 -0.205 0.02342000008
v 0.2129999924 -0.2064550018 0.02487499952
v 0.2129999924 -0.2068000031 0.02487499952
v 0.2129999924 -0.2068000031 0.0225
v 0.2129999924 -0.2084393311 0.0225
v 0.2129999924 -0.2111000061 0.02516066074
v 0.2129999924 -0.2111000061 0.02779000044
v 0.2129999924 -0.2113100052 0.02799999952
v 0.2129999924 -0.2111000061 0.02821000099
v 0.2129999924 -0.2111000061 0.03083934069
v 0.2129999924 -0.2084393311 0.03349999905
v 0.2129999924 -0.2068000031 0.03349999905
v 0.2129999924 -0.2068000031 0.03112499952
v 0.2129999924 -0.2064550018 0.03112499952
v 0.2129999924 -0.205 0.03257999897
v 0.2129999924 -0.205 0.0375
v 0.2129999924 -0.2050669861 0.03775000095
v 0.2129999924 -0.2052499962 0.03793301344
v 0.2129999924 -0.2054999924 0.03799999952
v 0.2129999924 -0.2104199982 0.03799999952
v 0.2129999924 -0.211875 0.03654500008
v 0.2129999924 -0.211875 0.03619999886
v 0.2129999924 -0.2095000076 0.03619999886
v 0.2129999924 -0.2095000076 0.03456066132
v 0.2129999924 -0.2121606636 0.03190000057
v 0.2129999924 -0.2147900009 0.03190000057
v 0.2129999924 -0.215 0.0316899991
v 0.2129999924 -0.2152099991 0.03190000057
v 0.2129999924 -0.2178393364 0.03190000057
v 0.2129999924 -0.2204999924 0.03456066132
v 0.2129999924 -0.2204999924 0.03619999886
v 0.2129999924 -0.218125 0.03619999886
v 0.2129999924 -0.2170999908 0.02799999952
v 0.2129999924 -0.2163093376 0.02964184523
v 0.2129999924 -0.2145326996 0.03004734755
v 0.2129999924 -0.2131079674 0.02891115665
v 0.2129999924 -0.2131079674 0.02708884478
v 0.2129999924 -0.2145326996 0.0259526515
v 0.2129999924 -0.2163093376 0.02635815382
v 0.2129999924 -0.2245000076 0.01799999952
v 0.2129999924 -0.2247500038 0.0180669868
v 0.2129999924 -0.2249330139 0.01825000048
v 0.2129999924 -0.225 0.01850000024
v -0.2129999924 -0.225 0.01850000024
v -0.2129999924 -0.2249330139 0.01825000048
v -0.2129999924 -0.2247500038 0.0180669868
v -0.2129999924 -0.2245000076 0.01799999952
v -0.2129999924 -0.225 0.03257999897
v 0.2129999924 -0.225 0.03257999897
v 0.2129999924 -0.225 0.0375
v -0.2129999924 -0.225 0.0375
v 0.2129999924 -0.205 0.03257999897
v -0.2129999924 -0.205 0.03257999897
v -0.2129999924 -0.205 0.0375
v 0.2129999924 -0.205 0.0375
v -0.2129999924 -0.2170999908 0.02799999952
v -0.2129999924 -0.2163093376 0.02635815382
v -0.2129999924 -0.2145326996 0.0259526515
v -0.2129999924 -0.2131079674 0.02708884478
v -0.2129999924 -0.2131079674 0.02891115665
v -0.2129999924 -0.2145326996 0.03004734755
v -0.2129999924 -0.2163093376 0.02964184523
v -0.2129999924 -0.2195800018 0.03799999952
v -0.2129999924 -0.218125 0.03654500008
v -0.2129999924 -0.218125 0.03619999886
v -0.2129999924 -0.2204999924 0.03619999886
v -0.2129999924 -0.2204999924 0.03456066132
v -0.2129999924 -0.2178393364 0.03190000057
v -0.2129999924 -0.2152099991 0.03190000057
v -0.2129999924 -0.215 0.0316899991
v -0.2129999924 -0.2147900009 0.03190000057
v -0.2129999924 -0.2121606636 0.03190000057
v -0.2129999924 -0.2095000076 0.03456066132
v -0.2129999924 -0.2095000076 0.03619999886
v -0.2129999924 -0.211875 0.03619999886
v -0.2129999924 -0.211875 0.03654500008
v -0.2129999924 -0.2104199982 0.03799999952
v -0.2129999924 -0.2054999924 0.03799999952
v -0.2129999924 -0.2052499962 0.03793301344
v -0.2129999924 -0.2050669861 0.03775000095
v -0.2129999924 -0.205 0.0375
v -0.2129999924 -0.205 0.03257999897
v -0.2129999924 -0.2064550018 0.03112499952
v -0.2129999924 -0.2068000031 0.03112499952
v -0.2129999924 -0.2068000031 0.03349999905
v -0.2129999924 -0.2084393311 0.03349999905
v -0.2129999924 -0.2111000061 0.03083934069
v -0.2129999924 -0.2111000061 0.02821000099
v -0.2129999924 -0.2113100052 0.02799999952
v -0.2129999924 -0.2111000061 0.02779000044
v -0.2129999924 -0.2111000061 0.02516066074
v -0.2129999924 -0.2084393311 0.0225
v -0.2129999924 -0.2068000031 0.0225
v -0.2129999924 -0.2068000031 0.02487499952
v -0.2129999924 -0.2064550018 0.02487499952
v -0.2129999924 -0.205 0.02342000008
v -0.2129999924 -0.205 0.01850000024
v -0.2129999924 -0.2050669861 0.01825000048
v -0.2129999924 -0.2052499962 0.0180669868
v -0.2129999924 -0.2054999924 0.01799999952
v -0.2129999924 -0.2104199982 0.01799999952
v -0.2129999924 -0.211875 0.01945500016
v -0.2129999924 -0.211875 0.01980000019
v -0.2129999924 -0.2095000076 0.01980000019
v -0.2129999924 -0.2095000076 0.02143934011
v -0.2129999924 -0.2121606636 0.02410000086
v -0.2129999924 -0.2147900009 0.02410000086
v -0.2129999924 -0.215 0.02430999994
v -0.2129999924 -0.2152099991 0.02410000086
v -0.2129999924 -0.2178393364 0.02410000086
v -0.2129999924 -0.2204999924 0.02143934011
v -0.2129999924 -0.2204999924 0.01980000019
v -0.2129999924 -0.218125 0.01980000019
v -0.2129999924 -0.218125 0.01945500016
v -0.2129999924 -0.2195800018 0.01799999952
v -0.2129999924 -0.2245000076 0.01799999952
v -0.2129999924 -0.2247500038 0.0180669868
v -0.2129999924 -0.2249330139 0.01825000048
v -0.2129999924 -0.225 0.01850000024
v -0.2129999924 -0.225 0.02342000008
v -0.2129999924 -0.2235449982 0.02487499952
v -0.2129999924 -0.2231999969 0.02487499952
v -0.2129999924 -0.2231999969 0.0225
v -0.2129999924 -0.2215606689 0.0225
v -0.2129999924 -0.2188999939 0.02516066074
v -0.2129999924 -0.2188999939 0.02779000044
v -0.2129999924 -0.2186899948 0.02799999952
v -0.2129999924 -0.2188999939 0.02821000099
v -0.2129999924 -0.2188999939 0.03083934069
v -0.2129999924 -0.2215606689 0.03349999905
v -0.2129999924 -0.2231999969 0.03349999905
v -0.2129999924 -0.2231999969 0.03112499952
v -0.2129999924 -0.2235449982 0.03112499952
v -0.2129999924 -0.225 0.03257999897
v -0.2129999924 -0.225 0.0375
v -0.2129999924 -0.2249330139 0.03775000095
v -0.2129999924 -0.2247500038 0.03793301344
v -0.2129999924 -0.2245000076 0.03799999952
v 0.2129999924 -0.205 0.01850000024
v 0.2129999924 -0.2050669861 0.01825000048
v 0.2129999924 -0.2052499962 0.0180669868
v 0.2129999924 -0.2054999924 0.01799999952
v -0.2129999924 -0.2054999924 0.01799999952
v -0.2129999924 -0.2052499962 0.0180669868
v -0.2129999924 -0.2050669861 0.01825000048
v -0.2129999924 -0.205 0.01850000024
v -0.2129999924 -0.2178393364 0.02410000086
v -0.2129999924 -0.2152099991 0.02410000086
v 0.2129999924 -0.2152099991 0.02410000086
v 0.2129999924 -0.2178393364 0.02410000086
v 0.2129999924 -0.2054999924 0.03799999952
v 0.2129999924 -0.2052499962 0.03793301344
v 0.2129999924 -0.2050669861 0.03775000095
v 0.2129999924 -0.205 0.0375
v -0.2129999924 -0.205 0.0375
v -0.2129999924 -0.2050669861 0.03775000095
v -0.2129999924 -0.2052499962 0.03793301344
v -0.2129999924 -0.2054999924 0.03799999952
v -0.2129999924 -0.215 0.0316899991
v -0.2129999924 -0.2152099991 0.03190000057
v 0.2129999924 -0.2152099991 0.03190000057
v 0.2129999924 -0.215 0.0316899991
v -0.2129999924 -0.211875 0.03654500008
v -0.2129999924 -0.211875 0.03619999886
v 0.2129999924 -0.211875 0.03619999886
v 0.2129999924 -0.211875 0.03654500008
v -0.2129999924 -0.2104199982 0.03799999952
v -0.2129999924 -0.211875 0.03654500008
v 0.2129999924 -0.211875 0.03654500008
v 0.2129999924 -0.2104199982 0.03799999952
v -0.2129999924 -0.2235449982 0.03112499952
v -0.2129999924 -0.2231999969 0.03112499952
v 0.2129999924 -0.2231999969 0.03112499952
v 0.2129999924 -0.2235449982 0.03112499952
v 0.2129999924 -0.2170999908 0.02799999952
v 0.2129999924 -0.2163093376 0.02635815382
v 0.2129999924 -0.2145326996 0.0259526515
v 0.2129999924 -0.2131079674 0.02708884478
v 0.2129999924 -0.2131079674 0.02891115665
v 0.2129999924 -0.2145326996 0.03004734755
v 0.2129999924 -0.2163093376 0.02964184523
v -0.2129999924 -0.2170999908 0.02799999952
v -0.2129999924 -0.2163093376 0.02964184523
v -0.2129999924 -0.2145326996 0.03004734755
v -0.2129999924 -0.2131079674 0.02891115665
v -0.2129999924 -0.2131079674 0.02708884478
v -0.2129999924 -0.2145326996 0.0259526515
v -0.2129999924 -0.2163093376 0.02635815382
v 0.2129999924 -0.2170999908 0.02799999952
v -0.2129999924 -0.2170999908 0.02799999952
v -0.2129999924 -0.2068000031 0.02487499952
v -0.2129999924 -0.2068000031 0.0225
v 0.2129999924 -0.2068000031 0.0225
v 0.2129999924 -0.2068000031 0.02487499952
v -0.2129999924 -0.218125 0.01980000019
v -0.2129999924 -0.2204999924 0.01980000019
v 0.2129999924 -0.2204999924 0.01980000019
v 0.2129999924 -0.218125 0.01980000019
v -0.2129999924 -0.2068000031 0.0225
v -0.2129999924 -0.2084393311 0.0225
v 0.2129999924 -0.2084393311 0.0225
v 0.2129999924 -0.2068000031 0.0225
v -0.2129999924 -0.2231999969 0.03112499952
v -0.2129999924 -0.2231999969 0.03349999905
v 0.2129999924 -0.2231999969 0.03349999905
v 0.2129999924 -0.2231999969 0.03112499952
v -0.2129999924 -0.2188999939 0.03083934069
v -0.2129999924 -0.2188999939 0.02821000099
v 0.2129999924 -0.2188999939 0.02821000099
v 0.2129999924 -0.2188999939 0.03083934069
v -0.2129999924 -0.2121606636 0.03190000057
v -0.2129999924 -0.2147900009 0.03190000057
v 0.2129999924 -0.2147900009 0.03190000057
v 0.2129999924 -0.2121606636 0.03190000057
v -0.2129999924 -0.205 0.02342000008
v -0.2129999924 -0.2064550018 0.02487499952
v 0.2129999924 -0.2064550018 0.02487499952
v 0.2129999924 -0.205 0.02342000008
v -0.2129999924 -0.225 0.03257999897
v -0.2129999924 -0.2235449982 0.03112499952
v 0.2129999924 -0.2235449982 0.03112499952
v 0.2129999924 -0.225 0.03257999897
v -0.2129999924 -0.2204999924 0.02143934011
v -0.2129999924 -0.2178393364 0.02410000086
v 0.2129999924 -0.2178393364 0.02410000086
v 0.2129999924 -0.2204999924 0.02143934011
v -0.2129999924 -0.2095000076 0.03619999886
v -0.2129999924 -0.2095000076 0.03456066132
v 0.2129999924 -0.2095000076 0.03456066132
v 0.2129999924 -0.2095000076 0.03619999886
v -0.2129999924 -0.2147900009 0.03190000057
v -0.2129999924 -0.215 0.0316899991
v 0.2129999924 -0.215 0.0316899991
v 0.2129999924 -0.2147900009 0.03190000057
v -0.2129999924 -0.218125 0.01945500016
v -0.2129999924 -0.218125 0.01980000019
v 0.2129999924 -0.218125 0.01980000019
v 0.2129999924 -0.218125 0.01945500016
v -0.2129999924 -0.2204999924 0.01980000019
v -0.2129999924 -0.2204999924 0.02143934011
v 0.2129999924 -0.2204999924 0.02143934011
v 0.2129999924 -0.2204999924 0.01980000019
v -0.2129999924 -0.2195800018 0.01799999952
v -0.2129999924 -0.218125 0.01945500016
v 0.2129999924 -0.218125 0.01945500016
v 0.2129999924 -0.2195800018 0.01799999952
v -0.2129999924 -0.211875 0.03619999886
v -0.2129999924 -0.2095000076 0.03619999886
v 0.2129999924 -0.2095000076 0.03619999886
v 0.2129999924 -0.211875 0.03619999886
v -0.2129999924 -0.2231999969 0.03349999905
v -0.2129999924 -0.2215606689 0.03349999905
v 0.2129999924 -0.2215606689 0.03349999905
v 0.2129999924 -0.2231999969 0.03349999905
v -0.2129999924 -0.2215606689 0.03349999905
v -0.2129999924 -0.2188999939 0.03083934069
v 0.2129999924 -0.2188999939 0.03083934069
v 0.2129999924 -0.2215606689 0.03349999905
v -0.2129999924 -0.2064550018 0.02487499952
v -0.2129999924 -0.2068000031 0.02487499952
v 0.2129999924 -0.2068000031 0.02487499952
v 0.2129999924 -0.2064550018 0.02487499952
v -0.2129999924 -0.2095000076 0.03456066132
v -0.2129999924 -0.2121606636 0.03190000057
v 0.2129999924 -0.2121606636 0.03190000057
v 0.2129999924 -0.2095000076 0.03456066132
v -0.2129999924 -0.2204999924 0.03619999886
v -0.2129999924 -0.218125 0.03619999886
v 0.2129999924 -0.218125 0.03619999886
v 0.2129999924 -0.2204999924 0.03619999886
v -0.2129999924 -0.2204999924 0.03456066132
v -0.2129999924 -0.2204999924 0.03619999886
v 0.2129999924 -0.2204999924 0.03619999886
v 0.2129999924 -0.2204999924 0.03456066132
v -0.2129999924 -0.2152099991 0.02410000086
v -0.2129999924 -0.215 0.02430999994
v 0.2129999924 -0.215 0.02430999994
v 0.2129999924 -0.2152099991 0.02410000086
v -0.2129999924 -0.2188999939 0.02516066074
v -0.2129999924 -0.2215606689 0.0225
v 0.2129999924 -0.2215606689 0.0225
v 0.2129999924 -0.2188999939 0.02516066074
v -0.2129999924 -0.2147900009 0.02410000086
v -0.2129999924 -0.2121606636 0.02410000086
v 0.2129999924 -0.2121606636 0.02410000086
v 0.2129999924 -0.2147900009 0.02410000086
v -0.2129999924 -0.2064550018 0.03112499952
v -0.2129999924 -0.205 0.03257999897
v 0.2129999924 -0.205 0.03257999897
v 0.2129999924 -0.2064550018 0.03112499952
v -0.2129999924 -0.211875 0.01980000019
v -0.2129999924 -0.211875 0.01945500016
v 0.2129999924 -0.211875 0.01945500016
v 0.2129999924 -0.211875 0.01980000019
v -0.2129999924 -0.2095000076 0.01980000019
v -0.2129999924 -0.211875 0.01980000019
v 0.2129999924 -0.211875 0.01980000019
v 0.2129999924 -0.2095000076 0.01980000019
v -0.2129999924 -0.2152099991 0.03190000057
v -0.2129999924 -0.2178393364 0.03190000057
v 0.2129999924 -0.2178393364 0.03190000057
v 0.2129999924 -0.2152099991 0.03190000057
v -0.2129999924 -0.2068000031 0.03112499952
v -0.2129999924 -0.2064550018 0.03112499952
v 0.2129999924 -0.2064550018 0.03112499952
v 0.2129999924 -0.2068000031 0.03112499952
v -0.2129999924 -0.2178393364 0.03190000057
v -0.2129999924 -0.2204999924 0.03456066132
v 0.2129999924 -0.2204999924 0.03456066132
v 0.2129999924 -0.2178393364 0.03190000057
v -0.2129999924 -0.218125 0.03654500008
v -0.2129999924 -0.2195800018 0.03799999952
v 0.2129999924 -0.2195800018 0.03799999952
v 0.2129999924 -0.218125 0.03654500008
v -0.2129999924 -0.2186899948 0.02799999952
v -0.2129999924 -0.2188999939 0.02779000044
v 0.2129999924 -0.2188999939 0.02779000044
v 0.2129999924 -0.2186899948 0.02799999952
v -0.2129999924 -0.215 0.02430999994
v -0.2129999924 -0.2147900009 0.02410000086
v 0.2129999924 -0.2147900009 0.02410000086
v 0.2129999924 -0.215 0.02430999994
v -0.2129999924 -0.211875 0.01945500016
v -0.2129999924 -0.2104199982 0.01799999952
v 0.2129999924 -0.2104199982 0.01799999952
v 0.2129999924 -0.211875 0.01945500016
v -0.2129999924 -0.218125 0.03619999886
v -0.2129999924 -0.218125 0.03654500008
v 0.2129999924 -0.218125 0.03654500008
v 0.2129999924 -0.218125 0.03619999886
v -0.2129999924 -0.2111000061 0.02779000044
v -0.2129999924 -0.2113100052 0.02799999952
v 0.2129999924 -0.2113100052 0.02799999952
v 0.2129999924 -0.2111000061 0.02779000044
v -0.2129999924 -0.2235449982 0.02487499952
v -0.2129999924 -0.225 0.02342000008
v 0.2129999924 -0.225 0.02342000008
v 0.2129999924 -0.2235449982 0.02487499952
v -0.2129999924 -0.2188999939 0.02779000044
v -0.2129999924 -0.2188999939 0.02516066074
v 0.2129999924 -0.2188999939 0.02516066074
v 0.2129999924 -0.2188999939 0.02779000044
v -0.2129999924 -0.2113100052 0.02799999952
v -0.2129999924 -0.2111000061 0.02821000099
v 0.2129999924 -0.2111000061 0.02821000099
v 0.2129999924 -0.2113100052 0.02799999952
v -0.2129999924 -0.2111000061 0.02516066074
v -0.2129999924 -0.2111000061 0.02779000044
v 0.2129999924 -0.2111000061 0.02779000044
v 0.2129999924 -0.2111000061 0.02516066074
v -0.2129999924 -0.205 0.02342000008
v 0.2129999924 -0.205 0.02342000008
v 0.2129999924 -0.205 0.01850000024
v -0.2129999924 -0.205 0.01850000024
v -0.2129999924 -0.2104199982 0.03799999952
v 0.2129999924 -0.2104199982 0.03799999952
v 0.2129999924 -0.2054999924 0.03799999952
v -0.2129999924 -0.2054999924 0.03799999952
v 0.2129999924 -0.225 0.02342000008
v -0.2129999924 -0.225 0.02342000008
v -0.2129999924 -0.225 0.01850000024
v 0.2129999924 -0.225 0.01850000024
v -0.2129999924 -0.2195800018 0.01799999952
v 0.2129999924 -0.2195800018 0.01799999952
v 0.2129999924 -0.2245000076 0.01799999952
v -0.2129999924 -0.2245000076 0.01799999952
f 1 2 4
f 4 2 3
f 5 6 8
f 8 6 7
f 9 10 12
f 12 10 11
f 13 14 16
f 16 14 15
f 17 18 20
f 20 18 19
f 21 22 24
f 24 22 23
f 25 26 28
f 28 26 27
f 29 30 32
f 32 30 31
f 33 34 36
f 36 34 35
f 37 38 40
f 40 38 39
f 41 42 44
f 44 42 43
f 46 47 45
f 45 47 48
f 56 49 55
f 55 49 50
f 55 50 54
f 54 50 51
f 54 51 53
f 53 51 52
f 58 59 57
f 57 59 60
f 136 61 135
f 135 61 62
f 135 62 63
f 64 65 63
f 63 65 66
f 63 66 135
f 135 66 70
f 135 70 134
f 134 70 71
f 134 71 133
f 133 71 72
f 133 72 138
f 138 72 137
f 137 72 73
f 137 73 74
f 66 67 70
f 70 67 68
f 70 68 69
f 74 75 137
f 137 75 76
f 137 76 143
f 143 76 91
f 143 91 92
f 76 77 91
f 91 77 90
f 90 77 78
f 90 78 89
f 89 78 82
f 89 82 85
f 85 82 84
f 84 82 83
f 79 80 78
f 78 80 81
f 78 81 82
f 85 86 89
f 89 86 87
f 89 87 88
f 92 93 143
f 143 93 142
f 142 93 94
f 142 94 95
f 96 109 95
f 95 109 110
f 95 110 141
f 141 110 111
f 141 111 112
f 109 96 104
f 104 96 97
f 104 97 101
f 101 97 100
f 100 97 99
f 99 97 98
f 101 102 104
f 104 102 103
f 109 104 108
f 108 104 105
f 108 105 106
f 106 107 108
f 141 112 140
f 140 112 113
f 140 113 114
f 140 114 129
f 129 114 115
f 129 115 128
f 128 115 116
f 128 116 127
f 127 116 120
f 127 120 123
f 123 120 121
f 123 121 122
f 117 118 116
f 116 118 119
f 116 119 120
f 123 124 127
f 127 124 125
f 127 125 126
f 140 129 139
f 139 129 130
f 139 130 131
f 139 131 138
f 138 131 132
f 138 132 133
f 141 142 95
f 151 144 150
f 150 144 145
f 150 145 149
f 149 145 146
f 149 146 148
f 148 146 147
f 153 154 152
f 152 154 155
f 157 158 156
f 156 158 159
f 161 229 160
f 160 229 230
f 160 230 231
f 162 212 161
f 161 212 213
f 161 213 214
f 163 210 162
f 162 210 211
f 162 211 212
f 164 193 163
f 163 193 194
f 163 194 195
f 165 176 164
f 164 176 191
f 164 191 192
f 166 174 165
f 165 174 175
f 165 175 176
f 160 233 166
f 166 233 172
f 166 172 173
f 242 167 170
f 170 167 168
f 170 168 169
f 171 235 170
f 170 235 239
f 170 239 242
f 242 239 240
f 242 240 241
f 235 171 234
f 234 171 172
f 234 172 233
f 173 174 166
f 191 176 190
f 190 176 177
f 190 177 189
f 189 177 178
f 189 178 185
f 185 178 182
f 185 182 184
f 184 182 183
f 179 180 178
f 178 180 181
f 178 181 182
f 185 186 189
f 189 186 187
f 189 187 188
f 192 193 164
f 163 195 210
f 210 195 196
f 210 196 209
f 209 196 197
f 209 197 208
f 208 197 201
f 208 201 204
f 204 201 203
f 203 201 202
f 198 199 197
f 197 199 200
f 197 200 201
f 204 205 208
f 208 205 206
f 208 206 207
f 215 228 214
f 214 228 229
f 214 229 161
f 228 215 223
f 223 215 216
f 223 216 220
f 220 216 219
f 219 216 218
f 218 216 217
f 220 221 223
f 223 221 222
f 228 223 227
f 227 223 224
f 227 224 225
f 225 226 227
f 231 232 160
f 160 232 233
f 236 237 235
f 235 237 238
f 235 238 239
f 250 243 249
f 249 243 244
f 249 244 248
f 248 244 245
f 248 245 247
f 247 245 246
f 251 252 254
f 254 252 253
f 262 255 261
f 261 255 256
f 261 256 260
f 260 256 257
f 260 257 259
f 259 257 258
f 263 264 266
f 266 264 265
f 267 268 270
f 270 268 269
f 271 272 274
f 274 272 273
f 275 276 278
f 278 276 277
f 280 292 279
f 279 292 294
f 293 286 285
f 285 286 287
f 285 287 284
f 284 287 288
f 284 288 283
f 283 288 289
f 283 289 282
f 282 289 290
f 282 290 281
f 281 290 291
f 281 291 280
f 280 291 292
f 295 296 298
f 298 296 297
f 299 300 302
f 302 300 301
f 303 304 306
f 306 304 305
f 307 308 310
f 310 308 309
f 311 312 314
f 314 312 313
f 315 316 318
f 318 316 317
f 319 320 322
f 322 320 321
f 323 324 326
f 326 324 325
f 327 328 330
f 330 328 329
f 331 332 334
f 334 332 333
f 335 336 338
f 338 336 337
f 339 340 342
f 342 340 341
f 343 344 346
f 346 344 345
f 347 348 350
f 350 348 349
f 351 352 354
f 354 352 353
f 355 356 358
f 358 356 357
f 359 360 362
f 362 360 361
f 363 364 366
f 366 364 365
f 367 368 370
f 370 368 369
f 371 372 374
f 374 372 373
f 375 376 378
f 378 376 377
f 379 380 382
f 382 380 381
f 383 384 386
f 386 384 385
f 387 388 390
f 390 388 389
f 391 392 394
f 394 392 393
f 395 396 398
f 398 396 397
f 399 400 402
f 402 400 401
f 403 404 406
f 406 404 405
f 407 408 410
f 410 408 409
f 411 412 414
f 414 412 413
f 415 416 418
f 418 416 417
f 419 420 422
f 422 420 421
f 423 424 426
f 426 424 425
f 427 428 430
f 430 428 429
f 431 432 434
f 434 432 433
f 435 436 438
f 438 436 437
f 439 440 442
f 442 440 441
f 443 444 446
f 446 444 445
f 447 448 450
f 450 448 449
f 451 452 454
f 454 452 453
f 456 457 455
f 455 457 458
f 460 461 459
f 459 461 462
f 464 465 463
f 463 465 466
f 468 469 467
f 467 469 470
