v -0.171296711 -0.02690000057 0.4198767702
v -0.1721586103 -0.02690000057 0.4236529757
v -0.174573586 -0.02690000057 0.4266812688
v -0.1780633503 -0.02690000057 0.4283618467
v -0.1819366795 -0.02690000057 0.4283618399
v -0.1854264379 -0.02690000057 0.4266812498
v -0.187841403 -0.02690000057 0.4236529481
v -0.188703289 -0.02690000057 0.4198767396
v -0.1878413897 -0.02690000057 0.4161005151
v -0.185426414 -0.02690000057 0.4130722219
v -0.1819366497 -0.02690000057 0.4113916632
v -0.1780633205 -0.02690000057 0.41139167
v -0.1745735621 -0.02690000057 0.413072241
v -0.172158597 -0.02690000057 0.4161005426
v -0.171296711 -0.02523333311 0.4198767702
v -0.172158597 -0.02523333311 0.4161005426
v -0.1745735621 -0.02523333311 0.413072241
v -0.1780633205 -0.02523333311 0.41139167
v -0.1819366497 -0.02523333311 0.4113916632
v -0.185426414 -0.02523333311 0.4130722219
v -0.1878413897 -0.02523333311 0.4161005151
v -0.188703289 -0.02523333311 0.4198767396
v -0.187841403 -0.02523333311 0.4236529481
v -0.1854264379 -0.02523333311 0.4266812498
v -0.1819366795 -0.02523333311 0.4283618399
v -0.1780633503 -0.02523333311 0.4283618467
v -0.174573586 -0.02523333311 0.4266812688
v -0.1721586103 -0.02523333311 0.4236529757
v -0.188703289 -0.02523333311 0.4198767396
v -0.188703289 -0.02690000057 0.4198767396
v -0.171296711 -0.02523333311 0.4198767702
v -0.1721586103 -0.02523333311 0.4236529757
v -0.174573586 -0.02523333311 0.4266812688
v -0.1780633503 -0.02523333311 0.4283618467
v -0.1819366795 -0.02523333311 0.4283618399
v -0.1854264379 -0.02523333311 0.4266812498
v -0.187841403 -0.02523333311 0.4236529481
v -0.188703289 -0.02523333311 0.4198767396
v -0.1878413897 -0.02523333311 0.4161005151
v -0.185426414 -0.02523333311 0.4130722219
v -0.1819366497 -0.02523333311 0.4113916632
v -0.1780633205 -0.02523333311 0.41139167
v -0.1745735621 -0.02523333311 0.413072241
v -0.172158597 -0.02523333311 0.4161005426
v -0.171296711 -0.0225666666 0.4198767702
v -0.172158597 -0.0225666666 0.4161005426
v -0.1745735621 -0.0225666666 0.413072241
v -0.1780633205 -0.0225666666 0.41139167
v -0.1819366497 -0.0225666666 0.4113916632
v -0.185426414 -0.0225666666 0.4130722219
v -0.1878413897 -0.0225666666 0.4161005151
v -0.188703289 -0.0225666666 0.4198767396
v -0.187841403 -0.0225666666 0.4236529481
v -0.1854264379 -0.0225666666 0.4266812498
v -0.1819366795 -0.0225666666 0.4283618399
v -0.1780633503 -0.0225666666 0.4283618467
v -0.174573586 -0.0225666666 0.4266812688
v -0.1721586103 -0.0225666666 0.4236529757
v -0.188703289 -0.0225666666 0.4198767396
v -0.188703289 -0.02523333311 0.4198767396
v -0.1895074463 -0.02390000105 0.4198767382
v -0.1895074463 -0.02390000105 0.4198767382
v -0.1714340855 -0.02390000105 0.4240018882
v -0.1704925537 -0.02390000105 0.4198767716
v -0.1740722214 -0.02390000105 0.427309989
v -0.1778844042 -0.02390000105 0.4291458245
v -0.1821156283 -0.02390000105 0.4291458171
v -0.1859278046 -0.02390000105 0.4273099682
v -0.188565929 -0.02390000105 0.4240018581
v -0.1885659145 -0.02390000105 0.4157516026
v -0.1859277786 -0.02390000105 0.4124435208
v -0.1821155958 -0.02390000105 0.4106076663
v -0.1778843717 -0.02390000105 0.4106076737
v -0.1740721954 -0.02390000105 0.4124435416
v -0.171434071 -0.02390000105 0.4157516326
v -0.171296711 -0.0225666666 0.4198767702
v -0.1721586103 -0.0225666666 0.4236529757
v -0.174573586 -0.0225666666 0.4266812688
v -0.1780633503 -0.0225666666 0.4283618467
v -0.1819366795 -0.0225666666 0.4283618399
v -0.1854264379 -0.0225666666 0.4266812498
v -0.187841403 -0.0225666666 0.4236529481
v -0.188703289 -0.0225666666 0.4198767396
v -0.1878413897 -0.0225666666 0.4161005151
v -0.185426414 -0.0225666666 0.4130722219
v -0.1819366497 -0.0225666666 0.4113916632
v -0.1780633205 -0.0225666666 0.41139167
v -0.1745735621 -0.0225666666 0.413072241
v -0.172158597 -0.0225666666 0.4161005426
v -0.171296711 -0.02089999914 0.4198767702
v -0.172158597 -0.02089999914 0.4161005426
v -0.1745735621 -0.02089999914 0.413072241
v -0.1780633205 -0.02089999914 0.41139167
v -0.1819366497 -0.02089999914 0.4113916632
v -0.185426414 -0.02089999914 0.4130722219
v -0.1878413897 -0.02089999914 0.4161005151
v -0.188703289 -0.02089999914 0.4198767396
v -0.187841403 -0.02089999914 0.4236529481
v -0.1854264379 -0.02089999914 0.4266812498
v -0.1819366795 -0.02089999914 0.4283618399
v -0.1780633503 -0.02089999914 0.4283618467
v -0.174573586 -0.02089999914 0.4266812688
v -0.1721586103 -0.02089999914 0.4236529757
v -0.188703289 -0.02089999914 0.4198767396
v -0.188703289 -0.0225666666 0.4198767396
v -0.1906999969 -0.02089999914 0.4198767361
v -0.1897749252 -0.02089999914 0.415524645
v -0.1871596769 -0.02089999914 0.4119250822
v -0.1833064664 -0.02089999914 0.4097004433
v -0.1788815312 -0.02089999914 0.4092353728
v -0.1746499853 -0.02089999914 0.4106102924
v -0.1713435063 -0.02089999914 0.4135874597
v -0.169533821 -0.02089999914 0.4176521181
v -0.1695338288 -0.02089999914 0.4221014284
v -0.1713435283 -0.02089999914 0.4261660615
v -0.1746500178 -0.02089999914 0.4291432362
v -0.1788815685 -0.02089999914 0.430518141
v -0.1833065021 -0.02089999914 0.4300530454
v -0.1871597048 -0.02089999914 0.4278283834
v -0.1897749405 -0.02089999914 0.4242288114
v -0.1910000038 -0.02119999886 0.4198767356
v -0.1900490076 -0.02119999886 0.4243508431
v -0.1873604536 -0.02119999886 0.4280513331
v -0.1833991997 -0.02119999886 0.4303383655
v -0.1788502122 -0.02119999886 0.4308164885
v -0.1745000243 -0.02119999886 0.4294030364
v -0.1711008185 -0.02119999886 0.4263423963
v -0.1692403833 -0.02119999886 0.4221637993
v -0.1692403753 -0.02119999886 0.4175897484
v -0.1711007958 -0.02119999886 0.4134111257
v -0.1744999909 -0.02119999886 0.4103504832
v -0.1788501738 -0.02119999886 0.4089370158
v -0.183399163 -0.02119999886 0.4094151229
v -0.187360425 -0.02119999886 0.4117021509
v -0.1900489919 -0.02119999886 0.4154026314
v -0.1695338288 -0.02089999914 0.4221014284
v -0.1692403833 -0.02119999886 0.4221637993
v -0.1689999962 -0.0250999999 0.4198767742
v -0.1699509924 -0.0250999999 0.4154026667
v -0.1726395464 -0.0250999999 0.4117021768
v -0.1766008003 -0.0250999999 0.4094151348
v -0.1811497878 -0.0250999999 0.4089370118
v -0.1854999757 -0.0250999999 0.4103504639
v -0.1888991815 -0.0250999999 0.4134110945
v -0.1907596167 -0.0250999999 0.4175897106
v -0.1907596247 -0.0250999999 0.4221637615
v -0.1888992042 -0.0250999999 0.4263423651
v -0.1855000091 -0.0250999999 0.4294030171
v -0.1811498262 -0.0250999999 0.4308164845
v -0.176600837 -0.0250999999 0.4303383774
v -0.172639575 -0.0250999999 0.4280513589
v -0.1699510081 -0.0250999999 0.4243508784
v -0.1910000038 -0.02119999886 0.4198767356
v -0.1900489919 -0.02119999886 0.4154026314
v -0.187360425 -0.02119999886 0.4117021509
v -0.183399163 -0.02119999886 0.4094151229
v -0.1788501738 -0.02119999886 0.4089370158
v -0.1744999909 -0.02119999886 0.4103504832
v -0.1711007958 -0.02119999886 0.4134111257
v -0.1692403753 -0.02119999886 0.4175897484
v -0.1692403833 -0.02119999886 0.4221637993
v -0.1711008185 -0.02119999886 0.4263423963
v -0.1745000243 -0.02119999886 0.4294030364
v -0.1788502122 -0.02119999886 0.4308164885
v -0.1833991997 -0.02119999886 0.4303383655
v -0.1873604536 -0.02119999886 0.4280513331
v -0.1900490076 -0.02119999886 0.4243508431
v -0.1907596167 -0.0250999999 0.4175897106
v -0.1910000038 -0.02119999886 0.4198767356
v -0.1693000031 -0.02539999962 0.4198767737
v -0.1702250595 -0.02539999962 0.4155246793
v -0.1728402952 -0.02539999962 0.4119251073
v -0.1766934979 -0.02539999962 0.409700455
v -0.1811184315 -0.02539999962 0.4092353688
v -0.1853499822 -0.02539999962 0.4106102737
v -0.1886564717 -0.02539999962 0.4135874293
v -0.1904661712 -0.02539999962 0.4176520814
v -0.190466179 -0.02539999962 0.4221013917
v -0.1886564937 -0.02539999962 0.4261660311
v -0.1853500147 -0.02539999962 0.4291432174
v -0.1811184688 -0.02539999962 0.4305181371
v -0.1766935336 -0.02539999962 0.430053057
v -0.1728403231 -0.02539999962 0.4278284086
v -0.1702250748 -0.02539999962 0.4242288457
v -0.1689999962 -0.0250999999 0.4198767742
v -0.1699510081 -0.0250999999 0.4243508784
v -0.172639575 -0.0250999999 0.4280513589
v -0.176600837 -0.0250999999 0.4303383774
v -0.1811498262 -0.0250999999 0.4308164845
v -0.1855000091 -0.0250999999 0.4294030171
v -0.1888992042 -0.0250999999 0.4263423651
v -0.1907596247 -0.0250999999 0.4221637615
v -0.1907596167 -0.0250999999 0.4175897106
v -0.1888991815 -0.0250999999 0.4134110945
v -0.1854999757 -0.0250999999 0.4103504639
v -0.1811497878 -0.0250999999 0.4089370118
v -0.1766008003 -0.0250999999 0.4094151348
v -0.1726395464 -0.0250999999 0.4117021768
v -0.1699509924 -0.0250999999 0.4154026667
v -0.190466179 -0.02539999962 0.4221013917
v -0.1907596247 -0.0250999999 0.4221637615
v -0.1675 -0.02690000057 0.4198767769
v -0.1684515083 -0.02690000057 0.4246603102
v -0.1711611712 -0.02690000057 0.4287155957
v -0.1752164853 -0.02690000057 0.4314252634
v -0.1800000219 -0.02690000057 0.4323767549
v -0.1847835553 -0.02690000057 0.4314252466
v -0.1888388598 -0.02690000057 0.4287155646
v -0.1915485085 -0.02690000057 0.4246602697
v -0.1925 -0.02690000057 0.419876733
v -0.1915484917 -0.02690000057 0.4150931806
v -0.1888388288 -0.02690000057 0.4110378951
v -0.1847835147 -0.02690000057 0.4083282465
v -0.1799999781 -0.02690000057 0.4073767549
v -0.1752164447 -0.02690000057 0.4083282633
v -0.1711611402 -0.02690000057 0.4110379261
v -0.1684514915 -0.02690000057 0.4150932211
v -0.171296711 -0.02690000057 0.4198767702
v -0.172158597 -0.02690000057 0.4161005426
v -0.1745735621 -0.02690000057 0.413072241
v -0.1780633205 -0.02690000057 0.41139167
v -0.1819366497 -0.02690000057 0.4113916632
v -0.185426414 -0.02690000057 0.4130722219
v -0.1878413897 -0.02690000057 0.4161005151
v -0.188703289 -0.02690000057 0.4198767396
v -0.187841403 -0.02690000057 0.4236529481
v -0.1854264379 -0.02690000057 0.4266812498
v -0.1819366795 -0.02690000057 0.4283618399
v -0.1780633503 -0.02690000057 0.4283618467
v -0.174573586 -0.02690000057 0.4266812688
v -0.1721586103 -0.02690000057 0.4236529757
v -0.1693000031 -0.02569999933 0.4198767737
v -0.1702250595 -0.02569999933 0.4155246793
v -0.1728402952 -0.02569999933 0.4119251073
v -0.1766934979 -0.02569999933 0.409700455
v -0.1811184315 -0.02569999933 0.4092353688
v -0.1853499822 -0.02569999933 0.4106102737
v -0.1886564717 -0.02569999933 0.4135874293
v -0.1904661712 -0.02569999933 0.4176520814
v -0.190466179 -0.02569999933 0.4221013917
v -0.1886564937 -0.02569999933 0.4261660311
v -0.1853500147 -0.02569999933 0.4291432174
v -0.1811184688 -0.02569999933 0.4305181371
v -0.1766935336 -0.02569999933 0.430053057
v -0.1728403231 -0.02569999933 0.4278284086
v -0.1702250748 -0.02569999933 0.4242288457
v -0.1693000031 -0.02539999962 0.4198767737
v -0.1702250748 -0.02539999962 0.4242288457
v -0.1728403231 -0.02539999962 0.4278284086
v -0.1766935336 -0.02539999962 0.430053057
v -0.1811184688 -0.02539999962 0.4305181371
v -0.1853500147 -0.02539999962 0.4291432174
v -0.1886564937 -0.02539999962 0.4261660311
v -0.190466179 -0.02539999962 0.4221013917
v -0.1904661712 -0.02539999962 0.4176520814
v -0.1886564717 -0.02539999962 0.4135874293
v -0.1853499822 -0.02539999962 0.4106102737
v -0.1811184315 -0.02539999962 0.4092353688
v -0.1766934979 -0.02539999962 0.409700455
v -0.1728402952 -0.02539999962 0.4119251073
v -0.1702250595 -0.02539999962 0.4155246793
v -0.190466179 -0.02569999933 0.4221013917
v -0.190466179 -0.02539999962 0.4221013917
v -0.1689999962 -0.02569999933 0.4198767742
v -0.1699510081 -0.02569999933 0.4243508784
v -0.172639575 -0.02569999933 0.4280513589
v -0.176600837 -0.02569999933 0.4303383774
v -0.1811498262 -0.02569999933 0.4308164845
v -0.1855000091 -0.02569999933 0.4294030171
v -0.1888992042 -0.02569999933 0.4263423651
v -0.1907596247 -0.02569999933 0.4221637615
v -0.1907596167 -0.02569999933 0.4175897106
v -0.1888991815 -0.02569999933 0.4134110945
v -0.1854999757 -0.02569999933 0.4103504639
v -0.1811497878 -0.02569999933 0.4089370118
v -0.1766008003 -0.02569999933 0.4094151348
v -0.1726395464 -0.02569999933 0.4117021768
v -0.1699509924 -0.02569999933 0.4154026667
v -0.1687000084 -0.02539999962 0.4198767748
v -0.1696769252 -0.02539999962 0.4152806541
v -0.1724388166 -0.02539999962 0.4114792271
v -0.1765080836 -0.02539999962 0.4091298242
v -0.1811811441 -0.02539999962 0.4086386547
v -0.1856499882 -0.02539999962 0.4100906542
v -0.1891418722 -0.02539999962 0.4132347597
v -0.1910530621 -0.02539999962 0.4175273398
v -0.1910530704 -0.02539999962 0.4222261313
v -0.1891418955 -0.02539999962 0.4265187181
v -0.1856500225 -0.02539999962 0.4296628359
v -0.1811811835 -0.02539999962 0.431114851
v -0.1765081213 -0.02539999962 0.4306236978
v -0.1724388461 -0.02539999962 0.4282743092
v -0.1696769414 -0.02539999962 0.424472892
v -0.1907596167 -0.02569999933 0.4175897106
v -0.1910530621 -0.02539999962 0.4175273398
v -0.1675 -0.02690000057 0.4198767769
v -0.1684514915 -0.02690000057 0.4150932211
v -0.1711611402 -0.02690000057 0.4110379261
v -0.1752164447 -0.02690000057 0.4083282633
v -0.1799999781 -0.02690000057 0.4073767549
v -0.1847835147 -0.02690000057 0.4083282465
v -0.1888388288 -0.02690000057 0.4110378951
v -0.1915484917 -0.02690000057 0.4150931806
v -0.1925 -0.02690000057 0.419876733
v -0.1915485085 -0.02690000057 0.4246602697
v -0.1888388598 -0.02690000057 0.4287155646
v -0.1847835553 -0.02690000057 0.4314252466
v -0.1800000219 -0.02690000057 0.4323767549
v -0.1752164853 -0.02690000057 0.4314252634
v -0.1711611712 -0.02690000057 0.4287155957
v -0.1684515083 -0.02690000057 0.4246603102
v -0.1675 -0.02539999962 0.4198767769
v -0.1684515083 -0.02539999962 0.4246603102
v -0.1711611712 -0.02539999962 0.4287155957
v -0.1752164853 -0.02539999962 0.4314252634
v -0.1800000219 -0.02539999962 0.4323767549
v -0.1847835553 -0.02539999962 0.4314252466
v -0.1888388598 -0.02539999962 0.4287155646
v -0.1915485085 -0.02539999962 0.4246602697
v -0.1925 -0.02539999962 0.419876733
v -0.1915484917 -0.02539999962 0.4150931806
v -0.1888388288 -0.02539999962 0.4110378951
v -0.1847835147 -0.02539999962 0.4083282465
v -0.1799999781 -0.02539999962 0.4073767549
v -0.1752164447 -0.02539999962 0.4083282633
v -0.1711611402 -0.02539999962 0.4110379261
v -0.1684514915 -0.02539999962 0.4150932211
v -0.1925 -0.02690000057 0.419876733
v -0.1925 -0.02539999962 0.419876733
v -0.1906999969 -0.02089999914 0.4198767361
v -0.1897749405 -0.02089999914 0.4242288114
v -0.1871597048 -0.02089999914 0.4278283834
v -0.1833065021 -0.02089999914 0.4300530454
v -0.1788815685 -0.02089999914 0.430518141
v -0.1746500178 -0.02089999914 0.4291432362
v -0.1713435283 -0.02089999914 0.4261660615
v -0.1695338288 -0.02089999914 0.4221014284
v -0.169533821 -0.02089999914 0.4176521181
v -0.1713435063 -0.02089999914 0.4135874597
v -0.1746499853 -0.02089999914 0.4106102924
v -0.1788815312 -0.02089999914 0.4092353728
v -0.1833064664 -0.02089999914 0.4097004433
v -0.1871596769 -0.02089999914 0.4119250822
v -0.1897749252 -0.02089999914 0.415524645
v -0.171296711 -0.02089999914 0.4198767702
v -0.1721586103 -0.02089999914 0.4236529757
v -0.174573586 -0.02089999914 0.4266812688
v -0.1780633503 -0.02089999914 0.4283618467
v -0.1819366795 -0.02089999914 0.4283618399
v -0.1854264379 -0.02089999914 0.4266812498
v -0.187841403 -0.02089999914 0.4236529481
v -0.188703289 -0.02089999914 0.4198767396
v -0.1878413897 -0.02089999914 0.4161005151
v -0.185426414 -0.02089999914 0.4130722219
v -0.1819366497 -0.02089999914 0.4113916632
v -0.1780633205 -0.02089999914 0.41139167
v -0.1745735621 -0.02089999914 0.413072241
v -0.172158597 -0.02089999914 0.4161005426
v -0.1675 -0.02539999962 0.4198767769
v -0.1684514915 -0.02539999962 0.4150932211
v -0.1711611402 -0.02539999962 0.4110379261
v -0.1752164447 -0.02539999962 0.4083282633
v -0.1799999781 -0.02539999962 0.4073767549
v -0.1847835147 -0.02539999962 0.4083282465
v -0.1888388288 -0.02539999962 0.4110378951
v -0.1915484917 -0.02539999962 0.4150931806
v -0.1925 -0.02539999962 0.419876733
v -0.1915485085 -0.02539999962 0.4246602697
v -0.1888388598 -0.02539999962 0.4287155646
v -0.1847835553 -0.02539999962 0.4314252466
v -0.1800000219 -0.02539999962 0.4323767549
v -0.1752164853 -0.02539999962 0.4314252634
v -0.1711611712 -0.02539999962 0.4287155957
v -0.1684515083 -0.02539999962 0.4246603102
v -0.1687000084 -0.02539999962 0.4198767748
v -0.1696769414 -0.02539999962 0.424472892
v -0.1724388461 -0.02539999962 0.4282743092
v -0.1765081213 -0.02539999962 0.4306236978
v -0.1811811835 -0.02539999962 0.431114851
v -0.1856500225 -0.02539999962 0.4296628359
v -0.1891418955 -0.02539999962 0.4265187181
v -0.1910530704 -0.02539999962 0.4222261313
v -0.1910530621 -0.02539999962 0.4175273398
v -0.1891418722 -0.02539999962 0.4132347597
v -0.1856499882 -0.02539999962 0.4100906542
v -0.1811811441 -0.02539999962 0.4086386547
v -0.1765080836 -0.02539999962 0.4091298242
v -0.1724388166 -0.02539999962 0.4114792271
v -0.1696769252 -0.02539999962 0.4152806541
v -0.1689999962 -0.02569999933 0.4198767742
v -0.1699509924 -0.02569999933 0.4154026667
v -0.1726395464 -0.02569999933 0.4117021768
v -0.1766008003 -0.02569999933 0.4094151348
v -0.1811497878 -0.02569999933 0.4089370118
v -0.1854999757 -0.02569999933 0.4103504639
v -0.1888991815 -0.02569999933 0.4134110945
v -0.1907596167 -0.02569999933 0.4175897106
v -0.1907596247 -0.02569999933 0.4221637615
v -0.1888992042 -0.02569999933 0.4263423651
v -0.1855000091 -0.02569999933 0.4294030171
v -0.1811498262 -0.02569999933 0.4308164845
v -0.176600837 -0.02569999933 0.4303383774
v -0.172639575 -0.02569999933 0.4280513589
v -0.1699510081 -0.02569999933 0.4243508784
v -0.1693000031 -0.02569999933 0.4198767737
v -0.1702250748 -0.02569999933 0.4242288457
v -0.1728403231 -0.02569999933 0.4278284086
v -0.1766935336 -0.02569999933 0.430053057
v -0.1811184688 -0.02569999933 0.4305181371
v -0.1853500147 -0.02569999933 0.4291432174
v -0.1886564937 -0.02569999933 0.4261660311
v -0.190466179 -0.02569999933 0.4221013917
v -0.1904661712 -0.02569999933 0.4176520814
v -0.1886564717 -0.02569999933 0.4135874293
v -0.1853499822 -0.02569999933 0.4106102737
v -0.1811184315 -0.02569999933 0.4092353688
v -0.1766934979 -0.02569999933 0.409700455
v -0.1728402952 -0.02569999933 0.4119251073
v -0.1702250595 -0.02569999933 0.4155246793
f 2 15 1
f 1 15 16
f 1 16 14
f 14 16 17
f 14 17 13
f 13 17 18
f 13 18 12
f 12 18 19
f 12 19 11
f 11 19 20
f 11 20 10
f 10 20 21
f 10 21 9
f 9 21 8
f 8 21 29
f 30 22 7
f 7 22 23
f 7 23 24
f 15 2 28
f 28 2 3
f 28 3 27
f 27 3 4
f 27 4 26
f 26 4 5
f 26 5 25
f 25 5 6
f 25 6 24
f 24 6 7
f 32 63 31
f 31 63 64
f 31 64 44
f 44 64 75
f 44 75 43
f 43 75 74
f 43 74 42
f 42 74 73
f 42 73 41
f 41 73 72
f 41 72 40
f 40 72 71
f 40 71 39
f 39 71 70
f 39 70 38
f 38 70 62
f 60 61 37
f 37 61 69
f 37 69 36
f 36 69 68
f 36 68 35
f 35 68 67
f 35 67 34
f 34 67 66
f 34 66 33
f 33 66 65
f 33 65 32
f 32 65 63
f 46 75 45
f 45 75 64
f 45 64 58
f 58 64 63
f 58 63 57
f 57 63 65
f 57 65 56
f 56 65 66
f 56 66 55
f 55 66 67
f 55 67 54
f 54 67 68
f 54 68 53
f 53 68 69
f 53 69 52
f 52 69 61
f 59 62 51
f 51 62 70
f 51 70 50
f 50 70 71
f 50 71 49
f 49 71 72
f 49 72 48
f 48 72 73
f 48 73 47
f 47 73 74
f 47 74 46
f 46 74 75
f 77 90 76
f 76 90 91
f 76 91 89
f 89 91 92
f 89 92 88
f 88 92 93
f 88 93 87
f 87 93 94
f 87 94 86
f 86 94 95
f 86 95 85
f 85 95 96
f 85 96 84
f 84 96 83
f 83 96 104
f 105 97 82
f 82 97 98
f 82 98 99
f 90 77 103
f 103 77 78
f 103 78 102
f 102 78 79
f 102 79 101
f 101 79 80
f 101 80 100
f 100 80 81
f 100 81 99
f 99 81 82
f 107 121 106
f 106 121 122
f 106 122 120
f 120 122 123
f 120 123 119
f 119 123 124
f 119 124 118
f 118 124 125
f 118 125 117
f 117 125 126
f 117 126 116
f 116 126 127
f 116 127 115
f 115 127 137
f 115 137 114
f 136 128 129
f 136 129 113
f 113 129 130
f 113 130 112
f 112 130 131
f 112 131 111
f 111 131 132
f 111 132 110
f 110 132 133
f 110 133 109
f 109 133 134
f 109 134 108
f 108 134 135
f 108 135 107
f 107 135 121
f 139 160 138
f 138 160 161
f 138 161 152
f 152 161 162
f 152 162 151
f 151 162 163
f 151 163 150
f 150 163 164
f 150 164 149
f 149 164 165
f 149 165 148
f 148 165 166
f 148 166 147
f 147 166 167
f 147 167 146
f 146 167 169
f 146 169 145
f 168 153 154
f 168 154 144
f 144 154 155
f 144 155 143
f 143 155 156
f 143 156 142
f 142 156 157
f 142 157 141
f 141 157 158
f 141 158 140
f 140 158 159
f 140 159 139
f 139 159 160
f 171 185 170
f 170 185 186
f 170 186 184
f 184 186 187
f 184 187 183
f 183 187 188
f 183 188 182
f 182 188 189
f 182 189 181
f 181 189 190
f 181 190 180
f 180 190 191
f 180 191 179
f 179 191 201
f 179 201 178
f 200 192 193
f 200 193 177
f 177 193 194
f 177 194 176
f 176 194 195
f 176 195 175
f 175 195 196
f 175 196 174
f 174 196 197
f 174 197 173
f 173 197 198
f 173 198 172
f 172 198 199
f 172 199 171
f 171 199 185
f 217 202 218
f 218 202 203
f 218 203 231
f 231 203 204
f 231 204 230
f 230 204 205
f 230 205 229
f 229 205 206
f 229 206 228
f 228 206 207
f 228 207 227
f 227 207 208
f 227 208 226
f 226 208 209
f 226 209 225
f 225 209 210
f 225 210 211
f 225 211 224
f 224 211 212
f 224 212 223
f 223 212 213
f 223 213 222
f 222 213 214
f 222 214 221
f 221 214 215
f 221 215 220
f 220 215 216
f 220 216 219
f 219 216 217
f 219 217 218
f 233 247 232
f 232 247 248
f 232 248 246
f 246 248 249
f 246 249 245
f 245 249 250
f 245 250 244
f 244 250 251
f 244 251 243
f 243 251 252
f 243 252 242
f 242 252 253
f 242 253 241
f 241 253 263
f 241 263 240
f 262 254 255
f 262 255 239
f 239 255 256
f 239 256 238
f 238 256 257
f 238 257 237
f 237 257 258
f 237 258 236
f 236 258 259
f 236 259 235
f 235 259 260
f 235 260 234
f 234 260 261
f 234 261 233
f 233 261 247
f 265 279 264
f 264 279 280
f 264 280 278
f 278 280 281
f 278 281 277
f 277 281 282
f 277 282 276
f 276 282 283
f 276 283 275
f 275 283 284
f 275 284 274
f 274 284 285
f 274 285 273
f 273 285 295
f 273 295 272
f 294 286 287
f 294 287 271
f 271 287 288
f 271 288 270
f 270 288 289
f 270 289 269
f 269 289 290
f 269 290 268
f 268 290 291
f 268 291 267
f 267 291 292
f 267 292 266
f 266 292 293
f 266 293 265
f 265 293 279
f 297 327 296
f 296 327 312
f 296 312 311
f 311 312 313
f 311 313 310
f 310 313 314
f 310 314 309
f 309 314 315
f 309 315 308
f 308 315 316
f 308 316 307
f 307 316 317
f 307 317 306
f 306 317 318
f 306 318 305
f 305 318 319
f 305 319 304
f 304 319 329
f 328 320 303
f 303 320 321
f 303 321 302
f 302 321 322
f 302 322 301
f 301 322 323
f 301 323 300
f 300 323 324
f 300 324 299
f 299 324 325
f 299 325 298
f 298 325 326
f 298 326 297
f 297 326 327
f 344 330 352
f 352 330 331
f 352 331 351
f 351 331 332
f 351 332 350
f 350 332 333
f 350 333 349
f 349 333 334
f 349 334 348
f 348 334 335
f 348 335 347
f 347 335 336
f 347 336 346
f 346 336 337
f 346 337 345
f 345 337 338
f 345 338 358
f 358 338 339
f 358 339 357
f 357 339 340
f 357 340 356
f 356 340 341
f 356 341 355
f 355 341 342
f 355 342 354
f 354 342 343
f 354 343 353
f 353 343 344
f 353 344 352
f 374 359 375
f 375 359 360
f 375 360 389
f 389 360 361
f 389 361 388
f 388 361 362
f 388 362 387
f 387 362 363
f 387 363 386
f 386 363 364
f 386 364 385
f 385 364 365
f 385 365 384
f 384 365 366
f 384 366 383
f 383 366 367
f 383 367 382
f 382 367 368
f 382 368 381
f 381 368 369
f 381 369 380
f 380 369 370
f 380 370 379
f 379 370 371
f 379 371 378
f 378 371 372
f 378 372 377
f 377 372 373
f 377 373 376
f 376 373 374
f 376 374 375
f 404 390 405
f 405 390 391
f 405 391 419
f 419 391 392
f 419 392 418
f 418 392 393
f 418 393 417
f 417 393 394
f 417 394 416
f 416 394 415
f 415 394 395
f 415 395 414
f 414 395 396
f 414 396 413
f 413 396 397
f 413 397 398
f 413 398 412
f 412 398 399
f 412 399 411
f 411 399 400
f 411 400 410
f 410 400 401
f 410 401 409
f 409 401 408
f 408 401 402
f 408 402 407
f 407 402 403
f 407 403 406
f 406 403 404
f 406 404 405
