v -0.205 0.085 0.605
v -0.2071047592 0.08541866302 0.6071047592
v -0.2088890839 0.08661090851 0.6088890839
v -0.2100813293 0.08839524269 0.6100813293
v -0.2104999924 0.09050000191 0.6104999924
v -0.2100813293 0.09260476112 0.6100813293
v -0.2088890839 0.09438908577 0.6088890839
v -0.2071047592 0.09558134079 0.6071047592
v -0.205 0.09600000381 0.605
v -0.2028952408 0.09558134079 0.6071047592
v -0.2011109161 0.09438908577 0.6088890839
v -0.1999186707 0.09260476112 0.6100813293
v -0.1995000076 0.09050000191 0.6104999924
v -0.1999186707 0.08839524269 0.6100813293
v -0.2011109161 0.08661090851 0.6088890839
v -0.2028952408 0.08541866302 0.6071047592
v -0.2104999924 0.09050000191 0.6115000153
v -0.2096269035 0.087526474 0.6115000153
v -0.2072847748 0.08549702644 0.6115000153
v -0.2042172623 0.08505598068 0.6115000153
v -0.2013982582 0.08634337425 0.6115000153
v -0.1997227859 0.08895047188 0.6115000153
v -0.1997227859 0.09204953194 0.6115000153
v -0.2013982582 0.09465662003 0.6115000153
v -0.2042172623 0.0959440136 0.6115000153
v -0.2072847748 0.09550297737 0.6115000153
v -0.2096269035 0.09347352028 0.6115000153
v -0.2104999924 0.09050000191 0.6104999924
v -0.2104999924 0.09050000191 0.6115000153
v -0.2086000061 0.09050000191 0.6115000153
v -0.2077577591 0.0881859684 0.6115000153
v -0.2056251335 0.08695468903 0.6115000153
v -0.2031999969 0.08738230705 0.6115000153
v -0.2016171074 0.08926873207 0.6115000153
v -0.2016171074 0.09173127174 0.6115000153
v -0.2031999969 0.09361768723 0.6115000153
v -0.2056251335 0.09404530525 0.6115000153
v -0.2077577591 0.09281403542 0.6115000153
v -0.2104999924 0.09050000191 0.6115000153
v -0.2096269035 0.09347352028 0.6115000153
v -0.2072847748 0.09550297737 0.6115000153
v -0.2042172623 0.0959440136 0.6115000153
v -0.2013982582 0.09465662003 0.6115000153
v -0.1997227859 0.09204953194 0.6115000153
v -0.1997227859 0.08895047188 0.6115000153
v -0.2013982582 0.08634337425 0.6115000153
v -0.2042172623 0.08505598068 0.6115000153
v -0.2072847748 0.08549702644 0.6115000153
v -0.2096269035 0.087526474 0.6115000153
v -0.205 0.09600000381 0.605
v -0.2071047592 0.09558134079 0.6028952408
v -0.2088890839 0.09438908577 0.6011109161
v -0.2100813293 0.09260476112 0.5999186707
v -0.2104999924 0.09050000191 0.5995000076
v -0.2100813293 0.08839524269 0.5999186707
v -0.2088890839 0.08661090851 0.6011109161
v -0.2071047592 0.08541866302 0.6028952408
v -0.205 0.085 0.605
v -0.2045000076 0.08502277374 0.6045000076
v -0.2067531967 0.08528691292 0.6022468185
v -0.2087080956 0.08643797874 0.6002919006
v -0.2100321198 0.08828015327 0.5989678574
v -0.2104999924 0.09050000191 0.5984999847
v -0.2100321198 0.09271985054 0.5989678574
v -0.2087080956 0.09456201553 0.6002919006
v -0.2067531967 0.0957130909 0.6022468185
v -0.2045000076 0.09597723007 0.6045000076
v -0.2045000076 0.08502277374 0.6045000076
v -0.205 0.085 0.605
v -0.2028952408 0.08541866302 0.6071047592
v -0.2011109161 0.08661090851 0.6088890839
v -0.1999186707 0.08839524269 0.6100813293
v -0.1995000076 0.09050000191 0.6104999924
v -0.1999186707 0.09260476112 0.6100813293
v -0.2011109161 0.09438908577 0.6088890839
v -0.2028952408 0.09558134079 0.6071047592
v -0.205 0.09600000381 0.605
v -0.2045000076 0.09597723007 0.6045000076
v -0.2022468185 0.0957130909 0.6067531967
v -0.2002919006 0.09456201553 0.6087081146
v -0.1989678764 0.09271985054 0.6100321198
v -0.1985000038 0.09050000191 0.6104999924
v -0.1989678764 0.08828015327 0.6100321198
v -0.2002919006 0.08643797874 0.6087081146
v -0.2022468185 0.08528691292 0.6067531967
v -0.2086000061 0.09050000191 0.6115000153
v -0.2077577591 0.09281403542 0.6115000153
v -0.2056251335 0.09404530525 0.6115000153
v -0.2031999969 0.09361768723 0.6115000153
v -0.2016171074 0.09173127174 0.6115000153
v -0.2016171074 0.08926873207 0.6115000153
v -0.2031999969 0.08738230705 0.6115000153
v -0.2056251335 0.08695468903 0.6115000153
v -0.2077577591 0.0881859684 0.6115000153
v -0.2086000061 0.09050000191 0.615
v -0.2077577591 0.0881859684 0.615
v -0.2056251335 0.08695468903 0.615
v -0.2031999969 0.08738230705 0.615
v -0.2016171074 0.08926873207 0.615
v -0.2016171074 0.09173127174 0.615
v -0.2031999969 0.09361768723 0.615
v -0.2056251335 0.09404530525 0.615
v -0.2077577591 0.09281403542 0.615
v -0.2086000061 0.09050000191 0.6115000153
v -0.2086000061 0.09050000191 0.615
v -0.2045000076 0.09597723007 0.6045000076
v -0.2067531967 0.0957130909 0.6022468185
v -0.2087080956 0.09456201553 0.6002919006
v -0.2100321198 0.09271985054 0.5989678574
v -0.2104999924 0.09050000191 0.5984999847
v -0.2100321198 0.08828015327 0.5989678574
v -0.2087080956 0.08643797874 0.6002919006
v -0.2067531967 0.08528691292 0.6022468185
v -0.2045000076 0.08502277374 0.6045000076
v -0.2022468185 0.08528691292 0.6067531967
v -0.2002919006 0.08643797874 0.6087081146
v -0.1989678764 0.08828015327 0.6100321198
v -0.1985000038 0.09050000191 0.6104999924
v -0.1989678764 0.09271985054 0.6100321198
v -0.2002919006 0.09456201553 0.6087081146
v -0.2022468185 0.0957130909 0.6067531967
v -0.195 0.08050000191 0.6140000153
v -0.2139999962 0.08050000191 0.595
v -0.2139999962 0.1005000019 0.595
v -0.195 0.1005000019 0.6140000153
v -0.2139999962 0.08050000191 0.595
v -0.215 0.08050000191 0.595
v -0.215 0.1005000019 0.595
v -0.2139999962 0.1005000019 0.595
v -0.215 0.08050000191 0.615
v -0.215 0.08050000191 0.595
v -0.2139999962 0.08050000191 0.595
v -0.195 0.08050000191 0.6140000153
v -0.195 0.08050000191 0.615
v -0.2086000061 0.09050000191 0.615
v -0.2077577591 0.09281403542 0.615
v -0.2056251335 0.09404530525 0.615
v -0.2031999969 0.09361768723 0.615
v -0.2016171074 0.09173127174 0.615
v -0.2016171074 0.08926873207 0.615
v -0.2031999969 0.08738230705 0.615
v -0.2056251335 0.08695468903 0.615
v -0.2077577591 0.0881859684 0.615
v -0.215 0.08050000191 0.615
v -0.195 0.08050000191 0.615
v -0.195 0.1005000019 0.615
v -0.215 0.1005000019 0.615
v -0.195 0.08050000191 0.615
v -0.195 0.08050000191 0.6140000153
v -0.195 0.1005000019 0.6140000153
v -0.195 0.1005000019 0.615
v -0.215 0.09409999847 0.605
v -0.215 0.093257761 0.6073140335
v -0.215 0.09112513542 0.6085453033
v -0.215 0.08869999886 0.6081176758
v -0.215 0.0871171093 0.6062312698
v -0.215 0.0871171093 0.6037687302
v -0.215 0.08869999886 0.6018823242
v -0.215 0.09112513542 0.6014546967
v -0.215 0.093257761 0.6026859665
v -0.215 0.08050000191 0.595
v -0.215 0.08050000191 0.615
v -0.215 0.1005000019 0.615
v -0.215 0.1005000019 0.595
v -0.215 0.1005000019 0.595
v -0.215 0.1005000019 0.615
v -0.195 0.1005000019 0.615
v -0.195 0.1005000019 0.6140000153
v -0.2139999962 0.1005000019 0.595
v -0.2114999962 0.09409999847 0.605
v -0.2114999962 0.093257761 0.6073140335
v -0.2114999962 0.09112513542 0.6085453033
v -0.2114999962 0.08869999886 0.6081176758
v -0.2114999962 0.0871171093 0.6062312698
v -0.2114999962 0.0871171093 0.6037687302
v -0.2114999962 0.08869999886 0.6018823242
v -0.2114999962 0.09112513542 0.6014546967
v -0.2114999962 0.093257761 0.6026859665
v -0.215 0.09409999847 0.605
v -0.215 0.093257761 0.6026859665
v -0.215 0.09112513542 0.6014546967
v -0.215 0.08869999886 0.6018823242
v -0.215 0.0871171093 0.6037687302
v -0.215 0.0871171093 0.6062312698
v -0.215 0.08869999886 0.6081176758
v -0.215 0.09112513542 0.6085453033
v -0.215 0.093257761 0.6073140335
v -0.2114999962 0.09409999847 0.605
v -0.215 0.09409999847 0.605
v -0.2114999962 0.09409999847 0.605
v -0.2114999962 0.093257761 0.6026859665
v -0.2114999962 0.09112513542 0.6014546967
v -0.2114999962 0.08869999886 0.6018823242
v -0.2114999962 0.0871171093 0.6037687302
v -0.2114999962 0.0871171093 0.6062312698
v -0.2114999962 0.08869999886 0.6081176758
v -0.2114999962 0.09112513542 0.6085453033
v -0.2114999962 0.093257761 0.6073140335
v -0.2114999962 0.09600000381 0.605
v -0.2114999962 0.0951268959 0.6079735184
v -0.2114999962 0.09278478622 0.6100029755
v -0.2114999962 0.08971726418 0.6104440308
v -0.2114999962 0.08689826965 0.6091566086
v -0.2114999962 0.08522278786 0.60654953
v -0.2114999962 0.08522278786 0.60345047
v -0.2114999962 0.08689826965 0.6008433914
v -0.2114999962 0.08971726418 0.5995559692
v -0.2114999962 0.09278478622 0.5999970245
v -0.2114999962 0.0951268959 0.6020264816
v -0.205 0.09600000381 0.605
v -0.2071047592 0.09558134079 0.6071047592
v -0.2088890839 0.09438908577 0.6088890839
v -0.2100813293 0.09260476112 0.6100813293
v -0.2104999924 0.09050000191 0.6104999924
v -0.2100813293 0.08839524269 0.6100813293
v -0.2088890839 0.08661090851 0.6088890839
v -0.2071047592 0.08541866302 0.6071047592
v -0.205 0.085 0.605
v -0.2071047592 0.08541866302 0.6028952408
v -0.2088890839 0.08661090851 0.6011109161
v -0.2100813293 0.08839524269 0.5999186707
v -0.2104999924 0.09050000191 0.5995000076
v -0.2100813293 0.09260476112 0.5999186707
v -0.2088890839 0.09438908577 0.6011109161
v -0.2071047592 0.09558134079 0.6028952408
v -0.2114999962 0.09600000381 0.605
v -0.2114999962 0.0951268959 0.6020264816
v -0.2114999962 0.09278478622 0.5999970245
v -0.2114999962 0.08971726418 0.5995559692
v -0.2114999962 0.08689826965 0.6008433914
v -0.2114999962 0.08522278786 0.60345047
v -0.2114999962 0.08522278786 0.60654953
v -0.2114999962 0.08689826965 0.6091566086
v -0.2114999962 0.08971726418 0.6104440308
v -0.2114999962 0.09278478622 0.6100029755
v -0.2114999962 0.0951268959 0.6079735184
v -0.205 0.09600000381 0.605
v -0.2114999962 0.09600000381 0.605
f 16 1 20
f 20 1 2
f 20 2 19
f 19 2 3
f 19 3 18
f 18 3 4
f 18 4 17
f 17 4 28
f 29 5 6
f 29 6 27
f 27 6 7
f 27 7 26
f 26 7 8
f 26 8 9
f 26 9 25
f 25 9 10
f 25 10 24
f 24 10 11
f 24 11 12
f 24 12 23
f 23 12 13
f 23 13 22
f 22 13 14
f 22 14 21
f 21 14 15
f 21 15 16
f 21 16 20
f 31 49 30
f 30 49 39
f 30 39 40
f 49 31 48
f 48 31 32
f 48 32 47
f 47 32 33
f 47 33 46
f 46 33 34
f 46 34 45
f 45 34 44
f 44 34 35
f 44 35 43
f 43 35 36
f 43 36 42
f 42 36 37
f 42 37 41
f 41 37 38
f 41 38 40
f 40 38 30
f 67 50 66
f 66 50 51
f 66 51 65
f 65 51 52
f 65 52 64
f 64 52 53
f 64 53 63
f 63 53 54
f 63 54 55
f 63 55 62
f 62 55 56
f 62 56 61
f 61 56 57
f 61 57 60
f 60 57 58
f 60 58 59
f 68 69 85
f 85 69 70
f 85 70 84
f 84 70 71
f 84 71 83
f 83 71 72
f 83 72 82
f 82 72 73
f 82 73 74
f 82 74 81
f 81 74 75
f 81 75 80
f 80 75 76
f 80 76 79
f 79 76 77
f 79 77 78
f 87 103 86
f 86 103 105
f 104 95 94
f 94 95 96
f 94 96 93
f 93 96 97
f 93 97 92
f 92 97 98
f 92 98 91
f 91 98 99
f 91 99 90
f 90 99 100
f 90 100 89
f 89 100 101
f 89 101 88
f 88 101 102
f 88 102 87
f 87 102 103
f 107 124 106
f 106 124 125
f 106 125 121
f 121 125 120
f 120 125 119
f 119 125 118
f 118 125 122
f 118 122 117
f 117 122 116
f 116 122 115
f 115 122 114
f 114 122 123
f 114 123 113
f 113 123 112
f 112 123 111
f 111 123 110
f 110 123 124
f 110 124 109
f 109 124 108
f 108 124 107
f 126 127 129
f 129 127 128
f 131 132 130
f 130 132 133
f 130 133 134
f 136 147 135
f 135 147 144
f 135 144 143
f 143 144 142
f 142 144 145
f 142 145 141
f 141 145 140
f 140 145 139
f 139 145 146
f 139 146 138
f 138 146 137
f 137 146 147
f 137 147 136
f 148 149 151
f 151 149 150
f 153 163 152
f 152 163 164
f 152 164 160
f 160 164 159
f 159 164 161
f 159 161 158
f 158 161 157
f 157 161 162
f 157 162 156
f 156 162 155
f 155 162 154
f 154 162 163
f 154 163 153
f 165 166 169
f 169 166 168
f 168 166 167
f 171 187 170
f 170 187 189
f 188 179 178
f 178 179 180
f 178 180 177
f 177 180 181
f 177 181 176
f 176 181 182
f 176 182 175
f 175 182 183
f 175 183 174
f 174 183 184
f 174 184 173
f 173 184 185
f 173 185 172
f 172 185 186
f 172 186 171
f 171 186 187
f 191 209 190
f 190 209 199
f 190 199 200
f 209 191 208
f 208 191 192
f 208 192 207
f 207 192 193
f 207 193 206
f 206 193 194
f 206 194 205
f 205 194 204
f 204 194 195
f 204 195 203
f 203 195 196
f 203 196 202
f 202 196 197
f 202 197 201
f 201 197 198
f 201 198 200
f 200 198 190
f 225 237 226
f 238 210 211
f 238 211 236
f 236 211 212
f 236 212 235
f 235 212 213
f 235 213 214
f 235 214 234
f 234 214 215
f 234 215 233
f 233 215 216
f 233 216 217
f 233 217 232
f 232 217 218
f 232 218 231
f 231 218 219
f 231 219 220
f 231 220 230
f 230 220 221
f 230 221 229
f 229 221 222
f 229 222 228
f 228 222 223
f 228 223 224
f 228 224 227
f 227 224 225
f 227 225 226
