v -0.2572850037 0.09346500397 0.3798767549
v -0.256375351 0.09346500397 0.3844498235
v -0.2537849236 0.09346500397 0.3883266813
v -0.2499080658 0.09346500397 0.3909171087
v -0.2453350067 0.09346500397 0.3918267519
v -0.2407619286 0.09346500397 0.3909171087
v -0.2368850708 0.09346500397 0.3883266813
v -0.2342946434 0.09346500397 0.3844498235
v -0.2333849907 0.09346500397 0.3798767549
v -0.2342946434 0.09346500397 0.3753036863
v -0.2368850708 0.09346500397 0.3714268285
v -0.2407619286 0.09346500397 0.3688363916
v -0.2453350067 0.09346500397 0.3679267484
v -0.2499080658 0.09346500397 0.3688363916
v -0.2537849236 0.09346500397 0.3714268285
v -0.256375351 0.09346500397 0.3753036863
v -0.2551350021 0.09561499596 0.3798767549
v -0.2541644859 0.09561499596 0.3756246931
v -0.2514451981 0.09561499596 0.3722148019
v -0.2475156975 0.09561499596 0.3703224546
v -0.2431542969 0.09561499596 0.3703224546
v -0.2392247963 0.09561499596 0.3722148019
v -0.2365055084 0.09561499596 0.3756246931
v -0.2355349922 0.09561499596 0.3798767549
v -0.2365055084 0.09561499596 0.3841288168
v -0.2392247963 0.09561499596 0.3875386984
v -0.2431542969 0.09561499596 0.3894310457
v -0.2475156975 0.09561499596 0.3894310457
v -0.2514451981 0.09561499596 0.3875386984
v -0.2541644859 0.09561499596 0.3841288168
v -0.2572850037 0.09346500397 0.3798767549
v -0.2551350021 0.09561499596 0.3798767549
v -0.2533349991 0.09 0.3798767549
v -0.2524186516 0.09 0.3835945398
v -0.2498795128 0.09 0.3864606268
v -0.2462992859 0.09 0.3878184206
v -0.2424981689 0.09 0.3873568803
v -0.2393469048 0.09 0.3851817304
v -0.2375674629 0.09 0.3817912752
v -0.2375674629 0.09 0.3779622251
v -0.2393469048 0.09 0.3745717699
v -0.2424981689 0.09 0.37239662
v -0.2462992859 0.09 0.3719350797
v -0.2498795128 0.09 0.3732928831
v -0.2524186516 0.09 0.37615897
v -0.2533349991 0.08538499832 0.3798767549
v -0.2524186516 0.08538499832 0.37615897
v -0.2498795128 0.08538499832 0.3732928831
v -0.2462992859 0.08538499832 0.3719350797
v -0.2424981689 0.08538499832 0.37239662
v -0.2393469048 0.08538499832 0.3745717699
v -0.2375674629 0.08538499832 0.3779622251
v -0.2375674629 0.08538499832 0.3817912752
v -0.2393469048 0.08538499832 0.3851817304
v -0.2424981689 0.08538499832 0.3873568803
v -0.2462992859 0.08538499832 0.3878184206
v -0.2498795128 0.08538499832 0.3864606268
v -0.2524186516 0.08538499832 0.3835945398
v -0.2533349991 0.09 0.3798767549
v -0.2533349991 0.08538499832 0.3798767549
v -0.2533349991 0.09100000381 0.3798767549
v -0.2524186516 0.09100000381 0.37615897
v -0.2498795128 0.09100000381 0.3732928831
v -0.2462992859 0.09100000381 0.3719350797
v -0.2424981689 0.09100000381 0.37239662
v -0.2393469048 0.09100000381 0.3745717699
v -0.2375674629 0.09100000381 0.3779622251
v -0.2375674629 0.09100000381 0.3817912752
v -0.2393469048 0.09100000381 0.3851817304
v -0.2424981689 0.09100000381 0.3873568803
v -0.2462992859 0.09100000381 0.3878184206
v -0.2498795128 0.09100000381 0.3864606268
v -0.2524186516 0.09100000381 0.3835945398
v -0.2533349991 0.09561499596 0.3798767549
v -0.2524186516 0.09561499596 0.3835945398
v -0.2498795128 0.09561499596 0.3864606268
v -0.2462992859 0.09561499596 0.3878184206
v -0.2424981689 0.09561499596 0.3873568803
v -0.2393469048 0.09561499596 0.3851817304
v -0.2375674629 0.09561499596 0.3817912752
v -0.2375674629 0.09561499596 0.3779622251
v -0.2393469048 0.09561499596 0.3745717699
v -0.2424981689 0.09561499596 0.37239662
v -0.2462992859 0.09561499596 0.3719350797
v -0.2498795128 0.09561499596 0.3732928831
v -0.2524186516 0.09561499596 0.37615897
v -0.2533349991 0.09100000381 0.3798767549
v -0.2533349991 0.09561499596 0.3798767549
v -0.2533349991 0.08538499832 0.3798767549
v -0.2524186516 0.08538499832 0.3835945398
v -0.2498795128 0.08538499832 0.3864606268
v -0.2462992859 0.08538499832 0.3878184206
v -0.2424981689 0.08538499832 0.3873568803
v -0.2393469048 0.08538499832 0.3851817304
v -0.2375674629 0.08538499832 0.3817912752
v -0.2375674629 0.08538499832 0.3779622251
v -0.2393469048 0.08538499832 0.3745717699
v -0.2424981689 0.08538499832 0.37239662
v -0.2462992859 0.08538499832 0.3719350797
v -0.2498795128 0.08538499832 0.3732928831
v -0.2524186516 0.08538499832 0.37615897
v -0.2551350021 0.08538499832 0.3798767549
v -0.2541644859 0.08538499832 0.3756246931
v -0.2514451981 0.08538499832 0.3722148019
v -0.2475156975 0.08538499832 0.3703224546
v -0.2431542969 0.08538499832 0.3703224546
v -0.2392247963 0.08538499832 0.3722148019
v -0.2365055084 0.08538499832 0.3756246931
v -0.2355349922 0.08538499832 0.3798767549
v -0.2365055084 0.08538499832 0.3841288168
v -0.2392247963 0.08538499832 0.3875386984
v -0.2431542969 0.08538499832 0.3894310457
v -0.2475156975 0.08538499832 0.3894310457
v -0.2514451981 0.08538499832 0.3875386984
v -0.2541644859 0.08538499832 0.3841288168
v -0.2523349953 0.09 0.3798767549
v -0.251397171 0.09 0.3833767492
v -0.2488349915 0.09 0.3859389288
v -0.2453350067 0.09 0.386876753
v -0.2418350029 0.09 0.3859389288
v -0.2392728233 0.09 0.3833767492
v -0.2383349991 0.09 0.3798767549
v -0.2392728233 0.09 0.3763767511
v -0.2418350029 0.09 0.3738145715
v -0.2453350067 0.09 0.3728767568
v -0.2488349915 0.09 0.3738145715
v -0.251397171 0.09 0.3763767511
v -0.2533349991 0.09 0.3798767549
v -0.2524186516 0.09 0.37615897
v -0.2498795128 0.09 0.3732928831
v -0.2462992859 0.09 0.3719350797
v -0.2424981689 0.09 0.37239662
v -0.2393469048 0.09 0.3745717699
v -0.2375674629 0.09 0.3779622251
v -0.2375674629 0.09 0.3817912752
v -0.2393469048 0.09 0.3851817304
v -0.2424981689 0.09 0.3873568803
v -0.2462992859 0.09 0.3878184206
v -0.2498795128 0.09 0.3864606268
v -0.2524186516 0.09 0.3835945398
v -0.2572850037 0.09346500397 0.3798767549
v -0.256375351 0.09346500397 0.3753036863
v -0.2537849236 0.09346500397 0.3714268285
v -0.2499080658 0.09346500397 0.3688363916
v -0.2453350067 0.09346500397 0.3679267484
v -0.2407619286 0.09346500397 0.3688363916
v -0.2368850708 0.09346500397 0.3714268285
v -0.2342946434 0.09346500397 0.3753036863
v -0.2333849907 0.09346500397 0.3798767549
v -0.2342946434 0.09346500397 0.3844498235
v -0.2368850708 0.09346500397 0.3883266813
v -0.2407619286 0.09346500397 0.3909171087
v -0.2453350067 0.09346500397 0.3918267519
v -0.2499080658 0.09346500397 0.3909171087
v -0.2537849236 0.09346500397 0.3883266813
v -0.256375351 0.09346500397 0.3844498235
v -0.2572850037 0.08753499985 0.3798767549
v -0.256375351 0.08753499985 0.3844498235
v -0.2537849236 0.08753499985 0.3883266813
v -0.2499080658 0.08753499985 0.3909171087
v -0.2453350067 0.08753499985 0.3918267519
v -0.2407619286 0.08753499985 0.3909171087
v -0.2368850708 0.08753499985 0.3883266813
v -0.2342946434 0.08753499985 0.3844498235
v -0.2333849907 0.08753499985 0.3798767549
v -0.2342946434 0.08753499985 0.3753036863
v -0.2368850708 0.08753499985 0.3714268285
v -0.2407619286 0.08753499985 0.3688363916
v -0.2453350067 0.08753499985 0.3679267484
v -0.2499080658 0.08753499985 0.3688363916
v -0.2537849236 0.08753499985 0.3714268285
v -0.256375351 0.08753499985 0.3753036863
v -0.2572850037 0.08753499985 0.3798767549
v -0.2572850037 0.09346500397 0.3798767549
v -0.2551350021 0.08538499832 0.3798767549
v -0.2541644859 0.08538499832 0.3841288168
v -0.2514451981 0.08538499832 0.3875386984
v -0.2475156975 0.08538499832 0.3894310457
v -0.2431542969 0.08538499832 0.3894310457
v -0.2392247963 0.08538499832 0.3875386984
v -0.2365055084 0.08538499832 0.3841288168
v -0.2355349922 0.08538499832 0.3798767549
v -0.2365055084 0.08538499832 0.3756246931
v -0.2392247963 0.08538499832 0.3722148019
v -0.2431542969 0.08538499832 0.3703224546
v -0.2475156975 0.08538499832 0.3703224546
v -0.2514451981 0.08538499832 0.3722148019
v -0.2541644859 0.08538499832 0.3756246931
v -0.2572850037 0.08753499985 0.3798767549
v -0.256375351 0.08753499985 0.3753036863
v -0.2537849236 0.08753499985 0.3714268285
v -0.2499080658 0.08753499985 0.3688363916
v -0.2453350067 0.08753499985 0.3679267484
v -0.2407619286 0.08753499985 0.3688363916
v -0.2368850708 0.08753499985 0.3714268285
v -0.2342946434 0.08753499985 0.3753036863
v -0.2333849907 0.08753499985 0.3798767549
v -0.2342946434 0.08753499985 0.3844498235
v -0.2368850708 0.08753499985 0.3883266813
v -0.2407619286 0.08753499985 0.3909171087
v -0.2453350067 0.08753499985 0.3918267519
v -0.2499080658 0.08753499985 0.3909171087
v -0.2537849236 0.08753499985 0.3883266813
v -0.256375351 0.08753499985 0.3844498235
v -0.2551350021 0.08538499832 0.3798767549
v -0.2572850037 0.08753499985 0.3798767549
v -0.2533349991 0.09561499596 0.3798767549
v -0.2524186516 0.09561499596 0.37615897
v -0.2498795128 0.09561499596 0.3732928831
v -0.2462992859 0.09561499596 0.3719350797
v -0.2424981689 0.09561499596 0.37239662
v -0.2393469048 0.09561499596 0.3745717699
v -0.2375674629 0.09561499596 0.3779622251
v -0.2375674629 0.09561499596 0.3817912752
v -0.2393469048 0.09561499596 0.3851817304
v -0.2424981689 0.09561499596 0.3873568803
v -0.2462992859 0.09561499596 0.3878184206
v -0.2498795128 0.09561499596 0.3864606268
v -0.2524186516 0.09561499596 0.3835945398
v -0.2551350021 0.09561499596 0.3798767549
v -0.2541644859 0.09561499596 0.3841288168
v -0.2514451981 0.09561499596 0.3875386984
v -0.2475156975 0.09561499596 0.3894310457
v -0.2431542969 0.09561499596 0.3894310457
v -0.2392247963 0.09561499596 0.3875386984
v -0.2365055084 0.09561499596 0.3841288168
v -0.2355349922 0.09561499596 0.3798767549
v -0.2365055084 0.09561499596 0.3756246931
v -0.2392247963 0.09561499596 0.3722148019
v -0.2431542969 0.09561499596 0.3703224546
v -0.2475156975 0.09561499596 0.3703224546
v -0.2514451981 0.09561499596 0.3722148019
v -0.2541644859 0.09561499596 0.3756246931
v -0.2523349953 0.09100000381 0.3798767549
v -0.251397171 0.09100000381 0.3763767511
v -0.2488349915 0.09100000381 0.3738145715
v -0.2453350067 0.09100000381 0.3728767568
v -0.2418350029 0.09100000381 0.3738145715
v -0.2392728233 0.09100000381 0.3763767511
v -0.2383349991 0.09100000381 0.3798767549
v -0.2392728233 0.09100000381 0.3833767492
v -0.2418350029 0.09100000381 0.3859389288
v -0.2453350067 0.09100000381 0.386876753
v -0.2488349915 0.09100000381 0.3859389288
v -0.251397171 0.09100000381 0.3833767492
v -0.2533349991 0.09100000381 0.3798767549
v -0.2524186516 0.09100000381 0.3835945398
v -0.2498795128 0.09100000381 0.3864606268
v -0.2462992859 0.09100000381 0.3878184206
v -0.2424981689 0.09100000381 0.3873568803
v -0.2393469048 0.09100000381 0.3851817304
v -0.2375674629 0.09100000381 0.3817912752
v -0.2375674629 0.09100000381 0.3779622251
v -0.2393469048 0.09100000381 0.3745717699
v -0.2424981689 0.09100000381 0.37239662
v -0.2462992859 0.09100000381 0.3719350797
v -0.2498795128 0.09100000381 0.3732928831
v -0.2524186516 0.09100000381 0.37615897
v -0.2523349953 0.09100000381 0.3798767549
v -0.251397171 0.09100000381 0.3833767492
v -0.2488349915 0.09100000381 0.3859389288
v -0.2453350067 0.09100000381 0.386876753
v -0.2418350029 0.09100000381 0.3859389288
v -0.2392728233 0.09100000381 0.3833767492
v -0.2383349991 0.09100000381 0.3798767549
v -0.2392728233 0.09100000381 0.3763767511
v -0.2418350029 0.09100000381 0.3738145715
v -0.2453350067 0.09100000381 0.3728767568
v -0.2488349915 0.09100000381 0.3738145715
v -0.251397171 0.09100000381 0.3763767511
v -0.2523349953 0.09 0.3798767549
v -0.251397171 0.09 0.3763767511
v -0.2488349915 0.09 0.3738145715
v -0.2453350067 0.09 0.3728767568
v -0.2418350029 0.09 0.3738145715
v -0.2392728233 0.09 0.3763767511
v -0.2383349991 0.09 0.3798767549
v -0.2392728233 0.09 0.3833767492
v -0.2418350029 0.09 0.3859389288
v -0.2453350067 0.09 0.386876753
v -0.2488349915 0.09 0.3859389288
v -0.251397171 0.09 0.3833767492
v -0.2523349953 0.09100000381 0.3798767549
v -0.2523349953 0.09 0.3798767549
f 16 31 17
f 32 1 2
f 32 2 30
f 30 2 3
f 30 3 29
f 29 3 4
f 29 4 28
f 28 4 5
f 28 5 27
f 27 5 6
f 27 6 26
f 26 6 7
f 26 7 25
f 25 7 8
f 25 8 24
f 24 8 9
f 24 9 10
f 24 10 23
f 23 10 11
f 23 11 22
f 22 11 12
f 22 12 21
f 21 12 13
f 21 13 20
f 20 13 14
f 20 14 19
f 19 14 15
f 19 15 18
f 18 15 16
f 18 16 17
f 34 58 33
f 33 58 60
f 59 46 45
f 45 46 47
f 45 47 44
f 44 47 48
f 44 48 43
f 43 48 49
f 43 49 42
f 42 49 50
f 42 50 41
f 41 50 51
f 41 51 40
f 40 51 52
f 40 52 39
f 39 52 53
f 39 53 38
f 38 53 54
f 38 54 37
f 37 54 55
f 37 55 36
f 36 55 56
f 36 56 35
f 35 56 57
f 35 57 34
f 34 57 58
f 62 86 61
f 61 86 88
f 87 74 73
f 73 74 75
f 73 75 72
f 72 75 76
f 72 76 71
f 71 76 77
f 71 77 70
f 70 77 78
f 70 78 69
f 69 78 79
f 69 79 68
f 68 79 80
f 68 80 67
f 67 80 81
f 67 81 66
f 66 81 82
f 66 82 65
f 65 82 83
f 65 83 64
f 64 83 84
f 64 84 63
f 63 84 85
f 63 85 62
f 62 85 86
f 90 115 89
f 89 115 102
f 89 102 103
f 115 90 114
f 114 90 91
f 114 91 113
f 113 91 92
f 113 92 112
f 112 92 93
f 112 93 111
f 111 93 94
f 111 94 110
f 110 94 95
f 110 95 109
f 109 95 96
f 109 96 108
f 108 96 97
f 108 97 107
f 107 97 98
f 107 98 106
f 106 98 99
f 106 99 105
f 105 99 100
f 105 100 104
f 104 100 101
f 104 101 103
f 103 101 89
f 117 140 116
f 116 140 128
f 116 128 129
f 140 117 139
f 139 117 118
f 139 118 138
f 138 118 119
f 138 119 137
f 137 119 120
f 137 120 136
f 136 120 121
f 136 121 135
f 135 121 122
f 135 122 134
f 134 122 123
f 134 123 133
f 133 123 124
f 133 124 132
f 132 124 125
f 132 125 131
f 131 125 126
f 131 126 130
f 130 126 127
f 130 127 129
f 129 127 116
f 142 172 141
f 141 172 173
f 174 157 156
f 156 157 158
f 156 158 155
f 155 158 159
f 155 159 154
f 154 159 160
f 154 160 153
f 153 160 161
f 153 161 152
f 152 161 162
f 152 162 151
f 151 162 163
f 151 163 150
f 150 163 164
f 150 164 149
f 149 164 165
f 149 165 148
f 148 165 166
f 148 166 147
f 147 166 167
f 147 167 146
f 146 167 168
f 146 168 145
f 145 168 169
f 145 169 144
f 144 169 170
f 144 170 143
f 143 170 171
f 143 171 142
f 142 171 172
f 176 204 175
f 175 204 206
f 205 189 190
f 204 176 203
f 203 176 177
f 203 177 202
f 202 177 178
f 202 178 201
f 201 178 179
f 201 179 200
f 200 179 180
f 200 180 199
f 199 180 181
f 199 181 198
f 198 181 182
f 198 182 197
f 197 182 196
f 196 182 183
f 196 183 195
f 195 183 184
f 195 184 194
f 194 184 185
f 194 185 193
f 193 185 186
f 193 186 192
f 192 186 187
f 192 187 191
f 191 187 188
f 191 188 190
f 190 188 205
f 208 233 207
f 207 233 220
f 207 220 221
f 233 208 232
f 232 208 209
f 232 209 231
f 231 209 210
f 231 210 230
f 230 210 211
f 230 211 229
f 229 211 212
f 229 212 228
f 228 212 213
f 228 213 227
f 227 213 214
f 227 214 226
f 226 214 215
f 226 215 225
f 225 215 216
f 225 216 224
f 224 216 217
f 224 217 223
f 223 217 218
f 223 218 222
f 222 218 219
f 222 219 221
f 221 219 207
f 235 258 234
f 234 258 246
f 234 246 247
f 258 235 257
f 257 235 236
f 257 236 256
f 256 236 237
f 256 237 255
f 255 237 238
f 255 238 254
f 254 238 239
f 254 239 253
f 253 239 240
f 253 240 252
f 252 240 241
f 252 241 251
f 251 241 242
f 251 242 250
f 250 242 243
f 250 243 249
f 249 243 244
f 249 244 248
f 248 244 245
f 248 245 247
f 247 245 234
f 260 282 259
f 259 282 284
f 283 271 270
f 270 271 272
f 270 272 269
f 269 272 273
f 269 273 268
f 268 273 274
f 268 274 267
f 267 274 275
f 267 275 266
f 266 275 276
f 266 276 265
f 265 276 277
f 265 277 264
f 264 277 278
f 264 278 263
f 263 278 279
f 263 279 262
f 262 279 280
f 262 280 261
f 261 280 281
f 261 281 260
f 260 281 282
