v -0.2065470505 0.085 0.4590211755
v -0.2048322105 0.085 0.4581723482
v -0.2030194283 0.085 0.4587847025
v -0.2021706009 0.085 0.4604995424
v -0.2027829552 0.085 0.4623123247
v -0.204497776 0.085 0.463161152
v -0.2063105774 0.085 0.4625487978
v -0.2071594048 0.085 0.4608339578
v -0.2084290886 0.085 0.4573756105
v -0.2096446991 0.085 0.4602166444
v -0.2089582253 0.085 0.4632296068
v -0.2066318893 0.085 0.4652636415
v -0.2035542679 0.085 0.4655418092
v -0.200900898 0.085 0.4639578897
v -0.1996853065 0.085 0.4611168558
v -0.2003717804 0.085 0.4581039125
v -0.2026981163 0.085 0.4560698587
v -0.2057757378 0.085 0.455791691
v -0.2065470505 0.08399999619 0.4590211755
v -0.2071594048 0.08399999619 0.4608339578
v -0.2063105774 0.08399999619 0.4625487978
v -0.204497776 0.08399999619 0.463161152
v -0.2027829552 0.08399999619 0.4623123247
v -0.2021706009 0.08399999619 0.4604995424
v -0.2030194283 0.08399999619 0.4587847025
v -0.2048322105 0.08399999619 0.4581723482
v -0.2084290886 0.08399999619 0.4573756105
v -0.2057757378 0.08399999619 0.455791691
v -0.2026981163 0.08399999619 0.4560698587
v -0.2003717804 0.08399999619 0.4581039125
v -0.1996853065 0.08399999619 0.4611168558
v -0.200900898 0.08399999619 0.4639578897
v -0.2035542679 0.08399999619 0.4655418092
v -0.2066318893 0.08399999619 0.4652636415
v -0.2089582253 0.08399999619 0.4632296068
v -0.2096446991 0.08399999619 0.4602166444
v -0.2084290886 0.085 0.4573756105
v -0.2057757378 0.085 0.455791691
v -0.2026981163 0.085 0.4560698587
v -0.2003717804 0.085 0.4581039125
v -0.1996853065 0.085 0.4611168558
v -0.200900898 0.085 0.4639578897
v -0.2035542679 0.085 0.4655418092
v -0.2066318893 0.085 0.4652636415
v -0.2089582253 0.085 0.4632296068
v -0.2096446991 0.085 0.4602166444
v -0.2084290886 0.08399999619 0.4573756105
v -0.2096446991 0.08399999619 0.4602166444
v -0.2089582253 0.08399999619 0.4632296068
v -0.2066318893 0.08399999619 0.4652636415
v -0.2035542679 0.08399999619 0.4655418092
v -0.200900898 0.08399999619 0.4639578897
v -0.1996853065 0.08399999619 0.4611168558
v -0.2003717804 0.08399999619 0.4581039125
v -0.2026981163 0.08399999619 0.4560698587
v -0.2057757378 0.08399999619 0.455791691
v -0.2084290886 0.08399999619 0.4573756105
v -0.2084290886 0.085 0.4573756105
v -0.2065470505 0.085 0.4590211755
v -0.2071594048 0.085 0.4608339578
v -0.2063105774 0.085 0.4625487978
v -0.204497776 0.085 0.463161152
v -0.2027829552 0.085 0.4623123247
v -0.2021706009 0.085 0.4604995424
v -0.2030194283 0.085 0.4587847025
v -0.2048322105 0.085 0.4581723482
v -0.2065470505 0.08399999619 0.4590211755
v -0.2048322105 0.08399999619 0.4581723482
v -0.2030194283 0.08399999619 0.4587847025
v -0.2021706009 0.08399999619 0.4604995424
v -0.2027829552 0.08399999619 0.4623123247
v -0.204497776 0.08399999619 0.463161152
v -0.2063105774 0.08399999619 0.4625487978
v -0.2071594048 0.08399999619 0.4608339578
v -0.2065470505 0.085 0.4590211755
v -0.2065470505 0.08399999619 0.4590211755
f 2 18 1
f 1 18 9
f 1 9 10
f 18 2 17
f 17 2 3
f 17 3 16
f 16 3 4
f 16 4 15
f 15 4 5
f 15 5 14
f 14 5 13
f 13 5 6
f 13 6 12
f 12 6 7
f 12 7 11
f 11 7 8
f 11 8 10
f 10 8 1
f 20 36 19
f 19 36 27
f 19 27 28
f 36 20 35
f 35 20 21
f 35 21 34
f 34 21 22
f 34 22 33
f 33 22 23
f 33 23 32
f 32 23 31
f 31 23 24
f 31 24 30
f 30 24 25
f 30 25 29
f 29 25 26
f 29 26 28
f 28 26 19
f 38 56 37
f 37 56 57
f 58 47 46
f 46 47 48
f 46 48 45
f 45 48 49
f 45 49 44
f 44 49 50
f 44 50 43
f 43 50 51
f 43 51 42
f 42 51 52
f 42 52 41
f 41 52 53
f 41 53 40
f 40 53 54
f 40 54 39
f 39 54 55
f 39 55 38
f 38 55 56
f 60 74 59
f 59 74 76
f 75 67 66
f 66 67 68
f 66 68 69
f 60 61 74
f 74 61 73
f 73 61 62
f 73 62 72
f 72 62 63
f 72 63 71
f 71 63 64
f 71 64 70
f 70 64 65
f 70 65 69
f 69 65 66
