v -0.2029813752 -0.01333198667 0.4408103427
v -0.2015524263 -0.01333198667 0.4399853406
v -0.2015524234 -0.01333198667 0.4383353505
v -0.2029813694 -0.01333198667 0.4375103434
v -0.2044102993 -0.01333198667 0.4383353455
v -0.2044103022 -0.01333198667 0.4399853356
v -0.2029813694 -0.02160000086 0.4375103434
v -0.2015524234 -0.02160000086 0.4383353505
v -0.2015524263 -0.02160000086 0.4399853406
v -0.2029813752 -0.02160000086 0.4408103427
v -0.2044103022 -0.02160000086 0.4399853356
v -0.2044102993 -0.02160000086 0.4383353455
v -0.2029813752 -0.01333198667 0.4408103427
v -0.2029813752 -0.02160000086 0.4408103427
v -0.2073512225 -0.02160000086 0.4391603258
v -0.2065166666 -0.02160000086 0.4417288774
v -0.2043317252 -0.02160000086 0.4433163103
v -0.201631015 -0.02160000086 0.443316315
v -0.1994460871 -0.02160000086 0.4417288898
v -0.1986115031 -0.02160000086 0.4391603412
v -0.1994460781 -0.02160000086 0.4365918087
v -0.2016310004 -0.02160000086 0.4350043567
v -0.2043317107 -0.02160000086 0.435004352
v -0.2065166576 -0.02160000086 0.4365917963
v -0.2073512225 -0.02460000038 0.4391603258
v -0.2065166576 -0.02460000038 0.4365917963
v -0.2043317107 -0.02460000038 0.435004352
v -0.2016310004 -0.02460000038 0.4350043567
v -0.1994460781 -0.02460000038 0.4365918087
v -0.1986115031 -0.02460000038 0.4391603412
v -0.1994460871 -0.02460000038 0.4417288898
v -0.201631015 -0.02460000038 0.443316315
v -0.2043317252 -0.02460000038 0.4433163103
v -0.2065166666 -0.02460000038 0.4417288774
v -0.2073512225 -0.02160000086 0.4391603258
v -0.2073512225 -0.02460000038 0.4391603258
v -0.2029813694 -0.02160000086 0.4375103434
v -0.2044102993 -0.02160000086 0.4383353455
v -0.2044103022 -0.02160000086 0.4399853356
v -0.2029813752 -0.02160000086 0.4408103427
v -0.2015524263 -0.02160000086 0.4399853406
v -0.2015524234 -0.02160000086 0.4383353505
v -0.2073512225 -0.02160000086 0.4391603258
v -0.2065166576 -0.02160000086 0.4365917963
v -0.2043317107 -0.02160000086 0.435004352
v -0.2016310004 -0.02160000086 0.4350043567
v -0.1994460781 -0.02160000086 0.4365918087
v -0.1986115031 -0.02160000086 0.4391603412
v -0.1994460871 -0.02160000086 0.4417288898
v -0.201631015 -0.02160000086 0.443316315
v -0.2043317252 -0.02160000086 0.4433163103
v -0.2065166666 -0.02160000086 0.4417288774
v -0.2056313662 -0.01363198757 0.4391603289
v -0.2048552121 -0.01363198757 0.4410341667
v -0.202981377 -0.01363198757 0.4418103465
v -0.2011075391 -0.01363198757 0.4410341733
v -0.2003313594 -0.01363198757 0.4391603382
v -0.2011075325 -0.01363198757 0.4372865194
v -0.2029813677 -0.01363198757 0.4365103396
v -0.2048552056 -0.01363198757 0.4372865128
v -0.2053313594 -0.01333198667 0.4391603294
v -0.2044465562 -0.01333198667 0.4373230392
v -0.2024584305 -0.01333198667 0.4368692654
v -0.2008640801 -0.01333198667 0.4381407259
v -0.2008640836 -0.01333198667 0.4401799677
v -0.2024584386 -0.01333198667 0.4414514225
v -0.2044465626 -0.01333198667 0.4409976417
v -0.2044465562 -0.01333198667 0.4373230392
v -0.2029813677 -0.01363198757 0.4365103396
v -0.2056313662 -0.01799999952 0.4391603289
v -0.2048552121 -0.01799999952 0.4410341667
v -0.202981377 -0.01799999952 0.4418103465
v -0.2011075391 -0.01799999952 0.4410341733
v -0.2003313594 -0.01799999952 0.4391603382
v -0.2011075325 -0.01799999952 0.4372865194
v -0.2029813677 -0.01799999952 0.4365103396
v -0.2048552056 -0.01799999952 0.4372865128
v -0.2056313662 -0.01363198757 0.4391603289
v -0.2048552056 -0.01363198757 0.4372865128
v -0.2029813677 -0.01363198757 0.4365103396
v -0.2011075325 -0.01363198757 0.4372865194
v -0.2003313594 -0.01363198757 0.4391603382
v -0.2011075391 -0.01363198757 0.4410341733
v -0.202981377 -0.01363198757 0.4418103465
v -0.2048552121 -0.01363198757 0.4410341667
v -0.2056313662 -0.01799999952 0.4391603289
v -0.2056313662 -0.01363198757 0.4391603289
v -0.2029813752 -0.01333198667 0.4408103427
v -0.2044103022 -0.01333198667 0.4399853356
v -0.2044102993 -0.01333198667 0.4383353455
v -0.2029813694 -0.01333198667 0.4375103434
v -0.2015524234 -0.01333198667 0.4383353505
v -0.2015524263 -0.01333198667 0.4399853406
v -0.2053313594 -0.01333198667 0.4391603294
v -0.2044465626 -0.01333198667 0.4409976417
v -0.2024584386 -0.01333198667 0.4414514225
v -0.2008640836 -0.01333198667 0.4401799677
v -0.2008640801 -0.01333198667 0.4381407259
v -0.2024584305 -0.01333198667 0.4368692654
v -0.2044465562 -0.01333198667 0.4373230392
v -0.2056313662 -0.01799999952 0.4391603289
v -0.2048552056 -0.01799999952 0.4372865128
v -0.2029813677 -0.01799999952 0.4365103396
v -0.2011075325 -0.01799999952 0.4372865194
v -0.2003313594 -0.01799999952 0.4391603382
v -0.2011075391 -0.01799999952 0.4410341733
v -0.202981377 -0.01799999952 0.4418103465
v -0.2048552121 -0.01799999952 0.4410341667
v -0.2059313731 -0.01830000043 0.4391603283
v -0.2050673288 -0.01830000043 0.4412463017
v -0.2029813775 -0.01830000043 0.4421103343
v -0.2008954042 -0.01830000043 0.441246309
v -0.2000313716 -0.01830000043 0.4391603387
v -0.2008953968 -0.01830000043 0.4370743844
v -0.2029813672 -0.01830000043 0.4362103328
v -0.2050673214 -0.01830000043 0.4370743771
v -0.202981377 -0.01799999952 0.4418103465
v -0.2029813775 -0.01830000043 0.4421103343
v -0.2078313594 -0.01830000043 0.439160325
v -0.2069050987 -0.01830000043 0.442011088
v -0.2044800987 -0.01830000043 0.4437729675
v -0.2014826431 -0.01830000043 0.4437729727
v -0.199057637 -0.01830000043 0.4420111018
v -0.1981313662 -0.01830000043 0.439160342
v -0.199057627 -0.01830000043 0.436309579
v -0.2014826269 -0.01830000043 0.4345477187
v -0.2044800825 -0.01830000043 0.4345477134
v -0.2069050887 -0.01830000043 0.4363095652
v -0.2059313731 -0.01830000043 0.4391603283
v -0.2050673214 -0.01830000043 0.4370743771
v -0.2029813672 -0.01830000043 0.4362103328
v -0.2008953968 -0.01830000043 0.4370743844
v -0.2000313716 -0.01830000043 0.4391603387
v -0.2008954042 -0.01830000043 0.441246309
v -0.2029813775 -0.01830000043 0.4421103343
v -0.2050673288 -0.01830000043 0.4412463017
v -0.2073512225 -0.02460000038 0.4391603258
v -0.2065166666 -0.02460000038 0.4417288774
v -0.2043317252 -0.02460000038 0.4433163103
v -0.201631015 -0.02460000038 0.443316315
v -0.1994460871 -0.02460000038 0.4417288898
v -0.1986115031 -0.02460000038 0.4391603412
v -0.1994460781 -0.02460000038 0.4365918087
v -0.2016310004 -0.02460000038 0.4350043567
v -0.2043317107 -0.02460000038 0.435004352
v -0.2065166576 -0.02460000038 0.4365917963
v -0.2094313578 -0.02460000038 0.4391603222
v -0.2085672279 -0.02460000038 0.4359353214
v -0.2062063648 -0.02460000038 0.4335744666
v -0.202981361 -0.02460000038 0.432710348
v -0.1997563603 -0.02460000038 0.433574478
v -0.1973955055 -0.02460000038 0.435935341
v -0.1965313678 -0.02460000038 0.4391603448
v -0.1973955168 -0.02460000038 0.4423853456
v -0.1997563799 -0.02460000038 0.4447462004
v -0.2029813837 -0.02460000038 0.4456103381
v -0.2062063844 -0.02460000038 0.4447461891
v -0.2085672392 -0.02460000038 0.442385326
v -0.2078313594 -0.01830000043 0.439160325
v -0.2069050887 -0.01830000043 0.4363095652
v -0.2044800825 -0.01830000043 0.4345477134
v -0.2014826269 -0.01830000043 0.4345477187
v -0.199057627 -0.01830000043 0.436309579
v -0.1981313662 -0.01830000043 0.439160342
v -0.199057637 -0.01830000043 0.4420111018
v -0.2014826431 -0.01830000043 0.4437729727
v -0.2044800987 -0.01830000043 0.4437729675
v -0.2069050987 -0.01830000043 0.442011088
v -0.2081313662 -0.01860000014 0.4391603245
v -0.2073138243 -0.01860000014 0.4419446353
v -0.2051207582 -0.01860000014 0.4438449497
v -0.2022484635 -0.01860000014 0.4442579148
v -0.1996088435 -0.01860000014 0.443052456
v -0.1980399877 -0.01860000014 0.4406112623
v -0.1980399826 -0.01860000014 0.4377094221
v -0.1996088298 -0.01860000014 0.435268242
v -0.2022484456 -0.01860000014 0.4340627548
v -0.2051207417 -0.01860000014 0.4344757289
v -0.2073138145 -0.01860000014 0.4363760356
v -0.2051207582 -0.01860000014 0.4438449497
v -0.2044800987 -0.01830000043 0.4437729675
v -0.2081313662 -0.02230000019 0.4391603245
v -0.2073138243 -0.02230000019 0.4419446353
v -0.2051207582 -0.02230000019 0.4438449497
v -0.2022484635 -0.02230000019 0.4442579148
v -0.1996088435 -0.02230000019 0.443052456
v -0.1980399877 -0.02230000019 0.4406112623
v -0.1980399826 -0.02230000019 0.4377094221
v -0.1996088298 -0.02230000019 0.435268242
v -0.2022484456 -0.02230000019 0.4340627548
v -0.2051207417 -0.02230000019 0.4344757289
v -0.2073138145 -0.02230000019 0.4363760356
v -0.2081313662 -0.01860000014 0.4391603245
v -0.2073138145 -0.01860000014 0.4363760356
v -0.2051207417 -0.01860000014 0.4344757289
v -0.2022484456 -0.01860000014 0.4340627548
v -0.1996088298 -0.01860000014 0.435268242
v -0.1980399826 -0.01860000014 0.4377094221
v -0.1980399877 -0.01860000014 0.4406112623
v -0.1996088435 -0.01860000014 0.443052456
v -0.2022484635 -0.01860000014 0.4442579148
v -0.2051207582 -0.01860000014 0.4438449497
v -0.2073138243 -0.01860000014 0.4419446353
v -0.2081313662 -0.02230000019 0.4391603245
v -0.2081313662 -0.01860000014 0.4391603245
v -0.2081313662 -0.02230000019 0.4391603245
v -0.2073138145 -0.02230000019 0.4363760356
v -0.2051207417 -0.02230000019 0.4344757289
v -0.2022484456 -0.02230000019 0.4340627548
v -0.1996088298 -0.02230000019 0.435268242
v -0.1980399826 -0.02230000019 0.4377094221
v -0.1980399877 -0.02230000019 0.4406112623
v -0.1996088435 -0.02230000019 0.443052456
v -0.2022484635 -0.02230000019 0.4442579148
v -0.2051207582 -0.02230000019 0.4438449497
v -0.2073138243 -0.02230000019 0.4419446353
v -0.2084313731 -0.0225999999 0.439160324
v -0.2075662049 -0.0225999999 0.4421068167
v -0.2052453848 -0.0225999999 0.4441178338
v -0.2022057585 -0.0225999999 0.4445548699
v -0.199412387 -0.0225999999 0.4432791829
v -0.1977521308 -0.0225999999 0.4406957965
v -0.1977521254 -0.0225999999 0.437624908
v -0.1994123725 -0.0225999999 0.4350415158
v -0.2022057396 -0.0225999999 0.4337658189
v -0.2052453674 -0.0225999999 0.4342028443
v -0.2075661946 -0.0225999999 0.4362138342
v -0.2052453848 -0.0225999999 0.4441178338
v -0.2051207582 -0.02230000019 0.4438449497
v -0.2094313578 -0.0225999999 0.4391603222
v -0.2085672392 -0.0225999999 0.442385326
v -0.2062063844 -0.0225999999 0.4447461891
v -0.2029813837 -0.0225999999 0.4456103381
v -0.1997563799 -0.0225999999 0.4447462004
v -0.1973955168 -0.0225999999 0.4423853456
v -0.1965313678 -0.0225999999 0.4391603448
v -0.1973955055 -0.0225999999 0.435935341
v -0.1997563603 -0.0225999999 0.433574478
v -0.202981361 -0.0225999999 0.432710348
v -0.2062063648 -0.0225999999 0.4335744666
v -0.2085672279 -0.0225999999 0.4359353214
v -0.2084313731 -0.0225999999 0.439160324
v -0.2075661946 -0.0225999999 0.4362138342
v -0.2052453674 -0.0225999999 0.4342028443
v -0.2022057396 -0.0225999999 0.4337658189
v -0.1994123725 -0.0225999999 0.4350415158
v -0.1977521254 -0.0225999999 0.437624908
v -0.1977521308 -0.0225999999 0.4406957965
v -0.199412387 -0.0225999999 0.4432791829
v -0.2022057585 -0.0225999999 0.4445548699
v -0.2052453848 -0.0225999999 0.4441178338
v -0.2075662049 -0.0225999999 0.4421068167
v -0.2094313578 -0.02460000038 0.4391603222
v -0.2085672392 -0.02460000038 0.442385326
v -0.2062063844 -0.02460000038 0.4447461891
v -0.2029813837 -0.02460000038 0.4456103381
v -0.1997563799 -0.02460000038 0.4447462004
v -0.1973955168 -0.02460000038 0.4423853456
v -0.1965313678 -0.02460000038 0.4391603448
v -0.1973955055 -0.02460000038 0.435935341
v -0.1997563603 -0.02460000038 0.433574478
v -0.202981361 -0.02460000038 0.432710348
v -0.2062063648 -0.02460000038 0.4335744666
v -0.2085672279 -0.02460000038 0.4359353214
v -0.2097313647 -0.02430000067 0.4391603217
v -0.2088270276 -0.02430000067 0.4357853271
v -0.2063563583 -0.02430000067 0.4333146664
v -0.2029813605 -0.02430000067 0.4324103411
v -0.1996063659 -0.02430000067 0.4333146783
v -0.1971356862 -0.02430000067 0.4357853476
v -0.1962313609 -0.02430000067 0.4391603454
v -0.197135698 -0.02430000067 0.442535359
v -0.1996063864 -0.02430000067 0.4450060197
v -0.2029813842 -0.02430000067 0.445910345
v -0.2063563788 -0.02430000067 0.4450060078
v -0.2088270394 -0.02430000067 0.4425353385
v -0.202981361 -0.02460000038 0.432710348
v -0.2029813605 -0.02430000067 0.4324103411
v -0.2097313647 -0.02289999962 0.4391603217
v -0.2088270394 -0.02289999962 0.4425353385
v -0.2063563788 -0.02289999962 0.4450060078
v -0.2029813842 -0.02289999962 0.445910345
v -0.1996063864 -0.02289999962 0.4450060197
v -0.197135698 -0.02289999962 0.442535359
v -0.1962313609 -0.02289999962 0.4391603454
v -0.1971356862 -0.02289999962 0.4357853476
v -0.1996063659 -0.02289999962 0.4333146783
v -0.2029813605 -0.02289999962 0.4324103411
v -0.2063563583 -0.02289999962 0.4333146664
v -0.2088270276 -0.02289999962 0.4357853271
v -0.2094313578 -0.0225999999 0.4391603222
v -0.2085672279 -0.0225999999 0.4359353214
v -0.2062063648 -0.0225999999 0.4335744666
v -0.202981361 -0.0225999999 0.432710348
v -0.1997563603 -0.0225999999 0.433574478
v -0.1973955055 -0.0225999999 0.435935341
v -0.1965313678 -0.0225999999 0.4391603448
v -0.1973955168 -0.0225999999 0.4423853456
v -0.1997563799 -0.0225999999 0.4447462004
v -0.2029813837 -0.0225999999 0.4456103381
v -0.2062063844 -0.0225999999 0.4447461891
v -0.2085672392 -0.0225999999 0.442385326
v -0.2029813605 -0.02289999962 0.4324103411
v -0.202981361 -0.0225999999 0.432710348
v -0.2097313647 -0.02430000067 0.4391603217
v -0.2088270394 -0.02430000067 0.4425353385
v -0.2063563788 -0.02430000067 0.4450060078
v -0.2029813842 -0.02430000067 0.445910345
v -0.1996063864 -0.02430000067 0.4450060197
v -0.197135698 -0.02430000067 0.442535359
v -0.1962313609 -0.02430000067 0.4391603454
v -0.1971356862 -0.02430000067 0.4357853476
v -0.1996063659 -0.02430000067 0.4333146783
v -0.2029813605 -0.02430000067 0.4324103411
v -0.2063563583 -0.02430000067 0.4333146664
v -0.2088270276 -0.02430000067 0.4357853271
v -0.2097313647 -0.02289999962 0.4391603217
v -0.2088270276 -0.02289999962 0.4357853271
v -0.2063563583 -0.02289999962 0.4333146664
v -0.2029813605 -0.02289999962 0.4324103411
v -0.1996063659 -0.02289999962 0.4333146783
v -0.1971356862 -0.02289999962 0.4357853476
v -0.1962313609 -0.02289999962 0.4391603454
v -0.197135698 -0.02289999962 0.442535359
v -0.1996063864 -0.02289999962 0.4450060197
v -0.2029813842 -0.02289999962 0.445910345
v -0.2063563788 -0.02289999962 0.4450060078
v -0.2088270394 -0.02289999962 0.4425353385
v -0.2097313647 -0.02430000067 0.4391603217
v -0.2097313647 -0.02289999962 0.4391603217
f 2 9 1
f 1 9 14
f 13 10 6
f 6 10 11
f 6 11 5
f 5 11 12
f 5 12 4
f 4 12 7
f 4 7 3
f 3 7 8
f 3 8 2
f 2 8 9
f 16 34 15
f 15 34 36
f 35 25 24
f 24 25 26
f 24 26 23
f 23 26 27
f 23 27 22
f 22 27 28
f 22 28 21
f 21 28 29
f 21 29 20
f 20 29 30
f 20 30 19
f 19 30 31
f 19 31 18
f 18 31 32
f 18 32 17
f 17 32 33
f 17 33 16
f 16 33 34
f 38 45 37
f 37 45 46
f 37 46 42
f 42 46 47
f 42 47 48
f 39 43 38
f 38 43 44
f 38 44 45
f 40 51 39
f 39 51 52
f 39 52 43
f 51 40 50
f 50 40 41
f 50 41 49
f 49 41 48
f 48 41 42
f 60 53 61
f 61 53 54
f 61 54 67
f 67 54 55
f 67 55 66
f 66 55 56
f 66 56 65
f 65 56 57
f 65 57 64
f 64 57 58
f 64 58 63
f 63 58 69
f 63 69 62
f 68 59 60
f 68 60 61
f 71 85 70
f 70 85 87
f 86 78 77
f 77 78 79
f 77 79 76
f 76 79 80
f 76 80 75
f 75 80 81
f 75 81 74
f 74 81 82
f 74 82 73
f 73 82 83
f 73 83 72
f 72 83 84
f 72 84 71
f 71 84 85
f 89 95 88
f 88 95 96
f 88 96 93
f 93 96 97
f 93 97 98
f 95 89 94
f 94 89 90
f 94 90 100
f 100 90 91
f 100 91 99
f 99 91 92
f 99 92 98
f 98 92 93
f 102 116 101
f 101 116 109
f 101 109 108
f 108 109 110
f 108 110 107
f 107 110 118
f 117 111 106
f 106 111 112
f 106 112 105
f 105 112 113
f 105 113 104
f 104 113 114
f 104 114 103
f 103 114 115
f 103 115 102
f 102 115 116
f 128 119 129
f 129 119 120
f 129 120 136
f 136 120 121
f 136 121 135
f 135 121 122
f 135 122 134
f 134 122 123
f 134 123 133
f 133 123 124
f 133 124 125
f 133 125 132
f 132 125 126
f 132 126 131
f 131 126 127
f 131 127 130
f 130 127 128
f 130 128 129
f 138 158 137
f 137 158 147
f 137 147 148
f 158 138 157
f 157 138 139
f 157 139 156
f 156 139 140
f 156 140 155
f 155 140 141
f 155 141 154
f 154 141 142
f 154 142 153
f 153 142 152
f 152 142 143
f 152 143 151
f 151 143 144
f 151 144 150
f 150 144 145
f 150 145 149
f 149 145 146
f 149 146 148
f 148 146 137
f 160 179 159
f 159 179 169
f 159 169 170
f 179 160 178
f 178 160 161
f 178 161 177
f 177 161 162
f 177 162 176
f 176 162 163
f 176 163 175
f 175 163 164
f 175 164 174
f 174 164 165
f 174 165 173
f 173 165 166
f 173 166 172
f 172 166 181
f 172 181 171
f 180 167 168
f 180 168 170
f 170 168 159
f 183 203 182
f 182 203 205
f 204 193 192
f 192 193 194
f 192 194 195
f 183 184 203
f 203 184 202
f 202 184 185
f 202 185 201
f 201 185 186
f 201 186 200
f 200 186 187
f 200 187 199
f 199 187 188
f 199 188 198
f 198 188 189
f 198 189 197
f 197 189 190
f 197 190 196
f 196 190 191
f 196 191 195
f 195 191 192
f 207 217 206
f 206 217 218
f 206 218 216
f 216 218 228
f 216 228 215
f 229 219 220
f 229 220 214
f 214 220 221
f 214 221 213
f 213 221 222
f 213 222 212
f 212 222 223
f 212 223 211
f 211 223 224
f 211 224 210
f 210 224 225
f 210 225 209
f 209 225 226
f 209 226 208
f 208 226 227
f 208 227 207
f 207 227 217
f 241 230 242
f 242 230 231
f 242 231 252
f 252 231 232
f 252 232 251
f 251 232 233
f 251 233 250
f 250 233 234
f 250 234 249
f 249 234 235
f 249 235 248
f 248 235 236
f 248 236 247
f 247 236 237
f 247 237 246
f 246 237 238
f 246 238 245
f 245 238 239
f 245 239 244
f 244 239 240
f 244 240 243
f 243 240 241
f 243 241 242
f 254 276 253
f 253 276 265
f 253 265 264
f 264 265 266
f 264 266 263
f 263 266 267
f 263 267 262
f 262 267 278
f 277 268 261
f 261 268 269
f 261 269 260
f 260 269 270
f 260 270 259
f 259 270 271
f 259 271 258
f 258 271 272
f 258 272 257
f 257 272 273
f 257 273 256
f 256 273 274
f 256 274 255
f 255 274 275
f 255 275 254
f 254 275 276
f 280 302 279
f 279 302 291
f 279 291 290
f 290 291 292
f 290 292 289
f 289 292 293
f 289 293 288
f 288 293 304
f 303 294 287
f 287 294 295
f 287 295 286
f 286 295 296
f 286 296 285
f 285 296 297
f 285 297 284
f 284 297 298
f 284 298 283
f 283 298 299
f 283 299 282
f 282 299 300
f 282 300 281
f 281 300 301
f 281 301 280
f 280 301 302
f 306 328 305
f 305 328 330
f 329 317 316
f 316 317 318
f 316 318 315
f 315 318 319
f 315 319 314
f 314 319 320
f 314 320 313
f 313 320 321
f 313 321 312
f 312 321 322
f 312 322 311
f 311 322 323
f 311 323 310
f 310 323 324
f 310 324 309
f 309 324 325
f 309 325 308
f 308 325 326
f 308 326 307
f 307 326 327
f 307 327 306
f 306 327 328
