v -0.02762120247 0.04199999809 0.4329504663
v -0.02857225895 0.04199999809 0.4336414415
v -0.02820898771 0.04199999809 0.4347594721
v -0.02703341722 0.04199999809 0.4347594721
v -0.02667014599 0.04199999809 0.4336414415
v -0.02762120247 0.03815999985 0.4329504663
v -0.02691409588 0.03815999985 0.4332433588
v -0.02662120342 0.03815999985 0.4339504511
v -0.02691409588 0.03815999985 0.4346575624
v -0.02762120247 0.03815999985 0.4349504549
v -0.02832830906 0.03815999985 0.4346575624
v -0.02862120152 0.03815999985 0.4339504511
v -0.02832830906 0.03815999985 0.4332433588
v -0.02762120247 0.03815999985 0.4329504663
v -0.02762120247 0.04199999809 0.4329504663
v -0.02762120247 0.03815999985 0.4329504663
v -0.02832830906 0.03815999985 0.4332433588
v -0.02862120152 0.03815999985 0.4339504511
v -0.02832830906 0.03815999985 0.4346575624
v -0.02762120247 0.03815999985 0.4349504549
v -0.02691409588 0.03815999985 0.4346575624
v -0.02662120342 0.03815999985 0.4339504511
v -0.02691409588 0.03815999985 0.4332433588
v -0.02762120247 0.03815999985 0.4331504518
v -0.02705551624 0.03815999985 0.4333847696
v -0.02682120323 0.03815999985 0.4339504511
v -0.02762120247 0.03815999985 0.4347504503
v -0.02818688869 0.03815999985 0.4345161516
v -0.02842120171 0.03815999985 0.4339504511
f 2 13 1
f 1 13 14
f 15 6 7
f 13 2 12
f 12 2 3
f 12 3 11
f 11 3 10
f 10 3 4
f 10 4 9
f 9 4 8
f 8 4 5
f 8 5 7
f 7 5 15
f 17 24 16
f 16 24 25
f 16 25 23
f 23 25 26
f 23 26 22
f 22 26 21
f 21 26 27
f 21 27 20
f 20 27 19
f 19 27 28
f 19 28 29
f 24 17 29
f 29 17 18
f 29 18 19
