v -0.1871426132 -0.02390000105 0.4159709311
v -0.1880742818 -0.02390000105 0.4188382657
v -0.1871426132 -0.02390000105 0.4159709311
v -0.1880742818 -0.02390000105 0.4188382657
v -0.1871426132 -0.02390000105 0.4159709311
v -0.1880742818 -0.02390000105 0.4188382657
v -0.1880742818 -0.02390000105 0.4188382657
v -0.1880742818 -0.02390000105 0.4188382657
v -0.1871426132 -0.02390000105 0.4159709311
v -0.1871426132 -0.02390000105 0.4159709311
v -0.1871426132 -0.02390000105 0.4159709311
v -0.1871426132 -0.02390000105 0.4159709311
v -0.1880742818 -0.02390000105 0.4188382657
v -0.1880742818 -0.02390000105 0.4188382657
v -0.1882928209 -0.02390000105 0.4160614518
v -0.1890421244 -0.02390000105 0.4169387737
v -0.1889516036 -0.02390000105 0.4180889623
v -0.1869240741 -0.02390000105 0.418747745
v -0.1869240741 -0.02390000105 0.418747745
v -0.1861747706 -0.02390000105 0.4178704422
v -0.1861747706 -0.02390000105 0.4178704422
v -0.1862652914 -0.02390000105 0.4167202345
v -0.1862652914 -0.02390000105 0.4167202345
v -0.186772169 -0.02297688007 0.4165555341
v -0.1868916091 -0.02259451151 0.4176375155
v -0.1874309517 -0.02297688007 0.4185830636
v -0.1874309517 -0.02482311964 0.4185830636
v -0.1868916091 -0.02520549059 0.4176375155
v -0.186772169 -0.02482311964 0.4165555341
v -0.1877859433 -0.02482311964 0.4162261523
v -0.1883252859 -0.02520549059 0.4171716813
v -0.188444726 -0.02482311964 0.4182536627
v -0.188444726 -0.02297688007 0.4182536627
v -0.1883252859 -0.02259451151 0.4171716813
v -0.1877859433 -0.02297688007 0.4162261523
f 33 7 26
f 26 8 18
f 24 9 35
f 35 10 15
f 30 11 29
f 29 12 23
f 27 13 32
f 32 14 17
f 15 16 35
f 35 16 34
f 35 34 24
f 24 34 25
f 24 25 22
f 22 25 20
f 23 21 29
f 29 21 28
f 29 28 30
f 30 28 31
f 30 31 15
f 15 31 16
f 15 3 30
f 16 17 34
f 34 17 33
f 34 33 25
f 25 33 26
f 25 26 20
f 20 26 18
f 21 19 28
f 28 19 27
f 28 27 31
f 31 27 32
f 31 32 16
f 16 32 17
f 17 4 33
f 19 2 27
f 22 1 24
