v -0.2389999962 0.0931499958 0.07800000191
v -0.2389999962 0.09237382889 0.07612616539
v -0.2389999962 0.09050000191 0.07534999847
v -0.2389999962 0.08862616539 0.07612616539
v -0.2389999962 0.08784999847 0.07800000191
v -0.2389999962 0.08862616539 0.07987383366
v -0.2389999962 0.09050000191 0.0806499958
v -0.2389999962 0.09237382889 0.07987383366
v -0.2389999962 0.09550000191 0.07800000191
v -0.2389999962 0.09454508781 0.08093893051
v -0.2389999962 0.09204508781 0.08275527954
v -0.2389999962 0.088954916 0.08275527954
v -0.2389999962 0.086454916 0.08093893051
v -0.2389999962 0.08550000191 0.07800000191
v -0.2389999962 0.086454916 0.0750610733
v -0.2389999962 0.088954916 0.07324471951
v -0.2389999962 0.09204508781 0.07324471951
v -0.2389999962 0.09454508781 0.0750610733
v -0.2389999962 0.0931499958 0.07800000191
v -0.2389999962 0.09237382889 0.07987383366
v -0.2389999962 0.09050000191 0.0806499958
v -0.2389999962 0.08862616539 0.07987383366
v -0.2389999962 0.08784999847 0.07800000191
v -0.2389999962 0.08862616539 0.07612616539
v -0.2389999962 0.09050000191 0.07534999847
v -0.2389999962 0.09237382889 0.07612616539
v -0.24 0.0931499958 0.07800000191
v -0.24 0.09237382889 0.07612616539
v -0.24 0.09050000191 0.07534999847
v -0.24 0.08862616539 0.07612616539
v -0.24 0.08784999847 0.07800000191
v -0.24 0.08862616539 0.07987383366
v -0.24 0.09050000191 0.0806499958
v -0.24 0.09237382889 0.07987383366
v -0.2389999962 0.0931499958 0.07800000191
v -0.24 0.0931499958 0.07800000191
v -0.2389999962 0.09550000191 0.07800000191
v -0.2389999962 0.09454508781 0.0750610733
v -0.2389999962 0.09204508781 0.07324471951
v -0.2389999962 0.088954916 0.07324471951
v -0.2389999962 0.086454916 0.0750610733
v -0.2389999962 0.08550000191 0.07800000191
v -0.2389999962 0.086454916 0.08093893051
v -0.2389999962 0.088954916 0.08275527954
v -0.2389999962 0.09204508781 0.08275527954
v -0.2389999962 0.09454508781 0.08093893051
v -0.24 0.09550000191 0.07800000191
v -0.24 0.09454508781 0.08093893051
v -0.24 0.09204508781 0.08275527954
v -0.24 0.088954916 0.08275527954
v -0.24 0.086454916 0.08093893051
v -0.24 0.08550000191 0.07800000191
v -0.24 0.086454916 0.0750610733
v -0.24 0.088954916 0.07324471951
v -0.24 0.09204508781 0.07324471951
v -0.24 0.09454508781 0.0750610733
v -0.24 0.09550000191 0.07800000191
v -0.2389999962 0.09550000191 0.07800000191
v -0.24 0.0931499958 0.07800000191
v -0.24 0.09237382889 0.07987383366
v -0.24 0.09050000191 0.0806499958
v -0.24 0.08862616539 0.07987383366
v -0.24 0.08784999847 0.07800000191
v -0.24 0.08862616539 0.07612616539
v -0.24 0.09050000191 0.07534999847
v -0.24 0.09237382889 0.07612616539
v -0.24 0.09550000191 0.07800000191
v -0.24 0.09454508781 0.0750610733
v -0.24 0.09204508781 0.07324471951
v -0.24 0.088954916 0.07324471951
v -0.24 0.086454916 0.0750610733
v -0.24 0.08550000191 0.07800000191
v -0.24 0.086454916 0.08093893051
v -0.24 0.088954916 0.08275527954
v -0.24 0.09204508781 0.08275527954
v -0.24 0.09454508781 0.08093893051
f 2 18 1
f 1 18 9
f 1 9 10
f 18 2 17
f 17 2 3
f 17 3 16
f 16 3 4
f 16 4 15
f 15 4 5
f 15 5 14
f 14 5 13
f 13 5 6
f 13 6 12
f 12 6 7
f 12 7 11
f 11 7 8
f 11 8 10
f 10 8 1
f 20 34 19
f 19 34 36
f 35 27 26
f 26 27 28
f 26 28 25
f 25 28 29
f 25 29 24
f 24 29 30
f 24 30 23
f 23 30 31
f 23 31 22
f 22 31 32
f 22 32 21
f 21 32 33
f 21 33 20
f 20 33 34
f 38 56 37
f 37 56 57
f 58 47 46
f 46 47 48
f 46 48 45
f 45 48 49
f 45 49 44
f 44 49 50
f 44 50 43
f 43 50 51
f 43 51 42
f 42 51 52
f 42 52 41
f 41 52 53
f 41 53 40
f 40 53 54
f 40 54 39
f 39 54 55
f 39 55 38
f 38 55 56
f 60 76 59
f 59 76 67
f 59 67 68
f 76 60 75
f 75 60 61
f 75 61 74
f 74 61 62
f 74 62 73
f 73 62 63
f 73 63 72
f 72 63 71
f 71 63 64
f 71 64 70
f 70 64 65
f 70 65 69
f 69 65 66
f 69 66 68
f 68 66 59
