v -0.2129999924 0.08840000153 0.625
v -0.2129999924 0.08919067383 0.6233581543
v -0.2129999924 0.09096729279 0.622952652
v -0.2129999924 0.09239203453 0.6240888596
v -0.2129999924 0.09239203453 0.6259111404
v -0.2129999924 0.09096729279 0.627047348
v -0.2129999924 0.08919067383 0.6266418457
v -0.2129999924 0.08592000008 0.635
v -0.2129999924 0.08737500191 0.6335449982
v -0.2129999924 0.08737500191 0.6331999969
v -0.2129999924 0.085 0.6331999969
v -0.2129999924 0.085 0.6315606689
v -0.2129999924 0.08766065598 0.6288999939
v -0.2129999924 0.09029000282 0.6288999939
v -0.2129999924 0.09050000191 0.6286899948
v -0.2129999924 0.09071000099 0.6288999939
v -0.2129999924 0.0933393383 0.6288999939
v -0.2129999924 0.09600000381 0.6315606689
v -0.2129999924 0.09600000381 0.6331999969
v -0.2129999924 0.09362500191 0.6331999969
v -0.2129999924 0.09362500191 0.6335449982
v -0.2129999924 0.09508000374 0.635
v -0.2129999924 0.1 0.635
v -0.2129999924 0.1002499962 0.6349330139
v -0.2129999924 0.1004330158 0.6347499847
v -0.2129999924 0.1005000019 0.6345000076
v -0.2129999924 0.1005000019 0.6295800018
v -0.2129999924 0.09904500008 0.628125
v -0.2129999924 0.09869999886 0.628125
v -0.2129999924 0.09869999886 0.6304999924
v -0.2129999924 0.09706066132 0.6304999924
v -0.2129999924 0.0943999958 0.6278393555
v -0.2129999924 0.0943999958 0.6252099991
v -0.2129999924 0.09418999672 0.625
v -0.2129999924 0.0943999958 0.6247900009
v -0.2129999924 0.0943999958 0.6221606445
v -0.2129999924 0.09706066132 0.6195000076
v -0.2129999924 0.09869999886 0.6195000076
v -0.2129999924 0.09869999886 0.621875
v -0.2129999924 0.09904500008 0.621875
v -0.2129999924 0.1005000019 0.6204199982
v -0.2129999924 0.1005000019 0.6154999924
v -0.2129999924 0.1004330158 0.6152500153
v -0.2129999924 0.1002499962 0.6150669861
v -0.2129999924 0.1 0.615
v -0.2129999924 0.09508000374 0.615
v -0.2129999924 0.09362500191 0.6164550018
v -0.2129999924 0.09362500191 0.6168000031
v -0.2129999924 0.09600000381 0.6168000031
v -0.2129999924 0.09600000381 0.6184393311
v -0.2129999924 0.0933393383 0.6211000061
v -0.2129999924 0.09071000099 0.6211000061
v -0.2129999924 0.09050000191 0.6213100052
v -0.2129999924 0.09029000282 0.6211000061
v -0.2129999924 0.08766065598 0.6211000061
v -0.2129999924 0.085 0.6184393311
v -0.2129999924 0.085 0.6168000031
v -0.2129999924 0.08737500191 0.6168000031
v -0.2129999924 0.08737500191 0.6164550018
v -0.2129999924 0.08592000008 0.615
v -0.2129999924 0.08100000381 0.615
v -0.2129999924 0.08074999809 0.6150669861
v -0.2129999924 0.08056698799 0.6152500153
v -0.2129999924 0.08050000191 0.6154999924
v -0.2129999924 0.08050000191 0.6204199982
v -0.2129999924 0.08195500374 0.621875
v -0.2129999924 0.08229999542 0.621875
v -0.2129999924 0.08229999542 0.6195000076
v -0.2129999924 0.0839393425 0.6195000076
v -0.2129999924 0.08659999847 0.6221606445
v -0.2129999924 0.08659999847 0.6247900009
v -0.2129999924 0.08680999756 0.625
v -0.2129999924 0.08659999847 0.6252099991
v -0.2129999924 0.08659999847 0.6278393555
v -0.2129999924 0.0839393425 0.6304999924
v -0.2129999924 0.08229999542 0.6304999924
v -0.2129999924 0.08229999542 0.628125
v -0.2129999924 0.08195500374 0.628125
v -0.2129999924 0.08050000191 0.6295800018
v -0.2129999924 0.08050000191 0.6345000076
v -0.2129999924 0.08056698799 0.6347499847
v -0.2129999924 0.08074999809 0.6349330139
v -0.2129999924 0.08100000381 0.635
v -0.2129999924 0.09029000282 0.6288999939
v -0.2129999924 0.08766065598 0.6288999939
v 0.2129999924 0.08766065598 0.6288999939
v 0.2129999924 0.09029000282 0.6288999939
v -0.2129999924 0.0839393425 0.6195000076
v -0.2129999924 0.08229999542 0.6195000076
v 0.2129999924 0.08229999542 0.6195000076
v 0.2129999924 0.0839393425 0.6195000076
v -0.2129999924 0.09869999886 0.6304999924
v -0.2129999924 0.09869999886 0.628125
v 0.2129999924 0.09869999886 0.628125
v 0.2129999924 0.09869999886 0.6304999924
v -0.2129999924 0.08659999847 0.6221606445
v -0.2129999924 0.0839393425 0.6195000076
v 0.2129999924 0.0839393425 0.6195000076
v 0.2129999924 0.08659999847 0.6221606445
v -0.2129999924 0.09869999886 0.628125
v -0.2129999924 0.09904500008 0.628125
v 0.2129999924 0.09904500008 0.628125
v 0.2129999924 0.09869999886 0.628125
v -0.2129999924 0.0933393383 0.6211000061
v -0.2129999924 0.09600000381 0.6184393311
v 0.2129999924 0.09600000381 0.6184393311
v 0.2129999924 0.0933393383 0.6211000061
v -0.2129999924 0.09600000381 0.6184393311
v -0.2129999924 0.09600000381 0.6168000031
v 0.2129999924 0.09600000381 0.6168000031
v 0.2129999924 0.09600000381 0.6184393311
v -0.2129999924 0.0943999958 0.6252099991
v -0.2129999924 0.0943999958 0.6278393555
v 0.2129999924 0.0943999958 0.6278393555
v 0.2129999924 0.0943999958 0.6252099991
v -0.2129999924 0.08229999542 0.6195000076
v -0.2129999924 0.08229999542 0.621875
v 0.2129999924 0.08229999542 0.621875
v 0.2129999924 0.08229999542 0.6195000076
v -0.2129999924 0.08229999542 0.621875
v -0.2129999924 0.08195500374 0.621875
v 0.2129999924 0.08195500374 0.621875
v 0.2129999924 0.08229999542 0.621875
v -0.2129999924 0.08680999756 0.625
v -0.2129999924 0.08659999847 0.6247900009
v 0.2129999924 0.08659999847 0.6247900009
v 0.2129999924 0.08680999756 0.625
v -0.2129999924 0.09050000191 0.6213100052
v -0.2129999924 0.09071000099 0.6211000061
v 0.2129999924 0.09071000099 0.6211000061
v 0.2129999924 0.09050000191 0.6213100052
v -0.2129999924 0.09706066132 0.6195000076
v -0.2129999924 0.0943999958 0.6221606445
v 0.2129999924 0.0943999958 0.6221606445
v 0.2129999924 0.09706066132 0.6195000076
v -0.2129999924 0.09706066132 0.6304999924
v -0.2129999924 0.09869999886 0.6304999924
v 0.2129999924 0.09869999886 0.6304999924
v 0.2129999924 0.09706066132 0.6304999924
v 0.2129999924 0.1005000019 0.6295800018
v -0.2129999924 0.1005000019 0.6295800018
v -0.2129999924 0.1005000019 0.6345000076
v 0.2129999924 0.1005000019 0.6345000076
v -0.2129999924 0.0943999958 0.6278393555
v -0.2129999924 0.09706066132 0.6304999924
v 0.2129999924 0.09706066132 0.6304999924
v 0.2129999924 0.0943999958 0.6278393555
v 0.2129999924 0.08100000381 0.615
v 0.2129999924 0.08074999809 0.6150669861
v 0.2129999924 0.08056698799 0.6152500153
v 0.2129999924 0.08050000191 0.6154999924
v -0.2129999924 0.08050000191 0.6154999924
v -0.2129999924 0.08056698799 0.6152500153
v -0.2129999924 0.08074999809 0.6150669861
v -0.2129999924 0.08100000381 0.615
v -0.2129999924 0.08659999847 0.6278393555
v -0.2129999924 0.08659999847 0.6252099991
v 0.2129999924 0.08659999847 0.6252099991
v 0.2129999924 0.08659999847 0.6278393555
v -0.2129999924 0.08737500191 0.6164550018
v -0.2129999924 0.08737500191 0.6168000031
v 0.2129999924 0.08737500191 0.6168000031
v 0.2129999924 0.08737500191 0.6164550018
v -0.2129999924 0.09869999886 0.621875
v -0.2129999924 0.09869999886 0.6195000076
v 0.2129999924 0.09869999886 0.6195000076
v 0.2129999924 0.09869999886 0.621875
v -0.2129999924 0.09362500191 0.6335449982
v -0.2129999924 0.09362500191 0.6331999969
v 0.2129999924 0.09362500191 0.6331999969
v 0.2129999924 0.09362500191 0.6335449982
v -0.2129999924 0.09071000099 0.6288999939
v -0.2129999924 0.09050000191 0.6286899948
v 0.2129999924 0.09050000191 0.6286899948
v 0.2129999924 0.09071000099 0.6288999939
v -0.2129999924 0.0933393383 0.6288999939
v -0.2129999924 0.09071000099 0.6288999939
v 0.2129999924 0.09071000099 0.6288999939
v 0.2129999924 0.0933393383 0.6288999939
v -0.2129999924 0.085 0.6184393311
v -0.2129999924 0.08766065598 0.6211000061
v 0.2129999924 0.08766065598 0.6211000061
v 0.2129999924 0.085 0.6184393311
v -0.2129999924 0.08195500374 0.628125
v -0.2129999924 0.08229999542 0.628125
v 0.2129999924 0.08229999542 0.628125
v 0.2129999924 0.08195500374 0.628125
v -0.2129999924 0.08229999542 0.6304999924
v -0.2129999924 0.0839393425 0.6304999924
v 0.2129999924 0.0839393425 0.6304999924
v 0.2129999924 0.08229999542 0.6304999924
v -0.2129999924 0.09508000374 0.635
v -0.2129999924 0.09362500191 0.6335449982
v 0.2129999924 0.09362500191 0.6335449982
v 0.2129999924 0.09508000374 0.635
v -0.2129999924 0.08229999542 0.628125
v -0.2129999924 0.08229999542 0.6304999924
v 0.2129999924 0.08229999542 0.6304999924
v 0.2129999924 0.08229999542 0.628125
v -0.2129999924 0.08592000008 0.615
v -0.2129999924 0.08737500191 0.6164550018
v 0.2129999924 0.08737500191 0.6164550018
v 0.2129999924 0.08592000008 0.615
v -0.2129999924 0.09600000381 0.6331999969
v -0.2129999924 0.09600000381 0.6315606689
v 0.2129999924 0.09600000381 0.6315606689
v 0.2129999924 0.09600000381 0.6331999969
v -0.2129999924 0.0839393425 0.6304999924
v -0.2129999924 0.08659999847 0.6278393555
v 0.2129999924 0.08659999847 0.6278393555
v 0.2129999924 0.0839393425 0.6304999924
v -0.2129999924 0.08737500191 0.6168000031
v -0.2129999924 0.085 0.6168000031
v 0.2129999924 0.085 0.6168000031
v 0.2129999924 0.08737500191 0.6168000031
v -0.2129999924 0.08050000191 0.6295800018
v -0.2129999924 0.08195500374 0.628125
v 0.2129999924 0.08195500374 0.628125
v 0.2129999924 0.08050000191 0.6295800018
v -0.2129999924 0.09600000381 0.6315606689
v -0.2129999924 0.0933393383 0.6288999939
v 0.2129999924 0.0933393383 0.6288999939
v 0.2129999924 0.09600000381 0.6315606689
v -0.2129999924 0.09362500191 0.6331999969
v -0.2129999924 0.09600000381 0.6331999969
v 0.2129999924 0.09600000381 0.6331999969
v 0.2129999924 0.09362500191 0.6331999969
v -0.2129999924 0.085 0.6168000031
v -0.2129999924 0.085 0.6184393311
v 0.2129999924 0.085 0.6184393311
v 0.2129999924 0.085 0.6168000031
v -0.2129999924 0.1005000019 0.6204199982
v -0.2129999924 0.09904500008 0.621875
v 0.2129999924 0.09904500008 0.621875
v 0.2129999924 0.1005000019 0.6204199982
v 0.2129999924 0.08840000153 0.625
v 0.2129999924 0.08919067383 0.6233581543
v 0.2129999924 0.09096729279 0.622952652
v 0.2129999924 0.09239203453 0.6240888596
v 0.2129999924 0.09239203453 0.6259111404
v 0.2129999924 0.09096729279 0.627047348
v 0.2129999924 0.08919067383 0.6266418457
v -0.2129999924 0.08840000153 0.625
v -0.2129999924 0.08919067383 0.6266418457
v -0.2129999924 0.09096729279 0.627047348
v -0.2129999924 0.09239203453 0.6259111404
v -0.2129999924 0.09239203453 0.6240888596
v -0.2129999924 0.09096729279 0.622952652
v -0.2129999924 0.08919067383 0.6233581543
v 0.2129999924 0.08840000153 0.625
v -0.2129999924 0.08840000153 0.625
v -0.2129999924 0.09869999886 0.6195000076
v -0.2129999924 0.09706066132 0.6195000076
v 0.2129999924 0.09706066132 0.6195000076
v 0.2129999924 0.09869999886 0.6195000076
v -0.2129999924 0.09904500008 0.621875
v -0.2129999924 0.09869999886 0.621875
v 0.2129999924 0.09869999886 0.621875
v 0.2129999924 0.09904500008 0.621875
v -0.2129999924 0.09508000374 0.635
v 0.2129999924 0.09508000374 0.635
v 0.2129999924 0.1 0.635
v -0.2129999924 0.1 0.635
v -0.2129999924 0.1005000019 0.6204199982
v 0.2129999924 0.1005000019 0.6204199982
v 0.2129999924 0.1005000019 0.6154999924
v -0.2129999924 0.1005000019 0.6154999924
v 0.2129999924 0.08050000191 0.6204199982
v -0.2129999924 0.08050000191 0.6204199982
v -0.2129999924 0.08050000191 0.6154999924
v 0.2129999924 0.08050000191 0.6154999924
v -0.2129999924 0.08592000008 0.615
v 0.2129999924 0.08592000008 0.615
v 0.2129999924 0.08100000381 0.615
v -0.2129999924 0.08100000381 0.615
v -0.2129999924 0.08050000191 0.6295800018
v 0.2129999924 0.08050000191 0.6295800018
v 0.2129999924 0.08050000191 0.6345000076
v -0.2129999924 0.08050000191 0.6345000076
v 0.2129999924 0.1 0.635
v 0.2129999924 0.1002499962 0.6349330139
v 0.2129999924 0.1004330158 0.6347499847
v 0.2129999924 0.1005000019 0.6345000076
v -0.2129999924 0.1005000019 0.6345000076
v -0.2129999924 0.1004330158 0.6347499847
v -0.2129999924 0.1002499962 0.6349330139
v -0.2129999924 0.1 0.635
v 0.2129999924 0.08592000008 0.635
v -0.2129999924 0.08592000008 0.635
v -0.2129999924 0.08100000381 0.635
v 0.2129999924 0.08100000381 0.635
v 0.2129999924 0.08737500191 0.6335449982
v 0.2129999924 0.08592000008 0.635
v 0.2129999924 0.08100000381 0.635
v 0.2129999924 0.08074999809 0.6349330139
v 0.2129999924 0.08056698799 0.6347499847
v 0.2129999924 0.08050000191 0.6345000076
v 0.2129999924 0.08050000191 0.6295800018
v 0.2129999924 0.08195500374 0.628125
v 0.2129999924 0.08229999542 0.628125
v 0.2129999924 0.08229999542 0.6304999924
v 0.2129999924 0.0839393425 0.6304999924
v 0.2129999924 0.08659999847 0.6278393555
v 0.2129999924 0.08659999847 0.6252099991
v 0.2129999924 0.08680999756 0.625
v 0.2129999924 0.08659999847 0.6247900009
v 0.2129999924 0.08659999847 0.6221606445
v 0.2129999924 0.0839393425 0.6195000076
v 0.2129999924 0.08229999542 0.6195000076
v 0.2129999924 0.08229999542 0.621875
v 0.2129999924 0.08195500374 0.621875
v 0.2129999924 0.08050000191 0.6204199982
v 0.2129999924 0.08050000191 0.6154999924
v 0.2129999924 0.08056698799 0.6152500153
v 0.2129999924 0.08074999809 0.6150669861
v 0.2129999924 0.08100000381 0.615
v 0.2129999924 0.08592000008 0.615
v 0.2129999924 0.08737500191 0.6164550018
v 0.2129999924 0.08737500191 0.6168000031
v 0.2129999924 0.085 0.6168000031
v 0.2129999924 0.085 0.6184393311
v 0.2129999924 0.08766065598 0.6211000061
v 0.2129999924 0.09029000282 0.6211000061
v 0.2129999924 0.09050000191 0.6213100052
v 0.2129999924 0.09071000099 0.6211000061
v 0.2129999924 0.0933393383 0.6211000061
v 0.2129999924 0.09600000381 0.6184393311
v 0.2129999924 0.09600000381 0.6168000031
v 0.2129999924 0.09362500191 0.6168000031
v 0.2129999924 0.09362500191 0.6164550018
v 0.2129999924 0.09508000374 0.615
v 0.2129999924 0.1 0.615
v 0.2129999924 0.1002499962 0.6150669861
v 0.2129999924 0.1004330158 0.6152500153
v 0.2129999924 0.1005000019 0.6154999924
v 0.2129999924 0.1005000019 0.6204199982
v 0.2129999924 0.09904500008 0.621875
v 0.2129999924 0.09869999886 0.621875
v 0.2129999924 0.09869999886 0.6195000076
v 0.2129999924 0.09706066132 0.6195000076
v 0.2129999924 0.0943999958 0.6221606445
v 0.2129999924 0.0943999958 0.6247900009
v 0.2129999924 0.09418999672 0.625
v 0.2129999924 0.0943999958 0.6252099991
v 0.2129999924 0.0943999958 0.6278393555
v 0.2129999924 0.09706066132 0.6304999924
v 0.2129999924 0.09869999886 0.6304999924
v 0.2129999924 0.09869999886 0.628125
v 0.2129999924 0.09904500008 0.628125
v 0.2129999924 0.1005000019 0.6295800018
v 0.2129999924 0.1005000019 0.6345000076
v 0.2129999924 0.1004330158 0.6347499847
v 0.2129999924 0.1002499962 0.6349330139
v 0.2129999924 0.1 0.635
v 0.2129999924 0.09508000374 0.635
v 0.2129999924 0.09362500191 0.6335449982
v 0.2129999924 0.09362500191 0.6331999969
v 0.2129999924 0.09600000381 0.6331999969
v 0.2129999924 0.09600000381 0.6315606689
v 0.2129999924 0.0933393383 0.6288999939
v 0.2129999924 0.09071000099 0.6288999939
v 0.2129999924 0.09050000191 0.6286899948
v 0.2129999924 0.09029000282 0.6288999939
v 0.2129999924 0.08766065598 0.6288999939
v 0.2129999924 0.085 0.6315606689
v 0.2129999924 0.085 0.6331999969
v 0.2129999924 0.08737500191 0.6331999969
v 0.2129999924 0.08840000153 0.625
v 0.2129999924 0.08919067383 0.6266418457
v 0.2129999924 0.09096729279 0.627047348
v 0.2129999924 0.09239203453 0.6259111404
v 0.2129999924 0.09239203453 0.6240888596
v 0.2129999924 0.09096729279 0.622952652
v 0.2129999924 0.08919067383 0.6233581543
v 0.2129999924 0.08050000191 0.6345000076
v 0.2129999924 0.08056698799 0.6347499847
v 0.2129999924 0.08074999809 0.6349330139
v 0.2129999924 0.08100000381 0.635
v -0.2129999924 0.08100000381 0.635
v -0.2129999924 0.08074999809 0.6349330139
v -0.2129999924 0.08056698799 0.6347499847
v -0.2129999924 0.08050000191 0.6345000076
v 0.2129999924 0.09508000374 0.615
v -0.2129999924 0.09508000374 0.615
v -0.2129999924 0.1 0.615
v 0.2129999924 0.1 0.615
v -0.2129999924 0.0943999958 0.6221606445
v -0.2129999924 0.0943999958 0.6247900009
v 0.2129999924 0.0943999958 0.6247900009
v 0.2129999924 0.0943999958 0.6221606445
v -0.2129999924 0.08737500191 0.6335449982
v -0.2129999924 0.08592000008 0.635
v 0.2129999924 0.08592000008 0.635
v 0.2129999924 0.08737500191 0.6335449982
v -0.2129999924 0.085 0.6315606689
v -0.2129999924 0.085 0.6331999969
v 0.2129999924 0.085 0.6331999969
v 0.2129999924 0.085 0.6315606689
v -0.2129999924 0.09418999672 0.625
v -0.2129999924 0.0943999958 0.6252099991
v 0.2129999924 0.0943999958 0.6252099991
v 0.2129999924 0.09418999672 0.625
v -0.2129999924 0.0943999958 0.6247900009
v -0.2129999924 0.09418999672 0.625
v 0.2129999924 0.09418999672 0.625
v 0.2129999924 0.0943999958 0.6247900009
v -0.2129999924 0.08766065598 0.6288999939
v -0.2129999924 0.085 0.6315606689
v 0.2129999924 0.085 0.6315606689
v 0.2129999924 0.08766065598 0.6288999939
v -0.2129999924 0.08737500191 0.6331999969
v -0.2129999924 0.08737500191 0.6335449982
v 0.2129999924 0.08737500191 0.6335449982
v 0.2129999924 0.08737500191 0.6331999969
v -0.2129999924 0.09904500008 0.628125
v -0.2129999924 0.1005000019 0.6295800018
v 0.2129999924 0.1005000019 0.6295800018
v 0.2129999924 0.09904500008 0.628125
v -0.2129999924 0.08195500374 0.621875
v -0.2129999924 0.08050000191 0.6204199982
v 0.2129999924 0.08050000191 0.6204199982
v 0.2129999924 0.08195500374 0.621875
v -0.2129999924 0.09071000099 0.6211000061
v -0.2129999924 0.0933393383 0.6211000061
v 0.2129999924 0.0933393383 0.6211000061
v 0.2129999924 0.09071000099 0.6211000061
v -0.2129999924 0.09600000381 0.6168000031
v -0.2129999924 0.09362500191 0.6168000031
v 0.2129999924 0.09362500191 0.6168000031
v 0.2129999924 0.09600000381 0.6168000031
v -0.2129999924 0.085 0.6331999969
v -0.2129999924 0.08737500191 0.6331999969
v 0.2129999924 0.08737500191 0.6331999969
v 0.2129999924 0.085 0.6331999969
v -0.2129999924 0.09362500191 0.6168000031
v -0.2129999924 0.09362500191 0.6164550018
v 0.2129999924 0.09362500191 0.6164550018
v 0.2129999924 0.09362500191 0.6168000031
v -0.2129999924 0.08659999847 0.6247900009
v -0.2129999924 0.08659999847 0.6221606445
v 0.2129999924 0.08659999847 0.6221606445
v 0.2129999924 0.08659999847 0.6247900009
v -0.2129999924 0.09029000282 0.6211000061
v -0.2129999924 0.09050000191 0.6213100052
v 0.2129999924 0.09050000191 0.6213100052
v 0.2129999924 0.09029000282 0.6211000061
v -0.2129999924 0.09362500191 0.6164550018
v -0.2129999924 0.09508000374 0.615
v 0.2129999924 0.09508000374 0.615
v 0.2129999924 0.09362500191 0.6164550018
v -0.2129999924 0.08659999847 0.6252099991
v -0.2129999924 0.08680999756 0.625
v 0.2129999924 0.08680999756 0.625
v 0.2129999924 0.08659999847 0.6252099991
v -0.2129999924 0.09050000191 0.6286899948
v -0.2129999924 0.09029000282 0.6288999939
v 0.2129999924 0.09029000282 0.6288999939
v 0.2129999924 0.09050000191 0.6286899948
v 0.2129999924 0.1005000019 0.6154999924
v 0.2129999924 0.1004330158 0.6152500153
v 0.2129999924 0.1002499962 0.6150669861
v 0.2129999924 0.1 0.615
v -0.2129999924 0.1 0.615
v -0.2129999924 0.1002499962 0.6150669861
v -0.2129999924 0.1004330158 0.6152500153
v -0.2129999924 0.1005000019 0.6154999924
v -0.2129999924 0.08766065598 0.6211000061
v -0.2129999924 0.09029000282 0.6211000061
v 0.2129999924 0.09029000282 0.6211000061
v 0.2129999924 0.08766065598 0.6211000061
f 2 70 1
f 1 70 71
f 1 71 72
f 3 53 2
f 2 53 54
f 2 54 55
f 4 51 3
f 3 51 52
f 3 52 53
f 5 34 4
f 4 34 35
f 4 35 36
f 6 17 5
f 5 17 32
f 5 32 33
f 7 15 6
f 6 15 16
f 6 16 17
f 1 74 7
f 7 74 13
f 7 13 14
f 83 8 11
f 11 8 9
f 11 9 10
f 12 76 11
f 11 76 80
f 11 80 83
f 83 80 81
f 83 81 82
f 76 12 75
f 75 12 13
f 75 13 74
f 14 15 7
f 32 17 31
f 31 17 18
f 31 18 30
f 30 18 19
f 30 19 26
f 26 19 23
f 26 23 25
f 25 23 24
f 20 21 19
f 19 21 22
f 19 22 23
f 26 27 30
f 30 27 28
f 30 28 29
f 33 34 5
f 4 36 51
f 51 36 37
f 51 37 50
f 50 37 38
f 50 38 49
f 49 38 42
f 49 42 45
f 45 42 44
f 44 42 43
f 39 40 38
f 38 40 41
f 38 41 42
f 45 46 49
f 49 46 47
f 49 47 48
f 56 69 55
f 55 69 70
f 55 70 2
f 69 56 64
f 64 56 57
f 64 57 61
f 61 57 60
f 60 57 59
f 59 57 58
f 61 62 64
f 64 62 63
f 69 64 68
f 68 64 65
f 68 65 66
f 66 67 68
f 72 73 1
f 1 73 74
f 77 78 76
f 76 78 79
f 76 79 80
f 84 85 87
f 87 85 86
f 88 89 91
f 91 89 90
f 92 93 95
f 95 93 94
f 96 97 99
f 99 97 98
f 100 101 103
f 103 101 102
f 104 105 107
f 107 105 106
f 108 109 111
f 111 109 110
f 112 113 115
f 115 113 114
f 116 117 119
f 119 117 118
f 120 121 123
f 123 121 122
f 124 125 127
f 127 125 126
f 128 129 131
f 131 129 130
f 132 133 135
f 135 133 134
f 136 137 139
f 139 137 138
f 141 142 140
f 140 142 143
f 144 145 147
f 147 145 146
f 155 148 154
f 154 148 149
f 154 149 153
f 153 149 150
f 153 150 152
f 152 150 151
f 156 157 159
f 159 157 158
f 160 161 163
f 163 161 162
f 164 165 167
f 167 165 166
f 168 169 171
f 171 169 170
f 172 173 175
f 175 173 174
f 176 177 179
f 179 177 178
f 180 181 183
f 183 181 182
f 184 185 187
f 187 185 186
f 188 189 191
f 191 189 190
f 192 193 195
f 195 193 194
f 196 197 199
f 199 197 198
f 200 201 203
f 203 201 202
f 204 205 207
f 207 205 206
f 208 209 211
f 211 209 210
f 212 213 215
f 215 213 214
f 216 217 219
f 219 217 218
f 220 221 223
f 223 221 222
f 224 225 227
f 227 225 226
f 228 229 231
f 231 229 230
f 232 233 235
f 235 233 234
f 237 249 236
f 236 249 251
f 250 243 242
f 242 243 244
f 242 244 241
f 241 244 245
f 241 245 240
f 240 245 246
f 240 246 239
f 239 246 247
f 239 247 238
f 238 247 248
f 238 248 237
f 237 248 249
f 252 253 255
f 255 253 254
f 256 257 259
f 259 257 258
f 261 262 260
f 260 262 263
f 265 266 264
f 264 266 267
f 269 270 268
f 268 270 271
f 273 274 272
f 272 274 275
f 277 278 276
f 276 278 279
f 287 280 286
f 286 280 281
f 286 281 285
f 285 281 282
f 285 282 284
f 284 282 283
f 289 290 288
f 288 290 291
f 367 292 366
f 366 292 293
f 366 293 294
f 295 296 294
f 294 296 297
f 294 297 366
f 366 297 301
f 366 301 365
f 365 301 302
f 365 302 364
f 364 302 303
f 364 303 369
f 369 303 368
f 368 303 304
f 368 304 305
f 297 298 301
f 301 298 299
f 301 299 300
f 305 306 368
f 368 306 307
f 368 307 374
f 374 307 322
f 374 322 323
f 307 308 322
f 322 308 321
f 321 308 309
f 321 309 320
f 320 309 313
f 320 313 316
f 316 313 315
f 315 313 314
f 310 311 309
f 309 311 312
f 309 312 313
f 316 317 320
f 320 317 318
f 320 318 319
f 323 324 374
f 374 324 373
f 373 324 325
f 373 325 326
f 327 340 326
f 326 340 341
f 326 341 372
f 372 341 342
f 372 342 343
f 340 327 335
f 335 327 328
f 335 328 332
f 332 328 331
f 331 328 330
f 330 328 329
f 332 333 335
f 335 333 334
f 340 335 339
f 339 335 336
f 339 336 337
f 337 338 339
f 372 343 371
f 371 343 344
f 371 344 345
f 371 345 360
f 360 345 346
f 360 346 359
f 359 346 347
f 359 347 358
f 358 347 351
f 358 351 354
f 354 351 352
f 354 352 353
f 348 349 347
f 347 349 350
f 347 350 351
f 354 355 358
f 358 355 356
f 358 356 357
f 371 360 370
f 370 360 361
f 370 361 362
f 370 362 369
f 369 362 363
f 369 363 364
f 372 373 326
f 382 375 381
f 381 375 376
f 381 376 380
f 380 376 377
f 380 377 379
f 379 377 378
f 384 385 383
f 383 385 386
f 387 388 390
f 390 388 389
f 391 392 394
f 394 392 393
f 395 396 398
f 398 396 397
f 399 400 402
f 402 400 401
f 403 404 406
f 406 404 405
f 407 408 410
f 410 408 409
f 411 412 414
f 414 412 413
f 415 416 418
f 418 416 417
f 419 420 422
f 422 420 421
f 423 424 426
f 426 424 425
f 427 428 430
f 430 428 429
f 431 432 434
f 434 432 433
f 435 436 438
f 438 436 437
f 439 440 442
f 442 440 441
f 443 444 446
f 446 444 445
f 447 448 450
f 450 448 449
f 451 452 454
f 454 452 453
f 455 456 458
f 458 456 457
f 466 459 465
f 465 459 460
f 465 460 464
f 464 460 461
f 464 461 463
f 463 461 462
f 467 468 470
f 470 468 469
