v 0.2222500038 0.06099999905 0.6279999924
v 0.2230554581 0.06099999905 0.6299445343
v 0.225 0.06099999905 0.6307500076
v 0.2269445419 0.06099999905 0.6299445343
v 0.2277499962 0.06099999905 0.6279999924
v 0.2269445419 0.06099999905 0.6260554504
v 0.225 0.06099999905 0.6252500153
v 0.2230554581 0.06099999905 0.6260554504
v 0.22 0.06099999905 0.6279999924
v 0.2209549141 0.06099999905 0.6250610733
v 0.2234549141 0.06099999905 0.6232447052
v 0.2265450859 0.06099999905 0.6232447052
v 0.2290450859 0.06099999905 0.6250610733
v 0.23 0.06099999905 0.6279999924
v 0.2290450859 0.06099999905 0.6309389114
v 0.2265450859 0.06099999905 0.6327552795
v 0.2234549141 0.06099999905 0.6327552795
v 0.2209549141 0.06099999905 0.6309389114
v 0.2222500038 0.06199999809 0.6279999924
v 0.2230554581 0.06199999809 0.6299445343
v 0.225 0.06199999809 0.6307500076
v 0.2269445419 0.06199999809 0.6299445343
v 0.2277499962 0.06199999809 0.6279999924
v 0.2269445419 0.06199999809 0.6260554504
v 0.225 0.06199999809 0.6252500153
v 0.2230554581 0.06199999809 0.6260554504
v 0.2222500038 0.06099999905 0.6279999924
v 0.2230554581 0.06099999905 0.6260554504
v 0.225 0.06099999905 0.6252500153
v 0.2269445419 0.06099999905 0.6260554504
v 0.2277499962 0.06099999905 0.6279999924
v 0.2269445419 0.06099999905 0.6299445343
v 0.225 0.06099999905 0.6307500076
v 0.2230554581 0.06099999905 0.6299445343
v 0.2222500038 0.06199999809 0.6279999924
v 0.2222500038 0.06099999905 0.6279999924
v 0.2222500038 0.06199999809 0.6279999924
v 0.2230554581 0.06199999809 0.6260554504
v 0.225 0.06199999809 0.6252500153
v 0.2269445419 0.06199999809 0.6260554504
v 0.2277499962 0.06199999809 0.6279999924
v 0.2269445419 0.06199999809 0.6299445343
v 0.225 0.06199999809 0.6307500076
v 0.2230554581 0.06199999809 0.6299445343
v 0.22 0.06199999809 0.6279999924
v 0.2209549141 0.06199999809 0.6309389114
v 0.2234549141 0.06199999809 0.6327552795
v 0.2265450859 0.06199999809 0.6327552795
v 0.2290450859 0.06199999809 0.6309389114
v 0.23 0.06199999809 0.6279999924
v 0.2290450859 0.06199999809 0.6250610733
v 0.2265450859 0.06199999809 0.6232447052
v 0.2234549141 0.06199999809 0.6232447052
v 0.2209549141 0.06199999809 0.6250610733
v 0.22 0.06199999809 0.6279999924
v 0.2209549141 0.06199999809 0.6250610733
v 0.2234549141 0.06199999809 0.6232447052
v 0.2265450859 0.06199999809 0.6232447052
v 0.2290450859 0.06199999809 0.6250610733
v 0.23 0.06199999809 0.6279999924
v 0.2290450859 0.06199999809 0.6309389114
v 0.2265450859 0.06199999809 0.6327552795
v 0.2234549141 0.06199999809 0.6327552795
v 0.2209549141 0.06199999809 0.6309389114
v 0.22 0.06099999905 0.6279999924
v 0.2209549141 0.06099999905 0.6309389114
v 0.2234549141 0.06099999905 0.6327552795
v 0.2265450859 0.06099999905 0.6327552795
v 0.2290450859 0.06099999905 0.6309389114
v 0.23 0.06099999905 0.6279999924
v 0.2290450859 0.06099999905 0.6250610733
v 0.2265450859 0.06099999905 0.6232447052
v 0.2234549141 0.06099999905 0.6232447052
v 0.2209549141 0.06099999905 0.6250610733
v 0.22 0.06099999905 0.6279999924
v 0.22 0.06199999809 0.6279999924
f 2 18 1
f 1 18 9
f 1 9 10
f 18 2 17
f 17 2 3
f 17 3 16
f 16 3 4
f 16 4 15
f 15 4 5
f 15 5 14
f 14 5 13
f 13 5 6
f 13 6 12
f 12 6 7
f 12 7 11
f 11 7 8
f 11 8 10
f 10 8 1
f 20 34 19
f 19 34 36
f 35 27 26
f 26 27 28
f 26 28 25
f 25 28 29
f 25 29 24
f 24 29 30
f 24 30 23
f 23 30 31
f 23 31 22
f 22 31 32
f 22 32 21
f 21 32 33
f 21 33 20
f 20 33 34
f 38 54 37
f 37 54 45
f 37 45 46
f 54 38 53
f 53 38 39
f 53 39 52
f 52 39 40
f 52 40 51
f 51 40 41
f 51 41 50
f 50 41 49
f 49 41 42
f 49 42 48
f 48 42 43
f 48 43 47
f 47 43 44
f 47 44 46
f 46 44 37
f 56 74 55
f 55 74 75
f 76 65 64
f 64 65 66
f 64 66 63
f 63 66 67
f 63 67 62
f 62 67 68
f 62 68 61
f 61 68 69
f 61 69 60
f 60 69 70
f 60 70 59
f 59 70 71
f 59 71 58
f 58 71 72
f 58 72 57
f 57 72 73
f 57 73 56
f 56 73 74
