v -0.23 0.09300000191 0.04800000191
v -0.23 0.09226777077 0.049767766
v -0.23 0.09050000191 0.05050000191
v -0.23 0.08873223305 0.049767766
v -0.23 0.08800000191 0.04800000191
v -0.23 0.08873223305 0.04623223305
v -0.23 0.09050000191 0.04550000191
v -0.23 0.09226777077 0.04623223305
v -0.245 0.09475000381 0.04800000191
v -0.245 0.09393832207 0.04550191402
v -0.245 0.09181332588 0.04395801067
v -0.245 0.08918667793 0.04395801067
v -0.245 0.08706168175 0.04550191402
v -0.245 0.08625 0.04800000191
v -0.245 0.08706168175 0.05049808502
v -0.245 0.08918667793 0.05204198837
v -0.245 0.09181332588 0.05204198837
v -0.245 0.09393832207 0.05049808502
v -0.24 0.09475000381 0.04800000191
v -0.24 0.09393832207 0.05049808502
v -0.24 0.09181332588 0.05204198837
v -0.24 0.08918667793 0.05204198837
v -0.24 0.08706168175 0.05049808502
v -0.24 0.08625 0.04800000191
v -0.24 0.08706168175 0.04550191402
v -0.24 0.08918667793 0.04395801067
v -0.24 0.09181332588 0.04395801067
v -0.24 0.09393832207 0.04550191402
v -0.24 0.09300000191 0.04800000191
v -0.24 0.09226777077 0.04623223305
v -0.24 0.09050000191 0.04550000191
v -0.24 0.08873223305 0.04623223305
v -0.24 0.08800000191 0.04800000191
v -0.24 0.08873223305 0.049767766
v -0.24 0.09050000191 0.05050000191
v -0.24 0.09226777077 0.049767766
v -0.24 0.09475000381 0.04800000191
v -0.24 0.09393832207 0.04550191402
v -0.24 0.09181332588 0.04395801067
v -0.24 0.08918667793 0.04395801067
v -0.24 0.08706168175 0.04550191402
v -0.24 0.08625 0.04800000191
v -0.24 0.08706168175 0.05049808502
v -0.24 0.08918667793 0.05204198837
v -0.24 0.09181332588 0.05204198837
v -0.24 0.09393832207 0.05049808502
v -0.245 0.09475000381 0.04800000191
v -0.245 0.09393832207 0.05049808502
v -0.245 0.09181332588 0.05204198837
v -0.245 0.08918667793 0.05204198837
v -0.245 0.08706168175 0.05049808502
v -0.245 0.08625 0.04800000191
v -0.245 0.08706168175 0.04550191402
v -0.245 0.08918667793 0.04395801067
v -0.245 0.09181332588 0.04395801067
v -0.245 0.09393832207 0.04550191402
v -0.245 0.09475000381 0.04800000191
v -0.24 0.09475000381 0.04800000191
v -0.23 0.09300000191 0.04800000191
v -0.23 0.09226777077 0.04623223305
v -0.23 0.09050000191 0.04550000191
v -0.23 0.08873223305 0.04623223305
v -0.23 0.08800000191 0.04800000191
v -0.23 0.08873223305 0.049767766
v -0.23 0.09050000191 0.05050000191
v -0.23 0.09226777077 0.049767766
v -0.24 0.09300000191 0.04800000191
v -0.24 0.09226777077 0.049767766
v -0.24 0.09050000191 0.05050000191
v -0.24 0.08873223305 0.049767766
v -0.24 0.08800000191 0.04800000191
v -0.24 0.08873223305 0.04623223305
v -0.24 0.09050000191 0.04550000191
v -0.24 0.09226777077 0.04623223305
v -0.24 0.09300000191 0.04800000191
v -0.23 0.09300000191 0.04800000191
f 2 4 1
f 1 4 5
f 1 5 8
f 8 5 6
f 8 6 7
f 2 3 4
f 10 13 9
f 9 13 14
f 9 14 18
f 18 14 15
f 18 15 17
f 17 15 16
f 11 12 10
f 10 12 13
f 28 19 29
f 29 19 20
f 29 20 36
f 36 20 21
f 36 21 35
f 35 21 22
f 35 22 34
f 34 22 23
f 34 23 33
f 33 23 24
f 33 24 25
f 33 25 32
f 32 25 26
f 32 26 31
f 31 26 27
f 31 27 30
f 30 27 28
f 30 28 29
f 38 56 37
f 37 56 57
f 58 47 46
f 46 47 48
f 46 48 45
f 45 48 49
f 45 49 44
f 44 49 50
f 44 50 43
f 43 50 51
f 43 51 42
f 42 51 52
f 42 52 41
f 41 52 53
f 41 53 40
f 40 53 54
f 40 54 39
f 39 54 55
f 39 55 38
f 38 55 56
f 60 74 59
f 59 74 75
f 76 67 66
f 66 67 68
f 66 68 69
f 60 61 74
f 74 61 73
f 73 61 62
f 73 62 72
f 72 62 63
f 72 63 71
f 71 63 64
f 71 64 70
f 70 64 65
f 70 65 69
f 69 65 66
