v 0.2434529495 0.1019999981 0.4590211755
v 0.2451677895 0.1019999981 0.4581723482
v 0.2469805717 0.1019999981 0.4587847025
v 0.2478293991 0.1019999981 0.4604995424
v 0.2472170448 0.1019999981 0.4623123247
v 0.245502224 0.1019999981 0.463161152
v 0.2436894226 0.1019999981 0.4625487978
v 0.2428405952 0.1019999981 0.4608339578
v 0.2444406509 0.1019999981 0.4651981432
v 0.2488121223 0.1019999981 0.463706978
v 0.2497064781 0.1019999981 0.4591755945
v 0.2462293434 0.1019999981 0.4561353571
v 0.241857872 0.1019999981 0.4576265222
v 0.2409635353 0.1019999981 0.4621579057
v 0.2409635353 0.09699999809 0.4621579057
v 0.2444406509 0.09699999809 0.4651981432
v 0.2444406509 0.1019999981 0.4651981432
v 0.2409635353 0.1019999981 0.4621579057
v 0.2434529495 0.09699999809 0.4590211755
v 0.2428405952 0.09699999809 0.4608339578
v 0.2436894226 0.09699999809 0.4625487978
v 0.245502224 0.09699999809 0.463161152
v 0.2472170448 0.09699999809 0.4623123247
v 0.2478293991 0.09699999809 0.4604995424
v 0.2469805717 0.09699999809 0.4587847025
v 0.2451677895 0.09699999809 0.4581723482
v 0.2488121223 0.09699999809 0.463706978
v 0.2444406509 0.09699999809 0.4651981432
v 0.2409635353 0.09699999809 0.4621579057
v 0.241857872 0.09699999809 0.4576265222
v 0.2462293434 0.09699999809 0.4561353571
v 0.2497064781 0.09699999809 0.4591755945
v 0.2488121223 0.09699999809 0.463706978
v 0.2497064781 0.09699999809 0.4591755945
v 0.2497064781 0.1019999981 0.4591755945
v 0.2488121223 0.1019999981 0.463706978
v 0.2497064781 0.09699999809 0.4591755945
v 0.2462293434 0.09699999809 0.4561353571
v 0.2462293434 0.1019999981 0.4561353571
v 0.2497064781 0.1019999981 0.4591755945
v 0.241857872 0.09699999809 0.4576265222
v 0.2409635353 0.09699999809 0.4621579057
v 0.2409635353 0.1019999981 0.4621579057
v 0.241857872 0.1019999981 0.4576265222
v 0.2462293434 0.09699999809 0.4561353571
v 0.241857872 0.09699999809 0.4576265222
v 0.241857872 0.1019999981 0.4576265222
v 0.2462293434 0.1019999981 0.4561353571
v 0.2444406509 0.09699999809 0.4651981432
v 0.2488121223 0.09699999809 0.463706978
v 0.2488121223 0.1019999981 0.463706978
v 0.2444406509 0.1019999981 0.4651981432
v 0.2434529495 0.1019999981 0.4590211755
v 0.2428405952 0.1019999981 0.4608339578
v 0.2436894226 0.1019999981 0.4625487978
v 0.245502224 0.1019999981 0.463161152
v 0.2472170448 0.1019999981 0.4623123247
v 0.2478293991 0.1019999981 0.4604995424
v 0.2469805717 0.1019999981 0.4587847025
v 0.2451677895 0.1019999981 0.4581723482
v 0.2434529495 0.09699999809 0.4590211755
v 0.2451677895 0.09699999809 0.4581723482
v 0.2469805717 0.09699999809 0.4587847025
v 0.2478293991 0.09699999809 0.4604995424
v 0.2472170448 0.09699999809 0.4623123247
v 0.245502224 0.09699999809 0.463161152
v 0.2436894226 0.09699999809 0.4625487978
v 0.2428405952 0.09699999809 0.4608339578
v 0.2434529495 0.1019999981 0.4590211755
v 0.2434529495 0.09699999809 0.4590211755
f 8 1 13
f 13 1 2
f 13 2 12
f 12 2 3
f 12 3 11
f 11 3 4
f 11 4 10
f 10 4 5
f 10 5 6
f 10 6 9
f 9 6 7
f 9 7 14
f 14 7 8
f 14 8 13
f 15 16 18
f 18 16 17
f 26 19 30
f 30 19 20
f 30 20 29
f 29 20 21
f 29 21 28
f 28 21 22
f 28 22 27
f 27 22 23
f 27 23 24
f 27 24 32
f 32 24 25
f 32 25 31
f 31 25 26
f 31 26 30
f 33 34 36
f 36 34 35
f 37 38 40
f 40 38 39
f 41 42 44
f 44 42 43
f 45 46 48
f 48 46 47
f 49 50 52
f 52 50 51
f 54 68 53
f 53 68 70
f 69 61 60
f 60 61 62
f 60 62 63
f 54 55 68
f 68 55 67
f 67 55 56
f 67 56 66
f 66 56 57
f 66 57 65
f 65 57 58
f 65 58 64
f 64 58 59
f 64 59 63
f 63 59 60
