v 0.2297999954 0.08800000191 0.07800000191
v 0.2297999954 0.08873223305 0.079767766
v 0.2297999954 0.09050000191 0.08050000191
v 0.2297999954 0.09226777077 0.079767766
v 0.2297999954 0.09300000191 0.07800000191
v 0.2297999954 0.09226777077 0.07623223305
v 0.2297999954 0.09050000191 0.07550000191
v 0.2297999954 0.08873223305 0.07623223305
v 0.2331999969 0.08800000191 0.07800000191
v 0.2331999969 0.08873223305 0.07623223305
v 0.2331999969 0.09050000191 0.07550000191
v 0.2331999969 0.09226777077 0.07623223305
v 0.2331999969 0.09300000191 0.07800000191
v 0.2331999969 0.09226777077 0.079767766
v 0.2331999969 0.09050000191 0.08050000191
v 0.2331999969 0.08873223305 0.079767766
v 0.2297999954 0.08800000191 0.07800000191
v 0.2331999969 0.08800000191 0.07800000191
v 0.2331999969 0.08800000191 0.07800000191
v 0.2331999969 0.08873223305 0.079767766
v 0.2331999969 0.09050000191 0.08050000191
v 0.2331999969 0.09226777077 0.079767766
v 0.2331999969 0.09300000191 0.07800000191
v 0.2331999969 0.09226777077 0.07623223305
v 0.2331999969 0.09050000191 0.07550000191
v 0.2331999969 0.08873223305 0.07623223305
v 0.2331999969 0.08550000191 0.07300000191
v 0.2331999969 0.09550000191 0.07300000191
v 0.2331999969 0.09550000191 0.08300000191
v 0.2331999969 0.08550000191 0.08300000191
v 0.2331999969 0.09550000191 0.07300000191
v 0.2297999954 0.09399999619 0.07300000191
v 0.2297999954 0.09399999619 0.08300000191
v 0.2331999969 0.09550000191 0.08300000191
v 0.2297999954 0.08699999809 0.08300000191
v 0.2331999969 0.08550000191 0.08300000191
v 0.2331999969 0.09550000191 0.08300000191
v 0.2297999954 0.09399999619 0.08300000191
v 0.2297999954 0.08800000191 0.07800000191
v 0.2297999954 0.08873223305 0.07623223305
v 0.2297999954 0.09050000191 0.07550000191
v 0.2297999954 0.09226777077 0.07623223305
v 0.2297999954 0.09300000191 0.07800000191
v 0.2297999954 0.09226777077 0.079767766
v 0.2297999954 0.09050000191 0.08050000191
v 0.2297999954 0.08873223305 0.079767766
v 0.2297999954 0.09399999619 0.07300000191
v 0.2297999954 0.08699999809 0.07300000191
v 0.2297999954 0.08699999809 0.08300000191
v 0.2297999954 0.09399999619 0.08300000191
v 0.2297999954 0.08699999809 0.07300000191
v 0.2331999969 0.08550000191 0.07300000191
v 0.2331999969 0.08550000191 0.08300000191
v 0.2297999954 0.08699999809 0.08300000191
v 0.2331999969 0.08550000191 0.07300000191
v 0.2297999954 0.08699999809 0.07300000191
v 0.2297999954 0.09399999619 0.07300000191
v 0.2331999969 0.09550000191 0.07300000191
f 2 16 1
f 1 16 18
f 17 9 8
f 8 9 10
f 8 10 11
f 2 3 16
f 16 3 15
f 15 3 4
f 15 4 14
f 14 4 5
f 14 5 13
f 13 5 6
f 13 6 12
f 12 6 7
f 12 7 11
f 11 7 8
f 20 30 19
f 19 30 27
f 19 27 26
f 26 27 25
f 25 27 28
f 25 28 24
f 24 28 23
f 23 28 29
f 23 29 22
f 22 29 21
f 21 29 30
f 21 30 20
f 31 32 34
f 34 32 33
f 36 37 35
f 35 37 38
f 40 48 39
f 39 48 49
f 39 49 46
f 46 49 45
f 45 49 50
f 45 50 44
f 44 50 43
f 43 50 47
f 43 47 42
f 42 47 41
f 41 47 48
f 41 48 40
f 51 52 54
f 54 52 53
f 56 57 55
f 55 57 58
