v 0.01200999572 0.01200000048 0.4221767714
v 0.01380820976 0.01200000048 0.4213108001
v 0.01425233454 0.01200000048 0.4193649811
v 0.01300793654 0.01200000048 0.4178045388
v 0.01101207143 0.01200000048 0.4178045353
v 0.009767666761 0.01200000048 0.4193649732
v 0.01021178471 0.01200000048 0.4213107938
v 0.01200999624 0.01169999957 0.4218767646
v 0.01044633527 0.01169999957 0.4211237406
v 0.01006014544 0.01169999957 0.4194317309
v 0.01114223558 0.01169999957 0.4180748259
v 0.01287777025 0.01169999957 0.418074829
v 0.01395985681 0.01169999957 0.4194317378
v 0.01357366105 0.01169999957 0.4211237461
v 0.01101207143 0.01200000048 0.4178045353
v 0.01114223558 0.01169999957 0.4180748259
v 0.004211045364 0.01200000048 0.4070503291
v 0.004211045364 0.01070000052 0.4070503291
v 0.004030588994 0.01070000052 0.4063875252
v 0.003807179111 0.01070000052 0.4057379295
v 0.003541772362 0.01070000052 0.4051043364
v 0.003541772362 0.01200000048 0.4051043364
v 0.003807179111 0.01200000048 0.4057379295
v 0.004030588994 0.01200000048 0.4063875252
v 0.01102243827 0.01200000048 0.4094233212
v 0.01102243827 0.01070000052 0.4094233212
v 0.0103410259 0.01070000052 0.4095102665
v 0.009666758261 0.01070000052 0.4096415767
v 0.009002519619 0.01070000052 0.4098166988
v 0.009002519619 0.01200000048 0.4098166988
v 0.009666758261 0.01200000048 0.4096415767
v 0.0103410259 0.01200000048 0.4095102665
v 0.003970704783 0.01070000052 0.4028331713
v 0.003511920688 0.01070000052 0.4035075709
v 0.003360550902 0.01070000052 0.4043090671
v 0.003541772362 0.01070000052 0.4051043364
v 0.003807179111 0.01070000052 0.4057379295
v 0.004030588994 0.01070000052 0.4063875252
v 0.004211045364 0.01070000052 0.4070503291
v 0.004858449748 0.01070000052 0.4072813006
v 0.005493258422 0.01070000052 0.4075449164
v 0.006113826298 0.01070000052 0.4078405089
v 0.006408446845 0.01070000052 0.4063951397
v 0.007875024176 0.01070000052 0.4062368704
v 0.008471238725 0.01070000052 0.4075861013
v 0.007366818374 0.01070000052 0.4085639302
v 0.007933089829 0.01070000052 0.4089535644
v 0.008478795249 0.01070000052 0.4093715131
v 0.009002519619 0.01070000052 0.4098166988
v 0.009666758261 0.01070000052 0.4096415767
v 0.0103410259 0.01070000052 0.4095102665
v 0.01102243827 0.01070000052 0.4094233212
v 0.0118017742 0.01070000052 0.4091826247
v 0.01242020193 0.01070000052 0.4086507902
v 0.01277486039 0.01070000052 0.4079162804
v 0.01019426339 0.01070000052 0.4056525869
v 0.007221416196 0.01070000052 0.4039362063
v -0.01575000048 0.006499999762 0.4198767273
v -0.01488627285 0.006499999762 0.421065541
v -0.01348873029 0.006499999762 0.420611461
v -0.01348872771 0.006499999762 0.4191420015
v -0.01488626868 0.006499999762 0.4186878975
v -0.01450000048 0.005748924017 0.4198767295
v -0.01450000048 0.005748924017 0.4198767295
v -0.01450000048 0.005748924017 0.4198767295
v -0.01450000048 0.005748924017 0.4198767295
v -0.01450000048 0.005748924017 0.4198767295
v -0.01450000048 0.005748924017 0.4198767295
v -0.01450000048 0.005748924017 0.4198767295
v -0.01348873029 0.006499999762 0.420611461
v -0.01450000048 0.005748924017 0.4198767295
v 0.003541772362 0.01200000048 0.4051043364
v 0.003541772362 0.01070000052 0.4051043364
v 0.003360550902 0.01070000052 0.4043090671
v 0.003511920688 0.01070000052 0.4035075709
v 0.003970704783 0.01070000052 0.4028331713
v 0.003970704783 0.01149999976 0.4028331713
v 0.003629822969 0.01200000048 0.4032687901
v 0.003402916286 0.01200000048 0.4038605446
v 0.003372549589 0.01200000048 0.404493584
v 0.005515918565 0.01200000048 0.4321984656
v 0.006113784052 0.01149999976 0.4319130129
v 0.006417022807 0.01149999976 0.4315020942
v 0.006859295084 0.01149999976 0.4312467583
v 0.007366778667 0.01149999976 0.4311895959
v 0.0079129194 0.01200000048 0.4308145549
v 0.006868833933 0.01200000048 0.4307261475
v 0.005961391636 0.01200000048 0.4312500564
v -2.397261534e-08 0.00200000003 0.4335367471
v 0.00142891941 0.00200000003 0.4327117641
v 0.001428922306 0.00200000003 0.431061755
v -1.818127996e-08 0.00200000003 0.4302367479
v -0.001428961564 0.00200000003 0.43106175
v -0.00142896446 0.00200000003 0.4327117591
v -2.485011069e-08 0.00150000006 0.4340367586
v -0.001680961137 0.00150000006 0.4332272578
v -0.002096115323 0.00150000006 0.4314083331
v -0.0009328676956 0.00150000006 0.4299496712
v 0.0009328323407 0.00150000006 0.4299496745
v 0.002096074848 0.00150000006 0.4314083405
v 0.001680914278 0.00150000006 0.4332272637
v -1.818127996e-08 0.00200000003 0.4302367479
v -0.0009328676956 0.00150000006 0.4299496712
v 0.008750954461 0.00200000003 0.4258817713
v 0.009575956778 0.00200000003 0.4244528253
v 0.01122595699 0.00200000003 0.4244528282
v 0.01205095429 0.00200000003 0.4258817771
v 0.01122595198 0.00200000003 0.4273107231
v 0.009575951762 0.00200000003 0.4273107202
v 0.008750954461 0.008500000238 0.4258817713
v 0.009575951762 0.008500000238 0.4273107202
v 0.01122595198 0.008500000238 0.4273107231
v 0.01205095429 0.008500000238 0.4258817771
v 0.01122595699 0.008500000238 0.4244528282
v 0.009575956778 0.008500000238 0.4244528253
v 0.01205095429 0.00200000003 0.4258817771
v 0.01205095429 0.008500000238 0.4258817771
v 0.009575972839 0.008500000238 0.4153007181
v 0.008750975538 0.008500000238 0.4138717692
v 0.009575977855 0.008500000238 0.4124428232
v 0.01122597807 0.008500000238 0.4124428261
v 0.01205097537 0.008500000238 0.413871775
v 0.01122597305 0.008500000238 0.415300721
v 0.01040097575 0.009491419792 0.4138717721
v 0.01122597807 0.008500000238 0.4124428261
v 0.01040097575 0.009491419792 0.4138717721
v 0.01040097575 0.009491419792 0.4138717721
v 0.01040097575 0.009491419792 0.4138717721
v 0.01040097575 0.009491419792 0.4138717721
v 0.01040097575 0.009491419792 0.4138717721
v 0.01040097575 0.009491419792 0.4138717721
v 0.01200999624 0.001800000072 0.4218767646
v 0.01044633527 0.001800000072 0.4211237406
v 0.01006014544 0.001800000072 0.4194317309
v 0.01114223558 0.001800000072 0.4180748259
v 0.01287777025 0.001800000072 0.418074829
v 0.01395985681 0.001800000072 0.4194317378
v 0.01357366105 0.001800000072 0.4211237461
v 0.01200999624 0.006000000238 0.4218767646
v 0.01357366105 0.006000000238 0.4211237461
v 0.01395985681 0.006000000238 0.4194317378
v 0.01287777025 0.006000000238 0.418074829
v 0.01114223558 0.006000000238 0.4180748259
v 0.01006014544 0.006000000238 0.4194317309
v 0.01044633527 0.006000000238 0.4211237406
v 0.01287777025 0.001800000072 0.418074829
v 0.01287777025 0.006000000238 0.418074829
v -0.006004979429 0.006000000238 0.408225772
v -0.004816160344 0.006000000238 0.4090895074
v -0.005270251843 0.006000000238 0.41048704
v -0.006739714953 0.006000000238 0.4104870374
v -0.007193801545 0.006000000238 0.4090895032
v -0.006004979429 0.008000000119 0.408225772
v -0.007193801545 0.008000000119 0.4090895032
v -0.006739714953 0.008000000119 0.4104870374
v -0.005270251843 0.008000000119 0.41048704
v -0.004816160344 0.008000000119 0.4090895074
v -0.006004979429 0.008000000119 0.408225772
v -0.006004979429 0.006000000238 0.408225772
v 0.007875024176 0.006499999762 0.4062368704
v 0.006413610403 0.006499999762 0.4063904667
v 0.006108089373 0.006499999762 0.4078278154
v 0.007380680628 0.006499999762 0.4085625474
v 0.008472706203 0.006499999762 0.4075792921
v 0.007250022276 0.005748924017 0.4073193946
v 0.007250022276 0.005748924017 0.4073193946
v 0.007250022276 0.005748924017 0.4073193946
v 0.007250022276 0.005748924017 0.4073193946
v 0.007250022276 0.005748924017 0.4073193946
v 0.007250022276 0.005748924017 0.4073193946
v 0.007250022276 0.005748924017 0.4073193946
v 0.006108089373 0.006499999762 0.4078278154
v 0.007250022276 0.005748924017 0.4073193946
v 0.006113784052 0.01070000052 0.4319130129
v 0.006408399526 0.01070000052 0.4333583831
v 0.007874976301 0.01070000052 0.4335166575
v 0.008471195586 0.01070000052 0.4321674383
v 0.007366778667 0.01070000052 0.4311895959
v 0.007366778667 0.01149999976 0.4311895959
v 0.006859295084 0.01149999976 0.4312467583
v 0.006417022807 0.01149999976 0.4315020942
v 0.006113784052 0.01149999976 0.4319130129
v 0.007874976301 0.006499999762 0.4335166575
v 0.006413563068 0.006499999762 0.4333630562
v 0.006108047082 0.006499999762 0.4319257158
v 0.007380640916 0.006499999762 0.4311909883
v 0.00847266304 0.006499999762 0.4321742475
v 0.006108047082 0.006499999762 0.4319257158
v 0.006417022807 0.01149999976 0.4315020942
v 0.006113784052 0.01070000052 0.4319130129
v -0.01147597859 0.00150000006 0.4277436896
v -0.01252696194 0.00150000006 0.4262021686
v -0.01197703443 0.00150000006 0.4244193517
v -0.01024030171 0.00150000006 0.4237377446
v -0.008624560305 0.00150000006 0.4246705935
v -0.008346495358 0.00150000006 0.4265154579
v -0.009615496143 0.00150000006 0.42788312
v -0.01122597807 0.00200000003 0.4273106837
v -0.009575977855 0.00200000003 0.4273106866
v -0.008750975538 0.00200000003 0.4258817406
v -0.009575972839 0.00200000003 0.4244527917
v -0.01122597305 0.00200000003 0.4244527888
v -0.01205097537 0.00200000003 0.4258817348
v -0.009575972839 0.00200000003 0.4244527917
v -0.01024030171 0.00150000006 0.4237377446
v -2.397261534e-08 0.00200000003 0.4335367471
v -0.00142896446 0.00200000003 0.4327117591
v -0.001428961564 0.00200000003 0.43106175
v -1.818127996e-08 0.00200000003 0.4302367479
v 0.001428922306 0.00200000003 0.431061755
v 0.00142891941 0.00200000003 0.4327117641
v 0.0008249764481 0.008500000238 0.4333156869
v 0.001649978989 0.008500000238 0.4318867599
v 0.0008249814635 0.008500000238 0.4304578111
v -0.000825018602 0.008500000238 0.4304578082
v -0.001650021143 0.008500000238 0.4318867542
v -0.0008250236174 0.008500000238 0.433315684
v 0.0008249764481 0.008500000238 0.4333156869
v 0.00142891941 0.00200000003 0.4327117641
v 0.008750954461 0.008500000238 0.4258817713
v 0.009575956778 0.008500000238 0.4244528253
v 0.01122595699 0.008500000238 0.4244528282
v 0.01205095429 0.008500000238 0.4258817771
v 0.01122595198 0.008500000238 0.4273107231
v 0.009575951762 0.008500000238 0.4273107202
v 0.01040095468 0.009491419792 0.4258817742
v 0.01205095429 0.008500000238 0.4258817771
v 0.01040095468 0.009491419792 0.4258817742
v 0.01040095468 0.009491419792 0.4258817742
v 0.01040095468 0.009491419792 0.4258817742
v 0.01040095468 0.009491419792 0.4258817742
v 0.01040095468 0.009491419792 0.4258817742
v 0.01040095468 0.009491419792 0.4258817742
v 0.01200999572 0.00150000006 0.4221767714
v 0.01021178471 0.00150000006 0.4213107938
v 0.009767666761 0.00150000006 0.4193649732
v 0.01101207143 0.00150000006 0.4178045353
v 0.01300793654 0.00150000006 0.4178045388
v 0.01425233454 0.00150000006 0.4193649811
v 0.01380820976 0.00150000006 0.4213108001
v 0.01200999624 0.001800000072 0.4218767646
v 0.01357366105 0.001800000072 0.4211237461
v 0.01395985681 0.001800000072 0.4194317378
v 0.01287777025 0.001800000072 0.418074829
v 0.01114223558 0.001800000072 0.4180748259
v 0.01006014544 0.001800000072 0.4194317309
v 0.01044633527 0.001800000072 0.4211237406
v 0.01300793654 0.00150000006 0.4178045388
v 0.01287777025 0.001800000072 0.418074829
v -1.491709101e-08 0.01200000048 0.4283767587
v 0.003950133824 0.01200000048 0.4274031405
v 0.006995354166 0.01200000048 0.4247053156
v 0.008438023915 0.01200000048 0.4209013211
v 0.007947643324 0.01200000048 0.416862624
v 0.005636553605 0.01200000048 0.413514422
v 0.002034197628 0.01200000048 0.4116237563
v -0.002034168661 0.01200000048 0.4116237492
v -0.005636531274 0.01200000048 0.4135144022
v -0.007947632745 0.01200000048 0.4168625961
v -0.008438027511 0.01200000048 0.4209012915
v -0.006995371113 0.01200000048 0.4247052911
v -0.003950160241 0.01200000048 0.4274031266
v -1.403959567e-08 0.01149999976 0.4278767473
v -0.003717797909 0.01149999976 0.4269603933
v -0.006583878625 0.01149999976 0.4244212494
v -0.007941672706 0.01149999976 0.4208410392
v -0.007480125217 0.01149999976 0.417039904
v -0.005304970961 0.01149999976 0.4138886627
v -0.001914511698 0.01149999976 0.4121092078
v 0.001914538962 0.01149999976 0.4121092145
v 0.005304991979 0.01149999976 0.4138886813
v 0.007480135174 0.01149999976 0.4170399303
v 0.007941669322 0.01149999976 0.4208410671
v 0.006583862674 0.01149999976 0.4244212725
v 0.003717773046 0.01149999976 0.4269604063
v -0.002034168661 0.01200000048 0.4116237492
v -0.001914511698 0.01149999976 0.4121092078
v -0.004272929091 0.008000000119 0.4084757808
v -0.005706893535 0.008000000119 0.407498119
v -0.007365324533 0.008000000119 0.408009667
v -0.007999389658 0.008000000119 0.4096252379
v -0.007131624962 0.008000000119 0.4111282492
v -0.005415474774 0.008000000119 0.4113869268
v -0.004143235402 0.008000000119 0.4102064615
v -0.006004979429 0.008000000119 0.408225772
v -0.004816160344 0.008000000119 0.4090895074
v -0.005270251843 0.008000000119 0.41048704
v -0.006739714953 0.008000000119 0.4104870374
v -0.007193801545 0.008000000119 0.4090895032
v -0.006004985659 0.00150000006 0.411775777
v -0.007803196668 0.00150000006 0.4109097994
v -0.00824731521 0.00150000006 0.4089639788
v -0.007002910539 0.00150000006 0.4074035504
v -0.005007045433 0.00150000006 0.4074035539
v -0.003762646538 0.00150000006 0.4089639866
v -0.004206771909 0.00150000006 0.4109098057
v -0.006004985133 0.001800000072 0.4114757701
v -0.004441320925 0.001800000072 0.4107227516
v -0.004055125157 0.001800000072 0.4090307338
v -0.005137211127 0.001800000072 0.4076738441
v -0.006872745795 0.001800000072 0.407673841
v -0.007954836527 0.001800000072 0.4090307269
v -0.007568646698 0.001800000072 0.4107227461
v -0.005007045433 0.00150000006 0.4074035539
v -0.005137211127 0.001800000072 0.4076738441
v -0.01122597807 0.00200000003 0.4273106837
v -0.01205097537 0.00200000003 0.4258817348
v -0.01122597305 0.00200000003 0.4244527888
v -0.009575972839 0.00200000003 0.4244527917
v -0.008750975538 0.00200000003 0.4258817406
v -0.009575977855 0.00200000003 0.4273106866
v -0.01122597807 0.008500000238 0.4273106837
v -0.009575977855 0.008500000238 0.4273106866
v -0.008750975538 0.008500000238 0.4258817406
v -0.009575972839 0.008500000238 0.4244527917
v -0.01122597305 0.008500000238 0.4244527888
v -0.01205097537 0.008500000238 0.4258817348
v -0.01122597807 0.00200000003 0.4273106837
v -0.01122597807 0.008500000238 0.4273106837
v 0.0008249764481 0.008500000238 0.4333156869
v -0.0008250236174 0.008500000238 0.433315684
v -0.001650021143 0.008500000238 0.4318867542
v -0.000825018602 0.008500000238 0.4304578082
v 0.0008249814635 0.008500000238 0.4304578111
v 0.001649978989 0.008500000238 0.4318867599
v -2.10769644e-08 0.009491419792 0.4318867571
v 0.0008249764481 0.008500000238 0.4333156869
v -2.10769644e-08 0.009491419792 0.4318867571
v -2.10769644e-08 0.009491419792 0.4318867571
v -2.10769644e-08 0.009491419792 0.4318867571
v -2.10769644e-08 0.009491419792 0.4318867571
v -2.10769644e-08 0.009491419792 0.4318867571
v -2.10769644e-08 0.009491419792 0.4318867571
v -0.006004985133 0.001800000072 0.4114757701
v -0.007568646698 0.001800000072 0.4107227461
v -0.007954836527 0.001800000072 0.4090307269
v -0.006872745795 0.001800000072 0.407673841
v -0.005137211127 0.001800000072 0.4076738441
v -0.004055125157 0.001800000072 0.4090307338
v -0.004441320925 0.001800000072 0.4107227516
v -0.006004985133 0.006000000238 0.4114757701
v -0.004441320925 0.006000000238 0.4107227516
v -0.004055125157 0.006000000238 0.4090307338
v -0.005137211127 0.006000000238 0.4076738441
v -0.006872745795 0.006000000238 0.407673841
v -0.007954836527 0.006000000238 0.4090307269
v -0.007568646698 0.006000000238 0.4107227461
v -0.005137211127 0.001800000072 0.4076738441
v -0.005137211127 0.006000000238 0.4076738441
v -1.403959567e-08 0.01149999976 0.4278767473
v 0.003717773046 0.01149999976 0.4269604063
v 0.006583862674 0.01149999976 0.4244212725
v 0.007941669322 0.01149999976 0.4208410671
v 0.007480135174 0.01149999976 0.4170399303
v 0.005304991979 0.01149999976 0.4138886813
v 0.001914538962 0.01149999976 0.4121092145
v -0.001914511698 0.01149999976 0.4121092078
v -0.005304970961 0.01149999976 0.4138886627
v -0.007480125217 0.01149999976 0.417039904
v -0.007941672706 0.01149999976 0.4208410392
v -0.006583878625 0.01149999976 0.4244212494
v -0.003717797909 0.01149999976 0.4269603933
v 1.403961938e-08 0.006200000048 0.4118767435
v 0.003717797909 0.006200000048 0.4127931166
v 0.006583878625 0.006200000048 0.4153322413
v 0.007941672706 0.006200000048 0.4189124706
v 0.007480125217 0.006200000048 0.4227136058
v 0.005304970961 0.006200000048 0.4258648471
v 0.001914511698 0.006200000048 0.427644283
v -0.001914538962 0.006200000048 0.4276442763
v -0.005304991979 0.006200000048 0.4258648285
v -0.007480135174 0.006200000048 0.4227135796
v -0.007941669322 0.006200000048 0.4189124427
v -0.006583862674 0.006200000048 0.4153322182
v -0.003717773046 0.006200000048 0.4127931035
v 0.001914538962 0.01149999976 0.4121092145
v 1.403961938e-08 0.006200000048 0.4118767435
v -0.006004985133 0.01169999957 0.4114757701
v -0.004441320925 0.01169999957 0.4107227516
v -0.004055125157 0.01169999957 0.4090307338
v -0.005137211127 0.01169999957 0.4076738441
v -0.006872745795 0.01169999957 0.407673841
v -0.007954836527 0.01169999957 0.4090307269
v -0.007568646698 0.01169999957 0.4107227461
v -0.004272929091 0.008000000119 0.4084757808
v -0.004143235402 0.008000000119 0.4102064615
v -0.005415474774 0.008000000119 0.4113869268
v -0.007131624962 0.008000000119 0.4111282492
v -0.007999389658 0.008000000119 0.4096252379
v -0.007365324533 0.008000000119 0.408009667
v -0.005706893535 0.008000000119 0.407498119
v -0.007131624962 0.008000000119 0.4111282492
v -0.007568646698 0.01169999957 0.4107227461
v -0.006005022166 0.00150000006 0.4325777026
v -0.007803233174 0.00150000006 0.431711725
v -0.008247351716 0.00150000006 0.4297659044
v -0.007002947046 0.00150000006 0.4282054856
v -0.005007081939 0.00150000006 0.4282054891
v -0.003762683044 0.00150000006 0.4297659123
v -0.004206808416 0.00150000006 0.4317117314
v -0.006005021639 0.001800000072 0.4322777148
v -0.004441357431 0.001800000072 0.4315246963
v -0.004055161663 0.001800000072 0.429832669
v -0.005137247633 0.001800000072 0.4284757793
v -0.006872782301 0.001800000072 0.4284757762
v -0.007954873033 0.001800000072 0.4298326621
v -0.007568683204 0.001800000072 0.4315246909
v -0.005007081939 0.00150000006 0.4282054891
v -0.005137247633 0.001800000072 0.4284757793
v -0.006005021639 0.001800000072 0.4322777148
v -0.007568683204 0.001800000072 0.4315246909
v -0.007954873033 0.001800000072 0.4298326621
v -0.006872782301 0.001800000072 0.4284757762
v -0.005137247633 0.001800000072 0.4284757793
v -0.004055161663 0.001800000072 0.429832669
v -0.004441357431 0.001800000072 0.4315246963
v -0.006005021639 0.006000000238 0.4322777148
v -0.004441357431 0.006000000238 0.4315246963
v -0.004055161663 0.006000000238 0.429832669
v -0.005137247633 0.006000000238 0.4284757793
v -0.006872782301 0.006000000238 0.4284757762
v -0.007954873033 0.006000000238 0.4298326621
v -0.007568683204 0.006000000238 0.4315246909
v -0.005137247633 0.001800000072 0.4284757793
v -0.005137247633 0.006000000238 0.4284757793
v -0.01122597807 0.008500000238 0.4273106837
v -0.01205097537 0.008500000238 0.4258817348
v -0.01122597305 0.008500000238 0.4244527888
v -0.009575972839 0.008500000238 0.4244527917
v -0.008750975538 0.008500000238 0.4258817406
v -0.009575977855 0.008500000238 0.4273106866
v -0.01040097575 0.009491419792 0.4258817377
v -0.01122597807 0.008500000238 0.4273106837
v -0.01040097575 0.009491419792 0.4258817377
v -0.01040097575 0.009491419792 0.4258817377
v -0.01040097575 0.009491419792 0.4258817377
v -0.01040097575 0.009491419792 0.4258817377
v -0.01040097575 0.009491419792 0.4258817377
v -0.01040097575 0.009491419792 0.4258817377
v 0.01201000195 0.006000000238 0.418626776
v 0.01319882103 0.006000000238 0.4194905018
v 0.01274473013 0.006000000238 0.4208880535
v 0.01127526702 0.006000000238 0.420888051
v 0.01082117983 0.006000000238 0.4194904977
v 0.01201000195 0.008000000119 0.418626776
v 0.01082117983 0.008000000119 0.4194904977
v 0.01127526702 0.008000000119 0.420888051
v 0.01274473013 0.008000000119 0.4208880535
v 0.01319882103 0.008000000119 0.4194905018
v 0.01201000195 0.008000000119 0.418626776
v 0.01201000195 0.006000000238 0.418626776
v 1.403961938e-08 0.006200000048 0.4118767435
v -0.003717773046 0.006200000048 0.4127931035
v -0.006583862674 0.006200000048 0.4153322182
v -0.007941669322 0.006200000048 0.4189124427
v -0.007480135174 0.006200000048 0.4227135796
v -0.005304991979 0.006200000048 0.4258648285
v -0.001914538962 0.006200000048 0.4276442763
v 0.001914511698 0.006200000048 0.427644283
v 0.005304970961 0.006200000048 0.4258648471
v 0.007480125217 0.006200000048 0.4227136058
v 0.007941672706 0.006200000048 0.4189124706
v 0.006583878625 0.006200000048 0.4153322413
v 0.003717797909 0.006200000048 0.4127931166
v 8.774747731e-09 0.006200000048 0.4148767549
v 0.002938933319 0.006200000048 0.4158316742
v 0.004755285412 0.006200000048 0.4183316774
v 0.004755279989 0.006200000048 0.4214218492
v 0.002938919121 0.006200000048 0.423921846
v -8.774757487e-09 0.006200000048 0.4248767549
v -0.002938933319 0.006200000048 0.4239218357
v -0.004755285412 0.006200000048 0.4214218325
v -0.004755279989 0.006200000048 0.4183316607
v -0.002938919121 0.006200000048 0.4158316639
v 0.01200999624 0.01169999957 0.4218767646
v 0.01357366105 0.01169999957 0.4211237461
v 0.01395985681 0.01169999957 0.4194317378
v 0.01287777025 0.01169999957 0.418074829
v 0.01114223558 0.01169999957 0.4180748259
v 0.01006014544 0.01169999957 0.4194317309
v 0.01044633527 0.01169999957 0.4211237406
v 0.01200999624 0.008000000119 0.4218767646
v 0.01044633527 0.008000000119 0.4211237406
v 0.01006014544 0.008000000119 0.4194317309
v 0.01114223558 0.008000000119 0.4180748259
v 0.01287777025 0.008000000119 0.418074829
v 0.01395985681 0.008000000119 0.4194317378
v 0.01357366105 0.008000000119 0.4211237461
v 0.01114223558 0.01169999957 0.4180748259
v 0.01114223558 0.008000000119 0.4180748259
v 0.01200999624 0.008000000119 0.4218767646
v 0.01357366105 0.008000000119 0.4211237461
v 0.01395985681 0.008000000119 0.4194317378
v 0.01287777025 0.008000000119 0.418074829
v 0.01114223558 0.008000000119 0.4180748259
v 0.01006014544 0.008000000119 0.4194317309
v 0.01044633527 0.008000000119 0.4211237406
v 0.01201000195 0.008000000119 0.418626776
v 0.01319882103 0.008000000119 0.4194905018
v 0.01274473013 0.008000000119 0.4208880535
v 0.01127526702 0.008000000119 0.420888051
v 0.01082117983 0.008000000119 0.4194904977
v 8.774747733e-09 0.004499999881 0.4148767549
v 0.002938933319 0.004499999881 0.4158316742
v 0.004755285412 0.004499999881 0.4183316774
v 0.004755279989 0.004499999881 0.4214218492
v 0.002938919121 0.004499999881 0.423921846
v -8.774757485e-09 0.004499999881 0.4248767549
v -0.002938933319 0.004499999881 0.4239218357
v -0.004755285412 0.004499999881 0.4214218325
v -0.004755279989 0.004499999881 0.4183316607
v -0.002938919121 0.004499999881 0.4158316639
v 8.774747731e-09 0.006200000048 0.4148767549
v -0.002938919121 0.006200000048 0.4158316639
v -0.004755279989 0.006200000048 0.4183316607
v -0.004755285412 0.006200000048 0.4214218325
v -0.002938933319 0.006200000048 0.4239218357
v -8.774757487e-09 0.006200000048 0.4248767549
v 0.002938919121 0.006200000048 0.423921846
v 0.004755279989 0.006200000048 0.4214218492
v 0.004755285412 0.006200000048 0.4183316774
v 0.002938933319 0.006200000048 0.4158316742
v 8.774747731e-09 0.006200000048 0.4148767549
v 8.774747733e-09 0.004499999881 0.4148767549
v -1.316213378e-08 0.00150000006 0.4273767549
v -0.003485435577 0.00150000006 0.4265176599
v -0.006172386732 0.00150000006 0.4241372269
v -0.007445317901 0.00150000006 0.4207807679
v -0.007012617093 0.00150000006 0.417217212
v -0.004973410053 0.00150000006 0.4142629042
v -0.001794854736 0.00150000006 0.4125946854
v 0.001794880295 0.00150000006 0.4125946917
v 0.004973429757 0.00150000006 0.4142629216
v 0.007012626428 0.00150000006 0.4172172366
v 0.007445314728 0.00150000006 0.420780794
v 0.006172371778 0.00150000006 0.4241372485
v 0.003485412268 0.00150000006 0.4265176721
v -1.228463844e-08 0.00200000003 0.4268767435
v 0.003499989302 0.00200000003 0.4259389444
v 0.006062171873 0.00200000003 0.4233767694
v 0.006999999881 0.00200000003 0.4198767672
v 0.006062184158 0.00200000003 0.4163767617
v 0.003500010579 0.00200000003 0.4138145777
v 1.228466217e-08 0.00200000003 0.4128767473
v -0.003499989302 0.00200000003 0.4138145654
v -0.006062171873 0.00200000003 0.4163767405
v -0.006999999881 0.00200000003 0.4198767426
v -0.006062184158 0.00200000003 0.4233767481
v -0.003500010579 0.00200000003 0.4259389322
v -0.001794854736 0.00150000006 0.4125946854
v 1.228466217e-08 0.00200000003 0.4128767473
v -1.228463844e-08 0.004499999881 0.4268767435
v -0.003500010579 0.004499999881 0.4259389322
v -0.006062184158 0.004499999881 0.4233767481
v -0.006999999881 0.004499999881 0.4198767426
v -0.006062171873 0.004499999881 0.4163767405
v -0.003499989302 0.004499999881 0.4138145654
v 1.228466217e-08 0.004499999881 0.4128767473
v 0.003500010579 0.004499999881 0.4138145777
v 0.006062184158 0.004499999881 0.4163767617
v 0.006999999881 0.004499999881 0.4198767672
v 0.006062171873 0.004499999881 0.4233767694
v 0.003499989302 0.004499999881 0.4259389444
v 8.774747733e-09 0.004499999881 0.4148767549
v -0.002938919121 0.004499999881 0.4158316639
v -0.004755279989 0.004499999881 0.4183316607
v -0.004755285412 0.004499999881 0.4214218325
v -0.002938933319 0.004499999881 0.4239218357
v -8.774757485e-09 0.004499999881 0.4248767549
v 0.002938919121 0.004499999881 0.423921846
v 0.004755279989 0.004499999881 0.4214218492
v 0.004755285412 0.004499999881 0.4183316774
v 0.002938933319 0.004499999881 0.4158316742
v -1.228463844e-08 0.00200000003 0.4268767435
v -0.003500010579 0.00200000003 0.4259389322
v -0.006062184158 0.00200000003 0.4233767481
v -0.006999999881 0.00200000003 0.4198767426
v -0.006062171873 0.00200000003 0.4163767405
v -0.003499989302 0.00200000003 0.4138145654
v 1.228466217e-08 0.00200000003 0.4128767473
v 0.003500010579 0.00200000003 0.4138145777
v 0.006062184158 0.00200000003 0.4163767617
v 0.006999999881 0.00200000003 0.4198767672
v 0.006062171873 0.00200000003 0.4233767694
v 0.003499989302 0.00200000003 0.4259389444
v -1.228463844e-08 0.004499999881 0.4268767435
v 0.003499989302 0.004499999881 0.4259389444
v 0.006062171873 0.004499999881 0.4233767694
v 0.006999999881 0.004499999881 0.4198767672
v 0.006062184158 0.004499999881 0.4163767617
v 0.003500010579 0.004499999881 0.4138145777
v 1.228466217e-08 0.004499999881 0.4128767473
v -0.003499989302 0.004499999881 0.4138145654
v -0.006062171873 0.004499999881 0.4163767405
v -0.006999999881 0.004499999881 0.4198767426
v -0.006062184158 0.004499999881 0.4233767481
v -0.003500010579 0.004499999881 0.4259389322
v 1.228466217e-08 0.00200000003 0.4128767473
v 1.228466217e-08 0.004499999881 0.4128767473
v 0.009318048721 0.004499999881 0.4081220105
v 0.009318048721 0.00150000006 0.4081220105
v 0.0096351542 0.00150000006 0.408559862
v 0.009678021511 0.00150000006 0.4090987739
v 0.009434122034 0.00150000006 0.4095812469
v 0.009434122034 0.004499999881 0.4095812469
v 0.009678021511 0.004499999881 0.4090987739
v 0.0096351542 0.004499999881 0.408559862
v 0.004199104481 0.00150000006 0.4331946906
v 0.002991968131 0.00150000006 0.4293661248
v 0.002991968131 0.004499999881 0.4293661248
v 0.004199104481 0.004499999881 0.4331946906
v 0.005386271936 0.004499999881 0.427087019
v 0.004802996868 0.004499999881 0.4274879999
v 0.004190014927 0.004499999881 0.4278419074
v 0.003551117272 0.004499999881 0.428146548
v 0.003551117272 0.00150000006 0.428146548
v 0.004190014927 0.00150000006 0.4278419074
v 0.004802996868 0.00150000006 0.4274879999
v 0.005386271936 0.00150000006 0.427087019
v 0.009434085898 0.004499999881 0.430172277
v 0.006722024918 0.004499999881 0.4272125821
v 0.006722024918 0.00150000006 0.4272125821
v 0.009434085898 0.00150000006 0.430172277
v -0.006005021639 0.01169999957 0.4322777148
v -0.004441357431 0.01169999957 0.4315246963
v -0.004055161663 0.01169999957 0.429832669
v -0.005137247633 0.01169999957 0.4284757793
v -0.006872782301 0.01169999957 0.4284757762
v -0.007954873033 0.01169999957 0.4298326621
v -0.007568683204 0.01169999957 0.4315246909
v -0.007737067151 0.008000000119 0.4292777004
v -0.006303099275 0.008000000119 0.4283000532
v -0.004644670073 0.008000000119 0.428811607
v -0.004010610916 0.008000000119 0.4304271705
v -0.004878380888 0.008000000119 0.4319301788
v -0.006594531686 0.008000000119 0.4321888504
v -0.007866766915 0.008000000119 0.4310083901
v -0.004010610916 0.008000000119 0.4304271705
v -0.004055161663 0.01169999957 0.429832669
v 0.003629764677 0.01200000048 0.4364847325
v -0.001364259506 0.01200000048 0.4368219239
v -0.006240013575 0.01200000048 0.4356901137
v -0.01057480764 0.01200000048 0.4331873977
v -0.01399285223 0.01200000048 0.4295307755
v -0.01619782757 0.01200000048 0.4250372108
v -0.0167455226 0.01149999976 0.4249598096
v -0.01448569829 0.01149999976 0.4296958366
v -0.01092337624 0.01149999976 0.4335489731
v -0.006378866423 0.01149999976 0.436172768
v -0.001260793741 0.01149999976 0.4373312815
v 0.003970644962 0.01149999976 0.4369203334
v -0.009714019095 0.004499999881 0.4177231887
v -0.009714019095 0.00150000006 0.4177231887
v -0.009279857455 0.00150000006 0.4179400741
v -0.00899893371 0.00150000006 0.4183358112
v -0.008937414217 0.00150000006 0.4188172071
v -0.008937414217 0.004499999881 0.4188172071
v -0.00899893371 0.004499999881 0.4183358112
v -0.009279857455 0.004499999881 0.4179400741
v 0.009318048721 0.004499999881 0.4081220105
v 0.00812593527 0.004499999881 0.4072684508
v 0.006856185366 0.004499999881 0.4065353592
v 0.005520929733 0.004499999881 0.4059297355
v 0.005520929733 0.00150000006 0.4059297355
v 0.006856185366 0.00150000006 0.4065353592
v 0.00812593527 0.00150000006 0.4072684508
v 0.009318048721 0.00150000006 0.4081220105
v 0.006722050666 0.004499999881 0.4125409513
v 0.009434122034 0.004499999881 0.4095812469
v 0.009434122034 0.00150000006 0.4095812469
v 0.006722050666 0.00150000006 0.4125409513
v 0.00552088078 0.004499999881 0.4338237937
v 0.00552088078 0.00150000006 0.4338237937
v 0.004983138902 0.00150000006 0.4338794874
v 0.004494989786 0.00150000006 0.4336471524
v 0.004199104481 0.00150000006 0.4331946906
v 0.004199104481 0.004499999881 0.4331946906
v 0.004494989786 0.004499999881 0.4336471524
v 0.004983138902 0.004499999881 0.4338794874
v 0.005386271936 0.004499999881 0.427087019
v 0.005386271936 0.00150000006 0.427087019
v 0.005833937718 0.00150000006 0.4268996037
v 0.006317123883 0.00150000006 0.4269450186
v 0.006722024918 0.00150000006 0.4272125821
v 0.006722024918 0.004499999881 0.4272125821
v 0.006317123883 0.004499999881 0.4269450186
v 0.005833937718 0.004499999881 0.4268996037
v -0.007737067151 0.008000000119 0.4292777004
v -0.007866766915 0.008000000119 0.4310083901
v -0.006594531686 0.008000000119 0.4321888504
v -0.004878380888 0.008000000119 0.4319301788
v -0.004010610916 0.008000000119 0.4304271705
v -0.004644670073 0.008000000119 0.428811607
v -0.006303099275 0.008000000119 0.4283000532
v -0.006005015936 0.008000000119 0.4290277072
v -0.004816196851 0.008000000119 0.429891433
v -0.005270288349 0.008000000119 0.4312889847
v -0.006739751459 0.008000000119 0.4312889822
v -0.007193838052 0.008000000119 0.4298914289
v -0.01456417365 0.01200000048 0.4241956915
v -0.01456417365 0.01070000052 0.4241956915
v -0.01516228816 0.01070000052 0.4247502711
v -0.01593208262 0.01070000052 0.4250199307
v -0.0167455226 0.01070000052 0.4249598096
v -0.0167455226 0.01149999976 0.4249598096
v -0.01619782757 0.01200000048 0.4250372108
v -0.01557190114 0.01200000048 0.424937839
v -0.01500849131 0.01200000048 0.4246476179
v 0.003970644962 0.01070000052 0.4369203334
v 0.003511863234 0.01070000052 0.4362459322
v 0.003360496261 0.01070000052 0.435444445
v 0.003541720513 0.01070000052 0.4346491763
v 0.003541720513 0.01200000048 0.4346491763
v 0.003372495596 0.01200000048 0.4352599281
v 0.003402860071 0.01200000048 0.4358929772
v 0.003629764677 0.01200000048 0.4364847325
v 0.003970644962 0.01149999976 0.4369203334
v 0.01256804568 0.01200000048 0.4084292996
v 0.015357078 0.01200000048 0.4125856556
v 0.01681477509 0.01200000048 0.417374076
v 0.01681476631 0.01200000048 0.4223794738
v 0.01535705241 0.01200000048 0.4271679081
v 0.0125680055 0.01200000048 0.4313242448
v 0.01277481841 0.01149999976 0.4318372647
v 0.01574643106 0.01149999976 0.4275121852
v 0.01730218546 0.01149999976 0.4225005531
v 0.01730219467 0.01149999976 0.4172529984
v 0.01574645786 0.01149999976 0.4122413608
v 0.01277486039 0.01149999976 0.4079162804
v -0.01255095501 0.00150000006 0.4138717318
v -0.01174145423 0.00150000006 0.4121907869
v -0.009922530739 0.00150000006 0.4117756366
v -0.008463870032 0.00150000006 0.4129388929
v -0.008463873306 0.00150000006 0.4148045851
v -0.009922538096 0.00150000006 0.4159678363
v -0.01174146013 0.00150000006 0.4155526605
v -0.01205095429 0.00200000003 0.4138717327
v -0.01122595699 0.00200000003 0.4153006816
v -0.009575956778 0.00200000003 0.4153006845
v -0.008750954461 0.00200000003 0.4138717385
v -0.009575951762 0.00200000003 0.4124427896
v -0.01122595198 0.00200000003 0.4124427867
v -0.009575951762 0.00200000003 0.4124427896
v -0.009922530739 0.00150000006 0.4117756366
v -0.009714019095 0.004499999881 0.4177231887
v -0.01363322681 0.004499999881 0.4168543082
v -0.01363322681 0.00150000006 0.4168543082
v -0.009714019095 0.00150000006 0.4177231887
v -0.008937417936 0.004499999881 0.4209362714
v -0.008993039752 0.004499999881 0.4202306477
v -0.00899303851 0.004499999881 0.4195228306
v -0.008937414217 0.004499999881 0.4188172071
v -0.008937414217 0.00150000006 0.4188172071
v -0.00899303851 0.00150000006 0.4195228306
v -0.008993039752 0.00150000006 0.4202306477
v -0.008937417936 0.00150000006 0.4209362714
v 0.004199151225 0.004499999881 0.4065588244
v 0.004199151225 0.00150000006 0.4065588244
v 0.004495038119 0.00150000006 0.4061063637
v 0.00498318805 0.00150000006 0.40587404
v 0.005520929733 0.00150000006 0.4059297355
v 0.005520929733 0.004499999881 0.4059297355
v 0.00498318805 0.004499999881 0.40587404
v 0.004495038119 0.004499999881 0.4061063637
v 0.006722050666 0.004499999881 0.4125409513
v 0.006722050666 0.00150000006 0.4125409513
v 0.006317148692 0.00150000006 0.4128084944
v 0.005833962367 0.00150000006 0.4128539266
v 0.005386297243 0.00150000006 0.4126664906
v 0.005386297243 0.004499999881 0.4126664906
v 0.005833962367 0.004499999881 0.4128539266
v 0.006317148692 0.004499999881 0.4128084944
v 0.009318007463 0.00150000006 0.431631532
v 0.008125891016 0.00150000006 0.4324850875
v 0.006856138538 0.00150000006 0.4332181747
v 0.00552088078 0.00150000006 0.4338237937
v 0.00552088078 0.004499999881 0.4338237937
v 0.006856138538 0.004499999881 0.4332181747
v 0.008125891016 0.004499999881 0.4324850875
v 0.009318007463 0.004499999881 0.431631532
v 0.009318007463 0.004499999881 0.431631532
v 0.008125891016 0.004499999881 0.4324850875
v 0.006856138538 0.004499999881 0.4332181747
v 0.00552088078 0.004499999881 0.4338237937
v 0.004983138902 0.004499999881 0.4338794874
v 0.004494989786 0.004499999881 0.4336471524
v 0.004199104481 0.004499999881 0.4331946906
v 0.002991968131 0.004499999881 0.4293661248
v 0.002962708763 0.004499999881 0.4288816963
v 0.003164971641 0.004499999881 0.428440527
v 0.003551117272 0.004499999881 0.428146548
v 0.004190014927 0.004499999881 0.4278419074
v 0.004802996868 0.004499999881 0.4274879999
v 0.005386271936 0.004499999881 0.427087019
v 0.005833937718 0.004499999881 0.4268996037
v 0.006317123883 0.004499999881 0.4269450186
v 0.006722024918 0.004499999881 0.4272125821
v 0.009434085898 0.004499999881 0.430172277
v 0.009677983681 0.004499999881 0.4306547603
v 0.009635114479 0.004499999881 0.4311936816
v -0.006005015936 0.006000000238 0.4290277072
v -0.004816196851 0.006000000238 0.429891433
v -0.005270288349 0.006000000238 0.4312889847
v -0.006739751459 0.006000000238 0.4312889822
v -0.007193838052 0.006000000238 0.4298914289
v -0.006005015936 0.008000000119 0.4290277072
v -0.007193838052 0.008000000119 0.4298914289
v -0.006739751459 0.008000000119 0.4312889822
v -0.005270288349 0.008000000119 0.4312889847
v -0.004816196851 0.008000000119 0.429891433
v -0.006005015936 0.008000000119 0.4290277072
v -0.006005015936 0.006000000238 0.4290277072
v -0.01321352967 0.01200000048 0.422643093
v -0.01321352967 0.01070000052 0.422643093
v -0.01369731163 0.01070000052 0.4231307821
v -0.01414816922 0.01070000052 0.4236490461
v -0.01456417365 0.01070000052 0.4241956915
v -0.01456417365 0.01200000048 0.4241956915
v -0.01414816922 0.01200000048 0.4236490461
v -0.01369731163 0.01200000048 0.4231307821
v 0.01277481841 0.01070000052 0.4318372647
v 0.01242016253 0.01070000052 0.4311027441
v 0.01180173666 0.01070000052 0.430570917
v 0.01102240158 0.01070000052 0.4303302273
v 0.01034098952 0.01070000052 0.4302432701
v 0.009666722336 0.01070000052 0.430111967
v 0.00900248431 0.01070000052 0.4299368331
v 0.008478758376 0.01070000052 0.4303820265
v 0.00793305149 0.01070000052 0.4307999637
v 0.007366778667 0.01070000052 0.4311895959
v 0.008471195586 0.01070000052 0.4321674383
v 0.007874976301 0.01070000052 0.4335166575
v 0.006408399526 0.01070000052 0.4333583831
v 0.006113784052 0.01070000052 0.4319130129
v 0.005493215138 0.01070000052 0.4322086127
v 0.004858405539 0.01070000052 0.4324722262
v 0.004211000344 0.01070000052 0.432703186
v 0.004030541649 0.01070000052 0.4333659893
v 0.003807129485 0.01070000052 0.4340155937
v 0.003541720513 0.01070000052 0.4346491763
v 0.003360496261 0.01070000052 0.435444445
v 0.003511863234 0.01070000052 0.4362459322
v 0.003970644962 0.01070000052 0.4369203334
v 0.007221360246 0.01070000052 0.4358173193
v 0.01019421346 0.01070000052 0.4341009588
v 0.003541720513 0.01200000048 0.4346491763
v 0.003541720513 0.01070000052 0.4346491763
v 0.003807129485 0.01070000052 0.4340155937
v 0.004030541649 0.01070000052 0.4333659893
v 0.004211000344 0.01070000052 0.432703186
v 0.004211000344 0.01200000048 0.432703186
v 0.004030541649 0.01200000048 0.4333659893
v 0.003807129485 0.01200000048 0.4340155937
v 0.003970704783 0.01149999976 0.4028331713
v -0.001260732477 0.01149999976 0.4024222239
v -0.006378809225 0.01149999976 0.4035807194
v -0.01092332825 0.01149999976 0.4062044888
v -0.01448566382 0.01149999976 0.4100576129
v -0.01674550476 0.01149999976 0.4147936414
v -0.01619780946 0.01200000048 0.4147162422
v -0.01399281834 0.01200000048 0.4102226853
v -0.01057476092 0.01200000048 0.4065660655
v -0.006239958072 0.01200000048 0.4040633742
v -0.001364200031 0.01200000048 0.4029315812
v 0.003629822969 0.01200000048 0.4032687901
v 1.818128695e-08 0.00200000003 0.4095167524
v 0.001428961564 0.00200000003 0.4086917503
v 0.00142896446 0.00200000003 0.4070417507
v 2.397262233e-08 0.00200000003 0.4062167532
v -0.001428919411 0.00200000003 0.4070417457
v -0.001428922306 0.00200000003 0.4086917453
v 1.730380834e-08 0.00150000006 0.4100167543
v -0.001680918983 0.00150000006 0.4092072535
v -0.002096073169 0.00150000006 0.4073883288
v -0.0009328255417 0.00150000006 0.4059296669
v 0.0009328744946 0.00150000006 0.4059296702
v 0.002096117002 0.00150000006 0.4073883362
v 0.001680956432 0.00150000006 0.4092072594
v 2.397262233e-08 0.00200000003 0.4062167532
v -0.0009328255417 0.00150000006 0.4059296669
v -0.01205095429 0.00200000003 0.4138717327
v -0.01122595198 0.00200000003 0.4124427867
v -0.009575951762 0.00200000003 0.4124427896
v -0.008750954461 0.00200000003 0.4138717385
v -0.009575956778 0.00200000003 0.4153006845
v -0.01122595699 0.00200000003 0.4153006816
v -0.01205095429 0.008500000238 0.4138717327
v -0.01122595699 0.008500000238 0.4153006816
v -0.009575956778 0.008500000238 0.4153006845
v -0.008750954461 0.008500000238 0.4138717385
v -0.009575951762 0.008500000238 0.4124427896
v -0.01122595198 0.008500000238 0.4124427867
v -0.01205095429 0.00200000003 0.4138717327
v -0.01205095429 0.008500000238 0.4138717327
v -0.0148389301 0.004499999881 0.4176844605
v -0.0148389301 0.00150000006 0.4176844605
v -0.0146182931 0.00150000006 0.4171909154
v -0.0141730113 0.00150000006 0.4168843289
v -0.01363322681 0.00150000006 0.4168543082
v -0.01363322681 0.004499999881 0.4168543082
v -0.0141730113 0.004499999881 0.4168843289
v -0.0146182931 0.004499999881 0.4171909154
v -0.008937417936 0.004499999881 0.4209362714
v -0.008937417936 0.00150000006 0.4209362714
v -0.008998939119 0.00150000006 0.421417667
v -0.009279864253 0.00150000006 0.4218134032
v -0.009714026654 0.00150000006 0.4220302871
v -0.009714026654 0.004499999881 0.4220302871
v -0.009279864253 0.004499999881 0.4218134032
v -0.008998939119 0.004499999881 0.421417667
v 0.004199151225 0.004499999881 0.4065588244
v 0.002992001438 0.004499999881 0.4103873955
v 0.002992001438 0.00150000006 0.4103873955
v 0.004199151225 0.00150000006 0.4065588244
v 0.005386297243 0.00150000006 0.4126664906
v 0.004803023583 0.00150000006 0.4122655077
v 0.004190042884 0.00150000006 0.4119115981
v 0.003551146298 0.00150000006 0.4116069743
v 0.003551146298 0.004499999881 0.4116069743
v 0.004190042884 0.004499999881 0.4119115981
v 0.004803023583 0.004499999881 0.4122655077
v 0.005386297243 0.004499999881 0.4126664906
v 0.005386297243 0.004499999881 0.4126664906
v 0.004803023583 0.004499999881 0.4122655077
v 0.004190042884 0.004499999881 0.4119115981
v 0.003551146298 0.004499999881 0.4116069743
v 0.003165001699 0.004499999881 0.411312994
v 0.00296274037 0.004499999881 0.4108718239
v 0.002992001438 0.004499999881 0.4103873955
v 0.004199151225 0.004499999881 0.4065588244
v 0.004495038119 0.004499999881 0.4061063637
v 0.00498318805 0.004499999881 0.40587404
v 0.005520929733 0.004499999881 0.4059297355
v 0.006856185366 0.004499999881 0.4065353592
v 0.00812593527 0.004499999881 0.4072684508
v 0.009318048721 0.004499999881 0.4081220105
v 0.0096351542 0.004499999881 0.408559862
v 0.009678021511 0.004499999881 0.4090987739
v 0.009434122034 0.004499999881 0.4095812469
v 0.006722050666 0.004499999881 0.4125409513
v 0.006317148692 0.004499999881 0.4128084944
v 0.005833962367 0.004499999881 0.4128539266
v 0.009434085898 0.004499999881 0.430172277
v 0.009434085898 0.00150000006 0.430172277
v 0.009677983681 0.00150000006 0.4306547603
v 0.009635114479 0.00150000006 0.4311936816
v 0.009318007463 0.00150000006 0.431631532
v 0.009318007463 0.004499999881 0.431631532
v 0.009635114479 0.004499999881 0.4311936816
v 0.009677983681 0.004499999881 0.4306547603
v 0.01200999624 0.006000000238 0.4218767646
v 0.01044633527 0.006000000238 0.4211237406
v 0.01006014544 0.006000000238 0.4194317309
v 0.01114223558 0.006000000238 0.4180748259
v 0.01287777025 0.006000000238 0.418074829
v 0.01395985681 0.006000000238 0.4194317378
v 0.01357366105 0.006000000238 0.4211237461
v 0.01201000195 0.006000000238 0.418626776
v 0.01082117983 0.006000000238 0.4194904977
v 0.01127526702 0.006000000238 0.420888051
v 0.01274473013 0.006000000238 0.4208880535
v 0.01319882103 0.006000000238 0.4194905018
v 0.007366818374 0.01149999976 0.4085639302
v 0.006859334991 0.01149999976 0.4085067757
v 0.006417063611 0.01149999976 0.4082514286
v 0.006113826298 0.01149999976 0.4078405089
v 0.005515961813 0.01200000048 0.407555054
v 0.005961431555 0.01200000048 0.4085034744
v 0.006868872013 0.01200000048 0.4090273865
v 0.00791295779 0.01200000048 0.4089389732
v -0.01456415849 0.01200000048 0.4155577673
v -0.01456415849 0.01070000052 0.4155577673
v -0.01414815598 0.01070000052 0.4161044141
v -0.01369730021 0.01070000052 0.4166226797
v -0.01321351996 0.01070000052 0.4171103705
v -0.01321351996 0.01200000048 0.4171103705
v -0.01369730021 0.01200000048 0.4166226797
v -0.01414815598 0.01200000048 0.4161044141
v -0.01342888121 0.01200000048 0.4212606272
v -0.01348060496 0.01149999976 0.4206001504
v -0.01348060496 0.01070000052 0.4206001504
v -0.01342630991 0.01070000052 0.4212853655
v -0.01333720812 0.01070000052 0.4219669377
v -0.01321352967 0.01070000052 0.422643093
v -0.01321352967 0.01200000048 0.422643093
v -0.01330122995 0.01200000048 0.4221848523
v -0.01337304201 0.01200000048 0.421723846
v -0.01321351996 0.01200000048 0.4171103705
v -0.01321351996 0.01070000052 0.4171103705
v -0.01333720079 0.01070000052 0.4177865254
v -0.01342630497 0.01070000052 0.4184680972
v -0.01348060243 0.01070000052 0.4191533121
v -0.01348060243 0.01149999976 0.4191533121
v -0.01342887636 0.01200000048 0.4184928164
v -0.01337303553 0.01200000048 0.4180296169
v -0.01330122185 0.01200000048 0.4175686108
v 0.01102240158 0.01200000048 0.4303302273
v 0.01102240158 0.01070000052 0.4303302273
v 0.01180173666 0.01070000052 0.430570917
v 0.01242016253 0.01070000052 0.4311027441
v 0.01277481841 0.01070000052 0.4318372647
v 0.01277481841 0.01149999976 0.4318372647
v 0.0125680055 0.01200000048 0.4313242448
v 0.01216898545 0.01200000048 0.430831862
v 0.01163594172 0.01200000048 0.4304890533
v 0.007874976301 0.006499999762 0.4335166575
v 0.00847266304 0.006499999762 0.4321742475
v 0.007380640916 0.006499999762 0.4311909883
v 0.006108047082 0.006499999762 0.4319257158
v 0.006413563068 0.006499999762 0.4333630562
v 0.007249978201 0.005748924017 0.4324341407
v 0.007249978201 0.005748924017 0.4324341407
v 0.007249978201 0.005748924017 0.4324341407
v 0.007249978201 0.005748924017 0.4324341407
v 0.007249978201 0.005748924017 0.4324341407
v 0.007249978201 0.005748924017 0.4324341407
v 0.007249978201 0.005748924017 0.4324341407
v 0.007380640916 0.006499999762 0.4311909883
v 0.007249978201 0.005748924017 0.4324341407
v 0.004211000344 0.01200000048 0.432703186
v 0.004211000344 0.01070000052 0.432703186
v 0.004858405539 0.01070000052 0.4324722262
v 0.005493215138 0.01070000052 0.4322086127
v 0.006113784052 0.01070000052 0.4319130129
v 0.006113784052 0.01149999976 0.4319130129
v 0.005515918565 0.01200000048 0.4321984656
v 0.005086848248 0.01200000048 0.4323817039
v 0.004651702455 0.01200000048 0.4325500266
v 0.009325972318 0.00150000006 0.415733724
v 0.008274988971 0.00150000006 0.4141922029
v 0.008824916474 0.00150000006 0.4124094051
v 0.0105616486 0.00150000006 0.411727779
v 0.0121773906 0.00150000006 0.4126606279
v 0.01245545615 0.00150000006 0.4145054923
v 0.01118645536 0.00150000006 0.4158731544
v 0.009575972839 0.00200000003 0.4153007181
v 0.01122597305 0.00200000003 0.415300721
v 0.01205097537 0.00200000003 0.413871775
v 0.01122597807 0.00200000003 0.4124428261
v 0.009575977855 0.00200000003 0.4124428232
v 0.008750975538 0.00200000003 0.4138717692
v 0.01122597807 0.00200000003 0.4124428261
v 0.0105616486 0.00150000006 0.411727779
v 1.818128695e-08 0.00200000003 0.4095167524
v -0.001428922306 0.00200000003 0.4086917453
v -0.001428919411 0.00200000003 0.4070417457
v 2.397262233e-08 0.00200000003 0.4062167532
v 0.00142896446 0.00200000003 0.4070417507
v 0.001428961564 0.00200000003 0.4086917503
v 0.000825018602 0.008500000238 0.4092956921
v 0.001650021143 0.008500000238 0.4078667557
v 0.0008250236175 0.008500000238 0.4064378163
v -0.0008249764481 0.008500000238 0.4064378134
v -0.001649978989 0.008500000238 0.4078667499
v -0.0008249814635 0.008500000238 0.4092956892
v -0.001428919411 0.00200000003 0.4070417457
v -0.0008249764481 0.008500000238 0.4064378134
v -0.01205095429 0.008500000238 0.4138717327
v -0.01122595198 0.008500000238 0.4124427867
v -0.009575951762 0.008500000238 0.4124427896
v -0.008750954461 0.008500000238 0.4138717385
v -0.009575956778 0.008500000238 0.4153006845
v -0.01122595699 0.008500000238 0.4153006816
v -0.01040095468 0.009491419792 0.4138717356
v -0.01205095429 0.008500000238 0.4138717327
v -0.01040095468 0.009491419792 0.4138717356
v -0.01040095468 0.009491419792 0.4138717356
v -0.01040095468 0.009491419792 0.4138717356
v -0.01040095468 0.009491419792 0.4138717356
v -0.01040095468 0.009491419792 0.4138717356
v -0.01040095468 0.009491419792 0.4138717356
v -0.01483893779 0.00150000006 0.4220689972
v -0.01498207698 0.00150000006 0.4206098181
v -0.0149820744 0.00150000006 0.4191436392
v -0.0148389301 0.00150000006 0.4176844605
v -0.0148389301 0.004499999881 0.4176844605
v -0.0149820744 0.004499999881 0.4191436392
v -0.01498207698 0.004499999881 0.4206098181
v -0.01483893779 0.004499999881 0.4220689972
v -0.009714026654 0.00150000006 0.4220302871
v -0.01363323742 0.00150000006 0.4228991347
v -0.01363323742 0.004499999881 0.4228991347
v -0.009714026654 0.004499999881 0.4220302871
v -0.009714026654 0.004499999881 0.4220302871
v -0.01363323742 0.004499999881 0.4228991347
v -0.0141730218 0.004499999881 0.4228691312
v -0.01461830253 0.004499999881 0.4225625432
v -0.01483893779 0.004499999881 0.4220689972
v -0.01498207698 0.004499999881 0.4206098181
v -0.0149820744 0.004499999881 0.4191436392
v -0.0148389301 0.004499999881 0.4176844605
v -0.0146182931 0.004499999881 0.4171909154
v -0.0141730113 0.004499999881 0.4168843289
v -0.01363322681 0.004499999881 0.4168543082
v -0.009714019095 0.004499999881 0.4177231887
v -0.009279857455 0.004499999881 0.4179400741
v -0.00899893371 0.004499999881 0.4183358112
v -0.008937414217 0.004499999881 0.4188172071
v -0.00899303851 0.004499999881 0.4195228306
v -0.008993039752 0.004499999881 0.4202306477
v -0.008937417936 0.004499999881 0.4209362714
v -0.008998939119 0.004499999881 0.421417667
v -0.009279864253 0.004499999881 0.4218134032
v 0.003551146298 0.004499999881 0.4116069743
v 0.003551146298 0.00150000006 0.4116069743
v 0.003165001699 0.00150000006 0.411312994
v 0.00296274037 0.00150000006 0.4108718239
v 0.002992001438 0.00150000006 0.4103873955
v 0.002992001438 0.004499999881 0.4103873955
v 0.00296274037 0.004499999881 0.4108718239
v 0.003165001699 0.004499999881 0.411312994
v -0.006004985133 0.006000000238 0.4114757701
v -0.007568646698 0.006000000238 0.4107227461
v -0.007954836527 0.006000000238 0.4090307269
v -0.006872745795 0.006000000238 0.407673841
v -0.005137211127 0.006000000238 0.4076738441
v -0.004055125157 0.006000000238 0.4090307338
v -0.004441320925 0.006000000238 0.4107227516
v -0.006004979429 0.006000000238 0.408225772
v -0.007193801545 0.006000000238 0.4090895032
v -0.006739714953 0.006000000238 0.4104870374
v -0.005270251843 0.006000000238 0.41048704
v -0.004816160344 0.006000000238 0.4090895074
v -0.006004985133 0.01169999957 0.4114757701
v -0.007568646698 0.01169999957 0.4107227461
v -0.007954836527 0.01169999957 0.4090307269
v -0.006872745795 0.01169999957 0.407673841
v -0.005137211127 0.01169999957 0.4076738441
v -0.004055125157 0.01169999957 0.4090307338
v -0.004441320925 0.01169999957 0.4107227516
v -0.006004985659 0.01200000048 0.411775777
v -0.004206771909 0.01200000048 0.4109098057
v -0.003762646538 0.01200000048 0.4089639866
v -0.005007045433 0.01200000048 0.4074035539
v -0.007002910539 0.01200000048 0.4074035504
v -0.00824731521 0.01200000048 0.4089639788
v -0.007803196668 0.01200000048 0.4109097994
v -0.005137211127 0.01169999957 0.4076738441
v -0.005007045433 0.01200000048 0.4074035539
v 0.005515961813 0.01200000048 0.407555054
v 0.006113826298 0.01149999976 0.4078405089
v 0.006113826298 0.01070000052 0.4078405089
v 0.005493258422 0.01070000052 0.4075449164
v 0.004858449748 0.01070000052 0.4072813006
v 0.004211045364 0.01070000052 0.4070503291
v 0.004211045364 0.01200000048 0.4070503291
v 0.004651746937 0.01200000048 0.4072034995
v 0.005086892139 0.01200000048 0.4073718143
v 0.009002519619 0.01200000048 0.4098166988
v 0.009002519619 0.01070000052 0.4098166988
v 0.008478795249 0.01070000052 0.4093715131
v 0.007933089829 0.01070000052 0.4089535644
v 0.007366818374 0.01070000052 0.4085639302
v 0.007366818374 0.01149999976 0.4085639302
v 0.00791295779 0.01200000048 0.4089389732
v 0.008286186683 0.01200000048 0.4092189345
v 0.008649518799 0.01200000048 0.4095116273
v 0.007366818374 0.01070000052 0.4085639302
v 0.008471238725 0.01070000052 0.4075861013
v 0.007875024176 0.01070000052 0.4062368704
v 0.006408446845 0.01070000052 0.4063951397
v 0.006113826298 0.01070000052 0.4078405089
v 0.006113826298 0.01149999976 0.4078405089
v 0.006417063611 0.01149999976 0.4082514286
v 0.006859334991 0.01149999976 0.4085067757
v 0.007366818374 0.01149999976 0.4085639302
v 0.007875024176 0.006499999762 0.4062368704
v 0.008472706203 0.006499999762 0.4075792921
v 0.007380680628 0.006499999762 0.4085625474
v 0.006108089373 0.006499999762 0.4078278154
v 0.006413610403 0.006499999762 0.4063904667
v 0.007380680628 0.006499999762 0.4085625474
v 0.006859334991 0.01149999976 0.4085067757
v 0.007366818374 0.01070000052 0.4085639302
v 0.01277486039 0.01070000052 0.4079162804
v 0.01242020193 0.01070000052 0.4086507902
v 0.0118017742 0.01070000052 0.4091826247
v 0.01102243827 0.01070000052 0.4094233212
v 0.01102243827 0.01200000048 0.4094233212
v 0.01163597896 0.01200000048 0.4092644974
v 0.0121690239 0.01200000048 0.408921681
v 0.01256804568 0.01200000048 0.4084292996
v 0.01277486039 0.01149999976 0.4079162804
v -0.01348060243 0.01070000052 0.4191533121
v -0.01487963825 0.01070000052 0.4186857803
v -0.01575000048 0.01070000052 0.4198767273
v -0.01487964243 0.01070000052 0.4210676773
v -0.01348060496 0.01070000052 0.4206001504
v -0.01348060496 0.01149999976 0.4206001504
v -0.01327635929 0.01149999976 0.4201320684
v -0.01327635839 0.01149999976 0.4196213758
v -0.01348060243 0.01149999976 0.4191533121
v -0.01575000048 0.006499999762 0.4198767273
v -0.01488626868 0.006499999762 0.4186878975
v -0.01348872771 0.006499999762 0.4191420015
v -0.01348873029 0.006499999762 0.420611461
v -0.01488627285 0.006499999762 0.421065541
v -0.01348872771 0.006499999762 0.4191420015
v -0.01327635839 0.01149999976 0.4196213758
v -0.01348060243 0.01070000052 0.4191533121
v -0.01348060496 0.01149999976 0.4206001504
v -0.01342888121 0.01200000048 0.4212606272
v -0.01283026549 0.01200000048 0.4204006429
v -0.01283026365 0.01200000048 0.4193528219
v -0.01342887636 0.01200000048 0.4184928164
v -0.01348060243 0.01149999976 0.4191533121
v -0.01327635839 0.01149999976 0.4196213758
v -0.01327635929 0.01149999976 0.4201320684
v 0.00900248431 0.01200000048 0.4299368331
v 0.00900248431 0.01070000052 0.4299368331
v 0.009666722336 0.01070000052 0.430111967
v 0.01034098952 0.01070000052 0.4302432701
v 0.01102240158 0.01070000052 0.4303302273
v 0.01102240158 0.01200000048 0.4303302273
v 0.01034098952 0.01200000048 0.4302432701
v 0.009666722336 0.01200000048 0.430111967
v 0.0079129194 0.01200000048 0.4308145549
v 0.007366778667 0.01149999976 0.4311895959
v 0.007366778667 0.01070000052 0.4311895959
v 0.00793305149 0.01070000052 0.4307999637
v 0.008478758376 0.01070000052 0.4303820265
v 0.00900248431 0.01070000052 0.4299368331
v 0.00900248431 0.01200000048 0.4299368331
v 0.008649482418 0.01200000048 0.4302419129
v 0.008286149275 0.01200000048 0.4305345949
v 0.008250954341 0.00150000006 0.4258817705
v 0.009060454529 0.00150000006 0.4242008255
v 0.01087937861 0.00150000006 0.4237856752
v 0.01233803932 0.00150000006 0.4249489316
v 0.01233803604 0.00150000006 0.4268146237
v 0.01087937125 0.00150000006 0.4279778749
v 0.009060448629 0.00150000006 0.4275626992
v 0.008750954461 0.00200000003 0.4258817713
v 0.009575951762 0.00200000003 0.4273107202
v 0.01122595198 0.00200000003 0.4273107231
v 0.01205095429 0.00200000003 0.4258817771
v 0.01122595699 0.00200000003 0.4244528282
v 0.009575956778 0.00200000003 0.4244528253
v 0.01122595699 0.00200000003 0.4244528282
v 0.01087937861 0.00150000006 0.4237856752
v 0.009575972839 0.00200000003 0.4153007181
v 0.008750975538 0.00200000003 0.4138717692
v 0.009575977855 0.00200000003 0.4124428232
v 0.01122597807 0.00200000003 0.4124428261
v 0.01205097537 0.00200000003 0.413871775
v 0.01122597305 0.00200000003 0.415300721
v 0.009575972839 0.008500000238 0.4153007181
v 0.01122597305 0.008500000238 0.415300721
v 0.01205097537 0.008500000238 0.413871775
v 0.01122597807 0.008500000238 0.4124428261
v 0.009575977855 0.008500000238 0.4124428232
v 0.008750975538 0.008500000238 0.4138717692
v 0.01122597807 0.00200000003 0.4124428261
v 0.01122597807 0.008500000238 0.4124428261
v 0.000825018602 0.008500000238 0.4092956921
v -0.0008249814635 0.008500000238 0.4092956892
v -0.001649978989 0.008500000238 0.4078667499
v -0.0008249764481 0.008500000238 0.4064378134
v 0.0008250236175 0.008500000238 0.4064378163
v 0.001650021143 0.008500000238 0.4078667557
v 2.107695463e-08 0.009491419792 0.4078667528
v -0.0008249764481 0.008500000238 0.4064378134
v 2.107695463e-08 0.009491419792 0.4078667528
v 2.107695463e-08 0.009491419792 0.4078667528
v 2.107695463e-08 0.009491419792 0.4078667528
v 2.107695463e-08 0.009491419792 0.4078667528
v 2.107695463e-08 0.009491419792 0.4078667528
v 2.107695463e-08 0.009491419792 0.4078667528
v -0.01363323742 0.004499999881 0.4228991347
v -0.01363323742 0.00150000006 0.4228991347
v -0.0141730218 0.00150000006 0.4228691312
v -0.01461830253 0.00150000006 0.4225625432
v -0.01483893779 0.00150000006 0.4220689972
v -0.01483893779 0.004499999881 0.4220689972
v -0.01461830253 0.004499999881 0.4225625432
v -0.0141730218 0.004499999881 0.4228691312
v -0.006005021639 0.006000000238 0.4322777148
v -0.007568683204 0.006000000238 0.4315246909
v -0.007954873033 0.006000000238 0.4298326621
v -0.006872782301 0.006000000238 0.4284757762
v -0.005137247633 0.006000000238 0.4284757793
v -0.004055161663 0.006000000238 0.429832669
v -0.004441357431 0.006000000238 0.4315246963
v -0.006005015936 0.006000000238 0.4290277072
v -0.007193838052 0.006000000238 0.4298914289
v -0.006739751459 0.006000000238 0.4312889822
v -0.005270288349 0.006000000238 0.4312889847
v -0.004816196851 0.006000000238 0.429891433
v 3.246658647e-08 0.00150000006 0.4013767511
v 0.005716845276 0.00150000006 0.4022822177
v 0.01087405328 0.00150000006 0.4049099523
v 0.0149668336 0.00150000006 0.4090027482
v 0.01759455611 0.00150000006 0.414159966
v 0.01850000024 0.00150000006 0.4198767874
v 0.01759453605 0.00150000006 0.4255936056
v 0.01496679543 0.00150000006 0.4307508046
v 0.01087400075 0.00150000006 0.4348435861
v 0.005716783521 0.00150000006 0.4374713122
v -3.246659622e-08 0.00150000006 0.4383767587
v -0.005716845276 0.00150000006 0.4374712922
v -0.01087405328 0.00150000006 0.434843548
v -0.0149668336 0.00150000006 0.4307507521
v -0.01759455611 0.00150000006 0.4255935438
v -0.01850000024 0.00150000006 0.4198767225
v -0.01759453605 0.00150000006 0.4141599043
v -0.01496679543 0.00150000006 0.4090026957
v -0.01087400075 0.00150000006 0.4049099142
v -0.005716783521 0.00150000006 0.4022821976
v 0.003551117272 0.00150000006 0.428146548
v 0.003164971641 0.00150000006 0.428440527
v 0.002962708763 0.00150000006 0.4288816963
v 0.002991968131 0.00150000006 0.4293661248
v 0.004199104481 0.00150000006 0.4331946906
v 0.004494989786 0.00150000006 0.4336471524
v 0.004983138902 0.00150000006 0.4338794874
v 0.00552088078 0.00150000006 0.4338237937
v 0.006856138538 0.00150000006 0.4332181747
v 0.008125891016 0.00150000006 0.4324850875
v 0.009318007463 0.00150000006 0.431631532
v 0.009635114479 0.00150000006 0.4311936816
v 0.009677983681 0.00150000006 0.4306547603
v 0.009434085898 0.00150000006 0.430172277
v 0.006722024918 0.00150000006 0.4272125821
v 0.006317123883 0.00150000006 0.4269450186
v 0.005833937718 0.00150000006 0.4268996037
v 0.005386271936 0.00150000006 0.427087019
v 0.004802996868 0.00150000006 0.4274879999
v 0.004190014927 0.00150000006 0.4278419074
v 0.009434122034 0.00150000006 0.4095812469
v 0.009678021511 0.00150000006 0.4090987739
v 0.0096351542 0.00150000006 0.408559862
v 0.009318048721 0.00150000006 0.4081220105
v 0.00812593527 0.00150000006 0.4072684508
v 0.006856185366 0.00150000006 0.4065353592
v 0.005520929733 0.00150000006 0.4059297355
v 0.00498318805 0.00150000006 0.40587404
v 0.004495038119 0.00150000006 0.4061063637
v 0.004199151225 0.00150000006 0.4065588244
v 0.002992001438 0.00150000006 0.4103873955
v 0.00296274037 0.00150000006 0.4108718239
v 0.003165001699 0.00150000006 0.411312994
v 0.003551146298 0.00150000006 0.4116069743
v 0.004190042884 0.00150000006 0.4119115981
v 0.004803023583 0.00150000006 0.4122655077
v 0.005386297243 0.00150000006 0.4126664906
v 0.005833962367 0.00150000006 0.4128539266
v 0.006317148692 0.00150000006 0.4128084944
v 0.006722050666 0.00150000006 0.4125409513
v -0.008937414217 0.00150000006 0.4188172071
v -0.00899893371 0.00150000006 0.4183358112
v -0.009279857455 0.00150000006 0.4179400741
v -0.009714019095 0.00150000006 0.4177231887
v -0.01363322681 0.00150000006 0.4168543082
v -0.0141730113 0.00150000006 0.4168843289
v -0.0146182931 0.00150000006 0.4171909154
v -0.0148389301 0.00150000006 0.4176844605
v -0.0149820744 0.00150000006 0.4191436392
v -0.01498207698 0.00150000006 0.4206098181
v -0.01483893779 0.00150000006 0.4220689972
v -0.01461830253 0.00150000006 0.4225625432
v -0.0141730218 0.00150000006 0.4228691312
v -0.01363323742 0.00150000006 0.4228991347
v -0.009714026654 0.00150000006 0.4220302871
v -0.009279864253 0.00150000006 0.4218134032
v -0.008998939119 0.00150000006 0.421417667
v -0.008937417936 0.00150000006 0.4209362714
v -0.008993039752 0.00150000006 0.4202306477
v -0.00899303851 0.00150000006 0.4195228306
v -0.01255095501 0.00150000006 0.4138717318
v -0.01174146013 0.00150000006 0.4155526605
v -0.009922538096 0.00150000006 0.4159678363
v -0.008463873306 0.00150000006 0.4148045851
v -0.008463870032 0.00150000006 0.4129388929
v -0.009922530739 0.00150000006 0.4117756366
v -0.01174145423 0.00150000006 0.4121907869
v 1.730380834e-08 0.00150000006 0.4100167543
v 0.001680956432 0.00150000006 0.4092072594
v 0.002096117002 0.00150000006 0.4073883362
v 0.0009328744946 0.00150000006 0.4059296702
v -0.0009328255417 0.00150000006 0.4059296669
v -0.002096073169 0.00150000006 0.4073883288
v -0.001680918983 0.00150000006 0.4092072535
v 0.009325972318 0.00150000006 0.415733724
v 0.01118645536 0.00150000006 0.4158731544
v 0.01245545615 0.00150000006 0.4145054923
v 0.0121773906 0.00150000006 0.4126606279
v 0.0105616486 0.00150000006 0.411727779
v 0.008824916474 0.00150000006 0.4124094051
v 0.008274988971 0.00150000006 0.4141922029
v 0.008250954341 0.00150000006 0.4258817705
v 0.009060448629 0.00150000006 0.4275626992
v 0.01087937125 0.00150000006 0.4279778749
v 0.01233803604 0.00150000006 0.4268146237
v 0.01233803932 0.00150000006 0.4249489316
v 0.01087937861 0.00150000006 0.4237856752
v 0.009060454529 0.00150000006 0.4242008255
v -2.485011069e-08 0.00150000006 0.4340367586
v 0.001680914278 0.00150000006 0.4332272637
v 0.002096074848 0.00150000006 0.4314083405
v 0.0009328323407 0.00150000006 0.4299496745
v -0.0009328676956 0.00150000006 0.4299496712
v -0.002096115323 0.00150000006 0.4314083331
v -0.001680961137 0.00150000006 0.4332272578
v -0.01147597859 0.00150000006 0.4277436896
v -0.009615496143 0.00150000006 0.42788312
v -0.008346495358 0.00150000006 0.4265154579
v -0.008624560305 0.00150000006 0.4246705935
v -0.01024030171 0.00150000006 0.4237377446
v -0.01197703443 0.00150000006 0.4244193517
v -0.01252696194 0.00150000006 0.4262021686
v -0.006004985659 0.00150000006 0.411775777
v -0.004206771909 0.00150000006 0.4109098057
v -0.003762646538 0.00150000006 0.4089639866
v -0.005007045433 0.00150000006 0.4074035539
v -0.007002910539 0.00150000006 0.4074035504
v -0.00824731521 0.00150000006 0.4089639788
v -0.007803196668 0.00150000006 0.4109097994
v -0.006005022166 0.00150000006 0.4325777026
v -0.004206808416 0.00150000006 0.4317117314
v -0.003762683044 0.00150000006 0.4297659123
v -0.005007081939 0.00150000006 0.4282054891
v -0.007002947046 0.00150000006 0.4282054856
v -0.008247351716 0.00150000006 0.4297659044
v -0.007803233174 0.00150000006 0.431711725
v 0.01200999572 0.00150000006 0.4221767714
v 0.01380820976 0.00150000006 0.4213108001
v 0.01425233454 0.00150000006 0.4193649811
v 0.01300793654 0.00150000006 0.4178045388
v 0.01101207143 0.00150000006 0.4178045353
v 0.009767666761 0.00150000006 0.4193649732
v 0.01021178471 0.00150000006 0.4213107938
v -1.316213378e-08 0.00150000006 0.4273767549
v 0.003485412268 0.00150000006 0.4265176721
v 0.006172371778 0.00150000006 0.4241372485
v 0.007445314728 0.00150000006 0.420780794
v 0.007012626428 0.00150000006 0.4172172366
v 0.004973429757 0.00150000006 0.4142629216
v 0.001794880295 0.00150000006 0.4125946917
v -0.001794854736 0.00150000006 0.4125946854
v -0.004973410053 0.00150000006 0.4142629042
v -0.007012617093 0.00150000006 0.417217212
v -0.007445317901 0.00150000006 0.4207807679
v -0.006172386732 0.00150000006 0.4241372269
v -0.003485435577 0.00150000006 0.4265176599
v 3.246658647e-08 0.005 0.4013767511
v 0.005716845276 0.005 0.4022822177
v 0.01087405328 0.005 0.4049099523
v 0.0149668336 0.005 0.4090027482
v 0.01759455611 0.005 0.414159966
v 0.01850000024 0.005 0.4198767874
v 0.01759453605 0.005 0.4255936056
v 0.01496679543 0.005 0.4307508046
v 0.01087400075 0.005 0.4348435861
v 0.005716783521 0.005 0.4374713122
v -3.246659622e-08 0.005 0.4383767587
v -0.005716845276 0.005 0.4374712922
v -0.01087405328 0.005 0.434843548
v -0.0149668336 0.005 0.4307507521
v -0.01759455611 0.005 0.4255935438
v -0.01850000024 0.005 0.4198767225
v -0.01759453605 0.005 0.4141599043
v -0.01496679543 0.005 0.4090026957
v -0.01087400075 0.005 0.4049099142
v -0.005716783521 0.005 0.4022821976
v 3.246658647e-08 0.00150000006 0.4013767511
v -0.005716783521 0.00150000006 0.4022821976
v -0.01087400075 0.00150000006 0.4049099142
v -0.01496679543 0.00150000006 0.4090026957
v -0.01759453605 0.00150000006 0.4141599043
v -0.01850000024 0.00150000006 0.4198767225
v -0.01759455611 0.00150000006 0.4255935438
v -0.0149668336 0.00150000006 0.4307507521
v -0.01087405328 0.00150000006 0.434843548
v -0.005716845276 0.00150000006 0.4374712922
v -3.246659622e-08 0.00150000006 0.4383767587
v 0.005716783521 0.00150000006 0.4374713122
v 0.01087400075 0.00150000006 0.4348435861
v 0.01496679543 0.00150000006 0.4307508046
v 0.01759453605 0.00150000006 0.4255936056
v 0.01850000024 0.00150000006 0.4198767874
v 0.01759455611 0.00150000006 0.414159966
v 0.0149668336 0.00150000006 0.4090027482
v 0.01087405328 0.00150000006 0.4049099523
v 0.005716845276 0.00150000006 0.4022822177
v 3.246658647e-08 0.00150000006 0.4013767511
v 3.246658647e-08 0.005 0.4013767511
v 3.246658647e-08 0.005 0.4013767511
v -0.005716783521 0.005 0.4022821976
v -0.01087400075 0.005 0.4049099142
v -0.01496679543 0.005 0.4090026957
v -0.01759453605 0.005 0.4141599043
v -0.01850000024 0.005 0.4198767225
v -0.01759455611 0.005 0.4255935438
v -0.0149668336 0.005 0.4307507521
v -0.01087405328 0.005 0.434843548
v -0.005716845276 0.005 0.4374712922
v -3.246659622e-08 0.005 0.4383767587
v 0.005716783521 0.005 0.4374713122
v 0.01087400075 0.005 0.4348435861
v 0.01496679543 0.005 0.4307508046
v 0.01759453605 0.005 0.4255936056
v 0.01850000024 0.005 0.4198767874
v 0.01759455611 0.005 0.414159966
v 0.0149668336 0.005 0.4090027482
v 0.01087405328 0.005 0.4049099523
v 0.005716845276 0.005 0.4022822177
v -3.071163901e-08 0.005 0.4373767549
v -0.005682269772 0.005 0.4364285447
v -0.01074874679 0.005 0.433686684
v -0.0146504296 0.005 0.4294483196
v -0.01696451226 0.005 0.4241727228
v -0.01744022593 0.005 0.4184315835
v -0.01602602083 0.005 0.4128470599
v -0.01287514752 0.005 0.4080243058
v -0.008329052141 0.005 0.4044859436
v -0.002880374895 0.005 0.4026154259
v 0.00288043548 0.005 0.402615436
v 0.008329106161 0.005 0.4044859729
v 0.01287518912 0.005 0.408024351
v 0.0160260455 0.005 0.4128471161
v 0.017440231 0.005 0.4184316447
v 0.01696449718 0.005 0.4241727823
v 0.014650396 0.005 0.4294483711
v 0.01074869832 0.005 0.4336867217
v 0.005682211677 0.005 0.4364285647
v 0.003970644962 0.01149999976 0.4369203334
v -0.001260793741 0.01149999976 0.4373312815
v -0.006378866423 0.01149999976 0.436172768
v -0.01092337624 0.01149999976 0.4335489731
v -0.01448569829 0.01149999976 0.4296958366
v -0.0167455226 0.01149999976 0.4249598096
v -0.0167455226 0.01070000052 0.4249598096
v -0.01741563025 0.01070000052 0.4215930902
v -0.01741562423 0.01070000052 0.4181603395
v -0.01674550476 0.01070000052 0.4147936414
v -0.01674550476 0.01149999976 0.4147936414
v -0.01448566382 0.01149999976 0.4100576129
v -0.01092332825 0.01149999976 0.4062044888
v -0.006378809225 0.01149999976 0.4035807194
v -0.001260732477 0.01149999976 0.4024222239
v 0.003970704783 0.01149999976 0.4028331713
v 0.003970704783 0.01070000052 0.4028331713
v 0.007221416196 0.01070000052 0.4039362063
v 0.01019426339 0.01070000052 0.4056525869
v 0.01277486039 0.01070000052 0.4079162804
v 0.01277486039 0.01149999976 0.4079162804
v 0.01574645786 0.01149999976 0.4122413608
v 0.01730219467 0.01149999976 0.4172529984
v 0.01730218546 0.01149999976 0.4225005531
v 0.01574643106 0.01149999976 0.4275121852
v 0.01277481841 0.01149999976 0.4318372647
v 0.01277481841 0.01070000052 0.4318372647
v 0.01019421346 0.01070000052 0.4341009588
v 0.007221360246 0.01070000052 0.4358173193
v 0.003970644962 0.01070000052 0.4369203334
v -3.071163901e-08 0.005 0.4373767549
v 0.005682211677 0.005 0.4364285647
v 0.01074869832 0.005 0.4336867217
v 0.014650396 0.005 0.4294483711
v 0.01696449718 0.005 0.4241727823
v 0.017440231 0.005 0.4184316447
v 0.0160260455 0.005 0.4128471161
v 0.01287518912 0.005 0.408024351
v 0.008329106161 0.005 0.4044859729
v 0.00288043548 0.005 0.402615436
v -0.002880374895 0.005 0.4026154259
v -0.008329052141 0.005 0.4044859436
v -0.01287514752 0.005 0.4080243058
v -0.01602602083 0.005 0.4128470599
v -0.01744022593 0.005 0.4184315835
v -0.01696451226 0.005 0.4241727228
v -0.0146504296 0.005 0.4294483196
v -0.01074874679 0.005 0.433686684
v -0.005682269772 0.005 0.4364285447
v 0.00288043548 0.005 0.402615436
v 0.003970704783 0.01149999976 0.4028331713
v -0.0167455226 0.01070000052 0.4249598096
v -0.01593208262 0.01070000052 0.4250199307
v -0.01516228816 0.01070000052 0.4247502711
v -0.01456417365 0.01070000052 0.4241956915
v -0.01414816922 0.01070000052 0.4236490461
v -0.01369731163 0.01070000052 0.4231307821
v -0.01321352967 0.01070000052 0.422643093
v -0.01333720812 0.01070000052 0.4219669377
v -0.01342630991 0.01070000052 0.4212853655
v -0.01348060496 0.01070000052 0.4206001504
v -0.01487964243 0.01070000052 0.4210676773
v -0.01575000048 0.01070000052 0.4198767273
v -0.01487963825 0.01070000052 0.4186857803
v -0.01348060243 0.01070000052 0.4191533121
v -0.01342630497 0.01070000052 0.4184680972
v -0.01333720079 0.01070000052 0.4177865254
v -0.01321351996 0.01070000052 0.4171103705
v -0.01369730021 0.01070000052 0.4166226797
v -0.01414815598 0.01070000052 0.4161044141
v -0.01456415849 0.01070000052 0.4155577673
v -0.01516227105 0.01070000052 0.4150031855
v -0.01593206457 0.01070000052 0.4147335232
v -0.01674550476 0.01070000052 0.4147936414
v -0.01741562423 0.01070000052 0.4181603395
v -0.01741563025 0.01070000052 0.4215930902
v -0.01674550476 0.01070000052 0.4147936414
v -0.01593206457 0.01070000052 0.4147335232
v -0.01516227105 0.01070000052 0.4150031855
v -0.01456415849 0.01070000052 0.4155577673
v -0.01456415849 0.01200000048 0.4155577673
v -0.01500847456 0.01200000048 0.4151058202
v -0.01557188338 0.01200000048 0.4148155971
v -0.01619780946 0.01200000048 0.4147162422
v -0.01674550476 0.01149999976 0.4147936414
v 0.00791295779 0.01200000048 0.4089389732
v 0.006868872013 0.01200000048 0.4090273865
v 0.005961431555 0.01200000048 0.4085034744
v 0.005515961813 0.01200000048 0.407555054
v 0.005086892139 0.01200000048 0.4073718143
v 0.004651746937 0.01200000048 0.4072034995
v 0.004211045364 0.01200000048 0.4070503291
v 0.004030588994 0.01200000048 0.4063875252
v 0.003807179111 0.01200000048 0.4057379295
v 0.003541772362 0.01200000048 0.4051043364
v 0.003372549589 0.01200000048 0.404493584
v 0.003402916286 0.01200000048 0.4038605446
v 0.003629822969 0.01200000048 0.4032687901
v -0.001364200031 0.01200000048 0.4029315812
v -0.006239958072 0.01200000048 0.4040633742
v -0.01057476092 0.01200000048 0.4065660655
v -0.01399281834 0.01200000048 0.4102226853
v -0.01619780946 0.01200000048 0.4147162422
v -0.01557188338 0.01200000048 0.4148155971
v -0.01500847456 0.01200000048 0.4151058202
v -0.01456415849 0.01200000048 0.4155577673
v -0.01414815598 0.01200000048 0.4161044141
v -0.01369730021 0.01200000048 0.4166226797
v -0.01321351996 0.01200000048 0.4171103705
v -0.01330122185 0.01200000048 0.4175686108
v -0.01337303553 0.01200000048 0.4180296169
v -0.01342887636 0.01200000048 0.4184928164
v -0.01283026365 0.01200000048 0.4193528219
v -0.01283026549 0.01200000048 0.4204006429
v -0.01342888121 0.01200000048 0.4212606272
v -0.01337304201 0.01200000048 0.421723846
v -0.01330122995 0.01200000048 0.4221848523
v -0.01321352967 0.01200000048 0.422643093
v -0.01369731163 0.01200000048 0.4231307821
v -0.01414816922 0.01200000048 0.4236490461
v -0.01456417365 0.01200000048 0.4241956915
v -0.01500849131 0.01200000048 0.4246476179
v -0.01557190114 0.01200000048 0.424937839
v -0.01619782757 0.01200000048 0.4250372108
v -0.01399285223 0.01200000048 0.4295307755
v -0.01057480764 0.01200000048 0.4331873977
v -0.006240013575 0.01200000048 0.4356901137
v -0.001364259506 0.01200000048 0.4368219239
v 0.003629764677 0.01200000048 0.4364847325
v 0.003402860071 0.01200000048 0.4358929772
v 0.003372495596 0.01200000048 0.4352599281
v 0.003541720513 0.01200000048 0.4346491763
v 0.003807129485 0.01200000048 0.4340155937
v 0.004030541649 0.01200000048 0.4333659893
v 0.004211000344 0.01200000048 0.432703186
v 0.004651702455 0.01200000048 0.4325500266
v 0.005086848248 0.01200000048 0.4323817039
v 0.005515918565 0.01200000048 0.4321984656
v 0.005961391636 0.01200000048 0.4312500564
v 0.006868833933 0.01200000048 0.4307261475
v 0.0079129194 0.01200000048 0.4308145549
v 0.008286149275 0.01200000048 0.4305345949
v 0.008649482418 0.01200000048 0.4302419129
v 0.00900248431 0.01200000048 0.4299368331
v 0.009666722336 0.01200000048 0.430111967
v 0.01034098952 0.01200000048 0.4302432701
v 0.01102240158 0.01200000048 0.4303302273
v 0.01163594172 0.01200000048 0.4304890533
v 0.01216898545 0.01200000048 0.430831862
v 0.0125680055 0.01200000048 0.4313242448
v 0.01535705241 0.01200000048 0.4271679081
v 0.01681476631 0.01200000048 0.4223794738
v 0.01681477509 0.01200000048 0.417374076
v 0.015357078 0.01200000048 0.4125856556
v 0.01256804568 0.01200000048 0.4084292996
v 0.0121690239 0.01200000048 0.408921681
v 0.01163597896 0.01200000048 0.4092644974
v 0.01102243827 0.01200000048 0.4094233212
v 0.0103410259 0.01200000048 0.4095102665
v 0.009666758261 0.01200000048 0.4096415767
v 0.009002519619 0.01200000048 0.4098166988
v 0.008649518799 0.01200000048 0.4095116273
v 0.008286186683 0.01200000048 0.4092189345
v -0.006004985659 0.01200000048 0.411775777
v -0.007803196668 0.01200000048 0.4109097994
v -0.00824731521 0.01200000048 0.4089639788
v -0.007002910539 0.01200000048 0.4074035504
v -0.005007045433 0.01200000048 0.4074035539
v -0.003762646538 0.01200000048 0.4089639866
v -0.004206771909 0.01200000048 0.4109098057
v 0.01200999572 0.01200000048 0.4221767714
v 0.01021178471 0.01200000048 0.4213107938
v 0.009767666761 0.01200000048 0.4193649732
v 0.01101207143 0.01200000048 0.4178045353
v 0.01300793654 0.01200000048 0.4178045388
v 0.01425233454 0.01200000048 0.4193649811
v 0.01380820976 0.01200000048 0.4213108001
v -0.006005022166 0.01200000048 0.4325777026
v -0.007803233174 0.01200000048 0.431711725
v -0.008247351716 0.01200000048 0.4297659044
v -0.007002947046 0.01200000048 0.4282054856
v -0.005007081939 0.01200000048 0.4282054891
v -0.003762683044 0.01200000048 0.4297659123
v -0.004206808416 0.01200000048 0.4317117314
v -1.491709101e-08 0.01200000048 0.4283767587
v -0.003950160241 0.01200000048 0.4274031266
v -0.006995371113 0.01200000048 0.4247052911
v -0.008438027511 0.01200000048 0.4209012915
v -0.007947632745 0.01200000048 0.4168625961
v -0.005636531274 0.01200000048 0.4135144022
v -0.002034168661 0.01200000048 0.4116237492
v 0.002034197628 0.01200000048 0.4116237563
v 0.005636553605 0.01200000048 0.413514422
v 0.007947643324 0.01200000048 0.416862624
v 0.008438023915 0.01200000048 0.4209013211
v 0.006995354166 0.01200000048 0.4247053156
v 0.003950133824 0.01200000048 0.4274031405
v 0.002991968131 0.004499999881 0.4293661248
v 0.002991968131 0.00150000006 0.4293661248
v 0.002962708763 0.00150000006 0.4288816963
v 0.003164971641 0.00150000006 0.428440527
v 0.003551117272 0.00150000006 0.428146548
v 0.003551117272 0.004499999881 0.428146548
v 0.003164971641 0.004499999881 0.428440527
v 0.002962708763 0.004499999881 0.4288816963
v -0.006005021639 0.01169999957 0.4322777148
v -0.007568683204 0.01169999957 0.4315246909
v -0.007954873033 0.01169999957 0.4298326621
v -0.006872782301 0.01169999957 0.4284757762
v -0.005137247633 0.01169999957 0.4284757793
v -0.004055161663 0.01169999957 0.429832669
v -0.004441357431 0.01169999957 0.4315246963
v -0.006005022166 0.01200000048 0.4325777026
v -0.004206808416 0.01200000048 0.4317117314
v -0.003762683044 0.01200000048 0.4297659123
v -0.005007081939 0.01200000048 0.4282054891
v -0.007002947046 0.01200000048 0.4282054856
v -0.008247351716 0.01200000048 0.4297659044
v -0.007803233174 0.01200000048 0.431711725
v -0.005137247633 0.01169999957 0.4284757793
v -0.005007081939 0.01200000048 0.4282054891
f 2 8 1
f 1 8 9
f 1 9 7
f 7 9 10
f 7 10 6
f 6 10 16
f 6 16 5
f 15 11 12
f 15 12 4
f 4 12 13
f 4 13 3
f 3 13 14
f 3 14 2
f 2 14 8
f 17 18 24
f 24 18 19
f 24 19 23
f 23 19 20
f 23 20 22
f 22 20 21
f 25 26 32
f 32 26 27
f 32 27 31
f 31 27 28
f 31 28 30
f 30 28 29
f 33 34 57
f 57 34 35
f 57 35 36
f 36 37 57
f 57 37 43
f 57 43 44
f 37 38 43
f 43 38 40
f 43 40 41
f 38 39 40
f 41 42 43
f 57 44 56
f 56 44 45
f 56 45 55
f 55 45 54
f 54 45 53
f 53 45 52
f 52 45 51
f 51 45 50
f 50 45 48
f 50 48 49
f 46 47 45
f 45 47 48
f 59 67 58
f 70 66 59
f 62 69 61
f 58 68 62
f 61 71 60
f 72 73 80
f 80 73 74
f 80 74 79
f 79 74 75
f 79 75 78
f 78 75 76
f 78 76 77
f 81 82 88
f 88 82 83
f 88 83 84
f 88 84 87
f 87 84 85
f 87 85 86
f 90 101 89
f 89 101 95
f 89 95 96
f 101 90 100
f 100 90 91
f 100 91 99
f 99 91 102
f 99 102 98
f 103 92 93
f 103 93 97
f 97 93 94
f 97 94 96
f 96 94 89
f 105 115 104
f 104 115 110
f 104 110 109
f 109 110 111
f 109 111 108
f 108 111 112
f 108 112 107
f 107 112 117
f 116 113 106
f 106 113 114
f 106 114 105
f 105 114 115
f 119 127 118
f 125 124 120
f 123 128 122
f 122 131 121
f 120 129 119
f 118 130 123
f 133 139 132
f 132 139 140
f 132 140 138
f 138 140 141
f 138 141 137
f 137 141 147
f 137 147 136
f 146 142 143
f 146 143 135
f 135 143 144
f 135 144 134
f 134 144 145
f 134 145 133
f 133 145 139
f 149 157 148
f 148 157 158
f 159 153 152
f 152 153 154
f 152 154 151
f 151 154 155
f 151 155 150
f 150 155 156
f 150 156 149
f 149 156 157
f 161 169 160
f 172 168 161
f 164 171 163
f 160 170 164
f 163 173 162
f 175 188 174
f 190 185 189
f 174 181 182
f 188 175 184
f 184 175 176
f 184 176 183
f 183 176 187
f 187 176 177
f 187 177 186
f 186 177 178
f 186 178 180
f 180 178 179
f 180 189 186
f 186 189 185
f 197 191 198
f 198 191 192
f 198 192 203
f 203 192 193
f 203 193 202
f 202 193 205
f 202 205 201
f 204 194 195
f 204 195 200
f 200 195 196
f 200 196 199
f 199 196 197
f 199 197 198
f 207 217 206
f 206 217 218
f 206 218 211
f 219 212 213
f 219 213 210
f 210 213 214
f 210 214 209
f 209 214 215
f 209 215 208
f 208 215 216
f 208 216 207
f 207 216 217
f 221 229 220
f 227 226 222
f 225 230 224
f 224 233 223
f 222 231 221
f 220 232 225
f 235 241 234
f 234 241 242
f 234 242 240
f 240 242 243
f 240 243 239
f 239 243 249
f 239 249 238
f 248 244 245
f 248 245 237
f 237 245 246
f 237 246 236
f 236 246 247
f 236 247 235
f 235 247 241
f 251 263 250
f 250 263 264
f 250 264 262
f 262 264 265
f 262 265 261
f 261 265 266
f 261 266 260
f 260 266 267
f 260 267 259
f 259 267 268
f 259 268 258
f 258 268 277
f 258 277 257
f 276 269 270
f 276 270 256
f 256 270 271
f 256 271 255
f 255 271 272
f 255 272 254
f 254 272 273
f 254 273 253
f 253 273 274
f 253 274 252
f 252 274 275
f 252 275 251
f 251 275 263
f 279 285 278
f 278 285 286
f 278 286 284
f 284 286 287
f 284 287 283
f 283 287 288
f 283 288 282
f 282 288 281
f 281 288 289
f 281 289 280
f 280 289 285
f 280 285 279
f 291 297 290
f 290 297 298
f 290 298 296
f 296 298 299
f 296 299 295
f 295 299 305
f 295 305 294
f 304 300 301
f 304 301 293
f 293 301 302
f 293 302 292
f 292 302 303
f 292 303 291
f 291 303 297
f 307 317 306
f 306 317 319
f 318 312 311
f 311 312 313
f 311 313 310
f 310 313 314
f 310 314 309
f 309 314 315
f 309 315 308
f 308 315 316
f 308 316 307
f 307 316 317
f 321 333 320
f 323 332 322
f 325 331 324
f 327 326 325
f 324 329 323
f 322 330 321
f 335 341 334
f 334 341 342
f 334 342 340
f 340 342 343
f 340 343 339
f 339 343 349
f 339 349 338
f 348 344 345
f 348 345 337
f 337 345 346
f 337 346 336
f 336 346 347
f 336 347 335
f 335 347 341
f 351 369 350
f 350 369 370
f 350 370 362
f 362 370 371
f 362 371 361
f 361 371 372
f 361 372 360
f 360 372 373
f 360 373 359
f 359 373 374
f 359 374 358
f 358 374 375
f 358 375 357
f 357 375 377
f 357 377 356
f 376 363 364
f 376 364 355
f 355 364 365
f 355 365 354
f 354 365 366
f 354 366 353
f 353 366 367
f 353 367 352
f 352 367 368
f 352 368 351
f 351 368 369
f 379 387 378
f 378 387 392
f 378 392 384
f 393 388 389
f 393 389 383
f 383 389 390
f 383 390 382
f 382 390 391
f 382 391 381
f 381 391 385
f 381 385 380
f 380 385 386
f 380 386 379
f 379 386 387
f 395 401 394
f 394 401 402
f 394 402 400
f 400 402 403
f 400 403 399
f 399 403 409
f 399 409 398
f 408 404 405
f 408 405 397
f 397 405 406
f 397 406 396
f 396 406 407
f 396 407 395
f 395 407 401
f 411 417 410
f 410 417 418
f 410 418 416
f 416 418 419
f 416 419 415
f 415 419 425
f 415 425 414
f 424 420 421
f 424 421 413
f 413 421 422
f 413 422 412
f 412 422 423
f 412 423 411
f 411 423 417
f 427 439 426
f 429 438 428
f 431 437 430
f 433 432 431
f 430 435 429
f 428 436 427
f 441 449 440
f 440 449 450
f 451 445 444
f 444 445 446
f 444 446 443
f 443 446 447
f 443 447 442
f 442 447 448
f 442 448 441
f 441 448 449
f 464 452 465
f 465 452 453
f 465 453 474
f 474 453 454
f 474 454 473
f 473 454 455
f 473 455 472
f 472 455 456
f 472 456 457
f 472 457 471
f 471 457 458
f 471 458 470
f 470 458 459
f 470 459 469
f 469 459 460
f 469 460 468
f 468 460 461
f 468 461 462
f 468 462 467
f 467 462 463
f 467 463 466
f 466 463 464
f 466 464 465
f 476 482 475
f 475 482 483
f 475 483 481
f 481 483 484
f 481 484 480
f 480 484 490
f 480 490 479
f 489 485 486
f 489 486 478
f 478 486 487
f 478 487 477
f 477 487 488
f 477 488 476
f 476 488 482
f 492 500 491
f 491 500 501
f 491 501 497
f 497 501 502
f 497 502 496
f 496 502 495
f 495 502 498
f 495 498 494
f 494 498 499
f 494 499 493
f 493 499 492
f 492 499 500
f 504 522 503
f 503 522 523
f 524 513 512
f 512 513 514
f 512 514 511
f 511 514 515
f 511 515 510
f 510 515 516
f 510 516 509
f 509 516 517
f 509 517 508
f 508 517 518
f 508 518 507
f 507 518 519
f 507 519 506
f 506 519 520
f 506 520 505
f 505 520 521
f 505 521 504
f 504 521 522
f 537 525 538
f 538 525 526
f 538 526 549
f 549 526 527
f 549 527 548
f 548 527 528
f 548 528 547
f 547 528 529
f 547 529 546
f 546 529 530
f 546 530 545
f 545 530 550
f 545 550 544
f 551 531 532
f 551 532 543
f 543 532 533
f 543 533 542
f 542 533 534
f 542 534 541
f 541 534 535
f 541 535 540
f 540 535 536
f 540 536 539
f 539 536 537
f 539 537 538
f 563 552 569
f 569 552 553
f 569 553 568
f 568 553 554
f 568 554 567
f 567 554 555
f 567 555 566
f 566 555 556
f 566 556 565
f 565 556 557
f 565 557 564
f 564 557 558
f 564 558 559
f 564 559 573
f 573 559 560
f 573 560 572
f 572 560 561
f 572 561 571
f 571 561 562
f 571 562 570
f 570 562 563
f 570 563 569
f 575 597 574
f 574 597 586
f 574 586 585
f 585 586 587
f 585 587 584
f 584 587 588
f 584 588 583
f 583 588 589
f 583 589 582
f 582 589 590
f 582 590 581
f 581 590 591
f 581 591 580
f 580 591 599
f 598 592 579
f 579 592 593
f 579 593 578
f 578 593 594
f 578 594 577
f 577 594 595
f 577 595 576
f 576 595 596
f 576 596 575
f 575 596 597
f 600 601 607
f 607 601 602
f 607 602 603
f 604 605 603
f 603 605 606
f 603 606 607
f 608 609 611
f 611 609 610
f 619 612 618
f 618 612 613
f 618 613 617
f 617 613 614
f 617 614 616
f 616 614 615
f 621 622 620
f 620 622 623
f 625 635 624
f 624 635 636
f 624 636 630
f 630 636 637
f 630 637 629
f 629 637 631
f 629 631 628
f 628 631 632
f 628 632 627
f 627 632 633
f 627 633 626
f 626 633 638
f 639 634 625
f 625 634 635
f 651 640 650
f 650 640 641
f 650 641 649
f 649 641 642
f 649 642 643
f 649 643 648
f 648 643 644
f 648 644 647
f 647 644 645
f 647 645 646
f 652 653 659
f 659 653 654
f 659 654 658
f 658 654 655
f 658 655 657
f 657 655 656
f 667 660 666
f 666 660 661
f 666 661 665
f 665 661 662
f 665 662 664
f 664 662 663
f 669 670 668
f 668 670 671
f 672 673 679
f 679 673 674
f 679 674 675
f 676 677 675
f 675 677 678
f 675 678 679
f 680 681 687
f 687 681 682
f 687 682 686
f 686 682 683
f 686 683 685
f 685 683 684
f 689 699 688
f 688 699 695
f 688 695 694
f 694 695 693
f 693 695 696
f 693 696 692
f 692 696 697
f 692 697 691
f 691 697 690
f 690 697 698
f 690 698 689
f 689 698 699
f 700 701 708
f 708 701 702
f 708 702 707
f 707 702 703
f 707 703 706
f 706 703 704
f 706 704 705
f 717 709 716
f 716 709 710
f 716 710 715
f 715 710 711
f 715 711 714
f 714 711 712
f 714 712 713
f 729 718 728
f 728 718 719
f 728 719 727
f 727 719 720
f 727 720 721
f 727 721 726
f 726 721 722
f 726 722 725
f 725 722 723
f 725 723 724
f 736 730 737
f 737 730 731
f 737 731 742
f 742 731 744
f 742 744 741
f 743 732 733
f 743 733 740
f 740 733 734
f 740 734 739
f 739 734 735
f 739 735 738
f 738 735 736
f 738 736 737
f 746 747 745
f 745 747 748
f 756 749 755
f 755 749 750
f 755 750 754
f 754 750 751
f 754 751 753
f 753 751 752
f 757 758 764
f 764 758 759
f 764 759 760
f 761 762 760
f 760 762 763
f 760 763 764
f 765 766 772
f 772 766 767
f 772 767 771
f 771 767 768
f 771 768 770
f 770 768 769
f 780 773 779
f 779 773 774
f 779 774 778
f 778 774 775
f 778 775 777
f 777 775 776
f 800 781 798
f 798 781 782
f 798 782 797
f 797 782 793
f 797 793 794
f 782 783 793
f 793 783 792
f 792 783 788
f 792 788 791
f 791 788 790
f 790 788 789
f 788 783 787
f 787 783 784
f 787 784 785
f 785 786 787
f 794 795 797
f 797 795 796
f 798 799 800
f 802 810 801
f 801 810 811
f 812 806 805
f 805 806 807
f 805 807 804
f 804 807 808
f 804 808 803
f 803 808 809
f 803 809 802
f 802 809 810
f 813 814 820
f 820 814 815
f 820 815 819
f 819 815 816
f 819 816 818
f 818 816 817
f 845 821 831
f 831 821 822
f 831 822 823
f 823 824 831
f 831 824 825
f 831 825 826
f 827 828 826
f 826 828 831
f 828 829 831
f 831 829 830
f 831 832 845
f 845 832 844
f 844 832 833
f 844 833 839
f 839 833 838
f 838 833 836
f 838 836 837
f 834 835 833
f 833 835 836
f 839 840 844
f 844 840 841
f 844 841 842
f 842 843 844
f 846 847 853
f 853 847 848
f 853 848 852
f 852 848 849
f 852 849 851
f 851 849 850
f 854 855 865
f 865 855 864
f 864 855 856
f 864 856 863
f 863 856 857
f 863 857 862
f 862 857 861
f 861 857 858
f 861 858 860
f 860 858 859
f 867 878 866
f 866 878 872
f 866 872 873
f 878 867 877
f 877 867 868
f 877 868 876
f 876 868 879
f 876 879 875
f 880 869 870
f 880 870 874
f 874 870 871
f 874 871 873
f 873 871 866
f 882 892 881
f 881 892 894
f 893 887 886
f 886 887 888
f 886 888 885
f 885 888 889
f 885 889 884
f 884 889 890
f 884 890 883
f 883 890 891
f 883 891 882
f 882 891 892
f 895 896 902
f 902 896 897
f 902 897 898
f 899 900 898
f 898 900 901
f 898 901 902
f 903 904 910
f 910 904 905
f 910 905 909
f 909 905 906
f 909 906 908
f 908 906 907
f 912 913 911
f 911 913 914
f 922 915 921
f 921 915 916
f 921 916 920
f 920 916 917
f 920 917 919
f 919 917 918
f 942 923 940
f 940 923 924
f 940 924 935
f 935 924 934
f 934 924 925
f 934 925 929
f 929 925 926
f 929 926 927
f 927 928 929
f 929 930 934
f 934 930 933
f 933 930 932
f 932 930 931
f 940 935 939
f 939 935 936
f 939 936 937
f 937 938 939
f 940 941 942
f 943 944 950
f 950 944 945
f 950 945 946
f 947 948 946
f 946 948 949
f 946 949 950
f 952 960 951
f 951 960 961
f 951 961 957
f 957 961 962
f 957 962 956
f 956 962 955
f 955 962 958
f 955 958 954
f 954 958 959
f 954 959 953
f 953 959 952
f 952 959 960
f 970 963 969
f 969 963 964
f 969 964 965
f 969 965 968
f 968 965 966
f 968 966 967
f 971 972 978
f 978 972 973
f 978 973 977
f 977 973 974
f 977 974 976
f 976 974 975
f 980 981 979
f 979 981 982
f 979 982 987
f 987 982 983
f 987 983 986
f 986 983 984
f 986 984 985
f 988 989 996
f 996 989 990
f 996 990 995
f 995 990 991
f 995 991 994
f 994 991 993
f 993 991 992
f 997 998 1005
f 1005 998 999
f 1005 999 1004
f 1004 999 1000
f 1004 1000 1003
f 1003 1000 1001
f 1003 1001 1002
f 1007 1015 1006
f 1018 1014 1007
f 1010 1017 1009
f 1006 1016 1010
f 1009 1019 1008
f 1020 1021 1028
f 1028 1021 1022
f 1028 1022 1027
f 1027 1022 1023
f 1027 1023 1026
f 1026 1023 1025
f 1025 1023 1024
f 1035 1029 1036
f 1036 1029 1030
f 1036 1030 1041
f 1041 1030 1031
f 1041 1031 1040
f 1040 1031 1043
f 1040 1043 1039
f 1042 1032 1033
f 1042 1033 1038
f 1038 1033 1034
f 1038 1034 1037
f 1037 1034 1035
f 1037 1035 1036
f 1045 1055 1044
f 1044 1055 1050
f 1044 1050 1049
f 1049 1050 1051
f 1049 1051 1048
f 1048 1051 1052
f 1048 1052 1047
f 1047 1052 1057
f 1047 1057 1046
f 1056 1053 1054
f 1056 1054 1045
f 1045 1054 1055
f 1059 1071 1058
f 1061 1070 1060
f 1063 1069 1062
f 1065 1064 1063
f 1062 1067 1061
f 1060 1068 1059
f 1079 1072 1078
f 1078 1072 1073
f 1078 1073 1077
f 1077 1073 1074
f 1077 1074 1076
f 1076 1074 1075
f 1081 1082 1080
f 1080 1082 1083
f 1085 1089 1084
f 1084 1089 1100
f 1084 1100 1101
f 1089 1085 1088
f 1088 1085 1086
f 1088 1086 1087
f 1089 1090 1100
f 1100 1090 1099
f 1099 1090 1095
f 1099 1095 1098
f 1098 1095 1096
f 1098 1096 1097
f 1095 1090 1094
f 1094 1090 1091
f 1094 1091 1093
f 1093 1091 1092
f 1102 1103 1101
f 1101 1103 1084
f 1104 1105 1111
f 1111 1105 1106
f 1111 1106 1110
f 1110 1106 1107
f 1110 1107 1109
f 1109 1107 1108
f 1113 1121 1112
f 1112 1121 1122
f 1112 1122 1118
f 1118 1122 1123
f 1118 1123 1117
f 1117 1123 1116
f 1116 1123 1119
f 1116 1119 1115
f 1115 1119 1120
f 1115 1120 1114
f 1114 1120 1113
f 1113 1120 1121
f 1125 1131 1124
f 1124 1131 1132
f 1124 1132 1130
f 1130 1132 1133
f 1130 1133 1129
f 1129 1133 1139
f 1129 1139 1128
f 1138 1134 1135
f 1138 1135 1127
f 1127 1135 1136
f 1127 1136 1126
f 1126 1136 1137
f 1126 1137 1125
f 1125 1137 1131
f 1141 1142 1140
f 1140 1142 1143
f 1140 1143 1148
f 1148 1143 1144
f 1148 1144 1147
f 1147 1144 1145
f 1147 1145 1146
f 1149 1150 1157
f 1157 1150 1151
f 1157 1151 1156
f 1156 1151 1152
f 1156 1152 1155
f 1155 1152 1154
f 1154 1152 1153
f 1159 1172 1158
f 1174 1169 1173
f 1158 1165 1166
f 1172 1159 1168
f 1168 1159 1160
f 1168 1160 1167
f 1167 1160 1171
f 1171 1160 1161
f 1171 1161 1170
f 1170 1161 1162
f 1170 1162 1164
f 1164 1162 1163
f 1164 1173 1170
f 1170 1173 1169
f 1183 1175 1182
f 1182 1175 1176
f 1182 1176 1181
f 1181 1176 1177
f 1181 1177 1180
f 1180 1177 1178
f 1180 1178 1179
f 1185 1198 1184
f 1200 1195 1199
f 1184 1191 1192
f 1198 1185 1194
f 1194 1185 1186
f 1194 1186 1193
f 1193 1186 1197
f 1197 1186 1187
f 1197 1187 1196
f 1196 1187 1188
f 1196 1188 1190
f 1190 1188 1189
f 1190 1199 1196
f 1196 1199 1195
f 1202 1203 1201
f 1201 1203 1208
f 1208 1203 1204
f 1208 1204 1207
f 1207 1204 1206
f 1206 1204 1205
f 1209 1210 1216
f 1216 1210 1211
f 1216 1211 1215
f 1215 1211 1212
f 1215 1212 1214
f 1214 1212 1213
f 1218 1219 1217
f 1217 1219 1220
f 1217 1220 1225
f 1225 1220 1221
f 1225 1221 1224
f 1224 1221 1222
f 1224 1222 1223
f 1232 1226 1233
f 1233 1226 1227
f 1233 1227 1238
f 1238 1227 1240
f 1238 1240 1237
f 1239 1228 1229
f 1239 1229 1236
f 1236 1229 1230
f 1236 1230 1235
f 1235 1230 1231
f 1235 1231 1234
f 1234 1231 1232
f 1234 1232 1233
f 1242 1252 1241
f 1241 1252 1247
f 1241 1247 1246
f 1246 1247 1248
f 1246 1248 1245
f 1245 1248 1249
f 1245 1249 1244
f 1244 1249 1254
f 1253 1250 1243
f 1243 1250 1251
f 1243 1251 1242
f 1242 1251 1252
f 1256 1264 1255
f 1262 1261 1257
f 1260 1265 1259
f 1259 1268 1258
f 1257 1266 1256
f 1255 1267 1260
f 1269 1270 1276
f 1276 1270 1271
f 1276 1271 1272
f 1273 1274 1272
f 1272 1274 1275
f 1272 1275 1276
f 1278 1286 1277
f 1277 1286 1287
f 1277 1287 1283
f 1283 1287 1288
f 1283 1288 1282
f 1282 1288 1281
f 1281 1288 1284
f 1281 1284 1280
f 1280 1284 1285
f 1280 1285 1279
f 1279 1285 1278
f 1278 1285 1286
f 1290 1379 1289
f 1289 1379 1380
f 1289 1380 1308
f 1308 1380 1381
f 1308 1381 1414
f 1414 1381 1413
f 1413 1381 1382
f 1413 1382 1412
f 1412 1382 1439
f 1412 1439 1440
f 1291 1334 1290
f 1290 1334 1335
f 1290 1335 1336
f 1292 1331 1291
f 1291 1331 1332
f 1291 1332 1333
f 1293 1386 1292
f 1292 1386 1387
f 1292 1387 1330
f 1330 1387 1329
f 1329 1387 1388
f 1329 1388 1348
f 1348 1388 1389
f 1348 1389 1347
f 1347 1389 1437
f 1347 1437 1346
f 1346 1437 1345
f 1345 1437 1344
f 1344 1437 1343
f 1343 1437 1438
f 1343 1438 1342
f 1342 1438 1341
f 1341 1438 1340
f 1340 1438 1376
f 1340 1376 1377
f 1294 1427 1293
f 1293 1427 1428
f 1293 1428 1385
f 1385 1428 1384
f 1384 1428 1429
f 1384 1429 1383
f 1383 1429 1436
f 1383 1436 1389
f 1389 1436 1437
f 1427 1294 1426
f 1426 1294 1295
f 1426 1295 1394
f 1394 1295 1393
f 1393 1295 1296
f 1393 1296 1392
f 1392 1296 1321
f 1392 1321 1322
f 1321 1296 1320
f 1320 1296 1297
f 1320 1297 1319
f 1319 1297 1318
f 1318 1297 1317
f 1317 1297 1298
f 1317 1298 1316
f 1316 1298 1315
f 1315 1298 1314
f 1314 1298 1299
f 1314 1299 1398
f 1398 1299 1397
f 1397 1299 1403
f 1403 1299 1300
f 1403 1300 1418
f 1418 1300 1301
f 1418 1301 1424
f 1424 1301 1302
f 1424 1302 1423
f 1423 1302 1404
f 1423 1404 1405
f 1404 1302 1410
f 1410 1302 1303
f 1410 1303 1361
f 1361 1303 1360
f 1360 1303 1359
f 1359 1303 1304
f 1359 1304 1358
f 1358 1304 1357
f 1357 1304 1356
f 1356 1304 1305
f 1356 1305 1355
f 1355 1305 1354
f 1354 1305 1369
f 1354 1369 1353
f 1353 1369 1370
f 1353 1370 1352
f 1352 1370 1371
f 1352 1371 1351
f 1351 1371 1441
f 1351 1441 1350
f 1350 1441 1349
f 1349 1441 1442
f 1349 1442 1368
f 1368 1442 1367
f 1367 1442 1366
f 1366 1442 1365
f 1365 1442 1443
f 1365 1443 1364
f 1364 1443 1407
f 1364 1407 1363
f 1363 1407 1408
f 1363 1408 1362
f 1362 1408 1409
f 1362 1409 1410
f 1305 1306 1369
f 1369 1306 1375
f 1375 1306 1374
f 1374 1306 1416
f 1374 1416 1417
f 1306 1307 1416
f 1416 1307 1415
f 1415 1307 1308
f 1415 1308 1414
f 1328 1309 1433
f 1433 1309 1310
f 1433 1310 1432
f 1432 1310 1311
f 1432 1311 1400
f 1400 1311 1312
f 1400 1312 1399
f 1399 1312 1313
f 1399 1313 1398
f 1398 1313 1314
f 1392 1322 1391
f 1391 1322 1323
f 1391 1323 1390
f 1390 1323 1324
f 1390 1324 1434
f 1434 1324 1325
f 1434 1325 1326
f 1434 1326 1433
f 1433 1326 1327
f 1433 1327 1328
f 1330 1331 1292
f 1333 1334 1291
f 1336 1337 1290
f 1290 1337 1379
f 1337 1338 1379
f 1379 1338 1378
f 1378 1338 1339
f 1378 1339 1377
f 1377 1339 1340
f 1361 1362 1410
f 1371 1372 1441
f 1441 1372 1440
f 1440 1372 1373
f 1440 1373 1411
f 1411 1373 1417
f 1417 1373 1374
f 1382 1376 1439
f 1439 1376 1438
f 1385 1386 1293
f 1426 1394 1425
f 1425 1394 1395
f 1425 1395 1431
f 1431 1395 1396
f 1431 1396 1435
f 1435 1396 1434
f 1434 1396 1390
f 1400 1401 1432
f 1432 1401 1444
f 1444 1401 1420
f 1444 1420 1421
f 1401 1402 1420
f 1420 1402 1419
f 1419 1402 1403
f 1419 1403 1418
f 1423 1405 1422
f 1422 1405 1406
f 1422 1406 1443
f 1443 1406 1407
f 1411 1412 1440
f 1444 1421 1443
f 1443 1421 1422
f 1429 1430 1436
f 1436 1430 1435
f 1435 1430 1431
f 1446 1484 1445
f 1445 1484 1485
f 1486 1465 1464
f 1464 1465 1466
f 1464 1466 1467
f 1446 1447 1484
f 1484 1447 1483
f 1483 1447 1448
f 1483 1448 1482
f 1482 1448 1449
f 1482 1449 1481
f 1481 1449 1450
f 1481 1450 1480
f 1480 1450 1451
f 1480 1451 1479
f 1479 1451 1452
f 1479 1452 1478
f 1478 1452 1453
f 1478 1453 1477
f 1477 1453 1454
f 1477 1454 1476
f 1476 1454 1455
f 1476 1455 1475
f 1475 1455 1456
f 1475 1456 1474
f 1474 1456 1457
f 1474 1457 1473
f 1473 1457 1458
f 1473 1458 1472
f 1472 1458 1459
f 1472 1459 1471
f 1471 1459 1460
f 1471 1460 1470
f 1470 1460 1461
f 1470 1461 1469
f 1469 1461 1462
f 1469 1462 1468
f 1468 1462 1463
f 1468 1463 1467
f 1467 1463 1464
f 1488 1516 1487
f 1487 1516 1517
f 1487 1517 1506
f 1506 1517 1518
f 1506 1518 1505
f 1505 1518 1519
f 1505 1519 1504
f 1504 1519 1520
f 1504 1520 1503
f 1503 1520 1521
f 1503 1521 1502
f 1502 1521 1522
f 1502 1522 1501
f 1501 1522 1523
f 1501 1523 1500
f 1500 1523 1524
f 1500 1524 1499
f 1499 1524 1525
f 1499 1525 1498
f 1498 1525 1507
f 1498 1507 1497
f 1497 1507 1496
f 1496 1507 1508
f 1496 1508 1495
f 1495 1508 1509
f 1495 1509 1494
f 1494 1509 1510
f 1494 1510 1493
f 1493 1510 1511
f 1493 1511 1492
f 1492 1511 1512
f 1492 1512 1491
f 1491 1512 1513
f 1491 1513 1490
f 1490 1513 1514
f 1490 1514 1489
f 1489 1514 1515
f 1489 1515 1488
f 1488 1515 1516
f 1526 1527 1555
f 1555 1527 1556
f 1555 1556 1557
f 1556 1527 1574
f 1574 1527 1528
f 1574 1528 1573
f 1573 1528 1529
f 1573 1529 1530
f 1531 1532 1530
f 1530 1532 1572
f 1530 1572 1573
f 1572 1532 1571
f 1571 1532 1533
f 1571 1533 1570
f 1570 1533 1534
f 1570 1534 1535
f 1570 1535 1569
f 1569 1535 1536
f 1569 1536 1537
f 1569 1537 1568
f 1568 1537 1538
f 1568 1538 1567
f 1567 1538 1539
f 1567 1539 1566
f 1566 1539 1540
f 1566 1540 1565
f 1565 1540 1576
f 1575 1541 1542
f 1542 1543 1575
f 1575 1543 1564
f 1564 1543 1544
f 1564 1544 1563
f 1563 1544 1545
f 1563 1545 1546
f 1546 1547 1563
f 1563 1547 1562
f 1562 1547 1548
f 1562 1548 1561
f 1561 1548 1549
f 1561 1549 1560
f 1560 1549 1550
f 1560 1550 1559
f 1559 1550 1551
f 1559 1551 1552
f 1559 1552 1558
f 1558 1552 1553
f 1558 1553 1554
f 1558 1554 1557
f 1557 1554 1555
f 1601 1577 1588
f 1588 1577 1578
f 1588 1578 1579
f 1588 1579 1587
f 1587 1579 1580
f 1587 1580 1581
f 1581 1582 1587
f 1587 1582 1585
f 1587 1585 1586
f 1583 1584 1582
f 1582 1584 1585
f 1589 1597 1588
f 1588 1597 1598
f 1588 1598 1599
f 1590 1591 1589
f 1589 1591 1594
f 1589 1594 1595
f 1591 1592 1594
f 1594 1592 1593
f 1595 1596 1589
f 1589 1596 1597
f 1599 1600 1588
f 1588 1600 1601
f 1610 1602 1609
f 1609 1602 1603
f 1609 1603 1608
f 1608 1603 1604
f 1608 1604 1607
f 1607 1604 1605
f 1607 1605 1606
f 1611 1612 1688
f 1688 1612 1687
f 1687 1612 1718
f 1687 1718 1686
f 1686 1718 1719
f 1686 1719 1685
f 1685 1719 1699
f 1685 1699 1684
f 1684 1699 1683
f 1683 1699 1679
f 1683 1679 1682
f 1682 1679 1681
f 1681 1679 1680
f 1612 1613 1718
f 1718 1613 1717
f 1717 1613 1616
f 1717 1616 1617
f 1614 1615 1613
f 1613 1615 1616
f 1618 1694 1617
f 1617 1694 1716
f 1617 1716 1717
f 1618 1619 1694
f 1694 1619 1620
f 1694 1620 1624
f 1624 1620 1621
f 1624 1621 1622
f 1622 1623 1624
f 1694 1624 1693
f 1693 1624 1625
f 1693 1625 1692
f 1692 1625 1626
f 1692 1626 1691
f 1691 1626 1627
f 1691 1627 1690
f 1690 1627 1631
f 1690 1631 1632
f 1628 1629 1627
f 1627 1629 1630
f 1627 1630 1631
f 1632 1633 1690
f 1690 1633 1714
f 1690 1714 1715
f 1633 1634 1714
f 1714 1634 1638
f 1714 1638 1713
f 1713 1638 1639
f 1713 1639 1642
f 1642 1639 1641
f 1641 1639 1640
f 1634 1635 1638
f 1638 1635 1636
f 1638 1636 1637
f 1642 1643 1713
f 1713 1643 1712
f 1712 1643 1644
f 1712 1644 1645
f 1646 1650 1645
f 1645 1650 1705
f 1645 1705 1706
f 1646 1647 1650
f 1650 1647 1648
f 1650 1648 1649
f 1650 1651 1705
f 1705 1651 1704
f 1704 1651 1652
f 1704 1652 1703
f 1703 1652 1709
f 1709 1652 1653
f 1709 1653 1657
f 1657 1653 1656
f 1656 1653 1655
f 1655 1653 1654
f 1657 1658 1709
f 1709 1658 1710
f 1709 1710 1708
f 1708 1710 1711
f 1708 1711 1707
f 1707 1711 1712
f 1707 1712 1706
f 1706 1712 1645
f 1658 1659 1710
f 1710 1659 1660
f 1710 1660 1722
f 1722 1660 1661
f 1722 1661 1664
f 1664 1661 1662
f 1664 1662 1663
f 1664 1665 1722
f 1722 1665 1721
f 1721 1665 1669
f 1721 1669 1670
f 1666 1667 1665
f 1665 1667 1668
f 1665 1668 1669
f 1670 1671 1721
f 1721 1671 1696
f 1721 1696 1697
f 1671 1672 1696
f 1696 1672 1676
f 1696 1676 1702
f 1702 1676 1677
f 1702 1677 1701
f 1701 1677 1678
f 1701 1678 1700
f 1700 1678 1679
f 1700 1679 1699
f 1672 1673 1676
f 1676 1673 1674
f 1676 1674 1675
f 1695 1689 1715
f 1715 1689 1690
f 1694 1695 1716
f 1716 1695 1715
f 1721 1697 1720
f 1720 1697 1698
f 1720 1698 1719
f 1719 1698 1699
f 1723 1724 1730
f 1730 1724 1725
f 1730 1725 1729
f 1729 1725 1726
f 1729 1726 1728
f 1728 1726 1727
f 1732 1738 1731
f 1731 1738 1739
f 1731 1739 1737
f 1737 1739 1740
f 1737 1740 1736
f 1736 1740 1746
f 1736 1746 1735
f 1745 1741 1742
f 1745 1742 1734
f 1734 1742 1743
f 1734 1743 1733
f 1733 1743 1744
f 1733 1744 1732
f 1732 1744 1738
