v -0.2295800018 -0.225 0.03799999952
v -0.2295800018 0.225 0.03799999952
v -0.2345000076 0.225 0.03799999952
v -0.2345000076 -0.225 0.03799999952
v -0.215 -0.225 0.03257999897
v -0.215 0.225 0.03257999897
v -0.215 0.225 0.0375
v -0.215 -0.225 0.0375
v -0.2204199982 -0.225 0.01799999952
v -0.2204199982 0.225 0.01799999952
v -0.2154999924 0.225 0.01799999952
v -0.2154999924 -0.225 0.01799999952
v -0.235 0.225 0.03257999897
v -0.235 -0.225 0.03257999897
v -0.235 -0.225 0.0375
v -0.235 0.225 0.0375
v -0.2295800018 0.225 0.01799999952
v -0.2295800018 -0.225 0.01799999952
v -0.2345000076 -0.225 0.01799999952
v -0.2345000076 0.225 0.01799999952
v -0.2204199982 0.225 0.03799999952
v -0.2204199982 -0.225 0.03799999952
v -0.2154999924 -0.225 0.03799999952
v -0.2154999924 0.225 0.03799999952
v -0.235 0.225 0.01850000024
v -0.2349330139 0.225 0.01825000048
v -0.2347500038 0.225 0.0180669868
v -0.2345000076 0.225 0.01799999952
v -0.2345000076 -0.225 0.01799999952
v -0.2347500038 -0.225 0.0180669868
v -0.2349330139 -0.225 0.01825000048
v -0.235 -0.225 0.01850000024
v -0.2184393311 -0.225 0.03349999905
v -0.2211000061 -0.225 0.03083934069
v -0.2211000061 0.225 0.03083934069
v -0.2184393311 0.225 0.03349999905
v -0.225 -0.225 0.02430999994
v -0.2252099991 -0.225 0.02410000086
v -0.2252099991 0.225 0.02410000086
v -0.225 0.225 0.02430999994
v -0.2252099991 -0.225 0.02410000086
v -0.2278393364 -0.225 0.02410000086
v -0.2278393364 0.225 0.02410000086
v -0.2252099991 0.225 0.02410000086
v -0.2288999939 -0.225 0.02779000044
v -0.2286899948 -0.225 0.02799999952
v -0.2286899948 0.225 0.02799999952
v -0.2288999939 0.225 0.02779000044
v -0.2345000076 0.225 0.03799999952
v -0.2347500038 0.225 0.03793301344
v -0.2349330139 0.225 0.03775000095
v -0.235 0.225 0.0375
v -0.235 -0.225 0.0375
v -0.2349330139 -0.225 0.03775000095
v -0.2347500038 -0.225 0.03793301344
v -0.2345000076 -0.225 0.03799999952
v -0.221875 -0.225 0.03654500008
v -0.2204199982 -0.225 0.03799999952
v -0.2204199982 0.225 0.03799999952
v -0.221875 0.225 0.03654500008
v -0.215 0.225 0.02342000008
v -0.215 -0.225 0.02342000008
v -0.215 -0.225 0.01850000024
v -0.215 0.225 0.01850000024
v -0.2252099991 -0.225 0.03190000057
v -0.225 -0.225 0.0316899991
v -0.225 0.225 0.0316899991
v -0.2252099991 0.225 0.03190000057
v -0.215 0.225 0.0375
v -0.2150669861 0.225 0.03775000095
v -0.2152499962 0.225 0.03793301344
v -0.2154999924 0.225 0.03799999952
v -0.2154999924 -0.225 0.03799999952
v -0.2152499962 -0.225 0.03793301344
v -0.2150669861 -0.225 0.03775000095
v -0.215 -0.225 0.0375
v -0.2335449982 -0.225 0.03112499952
v -0.235 -0.225 0.03257999897
v -0.235 0.225 0.03257999897
v -0.2335449982 0.225 0.03112499952
v -0.228125 -0.225 0.01980000019
v -0.228125 -0.225 0.01945500016
v -0.228125 0.225 0.01945500016
v -0.228125 0.225 0.01980000019
v -0.2211000061 -0.225 0.02821000099
v -0.2213100052 -0.225 0.02799999952
v -0.2213100052 0.225 0.02799999952
v -0.2211000061 0.225 0.02821000099
v -0.2211000061 -0.225 0.03083934069
v -0.2211000061 -0.225 0.02821000099
v -0.2211000061 0.225 0.02821000099
v -0.2211000061 0.225 0.03083934069
v -0.2164550018 -0.225 0.02487499952
v -0.215 -0.225 0.02342000008
v -0.215 0.225 0.02342000008
v -0.2164550018 0.225 0.02487499952
v -0.2288999939 -0.225 0.03083934069
v -0.2315606689 -0.225 0.03349999905
v -0.2315606689 0.225 0.03349999905
v -0.2288999939 0.225 0.03083934069
v -0.2213100052 -0.225 0.02799999952
v -0.2211000061 -0.225 0.02779000044
v -0.2211000061 0.225 0.02779000044
v -0.2213100052 0.225 0.02799999952
v -0.2304999924 -0.225 0.02143934011
v -0.2304999924 -0.225 0.01980000019
v -0.2304999924 0.225 0.01980000019
v -0.2304999924 0.225 0.02143934011
v -0.2195000076 -0.225 0.03619999886
v -0.221875 -0.225 0.03619999886
v -0.221875 0.225 0.03619999886
v -0.2195000076 0.225 0.03619999886
v -0.2286899948 -0.225 0.02799999952
v -0.2288999939 -0.225 0.02821000099
v -0.2288999939 0.225 0.02821000099
v -0.2286899948 0.225 0.02799999952
v -0.2288999939 -0.225 0.02821000099
v -0.2288999939 -0.225 0.03083934069
v -0.2288999939 0.225 0.03083934069
v -0.2288999939 0.225 0.02821000099
v -0.2304999924 -0.225 0.01980000019
v -0.228125 -0.225 0.01980000019
v -0.228125 0.225 0.01980000019
v -0.2304999924 0.225 0.01980000019
v -0.228125 -0.225 0.01945500016
v -0.2295800018 -0.225 0.01799999952
v -0.2295800018 0.225 0.01799999952
v -0.228125 0.225 0.01945500016
v -0.225 -0.225 0.0316899991
v -0.2247900009 -0.225 0.03190000057
v -0.2247900009 0.225 0.03190000057
v -0.225 0.225 0.0316899991
v -0.221875 -0.225 0.03619999886
v -0.221875 -0.225 0.03654500008
v -0.221875 0.225 0.03654500008
v -0.221875 0.225 0.03619999886
v -0.2278393364 -0.225 0.02410000086
v -0.2304999924 -0.225 0.02143934011
v -0.2304999924 0.225 0.02143934011
v -0.2278393364 0.225 0.02410000086
v -0.2221606636 -0.225 0.03190000057
v -0.2195000076 -0.225 0.03456066132
v -0.2195000076 0.225 0.03456066132
v -0.2221606636 0.225 0.03190000057
v -0.2331999969 -0.225 0.03112499952
v -0.2335449982 -0.225 0.03112499952
v -0.2335449982 0.225 0.03112499952
v -0.2331999969 0.225 0.03112499952
v -0.2247900009 -0.225 0.03190000057
v -0.2221606636 -0.225 0.03190000057
v -0.2221606636 0.225 0.03190000057
v -0.2247900009 0.225 0.03190000057
v -0.2168000031 -0.225 0.02487499952
v -0.2164550018 -0.225 0.02487499952
v -0.2164550018 0.225 0.02487499952
v -0.2168000031 0.225 0.02487499952
v -0.2195000076 -0.225 0.03456066132
v -0.2195000076 -0.225 0.03619999886
v -0.2195000076 0.225 0.03619999886
v -0.2195000076 0.225 0.03456066132
v -0.2168000031 -0.225 0.0225
v -0.2168000031 -0.225 0.02487499952
v -0.2168000031 0.225 0.02487499952
v -0.2168000031 0.225 0.0225
v -0.2331999969 -0.225 0.03349999905
v -0.2331999969 -0.225 0.03112499952
v -0.2331999969 0.225 0.03112499952
v -0.2331999969 0.225 0.03349999905
v -0.2211000061 -0.225 0.02779000044
v -0.2211000061 -0.225 0.02516066074
v -0.2211000061 0.225 0.02516066074
v -0.2211000061 0.225 0.02779000044
v -0.2211000061 -0.225 0.02516066074
v -0.2184393311 -0.225 0.0225
v -0.2184393311 0.225 0.0225
v -0.2211000061 0.225 0.02516066074
v -0.2184393311 -0.225 0.0225
v -0.2168000031 -0.225 0.0225
v -0.2168000031 0.225 0.0225
v -0.2184393311 0.225 0.0225
v -0.2315606689 -0.225 0.03349999905
v -0.2331999969 -0.225 0.03349999905
v -0.2331999969 0.225 0.03349999905
v -0.2315606689 0.225 0.03349999905
v -0.2154999924 0.225 0.01799999952
v -0.2152499962 0.225 0.0180669868
v -0.2150669861 0.225 0.01825000048
v -0.215 0.225 0.01850000024
v -0.215 -0.225 0.01850000024
v -0.2150669861 -0.225 0.01825000048
v -0.2152499962 -0.225 0.0180669868
v -0.2154999924 -0.225 0.01799999952
v -0.228125 0.225 0.01945500016
v -0.2295800018 0.225 0.01799999952
v -0.2345000076 0.225 0.01799999952
v -0.2347500038 0.225 0.0180669868
v -0.2349330139 0.225 0.01825000048
v -0.235 0.225 0.01850000024
v -0.235 0.225 0.02342000008
v -0.2335449982 0.225 0.02487499952
v -0.2331999969 0.225 0.02487499952
v -0.2331999969 0.225 0.0225
v -0.2315606689 0.225 0.0225
v -0.2288999939 0.225 0.02516066074
v -0.2288999939 0.225 0.02779000044
v -0.2286899948 0.225 0.02799999952
v -0.2288999939 0.225 0.02821000099
v -0.2288999939 0.225 0.03083934069
v -0.2315606689 0.225 0.03349999905
v -0.2331999969 0.225 0.03349999905
v -0.2331999969 0.225 0.03112499952
v -0.2335449982 0.225 0.03112499952
v -0.235 0.225 0.03257999897
v -0.235 0.225 0.0375
v -0.2349330139 0.225 0.03775000095
v -0.2347500038 0.225 0.03793301344
v -0.2345000076 0.225 0.03799999952
v -0.2295800018 0.225 0.03799999952
v -0.228125 0.225 0.03654500008
v -0.228125 0.225 0.03619999886
v -0.2304999924 0.225 0.03619999886
v -0.2304999924 0.225 0.03456066132
v -0.2278393364 0.225 0.03190000057
v -0.2252099991 0.225 0.03190000057
v -0.225 0.225 0.0316899991
v -0.2247900009 0.225 0.03190000057
v -0.2221606636 0.225 0.03190000057
v -0.2195000076 0.225 0.03456066132
v -0.2195000076 0.225 0.03619999886
v -0.221875 0.225 0.03619999886
v -0.221875 0.225 0.03654500008
v -0.2204199982 0.225 0.03799999952
v -0.2154999924 0.225 0.03799999952
v -0.2152499962 0.225 0.03793301344
v -0.2150669861 0.225 0.03775000095
v -0.215 0.225 0.0375
v -0.215 0.225 0.03257999897
v -0.2164550018 0.225 0.03112499952
v -0.2168000031 0.225 0.03112499952
v -0.2168000031 0.225 0.03349999905
v -0.2184393311 0.225 0.03349999905
v -0.2211000061 0.225 0.03083934069
v -0.2211000061 0.225 0.02821000099
v -0.2213100052 0.225 0.02799999952
v -0.2211000061 0.225 0.02779000044
v -0.2211000061 0.225 0.02516066074
v -0.2184393311 0.225 0.0225
v -0.2168000031 0.225 0.0225
v -0.2168000031 0.225 0.02487499952
v -0.2164550018 0.225 0.02487499952
v -0.215 0.225 0.02342000008
v -0.215 0.225 0.01850000024
v -0.2150669861 0.225 0.01825000048
v -0.2152499962 0.225 0.0180669868
v -0.2154999924 0.225 0.01799999952
v -0.2204199982 0.225 0.01799999952
v -0.221875 0.225 0.01945500016
v -0.221875 0.225 0.01980000019
v -0.2195000076 0.225 0.01980000019
v -0.2195000076 0.225 0.02143934011
v -0.2221606636 0.225 0.02410000086
v -0.2247900009 0.225 0.02410000086
v -0.225 0.225 0.02430999994
v -0.2252099991 0.225 0.02410000086
v -0.2278393364 0.225 0.02410000086
v -0.2304999924 0.225 0.02143934011
v -0.2304999924 0.225 0.01980000019
v -0.228125 0.225 0.01980000019
v -0.2270999908 0.225 0.02799999952
v -0.2263093376 0.225 0.02635815382
v -0.2245326996 0.225 0.0259526515
v -0.2231079674 0.225 0.02708884478
v -0.2231079674 0.225 0.02891115665
v -0.2245326996 0.225 0.03004734755
v -0.2263093376 0.225 0.02964184523
v -0.235 -0.225 0.02342000008
v -0.235 0.225 0.02342000008
v -0.235 0.225 0.01850000024
v -0.235 -0.225 0.01850000024
v -0.2270999908 -0.225 0.02799999952
v -0.2263093376 -0.225 0.02964184523
v -0.2245326996 -0.225 0.03004734755
v -0.2231079674 -0.225 0.02891115665
v -0.2231079674 -0.225 0.02708884478
v -0.2245326996 -0.225 0.0259526515
v -0.2263093376 -0.225 0.02635815382
v -0.2295800018 -0.225 0.01799999952
v -0.228125 -0.225 0.01945500016
v -0.228125 -0.225 0.01980000019
v -0.2304999924 -0.225 0.01980000019
v -0.2304999924 -0.225 0.02143934011
v -0.2278393364 -0.225 0.02410000086
v -0.2252099991 -0.225 0.02410000086
v -0.225 -0.225 0.02430999994
v -0.2247900009 -0.225 0.02410000086
v -0.2221606636 -0.225 0.02410000086
v -0.2195000076 -0.225 0.02143934011
v -0.2195000076 -0.225 0.01980000019
v -0.221875 -0.225 0.01980000019
v -0.221875 -0.225 0.01945500016
v -0.2204199982 -0.225 0.01799999952
v -0.2154999924 -0.225 0.01799999952
v -0.2152499962 -0.225 0.0180669868
v -0.2150669861 -0.225 0.01825000048
v -0.215 -0.225 0.01850000024
v -0.215 -0.225 0.02342000008
v -0.2164550018 -0.225 0.02487499952
v -0.2168000031 -0.225 0.02487499952
v -0.2168000031 -0.225 0.0225
v -0.2184393311 -0.225 0.0225
v -0.2211000061 -0.225 0.02516066074
v -0.2211000061 -0.225 0.02779000044
v -0.2213100052 -0.225 0.02799999952
v -0.2211000061 -0.225 0.02821000099
v -0.2211000061 -0.225 0.03083934069
v -0.2184393311 -0.225 0.03349999905
v -0.2168000031 -0.225 0.03349999905
v -0.2168000031 -0.225 0.03112499952
v -0.2164550018 -0.225 0.03112499952
v -0.215 -0.225 0.03257999897
v -0.215 -0.225 0.0375
v -0.2150669861 -0.225 0.03775000095
v -0.2152499962 -0.225 0.03793301344
v -0.2154999924 -0.225 0.03799999952
v -0.2204199982 -0.225 0.03799999952
v -0.221875 -0.225 0.03654500008
v -0.221875 -0.225 0.03619999886
v -0.2195000076 -0.225 0.03619999886
v -0.2195000076 -0.225 0.03456066132
v -0.2221606636 -0.225 0.03190000057
v -0.2247900009 -0.225 0.03190000057
v -0.225 -0.225 0.0316899991
v -0.2252099991 -0.225 0.03190000057
v -0.2278393364 -0.225 0.03190000057
v -0.2304999924 -0.225 0.03456066132
v -0.2304999924 -0.225 0.03619999886
v -0.228125 -0.225 0.03619999886
v -0.228125 -0.225 0.03654500008
v -0.2295800018 -0.225 0.03799999952
v -0.2345000076 -0.225 0.03799999952
v -0.2347500038 -0.225 0.03793301344
v -0.2349330139 -0.225 0.03775000095
v -0.235 -0.225 0.0375
v -0.235 -0.225 0.03257999897
v -0.2335449982 -0.225 0.03112499952
v -0.2331999969 -0.225 0.03112499952
v -0.2331999969 -0.225 0.03349999905
v -0.2315606689 -0.225 0.03349999905
v -0.2288999939 -0.225 0.03083934069
v -0.2288999939 -0.225 0.02821000099
v -0.2286899948 -0.225 0.02799999952
v -0.2288999939 -0.225 0.02779000044
v -0.2288999939 -0.225 0.02516066074
v -0.2315606689 -0.225 0.0225
v -0.2331999969 -0.225 0.0225
v -0.2331999969 -0.225 0.02487499952
v -0.2335449982 -0.225 0.02487499952
v -0.235 -0.225 0.02342000008
v -0.235 -0.225 0.01850000024
v -0.2349330139 -0.225 0.01825000048
v -0.2347500038 -0.225 0.0180669868
v -0.2345000076 -0.225 0.01799999952
v -0.2331999969 -0.225 0.0225
v -0.2315606689 -0.225 0.0225
v -0.2315606689 0.225 0.0225
v -0.2331999969 0.225 0.0225
v -0.2278393364 -0.225 0.03190000057
v -0.2252099991 -0.225 0.03190000057
v -0.2252099991 0.225 0.03190000057
v -0.2278393364 0.225 0.03190000057
v -0.2304999924 -0.225 0.03456066132
v -0.2278393364 -0.225 0.03190000057
v -0.2278393364 0.225 0.03190000057
v -0.2304999924 0.225 0.03456066132
v -0.2164550018 -0.225 0.03112499952
v -0.2168000031 -0.225 0.03112499952
v -0.2168000031 0.225 0.03112499952
v -0.2164550018 0.225 0.03112499952
v -0.2221606636 -0.225 0.02410000086
v -0.2247900009 -0.225 0.02410000086
v -0.2247900009 0.225 0.02410000086
v -0.2221606636 0.225 0.02410000086
v -0.2195000076 -0.225 0.02143934011
v -0.2221606636 -0.225 0.02410000086
v -0.2221606636 0.225 0.02410000086
v -0.2195000076 0.225 0.02143934011
v -0.2288999939 -0.225 0.02516066074
v -0.2288999939 -0.225 0.02779000044
v -0.2288999939 0.225 0.02779000044
v -0.2288999939 0.225 0.02516066074
v -0.228125 -0.225 0.03619999886
v -0.2304999924 -0.225 0.03619999886
v -0.2304999924 0.225 0.03619999886
v -0.228125 0.225 0.03619999886
v -0.2331999969 -0.225 0.02487499952
v -0.2331999969 -0.225 0.0225
v -0.2331999969 0.225 0.0225
v -0.2331999969 0.225 0.02487499952
v -0.215 -0.225 0.03257999897
v -0.2164550018 -0.225 0.03112499952
v -0.2164550018 0.225 0.03112499952
v -0.215 0.225 0.03257999897
v -0.2168000031 -0.225 0.03349999905
v -0.2184393311 -0.225 0.03349999905
v -0.2184393311 0.225 0.03349999905
v -0.2168000031 0.225 0.03349999905
v -0.2168000031 -0.225 0.03112499952
v -0.2168000031 -0.225 0.03349999905
v -0.2168000031 0.225 0.03349999905
v -0.2168000031 0.225 0.03112499952
v -0.2247900009 -0.225 0.02410000086
v -0.225 -0.225 0.02430999994
v -0.225 0.225 0.02430999994
v -0.2247900009 0.225 0.02410000086
v -0.2315606689 -0.225 0.0225
v -0.2288999939 -0.225 0.02516066074
v -0.2288999939 0.225 0.02516066074
v -0.2315606689 0.225 0.0225
v -0.2195000076 -0.225 0.01980000019
v -0.2195000076 -0.225 0.02143934011
v -0.2195000076 0.225 0.02143934011
v -0.2195000076 0.225 0.01980000019
v -0.228125 -0.225 0.03654500008
v -0.228125 -0.225 0.03619999886
v -0.228125 0.225 0.03619999886
v -0.228125 0.225 0.03654500008
v -0.2335449982 -0.225 0.02487499952
v -0.2331999969 -0.225 0.02487499952
v -0.2331999969 0.225 0.02487499952
v -0.2335449982 0.225 0.02487499952
v -0.2270999908 0.225 0.02799999952
v -0.2263093376 0.225 0.02964184523
v -0.2245326996 0.225 0.03004734755
v -0.2231079674 0.225 0.02891115665
v -0.2231079674 0.225 0.02708884478
v -0.2245326996 0.225 0.0259526515
v -0.2263093376 0.225 0.02635815382
v -0.2270999908 -0.225 0.02799999952
v -0.2263093376 -0.225 0.02635815382
v -0.2245326996 -0.225 0.0259526515
v -0.2231079674 -0.225 0.02708884478
v -0.2231079674 -0.225 0.02891115665
v -0.2245326996 -0.225 0.03004734755
v -0.2263093376 -0.225 0.02964184523
v -0.2270999908 0.225 0.02799999952
v -0.2270999908 -0.225 0.02799999952
v -0.221875 -0.225 0.01980000019
v -0.2195000076 -0.225 0.01980000019
v -0.2195000076 0.225 0.01980000019
v -0.221875 0.225 0.01980000019
v -0.2295800018 -0.225 0.03799999952
v -0.228125 -0.225 0.03654500008
v -0.228125 0.225 0.03654500008
v -0.2295800018 0.225 0.03799999952
v -0.235 -0.225 0.02342000008
v -0.2335449982 -0.225 0.02487499952
v -0.2335449982 0.225 0.02487499952
v -0.235 0.225 0.02342000008
v -0.221875 -0.225 0.01945500016
v -0.221875 -0.225 0.01980000019
v -0.221875 0.225 0.01980000019
v -0.221875 0.225 0.01945500016
v -0.2304999924 -0.225 0.03619999886
v -0.2304999924 -0.225 0.03456066132
v -0.2304999924 0.225 0.03456066132
v -0.2304999924 0.225 0.03619999886
v -0.2204199982 -0.225 0.01799999952
v -0.221875 -0.225 0.01945500016
v -0.221875 0.225 0.01945500016
v -0.2204199982 0.225 0.01799999952
f 2 3 1
f 1 3 4
f 6 7 5
f 5 7 8
f 10 11 9
f 9 11 12
f 14 15 13
f 13 15 16
f 18 19 17
f 17 19 20
f 22 23 21
f 21 23 24
f 32 25 31
f 31 25 26
f 31 26 30
f 30 26 27
f 30 27 29
f 29 27 28
f 33 34 36
f 36 34 35
f 37 38 40
f 40 38 39
f 41 42 44
f 44 42 43
f 45 46 48
f 48 46 47
f 56 49 55
f 55 49 50
f 55 50 54
f 54 50 51
f 54 51 53
f 53 51 52
f 57 58 60
f 60 58 59
f 62 63 61
f 61 63 64
f 65 66 68
f 68 66 67
f 76 69 75
f 75 69 70
f 75 70 74
f 74 70 71
f 74 71 73
f 73 71 72
f 77 78 80
f 80 78 79
f 81 82 84
f 84 82 83
f 85 86 88
f 88 86 87
f 89 90 92
f 92 90 91
f 93 94 96
f 96 94 95
f 97 98 100
f 100 98 99
f 101 102 104
f 104 102 103
f 105 106 108
f 108 106 107
f 109 110 112
f 112 110 111
f 113 114 116
f 116 114 115
f 117 118 120
f 120 118 119
f 121 122 124
f 124 122 123
f 125 126 128
f 128 126 127
f 129 130 132
f 132 130 131
f 133 134 136
f 136 134 135
f 137 138 140
f 140 138 139
f 141 142 144
f 144 142 143
f 145 146 148
f 148 146 147
f 149 150 152
f 152 150 151
f 153 154 156
f 156 154 155
f 157 158 160
f 160 158 159
f 161 162 164
f 164 162 163
f 165 166 168
f 168 166 167
f 169 170 172
f 172 170 171
f 173 174 176
f 176 174 175
f 177 178 180
f 180 178 179
f 181 182 184
f 184 182 183
f 192 185 191
f 191 185 186
f 191 186 190
f 190 186 187
f 190 187 189
f 189 187 188
f 268 193 267
f 267 193 194
f 267 194 195
f 196 197 195
f 195 197 198
f 195 198 267
f 267 198 202
f 267 202 266
f 266 202 203
f 266 203 265
f 265 203 204
f 265 204 270
f 270 204 269
f 269 204 205
f 269 205 206
f 198 199 202
f 202 199 200
f 202 200 201
f 206 207 269
f 269 207 208
f 269 208 275
f 275 208 223
f 275 223 224
f 208 209 223
f 223 209 222
f 222 209 210
f 222 210 221
f 221 210 214
f 221 214 217
f 217 214 216
f 216 214 215
f 211 212 210
f 210 212 213
f 210 213 214
f 217 218 221
f 221 218 219
f 221 219 220
f 224 225 275
f 275 225 274
f 274 225 226
f 274 226 227
f 228 241 227
f 227 241 242
f 227 242 273
f 273 242 243
f 273 243 244
f 241 228 236
f 236 228 229
f 236 229 233
f 233 229 232
f 232 229 231
f 231 229 230
f 233 234 236
f 236 234 235
f 241 236 240
f 240 236 237
f 240 237 238
f 238 239 240
f 273 244 272
f 272 244 245
f 272 245 246
f 272 246 261
f 261 246 247
f 261 247 260
f 260 247 248
f 260 248 259
f 259 248 252
f 259 252 255
f 255 252 253
f 255 253 254
f 249 250 248
f 248 250 251
f 248 251 252
f 255 256 259
f 259 256 257
f 259 257 258
f 272 261 271
f 271 261 262
f 271 262 263
f 271 263 270
f 270 263 264
f 270 264 265
f 273 274 227
f 277 278 276
f 276 278 279
f 281 349 280
f 280 349 350
f 280 350 351
f 282 332 281
f 281 332 333
f 281 333 334
f 283 330 282
f 282 330 331
f 282 331 332
f 284 313 283
f 283 313 314
f 283 314 315
f 285 296 284
f 284 296 311
f 284 311 312
f 286 294 285
f 285 294 295
f 285 295 296
f 280 353 286
f 286 353 292
f 286 292 293
f 362 287 290
f 290 287 288
f 290 288 289
f 291 355 290
f 290 355 359
f 290 359 362
f 362 359 360
f 362 360 361
f 355 291 354
f 354 291 292
f 354 292 353
f 293 294 286
f 311 296 310
f 310 296 297
f 310 297 309
f 309 297 298
f 309 298 305
f 305 298 302
f 305 302 304
f 304 302 303
f 299 300 298
f 298 300 301
f 298 301 302
f 305 306 309
f 309 306 307
f 309 307 308
f 312 313 284
f 283 315 330
f 330 315 316
f 330 316 329
f 329 316 317
f 329 317 328
f 328 317 321
f 328 321 324
f 324 321 323
f 323 321 322
f 318 319 317
f 317 319 320
f 317 320 321
f 324 325 328
f 328 325 326
f 328 326 327
f 335 348 334
f 334 348 349
f 334 349 281
f 348 335 343
f 343 335 336
f 343 336 340
f 340 336 339
f 339 336 338
f 338 336 337
f 340 341 343
f 343 341 342
f 348 343 347
f 347 343 344
f 347 344 345
f 345 346 347
f 351 352 280
f 280 352 353
f 356 357 355
f 355 357 358
f 355 358 359
f 363 364 366
f 366 364 365
f 367 368 370
f 370 368 369
f 371 372 374
f 374 372 373
f 375 376 378
f 378 376 377
f 379 380 382
f 382 380 381
f 383 384 386
f 386 384 385
f 387 388 390
f 390 388 389
f 391 392 394
f 394 392 393
f 395 396 398
f 398 396 397
f 399 400 402
f 402 400 401
f 403 404 406
f 406 404 405
f 407 408 410
f 410 408 409
f 411 412 414
f 414 412 413
f 415 416 418
f 418 416 417
f 419 420 422
f 422 420 421
f 423 424 426
f 426 424 425
f 427 428 430
f 430 428 429
f 432 444 431
f 431 444 446
f 445 438 437
f 437 438 439
f 437 439 436
f 436 439 440
f 436 440 435
f 435 440 441
f 435 441 434
f 434 441 442
f 434 442 433
f 433 442 443
f 433 443 432
f 432 443 444
f 447 448 450
f 450 448 449
f 451 452 454
f 454 452 453
f 455 456 458
f 458 456 457
f 459 460 462
f 462 460 461
f 463 464 466
f 466 464 465
f 467 468 470
f 470 468 469
