v -0.2129999924 0.2188999939 0.03083934069
v -0.2129999924 0.2215606689 0.03349999905
v 0.2129999924 0.2215606689 0.03349999905
v 0.2129999924 0.2188999939 0.03083934069
v -0.2129999924 0.2111000061 0.03083934069
v -0.2129999924 0.2111000061 0.02821000099
v 0.2129999924 0.2111000061 0.02821000099
v 0.2129999924 0.2111000061 0.03083934069
v -0.2129999924 0.2121606636 0.02410000086
v -0.2129999924 0.2147900009 0.02410000086
v 0.2129999924 0.2147900009 0.02410000086
v 0.2129999924 0.2121606636 0.02410000086
v 0.2129999924 0.2054999924 0.01799999952
v 0.2129999924 0.2052499962 0.0180669868
v 0.2129999924 0.2050669861 0.01825000048
v 0.2129999924 0.205 0.01850000024
v -0.2129999924 0.205 0.01850000024
v -0.2129999924 0.2050669861 0.01825000048
v -0.2129999924 0.2052499962 0.0180669868
v -0.2129999924 0.2054999924 0.01799999952
v 0.2129999924 0.225 0.01850000024
v 0.2129999924 0.2249330139 0.01825000048
v 0.2129999924 0.2247500038 0.0180669868
v 0.2129999924 0.2245000076 0.01799999952
v -0.2129999924 0.2245000076 0.01799999952
v -0.2129999924 0.2247500038 0.0180669868
v -0.2129999924 0.2249330139 0.01825000048
v -0.2129999924 0.225 0.01850000024
v -0.2129999924 0.2084393311 0.0225
v -0.2129999924 0.2068000031 0.0225
v 0.2129999924 0.2068000031 0.0225
v 0.2129999924 0.2084393311 0.0225
v -0.2129999924 0.2068000031 0.0225
v -0.2129999924 0.2068000031 0.02487499952
v 0.2129999924 0.2068000031 0.02487499952
v 0.2129999924 0.2068000031 0.0225
v -0.2129999924 0.2188999939 0.02821000099
v -0.2129999924 0.2188999939 0.03083934069
v 0.2129999924 0.2188999939 0.03083934069
v 0.2129999924 0.2188999939 0.02821000099
v 0.2129999924 0.2195800018 0.01799999952
v -0.2129999924 0.2195800018 0.01799999952
v -0.2129999924 0.2245000076 0.01799999952
v 0.2129999924 0.2245000076 0.01799999952
v -0.2129999924 0.2231999969 0.03349999905
v -0.2129999924 0.2231999969 0.03112499952
v 0.2129999924 0.2231999969 0.03112499952
v 0.2129999924 0.2231999969 0.03349999905
v 0.2129999924 0.2104199982 0.03799999952
v -0.2129999924 0.2104199982 0.03799999952
v -0.2129999924 0.2054999924 0.03799999952
v 0.2129999924 0.2054999924 0.03799999952
v 0.2129999924 0.205 0.0375
v 0.2129999924 0.2050669861 0.03775000095
v 0.2129999924 0.2052499962 0.03793301344
v 0.2129999924 0.2054999924 0.03799999952
v -0.2129999924 0.2054999924 0.03799999952
v -0.2129999924 0.2052499962 0.03793301344
v -0.2129999924 0.2050669861 0.03775000095
v -0.2129999924 0.205 0.0375
v -0.2129999924 0.2215606689 0.0225
v -0.2129999924 0.2188999939 0.02516066074
v 0.2129999924 0.2188999939 0.02516066074
v 0.2129999924 0.2215606689 0.0225
v -0.2129999924 0.215 0.0316899991
v -0.2129999924 0.2147900009 0.03190000057
v 0.2129999924 0.2147900009 0.03190000057
v 0.2129999924 0.215 0.0316899991
v -0.2129999924 0.205 0.03257999897
v 0.2129999924 0.205 0.03257999897
v 0.2129999924 0.205 0.0375
v -0.2129999924 0.205 0.0375
v 0.2129999924 0.211875 0.03654500008
v 0.2129999924 0.2104199982 0.03799999952
v 0.2129999924 0.2054999924 0.03799999952
v 0.2129999924 0.2052499962 0.03793301344
v 0.2129999924 0.2050669861 0.03775000095
v 0.2129999924 0.205 0.0375
v 0.2129999924 0.205 0.03257999897
v 0.2129999924 0.2064550018 0.03112499952
v 0.2129999924 0.2068000031 0.03112499952
v 0.2129999924 0.2068000031 0.03349999905
v 0.2129999924 0.2084393311 0.03349999905
v 0.2129999924 0.2111000061 0.03083934069
v 0.2129999924 0.2111000061 0.02821000099
v 0.2129999924 0.2113100052 0.02799999952
v 0.2129999924 0.2111000061 0.02779000044
v 0.2129999924 0.2111000061 0.02516066074
v 0.2129999924 0.2084393311 0.0225
v 0.2129999924 0.2068000031 0.0225
v 0.2129999924 0.2068000031 0.02487499952
v 0.2129999924 0.2064550018 0.02487499952
v 0.2129999924 0.205 0.02342000008
v 0.2129999924 0.205 0.01850000024
v 0.2129999924 0.2050669861 0.01825000048
v 0.2129999924 0.2052499962 0.0180669868
v 0.2129999924 0.2054999924 0.01799999952
v 0.2129999924 0.2104199982 0.01799999952
v 0.2129999924 0.211875 0.01945500016
v 0.2129999924 0.211875 0.01980000019
v 0.2129999924 0.2095000076 0.01980000019
v 0.2129999924 0.2095000076 0.02143934011
v 0.2129999924 0.2121606636 0.02410000086
v 0.2129999924 0.2147900009 0.02410000086
v 0.2129999924 0.215 0.02430999994
v 0.2129999924 0.2152099991 0.02410000086
v 0.2129999924 0.2178393364 0.02410000086
v 0.2129999924 0.2204999924 0.02143934011
v 0.2129999924 0.2204999924 0.01980000019
v 0.2129999924 0.218125 0.01980000019
v 0.2129999924 0.218125 0.01945500016
v 0.2129999924 0.2195800018 0.01799999952
v 0.2129999924 0.2245000076 0.01799999952
v 0.2129999924 0.2247500038 0.0180669868
v 0.2129999924 0.2249330139 0.01825000048
v 0.2129999924 0.225 0.01850000024
v 0.2129999924 0.225 0.02342000008
v 0.2129999924 0.2235449982 0.02487499952
v 0.2129999924 0.2231999969 0.02487499952
v 0.2129999924 0.2231999969 0.0225
v 0.2129999924 0.2215606689 0.0225
v 0.2129999924 0.2188999939 0.02516066074
v 0.2129999924 0.2188999939 0.02779000044
v 0.2129999924 0.2186899948 0.02799999952
v 0.2129999924 0.2188999939 0.02821000099
v 0.2129999924 0.2188999939 0.03083934069
v 0.2129999924 0.2215606689 0.03349999905
v 0.2129999924 0.2231999969 0.03349999905
v 0.2129999924 0.2231999969 0.03112499952
v 0.2129999924 0.2235449982 0.03112499952
v 0.2129999924 0.225 0.03257999897
v 0.2129999924 0.225 0.0375
v 0.2129999924 0.2249330139 0.03775000095
v 0.2129999924 0.2247500038 0.03793301344
v 0.2129999924 0.2245000076 0.03799999952
v 0.2129999924 0.2195800018 0.03799999952
v 0.2129999924 0.218125 0.03654500008
v 0.2129999924 0.218125 0.03619999886
v 0.2129999924 0.2204999924 0.03619999886
v 0.2129999924 0.2204999924 0.03456066132
v 0.2129999924 0.2178393364 0.03190000057
v 0.2129999924 0.2152099991 0.03190000057
v 0.2129999924 0.215 0.0316899991
v 0.2129999924 0.2147900009 0.03190000057
v 0.2129999924 0.2121606636 0.03190000057
v 0.2129999924 0.2095000076 0.03456066132
v 0.2129999924 0.2095000076 0.03619999886
v 0.2129999924 0.211875 0.03619999886
v 0.2129999924 0.2129000092 0.02799999952
v 0.2129999924 0.2136906624 0.02964184523
v 0.2129999924 0.2154673004 0.03004734755
v 0.2129999924 0.2168920326 0.02891115665
v 0.2129999924 0.2168920326 0.02708884478
v 0.2129999924 0.2154673004 0.0259526515
v 0.2129999924 0.2136906624 0.02635815382
v -0.2129999924 0.2064550018 0.02487499952
v -0.2129999924 0.205 0.02342000008
v 0.2129999924 0.205 0.02342000008
v 0.2129999924 0.2064550018 0.02487499952
v -0.2129999924 0.2204999924 0.02143934011
v -0.2129999924 0.2204999924 0.01980000019
v 0.2129999924 0.2204999924 0.01980000019
v 0.2129999924 0.2204999924 0.02143934011
v -0.2129999924 0.215 0.02430999994
v -0.2129999924 0.2152099991 0.02410000086
v 0.2129999924 0.2152099991 0.02410000086
v 0.2129999924 0.215 0.02430999994
v -0.2129999924 0.2111000061 0.02516066074
v -0.2129999924 0.2084393311 0.0225
v 0.2129999924 0.2084393311 0.0225
v 0.2129999924 0.2111000061 0.02516066074
v -0.2129999924 0.2111000061 0.02779000044
v -0.2129999924 0.2111000061 0.02516066074
v 0.2129999924 0.2111000061 0.02516066074
v 0.2129999924 0.2111000061 0.02779000044
v -0.2129999924 0.2178393364 0.02410000086
v -0.2129999924 0.2204999924 0.02143934011
v 0.2129999924 0.2204999924 0.02143934011
v 0.2129999924 0.2178393364 0.02410000086
v -0.2129999924 0.2188999939 0.02779000044
v -0.2129999924 0.2186899948 0.02799999952
v 0.2129999924 0.2186899948 0.02799999952
v 0.2129999924 0.2188999939 0.02779000044
v -0.2129999924 0.2095000076 0.03456066132
v -0.2129999924 0.2095000076 0.03619999886
v 0.2129999924 0.2095000076 0.03619999886
v 0.2129999924 0.2095000076 0.03456066132
v -0.2129999924 0.2204999924 0.01980000019
v -0.2129999924 0.218125 0.01980000019
v 0.2129999924 0.218125 0.01980000019
v 0.2129999924 0.2204999924 0.01980000019
v -0.2129999924 0.2095000076 0.03619999886
v -0.2129999924 0.211875 0.03619999886
v 0.2129999924 0.211875 0.03619999886
v 0.2129999924 0.2095000076 0.03619999886
v -0.2129999924 0.2235449982 0.03112499952
v -0.2129999924 0.225 0.03257999897
v 0.2129999924 0.225 0.03257999897
v 0.2129999924 0.2235449982 0.03112499952
v -0.2129999924 0.211875 0.03619999886
v -0.2129999924 0.211875 0.03654500008
v 0.2129999924 0.211875 0.03654500008
v 0.2129999924 0.211875 0.03619999886
v -0.2129999924 0.2186899948 0.02799999952
v -0.2129999924 0.2188999939 0.02821000099
v 0.2129999924 0.2188999939 0.02821000099
v 0.2129999924 0.2186899948 0.02799999952
v -0.2129999924 0.2068000031 0.02487499952
v -0.2129999924 0.2064550018 0.02487499952
v 0.2129999924 0.2064550018 0.02487499952
v 0.2129999924 0.2068000031 0.02487499952
v -0.2129999924 0.2121606636 0.03190000057
v -0.2129999924 0.2095000076 0.03456066132
v 0.2129999924 0.2095000076 0.03456066132
v 0.2129999924 0.2121606636 0.03190000057
v -0.2129999924 0.218125 0.01980000019
v -0.2129999924 0.218125 0.01945500016
v 0.2129999924 0.218125 0.01945500016
v 0.2129999924 0.218125 0.01980000019
v -0.2129999924 0.2113100052 0.02799999952
v -0.2129999924 0.2111000061 0.02779000044
v 0.2129999924 0.2111000061 0.02779000044
v 0.2129999924 0.2113100052 0.02799999952
v -0.2129999924 0.2152099991 0.02410000086
v -0.2129999924 0.2178393364 0.02410000086
v 0.2129999924 0.2178393364 0.02410000086
v 0.2129999924 0.2152099991 0.02410000086
v -0.2129999924 0.2231999969 0.03112499952
v -0.2129999924 0.2235449982 0.03112499952
v 0.2129999924 0.2235449982 0.03112499952
v 0.2129999924 0.2231999969 0.03112499952
v -0.2129999924 0.2129000092 0.02799999952
v -0.2129999924 0.2136906624 0.02635815382
v -0.2129999924 0.2154673004 0.0259526515
v -0.2129999924 0.2168920326 0.02708884478
v -0.2129999924 0.2168920326 0.02891115665
v -0.2129999924 0.2154673004 0.03004734755
v -0.2129999924 0.2136906624 0.02964184523
v -0.2129999924 0.2104199982 0.03799999952
v -0.2129999924 0.211875 0.03654500008
v -0.2129999924 0.211875 0.03619999886
v -0.2129999924 0.2095000076 0.03619999886
v -0.2129999924 0.2095000076 0.03456066132
v -0.2129999924 0.2121606636 0.03190000057
v -0.2129999924 0.2147900009 0.03190000057
v -0.2129999924 0.215 0.0316899991
v -0.2129999924 0.2152099991 0.03190000057
v -0.2129999924 0.2178393364 0.03190000057
v -0.2129999924 0.2204999924 0.03456066132
v -0.2129999924 0.2204999924 0.03619999886
v -0.2129999924 0.218125 0.03619999886
v -0.2129999924 0.218125 0.03654500008
v -0.2129999924 0.2195800018 0.03799999952
v -0.2129999924 0.2245000076 0.03799999952
v -0.2129999924 0.2247500038 0.03793301344
v -0.2129999924 0.2249330139 0.03775000095
v -0.2129999924 0.225 0.0375
v -0.2129999924 0.225 0.03257999897
v -0.2129999924 0.2235449982 0.03112499952
v -0.2129999924 0.2231999969 0.03112499952
v -0.2129999924 0.2231999969 0.03349999905
v -0.2129999924 0.2215606689 0.03349999905
v -0.2129999924 0.2188999939 0.03083934069
v -0.2129999924 0.2188999939 0.02821000099
v -0.2129999924 0.2186899948 0.02799999952
v -0.2129999924 0.2188999939 0.02779000044
v -0.2129999924 0.2188999939 0.02516066074
v -0.2129999924 0.2215606689 0.0225
v -0.2129999924 0.2231999969 0.0225
v -0.2129999924 0.2231999969 0.02487499952
v -0.2129999924 0.2235449982 0.02487499952
v -0.2129999924 0.225 0.02342000008
v -0.2129999924 0.225 0.01850000024
v -0.2129999924 0.2249330139 0.01825000048
v -0.2129999924 0.2247500038 0.0180669868
v -0.2129999924 0.2245000076 0.01799999952
v -0.2129999924 0.2195800018 0.01799999952
v -0.2129999924 0.218125 0.01945500016
v -0.2129999924 0.218125 0.01980000019
v -0.2129999924 0.2204999924 0.01980000019
v -0.2129999924 0.2204999924 0.02143934011
v -0.2129999924 0.2178393364 0.02410000086
v -0.2129999924 0.2152099991 0.02410000086
v -0.2129999924 0.215 0.02430999994
v -0.2129999924 0.2147900009 0.02410000086
v -0.2129999924 0.2121606636 0.02410000086
v -0.2129999924 0.2095000076 0.02143934011
v -0.2129999924 0.2095000076 0.01980000019
v -0.2129999924 0.211875 0.01980000019
v -0.2129999924 0.211875 0.01945500016
v -0.2129999924 0.2104199982 0.01799999952
v -0.2129999924 0.2054999924 0.01799999952
v -0.2129999924 0.2052499962 0.0180669868
v -0.2129999924 0.2050669861 0.01825000048
v -0.2129999924 0.205 0.01850000024
v -0.2129999924 0.205 0.02342000008
v -0.2129999924 0.2064550018 0.02487499952
v -0.2129999924 0.2068000031 0.02487499952
v -0.2129999924 0.2068000031 0.0225
v -0.2129999924 0.2084393311 0.0225
v -0.2129999924 0.2111000061 0.02516066074
v -0.2129999924 0.2111000061 0.02779000044
v -0.2129999924 0.2113100052 0.02799999952
v -0.2129999924 0.2111000061 0.02821000099
v -0.2129999924 0.2111000061 0.03083934069
v -0.2129999924 0.2084393311 0.03349999905
v -0.2129999924 0.2068000031 0.03349999905
v -0.2129999924 0.2068000031 0.03112499952
v -0.2129999924 0.2064550018 0.03112499952
v -0.2129999924 0.205 0.03257999897
v -0.2129999924 0.205 0.0375
v -0.2129999924 0.2050669861 0.03775000095
v -0.2129999924 0.2052499962 0.03793301344
v -0.2129999924 0.2054999924 0.03799999952
v 0.2129999924 0.2245000076 0.03799999952
v 0.2129999924 0.2247500038 0.03793301344
v 0.2129999924 0.2249330139 0.03775000095
v 0.2129999924 0.225 0.0375
v -0.2129999924 0.225 0.0375
v -0.2129999924 0.2249330139 0.03775000095
v -0.2129999924 0.2247500038 0.03793301344
v -0.2129999924 0.2245000076 0.03799999952
v -0.2129999924 0.2215606689 0.03349999905
v -0.2129999924 0.2231999969 0.03349999905
v 0.2129999924 0.2231999969 0.03349999905
v 0.2129999924 0.2215606689 0.03349999905
v 0.2129999924 0.225 0.03257999897
v -0.2129999924 0.225 0.03257999897
v -0.2129999924 0.225 0.0375
v 0.2129999924 0.225 0.0375
v -0.2129999924 0.2104199982 0.01799999952
v 0.2129999924 0.2104199982 0.01799999952
v 0.2129999924 0.2054999924 0.01799999952
v -0.2129999924 0.2054999924 0.01799999952
v -0.2129999924 0.2195800018 0.03799999952
v 0.2129999924 0.2195800018 0.03799999952
v 0.2129999924 0.2245000076 0.03799999952
v -0.2129999924 0.2245000076 0.03799999952
v 0.2129999924 0.205 0.02342000008
v -0.2129999924 0.205 0.02342000008
v -0.2129999924 0.205 0.01850000024
v 0.2129999924 0.205 0.01850000024
v -0.2129999924 0.225 0.02342000008
v 0.2129999924 0.225 0.02342000008
v 0.2129999924 0.225 0.01850000024
v -0.2129999924 0.225 0.01850000024
v -0.2129999924 0.2147900009 0.02410000086
v -0.2129999924 0.215 0.02430999994
v 0.2129999924 0.215 0.02430999994
v 0.2129999924 0.2147900009 0.02410000086
v -0.2129999924 0.2111000061 0.02821000099
v -0.2129999924 0.2113100052 0.02799999952
v 0.2129999924 0.2113100052 0.02799999952
v 0.2129999924 0.2111000061 0.02821000099
v -0.2129999924 0.2231999969 0.0225
v -0.2129999924 0.2215606689 0.0225
v 0.2129999924 0.2215606689 0.0225
v 0.2129999924 0.2231999969 0.0225
v -0.2129999924 0.2068000031 0.03112499952
v -0.2129999924 0.2068000031 0.03349999905
v 0.2129999924 0.2068000031 0.03349999905
v 0.2129999924 0.2068000031 0.03112499952
v -0.2129999924 0.2095000076 0.02143934011
v -0.2129999924 0.2121606636 0.02410000086
v 0.2129999924 0.2121606636 0.02410000086
v 0.2129999924 0.2095000076 0.02143934011
v -0.2129999924 0.2084393311 0.03349999905
v -0.2129999924 0.2111000061 0.03083934069
v 0.2129999924 0.2111000061 0.03083934069
v 0.2129999924 0.2084393311 0.03349999905
v -0.2129999924 0.2178393364 0.03190000057
v -0.2129999924 0.2152099991 0.03190000057
v 0.2129999924 0.2152099991 0.03190000057
v 0.2129999924 0.2178393364 0.03190000057
v -0.2129999924 0.218125 0.03654500008
v -0.2129999924 0.218125 0.03619999886
v 0.2129999924 0.218125 0.03619999886
v 0.2129999924 0.218125 0.03654500008
v -0.2129999924 0.211875 0.01945500016
v -0.2129999924 0.211875 0.01980000019
v 0.2129999924 0.211875 0.01980000019
v 0.2129999924 0.211875 0.01945500016
v -0.2129999924 0.205 0.03257999897
v -0.2129999924 0.2064550018 0.03112499952
v 0.2129999924 0.2064550018 0.03112499952
v 0.2129999924 0.205 0.03257999897
v -0.2129999924 0.2095000076 0.01980000019
v -0.2129999924 0.2095000076 0.02143934011
v 0.2129999924 0.2095000076 0.02143934011
v 0.2129999924 0.2095000076 0.01980000019
v -0.2129999924 0.2231999969 0.02487499952
v -0.2129999924 0.2231999969 0.0225
v 0.2129999924 0.2231999969 0.0225
v 0.2129999924 0.2231999969 0.02487499952
v -0.2129999924 0.2204999924 0.03619999886
v -0.2129999924 0.2204999924 0.03456066132
v 0.2129999924 0.2204999924 0.03456066132
v 0.2129999924 0.2204999924 0.03619999886
v -0.2129999924 0.2064550018 0.03112499952
v -0.2129999924 0.2068000031 0.03112499952
v 0.2129999924 0.2068000031 0.03112499952
v 0.2129999924 0.2064550018 0.03112499952
v -0.2129999924 0.2195800018 0.03799999952
v -0.2129999924 0.218125 0.03654500008
v 0.2129999924 0.218125 0.03654500008
v 0.2129999924 0.2195800018 0.03799999952
v -0.2129999924 0.2152099991 0.03190000057
v -0.2129999924 0.215 0.0316899991
v 0.2129999924 0.215 0.0316899991
v 0.2129999924 0.2152099991 0.03190000057
v -0.2129999924 0.225 0.02342000008
v -0.2129999924 0.2235449982 0.02487499952
v 0.2129999924 0.2235449982 0.02487499952
v 0.2129999924 0.225 0.02342000008
v -0.2129999924 0.2204999924 0.03456066132
v -0.2129999924 0.2178393364 0.03190000057
v 0.2129999924 0.2178393364 0.03190000057
v 0.2129999924 0.2204999924 0.03456066132
v -0.2129999924 0.2235449982 0.02487499952
v -0.2129999924 0.2231999969 0.02487499952
v 0.2129999924 0.2231999969 0.02487499952
v 0.2129999924 0.2235449982 0.02487499952
v -0.2129999924 0.2068000031 0.03349999905
v -0.2129999924 0.2084393311 0.03349999905
v 0.2129999924 0.2084393311 0.03349999905
v 0.2129999924 0.2068000031 0.03349999905
v -0.2129999924 0.2104199982 0.01799999952
v -0.2129999924 0.211875 0.01945500016
v 0.2129999924 0.211875 0.01945500016
v 0.2129999924 0.2104199982 0.01799999952
v 0.2129999924 0.2129000092 0.02799999952
v 0.2129999924 0.2136906624 0.02635815382
v 0.2129999924 0.2154673004 0.0259526515
v 0.2129999924 0.2168920326 0.02708884478
v 0.2129999924 0.2168920326 0.02891115665
v 0.2129999924 0.2154673004 0.03004734755
v 0.2129999924 0.2136906624 0.02964184523
v -0.2129999924 0.2129000092 0.02799999952
v -0.2129999924 0.2136906624 0.02964184523
v -0.2129999924 0.2154673004 0.03004734755
v -0.2129999924 0.2168920326 0.02891115665
v -0.2129999924 0.2168920326 0.02708884478
v -0.2129999924 0.2154673004 0.0259526515
v -0.2129999924 0.2136906624 0.02635815382
v 0.2129999924 0.2129000092 0.02799999952
v -0.2129999924 0.2129000092 0.02799999952
v -0.2129999924 0.211875 0.01980000019
v -0.2129999924 0.2095000076 0.01980000019
v 0.2129999924 0.2095000076 0.01980000019
v 0.2129999924 0.211875 0.01980000019
v -0.2129999924 0.218125 0.03619999886
v -0.2129999924 0.2204999924 0.03619999886
v 0.2129999924 0.2204999924 0.03619999886
v 0.2129999924 0.218125 0.03619999886
v -0.2129999924 0.2147900009 0.03190000057
v -0.2129999924 0.2121606636 0.03190000057
v 0.2129999924 0.2121606636 0.03190000057
v 0.2129999924 0.2147900009 0.03190000057
v -0.2129999924 0.211875 0.03654500008
v -0.2129999924 0.2104199982 0.03799999952
v 0.2129999924 0.2104199982 0.03799999952
v 0.2129999924 0.211875 0.03654500008
v -0.2129999924 0.218125 0.01945500016
v -0.2129999924 0.2195800018 0.01799999952
v 0.2129999924 0.2195800018 0.01799999952
v 0.2129999924 0.218125 0.01945500016
v -0.2129999924 0.2188999939 0.02516066074
v -0.2129999924 0.2188999939 0.02779000044
v 0.2129999924 0.2188999939 0.02779000044
v 0.2129999924 0.2188999939 0.02516066074
f 1 2 4
f 4 2 3
f 5 6 8
f 8 6 7
f 9 10 12
f 12 10 11
f 20 13 19
f 19 13 14
f 19 14 18
f 18 14 15
f 18 15 17
f 17 15 16
f 28 21 27
f 27 21 22
f 27 22 26
f 26 22 23
f 26 23 25
f 25 23 24
f 29 30 32
f 32 30 31
f 33 34 36
f 36 34 35
f 37 38 40
f 40 38 39
f 42 43 41
f 41 43 44
f 45 46 48
f 48 46 47
f 50 51 49
f 49 51 52
f 60 53 59
f 59 53 54
f 59 54 58
f 58 54 55
f 58 55 57
f 57 55 56
f 61 62 64
f 64 62 63
f 65 66 68
f 68 66 67
f 70 71 69
f 69 71 72
f 148 73 147
f 147 73 74
f 147 74 75
f 76 77 75
f 75 77 78
f 75 78 147
f 147 78 82
f 147 82 146
f 146 82 83
f 146 83 145
f 145 83 84
f 145 84 150
f 150 84 149
f 149 84 85
f 149 85 86
f 78 79 82
f 82 79 80
f 82 80 81
f 86 87 149
f 149 87 88
f 149 88 155
f 155 88 103
f 155 103 104
f 88 89 103
f 103 89 102
f 102 89 90
f 102 90 101
f 101 90 94
f 101 94 97
f 97 94 96
f 96 94 95
f 91 92 90
f 90 92 93
f 90 93 94
f 97 98 101
f 101 98 99
f 101 99 100
f 104 105 155
f 155 105 154
f 154 105 106
f 154 106 107
f 108 121 107
f 107 121 122
f 107 122 153
f 153 122 123
f 153 123 124
f 121 108 116
f 116 108 109
f 116 109 113
f 113 109 112
f 112 109 111
f 111 109 110
f 113 114 116
f 116 114 115
f 121 116 120
f 120 116 117
f 120 117 118
f 118 119 120
f 153 124 152
f 152 124 125
f 152 125 126
f 152 126 141
f 141 126 127
f 141 127 140
f 140 127 128
f 140 128 139
f 139 128 132
f 139 132 135
f 135 132 133
f 135 133 134
f 129 130 128
f 128 130 131
f 128 131 132
f 135 136 139
f 139 136 137
f 139 137 138
f 152 141 151
f 151 141 142
f 151 142 143
f 151 143 150
f 150 143 144
f 150 144 145
f 153 154 107
f 156 157 159
f 159 157 158
f 160 161 163
f 163 161 162
f 164 165 167
f 167 165 166
f 168 169 171
f 171 169 170
f 172 173 175
f 175 173 174
f 176 177 179
f 179 177 178
f 180 181 183
f 183 181 182
f 184 185 187
f 187 185 186
f 188 189 191
f 191 189 190
f 192 193 195
f 195 193 194
f 196 197 199
f 199 197 198
f 200 201 203
f 203 201 202
f 204 205 207
f 207 205 206
f 208 209 211
f 211 209 210
f 212 213 215
f 215 213 214
f 216 217 219
f 219 217 218
f 220 221 223
f 223 221 222
f 224 225 227
f 227 225 226
f 228 229 231
f 231 229 230
f 233 301 232
f 232 301 302
f 232 302 303
f 234 284 233
f 233 284 285
f 233 285 286
f 235 282 234
f 234 282 283
f 234 283 284
f 236 265 235
f 235 265 266
f 235 266 267
f 237 248 236
f 236 248 263
f 236 263 264
f 238 246 237
f 237 246 247
f 237 247 248
f 232 305 238
f 238 305 244
f 238 244 245
f 314 239 242
f 242 239 240
f 242 240 241
f 243 307 242
f 242 307 311
f 242 311 314
f 314 311 312
f 314 312 313
f 307 243 306
f 306 243 244
f 306 244 305
f 245 246 238
f 263 248 262
f 262 248 249
f 262 249 261
f 261 249 250
f 261 250 257
f 257 250 254
f 257 254 256
f 256 254 255
f 251 252 250
f 250 252 253
f 250 253 254
f 257 258 261
f 261 258 259
f 261 259 260
f 264 265 236
f 235 267 282
f 282 267 268
f 282 268 281
f 281 268 269
f 281 269 280
f 280 269 273
f 280 273 276
f 276 273 275
f 275 273 274
f 270 271 269
f 269 271 272
f 269 272 273
f 276 277 280
f 280 277 278
f 280 278 279
f 287 300 286
f 286 300 301
f 286 301 233
f 300 287 295
f 295 287 288
f 295 288 292
f 292 288 291
f 291 288 290
f 290 288 289
f 292 293 295
f 295 293 294
f 300 295 299
f 299 295 296
f 299 296 297
f 297 298 299
f 303 304 232
f 232 304 305
f 308 309 307
f 307 309 310
f 307 310 311
f 322 315 321
f 321 315 316
f 321 316 320
f 320 316 317
f 320 317 319
f 319 317 318
f 323 324 326
f 326 324 325
f 328 329 327
f 327 329 330
f 332 333 331
f 331 333 334
f 336 337 335
f 335 337 338
f 340 341 339
f 339 341 342
f 344 345 343
f 343 345 346
f 347 348 350
f 350 348 349
f 351 352 354
f 354 352 353
f 355 356 358
f 358 356 357
f 359 360 362
f 362 360 361
f 363 364 366
f 366 364 365
f 367 368 370
f 370 368 369
f 371 372 374
f 374 372 373
f 375 376 378
f 378 376 377
f 379 380 382
f 382 380 381
f 383 384 386
f 386 384 385
f 387 388 390
f 390 388 389
f 391 392 394
f 394 392 393
f 395 396 398
f 398 396 397
f 399 400 402
f 402 400 401
f 403 404 406
f 406 404 405
f 407 408 410
f 410 408 409
f 411 412 414
f 414 412 413
f 415 416 418
f 418 416 417
f 419 420 422
f 422 420 421
f 423 424 426
f 426 424 425
f 427 428 430
f 430 428 429
f 432 444 431
f 431 444 446
f 445 438 437
f 437 438 439
f 437 439 436
f 436 439 440
f 436 440 435
f 435 440 441
f 435 441 434
f 434 441 442
f 434 442 433
f 433 442 443
f 433 443 432
f 432 443 444
f 447 448 450
f 450 448 449
f 451 452 454
f 454 452 453
f 455 456 458
f 458 456 457
f 459 460 462
f 462 460 461
f 463 464 466
f 466 464 465
f 467 468 470
f 470 468 469
