v -0.23 0.09300000191 0.07800000191
v -0.23 0.09226777077 0.07623223305
v -0.23 0.09050000191 0.07550000191
v -0.23 0.08873223305 0.07623223305
v -0.23 0.08800000191 0.07800000191
v -0.23 0.08873223305 0.079767766
v -0.23 0.09050000191 0.08050000191
v -0.23 0.09226777077 0.079767766
v -0.24 0.09300000191 0.07800000191
v -0.24 0.09226777077 0.079767766
v -0.24 0.09050000191 0.08050000191
v -0.24 0.08873223305 0.079767766
v -0.24 0.08800000191 0.07800000191
v -0.24 0.08873223305 0.07623223305
v -0.24 0.09050000191 0.07550000191
v -0.24 0.09226777077 0.07623223305
v -0.24 0.09300000191 0.07800000191
v -0.23 0.09300000191 0.07800000191
v -0.23 0.09300000191 0.07800000191
v -0.23 0.09226777077 0.079767766
v -0.23 0.09050000191 0.08050000191
v -0.23 0.08873223305 0.079767766
v -0.23 0.08800000191 0.07800000191
v -0.23 0.08873223305 0.07623223305
v -0.23 0.09050000191 0.07550000191
v -0.23 0.09226777077 0.07623223305
v -0.24 0.09475000381 0.07800000191
v -0.24 0.09393832207 0.07550191402
v -0.24 0.09181332588 0.07395801067
v -0.24 0.08918667793 0.07395801067
v -0.24 0.08706168175 0.07550191402
v -0.24 0.08625 0.07800000191
v -0.24 0.08706168175 0.08049808502
v -0.24 0.08918667793 0.08204198837
v -0.24 0.09181332588 0.08204198837
v -0.24 0.09393832207 0.08049808502
v -0.245 0.09475000381 0.07800000191
v -0.245 0.09393832207 0.08049808502
v -0.245 0.09181332588 0.08204198837
v -0.245 0.08918667793 0.08204198837
v -0.245 0.08706168175 0.08049808502
v -0.245 0.08625 0.07800000191
v -0.245 0.08706168175 0.07550191402
v -0.245 0.08918667793 0.07395801067
v -0.245 0.09181332588 0.07395801067
v -0.245 0.09393832207 0.07550191402
v -0.245 0.09475000381 0.07800000191
v -0.24 0.09475000381 0.07800000191
v -0.24 0.09475000381 0.07800000191
v -0.24 0.09393832207 0.08049808502
v -0.24 0.09181332588 0.08204198837
v -0.24 0.08918667793 0.08204198837
v -0.24 0.08706168175 0.08049808502
v -0.24 0.08625 0.07800000191
v -0.24 0.08706168175 0.07550191402
v -0.24 0.08918667793 0.07395801067
v -0.24 0.09181332588 0.07395801067
v -0.24 0.09393832207 0.07550191402
v -0.24 0.09300000191 0.07800000191
v -0.24 0.09226777077 0.07623223305
v -0.24 0.09050000191 0.07550000191
v -0.24 0.08873223305 0.07623223305
v -0.24 0.08800000191 0.07800000191
v -0.24 0.08873223305 0.079767766
v -0.24 0.09050000191 0.08050000191
v -0.24 0.09226777077 0.079767766
v -0.245 0.09475000381 0.07800000191
v -0.245 0.09393832207 0.07550191402
v -0.245 0.09181332588 0.07395801067
v -0.245 0.08918667793 0.07395801067
v -0.245 0.08706168175 0.07550191402
v -0.245 0.08625 0.07800000191
v -0.245 0.08706168175 0.08049808502
v -0.245 0.08918667793 0.08204198837
v -0.245 0.09181332588 0.08204198837
v -0.245 0.09393832207 0.08049808502
f 2 16 1
f 1 16 17
f 18 9 8
f 8 9 10
f 8 10 11
f 2 3 16
f 16 3 15
f 15 3 4
f 15 4 14
f 14 4 5
f 14 5 13
f 13 5 6
f 13 6 12
f 12 6 7
f 12 7 11
f 11 7 8
f 20 22 19
f 19 22 23
f 19 23 26
f 26 23 24
f 26 24 25
f 20 21 22
f 28 46 27
f 27 46 47
f 48 37 36
f 36 37 38
f 36 38 35
f 35 38 39
f 35 39 34
f 34 39 40
f 34 40 33
f 33 40 41
f 33 41 32
f 32 41 42
f 32 42 31
f 31 42 43
f 31 43 30
f 30 43 44
f 30 44 29
f 29 44 45
f 29 45 28
f 28 45 46
f 58 49 59
f 59 49 50
f 59 50 66
f 66 50 51
f 66 51 65
f 65 51 52
f 65 52 64
f 64 52 53
f 64 53 63
f 63 53 54
f 63 54 55
f 63 55 62
f 62 55 56
f 62 56 61
f 61 56 57
f 61 57 60
f 60 57 58
f 60 58 59
f 68 71 67
f 67 71 72
f 67 72 76
f 76 72 73
f 76 73 75
f 75 73 74
f 69 70 68
f 68 70 71
