v 0.2075 0.2095000076 0.02799999952
v 0.2067677689 0.2095000076 0.029767766
v 0.205 0.2095000076 0.03049999952
v 0.2032322311 0.2095000076 0.029767766
v 0.2025 0.2095000076 0.02799999952
v 0.2032322311 0.2095000076 0.02623223305
v 0.205 0.2095000076 0.02549999952
v 0.2067677689 0.2095000076 0.02623223305
v 0.2075 0.2014999962 0.02799999952
v 0.2067677689 0.2014999962 0.02623223305
v 0.205 0.2014999962 0.02549999952
v 0.2032322311 0.2014999962 0.02623223305
v 0.2025 0.2014999962 0.02799999952
v 0.2032322311 0.2014999962 0.029767766
v 0.205 0.2014999962 0.03049999952
v 0.2067677689 0.2014999962 0.029767766
v 0.2075 0.2014999962 0.02799999952
v 0.2075 0.2095000076 0.02799999952
v 0.2041339684 0.2 0.02650000095
v 0.2032679558 0.2 0.02799999952
v 0.2041339684 0.2 0.02950000048
v 0.2058660316 0.2 0.02950000048
v 0.2067320442 0.2 0.02799999952
v 0.2058660316 0.2 0.02650000095
v 0.2095000076 0.2 0.02799999952
v 0.2086405754 0.2 0.03064503431
v 0.2063905716 0.2 0.03227975368
v 0.2036094284 0.2 0.03227975368
v 0.2013594246 0.2 0.03064503431
v 0.2004999924 0.2 0.02799999952
v 0.2013594246 0.2 0.02535496712
v 0.2036094284 0.2 0.02372024536
v 0.2063905716 0.2 0.02372024536
v 0.2086405754 0.2 0.02535496712
v 0.2095000076 0.2 0.02799999952
v 0.2086405754 0.2 0.02535496712
v 0.2063905716 0.2 0.02372024536
v 0.2036094284 0.2 0.02372024536
v 0.2013594246 0.2 0.02535496712
v 0.2004999924 0.2 0.02799999952
v 0.2013594246 0.2 0.03064503431
v 0.2036094284 0.2 0.03227975368
v 0.2063905716 0.2 0.03227975368
v 0.2086405754 0.2 0.03064503431
v 0.2095000076 0.2014999962 0.02799999952
v 0.2086405754 0.2014999962 0.03064503431
v 0.2063905716 0.2014999962 0.03227975368
v 0.2036094284 0.2014999962 0.03227975368
v 0.2013594246 0.2014999962 0.03064503431
v 0.2004999924 0.2014999962 0.02799999952
v 0.2013594246 0.2014999962 0.02535496712
v 0.2036094284 0.2014999962 0.02372024536
v 0.2063905716 0.2014999962 0.02372024536
v 0.2086405754 0.2014999962 0.02535496712
v 0.2095000076 0.2014999962 0.02799999952
v 0.2095000076 0.2 0.02799999952
v 0.2095000076 0.2014999962 0.02799999952
v 0.2086405754 0.2014999962 0.02535496712
v 0.2063905716 0.2014999962 0.02372024536
v 0.2036094284 0.2014999962 0.02372024536
v 0.2013594246 0.2014999962 0.02535496712
v 0.2004999924 0.2014999962 0.02799999952
v 0.2013594246 0.2014999962 0.03064503431
v 0.2036094284 0.2014999962 0.03227975368
v 0.2063905716 0.2014999962 0.03227975368
v 0.2086405754 0.2014999962 0.03064503431
v 0.2075 0.2014999962 0.02799999952
v 0.2067677689 0.2014999962 0.029767766
v 0.205 0.2014999962 0.03049999952
v 0.2032322311 0.2014999962 0.029767766
v 0.2025 0.2014999962 0.02799999952
v 0.2032322311 0.2014999962 0.02623223305
v 0.205 0.2014999962 0.02549999952
v 0.2067677689 0.2014999962 0.02623223305
v 0.2075 0.2095000076 0.02799999952
v 0.2067677689 0.2095000076 0.02623223305
v 0.205 0.2095000076 0.02549999952
v 0.2032322311 0.2095000076 0.02623223305
v 0.2025 0.2095000076 0.02799999952
v 0.2032322311 0.2095000076 0.029767766
v 0.205 0.2095000076 0.03049999952
v 0.2067677689 0.2095000076 0.029767766
v 0.2032679558 0.2 0.02799999952
v 0.2041339684 0.2 0.02650000095
v 0.2041339684 0.2010000038 0.02650000095
v 0.2032679558 0.2010000038 0.02799999952
v 0.2058660316 0.2 0.02950000048
v 0.2041339684 0.2 0.02950000048
v 0.2041339684 0.2010000038 0.02950000048
v 0.2058660316 0.2010000038 0.02950000048
v 0.2041339684 0.2 0.02950000048
v 0.2032679558 0.2 0.02799999952
v 0.2032679558 0.2010000038 0.02799999952
v 0.2041339684 0.2010000038 0.02950000048
v 0.2058660316 0.2 0.02650000095
v 0.2067320442 0.2 0.02799999952
v 0.2067320442 0.2010000038 0.02799999952
v 0.2058660316 0.2010000038 0.02650000095
v 0.2067320442 0.2 0.02799999952
v 0.2058660316 0.2 0.02950000048
v 0.2058660316 0.2010000038 0.02950000048
v 0.2067320442 0.2010000038 0.02799999952
v 0.2041339684 0.2 0.02650000095
v 0.2058660316 0.2 0.02650000095
v 0.2058660316 0.2010000038 0.02650000095
v 0.2041339684 0.2010000038 0.02650000095
v 0.2041339684 0.2010000038 0.02950000048
v 0.2032679558 0.2010000038 0.02799999952
v 0.2041339684 0.2010000038 0.02650000095
v 0.2058660316 0.2010000038 0.02650000095
v 0.2067320442 0.2010000038 0.02799999952
v 0.2058660316 0.2010000038 0.02950000048
f 2 16 1
f 1 16 17
f 18 9 8
f 8 9 10
f 8 10 11
f 2 3 16
f 16 3 15
f 15 3 4
f 15 4 14
f 14 4 5
f 14 5 13
f 13 5 6
f 13 6 12
f 12 6 7
f 12 7 11
f 11 7 8
f 20 31 19
f 19 31 32
f 19 32 33
f 21 29 20
f 20 29 30
f 20 30 31
f 29 21 28
f 28 21 22
f 28 22 27
f 27 22 26
f 26 22 23
f 26 23 25
f 25 23 34
f 34 23 24
f 34 24 33
f 33 24 19
f 36 54 35
f 35 54 55
f 56 45 44
f 44 45 46
f 44 46 43
f 43 46 47
f 43 47 42
f 42 47 48
f 42 48 41
f 41 48 49
f 41 49 40
f 40 49 50
f 40 50 39
f 39 50 51
f 39 51 38
f 38 51 52
f 38 52 37
f 37 52 53
f 37 53 36
f 36 53 54
f 66 57 67
f 67 57 58
f 67 58 74
f 74 58 59
f 74 59 73
f 73 59 60
f 73 60 72
f 72 60 61
f 72 61 71
f 71 61 62
f 71 62 63
f 71 63 70
f 70 63 64
f 70 64 69
f 69 64 65
f 69 65 68
f 68 65 66
f 68 66 67
f 76 78 75
f 75 78 79
f 75 79 82
f 82 79 80
f 82 80 81
f 76 77 78
f 83 84 86
f 86 84 85
f 87 88 90
f 90 88 89
f 91 92 94
f 94 92 93
f 95 96 98
f 98 96 97
f 99 100 102
f 102 100 101
f 103 104 106
f 106 104 105
f 107 108 112
f 112 108 111
f 111 108 109
f 111 109 110
