v -0.2533349991 0.09 0.4598767549
v -0.2524186516 0.09 0.45615897
v -0.2498795128 0.09 0.4532928735
v -0.2462992859 0.09 0.4519350893
v -0.2424981689 0.09 0.4523966295
v -0.2393469048 0.09 0.4545717699
v -0.2375674629 0.09 0.4579622347
v -0.2375674629 0.09 0.4617912752
v -0.2393469048 0.09 0.46518174
v -0.2424981689 0.09 0.4673568803
v -0.2462992859 0.09 0.4678184206
v -0.2498795128 0.09 0.4664606172
v -0.2524186516 0.09 0.4635945398
v -0.2533349991 0.085 0.4598767549
v -0.2524186516 0.085 0.4635945398
v -0.2498795128 0.085 0.4664606172
v -0.2462992859 0.085 0.4678184206
v -0.2424981689 0.085 0.4673568803
v -0.2393469048 0.085 0.46518174
v -0.2375674629 0.085 0.4617912752
v -0.2375674629 0.085 0.4579622347
v -0.2393469048 0.085 0.4545717699
v -0.2424981689 0.085 0.4523966295
v -0.2462992859 0.085 0.4519350893
v -0.2498795128 0.085 0.4532928735
v -0.2524186516 0.085 0.45615897
v -0.2533349991 0.085 0.4598767549
v -0.2533349991 0.09 0.4598767549
v -0.2478350067 0.085 0.4598767549
v -0.2471027756 0.085 0.4616445238
v -0.2453350067 0.085 0.4623767549
v -0.2435672379 0.085 0.4616445238
v -0.2428350067 0.085 0.4598767549
v -0.2435672379 0.085 0.4581089861
v -0.2453350067 0.085 0.4573767549
v -0.2471027756 0.085 0.4581089861
v -0.2533349991 0.085 0.4598767549
v -0.2524186516 0.085 0.45615897
v -0.2498795128 0.085 0.4532928735
v -0.2462992859 0.085 0.4519350893
v -0.2424981689 0.085 0.4523966295
v -0.2393469048 0.085 0.4545717699
v -0.2375674629 0.085 0.4579622347
v -0.2375674629 0.085 0.4617912752
v -0.2393469048 0.085 0.46518174
v -0.2424981689 0.085 0.4673568803
v -0.2462992859 0.085 0.4678184206
v -0.2498795128 0.085 0.4664606172
v -0.2524186516 0.085 0.4635945398
v -0.2478350067 0.09 0.4598767549
v -0.2471027756 0.09 0.4581089861
v -0.2453350067 0.09 0.4573767549
v -0.2435672379 0.09 0.4581089861
v -0.2428350067 0.09 0.4598767549
v -0.2435672379 0.09 0.4616445238
v -0.2453350067 0.09 0.4623767549
v -0.2471027756 0.09 0.4616445238
v -0.2533349991 0.09 0.4598767549
v -0.2524186516 0.09 0.4635945398
v -0.2498795128 0.09 0.4664606172
v -0.2462992859 0.09 0.4678184206
v -0.2424981689 0.09 0.4673568803
v -0.2393469048 0.09 0.46518174
v -0.2375674629 0.09 0.4617912752
v -0.2375674629 0.09 0.4579622347
v -0.2393469048 0.09 0.4545717699
v -0.2424981689 0.09 0.4523966295
v -0.2462992859 0.09 0.4519350893
v -0.2498795128 0.09 0.4532928735
v -0.2524186516 0.09 0.45615897
v -0.2478350067 0.09 0.4598767549
v -0.2471027756 0.09 0.4616445238
v -0.2453350067 0.09 0.4623767549
v -0.2435672379 0.09 0.4616445238
v -0.2428350067 0.09 0.4598767549
v -0.2435672379 0.09 0.4581089861
v -0.2453350067 0.09 0.4573767549
v -0.2471027756 0.09 0.4581089861
v -0.2478350067 0.085 0.4598767549
v -0.2471027756 0.085 0.4581089861
v -0.2453350067 0.085 0.4573767549
v -0.2435672379 0.085 0.4581089861
v -0.2428350067 0.085 0.4598767549
v -0.2435672379 0.085 0.4616445238
v -0.2453350067 0.085 0.4623767549
v -0.2471027756 0.085 0.4616445238
v -0.2478350067 0.09 0.4598767549
v -0.2478350067 0.085 0.4598767549
f 2 26 1
f 1 26 27
f 28 14 13
f 13 14 15
f 13 15 12
f 12 15 16
f 12 16 11
f 11 16 17
f 11 17 10
f 10 17 18
f 10 18 9
f 9 18 19
f 9 19 8
f 8 19 20
f 8 20 7
f 7 20 21
f 7 21 6
f 6 21 22
f 6 22 5
f 5 22 23
f 5 23 4
f 4 23 24
f 4 24 3
f 3 24 25
f 3 25 2
f 2 25 26
f 30 49 29
f 29 49 37
f 29 37 38
f 49 30 48
f 48 30 31
f 48 31 47
f 47 31 46
f 46 31 32
f 46 32 45
f 45 32 44
f 44 32 33
f 44 33 43
f 43 33 34
f 43 34 42
f 42 34 41
f 41 34 35
f 41 35 40
f 40 35 39
f 39 35 36
f 39 36 38
f 38 36 29
f 51 70 50
f 50 70 58
f 50 58 59
f 70 51 69
f 69 51 52
f 69 52 68
f 68 52 67
f 67 52 53
f 67 53 66
f 66 53 65
f 65 53 54
f 65 54 64
f 64 54 55
f 64 55 63
f 63 55 62
f 62 55 56
f 62 56 61
f 61 56 60
f 60 56 57
f 60 57 59
f 59 57 50
f 72 86 71
f 71 86 88
f 87 79 78
f 78 79 80
f 78 80 81
f 72 73 86
f 86 73 85
f 85 73 74
f 85 74 84
f 84 74 75
f 84 75 83
f 83 75 76
f 83 76 82
f 82 76 77
f 82 77 81
f 81 77 78
