v 0.2432647514 0.07300000191 0.4588566286
v 0.245151062 0.07300000191 0.4579229051
v 0.2471451187 0.07300000191 0.4585965044
v 0.2480788422 0.07300000191 0.4604828149
v 0.2474052429 0.07300000191 0.4624768716
v 0.2455189323 0.07300000191 0.4634105951
v 0.2435248756 0.07300000191 0.4627369959
v 0.2425911522 0.07300000191 0.4608506853
v 0.2415709114 0.07300000191 0.4573756105
v 0.2403553009 0.07300000191 0.4602166444
v 0.2410417747 0.07300000191 0.4632296068
v 0.2433681107 0.07300000191 0.4652636415
v 0.2464457321 0.07300000191 0.4655418092
v 0.249099102 0.07300000191 0.4639578897
v 0.2503146935 0.07300000191 0.4611168558
v 0.2496282196 0.07300000191 0.4581039125
v 0.2473018837 0.07300000191 0.4560698587
v 0.2442242622 0.07300000191 0.455791691
v 0.2432647514 0.07199999809 0.4588566286
v 0.2425911522 0.07199999809 0.4608506853
v 0.2435248756 0.07199999809 0.4627369959
v 0.2455189323 0.07199999809 0.4634105951
v 0.2474052429 0.07199999809 0.4624768716
v 0.2480788422 0.07199999809 0.4604828149
v 0.2471451187 0.07199999809 0.4585965044
v 0.245151062 0.07199999809 0.4579229051
v 0.2415709114 0.07199999809 0.4573756105
v 0.2442242622 0.07199999809 0.455791691
v 0.2473018837 0.07199999809 0.4560698587
v 0.2496282196 0.07199999809 0.4581039125
v 0.2503146935 0.07199999809 0.4611168558
v 0.249099102 0.07199999809 0.4639578897
v 0.2464457321 0.07199999809 0.4655418092
v 0.2433681107 0.07199999809 0.4652636415
v 0.2410417747 0.07199999809 0.4632296068
v 0.2403553009 0.07199999809 0.4602166444
v 0.2415709114 0.07300000191 0.4573756105
v 0.2442242622 0.07300000191 0.455791691
v 0.2473018837 0.07300000191 0.4560698587
v 0.2496282196 0.07300000191 0.4581039125
v 0.2503146935 0.07300000191 0.4611168558
v 0.249099102 0.07300000191 0.4639578897
v 0.2464457321 0.07300000191 0.4655418092
v 0.2433681107 0.07300000191 0.4652636415
v 0.2410417747 0.07300000191 0.4632296068
v 0.2403553009 0.07300000191 0.4602166444
v 0.2415709114 0.07199999809 0.4573756105
v 0.2403553009 0.07199999809 0.4602166444
v 0.2410417747 0.07199999809 0.4632296068
v 0.2433681107 0.07199999809 0.4652636415
v 0.2464457321 0.07199999809 0.4655418092
v 0.249099102 0.07199999809 0.4639578897
v 0.2503146935 0.07199999809 0.4611168558
v 0.2496282196 0.07199999809 0.4581039125
v 0.2473018837 0.07199999809 0.4560698587
v 0.2442242622 0.07199999809 0.455791691
v 0.2415709114 0.07199999809 0.4573756105
v 0.2415709114 0.07300000191 0.4573756105
v 0.2432647514 0.07300000191 0.4588566286
v 0.2425911522 0.07300000191 0.4608506853
v 0.2435248756 0.07300000191 0.4627369959
v 0.2455189323 0.07300000191 0.4634105951
v 0.2474052429 0.07300000191 0.4624768716
v 0.2480788422 0.07300000191 0.4604828149
v 0.2471451187 0.07300000191 0.4585965044
v 0.245151062 0.07300000191 0.4579229051
v 0.2432647514 0.07199999809 0.4588566286
v 0.245151062 0.07199999809 0.4579229051
v 0.2471451187 0.07199999809 0.4585965044
v 0.2480788422 0.07199999809 0.4604828149
v 0.2474052429 0.07199999809 0.4624768716
v 0.2455189323 0.07199999809 0.4634105951
v 0.2435248756 0.07199999809 0.4627369959
v 0.2425911522 0.07199999809 0.4608506853
v 0.2432647514 0.07300000191 0.4588566286
v 0.2432647514 0.07199999809 0.4588566286
f 2 18 1
f 1 18 9
f 1 9 10
f 18 2 17
f 17 2 3
f 17 3 16
f 16 3 4
f 16 4 15
f 15 4 5
f 15 5 14
f 14 5 13
f 13 5 6
f 13 6 12
f 12 6 7
f 12 7 11
f 11 7 8
f 11 8 10
f 10 8 1
f 20 36 19
f 19 36 27
f 19 27 28
f 36 20 35
f 35 20 21
f 35 21 34
f 34 21 22
f 34 22 33
f 33 22 23
f 33 23 32
f 32 23 31
f 31 23 24
f 31 24 30
f 30 24 25
f 30 25 29
f 29 25 26
f 29 26 28
f 28 26 19
f 38 56 37
f 37 56 57
f 58 47 46
f 46 47 48
f 46 48 45
f 45 48 49
f 45 49 44
f 44 49 50
f 44 50 43
f 43 50 51
f 43 51 42
f 42 51 52
f 42 52 41
f 41 52 53
f 41 53 40
f 40 53 54
f 40 54 39
f 39 54 55
f 39 55 38
f 38 55 56
f 60 74 59
f 59 74 76
f 75 67 66
f 66 67 68
f 66 68 65
f 65 68 69
f 65 69 64
f 64 69 70
f 64 70 63
f 63 70 71
f 63 71 62
f 62 71 72
f 62 72 61
f 61 72 73
f 61 73 60
f 60 73 74
