v -1.351313208e-08 0.006899999976 0.4275767595
v -0.002940848442 0.007268971205 0.4269931057
v -0.005449756394 0.007181997895 0.4253164464
v -0.007110756456 0.006748594642 0.4228309203
v -0.007699999809 0.006499999762 0.4198767414
v -0.007110746087 0.006748594642 0.4169225646
v -0.005449737301 0.007181997895 0.4144370443
v -0.002940823464 0.007268971205 0.4127603939
v 1.351312233e-08 0.006899999976 0.4121767503
v 0.002940848442 0.006531028748 0.4127604042
v 0.005449756394 0.006618002057 0.4144370634
v 0.007110756456 0.007051405311 0.4169225895
v 0.007699999809 0.007300000191 0.4198767684
v 0.007110746087 0.007051405311 0.4228309453
v 0.005449737301 0.006618002057 0.4253164656
v 0.002940823464 0.006531028748 0.426993116
v -1.351313208e-08 0.006600000262 0.4275767595
v 0.003198683189 0.006216202974 0.4268809262
v 0.005819262954 0.006383743882 0.4249191846
v 0.007388092049 0.006861944199 0.4220461099
v 0.007621626989 0.006963852644 0.4187809393
v 0.007004171859 0.006712692976 0.4166780673
v 0.005042437991 0.006263498664 0.4140574812
v 0.003198707773 0.006216202974 0.4128725949
v 1.351312233e-08 0.006600000262 0.4121767503
v -0.003198683189 0.006983796954 0.4128725837
v -0.005819262954 0.006816256046 0.4148343062
v -0.007388092049 0.00633805573 0.4177073999
v -0.007621626989 0.006236147285 0.4209725706
v -0.007004171859 0.006487306952 0.4230754426
v -0.005042437991 0.006936501265 0.4256960095
v -0.003198707773 0.006983796954 0.426880915
v 1.351312233e-08 0.006899999976 0.4121767503
v 1.351312233e-08 0.006600000262 0.4121767503
v 1.351312233e-08 0.006600000262 0.4121767503
v 0.003198707773 0.006216202974 0.4128725949
v 0.005042437991 0.006263498664 0.4140574812
v 0.007004171859 0.006712692976 0.4166780673
v 0.007621626989 0.006963852644 0.4187809393
v 0.007388092049 0.006861944199 0.4220461099
v 0.005819262954 0.006383743882 0.4249191846
v 0.003198683189 0.006216202974 0.4268809262
v -1.351313208e-08 0.006600000262 0.4275767595
v -1.026644956e-08 0.006600000262 0.4257267458
v 0.00215036704 0.006238473058 0.4253172418
v 0.004065285989 0.006303063035 0.4240834195
v 0.005359097179 0.006730684042 0.4222225743
v 0.005849999785 0.006999999881 0.4198767652
v 0.005359105412 0.006730684042 0.4175309353
v 0.004065300754 0.006303063035 0.4156701046
v 0.002150386136 0.006238473058 0.4144362756
v 1.026647329e-08 0.006600000262 0.414026745
v 0.002814447668 0.006216202974 0.413714002
v 0.004706238418 0.006302751303 0.4150031632
v 0.006620160198 0.006920186877 0.421316891
v 0.006722181729 0.00697221756 0.4190324216
v 0.006058378177 0.006671022177 0.4168441575
v 0.005763955424 0.006564344764 0.423437289
v 0.004251090865 0.00624233067 0.42515205
v 0.002253926658 0.006259720922 0.4262658237
v -1.351313208e-08 0.006600000262 0.4275767595
v -0.003198707773 0.006983796954 0.426880915
v -0.005042437991 0.006936501265 0.4256960095
v -0.007004171859 0.006487306952 0.4230754426
v -0.007621626989 0.006236147285 0.4209725706
v -0.007388092049 0.00633805573 0.4177073999
v -0.005819262954 0.006816256046 0.4148343062
v -0.003198683189 0.006983796954 0.4128725837
v 1.351312233e-08 0.006600000262 0.4121767503
v 1.026647329e-08 0.006600000262 0.414026745
v -0.00215036704 0.006961526871 0.4144362681
v -0.004065285989 0.00689693749 0.4156700904
v -0.005359097179 0.006469315886 0.4175309165
v -0.005849999785 0.006200000048 0.4198767447
v -0.005359105412 0.006469315886 0.4222225554
v -0.004065300754 0.00689693749 0.4240834052
v -0.002150386136 0.006961526871 0.4253172342
v -1.026644956e-08 0.006600000262 0.4257267458
v -0.002814447668 0.006983796954 0.4260395079
v -0.004706238418 0.006897248626 0.4247503467
v -0.006620160198 0.006279813051 0.4184366188
v -0.006722181729 0.006227782369 0.4207210691
v -0.006058378177 0.006528977752 0.4229093523
v -0.005763955424 0.006635655761 0.4163162208
v -0.004251090865 0.006957669854 0.4146014598
v -0.002253926658 0.006940279007 0.4134876671
v -1.026644956e-08 0.006600000262 0.4257267458
v -0.002150386136 0.006961526871 0.4253172342
v -0.004065300754 0.00689693749 0.4240834052
v -0.005359105412 0.006469315886 0.4222225554
v -0.005849999785 0.006200000048 0.4198767447
v -0.005359097179 0.006469315886 0.4175309165
v -0.004065285989 0.00689693749 0.4156700904
v -0.00215036704 0.006961526871 0.4144362681
v 1.026647329e-08 0.006600000262 0.414026745
v 0.002150386136 0.006238473058 0.4144362756
v 0.004065300754 0.006303063035 0.4156701046
v 0.005359105412 0.006730684042 0.4175309353
v 0.005849999785 0.006999999881 0.4198767652
v 0.005359097179 0.006730684042 0.4222225743
v 0.004065285989 0.006303063035 0.4240834195
v 0.00215036704 0.006238473058 0.4253172418
v -1.026644956e-08 0.006899999976 0.4257267458
v 0.002430168439 0.006516202688 0.4251981093
v 0.004421128166 0.006683743596 0.4237076915
v 0.005613030879 0.007161944509 0.4215249047
v 0.005790456802 0.007263852954 0.4190442265
v 0.004921338744 0.006843073964 0.4167140171
v 0.003830943118 0.006563498378 0.4154556229
v 0.002430187117 0.006516202688 0.4145554091
v 1.026647328e-08 0.006899999976 0.414026745
v -0.002430168439 0.007283797264 0.4145554006
v -0.004421128166 0.007116256356 0.4160458184
v -0.005613030879 0.006638055444 0.4182286051
v -0.005790456802 0.006536146998 0.4207092834
v -0.005321351382 0.006787307262 0.4223069175
v -0.003830943118 0.007236501575 0.424297887
v -0.002430187117 0.007283797264 0.4251981008
v 1.026647329e-08 0.006600000262 0.414026745
v 1.026647328e-08 0.006899999976 0.414026745
v 1.026647328e-08 0.006899999976 0.414026745
v 0.002430187117 0.006516202688 0.4145554091
v 0.003830943118 0.006563498378 0.4154556229
v 0.004921338744 0.006843073964 0.4167140171
v 0.005790456802 0.007263852954 0.4190442265
v 0.005613030879 0.007161944509 0.4215249047
v 0.004421128166 0.006683743596 0.4237076915
v 0.002430168439 0.006516202688 0.4251981093
v -1.026644956e-08 0.006899999976 0.4257267458
v -1.351313208e-08 0.006899999976 0.4275767595
v 0.002940823464 0.006531028748 0.426993116
v 0.005449737301 0.006618002057 0.4253164656
v 0.007110746087 0.007051405311 0.4228309453
v 0.007699999809 0.007300000191 0.4198767684
v 0.007110756456 0.007051405311 0.4169225895
v 0.005449756394 0.006618002057 0.4144370634
v 0.002940848442 0.006531028748 0.4127604042
v 1.351312233e-08 0.006899999976 0.4121767503
v 0.002814447668 0.006516202688 0.413714002
v 0.006620160198 0.007220187187 0.421316891
v 0.004704380843 0.006602445841 0.4150013703
v 0.006058378177 0.006971022487 0.4168441575
v 0.006722181729 0.007272217274 0.4190324216
v 0.005763955424 0.006864344478 0.423437289
v 0.004251090865 0.006542330384 0.42515205
v 0.002253926658 0.006559721231 0.4262658237
v -1.026644956e-08 0.006899999976 0.4257267458
v -0.002430187117 0.007283797264 0.4251981008
v -0.003830943118 0.007236501575 0.424297887
v -0.005321351382 0.006787307262 0.4223069175
v -0.005790456802 0.006536146998 0.4207092834
v -0.005613030879 0.006638055444 0.4182286051
v -0.004421128166 0.007116256356 0.4160458184
v -0.002430168439 0.007283797264 0.4145554006
v 1.026647328e-08 0.006899999976 0.414026745
v 1.351312233e-08 0.006899999976 0.4121767503
v -0.002940823464 0.007268971205 0.4127603939
v -0.005449737301 0.007181997895 0.4144370443
v -0.007110746087 0.006748594642 0.4169225646
v -0.007699999809 0.006499999762 0.4198767414
v -0.007110756456 0.006748594642 0.4228309203
v -0.005449756394 0.007181997895 0.4253164464
v -0.002940848442 0.007268971205 0.4269931057
v -1.351313208e-08 0.006899999976 0.4275767595
v -0.002814447668 0.007283797264 0.4260395079
v -0.004704380843 0.007197554708 0.4247521396
v -0.006620160198 0.006579812765 0.4184366188
v -0.006722181729 0.006527782679 0.4207210691
v -0.006058378177 0.006828977466 0.4229093523
v -0.005763955424 0.006935655475 0.4163162208
v -0.004251090865 0.007257669568 0.4146014598
v -0.002253926658 0.007240279317 0.4134876671
f 16 1 17
f 17 1 2
f 17 2 32
f 32 2 31
f 31 2 3
f 31 3 30
f 30 3 4
f 30 4 29
f 29 4 5
f 29 5 28
f 28 5 6
f 28 6 27
f 27 6 7
f 27 7 26
f 26 7 8
f 26 8 25
f 25 8 33
f 34 9 10
f 11 23 10
f 10 23 24
f 10 24 34
f 23 11 22
f 22 11 12
f 22 12 21
f 21 12 13
f 21 13 20
f 20 13 14
f 20 14 19
f 19 14 15
f 19 15 18
f 18 15 16
f 18 16 17
f 36 53 35
f 35 53 51
f 35 51 52
f 36 37 53
f 53 37 54
f 53 54 50
f 50 54 57
f 50 57 49
f 49 57 56
f 49 56 48
f 48 56 55
f 48 55 47
f 47 55 58
f 47 58 46
f 46 58 59
f 46 59 45
f 45 59 60
f 45 60 44
f 44 60 43
f 43 60 42
f 42 60 59
f 42 59 41
f 41 59 58
f 41 58 40
f 40 58 55
f 40 55 39
f 39 55 56
f 39 56 38
f 38 56 57
f 38 57 54
f 37 38 54
f 50 51 53
f 62 79 61
f 61 79 77
f 61 77 78
f 62 63 79
f 79 63 80
f 79 80 76
f 76 80 83
f 76 83 75
f 75 83 82
f 75 82 74
f 74 82 81
f 74 81 73
f 73 81 84
f 73 84 72
f 72 84 85
f 72 85 71
f 71 85 86
f 71 86 70
f 70 86 69
f 69 86 68
f 68 86 85
f 68 85 67
f 67 85 84
f 67 84 66
f 66 84 81
f 66 81 65
f 65 81 82
f 65 82 64
f 64 82 83
f 64 83 80
f 63 64 80
f 76 77 79
f 88 103 87
f 87 103 104
f 87 104 102
f 102 104 101
f 101 104 105
f 101 105 100
f 100 105 106
f 100 106 99
f 99 106 107
f 99 107 98
f 98 107 108
f 98 108 97
f 97 108 109
f 97 109 110
f 89 117 88
f 88 117 118
f 88 118 103
f 117 89 116
f 116 89 90
f 116 90 115
f 115 90 91
f 115 91 114
f 114 91 92
f 114 92 113
f 113 92 93
f 113 93 112
f 112 93 94
f 112 94 111
f 111 94 119
f 120 95 96
f 120 96 110
f 110 96 97
f 138 121 139
f 139 121 122
f 139 122 123
f 139 123 141
f 141 123 124
f 141 124 142
f 142 124 125
f 142 125 143
f 143 125 140
f 143 140 134
f 134 140 133
f 133 140 144
f 133 144 132
f 132 144 145
f 132 145 131
f 131 145 146
f 131 146 130
f 130 146 129
f 129 146 128
f 128 146 145
f 128 145 127
f 127 145 144
f 127 144 126
f 126 144 140
f 126 140 125
f 134 135 143
f 143 135 142
f 135 136 142
f 142 136 141
f 141 136 139
f 139 136 137
f 139 137 138
f 164 147 165
f 165 147 148
f 165 148 149
f 165 149 166
f 166 149 150
f 166 150 169
f 169 150 151
f 169 151 168
f 168 151 167
f 168 167 160
f 160 167 159
f 159 167 170
f 159 170 158
f 158 170 171
f 158 171 157
f 157 171 172
f 157 172 156
f 156 172 155
f 155 172 154
f 154 172 171
f 154 171 153
f 153 171 170
f 153 170 152
f 152 170 167
f 152 167 151
f 160 161 168
f 168 161 169
f 161 162 169
f 169 162 166
f 166 162 165
f 165 162 163
f 165 163 164
