v -0.02762120247 0.03815999985 0.4068030435
v -0.02832830906 0.03815999985 0.4065101511
v -0.02862120152 0.03815999985 0.4058030492
v -0.02832830906 0.03815999985 0.4050959379
v -0.02762120247 0.03815999985 0.4048030454
v -0.02691409588 0.03815999985 0.4050959379
v -0.02662120342 0.03815999985 0.4058030492
v -0.02691409588 0.03815999985 0.4065101511
v -0.02762120247 0.04199999809 0.4068030435
v -0.02667014599 0.04199999809 0.4061120683
v -0.02703341723 0.04199999809 0.4049940282
v -0.02820898771 0.04199999809 0.4049940282
v -0.02857225895 0.04199999809 0.4061120683
v -0.02762120247 0.04199999809 0.4068030435
v -0.02762120247 0.03815999985 0.4068030435
v -0.02762120247 0.03815999985 0.4068030435
v -0.02691409588 0.03815999985 0.4065101511
v -0.02662120342 0.03815999985 0.4058030492
v -0.02691409588 0.03815999985 0.4050959379
v -0.02762120247 0.03815999985 0.4048030454
v -0.02832830906 0.03815999985 0.4050959379
v -0.02862120152 0.03815999985 0.4058030492
v -0.02832830906 0.03815999985 0.4065101511
v -0.02762120247 0.03815999985 0.40500305
v -0.02682120323 0.03815999985 0.4058030492
v -0.02705551624 0.03815999985 0.4063687307
v -0.02762120247 0.03815999985 0.4066030485
v -0.02842120171 0.03815999985 0.4058030492
v -0.02818688869 0.03815999985 0.4052373583
f 8 15 9
f 14 1 2
f 14 2 13
f 13 2 3
f 13 3 12
f 12 3 4
f 12 4 5
f 12 5 11
f 11 5 6
f 11 6 7
f 11 7 10
f 10 7 8
f 10 8 9
f 23 16 27
f 27 16 17
f 27 17 26
f 26 17 18
f 26 18 25
f 25 18 19
f 25 19 24
f 24 19 20
f 24 20 21
f 22 28 21
f 21 28 29
f 21 29 24
f 22 23 28
f 28 23 27
