v 0.2214999962 0.08569999695 0.6229999924
v 0.22 0.08229999542 0.6229999924
v 0.22 0.08229999542 0.6329999924
v 0.2214999962 0.08569999695 0.6329999924
v 0.23 0.08229999542 0.6229999924
v 0.2285000038 0.08569999695 0.6229999924
v 0.2285000038 0.08569999695 0.6329999924
v 0.23 0.08229999542 0.6329999924
v 0.2225 0.08569999695 0.6279999924
v 0.2232322311 0.08569999695 0.6262322235
v 0.225 0.08569999695 0.6254999924
v 0.2267677689 0.08569999695 0.6262322235
v 0.2275 0.08569999695 0.6279999924
v 0.2267677689 0.08569999695 0.6297677612
v 0.225 0.08569999695 0.6304999924
v 0.2232322311 0.08569999695 0.6297677612
v 0.2285000038 0.08569999695 0.6229999924
v 0.2214999962 0.08569999695 0.6229999924
v 0.2214999962 0.08569999695 0.6329999924
v 0.2285000038 0.08569999695 0.6329999924
v 0.2225 0.08229999542 0.6279999924
v 0.2232322311 0.08229999542 0.6297677612
v 0.225 0.08229999542 0.6304999924
v 0.2267677689 0.08229999542 0.6297677612
v 0.2275 0.08229999542 0.6279999924
v 0.2267677689 0.08229999542 0.6262322235
v 0.225 0.08229999542 0.6254999924
v 0.2232322311 0.08229999542 0.6262322235
v 0.22 0.08229999542 0.6229999924
v 0.23 0.08229999542 0.6229999924
v 0.23 0.08229999542 0.6329999924
v 0.22 0.08229999542 0.6329999924
v 0.2214999962 0.08569999695 0.6329999924
v 0.22 0.08229999542 0.6329999924
v 0.23 0.08229999542 0.6329999924
v 0.2285000038 0.08569999695 0.6329999924
v 0.22 0.08229999542 0.6229999924
v 0.2214999962 0.08569999695 0.6229999924
v 0.2285000038 0.08569999695 0.6229999924
v 0.23 0.08229999542 0.6229999924
v 0.2225 0.08569999695 0.6279999924
v 0.2232322311 0.08569999695 0.6297677612
v 0.225 0.08569999695 0.6304999924
v 0.2267677689 0.08569999695 0.6297677612
v 0.2275 0.08569999695 0.6279999924
v 0.2267677689 0.08569999695 0.6262322235
v 0.225 0.08569999695 0.6254999924
v 0.2232322311 0.08569999695 0.6262322235
v 0.2225 0.08229999542 0.6279999924
v 0.2232322311 0.08229999542 0.6262322235
v 0.225 0.08229999542 0.6254999924
v 0.2267677689 0.08229999542 0.6262322235
v 0.2275 0.08229999542 0.6279999924
v 0.2267677689 0.08229999542 0.6297677612
v 0.225 0.08229999542 0.6304999924
v 0.2232322311 0.08229999542 0.6297677612
v 0.2225 0.08569999695 0.6279999924
v 0.2225 0.08229999542 0.6279999924
f 1 2 4
f 4 2 3
f 5 6 8
f 8 6 7
f 10 18 9
f 9 18 19
f 9 19 16
f 16 19 15
f 15 19 20
f 15 20 14
f 14 20 13
f 13 20 17
f 13 17 12
f 12 17 11
f 11 17 18
f 11 18 10
f 22 32 21
f 21 32 29
f 21 29 28
f 28 29 27
f 27 29 30
f 27 30 26
f 26 30 25
f 25 30 31
f 25 31 24
f 24 31 23
f 23 31 32
f 23 32 22
f 34 35 33
f 33 35 36
f 38 39 37
f 37 39 40
f 42 56 41
f 41 56 58
f 57 49 48
f 48 49 50
f 48 50 51
f 42 43 56
f 56 43 55
f 55 43 44
f 55 44 54
f 54 44 45
f 54 45 53
f 53 45 46
f 53 46 52
f 52 46 47
f 52 47 51
f 51 47 48
