v 0.2434529495 0.09100000381 0.3790211851
v 0.2428405952 0.09100000381 0.3808339674
v 0.2436894226 0.09100000381 0.3825487978
v 0.245502224 0.09100000381 0.383161152
v 0.2472170448 0.09100000381 0.3823123247
v 0.2478293991 0.09100000381 0.3804995329
v 0.2469805717 0.09100000381 0.3787847025
v 0.2451677895 0.09100000381 0.3781723482
v 0.2434529495 0.09 0.3790211851
v 0.2451677895 0.09 0.3781723482
v 0.2469805717 0.09 0.3787847025
v 0.2478293991 0.09 0.3804995329
v 0.2472170448 0.09 0.3823123247
v 0.245502224 0.09 0.383161152
v 0.2436894226 0.09 0.3825487978
v 0.2428405952 0.09 0.3808339674
v 0.2434529495 0.09100000381 0.3790211851
v 0.2434529495 0.09 0.3790211851
v 0.2434529495 0.09 0.3790211851
v 0.2428405952 0.09 0.3808339674
v 0.2436894226 0.09 0.3825487978
v 0.245502224 0.09 0.383161152
v 0.2472170448 0.09 0.3823123247
v 0.2478293991 0.09 0.3804995329
v 0.2469805717 0.09 0.3787847025
v 0.2451677895 0.09 0.3781723482
v 0.2415709114 0.09 0.3773756105
v 0.2442242622 0.09 0.3757916814
v 0.2473018837 0.09 0.3760698682
v 0.2496282196 0.09 0.378103903
v 0.2503146935 0.09 0.3811168653
v 0.249099102 0.09 0.3839578897
v 0.2464457321 0.09 0.3855418188
v 0.2433681107 0.09 0.385263632
v 0.2410417747 0.09 0.3832295972
v 0.2403553009 0.09 0.3802166444
v 0.2434529495 0.09100000381 0.3790211851
v 0.2451677895 0.09100000381 0.3781723482
v 0.2469805717 0.09100000381 0.3787847025
v 0.2478293991 0.09100000381 0.3804995329
v 0.2472170448 0.09100000381 0.3823123247
v 0.245502224 0.09100000381 0.383161152
v 0.2436894226 0.09100000381 0.3825487978
v 0.2428405952 0.09100000381 0.3808339674
v 0.2415709114 0.09100000381 0.3773756105
v 0.2403553009 0.09100000381 0.3802166444
v 0.2410417747 0.09100000381 0.3832295972
v 0.2433681107 0.09100000381 0.385263632
v 0.2464457321 0.09100000381 0.3855418188
v 0.249099102 0.09100000381 0.3839578897
v 0.2503146935 0.09100000381 0.3811168653
v 0.2496282196 0.09100000381 0.378103903
v 0.2473018837 0.09100000381 0.3760698682
v 0.2442242622 0.09100000381 0.3757916814
v 0.2415709114 0.09100000381 0.3773756105
v 0.2442242622 0.09100000381 0.3757916814
v 0.2473018837 0.09100000381 0.3760698682
v 0.2496282196 0.09100000381 0.378103903
v 0.2503146935 0.09100000381 0.3811168653
v 0.249099102 0.09100000381 0.3839578897
v 0.2464457321 0.09100000381 0.3855418188
v 0.2433681107 0.09100000381 0.385263632
v 0.2410417747 0.09100000381 0.3832295972
v 0.2403553009 0.09100000381 0.3802166444
v 0.2415709114 0.09 0.3773756105
v 0.2403553009 0.09 0.3802166444
v 0.2410417747 0.09 0.3832295972
v 0.2433681107 0.09 0.385263632
v 0.2464457321 0.09 0.3855418188
v 0.249099102 0.09 0.3839578897
v 0.2503146935 0.09 0.3811168653
v 0.2496282196 0.09 0.378103903
v 0.2473018837 0.09 0.3760698682
v 0.2442242622 0.09 0.3757916814
v 0.2415709114 0.09 0.3773756105
v 0.2415709114 0.09100000381 0.3773756105
f 2 16 1
f 1 16 18
f 17 9 8
f 8 9 10
f 8 10 11
f 2 3 16
f 16 3 15
f 15 3 4
f 15 4 14
f 14 4 5
f 14 5 13
f 13 5 6
f 13 6 12
f 12 6 7
f 12 7 11
f 11 7 8
f 20 36 19
f 19 36 27
f 19 27 28
f 36 20 35
f 35 20 21
f 35 21 34
f 34 21 22
f 34 22 33
f 33 22 23
f 33 23 32
f 32 23 31
f 31 23 24
f 31 24 30
f 30 24 25
f 30 25 29
f 29 25 26
f 29 26 28
f 28 26 19
f 38 54 37
f 37 54 45
f 37 45 46
f 54 38 53
f 53 38 39
f 53 39 52
f 52 39 40
f 52 40 51
f 51 40 41
f 51 41 50
f 50 41 49
f 49 41 42
f 49 42 48
f 48 42 43
f 48 43 47
f 47 43 44
f 47 44 46
f 46 44 37
f 56 74 55
f 55 74 75
f 76 65 64
f 64 65 66
f 64 66 63
f 63 66 67
f 63 67 62
f 62 67 68
f 62 68 61
f 61 68 69
f 61 69 60
f 60 69 70
f 60 70 59
f 59 70 71
f 59 71 58
f 58 71 72
f 58 72 57
f 57 72 73
f 57 73 56
f 56 73 74
