v 0.2021649933 0.09 0.4598767549
v 0.2028972244 0.09 0.4581089861
v 0.2046649933 0.09 0.4573767549
v 0.2064327621 0.09 0.4581089861
v 0.2071649933 0.09 0.4598767549
v 0.2064327621 0.09 0.4616445238
v 0.2046649933 0.09 0.4623767549
v 0.2028972244 0.09 0.4616445238
v 0.1966650009 0.09 0.4598767549
v 0.1975813484 0.09 0.4635945398
v 0.2001204872 0.09 0.4664606172
v 0.2037007141 0.09 0.4678184206
v 0.2075018311 0.09 0.4673568803
v 0.2106530952 0.09 0.46518174
v 0.2124325371 0.09 0.4617912752
v 0.2124325371 0.09 0.4579622347
v 0.2106530952 0.09 0.4545717699
v 0.2075018311 0.09 0.4523966295
v 0.2037007141 0.09 0.4519350893
v 0.2001204872 0.09 0.4532928735
v 0.1975813484 0.09 0.45615897
v 0.2021649933 0.085 0.4598767549
v 0.2028972244 0.085 0.4616445238
v 0.2046649933 0.085 0.4623767549
v 0.2064327621 0.085 0.4616445238
v 0.2071649933 0.085 0.4598767549
v 0.2064327621 0.085 0.4581089861
v 0.2046649933 0.085 0.4573767549
v 0.2028972244 0.085 0.4581089861
v 0.1966650009 0.085 0.4598767549
v 0.1975813484 0.085 0.45615897
v 0.2001204872 0.085 0.4532928735
v 0.2037007141 0.085 0.4519350893
v 0.2075018311 0.085 0.4523966295
v 0.2106530952 0.085 0.4545717699
v 0.2124325371 0.085 0.4579622347
v 0.2124325371 0.085 0.4617912752
v 0.2106530952 0.085 0.46518174
v 0.2075018311 0.085 0.4673568803
v 0.2037007141 0.085 0.4678184206
v 0.2001204872 0.085 0.4664606172
v 0.1975813484 0.085 0.4635945398
v 0.1966650009 0.09 0.4598767549
v 0.1975813484 0.09 0.45615897
v 0.2001204872 0.09 0.4532928735
v 0.2037007141 0.09 0.4519350893
v 0.2075018311 0.09 0.4523966295
v 0.2106530952 0.09 0.4545717699
v 0.2124325371 0.09 0.4579622347
v 0.2124325371 0.09 0.4617912752
v 0.2106530952 0.09 0.46518174
v 0.2075018311 0.09 0.4673568803
v 0.2037007141 0.09 0.4678184206
v 0.2001204872 0.09 0.4664606172
v 0.1975813484 0.09 0.4635945398
v 0.1966650009 0.085 0.4598767549
v 0.1975813484 0.085 0.4635945398
v 0.2001204872 0.085 0.4664606172
v 0.2037007141 0.085 0.4678184206
v 0.2075018311 0.085 0.4673568803
v 0.2106530952 0.085 0.46518174
v 0.2124325371 0.085 0.4617912752
v 0.2124325371 0.085 0.4579622347
v 0.2106530952 0.085 0.4545717699
v 0.2075018311 0.085 0.4523966295
v 0.2037007141 0.085 0.4519350893
v 0.2001204872 0.085 0.4532928735
v 0.1975813484 0.085 0.45615897
v 0.1966650009 0.085 0.4598767549
v 0.1966650009 0.09 0.4598767549
v 0.2021649933 0.09 0.4598767549
v 0.2028972244 0.09 0.4616445238
v 0.2046649933 0.09 0.4623767549
v 0.2064327621 0.09 0.4616445238
v 0.2071649933 0.09 0.4598767549
v 0.2064327621 0.09 0.4581089861
v 0.2046649933 0.09 0.4573767549
v 0.2028972244 0.09 0.4581089861
v 0.2021649933 0.085 0.4598767549
v 0.2028972244 0.085 0.4581089861
v 0.2046649933 0.085 0.4573767549
v 0.2064327621 0.085 0.4581089861
v 0.2071649933 0.085 0.4598767549
v 0.2064327621 0.085 0.4616445238
v 0.2046649933 0.085 0.4623767549
v 0.2028972244 0.085 0.4616445238
v 0.2021649933 0.09 0.4598767549
v 0.2021649933 0.085 0.4598767549
f 2 21 1
f 1 21 9
f 1 9 10
f 21 2 20
f 20 2 3
f 20 3 19
f 19 3 18
f 18 3 4
f 18 4 17
f 17 4 16
f 16 4 5
f 16 5 15
f 15 5 6
f 15 6 14
f 14 6 13
f 13 6 7
f 13 7 12
f 12 7 11
f 11 7 8
f 11 8 10
f 10 8 1
f 23 42 22
f 22 42 30
f 22 30 31
f 42 23 41
f 41 23 24
f 41 24 40
f 40 24 39
f 39 24 25
f 39 25 38
f 38 25 37
f 37 25 26
f 37 26 36
f 36 26 27
f 36 27 35
f 35 27 34
f 34 27 28
f 34 28 33
f 33 28 32
f 32 28 29
f 32 29 31
f 31 29 22
f 44 68 43
f 43 68 69
f 70 56 55
f 55 56 57
f 55 57 54
f 54 57 58
f 54 58 53
f 53 58 59
f 53 59 52
f 52 59 60
f 52 60 51
f 51 60 61
f 51 61 50
f 50 61 62
f 50 62 49
f 49 62 63
f 49 63 48
f 48 63 64
f 48 64 47
f 47 64 65
f 47 65 46
f 46 65 66
f 46 66 45
f 45 66 67
f 45 67 44
f 44 67 68
f 72 86 71
f 71 86 88
f 87 79 78
f 78 79 80
f 78 80 81
f 72 73 86
f 86 73 85
f 85 73 74
f 85 74 84
f 84 74 75
f 84 75 83
f 83 75 76
f 83 76 82
f 82 76 77
f 82 77 81
f 81 77 78
