v 0.03657906055 0.1077000046 0.4034390718
v 0.03640203238 0.1077000046 0.4039271433
v 0.03640203238 0.1077000046 0.4044463236
v 0.03657906055 0.1077000046 0.404934395
v 0.03657992601 0.1077000046 0.4049358923
v 0.03658079147 0.1077000046 0.4049373991
v 0.0365816617 0.1077000046 0.4049388963
v 0.03691617489 0.1077000046 0.405336445
v 0.03736626387 0.1077000046 0.405595997
v 0.03787790298 0.1077000046 0.4056863958
v 0.0378790617 0.107700386 0.4056870634
v 0.03788021803 0.1077000046 0.4056863958
v 0.03839185715 0.1077000046 0.405595997
v 0.03884194613 0.1077000046 0.405336445
v 0.0391764617 0.1077000046 0.4049388963
v 0.03917732954 0.1077000046 0.4049373991
v 0.039178195 0.1077000046 0.4049358923
v 0.03917906046 0.1077000046 0.404934395
v 0.03935608864 0.1077000046 0.4044463236
v 0.03935608864 0.1077000046 0.4039271433
v 0.03917906046 0.1077000046 0.4034390718
v 0.03917838812 0.1077000046 0.4034378988
v 0.03917771578 0.1077000046 0.4034367353
v 0.03917704105 0.1077000046 0.4034355623
v 0.03884224176 0.1077000046 0.4030372602
v 0.03839149475 0.1077000046 0.4027773267
v 0.0378790617 0.1077000046 0.4026870615
v 0.03736662626 0.1077000046 0.4027773267
v 0.03691587925 0.1077000046 0.4030372602
v 0.03658107996 0.1077000046 0.4034355623
v 0.03658040762 0.1077000046 0.4034367353
v 0.03657973289 0.1077000046 0.4034378988
v 0.0378790617 0.1068341637 0.4041867334
v 0.0378790617 0.1077000046 0.4026870615
v 0.0378790617 0.1068341637 0.4041867334
v 0.0378790617 0.1068341637 0.4041867334
v 0.0378790617 0.1068341637 0.4041867334
v 0.0378790617 0.1068341637 0.4041867334
v 0.0378790617 0.1068341637 0.4041867334
v 0.0378790617 0.1068341637 0.4041867334
v 0.03917906046 0.1077000046 0.404934395
v 0.03917906046 0.1077000046 0.4049373991
v 0.03917906046 0.1089999962 0.4049373991
v 0.03917906046 0.1089999962 0.4034367353
v 0.03917906046 0.1077000046 0.4034367353
v 0.03917906046 0.1077000046 0.4034390718
v 0.03658107996 0.1077000046 0.4034355623
v 0.03657906055 0.1077000046 0.4034367353
v 0.03657906055 0.1077000046 0.4034390718
v 0.03657973289 0.1077000046 0.4034378988
v 0.03658040762 0.1077000046 0.4034367353
v 0.03657906055 0.1077000046 0.4034390718
v 0.03657906055 0.1077000046 0.4034367353
v 0.03657906055 0.1089999962 0.4034367353
v 0.03657906055 0.1089999962 0.4049373991
v 0.03657906055 0.1077000046 0.4049373991
v 0.03657906055 0.1077000046 0.404934395
v 0.03788021803 0.1077000046 0.4056863958
v 0.0378790617 0.107700386 0.4056870634
v 0.0378790617 0.1089999962 0.4056870634
v 0.03917906046 0.1089999962 0.4049373991
v 0.03917906046 0.1077000046 0.4049373991
v 0.0391764617 0.1077000046 0.4049388963
v 0.03657906055 0.1077000046 0.404934395
v 0.03657906055 0.1077000046 0.4049373991
v 0.0365816617 0.1077000046 0.4049388963
v 0.03658079147 0.1077000046 0.4049373991
v 0.03657992601 0.1077000046 0.4049358923
v 0.0365816617 0.1077000046 0.4049388963
v 0.03657906055 0.1077000046 0.4049373991
v 0.03657906055 0.1089999962 0.4049373991
v 0.0378790617 0.1089999962 0.4056870634
v 0.0378790617 0.107700386 0.4056870634
v 0.03787790298 0.1077000046 0.4056863958
v 0.03917906046 0.1077000046 0.4034390718
v 0.03917906046 0.1077000046 0.4034367353
v 0.03917704105 0.1077000046 0.4034355623
v 0.03917771578 0.1077000046 0.4034367353
v 0.03917838812 0.1077000046 0.4034378988
v 0.0391764617 0.1077000046 0.4049388963
v 0.03917906046 0.1077000046 0.4049373991
v 0.03917906046 0.1077000046 0.404934395
v 0.039178195 0.1077000046 0.4049358923
v 0.03917732954 0.1077000046 0.4049373991
v 0.03512906075 0.1060000038 0.4041867334
v 0.03593451738 0.1060000038 0.4022421915
v 0.0378790617 0.1060000038 0.4014367277
v 0.03982360363 0.1060000038 0.4022421915
v 0.04062906265 0.1060000038 0.4041867334
v 0.03982360363 0.1060000038 0.4061312753
v 0.0378790617 0.1060000038 0.4069367296
v 0.03593451738 0.1060000038 0.4061312753
v 0.03617906094 0.1060000038 0.4041867334
v 0.03702906132 0.1060000038 0.4056589777
v 0.0387290597 0.1060000038 0.4056589777
v 0.03957906008 0.1060000038 0.4041867334
v 0.0387290597 0.1060000038 0.4027144891
v 0.03702906132 0.1060000038 0.4027144891
v 0.03512906075 0.1088000011 0.4041867334
v 0.03593451738 0.1088000011 0.4022421915
v 0.0378790617 0.1088000011 0.4014367277
v 0.03982360363 0.1088000011 0.4022421915
v 0.04062906265 0.1088000011 0.4041867334
v 0.03982360363 0.1088000011 0.4061312753
v 0.0378790617 0.1088000011 0.4069367296
v 0.03593451738 0.1088000011 0.4061312753
v 0.03512906075 0.1060000038 0.4041867334
v 0.03593451738 0.1060000038 0.4061312753
v 0.0378790617 0.1060000038 0.4069367296
v 0.03982360363 0.1060000038 0.4061312753
v 0.04062906265 0.1060000038 0.4041867334
v 0.03982360363 0.1060000038 0.4022421915
v 0.0378790617 0.1060000038 0.4014367277
v 0.03593451738 0.1060000038 0.4022421915
v 0.03512906075 0.1060000038 0.4041867334
v 0.03512906075 0.1088000011 0.4041867334
v 0.03532906055 0.1089999962 0.4041867334
v 0.03607593775 0.1089999962 0.4023836118
v 0.0378790617 0.1089999962 0.4016367323
v 0.03968218327 0.1089999962 0.4023836118
v 0.04042906284 0.1089999962 0.4041867334
v 0.03968218327 0.1089999962 0.405989855
v 0.0378790617 0.1089999962 0.4067367345
v 0.03607593775 0.1089999962 0.405989855
v 0.03512906075 0.1088000011 0.4041867334
v 0.03593451738 0.1088000011 0.4061312753
v 0.0378790617 0.1088000011 0.4069367296
v 0.03982360363 0.1088000011 0.4061312753
v 0.04062906265 0.1088000011 0.4041867334
v 0.03982360363 0.1088000011 0.4022421915
v 0.0378790617 0.1088000011 0.4014367277
v 0.03593451738 0.1088000011 0.4022421915
v 0.03607593775 0.1089999962 0.4023836118
v 0.03593451738 0.1088000011 0.4022421915
v 0.03532906055 0.1089999962 0.4041867334
v 0.03607593775 0.1089999962 0.405989855
v 0.0378790617 0.1089999962 0.4067367345
v 0.03968218327 0.1089999962 0.405989855
v 0.04042906284 0.1089999962 0.4041867334
v 0.03968218327 0.1089999962 0.4023836118
v 0.0378790617 0.1089999962 0.4016367323
v 0.03607593775 0.1089999962 0.4023836118
v 0.0378790617 0.1089999962 0.4026870615
v 0.03917906046 0.1089999962 0.4034367353
v 0.03917906046 0.1089999962 0.4049373991
v 0.0378790617 0.1089999962 0.4056870634
v 0.03657906055 0.1089999962 0.4049373991
v 0.03657906055 0.1089999962 0.4034367353
v 0.0378790617 0.1077000046 0.4026870615
v 0.0378790617 0.1089999962 0.4026870615
v 0.03657906055 0.1089999962 0.4034367353
v 0.03657906055 0.1077000046 0.4034367353
v 0.03658107996 0.1077000046 0.4034355623
v 0.03658107996 0.1077000046 0.4034355623
v 0.03691587925 0.1077000046 0.4030372602
v 0.03736662626 0.1077000046 0.4027773267
v 0.0378790617 0.1077000046 0.4026870615
v 0.03657906055 0.1077000046 0.404934395
v 0.03640203238 0.1077000046 0.4044463236
v 0.03640203238 0.1077000046 0.4039271433
v 0.03657906055 0.1077000046 0.4034390718
v 0.03617906094 0.1060000038 0.4041867334
v 0.03702906132 0.1060000038 0.4027144891
v 0.0387290597 0.1060000038 0.4027144891
v 0.03957906008 0.1060000038 0.4041867334
v 0.0387290597 0.1060000038 0.4056589777
v 0.03702906132 0.1060000038 0.4056589777
v 0.03637906075 0.1057999992 0.4041867334
v 0.03712906122 0.1057999992 0.4054857713
v 0.03862905979 0.1057999992 0.4054857713
v 0.03937906027 0.1057999992 0.4041867334
v 0.03862905979 0.1057999992 0.4028876955
v 0.03712906122 0.1057999992 0.4028876955
v 0.03957906008 0.1060000038 0.4041867334
v 0.03937906027 0.1057999992 0.4041867334
v 0.03787790298 0.1077000046 0.4056863958
v 0.03736626387 0.1077000046 0.405595997
v 0.03691617489 0.1077000046 0.405336445
v 0.0365816617 0.1077000046 0.4049388963
v 0.0378790617 0.09630000114 0.4056867296
v 0.03917809963 0.09630000114 0.4049367315
v 0.03917809963 0.09630000114 0.4034367353
v 0.0378790617 0.09630000114 0.4026867277
v 0.03658002377 0.09630000114 0.4034367353
v 0.03658002377 0.09630000114 0.4049367315
v 0.03637906075 0.1057999992 0.4041867334
v 0.03712906122 0.1057999992 0.4028876955
v 0.03862905979 0.1057999992 0.4028876955
v 0.03937906027 0.1057999992 0.4041867334
v 0.03862905979 0.1057999992 0.4054857713
v 0.03712906122 0.1057999992 0.4054857713
v 0.03917809963 0.09630000114 0.4049367315
v 0.03937906027 0.1057999992 0.4041867334
v 0.0391764617 0.1077000046 0.4049388963
v 0.03884194613 0.1077000046 0.405336445
v 0.03839185715 0.1077000046 0.405595997
v 0.03788021803 0.1077000046 0.4056863958
v 0.0378790617 0.09630000114 0.4056867296
v 0.03658002377 0.09630000114 0.4049367315
v 0.03658002377 0.09630000114 0.4034367353
v 0.0378790617 0.09630000114 0.4026867277
v 0.03917809963 0.09630000114 0.4034367353
v 0.03917809963 0.09630000114 0.4049367315
v 0.03667906046 0.09600000381 0.4041867334
v 0.03750823975 0.09600000381 0.4053279955
v 0.0388498807 0.09600000381 0.4048920709
v 0.0388498807 0.09600000381 0.4034813863
v 0.03750823975 0.09600000381 0.4030454618
v 0.0388498807 0.09600000381 0.4034813863
v 0.0378790617 0.09630000114 0.4026867277
v 0.03917906046 0.1077000046 0.4034390718
v 0.03935608864 0.1077000046 0.4039271433
v 0.03935608864 0.1077000046 0.4044463236
v 0.03917906046 0.1077000046 0.404934395
v 0.03917704105 0.1077000046 0.4034355623
v 0.03917906046 0.1077000046 0.4034367353
v 0.03917906046 0.1089999962 0.4034367353
v 0.0378790617 0.1089999962 0.4026870615
v 0.0378790617 0.1077000046 0.4026870615
v 0.03667906046 0.09600000381 0.4041867334
v 0.03750823975 0.09600000381 0.4030454618
v 0.0388498807 0.09600000381 0.4034813863
v 0.0388498807 0.09600000381 0.4048920709
v 0.03750823975 0.09600000381 0.4053279955
v 0.0378790617 0.1077000046 0.4026870615
v 0.03839149475 0.1077000046 0.4027773267
v 0.03884224176 0.1077000046 0.4030372602
v 0.03917704105 0.1077000046 0.4034355623
f 32 1 40
f 40 1 2
f 40 2 3
f 3 4 40
f 40 4 5
f 5 6 37
f 37 6 7
f 37 7 8
f 8 9 37
f 37 9 10
f 11 12 10
f 10 12 39
f 12 13 39
f 39 13 14
f 39 14 15
f 15 16 39
f 16 17 36
f 36 17 18
f 36 18 19
f 19 20 36
f 36 20 21
f 36 21 22
f 22 23 38
f 38 23 24
f 38 24 25
f 25 26 38
f 26 34 33
f 35 27 28
f 35 28 29
f 29 30 35
f 35 30 31
f 31 32 40
f 42 43 41
f 41 43 44
f 41 44 46
f 46 44 45
f 47 48 51
f 51 48 50
f 50 48 49
f 53 54 52
f 52 54 57
f 57 54 55
f 57 55 56
f 59 60 58
f 58 60 63
f 63 60 61
f 63 61 62
f 64 65 68
f 68 65 67
f 67 65 66
f 70 71 69
f 69 71 72
f 69 72 74
f 74 72 73
f 75 76 79
f 79 76 78
f 78 76 77
f 80 81 84
f 84 81 83
f 83 81 82
f 92 85 93
f 93 85 86
f 93 86 98
f 98 86 87
f 98 87 97
f 97 87 88
f 97 88 96
f 96 88 89
f 96 89 90
f 96 90 95
f 95 90 91
f 95 91 94
f 94 91 92
f 94 92 93
f 100 114 99
f 99 114 115
f 116 107 106
f 106 107 108
f 106 108 105
f 105 108 109
f 105 109 104
f 104 109 110
f 104 110 103
f 103 110 111
f 103 111 102
f 102 111 112
f 102 112 101
f 101 112 113
f 101 113 100
f 100 113 114
f 124 117 125
f 125 117 133
f 125 133 132
f 134 118 131
f 131 118 119
f 131 119 130
f 130 119 120
f 130 120 129
f 129 120 121
f 129 121 128
f 128 121 122
f 128 122 127
f 127 122 123
f 127 123 126
f 126 123 124
f 126 124 125
f 136 147 135
f 135 147 148
f 135 148 142
f 142 148 143
f 142 143 141
f 141 143 140
f 140 143 144
f 140 144 139
f 139 144 145
f 139 145 138
f 138 145 146
f 138 146 137
f 137 146 136
f 136 146 147
f 149 150 153
f 153 150 151
f 153 151 152
f 154 155 157
f 157 155 156
f 158 159 161
f 161 159 160
f 163 168 162
f 162 168 169
f 162 169 167
f 167 169 170
f 167 170 166
f 166 170 175
f 166 175 165
f 174 171 172
f 174 172 164
f 164 172 173
f 164 173 163
f 163 173 168
f 177 178 176
f 176 178 179
f 192 190 180
f 180 190 191
f 180 191 185
f 185 191 186
f 185 186 184
f 184 186 187
f 184 187 183
f 183 187 188
f 183 188 182
f 182 188 193
f 182 193 181
f 192 189 190
f 194 195 197
f 197 195 196
f 199 205 198
f 198 205 206
f 198 206 203
f 203 206 209
f 203 209 202
f 202 209 201
f 210 207 208
f 210 208 200
f 200 208 204
f 200 204 199
f 199 204 205
f 212 213 211
f 211 213 214
f 216 217 215
f 215 217 218
f 215 218 219
f 220 221 224
f 224 221 223
f 223 221 222
f 226 227 225
f 225 227 228
