v -0.0603612407 -0.02299999952 0.3238728126
v -0.061021617 -0.02299999952 0.3210123893
v -0.06323718503 -0.02299999952 0.3190864163
v -0.06616167455 -0.02299999952 0.3188305546
v -0.06867802795 -0.02299999952 0.3203425245
v -0.06982508832 -0.02299999952 0.3230448159
v -0.06916471202 -0.02299999952 0.3259052345
v -0.066949144 -0.02299999952 0.3278312075
v -0.06402465447 -0.02299999952 0.3280870739
v -0.06150830107 -0.02299999952 0.3265750992
v -0.06056047754 -0.02279999971 0.3238553791
v -0.06165923888 -0.02279999971 0.3264438877
v -0.06406964372 -0.02279999971 0.3278922
v -0.0668709996 -0.02279999971 0.3276471055
v -0.06899327935 -0.02279999971 0.3258022284
v -0.06962585148 -0.02279999971 0.3230622447
v -0.06852708538 -0.02279999971 0.3204737361
v -0.06611668531 -0.02279999971 0.3190254285
v -0.06331532942 -0.02279999971 0.3192705182
v -0.06119304968 -0.02279999971 0.3211153954
v -0.06982508832 -0.02299999952 0.3230448159
v -0.06962585148 -0.02279999971 0.3230622447
v -0.06056047754 -0.02579999924 0.3238553791
v -0.06119304968 -0.02579999924 0.3211153954
v -0.06331532942 -0.02579999924 0.3192705182
v -0.06611668531 -0.02579999924 0.3190254285
v -0.06852708538 -0.02579999924 0.3204737361
v -0.06962585148 -0.02579999924 0.3230622447
v -0.06899327935 -0.02579999924 0.3258022284
v -0.0668709996 -0.02579999924 0.3276471055
v -0.06406964372 -0.02579999924 0.3278922
v -0.06165923888 -0.02579999924 0.3264438877
v -0.0603612407 -0.02559999943 0.3238728126
v -0.06150830107 -0.02559999943 0.3265750992
v -0.06402465447 -0.02559999943 0.3280870739
v -0.066949144 -0.02559999943 0.3278312075
v -0.06916471202 -0.02559999943 0.3259052345
v -0.06982508832 -0.02559999943 0.3230448159
v -0.06867802795 -0.02559999943 0.3203425245
v -0.06616167455 -0.02559999943 0.3188305546
v -0.06323718503 -0.02559999943 0.3190864163
v -0.061021617 -0.02559999943 0.3210123893
v -0.06962585148 -0.02579999924 0.3230622447
v -0.06982508832 -0.02559999943 0.3230448159
v -0.06240343857 -0.02279999971 0.3236941381
v -0.06302483976 -0.02279999971 0.321723288
v -0.06485783827 -0.02279999971 0.3207690859
v -0.0668286884 -0.02279999971 0.3213904871
v -0.06778289045 -0.02279999971 0.3232234856
v -0.06716148926 -0.02279999971 0.3251943358
v -0.06532849075 -0.02279999971 0.3261485378
v -0.06335764063 -0.02279999971 0.3255271366
v -0.06260268018 -0.02299999952 0.3236767046
v -0.06348620042 -0.02299999952 0.3253739286
v -0.06531105724 -0.02299999952 0.325949301
v -0.06700827649 -0.02299999952 0.325065776
v -0.06758364884 -0.02299999952 0.3232409191
v -0.0667001286 -0.02299999952 0.3215436999
v -0.06487527179 -0.02299999952 0.3209683275
v -0.06317805253 -0.02299999952 0.3218518478
v -0.06778289045 -0.02279999971 0.3232234856
v -0.06758364884 -0.02299999952 0.3232409191
v -0.06260268018 -0.02559999943 0.3236767046
v -0.06317805253 -0.02559999943 0.3218518478
v -0.06487527179 -0.02559999943 0.3209683275
v -0.0667001286 -0.02559999943 0.3215436999
v -0.06758364884 -0.02559999943 0.3232409191
v -0.06700827649 -0.02559999943 0.325065776
v -0.06531105724 -0.02559999943 0.325949301
v -0.06348620042 -0.02559999943 0.3253739286
v -0.06240343857 -0.02579999924 0.3236941381
v -0.06335764063 -0.02579999924 0.3255271366
v -0.06532849075 -0.02579999924 0.3261485378
v -0.06716148926 -0.02579999924 0.3251943358
v -0.06778289045 -0.02579999924 0.3232234856
v -0.0668286884 -0.02579999924 0.3213904871
v -0.06485783827 -0.02579999924 0.3207690859
v -0.06302483976 -0.02579999924 0.321723288
v -0.06758364884 -0.02559999943 0.3232409191
v -0.06778289045 -0.02579999924 0.3232234856
v -0.06260268018 -0.02299999952 0.3236767046
v -0.06317805253 -0.02299999952 0.3218518478
v -0.06487527179 -0.02299999952 0.3209683275
v -0.0667001286 -0.02299999952 0.3215436999
v -0.06758364884 -0.02299999952 0.3232409191
v -0.06700827649 -0.02299999952 0.325065776
v -0.06531105724 -0.02299999952 0.325949301
v -0.06348620042 -0.02299999952 0.3253739286
v -0.06260268018 -0.02559999943 0.3236767046
v -0.06348620042 -0.02559999943 0.3253739286
v -0.06531105724 -0.02559999943 0.325949301
v -0.06700827649 -0.02559999943 0.325065776
v -0.06758364884 -0.02559999943 0.3232409191
v -0.0667001286 -0.02559999943 0.3215436999
v -0.06487527179 -0.02559999943 0.3209683275
v -0.06317805253 -0.02559999943 0.3218518478
v -0.06260268018 -0.02559999943 0.3236767046
v -0.06260268018 -0.02299999952 0.3236767046
v -0.0603612407 -0.02299999952 0.3238728126
v -0.06150830107 -0.02299999952 0.3265750992
v -0.06402465447 -0.02299999952 0.3280870739
v -0.066949144 -0.02299999952 0.3278312075
v -0.06916471202 -0.02299999952 0.3259052345
v -0.06982508832 -0.02299999952 0.3230448159
v -0.06867802795 -0.02299999952 0.3203425245
v -0.06616167455 -0.02299999952 0.3188305546
v -0.06323718503 -0.02299999952 0.3190864163
v -0.061021617 -0.02299999952 0.3210123893
v -0.0603612407 -0.02559999943 0.3238728126
v -0.061021617 -0.02559999943 0.3210123893
v -0.06323718503 -0.02559999943 0.3190864163
v -0.06616167455 -0.02559999943 0.3188305546
v -0.06867802795 -0.02559999943 0.3203425245
v -0.06982508832 -0.02559999943 0.3230448159
v -0.06916471202 -0.02559999943 0.3259052345
v -0.066949144 -0.02559999943 0.3278312075
v -0.06402465447 -0.02559999943 0.3280870739
v -0.06150830107 -0.02559999943 0.3265750992
v -0.0603612407 -0.02299999952 0.3238728126
v -0.0603612407 -0.02559999943 0.3238728126
v -0.06056047754 -0.02279999971 0.3238553791
v -0.06119304968 -0.02279999971 0.3211153954
v -0.06331532942 -0.02279999971 0.3192705182
v -0.06611668531 -0.02279999971 0.3190254285
v -0.06852708538 -0.02279999971 0.3204737361
v -0.06962585148 -0.02279999971 0.3230622447
v -0.06899327935 -0.02279999971 0.3258022284
v -0.0668709996 -0.02279999971 0.3276471055
v -0.06406964372 -0.02279999971 0.3278922
v -0.06165923888 -0.02279999971 0.3264438877
v -0.06240343857 -0.02279999971 0.3236941381
v -0.06335764063 -0.02279999971 0.3255271366
v -0.06532849075 -0.02279999971 0.3261485378
v -0.06716148926 -0.02279999971 0.3251943358
v -0.06778289045 -0.02279999971 0.3232234856
v -0.0668286884 -0.02279999971 0.3213904871
v -0.06485783827 -0.02279999971 0.3207690859
v -0.06302483976 -0.02279999971 0.321723288
v -0.06056047754 -0.02579999924 0.3238553791
v -0.06165923888 -0.02579999924 0.3264438877
v -0.06406964372 -0.02579999924 0.3278922
v -0.0668709996 -0.02579999924 0.3276471055
v -0.06899327935 -0.02579999924 0.3258022284
v -0.06962585148 -0.02579999924 0.3230622447
v -0.06852708538 -0.02579999924 0.3204737361
v -0.06611668531 -0.02579999924 0.3190254285
v -0.06331532942 -0.02579999924 0.3192705182
v -0.06119304968 -0.02579999924 0.3211153954
v -0.06240343857 -0.02579999924 0.3236941381
v -0.06302483976 -0.02579999924 0.321723288
v -0.06485783827 -0.02579999924 0.3207690859
v -0.0668286884 -0.02579999924 0.3213904871
v -0.06778289045 -0.02579999924 0.3232234856
v -0.06716148926 -0.02579999924 0.3251943358
v -0.06532849075 -0.02579999924 0.3261485378
v -0.06335764063 -0.02579999924 0.3255271366
f 2 20 1
f 1 20 11
f 1 11 10
f 10 11 12
f 10 12 9
f 9 12 13
f 9 13 8
f 8 13 14
f 8 14 7
f 7 14 15
f 7 15 6
f 6 15 22
f 21 16 5
f 5 16 17
f 5 17 4
f 4 17 18
f 4 18 3
f 3 18 19
f 3 19 2
f 2 19 20
f 24 42 23
f 23 42 33
f 23 33 32
f 32 33 34
f 32 34 31
f 31 34 35
f 31 35 30
f 30 35 36
f 30 36 29
f 29 36 37
f 29 37 28
f 28 37 44
f 43 38 27
f 27 38 39
f 27 39 26
f 26 39 40
f 26 40 25
f 25 40 41
f 25 41 24
f 24 41 42
f 46 60 45
f 45 60 53
f 45 53 52
f 52 53 54
f 52 54 51
f 51 54 55
f 51 55 50
f 50 55 56
f 50 56 49
f 49 56 62
f 61 57 48
f 48 57 58
f 48 58 47
f 47 58 59
f 47 59 46
f 46 59 60
f 64 78 63
f 63 78 71
f 63 71 70
f 70 71 72
f 70 72 69
f 69 72 73
f 69 73 68
f 68 73 74
f 68 74 67
f 67 74 80
f 79 75 66
f 66 75 76
f 66 76 65
f 65 76 77
f 65 77 64
f 64 77 78
f 82 96 81
f 81 96 97
f 98 89 88
f 88 89 90
f 88 90 91
f 82 83 96
f 96 83 95
f 95 83 84
f 95 84 94
f 94 84 85
f 94 85 93
f 93 85 86
f 93 86 92
f 92 86 87
f 92 87 91
f 91 87 88
f 100 118 99
f 99 118 120
f 119 109 108
f 108 109 110
f 108 110 107
f 107 110 111
f 107 111 106
f 106 111 112
f 106 112 105
f 105 112 113
f 105 113 104
f 104 113 114
f 104 114 103
f 103 114 115
f 103 115 102
f 102 115 116
f 102 116 101
f 101 116 117
f 101 117 100
f 100 117 118
f 130 121 131
f 131 121 122
f 131 122 138
f 138 122 123
f 138 123 137
f 137 123 124
f 137 124 136
f 136 124 125
f 136 125 135
f 135 125 126
f 135 126 127
f 135 127 134
f 134 127 128
f 134 128 133
f 133 128 129
f 133 129 132
f 132 129 130
f 132 130 131
f 148 139 149
f 149 139 140
f 149 140 156
f 156 140 141
f 156 141 155
f 155 141 142
f 155 142 154
f 154 142 143
f 154 143 153
f 153 143 144
f 153 144 145
f 153 145 152
f 152 145 146
f 152 146 151
f 151 146 147
f 151 147 150
f 150 147 148
f 150 148 149
