v -0.24 0.04474999905 0.02799999952
v -0.24 0.04393832207 0.02550191164
v -0.24 0.04181332111 0.02395801067
v -0.24 0.03918667793 0.02395801067
v -0.24 0.03706167698 0.02550191164
v -0.24 0.03625 0.02799999952
v -0.24 0.03706167698 0.03049808741
v -0.24 0.03918667793 0.03204199076
v -0.24 0.04181332111 0.03204199076
v -0.24 0.04393832207 0.03049808741
v -0.245 0.04474999905 0.02799999952
v -0.245 0.04393832207 0.03049808741
v -0.245 0.04181332111 0.03204199076
v -0.245 0.03918667793 0.03204199076
v -0.245 0.03706167698 0.03049808741
v -0.245 0.03625 0.02799999952
v -0.245 0.03706167698 0.02550191164
v -0.245 0.03918667793 0.02395801067
v -0.245 0.04181332111 0.02395801067
v -0.245 0.04393832207 0.02550191164
v -0.245 0.04474999905 0.02799999952
v -0.24 0.04474999905 0.02799999952
v -0.245 0.04474999905 0.02799999952
v -0.245 0.04393832207 0.02550191164
v -0.245 0.04181332111 0.02395801067
v -0.245 0.03918667793 0.02395801067
v -0.245 0.03706167698 0.02550191164
v -0.245 0.03625 0.02799999952
v -0.245 0.03706167698 0.03049808741
v -0.245 0.03918667793 0.03204199076
v -0.245 0.04181332111 0.03204199076
v -0.245 0.04393832207 0.03049808741
v -0.24 0.04474999905 0.02799999952
v -0.24 0.04393832207 0.03049808741
v -0.24 0.04181332111 0.03204199076
v -0.24 0.03918667793 0.03204199076
v -0.24 0.03706167698 0.03049808741
v -0.24 0.03625 0.02799999952
v -0.24 0.03706167698 0.02550191164
v -0.24 0.03918667793 0.02395801067
v -0.24 0.04181332111 0.02395801067
v -0.24 0.04393832207 0.02550191164
v -0.24 0.04300000191 0.02799999952
v -0.24 0.042267766 0.02623223305
v -0.24 0.04050000191 0.02549999952
v -0.24 0.03873223305 0.02623223305
v -0.24 0.03799999952 0.02799999952
v -0.24 0.03873223305 0.029767766
v -0.24 0.04050000191 0.03049999952
v -0.24 0.042267766 0.029767766
v -0.23 0.04300000191 0.02799999952
v -0.23 0.042267766 0.029767766
v -0.23 0.04050000191 0.03049999952
v -0.23 0.03873223305 0.029767766
v -0.23 0.03799999952 0.02799999952
v -0.23 0.03873223305 0.02623223305
v -0.23 0.04050000191 0.02549999952
v -0.23 0.042267766 0.02623223305
v -0.23 0.04300000191 0.02799999952
v -0.23 0.042267766 0.02623223305
v -0.23 0.04050000191 0.02549999952
v -0.23 0.03873223305 0.02623223305
v -0.23 0.03799999952 0.02799999952
v -0.23 0.03873223305 0.029767766
v -0.23 0.04050000191 0.03049999952
v -0.23 0.042267766 0.029767766
v -0.24 0.04300000191 0.02799999952
v -0.24 0.042267766 0.029767766
v -0.24 0.04050000191 0.03049999952
v -0.24 0.03873223305 0.029767766
v -0.24 0.03799999952 0.02799999952
v -0.24 0.03873223305 0.02623223305
v -0.24 0.04050000191 0.02549999952
v -0.24 0.042267766 0.02623223305
v -0.24 0.04300000191 0.02799999952
v -0.23 0.04300000191 0.02799999952
f 2 20 1
f 1 20 21
f 22 11 10
f 10 11 12
f 10 12 9
f 9 12 13
f 9 13 8
f 8 13 14
f 8 14 7
f 7 14 15
f 7 15 6
f 6 15 16
f 6 16 5
f 5 16 17
f 5 17 4
f 4 17 18
f 4 18 3
f 3 18 19
f 3 19 2
f 2 19 20
f 24 27 23
f 23 27 28
f 23 28 32
f 32 28 29
f 32 29 31
f 31 29 30
f 25 26 24
f 24 26 27
f 42 33 43
f 43 33 34
f 43 34 50
f 50 34 35
f 50 35 49
f 49 35 36
f 49 36 48
f 48 36 37
f 48 37 47
f 47 37 38
f 47 38 39
f 47 39 46
f 46 39 40
f 46 40 45
f 45 40 41
f 45 41 44
f 44 41 42
f 44 42 43
f 52 54 51
f 51 54 55
f 51 55 58
f 58 55 56
f 58 56 57
f 52 53 54
f 60 74 59
f 59 74 75
f 76 67 66
f 66 67 68
f 66 68 69
f 60 61 74
f 74 61 73
f 73 61 62
f 73 62 72
f 72 62 63
f 72 63 71
f 71 63 64
f 71 64 70
f 70 64 65
f 70 65 69
f 69 65 66
