v 0.245 0.03625 0.02799999952
v 0.245 0.03706167698 0.02550191164
v 0.245 0.03918667793 0.02395801067
v 0.245 0.04181332111 0.02395801067
v 0.245 0.04393832207 0.02550191164
v 0.245 0.04474999905 0.02799999952
v 0.245 0.04393832207 0.03049808741
v 0.245 0.04181332111 0.03204199076
v 0.245 0.03918667793 0.03204199076
v 0.245 0.03706167698 0.03049808741
v 0.24 0.03625 0.02799999952
v 0.24 0.03706167698 0.02550191164
v 0.24 0.03918667793 0.02395801067
v 0.24 0.04181332111 0.02395801067
v 0.24 0.04393832207 0.02550191164
v 0.24 0.04474999905 0.02799999952
v 0.24 0.04393832207 0.03049808741
v 0.24 0.04181332111 0.03204199076
v 0.24 0.03918667793 0.03204199076
v 0.24 0.03706167698 0.03049808741
v 0.245 0.03625 0.02799999952
v 0.245 0.03706167698 0.03049808741
v 0.245 0.03918667793 0.03204199076
v 0.245 0.04181332111 0.03204199076
v 0.245 0.04393832207 0.03049808741
v 0.245 0.04474999905 0.02799999952
v 0.245 0.04393832207 0.02550191164
v 0.245 0.04181332111 0.02395801067
v 0.245 0.03918667793 0.02395801067
v 0.245 0.03706167698 0.02550191164
v 0.245 0.03625 0.02799999952
v 0.24 0.03625 0.02799999952
v 0.24 0.03625 0.02799999952
v 0.24 0.03706167698 0.03049808741
v 0.24 0.03918667793 0.03204199076
v 0.24 0.04181332111 0.03204199076
v 0.24 0.04393832207 0.03049808741
v 0.24 0.04474999905 0.02799999952
v 0.24 0.04393832207 0.02550191164
v 0.24 0.04181332111 0.02395801067
v 0.24 0.03918667793 0.02395801067
v 0.24 0.03706167698 0.02550191164
v 0.24 0.03799999952 0.02799999952
v 0.24 0.03873223305 0.02623223305
v 0.24 0.04050000191 0.02549999952
v 0.24 0.042267766 0.02623223305
v 0.24 0.04300000191 0.02799999952
v 0.24 0.042267766 0.029767766
v 0.24 0.04050000191 0.03049999952
v 0.24 0.03873223305 0.029767766
v 0.23 0.03799999952 0.02799999952
v 0.23 0.03873223305 0.02623223305
v 0.23 0.04050000191 0.02549999952
v 0.23 0.042267766 0.02623223305
v 0.23 0.04300000191 0.02799999952
v 0.23 0.042267766 0.029767766
v 0.23 0.04050000191 0.03049999952
v 0.23 0.03873223305 0.029767766
v 0.24 0.03799999952 0.02799999952
v 0.24 0.03873223305 0.029767766
v 0.24 0.04050000191 0.03049999952
v 0.24 0.042267766 0.029767766
v 0.24 0.04300000191 0.02799999952
v 0.24 0.042267766 0.02623223305
v 0.24 0.04050000191 0.02549999952
v 0.24 0.03873223305 0.02623223305
v 0.24 0.03799999952 0.02799999952
v 0.23 0.03799999952 0.02799999952
v 0.23 0.03799999952 0.02799999952
v 0.23 0.03873223305 0.029767766
v 0.23 0.04050000191 0.03049999952
v 0.23 0.042267766 0.029767766
v 0.23 0.04300000191 0.02799999952
v 0.23 0.042267766 0.02623223305
v 0.23 0.04050000191 0.02549999952
v 0.23 0.03873223305 0.02623223305
f 2 5 1
f 1 5 6
f 1 6 10
f 10 6 7
f 10 7 9
f 9 7 8
f 3 4 2
f 2 4 5
f 12 30 11
f 11 30 31
f 32 21 20
f 20 21 22
f 20 22 19
f 19 22 23
f 19 23 18
f 18 23 24
f 18 24 17
f 17 24 25
f 17 25 16
f 16 25 26
f 16 26 15
f 15 26 27
f 15 27 14
f 14 27 28
f 14 28 13
f 13 28 29
f 13 29 12
f 12 29 30
f 42 33 43
f 43 33 34
f 43 34 50
f 50 34 35
f 50 35 49
f 49 35 36
f 49 36 48
f 48 36 37
f 48 37 47
f 47 37 38
f 47 38 39
f 47 39 46
f 46 39 40
f 46 40 45
f 45 40 41
f 45 41 44
f 44 41 42
f 44 42 43
f 52 66 51
f 51 66 67
f 68 59 58
f 58 59 60
f 58 60 61
f 52 53 66
f 66 53 65
f 65 53 54
f 65 54 64
f 64 54 55
f 64 55 63
f 63 55 56
f 63 56 62
f 62 56 57
f 62 57 61
f 61 57 58
f 70 72 69
f 69 72 73
f 69 73 76
f 76 73 74
f 76 74 75
f 70 71 72
