v 0.24 0.08625 0.07800000191
v 0.24 0.08706168175 0.08049808502
v 0.24 0.08918667793 0.08204198837
v 0.24 0.09181332588 0.08204198837
v 0.24 0.09393832207 0.08049808502
v 0.24 0.09475000381 0.07800000191
v 0.24 0.09393832207 0.07550191402
v 0.24 0.09181332588 0.07395801067
v 0.24 0.08918667793 0.07395801067
v 0.24 0.08706168175 0.07550191402
v 0.24 0.08800000191 0.07800000191
v 0.24 0.08873223305 0.07623223305
v 0.24 0.09050000191 0.07550000191
v 0.24 0.09226777077 0.07623223305
v 0.24 0.09300000191 0.07800000191
v 0.24 0.09226777077 0.079767766
v 0.24 0.09050000191 0.08050000191
v 0.24 0.08873223305 0.079767766
v 0.245 0.08625 0.07800000191
v 0.245 0.08706168175 0.07550191402
v 0.245 0.08918667793 0.07395801067
v 0.245 0.09181332588 0.07395801067
v 0.245 0.09393832207 0.07550191402
v 0.245 0.09475000381 0.07800000191
v 0.245 0.09393832207 0.08049808502
v 0.245 0.09181332588 0.08204198837
v 0.245 0.08918667793 0.08204198837
v 0.245 0.08706168175 0.08049808502
v 0.23 0.08800000191 0.07800000191
v 0.23 0.08873223305 0.079767766
v 0.23 0.09050000191 0.08050000191
v 0.23 0.09226777077 0.079767766
v 0.23 0.09300000191 0.07800000191
v 0.23 0.09226777077 0.07623223305
v 0.23 0.09050000191 0.07550000191
v 0.23 0.08873223305 0.07623223305
v 0.24 0.08625 0.07800000191
v 0.24 0.08706168175 0.07550191402
v 0.24 0.08918667793 0.07395801067
v 0.24 0.09181332588 0.07395801067
v 0.24 0.09393832207 0.07550191402
v 0.24 0.09475000381 0.07800000191
v 0.24 0.09393832207 0.08049808502
v 0.24 0.09181332588 0.08204198837
v 0.24 0.08918667793 0.08204198837
v 0.24 0.08706168175 0.08049808502
v 0.245 0.08625 0.07800000191
v 0.245 0.08706168175 0.08049808502
v 0.245 0.08918667793 0.08204198837
v 0.245 0.09181332588 0.08204198837
v 0.245 0.09393832207 0.08049808502
v 0.245 0.09475000381 0.07800000191
v 0.245 0.09393832207 0.07550191402
v 0.245 0.09181332588 0.07395801067
v 0.245 0.08918667793 0.07395801067
v 0.245 0.08706168175 0.07550191402
v 0.245 0.08625 0.07800000191
v 0.24 0.08625 0.07800000191
v 0.23 0.08800000191 0.07800000191
v 0.23 0.08873223305 0.07623223305
v 0.23 0.09050000191 0.07550000191
v 0.23 0.09226777077 0.07623223305
v 0.23 0.09300000191 0.07800000191
v 0.23 0.09226777077 0.079767766
v 0.23 0.09050000191 0.08050000191
v 0.23 0.08873223305 0.079767766
v 0.24 0.08800000191 0.07800000191
v 0.24 0.08873223305 0.079767766
v 0.24 0.09050000191 0.08050000191
v 0.24 0.09226777077 0.079767766
v 0.24 0.09300000191 0.07800000191
v 0.24 0.09226777077 0.07623223305
v 0.24 0.09050000191 0.07550000191
v 0.24 0.08873223305 0.07623223305
v 0.24 0.08800000191 0.07800000191
v 0.23 0.08800000191 0.07800000191
f 10 1 11
f 11 1 2
f 11 2 18
f 18 2 3
f 18 3 17
f 17 3 4
f 17 4 16
f 16 4 5
f 16 5 15
f 15 5 6
f 15 6 7
f 15 7 14
f 14 7 8
f 14 8 13
f 13 8 9
f 13 9 12
f 12 9 10
f 12 10 11
f 20 23 19
f 19 23 24
f 19 24 28
f 28 24 25
f 28 25 27
f 27 25 26
f 21 22 20
f 20 22 23
f 30 32 29
f 29 32 33
f 29 33 36
f 36 33 34
f 36 34 35
f 30 31 32
f 38 56 37
f 37 56 57
f 58 47 46
f 46 47 48
f 46 48 45
f 45 48 49
f 45 49 44
f 44 49 50
f 44 50 43
f 43 50 51
f 43 51 42
f 42 51 52
f 42 52 41
f 41 52 53
f 41 53 40
f 40 53 54
f 40 54 39
f 39 54 55
f 39 55 38
f 38 55 56
f 60 74 59
f 59 74 75
f 76 67 66
f 66 67 68
f 66 68 69
f 60 61 74
f 74 61 73
f 73 61 62
f 73 62 72
f 72 62 63
f 72 63 71
f 71 63 64
f 71 64 70
f 70 64 65
f 70 65 69
f 69 65 66
