v -0.2073412704 0.07800000191 0.4575367433
v -0.20521101 0.07800000191 0.4563639337
v -0.2028252792 0.07800000191 0.4568348009
v -0.2013003731 0.07800000191 0.458729027
v -0.2013497925 0.07800000191 0.4611602861
v -0.2029504585 0.07800000191 0.4629909784
v -0.2053533554 0.07800000191 0.4633644754
v -0.2074341774 0.07800000191 0.4621060259
v -0.2082192612 0.07800000191 0.4598044855
v -0.2073412704 0.07550000191 0.4575367433
v -0.2082192612 0.07550000191 0.4598044855
v -0.2074341774 0.07550000191 0.4621060259
v -0.2053533554 0.07550000191 0.4633644754
v -0.2029504585 0.07550000191 0.4629909784
v -0.2013497925 0.07550000191 0.4611602861
v -0.2013003731 0.07550000191 0.458729027
v -0.2028252792 0.07550000191 0.4568348009
v -0.20521101 0.07550000191 0.4563639337
v -0.2073412704 0.07550000191 0.4575367433
v -0.2073412704 0.07800000191 0.4575367433
v -0.2065470505 0.07550000191 0.4590211755
v -0.2071594048 0.07550000191 0.4608339578
v -0.2063105774 0.07550000191 0.4625487978
v -0.204497776 0.07550000191 0.463161152
v -0.2027829552 0.07550000191 0.4623123247
v -0.2021706009 0.07550000191 0.4604995424
v -0.2030194283 0.07550000191 0.4587847025
v -0.2048322105 0.07550000191 0.4581723482
v -0.2073412704 0.07550000191 0.4575367433
v -0.20521101 0.07550000191 0.4563639337
v -0.2028252792 0.07550000191 0.4568348009
v -0.2013003731 0.07550000191 0.458729027
v -0.2013497925 0.07550000191 0.4611602861
v -0.2029504585 0.07550000191 0.4629909784
v -0.2053533554 0.07550000191 0.4633644754
v -0.2074341774 0.07550000191 0.4621060259
v -0.2082192612 0.07550000191 0.4598044855
v -0.2065470505 0.08399999619 0.4590211755
v -0.2071594048 0.08399999619 0.4608339578
v -0.2063105774 0.08399999619 0.4625487978
v -0.204497776 0.08399999619 0.463161152
v -0.2027829552 0.08399999619 0.4623123247
v -0.2021706009 0.08399999619 0.4604995424
v -0.2030194283 0.08399999619 0.4587847025
v -0.2048322105 0.08399999619 0.4581723482
v -0.2065470505 0.07550000191 0.4590211755
v -0.2048322105 0.07550000191 0.4581723482
v -0.2030194283 0.07550000191 0.4587847025
v -0.2021706009 0.07550000191 0.4604995424
v -0.2027829552 0.07550000191 0.4623123247
v -0.204497776 0.07550000191 0.463161152
v -0.2063105774 0.07550000191 0.4625487978
v -0.2071594048 0.07550000191 0.4608339578
v -0.2065470505 0.08399999619 0.4590211755
v -0.2065470505 0.07550000191 0.4590211755
v -0.2055593491 0.07800000191 0.4644081384
v -0.2011878777 0.07800000191 0.4629169733
v -0.2011878777 0.08399999619 0.4629169733
v -0.2055593491 0.08399999619 0.4644081384
v -0.2037706566 0.07800000191 0.4553453714
v -0.208142128 0.07800000191 0.4568365366
v -0.208142128 0.08399999619 0.4568365366
v -0.2037706566 0.08399999619 0.4553453714
v -0.2011878777 0.07800000191 0.4629169733
v -0.2002935219 0.07800000191 0.4583855898
v -0.2002935219 0.08399999619 0.4583855898
v -0.2011878777 0.08399999619 0.4629169733
v -0.2065470505 0.08399999619 0.4590211755
v -0.2048322105 0.08399999619 0.4581723482
v -0.2030194283 0.08399999619 0.4587847025
v -0.2021706009 0.08399999619 0.4604995424
v -0.2027829552 0.08399999619 0.4623123247
v -0.204497776 0.08399999619 0.463161152
v -0.2063105774 0.08399999619 0.4625487978
v -0.2071594048 0.08399999619 0.4608339578
v -0.2055593491 0.08399999619 0.4644081384
v -0.2011878777 0.08399999619 0.4629169733
v -0.2002935219 0.08399999619 0.4583855898
v -0.2037706566 0.08399999619 0.4553453714
v -0.208142128 0.08399999619 0.4568365366
v -0.2090364647 0.08399999619 0.4613679201
v -0.2002935219 0.07800000191 0.4583855898
v -0.2037706566 0.07800000191 0.4553453714
v -0.2037706566 0.08399999619 0.4553453714
v -0.2002935219 0.08399999619 0.4583855898
v -0.2073412704 0.07800000191 0.4575367433
v -0.2082192612 0.07800000191 0.4598044855
v -0.2074341774 0.07800000191 0.4621060259
v -0.2053533554 0.07800000191 0.4633644754
v -0.2029504585 0.07800000191 0.4629909784
v -0.2013497925 0.07800000191 0.4611602861
v -0.2013003731 0.07800000191 0.458729027
v -0.2028252792 0.07800000191 0.4568348009
v -0.20521101 0.07800000191 0.4563639337
v -0.2011878777 0.07800000191 0.4629169733
v -0.2055593491 0.07800000191 0.4644081384
v -0.2090364647 0.07800000191 0.4613679201
v -0.208142128 0.07800000191 0.4568365366
v -0.2037706566 0.07800000191 0.4553453714
v -0.2002935219 0.07800000191 0.4583855898
v -0.208142128 0.07800000191 0.4568365366
v -0.2090364647 0.07800000191 0.4613679201
v -0.2090364647 0.08399999619 0.4613679201
v -0.208142128 0.08399999619 0.4568365366
v -0.2090364647 0.07800000191 0.4613679201
v -0.2055593491 0.07800000191 0.4644081384
v -0.2055593491 0.08399999619 0.4644081384
v -0.2090364647 0.08399999619 0.4613679201
f 2 18 1
f 1 18 19
f 20 10 9
f 9 10 11
f 9 11 8
f 8 11 12
f 8 12 7
f 7 12 13
f 7 13 6
f 6 13 14
f 6 14 5
f 5 14 15
f 5 15 4
f 4 15 16
f 4 16 3
f 3 16 17
f 3 17 2
f 2 17 18
f 22 37 21
f 21 37 29
f 21 29 28
f 28 29 30
f 28 30 31
f 37 22 36
f 36 22 23
f 36 23 35
f 35 23 24
f 35 24 34
f 34 24 25
f 34 25 33
f 33 25 26
f 33 26 32
f 32 26 27
f 32 27 31
f 31 27 28
f 39 53 38
f 38 53 55
f 54 46 45
f 45 46 47
f 45 47 48
f 39 40 53
f 53 40 52
f 52 40 41
f 52 41 51
f 51 41 42
f 51 42 50
f 50 42 43
f 50 43 49
f 49 43 44
f 49 44 48
f 48 44 45
f 56 57 59
f 59 57 58
f 60 61 63
f 63 61 62
f 64 65 67
f 67 65 66
f 75 68 80
f 80 68 69
f 80 69 79
f 79 69 70
f 79 70 78
f 78 70 71
f 78 71 77
f 77 71 72
f 77 72 73
f 77 73 76
f 76 73 74
f 76 74 81
f 81 74 75
f 81 75 80
f 82 83 85
f 85 83 84
f 94 86 98
f 98 86 87
f 98 87 97
f 97 87 88
f 97 88 96
f 96 88 89
f 96 89 90
f 96 90 95
f 95 90 91
f 95 91 100
f 100 91 92
f 100 92 93
f 100 93 99
f 99 93 94
f 99 94 98
f 101 102 104
f 104 102 103
f 105 106 108
f 108 106 107
