v -0.2277499962 0.08050000191 0.4198767549
v -0.2269445419 0.08050000191 0.4218212968
v -0.225 0.08050000191 0.4226267511
v -0.2230554581 0.08050000191 0.4218212968
v -0.2222500038 0.08050000191 0.4198767549
v -0.2230554581 0.08050000191 0.417932213
v -0.225 0.08050000191 0.4171267587
v -0.2269445419 0.08050000191 0.417932213
v -0.2277499962 0.07800000191 0.4198767549
v -0.2269445419 0.07800000191 0.417932213
v -0.225 0.07800000191 0.4171267587
v -0.2230554581 0.07800000191 0.417932213
v -0.2222500038 0.07800000191 0.4198767549
v -0.2230554581 0.07800000191 0.4218212968
v -0.225 0.07800000191 0.4226267511
v -0.2269445419 0.07800000191 0.4218212968
v -0.2277499962 0.08050000191 0.4198767549
v -0.2277499962 0.07800000191 0.4198767549
v -0.2277499962 0.08050000191 0.4198767549
v -0.2269445419 0.08050000191 0.417932213
v -0.225 0.08050000191 0.4171267587
v -0.2230554581 0.08050000191 0.417932213
v -0.2222500038 0.08050000191 0.4198767549
v -0.2230554581 0.08050000191 0.4218212968
v -0.225 0.08050000191 0.4226267511
v -0.2269445419 0.08050000191 0.4218212968
v -0.235 0.08050000191 0.4098767549
v -0.235 0.08050000191 0.4298767549
v -0.215 0.08050000191 0.4298767549
v -0.215 0.08050000191 0.4098767549
v -0.235 0.07800000191 0.4298767549
v -0.215 0.07800000191 0.4298767549
v -0.215 0.08050000191 0.4298767549
v -0.235 0.08050000191 0.4298767549
v -0.2277499962 0.07800000191 0.4198767549
v -0.2269445419 0.07800000191 0.4218212968
v -0.225 0.07800000191 0.4226267511
v -0.2230554581 0.07800000191 0.4218212968
v -0.2222500038 0.07800000191 0.4198767549
v -0.2230554581 0.07800000191 0.417932213
v -0.225 0.07800000191 0.4171267587
v -0.2269445419 0.07800000191 0.417932213
v -0.235 0.07800000191 0.4298767549
v -0.235 0.07800000191 0.4098767549
v -0.215 0.07800000191 0.4098767549
v -0.215 0.07800000191 0.4298767549
v -0.235 0.07800000191 0.4098767549
v -0.235 0.07800000191 0.4298767549
v -0.235 0.08050000191 0.4298767549
v -0.235 0.08050000191 0.4098767549
v -0.215 0.07800000191 0.4098767549
v -0.235 0.07800000191 0.4098767549
v -0.235 0.08050000191 0.4098767549
v -0.215 0.08050000191 0.4098767549
v -0.215 0.07800000191 0.4298767549
v -0.215 0.07800000191 0.4098767549
v -0.215 0.08050000191 0.4098767549
v -0.215 0.08050000191 0.4298767549
f 2 16 1
f 1 16 18
f 17 9 8
f 8 9 10
f 8 10 7
f 7 10 11
f 7 11 6
f 6 11 12
f 6 12 5
f 5 12 13
f 5 13 4
f 4 13 14
f 4 14 3
f 3 14 15
f 3 15 2
f 2 15 16
f 20 27 19
f 19 27 28
f 19 28 26
f 26 28 25
f 25 28 29
f 25 29 24
f 24 29 23
f 23 29 30
f 23 30 22
f 22 30 21
f 21 30 27
f 21 27 20
f 31 32 34
f 34 32 33
f 36 43 35
f 35 43 44
f 35 44 42
f 42 44 41
f 41 44 45
f 41 45 40
f 40 45 39
f 39 45 46
f 39 46 38
f 38 46 37
f 37 46 43
f 37 43 36
f 47 48 50
f 50 48 49
f 51 52 54
f 54 52 53
f 55 56 58
f 58 56 57
