v -0.1765172639 -0.003000000119 0.4125185724
v -0.1740781495 -0.003000000119 0.4142906752
v -0.1765172639 -0.003000000119 0.4125185724
v -0.1740781495 -0.003000000119 0.4142906752
v -0.1765172639 -0.003000000119 0.4125185724
v -0.1740781495 -0.003000000119 0.4142906752
v -0.1740781495 -0.003000000119 0.4142906752
v -0.1740781495 -0.003000000119 0.4142906752
v -0.1765172639 -0.003000000119 0.4125185724
v -0.1765172639 -0.003000000119 0.4125185724
v -0.1765172639 -0.003000000119 0.4125185724
v -0.1765172639 -0.003000000119 0.4125185724
v -0.1740781495 -0.003000000119 0.4142906752
v -0.1740781495 -0.003000000119 0.4142906752
v -0.1755335287 -0.003000000119 0.4119157375
v -0.1744116457 -0.003000000119 0.4121850762
v -0.1738088109 -0.003000000119 0.4131688114
v -0.1750618847 -0.003000000119 0.4148935101
v -0.1750618847 -0.003000000119 0.4148935101
v -0.1761837676 -0.003000000119 0.4146241714
v -0.1761837676 -0.003000000119 0.4146241714
v -0.1767866025 -0.003000000119 0.4136404362
v -0.1767866025 -0.003000000119 0.4136404362
v -0.1764733198 -0.003923120499 0.4132092616
v -0.1757407276 -0.004305489659 0.4140143929
v -0.174748621 -0.003923120499 0.4144623354
v -0.174748621 -0.002076879442 0.4144623354
v -0.1757407276 -0.00169451043 0.4140143929
v -0.1764733198 -0.002076879442 0.4132092616
v -0.1758467924 -0.002076879442 0.4123469122
v -0.1748546858 -0.00169451043 0.4127948548
v -0.1741220936 -0.002076879442 0.4135999861
v -0.1741220936 -0.003923120499 0.4135999861
v -0.1748546858 -0.004305489659 0.4127948548
v -0.1758467924 -0.003923120499 0.4123469122
f 33 7 26
f 26 8 18
f 24 9 35
f 35 10 15
f 30 11 29
f 29 12 23
f 27 13 32
f 32 14 17
f 15 16 35
f 35 16 34
f 35 34 24
f 24 34 25
f 24 25 22
f 22 25 20
f 23 21 29
f 29 21 28
f 29 28 30
f 30 28 31
f 30 31 15
f 15 31 16
f 15 3 30
f 16 17 34
f 34 17 33
f 34 33 25
f 25 33 26
f 25 26 20
f 20 26 18
f 21 19 28
f 28 19 27
f 28 27 31
f 31 27 32
f 31 32 16
f 16 32 17
f 17 4 33
f 19 2 27
f 22 1 24
