v 0.06800000191 0.06760000229 0.3398767549
v 0.06800000191 0.06730000019 0.3399571401
v 0.06800000191 0.0670803833 0.3401767522
v 0.06800000191 0.06699999809 0.3404767496
v -0.06800000191 0.06699999809 0.3404767496
v -0.06800000191 0.0670803833 0.3401767522
v -0.06800000191 0.06730000019 0.3399571401
v -0.06800000191 0.06760000229 0.3398767549
v -0.08 0.06760000229 0.4878767473
v -0.07991961479 0.06730000019 0.4878767473
v -0.0796999979 0.0670803833 0.4878767473
v -0.07940000057 0.06699999809 0.4878767473
v -0.07853222847 0.06699999809 0.4922393495
v -0.07606101513 0.06699999809 0.4959377748
v -0.07236258984 0.06699999809 0.4984089739
v -0.06800000191 0.06699999809 0.4992767603
v -0.06800000191 0.0670803833 0.4995767481
v -0.06800000191 0.06730000019 0.4997963602
v -0.06800000191 0.06760000229 0.4998767549
v -0.07259220123 0.06760000229 0.4989633066
v -0.07648528099 0.06760000229 0.4963620264
v -0.07908655643 0.06760000229 0.4924689562
v -0.08 0.06760000229 0.351876753
v -0.07991961479 0.06730000019 0.351876753
v -0.0796999979 0.0670803833 0.351876753
v -0.07940000057 0.06699999809 0.351876753
v -0.07940000057 0.06699999809 0.4878767473
v -0.0796999979 0.0670803833 0.4878767473
v -0.07991961479 0.06730000019 0.4878767473
v -0.08 0.06760000229 0.4878767473
v 0.06800000191 0.06699999809 0.4992767603
v 0.06800000191 0.0670803833 0.4995767481
v 0.06800000191 0.06730000019 0.4997963602
v 0.06800000191 0.06760000229 0.4998767549
v -0.06800000191 0.06760000229 0.4998767549
v -0.06800000191 0.06730000019 0.4997963602
v -0.06800000191 0.0670803833 0.4995767481
v -0.06800000191 0.06699999809 0.4992767603
v -0.07940000057 0.06699999809 0.351876753
v -0.0796999979 0.0670803833 0.351876753
v -0.07991961479 0.06730000019 0.351876753
v -0.08 0.06760000229 0.351876753
v -0.07908655643 0.06760000229 0.3472845537
v -0.07648528099 0.06760000229 0.3433914739
v -0.07259220123 0.06760000229 0.3407901937
v -0.06800000191 0.06760000229 0.3398767549
v -0.06800000191 0.06730000019 0.3399571401
v -0.06800000191 0.0670803833 0.3401767522
v -0.06800000191 0.06699999809 0.3404767496
v -0.07236258984 0.06699999809 0.3413445264
v -0.07606101513 0.06699999809 0.343815735
v -0.07853222847 0.06699999809 0.3475141603
v 0.07940000057 0.06699999809 0.4878767473
v 0.0796999979 0.0670803833 0.4878767473
v 0.07991961479 0.06730000019 0.4878767473
v 0.08 0.06760000229 0.4878767473
v 0.07908655643 0.06760000229 0.4924689562
v 0.07648528099 0.06760000229 0.4963620264
v 0.07259220123 0.06760000229 0.4989633066
v 0.06800000191 0.06760000229 0.4998767549
v 0.06800000191 0.06730000019 0.4997963602
v 0.06800000191 0.0670803833 0.4995767481
v 0.06800000191 0.06699999809 0.4992767603
v 0.07236258984 0.06699999809 0.4984089739
v 0.07606101513 0.06699999809 0.4959377748
v 0.07853222847 0.06699999809 0.4922393495
v 0.06800000191 0.06699999809 0.3404767496
v 0.06800000191 0.0670803833 0.3401767522
v 0.06800000191 0.06730000019 0.3399571401
v 0.06800000191 0.06760000229 0.3398767549
v 0.07259220123 0.06760000229 0.3407901937
v 0.07648528099 0.06760000229 0.3433914739
v 0.07908655643 0.06760000229 0.3472845537
v 0.08 0.06760000229 0.351876753
v 0.07991961479 0.06730000019 0.351876753
v 0.0796999979 0.0670803833 0.351876753
v 0.07940000057 0.06699999809 0.351876753
v 0.07853222847 0.06699999809 0.3475141603
v 0.07606101513 0.06699999809 0.343815735
v 0.07236258984 0.06699999809 0.3413445264
v 0.07940000057 0.06699999809 0.351876753
v 0.0796999979 0.0670803833 0.351876753
v 0.07991961479 0.06730000019 0.351876753
v 0.08 0.06760000229 0.351876753
v 0.08 0.06760000229 0.4878767473
v 0.07991961479 0.06730000019 0.4878767473
v 0.0796999979 0.0670803833 0.4878767473
v 0.07940000057 0.06699999809 0.4878767473
v 0.06224999905 0.06699999809 0.3548767549
v 0.06305545807 0.06699999809 0.3568212968
v 0.065 0.06699999809 0.3576267511
v 0.06694454193 0.06699999809 0.3568212968
v 0.06775000095 0.06699999809 0.3548767549
v 0.06694454193 0.06699999809 0.352932213
v 0.065 0.06699999809 0.3521267492
v 0.06305545807 0.06699999809 0.352932213
v 0.06224999905 0.06699999809 0.4848767549
v 0.06305545807 0.06699999809 0.4868212968
v 0.065 0.06699999809 0.4876267511
v 0.06694454193 0.06699999809 0.4868212968
v 0.06775000095 0.06699999809 0.4848767549
v 0.06694454193 0.06699999809 0.482932213
v 0.065 0.06699999809 0.4821267587
v 0.06305545807 0.06699999809 0.482932213
v -0.06775000095 0.06699999809 0.4848767549
v -0.06694454193 0.06699999809 0.4868212968
v -0.065 0.06699999809 0.4876267511
v -0.06305545807 0.06699999809 0.4868212968
v -0.06224999905 0.06699999809 0.4848767549
v -0.06305545807 0.06699999809 0.482932213
v -0.065 0.06699999809 0.4821267587
v -0.06694454193 0.06699999809 0.482932213
v -0.06775000095 0.06699999809 0.3548767549
v -0.06694454193 0.06699999809 0.3568212968
v -0.065 0.06699999809 0.3576267511
v -0.06305545807 0.06699999809 0.3568212968
v -0.06224999905 0.06699999809 0.3548767549
v -0.06305545807 0.06699999809 0.352932213
v -0.065 0.06699999809 0.3521267492
v -0.06694454193 0.06699999809 0.352932213
v -0.01939002037 0.06699999809 0.4577558214
v -0.01852438569 0.06699999809 0.4601341325
v -0.01633251905 0.06699999809 0.4613996011
v -0.0138400209 0.06699999809 0.4609601099
v -0.01221315861 0.06699999809 0.45902129
v -0.01221315861 0.06699999809 0.4564903337
v -0.0138400209 0.06699999809 0.4545515138
v -0.01633251905 0.06699999809 0.4541120226
v -0.01852438569 0.06699999809 0.4553774912
v -0.04157906055 0.06699999809 0.4041867334
v -0.04071342468 0.06699999809 0.4065650446
v -0.03852155924 0.06699999809 0.4078305227
v -0.03602905989 0.06699999809 0.4073910219
v -0.03440219879 0.06699999809 0.405452202
v -0.03440219879 0.06699999809 0.4029212553
v -0.03602905989 0.06699999809 0.4009824354
v -0.03852155924 0.06699999809 0.4005429441
v -0.04071342468 0.06699999809 0.4018084127
v -0.01939002037 0.06699999809 0.3819976885
v -0.01852438569 0.06699999809 0.3843760091
v -0.01633251905 0.06699999809 0.3856414777
v -0.0138400209 0.06699999809 0.3852019865
v -0.01221315861 0.06699999809 0.3832631666
v -0.01221315861 0.06699999809 0.3807322199
v -0.0138400209 0.06699999809 0.3787934
v -0.01633251905 0.06699999809 0.3783538992
v -0.01852438569 0.06699999809 0.3796193773
v 0.03417906046 0.06699999809 0.4041867334
v 0.03504469633 0.06699999809 0.4065650446
v 0.03723656178 0.06699999809 0.4078305227
v 0.03972906113 0.06699999809 0.4073910219
v 0.04135592461 0.06699999809 0.405452202
v 0.04135592461 0.06699999809 0.4029212553
v 0.03972906113 0.06699999809 0.4009824354
v 0.03723656178 0.06699999809 0.4005429441
v 0.03504469633 0.06699999809 0.4018084127
v 0.01199002028 0.06699999809 0.3819976885
v 0.01285565615 0.06699999809 0.3843760091
v 0.01504752278 0.06699999809 0.3856414777
v 0.01754002094 0.06699999809 0.3852019865
v 0.01916688323 0.06699999809 0.3832631666
v 0.01916688323 0.06699999809 0.3807322199
v 0.01754002094 0.06699999809 0.3787934
v 0.01504752278 0.06699999809 0.3783538992
v 0.01285565615 0.06699999809 0.3796193773
v 0.03417906046 0.06699999809 0.4355667764
v 0.03504469633 0.06699999809 0.4379450876
v 0.03723656178 0.06699999809 0.4392105562
v 0.03972906113 0.06699999809 0.4387710649
v 0.04135592461 0.06699999809 0.436832245
v 0.04135592461 0.06699999809 0.4343013078
v 0.03972906113 0.06699999809 0.4323624879
v 0.03723656178 0.06699999809 0.4319229776
v 0.03504469633 0.06699999809 0.4331884653
v -0.04157906055 0.06699999809 0.4355667764
v -0.04071342468 0.06699999809 0.4379450876
v -0.03852155924 0.06699999809 0.4392105562
v -0.03602905989 0.06699999809 0.4387710649
v -0.03440219879 0.06699999809 0.436832245
v -0.03440219879 0.06699999809 0.4343013078
v -0.03602905989 0.06699999809 0.4323624879
v -0.03852155924 0.06699999809 0.4319229776
v -0.04071342468 0.06699999809 0.4331884653
v 0.01199002028 0.06699999809 0.4577558214
v 0.01285565615 0.06699999809 0.4601341325
v 0.01504752278 0.06699999809 0.4613996011
v 0.01754002094 0.06699999809 0.4609601099
v 0.01916688323 0.06699999809 0.45902129
v 0.01916688323 0.06699999809 0.4564903337
v 0.01754002094 0.06699999809 0.4545515138
v 0.01504752278 0.06699999809 0.4541120226
v 0.01285565615 0.06699999809 0.4553774912
v -0.02799999952 0.06699999809 0.4198767549
v -0.02704592228 0.06699999809 0.4271236879
v -0.02424871206 0.06699999809 0.4338767511
v -0.0197989893 0.06699999809 0.4396757394
v -0.01399999976 0.06699999809 0.4441254694
v -0.007246932983 0.06699999809 0.4469226724
v 9.700312437e-18 0.06699999809 0.4478767473
v 0.007246932983 0.06699999809 0.4469226724
v 0.01399999976 0.06699999809 0.4441254694
v 0.0197989893 0.06699999809 0.4396757394
v 0.02424871206 0.06699999809 0.4338767511
v 0.02704592228 0.06699999809 0.4271236879
v 0.02799999952 0.06699999809 0.4198767549
v 0.02704592228 0.06699999809 0.4126298219
v 0.02424871206 0.06699999809 0.4058767492
v 0.0197989893 0.06699999809 0.4000777609
v 0.01399999976 0.06699999809 0.3956280405
v 0.007246932983 0.06699999809 0.3928308279
v 6.271301749e-18 0.06699999809 0.391876753
v -0.007246932983 0.06699999809 0.3928308279
v -0.01399999976 0.06699999809 0.3956280405
v -0.0197989893 0.06699999809 0.4000777609
v -0.02424871206 0.06699999809 0.4058767492
v -0.02704592228 0.06699999809 0.4126298219
v -0.02882138729 0.06699999809 0.4688173753
v -0.02786890745 0.06699999809 0.4720612222
v -0.02531387568 0.06699999809 0.4742751581
v -0.02196749687 0.06699999809 0.4747563059
v -0.01889222145 0.06699999809 0.4733518678
v -0.01706442833 0.06699999809 0.4705077631
v -0.01706442833 0.06699999809 0.4671269685
v -0.01889222145 0.06699999809 0.4642828828
v -0.02196749687 0.06699999809 0.4628784448
v -0.02531387568 0.06699999809 0.4633595735
v -0.02786890745 0.06699999809 0.4655735284
v 0.04294062138 0.06699999809 0.4426981432
v 0.04389309883 0.06699999809 0.4459419901
v 0.04644813061 0.06699999809 0.4481559259
v 0.0497945118 0.06699999809 0.4486370737
v 0.05286978722 0.06699999809 0.4472326357
v 0.05469758034 0.06699999809 0.4443885309
v 0.05469758034 0.06699999809 0.4410077364
v 0.05286978722 0.06699999809 0.4381636316
v 0.0497945118 0.06699999809 0.4367592127
v 0.04644813061 0.06699999809 0.4372403413
v 0.04389309883 0.06699999809 0.4394542963
v 0.01682138562 0.06699999809 0.3709361345
v 0.01777386546 0.06699999809 0.3741799719
v 0.02032889605 0.06699999809 0.3763939268
v 0.02367527485 0.06699999809 0.376875065
v 0.02675055027 0.06699999809 0.375470627
v 0.02857834339 0.06699999809 0.3726265222
v 0.02857834339 0.06699999809 0.3692457372
v 0.02675055027 0.06699999809 0.3664016325
v 0.02367527485 0.06699999809 0.364997204
v 0.02032889605 0.06699999809 0.3654783422
v 0.01777386546 0.06699999809 0.3676922876
v -0.05494061947 0.06699999809 0.3970553667
v -0.05398814201 0.06699999809 0.4002992136
v -0.05143311024 0.06699999809 0.402513159
v -0.04808673382 0.06699999809 0.4029942972
v -0.0450114584 0.06699999809 0.4015898592
v -0.04318366051 0.06699999809 0.3987457639
v -0.04318366051 0.06699999809 0.3953649694
v -0.0450114584 0.06699999809 0.3925208646
v -0.04808673382 0.06699999809 0.3911164362
v -0.05143311024 0.06699999809 0.3915975744
v -0.05398814201 0.06699999809 0.3938115198
v -0.06800000191 0.06699999809 0.4992767603
v -0.07236258984 0.06699999809 0.4984089739
v -0.07606101513 0.06699999809 0.4959377748
v -0.07853222847 0.06699999809 0.4922393495
v -0.07940000057 0.06699999809 0.4878767473
v -0.07940000057 0.06699999809 0.351876753
v -0.07853222847 0.06699999809 0.3475141603
v -0.07606101513 0.06699999809 0.343815735
v -0.07236258984 0.06699999809 0.3413445264
v -0.06800000191 0.06699999809 0.3404767496
v 0.06800000191 0.06699999809 0.3404767496
v 0.07236258984 0.06699999809 0.3413445264
v 0.07606101513 0.06699999809 0.343815735
v 0.07853222847 0.06699999809 0.3475141603
v 0.07940000057 0.06699999809 0.351876753
v 0.07940000057 0.06699999809 0.4878767473
v 0.07853222847 0.06699999809 0.4922393495
v 0.07606101513 0.06699999809 0.4959377748
v 0.07236258984 0.06699999809 0.4984089739
v 0.06800000191 0.06699999809 0.4992767603
v 0.06800000191 0.06760000229 0.3398767549
v -0.06800000191 0.06760000229 0.3398767549
v -0.06800000191 0.07239999771 0.3398767549
v 0.06800000191 0.07239999771 0.3398767549
v -0.08 0.06760000229 0.4878767473
v -0.07908655643 0.06760000229 0.4924689562
v -0.07648528099 0.06760000229 0.4963620264
v -0.07259220123 0.06760000229 0.4989633066
v -0.06800000191 0.06760000229 0.4998767549
v -0.06800000191 0.07239999771 0.4998767549
v -0.07259220123 0.07239999771 0.4989633066
v -0.07648528099 0.07239999771 0.4963620264
v -0.07908655643 0.07239999771 0.4924689562
v -0.08 0.07239999771 0.4878767473
v -0.06800000191 0.07239999771 0.4998767549
v -0.06800000191 0.07269999981 0.4997963602
v -0.06800000191 0.0729196167 0.4995767481
v -0.06800000191 0.07300000191 0.4992767603
v -0.07236258984 0.07300000191 0.4984089739
v -0.07606101513 0.07300000191 0.4959377748
v -0.07853222847 0.07300000191 0.4922393495
v -0.07940000057 0.07300000191 0.4878767473
v -0.0796999979 0.0729196167 0.4878767473
v -0.07991961479 0.07269999981 0.4878767473
v -0.08 0.07239999771 0.4878767473
v -0.07908655643 0.07239999771 0.4924689562
v -0.07648528099 0.07239999771 0.4963620264
v -0.07259220123 0.07239999771 0.4989633066
v -0.06800000191 0.06760000229 0.3398767549
v -0.07259220123 0.06760000229 0.3407901937
v -0.07648528099 0.06760000229 0.3433914739
v -0.07908655643 0.06760000229 0.3472845537
v -0.08 0.06760000229 0.351876753
v -0.08 0.07239999771 0.351876753
v -0.07908655643 0.07239999771 0.3472845537
v -0.07648528099 0.07239999771 0.3433914739
v -0.07259220123 0.07239999771 0.3407901937
v -0.06800000191 0.07239999771 0.3398767549
v 0.08 0.06760000229 0.351876753
v 0.07908655643 0.06760000229 0.3472845537
v 0.07648528099 0.06760000229 0.3433914739
v 0.07259220123 0.06760000229 0.3407901937
v 0.06800000191 0.06760000229 0.3398767549
v 0.06800000191 0.07239999771 0.3398767549
v 0.07259220123 0.07239999771 0.3407901937
v 0.07648528099 0.07239999771 0.3433914739
v 0.07908655643 0.07239999771 0.3472845537
v 0.08 0.07239999771 0.351876753
v -0.08 0.06760000229 0.351876753
v -0.08 0.06760000229 0.4878767473
v -0.08 0.07239999771 0.4878767473
v -0.08 0.07239999771 0.351876753
v 0.06800000191 0.07239999771 0.4998767549
v 0.06800000191 0.07269999981 0.4997963602
v 0.06800000191 0.0729196167 0.4995767481
v 0.06800000191 0.07300000191 0.4992767603
v -0.06800000191 0.07300000191 0.4992767603
v -0.06800000191 0.0729196167 0.4995767481
v -0.06800000191 0.07269999981 0.4997963602
v -0.06800000191 0.07239999771 0.4998767549
v -0.06800000191 0.06760000229 0.4998767549
v 0.06800000191 0.06760000229 0.4998767549
v 0.06800000191 0.07239999771 0.4998767549
v -0.06800000191 0.07239999771 0.4998767549
v 0.08 0.07239999771 0.4878767473
v 0.07991961479 0.07269999981 0.4878767473
v 0.0796999979 0.0729196167 0.4878767473
v 0.07940000057 0.07300000191 0.4878767473
v 0.07853222847 0.07300000191 0.4922393495
v 0.07606101513 0.07300000191 0.4959377748
v 0.07236258984 0.07300000191 0.4984089739
v 0.06800000191 0.07300000191 0.4992767603
v 0.06800000191 0.0729196167 0.4995767481
v 0.06800000191 0.07269999981 0.4997963602
v 0.06800000191 0.07239999771 0.4998767549
v 0.07259220123 0.07239999771 0.4989633066
v 0.07648528099 0.07239999771 0.4963620264
v 0.07908655643 0.07239999771 0.4924689562
v -0.06800000191 0.07239999771 0.3398767549
v -0.06800000191 0.07269999981 0.3399571401
v -0.06800000191 0.0729196167 0.3401767522
v -0.06800000191 0.07300000191 0.3404767496
v 0.06800000191 0.07300000191 0.3404767496
v 0.06800000191 0.0729196167 0.3401767522
v 0.06800000191 0.07269999981 0.3399571401
v 0.06800000191 0.07239999771 0.3398767549
v 0.08 0.06760000229 0.4878767473
v 0.08 0.06760000229 0.351876753
v 0.08 0.07239999771 0.351876753
v 0.08 0.07239999771 0.4878767473
v 0.06224999905 0.07300000191 0.3548767549
v 0.06305545807 0.07300000191 0.352932213
v 0.065 0.07300000191 0.3521267492
v 0.06694454193 0.07300000191 0.352932213
v 0.06775000095 0.07300000191 0.3548767549
v 0.06694454193 0.07300000191 0.3568212968
v 0.065 0.07300000191 0.3576267511
v 0.06305545807 0.07300000191 0.3568212968
v 0.06224999905 0.07300000191 0.4848767549
v 0.06305545807 0.07300000191 0.482932213
v 0.065 0.07300000191 0.4821267587
v 0.06694454193 0.07300000191 0.482932213
v 0.06775000095 0.07300000191 0.4848767549
v 0.06694454193 0.07300000191 0.4868212968
v 0.065 0.07300000191 0.4876267511
v 0.06305545807 0.07300000191 0.4868212968
v -0.06775000095 0.07300000191 0.4848767549
v -0.06694454193 0.07300000191 0.482932213
v -0.065 0.07300000191 0.4821267587
v -0.06305545807 0.07300000191 0.482932213
v -0.06224999905 0.07300000191 0.4848767549
v -0.06305545807 0.07300000191 0.4868212968
v -0.065 0.07300000191 0.4876267511
v -0.06694454193 0.07300000191 0.4868212968
v -0.06775000095 0.07300000191 0.3548767549
v -0.06694454193 0.07300000191 0.352932213
v -0.065 0.07300000191 0.3521267492
v -0.06305545807 0.07300000191 0.352932213
v -0.06224999905 0.07300000191 0.3548767549
v -0.06305545807 0.07300000191 0.3568212968
v -0.065 0.07300000191 0.3576267511
v -0.06694454193 0.07300000191 0.3568212968
v -0.01739002109 0.07300000191 0.4577558214
v -0.0165400207 0.07300000191 0.4562835771
v -0.01484002113 0.07300000191 0.4562835771
v -0.01399002075 0.07300000191 0.4577558214
v -0.01484002113 0.07300000191 0.4592280656
v -0.0165400207 0.07300000191 0.4592280656
v -0.03957906008 0.07300000191 0.4041867334
v -0.0387290597 0.07300000191 0.4027144891
v -0.03702906132 0.07300000191 0.4027144891
v -0.03617906094 0.07300000191 0.4041867334
v -0.03702906132 0.07300000191 0.4056589777
v -0.0387290597 0.07300000191 0.4056589777
v -0.01739002109 0.07300000191 0.3819976885
v -0.0165400207 0.07300000191 0.3805254442
v -0.01484002113 0.07300000191 0.3805254442
v -0.01399002075 0.07300000191 0.3819976885
v -0.01484002113 0.07300000191 0.3834699327
v -0.0165400207 0.07300000191 0.3834699327
v 0.03617906094 0.07300000191 0.4041867334
v 0.03702906132 0.07300000191 0.4027144891
v 0.0387290597 0.07300000191 0.4027144891
v 0.03957906008 0.07300000191 0.4041867334
v 0.0387290597 0.07300000191 0.4056589777
v 0.03702906132 0.07300000191 0.4056589777
v 0.01399002075 0.07300000191 0.3819976885
v 0.01484002113 0.07300000191 0.3805254442
v 0.0165400207 0.07300000191 0.3805254442
v 0.01739002109 0.07300000191 0.3819976885
v 0.0165400207 0.07300000191 0.3834699327
v 0.01484002113 0.07300000191 0.3834699327
v 0.03617906094 0.07300000191 0.4355667764
v 0.03702906132 0.07300000191 0.4340945322
v 0.0387290597 0.07300000191 0.4340945322
v 0.03957906008 0.07300000191 0.4355667764
v 0.0387290597 0.07300000191 0.4370390207
v 0.03702906132 0.07300000191 0.4370390207
v -0.03957906008 0.07300000191 0.4355667764
v -0.0387290597 0.07300000191 0.4340945322
v -0.03702906132 0.07300000191 0.4340945322
v -0.03617906094 0.07300000191 0.4355667764
v -0.03702906132 0.07300000191 0.4370390207
v -0.0387290597 0.07300000191 0.4370390207
v 0.01399002075 0.07300000191 0.4577558214
v 0.01484002113 0.07300000191 0.4562835771
v 0.0165400207 0.07300000191 0.4562835771
v 0.01739002109 0.07300000191 0.4577558214
v 0.0165400207 0.07300000191 0.4592280656
v 0.01484002113 0.07300000191 0.4592280656
v -0.02799999952 0.07300000191 0.4198767549
v -0.02704592228 0.07300000191 0.4126298219
v -0.02424871206 0.07300000191 0.4058767492
v -0.0197989893 0.07300000191 0.4000777609
v -0.01399999976 0.07300000191 0.3956280405
v -0.007246932983 0.07300000191 0.3928308279
v 5.903907476e-18 0.07300000191 0.391876753
v 0.007246932983 0.07300000191 0.3928308279
v 0.01399999976 0.07300000191 0.3956280405
v 0.0197989893 0.07300000191 0.4000777609
v 0.02424871206 0.07300000191 0.4058767492
v 0.02704592228 0.07300000191 0.4126298219
v 0.02799999952 0.07300000191 0.4198767549
v 0.02704592228 0.07300000191 0.4271236879
v 0.02424871206 0.07300000191 0.4338767511
v 0.0197989893 0.07300000191 0.4396757394
v 0.01399999976 0.07300000191 0.4441254694
v 0.007246932983 0.07300000191 0.4469226724
v 9.332918163e-18 0.07300000191 0.4478767473
v -0.007246932983 0.07300000191 0.4469226724
v -0.01399999976 0.07300000191 0.4441254694
v -0.0197989893 0.07300000191 0.4396757394
v -0.02424871206 0.07300000191 0.4338767511
v -0.02704592228 0.07300000191 0.4271236879
v -0.02882138729 0.07300000191 0.4688173753
v -0.02786890745 0.07300000191 0.4655735284
v -0.02531387568 0.07300000191 0.4633595735
v -0.02196749687 0.07300000191 0.4628784448
v -0.01889222145 0.07300000191 0.4642828828
v -0.01706442833 0.07300000191 0.4671269685
v -0.01706442833 0.07300000191 0.4705077631
v -0.01889222145 0.07300000191 0.4733518678
v -0.02196749687 0.07300000191 0.4747563059
v -0.02531387568 0.07300000191 0.4742751581
v -0.02786890745 0.07300000191 0.4720612222
v 0.04294062138 0.07300000191 0.4426981432
v 0.04389309883 0.07300000191 0.4394542963
v 0.04644813061 0.07300000191 0.4372403413
v 0.0497945118 0.07300000191 0.4367592127
v 0.05286978722 0.07300000191 0.4381636316
v 0.05469758034 0.07300000191 0.4410077364
v 0.05469758034 0.07300000191 0.4443885309
v 0.05286978722 0.07300000191 0.4472326357
v 0.0497945118 0.07300000191 0.4486370737
v 0.04644813061 0.07300000191 0.4481559259
v 0.04389309883 0.07300000191 0.4459419901
v 0.01682138562 0.07300000191 0.3709361345
v 0.01777386546 0.07300000191 0.3676922876
v 0.02032889605 0.07300000191 0.3654783422
v 0.02367527485 0.07300000191 0.364997204
v 0.02675055027 0.07300000191 0.3664016325
v 0.02857834339 0.07300000191 0.3692457372
v 0.02857834339 0.07300000191 0.3726265222
v 0.02675055027 0.07300000191 0.375470627
v 0.02367527485 0.07300000191 0.376875065
v 0.02032889605 0.07300000191 0.3763939268
v 0.01777386546 0.07300000191 0.3741799719
v -0.05494061947 0.07300000191 0.3970553667
v -0.05398814201 0.07300000191 0.3938115198
v -0.05143311024 0.07300000191 0.3915975744
v -0.04808673382 0.07300000191 0.3911164362
v -0.0450114584 0.07300000191 0.3925208646
v -0.04318366051 0.07300000191 0.3953649694
v -0.04318366051 0.07300000191 0.3987457639
v -0.0450114584 0.07300000191 0.4015898592
v -0.04808673382 0.07300000191 0.4029942972
v -0.05143311024 0.07300000191 0.402513159
v -0.05398814201 0.07300000191 0.4002992136
v -0.07940000057 0.07300000191 0.4878767473
v -0.07853222847 0.07300000191 0.4922393495
v -0.07606101513 0.07300000191 0.4959377748
v -0.07236258984 0.07300000191 0.4984089739
v -0.06800000191 0.07300000191 0.4992767603
v 0.06800000191 0.07300000191 0.4992767603
v 0.07236258984 0.07300000191 0.4984089739
v 0.07606101513 0.07300000191 0.4959377748
v 0.07853222847 0.07300000191 0.4922393495
v 0.07940000057 0.07300000191 0.4878767473
v 0.07940000057 0.07300000191 0.351876753
v 0.07853222847 0.07300000191 0.3475141603
v 0.07606101513 0.07300000191 0.343815735
v 0.07236258984 0.07300000191 0.3413445264
v 0.06800000191 0.07300000191 0.3404767496
v -0.06800000191 0.07300000191 0.3404767496
v -0.07236258984 0.07300000191 0.3413445264
v -0.07606101513 0.07300000191 0.343815735
v -0.07853222847 0.07300000191 0.3475141603
v -0.07940000057 0.07300000191 0.351876753
v 0.06800000191 0.06760000229 0.4998767549
v 0.07259220123 0.06760000229 0.4989633066
v 0.07648528099 0.06760000229 0.4963620264
v 0.07908655643 0.06760000229 0.4924689562
v 0.08 0.06760000229 0.4878767473
v 0.08 0.07239999771 0.4878767473
v 0.07908655643 0.07239999771 0.4924689562
v 0.07648528099 0.07239999771 0.4963620264
v 0.07259220123 0.07239999771 0.4989633066
v 0.06800000191 0.07239999771 0.4998767549
v 0.08 0.07239999771 0.351876753
v 0.07991961479 0.07269999981 0.351876753
v 0.0796999979 0.0729196167 0.351876753
v 0.07940000057 0.07300000191 0.351876753
v 0.07940000057 0.07300000191 0.4878767473
v 0.0796999979 0.0729196167 0.4878767473
v 0.07991961479 0.07269999981 0.4878767473
v 0.08 0.07239999771 0.4878767473
v -0.08 0.07239999771 0.351876753
v -0.07991961479 0.07269999981 0.351876753
v -0.0796999979 0.0729196167 0.351876753
v -0.07940000057 0.07300000191 0.351876753
v -0.07853222847 0.07300000191 0.3475141603
v -0.07606101513 0.07300000191 0.343815735
v -0.07236258984 0.07300000191 0.3413445264
v -0.06800000191 0.07300000191 0.3404767496
v -0.06800000191 0.0729196167 0.3401767522
v -0.06800000191 0.07269999981 0.3399571401
v -0.06800000191 0.07239999771 0.3398767549
v -0.07259220123 0.07239999771 0.3407901937
v -0.07648528099 0.07239999771 0.3433914739
v -0.07908655643 0.07239999771 0.3472845537
v 0.06800000191 0.07239999771 0.3398767549
v 0.06800000191 0.07269999981 0.3399571401
v 0.06800000191 0.0729196167 0.3401767522
v 0.06800000191 0.07300000191 0.3404767496
v 0.07236258984 0.07300000191 0.3413445264
v 0.07606101513 0.07300000191 0.343815735
v 0.07853222847 0.07300000191 0.3475141603
v 0.07940000057 0.07300000191 0.351876753
v 0.0796999979 0.0729196167 0.351876753
v 0.07991961479 0.07269999981 0.351876753
v 0.08 0.07239999771 0.351876753
v 0.07908655643 0.07239999771 0.3472845537
v 0.07648528099 0.07239999771 0.3433914739
v 0.07259220123 0.07239999771 0.3407901937
v 0.06224999905 0.07300000191 0.3548767549
v 0.06305545807 0.07300000191 0.3568212968
v 0.065 0.07300000191 0.3576267511
v 0.06694454193 0.07300000191 0.3568212968
v 0.06775000095 0.07300000191 0.3548767549
v 0.06694454193 0.07300000191 0.352932213
v 0.065 0.07300000191 0.3521267492
v 0.06305545807 0.07300000191 0.352932213
v 0.06224999905 0.06699999809 0.3548767549
v 0.06305545807 0.06699999809 0.352932213
v 0.065 0.06699999809 0.3521267492
v 0.06694454193 0.06699999809 0.352932213
v 0.06775000095 0.06699999809 0.3548767549
v 0.06694454193 0.06699999809 0.3568212968
v 0.065 0.06699999809 0.3576267511
v 0.06305545807 0.06699999809 0.3568212968
v 0.06224999905 0.07300000191 0.3548767549
v 0.06224999905 0.06699999809 0.3548767549
v -0.08 0.07239999771 0.4878767473
v -0.07991961479 0.07269999981 0.4878767473
v -0.0796999979 0.0729196167 0.4878767473
v -0.07940000057 0.07300000191 0.4878767473
v -0.07940000057 0.07300000191 0.351876753
v -0.0796999979 0.0729196167 0.351876753
v -0.07991961479 0.07269999981 0.351876753
v -0.08 0.07239999771 0.351876753
v 0.06224999905 0.07300000191 0.4848767549
v 0.06305545807 0.07300000191 0.4868212968
v 0.065 0.07300000191 0.4876267511
v 0.06694454193 0.07300000191 0.4868212968
v 0.06775000095 0.07300000191 0.4848767549
v 0.06694454193 0.07300000191 0.482932213
v 0.065 0.07300000191 0.4821267587
v 0.06305545807 0.07300000191 0.482932213
v 0.06224999905 0.06699999809 0.4848767549
v 0.06305545807 0.06699999809 0.482932213
v 0.065 0.06699999809 0.4821267587
v 0.06694454193 0.06699999809 0.482932213
v 0.06775000095 0.06699999809 0.4848767549
v 0.06694454193 0.06699999809 0.4868212968
v 0.065 0.06699999809 0.4876267511
v 0.06305545807 0.06699999809 0.4868212968
v 0.06224999905 0.07300000191 0.4848767549
v 0.06224999905 0.06699999809 0.4848767549
v -0.06775000095 0.07300000191 0.4848767549
v -0.06694454193 0.07300000191 0.4868212968
v -0.065 0.07300000191 0.4876267511
v -0.06305545807 0.07300000191 0.4868212968
v -0.06224999905 0.07300000191 0.4848767549
v -0.06305545807 0.07300000191 0.482932213
v -0.065 0.07300000191 0.4821267587
v -0.06694454193 0.07300000191 0.482932213
v -0.06775000095 0.06699999809 0.4848767549
v -0.06694454193 0.06699999809 0.482932213
v -0.065 0.06699999809 0.4821267587
v -0.06305545807 0.06699999809 0.482932213
v -0.06224999905 0.06699999809 0.4848767549
v -0.06305545807 0.06699999809 0.4868212968
v -0.065 0.06699999809 0.4876267511
v -0.06694454193 0.06699999809 0.4868212968
v -0.06775000095 0.07300000191 0.4848767549
v -0.06775000095 0.06699999809 0.4848767549
v -0.06775000095 0.07300000191 0.3548767549
v -0.06694454193 0.07300000191 0.3568212968
v -0.065 0.07300000191 0.3576267511
v -0.06305545807 0.07300000191 0.3568212968
v -0.06224999905 0.07300000191 0.3548767549
v -0.06305545807 0.07300000191 0.352932213
v -0.065 0.07300000191 0.3521267492
v -0.06694454193 0.07300000191 0.352932213
v -0.06775000095 0.06699999809 0.3548767549
v -0.06694454193 0.06699999809 0.352932213
v -0.065 0.06699999809 0.3521267492
v -0.06305545807 0.06699999809 0.352932213
v -0.06224999905 0.06699999809 0.3548767549
v -0.06305545807 0.06699999809 0.3568212968
v -0.065 0.06699999809 0.3576267511
v -0.06694454193 0.06699999809 0.3568212968
v -0.06775000095 0.07300000191 0.3548767549
v -0.06775000095 0.06699999809 0.3548767549
v -0.05494061947 0.07300000191 0.3970553667
v -0.05398814201 0.07300000191 0.4002992136
v -0.05143311024 0.07300000191 0.402513159
v -0.04808673382 0.07300000191 0.4029942972
v -0.0450114584 0.07300000191 0.4015898592
v -0.04318366051 0.07300000191 0.3987457639
v -0.04318366051 0.07300000191 0.3953649694
v -0.0450114584 0.07300000191 0.3925208646
v -0.04808673382 0.07300000191 0.3911164362
v -0.05143311024 0.07300000191 0.3915975744
v -0.05398814201 0.07300000191 0.3938115198
v -0.05494061947 0.06699999809 0.3970553667
v -0.05398814201 0.06699999809 0.3938115198
v -0.05143311024 0.06699999809 0.3915975744
v -0.04808673382 0.06699999809 0.3911164362
v -0.0450114584 0.06699999809 0.3925208646
v -0.04318366051 0.06699999809 0.3953649694
v -0.04318366051 0.06699999809 0.3987457639
v -0.0450114584 0.06699999809 0.4015898592
v -0.04808673382 0.06699999809 0.4029942972
v -0.05143311024 0.06699999809 0.402513159
v -0.05398814201 0.06699999809 0.4002992136
v -0.05494061947 0.07300000191 0.3970553667
v -0.05494061947 0.06699999809 0.3970553667
v -0.01939002037 0.07079999924 0.4577558214
v -0.01852438569 0.07079999924 0.4601341325
v -0.01633251905 0.07079999924 0.4613996011
v -0.0138400209 0.07079999924 0.4609601099
v -0.01221315861 0.07079999924 0.45902129
v -0.01221315861 0.07079999924 0.4564903337
v -0.0138400209 0.07079999924 0.4545515138
v -0.01633251905 0.07079999924 0.4541120226
v -0.01852438569 0.07079999924 0.4553774912
v -0.01939002037 0.06699999809 0.4577558214
v -0.01852438569 0.06699999809 0.4553774912
v -0.01633251905 0.06699999809 0.4541120226
v -0.0138400209 0.06699999809 0.4545515138
v -0.01221315861 0.06699999809 0.4564903337
v -0.01221315861 0.06699999809 0.45902129
v -0.0138400209 0.06699999809 0.4609601099
v -0.01633251905 0.06699999809 0.4613996011
v -0.01852438569 0.06699999809 0.4601341325
v -0.01939002037 0.07079999924 0.4577558214
v -0.01939002037 0.06699999809 0.4577558214
v 0.01682138562 0.07300000191 0.3709361345
v 0.01777386546 0.07300000191 0.3741799719
v 0.02032889605 0.07300000191 0.3763939268
v 0.02367527485 0.07300000191 0.376875065
v 0.02675055027 0.07300000191 0.375470627
v 0.02857834339 0.07300000191 0.3726265222
v 0.02857834339 0.07300000191 0.3692457372
v 0.02675055027 0.07300000191 0.3664016325
v 0.02367527485 0.07300000191 0.364997204
v 0.02032889605 0.07300000191 0.3654783422
v 0.01777386546 0.07300000191 0.3676922876
v 0.01682138562 0.06699999809 0.3709361345
v 0.01777386546 0.06699999809 0.3676922876
v 0.02032889605 0.06699999809 0.3654783422
v 0.02367527485 0.06699999809 0.364997204
v 0.02675055027 0.06699999809 0.3664016325
v 0.02857834339 0.06699999809 0.3692457372
v 0.02857834339 0.06699999809 0.3726265222
v 0.02675055027 0.06699999809 0.375470627
v 0.02367527485 0.06699999809 0.376875065
v 0.02032889605 0.06699999809 0.3763939268
v 0.01777386546 0.06699999809 0.3741799719
v 0.01682138562 0.07300000191 0.3709361345
v 0.01682138562 0.06699999809 0.3709361345
v -0.04157906055 0.07079999924 0.4041867334
v -0.04071342468 0.07079999924 0.4065650446
v -0.03852155924 0.07079999924 0.4078305227
v -0.03602905989 0.07079999924 0.4073910219
v -0.03440219879 0.07079999924 0.405452202
v -0.03440219879 0.07079999924 0.4029212553
v -0.03602905989 0.07079999924 0.4009824354
v -0.03852155924 0.07079999924 0.4005429441
v -0.04071342468 0.07079999924 0.4018084127
v -0.04157906055 0.06699999809 0.4041867334
v -0.04071342468 0.06699999809 0.4018084127
v -0.03852155924 0.06699999809 0.4005429441
v -0.03602905989 0.06699999809 0.4009824354
v -0.03440219879 0.06699999809 0.4029212553
v -0.03440219879 0.06699999809 0.405452202
v -0.03602905989 0.06699999809 0.4073910219
v -0.03852155924 0.06699999809 0.4078305227
v -0.04071342468 0.06699999809 0.4065650446
v -0.04157906055 0.07079999924 0.4041867334
v -0.04157906055 0.06699999809 0.4041867334
v -0.01739002109 0.07079999924 0.4577558214
v -0.0165400207 0.07079999924 0.4592280656
v -0.01484002113 0.07079999924 0.4592280656
v -0.01399002075 0.07079999924 0.4577558214
v -0.01484002113 0.07079999924 0.4562835771
v -0.0165400207 0.07079999924 0.4562835771
v -0.01939002037 0.07079999924 0.4577558214
v -0.01852438569 0.07079999924 0.4553774912
v -0.01633251905 0.07079999924 0.4541120226
v -0.0138400209 0.07079999924 0.4545515138
v -0.01221315861 0.07079999924 0.4564903337
v -0.01221315861 0.07079999924 0.45902129
v -0.0138400209 0.07079999924 0.4609601099
v -0.01633251905 0.07079999924 0.4613996011
v -0.01852438569 0.07079999924 0.4601341325
v 0.04294062138 0.07300000191 0.4426981432
v 0.04389309883 0.07300000191 0.4459419901
v 0.04644813061 0.07300000191 0.4481559259
v 0.0497945118 0.07300000191 0.4486370737
v 0.05286978722 0.07300000191 0.4472326357
v 0.05469758034 0.07300000191 0.4443885309
v 0.05469758034 0.07300000191 0.4410077364
v 0.05286978722 0.07300000191 0.4381636316
v 0.0497945118 0.07300000191 0.4367592127
v 0.04644813061 0.07300000191 0.4372403413
v 0.04389309883 0.07300000191 0.4394542963
v 0.04294062138 0.06699999809 0.4426981432
v 0.04389309883 0.06699999809 0.4394542963
v 0.04644813061 0.06699999809 0.4372403413
v 0.0497945118 0.06699999809 0.4367592127
v 0.05286978722 0.06699999809 0.4381636316
v 0.05469758034 0.06699999809 0.4410077364
v 0.05469758034 0.06699999809 0.4443885309
v 0.05286978722 0.06699999809 0.4472326357
v 0.0497945118 0.06699999809 0.4486370737
v 0.04644813061 0.06699999809 0.4481559259
v 0.04389309883 0.06699999809 0.4459419901
v 0.04294062138 0.07300000191 0.4426981432
v 0.04294062138 0.06699999809 0.4426981432
v -0.01939002037 0.07079999924 0.3819976885
v -0.01852438569 0.07079999924 0.3843760091
v -0.01633251905 0.07079999924 0.3856414777
v -0.0138400209 0.07079999924 0.3852019865
v -0.01221315861 0.07079999924 0.3832631666
v -0.01221315861 0.07079999924 0.3807322199
v -0.0138400209 0.07079999924 0.3787934
v -0.01633251905 0.07079999924 0.3783538992
v -0.01852438569 0.07079999924 0.3796193773
v -0.01939002037 0.06699999809 0.3819976885
v -0.01852438569 0.06699999809 0.3796193773
v -0.01633251905 0.06699999809 0.3783538992
v -0.0138400209 0.06699999809 0.3787934
v -0.01221315861 0.06699999809 0.3807322199
v -0.01221315861 0.06699999809 0.3832631666
v -0.0138400209 0.06699999809 0.3852019865
v -0.01633251905 0.06699999809 0.3856414777
v -0.01852438569 0.06699999809 0.3843760091
v -0.01939002037 0.07079999924 0.3819976885
v -0.01939002037 0.06699999809 0.3819976885
v -0.03957906008 0.07079999924 0.4041867334
v -0.0387290597 0.07079999924 0.4056589777
v -0.03702906132 0.07079999924 0.4056589777
v -0.03617906094 0.07079999924 0.4041867334
v -0.03702906132 0.07079999924 0.4027144891
v -0.0387290597 0.07079999924 0.4027144891
v -0.04157906055 0.07079999924 0.4041867334
v -0.04071342468 0.07079999924 0.4018084127
v -0.03852155924 0.07079999924 0.4005429441
v -0.03602905989 0.07079999924 0.4009824354
v -0.03440219879 0.07079999924 0.4029212553
v -0.03440219879 0.07079999924 0.405452202
v -0.03602905989 0.07079999924 0.4073910219
v -0.03852155924 0.07079999924 0.4078305227
v -0.04071342468 0.07079999924 0.4065650446
v -0.02882138729 0.07300000191 0.4688173753
v -0.02786890745 0.07300000191 0.4720612222
v -0.02531387568 0.07300000191 0.4742751581
v -0.02196749687 0.07300000191 0.4747563059
v -0.01889222145 0.07300000191 0.4733518678
v -0.01706442833 0.07300000191 0.4705077631
v -0.01706442833 0.07300000191 0.4671269685
v -0.01889222145 0.07300000191 0.4642828828
v -0.02196749687 0.07300000191 0.4628784448
v -0.02531387568 0.07300000191 0.4633595735
v -0.02786890745 0.07300000191 0.4655735284
v -0.02882138729 0.06699999809 0.4688173753
v -0.02786890745 0.06699999809 0.4655735284
v -0.02531387568 0.06699999809 0.4633595735
v -0.02196749687 0.06699999809 0.4628784448
v -0.01889222145 0.06699999809 0.4642828828
v -0.01706442833 0.06699999809 0.4671269685
v -0.01706442833 0.06699999809 0.4705077631
v -0.01889222145 0.06699999809 0.4733518678
v -0.02196749687 0.06699999809 0.4747563059
v -0.02531387568 0.06699999809 0.4742751581
v -0.02786890745 0.06699999809 0.4720612222
v -0.02882138729 0.07300000191 0.4688173753
v -0.02882138729 0.06699999809 0.4688173753
v 0.03417906046 0.07079999924 0.4041867334
v 0.03504469633 0.07079999924 0.4065650446
v 0.03723656178 0.07079999924 0.4078305227
v 0.03972906113 0.07079999924 0.4073910219
v 0.04135592461 0.07079999924 0.405452202
v 0.04135592461 0.07079999924 0.4029212553
v 0.03972906113 0.07079999924 0.4009824354
v 0.03723656178 0.07079999924 0.4005429441
v 0.03504469633 0.07079999924 0.4018084127
v 0.03417906046 0.06699999809 0.4041867334
v 0.03504469633 0.06699999809 0.4018084127
v 0.03723656178 0.06699999809 0.4005429441
v 0.03972906113 0.06699999809 0.4009824354
v 0.04135592461 0.06699999809 0.4029212553
v 0.04135592461 0.06699999809 0.405452202
v 0.03972906113 0.06699999809 0.4073910219
v 0.03723656178 0.06699999809 0.4078305227
v 0.03504469633 0.06699999809 0.4065650446
v 0.03417906046 0.07079999924 0.4041867334
v 0.03417906046 0.06699999809 0.4041867334
v -0.01739002109 0.07079999924 0.3819976885
v -0.0165400207 0.07079999924 0.3834699327
v -0.01484002113 0.07079999924 0.3834699327
v -0.01399002075 0.07079999924 0.3819976885
v -0.01484002113 0.07079999924 0.3805254442
v -0.0165400207 0.07079999924 0.3805254442
v -0.01939002037 0.07079999924 0.3819976885
v -0.01852438569 0.07079999924 0.3796193773
v -0.01633251905 0.07079999924 0.3783538992
v -0.0138400209 0.07079999924 0.3787934
v -0.01221315861 0.07079999924 0.3807322199
v -0.01221315861 0.07079999924 0.3832631666
v -0.0138400209 0.07079999924 0.3852019865
v -0.01633251905 0.07079999924 0.3856414777
v -0.01852438569 0.07079999924 0.3843760091
v -0.01739002109 0.07079999924 0.4577558214
v -0.0165400207 0.07079999924 0.4562835771
v -0.01484002113 0.07079999924 0.4562835771
v -0.01399002075 0.07079999924 0.4577558214
v -0.01484002113 0.07079999924 0.4592280656
v -0.0165400207 0.07079999924 0.4592280656
v -0.01739002109 0.07300000191 0.4577558214
v -0.0165400207 0.07300000191 0.4592280656
v -0.01484002113 0.07300000191 0.4592280656
v -0.01399002075 0.07300000191 0.4577558214
v -0.01484002113 0.07300000191 0.4562835771
v -0.0165400207 0.07300000191 0.4562835771
v -0.01739002109 0.07300000191 0.4577558214
v -0.01739002109 0.07079999924 0.4577558214
v 0.01199002028 0.07079999924 0.3819976885
v 0.01285565615 0.07079999924 0.3843760091
v 0.01504752278 0.07079999924 0.3856414777
v 0.01754002094 0.07079999924 0.3852019865
v 0.01916688323 0.07079999924 0.3832631666
v 0.01916688323 0.07079999924 0.3807322199
v 0.01754002094 0.07079999924 0.3787934
v 0.01504752278 0.07079999924 0.3783538992
v 0.01285565615 0.07079999924 0.3796193773
v 0.01199002028 0.06699999809 0.3819976885
v 0.01285565615 0.06699999809 0.3796193773
v 0.01504752278 0.06699999809 0.3783538992
v 0.01754002094 0.06699999809 0.3787934
v 0.01916688323 0.06699999809 0.3807322199
v 0.01916688323 0.06699999809 0.3832631666
v 0.01754002094 0.06699999809 0.3852019865
v 0.01504752278 0.06699999809 0.3856414777
v 0.01285565615 0.06699999809 0.3843760091
v 0.01199002028 0.07079999924 0.3819976885
v 0.01199002028 0.06699999809 0.3819976885
v 0.03617906094 0.07079999924 0.4041867334
v 0.03702906132 0.07079999924 0.4056589777
v 0.0387290597 0.07079999924 0.4056589777
v 0.03957906008 0.07079999924 0.4041867334
v 0.0387290597 0.07079999924 0.4027144891
v 0.03702906132 0.07079999924 0.4027144891
v 0.03417906046 0.07079999924 0.4041867334
v 0.03504469633 0.07079999924 0.4018084127
v 0.03723656178 0.07079999924 0.4005429441
v 0.03972906113 0.07079999924 0.4009824354
v 0.04135592461 0.07079999924 0.4029212553
v 0.04135592461 0.07079999924 0.405452202
v 0.03972906113 0.07079999924 0.4073910219
v 0.03723656178 0.07079999924 0.4078305227
v 0.03504469633 0.07079999924 0.4065650446
v -0.03957906008 0.07079999924 0.4041867334
v -0.0387290597 0.07079999924 0.4027144891
v -0.03702906132 0.07079999924 0.4027144891
v -0.03617906094 0.07079999924 0.4041867334
v -0.03702906132 0.07079999924 0.4056589777
v -0.0387290597 0.07079999924 0.4056589777
v -0.03957906008 0.07300000191 0.4041867334
v -0.0387290597 0.07300000191 0.4056589777
v -0.03702906132 0.07300000191 0.4056589777
v -0.03617906094 0.07300000191 0.4041867334
v -0.03702906132 0.07300000191 0.4027144891
v -0.0387290597 0.07300000191 0.4027144891
v -0.03957906008 0.07300000191 0.4041867334
v -0.03957906008 0.07079999924 0.4041867334
v 0.03417906046 0.07079999924 0.4355667764
v 0.03504469633 0.07079999924 0.4379450876
v 0.03723656178 0.07079999924 0.4392105562
v 0.03972906113 0.07079999924 0.4387710649
v 0.04135592461 0.07079999924 0.436832245
v 0.04135592461 0.07079999924 0.4343013078
v 0.03972906113 0.07079999924 0.4323624879
v 0.03723656178 0.07079999924 0.4319229776
v 0.03504469633 0.07079999924 0.4331884653
v 0.03417906046 0.06699999809 0.4355667764
v 0.03504469633 0.06699999809 0.4331884653
v 0.03723656178 0.06699999809 0.4319229776
v 0.03972906113 0.06699999809 0.4323624879
v 0.04135592461 0.06699999809 0.4343013078
v 0.04135592461 0.06699999809 0.436832245
v 0.03972906113 0.06699999809 0.4387710649
v 0.03723656178 0.06699999809 0.4392105562
v 0.03504469633 0.06699999809 0.4379450876
v 0.03417906046 0.07079999924 0.4355667764
v 0.03417906046 0.06699999809 0.4355667764
v 0.01399002075 0.07079999924 0.3819976885
v 0.01484002113 0.07079999924 0.3834699327
v 0.0165400207 0.07079999924 0.3834699327
v 0.01739002109 0.07079999924 0.3819976885
v 0.0165400207 0.07079999924 0.3805254442
v 0.01484002113 0.07079999924 0.3805254442
v 0.01199002028 0.07079999924 0.3819976885
v 0.01285565615 0.07079999924 0.3796193773
v 0.01504752278 0.07079999924 0.3783538992
v 0.01754002094 0.07079999924 0.3787934
v 0.01916688323 0.07079999924 0.3807322199
v 0.01916688323 0.07079999924 0.3832631666
v 0.01754002094 0.07079999924 0.3852019865
v 0.01504752278 0.07079999924 0.3856414777
v 0.01285565615 0.07079999924 0.3843760091
v -0.01739002109 0.07079999924 0.3819976885
v -0.0165400207 0.07079999924 0.3805254442
v -0.01484002113 0.07079999924 0.3805254442
v -0.01399002075 0.07079999924 0.3819976885
v -0.01484002113 0.07079999924 0.3834699327
v -0.0165400207 0.07079999924 0.3834699327
v -0.01739002109 0.07300000191 0.3819976885
v -0.0165400207 0.07300000191 0.3834699327
v -0.01484002113 0.07300000191 0.3834699327
v -0.01399002075 0.07300000191 0.3819976885
v -0.01484002113 0.07300000191 0.3805254442
v -0.0165400207 0.07300000191 0.3805254442
v -0.01739002109 0.07300000191 0.3819976885
v -0.01739002109 0.07079999924 0.3819976885
v -0.04157906055 0.07079999924 0.4355667764
v -0.04071342468 0.07079999924 0.4379450876
v -0.03852155924 0.07079999924 0.4392105562
v -0.03602905989 0.07079999924 0.4387710649
v -0.03440219879 0.07079999924 0.436832245
v -0.03440219879 0.07079999924 0.4343013078
v -0.03602905989 0.07079999924 0.4323624879
v -0.03852155924 0.07079999924 0.4319229776
v -0.04071342468 0.07079999924 0.4331884653
v -0.04157906055 0.06699999809 0.4355667764
v -0.04071342468 0.06699999809 0.4331884653
v -0.03852155924 0.06699999809 0.4319229776
v -0.03602905989 0.06699999809 0.4323624879
v -0.03440219879 0.06699999809 0.4343013078
v -0.03440219879 0.06699999809 0.436832245
v -0.03602905989 0.06699999809 0.4387710649
v -0.03852155924 0.06699999809 0.4392105562
v -0.04071342468 0.06699999809 0.4379450876
v -0.04157906055 0.07079999924 0.4355667764
v -0.04157906055 0.06699999809 0.4355667764
v 0.03617906094 0.07079999924 0.4355667764
v 0.03702906132 0.07079999924 0.4370390207
v 0.0387290597 0.07079999924 0.4370390207
v 0.03957906008 0.07079999924 0.4355667764
v 0.0387290597 0.07079999924 0.4340945322
v 0.03702906132 0.07079999924 0.4340945322
v 0.03417906046 0.07079999924 0.4355667764
v 0.03504469633 0.07079999924 0.4331884653
v 0.03723656178 0.07079999924 0.4319229776
v 0.03972906113 0.07079999924 0.4323624879
v 0.04135592461 0.07079999924 0.4343013078
v 0.04135592461 0.07079999924 0.436832245
v 0.03972906113 0.07079999924 0.4387710649
v 0.03723656178 0.07079999924 0.4392105562
v 0.03504469633 0.07079999924 0.4379450876
v 0.03617906094 0.07079999924 0.4041867334
v 0.03702906132 0.07079999924 0.4027144891
v 0.0387290597 0.07079999924 0.4027144891
v 0.03957906008 0.07079999924 0.4041867334
v 0.0387290597 0.07079999924 0.4056589777
v 0.03702906132 0.07079999924 0.4056589777
v 0.03617906094 0.07300000191 0.4041867334
v 0.03702906132 0.07300000191 0.4056589777
v 0.0387290597 0.07300000191 0.4056589777
v 0.03957906008 0.07300000191 0.4041867334
v 0.0387290597 0.07300000191 0.4027144891
v 0.03702906132 0.07300000191 0.4027144891
v 0.03617906094 0.07300000191 0.4041867334
v 0.03617906094 0.07079999924 0.4041867334
v 0.01199002028 0.07079999924 0.4577558214
v 0.01285565615 0.07079999924 0.4601341325
v 0.01504752278 0.07079999924 0.4613996011
v 0.01754002094 0.07079999924 0.4609601099
v 0.01916688323 0.07079999924 0.45902129
v 0.01916688323 0.07079999924 0.4564903337
v 0.01754002094 0.07079999924 0.4545515138
v 0.01504752278 0.07079999924 0.4541120226
v 0.01285565615 0.07079999924 0.4553774912
v 0.01199002028 0.06699999809 0.4577558214
v 0.01285565615 0.06699999809 0.4553774912
v 0.01504752278 0.06699999809 0.4541120226
v 0.01754002094 0.06699999809 0.4545515138
v 0.01916688323 0.06699999809 0.4564903337
v 0.01916688323 0.06699999809 0.45902129
v 0.01754002094 0.06699999809 0.4609601099
v 0.01504752278 0.06699999809 0.4613996011
v 0.01285565615 0.06699999809 0.4601341325
v 0.01199002028 0.07079999924 0.4577558214
v 0.01199002028 0.06699999809 0.4577558214
v -0.03957906008 0.07079999924 0.4355667764
v -0.0387290597 0.07079999924 0.4370390207
v -0.03702906132 0.07079999924 0.4370390207
v -0.03617906094 0.07079999924 0.4355667764
v -0.03702906132 0.07079999924 0.4340945322
v -0.0387290597 0.07079999924 0.4340945322
v -0.04157906055 0.07079999924 0.4355667764
v -0.04071342468 0.07079999924 0.4331884653
v -0.03852155924 0.07079999924 0.4319229776
v -0.03602905989 0.07079999924 0.4323624879
v -0.03440219879 0.07079999924 0.4343013078
v -0.03440219879 0.07079999924 0.436832245
v -0.03602905989 0.07079999924 0.4387710649
v -0.03852155924 0.07079999924 0.4392105562
v -0.04071342468 0.07079999924 0.4379450876
v 0.01399002075 0.07079999924 0.3819976885
v 0.01484002113 0.07079999924 0.3805254442
v 0.0165400207 0.07079999924 0.3805254442
v 0.01739002109 0.07079999924 0.3819976885
v 0.0165400207 0.07079999924 0.3834699327
v 0.01484002113 0.07079999924 0.3834699327
v 0.01399002075 0.07300000191 0.3819976885
v 0.01484002113 0.07300000191 0.3834699327
v 0.0165400207 0.07300000191 0.3834699327
v 0.01739002109 0.07300000191 0.3819976885
v 0.0165400207 0.07300000191 0.3805254442
v 0.01484002113 0.07300000191 0.3805254442
v 0.01399002075 0.07300000191 0.3819976885
v 0.01399002075 0.07079999924 0.3819976885
v -0.02799999952 0.07300000191 0.4198767549
v -0.02704592228 0.07300000191 0.4271236879
v -0.02424871206 0.07300000191 0.4338767511
v -0.0197989893 0.07300000191 0.4396757394
v -0.01399999976 0.07300000191 0.4441254694
v -0.007246932983 0.07300000191 0.4469226724
v 9.332918163e-18 0.07300000191 0.4478767473
v 0.007246932983 0.07300000191 0.4469226724
v 0.01399999976 0.07300000191 0.4441254694
v 0.0197989893 0.07300000191 0.4396757394
v 0.02424871206 0.07300000191 0.4338767511
v 0.02704592228 0.07300000191 0.4271236879
v 0.02799999952 0.07300000191 0.4198767549
v 0.02704592228 0.07300000191 0.4126298219
v 0.02424871206 0.07300000191 0.4058767492
v 0.0197989893 0.07300000191 0.4000777609
v 0.01399999976 0.07300000191 0.3956280405
v 0.007246932983 0.07300000191 0.3928308279
v 5.903907476e-18 0.07300000191 0.391876753
v -0.007246932983 0.07300000191 0.3928308279
v -0.01399999976 0.07300000191 0.3956280405
v -0.0197989893 0.07300000191 0.4000777609
v -0.02424871206 0.07300000191 0.4058767492
v -0.02704592228 0.07300000191 0.4126298219
v -0.02799999952 0.06699999809 0.4198767549
v -0.02704592228 0.06699999809 0.4126298219
v -0.02424871206 0.06699999809 0.4058767492
v -0.0197989893 0.06699999809 0.4000777609
v -0.01399999976 0.06699999809 0.3956280405
v -0.007246932983 0.06699999809 0.3928308279
v 6.271301749e-18 0.06699999809 0.391876753
v 0.007246932983 0.06699999809 0.3928308279
v 0.01399999976 0.06699999809 0.3956280405
v 0.0197989893 0.06699999809 0.4000777609
v 0.02424871206 0.06699999809 0.4058767492
v 0.02704592228 0.06699999809 0.4126298219
v 0.02799999952 0.06699999809 0.4198767549
v 0.02704592228 0.06699999809 0.4271236879
v 0.02424871206 0.06699999809 0.4338767511
v 0.0197989893 0.06699999809 0.4396757394
v 0.01399999976 0.06699999809 0.4441254694
v 0.007246932983 0.06699999809 0.4469226724
v 9.700312437e-18 0.06699999809 0.4478767473
v -0.007246932983 0.06699999809 0.4469226724
v -0.01399999976 0.06699999809 0.4441254694
v -0.0197989893 0.06699999809 0.4396757394
v -0.02424871206 0.06699999809 0.4338767511
v -0.02704592228 0.06699999809 0.4271236879
v -0.02799999952 0.07300000191 0.4198767549
v -0.02799999952 0.06699999809 0.4198767549
v 0.01399002075 0.07079999924 0.4577558214
v 0.01484002113 0.07079999924 0.4592280656
v 0.0165400207 0.07079999924 0.4592280656
v 0.01739002109 0.07079999924 0.4577558214
v 0.0165400207 0.07079999924 0.4562835771
v 0.01484002113 0.07079999924 0.4562835771
v 0.01199002028 0.07079999924 0.4577558214
v 0.01285565615 0.07079999924 0.4553774912
v 0.01504752278 0.07079999924 0.4541120226
v 0.01754002094 0.07079999924 0.4545515138
v 0.01916688323 0.07079999924 0.4564903337
v 0.01916688323 0.07079999924 0.45902129
v 0.01754002094 0.07079999924 0.4609601099
v 0.01504752278 0.07079999924 0.4613996011
v 0.01285565615 0.07079999924 0.4601341325
v 0.03617906094 0.07079999924 0.4355667764
v 0.03702906132 0.07079999924 0.4340945322
v 0.0387290597 0.07079999924 0.4340945322
v 0.03957906008 0.07079999924 0.4355667764
v 0.0387290597 0.07079999924 0.4370390207
v 0.03702906132 0.07079999924 0.4370390207
v 0.03617906094 0.07300000191 0.4355667764
v 0.03702906132 0.07300000191 0.4370390207
v 0.0387290597 0.07300000191 0.4370390207
v 0.03957906008 0.07300000191 0.4355667764
v 0.0387290597 0.07300000191 0.4340945322
v 0.03702906132 0.07300000191 0.4340945322
v 0.03617906094 0.07300000191 0.4355667764
v 0.03617906094 0.07079999924 0.4355667764
v -0.03957906008 0.07079999924 0.4355667764
v -0.0387290597 0.07079999924 0.4340945322
v -0.03702906132 0.07079999924 0.4340945322
v -0.03617906094 0.07079999924 0.4355667764
v -0.03702906132 0.07079999924 0.4370390207
v -0.0387290597 0.07079999924 0.4370390207
v -0.03957906008 0.07300000191 0.4355667764
v -0.0387290597 0.07300000191 0.4370390207
v -0.03702906132 0.07300000191 0.4370390207
v -0.03617906094 0.07300000191 0.4355667764
v -0.03702906132 0.07300000191 0.4340945322
v -0.0387290597 0.07300000191 0.4340945322
v -0.03957906008 0.07300000191 0.4355667764
v -0.03957906008 0.07079999924 0.4355667764
v 0.01399002075 0.07079999924 0.4577558214
v 0.01484002113 0.07079999924 0.4562835771
v 0.0165400207 0.07079999924 0.4562835771
v 0.01739002109 0.07079999924 0.4577558214
v 0.0165400207 0.07079999924 0.4592280656
v 0.01484002113 0.07079999924 0.4592280656
v 0.01399002075 0.07300000191 0.4577558214
v 0.01484002113 0.07300000191 0.4592280656
v 0.0165400207 0.07300000191 0.4592280656
v 0.01739002109 0.07300000191 0.4577558214
v 0.0165400207 0.07300000191 0.4562835771
v 0.01484002113 0.07300000191 0.4562835771
v 0.01399002075 0.07300000191 0.4577558214
v 0.01399002075 0.07079999924 0.4577558214
f 8 1 7
f 7 1 2
f 7 2 6
f 6 2 3
f 6 3 5
f 5 3 4
f 9 10 22
f 22 10 11
f 22 11 13
f 13 11 12
f 22 13 21
f 21 13 14
f 21 14 20
f 20 14 15
f 20 15 18
f 18 15 17
f 17 15 16
f 18 19 20
f 30 23 29
f 29 23 24
f 29 24 28
f 28 24 25
f 28 25 27
f 27 25 26
f 38 31 37
f 37 31 32
f 37 32 36
f 36 32 33
f 36 33 35
f 35 33 34
f 39 40 52
f 52 40 41
f 52 41 43
f 43 41 42
f 52 43 51
f 51 43 44
f 51 44 50
f 50 44 45
f 50 45 48
f 48 45 47
f 47 45 46
f 48 49 50
f 53 54 66
f 66 54 55
f 66 55 57
f 57 55 56
f 66 57 65
f 65 57 58
f 65 58 64
f 64 58 59
f 64 59 62
f 62 59 61
f 61 59 60
f 62 63 64
f 67 68 80
f 80 68 69
f 80 69 71
f 71 69 70
f 80 71 79
f 79 71 72
f 79 72 78
f 78 72 73
f 78 73 76
f 76 73 75
f 75 73 74
f 76 77 78
f 88 81 87
f 87 81 82
f 87 82 86
f 86 82 83
f 86 83 85
f 85 83 84
f 90 245 89
f 89 245 246
f 89 246 96
f 96 246 247
f 96 247 271
f 271 247 248
f 271 248 270
f 270 248 146
f 270 146 118
f 118 146 117
f 117 146 147
f 117 147 116
f 116 147 258
f 116 258 259
f 91 154 90
f 90 154 244
f 90 244 245
f 154 91 153
f 153 91 92
f 153 92 275
f 275 92 93
f 275 93 94
f 95 271 94
f 94 271 272
f 94 272 273
f 95 96 271
f 98 187 97
f 97 187 188
f 97 188 104
f 104 188 230
f 104 230 231
f 99 280 98
f 98 280 186
f 98 186 187
f 99 100 280
f 280 100 279
f 279 100 278
f 278 100 277
f 277 100 276
f 276 100 101
f 276 101 102
f 276 102 233
f 233 102 103
f 233 103 232
f 232 103 231
f 231 103 104
f 112 105 265
f 265 105 106
f 265 106 264
f 264 106 263
f 263 106 262
f 262 106 261
f 261 106 107
f 261 107 108
f 261 108 219
f 219 108 109
f 219 109 218
f 218 109 110
f 218 110 217
f 217 110 176
f 217 176 227
f 227 176 177
f 227 177 226
f 226 177 178
f 226 178 129
f 129 178 196
f 129 196 128
f 128 196 197
f 128 197 127
f 127 197 198
f 127 198 126
f 126 198 199
f 126 199 125
f 125 199 184
f 125 184 185
f 110 111 176
f 176 111 175
f 175 111 112
f 175 112 265
f 120 113 266
f 266 113 114
f 266 114 260
f 260 114 115
f 260 115 259
f 259 115 116
f 118 119 270
f 270 119 120
f 270 120 269
f 269 120 268
f 268 120 267
f 267 120 266
f 122 225 121
f 121 225 226
f 121 226 129
f 225 122 224
f 224 122 123
f 224 123 223
f 223 123 124
f 223 124 222
f 222 124 185
f 222 185 186
f 124 125 185
f 131 253 130
f 130 253 254
f 130 254 138
f 138 254 255
f 138 255 137
f 137 255 256
f 137 256 136
f 136 256 140
f 136 140 214
f 214 140 141
f 214 141 213
f 213 141 142
f 213 142 212
f 212 142 143
f 212 143 211
f 211 143 144
f 211 144 157
f 157 144 165
f 165 144 145
f 165 145 239
f 239 145 249
f 249 145 146
f 249 146 248
f 253 131 183
f 183 131 132
f 183 132 182
f 182 132 193
f 182 193 181
f 181 193 194
f 181 194 180
f 180 194 195
f 180 195 179
f 179 195 196
f 179 196 178
f 132 133 193
f 193 133 216
f 216 133 134
f 216 134 215
f 215 134 135
f 215 135 214
f 214 135 136
f 140 256 139
f 139 256 257
f 139 257 147
f 147 257 258
f 156 148 207
f 207 148 149
f 207 149 206
f 206 149 150
f 206 150 205
f 205 150 173
f 205 173 204
f 204 173 174
f 204 174 203
f 203 174 166
f 203 166 167
f 173 150 172
f 172 150 151
f 172 151 236
f 236 151 152
f 236 152 235
f 235 152 275
f 235 275 234
f 234 275 276
f 234 276 233
f 152 153 275
f 244 154 243
f 243 154 155
f 243 155 161
f 161 155 156
f 161 156 208
f 208 156 207
f 211 157 210
f 210 157 158
f 210 158 159
f 210 159 209
f 209 159 160
f 209 160 208
f 208 160 161
f 243 161 242
f 242 161 162
f 242 162 241
f 241 162 163
f 241 163 240
f 240 163 164
f 240 164 239
f 239 164 165
f 168 189 167
f 167 189 202
f 167 202 203
f 169 228 168
f 168 228 229
f 168 229 189
f 189 229 188
f 188 229 230
f 228 169 238
f 238 169 170
f 238 170 237
f 237 170 171
f 237 171 236
f 236 171 172
f 253 183 252
f 252 183 175
f 252 175 251
f 251 175 265
f 251 265 250
f 250 265 266
f 250 266 260
f 189 190 202
f 202 190 201
f 201 190 191
f 201 191 200
f 200 191 192
f 200 192 184
f 199 200 184
f 219 220 261
f 261 220 280
f 280 220 221
f 280 221 186
f 186 221 222
f 273 274 94
f 94 274 275
f 281 282 284
f 284 282 283
f 294 285 293
f 293 285 286
f 293 286 292
f 292 286 287
f 292 287 291
f 291 287 288
f 291 288 290
f 290 288 289
f 295 296 308
f 308 296 297
f 308 297 299
f 299 297 298
f 308 299 307
f 307 299 300
f 307 300 306
f 306 300 301
f 306 301 304
f 304 301 303
f 303 301 302
f 304 305 306
f 318 309 317
f 317 309 310
f 317 310 316
f 316 310 311
f 316 311 315
f 315 311 312
f 315 312 314
f 314 312 313
f 328 319 327
f 327 319 320
f 327 320 326
f 326 320 321
f 326 321 325
f 325 321 322
f 325 322 324
f 324 322 323
f 329 330 332
f 332 330 331
f 340 333 339
f 339 333 334
f 339 334 338
f 338 334 335
f 338 335 337
f 337 335 336
f 341 342 344
f 344 342 343
f 345 346 358
f 358 346 347
f 358 347 349
f 349 347 348
f 358 349 357
f 357 349 350
f 357 350 356
f 356 350 351
f 356 351 354
f 354 351 353
f 353 351 352
f 354 355 356
f 366 359 365
f 365 359 360
f 365 360 364
f 364 360 361
f 364 361 363
f 363 361 362
f 367 368 370
f 370 368 369
f 372 501 371
f 371 501 502
f 371 502 378
f 378 502 503
f 378 503 423
f 423 503 504
f 423 504 422
f 422 504 505
f 422 505 430
f 430 505 506
f 430 506 429
f 429 506 507
f 429 507 428
f 428 507 497
f 428 497 417
f 417 497 498
f 417 498 416
f 416 498 398
f 416 398 399
f 373 533 372
f 372 533 500
f 372 500 501
f 373 374 533
f 533 374 532
f 532 374 531
f 531 374 530
f 530 374 529
f 529 374 375
f 529 375 376
f 377 424 376
f 376 424 490
f 376 490 529
f 529 490 491
f 529 491 528
f 528 491 492
f 528 492 382
f 382 492 381
f 381 492 493
f 381 493 494
f 424 377 423
f 423 377 378
f 386 379 449
f 449 379 380
f 449 380 495
f 495 380 494
f 494 380 381
f 382 383 528
f 528 383 384
f 528 384 527
f 527 384 526
f 526 384 525
f 525 384 524
f 524 384 385
f 524 385 386
f 394 387 519
f 519 387 388
f 519 388 518
f 518 388 439
f 518 439 517
f 517 439 440
f 517 440 516
f 516 440 414
f 516 414 409
f 388 389 439
f 439 389 444
f 444 389 390
f 444 390 476
f 476 390 475
f 475 390 485
f 485 390 391
f 485 391 484
f 484 391 392
f 484 392 523
f 523 392 393
f 523 393 394
f 402 395 538
f 538 395 396
f 538 396 537
f 537 396 536
f 536 396 535
f 535 396 534
f 534 396 397
f 534 397 398
f 399 400 416
f 416 400 511
f 416 511 415
f 415 511 512
f 415 512 513
f 511 400 510
f 510 400 401
f 510 401 509
f 509 401 402
f 509 402 538
f 404 477 403
f 403 477 478
f 403 478 408
f 408 478 479
f 408 479 407
f 407 479 480
f 407 480 450
f 450 480 481
f 450 481 482
f 405 471 404
f 404 471 472
f 404 472 443
f 443 472 473
f 443 473 442
f 442 473 474
f 442 474 441
f 441 474 451
f 441 451 440
f 440 451 414
f 471 405 470
f 470 405 406
f 470 406 469
f 469 406 445
f 469 445 468
f 468 445 446
f 468 446 467
f 467 446 447
f 467 447 466
f 466 447 448
f 466 448 438
f 438 448 496
f 438 496 486
f 445 406 450
f 450 406 407
f 516 409 515
f 515 409 410
f 515 410 514
f 514 410 513
f 513 410 411
f 513 411 415
f 415 411 454
f 415 454 420
f 420 454 455
f 420 455 419
f 419 455 456
f 419 456 418
f 418 456 457
f 418 457 427
f 427 457 458
f 427 458 432
f 432 458 459
f 432 459 431
f 431 459 460
f 431 460 430
f 430 460 422
f 454 411 453
f 453 411 412
f 453 412 452
f 452 412 413
f 452 413 451
f 451 413 414
f 428 417 427
f 427 417 418
f 422 461 421
f 421 461 462
f 421 462 426
f 426 462 463
f 426 463 425
f 425 463 435
f 425 435 489
f 489 435 488
f 488 435 436
f 488 436 487
f 487 436 437
f 487 437 486
f 486 437 438
f 490 424 489
f 489 424 425
f 434 464 433
f 433 464 465
f 433 465 438
f 438 465 466
f 464 434 463
f 463 434 435
f 444 476 443
f 443 476 477
f 443 477 404
f 496 448 495
f 495 448 449
f 386 449 482
f 482 449 450
f 460 461 422
f 386 482 524
f 524 482 483
f 524 483 523
f 523 483 484
f 398 498 534
f 534 498 499
f 534 499 533
f 533 499 500
f 509 538 508
f 508 538 519
f 508 519 518
f 519 520 394
f 394 520 521
f 394 521 522
f 522 523 394
f 548 539 547
f 547 539 540
f 547 540 546
f 546 540 541
f 546 541 545
f 545 541 542
f 545 542 544
f 544 542 543
f 556 549 555
f 555 549 550
f 555 550 554
f 554 550 551
f 554 551 553
f 553 551 552
f 557 558 570
f 570 558 559
f 570 559 561
f 561 559 560
f 570 561 569
f 569 561 562
f 569 562 568
f 568 562 563
f 568 563 566
f 566 563 565
f 565 563 564
f 566 567 568
f 571 572 584
f 584 572 573
f 584 573 575
f 575 573 574
f 584 575 583
f 583 575 576
f 583 576 582
f 582 576 577
f 582 577 580
f 580 577 579
f 579 577 578
f 580 581 582
f 586 600 585
f 585 600 602
f 601 593 592
f 592 593 594
f 592 594 591
f 591 594 595
f 591 595 590
f 590 595 596
f 590 596 589
f 589 596 597
f 589 597 588
f 588 597 598
f 588 598 587
f 587 598 599
f 587 599 586
f 586 599 600
f 610 603 609
f 609 603 604
f 609 604 608
f 608 604 605
f 608 605 607
f 607 605 606
f 612 626 611
f 611 626 628
f 627 619 618
f 618 619 620
f 618 620 617
f 617 620 621
f 617 621 616
f 616 621 622
f 616 622 615
f 615 622 623
f 615 623 614
f 614 623 624
f 614 624 613
f 613 624 625
f 613 625 612
f 612 625 626
f 630 644 629
f 629 644 646
f 645 637 636
f 636 637 638
f 636 638 635
f 635 638 639
f 635 639 634
f 634 639 640
f 634 640 633
f 633 640 641
f 633 641 632
f 632 641 642
f 632 642 631
f 631 642 643
f 631 643 630
f 630 643 644
f 648 662 647
f 647 662 664
f 663 655 654
f 654 655 656
f 654 656 653
f 653 656 657
f 653 657 652
f 652 657 658
f 652 658 651
f 651 658 659
f 651 659 650
f 650 659 660
f 650 660 649
f 649 660 661
f 649 661 648
f 648 661 662
f 666 686 665
f 665 686 688
f 687 676 675
f 675 676 677
f 675 677 674
f 674 677 678
f 674 678 673
f 673 678 679
f 673 679 672
f 672 679 680
f 672 680 671
f 671 680 681
f 671 681 670
f 670 681 682
f 670 682 669
f 669 682 683
f 669 683 668
f 668 683 684
f 668 684 667
f 667 684 685
f 667 685 666
f 666 685 686
f 690 706 689
f 689 706 708
f 707 698 697
f 697 698 699
f 697 699 696
f 696 699 700
f 696 700 695
f 695 700 701
f 695 701 694
f 694 701 702
f 694 702 693
f 693 702 703
f 693 703 692
f 692 703 704
f 692 704 691
f 691 704 705
f 691 705 690
f 690 705 706
f 710 730 709
f 709 730 732
f 731 720 719
f 719 720 721
f 719 721 718
f 718 721 722
f 718 722 717
f 717 722 723
f 717 723 716
f 716 723 724
f 716 724 715
f 715 724 725
f 715 725 714
f 714 725 726
f 714 726 713
f 713 726 727
f 713 727 712
f 712 727 728
f 712 728 711
f 711 728 729
f 711 729 710
f 710 729 730
f 734 750 733
f 733 750 752
f 751 742 741
f 741 742 743
f 741 743 740
f 740 743 744
f 740 744 739
f 739 744 745
f 739 745 738
f 738 745 746
f 738 746 737
f 737 746 747
f 737 747 736
f 736 747 748
f 736 748 735
f 735 748 749
f 735 749 734
f 734 749 750
f 754 767 753
f 753 767 759
f 753 759 760
f 767 754 766
f 766 754 755
f 766 755 765
f 765 755 764
f 764 755 756
f 764 756 763
f 763 756 757
f 763 757 762
f 762 757 761
f 761 757 758
f 761 758 760
f 760 758 753
f 769 789 768
f 768 789 791
f 790 779 778
f 778 779 780
f 778 780 777
f 777 780 781
f 777 781 776
f 776 781 782
f 776 782 775
f 775 782 783
f 775 783 774
f 774 783 784
f 774 784 773
f 773 784 785
f 773 785 772
f 772 785 786
f 772 786 771
f 771 786 787
f 771 787 770
f 770 787 788
f 770 788 769
f 769 788 789
f 793 809 792
f 792 809 811
f 810 801 800
f 800 801 802
f 800 802 799
f 799 802 803
f 799 803 798
f 798 803 804
f 798 804 797
f 797 804 805
f 797 805 796
f 796 805 806
f 796 806 795
f 795 806 807
f 795 807 794
f 794 807 808
f 794 808 793
f 793 808 809
f 813 826 812
f 812 826 818
f 812 818 819
f 826 813 825
f 825 813 814
f 825 814 824
f 824 814 823
f 823 814 815
f 823 815 822
f 822 815 816
f 822 816 821
f 821 816 820
f 820 816 817
f 820 817 819
f 819 817 812
f 828 848 827
f 827 848 850
f 849 838 837
f 837 838 839
f 837 839 836
f 836 839 840
f 836 840 835
f 835 840 841
f 835 841 834
f 834 841 842
f 834 842 833
f 833 842 843
f 833 843 832
f 832 843 844
f 832 844 831
f 831 844 845
f 831 845 830
f 830 845 846
f 830 846 829
f 829 846 847
f 829 847 828
f 828 847 848
f 852 868 851
f 851 868 870
f 869 860 859
f 859 860 861
f 859 861 858
f 858 861 862
f 858 862 857
f 857 862 863
f 857 863 856
f 856 863 864
f 856 864 855
f 855 864 865
f 855 865 854
f 854 865 866
f 854 866 853
f 853 866 867
f 853 867 852
f 852 867 868
f 872 885 871
f 871 885 877
f 871 877 878
f 885 872 884
f 884 872 873
f 884 873 883
f 883 873 882
f 882 873 874
f 882 874 881
f 881 874 875
f 881 875 880
f 880 875 879
f 879 875 876
f 879 876 878
f 878 876 871
f 887 897 886
f 886 897 898
f 899 892 891
f 891 892 893
f 891 893 890
f 890 893 894
f 890 894 889
f 889 894 895
f 889 895 888
f 888 895 896
f 888 896 887
f 887 896 897
f 901 917 900
f 900 917 919
f 918 909 908
f 908 909 910
f 908 910 907
f 907 910 911
f 907 911 906
f 906 911 912
f 906 912 905
f 905 912 913
f 905 913 904
f 904 913 914
f 904 914 903
f 903 914 915
f 903 915 902
f 902 915 916
f 902 916 901
f 901 916 917
f 921 934 920
f 920 934 926
f 920 926 927
f 934 921 933
f 933 921 922
f 933 922 932
f 932 922 931
f 931 922 923
f 931 923 930
f 930 923 924
f 930 924 929
f 929 924 928
f 928 924 925
f 928 925 927
f 927 925 920
f 936 946 935
f 935 946 947
f 948 941 940
f 940 941 942
f 940 942 939
f 939 942 943
f 939 943 938
f 938 943 944
f 938 944 937
f 937 944 945
f 937 945 936
f 936 945 946
f 950 966 949
f 949 966 968
f 967 958 957
f 957 958 959
f 957 959 956
f 956 959 960
f 956 960 955
f 955 960 961
f 955 961 954
f 954 961 962
f 954 962 953
f 953 962 963
f 953 963 952
f 952 963 964
f 952 964 951
f 951 964 965
f 951 965 950
f 950 965 966
f 970 983 969
f 969 983 975
f 969 975 976
f 983 970 982
f 982 970 971
f 982 971 981
f 981 971 980
f 980 971 972
f 980 972 979
f 979 972 973
f 979 973 978
f 978 973 977
f 977 973 974
f 977 974 976
f 976 974 969
f 985 995 984
f 984 995 996
f 997 990 989
f 989 990 991
f 989 991 988
f 988 991 992
f 988 992 987
f 987 992 993
f 987 993 986
f 986 993 994
f 986 994 985
f 985 994 995
f 999 1015 998
f 998 1015 1017
f 1016 1007 1006
f 1006 1007 1008
f 1006 1008 1005
f 1005 1008 1009
f 1005 1009 1004
f 1004 1009 1010
f 1004 1010 1003
f 1003 1010 1011
f 1003 1011 1002
f 1002 1011 1012
f 1002 1012 1001
f 1001 1012 1013
f 1001 1013 1000
f 1000 1013 1014
f 1000 1014 999
f 999 1014 1015
f 1019 1032 1018
f 1018 1032 1024
f 1018 1024 1025
f 1032 1019 1031
f 1031 1019 1020
f 1031 1020 1030
f 1030 1020 1029
f 1029 1020 1021
f 1029 1021 1028
f 1028 1021 1022
f 1028 1022 1027
f 1027 1022 1026
f 1026 1022 1023
f 1026 1023 1025
f 1025 1023 1018
f 1034 1044 1033
f 1033 1044 1045
f 1046 1039 1038
f 1038 1039 1040
f 1038 1040 1037
f 1037 1040 1041
f 1037 1041 1036
f 1036 1041 1042
f 1036 1042 1035
f 1035 1042 1043
f 1035 1043 1034
f 1034 1043 1044
f 1048 1064 1047
f 1047 1064 1066
f 1065 1056 1055
f 1055 1056 1057
f 1055 1057 1054
f 1054 1057 1058
f 1054 1058 1053
f 1053 1058 1059
f 1053 1059 1052
f 1052 1059 1060
f 1052 1060 1051
f 1051 1060 1061
f 1051 1061 1050
f 1050 1061 1062
f 1050 1062 1049
f 1049 1062 1063
f 1049 1063 1048
f 1048 1063 1064
f 1068 1081 1067
f 1067 1081 1073
f 1067 1073 1074
f 1081 1068 1080
f 1080 1068 1069
f 1080 1069 1079
f 1079 1069 1078
f 1078 1069 1070
f 1078 1070 1077
f 1077 1070 1071
f 1077 1071 1076
f 1076 1071 1075
f 1075 1071 1072
f 1075 1072 1074
f 1074 1072 1067
f 1083 1093 1082
f 1082 1093 1094
f 1095 1088 1087
f 1087 1088 1089
f 1087 1089 1086
f 1086 1089 1090
f 1086 1090 1085
f 1085 1090 1091
f 1085 1091 1084
f 1084 1091 1092
f 1084 1092 1083
f 1083 1092 1093
f 1097 1143 1096
f 1096 1143 1145
f 1144 1120 1119
f 1119 1120 1121
f 1119 1121 1118
f 1118 1121 1122
f 1118 1122 1117
f 1117 1122 1123
f 1117 1123 1116
f 1116 1123 1124
f 1116 1124 1115
f 1115 1124 1125
f 1115 1125 1114
f 1114 1125 1126
f 1114 1126 1113
f 1113 1126 1127
f 1113 1127 1112
f 1112 1127 1128
f 1112 1128 1111
f 1111 1128 1129
f 1111 1129 1110
f 1110 1129 1130
f 1110 1130 1109
f 1109 1130 1131
f 1109 1131 1108
f 1108 1131 1132
f 1108 1132 1107
f 1107 1132 1133
f 1107 1133 1106
f 1106 1133 1134
f 1106 1134 1105
f 1105 1134 1135
f 1105 1135 1104
f 1104 1135 1136
f 1104 1136 1103
f 1103 1136 1137
f 1103 1137 1102
f 1102 1137 1138
f 1102 1138 1101
f 1101 1138 1139
f 1101 1139 1100
f 1100 1139 1140
f 1100 1140 1099
f 1099 1140 1141
f 1099 1141 1098
f 1098 1141 1142
f 1098 1142 1097
f 1097 1142 1143
f 1147 1160 1146
f 1146 1160 1152
f 1146 1152 1153
f 1160 1147 1159
f 1159 1147 1148
f 1159 1148 1158
f 1158 1148 1157
f 1157 1148 1149
f 1157 1149 1156
f 1156 1149 1150
f 1156 1150 1155
f 1155 1150 1154
f 1154 1150 1151
f 1154 1151 1153
f 1153 1151 1146
f 1162 1172 1161
f 1161 1172 1173
f 1174 1167 1166
f 1166 1167 1168
f 1166 1168 1165
f 1165 1168 1169
f 1165 1169 1164
f 1164 1169 1170
f 1164 1170 1163
f 1163 1170 1171
f 1163 1171 1162
f 1162 1171 1172
f 1176 1186 1175
f 1175 1186 1187
f 1188 1181 1180
f 1180 1181 1182
f 1180 1182 1179
f 1179 1182 1183
f 1179 1183 1178
f 1178 1183 1184
f 1178 1184 1177
f 1177 1184 1185
f 1177 1185 1176
f 1176 1185 1186
f 1190 1200 1189
f 1189 1200 1201
f 1202 1195 1194
f 1194 1195 1196
f 1194 1196 1193
f 1193 1196 1197
f 1193 1197 1192
f 1192 1197 1198
f 1192 1198 1191
f 1191 1198 1199
f 1191 1199 1190
f 1190 1199 1200
