v 0.1927149963 0.09346500397 0.4598767549
v 0.193624649 0.09346500397 0.464449814
v 0.1962150764 0.09346500397 0.4683266718
v 0.2000919342 0.09346500397 0.4709171182
v 0.2046649933 0.09346500397 0.4718267519
v 0.2092380714 0.09346500397 0.4709171182
v 0.2131149292 0.09346500397 0.4683266718
v 0.2157053566 0.09346500397 0.464449814
v 0.2166150093 0.09346500397 0.4598767549
v 0.2157053566 0.09346500397 0.4553036768
v 0.2131149292 0.09346500397 0.451426819
v 0.2092380714 0.09346500397 0.4488363916
v 0.2046649933 0.09346500397 0.447926758
v 0.2000919342 0.09346500397 0.4488363916
v 0.1962150764 0.09346500397 0.451426819
v 0.193624649 0.09346500397 0.4553036768
v 0.1948649979 0.09561499596 0.4598767549
v 0.1958355141 0.09561499596 0.4556246835
v 0.1985548019 0.09561499596 0.4522148019
v 0.2024843025 0.09561499596 0.4503224641
v 0.2068457031 0.09561499596 0.4503224641
v 0.2107752037 0.09561499596 0.4522148019
v 0.2134944916 0.09561499596 0.4556246835
v 0.2144650078 0.09561499596 0.4598767549
v 0.2134944916 0.09561499596 0.4641288072
v 0.2107752037 0.09561499596 0.4675387079
v 0.2068457031 0.09561499596 0.4694310457
v 0.2024843025 0.09561499596 0.4694310457
v 0.1985548019 0.09561499596 0.4675387079
v 0.1958355141 0.09561499596 0.4641288072
v 0.1927149963 0.09346500397 0.4598767549
v 0.1948649979 0.09561499596 0.4598767549
v 0.1966650009 0.09 0.4598767549
v 0.1975813484 0.09 0.4635945398
v 0.2001204872 0.09 0.4664606172
v 0.2037007141 0.09 0.4678184206
v 0.2075018311 0.09 0.4673568803
v 0.2106530952 0.09 0.46518174
v 0.2124325371 0.09 0.4617912752
v 0.2124325371 0.09 0.4579622347
v 0.2106530952 0.09 0.4545717699
v 0.2075018311 0.09 0.4523966295
v 0.2037007141 0.09 0.4519350893
v 0.2001204872 0.09 0.4532928735
v 0.1975813484 0.09 0.45615897
v 0.1966650009 0.08538499832 0.4598767549
v 0.1975813484 0.08538499832 0.45615897
v 0.2001204872 0.08538499832 0.4532928735
v 0.2037007141 0.08538499832 0.4519350893
v 0.2075018311 0.08538499832 0.4523966295
v 0.2106530952 0.08538499832 0.4545717699
v 0.2124325371 0.08538499832 0.4579622347
v 0.2124325371 0.08538499832 0.4617912752
v 0.2106530952 0.08538499832 0.46518174
v 0.2075018311 0.08538499832 0.4673568803
v 0.2037007141 0.08538499832 0.4678184206
v 0.2001204872 0.08538499832 0.4664606172
v 0.1975813484 0.08538499832 0.4635945398
v 0.1966650009 0.09 0.4598767549
v 0.1966650009 0.08538499832 0.4598767549
v 0.1948649979 0.08538499832 0.4598767549
v 0.1958355141 0.08538499832 0.4641288072
v 0.1985548019 0.08538499832 0.4675387079
v 0.2024843025 0.08538499832 0.4694310457
v 0.2068457031 0.08538499832 0.4694310457
v 0.2107752037 0.08538499832 0.4675387079
v 0.2134944916 0.08538499832 0.4641288072
v 0.2144650078 0.08538499832 0.4598767549
v 0.2134944916 0.08538499832 0.4556246835
v 0.2107752037 0.08538499832 0.4522148019
v 0.2068457031 0.08538499832 0.4503224641
v 0.2024843025 0.08538499832 0.4503224641
v 0.1985548019 0.08538499832 0.4522148019
v 0.1958355141 0.08538499832 0.4556246835
v 0.1927149963 0.08753499985 0.4598767549
v 0.193624649 0.08753499985 0.4553036768
v 0.1962150764 0.08753499985 0.451426819
v 0.2000919342 0.08753499985 0.4488363916
v 0.2046649933 0.08753499985 0.447926758
v 0.2092380714 0.08753499985 0.4488363916
v 0.2131149292 0.08753499985 0.451426819
v 0.2157053566 0.08753499985 0.4553036768
v 0.2166150093 0.08753499985 0.4598767549
v 0.2157053566 0.08753499985 0.464449814
v 0.2131149292 0.08753499985 0.4683266718
v 0.2092380714 0.08753499985 0.4709171182
v 0.2046649933 0.08753499985 0.4718267519
v 0.2000919342 0.08753499985 0.4709171182
v 0.1962150764 0.08753499985 0.4683266718
v 0.193624649 0.08753499985 0.464449814
v 0.1948649979 0.08538499832 0.4598767549
v 0.1927149963 0.08753499985 0.4598767549
v 0.1966650009 0.09561499596 0.4598767549
v 0.1975813484 0.09561499596 0.45615897
v 0.2001204872 0.09561499596 0.4532928735
v 0.2037007141 0.09561499596 0.4519350893
v 0.2075018311 0.09561499596 0.4523966295
v 0.2106530952 0.09561499596 0.4545717699
v 0.2124325371 0.09561499596 0.4579622347
v 0.2124325371 0.09561499596 0.4617912752
v 0.2106530952 0.09561499596 0.46518174
v 0.2075018311 0.09561499596 0.4673568803
v 0.2037007141 0.09561499596 0.4678184206
v 0.2001204872 0.09561499596 0.4664606172
v 0.1975813484 0.09561499596 0.4635945398
v 0.1948649979 0.09561499596 0.4598767549
v 0.1958355141 0.09561499596 0.4641288072
v 0.1985548019 0.09561499596 0.4675387079
v 0.2024843025 0.09561499596 0.4694310457
v 0.2068457031 0.09561499596 0.4694310457
v 0.2107752037 0.09561499596 0.4675387079
v 0.2134944916 0.09561499596 0.4641288072
v 0.2144650078 0.09561499596 0.4598767549
v 0.2134944916 0.09561499596 0.4556246835
v 0.2107752037 0.09561499596 0.4522148019
v 0.2068457031 0.09561499596 0.4503224641
v 0.2024843025 0.09561499596 0.4503224641
v 0.1985548019 0.09561499596 0.4522148019
v 0.1958355141 0.09561499596 0.4556246835
v 0.1976650047 0.09100000381 0.4598767549
v 0.198602829 0.09100000381 0.4633767587
v 0.2011650085 0.09100000381 0.4659389383
v 0.2046649933 0.09100000381 0.4668767435
v 0.2081649971 0.09100000381 0.4659389383
v 0.2107271767 0.09100000381 0.4633767587
v 0.2116650009 0.09100000381 0.4598767549
v 0.2107271767 0.09100000381 0.4563767511
v 0.2081649971 0.09100000381 0.4538145715
v 0.2046649933 0.09100000381 0.4528767473
v 0.2011650085 0.09100000381 0.4538145715
v 0.198602829 0.09100000381 0.4563767511
v 0.1976650047 0.09 0.4598767549
v 0.198602829 0.09 0.4563767511
v 0.2011650085 0.09 0.4538145715
v 0.2046649933 0.09 0.4528767473
v 0.2081649971 0.09 0.4538145715
v 0.2107271767 0.09 0.4563767511
v 0.2116650009 0.09 0.4598767549
v 0.2107271767 0.09 0.4633767587
v 0.2081649971 0.09 0.4659389383
v 0.2046649933 0.09 0.4668767435
v 0.2011650085 0.09 0.4659389383
v 0.198602829 0.09 0.4633767587
v 0.1976650047 0.09100000381 0.4598767549
v 0.1976650047 0.09 0.4598767549
v 0.1966650009 0.08538499832 0.4598767549
v 0.1975813484 0.08538499832 0.4635945398
v 0.2001204872 0.08538499832 0.4664606172
v 0.2037007141 0.08538499832 0.4678184206
v 0.2075018311 0.08538499832 0.4673568803
v 0.2106530952 0.08538499832 0.46518174
v 0.2124325371 0.08538499832 0.4617912752
v 0.2124325371 0.08538499832 0.4579622347
v 0.2106530952 0.08538499832 0.4545717699
v 0.2075018311 0.08538499832 0.4523966295
v 0.2037007141 0.08538499832 0.4519350893
v 0.2001204872 0.08538499832 0.4532928735
v 0.1975813484 0.08538499832 0.45615897
v 0.1948649979 0.08538499832 0.4598767549
v 0.1958355141 0.08538499832 0.4556246835
v 0.1985548019 0.08538499832 0.4522148019
v 0.2024843025 0.08538499832 0.4503224641
v 0.2068457031 0.08538499832 0.4503224641
v 0.2107752037 0.08538499832 0.4522148019
v 0.2134944916 0.08538499832 0.4556246835
v 0.2144650078 0.08538499832 0.4598767549
v 0.2134944916 0.08538499832 0.4641288072
v 0.2107752037 0.08538499832 0.4675387079
v 0.2068457031 0.08538499832 0.4694310457
v 0.2024843025 0.08538499832 0.4694310457
v 0.1985548019 0.08538499832 0.4675387079
v 0.1958355141 0.08538499832 0.4641288072
v 0.1976650047 0.09 0.4598767549
v 0.198602829 0.09 0.4633767587
v 0.2011650085 0.09 0.4659389383
v 0.2046649933 0.09 0.4668767435
v 0.2081649971 0.09 0.4659389383
v 0.2107271767 0.09 0.4633767587
v 0.2116650009 0.09 0.4598767549
v 0.2107271767 0.09 0.4563767511
v 0.2081649971 0.09 0.4538145715
v 0.2046649933 0.09 0.4528767473
v 0.2011650085 0.09 0.4538145715
v 0.198602829 0.09 0.4563767511
v 0.1966650009 0.09 0.4598767549
v 0.1975813484 0.09 0.45615897
v 0.2001204872 0.09 0.4532928735
v 0.2037007141 0.09 0.4519350893
v 0.2075018311 0.09 0.4523966295
v 0.2106530952 0.09 0.4545717699
v 0.2124325371 0.09 0.4579622347
v 0.2124325371 0.09 0.4617912752
v 0.2106530952 0.09 0.46518174
v 0.2075018311 0.09 0.4673568803
v 0.2037007141 0.09 0.4678184206
v 0.2001204872 0.09 0.4664606172
v 0.1975813484 0.09 0.4635945398
v 0.1927149963 0.09346500397 0.4598767549
v 0.193624649 0.09346500397 0.4553036768
v 0.1962150764 0.09346500397 0.451426819
v 0.2000919342 0.09346500397 0.4488363916
v 0.2046649933 0.09346500397 0.447926758
v 0.2092380714 0.09346500397 0.4488363916
v 0.2131149292 0.09346500397 0.451426819
v 0.2157053566 0.09346500397 0.4553036768
v 0.2166150093 0.09346500397 0.4598767549
v 0.2157053566 0.09346500397 0.464449814
v 0.2131149292 0.09346500397 0.4683266718
v 0.2092380714 0.09346500397 0.4709171182
v 0.2046649933 0.09346500397 0.4718267519
v 0.2000919342 0.09346500397 0.4709171182
v 0.1962150764 0.09346500397 0.4683266718
v 0.193624649 0.09346500397 0.464449814
v 0.1927149963 0.08753499985 0.4598767549
v 0.193624649 0.08753499985 0.464449814
v 0.1962150764 0.08753499985 0.4683266718
v 0.2000919342 0.08753499985 0.4709171182
v 0.2046649933 0.08753499985 0.4718267519
v 0.2092380714 0.08753499985 0.4709171182
v 0.2131149292 0.08753499985 0.4683266718
v 0.2157053566 0.08753499985 0.464449814
v 0.2166150093 0.08753499985 0.4598767549
v 0.2157053566 0.08753499985 0.4553036768
v 0.2131149292 0.08753499985 0.451426819
v 0.2092380714 0.08753499985 0.4488363916
v 0.2046649933 0.08753499985 0.447926758
v 0.2000919342 0.08753499985 0.4488363916
v 0.1962150764 0.08753499985 0.451426819
v 0.193624649 0.08753499985 0.4553036768
v 0.1927149963 0.08753499985 0.4598767549
v 0.1927149963 0.09346500397 0.4598767549
v 0.1966650009 0.09100000381 0.4598767549
v 0.1975813484 0.09100000381 0.45615897
v 0.2001204872 0.09100000381 0.4532928735
v 0.2037007141 0.09100000381 0.4519350893
v 0.2075018311 0.09100000381 0.4523966295
v 0.2106530952 0.09100000381 0.4545717699
v 0.2124325371 0.09100000381 0.4579622347
v 0.2124325371 0.09100000381 0.4617912752
v 0.2106530952 0.09100000381 0.46518174
v 0.2075018311 0.09100000381 0.4673568803
v 0.2037007141 0.09100000381 0.4678184206
v 0.2001204872 0.09100000381 0.4664606172
v 0.1975813484 0.09100000381 0.4635945398
v 0.1966650009 0.09561499596 0.4598767549
v 0.1975813484 0.09561499596 0.4635945398
v 0.2001204872 0.09561499596 0.4664606172
v 0.2037007141 0.09561499596 0.4678184206
v 0.2075018311 0.09561499596 0.4673568803
v 0.2106530952 0.09561499596 0.46518174
v 0.2124325371 0.09561499596 0.4617912752
v 0.2124325371 0.09561499596 0.4579622347
v 0.2106530952 0.09561499596 0.4545717699
v 0.2075018311 0.09561499596 0.4523966295
v 0.2037007141 0.09561499596 0.4519350893
v 0.2001204872 0.09561499596 0.4532928735
v 0.1975813484 0.09561499596 0.45615897
v 0.1966650009 0.09100000381 0.4598767549
v 0.1966650009 0.09561499596 0.4598767549
v 0.1976650047 0.09100000381 0.4598767549
v 0.198602829 0.09100000381 0.4563767511
v 0.2011650085 0.09100000381 0.4538145715
v 0.2046649933 0.09100000381 0.4528767473
v 0.2081649971 0.09100000381 0.4538145715
v 0.2107271767 0.09100000381 0.4563767511
v 0.2116650009 0.09100000381 0.4598767549
v 0.2107271767 0.09100000381 0.4633767587
v 0.2081649971 0.09100000381 0.4659389383
v 0.2046649933 0.09100000381 0.4668767435
v 0.2011650085 0.09100000381 0.4659389383
v 0.198602829 0.09100000381 0.4633767587
v 0.1966650009 0.09100000381 0.4598767549
v 0.1975813484 0.09100000381 0.4635945398
v 0.2001204872 0.09100000381 0.4664606172
v 0.2037007141 0.09100000381 0.4678184206
v 0.2075018311 0.09100000381 0.4673568803
v 0.2106530952 0.09100000381 0.46518174
v 0.2124325371 0.09100000381 0.4617912752
v 0.2124325371 0.09100000381 0.4579622347
v 0.2106530952 0.09100000381 0.4545717699
v 0.2075018311 0.09100000381 0.4523966295
v 0.2037007141 0.09100000381 0.4519350893
v 0.2001204872 0.09100000381 0.4532928735
v 0.1975813484 0.09100000381 0.45615897
f 16 31 17
f 32 1 2
f 32 2 30
f 30 2 3
f 30 3 29
f 29 3 4
f 29 4 28
f 28 4 5
f 28 5 27
f 27 5 6
f 27 6 26
f 26 6 7
f 26 7 25
f 25 7 8
f 25 8 24
f 24 8 9
f 24 9 10
f 24 10 23
f 23 10 11
f 23 11 22
f 22 11 12
f 22 12 21
f 21 12 13
f 21 13 20
f 20 13 14
f 20 14 19
f 19 14 15
f 19 15 18
f 18 15 16
f 18 16 17
f 34 58 33
f 33 58 60
f 59 46 45
f 45 46 47
f 45 47 44
f 44 47 48
f 44 48 43
f 43 48 49
f 43 49 42
f 42 49 50
f 42 50 41
f 41 50 51
f 41 51 40
f 40 51 52
f 40 52 39
f 39 52 53
f 39 53 38
f 38 53 54
f 38 54 37
f 37 54 55
f 37 55 36
f 36 55 56
f 36 56 35
f 35 56 57
f 35 57 34
f 34 57 58
f 62 90 61
f 61 90 92
f 91 75 76
f 90 62 89
f 89 62 63
f 89 63 88
f 88 63 64
f 88 64 87
f 87 64 65
f 87 65 86
f 86 65 66
f 86 66 85
f 85 66 67
f 85 67 84
f 84 67 68
f 84 68 83
f 83 68 82
f 82 68 69
f 82 69 81
f 81 69 70
f 81 70 80
f 80 70 71
f 80 71 79
f 79 71 72
f 79 72 78
f 78 72 73
f 78 73 77
f 77 73 74
f 77 74 76
f 76 74 91
f 94 119 93
f 93 119 106
f 93 106 107
f 119 94 118
f 118 94 95
f 118 95 117
f 117 95 96
f 117 96 116
f 116 96 97
f 116 97 115
f 115 97 98
f 115 98 114
f 114 98 99
f 114 99 113
f 113 99 100
f 113 100 112
f 112 100 101
f 112 101 111
f 111 101 102
f 111 102 110
f 110 102 103
f 110 103 109
f 109 103 104
f 109 104 108
f 108 104 105
f 108 105 107
f 107 105 93
f 121 143 120
f 120 143 145
f 144 132 131
f 131 132 133
f 131 133 130
f 130 133 134
f 130 134 129
f 129 134 135
f 129 135 128
f 128 135 136
f 128 136 127
f 127 136 137
f 127 137 126
f 126 137 138
f 126 138 125
f 125 138 139
f 125 139 124
f 124 139 140
f 124 140 123
f 123 140 141
f 123 141 122
f 122 141 142
f 122 142 121
f 121 142 143
f 147 172 146
f 146 172 159
f 146 159 160
f 172 147 171
f 171 147 148
f 171 148 170
f 170 148 149
f 170 149 169
f 169 149 150
f 169 150 168
f 168 150 151
f 168 151 167
f 167 151 152
f 167 152 166
f 166 152 153
f 166 153 165
f 165 153 154
f 165 154 164
f 164 154 155
f 164 155 163
f 163 155 156
f 163 156 162
f 162 156 157
f 162 157 161
f 161 157 158
f 161 158 160
f 160 158 146
f 174 197 173
f 173 197 185
f 173 185 186
f 197 174 196
f 196 174 175
f 196 175 195
f 195 175 176
f 195 176 194
f 194 176 177
f 194 177 193
f 193 177 178
f 193 178 192
f 192 178 179
f 192 179 191
f 191 179 180
f 191 180 190
f 190 180 181
f 190 181 189
f 189 181 182
f 189 182 188
f 188 182 183
f 188 183 187
f 187 183 184
f 187 184 186
f 186 184 173
f 199 229 198
f 198 229 230
f 231 214 213
f 213 214 215
f 213 215 212
f 212 215 216
f 212 216 211
f 211 216 217
f 211 217 210
f 210 217 218
f 210 218 209
f 209 218 219
f 209 219 208
f 208 219 220
f 208 220 207
f 207 220 221
f 207 221 206
f 206 221 222
f 206 222 205
f 205 222 223
f 205 223 204
f 204 223 224
f 204 224 203
f 203 224 225
f 203 225 202
f 202 225 226
f 202 226 201
f 201 226 227
f 201 227 200
f 200 227 228
f 200 228 199
f 199 228 229
f 233 257 232
f 232 257 259
f 258 245 244
f 244 245 246
f 244 246 243
f 243 246 247
f 243 247 242
f 242 247 248
f 242 248 241
f 241 248 249
f 241 249 240
f 240 249 250
f 240 250 239
f 239 250 251
f 239 251 238
f 238 251 252
f 238 252 237
f 237 252 253
f 237 253 236
f 236 253 254
f 236 254 235
f 235 254 255
f 235 255 234
f 234 255 256
f 234 256 233
f 233 256 257
f 261 284 260
f 260 284 272
f 260 272 273
f 284 261 283
f 283 261 262
f 283 262 282
f 282 262 263
f 282 263 281
f 281 263 264
f 281 264 280
f 280 264 265
f 280 265 279
f 279 265 266
f 279 266 278
f 278 266 267
f 278 267 277
f 277 267 268
f 277 268 276
f 276 268 269
f 276 269 275
f 275 269 270
f 275 270 274
f 274 270 271
f 274 271 273
f 273 271 260
