v -0.06925000191 0.06599999905 0.3548767549
v -0.06843832016 0.06599999905 0.3523786623
v -0.06631332397 0.06599999905 0.3508347589
v -0.06368667603 0.06599999905 0.3508347589
v -0.06156167984 0.06599999905 0.3523786623
v -0.06074999809 0.06599999905 0.3548767549
v -0.06156167984 0.06599999905 0.357374838
v -0.06368667603 0.06599999905 0.3589187414
v -0.06631332397 0.06599999905 0.3589187414
v -0.06843832016 0.06599999905 0.357374838
v -0.06925000191 0.06099999905 0.3548767549
v -0.06843832016 0.06099999905 0.357374838
v -0.06631332397 0.06099999905 0.3589187414
v -0.06368667603 0.06099999905 0.3589187414
v -0.06156167984 0.06099999905 0.357374838
v -0.06074999809 0.06099999905 0.3548767549
v -0.06156167984 0.06099999905 0.3523786623
v -0.06368667603 0.06099999905 0.3508347589
v -0.06631332397 0.06099999905 0.3508347589
v -0.06843832016 0.06099999905 0.3523786623
v -0.06925000191 0.06099999905 0.3548767549
v -0.06925000191 0.06599999905 0.3548767549
v -0.06925000191 0.06599999905 0.3548767549
v -0.06843832016 0.06599999905 0.357374838
v -0.06631332397 0.06599999905 0.3589187414
v -0.06368667603 0.06599999905 0.3589187414
v -0.06156167984 0.06599999905 0.357374838
v -0.06074999809 0.06599999905 0.3548767549
v -0.06156167984 0.06599999905 0.3523786623
v -0.06368667603 0.06599999905 0.3508347589
v -0.06631332397 0.06599999905 0.3508347589
v -0.06843832016 0.06599999905 0.3523786623
v -0.0675 0.06599999905 0.3548767549
v -0.06676776886 0.06599999905 0.3531089861
v -0.065 0.06599999905 0.3523767549
v -0.06323223114 0.06599999905 0.3531089861
v -0.0625 0.06599999905 0.3548767549
v -0.06323223114 0.06599999905 0.3566445238
v -0.065 0.06599999905 0.3573767549
v -0.06676776886 0.06599999905 0.3566445238
v -0.06925000191 0.06099999905 0.3548767549
v -0.06843832016 0.06099999905 0.3523786623
v -0.06631332397 0.06099999905 0.3508347589
v -0.06368667603 0.06099999905 0.3508347589
v -0.06156167984 0.06099999905 0.3523786623
v -0.06074999809 0.06099999905 0.3548767549
v -0.06156167984 0.06099999905 0.357374838
v -0.06368667603 0.06099999905 0.3589187414
v -0.06631332397 0.06099999905 0.3589187414
v -0.06843832016 0.06099999905 0.357374838
v -0.0675 0.09100000381 0.3548767549
v -0.06676776886 0.09100000381 0.3531089861
v -0.065 0.09100000381 0.3523767549
v -0.06323223114 0.09100000381 0.3531089861
v -0.0625 0.09100000381 0.3548767549
v -0.06323223114 0.09100000381 0.3566445238
v -0.065 0.09100000381 0.3573767549
v -0.06676776886 0.09100000381 0.3566445238
v -0.0675 0.06599999905 0.3548767549
v -0.06676776886 0.06599999905 0.3566445238
v -0.065 0.06599999905 0.3573767549
v -0.06323223114 0.06599999905 0.3566445238
v -0.0625 0.06599999905 0.3548767549
v -0.06323223114 0.06599999905 0.3531089861
v -0.065 0.06599999905 0.3523767549
v -0.06676776886 0.06599999905 0.3531089861
v -0.0675 0.06599999905 0.3548767549
v -0.0675 0.09100000381 0.3548767549
v -0.0675 0.09100000381 0.3548767549
v -0.06676776886 0.09100000381 0.3566445238
v -0.065 0.09100000381 0.3573767549
v -0.06323223114 0.09100000381 0.3566445238
v -0.0625 0.09100000381 0.3548767549
v -0.06323223114 0.09100000381 0.3531089861
v -0.065 0.09100000381 0.3523767549
v -0.06676776886 0.09100000381 0.3531089861
f 2 20 1
f 1 20 21
f 22 11 10
f 10 11 12
f 10 12 9
f 9 12 13
f 9 13 8
f 8 13 14
f 8 14 7
f 7 14 15
f 7 15 6
f 6 15 16
f 6 16 5
f 5 16 17
f 5 17 4
f 4 17 18
f 4 18 3
f 3 18 19
f 3 19 2
f 2 19 20
f 32 23 33
f 33 23 24
f 33 24 40
f 40 24 25
f 40 25 39
f 39 25 26
f 39 26 38
f 38 26 27
f 38 27 37
f 37 27 28
f 37 28 29
f 37 29 36
f 36 29 30
f 36 30 35
f 35 30 31
f 35 31 34
f 34 31 32
f 34 32 33
f 42 45 41
f 41 45 46
f 41 46 50
f 50 46 47
f 50 47 49
f 49 47 48
f 43 44 42
f 42 44 45
f 52 66 51
f 51 66 67
f 68 59 58
f 58 59 60
f 58 60 61
f 52 53 66
f 66 53 65
f 65 53 54
f 65 54 64
f 64 54 55
f 64 55 63
f 63 55 56
f 63 56 62
f 62 56 57
f 62 57 61
f 61 57 58
f 70 72 69
f 69 72 73
f 69 73 76
f 76 73 74
f 76 74 75
f 70 71 72
