v -0.2078644753 0.07199999809 0.4578692896
v -0.2088977432 0.07199999809 0.4602841646
v -0.2083142471 0.07199999809 0.4628451807
v -0.2063368607 0.07199999809 0.4645740968
v -0.2037208748 0.07199999809 0.4648105508
v -0.2014655113 0.07199999809 0.4634642297
v -0.2004322624 0.07199999809 0.4610493356
v -0.2010157585 0.07199999809 0.4584883386
v -0.202993145 0.07199999809 0.4567594034
v -0.2056091309 0.07199999809 0.4565229494
v -0.2065470505 0.07199999809 0.4590211755
v -0.2048322105 0.07199999809 0.4581723482
v -0.2030194283 0.07199999809 0.4587847025
v -0.2021706009 0.07199999809 0.4604995424
v -0.2027829552 0.07199999809 0.4623123247
v -0.204497776 0.07199999809 0.463161152
v -0.2063105774 0.07199999809 0.4625487978
v -0.2071594048 0.07199999809 0.4608339578
v -0.2068507385 0.06699999809 0.4614123422
v -0.2051121712 0.06699999809 0.4629324419
v -0.202926445 0.06699999809 0.4621868593
v -0.2024792671 0.06699999809 0.4599211771
v -0.2042178154 0.06699999809 0.4584010584
v -0.2064035606 0.06699999809 0.4591466409
v -0.2078644753 0.06699999809 0.4578692896
v -0.2056091309 0.06699999809 0.4565229494
v -0.202993145 0.06699999809 0.4567594034
v -0.2010157585 0.06699999809 0.4584883386
v -0.2004322624 0.06699999809 0.4610493356
v -0.2014655113 0.06699999809 0.4634642297
v -0.2037208748 0.06699999809 0.4648105508
v -0.2063368607 0.06699999809 0.4645740968
v -0.2083142471 0.06699999809 0.4628451807
v -0.2088977432 0.06699999809 0.4602841646
v -0.2051121712 0.06699999809 0.4629324419
v -0.2068507385 0.06699999809 0.4614123422
v -0.2068507385 0.06949999809 0.4614123422
v -0.2051121712 0.06949999809 0.4629324419
v -0.2068507385 0.06699999809 0.4614123422
v -0.2064035606 0.06699999809 0.4591466409
v -0.2064035606 0.06949999809 0.4591466409
v -0.2068507385 0.06949999809 0.4614123422
v -0.202926445 0.06949999809 0.4621868593
v -0.2051121712 0.06949999809 0.4629324419
v -0.2068507385 0.06949999809 0.4614123422
v -0.2064035606 0.06949999809 0.4591466409
v -0.2042178154 0.06949999809 0.4584010584
v -0.2024792671 0.06949999809 0.4599211771
v -0.202926445 0.06699999809 0.4621868593
v -0.2051121712 0.06699999809 0.4629324419
v -0.2051121712 0.06949999809 0.4629324419
v -0.202926445 0.06949999809 0.4621868593
v -0.2024792671 0.06699999809 0.4599211771
v -0.202926445 0.06699999809 0.4621868593
v -0.202926445 0.06949999809 0.4621868593
v -0.2024792671 0.06949999809 0.4599211771
v -0.2042178154 0.06699999809 0.4584010584
v -0.2024792671 0.06699999809 0.4599211771
v -0.2024792671 0.06949999809 0.4599211771
v -0.2042178154 0.06949999809 0.4584010584
v -0.2064035606 0.06699999809 0.4591466409
v -0.2042178154 0.06699999809 0.4584010584
v -0.2042178154 0.06949999809 0.4584010584
v -0.2064035606 0.06949999809 0.4591466409
v -0.2065470505 0.1069999981 0.4590211755
v -0.2048322105 0.1069999981 0.4581723482
v -0.2030194283 0.1069999981 0.4587847025
v -0.2021706009 0.1069999981 0.4604995424
v -0.2027829552 0.1069999981 0.4623123247
v -0.204497776 0.1069999981 0.463161152
v -0.2063105774 0.1069999981 0.4625487978
v -0.2071594048 0.1069999981 0.4608339578
v -0.2065470505 0.07199999809 0.4590211755
v -0.2071594048 0.07199999809 0.4608339578
v -0.2063105774 0.07199999809 0.4625487978
v -0.204497776 0.07199999809 0.463161152
v -0.2027829552 0.07199999809 0.4623123247
v -0.2021706009 0.07199999809 0.4604995424
v -0.2030194283 0.07199999809 0.4587847025
v -0.2048322105 0.07199999809 0.4581723482
v -0.2065470505 0.07199999809 0.4590211755
v -0.2065470505 0.1069999981 0.4590211755
v -0.2065470505 0.1069999981 0.4590211755
v -0.2071594048 0.1069999981 0.4608339578
v -0.2063105774 0.1069999981 0.4625487978
v -0.204497776 0.1069999981 0.463161152
v -0.2027829552 0.1069999981 0.4623123247
v -0.2021706009 0.1069999981 0.4604995424
v -0.2030194283 0.1069999981 0.4587847025
v -0.2048322105 0.1069999981 0.4581723482
v -0.2078644753 0.07199999809 0.4578692896
v -0.2056091309 0.07199999809 0.4565229494
v -0.202993145 0.07199999809 0.4567594034
v -0.2010157585 0.07199999809 0.4584883386
v -0.2004322624 0.07199999809 0.4610493356
v -0.2014655113 0.07199999809 0.4634642297
v -0.2037208748 0.07199999809 0.4648105508
v -0.2063368607 0.07199999809 0.4645740968
v -0.2083142471 0.07199999809 0.4628451807
v -0.2088977432 0.07199999809 0.4602841646
v -0.2078644753 0.06699999809 0.4578692896
v -0.2088977432 0.06699999809 0.4602841646
v -0.2083142471 0.06699999809 0.4628451807
v -0.2063368607 0.06699999809 0.4645740968
v -0.2037208748 0.06699999809 0.4648105508
v -0.2014655113 0.06699999809 0.4634642297
v -0.2004322624 0.06699999809 0.4610493356
v -0.2010157585 0.06699999809 0.4584883386
v -0.202993145 0.06699999809 0.4567594034
v -0.2056091309 0.06699999809 0.4565229494
v -0.2078644753 0.06699999809 0.4578692896
v -0.2078644753 0.07199999809 0.4578692896
f 10 1 11
f 11 1 2
f 11 2 18
f 18 2 3
f 18 3 17
f 17 3 4
f 17 4 16
f 16 4 5
f 16 5 15
f 15 5 6
f 15 6 7
f 15 7 14
f 14 7 8
f 14 8 13
f 13 8 9
f 13 9 12
f 12 9 10
f 12 10 11
f 20 33 19
f 19 33 34
f 19 34 24
f 24 34 25
f 24 25 26
f 21 31 20
f 20 31 32
f 20 32 33
f 22 29 21
f 21 29 30
f 21 30 31
f 29 22 28
f 28 22 23
f 28 23 27
f 27 23 26
f 26 23 24
f 35 36 38
f 38 36 37
f 39 40 42
f 42 40 41
f 44 46 43
f 43 46 47
f 43 47 48
f 44 45 46
f 49 50 52
f 52 50 51
f 53 54 56
f 56 54 55
f 57 58 60
f 60 58 59
f 61 62 64
f 64 62 63
f 66 80 65
f 65 80 81
f 82 73 72
f 72 73 74
f 72 74 75
f 66 67 80
f 80 67 79
f 79 67 68
f 79 68 78
f 78 68 69
f 78 69 77
f 77 69 70
f 77 70 76
f 76 70 71
f 76 71 75
f 75 71 72
f 84 86 83
f 83 86 87
f 83 87 90
f 90 87 88
f 90 88 89
f 84 85 86
f 92 110 91
f 91 110 111
f 112 101 100
f 100 101 102
f 100 102 99
f 99 102 103
f 99 103 98
f 98 103 104
f 98 104 97
f 97 104 105
f 97 105 96
f 96 105 106
f 96 106 95
f 95 106 107
f 95 107 94
f 94 107 108
f 94 108 93
f 93 108 109
f 93 109 92
f 92 109 110
