v -0.1719257146 -0.02390000105 0.4188382941
v -0.1728573731 -0.02390000105 0.4159709561
v -0.1719257146 -0.02390000105 0.4188382941
v -0.1728573731 -0.02390000105 0.4159709561
v -0.1719257146 -0.02390000105 0.4188382941
v -0.1728573731 -0.02390000105 0.4159709561
v -0.1728573731 -0.02390000105 0.4159709561
v -0.1728573731 -0.02390000105 0.4159709561
v -0.1719257146 -0.02390000105 0.4188382941
v -0.1719257146 -0.02390000105 0.4188382941
v -0.1719257146 -0.02390000105 0.4188382941
v -0.1719257146 -0.02390000105 0.4188382941
v -0.1728573731 -0.02390000105 0.4159709561
v -0.1728573731 -0.02390000105 0.4159709561
v -0.1710483901 -0.02390000105 0.4180889937
v -0.1709578653 -0.02390000105 0.4169388054
v -0.1717071657 -0.02390000105 0.4160614809
v -0.1737346975 -0.02390000105 0.4167202565
v -0.1737346975 -0.02390000105 0.4167202565
v -0.1738252223 -0.02390000105 0.4178704639
v -0.1738252223 -0.02390000105 0.4178704639
v -0.1730759219 -0.02390000105 0.4187477693
v -0.1730759219 -0.02390000105 0.4187477693
v -0.1725690438 -0.02297688007 0.4185830897
v -0.1731083831 -0.02259451151 0.4176375397
v -0.1732278193 -0.02297688007 0.4165555579
v -0.1732278193 -0.02482311964 0.4165555579
v -0.1731083831 -0.02520549059 0.4176375397
v -0.1725690438 -0.02482311964 0.4185830897
v -0.1715552683 -0.02482311964 0.4182536923
v -0.1716747046 -0.02520549059 0.4171717105
v -0.1722140439 -0.02482311964 0.4162261796
v -0.1722140439 -0.02297688007 0.4162261796
v -0.1716747046 -0.02259451151 0.4171717105
v -0.1715552683 -0.02297688007 0.4182536923
f 33 7 26
f 26 8 18
f 24 9 35
f 35 10 15
f 30 11 29
f 29 12 23
f 27 13 32
f 32 14 17
f 15 16 35
f 35 16 34
f 35 34 24
f 24 34 25
f 24 25 22
f 22 25 20
f 23 21 29
f 29 21 28
f 29 28 30
f 30 28 31
f 30 31 15
f 15 31 16
f 15 3 30
f 16 17 34
f 34 17 33
f 34 33 25
f 25 33 26
f 25 26 20
f 20 26 18
f 21 19 28
f 28 19 27
f 28 27 31
f 31 27 32
f 31 32 16
f 16 32 17
f 17 4 33
f 19 2 27
f 22 1 24
