v -0.03082138538 0.055 0.4688173753
v -0.0299050355 0.055 0.4650995905
v -0.02736590385 0.055 0.462233494
v -0.02378567934 0.055 0.4608757097
v -0.0199845469 0.055 0.4613372499
v -0.01683330059 0.055 0.4635123903
v -0.0150538516 0.055 0.4669028551
v -0.0150538516 0.055 0.4707318956
v -0.01683330059 0.055 0.4741223604
v -0.0199845469 0.055 0.4762975008
v -0.02378567934 0.055 0.476759041
v -0.02736590385 0.055 0.4754012376
v -0.0299050355 0.055 0.4725351602
v -0.02742966652 0.01399999976 0.4622779733
v -0.02742966652 0.008000000119 0.4622779733
v -0.02987185001 0.008000000119 0.4650370294
v -0.03081837892 0.008000000119 0.4685980493
v -0.03006845951 0.008000000119 0.4722055704
v -0.02778117418 0.008000000119 0.4750943452
v -0.0244417429 0.008000000119 0.4766515619
v -0.02075857401 0.008000000119 0.4765468485
v -0.01751300216 0.008000000119 0.4748024446
v -0.01539352775 0.008000000119 0.4717883951
v -0.01484977007 0.008000000119 0.4681440813
v -0.01484977007 0.01399999976 0.4681440813
v -0.01556416631 0.01399999976 0.4654509622
v -0.0171588695 0.01399999976 0.4631661874
v -0.01944043994 0.01399999976 0.4615669138
v -0.02213212252 0.01399999976 0.4608471185
v -0.02490741253 0.01399999976 0.4610941202
v -0.03081837892 0.008000000119 0.4685980493
v -0.03082138538 0.055 0.4688173753
v 0.04826732159 0.01399999976 0.4347265131
v 0.04826732159 0.008000000119 0.4347265131
v 0.05017531872 0.008000000119 0.4255940515
v 0.05037078381 0.008000000119 0.4162664682
v 0.04884705067 0.008000000119 0.4070620805
v 0.04565612316 0.008000000119 0.3982950765
v 0.0409069109 0.008000000119 0.390264681
v 0.03476150751 0.008000000119 0.3832449705
v 0.02742966652 0.008000000119 0.3774755365
v 0.02742966652 0.01399999976 0.3774755365
v 0.03476150751 0.01399999976 0.3832449705
v 0.0409069109 0.01399999976 0.390264681
v 0.04565612316 0.01399999976 0.3982950765
v 0.04884705067 0.01399999976 0.4070620805
v 0.05037078381 0.01399999976 0.4162664682
v 0.05017531872 0.01399999976 0.4255940515
v -0.04449999809 0.008000000119 0.4198767549
v -0.04352756977 0.008000000119 0.4291288263
v -0.040652771 0.008000000119 0.4379765398
v -0.03600125551 0.008000000119 0.4460331995
v -0.02977631092 0.008000000119 0.4529466898
v -0.02224999905 0.008000000119 0.4584148866
v -0.01375125647 0.008000000119 0.4621987611
v -0.004651516675 0.008000000119 0.4641329843
v 0.004651516676 0.008000000119 0.4641329843
v 0.01375125647 0.008000000119 0.4621987611
v 0.02224999905 0.008000000119 0.4584148866
v 0.02977631092 0.008000000119 0.4529466898
v 0.03600125551 0.008000000119 0.4460331995
v 0.040652771 0.008000000119 0.4379765398
v 0.04352756977 0.008000000119 0.4291288263
v 0.04449999809 0.008000000119 0.4198767549
v 0.04352756977 0.008000000119 0.4106246835
v 0.040652771 0.008000000119 0.4017769701
v 0.03600125551 0.008000000119 0.3937203104
v 0.02977631092 0.008000000119 0.3868068105
v 0.02224999905 0.008000000119 0.3813386232
v 0.01375125647 0.008000000119 0.3775547392
v 0.004651516675 0.008000000119 0.3756205255
v -0.004651516676 0.008000000119 0.3756205255
v -0.01375125647 0.008000000119 0.3775547392
v -0.02224999905 0.008000000119 0.3813386232
v -0.02977631092 0.008000000119 0.3868068105
v -0.03600125551 0.008000000119 0.3937203104
v -0.040652771 0.008000000119 0.4017769701
v -0.04352756977 0.008000000119 0.4106246835
v -0.02742966652 0.008000000119 0.4622779733
v -0.03476150751 0.008000000119 0.4565085298
v -0.0409069109 0.008000000119 0.4494888193
v -0.04565612316 0.008000000119 0.4414584238
v -0.04884705067 0.008000000119 0.4326914293
v -0.05037078381 0.008000000119 0.4234870416
v -0.05017531872 0.008000000119 0.4141594392
v -0.04826732159 0.008000000119 0.4050269777
v -0.0519116354 0.008000000119 0.4044832212
v -0.0549256897 0.008000000119 0.4023637468
v -0.0566700983 0.008000000119 0.3991181738
v -0.05677480698 0.008000000119 0.3954350073
v -0.05521759987 0.008000000119 0.3920955736
v -0.052328825 0.008000000119 0.3898082906
v -0.04872128964 0.008000000119 0.3890583688
v -0.04516028404 0.008000000119 0.3900049001
v -0.04240121841 0.008000000119 0.3924470884
v -0.03663178206 0.008000000119 0.3851152403
v -0.02961207151 0.008000000119 0.3789698393
v -0.02158167124 0.008000000119 0.374220627
v -0.01281466961 0.008000000119 0.3710296995
v -0.003610292972 0.008000000119 0.3695059663
v 0.005717306733 0.008000000119 0.3697014314
v 0.01484977007 0.008000000119 0.3716094286
v 0.01539352775 0.008000000119 0.3679651148
v 0.01751300216 0.008000000119 0.3649510652
v 0.02075857401 0.008000000119 0.3632066518
v 0.0244417429 0.008000000119 0.3631019479
v 0.02778117418 0.008000000119 0.3646591455
v 0.03006845951 0.008000000119 0.3675479299
v 0.03081837892 0.008000000119 0.3711554605
v 0.02987185001 0.008000000119 0.3747164709
v 0.02742966652 0.008000000119 0.3774755365
v 0.03476150751 0.008000000119 0.3832449705
v 0.0409069109 0.008000000119 0.390264681
v 0.04565612316 0.008000000119 0.3982950765
v 0.04884705067 0.008000000119 0.4070620805
v 0.05037078381 0.008000000119 0.4162664682
v 0.05017531872 0.008000000119 0.4255940515
v 0.04826732159 0.008000000119 0.4347265131
v 0.0519116354 0.008000000119 0.4352702791
v 0.0549256897 0.008000000119 0.437389763
v 0.0566700983 0.008000000119 0.4406353265
v 0.05677480698 0.008000000119 0.444318493
v 0.05521759987 0.008000000119 0.4476579363
v 0.052328825 0.008000000119 0.4499452097
v 0.04872128964 0.008000000119 0.4506951219
v 0.04516028404 0.008000000119 0.4497486002
v 0.04240121841 0.008000000119 0.4473064119
v 0.03663178206 0.008000000119 0.45463826
v 0.02961207151 0.008000000119 0.460783661
v 0.02158167124 0.008000000119 0.4655328828
v 0.01281466961 0.008000000119 0.4687238008
v 0.003610292972 0.008000000119 0.4702475435
v -0.005717306733 0.008000000119 0.4700520593
v -0.01484977007 0.008000000119 0.4681440813
v -0.01539352775 0.008000000119 0.4717883951
v -0.01751300216 0.008000000119 0.4748024446
v -0.02075857401 0.008000000119 0.4765468485
v -0.0244417429 0.008000000119 0.4766515619
v -0.02778117418 0.008000000119 0.4750943452
v -0.03006845951 0.008000000119 0.4722055704
v -0.03081837892 0.008000000119 0.4685980493
v -0.02987185001 0.008000000119 0.4650370294
v -0.02507138729 0.008000000119 0.4688173753
v -0.0242242384 0.008000000119 0.4705764848
v -0.022320714 0.008000000119 0.4710109598
v -0.02079420567 0.008000000119 0.4697936136
v -0.02079420567 0.008000000119 0.4678411371
v -0.022320714 0.008000000119 0.4666237909
v -0.0242242384 0.008000000119 0.4670582468
v 0.04669062138 0.008000000119 0.4426981432
v 0.04753777027 0.008000000119 0.4444572527
v 0.04944129467 0.008000000119 0.4448917276
v 0.05096779823 0.008000000119 0.4436743814
v 0.05096779823 0.008000000119 0.4417219049
v 0.04944129467 0.008000000119 0.4405045587
v 0.04753777027 0.008000000119 0.4409390146
v 0.02057138681 0.008000000119 0.3709361345
v 0.02141853332 0.008000000119 0.3726952535
v 0.02332205772 0.008000000119 0.3731297189
v 0.02484856605 0.008000000119 0.3719123727
v 0.02484856605 0.008000000119 0.3699598962
v 0.02332205772 0.008000000119 0.3687425405
v 0.02141853332 0.008000000119 0.3691770155
v -0.05119061947 0.008000000119 0.3970553667
v -0.05034347057 0.008000000119 0.3988144857
v -0.04843994617 0.008000000119 0.3992489511
v -0.04691344261 0.008000000119 0.3980316049
v -0.04691344261 0.008000000119 0.3960791284
v -0.04843994617 0.008000000119 0.3948617822
v -0.05034347057 0.008000000119 0.3952962476
v -0.05694062233 0.055 0.3970553667
v -0.05602427006 0.055 0.3933375818
v -0.0534851408 0.055 0.3904714948
v -0.0499049139 0.055 0.3891136915
v -0.04610378265 0.055 0.3895752317
v -0.04295253277 0.055 0.3917503816
v -0.04117308617 0.055 0.3951408369
v -0.04117308617 0.055 0.3989698869
v -0.04295253277 0.055 0.4023603517
v -0.04610378265 0.055 0.4045354921
v -0.0499049139 0.055 0.4049970323
v -0.0534851408 0.055 0.4036392385
v -0.05602427006 0.055 0.4007731516
v -0.04240121841 0.01399999976 0.3924470884
v -0.04240121841 0.008000000119 0.3924470884
v -0.04516028404 0.008000000119 0.3900049001
v -0.04872128964 0.008000000119 0.3890583688
v -0.052328825 0.008000000119 0.3898082906
v -0.05521759987 0.008000000119 0.3920955736
v -0.05677480698 0.008000000119 0.3954350073
v -0.0566700983 0.008000000119 0.3991181738
v -0.0549256897 0.008000000119 0.4023637468
v -0.0519116354 0.008000000119 0.4044832212
v -0.04826732159 0.008000000119 0.4050269777
v -0.04826732159 0.01399999976 0.4050269777
v -0.04557420254 0.01399999976 0.4043125898
v -0.04328943253 0.01399999976 0.4027178842
v -0.04169015884 0.01399999976 0.4004363138
v -0.04097036839 0.01399999976 0.3977446348
v -0.0412173748 0.01399999976 0.3949693376
v -0.05677480698 0.008000000119 0.3954350073
v -0.05694062233 0.055 0.3970553667
v -0.02507138729 0.055 0.4688173753
v -0.0242242384 0.055 0.4705764848
v -0.022320714 0.055 0.4710109598
v -0.02079420567 0.055 0.4697936136
v -0.02079420567 0.055 0.4678411371
v -0.022320714 0.055 0.4666237909
v -0.0242242384 0.055 0.4670582468
v -0.02507138729 0.008000000119 0.4688173753
v -0.0242242384 0.008000000119 0.4670582468
v -0.022320714 0.008000000119 0.4666237909
v -0.02079420567 0.008000000119 0.4678411371
v -0.02079420567 0.008000000119 0.4697936136
v -0.022320714 0.008000000119 0.4710109598
v -0.0242242384 0.008000000119 0.4705764848
v -0.02507138729 0.055 0.4688173753
v -0.02507138729 0.008000000119 0.4688173753
v -0.01484977007 0.01399999976 0.4681440813
v -0.01484977007 0.008000000119 0.4681440813
v -0.005717306733 0.008000000119 0.4700520593
v 0.003610292972 0.008000000119 0.4702475435
v 0.01281466961 0.008000000119 0.4687238008
v 0.02158167124 0.008000000119 0.4655328828
v 0.02961207151 0.008000000119 0.460783661
v 0.03663178206 0.008000000119 0.45463826
v 0.04240121841 0.008000000119 0.4473064119
v 0.04240121841 0.01399999976 0.4473064119
v 0.03663178206 0.01399999976 0.45463826
v 0.02961207151 0.01399999976 0.460783661
v 0.02158167124 0.01399999976 0.4655328828
v 0.01281466961 0.01399999976 0.4687238008
v 0.003610292972 0.01399999976 0.4702475435
v -0.005717306733 0.01399999976 0.4700520593
v -0.02742966652 0.008000000119 0.4622779733
v -0.02742966652 0.01399999976 0.4622779733
v -0.03476150751 0.01399999976 0.4565085298
v -0.0409069109 0.01399999976 0.4494888193
v -0.04565612316 0.01399999976 0.4414584238
v -0.04884705067 0.01399999976 0.4326914293
v -0.05037078381 0.01399999976 0.4234870416
v -0.05017531872 0.01399999976 0.4141594392
v -0.04826732159 0.01399999976 0.4050269777
v -0.04826732159 0.008000000119 0.4050269777
v -0.05017531872 0.008000000119 0.4141594392
v -0.05037078381 0.008000000119 0.4234870416
v -0.04884705067 0.008000000119 0.4326914293
v -0.04565612316 0.008000000119 0.4414584238
v -0.0409069109 0.008000000119 0.4494888193
v -0.03476150751 0.008000000119 0.4565085298
v 0.01484977007 0.01399999976 0.3716094286
v 0.01484977007 0.008000000119 0.3716094286
v 0.005717306733 0.008000000119 0.3697014314
v -0.003610292972 0.008000000119 0.3695059663
v -0.01281466961 0.008000000119 0.3710296995
v -0.02158167124 0.008000000119 0.374220627
v -0.02961207151 0.008000000119 0.3789698393
v -0.03663178206 0.008000000119 0.3851152403
v -0.04240121841 0.008000000119 0.3924470884
v -0.04240121841 0.01399999976 0.3924470884
v -0.03663178206 0.01399999976 0.3851152403
v -0.02961207151 0.01399999976 0.3789698393
v -0.02158167124 0.01399999976 0.374220627
v -0.01281466961 0.01399999976 0.3710296995
v -0.003610292972 0.01399999976 0.3695059663
v 0.005717306733 0.01399999976 0.3697014314
v -0.02507138729 0.055 0.4688173753
v -0.0242242384 0.055 0.4670582468
v -0.022320714 0.055 0.4666237909
v -0.02079420567 0.055 0.4678411371
v -0.02079420567 0.055 0.4697936136
v -0.022320714 0.055 0.4710109598
v -0.0242242384 0.055 0.4705764848
v -0.03082138538 0.055 0.4688173753
v -0.0299050355 0.055 0.4725351602
v -0.02736590385 0.055 0.4754012376
v -0.02378567934 0.055 0.476759041
v -0.0199845469 0.055 0.4762975008
v -0.01683330059 0.055 0.4741223604
v -0.0150538516 0.055 0.4707318956
v -0.0150538516 0.055 0.4669028551
v -0.01683330059 0.055 0.4635123903
v -0.0199845469 0.055 0.4613372499
v -0.02378567934 0.055 0.4608757097
v -0.02736590385 0.055 0.462233494
v -0.0299050355 0.055 0.4650995905
v 0.04669062138 0.055 0.4426981432
v 0.04753777027 0.055 0.4409390146
v 0.04944129467 0.055 0.4405045587
v 0.05096779823 0.055 0.4417219049
v 0.05096779823 0.055 0.4436743814
v 0.04944129467 0.055 0.4448917276
v 0.04753777027 0.055 0.4444572527
v 0.04094061852 0.055 0.4426981432
v 0.04185697079 0.055 0.446415928
v 0.04439610481 0.055 0.4492820055
v 0.04797632694 0.055 0.4506398088
v 0.05177745819 0.055 0.4501782686
v 0.05492870808 0.055 0.4480031282
v 0.05670815468 0.055 0.4446126634
v 0.05670815468 0.055 0.4407836038
v 0.05492870808 0.055 0.4373931581
v 0.05177745819 0.055 0.4352180177
v 0.04797632694 0.055 0.4347564584
v 0.04439610481 0.055 0.4361142618
v 0.04185697079 0.055 0.4389803583
v -0.05119061947 0.055 0.3970553667
v -0.05034347057 0.055 0.3952962476
v -0.04843994617 0.055 0.3948617822
v -0.04691344261 0.055 0.3960791284
v -0.04691344261 0.055 0.3980316049
v -0.04843994617 0.055 0.3992489511
v -0.05034347057 0.055 0.3988144857
v -0.05694062233 0.055 0.3970553667
v -0.05602427006 0.055 0.4007731516
v -0.0534851408 0.055 0.4036392385
v -0.0499049139 0.055 0.4049970323
v -0.04610378265 0.055 0.4045354921
v -0.04295253277 0.055 0.4023603517
v -0.04117308617 0.055 0.3989698869
v -0.04117308617 0.055 0.3951408369
v -0.04295253277 0.055 0.3917503816
v -0.04610378265 0.055 0.3895752317
v -0.0499049139 0.055 0.3891136915
v -0.0534851408 0.055 0.3904714948
v -0.05602427006 0.055 0.3933375818
v 0.02057138681 0.055 0.3709361345
v 0.02141853332 0.055 0.3691770155
v 0.02332205772 0.055 0.3687425405
v 0.02484856605 0.055 0.3699598962
v 0.02484856605 0.055 0.3719123727
v 0.02332205772 0.055 0.3731297189
v 0.02141853332 0.055 0.3726952535
v 0.01482138634 0.055 0.3709361345
v 0.01573773742 0.055 0.3746539194
v 0.01827686787 0.055 0.3775200063
v 0.02185709238 0.055 0.3788778001
v 0.02565822601 0.055 0.3784162599
v 0.02880947113 0.055 0.37624111
v 0.03058892012 0.055 0.3728506548
v 0.03058892012 0.055 0.3690216047
v 0.02880947113 0.055 0.3656311494
v 0.02565822601 0.055 0.3634559995
v 0.02185709238 0.055 0.3629944593
v 0.01827686787 0.055 0.3643522627
v 0.01573773742 0.055 0.3672183496
v -0.04449999809 0.0125 0.4198767549
v -0.04352756977 0.0125 0.4106246835
v -0.040652771 0.0125 0.4017769701
v -0.03600125551 0.0125 0.3937203104
v -0.02977631092 0.0125 0.3868068105
v -0.02224999905 0.0125 0.3813386232
v -0.01375125647 0.0125 0.3775547392
v -0.004651516676 0.0125 0.3756205255
v 0.004651516675 0.0125 0.3756205255
v 0.01375125647 0.0125 0.3775547392
v 0.02224999905 0.0125 0.3813386232
v 0.02977631092 0.0125 0.3868068105
v 0.03600125551 0.0125 0.3937203104
v 0.040652771 0.0125 0.4017769701
v 0.04352756977 0.0125 0.4106246835
v 0.04449999809 0.0125 0.4198767549
v 0.04352756977 0.0125 0.4291288263
v 0.040652771 0.0125 0.4379765398
v 0.03600125551 0.0125 0.4460331995
v 0.02977631092 0.0125 0.4529466898
v 0.02224999905 0.0125 0.4584148866
v 0.01375125647 0.0125 0.4621987611
v 0.004651516676 0.0125 0.4641329843
v -0.004651516675 0.0125 0.4641329843
v -0.01375125647 0.0125 0.4621987611
v -0.02224999905 0.0125 0.4584148866
v -0.02977631092 0.0125 0.4529466898
v -0.03600125551 0.0125 0.4460331995
v -0.040652771 0.0125 0.4379765398
v -0.04352756977 0.0125 0.4291288263
v -0.04169015884 0.01399999976 0.4004363138
v -0.04468173504 0.01399999976 0.4089432031
v -0.04595621586 0.01399999976 0.4178702623
v -0.04546463013 0.01399999976 0.4268744356
v -0.0432258606 0.01399999976 0.4356096727
v -0.03932594538 0.01399999976 0.4437403185
v -0.03391475677 0.01399999976 0.450953911
v -0.02720024347 0.01399999976 0.4569731981
v -0.01944043994 0.01399999976 0.4615669138
v -0.0109335506 0.01399999976 0.4645584947
v -0.002006491869 0.01399999976 0.465832966
v 0.006997675896 0.01399999976 0.465341385
v 0.01573292613 0.01399999976 0.4631026155
v 0.02386357069 0.01399999976 0.4592026979
v 0.03107714891 0.01399999976 0.4537915117
v 0.03709645271 0.01399999976 0.447076996
v 0.04169015884 0.01399999976 0.439317196
v 0.04468173504 0.01399999976 0.4308103067
v 0.04595621586 0.01399999976 0.4218832475
v 0.04546463013 0.01399999976 0.4128790743
v 0.0432258606 0.01399999976 0.4041438276
v 0.03932594538 0.01399999976 0.3960131818
v 0.03391475677 0.01399999976 0.3887995989
v 0.02720024347 0.01399999976 0.3827803022
v 0.01944043994 0.01399999976 0.3781865961
v 0.0109335506 0.01399999976 0.3751950151
v 0.002006491869 0.01399999976 0.3739205343
v -0.006997675896 0.01399999976 0.3744121248
v -0.01573292613 0.01399999976 0.3766508943
v -0.02386357069 0.01399999976 0.3805508024
v -0.03107714891 0.01399999976 0.3859619981
v -0.03709645271 0.01399999976 0.3926765043
v -0.004546437562 0.01356065989 0.3751679784
v -0.04441871643 0.01356065989 0.4266974527
v -0.04488165855 0.01356065989 0.4176006204
v -0.04350474834 0.01356065989 0.4086125929
v -0.04034674168 0.01356065989 0.4000857336
v -0.0355369401 0.01356065989 0.392369116
v -0.02927224875 0.01356065989 0.3857786638
v -0.02180914879 0.01356065989 0.3805841905
v -0.01345318079 0.01356065989 0.3769983656
v 0.01345318079 0.01356065989 0.3769983656
v 0.004546437561 0.01356065989 0.3751679784
v 0.02180914879 0.01356065989 0.3805841905
v 0.02927224874 0.01356065989 0.3857786638
v 0.0355369401 0.01356065989 0.392369116
v 0.04034674168 0.01356065989 0.4000857336
v 0.04350474834 0.01356065989 0.4086125929
v 0.04488165855 0.01356065989 0.4176006204
v 0.04442111492 0.01356065989 0.4266818124
v 0.04214196205 0.01356065989 0.4354844171
v 0.03813751221 0.01356065989 0.4436480409
v 0.03257170916 0.01356065989 0.4508384782
v 0.02567241669 0.01356065989 0.4567613107
v 0.01772209168 0.01356065989 0.4611741144
v 0.009046222568 0.01356065989 0.463896187
v 4.957093831e-13 0.01356065989 0.4648161012
v -0.009046222567 0.01356065989 0.463896187
v 4.957093831e-13 0.01356065989 0.4648161012
v -0.01772209167 0.01356065989 0.4611741144
v -0.02567241669 0.01356065989 0.4567613107
v -0.03257170916 0.01356065989 0.4508384782
v -0.03813751221 0.01356065989 0.4436480409
v -0.04214196205 0.01356065989 0.4354844171
v 0.004651516676 0.0125 0.4641329843
v -0.002006491869 0.01399999976 0.465832966
v 0.01944043994 0.01399999976 0.3781865961
v 0.02720024347 0.01399999976 0.3827803022
v 0.03391475677 0.01399999976 0.3887995989
v 0.03932594538 0.01399999976 0.3960131818
v 0.0432258606 0.01399999976 0.4041438276
v 0.04546463013 0.01399999976 0.4128790743
v 0.04595621586 0.01399999976 0.4218832475
v 0.04468173504 0.01399999976 0.4308103067
v 0.04169015884 0.01399999976 0.439317196
v 0.04328943253 0.01399999976 0.4370356256
v 0.04557420254 0.01399999976 0.4354409105
v 0.04826732159 0.01399999976 0.4347265131
v 0.05017531872 0.01399999976 0.4255940515
v 0.05037078381 0.01399999976 0.4162664682
v 0.04884705067 0.01399999976 0.4070620805
v 0.04565612316 0.01399999976 0.3982950765
v 0.0409069109 0.01399999976 0.390264681
v 0.03476150751 0.01399999976 0.3832449705
v 0.02742966652 0.01399999976 0.3774755365
v 0.02490741253 0.01399999976 0.3786593801
v 0.02213212252 0.01399999976 0.3789063818
v 0.04169015884 0.01399999976 0.439317196
v 0.03709645271 0.01399999976 0.447076996
v 0.03107714891 0.01399999976 0.4537915117
v 0.02386357069 0.01399999976 0.4592026979
v 0.01573292613 0.01399999976 0.4631026155
v 0.006997675896 0.01399999976 0.465341385
v -0.002006491869 0.01399999976 0.465832966
v -0.0109335506 0.01399999976 0.4645584947
v -0.01944043994 0.01399999976 0.4615669138
v -0.0171588695 0.01399999976 0.4631661874
v -0.01556416631 0.01399999976 0.4654509622
v -0.01484977007 0.01399999976 0.4681440813
v -0.005717306733 0.01399999976 0.4700520593
v 0.003610292972 0.01399999976 0.4702475435
v 0.01281466961 0.01399999976 0.4687238008
v 0.02158167124 0.01399999976 0.4655328828
v 0.02961207151 0.01399999976 0.460783661
v 0.03663178206 0.01399999976 0.45463826
v 0.04240121841 0.01399999976 0.4473064119
v 0.0412173748 0.01399999976 0.4447841722
v 0.04097036839 0.01399999976 0.4420088655
v -0.01944043994 0.01399999976 0.4615669138
v -0.02720024347 0.01399999976 0.4569731981
v -0.03391475677 0.01399999976 0.450953911
v -0.03932594538 0.01399999976 0.4437403185
v -0.0432258606 0.01399999976 0.4356096727
v -0.04546463013 0.01399999976 0.4268744356
v -0.04595621586 0.01399999976 0.4178702623
v -0.04468173504 0.01399999976 0.4089432031
v -0.04169015884 0.01399999976 0.4004363138
v -0.04328943253 0.01399999976 0.4027178842
v -0.04557420254 0.01399999976 0.4043125898
v -0.04826732159 0.01399999976 0.4050269777
v -0.05017531872 0.01399999976 0.4141594392
v -0.05037078381 0.01399999976 0.4234870416
v -0.04884705067 0.01399999976 0.4326914293
v -0.04565612316 0.01399999976 0.4414584238
v -0.0409069109 0.01399999976 0.4494888193
v -0.03476150751 0.01399999976 0.4565085298
v -0.02742966652 0.01399999976 0.4622779733
v -0.02490741253 0.01399999976 0.4610941202
v -0.02213212252 0.01399999976 0.4608471185
v -0.04169015884 0.01399999976 0.4004363138
v -0.03709645271 0.01399999976 0.3926765043
v -0.03107714891 0.01399999976 0.3859619981
v -0.02386357069 0.01399999976 0.3805508024
v -0.01573292613 0.01399999976 0.3766508943
v -0.006997675896 0.01399999976 0.3744121248
v 0.002006491869 0.01399999976 0.3739205343
v 0.0109335506 0.01399999976 0.3751950151
v 0.01944043994 0.01399999976 0.3781865961
v 0.0171588695 0.01399999976 0.3765873224
v 0.01556416631 0.01399999976 0.3743025476
v 0.01484977007 0.01399999976 0.3716094286
v 0.005717306733 0.01399999976 0.3697014314
v -0.003610292972 0.01399999976 0.3695059663
v -0.01281466961 0.01399999976 0.3710296995
v -0.02158167124 0.01399999976 0.374220627
v -0.02961207151 0.01399999976 0.3789698393
v -0.03663178206 0.01399999976 0.3851152403
v -0.04240121841 0.01399999976 0.3924470884
v -0.0412173748 0.01399999976 0.3949693376
v -0.04097036839 0.01399999976 0.3977446348
v -0.04449999809 0.008000000119 0.4198767549
v -0.04352756977 0.008000000119 0.4106246835
v -0.040652771 0.008000000119 0.4017769701
v -0.03600125551 0.008000000119 0.3937203104
v -0.02977631092 0.008000000119 0.3868068105
v -0.02224999905 0.008000000119 0.3813386232
v -0.01375125647 0.008000000119 0.3775547392
v -0.004651516676 0.008000000119 0.3756205255
v 0.004651516675 0.008000000119 0.3756205255
v 0.01375125647 0.008000000119 0.3775547392
v 0.02224999905 0.008000000119 0.3813386232
v 0.02977631092 0.008000000119 0.3868068105
v 0.03600125551 0.008000000119 0.3937203104
v 0.040652771 0.008000000119 0.4017769701
v 0.04352756977 0.008000000119 0.4106246835
v 0.04449999809 0.008000000119 0.4198767549
v 0.04352756977 0.008000000119 0.4291288263
v 0.040652771 0.008000000119 0.4379765398
v 0.03600125551 0.008000000119 0.4460331995
v 0.02977631092 0.008000000119 0.4529466898
v 0.02224999905 0.008000000119 0.4584148866
v 0.01375125647 0.008000000119 0.4621987611
v 0.004651516676 0.008000000119 0.4641329843
v -0.004651516675 0.008000000119 0.4641329843
v -0.01375125647 0.008000000119 0.4621987611
v -0.02224999905 0.008000000119 0.4584148866
v -0.02977631092 0.008000000119 0.4529466898
v -0.03600125551 0.008000000119 0.4460331995
v -0.040652771 0.008000000119 0.4379765398
v -0.04352756977 0.008000000119 0.4291288263
v -0.04449999809 0.0125 0.4198767549
v -0.04352756977 0.0125 0.4291288263
v -0.040652771 0.0125 0.4379765398
v -0.03600125551 0.0125 0.4460331995
v -0.02977631092 0.0125 0.4529466898
v -0.02224999905 0.0125 0.4584148866
v -0.01375125647 0.0125 0.4621987611
v -0.004651516675 0.0125 0.4641329843
v 0.004651516676 0.0125 0.4641329843
v 0.01375125647 0.0125 0.4621987611
v 0.02224999905 0.0125 0.4584148866
v 0.02977631092 0.0125 0.4529466898
v 0.03600125551 0.0125 0.4460331995
v 0.040652771 0.0125 0.4379765398
v 0.04352756977 0.0125 0.4291288263
v 0.04449999809 0.0125 0.4198767549
v 0.04352756977 0.0125 0.4106246835
v 0.040652771 0.0125 0.4017769701
v 0.03600125551 0.0125 0.3937203104
v 0.02977631092 0.0125 0.3868068105
v 0.02224999905 0.0125 0.3813386232
v 0.01375125647 0.0125 0.3775547392
v 0.004651516675 0.0125 0.3756205255
v -0.004651516676 0.0125 0.3756205255
v -0.01375125647 0.0125 0.3775547392
v -0.02224999905 0.0125 0.3813386232
v -0.02977631092 0.0125 0.3868068105
v -0.03600125551 0.0125 0.3937203104
v -0.040652771 0.0125 0.4017769701
v -0.04352756977 0.0125 0.4106246835
v -0.04449999809 0.0125 0.4198767549
v -0.04449999809 0.008000000119 0.4198767549
v -0.05119061947 0.055 0.3970553667
v -0.05034347057 0.055 0.3988144857
v -0.04843994617 0.055 0.3992489511
v -0.04691344261 0.055 0.3980316049
v -0.04691344261 0.055 0.3960791284
v -0.04843994617 0.055 0.3948617822
v -0.05034347057 0.055 0.3952962476
v -0.05119061947 0.008000000119 0.3970553667
v -0.05034347057 0.008000000119 0.3952962476
v -0.04843994617 0.008000000119 0.3948617822
v -0.04691344261 0.008000000119 0.3960791284
v -0.04691344261 0.008000000119 0.3980316049
v -0.04843994617 0.008000000119 0.3992489511
v -0.05034347057 0.008000000119 0.3988144857
v -0.05119061947 0.055 0.3970553667
v -0.05119061947 0.008000000119 0.3970553667
v 0.02057138681 0.055 0.3709361345
v 0.02141853332 0.055 0.3726952535
v 0.02332205772 0.055 0.3731297189
v 0.02484856605 0.055 0.3719123727
v 0.02484856605 0.055 0.3699598962
v 0.02332205772 0.055 0.3687425405
v 0.02141853332 0.055 0.3691770155
v 0.02057138681 0.008000000119 0.3709361345
v 0.02141853332 0.008000000119 0.3691770155
v 0.02332205772 0.008000000119 0.3687425405
v 0.02484856605 0.008000000119 0.3699598962
v 0.02484856605 0.008000000119 0.3719123727
v 0.02332205772 0.008000000119 0.3731297189
v 0.02141853332 0.008000000119 0.3726952535
v 0.02057138681 0.055 0.3709361345
v 0.02057138681 0.008000000119 0.3709361345
v 0.04094061852 0.055 0.4426981432
v 0.04185697079 0.055 0.4389803583
v 0.04439610481 0.055 0.4361142618
v 0.04797632694 0.055 0.4347564584
v 0.05177745819 0.055 0.4352180177
v 0.05492870808 0.055 0.4373931581
v 0.05670815468 0.055 0.4407836038
v 0.05670815468 0.055 0.4446126634
v 0.05492870808 0.055 0.4480031282
v 0.05177745819 0.055 0.4501782686
v 0.04797632694 0.055 0.4506398088
v 0.04439610481 0.055 0.4492820055
v 0.04185697079 0.055 0.446415928
v 0.04240121841 0.01399999976 0.4473064119
v 0.04240121841 0.008000000119 0.4473064119
v 0.04516028404 0.008000000119 0.4497486002
v 0.04872128964 0.008000000119 0.4506951219
v 0.052328825 0.008000000119 0.4499452097
v 0.05521759987 0.008000000119 0.4476579363
v 0.05677480698 0.008000000119 0.444318493
v 0.0566700983 0.008000000119 0.4406353265
v 0.0549256897 0.008000000119 0.437389763
v 0.0519116354 0.008000000119 0.4352702791
v 0.04826732159 0.008000000119 0.4347265131
v 0.04826732159 0.01399999976 0.4347265131
v 0.04557420254 0.01399999976 0.4354409105
v 0.04328943253 0.01399999976 0.4370356256
v 0.04169015884 0.01399999976 0.439317196
v 0.04097036839 0.01399999976 0.4420088655
v 0.0412173748 0.01399999976 0.4447841722
v 0.04097036839 0.01399999976 0.4420088655
v 0.04094061852 0.055 0.4426981432
v 0.01482138634 0.055 0.3709361345
v 0.01573773742 0.055 0.3672183496
v 0.01827686787 0.055 0.3643522627
v 0.02185709238 0.055 0.3629944593
v 0.02565822601 0.055 0.3634559995
v 0.02880947113 0.055 0.3656311494
v 0.03058892012 0.055 0.3690216047
v 0.03058892012 0.055 0.3728506548
v 0.02880947113 0.055 0.37624111
v 0.02565822601 0.055 0.3784162599
v 0.02185709238 0.055 0.3788778001
v 0.01827686787 0.055 0.3775200063
v 0.01573773742 0.055 0.3746539194
v 0.01484977007 0.008000000119 0.3716094286
v 0.01484977007 0.01399999976 0.3716094286
v 0.01556416631 0.01399999976 0.3743025476
v 0.0171588695 0.01399999976 0.3765873224
v 0.01944043994 0.01399999976 0.3781865961
v 0.02213212252 0.01399999976 0.3789063818
v 0.02490741253 0.01399999976 0.3786593801
v 0.02742966652 0.01399999976 0.3774755365
v 0.02742966652 0.008000000119 0.3774755365
v 0.02987185001 0.008000000119 0.3747164709
v 0.03081837892 0.008000000119 0.3711554605
v 0.03006845951 0.008000000119 0.3675479299
v 0.02778117418 0.008000000119 0.3646591455
v 0.0244417429 0.008000000119 0.3631019479
v 0.02075857401 0.008000000119 0.3632066518
v 0.01751300216 0.008000000119 0.3649510652
v 0.01539352775 0.008000000119 0.3679651148
v 0.01482138634 0.055 0.3709361345
v 0.01539352775 0.008000000119 0.3679651148
v 0.04669062138 0.055 0.4426981432
v 0.04753777027 0.055 0.4444572527
v 0.04944129467 0.055 0.4448917276
v 0.05096779823 0.055 0.4436743814
v 0.05096779823 0.055 0.4417219049
v 0.04944129467 0.055 0.4405045587
v 0.04753777027 0.055 0.4409390146
v 0.04669062138 0.008000000119 0.4426981432
v 0.04753777027 0.008000000119 0.4409390146
v 0.04944129467 0.008000000119 0.4405045587
v 0.05096779823 0.008000000119 0.4417219049
v 0.05096779823 0.008000000119 0.4436743814
v 0.04944129467 0.008000000119 0.4448917276
v 0.04753777027 0.008000000119 0.4444572527
v 0.04669062138 0.055 0.4426981432
v 0.04669062138 0.008000000119 0.4426981432
f 2 31 1
f 32 17 18
f 32 18 13
f 13 18 19
f 13 19 12
f 12 19 20
f 12 20 11
f 11 20 21
f 11 21 10
f 10 21 22
f 10 22 9
f 9 22 23
f 9 23 8
f 8 23 24
f 8 24 25
f 3 14 2
f 2 14 16
f 2 16 31
f 14 3 30
f 30 3 4
f 30 4 29
f 29 4 5
f 29 5 28
f 28 5 6
f 28 6 27
f 27 6 26
f 26 6 7
f 26 7 25
f 25 7 8
f 14 15 16
f 33 34 48
f 48 34 35
f 48 35 47
f 47 35 36
f 47 36 46
f 46 36 37
f 46 37 45
f 45 37 38
f 45 38 44
f 44 38 39
f 44 39 43
f 43 39 40
f 43 40 42
f 42 40 41
f 50 84 49
f 49 84 85
f 49 85 78
f 78 85 86
f 78 86 77
f 77 86 166
f 77 166 167
f 84 50 83
f 83 50 51
f 83 51 82
f 82 51 52
f 82 52 81
f 81 52 80
f 80 52 53
f 80 53 79
f 79 53 54
f 79 54 148
f 148 54 55
f 148 55 147
f 147 55 134
f 147 134 146
f 146 134 135
f 146 135 136
f 55 56 134
f 134 56 133
f 133 56 132
f 132 56 57
f 132 57 131
f 131 57 58
f 131 58 130
f 130 58 59
f 130 59 129
f 129 59 60
f 129 60 128
f 128 60 61
f 128 61 127
f 127 61 62
f 127 62 150
f 150 62 156
f 156 62 118
f 156 118 155
f 155 118 119
f 155 119 120
f 62 63 118
f 118 63 117
f 117 63 64
f 117 64 116
f 116 64 65
f 116 65 115
f 115 65 66
f 115 66 114
f 114 66 67
f 114 67 113
f 113 67 112
f 112 67 68
f 112 68 111
f 111 68 69
f 111 69 159
f 159 69 158
f 158 69 70
f 158 70 102
f 102 70 71
f 102 71 101
f 101 71 100
f 100 71 72
f 100 72 99
f 99 72 73
f 99 73 98
f 98 73 74
f 98 74 97
f 97 74 75
f 97 75 96
f 96 75 76
f 96 76 95
f 95 76 77
f 95 77 167
f 86 87 166
f 166 87 165
f 165 87 88
f 165 88 89
f 165 89 164
f 164 89 90
f 164 90 91
f 164 91 170
f 170 91 92
f 170 92 169
f 169 92 93
f 169 93 94
f 169 94 168
f 168 94 95
f 168 95 167
f 158 102 157
f 157 102 103
f 157 103 163
f 163 103 104
f 163 104 105
f 163 105 162
f 162 105 106
f 162 106 107
f 162 107 161
f 161 107 108
f 161 108 109
f 161 109 160
f 160 109 110
f 160 110 111
f 155 120 154
f 154 120 121
f 154 121 122
f 154 122 153
f 153 122 123
f 153 123 152
f 152 123 124
f 152 124 125
f 152 125 151
f 151 125 126
f 151 126 127
f 146 136 145
f 145 136 137
f 145 137 138
f 145 138 144
f 144 138 139
f 144 139 140
f 144 140 143
f 143 140 141
f 143 141 142
f 143 142 149
f 149 142 79
f 149 79 148
f 150 151 127
f 159 160 111
f 172 201 171
f 202 190 191
f 202 191 183
f 183 191 192
f 183 192 182
f 182 192 193
f 182 193 181
f 181 193 194
f 181 194 195
f 201 172 189
f 189 172 173
f 189 173 188
f 188 173 174
f 188 174 187
f 187 174 175
f 187 175 186
f 186 175 176
f 186 176 185
f 185 176 184
f 184 176 177
f 184 177 200
f 200 177 199
f 199 177 178
f 199 178 198
f 198 178 179
f 198 179 197
f 197 179 196
f 196 179 180
f 196 180 195
f 195 180 181
f 204 216 203
f 203 216 218
f 217 210 209
f 209 210 211
f 209 211 208
f 208 211 212
f 208 212 207
f 207 212 213
f 207 213 206
f 206 213 214
f 206 214 205
f 205 214 215
f 205 215 204
f 204 215 216
f 219 220 234
f 234 220 221
f 234 221 233
f 233 221 222
f 233 222 232
f 232 222 223
f 232 223 231
f 231 223 224
f 231 224 230
f 230 224 225
f 230 225 229
f 229 225 226
f 229 226 228
f 228 226 227
f 235 236 250
f 250 236 237
f 250 237 249
f 249 237 238
f 249 238 248
f 248 238 239
f 248 239 247
f 247 239 240
f 247 240 246
f 246 240 241
f 246 241 245
f 245 241 242
f 245 242 244
f 244 242 243
f 251 252 266
f 266 252 253
f 266 253 265
f 265 253 254
f 265 254 264
f 264 254 255
f 264 255 263
f 263 255 256
f 263 256 262
f 262 256 257
f 262 257 261
f 261 257 258
f 261 258 260
f 260 258 259
f 268 286 267
f 267 286 274
f 267 274 275
f 269 284 268
f 268 284 285
f 268 285 286
f 270 282 269
f 269 282 283
f 269 283 284
f 271 280 270
f 270 280 281
f 270 281 282
f 280 271 279
f 279 271 272
f 279 272 278
f 278 272 277
f 277 272 273
f 277 273 276
f 276 273 275
f 275 273 267
f 288 306 287
f 287 306 294
f 287 294 295
f 289 304 288
f 288 304 305
f 288 305 306
f 290 302 289
f 289 302 303
f 289 303 304
f 291 300 290
f 290 300 301
f 290 301 302
f 300 291 299
f 299 291 292
f 299 292 298
f 298 292 297
f 297 292 293
f 297 293 296
f 296 293 295
f 295 293 287
f 308 326 307
f 307 326 314
f 307 314 315
f 309 324 308
f 308 324 325
f 308 325 326
f 310 322 309
f 309 322 323
f 309 323 324
f 311 320 310
f 310 320 321
f 310 321 322
f 320 311 319
f 319 311 312
f 319 312 318
f 318 312 317
f 317 312 313
f 317 313 316
f 316 313 315
f 315 313 307
f 328 346 327
f 327 346 334
f 327 334 335
f 329 344 328
f 328 344 345
f 328 345 346
f 330 342 329
f 329 342 343
f 329 343 344
f 331 340 330
f 330 340 341
f 330 341 342
f 340 331 339
f 339 331 332
f 339 332 338
f 338 332 337
f 337 332 333
f 337 333 336
f 336 333 335
f 335 333 327
f 348 411 347
f 347 411 410
f 347 410 376
f 376 410 440
f 376 440 375
f 375 440 439
f 375 439 374
f 374 439 438
f 374 438 373
f 373 438 437
f 373 437 372
f 372 437 436
f 372 436 371
f 371 436 434
f 371 434 370
f 370 434 435
f 370 435 369
f 441 433 432
f 441 432 368
f 368 432 431
f 368 431 367
f 367 431 430
f 367 430 366
f 366 430 429
f 366 429 365
f 365 429 428
f 365 428 364
f 364 428 427
f 364 427 363
f 363 427 426
f 363 426 362
f 362 426 425
f 362 425 361
f 361 425 424
f 361 424 360
f 360 424 423
f 360 423 359
f 359 423 422
f 359 422 358
f 358 422 421
f 358 421 357
f 357 421 420
f 357 420 356
f 356 420 418
f 356 418 355
f 355 418 419
f 355 419 409
f 409 419 403
f 409 403 404
f 411 348 412
f 412 348 349
f 412 349 413
f 413 349 350
f 413 350 414
f 414 350 351
f 414 351 415
f 415 351 352
f 415 352 416
f 416 352 353
f 416 353 417
f 417 353 354
f 417 354 409
f 409 354 355
f 378 412 377
f 377 412 413
f 377 413 408
f 408 413 414
f 408 414 407
f 407 414 415
f 407 415 406
f 406 415 416
f 406 416 405
f 405 416 417
f 405 417 404
f 404 417 409
f 412 378 411
f 411 378 379
f 411 379 410
f 410 379 380
f 410 380 381
f 410 381 440
f 440 381 382
f 440 382 439
f 439 382 383
f 439 383 438
f 438 383 384
f 438 384 437
f 437 384 385
f 437 385 436
f 436 385 386
f 436 386 434
f 434 386 442
f 434 442 435
f 433 387 388
f 433 388 432
f 432 388 389
f 432 389 431
f 431 389 390
f 431 390 430
f 430 390 391
f 430 391 429
f 429 391 392
f 429 392 428
f 428 392 393
f 428 393 427
f 427 393 394
f 427 394 426
f 426 394 395
f 426 395 425
f 425 395 396
f 425 396 424
f 424 396 397
f 424 397 423
f 423 397 398
f 423 398 422
f 422 398 399
f 422 399 421
f 421 399 400
f 421 400 420
f 420 400 401
f 420 401 418
f 418 401 402
f 418 402 419
f 419 402 403
f 443 444 463
f 463 444 462
f 462 444 461
f 461 444 460
f 460 444 445
f 460 445 459
f 459 445 446
f 459 446 458
f 458 446 447
f 458 447 457
f 457 447 448
f 457 448 456
f 456 448 449
f 456 449 455
f 455 449 450
f 455 450 454
f 454 450 453
f 453 450 452
f 452 450 451
f 464 465 484
f 484 465 483
f 483 465 482
f 482 465 481
f 481 465 466
f 481 466 480
f 480 466 467
f 480 467 479
f 479 467 468
f 479 468 478
f 478 468 469
f 478 469 477
f 477 469 470
f 477 470 476
f 476 470 471
f 476 471 475
f 475 471 474
f 474 471 473
f 473 471 472
f 485 486 505
f 505 486 504
f 504 486 503
f 503 486 502
f 502 486 487
f 502 487 501
f 501 487 488
f 501 488 500
f 500 488 489
f 500 489 499
f 499 489 490
f 499 490 498
f 498 490 491
f 498 491 497
f 497 491 492
f 497 492 496
f 496 492 495
f 495 492 494
f 494 492 493
f 506 507 526
f 526 507 525
f 525 507 524
f 524 507 523
f 523 507 508
f 523 508 522
f 522 508 509
f 522 509 521
f 521 509 510
f 521 510 520
f 520 510 511
f 520 511 519
f 519 511 512
f 519 512 518
f 518 512 513
f 518 513 517
f 517 513 516
f 516 513 515
f 515 513 514
f 528 586 527
f 527 586 587
f 588 557 556
f 556 557 558
f 556 558 555
f 555 558 559
f 555 559 554
f 554 559 560
f 554 560 553
f 553 560 561
f 553 561 552
f 552 561 562
f 552 562 551
f 551 562 563
f 551 563 550
f 550 563 564
f 550 564 549
f 549 564 565
f 549 565 548
f 548 565 566
f 548 566 547
f 547 566 567
f 547 567 546
f 546 567 568
f 546 568 545
f 545 568 569
f 545 569 544
f 544 569 570
f 544 570 543
f 543 570 571
f 543 571 542
f 542 571 572
f 542 572 541
f 541 572 573
f 541 573 540
f 540 573 574
f 540 574 539
f 539 574 575
f 539 575 538
f 538 575 576
f 538 576 537
f 537 576 577
f 537 577 536
f 536 577 578
f 536 578 535
f 535 578 579
f 535 579 534
f 534 579 580
f 534 580 533
f 533 580 581
f 533 581 532
f 532 581 582
f 532 582 531
f 531 582 583
f 531 583 530
f 530 583 584
f 530 584 529
f 529 584 585
f 529 585 528
f 528 585 586
f 590 602 589
f 589 602 604
f 603 596 595
f 595 596 597
f 595 597 594
f 594 597 598
f 594 598 593
f 593 598 599
f 593 599 592
f 592 599 600
f 592 600 591
f 591 600 601
f 591 601 590
f 590 601 602
f 606 618 605
f 605 618 620
f 619 612 611
f 611 612 613
f 611 613 610
f 610 613 614
f 610 614 609
f 609 614 615
f 609 615 608
f 608 615 616
f 608 616 607
f 607 616 617
f 607 617 606
f 606 617 618
f 622 651 621
f 652 649 650
f 652 650 633
f 633 650 634
f 633 634 632
f 632 634 635
f 632 635 636
f 623 647 622
f 622 647 648
f 622 648 651
f 647 623 646
f 646 623 624
f 646 624 645
f 645 624 625
f 645 625 644
f 644 625 643
f 643 625 626
f 643 626 642
f 642 626 641
f 641 626 627
f 641 627 640
f 640 627 628
f 640 628 639
f 639 628 629
f 639 629 638
f 638 629 630
f 638 630 637
f 637 630 631
f 637 631 636
f 636 631 632
f 654 684 653
f 683 682 666
f 683 666 667
f 684 654 681
f 681 654 655
f 681 655 680
f 680 655 656
f 680 656 679
f 679 656 657
f 679 657 678
f 678 657 658
f 678 658 677
f 677 658 659
f 677 659 676
f 676 659 660
f 676 660 675
f 675 660 661
f 675 661 674
f 674 661 673
f 673 661 662
f 673 662 672
f 672 662 663
f 672 663 671
f 671 663 670
f 670 663 664
f 670 664 669
f 669 664 665
f 669 665 668
f 668 665 667
f 667 665 683
f 686 698 685
f 685 698 700
f 699 692 691
f 691 692 693
f 691 693 690
f 690 693 694
f 690 694 689
f 689 694 695
f 689 695 688
f 688 695 696
f 688 696 687
f 687 696 697
f 687 697 686
f 686 697 698
