v 0.2297999954 0.08800000191 0.04800000191
v 0.2297999954 0.08873223305 0.049767766
v 0.2297999954 0.09050000191 0.05050000191
v 0.2297999954 0.09226777077 0.049767766
v 0.2297999954 0.09300000191 0.04800000191
v 0.2297999954 0.09226777077 0.04623223305
v 0.2297999954 0.09050000191 0.04550000191
v 0.2297999954 0.08873223305 0.04623223305
v 0.2331999969 0.08800000191 0.04800000191
v 0.2331999969 0.08873223305 0.04623223305
v 0.2331999969 0.09050000191 0.04550000191
v 0.2331999969 0.09226777077 0.04623223305
v 0.2331999969 0.09300000191 0.04800000191
v 0.2331999969 0.09226777077 0.049767766
v 0.2331999969 0.09050000191 0.05050000191
v 0.2331999969 0.08873223305 0.049767766
v 0.2297999954 0.08800000191 0.04800000191
v 0.2331999969 0.08800000191 0.04800000191
v 0.2297999954 0.08699999809 0.05300000191
v 0.2331999969 0.08550000191 0.05300000191
v 0.2331999969 0.09550000191 0.05300000191
v 0.2297999954 0.09399999619 0.05300000191
v 0.2331999969 0.09550000191 0.04300000191
v 0.2297999954 0.09399999619 0.04300000191
v 0.2297999954 0.09399999619 0.05300000191
v 0.2331999969 0.09550000191 0.05300000191
v 0.2331999969 0.08800000191 0.04800000191
v 0.2331999969 0.08873223305 0.049767766
v 0.2331999969 0.09050000191 0.05050000191
v 0.2331999969 0.09226777077 0.049767766
v 0.2331999969 0.09300000191 0.04800000191
v 0.2331999969 0.09226777077 0.04623223305
v 0.2331999969 0.09050000191 0.04550000191
v 0.2331999969 0.08873223305 0.04623223305
v 0.2331999969 0.08550000191 0.04300000191
v 0.2331999969 0.09550000191 0.04300000191
v 0.2331999969 0.09550000191 0.05300000191
v 0.2331999969 0.08550000191 0.05300000191
v 0.2297999954 0.08699999809 0.04300000191
v 0.2331999969 0.08550000191 0.04300000191
v 0.2331999969 0.08550000191 0.05300000191
v 0.2297999954 0.08699999809 0.05300000191
v 0.2297999954 0.08800000191 0.04800000191
v 0.2297999954 0.08873223305 0.04623223305
v 0.2297999954 0.09050000191 0.04550000191
v 0.2297999954 0.09226777077 0.04623223305
v 0.2297999954 0.09300000191 0.04800000191
v 0.2297999954 0.09226777077 0.049767766
v 0.2297999954 0.09050000191 0.05050000191
v 0.2297999954 0.08873223305 0.049767766
v 0.2297999954 0.09399999619 0.04300000191
v 0.2297999954 0.08699999809 0.04300000191
v 0.2297999954 0.08699999809 0.05300000191
v 0.2297999954 0.09399999619 0.05300000191
v 0.2331999969 0.08550000191 0.04300000191
v 0.2297999954 0.08699999809 0.04300000191
v 0.2297999954 0.09399999619 0.04300000191
v 0.2331999969 0.09550000191 0.04300000191
f 2 16 1
f 1 16 18
f 17 9 8
f 8 9 10
f 8 10 11
f 2 3 16
f 16 3 15
f 15 3 4
f 15 4 14
f 14 4 5
f 14 5 13
f 13 5 6
f 13 6 12
f 12 6 7
f 12 7 11
f 11 7 8
f 20 21 19
f 19 21 22
f 23 24 26
f 26 24 25
f 28 38 27
f 27 38 35
f 27 35 34
f 34 35 33
f 33 35 36
f 33 36 32
f 32 36 31
f 31 36 37
f 31 37 30
f 30 37 29
f 29 37 38
f 29 38 28
f 39 40 42
f 42 40 41
f 44 52 43
f 43 52 53
f 43 53 50
f 50 53 49
f 49 53 54
f 49 54 48
f 48 54 47
f 47 54 51
f 47 51 46
f 46 51 45
f 45 51 52
f 45 52 44
f 56 57 55
f 55 57 58
