v -0.1784925601 -0.003000000119 0.4278767499
v -0.181507468 -0.003000000119 0.4278767446
v -0.1784925601 -0.003000000119 0.4278767499
v -0.181507468 -0.003000000119 0.4278767446
v -0.1784925601 -0.003000000119 0.4278767499
v -0.181507468 -0.003000000119 0.4278767446
v -0.181507468 -0.003000000119 0.4278767446
v -0.181507468 -0.003000000119 0.4278767446
v -0.1784925601 -0.003000000119 0.4278767499
v -0.1784925601 -0.003000000119 0.4278767499
v -0.1784925601 -0.003000000119 0.4278767499
v -0.1784925601 -0.003000000119 0.4278767499
v -0.181507468 -0.003000000119 0.4278767446
v -0.181507468 -0.003000000119 0.4278767446
v -0.1789340941 -0.003000000119 0.42894269
v -0.1800000167 -0.003000000119 0.4293842012
v -0.1810659377 -0.003000000119 0.4289426863
v -0.181065934 -0.003000000119 0.4268108236
v -0.181065934 -0.003000000119 0.4268108236
v -0.1800000114 -0.003000000119 0.4263692934
v -0.1800000114 -0.003000000119 0.4263692934
v -0.1789340904 -0.003000000119 0.4268108274
v -0.1789340904 -0.003000000119 0.4268108274
v -0.1789340913 -0.003923120499 0.4273437978
v -0.1800000127 -0.004305489659 0.4271230203
v -0.1810659349 -0.003923120499 0.4273437941
v -0.1810659349 -0.002076879442 0.4273437941
v -0.1800000127 -0.00169451043 0.4271230203
v -0.1789340913 -0.002076879442 0.4273437978
v -0.1789340932 -0.002076879442 0.4284097196
v -0.1800000154 -0.00169451043 0.4286304742
v -0.1810659368 -0.002076879442 0.4284097158
v -0.1810659368 -0.003923120499 0.4284097158
v -0.1800000154 -0.004305489659 0.4286304742
v -0.1789340932 -0.003923120499 0.4284097196
f 33 7 26
f 26 8 18
f 24 9 35
f 35 10 15
f 30 11 29
f 29 12 23
f 27 13 32
f 32 14 17
f 15 16 35
f 35 16 34
f 35 34 24
f 24 34 25
f 24 25 22
f 22 25 20
f 23 21 29
f 29 21 28
f 29 28 30
f 30 28 31
f 30 31 15
f 15 31 16
f 15 3 30
f 16 17 34
f 34 17 33
f 34 33 25
f 25 33 26
f 25 26 20
f 20 26 18
f 21 19 28
f 28 19 27
f 28 27 31
f 31 27 32
f 31 32 16
f 16 32 17
f 17 4 33
f 19 2 27
f 22 1 24
