v -0.2570000076 0.07800000191 0.09000000276
v -0.2570000076 0.07300000191 0.09000000276
v 0.2570000076 0.07300000191 0.09000000276
v 0.2570000076 0.07800000191 0.09000000276
v 0.2417749977 0.07300000191 -0.03999999724
v 0.2426078796 0.07300000191 -0.03771167474
v 0.2447168159 0.07300000191 -0.03649408064
v 0.2471150017 0.07300000191 -0.03691694934
v 0.2486803055 0.07300000191 -0.03878241264
v 0.2486803055 0.07300000191 -0.04121759134
v 0.2471150017 0.07300000191 -0.04308305464
v 0.2447168159 0.07300000191 -0.04350591384
v 0.2426078796 0.07300000191 -0.04228831964
v 0.2020149994 0.07300000191 0.04000000276
v 0.2027911758 0.07300000191 0.04187383926
v 0.2046649933 0.07300000191 0.04264999666
v 0.2065388298 0.07300000191 0.04187383926
v 0.2073150063 0.07300000191 0.04000000276
v 0.2065388298 0.07300000191 0.03812616626
v 0.2046649933 0.07300000191 0.03735000886
v 0.2027911758 0.07300000191 0.03812616626
v -0.2479850006 0.07300000191 -0.03999999724
v -0.2472088242 0.07300000191 -0.03812617024
v -0.2453350067 0.07300000191 -0.03735000334
v -0.2434611702 0.07300000191 -0.03812617024
v -0.2426849937 0.07300000191 -0.03999999724
v -0.2434611702 0.07300000191 -0.04187383374
v -0.2453350067 0.07300000191 -0.04265000064
v -0.2472088242 0.07300000191 -0.04187383374
v -0.2082250023 0.07300000191 0.04000000276
v -0.2073921204 0.07300000191 0.04228832526
v -0.2052831841 0.07300000191 0.04350591936
v -0.2028849983 0.07300000191 0.04308304106
v -0.2013196945 0.07300000191 0.04121759696
v -0.2013196945 0.07300000191 0.03878240866
v -0.2028849983 0.07300000191 0.03691694536
v -0.2052831841 0.07300000191 0.03649408616
v -0.2073921204 0.07300000191 0.03771168036
v -0.2082250023 0.07300000191 -0.03999999724
v -0.2073921204 0.07300000191 -0.03771167474
v -0.2052831841 0.07300000191 -0.03649408064
v -0.2028849983 0.07300000191 -0.03691694934
v -0.2013196945 0.07300000191 -0.03878241264
v -0.2013196945 0.07300000191 -0.04121759134
v -0.2028849983 0.07300000191 -0.04308305464
v -0.2052831841 0.07300000191 -0.04350591384
v -0.2073921204 0.07300000191 -0.04228831964
v -0.2479850006 0.07300000191 0.04000000276
v -0.2472088242 0.07300000191 0.04187383926
v -0.2453350067 0.07300000191 0.04264999666
v -0.2434611702 0.07300000191 0.04187383926
v -0.2426849937 0.07300000191 0.04000000276
v -0.2434611702 0.07300000191 0.03812616626
v -0.2453350067 0.07300000191 0.03735000886
v -0.2472088242 0.07300000191 0.03812616626
v 0.2417749977 0.07300000191 0.04000000276
v 0.2426078796 0.07300000191 0.04228832526
v 0.2447168159 0.07300000191 0.04350591936
v 0.2471150017 0.07300000191 0.04308304106
v 0.2486803055 0.07300000191 0.04121759696
v 0.2486803055 0.07300000191 0.03878240866
v 0.2471150017 0.07300000191 0.03691694536
v 0.2447168159 0.07300000191 0.03649408616
v 0.2426078796 0.07300000191 0.03771168036
v 0.2020149994 0.07300000191 -0.03999999724
v 0.2027911758 0.07300000191 -0.03812617024
v 0.2046649933 0.07300000191 -0.03735000334
v 0.2065388298 0.07300000191 -0.03812617024
v 0.2073150063 0.07300000191 -0.03999999724
v 0.2065388298 0.07300000191 -0.04187383374
v 0.2046649933 0.07300000191 -0.04265000064
v 0.2027911758 0.07300000191 -0.04187383374
v -0.2570000076 0.07300000191 0.09000000276
v -0.2600614738 0.07300000191 0.08939104356
v -0.2626568604 0.07300000191 0.08765686316
v -0.2643910408 0.07300000191 0.08506147666
v -0.265 0.07300000191 0.08199999136
v -0.265 0.07300000191 -0.08199999534
v -0.2643910408 0.07300000191 -0.08506147104
v -0.2626568604 0.07300000191 -0.08765685754
v -0.2600614738 0.07300000191 -0.08939103804
v -0.2570000076 0.07300000191 -0.09000000204
v 0.2570000076 0.07300000191 -0.09000000204
v 0.2600614738 0.07300000191 -0.08939103804
v 0.2626568604 0.07300000191 -0.08765685754
v 0.2643910408 0.07300000191 -0.08506147104
v 0.265 0.07300000191 -0.08199999534
v 0.265 0.07300000191 0.08199999136
v 0.2643910408 0.07300000191 0.08506147666
v 0.2626568604 0.07300000191 0.08765686316
v 0.2600614738 0.07300000191 0.08939104356
v 0.2570000076 0.07300000191 0.09000000276
v -0.06300000191 0.07300000191 2.755596473e-09
v -0.0620428896 0.07300000191 0.01093982976
v -0.05920063496 0.07300000191 0.02154726306
v -0.05455960274 0.07300000191 0.03149999896
v -0.04826079845 0.07300000191 0.04049562736
v -0.04049561977 0.07300000191 0.04826080596
v -0.03150000095 0.07300000191 0.05455959596
v -0.02154726982 0.07300000191 0.05920063296
v -0.01093983531 0.07300000191 0.06204288756
v 7.347880353e-18 0.07300000191 0.06299999516
v 0.01093983531 0.07300000191 0.06204288756
v 0.02154726982 0.07300000191 0.05920063296
v 0.03150000095 0.07300000191 0.05455959596
v 0.04049561977 0.07300000191 0.04826080596
v 0.04826079845 0.07300000191 0.04049562736
v 0.05455960274 0.07300000191 0.03149999896
v 0.05920063496 0.07300000191 0.02154726306
v 0.0620428896 0.07300000191 0.01093982976
v 0.06300000191 0.07300000191 2.755596473e-09
v 0.0620428896 0.07300000191 -0.01093983374
v 0.05920063496 0.07300000191 -0.02154726704
v 0.05455960274 0.07300000191 -0.03150000294
v 0.04826079845 0.07300000191 -0.04049562174
v 0.04049561977 0.07300000191 -0.04826080044
v 0.03150000095 0.07300000191 -0.05455959994
v 0.02154726982 0.07300000191 -0.05920063694
v 0.01093983531 0.07300000191 -0.06204289154
v -3.673941342e-19 0.07300000191 -0.06299999914
v -0.01093983531 0.07300000191 -0.06204289154
v -0.02154726982 0.07300000191 -0.05920063694
v -0.03150000095 0.07300000191 -0.05455959994
v -0.04049561977 0.07300000191 -0.04826080044
v -0.04826079845 0.07300000191 -0.04049562174
v -0.05455960274 0.07300000191 -0.03150000294
v -0.05920063496 0.07300000191 -0.02154726704
v -0.0620428896 0.07300000191 -0.01093983374
v -0.06775000095 0.07300000191 -0.06499999724
v -0.06694454193 0.07300000191 -0.06305545534
v -0.065 0.07300000191 -0.06225000104
v -0.06305545807 0.07300000191 -0.06305545534
v -0.06224999905 0.07300000191 -0.06499999724
v -0.06305545807 0.07300000191 -0.06694453914
v -0.065 0.07300000191 -0.06775000294
v -0.06694454193 0.07300000191 -0.06694453914
v -0.06775000095 0.07300000191 0.06500000276
v -0.06694454193 0.07300000191 0.06694454466
v -0.065 0.07300000191 0.06774999896
v -0.06305545807 0.07300000191 0.06694454466
v -0.06224999905 0.07300000191 0.06500000276
v -0.06305545807 0.07300000191 0.06305546086
v -0.065 0.07300000191 0.06225000656
v -0.06694454193 0.07300000191 0.06305546086
v 0.06224999905 0.07300000191 0.06500000276
v 0.06305545807 0.07300000191 0.06694454466
v 0.065 0.07300000191 0.06774999896
v 0.06694454193 0.07300000191 0.06694454466
v 0.06775000095 0.07300000191 0.06500000276
v 0.06694454193 0.07300000191 0.06305546086
v 0.065 0.07300000191 0.06225000656
v 0.06305545807 0.07300000191 0.06305546086
v 0.06224999905 0.07300000191 -0.06499999724
v 0.06305545807 0.07300000191 -0.06305545534
v 0.065 0.07300000191 -0.06225000104
v 0.06694454193 0.07300000191 -0.06305545534
v 0.06775000095 0.07300000191 -0.06499999724
v 0.06694454193 0.07300000191 -0.06694453914
v 0.065 0.07300000191 -0.06775000294
v 0.06305545807 0.07300000191 -0.06694453914
v 0.2222500038 0.07300000191 2.755596473e-09
v 0.2230554581 0.07300000191 0.001944544656
v 0.225 0.07300000191 0.002749998956
v 0.2269445419 0.07300000191 0.001944544656
v 0.2277499962 0.07300000191 2.755596473e-09
v 0.2269445419 0.07300000191 -0.001944539144
v 0.225 0.07300000191 -0.002749993444
v 0.2230554581 0.07300000191 -0.001944539144
v -0.2277499962 0.07300000191 2.755596473e-09
v -0.2269445419 0.07300000191 0.001944544656
v -0.225 0.07300000191 0.002749998956
v -0.2230554581 0.07300000191 0.001944544656
v -0.2222500038 0.07300000191 2.755596473e-09
v -0.2230554581 0.07300000191 -0.001944539144
v -0.225 0.07300000191 -0.002749993444
v -0.2269445419 0.07300000191 -0.001944539144
v -0.265 0.07800000191 -0.08199999534
v -0.2643910408 0.07800000191 -0.08506147104
v -0.2626568604 0.07800000191 -0.08765685754
v -0.2600614738 0.07800000191 -0.08939103804
v -0.2570000076 0.07800000191 -0.09000000204
v -0.2570000076 0.07300000191 -0.09000000204
v -0.2600614738 0.07300000191 -0.08939103804
v -0.2626568604 0.07300000191 -0.08765685754
v -0.2643910408 0.07300000191 -0.08506147104
v -0.265 0.07300000191 -0.08199999534
v 0.2570000076 0.07800000191 -0.09000000204
v 0.2570000076 0.07300000191 -0.09000000204
v -0.2570000076 0.07300000191 -0.09000000204
v -0.2570000076 0.07800000191 -0.09000000204
v 0.06224999905 0.07800000191 0.06500000276
v 0.06305545807 0.07800000191 0.06694454466
v 0.065 0.07800000191 0.06774999896
v 0.06694454193 0.07800000191 0.06694454466
v 0.06775000095 0.07800000191 0.06500000276
v 0.06694454193 0.07800000191 0.06305546086
v 0.065 0.07800000191 0.06225000656
v 0.06305545807 0.07800000191 0.06305546086
v 0.06224999905 0.07300000191 0.06500000276
v 0.06305545807 0.07300000191 0.06305546086
v 0.065 0.07300000191 0.06225000656
v 0.06694454193 0.07300000191 0.06305546086
v 0.06775000095 0.07300000191 0.06500000276
v 0.06694454193 0.07300000191 0.06694454466
v 0.065 0.07300000191 0.06774999896
v 0.06305545807 0.07300000191 0.06694454466
v 0.06224999905 0.07800000191 0.06500000276
v 0.06224999905 0.07300000191 0.06500000276
v -0.06775000095 0.07800000191 0.06500000276
v -0.06694454193 0.07800000191 0.06694454466
v -0.065 0.07800000191 0.06774999896
v -0.06305545807 0.07800000191 0.06694454466
v -0.06224999905 0.07800000191 0.06500000276
v -0.06305545807 0.07800000191 0.06305546086
v -0.065 0.07800000191 0.06225000656
v -0.06694454193 0.07800000191 0.06305546086
v -0.06775000095 0.07300000191 0.06500000276
v -0.06694454193 0.07300000191 0.06305546086
v -0.065 0.07300000191 0.06225000656
v -0.06305545807 0.07300000191 0.06305546086
v -0.06224999905 0.07300000191 0.06500000276
v -0.06305545807 0.07300000191 0.06694454466
v -0.065 0.07300000191 0.06774999896
v -0.06694454193 0.07300000191 0.06694454466
v -0.06775000095 0.07800000191 0.06500000276
v -0.06775000095 0.07300000191 0.06500000276
v 0.06224999905 0.07800000191 -0.06499999724
v 0.06305545807 0.07800000191 -0.06305545534
v 0.065 0.07800000191 -0.06225000104
v 0.06694454193 0.07800000191 -0.06305545534
v 0.06775000095 0.07800000191 -0.06499999724
v 0.06694454193 0.07800000191 -0.06694453914
v 0.065 0.07800000191 -0.06775000294
v 0.06305545807 0.07800000191 -0.06694453914
v 0.06224999905 0.07300000191 -0.06499999724
v 0.06305545807 0.07300000191 -0.06694453914
v 0.065 0.07300000191 -0.06775000294
v 0.06694454193 0.07300000191 -0.06694453914
v 0.06775000095 0.07300000191 -0.06499999724
v 0.06694454193 0.07300000191 -0.06305545534
v 0.065 0.07300000191 -0.06225000104
v 0.06305545807 0.07300000191 -0.06305545534
v 0.06224999905 0.07800000191 -0.06499999724
v 0.06224999905 0.07300000191 -0.06499999724
v -0.06775000095 0.07800000191 -0.06499999724
v -0.06694454193 0.07800000191 -0.06305545534
v -0.065 0.07800000191 -0.06225000104
v -0.06305545807 0.07800000191 -0.06305545534
v -0.06224999905 0.07800000191 -0.06499999724
v -0.06305545807 0.07800000191 -0.06694453914
v -0.065 0.07800000191 -0.06775000294
v -0.06694454193 0.07800000191 -0.06694453914
v -0.06775000095 0.07300000191 -0.06499999724
v -0.06694454193 0.07300000191 -0.06694453914
v -0.065 0.07300000191 -0.06775000294
v -0.06305545807 0.07300000191 -0.06694453914
v -0.06224999905 0.07300000191 -0.06499999724
v -0.06305545807 0.07300000191 -0.06305545534
v -0.065 0.07300000191 -0.06225000104
v -0.06694454193 0.07300000191 -0.06305545534
v -0.06775000095 0.07800000191 -0.06499999724
v -0.06775000095 0.07300000191 -0.06499999724
v 0.2222500038 0.07800000191 2.755596473e-09
v 0.2230554581 0.07800000191 0.001944544656
v 0.225 0.07800000191 0.002749998956
v 0.2269445419 0.07800000191 0.001944544656
v 0.2277499962 0.07800000191 2.755596473e-09
v 0.2269445419 0.07800000191 -0.001944539144
v 0.225 0.07800000191 -0.002749993444
v 0.2230554581 0.07800000191 -0.001944539144
v 0.2222500038 0.07300000191 2.755596473e-09
v 0.2230554581 0.07300000191 -0.001944539144
v 0.225 0.07300000191 -0.002749993444
v 0.2269445419 0.07300000191 -0.001944539144
v 0.2277499962 0.07300000191 2.755596473e-09
v 0.2269445419 0.07300000191 0.001944544656
v 0.225 0.07300000191 0.002749998956
v 0.2230554581 0.07300000191 0.001944544656
v 0.2222500038 0.07800000191 2.755596473e-09
v 0.2222500038 0.07300000191 2.755596473e-09
v -0.2277499962 0.07800000191 2.755596473e-09
v -0.2269445419 0.07800000191 0.001944544656
v -0.225 0.07800000191 0.002749998956
v -0.2230554581 0.07800000191 0.001944544656
v -0.2222500038 0.07800000191 2.755596473e-09
v -0.2230554581 0.07800000191 -0.001944539144
v -0.225 0.07800000191 -0.002749993444
v -0.2269445419 0.07800000191 -0.001944539144
v -0.2277499962 0.07300000191 2.755596473e-09
v -0.2269445419 0.07300000191 -0.001944539144
v -0.225 0.07300000191 -0.002749993444
v -0.2230554581 0.07300000191 -0.001944539144
v -0.2222500038 0.07300000191 2.755596473e-09
v -0.2230554581 0.07300000191 0.001944544656
v -0.225 0.07300000191 0.002749998956
v -0.2269445419 0.07300000191 0.001944544656
v -0.2277499962 0.07800000191 2.755596473e-09
v -0.2277499962 0.07300000191 2.755596473e-09
v -0.2082250023 0.07800000191 0.04000000276
v -0.2073921204 0.07800000191 0.04228832526
v -0.2052831841 0.07800000191 0.04350591936
v -0.2028849983 0.07800000191 0.04308304106
v -0.2013196945 0.07800000191 0.04121759696
v -0.2013196945 0.07800000191 0.03878240866
v -0.2028849983 0.07800000191 0.03691694536
v -0.2052831841 0.07800000191 0.03649408616
v -0.2073921204 0.07800000191 0.03771168036
v -0.2082250023 0.07300000191 0.04000000276
v -0.2073921204 0.07300000191 0.03771168036
v -0.2052831841 0.07300000191 0.03649408616
v -0.2028849983 0.07300000191 0.03691694536
v -0.2013196945 0.07300000191 0.03878240866
v -0.2013196945 0.07300000191 0.04121759696
v -0.2028849983 0.07300000191 0.04308304106
v -0.2052831841 0.07300000191 0.04350591936
v -0.2073921204 0.07300000191 0.04228832526
v -0.2082250023 0.07800000191 0.04000000276
v -0.2082250023 0.07300000191 0.04000000276
v 0.2020149994 0.07800000191 -0.03999999724
v 0.2027911758 0.07800000191 -0.03812617024
v 0.2046649933 0.07800000191 -0.03735000334
v 0.2065388298 0.07800000191 -0.03812617024
v 0.2073150063 0.07800000191 -0.03999999724
v 0.2065388298 0.07800000191 -0.04187383374
v 0.2046649933 0.07800000191 -0.04265000064
v 0.2027911758 0.07800000191 -0.04187383374
v 0.2020149994 0.07300000191 -0.03999999724
v 0.2027911758 0.07300000191 -0.04187383374
v 0.2046649933 0.07300000191 -0.04265000064
v 0.2065388298 0.07300000191 -0.04187383374
v 0.2073150063 0.07300000191 -0.03999999724
v 0.2065388298 0.07300000191 -0.03812617024
v 0.2046649933 0.07300000191 -0.03735000334
v 0.2027911758 0.07300000191 -0.03812617024
v 0.2020149994 0.07800000191 -0.03999999724
v 0.2020149994 0.07300000191 -0.03999999724
v 0.2020149994 0.07800000191 0.04000000276
v 0.2027911758 0.07800000191 0.04187383926
v 0.2046649933 0.07800000191 0.04264999666
v 0.2065388298 0.07800000191 0.04187383926
v 0.2073150063 0.07800000191 0.04000000276
v 0.2065388298 0.07800000191 0.03812616626
v 0.2046649933 0.07800000191 0.03735000886
v 0.2027911758 0.07800000191 0.03812616626
v 0.2020149994 0.07300000191 0.04000000276
v 0.2027911758 0.07300000191 0.03812616626
v 0.2046649933 0.07300000191 0.03735000886
v 0.2065388298 0.07300000191 0.03812616626
v 0.2073150063 0.07300000191 0.04000000276
v 0.2065388298 0.07300000191 0.04187383926
v 0.2046649933 0.07300000191 0.04264999666
v 0.2027911758 0.07300000191 0.04187383926
v 0.2020149994 0.07800000191 0.04000000276
v 0.2020149994 0.07300000191 0.04000000276
v -0.2479850006 0.07800000191 0.04000000276
v -0.2472088242 0.07800000191 0.04187383926
v -0.2453350067 0.07800000191 0.04264999666
v -0.2434611702 0.07800000191 0.04187383926
v -0.2426849937 0.07800000191 0.04000000276
v -0.2434611702 0.07800000191 0.03812616626
v -0.2453350067 0.07800000191 0.03735000886
v -0.2472088242 0.07800000191 0.03812616626
v -0.2479850006 0.07300000191 0.04000000276
v -0.2472088242 0.07300000191 0.03812616626
v -0.2453350067 0.07300000191 0.03735000886
v -0.2434611702 0.07300000191 0.03812616626
v -0.2426849937 0.07300000191 0.04000000276
v -0.2434611702 0.07300000191 0.04187383926
v -0.2453350067 0.07300000191 0.04264999666
v -0.2472088242 0.07300000191 0.04187383926
v -0.2479850006 0.07800000191 0.04000000276
v -0.2479850006 0.07300000191 0.04000000276
v -0.2479850006 0.07800000191 -0.03999999724
v -0.2472088242 0.07800000191 -0.03812617024
v -0.2453350067 0.07800000191 -0.03735000334
v -0.2434611702 0.07800000191 -0.03812617024
v -0.2426849937 0.07800000191 -0.03999999724
v -0.2434611702 0.07800000191 -0.04187383374
v -0.2453350067 0.07800000191 -0.04265000064
v -0.2472088242 0.07800000191 -0.04187383374
v -0.2479850006 0.07300000191 -0.03999999724
v -0.2472088242 0.07300000191 -0.04187383374
v -0.2453350067 0.07300000191 -0.04265000064
v -0.2434611702 0.07300000191 -0.04187383374
v -0.2426849937 0.07300000191 -0.03999999724
v -0.2434611702 0.07300000191 -0.03812617024
v -0.2453350067 0.07300000191 -0.03735000334
v -0.2472088242 0.07300000191 -0.03812617024
v -0.2479850006 0.07800000191 -0.03999999724
v -0.2479850006 0.07300000191 -0.03999999724
v 0.2417749977 0.07800000191 0.04000000276
v 0.2426078796 0.07800000191 0.04228832526
v 0.2447168159 0.07800000191 0.04350591936
v 0.2471150017 0.07800000191 0.04308304106
v 0.2486803055 0.07800000191 0.04121759696
v 0.2486803055 0.07800000191 0.03878240866
v 0.2471150017 0.07800000191 0.03691694536
v 0.2447168159 0.07800000191 0.03649408616
v 0.2426078796 0.07800000191 0.03771168036
v 0.2417749977 0.07300000191 0.04000000276
v 0.2426078796 0.07300000191 0.03771168036
v 0.2447168159 0.07300000191 0.03649408616
v 0.2471150017 0.07300000191 0.03691694536
v 0.2486803055 0.07300000191 0.03878240866
v 0.2486803055 0.07300000191 0.04121759696
v 0.2471150017 0.07300000191 0.04308304106
v 0.2447168159 0.07300000191 0.04350591936
v 0.2426078796 0.07300000191 0.04228832526
v 0.2417749977 0.07800000191 0.04000000276
v 0.2417749977 0.07300000191 0.04000000276
v 0.2417749977 0.07800000191 -0.03999999724
v 0.2426078796 0.07800000191 -0.03771167474
v 0.2447168159 0.07800000191 -0.03649408064
v 0.2471150017 0.07800000191 -0.03691694934
v 0.2486803055 0.07800000191 -0.03878241264
v 0.2486803055 0.07800000191 -0.04121759134
v 0.2471150017 0.07800000191 -0.04308305464
v 0.2447168159 0.07800000191 -0.04350591384
v 0.2426078796 0.07800000191 -0.04228831964
v 0.2417749977 0.07300000191 -0.03999999724
v 0.2426078796 0.07300000191 -0.04228831964
v 0.2447168159 0.07300000191 -0.04350591384
v 0.2471150017 0.07300000191 -0.04308305464
v 0.2486803055 0.07300000191 -0.04121759134
v 0.2486803055 0.07300000191 -0.03878241264
v 0.2471150017 0.07300000191 -0.03691694934
v 0.2447168159 0.07300000191 -0.03649408064
v 0.2426078796 0.07300000191 -0.03771167474
v 0.2417749977 0.07800000191 -0.03999999724
v 0.2417749977 0.07300000191 -0.03999999724
v -0.2082250023 0.07800000191 -0.03999999724
v -0.2073921204 0.07800000191 -0.03771167474
v -0.2052831841 0.07800000191 -0.03649408064
v -0.2028849983 0.07800000191 -0.03691694934
v -0.2013196945 0.07800000191 -0.03878241264
v -0.2013196945 0.07800000191 -0.04121759134
v -0.2028849983 0.07800000191 -0.04308305464
v -0.2052831841 0.07800000191 -0.04350591384
v -0.2073921204 0.07800000191 -0.04228831964
v -0.2082250023 0.07300000191 -0.03999999724
v -0.2073921204 0.07300000191 -0.04228831964
v -0.2052831841 0.07300000191 -0.04350591384
v -0.2028849983 0.07300000191 -0.04308305464
v -0.2013196945 0.07300000191 -0.04121759134
v -0.2013196945 0.07300000191 -0.03878241264
v -0.2028849983 0.07300000191 -0.03691694934
v -0.2052831841 0.07300000191 -0.03649408064
v -0.2073921204 0.07300000191 -0.03771167474
v -0.2082250023 0.07800000191 -0.03999999724
v -0.2082250023 0.07300000191 -0.03999999724
v 0.265 0.07800000191 0.08199999136
v 0.265 0.07300000191 0.08199999136
v 0.265 0.07300000191 -0.08199999534
v 0.265 0.07800000191 -0.08199999534
v -0.2570000076 0.07800000191 0.09000000276
v -0.2600614738 0.07800000191 0.08939104356
v -0.2626568604 0.07800000191 0.08765686316
v -0.2643910408 0.07800000191 0.08506147666
v -0.265 0.07800000191 0.08199999136
v -0.265 0.07300000191 0.08199999136
v -0.2643910408 0.07300000191 0.08506147666
v -0.2626568604 0.07300000191 0.08765686316
v -0.2600614738 0.07300000191 0.08939104356
v -0.2570000076 0.07300000191 0.09000000276
v -0.265 0.07300000191 0.08199999136
v -0.265 0.07800000191 0.08199999136
v -0.265 0.07800000191 -0.08199999534
v -0.265 0.07300000191 -0.08199999534
v 0.2417749977 0.07800000191 -0.03999999724
v 0.2426078796 0.07800000191 -0.04228831964
v 0.2447168159 0.07800000191 -0.04350591384
v 0.2471150017 0.07800000191 -0.04308305464
v 0.2486803055 0.07800000191 -0.04121759134
v 0.2486803055 0.07800000191 -0.03878241264
v 0.2471150017 0.07800000191 -0.03691694934
v 0.2447168159 0.07800000191 -0.03649408064
v 0.2426078796 0.07800000191 -0.03771167474
v 0.2020149994 0.07800000191 0.04000000276
v 0.2027911758 0.07800000191 0.03812616626
v 0.2046649933 0.07800000191 0.03735000886
v 0.2065388298 0.07800000191 0.03812616626
v 0.2073150063 0.07800000191 0.04000000276
v 0.2065388298 0.07800000191 0.04187383926
v 0.2046649933 0.07800000191 0.04264999666
v 0.2027911758 0.07800000191 0.04187383926
v -0.2479850006 0.07800000191 -0.03999999724
v -0.2472088242 0.07800000191 -0.04187383374
v -0.2453350067 0.07800000191 -0.04265000064
v -0.2434611702 0.07800000191 -0.04187383374
v -0.2426849937 0.07800000191 -0.03999999724
v -0.2434611702 0.07800000191 -0.03812617024
v -0.2453350067 0.07800000191 -0.03735000334
v -0.2472088242 0.07800000191 -0.03812617024
v -0.2082250023 0.07800000191 0.04000000276
v -0.2073921204 0.07800000191 0.03771168036
v -0.2052831841 0.07800000191 0.03649408616
v -0.2028849983 0.07800000191 0.03691694536
v -0.2013196945 0.07800000191 0.03878240866
v -0.2013196945 0.07800000191 0.04121759696
v -0.2028849983 0.07800000191 0.04308304106
v -0.2052831841 0.07800000191 0.04350591936
v -0.2073921204 0.07800000191 0.04228832526
v -0.2082250023 0.07800000191 -0.03999999724
v -0.2073921204 0.07800000191 -0.04228831964
v -0.2052831841 0.07800000191 -0.04350591384
v -0.2028849983 0.07800000191 -0.04308305464
v -0.2013196945 0.07800000191 -0.04121759134
v -0.2013196945 0.07800000191 -0.03878241264
v -0.2028849983 0.07800000191 -0.03691694934
v -0.2052831841 0.07800000191 -0.03649408064
v -0.2073921204 0.07800000191 -0.03771167474
v -0.2479850006 0.07800000191 0.04000000276
v -0.2472088242 0.07800000191 0.03812616626
v -0.2453350067 0.07800000191 0.03735000886
v -0.2434611702 0.07800000191 0.03812616626
v -0.2426849937 0.07800000191 0.04000000276
v -0.2434611702 0.07800000191 0.04187383926
v -0.2453350067 0.07800000191 0.04264999666
v -0.2472088242 0.07800000191 0.04187383926
v 0.2417749977 0.07800000191 0.04000000276
v 0.2426078796 0.07800000191 0.03771168036
v 0.2447168159 0.07800000191 0.03649408616
v 0.2471150017 0.07800000191 0.03691694536
v 0.2486803055 0.07800000191 0.03878240866
v 0.2486803055 0.07800000191 0.04121759696
v 0.2471150017 0.07800000191 0.04308304106
v 0.2447168159 0.07800000191 0.04350591936
v 0.2426078796 0.07800000191 0.04228832526
v 0.2020149994 0.07800000191 -0.03999999724
v 0.2027911758 0.07800000191 -0.04187383374
v 0.2046649933 0.07800000191 -0.04265000064
v 0.2065388298 0.07800000191 -0.04187383374
v 0.2073150063 0.07800000191 -0.03999999724
v 0.2065388298 0.07800000191 -0.03812617024
v 0.2046649933 0.07800000191 -0.03735000334
v 0.2027911758 0.07800000191 -0.03812617024
v -0.265 0.07800000191 0.08199999136
v -0.2643910408 0.07800000191 0.08506147666
v -0.2626568604 0.07800000191 0.08765686316
v -0.2600614738 0.07800000191 0.08939104356
v -0.2570000076 0.07800000191 0.09000000276
v 0.2570000076 0.07800000191 0.09000000276
v 0.2600614738 0.07800000191 0.08939104356
v 0.2626568604 0.07800000191 0.08765686316
v 0.2643910408 0.07800000191 0.08506147666
v 0.265 0.07800000191 0.08199999136
v 0.265 0.07800000191 -0.08199999534
v 0.2643910408 0.07800000191 -0.08506147104
v 0.2626568604 0.07800000191 -0.08765685754
v 0.2600614738 0.07800000191 -0.08939103804
v 0.2570000076 0.07800000191 -0.09000000204
v -0.2570000076 0.07800000191 -0.09000000204
v -0.2600614738 0.07800000191 -0.08939103804
v -0.2626568604 0.07800000191 -0.08765685754
v -0.2643910408 0.07800000191 -0.08506147104
v -0.265 0.07800000191 -0.08199999534
v -0.06300000191 0.07800000191 2.755596473e-09
v -0.0620428896 0.07800000191 -0.01093983374
v -0.05920063496 0.07800000191 -0.02154726704
v -0.05455960274 0.07800000191 -0.03150000294
v -0.04826079845 0.07800000191 -0.04049562174
v -0.04049561977 0.07800000191 -0.04826080044
v -0.03150000095 0.07800000191 -0.05455959994
v -0.02154726982 0.07800000191 -0.05920063694
v -0.01093983531 0.07800000191 -0.06204289154
v -6.735558332e-19 0.07800000191 -0.06299999914
v 0.01093983531 0.07800000191 -0.06204289154
v 0.02154726982 0.07800000191 -0.05920063694
v 0.03150000095 0.07800000191 -0.05455959994
v 0.04049561977 0.07800000191 -0.04826080044
v 0.04826079845 0.07800000191 -0.04049562174
v 0.05455960274 0.07800000191 -0.03150000294
v 0.05920063496 0.07800000191 -0.02154726704
v 0.0620428896 0.07800000191 -0.01093983374
v 0.06300000191 0.07800000191 2.755596473e-09
v 0.0620428896 0.07800000191 0.01093982976
v 0.05920063496 0.07800000191 0.02154726306
v 0.05455960274 0.07800000191 0.03149999896
v 0.04826079845 0.07800000191 0.04049562736
v 0.04049561977 0.07800000191 0.04826080596
v 0.03150000095 0.07800000191 0.05455959596
v 0.02154726982 0.07800000191 0.05920063296
v 0.01093983531 0.07800000191 0.06204288756
v 7.041718653e-18 0.07800000191 0.06299999516
v -0.01093983531 0.07800000191 0.06204288756
v -0.02154726982 0.07800000191 0.05920063296
v -0.03150000095 0.07800000191 0.05455959596
v -0.04049561977 0.07800000191 0.04826080596
v -0.04826079845 0.07800000191 0.04049562736
v -0.05455960274 0.07800000191 0.03149999896
v -0.05920063496 0.07800000191 0.02154726306
v -0.0620428896 0.07800000191 0.01093982976
v -0.06775000095 0.07800000191 -0.06499999724
v -0.06694454193 0.07800000191 -0.06694453914
v -0.065 0.07800000191 -0.06775000294
v -0.06305545807 0.07800000191 -0.06694453914
v -0.06224999905 0.07800000191 -0.06499999724
v -0.06305545807 0.07800000191 -0.06305545534
v -0.065 0.07800000191 -0.06225000104
v -0.06694454193 0.07800000191 -0.06305545534
v -0.06775000095 0.07800000191 0.06500000276
v -0.06694454193 0.07800000191 0.06305546086
v -0.065 0.07800000191 0.06225000656
v -0.06305545807 0.07800000191 0.06305546086
v -0.06224999905 0.07800000191 0.06500000276
v -0.06305545807 0.07800000191 0.06694454466
v -0.065 0.07800000191 0.06774999896
v -0.06694454193 0.07800000191 0.06694454466
v 0.06224999905 0.07800000191 0.06500000276
v 0.06305545807 0.07800000191 0.06305546086
v 0.065 0.07800000191 0.06225000656
v 0.06694454193 0.07800000191 0.06305546086
v 0.06775000095 0.07800000191 0.06500000276
v 0.06694454193 0.07800000191 0.06694454466
v 0.065 0.07800000191 0.06774999896
v 0.06305545807 0.07800000191 0.06694454466
v 0.06224999905 0.07800000191 -0.06499999724
v 0.06305545807 0.07800000191 -0.06694453914
v 0.065 0.07800000191 -0.06775000294
v 0.06694454193 0.07800000191 -0.06694453914
v 0.06775000095 0.07800000191 -0.06499999724
v 0.06694454193 0.07800000191 -0.06305545534
v 0.065 0.07800000191 -0.06225000104
v 0.06305545807 0.07800000191 -0.06305545534
v 0.2222500038 0.07800000191 2.755596473e-09
v 0.2230554581 0.07800000191 -0.001944539144
v 0.225 0.07800000191 -0.002749993444
v 0.2269445419 0.07800000191 -0.001944539144
v 0.2277499962 0.07800000191 2.755596473e-09
v 0.2269445419 0.07800000191 0.001944544656
v 0.225 0.07800000191 0.002749998956
v 0.2230554581 0.07800000191 0.001944544656
v -0.2277499962 0.07800000191 2.755596473e-09
v -0.2269445419 0.07800000191 -0.001944539144
v -0.225 0.07800000191 -0.002749993444
v -0.2230554581 0.07800000191 -0.001944539144
v -0.2222500038 0.07800000191 2.755596473e-09
v -0.2230554581 0.07800000191 0.001944544656
v -0.225 0.07800000191 0.002749998956
v -0.2269445419 0.07800000191 0.001944544656
v 0.265 0.07800000191 0.08199999136
v 0.2643910408 0.07800000191 0.08506147666
v 0.2626568604 0.07800000191 0.08765686316
v 0.2600614738 0.07800000191 0.08939104356
v 0.2570000076 0.07800000191 0.09000000276
v 0.2570000076 0.07300000191 0.09000000276
v 0.2600614738 0.07300000191 0.08939104356
v 0.2626568604 0.07300000191 0.08765686316
v 0.2643910408 0.07300000191 0.08506147666
v 0.265 0.07300000191 0.08199999136
v 0.2570000076 0.07800000191 -0.09000000204
v 0.2600614738 0.07800000191 -0.08939103804
v 0.2626568604 0.07800000191 -0.08765685754
v 0.2643910408 0.07800000191 -0.08506147104
v 0.265 0.07800000191 -0.08199999534
v 0.265 0.07300000191 -0.08199999534
v 0.2643910408 0.07300000191 -0.08506147104
v 0.2626568604 0.07300000191 -0.08765685754
v 0.2600614738 0.07300000191 -0.08939103804
v 0.2570000076 0.07300000191 -0.09000000204
v -0.06300000191 0.07800000191 2.755596473e-09
v -0.0620428896 0.07800000191 0.01093982976
v -0.05920063496 0.07800000191 0.02154726306
v -0.05455960274 0.07800000191 0.03149999896
v -0.04826079845 0.07800000191 0.04049562736
v -0.04049561977 0.07800000191 0.04826080596
v -0.03150000095 0.07800000191 0.05455959596
v -0.02154726982 0.07800000191 0.05920063296
v -0.01093983531 0.07800000191 0.06204288756
v 7.041718653e-18 0.07800000191 0.06299999516
v 0.01093983531 0.07800000191 0.06204288756
v 0.02154726982 0.07800000191 0.05920063296
v 0.03150000095 0.07800000191 0.05455959596
v 0.04049561977 0.07800000191 0.04826080596
v 0.04826079845 0.07800000191 0.04049562736
v 0.05455960274 0.07800000191 0.03149999896
v 0.05920063496 0.07800000191 0.02154726306
v 0.0620428896 0.07800000191 0.01093982976
v 0.06300000191 0.07800000191 2.755596473e-09
v 0.0620428896 0.07800000191 -0.01093983374
v 0.05920063496 0.07800000191 -0.02154726704
v 0.05455960274 0.07800000191 -0.03150000294
v 0.04826079845 0.07800000191 -0.04049562174
v 0.04049561977 0.07800000191 -0.04826080044
v 0.03150000095 0.07800000191 -0.05455959994
v 0.02154726982 0.07800000191 -0.05920063694
v 0.01093983531 0.07800000191 -0.06204289154
v -6.735558332e-19 0.07800000191 -0.06299999914
v -0.01093983531 0.07800000191 -0.06204289154
v -0.02154726982 0.07800000191 -0.05920063694
v -0.03150000095 0.07800000191 -0.05455959994
v -0.04049561977 0.07800000191 -0.04826080044
v -0.04826079845 0.07800000191 -0.04049562174
v -0.05455960274 0.07800000191 -0.03150000294
v -0.05920063496 0.07800000191 -0.02154726704
v -0.0620428896 0.07800000191 -0.01093983374
v -0.06300000191 0.07300000191 2.755596473e-09
v -0.0620428896 0.07300000191 -0.01093983374
v -0.05920063496 0.07300000191 -0.02154726704
v -0.05455960274 0.07300000191 -0.03150000294
v -0.04826079845 0.07300000191 -0.04049562174
v -0.04049561977 0.07300000191 -0.04826080044
v -0.03150000095 0.07300000191 -0.05455959994
v -0.02154726982 0.07300000191 -0.05920063694
v -0.01093983531 0.07300000191 -0.06204289154
v -3.673941342e-19 0.07300000191 -0.06299999914
v 0.01093983531 0.07300000191 -0.06204289154
v 0.02154726982 0.07300000191 -0.05920063694
v 0.03150000095 0.07300000191 -0.05455959994
v 0.04049561977 0.07300000191 -0.04826080044
v 0.04826079845 0.07300000191 -0.04049562174
v 0.05455960274 0.07300000191 -0.03150000294
v 0.05920063496 0.07300000191 -0.02154726704
v 0.0620428896 0.07300000191 -0.01093983374
v 0.06300000191 0.07300000191 2.755596473e-09
v 0.0620428896 0.07300000191 0.01093982976
v 0.05920063496 0.07300000191 0.02154726306
v 0.05455960274 0.07300000191 0.03149999896
v 0.04826079845 0.07300000191 0.04049562736
v 0.04049561977 0.07300000191 0.04826080596
v 0.03150000095 0.07300000191 0.05455959596
v 0.02154726982 0.07300000191 0.05920063296
v 0.01093983531 0.07300000191 0.06204288756
v 7.347880353e-18 0.07300000191 0.06299999516
v -0.01093983531 0.07300000191 0.06204288756
v -0.02154726982 0.07300000191 0.05920063296
v -0.03150000095 0.07300000191 0.05455959596
v -0.04049561977 0.07300000191 0.04826080596
v -0.04826079845 0.07300000191 0.04049562736
v -0.05455960274 0.07300000191 0.03149999896
v -0.05920063496 0.07300000191 0.02154726306
v -0.0620428896 0.07300000191 0.01093982976
v -0.06300000191 0.07800000191 2.755596473e-09
v -0.06300000191 0.07300000191 2.755596473e-09
v -0.2478849983 0.08399999619 -0.03999999724
v -0.2471381187 0.08399999619 -0.03819687564
v -0.2453350067 0.08399999619 -0.03744999604
v -0.2435318756 0.08399999619 -0.03819687564
v -0.242784996 0.08399999619 -0.03999999724
v -0.2435318756 0.08399999619 -0.04180311874
v -0.2453350067 0.08399999619 -0.04254999834
v -0.2471381187 0.08399999619 -0.04180311874
v -0.2478849983 0.07800000191 -0.03999999724
v -0.2471381187 0.07800000191 -0.04180311874
v -0.2453350067 0.07800000191 -0.04254999834
v -0.2435318756 0.07800000191 -0.04180311874
v -0.242784996 0.07800000191 -0.03999999724
v -0.2435318756 0.07800000191 -0.03819687564
v -0.2453350067 0.07800000191 -0.03744999604
v -0.2471381187 0.07800000191 -0.03819687564
v -0.2478849983 0.08399999619 -0.03999999724
v -0.2478849983 0.07800000191 -0.03999999724
v -0.2503350067 0.08399999619 -0.03999999724
v -0.2493800926 0.08399999619 -0.04293892584
v -0.2468800926 0.08399999619 -0.04475528444
v -0.2437899208 0.08399999619 -0.04475528444
v -0.2412899208 0.08399999619 -0.04293892584
v -0.2403350067 0.08399999619 -0.03999999724
v -0.2412899208 0.08399999619 -0.03706107814
v -0.2437899208 0.08399999619 -0.03524471954
v -0.2468800926 0.08399999619 -0.03524471954
v -0.2493800926 0.08399999619 -0.03706107814
v -0.2503350067 0.07800000191 -0.03999999724
v -0.2493800926 0.07800000191 -0.03706107814
v -0.2468800926 0.07800000191 -0.03524471954
v -0.2437899208 0.07800000191 -0.03524471954
v -0.2412899208 0.07800000191 -0.03706107814
v -0.2403350067 0.07800000191 -0.03999999724
v -0.2412899208 0.07800000191 -0.04293892584
v -0.2437899208 0.07800000191 -0.04475528444
v -0.2468800926 0.07800000191 -0.04475528444
v -0.2493800926 0.07800000191 -0.04293892584
v -0.2503350067 0.07800000191 -0.03999999724
v -0.2503350067 0.08399999619 -0.03999999724
v -0.2478849983 0.07800000191 -0.03999999724
v -0.2471381187 0.07800000191 -0.03819687564
v -0.2453350067 0.07800000191 -0.03744999604
v -0.2435318756 0.07800000191 -0.03819687564
v -0.242784996 0.07800000191 -0.03999999724
v -0.2435318756 0.07800000191 -0.04180311874
v -0.2453350067 0.07800000191 -0.04254999834
v -0.2471381187 0.07800000191 -0.04180311874
v -0.2503350067 0.07800000191 -0.03999999724
v -0.2493800926 0.07800000191 -0.04293892584
v -0.2468800926 0.07800000191 -0.04475528444
v -0.2437899208 0.07800000191 -0.04475528444
v -0.2412899208 0.07800000191 -0.04293892584
v -0.2403350067 0.07800000191 -0.03999999724
v -0.2412899208 0.07800000191 -0.03706107814
v -0.2437899208 0.07800000191 -0.03524471954
v -0.2468800926 0.07800000191 -0.03524471954
v -0.2493800926 0.07800000191 -0.03706107814
v -0.2478849983 0.08399999619 -0.03999999724
v -0.2471381187 0.08399999619 -0.04180311874
v -0.2453350067 0.08399999619 -0.04254999834
v -0.2435318756 0.08399999619 -0.04180311874
v -0.242784996 0.08399999619 -0.03999999724
v -0.2435318756 0.08399999619 -0.03819687564
v -0.2453350067 0.08399999619 -0.03744999604
v -0.2471381187 0.08399999619 -0.03819687564
v -0.2503350067 0.08399999619 -0.03999999724
v -0.2493800926 0.08399999619 -0.03706107814
v -0.2468800926 0.08399999619 -0.03524471954
v -0.2437899208 0.08399999619 -0.03524471954
v -0.2412899208 0.08399999619 -0.03706107814
v -0.2403350067 0.08399999619 -0.03999999724
v -0.2412899208 0.08399999619 -0.04293892584
v -0.2437899208 0.08399999619 -0.04475528444
v -0.2468800926 0.08399999619 -0.04475528444
v -0.2493800926 0.08399999619 -0.04293892584
v -0.2478849983 0.07800000191 0.04000000276
v -0.2471381187 0.07800000191 0.04180311476
v -0.2453350067 0.07800000191 0.04254999436
v -0.2435318756 0.07800000191 0.04180311476
v -0.242784996 0.07800000191 0.04000000276
v -0.2435318756 0.07800000191 0.03819687166
v -0.2453350067 0.07800000191 0.03744999206
v -0.2471381187 0.07800000191 0.03819687166
v -0.2503350067 0.07800000191 0.04000000276
v -0.2493800926 0.07800000191 0.03706106466
v -0.2468800926 0.07800000191 0.03524471556
v -0.2437899208 0.07800000191 0.03524471556
v -0.2412899208 0.07800000191 0.03706106466
v -0.2403350067 0.07800000191 0.04000000276
v -0.2412899208 0.07800000191 0.04293892186
v -0.2437899208 0.07800000191 0.04475528996
v -0.2468800926 0.07800000191 0.04475528996
v -0.2493800926 0.07800000191 0.04293892186
v -0.2503350067 0.08399999619 0.04000000276
v -0.2493800926 0.08399999619 0.03706106466
v -0.2468800926 0.08399999619 0.03524471556
v -0.2437899208 0.08399999619 0.03524471556
v -0.2412899208 0.08399999619 0.03706106466
v -0.2403350067 0.08399999619 0.04000000276
v -0.2412899208 0.08399999619 0.04293892186
v -0.2437899208 0.08399999619 0.04475528996
v -0.2468800926 0.08399999619 0.04475528996
v -0.2493800926 0.08399999619 0.04293892186
v -0.2503350067 0.07800000191 0.04000000276
v -0.2493800926 0.07800000191 0.04293892186
v -0.2468800926 0.07800000191 0.04475528996
v -0.2437899208 0.07800000191 0.04475528996
v -0.2412899208 0.07800000191 0.04293892186
v -0.2403350067 0.07800000191 0.04000000276
v -0.2412899208 0.07800000191 0.03706106466
v -0.2437899208 0.07800000191 0.03524471556
v -0.2468800926 0.07800000191 0.03524471556
v -0.2493800926 0.07800000191 0.03706106466
v -0.2503350067 0.07800000191 0.04000000276
v -0.2503350067 0.08399999619 0.04000000276
v -0.2478849983 0.08399999619 0.04000000276
v -0.2471381187 0.08399999619 0.04180311476
v -0.2453350067 0.08399999619 0.04254999436
v -0.2435318756 0.08399999619 0.04180311476
v -0.242784996 0.08399999619 0.04000000276
v -0.2435318756 0.08399999619 0.03819687166
v -0.2453350067 0.08399999619 0.03744999206
v -0.2471381187 0.08399999619 0.03819687166
v -0.2478849983 0.07800000191 0.04000000276
v -0.2471381187 0.07800000191 0.03819687166
v -0.2453350067 0.07800000191 0.03744999206
v -0.2435318756 0.07800000191 0.03819687166
v -0.242784996 0.07800000191 0.04000000276
v -0.2435318756 0.07800000191 0.04180311476
v -0.2453350067 0.07800000191 0.04254999436
v -0.2471381187 0.07800000191 0.04180311476
v -0.2478849983 0.08399999619 0.04000000276
v -0.2478849983 0.07800000191 0.04000000276
v -0.2478849983 0.08399999619 0.04000000276
v -0.2471381187 0.08399999619 0.03819687166
v -0.2453350067 0.08399999619 0.03744999206
v -0.2435318756 0.08399999619 0.03819687166
v -0.242784996 0.08399999619 0.04000000276
v -0.2435318756 0.08399999619 0.04180311476
v -0.2453350067 0.08399999619 0.04254999436
v -0.2471381187 0.08399999619 0.04180311476
v -0.2503350067 0.08399999619 0.04000000276
v -0.2493800926 0.08399999619 0.04293892186
v -0.2468800926 0.08399999619 0.04475528996
v -0.2437899208 0.08399999619 0.04475528996
v -0.2412899208 0.08399999619 0.04293892186
v -0.2403350067 0.08399999619 0.04000000276
v -0.2412899208 0.08399999619 0.03706106466
v -0.2437899208 0.08399999619 0.03524471556
v -0.2468800926 0.08399999619 0.03524471556
v -0.2493800926 0.08399999619 0.03706106466
v -0.2065470505 0.08399999619 -0.04085556704
v -0.2048322105 0.08399999619 -0.04170440394
v -0.2030194283 0.08399999619 -0.04109204964
v -0.2021706009 0.08399999619 -0.03937721924
v -0.2027829552 0.08399999619 -0.03756442744
v -0.204497776 0.08399999619 -0.03671560014
v -0.2063105774 0.08399999619 -0.03732795434
v -0.2071594048 0.08399999619 -0.03904278474
v -0.2055593491 0.08399999619 -0.03546861374
v -0.2011878777 0.08399999619 -0.03695977884
v -0.2002935219 0.08399999619 -0.04149116234
v -0.2037706566 0.08399999619 -0.04453139024
v -0.208142128 0.08399999619 -0.04304022514
v -0.2090364647 0.08399999619 -0.03850884164
v -0.2073412704 0.07800000191 -0.04233999924
v -0.2082192612 0.07800000191 -0.04007226664
v -0.2074341774 0.07800000191 -0.03777072624
v -0.2053533554 0.07800000191 -0.03651228624
v -0.2029504585 0.07800000191 -0.03688578324
v -0.2013497925 0.07800000191 -0.03871645654
v -0.2013003731 0.07800000191 -0.04114771564
v -0.2028252792 0.07800000191 -0.04304195124
v -0.20521101 0.07800000191 -0.04351281844
v -0.2011878777 0.07800000191 -0.03695977884
v -0.2055593491 0.07800000191 -0.03546861374
v -0.2090364647 0.07800000191 -0.03850884164
v -0.208142128 0.07800000191 -0.04304022514
v -0.2037706566 0.07800000191 -0.04453139024
v -0.2002935219 0.07800000191 -0.04149116234
v -0.2073412704 0.07800000191 -0.04233999924
v -0.20521101 0.07800000191 -0.04351281844
v -0.2028252792 0.07800000191 -0.04304195124
v -0.2013003731 0.07800000191 -0.04114771564
v -0.2013497925 0.07800000191 -0.03871645654
v -0.2029504585 0.07800000191 -0.03688578324
v -0.2053533554 0.07800000191 -0.03651228624
v -0.2074341774 0.07800000191 -0.03777072624
v -0.2082192612 0.07800000191 -0.04007226664
v -0.2073412704 0.07550000191 -0.04233999924
v -0.2082192612 0.07550000191 -0.04007226664
v -0.2074341774 0.07550000191 -0.03777072624
v -0.2053533554 0.07550000191 -0.03651228624
v -0.2029504585 0.07550000191 -0.03688578324
v -0.2013497925 0.07550000191 -0.03871645654
v -0.2013003731 0.07550000191 -0.04114771564
v -0.2028252792 0.07550000191 -0.04304195124
v -0.20521101 0.07550000191 -0.04351281844
v -0.2073412704 0.07550000191 -0.04233999924
v -0.2073412704 0.07800000191 -0.04233999924
v -0.2065470505 0.07550000191 -0.04085556704
v -0.2071594048 0.07550000191 -0.03904278474
v -0.2063105774 0.07550000191 -0.03732795434
v -0.204497776 0.07550000191 -0.03671560014
v -0.2027829552 0.07550000191 -0.03756442744
v -0.2021706009 0.07550000191 -0.03937721924
v -0.2030194283 0.07550000191 -0.04109204964
v -0.2048322105 0.07550000191 -0.04170440394
v -0.2073412704 0.07550000191 -0.04233999924
v -0.20521101 0.07550000191 -0.04351281844
v -0.2028252792 0.07550000191 -0.04304195124
v -0.2013003731 0.07550000191 -0.04114771564
v -0.2013497925 0.07550000191 -0.03871645654
v -0.2029504585 0.07550000191 -0.03688578324
v -0.2053533554 0.07550000191 -0.03651228624
v -0.2074341774 0.07550000191 -0.03777072624
v -0.2082192612 0.07550000191 -0.04007226664
v -0.2065470505 0.08399999619 -0.04085556704
v -0.2071594048 0.08399999619 -0.03904278474
v -0.2063105774 0.08399999619 -0.03732795434
v -0.204497776 0.08399999619 -0.03671560014
v -0.2027829552 0.08399999619 -0.03756442744
v -0.2021706009 0.08399999619 -0.03937721924
v -0.2030194283 0.08399999619 -0.04109204964
v -0.2048322105 0.08399999619 -0.04170440394
v -0.2065470505 0.07550000191 -0.04085556704
v -0.2048322105 0.07550000191 -0.04170440394
v -0.2030194283 0.07550000191 -0.04109204964
v -0.2021706009 0.07550000191 -0.03937721924
v -0.2027829552 0.07550000191 -0.03756442744
v -0.204497776 0.07550000191 -0.03671560014
v -0.2063105774 0.07550000191 -0.03732795434
v -0.2071594048 0.07550000191 -0.03904278474
v -0.2065470505 0.08399999619 -0.04085556704
v -0.2065470505 0.07550000191 -0.04085556704
v -0.2090364647 0.07800000191 -0.03850884164
v -0.2055593491 0.07800000191 -0.03546861374
v -0.2055593491 0.08399999619 -0.03546861374
v -0.2090364647 0.08399999619 -0.03850884164
v -0.2037706566 0.07800000191 -0.04453139024
v -0.208142128 0.07800000191 -0.04304022514
v -0.208142128 0.08399999619 -0.04304022514
v -0.2037706566 0.08399999619 -0.04453139024
v -0.2002935219 0.07800000191 -0.04149116234
v -0.2037706566 0.07800000191 -0.04453139024
v -0.2037706566 0.08399999619 -0.04453139024
v -0.2002935219 0.08399999619 -0.04149116234
v -0.208142128 0.07800000191 -0.04304022514
v -0.2090364647 0.07800000191 -0.03850884164
v -0.2090364647 0.08399999619 -0.03850884164
v -0.208142128 0.08399999619 -0.04304022514
v -0.2011878777 0.07800000191 -0.03695977884
v -0.2002935219 0.07800000191 -0.04149116234
v -0.2002935219 0.08399999619 -0.04149116234
v -0.2011878777 0.08399999619 -0.03695977884
v -0.2055593491 0.07800000191 -0.03546861374
v -0.2011878777 0.07800000191 -0.03695977884
v -0.2011878777 0.08399999619 -0.03695977884
v -0.2055593491 0.08399999619 -0.03546861374
v -0.2073412704 0.07800000191 0.03765999116
v -0.20521101 0.07800000191 0.03648718156
v -0.2028252792 0.07800000191 0.03695804876
v -0.2013003731 0.07800000191 0.03885227486
v -0.2013497925 0.07800000191 0.04128353396
v -0.2029504585 0.07800000191 0.04311422626
v -0.2053533554 0.07800000191 0.04348772326
v -0.2074341774 0.07800000191 0.04222927376
v -0.2082192612 0.07800000191 0.03992773336
v -0.2073412704 0.07550000191 0.03765999116
v -0.2082192612 0.07550000191 0.03992773336
v -0.2074341774 0.07550000191 0.04222927376
v -0.2053533554 0.07550000191 0.04348772326
v -0.2029504585 0.07550000191 0.04311422626
v -0.2013497925 0.07550000191 0.04128353396
v -0.2013003731 0.07550000191 0.03885227486
v -0.2028252792 0.07550000191 0.03695804876
v -0.20521101 0.07550000191 0.03648718156
v -0.2073412704 0.07550000191 0.03765999116
v -0.2073412704 0.07800000191 0.03765999116
v -0.2065470505 0.07550000191 0.03914442336
v -0.2071594048 0.07550000191 0.04095720566
v -0.2063105774 0.07550000191 0.04267204566
v -0.204497776 0.07550000191 0.04328439986
v -0.2027829552 0.07550000191 0.04243557256
v -0.2021706009 0.07550000191 0.04062279026
v -0.2030194283 0.07550000191 0.03890795036
v -0.2048322105 0.07550000191 0.03829559606
v -0.2073412704 0.07550000191 0.03765999116
v -0.20521101 0.07550000191 0.03648718156
v -0.2028252792 0.07550000191 0.03695804876
v -0.2013003731 0.07550000191 0.03885227486
v -0.2013497925 0.07550000191 0.04128353396
v -0.2029504585 0.07550000191 0.04311422626
v -0.2053533554 0.07550000191 0.04348772326
v -0.2074341774 0.07550000191 0.04222927376
v -0.2082192612 0.07550000191 0.03992773336
v -0.2065470505 0.08399999619 0.03914442336
v -0.2071594048 0.08399999619 0.04095720566
v -0.2063105774 0.08399999619 0.04267204566
v -0.204497776 0.08399999619 0.04328439986
v -0.2027829552 0.08399999619 0.04243557256
v -0.2021706009 0.08399999619 0.04062279026
v -0.2030194283 0.08399999619 0.03890795036
v -0.2048322105 0.08399999619 0.03829559606
v -0.2065470505 0.07550000191 0.03914442336
v -0.2048322105 0.07550000191 0.03829559606
v -0.2030194283 0.07550000191 0.03890795036
v -0.2021706009 0.07550000191 0.04062279026
v -0.2027829552 0.07550000191 0.04243557256
v -0.204497776 0.07550000191 0.04328439986
v -0.2063105774 0.07550000191 0.04267204566
v -0.2071594048 0.07550000191 0.04095720566
v -0.2065470505 0.08399999619 0.03914442336
v -0.2065470505 0.07550000191 0.03914442336
v -0.2055593491 0.07800000191 0.04453138626
v -0.2011878777 0.07800000191 0.04304022116
v -0.2011878777 0.08399999619 0.04304022116
v -0.2055593491 0.08399999619 0.04453138626
v -0.2037706566 0.07800000191 0.03546861926
v -0.208142128 0.07800000191 0.03695978446
v -0.208142128 0.08399999619 0.03695978446
v -0.2037706566 0.08399999619 0.03546861926
v -0.2011878777 0.07800000191 0.04304022116
v -0.2002935219 0.07800000191 0.03850883766
v -0.2002935219 0.08399999619 0.03850883766
v -0.2011878777 0.08399999619 0.04304022116
v -0.2065470505 0.08399999619 0.03914442336
v -0.2048322105 0.08399999619 0.03829559606
v -0.2030194283 0.08399999619 0.03890795036
v -0.2021706009 0.08399999619 0.04062279026
v -0.2027829552 0.08399999619 0.04243557256
v -0.204497776 0.08399999619 0.04328439986
v -0.2063105774 0.08399999619 0.04267204566
v -0.2071594048 0.08399999619 0.04095720566
v -0.2055593491 0.08399999619 0.04453138626
v -0.2011878777 0.08399999619 0.04304022116
v -0.2002935219 0.08399999619 0.03850883766
v -0.2037706566 0.08399999619 0.03546861926
v -0.208142128 0.08399999619 0.03695978446
v -0.2090364647 0.08399999619 0.04149116796
v -0.2002935219 0.07800000191 0.03850883766
v -0.2037706566 0.07800000191 0.03546861926
v -0.2037706566 0.08399999619 0.03546861926
v -0.2002935219 0.08399999619 0.03850883766
v -0.2073412704 0.07800000191 0.03765999116
v -0.2082192612 0.07800000191 0.03992773336
v -0.2074341774 0.07800000191 0.04222927376
v -0.2053533554 0.07800000191 0.04348772326
v -0.2029504585 0.07800000191 0.04311422626
v -0.2013497925 0.07800000191 0.04128353396
v -0.2013003731 0.07800000191 0.03885227486
v -0.2028252792 0.07800000191 0.03695804876
v -0.20521101 0.07800000191 0.03648718156
v -0.2011878777 0.07800000191 0.04304022116
v -0.2055593491 0.07800000191 0.04453138626
v -0.2090364647 0.07800000191 0.04149116796
v -0.208142128 0.07800000191 0.03695978446
v -0.2037706566 0.07800000191 0.03546861926
v -0.2002935219 0.07800000191 0.03850883766
v -0.208142128 0.07800000191 0.03695978446
v -0.2090364647 0.07800000191 0.04149116796
v -0.2090364647 0.08399999619 0.04149116796
v -0.208142128 0.08399999619 0.03695978446
v -0.2090364647 0.07800000191 0.04149116796
v -0.2055593491 0.07800000191 0.04453138626
v -0.2055593491 0.08399999619 0.04453138626
v -0.2090364647 0.08399999619 0.04149116796
v 0.2021150017 0.07800000191 -0.03999999724
v 0.2028618813 0.07800000191 -0.03819687564
v 0.2046649933 0.07800000191 -0.03744999604
v 0.2064681244 0.07800000191 -0.03819687564
v 0.207215004 0.07800000191 -0.03999999724
v 0.2064681244 0.07800000191 -0.04180311874
v 0.2046649933 0.07800000191 -0.04254999834
v 0.2028618813 0.07800000191 -0.04180311874
v 0.1996649933 0.07800000191 -0.03999999724
v 0.2006199074 0.07800000191 -0.04293892584
v 0.2031199074 0.07800000191 -0.04475528444
v 0.2062100792 0.07800000191 -0.04475528444
v 0.2087100792 0.07800000191 -0.04293892584
v 0.2096649933 0.07800000191 -0.03999999724
v 0.2087100792 0.07800000191 -0.03706107814
v 0.2062100792 0.07800000191 -0.03524471954
v 0.2031199074 0.07800000191 -0.03524471954
v 0.2006199074 0.07800000191 -0.03706107814
v 0.2021150017 0.08399999619 -0.03999999724
v 0.2028618813 0.08399999619 -0.03819687564
v 0.2046649933 0.08399999619 -0.03744999604
v 0.2064681244 0.08399999619 -0.03819687564
v 0.207215004 0.08399999619 -0.03999999724
v 0.2064681244 0.08399999619 -0.04180311874
v 0.2046649933 0.08399999619 -0.04254999834
v 0.2028618813 0.08399999619 -0.04180311874
v 0.2021150017 0.07800000191 -0.03999999724
v 0.2028618813 0.07800000191 -0.04180311874
v 0.2046649933 0.07800000191 -0.04254999834
v 0.2064681244 0.07800000191 -0.04180311874
v 0.207215004 0.07800000191 -0.03999999724
v 0.2064681244 0.07800000191 -0.03819687564
v 0.2046649933 0.07800000191 -0.03744999604
v 0.2028618813 0.07800000191 -0.03819687564
v 0.2021150017 0.08399999619 -0.03999999724
v 0.2021150017 0.07800000191 -0.03999999724
v 0.2021150017 0.08399999619 -0.03999999724
v 0.2028618813 0.08399999619 -0.04180311874
v 0.2046649933 0.08399999619 -0.04254999834
v 0.2064681244 0.08399999619 -0.04180311874
v 0.207215004 0.08399999619 -0.03999999724
v 0.2064681244 0.08399999619 -0.03819687564
v 0.2046649933 0.08399999619 -0.03744999604
v 0.2028618813 0.08399999619 -0.03819687564
v 0.1996649933 0.08399999619 -0.03999999724
v 0.2006199074 0.08399999619 -0.03706107814
v 0.2031199074 0.08399999619 -0.03524471954
v 0.2062100792 0.08399999619 -0.03524471954
v 0.2087100792 0.08399999619 -0.03706107814
v 0.2096649933 0.08399999619 -0.03999999724
v 0.2087100792 0.08399999619 -0.04293892584
v 0.2062100792 0.08399999619 -0.04475528444
v 0.2031199074 0.08399999619 -0.04475528444
v 0.2006199074 0.08399999619 -0.04293892584
v 0.1996649933 0.08399999619 -0.03999999724
v 0.2006199074 0.08399999619 -0.04293892584
v 0.2031199074 0.08399999619 -0.04475528444
v 0.2062100792 0.08399999619 -0.04475528444
v 0.2087100792 0.08399999619 -0.04293892584
v 0.2096649933 0.08399999619 -0.03999999724
v 0.2087100792 0.08399999619 -0.03706107814
v 0.2062100792 0.08399999619 -0.03524471954
v 0.2031199074 0.08399999619 -0.03524471954
v 0.2006199074 0.08399999619 -0.03706107814
v 0.1996649933 0.07800000191 -0.03999999724
v 0.2006199074 0.07800000191 -0.03706107814
v 0.2031199074 0.07800000191 -0.03524471954
v 0.2062100792 0.07800000191 -0.03524471954
v 0.2087100792 0.07800000191 -0.03706107814
v 0.2096649933 0.07800000191 -0.03999999724
v 0.2087100792 0.07800000191 -0.04293892584
v 0.2062100792 0.07800000191 -0.04475528444
v 0.2031199074 0.07800000191 -0.04475528444
v 0.2006199074 0.07800000191 -0.04293892584
v 0.1996649933 0.07800000191 -0.03999999724
v 0.1996649933 0.08399999619 -0.03999999724
v 0.2021150017 0.07800000191 0.04000000276
v 0.2028618813 0.07800000191 0.04180311476
v 0.2046649933 0.07800000191 0.04254999436
v 0.2064681244 0.07800000191 0.04180311476
v 0.207215004 0.07800000191 0.04000000276
v 0.2064681244 0.07800000191 0.03819687166
v 0.2046649933 0.07800000191 0.03744999206
v 0.2028618813 0.07800000191 0.03819687166
v 0.1996649933 0.07800000191 0.04000000276
v 0.2006199074 0.07800000191 0.03706106466
v 0.2031199074 0.07800000191 0.03524471556
v 0.2062100792 0.07800000191 0.03524471556
v 0.2087100792 0.07800000191 0.03706106466
v 0.2096649933 0.07800000191 0.04000000276
v 0.2087100792 0.07800000191 0.04293892186
v 0.2062100792 0.07800000191 0.04475528996
v 0.2031199074 0.07800000191 0.04475528996
v 0.2006199074 0.07800000191 0.04293892186
v 0.2021150017 0.08399999619 0.04000000276
v 0.2028618813 0.08399999619 0.04180311476
v 0.2046649933 0.08399999619 0.04254999436
v 0.2064681244 0.08399999619 0.04180311476
v 0.207215004 0.08399999619 0.04000000276
v 0.2064681244 0.08399999619 0.03819687166
v 0.2046649933 0.08399999619 0.03744999206
v 0.2028618813 0.08399999619 0.03819687166
v 0.2021150017 0.07800000191 0.04000000276
v 0.2028618813 0.07800000191 0.03819687166
v 0.2046649933 0.07800000191 0.03744999206
v 0.2064681244 0.07800000191 0.03819687166
v 0.207215004 0.07800000191 0.04000000276
v 0.2064681244 0.07800000191 0.04180311476
v 0.2046649933 0.07800000191 0.04254999436
v 0.2028618813 0.07800000191 0.04180311476
v 0.2021150017 0.08399999619 0.04000000276
v 0.2021150017 0.07800000191 0.04000000276
v 0.2021150017 0.08399999619 0.04000000276
v 0.2028618813 0.08399999619 0.03819687166
v 0.2046649933 0.08399999619 0.03744999206
v 0.2064681244 0.08399999619 0.03819687166
v 0.207215004 0.08399999619 0.04000000276
v 0.2064681244 0.08399999619 0.04180311476
v 0.2046649933 0.08399999619 0.04254999436
v 0.2028618813 0.08399999619 0.04180311476
v 0.1996649933 0.08399999619 0.04000000276
v 0.2006199074 0.08399999619 0.04293892186
v 0.2031199074 0.08399999619 0.04475528996
v 0.2062100792 0.08399999619 0.04475528996
v 0.2087100792 0.08399999619 0.04293892186
v 0.2096649933 0.08399999619 0.04000000276
v 0.2087100792 0.08399999619 0.03706106466
v 0.2062100792 0.08399999619 0.03524471556
v 0.2031199074 0.08399999619 0.03524471556
v 0.2006199074 0.08399999619 0.03706106466
v 0.1996649933 0.08399999619 0.04000000276
v 0.2006199074 0.08399999619 0.03706106466
v 0.2031199074 0.08399999619 0.03524471556
v 0.2062100792 0.08399999619 0.03524471556
v 0.2087100792 0.08399999619 0.03706106466
v 0.2096649933 0.08399999619 0.04000000276
v 0.2087100792 0.08399999619 0.04293892186
v 0.2062100792 0.08399999619 0.04475528996
v 0.2031199074 0.08399999619 0.04475528996
v 0.2006199074 0.08399999619 0.04293892186
v 0.1996649933 0.07800000191 0.04000000276
v 0.2006199074 0.07800000191 0.04293892186
v 0.2031199074 0.07800000191 0.04475528996
v 0.2062100792 0.07800000191 0.04475528996
v 0.2087100792 0.07800000191 0.04293892186
v 0.2096649933 0.07800000191 0.04000000276
v 0.2087100792 0.07800000191 0.03706106466
v 0.2062100792 0.07800000191 0.03524471556
v 0.2031199074 0.07800000191 0.03524471556
v 0.2006199074 0.07800000191 0.03706106466
v 0.1996649933 0.07800000191 0.04000000276
v 0.1996649933 0.08399999619 0.04000000276
v 0.2434529495 0.08399999619 -0.04085556704
v 0.2428405952 0.08399999619 -0.03904278474
v 0.2436894226 0.08399999619 -0.03732795434
v 0.245502224 0.08399999619 -0.03671560014
v 0.2472170448 0.08399999619 -0.03756442744
v 0.2478293991 0.08399999619 -0.03937721924
v 0.2469805717 0.08399999619 -0.04109204964
v 0.2451677895 0.08399999619 -0.04170440394
v 0.2434529495 0.07550000191 -0.04085556704
v 0.2451677895 0.07550000191 -0.04170440394
v 0.2469805717 0.07550000191 -0.04109204964
v 0.2478293991 0.07550000191 -0.03937721924
v 0.2472170448 0.07550000191 -0.03756442744
v 0.245502224 0.07550000191 -0.03671560014
v 0.2436894226 0.07550000191 -0.03732795434
v 0.2428405952 0.07550000191 -0.03904278474
v 0.2434529495 0.08399999619 -0.04085556704
v 0.2434529495 0.07550000191 -0.04085556704
v 0.2488121223 0.07800000191 -0.03695977884
v 0.2497064781 0.07800000191 -0.04149116234
v 0.2497064781 0.08399999619 -0.04149116234
v 0.2488121223 0.08399999619 -0.03695977884
v 0.2462293434 0.07800000191 -0.04453139024
v 0.241857872 0.07800000191 -0.04304022514
v 0.241857872 0.08399999619 -0.04304022514
v 0.2462293434 0.08399999619 -0.04453139024
v 0.2409635353 0.07800000191 -0.03850884164
v 0.2444406509 0.07800000191 -0.03546861374
v 0.2444406509 0.08399999619 -0.03546861374
v 0.2409635353 0.08399999619 -0.03850884164
v 0.241857872 0.07800000191 -0.04304022514
v 0.2409635353 0.07800000191 -0.03850884164
v 0.2409635353 0.08399999619 -0.03850884164
v 0.241857872 0.08399999619 -0.04304022514
v 0.2497064781 0.07800000191 -0.04149116234
v 0.2462293434 0.07800000191 -0.04453139024
v 0.2462293434 0.08399999619 -0.04453139024
v 0.2497064781 0.08399999619 -0.04149116234
v 0.2444406509 0.07800000191 -0.03546861374
v 0.2488121223 0.07800000191 -0.03695977884
v 0.2488121223 0.08399999619 -0.03695977884
v 0.2444406509 0.08399999619 -0.03546861374
v 0.2426587296 0.07800000191 -0.04233999924
v 0.2417807388 0.07800000191 -0.04007226664
v 0.2425658226 0.07800000191 -0.03777072624
v 0.2446466446 0.07800000191 -0.03651228624
v 0.2470495415 0.07800000191 -0.03688578324
v 0.2486502075 0.07800000191 -0.03871645654
v 0.2486996269 0.07800000191 -0.04114771564
v 0.2471747208 0.07800000191 -0.04304195124
v 0.24478899 0.07800000191 -0.04351281844
v 0.2488121223 0.07800000191 -0.03695977884
v 0.2444406509 0.07800000191 -0.03546861374
v 0.2409635353 0.07800000191 -0.03850884164
v 0.241857872 0.07800000191 -0.04304022514
v 0.2462293434 0.07800000191 -0.04453139024
v 0.2497064781 0.07800000191 -0.04149116234
v 0.2434529495 0.08399999619 -0.04085556704
v 0.2451677895 0.08399999619 -0.04170440394
v 0.2469805717 0.08399999619 -0.04109204964
v 0.2478293991 0.08399999619 -0.03937721924
v 0.2472170448 0.08399999619 -0.03756442744
v 0.245502224 0.08399999619 -0.03671560014
v 0.2436894226 0.08399999619 -0.03732795434
v 0.2428405952 0.08399999619 -0.03904278474
v 0.2444406509 0.08399999619 -0.03546861374
v 0.2488121223 0.08399999619 -0.03695977884
v 0.2497064781 0.08399999619 -0.04149116234
v 0.2462293434 0.08399999619 -0.04453139024
v 0.241857872 0.08399999619 -0.04304022514
v 0.2409635353 0.08399999619 -0.03850884164
v 0.2426587296 0.07800000191 -0.04233999924
v 0.24478899 0.07800000191 -0.04351281844
v 0.2471747208 0.07800000191 -0.04304195124
v 0.2486996269 0.07800000191 -0.04114771564
v 0.2486502075 0.07800000191 -0.03871645654
v 0.2470495415 0.07800000191 -0.03688578324
v 0.2446466446 0.07800000191 -0.03651228624
v 0.2425658226 0.07800000191 -0.03777072624
v 0.2417807388 0.07800000191 -0.04007226664
v 0.2426587296 0.07550000191 -0.04233999924
v 0.2417807388 0.07550000191 -0.04007226664
v 0.2425658226 0.07550000191 -0.03777072624
v 0.2446466446 0.07550000191 -0.03651228624
v 0.2470495415 0.07550000191 -0.03688578324
v 0.2486502075 0.07550000191 -0.03871645654
v 0.2486996269 0.07550000191 -0.04114771564
v 0.2471747208 0.07550000191 -0.04304195124
v 0.24478899 0.07550000191 -0.04351281844
v 0.2426587296 0.07550000191 -0.04233999924
v 0.2426587296 0.07800000191 -0.04233999924
v 0.2434529495 0.07550000191 -0.04085556704
v 0.2428405952 0.07550000191 -0.03904278474
v 0.2436894226 0.07550000191 -0.03732795434
v 0.245502224 0.07550000191 -0.03671560014
v 0.2472170448 0.07550000191 -0.03756442744
v 0.2478293991 0.07550000191 -0.03937721924
v 0.2469805717 0.07550000191 -0.04109204964
v 0.2451677895 0.07550000191 -0.04170440394
v 0.2426587296 0.07550000191 -0.04233999924
v 0.24478899 0.07550000191 -0.04351281844
v 0.2471747208 0.07550000191 -0.04304195124
v 0.2486996269 0.07550000191 -0.04114771564
v 0.2486502075 0.07550000191 -0.03871645654
v 0.2470495415 0.07550000191 -0.03688578324
v 0.2446466446 0.07550000191 -0.03651228624
v 0.2425658226 0.07550000191 -0.03777072624
v 0.2417807388 0.07550000191 -0.04007226664
v 0.2434529495 0.08399999619 0.03914442336
v 0.2428405952 0.08399999619 0.04095720566
v 0.2436894226 0.08399999619 0.04267204566
v 0.245502224 0.08399999619 0.04328439986
v 0.2472170448 0.08399999619 0.04243557256
v 0.2478293991 0.08399999619 0.04062279026
v 0.2469805717 0.08399999619 0.03890795036
v 0.2451677895 0.08399999619 0.03829559606
v 0.2434529495 0.07550000191 0.03914442336
v 0.2451677895 0.07550000191 0.03829559606
v 0.2469805717 0.07550000191 0.03890795036
v 0.2478293991 0.07550000191 0.04062279026
v 0.2472170448 0.07550000191 0.04243557256
v 0.245502224 0.07550000191 0.04328439986
v 0.2436894226 0.07550000191 0.04267204566
v 0.2428405952 0.07550000191 0.04095720566
v 0.2434529495 0.08399999619 0.03914442336
v 0.2434529495 0.07550000191 0.03914442336
v 0.2434529495 0.07550000191 0.03914442336
v 0.2428405952 0.07550000191 0.04095720566
v 0.2436894226 0.07550000191 0.04267204566
v 0.245502224 0.07550000191 0.04328439986
v 0.2472170448 0.07550000191 0.04243557256
v 0.2478293991 0.07550000191 0.04062279026
v 0.2469805717 0.07550000191 0.03890795036
v 0.2451677895 0.07550000191 0.03829559606
v 0.2426587296 0.07550000191 0.03765999116
v 0.24478899 0.07550000191 0.03648718156
v 0.2471747208 0.07550000191 0.03695804876
v 0.2486996269 0.07550000191 0.03885227486
v 0.2486502075 0.07550000191 0.04128353396
v 0.2470495415 0.07550000191 0.04311422626
v 0.2446466446 0.07550000191 0.04348772326
v 0.2425658226 0.07550000191 0.04222927376
v 0.2417807388 0.07550000191 0.03992773336
v 0.2426587296 0.07800000191 0.03765999116
v 0.24478899 0.07800000191 0.03648718156
v 0.2471747208 0.07800000191 0.03695804876
v 0.2486996269 0.07800000191 0.03885227486
v 0.2486502075 0.07800000191 0.04128353396
v 0.2470495415 0.07800000191 0.04311422626
v 0.2446466446 0.07800000191 0.04348772326
v 0.2425658226 0.07800000191 0.04222927376
v 0.2417807388 0.07800000191 0.03992773336
v 0.2426587296 0.07550000191 0.03765999116
v 0.2417807388 0.07550000191 0.03992773336
v 0.2425658226 0.07550000191 0.04222927376
v 0.2446466446 0.07550000191 0.04348772326
v 0.2470495415 0.07550000191 0.04311422626
v 0.2486502075 0.07550000191 0.04128353396
v 0.2486996269 0.07550000191 0.03885227486
v 0.2471747208 0.07550000191 0.03695804876
v 0.24478899 0.07550000191 0.03648718156
v 0.2426587296 0.07550000191 0.03765999116
v 0.2426587296 0.07800000191 0.03765999116
v 0.2444406509 0.07800000191 0.04453138626
v 0.2488121223 0.07800000191 0.04304022116
v 0.2488121223 0.08399999619 0.04304022116
v 0.2444406509 0.08399999619 0.04453138626
v 0.2434529495 0.08399999619 0.03914442336
v 0.2451677895 0.08399999619 0.03829559606
v 0.2469805717 0.08399999619 0.03890795036
v 0.2478293991 0.08399999619 0.04062279026
v 0.2472170448 0.08399999619 0.04243557256
v 0.245502224 0.08399999619 0.04328439986
v 0.2436894226 0.08399999619 0.04267204566
v 0.2428405952 0.08399999619 0.04095720566
v 0.2444406509 0.08399999619 0.04453138626
v 0.2488121223 0.08399999619 0.04304022116
v 0.2497064781 0.08399999619 0.03850883766
v 0.2462293434 0.08399999619 0.03546861926
v 0.241857872 0.08399999619 0.03695978446
v 0.2409635353 0.08399999619 0.04149116796
v 0.2409635353 0.07800000191 0.04149116796
v 0.2444406509 0.07800000191 0.04453138626
v 0.2444406509 0.08399999619 0.04453138626
v 0.2409635353 0.08399999619 0.04149116796
v 0.2426587296 0.07800000191 0.03765999116
v 0.2417807388 0.07800000191 0.03992773336
v 0.2425658226 0.07800000191 0.04222927376
v 0.2446466446 0.07800000191 0.04348772326
v 0.2470495415 0.07800000191 0.04311422626
v 0.2486502075 0.07800000191 0.04128353396
v 0.2486996269 0.07800000191 0.03885227486
v 0.2471747208 0.07800000191 0.03695804876
v 0.24478899 0.07800000191 0.03648718156
v 0.2488121223 0.07800000191 0.04304022116
v 0.2444406509 0.07800000191 0.04453138626
v 0.2409635353 0.07800000191 0.04149116796
v 0.241857872 0.07800000191 0.03695978446
v 0.2462293434 0.07800000191 0.03546861926
v 0.2497064781 0.07800000191 0.03850883766
v 0.241857872 0.07800000191 0.03695978446
v 0.2409635353 0.07800000191 0.04149116796
v 0.2409635353 0.08399999619 0.04149116796
v 0.241857872 0.08399999619 0.03695978446
v 0.2497064781 0.07800000191 0.03850883766
v 0.2462293434 0.07800000191 0.03546861926
v 0.2462293434 0.08399999619 0.03546861926
v 0.2497064781 0.08399999619 0.03850883766
v 0.2462293434 0.07800000191 0.03546861926
v 0.241857872 0.07800000191 0.03695978446
v 0.241857872 0.08399999619 0.03695978446
v 0.2462293434 0.08399999619 0.03546861926
v 0.2488121223 0.07800000191 0.04304022116
v 0.2497064781 0.07800000191 0.03850883766
v 0.2497064781 0.08399999619 0.03850883766
v 0.2488121223 0.08399999619 0.04304022116
v -0.2277499962 0.08050000191 2.755596473e-09
v -0.2269445419 0.08050000191 0.001944544656
v -0.225 0.08050000191 0.002749998956
v -0.2230554581 0.08050000191 0.001944544656
v -0.2222500038 0.08050000191 2.755596473e-09
v -0.2230554581 0.08050000191 -0.001944539144
v -0.225 0.08050000191 -0.002749993444
v -0.2269445419 0.08050000191 -0.001944539144
v -0.2277499962 0.07800000191 2.755596473e-09
v -0.2269445419 0.07800000191 -0.001944539144
v -0.225 0.07800000191 -0.002749993444
v -0.2230554581 0.07800000191 -0.001944539144
v -0.2222500038 0.07800000191 2.755596473e-09
v -0.2230554581 0.07800000191 0.001944544656
v -0.225 0.07800000191 0.002749998956
v -0.2269445419 0.07800000191 0.001944544656
v -0.2277499962 0.08050000191 2.755596473e-09
v -0.2277499962 0.07800000191 2.755596473e-09
v -0.2277499962 0.08050000191 2.755596473e-09
v -0.2269445419 0.08050000191 -0.001944539144
v -0.225 0.08050000191 -0.002749993444
v -0.2230554581 0.08050000191 -0.001944539144
v -0.2222500038 0.08050000191 2.755596473e-09
v -0.2230554581 0.08050000191 0.001944544656
v -0.225 0.08050000191 0.002749998956
v -0.2269445419 0.08050000191 0.001944544656
v -0.235 0.08050000191 -0.009999997244
v -0.235 0.08050000191 0.01000000276
v -0.215 0.08050000191 0.01000000276
v -0.215 0.08050000191 -0.009999997244
v -0.235 0.07800000191 0.01000000276
v -0.215 0.07800000191 0.01000000276
v -0.215 0.08050000191 0.01000000276
v -0.235 0.08050000191 0.01000000276
v -0.2277499962 0.07800000191 2.755596473e-09
v -0.2269445419 0.07800000191 0.001944544656
v -0.225 0.07800000191 0.002749998956
v -0.2230554581 0.07800000191 0.001944544656
v -0.2222500038 0.07800000191 2.755596473e-09
v -0.2230554581 0.07800000191 -0.001944539144
v -0.225 0.07800000191 -0.002749993444
v -0.2269445419 0.07800000191 -0.001944539144
v -0.235 0.07800000191 0.01000000276
v -0.235 0.07800000191 -0.009999997244
v -0.215 0.07800000191 -0.009999997244
v -0.215 0.07800000191 0.01000000276
v -0.235 0.07800000191 -0.009999997244
v -0.235 0.07800000191 0.01000000276
v -0.235 0.08050000191 0.01000000276
v -0.235 0.08050000191 -0.009999997244
v -0.215 0.07800000191 -0.009999997244
v -0.235 0.07800000191 -0.009999997244
v -0.235 0.08050000191 -0.009999997244
v -0.215 0.08050000191 -0.009999997244
v -0.215 0.07800000191 0.01000000276
v -0.215 0.07800000191 -0.009999997244
v -0.215 0.08050000191 -0.009999997244
v -0.215 0.08050000191 0.01000000276
v 0.235 0.07800000191 -0.009999997244
v 0.215 0.07800000191 -0.009999997244
v 0.215 0.08050000191 -0.009999997244
v 0.235 0.08050000191 -0.009999997244
v 0.235 0.07800000191 0.01000000276
v 0.235 0.07800000191 -0.009999997244
v 0.235 0.08050000191 -0.009999997244
v 0.235 0.08050000191 0.01000000276
v 0.215 0.07800000191 0.01000000276
v 0.235 0.07800000191 0.01000000276
v 0.235 0.08050000191 0.01000000276
v 0.215 0.08050000191 0.01000000276
v 0.215 0.07800000191 -0.009999997244
v 0.215 0.07800000191 0.01000000276
v 0.215 0.08050000191 0.01000000276
v 0.215 0.08050000191 -0.009999997244
v 0.2222500038 0.08050000191 2.755596473e-09
v 0.2230554581 0.08050000191 -0.001944539144
v 0.225 0.08050000191 -0.002749993444
v 0.2269445419 0.08050000191 -0.001944539144
v 0.2277499962 0.08050000191 2.755596473e-09
v 0.2269445419 0.08050000191 0.001944544656
v 0.225 0.08050000191 0.002749998956
v 0.2230554581 0.08050000191 0.001944544656
v 0.215 0.08050000191 -0.009999997244
v 0.215 0.08050000191 0.01000000276
v 0.235 0.08050000191 0.01000000276
v 0.235 0.08050000191 -0.009999997244
v 0.2222500038 0.07800000191 2.755596473e-09
v 0.2230554581 0.07800000191 0.001944544656
v 0.225 0.07800000191 0.002749998956
v 0.2269445419 0.07800000191 0.001944544656
v 0.2277499962 0.07800000191 2.755596473e-09
v 0.2269445419 0.07800000191 -0.001944539144
v 0.225 0.07800000191 -0.002749993444
v 0.2230554581 0.07800000191 -0.001944539144
v 0.215 0.07800000191 0.01000000276
v 0.215 0.07800000191 -0.009999997244
v 0.235 0.07800000191 -0.009999997244
v 0.235 0.07800000191 0.01000000276
v 0.2222500038 0.08050000191 2.755596473e-09
v 0.2230554581 0.08050000191 0.001944544656
v 0.225 0.08050000191 0.002749998956
v 0.2269445419 0.08050000191 0.001944544656
v 0.2277499962 0.08050000191 2.755596473e-09
v 0.2269445419 0.08050000191 -0.001944539144
v 0.225 0.08050000191 -0.002749993444
v 0.2230554581 0.08050000191 -0.001944539144
v 0.2222500038 0.07800000191 2.755596473e-09
v 0.2230554581 0.07800000191 -0.001944539144
v 0.225 0.07800000191 -0.002749993444
v 0.2269445419 0.07800000191 -0.001944539144
v 0.2277499962 0.07800000191 2.755596473e-09
v 0.2269445419 0.07800000191 0.001944544656
v 0.225 0.07800000191 0.002749998956
v 0.2230554581 0.07800000191 0.001944544656
v 0.2222500038 0.08050000191 2.755596473e-09
v 0.2222500038 0.07800000191 2.755596473e-09
f 2 3 1
f 1 3 4
f 6 68 5
f 5 68 69
f 5 69 70
f 6 7 68
f 68 7 67
f 67 7 167
f 67 167 168
f 7 8 167
f 167 8 166
f 166 8 165
f 165 8 62
f 165 62 164
f 164 62 163
f 163 62 63
f 163 63 20
f 20 63 19
f 19 63 64
f 19 64 56
f 62 8 61
f 61 8 9
f 61 9 88
f 88 9 87
f 87 9 10
f 87 10 11
f 11 12 87
f 87 12 71
f 87 71 158
f 158 71 157
f 157 71 156
f 156 71 72
f 156 72 155
f 155 72 115
f 155 115 116
f 71 12 70
f 70 12 13
f 70 13 5
f 15 107 14
f 14 107 108
f 14 108 21
f 21 108 109
f 21 109 20
f 20 109 110
f 20 110 162
f 162 110 111
f 162 111 161
f 161 111 168
f 168 111 112
f 168 112 67
f 67 112 113
f 67 113 66
f 66 113 114
f 66 114 65
f 65 114 115
f 65 115 72
f 16 150 15
f 15 150 151
f 15 151 107
f 107 151 106
f 106 151 105
f 105 151 152
f 105 152 104
f 104 152 145
f 104 145 146
f 17 58 16
f 16 58 88
f 16 88 148
f 148 88 92
f 148 92 147
f 147 92 73
f 147 73 139
f 139 73 138
f 138 73 77
f 138 77 32
f 32 77 50
f 32 50 51
f 18 56 17
f 17 56 57
f 17 57 58
f 18 19 56
f 23 48 22
f 22 48 77
f 22 77 78
f 24 176 23
f 23 176 169
f 23 169 55
f 55 169 170
f 55 170 54
f 54 170 171
f 54 171 37
f 37 171 36
f 36 171 172
f 36 172 94
f 94 172 93
f 93 172 173
f 93 173 174
f 25 41 24
f 24 41 175
f 24 175 176
f 26 39 25
f 25 39 40
f 25 40 41
f 26 27 39
f 39 27 47
f 47 27 46
f 46 27 28
f 46 28 78
f 78 28 29
f 78 29 22
f 31 51 30
f 30 51 52
f 30 52 53
f 31 32 51
f 32 33 138
f 138 33 137
f 137 33 144
f 144 33 34
f 144 34 143
f 143 34 97
f 143 97 98
f 97 34 96
f 96 34 35
f 96 35 36
f 54 37 53
f 53 37 38
f 53 38 30
f 41 42 175
f 175 42 174
f 174 42 128
f 174 128 93
f 43 126 42
f 42 126 127
f 42 127 128
f 43 44 126
f 126 44 125
f 125 44 131
f 125 131 124
f 124 131 123
f 123 131 132
f 123 132 122
f 122 132 133
f 122 133 134
f 131 44 130
f 130 44 45
f 130 45 129
f 129 45 136
f 136 45 46
f 136 46 78
f 48 49 77
f 77 49 50
f 55 48 23
f 58 59 88
f 88 59 60
f 88 60 61
f 74 75 73
f 73 75 76
f 73 76 77
f 136 78 82
f 82 78 79
f 82 79 80
f 80 81 82
f 136 82 135
f 135 82 83
f 135 83 159
f 159 83 158
f 158 83 87
f 84 85 83
f 83 85 86
f 83 86 87
f 88 89 92
f 92 89 90
f 92 90 91
f 94 95 36
f 36 95 96
f 98 99 143
f 143 99 142
f 142 99 100
f 142 100 141
f 141 100 140
f 140 100 101
f 140 101 139
f 139 101 102
f 139 102 147
f 147 102 103
f 147 103 146
f 146 103 104
f 116 117 155
f 155 117 154
f 154 117 118
f 154 118 153
f 153 118 160
f 160 118 119
f 160 119 159
f 159 119 120
f 159 120 135
f 135 120 121
f 135 121 134
f 134 121 122
f 148 149 16
f 16 149 150
f 162 163 20
f 186 177 185
f 185 177 178
f 185 178 184
f 184 178 179
f 184 179 183
f 183 179 180
f 183 180 182
f 182 180 181
f 188 189 187
f 187 189 190
f 192 206 191
f 191 206 208
f 207 199 198
f 198 199 200
f 198 200 197
f 197 200 201
f 197 201 196
f 196 201 202
f 196 202 195
f 195 202 203
f 195 203 194
f 194 203 204
f 194 204 193
f 193 204 205
f 193 205 192
f 192 205 206
f 210 224 209
f 209 224 226
f 225 217 216
f 216 217 218
f 216 218 215
f 215 218 219
f 215 219 214
f 214 219 220
f 214 220 213
f 213 220 221
f 213 221 212
f 212 221 222
f 212 222 211
f 211 222 223
f 211 223 210
f 210 223 224
f 228 242 227
f 227 242 244
f 243 235 234
f 234 235 236
f 234 236 233
f 233 236 237
f 233 237 232
f 232 237 238
f 232 238 231
f 231 238 239
f 231 239 230
f 230 239 240
f 230 240 229
f 229 240 241
f 229 241 228
f 228 241 242
f 246 260 245
f 245 260 262
f 261 253 252
f 252 253 254
f 252 254 251
f 251 254 255
f 251 255 250
f 250 255 256
f 250 256 249
f 249 256 257
f 249 257 248
f 248 257 258
f 248 258 247
f 247 258 259
f 247 259 246
f 246 259 260
f 264 278 263
f 263 278 280
f 279 271 270
f 270 271 272
f 270 272 269
f 269 272 273
f 269 273 268
f 268 273 274
f 268 274 267
f 267 274 275
f 267 275 266
f 266 275 276
f 266 276 265
f 265 276 277
f 265 277 264
f 264 277 278
f 282 296 281
f 281 296 298
f 297 289 288
f 288 289 290
f 288 290 287
f 287 290 291
f 287 291 286
f 286 291 292
f 286 292 285
f 285 292 293
f 285 293 284
f 284 293 294
f 284 294 283
f 283 294 295
f 283 295 282
f 282 295 296
f 300 316 299
f 299 316 318
f 317 308 307
f 307 308 309
f 307 309 306
f 306 309 310
f 306 310 305
f 305 310 311
f 305 311 304
f 304 311 312
f 304 312 303
f 303 312 313
f 303 313 302
f 302 313 314
f 302 314 301
f 301 314 315
f 301 315 300
f 300 315 316
f 320 334 319
f 319 334 336
f 335 327 326
f 326 327 328
f 326 328 325
f 325 328 329
f 325 329 324
f 324 329 330
f 324 330 323
f 323 330 331
f 323 331 322
f 322 331 332
f 322 332 321
f 321 332 333
f 321 333 320
f 320 333 334
f 338 352 337
f 337 352 354
f 353 345 344
f 344 345 346
f 344 346 343
f 343 346 347
f 343 347 342
f 342 347 348
f 342 348 341
f 341 348 349
f 341 349 340
f 340 349 350
f 340 350 339
f 339 350 351
f 339 351 338
f 338 351 352
f 356 370 355
f 355 370 372
f 371 363 362
f 362 363 364
f 362 364 361
f 361 364 365
f 361 365 360
f 360 365 366
f 360 366 359
f 359 366 367
f 359 367 358
f 358 367 368
f 358 368 357
f 357 368 369
f 357 369 356
f 356 369 370
f 374 388 373
f 373 388 390
f 389 381 380
f 380 381 382
f 380 382 379
f 379 382 383
f 379 383 378
f 378 383 384
f 378 384 377
f 377 384 385
f 377 385 376
f 376 385 386
f 376 386 375
f 375 386 387
f 375 387 374
f 374 387 388
f 392 408 391
f 391 408 410
f 409 400 399
f 399 400 401
f 399 401 398
f 398 401 402
f 398 402 397
f 397 402 403
f 397 403 396
f 396 403 404
f 396 404 395
f 395 404 405
f 395 405 394
f 394 405 406
f 394 406 393
f 393 406 407
f 393 407 392
f 392 407 408
f 412 428 411
f 411 428 430
f 429 420 419
f 419 420 421
f 419 421 418
f 418 421 422
f 418 422 417
f 417 422 423
f 417 423 416
f 416 423 424
f 416 424 415
f 415 424 425
f 415 425 414
f 414 425 426
f 414 426 413
f 413 426 427
f 413 427 412
f 412 427 428
f 432 448 431
f 431 448 450
f 449 440 439
f 439 440 441
f 439 441 438
f 438 441 442
f 438 442 437
f 437 442 443
f 437 443 436
f 436 443 444
f 436 444 435
f 435 444 445
f 435 445 434
f 434 445 446
f 434 446 433
f 433 446 447
f 433 447 432
f 432 447 448
f 452 453 451
f 451 453 454
f 464 455 463
f 463 455 456
f 463 456 462
f 462 456 457
f 462 457 461
f 461 457 458
f 461 458 460
f 460 458 459
f 466 467 465
f 465 467 468
f 470 532 469
f 469 532 533
f 469 533 534
f 470 471 532
f 532 471 531
f 531 471 547
f 531 547 620
f 620 547 551
f 620 551 619
f 619 551 552
f 619 552 595
f 595 552 594
f 594 552 556
f 594 556 505
f 505 556 488
f 505 488 489
f 471 472 547
f 547 472 473
f 547 473 474
f 475 523 474
f 474 523 524
f 474 524 547
f 547 524 546
f 546 524 525
f 546 525 526
f 476 627 475
f 475 627 628
f 475 628 629
f 477 534 476
f 476 534 535
f 476 535 627
f 627 535 626
f 626 535 574
f 626 574 575
f 477 469 534
f 479 578 478
f 478 578 579
f 478 579 485
f 485 579 611
f 485 611 612
f 578 479 577
f 577 479 480
f 577 480 576
f 576 480 632
f 576 632 575
f 575 632 625
f 575 625 626
f 481 522 480
f 480 522 631
f 480 631 632
f 482 520 481
f 481 520 521
f 481 521 522
f 482 483 520
f 520 483 528
f 528 483 527
f 527 483 484
f 527 484 546
f 546 484 614
f 546 614 542
f 542 614 615
f 542 615 541
f 541 615 607
f 541 607 608
f 485 612 484
f 484 612 613
f 484 613 614
f 487 556 486
f 486 556 537
f 486 537 512
f 512 537 519
f 519 537 518
f 518 537 501
f 518 501 517
f 517 501 502
f 517 502 494
f 487 488 556
f 490 503 489
f 489 503 504
f 489 504 505
f 490 491 503
f 503 491 511
f 511 491 510
f 510 491 492
f 510 492 635
f 635 492 634
f 634 492 493
f 634 493 633
f 633 493 513
f 633 513 640
f 640 513 514
f 640 514 639
f 639 514 496
f 639 496 497
f 513 493 512
f 512 493 486
f 495 515 494
f 494 515 516
f 494 516 517
f 495 496 515
f 515 496 514
f 498 590 497
f 497 590 591
f 497 591 592
f 498 499 590
f 590 499 589
f 589 499 603
f 589 603 588
f 588 603 587
f 587 603 604
f 587 604 586
f 586 604 605
f 586 605 606
f 603 499 602
f 602 499 500
f 602 500 601
f 601 500 608
f 608 500 501
f 608 501 537
f 505 506 594
f 594 506 593
f 593 506 600
f 600 506 507
f 600 507 599
f 599 507 561
f 599 561 562
f 561 507 560
f 560 507 508
f 560 508 509
f 510 635 509
f 509 635 636
f 509 636 558
f 558 636 557
f 557 636 637
f 557 637 638
f 522 523 631
f 631 523 630
f 630 523 629
f 629 523 475
f 526 527 546
f 530 571 529
f 529 571 572
f 529 572 536
f 536 572 573
f 536 573 535
f 535 573 574
f 531 622 530
f 530 622 623
f 530 623 571
f 571 623 570
f 570 623 569
f 569 623 624
f 569 624 568
f 568 624 617
f 568 617 618
f 608 537 541
f 541 537 538
f 541 538 539
f 539 540 541
f 543 544 542
f 542 544 545
f 542 545 546
f 547 548 551
f 551 548 549
f 551 549 550
f 553 554 552
f 552 554 555
f 552 555 556
f 558 559 509
f 509 559 560
f 562 563 599
f 599 563 598
f 598 563 564
f 598 564 597
f 597 564 596
f 596 564 565
f 596 565 595
f 595 565 566
f 595 566 619
f 619 566 567
f 619 567 618
f 618 567 568
f 579 580 611
f 611 580 581
f 611 581 610
f 610 581 582
f 610 582 609
f 609 582 616
f 616 582 583
f 616 583 615
f 615 583 584
f 615 584 607
f 607 584 585
f 607 585 606
f 606 585 586
f 497 592 638
f 638 592 557
f 620 621 531
f 531 621 622
f 638 639 497
f 650 641 649
f 649 641 642
f 649 642 648
f 648 642 643
f 648 643 647
f 647 643 644
f 647 644 646
f 646 644 645
f 660 651 659
f 659 651 652
f 659 652 658
f 658 652 653
f 658 653 657
f 657 653 654
f 657 654 656
f 656 654 655
f 662 732 661
f 661 732 734
f 733 697 696
f 696 697 698
f 696 698 695
f 695 698 699
f 695 699 694
f 694 699 700
f 694 700 693
f 693 700 701
f 693 701 692
f 692 701 702
f 692 702 691
f 691 702 703
f 691 703 690
f 690 703 704
f 690 704 689
f 689 704 705
f 689 705 688
f 688 705 706
f 688 706 687
f 687 706 707
f 687 707 686
f 686 707 708
f 686 708 685
f 685 708 709
f 685 709 684
f 684 709 710
f 684 710 683
f 683 710 711
f 683 711 682
f 682 711 712
f 682 712 681
f 681 712 713
f 681 713 680
f 680 713 714
f 680 714 679
f 679 714 715
f 679 715 678
f 678 715 716
f 678 716 677
f 677 716 717
f 677 717 676
f 676 717 718
f 676 718 675
f 675 718 719
f 675 719 674
f 674 719 720
f 674 720 673
f 673 720 721
f 673 721 672
f 672 721 722
f 672 722 671
f 671 722 723
f 671 723 670
f 670 723 724
f 670 724 669
f 669 724 725
f 669 725 668
f 668 725 726
f 668 726 667
f 667 726 727
f 667 727 666
f 666 727 728
f 666 728 665
f 665 728 729
f 665 729 664
f 664 729 730
f 664 730 663
f 663 730 731
f 663 731 662
f 662 731 732
f 736 750 735
f 735 750 752
f 751 743 742
f 742 743 744
f 742 744 745
f 736 737 750
f 750 737 749
f 749 737 738
f 749 738 748
f 748 738 739
f 748 739 747
f 747 739 740
f 747 740 746
f 746 740 741
f 746 741 745
f 745 741 742
f 754 772 753
f 753 772 773
f 774 763 762
f 762 763 764
f 762 764 761
f 761 764 765
f 761 765 760
f 760 765 766
f 760 766 759
f 759 766 767
f 759 767 758
f 758 767 768
f 758 768 757
f 757 768 769
f 757 769 756
f 756 769 770
f 756 770 755
f 755 770 771
f 755 771 754
f 754 771 772
f 776 792 775
f 775 792 783
f 775 783 784
f 792 776 791
f 791 776 777
f 791 777 790
f 790 777 778
f 790 778 789
f 789 778 779
f 789 779 788
f 788 779 787
f 787 779 780
f 787 780 786
f 786 780 781
f 786 781 785
f 785 781 782
f 785 782 784
f 784 782 775
f 794 810 793
f 793 810 801
f 793 801 802
f 810 794 809
f 809 794 795
f 809 795 808
f 808 795 796
f 808 796 807
f 807 796 797
f 807 797 806
f 806 797 805
f 805 797 798
f 805 798 804
f 804 798 799
f 804 799 803
f 803 799 800
f 803 800 802
f 802 800 793
f 812 828 811
f 811 828 819
f 811 819 820
f 828 812 827
f 827 812 813
f 827 813 826
f 826 813 814
f 826 814 825
f 825 814 815
f 825 815 824
f 824 815 823
f 823 815 816
f 823 816 822
f 822 816 817
f 822 817 821
f 821 817 818
f 821 818 820
f 820 818 811
f 830 848 829
f 829 848 849
f 850 839 838
f 838 839 840
f 838 840 837
f 837 840 841
f 837 841 836
f 836 841 842
f 836 842 835
f 835 842 843
f 835 843 834
f 834 843 844
f 834 844 833
f 833 844 845
f 833 845 832
f 832 845 846
f 832 846 831
f 831 846 847
f 831 847 830
f 830 847 848
f 852 866 851
f 851 866 868
f 867 859 858
f 858 859 860
f 858 860 861
f 852 853 866
f 866 853 865
f 865 853 854
f 865 854 864
f 864 854 855
f 864 855 863
f 863 855 856
f 863 856 862
f 862 856 857
f 862 857 861
f 861 857 858
f 870 886 869
f 869 886 877
f 869 877 878
f 886 870 885
f 885 870 871
f 885 871 884
f 884 871 872
f 884 872 883
f 883 872 873
f 883 873 882
f 882 873 881
f 881 873 874
f 881 874 880
f 880 874 875
f 880 875 879
f 879 875 876
f 879 876 878
f 878 876 869
f 894 887 899
f 899 887 888
f 899 888 898
f 898 888 889
f 898 889 897
f 897 889 890
f 897 890 896
f 896 890 891
f 896 891 892
f 896 892 895
f 895 892 893
f 895 893 900
f 900 893 894
f 900 894 899
f 909 901 913
f 913 901 902
f 913 902 912
f 912 902 903
f 912 903 911
f 911 903 904
f 911 904 905
f 911 905 910
f 910 905 906
f 910 906 915
f 915 906 907
f 915 907 908
f 915 908 914
f 914 908 909
f 914 909 913
f 917 933 916
f 916 933 934
f 935 925 924
f 924 925 926
f 924 926 923
f 923 926 927
f 923 927 922
f 922 927 928
f 922 928 921
f 921 928 929
f 921 929 920
f 920 929 930
f 920 930 919
f 919 930 931
f 919 931 918
f 918 931 932
f 918 932 917
f 917 932 933
f 937 952 936
f 936 952 944
f 936 944 943
f 943 944 945
f 943 945 946
f 952 937 951
f 951 937 938
f 951 938 950
f 950 938 939
f 950 939 949
f 949 939 940
f 949 940 948
f 948 940 941
f 948 941 947
f 947 941 942
f 947 942 946
f 946 942 943
f 954 968 953
f 953 968 970
f 969 961 960
f 960 961 962
f 960 962 963
f 954 955 968
f 968 955 967
f 967 955 956
f 967 956 966
f 966 956 957
f 966 957 965
f 965 957 958
f 965 958 964
f 964 958 959
f 964 959 963
f 963 959 960
f 971 972 974
f 974 972 973
f 975 976 978
f 978 976 977
f 979 980 982
f 982 980 981
f 983 984 986
f 986 984 985
f 987 988 990
f 990 988 989
f 991 992 994
f 994 992 993
f 996 1012 995
f 995 1012 1013
f 1014 1004 1003
f 1003 1004 1005
f 1003 1005 1002
f 1002 1005 1006
f 1002 1006 1001
f 1001 1006 1007
f 1001 1007 1000
f 1000 1007 1008
f 1000 1008 999
f 999 1008 1009
f 999 1009 998
f 998 1009 1010
f 998 1010 997
f 997 1010 1011
f 997 1011 996
f 996 1011 1012
f 1016 1031 1015
f 1015 1031 1023
f 1015 1023 1022
f 1022 1023 1024
f 1022 1024 1025
f 1031 1016 1030
f 1030 1016 1017
f 1030 1017 1029
f 1029 1017 1018
f 1029 1018 1028
f 1028 1018 1019
f 1028 1019 1027
f 1027 1019 1020
f 1027 1020 1026
f 1026 1020 1021
f 1026 1021 1025
f 1025 1021 1022
f 1033 1047 1032
f 1032 1047 1049
f 1048 1040 1039
f 1039 1040 1041
f 1039 1041 1042
f 1033 1034 1047
f 1047 1034 1046
f 1046 1034 1035
f 1046 1035 1045
f 1045 1035 1036
f 1045 1036 1044
f 1044 1036 1037
f 1044 1037 1043
f 1043 1037 1038
f 1043 1038 1042
f 1042 1038 1039
f 1050 1051 1053
f 1053 1051 1052
f 1054 1055 1057
f 1057 1055 1056
f 1058 1059 1061
f 1061 1059 1060
f 1069 1062 1074
f 1074 1062 1063
f 1074 1063 1073
f 1073 1063 1064
f 1073 1064 1072
f 1072 1064 1065
f 1072 1065 1071
f 1071 1065 1066
f 1071 1066 1067
f 1071 1067 1070
f 1070 1067 1068
f 1070 1068 1075
f 1075 1068 1069
f 1075 1069 1074
f 1076 1077 1079
f 1079 1077 1078
f 1088 1080 1092
f 1092 1080 1081
f 1092 1081 1091
f 1091 1081 1082
f 1091 1082 1090
f 1090 1082 1083
f 1090 1083 1084
f 1090 1084 1089
f 1089 1084 1085
f 1089 1085 1094
f 1094 1085 1086
f 1094 1086 1087
f 1094 1087 1093
f 1093 1087 1088
f 1093 1088 1092
f 1095 1096 1098
f 1098 1096 1097
f 1099 1100 1102
f 1102 1100 1101
f 1104 1120 1103
f 1103 1120 1111
f 1103 1111 1112
f 1120 1104 1119
f 1119 1104 1105
f 1119 1105 1118
f 1118 1105 1106
f 1118 1106 1117
f 1117 1106 1107
f 1117 1107 1116
f 1116 1107 1115
f 1115 1107 1108
f 1115 1108 1114
f 1114 1108 1109
f 1114 1109 1113
f 1113 1109 1110
f 1113 1110 1112
f 1112 1110 1103
f 1122 1136 1121
f 1121 1136 1138
f 1137 1129 1128
f 1128 1129 1130
f 1128 1130 1131
f 1122 1123 1136
f 1136 1123 1135
f 1135 1123 1124
f 1135 1124 1134
f 1134 1124 1125
f 1134 1125 1133
f 1133 1125 1126
f 1133 1126 1132
f 1132 1126 1127
f 1132 1127 1131
f 1131 1127 1128
f 1140 1156 1139
f 1139 1156 1147
f 1139 1147 1148
f 1156 1140 1155
f 1155 1140 1141
f 1155 1141 1154
f 1154 1141 1142
f 1154 1142 1153
f 1153 1142 1143
f 1153 1143 1152
f 1152 1143 1151
f 1151 1143 1144
f 1151 1144 1150
f 1150 1144 1145
f 1150 1145 1149
f 1149 1145 1146
f 1149 1146 1148
f 1148 1146 1139
f 1158 1176 1157
f 1157 1176 1177
f 1178 1167 1166
f 1166 1167 1168
f 1166 1168 1165
f 1165 1168 1169
f 1165 1169 1164
f 1164 1169 1170
f 1164 1170 1163
f 1163 1170 1171
f 1163 1171 1162
f 1162 1171 1172
f 1162 1172 1161
f 1161 1172 1173
f 1161 1173 1160
f 1160 1173 1174
f 1160 1174 1159
f 1159 1174 1175
f 1159 1175 1158
f 1158 1175 1176
f 1180 1196 1179
f 1179 1196 1187
f 1179 1187 1188
f 1196 1180 1195
f 1195 1180 1181
f 1195 1181 1194
f 1194 1181 1182
f 1194 1182 1193
f 1193 1182 1183
f 1193 1183 1192
f 1192 1183 1191
f 1191 1183 1184
f 1191 1184 1190
f 1190 1184 1185
f 1190 1185 1189
f 1189 1185 1186
f 1189 1186 1188
f 1188 1186 1179
f 1198 1212 1197
f 1197 1212 1214
f 1213 1205 1204
f 1204 1205 1206
f 1204 1206 1207
f 1198 1199 1212
f 1212 1199 1211
f 1211 1199 1200
f 1211 1200 1210
f 1210 1200 1201
f 1210 1201 1209
f 1209 1201 1202
f 1209 1202 1208
f 1208 1202 1203
f 1208 1203 1207
f 1207 1203 1204
f 1216 1232 1215
f 1215 1232 1223
f 1215 1223 1224
f 1232 1216 1231
f 1231 1216 1217
f 1231 1217 1230
f 1230 1217 1218
f 1230 1218 1229
f 1229 1218 1219
f 1229 1219 1228
f 1228 1219 1227
f 1227 1219 1220
f 1227 1220 1226
f 1226 1220 1221
f 1226 1221 1225
f 1225 1221 1222
f 1225 1222 1224
f 1224 1222 1215
f 1234 1252 1233
f 1233 1252 1253
f 1254 1243 1242
f 1242 1243 1244
f 1242 1244 1241
f 1241 1244 1245
f 1241 1245 1240
f 1240 1245 1246
f 1240 1246 1239
f 1239 1246 1247
f 1239 1247 1238
f 1238 1247 1248
f 1238 1248 1237
f 1237 1248 1249
f 1237 1249 1236
f 1236 1249 1250
f 1236 1250 1235
f 1235 1250 1251
f 1235 1251 1234
f 1234 1251 1252
f 1256 1270 1255
f 1255 1270 1272
f 1271 1263 1262
f 1262 1263 1264
f 1262 1264 1265
f 1256 1257 1270
f 1270 1257 1269
f 1269 1257 1258
f 1269 1258 1268
f 1268 1258 1259
f 1268 1259 1267
f 1267 1259 1260
f 1267 1260 1266
f 1266 1260 1261
f 1266 1261 1265
f 1265 1261 1262
f 1273 1274 1276
f 1276 1274 1275
f 1277 1278 1280
f 1280 1278 1279
f 1281 1282 1284
f 1284 1282 1283
f 1285 1286 1288
f 1288 1286 1287
f 1289 1290 1292
f 1292 1290 1291
f 1293 1294 1296
f 1296 1294 1295
f 1305 1297 1309
f 1309 1297 1298
f 1309 1298 1308
f 1308 1298 1299
f 1308 1299 1307
f 1307 1299 1300
f 1307 1300 1301
f 1307 1301 1306
f 1306 1301 1302
f 1306 1302 1311
f 1311 1302 1303
f 1311 1303 1304
f 1311 1304 1310
f 1310 1304 1305
f 1310 1305 1309
f 1319 1312 1324
f 1324 1312 1313
f 1324 1313 1323
f 1323 1313 1314
f 1323 1314 1322
f 1322 1314 1315
f 1322 1315 1321
f 1321 1315 1316
f 1321 1316 1317
f 1321 1317 1320
f 1320 1317 1318
f 1320 1318 1325
f 1325 1318 1319
f 1325 1319 1324
f 1327 1343 1326
f 1326 1343 1344
f 1345 1335 1334
f 1334 1335 1336
f 1334 1336 1333
f 1333 1336 1337
f 1333 1337 1332
f 1332 1337 1338
f 1332 1338 1331
f 1331 1338 1339
f 1331 1339 1330
f 1330 1339 1340
f 1330 1340 1329
f 1329 1340 1341
f 1329 1341 1328
f 1328 1341 1342
f 1328 1342 1327
f 1327 1342 1343
f 1347 1362 1346
f 1346 1362 1354
f 1346 1354 1353
f 1353 1354 1355
f 1353 1355 1356
f 1362 1347 1361
f 1361 1347 1348
f 1361 1348 1360
f 1360 1348 1349
f 1360 1349 1359
f 1359 1349 1350
f 1359 1350 1358
f 1358 1350 1351
f 1358 1351 1357
f 1357 1351 1352
f 1357 1352 1356
f 1356 1352 1353
f 1364 1378 1363
f 1363 1378 1380
f 1379 1371 1370
f 1370 1371 1372
f 1370 1372 1373
f 1364 1365 1378
f 1378 1365 1377
f 1377 1365 1366
f 1377 1366 1376
f 1376 1366 1367
f 1376 1367 1375
f 1375 1367 1368
f 1375 1368 1374
f 1374 1368 1369
f 1374 1369 1373
f 1373 1369 1370
f 1382 1397 1381
f 1381 1397 1389
f 1381 1389 1388
f 1388 1389 1390
f 1388 1390 1391
f 1397 1382 1396
f 1396 1382 1383
f 1396 1383 1395
f 1395 1383 1384
f 1395 1384 1394
f 1394 1384 1385
f 1394 1385 1393
f 1393 1385 1386
f 1393 1386 1392
f 1392 1386 1387
f 1392 1387 1391
f 1391 1387 1388
f 1399 1415 1398
f 1398 1415 1416
f 1417 1407 1406
f 1406 1407 1408
f 1406 1408 1405
f 1405 1408 1409
f 1405 1409 1404
f 1404 1409 1410
f 1404 1410 1403
f 1403 1410 1411
f 1403 1411 1402
f 1402 1411 1412
f 1402 1412 1401
f 1401 1412 1413
f 1401 1413 1400
f 1400 1413 1414
f 1400 1414 1399
f 1399 1414 1415
f 1418 1419 1421
f 1421 1419 1420
f 1429 1422 1434
f 1434 1422 1423
f 1434 1423 1433
f 1433 1423 1424
f 1433 1424 1432
f 1432 1424 1425
f 1432 1425 1431
f 1431 1425 1426
f 1431 1426 1427
f 1431 1427 1430
f 1430 1427 1428
f 1430 1428 1435
f 1435 1428 1429
f 1435 1429 1434
f 1436 1437 1439
f 1439 1437 1438
f 1448 1440 1452
f 1452 1440 1441
f 1452 1441 1451
f 1451 1441 1442
f 1451 1442 1450
f 1450 1442 1443
f 1450 1443 1444
f 1450 1444 1449
f 1449 1444 1445
f 1449 1445 1454
f 1454 1445 1446
f 1454 1446 1447
f 1454 1447 1453
f 1453 1447 1448
f 1453 1448 1452
f 1455 1456 1458
f 1458 1456 1457
f 1459 1460 1462
f 1462 1460 1461
f 1463 1464 1466
f 1466 1464 1465
f 1467 1468 1470
f 1470 1468 1469
f 1472 1486 1471
f 1471 1486 1488
f 1487 1479 1478
f 1478 1479 1480
f 1478 1480 1477
f 1477 1480 1481
f 1477 1481 1476
f 1476 1481 1482
f 1476 1482 1475
f 1475 1482 1483
f 1475 1483 1474
f 1474 1483 1484
f 1474 1484 1473
f 1473 1484 1485
f 1473 1485 1472
f 1472 1485 1486
f 1490 1497 1489
f 1489 1497 1498
f 1489 1498 1496
f 1496 1498 1495
f 1495 1498 1499
f 1495 1499 1494
f 1494 1499 1493
f 1493 1499 1500
f 1493 1500 1492
f 1492 1500 1491
f 1491 1500 1497
f 1491 1497 1490
f 1501 1502 1504
f 1504 1502 1503
f 1506 1513 1505
f 1505 1513 1514
f 1505 1514 1512
f 1512 1514 1511
f 1511 1514 1515
f 1511 1515 1510
f 1510 1515 1509
f 1509 1515 1516
f 1509 1516 1508
f 1508 1516 1507
f 1507 1516 1513
f 1507 1513 1506
f 1517 1518 1520
f 1520 1518 1519
f 1521 1522 1524
f 1524 1522 1523
f 1525 1526 1528
f 1528 1526 1527
f 1529 1530 1532
f 1532 1530 1531
f 1533 1534 1536
f 1536 1534 1535
f 1537 1538 1540
f 1540 1538 1539
f 1541 1542 1544
f 1544 1542 1543
f 1546 1553 1545
f 1545 1553 1554
f 1545 1554 1552
f 1552 1554 1551
f 1551 1554 1555
f 1551 1555 1550
f 1550 1555 1549
f 1549 1555 1556
f 1549 1556 1548
f 1548 1556 1547
f 1547 1556 1553
f 1547 1553 1546
f 1558 1565 1557
f 1557 1565 1566
f 1557 1566 1564
f 1564 1566 1563
f 1563 1566 1567
f 1563 1567 1562
f 1562 1567 1561
f 1561 1567 1568
f 1561 1568 1560
f 1560 1568 1559
f 1559 1568 1565
f 1559 1565 1558
f 1570 1584 1569
f 1569 1584 1586
f 1585 1577 1576
f 1576 1577 1578
f 1576 1578 1575
f 1575 1578 1579
f 1575 1579 1574
f 1574 1579 1580
f 1574 1580 1573
f 1573 1580 1581
f 1573 1581 1572
f 1572 1581 1582
f 1572 1582 1571
f 1571 1582 1583
f 1571 1583 1570
f 1570 1583 1584
