v -0.2670000076 -0.225 0.01799999952
v -0.2700614738 -0.2243910408 0.01799999952
v -0.2726568604 -0.2226568604 0.01799999952
v -0.2743910408 -0.2200614738 0.01799999952
v -0.275 -0.2170000076 0.01799999952
v -0.275 -0.2170000076 0
v -0.2743910408 -0.2200614738 0
v -0.2726568604 -0.2226568604 0
v -0.2700614738 -0.2243910408 0
v -0.2670000076 -0.225 0
v 0.275 -0.2170000076 0.01799999952
v 0.275 -0.2170000076 0
v 0.275 0.2170000076 0
v 0.275 0.2170000076 0.01799999952
v 0.275 -0.2170000076 0.01799999952
v 0.2743910408 -0.2200614738 0.01799999952
v 0.2726568604 -0.2226568604 0.01799999952
v 0.2700614738 -0.2243910408 0.01799999952
v 0.2670000076 -0.225 0.01799999952
v 0.2670000076 -0.225 0
v 0.2700614738 -0.2243910408 0
v 0.2726568604 -0.2226568604 0
v 0.2743910408 -0.2200614738 0
v 0.275 -0.2170000076 0
v -0.2282500076 0.17 0.008000000119
v -0.2274896431 0.1679109383 0.008000000119
v -0.2255643654 0.1667993736 0.008000000119
v -0.2233749962 0.167185421 0.008000000119
v -0.2219459915 0.1688884354 0.008000000119
v -0.2219459915 0.1711115646 0.008000000119
v -0.2233749962 0.172814579 0.008000000119
v -0.2255643654 0.1732006264 0.008000000119
v -0.2274896431 0.1720890617 0.008000000119
v -0.2329999924 0.17 0.008000000119
v -0.2320836449 0.1737177849 0.008000000119
v -0.2295445251 0.1765838623 0.008000000119
v -0.2259642982 0.1779416656 0.008000000119
v -0.2221631622 0.1774801254 0.008000000119
v -0.2190119171 0.175304985 0.008000000119
v -0.2172324562 0.1719145203 0.008000000119
v -0.2172324562 0.1680854797 0.008000000119
v -0.2190119171 0.164695015 0.008000000119
v -0.2221631622 0.1625198746 0.008000000119
v -0.2259642982 0.1620583344 0.008000000119
v -0.2295445251 0.1634161377 0.008000000119
v -0.2320836449 0.1662822151 0.008000000119
v -0.2329999924 0.17 0.008000000119
v -0.2320836449 0.1662822151 0.008000000119
v -0.2295445251 0.1634161377 0.008000000119
v -0.2259642982 0.1620583344 0.008000000119
v -0.2221631622 0.1625198746 0.008000000119
v -0.2190119171 0.164695015 0.008000000119
v -0.2172324562 0.1680854797 0.008000000119
v -0.2172324562 0.1719145203 0.008000000119
v -0.2190119171 0.175304985 0.008000000119
v -0.2221631622 0.1774801254 0.008000000119
v -0.2259642982 0.1779416656 0.008000000119
v -0.2295445251 0.1765838623 0.008000000119
v -0.2320836449 0.1737177849 0.008000000119
v -0.2329999924 0.17 0
v -0.2320836449 0.1737177849 0
v -0.2295445251 0.1765838623 0
v -0.2259642982 0.1779416656 0
v -0.2221631622 0.1774801254 0
v -0.2190119171 0.175304985 0
v -0.2172324562 0.1719145203 0
v -0.2172324562 0.1680854797 0
v -0.2190119171 0.164695015 0
v -0.2221631622 0.1625198746 0
v -0.2259642982 0.1620583344 0
v -0.2295445251 0.1634161377 0
v -0.2320836449 0.1662822151 0
v -0.2329999924 0.17 0.008000000119
v -0.2329999924 0.17 0
v 0.2217499924 0.17 0.008000000119
v 0.2225103569 0.1679109383 0.008000000119
v 0.2244356346 0.1667993736 0.008000000119
v 0.2266250038 0.167185421 0.008000000119
v 0.2280540085 0.1688884354 0.008000000119
v 0.2280540085 0.1711115646 0.008000000119
v 0.2266250038 0.172814579 0.008000000119
v 0.2244356346 0.1732006264 0.008000000119
v 0.2225103569 0.1720890617 0.008000000119
v 0.2170000076 0.17 0.008000000119
v 0.2179163551 0.1737177849 0.008000000119
v 0.2204554749 0.1765838623 0.008000000119
v 0.2240357018 0.1779416656 0.008000000119
v 0.2278368378 0.1774801254 0.008000000119
v 0.2309880829 0.175304985 0.008000000119
v 0.2327675438 0.1719145203 0.008000000119
v 0.2327675438 0.1680854797 0.008000000119
v 0.2309880829 0.164695015 0.008000000119
v 0.2278368378 0.1625198746 0.008000000119
v 0.2240357018 0.1620583344 0.008000000119
v 0.2204554749 0.1634161377 0.008000000119
v 0.2179163551 0.1662822151 0.008000000119
v -0.2282500076 -0.17 0.008000000119
v -0.2274896431 -0.1720890617 0.008000000119
v -0.2255643654 -0.1732006264 0.008000000119
v -0.2233749962 -0.172814579 0.008000000119
v -0.2219459915 -0.1711115646 0.008000000119
v -0.2219459915 -0.1688884354 0.008000000119
v -0.2233749962 -0.167185421 0.008000000119
v -0.2255643654 -0.1667993736 0.008000000119
v -0.2274896431 -0.1679109383 0.008000000119
v -0.2329999924 -0.17 0.008000000119
v -0.2320836449 -0.1662822151 0.008000000119
v -0.2295445251 -0.1634161377 0.008000000119
v -0.2259642982 -0.1620583344 0.008000000119
v -0.2221631622 -0.1625198746 0.008000000119
v -0.2190119171 -0.164695015 0.008000000119
v -0.2172324562 -0.1680854797 0.008000000119
v -0.2172324562 -0.1719145203 0.008000000119
v -0.2190119171 -0.175304985 0.008000000119
v -0.2221631622 -0.1774801254 0.008000000119
v -0.2259642982 -0.1779416656 0.008000000119
v -0.2295445251 -0.1765838623 0.008000000119
v -0.2320836449 -0.1737177849 0.008000000119
v -0.2282500076 -0.17 0.008000000119
v -0.2274896431 -0.1679109383 0.008000000119
v -0.2255643654 -0.1667993736 0.008000000119
v -0.2233749962 -0.167185421 0.008000000119
v -0.2219459915 -0.1688884354 0.008000000119
v -0.2219459915 -0.1711115646 0.008000000119
v -0.2233749962 -0.172814579 0.008000000119
v -0.2255643654 -0.1732006264 0.008000000119
v -0.2274896431 -0.1720890617 0.008000000119
v -0.2282500076 -0.17 0.01799999952
v -0.2274896431 -0.1720890617 0.01799999952
v -0.2255643654 -0.1732006264 0.01799999952
v -0.2233749962 -0.172814579 0.01799999952
v -0.2219459915 -0.1711115646 0.01799999952
v -0.2219459915 -0.1688884354 0.01799999952
v -0.2233749962 -0.167185421 0.01799999952
v -0.2255643654 -0.1667993736 0.01799999952
v -0.2274896431 -0.1679109383 0.01799999952
v -0.2282500076 -0.17 0.01799999952
v -0.2282500076 -0.17 0.008000000119
v 0.2170000076 -0.17 0.008000000119
v 0.2179163551 -0.1737177849 0.008000000119
v 0.2204554749 -0.1765838623 0.008000000119
v 0.2240357018 -0.1779416656 0.008000000119
v 0.2278368378 -0.1774801254 0.008000000119
v 0.2309880829 -0.175304985 0.008000000119
v 0.2327675438 -0.1719145203 0.008000000119
v 0.2327675438 -0.1680854797 0.008000000119
v 0.2309880829 -0.164695015 0.008000000119
v 0.2278368378 -0.1625198746 0.008000000119
v 0.2240357018 -0.1620583344 0.008000000119
v 0.2204554749 -0.1634161377 0.008000000119
v 0.2179163551 -0.1662822151 0.008000000119
v 0.2170000076 -0.17 0
v 0.2179163551 -0.1662822151 0
v 0.2204554749 -0.1634161377 0
v 0.2240357018 -0.1620583344 0
v 0.2278368378 -0.1625198746 0
v 0.2309880829 -0.164695015 0
v 0.2327675438 -0.1680854797 0
v 0.2327675438 -0.1719145203 0
v 0.2309880829 -0.175304985 0
v 0.2278368378 -0.1774801254 0
v 0.2240357018 -0.1779416656 0
v 0.2204554749 -0.1765838623 0
v 0.2179163551 -0.1737177849 0
v 0.2170000076 -0.17 0.008000000119
v 0.2170000076 -0.17 0
v 0.2217499924 0.17 0.008000000119
v 0.2225103569 0.1720890617 0.008000000119
v 0.2244356346 0.1732006264 0.008000000119
v 0.2266250038 0.172814579 0.008000000119
v 0.2280540085 0.1711115646 0.008000000119
v 0.2280540085 0.1688884354 0.008000000119
v 0.2266250038 0.167185421 0.008000000119
v 0.2244356346 0.1667993736 0.008000000119
v 0.2225103569 0.1679109383 0.008000000119
v 0.2217499924 0.17 0.01799999952
v 0.2225103569 0.1679109383 0.01799999952
v 0.2244356346 0.1667993736 0.01799999952
v 0.2266250038 0.167185421 0.01799999952
v 0.2280540085 0.1688884354 0.01799999952
v 0.2280540085 0.1711115646 0.01799999952
v 0.2266250038 0.172814579 0.01799999952
v 0.2244356346 0.1732006264 0.01799999952
v 0.2225103569 0.1720890617 0.01799999952
v 0.2217499924 0.17 0.01799999952
v 0.2217499924 0.17 0.008000000119
v -0.2282500076 0.17 0.008000000119
v -0.2274896431 0.1720890617 0.008000000119
v -0.2255643654 0.1732006264 0.008000000119
v -0.2233749962 0.172814579 0.008000000119
v -0.2219459915 0.1711115646 0.008000000119
v -0.2219459915 0.1688884354 0.008000000119
v -0.2233749962 0.167185421 0.008000000119
v -0.2255643654 0.1667993736 0.008000000119
v -0.2274896431 0.1679109383 0.008000000119
v -0.2282500076 0.17 0.01799999952
v -0.2274896431 0.1679109383 0.01799999952
v -0.2255643654 0.1667993736 0.01799999952
v -0.2233749962 0.167185421 0.01799999952
v -0.2219459915 0.1688884354 0.01799999952
v -0.2219459915 0.1711115646 0.01799999952
v -0.2233749962 0.172814579 0.01799999952
v -0.2255643654 0.1732006264 0.01799999952
v -0.2274896431 0.1720890617 0.01799999952
v -0.2282500076 0.17 0.01799999952
v -0.2282500076 0.17 0.008000000119
v 0.2170000076 0.17 0.008000000119
v 0.2179163551 0.1662822151 0.008000000119
v 0.2204554749 0.1634161377 0.008000000119
v 0.2240357018 0.1620583344 0.008000000119
v 0.2278368378 0.1625198746 0.008000000119
v 0.2309880829 0.164695015 0.008000000119
v 0.2327675438 0.1680854797 0.008000000119
v 0.2327675438 0.1719145203 0.008000000119
v 0.2309880829 0.175304985 0.008000000119
v 0.2278368378 0.1774801254 0.008000000119
v 0.2240357018 0.1779416656 0.008000000119
v 0.2204554749 0.1765838623 0.008000000119
v 0.2179163551 0.1737177849 0.008000000119
v 0.2170000076 0.17 0
v 0.2179163551 0.1737177849 0
v 0.2204554749 0.1765838623 0
v 0.2240357018 0.1779416656 0
v 0.2278368378 0.1774801254 0
v 0.2309880829 0.175304985 0
v 0.2327675438 0.1719145203 0
v 0.2327675438 0.1680854797 0
v 0.2309880829 0.164695015 0
v 0.2278368378 0.1625198746 0
v 0.2240357018 0.1620583344 0
v 0.2204554749 0.1634161377 0
v 0.2179163551 0.1662822151 0
v 0.2170000076 0.17 0.008000000119
v 0.2170000076 0.17 0
v -0.2329999924 -0.17 0.008000000119
v -0.2320836449 -0.1737177849 0.008000000119
v -0.2295445251 -0.1765838623 0.008000000119
v -0.2259642982 -0.1779416656 0.008000000119
v -0.2221631622 -0.1774801254 0.008000000119
v -0.2190119171 -0.175304985 0.008000000119
v -0.2172324562 -0.1719145203 0.008000000119
v -0.2172324562 -0.1680854797 0.008000000119
v -0.2190119171 -0.164695015 0.008000000119
v -0.2221631622 -0.1625198746 0.008000000119
v -0.2259642982 -0.1620583344 0.008000000119
v -0.2295445251 -0.1634161377 0.008000000119
v -0.2320836449 -0.1662822151 0.008000000119
v -0.2329999924 -0.17 0
v -0.2320836449 -0.1662822151 0
v -0.2295445251 -0.1634161377 0
v -0.2259642982 -0.1620583344 0
v -0.2221631622 -0.1625198746 0
v -0.2190119171 -0.164695015 0
v -0.2172324562 -0.1680854797 0
v -0.2172324562 -0.1719145203 0
v -0.2190119171 -0.175304985 0
v -0.2221631622 -0.1774801254 0
v -0.2259642982 -0.1779416656 0
v -0.2295445251 -0.1765838623 0
v -0.2320836449 -0.1737177849 0
v -0.2329999924 -0.17 0.008000000119
v -0.2329999924 -0.17 0
v 0.2217499924 -0.17 0.008000000119
v 0.2225103569 -0.1679109383 0.008000000119
v 0.2244356346 -0.1667993736 0.008000000119
v 0.2266250038 -0.167185421 0.008000000119
v 0.2280540085 -0.1688884354 0.008000000119
v 0.2280540085 -0.1711115646 0.008000000119
v 0.2266250038 -0.172814579 0.008000000119
v 0.2244356346 -0.1732006264 0.008000000119
v 0.2225103569 -0.1720890617 0.008000000119
v 0.2217499924 -0.17 0.01799999952
v 0.2225103569 -0.1720890617 0.01799999952
v 0.2244356346 -0.1732006264 0.01799999952
v 0.2266250038 -0.172814579 0.01799999952
v 0.2280540085 -0.1711115646 0.01799999952
v 0.2280540085 -0.1688884354 0.01799999952
v 0.2266250038 -0.167185421 0.01799999952
v 0.2244356346 -0.1667993736 0.01799999952
v 0.2225103569 -0.1679109383 0.01799999952
v 0.2217499924 -0.17 0.01799999952
v 0.2217499924 -0.17 0.008000000119
v 0.2217499924 -0.17 0.008000000119
v 0.2225103569 -0.1720890617 0.008000000119
v 0.2244356346 -0.1732006264 0.008000000119
v 0.2266250038 -0.172814579 0.008000000119
v 0.2280540085 -0.1711115646 0.008000000119
v 0.2280540085 -0.1688884354 0.008000000119
v 0.2266250038 -0.167185421 0.008000000119
v 0.2244356346 -0.1667993736 0.008000000119
v 0.2225103569 -0.1679109383 0.008000000119
v 0.2170000076 -0.17 0.008000000119
v 0.2179163551 -0.1662822151 0.008000000119
v 0.2204554749 -0.1634161377 0.008000000119
v 0.2240357018 -0.1620583344 0.008000000119
v 0.2278368378 -0.1625198746 0.008000000119
v 0.2309880829 -0.164695015 0.008000000119
v 0.2327675438 -0.1680854797 0.008000000119
v 0.2327675438 -0.1719145203 0.008000000119
v 0.2309880829 -0.175304985 0.008000000119
v 0.2278368378 -0.1774801254 0.008000000119
v 0.2240357018 -0.1779416656 0.008000000119
v 0.2204554749 -0.1765838623 0.008000000119
v 0.2179163551 -0.1737177849 0.008000000119
v -0.2670000076 -0.225 0
v -0.2700614738 -0.2243910408 0
v -0.2726568604 -0.2226568604 0
v -0.2743910408 -0.2200614738 0
v -0.275 -0.2170000076 0
v -0.275 0.2170000076 0
v -0.2743910408 0.2200614738 0
v -0.2726568604 0.2226568604 0
v -0.2700614738 0.2243910408 0
v -0.2670000076 0.225 0
v 0.2670000076 0.225 0
v 0.2700614738 0.2243910408 0
v 0.2726568604 0.2226568604 0
v 0.2743910408 0.2200614738 0
v 0.275 0.2170000076 0
v 0.275 -0.2170000076 0
v 0.2743910408 -0.2200614738 0
v 0.2726568604 -0.2226568604 0
v 0.2700614738 -0.2243910408 0
v 0.2670000076 -0.225 0
v -0.2329999924 0.17 0
v -0.2320836449 0.1662822151 0
v -0.2295445251 0.1634161377 0
v -0.2259642982 0.1620583344 0
v -0.2221631622 0.1625198746 0
v -0.2190119171 0.164695015 0
v -0.2172324562 0.1680854797 0
v -0.2172324562 0.1719145203 0
v -0.2190119171 0.175304985 0
v -0.2221631622 0.1774801254 0
v -0.2259642982 0.1779416656 0
v -0.2295445251 0.1765838623 0
v -0.2320836449 0.1737177849 0
v -0.2329999924 -0.17 0
v -0.2320836449 -0.1737177849 0
v -0.2295445251 -0.1765838623 0
v -0.2259642982 -0.1779416656 0
v -0.2221631622 -0.1774801254 0
v -0.2190119171 -0.175304985 0
v -0.2172324562 -0.1719145203 0
v -0.2172324562 -0.1680854797 0
v -0.2190119171 -0.164695015 0
v -0.2221631622 -0.1625198746 0
v -0.2259642982 -0.1620583344 0
v -0.2295445251 -0.1634161377 0
v -0.2320836449 -0.1662822151 0
v 0.2170000076 -0.17 0
v 0.2179163551 -0.1737177849 0
v 0.2204554749 -0.1765838623 0
v 0.2240357018 -0.1779416656 0
v 0.2278368378 -0.1774801254 0
v 0.2309880829 -0.175304985 0
v 0.2327675438 -0.1719145203 0
v 0.2327675438 -0.1680854797 0
v 0.2309880829 -0.164695015 0
v 0.2278368378 -0.1625198746 0
v 0.2240357018 -0.1620583344 0
v 0.2204554749 -0.1634161377 0
v 0.2179163551 -0.1662822151 0
v 0.2170000076 0.17 0
v 0.2179163551 0.1662822151 0
v 0.2204554749 0.1634161377 0
v 0.2240357018 0.1620583344 0
v 0.2278368378 0.1625198746 0
v 0.2309880829 0.164695015 0
v 0.2327675438 0.1680854797 0
v 0.2327675438 0.1719145203 0
v 0.2309880829 0.175304985 0
v 0.2278368378 0.1774801254 0
v 0.2240357018 0.1779416656 0
v 0.2204554749 0.1765838623 0
v 0.2179163551 0.1737177849 0
v 0.2670000076 0.225 0.01799999952
v 0.2670000076 0.225 0
v -0.2670000076 0.225 0
v -0.2670000076 0.225 0.01799999952
v -0.275 0.2170000076 0.01799999952
v -0.2743910408 0.2200614738 0.01799999952
v -0.2726568604 0.2226568604 0.01799999952
v -0.2700614738 0.2243910408 0.01799999952
v -0.2670000076 0.225 0.01799999952
v -0.2670000076 0.225 0
v -0.2700614738 0.2243910408 0
v -0.2726568604 0.2226568604 0
v -0.2743910408 0.2200614738 0
v -0.275 0.2170000076 0
v -0.2670000076 -0.225 0.01799999952
v -0.2670000076 -0.225 0
v 0.2670000076 -0.225 0
v 0.2670000076 -0.225 0.01799999952
v 0.2217499924 0.17 0.01799999952
v 0.2225103569 0.1720890617 0.01799999952
v 0.2244356346 0.1732006264 0.01799999952
v 0.2266250038 0.172814579 0.01799999952
v 0.2280540085 0.1711115646 0.01799999952
v 0.2280540085 0.1688884354 0.01799999952
v 0.2266250038 0.167185421 0.01799999952
v 0.2244356346 0.1667993736 0.01799999952
v 0.2225103569 0.1679109383 0.01799999952
v 0.2217499924 -0.17 0.01799999952
v 0.2225103569 -0.1679109383 0.01799999952
v 0.2244356346 -0.1667993736 0.01799999952
v 0.2266250038 -0.167185421 0.01799999952
v 0.2280540085 -0.1688884354 0.01799999952
v 0.2280540085 -0.1711115646 0.01799999952
v 0.2266250038 -0.172814579 0.01799999952
v 0.2244356346 -0.1732006264 0.01799999952
v 0.2225103569 -0.1720890617 0.01799999952
v -0.2282500076 -0.17 0.01799999952
v -0.2274896431 -0.1679109383 0.01799999952
v -0.2255643654 -0.1667993736 0.01799999952
v -0.2233749962 -0.167185421 0.01799999952
v -0.2219459915 -0.1688884354 0.01799999952
v -0.2219459915 -0.1711115646 0.01799999952
v -0.2233749962 -0.172814579 0.01799999952
v -0.2255643654 -0.1732006264 0.01799999952
v -0.2274896431 -0.1720890617 0.01799999952
v -0.2282500076 0.17 0.01799999952
v -0.2274896431 0.1720890617 0.01799999952
v -0.2255643654 0.1732006264 0.01799999952
v -0.2233749962 0.172814579 0.01799999952
v -0.2219459915 0.1711115646 0.01799999952
v -0.2219459915 0.1688884354 0.01799999952
v -0.2233749962 0.167185421 0.01799999952
v -0.2255643654 0.1667993736 0.01799999952
v -0.2274896431 0.1679109383 0.01799999952
v -0.275 -0.2170000076 0.01799999952
v -0.2743910408 -0.2200614738 0.01799999952
v -0.2726568604 -0.2226568604 0.01799999952
v -0.2700614738 -0.2243910408 0.01799999952
v -0.2670000076 -0.225 0.01799999952
v 0.2670000076 -0.225 0.01799999952
v 0.2700614738 -0.2243910408 0.01799999952
v 0.2726568604 -0.2226568604 0.01799999952
v 0.2743910408 -0.2200614738 0.01799999952
v 0.275 -0.2170000076 0.01799999952
v 0.275 0.2170000076 0.01799999952
v 0.2743910408 0.2200614738 0.01799999952
v 0.2726568604 0.2226568604 0.01799999952
v 0.2700614738 0.2243910408 0.01799999952
v 0.2670000076 0.225 0.01799999952
v -0.2670000076 0.225 0.01799999952
v -0.2700614738 0.2243910408 0.01799999952
v -0.2726568604 0.2226568604 0.01799999952
v -0.2743910408 0.2200614738 0.01799999952
v -0.275 0.2170000076 0.01799999952
v -0.275 -0.2170000076 0
v -0.275 -0.2170000076 0.01799999952
v -0.275 0.2170000076 0.01799999952
v -0.275 0.2170000076 0
v 0.2670000076 0.225 0.01799999952
v 0.2700614738 0.2243910408 0.01799999952
v 0.2726568604 0.2226568604 0.01799999952
v 0.2743910408 0.2200614738 0.01799999952
v 0.275 0.2170000076 0.01799999952
v 0.275 0.2170000076 0
v 0.2743910408 0.2200614738 0
v 0.2726568604 0.2226568604 0
v 0.2700614738 0.2243910408 0
v 0.2670000076 0.225 0
f 10 1 9
f 9 1 2
f 9 2 8
f 8 2 3
f 8 3 7
f 7 3 4
f 7 4 6
f 6 4 5
f 12 13 11
f 11 13 14
f 24 15 23
f 23 15 16
f 23 16 22
f 22 16 17
f 22 17 21
f 21 17 18
f 21 18 20
f 20 18 19
f 26 46 25
f 25 46 34
f 25 34 35
f 46 26 45
f 45 26 27
f 45 27 44
f 44 27 43
f 43 27 28
f 43 28 42
f 42 28 29
f 42 29 41
f 41 29 30
f 41 30 40
f 40 30 39
f 39 30 31
f 39 31 38
f 38 31 32
f 38 32 37
f 37 32 36
f 36 32 33
f 36 33 35
f 35 33 25
f 48 72 47
f 47 72 74
f 73 60 59
f 59 60 61
f 59 61 58
f 58 61 62
f 58 62 57
f 57 62 63
f 57 63 56
f 56 63 64
f 56 64 55
f 55 64 65
f 55 65 54
f 54 65 66
f 54 66 53
f 53 66 67
f 53 67 52
f 52 67 68
f 52 68 51
f 51 68 69
f 51 69 50
f 50 69 70
f 50 70 49
f 49 70 71
f 49 71 48
f 48 71 72
f 76 96 75
f 75 96 84
f 75 84 85
f 96 76 95
f 95 76 77
f 95 77 94
f 94 77 93
f 93 77 78
f 93 78 92
f 92 78 79
f 92 79 91
f 91 79 80
f 91 80 90
f 90 80 89
f 89 80 81
f 89 81 88
f 88 81 82
f 88 82 87
f 87 82 86
f 86 82 83
f 86 83 85
f 85 83 75
f 98 118 97
f 97 118 106
f 97 106 107
f 118 98 117
f 117 98 99
f 117 99 116
f 116 99 115
f 115 99 100
f 115 100 114
f 114 100 101
f 114 101 113
f 113 101 102
f 113 102 112
f 112 102 111
f 111 102 103
f 111 103 110
f 110 103 104
f 110 104 109
f 109 104 108
f 108 104 105
f 108 105 107
f 107 105 97
f 120 136 119
f 119 136 137
f 138 128 127
f 127 128 129
f 127 129 130
f 120 121 136
f 136 121 135
f 135 121 122
f 135 122 134
f 134 122 123
f 134 123 133
f 133 123 124
f 133 124 132
f 132 124 125
f 132 125 131
f 131 125 126
f 131 126 130
f 130 126 127
f 140 164 139
f 139 164 166
f 165 152 151
f 151 152 153
f 151 153 150
f 150 153 154
f 150 154 149
f 149 154 155
f 149 155 148
f 148 155 156
f 148 156 147
f 147 156 157
f 147 157 146
f 146 157 158
f 146 158 145
f 145 158 159
f 145 159 144
f 144 159 160
f 144 160 143
f 143 160 161
f 143 161 142
f 142 161 162
f 142 162 141
f 141 162 163
f 141 163 140
f 140 163 164
f 168 184 167
f 167 184 185
f 186 176 175
f 175 176 177
f 175 177 178
f 168 169 184
f 184 169 183
f 183 169 170
f 183 170 182
f 182 170 171
f 182 171 181
f 181 171 172
f 181 172 180
f 180 172 173
f 180 173 179
f 179 173 174
f 179 174 178
f 178 174 175
f 188 204 187
f 187 204 205
f 206 196 195
f 195 196 197
f 195 197 198
f 188 189 204
f 204 189 203
f 203 189 190
f 203 190 202
f 202 190 191
f 202 191 201
f 201 191 192
f 201 192 200
f 200 192 193
f 200 193 199
f 199 193 194
f 199 194 198
f 198 194 195
f 208 232 207
f 207 232 234
f 233 220 219
f 219 220 221
f 219 221 218
f 218 221 222
f 218 222 217
f 217 222 223
f 217 223 216
f 216 223 224
f 216 224 215
f 215 224 225
f 215 225 214
f 214 225 226
f 214 226 213
f 213 226 227
f 213 227 212
f 212 227 228
f 212 228 211
f 211 228 229
f 211 229 210
f 210 229 230
f 210 230 209
f 209 230 231
f 209 231 208
f 208 231 232
f 236 260 235
f 235 260 262
f 261 248 247
f 247 248 249
f 247 249 246
f 246 249 250
f 246 250 245
f 245 250 251
f 245 251 244
f 244 251 252
f 244 252 243
f 243 252 253
f 243 253 242
f 242 253 254
f 242 254 241
f 241 254 255
f 241 255 240
f 240 255 256
f 240 256 239
f 239 256 257
f 239 257 238
f 238 257 258
f 238 258 237
f 237 258 259
f 237 259 236
f 236 259 260
f 264 280 263
f 263 280 281
f 282 272 271
f 271 272 273
f 271 273 274
f 264 265 280
f 280 265 279
f 279 265 266
f 279 266 278
f 278 266 267
f 278 267 277
f 277 267 268
f 277 268 276
f 276 268 269
f 276 269 275
f 275 269 270
f 275 270 274
f 274 270 271
f 284 304 283
f 283 304 292
f 283 292 293
f 304 284 303
f 303 284 285
f 303 285 302
f 302 285 301
f 301 285 286
f 301 286 300
f 300 286 287
f 300 287 299
f 299 287 288
f 299 288 298
f 298 288 297
f 297 288 289
f 297 289 296
f 296 289 290
f 296 290 295
f 295 290 294
f 294 290 291
f 294 291 293
f 293 291 283
f 306 307 305
f 305 307 308
f 305 308 309
f 310 326 309
f 309 326 350
f 309 350 338
f 311 314 310
f 310 314 336
f 310 336 337
f 311 312 314
f 314 312 313
f 315 375 314
f 314 375 333
f 314 333 334
f 316 317 315
f 315 317 318
f 315 318 319
f 320 369 319
f 319 369 370
f 319 370 371
f 321 324 320
f 320 324 355
f 320 355 356
f 321 322 324
f 324 322 323
f 305 353 324
f 324 353 354
f 324 354 355
f 337 325 310
f 310 325 326
f 326 327 350
f 350 327 349
f 349 327 328
f 349 328 348
f 348 328 347
f 347 328 329
f 347 329 346
f 346 329 330
f 346 330 366
f 366 330 365
f 365 330 331
f 365 331 364
f 364 331 332
f 364 332 376
f 376 332 333
f 376 333 375
f 334 335 314
f 314 335 336
f 338 339 309
f 309 339 340
f 309 340 305
f 305 340 341
f 305 341 342
f 342 343 305
f 305 343 353
f 353 343 352
f 352 343 344
f 352 344 351
f 351 344 345
f 351 345 363
f 363 345 346
f 363 346 362
f 362 346 366
f 362 366 367
f 356 357 320
f 320 357 358
f 320 358 359
f 360 368 359
f 359 368 369
f 359 369 320
f 368 360 367
f 367 360 361
f 367 361 362
f 371 372 319
f 319 372 373
f 319 373 315
f 315 373 374
f 315 374 375
f 378 379 377
f 377 379 380
f 390 381 389
f 389 381 382
f 389 382 388
f 388 382 383
f 388 383 387
f 387 383 384
f 387 384 386
f 386 384 385
f 392 393 391
f 391 393 394
f 396 426 395
f 395 426 427
f 395 427 403
f 403 427 428
f 403 428 405
f 405 428 416
f 405 416 417
f 397 445 396
f 396 445 425
f 396 425 426
f 397 398 445
f 445 398 441
f 445 441 442
f 398 399 441
f 441 399 400
f 441 400 440
f 440 400 408
f 440 408 409
f 408 400 407
f 407 400 401
f 407 401 402
f 403 405 402
f 402 405 406
f 402 406 407
f 405 417 404
f 404 417 418
f 404 418 412
f 412 418 419
f 412 419 436
f 436 419 435
f 435 419 420
f 435 420 431
f 431 420 421
f 431 421 413
f 409 410 440
f 440 410 436
f 440 436 439
f 439 436 438
f 438 436 437
f 410 411 436
f 436 411 412
f 413 414 431
f 431 414 430
f 431 430 450
f 450 430 422
f 450 422 423
f 430 414 429
f 429 414 415
f 429 415 416
f 423 424 450
f 450 424 446
f 450 446 449
f 449 446 448
f 448 446 447
f 424 425 446
f 446 425 445
f 428 429 416
f 431 432 435
f 435 432 433
f 435 433 434
f 442 443 445
f 445 443 444
f 452 453 451
f 451 453 454
f 464 455 463
f 463 455 456
f 463 456 462
f 462 456 457
f 462 457 461
f 461 457 458
f 461 458 460
f 460 458 459
