v -0.02298137108 -0.02188443422 0.02128358896
v -0.02141770628 -0.02188443422 0.02053057046
v -0.02103151051 -0.02188443422 0.01883854316
v -0.02211359708 -0.02188443422 0.01748165346
v -0.02384913175 -0.02188443422 0.01748165036
v -0.02493122307 -0.02188443422 0.01883853626
v -0.02454503325 -0.02188443422 0.02053056506
v -0.02298136055 -0.02388443232 0.01528358516
v -0.02041021094 -0.02388443232 0.01621941126
v -0.01904213472 -0.02388443232 0.01858900816
v -0.01951726953 -0.02388443232 0.02128359506
v -0.0216132926 -0.02388443232 0.02304235756
v -0.02434945336 -0.02388443232 0.02304235276
v -0.02644547145 -0.02388443232 0.02128358296
v -0.0269205968 -0.02388443232 0.01858899436
v -0.02555251107 -0.02388443232 0.01621940216
v -0.0216132926 -0.02388443232 0.02304235756
v -0.02298137108 -0.02188443422 0.02128358896
v -0.02298137021 -0.0136844337 0.02078359666
v -0.02168233096 -0.0136844337 0.02003359126
v -0.02168232832 -0.0136844337 0.01853359506
v -0.02298136494 -0.0136844337 0.01778358516
v -0.02428040419 -0.0136844337 0.01853359056
v -0.02428040682 -0.0136844337 0.02003358676
v -0.02298137021 -0.01788443327 0.02078359666
v -0.02428040682 -0.01788443327 0.02003358676
v -0.02428040419 -0.01788443327 0.01853359056
v -0.02298136494 -0.01788443327 0.01778358516
v -0.02168232832 -0.01788443327 0.01853359506
v -0.02168233096 -0.01788443327 0.02003359126
v -0.02298137021 -0.0136844337 0.02078359666
v -0.02298137021 -0.01788443327 0.02078359666
v -0.01573136734 -0.02338443279 0.01928359406
v -0.0167026898 -0.02338443279 0.02290860386
v -0.01935637788 -0.02338443279 0.02556227426
v -0.0229813803 -0.02338443279 0.02653358516
v -0.02660637812 -0.02338443279 0.02556226156
v -0.02926005808 -0.02338443279 0.02290858176
v -0.03023136662 -0.02338443279 0.01928356866
v -0.02926004535 -0.02338443279 0.01565857796
v -0.02660635608 -0.02338443279 0.01300488846
v -0.02298135485 -0.02338443279 0.01203359666
v -0.01935635584 -0.02338443279 0.01300490126
v -0.01670267707 -0.02338443279 0.01565860006
v -0.01623136686 -0.02388443232 0.01928359326
v -0.01713568976 -0.02388443232 0.01590859546
v -0.01960635636 -0.02388443232 0.01343792616
v -0.02298135573 -0.02388443232 0.01253358896
v -0.02635635589 -0.02388443232 0.01343791426
v -0.02882703235 -0.02388443232 0.01590857496
v -0.0297313671 -0.02388443232 0.01928356956
v -0.0288270442 -0.02388443232 0.02265858636
v -0.0263563764 -0.02388443232 0.02512925566
v -0.02298137942 -0.02388443232 0.02603359286
v -0.01960637688 -0.02388443232 0.02512926756
v -0.01713570161 -0.02388443232 0.02265860686
v -0.0229813803 -0.02338443279 0.02653358516
v -0.02298137942 -0.02388443232 0.02603359286
v -0.01573136734 -0.02188443422 0.01928359406
v -0.0167026898 -0.02188443422 0.02290860386
v -0.01935637788 -0.02188443422 0.02556227426
v -0.0229813803 -0.02188443422 0.02653358516
v -0.02660637812 -0.02188443422 0.02556226156
v -0.02926005808 -0.02188443422 0.02290858176
v -0.03023136662 -0.02188443422 0.01928356866
v -0.02926004535 -0.02188443422 0.01565857796
v -0.02660635608 -0.02188443422 0.01300488846
v -0.02298135485 -0.02188443422 0.01203359666
v -0.01935635584 -0.02188443422 0.01300490126
v -0.01670267707 -0.02188443422 0.01565860006
v -0.01573136734 -0.02338443279 0.01928359406
v -0.01670267707 -0.02338443279 0.01565860006
v -0.01935635584 -0.02338443279 0.01300490126
v -0.02298135485 -0.02338443279 0.01203359666
v -0.02660635608 -0.02338443279 0.01300488846
v -0.02926004535 -0.02338443279 0.01565857796
v -0.03023136662 -0.02338443279 0.01928356866
v -0.02926005808 -0.02338443279 0.02290858176
v -0.02660637812 -0.02338443279 0.02556226156
v -0.0229813803 -0.02338443279 0.02653358516
v -0.01935637788 -0.02338443279 0.02556227426
v -0.0167026898 -0.02338443279 0.02290860386
v -0.01573136734 -0.02338443279 0.01928359406
v -0.01573136734 -0.02188443422 0.01928359406
v -0.02298136055 -0.02388443232 0.01528358516
v -0.02555251107 -0.02388443232 0.01621940216
v -0.0269205968 -0.02388443232 0.01858899436
v -0.02644547145 -0.02388443232 0.02128358296
v -0.02434945336 -0.02388443232 0.02304235276
v -0.0216132926 -0.02388443232 0.02304235756
v -0.01951726953 -0.02388443232 0.02128359506
v -0.01904213472 -0.02388443232 0.01858900816
v -0.02041021094 -0.02388443232 0.01621941126
v -0.01623136686 -0.02388443232 0.01928359326
v -0.01713570161 -0.02388443232 0.02265860686
v -0.01960637688 -0.02388443232 0.02512926756
v -0.02298137942 -0.02388443232 0.02603359286
v -0.0263563764 -0.02388443232 0.02512925566
v -0.0288270442 -0.02388443232 0.02265858636
v -0.0297313671 -0.02388443232 0.01928356956
v -0.02882703235 -0.02388443232 0.01590857496
v -0.02635635589 -0.02388443232 0.01343791426
v -0.02298135573 -0.02388443232 0.01253358896
v -0.01960635636 -0.02388443232 0.01343792616
v -0.01713568976 -0.02388443232 0.01590859546
v -0.02043136643 -0.01418443322 0.01928358586
v -0.02117824284 -0.01418443322 0.01748047246
v -0.0229813631 -0.01418443322 0.01673358976
v -0.02478448598 -0.01418443322 0.01748046616
v -0.02553136633 -0.01418443322 0.01928357686
v -0.02478449231 -0.01418443322 0.02108670936
v -0.02298137205 -0.01418443322 0.02183359206
v -0.02117824917 -0.01418443322 0.02108671566
v -0.02093136595 -0.0136844337 0.01928358496
v -0.02170321554 -0.0136844337 0.02088634776
v -0.02343753973 -0.0136844337 0.02128219586
v -0.02482835495 -0.0136844337 0.02017305106
v -0.02482835183 -0.0136844337 0.01839412426
v -0.02343753272 -0.0136844337 0.01728498436
v -0.02170320991 -0.0136844337 0.01768083856
v -0.0229813631 -0.01418443322 0.01673358976
v -0.02343753272 -0.0136844337 0.01728498436
v -0.02298137108 -0.02188443422 0.02128358896
v -0.02454503325 -0.02188443422 0.02053056506
v -0.02493122307 -0.02188443422 0.01883853626
v -0.02384913175 -0.02188443422 0.01748165036
v -0.02211359708 -0.02188443422 0.01748165346
v -0.02103151051 -0.02188443422 0.01883854316
v -0.02141770628 -0.02188443422 0.02053057046
v -0.02043136643 -0.02188443422 0.01928358586
v -0.02117824284 -0.02188443422 0.01748047246
v -0.0229813631 -0.02188443422 0.01673358976
v -0.02478448598 -0.02188443422 0.01748046616
v -0.02553136633 -0.02188443422 0.01928357686
v -0.02478449231 -0.02188443422 0.02108670936
v -0.02298137205 -0.02188443422 0.02183359206
v -0.02117824917 -0.02188443422 0.02108671566
v -0.02043136643 -0.01788443327 0.01928358586
v -0.02117824284 -0.01788443327 0.01748047246
v -0.0229813631 -0.01788443327 0.01673358976
v -0.02478448598 -0.01788443327 0.01748046616
v -0.02553136633 -0.01788443327 0.01928357686
v -0.02478449231 -0.01788443327 0.02108670936
v -0.02298137205 -0.01788443327 0.02183359206
v -0.02117824917 -0.01788443327 0.02108671566
v -0.02043136643 -0.01418443322 0.01928358586
v -0.02117824917 -0.01418443322 0.02108671566
v -0.02298137205 -0.01418443322 0.02183359206
v -0.02478449231 -0.01418443322 0.02108670936
v -0.02553136633 -0.01418443322 0.01928357686
v -0.02478448598 -0.01418443322 0.01748046616
v -0.0229813631 -0.01418443322 0.01673358976
v -0.02117824284 -0.01418443322 0.01748047246
v -0.02043136643 -0.01788443327 0.01928358586
v -0.02043136643 -0.01418443322 0.01928358586
v -0.02298137021 -0.0136844337 0.02078359666
v -0.02428040682 -0.0136844337 0.02003358676
v -0.02428040419 -0.0136844337 0.01853359056
v -0.02298136494 -0.0136844337 0.01778358516
v -0.02168232832 -0.0136844337 0.01853359506
v -0.02168233096 -0.0136844337 0.02003359126
v -0.02093136595 -0.0136844337 0.01928358496
v -0.02170320991 -0.0136844337 0.01768083856
v -0.02343753272 -0.0136844337 0.01728498436
v -0.02482835183 -0.0136844337 0.01839412426
v -0.02482835495 -0.0136844337 0.02017305106
v -0.02343753973 -0.0136844337 0.02128219586
v -0.02170321554 -0.0136844337 0.02088634776
v -0.02298137021 -0.01788443327 0.02078359666
v -0.02168233096 -0.01788443327 0.02003359126
v -0.02168232832 -0.01788443327 0.01853359506
v -0.02298136494 -0.01788443327 0.01778358516
v -0.02428040419 -0.01788443327 0.01853359056
v -0.02428040682 -0.01788443327 0.02003358676
v -0.02043136643 -0.01788443327 0.01928358586
v -0.02117824917 -0.01788443327 0.02108671566
v -0.02298137205 -0.01788443327 0.02183359206
v -0.02478449231 -0.01788443327 0.02108670936
v -0.02553136633 -0.01788443327 0.01928357686
v -0.02478448598 -0.01788443327 0.01748046616
v -0.0229813631 -0.01788443327 0.01673358976
v -0.02117824284 -0.01788443327 0.01748047246
v -0.01803136753 -0.02138443232 0.01928359006
v -0.01897673806 -0.02138443232 0.02219313426
v -0.02145174184 -0.02138443232 0.02399132106
v -0.02451100984 -0.02138443232 0.02399131566
v -0.02698600611 -0.02138443232 0.02219312026
v -0.02793136643 -0.02138443232 0.01928357266
v -0.02698599589 -0.02138443232 0.01637404756
v -0.02451099331 -0.02138443232 0.01457586076
v -0.02145172531 -0.02138443232 0.01457586616
v -0.01897672785 -0.02138443232 0.01637406156
v -0.01753136681 -0.02188443422 0.01928359096
v -0.01839653021 -0.02188443422 0.01633709816
v -0.02071734558 -0.02188443422 0.01432610016
v -0.02375697428 -0.02188443422 0.01388906406
v -0.02655035058 -0.02188443422 0.01516475106
v -0.02821060196 -0.02188443422 0.01774813746
v -0.02821060735 -0.02188443422 0.02081902596
v -0.02655036503 -0.02188443422 0.02340241816
v -0.02375699321 -0.02188443422 0.02467811506
v -0.02071736298 -0.02188443422 0.02424108966
v -0.01839654055 -0.02188443422 0.02223008066
v -0.02375699321 -0.02188443422 0.02467811506
v -0.02451100984 -0.02138443232 0.02399131566
v -0.01573136734 -0.02188443422 0.01928359406
v -0.01670267707 -0.02188443422 0.01565860006
v -0.01935635584 -0.02188443422 0.01300490126
v -0.02298135485 -0.02188443422 0.01203359666
v -0.02660635608 -0.02188443422 0.01300488846
v -0.02926004535 -0.02188443422 0.01565857796
v -0.03023136662 -0.02188443422 0.01928356866
v -0.02926005808 -0.02188443422 0.02290858176
v -0.02660637812 -0.02188443422 0.02556226156
v -0.0229813803 -0.02188443422 0.02653358516
v -0.01935637788 -0.02188443422 0.02556227426
v -0.0167026898 -0.02188443422 0.02290860386
v -0.01753136681 -0.02188443422 0.01928359096
v -0.01839654055 -0.02188443422 0.02223008066
v -0.02071736298 -0.02188443422 0.02424108966
v -0.02375699321 -0.02188443422 0.02467811506
v -0.02655036503 -0.02188443422 0.02340241816
v -0.02821060735 -0.02188443422 0.02081902596
v -0.02821060196 -0.02188443422 0.01774813746
v -0.02655035058 -0.02188443422 0.01516475106
v -0.02375697428 -0.02188443422 0.01388906406
v -0.02071734558 -0.02188443422 0.01432610016
v -0.01839653021 -0.02188443422 0.01633709816
v -0.02043136643 -0.01788443327 0.01928358586
v -0.02117824284 -0.01788443327 0.01748047246
v -0.0229813631 -0.01788443327 0.01673358976
v -0.02478448598 -0.01788443327 0.01748046616
v -0.02553136633 -0.01788443327 0.01928357686
v -0.02478449231 -0.01788443327 0.02108670936
v -0.02298137205 -0.01788443327 0.02183359206
v -0.02117824917 -0.01788443327 0.02108671566
v -0.02043136643 -0.02188443422 0.01928358586
v -0.02117824917 -0.02188443422 0.02108671566
v -0.02298137205 -0.02188443422 0.02183359206
v -0.02478449231 -0.02188443422 0.02108670936
v -0.02553136633 -0.02188443422 0.01928357686
v -0.02478448598 -0.02188443422 0.01748046616
v -0.0229813631 -0.02188443422 0.01673358976
v -0.02117824284 -0.02188443422 0.01748047246
v -0.02043136643 -0.01788443327 0.01928358586
v -0.02043136643 -0.02188443422 0.01928358586
v -0.01803136753 -0.01788443327 0.01928359006
v -0.01897673806 -0.01788443327 0.02219313426
v -0.02145174184 -0.01788443327 0.02399132106
v -0.02451100984 -0.01788443327 0.02399131566
v -0.02698600611 -0.01788443327 0.02219312026
v -0.02793136643 -0.01788443327 0.01928357266
v -0.02698599589 -0.01788443327 0.01637404756
v -0.02451099331 -0.01788443327 0.01457586076
v -0.02145172531 -0.01788443327 0.01457586616
v -0.01897672785 -0.01788443327 0.01637406156
v -0.01803136753 -0.02138443232 0.01928359006
v -0.01897672785 -0.02138443232 0.01637406156
v -0.02145172531 -0.02138443232 0.01457586616
v -0.02451099331 -0.02138443232 0.01457586076
v -0.02698599589 -0.02138443232 0.01637404756
v -0.02793136643 -0.02138443232 0.01928357266
v -0.02698600611 -0.02138443232 0.02219312026
v -0.02451100984 -0.02138443232 0.02399131566
v -0.02145174184 -0.02138443232 0.02399132106
v -0.01897673806 -0.02138443232 0.02219313426
v -0.01803136753 -0.02138443232 0.01928359006
v -0.01803136753 -0.01788443327 0.01928359006
v -0.02043136643 -0.01788443327 0.01928358586
v -0.02117824917 -0.01788443327 0.02108671566
v -0.02298137205 -0.01788443327 0.02183359206
v -0.02478449231 -0.01788443327 0.02108670936
v -0.02553136633 -0.01788443327 0.01928357686
v -0.02478448598 -0.01788443327 0.01748046616
v -0.0229813631 -0.01788443327 0.01673358976
v -0.02117824284 -0.01788443327 0.01748047246
v -0.01803136753 -0.01788443327 0.01928359006
v -0.01897672785 -0.01788443327 0.01637406156
v -0.02145172531 -0.01788443327 0.01457586616
v -0.02451099331 -0.01788443327 0.01457586076
v -0.02698599589 -0.01788443327 0.01637404756
v -0.02793136643 -0.01788443327 0.01928357266
v -0.02698600611 -0.01788443327 0.02219312026
v -0.02451100984 -0.01788443327 0.02399131566
v -0.02145174184 -0.01788443327 0.02399132106
v -0.01897673806 -0.01788443327 0.02219313426
v -0.02298136582 -0.00488443315 0.01828359666
v -0.02203031055 -0.00488443315 0.01897457346
v -0.02239358375 -0.00488443315 0.02009260336
v -0.02356915424 -0.00488443315 0.02009260136
v -0.02393242351 -0.00488443315 0.01897457016
v -0.02298136933 -0.00288443327 0.02028358516
v -0.02203031164 -0.00288443327 0.01959261166
v -0.02239358091 -0.00288443327 0.01847458046
v -0.0235691514 -0.00288443327 0.01847457846
v -0.0239324246 -0.00288443327 0.01959260836
v -0.02239358091 -0.00288443327 0.01847458046
v -0.02298136582 -0.00488443315 0.01828359666
v -0.02298137021 -0.008884432912 0.02078359666
v -0.02168233096 -0.008884432912 0.02003359126
v -0.02168232832 -0.008884432912 0.01853359506
v -0.02298136494 -0.008884432912 0.01778358516
v -0.02428040419 -0.008884432912 0.01853359056
v -0.02428040682 -0.008884432912 0.02003358676
v -0.02298136494 -0.01308443308 0.01778358516
v -0.02168232832 -0.01308443308 0.01853359506
v -0.02168233096 -0.01308443308 0.02003359126
v -0.02298137021 -0.01308443308 0.02078359666
v -0.02428040682 -0.01308443308 0.02003358676
v -0.02428040419 -0.01308443308 0.01853359056
v -0.02298137021 -0.008884432912 0.02078359666
v -0.02298137021 -0.01308443308 0.02078359666
v -0.01573136734 -0.003384433091 0.01928359406
v -0.01670267707 -0.003384433091 0.01565860006
v -0.01935635584 -0.003384433091 0.01300490126
v -0.02298135485 -0.003384433091 0.01203359666
v -0.02660635608 -0.003384433091 0.01300488846
v -0.02926004535 -0.003384433091 0.01565857796
v -0.03023136662 -0.003384433091 0.01928356866
v -0.02926005808 -0.003384433091 0.02290858176
v -0.02660637812 -0.003384433091 0.02556226156
v -0.0229813803 -0.003384433091 0.02653358516
v -0.01935637788 -0.003384433091 0.02556227426
v -0.0167026898 -0.003384433091 0.02290860386
v -0.01623136686 -0.00288443327 0.01928359326
v -0.01713570161 -0.00288443327 0.02265860686
v -0.01960637688 -0.00288443327 0.02512926756
v -0.02298137942 -0.00288443327 0.02603359286
v -0.0263563764 -0.00288443327 0.02512925566
v -0.0288270442 -0.00288443327 0.02265858636
v -0.0297313671 -0.00288443327 0.01928356956
v -0.02882703235 -0.00288443327 0.01590857496
v -0.02635635589 -0.00288443327 0.01343791426
v -0.02298135573 -0.00288443327 0.01253358896
v -0.01960635636 -0.00288443327 0.01343792616
v -0.01713568976 -0.00288443327 0.01590859546
v -0.02298137942 -0.00288443327 0.02603359286
v -0.0229813803 -0.003384433091 0.02653358516
v -0.01573136734 -0.00488443315 0.01928359406
v -0.01670267707 -0.00488443315 0.01565860006
v -0.01935635584 -0.00488443315 0.01300490126
v -0.02298135485 -0.00488443315 0.01203359666
v -0.02660635608 -0.00488443315 0.01300488846
v -0.02926004535 -0.00488443315 0.01565857796
v -0.03023136662 -0.00488443315 0.01928356866
v -0.02926005808 -0.00488443315 0.02290858176
v -0.02660637812 -0.00488443315 0.02556226156
v -0.0229813803 -0.00488443315 0.02653358516
v -0.01935637788 -0.00488443315 0.02556227426
v -0.0167026898 -0.00488443315 0.02290860386
v -0.01573136734 -0.003384433091 0.01928359406
v -0.0167026898 -0.003384433091 0.02290860386
v -0.01935637788 -0.003384433091 0.02556227426
v -0.0229813803 -0.003384433091 0.02653358516
v -0.02660637812 -0.003384433091 0.02556226156
v -0.02926005808 -0.003384433091 0.02290858176
v -0.03023136662 -0.003384433091 0.01928356866
v -0.02926004535 -0.003384433091 0.01565857796
v -0.02660635608 -0.003384433091 0.01300488846
v -0.02298135485 -0.003384433091 0.01203359666
v -0.01935635584 -0.003384433091 0.01300490126
v -0.01670267707 -0.003384433091 0.01565860006
v -0.01573136734 -0.00488443315 0.01928359406
v -0.01573136734 -0.003384433091 0.01928359406
v -0.02298136933 -0.00288443327 0.02028358516
v -0.0239324246 -0.00288443327 0.01959260836
v -0.0235691514 -0.00288443327 0.01847457846
v -0.02239358091 -0.00288443327 0.01847458046
v -0.02203031164 -0.00288443327 0.01959261166
v -0.01623136686 -0.00288443327 0.01928359326
v -0.01713568976 -0.00288443327 0.01590859546
v -0.01960635636 -0.00288443327 0.01343792616
v -0.02298135573 -0.00288443327 0.01253358896
v -0.02635635589 -0.00288443327 0.01343791426
v -0.02882703235 -0.00288443327 0.01590857496
v -0.0297313671 -0.00288443327 0.01928356956
v -0.0288270442 -0.00288443327 0.02265858636
v -0.0263563764 -0.00288443327 0.02512925566
v -0.02298137942 -0.00288443327 0.02603359286
v -0.01960637688 -0.00288443327 0.02512926756
v -0.01713570161 -0.00288443327 0.02265860686
v -0.02043136643 -0.01258443356 0.01928358586
v -0.02117824917 -0.01258443356 0.02108671566
v -0.02298137205 -0.01258443356 0.02183359206
v -0.02478449231 -0.01258443356 0.02108670936
v -0.02553136633 -0.01258443356 0.01928357686
v -0.02478448598 -0.01258443356 0.01748046616
v -0.0229813631 -0.01258443356 0.01673358976
v -0.02117824284 -0.01258443356 0.01748047246
v -0.02093136595 -0.01308443308 0.01928358496
v -0.02170320991 -0.01308443308 0.01768083856
v -0.02343753272 -0.01308443308 0.01728498436
v -0.02482835183 -0.01308443308 0.01839412426
v -0.02482835495 -0.01308443308 0.02017305106
v -0.02343753973 -0.01308443308 0.02128219586
v -0.02170321554 -0.01308443308 0.02088634776
v -0.02170320991 -0.01308443308 0.01768083856
v -0.0229813631 -0.01258443356 0.01673358976
v -0.02298136582 -0.00488443315 0.01828359666
v -0.02393242351 -0.00488443315 0.01897457016
v -0.02356915424 -0.00488443315 0.02009260136
v -0.02239358375 -0.00488443315 0.02009260336
v -0.02203031055 -0.00488443315 0.01897457346
v -0.02043136643 -0.00488443315 0.01928358586
v -0.02117824917 -0.00488443315 0.02108671566
v -0.02298137205 -0.00488443315 0.02183359206
v -0.02478449231 -0.00488443315 0.02108670936
v -0.02553136633 -0.00488443315 0.01928357686
v -0.02478448598 -0.00488443315 0.01748046616
v -0.0229813631 -0.00488443315 0.01673358976
v -0.02117824284 -0.00488443315 0.01748047246
v -0.02043136643 -0.008884432912 0.01928358586
v -0.02117824917 -0.008884432912 0.02108671566
v -0.02298137205 -0.008884432912 0.02183359206
v -0.02478449231 -0.008884432912 0.02108670936
v -0.02553136633 -0.008884432912 0.01928357686
v -0.02478448598 -0.008884432912 0.01748046616
v -0.0229813631 -0.008884432912 0.01673358976
v -0.02117824284 -0.008884432912 0.01748047246
v -0.02043136643 -0.01258443356 0.01928358586
v -0.02117824284 -0.01258443356 0.01748047246
v -0.0229813631 -0.01258443356 0.01673358976
v -0.02478448598 -0.01258443356 0.01748046616
v -0.02553136633 -0.01258443356 0.01928357686
v -0.02478449231 -0.01258443356 0.02108670936
v -0.02298137205 -0.01258443356 0.02183359206
v -0.02117824917 -0.01258443356 0.02108671566
v -0.02043136643 -0.01258443356 0.01928358586
v -0.02043136643 -0.008884432912 0.01928358586
v -0.02298137021 -0.008884432912 0.02078359666
v -0.02428040682 -0.008884432912 0.02003358676
v -0.02428040419 -0.008884432912 0.01853359056
v -0.02298136494 -0.008884432912 0.01778358516
v -0.02168232832 -0.008884432912 0.01853359506
v -0.02168233096 -0.008884432912 0.02003359126
v -0.02043136643 -0.008884432912 0.01928358586
v -0.02117824284 -0.008884432912 0.01748047246
v -0.0229813631 -0.008884432912 0.01673358976
v -0.02478448598 -0.008884432912 0.01748046616
v -0.02553136633 -0.008884432912 0.01928357686
v -0.02478449231 -0.008884432912 0.02108670936
v -0.02298137205 -0.008884432912 0.02183359206
v -0.02117824917 -0.008884432912 0.02108671566
v -0.02298136494 -0.01308443308 0.01778358516
v -0.02428040419 -0.01308443308 0.01853359056
v -0.02428040682 -0.01308443308 0.02003358676
v -0.02298137021 -0.01308443308 0.02078359666
v -0.02168233096 -0.01308443308 0.02003359126
v -0.02168232832 -0.01308443308 0.01853359506
v -0.02093136595 -0.01308443308 0.01928358496
v -0.02170321554 -0.01308443308 0.02088634776
v -0.02343753973 -0.01308443308 0.02128219586
v -0.02482835495 -0.01308443308 0.02017305106
v -0.02482835183 -0.01308443308 0.01839412426
v -0.02343753272 -0.01308443308 0.01728498436
v -0.02170320991 -0.01308443308 0.01768083856
v -0.02043136643 -0.008884432912 0.01928358586
v -0.02117824917 -0.008884432912 0.02108671566
v -0.02298137205 -0.008884432912 0.02183359206
v -0.02478449231 -0.008884432912 0.02108670936
v -0.02553136633 -0.008884432912 0.01928357686
v -0.02478448598 -0.008884432912 0.01748046616
v -0.0229813631 -0.008884432912 0.01673358976
v -0.02117824284 -0.008884432912 0.01748047246
v -0.02043136643 -0.00488443315 0.01928358586
v -0.02117824284 -0.00488443315 0.01748047246
v -0.0229813631 -0.00488443315 0.01673358976
v -0.02478448598 -0.00488443315 0.01748046616
v -0.02553136633 -0.00488443315 0.01928357686
v -0.02478449231 -0.00488443315 0.02108670936
v -0.02298137205 -0.00488443315 0.02183359206
v -0.02117824917 -0.00488443315 0.02108671566
v -0.02043136643 -0.00488443315 0.01928358586
v -0.02043136643 -0.008884432912 0.01928358586
v -0.01803136753 -0.00538443327 0.01928359006
v -0.01897672785 -0.00538443327 0.01637406156
v -0.02145172531 -0.00538443327 0.01457586616
v -0.02451099331 -0.00538443327 0.01457586076
v -0.02698599589 -0.00538443327 0.01637404756
v -0.02793136643 -0.00538443327 0.01928357266
v -0.02698600611 -0.00538443327 0.02219312026
v -0.02451100984 -0.00538443327 0.02399131566
v -0.02145174184 -0.00538443327 0.02399132106
v -0.01897673806 -0.00538443327 0.02219313426
v -0.01753136681 -0.00488443315 0.01928359096
v -0.01839654055 -0.00488443315 0.02223008066
v -0.02071736298 -0.00488443315 0.02424108966
v -0.02375699321 -0.00488443315 0.02467811506
v -0.02655036503 -0.00488443315 0.02340241816
v -0.02821060735 -0.00488443315 0.02081902596
v -0.02821060196 -0.00488443315 0.01774813746
v -0.02655035058 -0.00488443315 0.01516475106
v -0.02375697428 -0.00488443315 0.01388906406
v -0.02071734558 -0.00488443315 0.01432610016
v -0.01839653021 -0.00488443315 0.01633709816
v -0.02375699321 -0.00488443315 0.02467811506
v -0.02451100984 -0.00538443327 0.02399131566
v -0.01573136734 -0.00488443315 0.01928359406
v -0.0167026898 -0.00488443315 0.02290860386
v -0.01935637788 -0.00488443315 0.02556227426
v -0.0229813803 -0.00488443315 0.02653358516
v -0.02660637812 -0.00488443315 0.02556226156
v -0.02926005808 -0.00488443315 0.02290858176
v -0.03023136662 -0.00488443315 0.01928356866
v -0.02926004535 -0.00488443315 0.01565857796
v -0.02660635608 -0.00488443315 0.01300488846
v -0.02298135485 -0.00488443315 0.01203359666
v -0.01935635584 -0.00488443315 0.01300490126
v -0.01670267707 -0.00488443315 0.01565860006
v -0.01753136681 -0.00488443315 0.01928359096
v -0.01839653021 -0.00488443315 0.01633709816
v -0.02071734558 -0.00488443315 0.01432610016
v -0.02375697428 -0.00488443315 0.01388906406
v -0.02655035058 -0.00488443315 0.01516475106
v -0.02821060196 -0.00488443315 0.01774813746
v -0.02821060735 -0.00488443315 0.02081902596
v -0.02655036503 -0.00488443315 0.02340241816
v -0.02375699321 -0.00488443315 0.02467811506
v -0.02071736298 -0.00488443315 0.02424108966
v -0.01839654055 -0.00488443315 0.02223008066
v -0.02043136643 -0.008884432912 0.01928358586
v -0.02117824284 -0.008884432912 0.01748047246
v -0.0229813631 -0.008884432912 0.01673358976
v -0.02478448598 -0.008884432912 0.01748046616
v -0.02553136633 -0.008884432912 0.01928357686
v -0.02478449231 -0.008884432912 0.02108670936
v -0.02298137205 -0.008884432912 0.02183359206
v -0.02117824917 -0.008884432912 0.02108671566
v -0.01803136753 -0.008884432912 0.01928359006
v -0.01897673806 -0.008884432912 0.02219313426
v -0.02145174184 -0.008884432912 0.02399132106
v -0.02451100984 -0.008884432912 0.02399131566
v -0.02698600611 -0.008884432912 0.02219312026
v -0.02793136643 -0.008884432912 0.01928357266
v -0.02698599589 -0.008884432912 0.01637404756
v -0.02451099331 -0.008884432912 0.01457586076
v -0.02145172531 -0.008884432912 0.01457586616
v -0.01897672785 -0.008884432912 0.01637406156
v -0.01803136753 -0.008884432912 0.01928359006
v -0.01897672785 -0.008884432912 0.01637406156
v -0.02145172531 -0.008884432912 0.01457586616
v -0.02451099331 -0.008884432912 0.01457586076
v -0.02698599589 -0.008884432912 0.01637404756
v -0.02793136643 -0.008884432912 0.01928357266
v -0.02698600611 -0.008884432912 0.02219312026
v -0.02451100984 -0.008884432912 0.02399131566
v -0.02145174184 -0.008884432912 0.02399132106
v -0.01897673806 -0.008884432912 0.02219313426
v -0.01803136753 -0.00538443327 0.01928359006
v -0.01897673806 -0.00538443327 0.02219313426
v -0.02145174184 -0.00538443327 0.02399132106
v -0.02451100984 -0.00538443327 0.02399131566
v -0.02698600611 -0.00538443327 0.02219312026
v -0.02793136643 -0.00538443327 0.01928357266
v -0.02698599589 -0.00538443327 0.01637404756
v -0.02451099331 -0.00538443327 0.01457586076
v -0.02145172531 -0.00538443327 0.01457586616
v -0.01897672785 -0.00538443327 0.01637406156
v -0.01803136753 -0.008884432912 0.01928359006
v -0.01803136753 -0.00538443327 0.01928359006
f 2 17 1
f 18 12 13
f 18 13 7
f 7 13 14
f 7 14 6
f 6 14 15
f 6 15 16
f 17 2 11
f 11 2 3
f 11 3 10
f 10 3 9
f 9 3 4
f 9 4 8
f 8 4 5
f 8 5 16
f 16 5 6
f 20 30 19
f 19 30 32
f 31 25 24
f 24 25 26
f 24 26 23
f 23 26 27
f 23 27 22
f 22 27 28
f 22 28 21
f 21 28 29
f 21 29 20
f 20 29 30
f 34 56 33
f 33 56 45
f 33 45 44
f 44 45 46
f 44 46 43
f 43 46 47
f 43 47 42
f 42 47 48
f 42 48 41
f 41 48 49
f 41 49 40
f 40 49 50
f 40 50 39
f 39 50 51
f 39 51 38
f 38 51 52
f 38 52 37
f 37 52 53
f 37 53 36
f 36 53 58
f 57 54 35
f 35 54 55
f 35 55 34
f 34 55 56
f 60 82 59
f 59 82 83
f 84 71 70
f 70 71 72
f 70 72 69
f 69 72 73
f 69 73 68
f 68 73 74
f 68 74 67
f 67 74 75
f 67 75 66
f 66 75 76
f 66 76 65
f 65 76 77
f 65 77 64
f 64 77 78
f 64 78 63
f 63 78 79
f 63 79 62
f 62 79 80
f 62 80 61
f 61 80 81
f 61 81 60
f 60 81 82
f 86 102 85
f 85 102 103
f 85 103 104
f 102 86 101
f 101 86 87
f 101 87 100
f 100 87 88
f 100 88 99
f 99 88 98
f 98 88 89
f 98 89 97
f 97 89 90
f 97 90 96
f 96 90 91
f 96 91 95
f 95 91 94
f 94 91 92
f 94 92 105
f 105 92 93
f 105 93 104
f 104 93 85
f 113 106 114
f 114 106 107
f 114 107 120
f 120 107 121
f 120 121 119
f 122 108 109
f 122 109 118
f 118 109 110
f 118 110 117
f 117 110 111
f 117 111 116
f 116 111 112
f 116 112 115
f 115 112 113
f 115 113 114
f 124 135 123
f 123 135 136
f 123 136 137
f 135 124 134
f 134 124 125
f 134 125 133
f 133 125 126
f 133 126 132
f 132 126 127
f 132 127 131
f 131 127 128
f 131 128 130
f 130 128 129
f 130 129 137
f 137 129 123
f 139 153 138
f 138 153 155
f 154 146 145
f 145 146 147
f 145 147 148
f 139 140 153
f 153 140 152
f 152 140 141
f 152 141 151
f 151 141 142
f 151 142 150
f 150 142 143
f 150 143 149
f 149 143 144
f 149 144 148
f 148 144 145
f 157 167 156
f 156 167 168
f 156 168 161
f 161 168 162
f 161 162 160
f 160 162 163
f 160 163 159
f 159 163 164
f 159 164 158
f 158 164 165
f 158 165 166
f 167 157 166
f 166 157 158
f 170 176 169
f 169 176 177
f 169 177 178
f 176 170 175
f 175 170 171
f 175 171 182
f 182 171 172
f 182 172 181
f 181 172 180
f 180 172 173
f 180 173 179
f 179 173 174
f 179 174 178
f 178 174 169
f 184 203 183
f 183 203 193
f 183 193 194
f 203 184 202
f 202 184 185
f 202 185 201
f 201 185 205
f 204 186 200
f 200 186 187
f 200 187 199
f 199 187 188
f 199 188 198
f 198 188 189
f 198 189 197
f 197 189 190
f 197 190 196
f 196 190 191
f 196 191 195
f 195 191 192
f 195 192 194
f 194 192 183
f 217 206 218
f 218 206 207
f 218 207 228
f 228 207 208
f 228 208 227
f 227 208 209
f 227 209 226
f 226 209 210
f 226 210 225
f 225 210 211
f 225 211 224
f 224 211 212
f 224 212 223
f 223 212 213
f 223 213 222
f 222 213 214
f 222 214 221
f 221 214 215
f 221 215 220
f 220 215 216
f 220 216 219
f 219 216 217
f 219 217 218
f 230 244 229
f 229 244 246
f 245 237 236
f 236 237 238
f 236 238 239
f 230 231 244
f 244 231 243
f 243 231 232
f 243 232 242
f 242 232 233
f 242 233 241
f 241 233 234
f 241 234 240
f 240 234 235
f 240 235 239
f 239 235 236
f 248 266 247
f 247 266 267
f 268 257 256
f 256 257 258
f 256 258 255
f 255 258 259
f 255 259 254
f 254 259 260
f 254 260 253
f 253 260 261
f 253 261 252
f 252 261 262
f 252 262 251
f 251 262 263
f 251 263 250
f 250 263 264
f 250 264 249
f 249 264 265
f 249 265 248
f 248 265 266
f 270 286 269
f 269 286 277
f 269 277 278
f 286 270 285
f 285 270 271
f 285 271 284
f 284 271 272
f 284 272 283
f 283 272 273
f 283 273 282
f 282 273 281
f 281 273 274
f 281 274 280
f 280 274 275
f 280 275 279
f 279 275 276
f 279 276 278
f 278 276 269
f 288 297 287
f 298 294 295
f 298 295 291
f 291 295 296
f 291 296 290
f 290 296 292
f 290 292 289
f 289 292 293
f 289 293 288
f 288 293 297
f 300 307 299
f 299 307 312
f 311 308 304
f 304 308 309
f 304 309 303
f 303 309 310
f 303 310 302
f 302 310 305
f 302 305 301
f 301 305 306
f 301 306 300
f 300 306 307
f 314 336 313
f 313 336 325
f 313 325 324
f 324 325 326
f 324 326 323
f 323 326 327
f 323 327 322
f 322 327 337
f 338 328 321
f 321 328 329
f 321 329 320
f 320 329 330
f 320 330 319
f 319 330 331
f 319 331 318
f 318 331 332
f 318 332 317
f 317 332 333
f 317 333 316
f 316 333 334
f 316 334 315
f 315 334 335
f 315 335 314
f 314 335 336
f 340 362 339
f 339 362 364
f 363 351 350
f 350 351 352
f 350 352 349
f 349 352 353
f 349 353 348
f 348 353 354
f 348 354 347
f 347 354 355
f 347 355 346
f 346 355 356
f 346 356 345
f 345 356 357
f 345 357 344
f 344 357 358
f 344 358 343
f 343 358 359
f 343 359 342
f 342 359 360
f 342 360 341
f 341 360 361
f 341 361 340
f 340 361 362
f 366 378 365
f 365 378 379
f 365 379 380
f 367 375 366
f 366 375 376
f 366 376 377
f 368 373 367
f 367 373 374
f 367 374 375
f 369 371 368
f 368 371 372
f 368 372 373
f 365 380 369
f 369 380 381
f 369 381 370
f 370 371 369
f 377 378 366
f 389 382 390
f 390 382 383
f 390 383 396
f 396 383 384
f 396 384 395
f 395 384 385
f 395 385 394
f 394 385 386
f 394 386 393
f 393 386 387
f 393 387 392
f 392 387 398
f 392 398 391
f 397 388 389
f 397 389 390
f 400 409 399
f 399 409 410
f 399 410 411
f 409 400 408
f 408 400 401
f 408 401 407
f 407 401 406
f 406 401 402
f 406 402 405
f 405 402 404
f 404 402 403
f 404 403 411
f 411 403 399
f 413 427 412
f 412 427 428
f 429 420 419
f 419 420 421
f 419 421 422
f 413 414 427
f 427 414 426
f 426 414 415
f 426 415 425
f 425 415 416
f 425 416 424
f 424 416 417
f 424 417 423
f 423 417 418
f 423 418 422
f 422 418 419
f 431 441 430
f 430 441 442
f 430 442 443
f 441 431 440
f 440 431 432
f 440 432 439
f 439 432 433
f 439 433 438
f 438 433 437
f 437 433 434
f 437 434 436
f 436 434 435
f 436 435 443
f 443 435 430
f 445 455 444
f 444 455 456
f 444 456 449
f 449 456 450
f 449 450 448
f 448 450 451
f 448 451 447
f 447 451 452
f 447 452 446
f 446 452 453
f 446 453 454
f 455 445 454
f 454 445 446
f 458 472 457
f 457 472 473
f 474 465 464
f 464 465 466
f 464 466 467
f 458 459 472
f 472 459 471
f 471 459 460
f 471 460 470
f 470 460 461
f 470 461 469
f 469 461 462
f 469 462 468
f 468 462 463
f 468 463 467
f 467 463 464
f 476 495 475
f 475 495 485
f 475 485 486
f 495 476 494
f 494 476 477
f 494 477 493
f 493 477 478
f 493 478 492
f 492 478 479
f 492 479 491
f 491 479 480
f 491 480 490
f 490 480 481
f 490 481 489
f 489 481 497
f 489 497 488
f 496 482 483
f 496 483 487
f 487 483 484
f 487 484 486
f 486 484 475
f 509 498 510
f 510 498 499
f 510 499 520
f 520 499 500
f 520 500 519
f 519 500 501
f 519 501 518
f 518 501 502
f 518 502 517
f 517 502 503
f 517 503 516
f 516 503 504
f 516 504 515
f 515 504 505
f 515 505 514
f 514 505 506
f 514 506 513
f 513 506 507
f 513 507 512
f 512 507 508
f 512 508 511
f 511 508 509
f 511 509 510
f 522 538 521
f 521 538 529
f 521 529 530
f 538 522 537
f 537 522 523
f 537 523 536
f 536 523 524
f 536 524 535
f 535 524 525
f 535 525 534
f 534 525 533
f 533 525 526
f 533 526 532
f 532 526 527
f 532 527 531
f 531 527 528
f 531 528 530
f 530 528 521
f 540 558 539
f 539 558 560
f 559 549 548
f 548 549 550
f 548 550 547
f 547 550 551
f 547 551 546
f 546 551 552
f 546 552 545
f 545 552 553
f 545 553 544
f 544 553 554
f 544 554 543
f 543 554 555
f 543 555 542
f 542 555 556
f 542 556 541
f 541 556 557
f 541 557 540
f 540 557 558
