v -0.01776462364 -0.001048886701 -0.005164117644
v -0.01848067194 -0.001048886701 0.0008454407556
v -0.01721892352 -0.001048886701 0.006764517956
v -0.01411440922 -0.001048886701 0.01195966426
v -0.009499375666 -0.001048886701 0.01587488696
v -0.003867720226 -0.001048886701 0.01809117866
v -0.003867720226 0.0009511133283 0.01809117866
v -0.009499375666 0.0009511133283 0.01587488696
v -0.01411440922 0.0009511133283 0.01195966426
v -0.01721892352 0.0009511133283 0.006764517956
v -0.01848067194 0.0009511133283 0.0008454407556
v -0.01776462364 0.0009511133283 -0.005164117644
v -0.003854981885 0.0009511133283 -0.01040097634
v -0.004664481476 0.0009511133283 -0.008720040944
v -0.006483405559 0.0009511133283 -0.008304890644
v -0.007942066266 0.0009511133283 -0.009468127944
v -0.007942062992 0.0009511133283 -0.01133382964
v -0.006483398202 0.0009511133283 -0.01249707124
v -0.004664475576 0.0009511133283 -0.01208191454
v 0.008155018463 0.0009511133283 -0.01040095524
v 0.007345518276 0.0009511133283 -0.008720019844
v 0.005526594789 0.0009511133283 -0.008304869544
v 0.004067933486 0.0009511133283 -0.009468106844
v 0.00406793676 0.0009511133283 -0.01133380854
v 0.005526602146 0.0009511133283 -0.01249705024
v 0.007345524176 0.0009511133283 -0.01208189354
v -0.009860000014 0.0009511133283 -1.454440351e-08
v -0.0106695002 0.0009511133283 0.001680911356
v -0.01248842369 0.0009511133283 0.002096080756
v -0.0139470844 0.0009511133283 0.0009328243556
v -0.01394708112 0.0009511133283 -0.0009328677444
v -0.01248841633 0.0009511133283 -0.002096119044
v -0.0106694943 0.0009511133283 -0.001680962344
v -0.003855018391 0.0009511133283 0.01040095886
v -0.004664517983 0.0009511133283 0.01208190376
v -0.006483442065 0.0009511133283 0.01249705406
v -0.007942102772 0.0009511133283 0.01133379776
v -0.007942099498 0.0009511133283 0.009468105556
v -0.006483434708 0.0009511133283 0.008304854356
v -0.004664512083 0.0009511133283 0.008720011056
v 0.01416000009 0.0009511133283 2.765559648e-08
v 0.01335050049 0.0009511133283 0.001680953456
v 0.01153157582 0.0009511133283 0.002096122856
v 0.01007291511 0.0009511133283 0.0009328665556
v 0.01007291838 0.0009511133283 -0.0009328256444
v 0.01153158317 0.0009511133283 -0.002096076844
v 0.01335050639 0.0009511133283 -0.001680920144
v 0.008154981957 0.0009511133283 0.01040097996
v 0.007345481769 0.0009511133283 0.01208192486
v 0.005526558283 0.0009511133283 0.01249707516
v 0.00406789698 0.0009511133283 0.01133381886
v 0.004067900254 0.0009511133283 0.009468126656
v 0.00552656564 0.0009511133283 0.008304875456
v 0.007345487669 0.0009511133283 0.008720032156
v 0.001000000015 0.0009511133283 4.555596511e-09
v 0.0003090153335 0.0009511133283 0.0009510645556
v -0.0008090180043 0.0009511133283 0.0005877889556
v -0.0008090159412 0.0009511133283 -0.0005877862444
v 0.0003090186716 0.0009511133283 -0.0009510579444
v -0.005557403592 0.0009511133283 -0.01764554724
v -0.008059666139 0.0009511133283 -0.01665208044
v -0.01039123829 0.0009511133283 -0.01530595414
v -0.01250274053 0.0009511133283 -0.01363567364
v -0.01281130642 0.0009511133283 -0.01307460844
v -0.01271627269 0.0009511133283 -0.01244138764
v -0.01225660484 0.0009511133283 -0.01199562994
v -0.0102311317 0.0009511133283 -0.009967065744
v -0.0099431974 0.0009511133283 -0.007114940044
v -0.01152235156 0.0009511133283 -0.004722479144
v -0.01425808824 0.0009511133283 -0.003866122544
v -0.01691952436 0.0009511133283 -0.004931171644
v -0.01717297614 0.0009511133283 -0.005094155044
v -0.01746346758 0.0009511133283 -0.005174226044
v -0.01776462364 0.0009511133283 -0.005164117644
v -0.01848067194 0.0009511133283 0.0008454407556
v -0.01721892352 0.0009511133283 0.006764517956
v -0.01411440922 0.0009511133283 0.01195966426
v -0.009499375666 0.0009511133283 0.01587488696
v -0.003867720226 0.0009511133283 0.01809117866
v -0.004212774215 0.0009511133283 0.01555409926
v -0.003045699946 0.0009511133283 0.01327512486
v -0.0007854084937 0.0009511133283 0.01207227846
v 0.001756788079 0.0009511133283 0.01237728706
v 0.003668390836 0.0009511133283 0.01408068626
v 0.004263246482 0.0009511133283 0.01657105516
v 0.004425491623 0.0009511133283 0.01719050506
v 0.004930268959 0.0009511133283 0.01758454516
v 0.005570589426 0.0009511133283 0.01759156526
v 0.006984076834 0.0009511133283 0.01713103846
v 0.008957507217 0.0009511133283 0.01618680896
v 0.01080567705 0.0009511133283 0.01501623416
v 0.01250274053 0.0009511133283 0.01363566006
v 0.01281130642 0.0009511133283 0.01307461406
v 0.01271627269 0.0009511133283 0.01244139316
v 0.01225660484 0.0009511133283 0.01199562596
v 0.01027602576 0.0009511133283 0.01005891976
v 0.009899080672 0.0009511133283 0.007314587756
v 0.01128413887 0.0009511133283 0.004915603356
v 0.0138492862 0.0009511133283 0.003869884856
v 0.01651680494 0.0009511133283 0.004616769156
v 0.01713268035 0.0009511133283 0.004791979256
v 0.01772858297 0.0009511133283 0.004557681556
v 0.01806019199 0.0009511133283 0.004009910756
v 0.01845095756 0.0009511133283 0.001346165556
v 0.01845096228 0.0009511133283 -0.001346095244
v 0.01806020606 0.0009511133283 -0.004009860844
v 0.01772859896 0.0009511133283 -0.004557613844
v 0.01713269717 0.0009511133283 -0.004791913544
v 0.01651682114 0.0009511133283 -0.004616724644
v 0.01384929978 0.0009511133283 -0.003869830744
v 0.01128415613 0.0009511133283 -0.004915558144
v 0.009899106345 0.0009511133283 -0.007314547444
v 0.01027606107 0.0009511133283 -0.01005888764
v 0.01225664694 0.0009511133283 -0.01199558694
v 0.01271631636 0.0009511133283 -0.01244134304
v 0.01281135231 0.0009511133283 -0.01307456354
v 0.01250278839 0.0009511133283 -0.01363562974
v 0.01039129202 0.0009511133283 -0.01530591774
v 0.008059724587 0.0009511133283 -0.01665205214
v 0.005557465526 0.0009511133283 -0.01764552774
v 0.004917292246 0.0009511133283 -0.01763222504
v 0.004416424179 0.0009511133283 -0.01723331354
v 0.004260216601 0.0009511133283 -0.01661234784
v 0.003573274321 0.0009511133283 -0.01392876674
v 0.001385076052 0.0009511133283 -0.01223014314
v -0.001385033125 0.0009511133283 -0.01223014794
v -0.003573225432 0.0009511133283 -0.01392877924
v -0.004260158293 0.0009511133283 -0.01661236284
v -0.004416363692 0.0009511133283 -0.01723332904
v -0.004917230359 0.0009511133283 -0.01763224234
v -0.004260158293 -0.007048886418 -0.01661236284
v -0.004416363692 -0.007048886418 -0.01723332904
v -0.004917230359 -0.007048886418 -0.01763224234
v -0.005557403592 -0.007048886418 -0.01764554724
v -0.005557403592 0.0009511133283 -0.01764554724
v -0.004917230359 0.0009511133283 -0.01763224234
v -0.004416363692 0.0009511133283 -0.01723332904
v -0.004260158293 0.0009511133283 -0.01661236284
v 0.0075 -0.007048886418 1.595559651e-08
v 0.00664092616 -0.007048886418 -0.003485417244
v 0.004260496303 -0.007048886418 -0.006172379744
v 0.0009040382036 -0.007048886418 -0.007445311944
v -0.002659524293 -0.007048886418 -0.007012617144
v -0.005613821957 -0.007048886418 -0.004973437744
v -0.007282060215 -0.007048886418 -0.001794882244
v -0.007282066515 -0.007048886418 0.001794862256
v -0.005613839414 -0.007048886418 0.004973404456
v -0.002659548907 -0.007048886418 0.007012613356
v 0.0009040120713 -0.007048886418 0.007445320656
v 0.004260474638 -0.007048886418 0.006172381156
v 0.006640913926 -0.007048886418 0.003485427056
v 0.008360000253 -0.007048886418 1.745559647e-08
v 0.009213933404 -0.007048886418 0.002346191256
v 0.01137617792 -0.007048886418 0.003594573856
v 0.01383499425 -0.007048886418 0.003161018756
v 0.01543987532 -0.007048886418 0.001248408656
v 0.0154398797 -0.007048886418 -0.001248348844
v 0.01383500535 -0.007048886418 -0.003160964644
v 0.01137619053 -0.007048886418 -0.003594528344
v 0.009213941638 -0.007048886418 -0.002346153344
v -0.009655018225 -0.007048886418 0.01040094866
v -0.008801084478 -0.007048886418 0.01274712246
v -0.00663884056 -0.007048886418 0.01399550506
v -0.004180023927 -0.007048886418 0.01356194996
v -0.002575142264 -0.007048886418 0.01164933986
v -0.002575137882 -0.007048886418 0.009152582356
v -0.004180012832 -0.007048886418 0.007239966556
v -0.006638827944 -0.007048886418 0.006806402856
v -0.008801076243 -0.007048886418 0.008054777856
v -0.01565999985 -0.007048886418 -2.474440353e-08
v -0.0148060661 -0.007048886418 0.002346149156
v -0.01264382159 -0.007048886418 0.003594531656
v -0.01018500525 -0.007048886418 0.003160976556
v -0.008580124185 -0.007048886418 0.001248366456
v -0.008580119803 -0.007048886418 -0.001248391044
v -0.01018499416 -0.007048886418 -0.003161006744
v -0.01264380897 -0.007048886418 -0.003594570544
v -0.01480605787 -0.007048886418 -0.002346195544
v 0.002355018183 -0.007048886418 -0.01040096544
v 0.003208951781 -0.007048886418 -0.008054782044
v 0.005371196294 -0.007048886418 -0.006806399544
v 0.007830012629 -0.007048886418 -0.007239954644
v 0.009434894292 -0.007048886418 -0.009152583844
v 0.009434898674 -0.007048886418 -0.01164932224
v 0.007830023724 -0.007048886418 -0.01356194754
v 0.00537120891 -0.007048886418 -0.01399550174
v 0.003208960016 -0.007048886418 -0.01274713634
v 0.002354981676 -0.007048886418 0.01040096976
v 0.003208915274 -0.007048886418 0.01274714356
v 0.005371159788 -0.007048886418 0.01399552616
v 0.007829976123 -0.007048886418 0.01356197106
v 0.009434857786 -0.007048886418 0.01164936096
v 0.009434862168 -0.007048886418 0.009152603456
v 0.007829987218 -0.007048886418 0.007239987656
v 0.005371172404 -0.007048886418 0.006806423956
v 0.003208923509 -0.007048886418 0.008054798856
v -0.009654981718 -0.007048886418 -0.01040098654
v -0.008801047971 -0.007048886418 -0.008054803144
v -0.006638804054 -0.007048886418 -0.006806420644
v -0.004179987421 -0.007048886418 -0.007239975744
v -0.002575105758 -0.007048886418 -0.009152604944
v -0.002575101376 -0.007048886418 -0.01164934334
v -0.004179976326 -0.007048886418 -0.01356196864
v -0.006638791438 -0.007048886418 -0.01399552274
v -0.008801039736 -0.007048886418 -0.01274715734
v -0.005557403592 -0.007048886418 -0.01764554724
v -0.004917230359 -0.007048886418 -0.01763224234
v -0.004416363692 -0.007048886418 -0.01723332904
v -0.004260158293 -0.007048886418 -0.01661236284
v -0.003573225432 -0.007048886418 -0.01392877924
v -0.001385033125 -0.007048886418 -0.01223014794
v 0.001385076052 -0.007048886418 -0.01223014314
v 0.003573274321 -0.007048886418 -0.01392876674
v 0.004260216601 -0.007048886418 -0.01661234784
v 0.004416424179 -0.007048886418 -0.01723331354
v 0.004917292246 -0.007048886418 -0.01763222504
v 0.005557465526 -0.007048886418 -0.01764552774
v 0.008059724587 -0.007048886418 -0.01665205214
v 0.01039129202 -0.007048886418 -0.01530591774
v 0.01250278839 -0.007048886418 -0.01363562974
v 0.01281135231 -0.007048886418 -0.01307456354
v 0.01271631636 -0.007048886418 -0.01244134304
v 0.01225664694 -0.007048886418 -0.01199558694
v 0.01027606107 -0.007048886418 -0.01005888764
v 0.009899106345 -0.007048886418 -0.007314547444
v 0.01128415613 -0.007048886418 -0.004915558144
v 0.01384929978 -0.007048886418 -0.003869830744
v 0.01651682114 -0.007048886418 -0.004616724644
v 0.01713269717 -0.007048886418 -0.004791913544
v 0.01772859896 -0.007048886418 -0.004557613844
v 0.01806020606 -0.007048886418 -0.004009860844
v 0.01845096228 -0.007048886418 -0.001346095244
v 0.01845095756 -0.007048886418 0.001346165556
v 0.01806019199 -0.007048886418 0.004009910756
v 0.01772858297 -0.007048886418 0.004557681556
v 0.01713268035 -0.007048886418 0.004791979256
v 0.01651680494 -0.007048886418 0.004616769156
v 0.0138492862 -0.007048886418 0.003869884856
v 0.01128413887 -0.007048886418 0.004915603356
v 0.009899080672 -0.007048886418 0.007314587756
v 0.01027602576 -0.007048886418 0.01005891976
v 0.01225660484 -0.007048886418 0.01199562596
v 0.01271627269 -0.007048886418 0.01244139316
v 0.01281130642 -0.007048886418 0.01307461406
v 0.01250274053 -0.007048886418 0.01363566006
v 0.01080567705 -0.007048886418 0.01501623416
v 0.008957507217 -0.007048886418 0.01618680896
v 0.006984076834 -0.007048886418 0.01713103846
v 0.005570589426 -0.007048886418 0.01759156526
v 0.004930268959 -0.007048886418 0.01758454516
v 0.004425491623 -0.007048886418 0.01719050506
v 0.004263246482 -0.007048886418 0.01657105516
v 0.003668390836 -0.007048886418 0.01408068626
v 0.001756788079 -0.007048886418 0.01237728706
v -0.0007854084937 -0.007048886418 0.01207227846
v -0.003045699946 -0.007048886418 0.01327512486
v -0.004212774215 -0.007048886418 0.01555409926
v -0.003867720226 -0.007048886418 0.01809117866
v -0.008685254511 -0.007048886418 0.01633452126
v -0.01283551528 -0.007048886418 0.01332288676
v -0.01599964341 -0.007048886418 0.009287694456
v -0.01793454609 -0.007048886418 0.004538946056
v -0.01849156759 -0.007048886418 -0.0005585204444
v -0.01884183647 -0.007048886418 -0.001349269644
v -0.01967773996 -0.007048886418 -0.001571152944
v -0.02037405305 -0.007048886418 -0.001058191844
v -0.01846385855 -0.007048886418 -0.004650622444
v -0.01804314201 -0.007048886418 -0.005067911444
v -0.01746012733 -0.007048886418 -0.005173825444
v -0.01691952436 -0.007048886418 -0.004931171644
v -0.01425808824 -0.007048886418 -0.003866122544
v -0.01152235156 -0.007048886418 -0.004722479144
v -0.0099431974 -0.007048886418 -0.007114940044
v -0.0102311317 -0.007048886418 -0.009967065744
v -0.01225660484 -0.007048886418 -0.01199562994
v -0.01271627269 -0.007048886418 -0.01244138764
v -0.01281130642 -0.007048886418 -0.01307460844
v -0.01250274053 -0.007048886418 -0.01363567364
v -0.01039123829 -0.007048886418 -0.01530595414
v -0.008059666139 -0.007048886418 -0.01665208044
v -0.004260158293 -0.007048886418 -0.01661236284
v -0.004260158293 0.0009511133283 -0.01661236284
v -0.003573225432 0.0009511133283 -0.01392877924
v -0.001385033125 0.0009511133283 -0.01223014794
v 0.001385076052 0.0009511133283 -0.01223014314
v 0.003573274321 0.0009511133283 -0.01392876674
v 0.004260216601 0.0009511133283 -0.01661234784
v 0.004260216601 -0.007048886418 -0.01661234784
v 0.003573274321 -0.007048886418 -0.01392876674
v 0.001385076052 -0.007048886418 -0.01223014314
v -0.001385033125 -0.007048886418 -0.01223014794
v -0.003573225432 -0.007048886418 -0.01392877924
v 0.005557465526 0.0009511133283 -0.01764552774
v 0.005557465526 -0.007048886418 -0.01764552774
v 0.004917292246 -0.007048886418 -0.01763222504
v 0.004416424179 -0.007048886418 -0.01723331354
v 0.004260216601 -0.007048886418 -0.01661234784
v 0.004260216601 0.0009511133283 -0.01661234784
v 0.004416424179 0.0009511133283 -0.01723331354
v 0.004917292246 0.0009511133283 -0.01763222504
v -0.01776462364 -0.001048886701 -0.005164117644
v -0.01798139989 -0.002266878337 -0.005097475244
v -0.01846385855 -0.003056914508 -0.004650622444
v -0.0203578453 -0.004445176423 -0.001088671244
v -0.02234383809 -0.005048886538 0.002646295356
v -0.02065719501 -0.005048886538 0.008917984856
v -0.01724947842 -0.005048886538 0.01444665066
v -0.01240460471 -0.005048886538 0.01877166756
v -0.006526229619 -0.005048886538 0.02153271766
v -0.001990512936 -0.004288337231 0.02005498816
v -0.002137489205 -0.004239809215 0.01997390646
v -0.001994639989 -0.002797117829 0.01879672936
v -0.002714441049 -0.00105738394 0.01829978746
v -0.002718533205 -0.001048886701 0.01829917706
v -0.003103026568 -0.001048886701 0.01823791236
v -0.003486145433 -0.001048886701 0.01816856046
v -0.003867720226 -0.001048886701 0.01809117866
v -0.009499375666 -0.001048886701 0.01587488696
v -0.01411440922 -0.001048886701 0.01195966426
v -0.01721892352 -0.001048886701 0.006764517956
v -0.01848067194 -0.001048886701 0.0008454407556
v -0.01075304761 -0.003048886657 0.01570787726
v -0.01541439282 -0.004512988329 0.01351468516
v -0.02048936013 -0.004512988329 -0.0006603763444
v -0.0190260185 -0.003048886657 -0.0006132050444
v -0.02001275365 -0.004512988329 0.004442926456
v -0.0185834516 -0.003048886657 0.004125622456
v -0.01828509884 -0.004512988329 0.009268502456
v -0.01697918376 -0.003048886657 0.008606559456
v -0.01431350288 -0.003048886657 0.01254947336
v -0.007021891896 -0.004512988329 0.01925988196
v -0.006520391498 -0.003048886657 0.01788434116
v -0.01158009398 -0.004512988329 0.01691600956
v -0.01250274053 0.0009511133283 -0.01363567364
v -0.01250274053 -0.007048886418 -0.01363567364
v -0.01281130642 -0.007048886418 -0.01307460844
v -0.01271627269 -0.007048886418 -0.01244138764
v -0.01225660484 -0.007048886418 -0.01199562994
v -0.01225660484 0.0009511133283 -0.01199562994
v -0.01271627269 0.0009511133283 -0.01244138764
v -0.01281130642 0.0009511133283 -0.01307460844
v -0.003854981885 0.0009511133283 -0.01040097634
v -0.004664475576 0.0009511133283 -0.01208191454
v -0.006483398202 0.0009511133283 -0.01249707124
v -0.007942062992 0.0009511133283 -0.01133382964
v -0.007942066266 0.0009511133283 -0.009468127944
v -0.006483405559 0.0009511133283 -0.008304890644
v -0.004664481476 0.0009511133283 -0.008720040944
v -0.008154981957 -0.004548886716 -0.01040098394
v -0.007345481769 -0.004548886716 -0.01208191934
v -0.005526558283 -0.004548886716 -0.01249706964
v -0.00406789698 -0.004548886716 -0.01133382284
v -0.004067900254 -0.004548886716 -0.009468121144
v -0.00552656564 -0.004548886716 -0.008304888944
v -0.007345487669 -0.004548886716 -0.008720045644
v -0.00406789698 -0.004548886716 -0.01133382284
v -0.003854981885 0.0009511133283 -0.01040097634
v 0.004263246482 -0.007048886418 0.01657105516
v 0.004263246482 0.0009511133283 0.01657105516
v 0.003668390836 0.0009511133283 0.01408068626
v 0.001756788079 0.0009511133283 0.01237728706
v -0.0007854084937 0.0009511133283 0.01207227846
v -0.003045699946 0.0009511133283 0.01327512486
v -0.004212774215 0.0009511133283 0.01555409926
v -0.003867720226 0.0009511133283 0.01809117866
v -0.003867720226 -0.001048886701 0.01809117866
v -0.003867720226 -0.007048886418 0.01809117866
v -0.004212774215 -0.007048886418 0.01555409926
v -0.003045699946 -0.007048886418 0.01327512486
v -0.0007854084937 -0.007048886418 0.01207227846
v 0.001756788079 -0.007048886418 0.01237728706
v 0.003668390836 -0.007048886418 0.01408068626
v -0.01691952436 -0.007048886418 -0.004931171644
v -0.01746012733 -0.007048886418 -0.005173825444
v -0.01804314201 -0.007048886418 -0.005067911444
v -0.01846385855 -0.007048886418 -0.004650622444
v -0.01846385855 -0.003056914508 -0.004650622444
v -0.01798139989 -0.002266878337 -0.005097475244
v -0.01776462364 -0.001048886701 -0.005164117644
v -0.01776462364 0.0009511133283 -0.005164117644
v -0.01746346758 0.0009511133283 -0.005174226044
v -0.01717297614 0.0009511133283 -0.005094155044
v -0.01691952436 0.0009511133283 -0.004931171644
v -0.01846385855 -0.003056914508 -0.004650622444
v -0.01846385855 -0.007048886418 -0.004650622444
v -0.02037405305 -0.007048886418 -0.001058191844
v -0.02037405305 -0.009048886895 -0.001058191844
v -0.02945995283 -0.009048886895 0.01602928996
v -0.02945995283 -0.005048886538 0.01602928996
v -0.02234383809 -0.005048886538 0.002646295356
v -0.0203578453 -0.004445176423 -0.001088671244
v -0.01225660484 0.0009511133283 -0.01199562994
v -0.01225660484 -0.007048886418 -0.01199562994
v -0.0102311317 -0.007048886418 -0.009967065744
v -0.0099431974 -0.007048886418 -0.007114940044
v -0.01152235156 -0.007048886418 -0.004722479144
v -0.01425808824 -0.007048886418 -0.003866122544
v -0.01691952436 -0.007048886418 -0.004931171644
v -0.01691952436 0.0009511133283 -0.004931171644
v -0.01425808824 0.0009511133283 -0.003866122544
v -0.01152235156 0.0009511133283 -0.004722479144
v -0.0099431974 0.0009511133283 -0.007114940044
v -0.0102311317 0.0009511133283 -0.009967065744
v 0.008155018463 0.0009511133283 -0.01040095524
v 0.007345524176 0.0009511133283 -0.01208189354
v 0.005526602146 0.0009511133283 -0.01249705024
v 0.00406793676 0.0009511133283 -0.01133380854
v 0.004067933486 0.0009511133283 -0.009468106844
v 0.005526594789 0.0009511133283 -0.008304869544
v 0.007345518276 0.0009511133283 -0.008720019844
v 0.003855018391 -0.004548886716 -0.01040096284
v 0.004664517983 -0.004548886716 -0.01208189824
v 0.006483442065 -0.004548886716 -0.01249704854
v 0.007942102772 -0.004548886716 -0.01133380174
v 0.007942099498 -0.004548886716 -0.009468100044
v 0.006483434708 -0.004548886716 -0.008304867944
v 0.004664512083 -0.004548886716 -0.008720024544
v 0.007942102772 -0.004548886716 -0.01133380174
v 0.008155018463 0.0009511133283 -0.01040095524
v 0.01416000009 0.0009511133283 2.765559648e-08
v 0.01335050639 0.0009511133283 -0.001680920144
v 0.01153158317 0.0009511133283 -0.002096076844
v 0.01007291838 0.0009511133283 -0.0009328256444
v 0.01007291511 0.0009511133283 0.0009328665556
v 0.01153157582 0.0009511133283 0.002096122856
v 0.01335050049 0.0009511133283 0.001680953456
v 0.009860000014 -0.004548886716 2.005559652e-08
v 0.0106695002 -0.004548886716 -0.001680924844
v 0.01248842369 -0.004548886716 -0.002096075144
v 0.0139470844 -0.004548886716 -0.0009328188444
v 0.01394708112 -0.004548886716 0.0009328733556
v 0.01248841633 -0.004548886716 0.002096124556
v 0.0106694943 -0.004548886716 0.001680948756
v 0.0139470844 -0.004548886716 -0.0009328188444
v 0.01416000009 0.0009511133283 2.765559648e-08
v -0.002137489205 -0.004239809215 0.01997390646
v -0.001990512936 -0.004288337231 0.02005498816
v -0.001990512936 -0.007048886418 0.02005498816
v -0.002039857489 -0.007048886418 0.02002859036
v -0.00208885246 -0.007048886418 0.02000156316
v -0.002137489205 -0.007048886418 0.01997390646
v -0.002718533205 -0.001048886701 0.01829917706
v -0.002718533205 -0.009048886895 0.01829917706
v -0.007849466398 -0.009048886895 0.01675219386
v -0.01232171811 -0.009048886895 0.01379945776
v -0.01576000364 -0.009048886895 0.009688772156
v -0.01787580134 -0.009048886895 0.004765043256
v -0.01849156759 -0.009048886895 -0.0005585204444
v -0.01849156759 -0.007048886418 -0.0005585204444
v -0.01793454609 -0.007048886418 0.004538946056
v -0.01599964341 -0.007048886418 0.009287694456
v -0.01283551528 -0.007048886418 0.01332288676
v -0.008685254511 -0.007048886418 0.01633452126
v -0.003867720226 -0.007048886418 0.01809117866
v -0.003867720226 -0.001048886701 0.01809117866
v -0.003486145433 -0.001048886701 0.01816856046
v -0.003103026568 -0.001048886701 0.01823791236
v 0.004263246482 -0.007048886418 0.01657105516
v 0.004425491623 -0.007048886418 0.01719050506
v 0.004930268959 -0.007048886418 0.01758454516
v 0.005570589426 -0.007048886418 0.01759156526
v 0.005570589426 0.0009511133283 0.01759156526
v 0.004930268959 0.0009511133283 0.01758454516
v 0.004425491623 0.0009511133283 0.01719050506
v 0.004263246482 0.0009511133283 0.01657105516
v 0.0075 -0.004048886597 1.595559651e-08
v 0.00664092616 -0.004048886597 -0.003485417244
v 0.004260496303 -0.004048886597 -0.006172379744
v 0.0009040382036 -0.004048886597 -0.007445311944
v -0.002659524293 -0.004048886597 -0.007012617144
v -0.005613821957 -0.004048886597 -0.004973437744
v -0.007282060215 -0.004048886597 -0.001794882244
v -0.007282066515 -0.004048886597 0.001794862256
v -0.005613839414 -0.004048886597 0.004973404456
v -0.002659548907 -0.004048886597 0.007012613356
v 0.0009040120713 -0.004048886597 0.007445320656
v 0.004260474638 -0.004048886597 0.006172381156
v 0.006640913926 -0.004048886597 0.003485427056
v 0.0075 -0.007048886418 1.595559651e-08
v 0.006640913926 -0.007048886418 0.003485427056
v 0.004260474638 -0.007048886418 0.006172381156
v 0.0009040120713 -0.007048886418 0.007445320656
v -0.002659548907 -0.007048886418 0.007012613356
v -0.005613839414 -0.007048886418 0.004973404456
v -0.007282066515 -0.007048886418 0.001794862256
v -0.007282060215 -0.007048886418 -0.001794882244
v -0.005613821957 -0.007048886418 -0.004973437744
v -0.002659524293 -0.007048886418 -0.007012617144
v 0.0009040382036 -0.007048886418 -0.007445311944
v 0.004260496303 -0.007048886418 -0.006172379744
v 0.00664092616 -0.007048886418 -0.003485417244
v 0.0075 -0.004048886597 1.595559651e-08
v 0.0075 -0.007048886418 1.595559651e-08
v -0.005557403592 0.0009511133283 -0.01764554724
v -0.005557403592 -0.007048886418 -0.01764554724
v -0.008059666139 -0.007048886418 -0.01665208044
v -0.01039123829 -0.007048886418 -0.01530595414
v -0.01250274053 -0.007048886418 -0.01363567364
v -0.01250274053 0.0009511133283 -0.01363567364
v -0.01039123829 0.0009511133283 -0.01530595414
v -0.008059666139 0.0009511133283 -0.01665208044
v -0.009860000014 0.0009511133283 -1.454440351e-08
v -0.0106694943 0.0009511133283 -0.001680962344
v -0.01248841633 0.0009511133283 -0.002096119044
v -0.01394708112 0.0009511133283 -0.0009328677444
v -0.0139470844 0.0009511133283 0.0009328243556
v -0.01248842369 0.0009511133283 0.002096080756
v -0.0106695002 0.0009511133283 0.001680911356
v -0.01416000009 -0.004548886716 -2.204440352e-08
v -0.01335050049 -0.004548886716 -0.001680967044
v -0.01153157582 -0.004548886716 -0.002096117344
v -0.01007291511 -0.004548886716 -0.0009328609444
v -0.01007291838 -0.004548886716 0.0009328311556
v -0.01153158317 -0.004548886716 0.002096082356
v -0.01335050639 -0.004548886716 0.001680906656
v -0.01007291511 -0.004548886716 -0.0009328609444
v -0.009860000014 0.0009511133283 -1.454440351e-08
v -0.002555705363 -0.009048886895 0.02023912256
v -0.001930569909 -0.009048886895 0.01964319166
v -0.002002806992 -0.009048886895 0.01878255766
v -0.002718533205 -0.009048886895 0.01829917706
v -0.002718533205 -0.001048886701 0.01829917706
v -0.002714441049 -0.00105738394 0.01829978746
v -0.001994639989 -0.002797117829 0.01879672936
v -0.002137489205 -0.004239809215 0.01997390646
v -0.002137489205 -0.007048886418 0.01997390646
v -0.002261427425 -0.007048886418 0.02008525726
v -0.002402134925 -0.007048886418 0.02017448286
v -0.002555705363 -0.007048886418 0.02023912256
v -0.003855018391 0.0009511133283 0.01040095886
v -0.004664512083 0.0009511133283 0.008720011056
v -0.006483434708 0.0009511133283 0.008304854356
v -0.007942099498 0.0009511133283 0.009468105556
v -0.007942102772 0.0009511133283 0.01133379776
v -0.006483442065 0.0009511133283 0.01249705406
v -0.004664517983 0.0009511133283 0.01208190376
v -0.008155018463 -0.004548886716 0.01040095126
v -0.007345518276 -0.004548886716 0.008720006356
v -0.005526594789 -0.004548886716 0.008304856056
v -0.004067933486 -0.004548886716 0.009468112356
v -0.00406793676 -0.004548886716 0.01133380456
v -0.005526602146 -0.004548886716 0.01249705576
v -0.007345524176 -0.004548886716 0.01208189906
v -0.004067933486 -0.004548886716 0.009468112356
v -0.003855018391 0.0009511133283 0.01040095886
v 0.01250274053 -0.007048886418 0.01363566006
v 0.01250274053 0.0009511133283 0.01363566006
v 0.01080567705 0.0009511133283 0.01501623416
v 0.008957507217 0.0009511133283 0.01618680896
v 0.006984076834 0.0009511133283 0.01713103846
v 0.006984076834 -0.007048886418 0.01713103846
v 0.008957507217 -0.007048886418 0.01618680896
v 0.01080567705 -0.007048886418 0.01501623416
v -0.002718533205 -0.009048886895 0.01829917706
v -0.002002806992 -0.009048886895 0.01878255766
v -0.001930569909 -0.009048886895 0.01964319166
v -0.002555705363 -0.009048886895 0.02023912256
v -0.007013842384 -0.009048886895 0.02169159886
v -0.007007729123 -0.009048886895 0.02089306836
v -0.007314513531 -0.009048886895 0.02015580126
v -0.007885288418 -0.009048886895 0.01959732856
v -0.01637757871 -0.009048886895 0.01411179806
v -0.01669042656 -0.009048886895 0.01397855016
v -0.01702984041 -0.009048886895 0.01395783576
v -0.01735657178 -0.009048886895 0.01405205816
v -0.01649066568 -0.009048886895 0.01562663326
v -0.01553141397 -0.009048886895 0.01925715856
v -0.0164648732 -0.009048886895 0.02289437546
v -0.01905389155 -0.009048886895 0.02561426916
v -0.02031018771 -0.009048886895 0.02602356486
v -0.02374407411 -0.009048886895 0.02649335786
v -0.02700365695 -0.009048886895 0.02531546896
v -0.02934401215 -0.009048886895 0.02275910276
v -0.03023029157 -0.009048886895 0.01940846186
v -0.02945995283 -0.009048886895 0.01602928996
v -0.02037405305 -0.009048886895 -0.001058191844
v -0.01967773996 -0.009048886895 -0.001571152944
v -0.01884183647 -0.009048886895 -0.001349269644
v -0.01849156759 -0.009048886895 -0.0005585204444
v -0.01787580134 -0.009048886895 0.004765043256
v -0.01576000364 -0.009048886895 0.009688772156
v -0.01232171811 -0.009048886895 0.01379945776
v -0.007849466398 -0.009048886895 0.01675219386
v -0.02823136614 -0.009048886895 0.01928357216
v -0.02739795276 -0.009048886895 0.02212193726
v -0.02516230514 -0.009048886895 0.02405915886
v -0.02223422294 -0.009048886895 0.02448015406
v -0.01954335478 -0.009048886895 0.02325127306
v -0.01794403144 -0.009048886895 0.02076270096
v -0.01794402624 -0.009048886895 0.01780449856
v -0.01954334086 -0.009048886895 0.01531590166
v -0.0222342047 -0.009048886895 0.01408703036
v -0.02516228838 -0.009048886895 0.01450801526
v -0.02739794279 -0.009048886895 0.01644520996
v 0.005570589426 0.0009511133283 0.01759156526
v 0.005570589426 -0.007048886418 0.01759156526
v 0.006984076834 -0.007048886418 0.01713103846
v 0.006984076834 0.0009511133283 0.01713103846
v -0.007013842384 -0.009048886895 0.02169159886
v -0.008660692839 -0.01004888654 0.02222813316
v -0.008095197124 -0.01004888654 0.02176096726
v -0.008000632482 -0.01004888654 0.02103356186
v -0.008427878126 -0.01004888654 0.02043732396
v -0.008355185296 -0.009548886418 0.02032479056
v -0.008156583272 -0.009182861447 0.02001732626
v -0.007885288418 -0.009048886895 0.01959732856
v -0.007314513531 -0.009048886895 0.02015580126
v -0.007007729123 -0.009048886895 0.02089306836
v -0.01659908328 -0.009136009812 0.01445471986
v -0.01735657178 -0.009048886895 0.01405205816
v -0.01702984041 -0.009048886895 0.01395783576
v -0.01669042656 -0.009048886895 0.01397855016
v -0.01637757871 -0.009048886895 0.01411179806
v -0.01645338648 -0.009058694839 0.01422915706
v -0.01652770652 -0.009087927341 0.01434422736
v -0.01905389155 -0.01754888654 0.02561426916
v -0.01659491066 -0.01754888654 0.02311969026
v -0.01554773106 -0.01754888654 0.01977710176
v -0.01614384298 -0.01754888654 0.01632541006
v -0.01613819188 -0.01754888654 0.01599528616
v -0.01588625578 -0.01754888654 0.01578187336
v -0.01555969155 -0.01754888654 0.01583058766
v -0.01692016841 -0.01754888654 0.01495179346
v -0.01984903388 -0.01754888654 0.01252407686
v -0.02359464581 -0.01754888654 0.01185888246
v -0.02718034664 -0.01754888654 0.01312964716
v -0.02967117734 -0.01754888654 0.01600502806
v -0.03041766054 -0.01754888654 0.01973528566
v -0.02922515437 -0.01754888654 0.02334776796
v -0.0264046003 -0.01754888654 0.02590053016
v -0.02269144696 -0.01754888654 0.02672794456
v -0.02823136614 -0.01754888654 0.01928357216
v -0.02739794279 -0.01754888654 0.01644520996
v -0.02516228838 -0.01754888654 0.01450801526
v -0.0222342047 -0.01754888654 0.01408703036
v -0.01954334086 -0.01754888654 0.01531590166
v -0.01794402624 -0.01754888654 0.01780449856
v -0.01794403144 -0.01754888654 0.02076270096
v -0.01954335478 -0.01754888654 0.02325127306
v -0.02223422294 -0.01754888654 0.02448015406
v -0.02516230514 -0.01754888654 0.02405915886
v -0.02739795276 -0.01754888654 0.02212193726
v -0.01905389155 -0.01754888654 0.02561426916
v -0.02269144696 -0.01754888654 0.02672794456
v -0.0264046003 -0.01754888654 0.02590053016
v -0.02922515437 -0.01754888654 0.02334776796
v -0.03041766054 -0.01754888654 0.01973528566
v -0.02967117734 -0.01754888654 0.01600502806
v -0.02718034664 -0.01754888654 0.01312964716
v -0.02359464581 -0.01754888654 0.01185888246
v -0.01984903388 -0.01754888654 0.01252407686
v -0.01692016841 -0.01754888654 0.01495179346
v -0.01692016841 -0.0215488863 0.01495179346
v -0.01984903388 -0.0215488863 0.01252407686
v -0.02359464581 -0.0215488863 0.01185888246
v -0.02718034664 -0.0215488863 0.01312964716
v -0.02967117734 -0.0215488863 0.01600502806
v -0.03041766054 -0.0215488863 0.01973528566
v -0.02922515437 -0.0215488863 0.02334776796
v -0.0264046003 -0.0215488863 0.02590053016
v -0.02269144696 -0.0215488863 0.02672794456
v -0.01905389155 -0.0215488863 0.02561426916
v -0.008427878126 -0.01004888654 0.02043732396
v -0.008000632482 -0.01004888654 0.02103356186
v -0.008095197124 -0.01004888654 0.02176096726
v -0.008660692839 -0.01004888654 0.02222813316
v -0.008660692839 -0.0215488863 0.02222813316
v -0.008095197124 -0.0215488863 0.02176096726
v -0.008000632482 -0.0215488863 0.02103356186
v -0.008427878126 -0.0215488863 0.02043732396
v -0.01555969155 -0.01754888654 0.01583058766
v -0.01555969155 -0.01004888654 0.01583058766
v -0.008427878126 -0.01004888654 0.02043732396
v -0.008427878126 -0.0215488863 0.02043732396
v -0.01692016841 -0.0215488863 0.01495179346
v -0.01692016841 -0.01754888654 0.01495179346
v -0.02823136614 -0.0215488863 0.01928357216
v -0.02739794279 -0.0215488863 0.01644520996
v -0.02516228838 -0.0215488863 0.01450801526
v -0.0222342047 -0.0215488863 0.01408703036
v -0.01954334086 -0.0215488863 0.01531590166
v -0.01794402624 -0.0215488863 0.01780449856
v -0.01794403144 -0.0215488863 0.02076270096
v -0.01954335478 -0.0215488863 0.02325127306
v -0.02223422294 -0.0215488863 0.02448015406
v -0.02516230514 -0.0215488863 0.02405915886
v -0.02739795276 -0.0215488863 0.02212193726
v -0.02823136614 -0.01754888654 0.01928357216
v -0.02739795276 -0.01754888654 0.02212193726
v -0.02516230514 -0.01754888654 0.02405915886
v -0.02223422294 -0.01754888654 0.02448015406
v -0.01954335478 -0.01754888654 0.02325127306
v -0.01794403144 -0.01754888654 0.02076270096
v -0.01794402624 -0.01754888654 0.01780449856
v -0.01954334086 -0.01754888654 0.01531590166
v -0.0222342047 -0.01754888654 0.01408703036
v -0.02516228838 -0.01754888654 0.01450801526
v -0.02739794279 -0.01754888654 0.01644520996
v -0.02823136614 -0.0215488863 0.01928357216
v -0.02823136614 -0.01754888654 0.01928357216
v -0.008427878126 -0.0215488863 0.02043732396
v -0.008000632482 -0.0215488863 0.02103356186
v -0.008095197124 -0.0215488863 0.02176096726
v -0.008660692839 -0.0215488863 0.02222813316
v -0.01905389155 -0.0215488863 0.02561426916
v -0.02269144696 -0.0215488863 0.02672794456
v -0.0264046003 -0.0215488863 0.02590053016
v -0.02922515437 -0.0215488863 0.02334776796
v -0.03041766054 -0.0215488863 0.01973528566
v -0.02967117734 -0.0215488863 0.01600502806
v -0.02718034664 -0.0215488863 0.01312964716
v -0.02359464581 -0.0215488863 0.01185888246
v -0.01984903388 -0.0215488863 0.01252407686
v -0.01692016841 -0.0215488863 0.01495179346
v -0.02823136614 -0.0215488863 0.01928357216
v -0.02739795276 -0.0215488863 0.02212193726
v -0.02516230514 -0.0215488863 0.02405915886
v -0.02223422294 -0.0215488863 0.02448015406
v -0.01954335478 -0.0215488863 0.02325127306
v -0.01794403144 -0.0215488863 0.02076270096
v -0.01794402624 -0.0215488863 0.01780449856
v -0.01954334086 -0.0215488863 0.01531590166
v -0.0222342047 -0.0215488863 0.01408703036
v -0.02516228838 -0.0215488863 0.01450801526
v -0.02739794279 -0.0215488863 0.01644520996
v 0.008360000253 -0.004548886716 1.745559647e-08
v 0.009213933404 -0.004548886716 0.002346191256
v 0.01137617792 -0.004548886716 0.003594573856
v 0.01383499425 -0.004548886716 0.003161018756
v 0.01543987532 -0.004548886716 0.001248408656
v 0.0154398797 -0.004548886716 -0.001248348844
v 0.01383500535 -0.004548886716 -0.003160964644
v 0.01137619053 -0.004548886716 -0.003594528344
v 0.009213941638 -0.004548886716 -0.002346153344
v 0.008360000253 -0.007048886418 1.745559647e-08
v 0.009213941638 -0.007048886418 -0.002346153344
v 0.01137619053 -0.007048886418 -0.003594528344
v 0.01383500535 -0.007048886418 -0.003160964644
v 0.0154398797 -0.007048886418 -0.001248348844
v 0.01543987532 -0.007048886418 0.001248408656
v 0.01383499425 -0.007048886418 0.003161018756
v 0.01137617792 -0.007048886418 0.003594573856
v 0.009213933404 -0.007048886418 0.002346191256
v 0.008360000253 -0.004548886716 1.745559647e-08
v 0.008360000253 -0.007048886418 1.745559647e-08
v -1.754962063e-09 -0.004048886597 0.001000006556
v 0.0009510559381 -0.004048886597 0.0003090139556
v 0.0005877866638 -0.004048886597 -0.0008090171444
v -0.0005877838242 -0.004048886597 -0.0008090192444
v -0.0009510570227 -0.004048886597 0.0003090106556
v 0.0075 -0.004048886597 1.595559651e-08
v 0.006640913926 -0.004048886597 0.003485427056
v 0.004260474638 -0.004048886597 0.006172381156
v 0.0009040120713 -0.004048886597 0.007445320656
v -0.002659548907 -0.004048886597 0.007012613356
v -0.005613839414 -0.004048886597 0.004973404456
v -0.007282066515 -0.004048886597 0.001794862256
v -0.007282060215 -0.004048886597 -0.001794882244
v -0.005613821957 -0.004048886597 -0.004973437744
v -0.002659524293 -0.004048886597 -0.007012617144
v 0.0009040382036 -0.004048886597 -0.007445311944
v 0.004260496303 -0.004048886597 -0.006172379744
v 0.00664092616 -0.004048886597 -0.003485417244
v -0.002137489205 -0.007048886418 0.01997390646
v -0.00208885246 -0.007048886418 0.02000156316
v -0.002039857489 -0.007048886418 0.02002859036
v -0.001990512936 -0.007048886418 0.02005498816
v -0.002555705363 -0.007048886418 0.02023912256
v -0.002402134925 -0.007048886418 0.02017448286
v -0.002261427425 -0.007048886418 0.02008525726
v 0.008154981957 0.0009511133283 0.01040097996
v 0.007345487669 0.0009511133283 0.008720032156
v 0.00552656564 0.0009511133283 0.008304875456
v 0.004067900254 0.0009511133283 0.009468126656
v 0.00406789698 0.0009511133283 0.01133381886
v 0.005526558283 0.0009511133283 0.01249707516
v 0.007345481769 0.0009511133283 0.01208192486
v 0.003854981885 -0.004548886716 0.01040097236
v 0.004664481476 -0.004548886716 0.008720027456
v 0.006483405559 -0.004548886716 0.008304877156
v 0.007942066266 -0.004548886716 0.009468133456
v 0.007942062992 -0.004548886716 0.01133382566
v 0.006483398202 -0.004548886716 0.01249707686
v 0.004664475576 -0.004548886716 0.01208192016
v 0.007942066266 -0.004548886716 0.009468133456
v 0.008154981957 0.0009511133283 0.01040097996
v -0.006526229619 -0.005048886538 0.02153271766
v -0.01240460471 -0.005048886538 0.01877166756
v -0.01724947842 -0.005048886538 0.01444665066
v -0.02065719501 -0.005048886538 0.008917984856
v -0.02234383809 -0.005048886538 0.002646295356
v -0.02945995283 -0.005048886538 0.01602928996
v -0.03023029157 -0.005048886538 0.01940846186
v -0.02934401215 -0.005048886538 0.02275910276
v -0.02700365695 -0.005048886538 0.02531546896
v -0.02374407411 -0.005048886538 0.02649335786
v -0.02031018771 -0.005048886538 0.02602356486
v -0.02823136614 -0.005048886538 0.01928357216
v -0.02739794279 -0.005048886538 0.01644520996
v -0.02516228838 -0.005048886538 0.01450801526
v -0.0222342047 -0.005048886538 0.01408703036
v -0.01954334086 -0.005048886538 0.01531590166
v -0.01794402624 -0.005048886538 0.01780449856
v -0.01794403144 -0.005048886538 0.02076270096
v -0.01954335478 -0.005048886538 0.02325127306
v -0.02223422294 -0.005048886538 0.02448015406
v -0.02516230514 -0.005048886538 0.02405915886
v -0.02739795276 -0.005048886538 0.02212193726
v -0.01849156759 -0.009048886895 -0.0005585204444
v -0.01884183647 -0.009048886895 -0.001349269644
v -0.01967773996 -0.009048886895 -0.001571152944
v -0.02037405305 -0.009048886895 -0.001058191844
v -0.02037405305 -0.007048886418 -0.001058191844
v -0.01967773996 -0.007048886418 -0.001571152944
v -0.01884183647 -0.007048886418 -0.001349269644
v -0.01849156759 -0.007048886418 -0.0005585204444
v 0.01250274053 0.0009511133283 0.01363566006
v 0.01250274053 -0.007048886418 0.01363566006
v 0.01281130642 -0.007048886418 0.01307461406
v 0.01271627269 -0.007048886418 0.01244139316
v 0.01225660484 -0.007048886418 0.01199562596
v 0.01225660484 0.0009511133283 0.01199562596
v 0.01271627269 0.0009511133283 0.01244139316
v 0.01281130642 0.0009511133283 0.01307461406
v 0.005557465526 -0.007048886418 -0.01764552774
v 0.005557465526 0.0009511133283 -0.01764552774
v 0.008059724587 0.0009511133283 -0.01665205214
v 0.01039129202 0.0009511133283 -0.01530591774
v 0.01250278839 0.0009511133283 -0.01363562974
v 0.01250278839 -0.007048886418 -0.01363562974
v 0.01039129202 -0.007048886418 -0.01530591774
v 0.008059724587 -0.007048886418 -0.01665205214
v -0.009655018225 -0.004548886716 0.01040094866
v -0.008801084478 -0.004548886716 0.01274712246
v -0.00663884056 -0.004548886716 0.01399550506
v -0.004180023927 -0.004548886716 0.01356194996
v -0.002575142264 -0.004548886716 0.01164933986
v -0.002575137882 -0.004548886716 0.009152582356
v -0.004180012832 -0.004548886716 0.007239966556
v -0.006638827944 -0.004548886716 0.006806402856
v -0.008801076243 -0.004548886716 0.008054777856
v -0.009655018225 -0.007048886418 0.01040094866
v -0.008801076243 -0.007048886418 0.008054777856
v -0.006638827944 -0.007048886418 0.006806402856
v -0.004180012832 -0.007048886418 0.007239966556
v -0.002575137882 -0.007048886418 0.009152582356
v -0.002575142264 -0.007048886418 0.01164933986
v -0.004180023927 -0.007048886418 0.01356194996
v -0.00663884056 -0.007048886418 0.01399550506
v -0.008801084478 -0.007048886418 0.01274712246
v -0.009655018225 -0.004548886716 0.01040094866
v -0.009655018225 -0.007048886418 0.01040094866
v 0.009860000014 -0.004548886716 2.005559652e-08
v 0.0106694943 -0.004548886716 0.001680948756
v 0.01248841633 -0.004548886716 0.002096124556
v 0.01394708112 -0.004548886716 0.0009328733556
v 0.0139470844 -0.004548886716 -0.0009328188444
v 0.01248842369 -0.004548886716 -0.002096075144
v 0.0106695002 -0.004548886716 -0.001680924844
v 0.008360000253 -0.004548886716 1.745559647e-08
v 0.009213941638 -0.004548886716 -0.002346153344
v 0.01137619053 -0.004548886716 -0.003594528344
v 0.01383500535 -0.004548886716 -0.003160964644
v 0.0154398797 -0.004548886716 -0.001248348844
v 0.01543987532 -0.004548886716 0.001248408656
v 0.01383499425 -0.004548886716 0.003161018756
v 0.01137617792 -0.004548886716 0.003594573856
v 0.009213933404 -0.004548886716 0.002346191256
v -0.009654981718 -0.004548886716 -0.01040098654
v -0.008801047971 -0.004548886716 -0.008054803144
v -0.006638804054 -0.004548886716 -0.006806420644
v -0.004179987421 -0.004548886716 -0.007239975744
v -0.002575105758 -0.004548886716 -0.009152604944
v -0.002575101376 -0.004548886716 -0.01164934334
v -0.004179976326 -0.004548886716 -0.01356196864
v -0.006638791438 -0.004548886716 -0.01399552274
v -0.008801039736 -0.004548886716 -0.01274715734
v -0.009654981718 -0.007048886418 -0.01040098654
v -0.008801039736 -0.007048886418 -0.01274715734
v -0.006638791438 -0.007048886418 -0.01399552274
v -0.004179976326 -0.007048886418 -0.01356196864
v -0.002575101376 -0.007048886418 -0.01164934334
v -0.002575105758 -0.007048886418 -0.009152604944
v -0.004179987421 -0.007048886418 -0.007239975744
v -0.006638804054 -0.007048886418 -0.006806420644
v -0.008801047971 -0.007048886418 -0.008054803144
v -0.009654981718 -0.004548886716 -0.01040098654
v -0.009654981718 -0.007048886418 -0.01040098654
v -0.008154981957 -0.004548886716 -0.01040098394
v -0.007345487669 -0.004548886716 -0.008720045644
v -0.00552656564 -0.004548886716 -0.008304888944
v -0.004067900254 -0.004548886716 -0.009468121144
v -0.00406789698 -0.004548886716 -0.01133382284
v -0.005526558283 -0.004548886716 -0.01249706964
v -0.007345481769 -0.004548886716 -0.01208191934
v -0.009654981718 -0.004548886716 -0.01040098654
v -0.008801039736 -0.004548886716 -0.01274715734
v -0.006638791438 -0.004548886716 -0.01399552274
v -0.004179976326 -0.004548886716 -0.01356196864
v -0.002575101376 -0.004548886716 -0.01164934334
v -0.002575105758 -0.004548886716 -0.009152604944
v -0.004179987421 -0.004548886716 -0.007239975744
v -0.006638804054 -0.004548886716 -0.006806420644
v -0.008801047971 -0.004548886716 -0.008054803144
v -0.001990512936 -0.007048886418 0.02005498816
v -0.001990512936 -0.004288337231 0.02005498816
v -0.006526229619 -0.005048886538 0.02153271766
v -0.02031018771 -0.005048886538 0.02602356486
v -0.02031018771 -0.009048886895 0.02602356486
v -0.01905389155 -0.009048886895 0.02561426916
v -0.01905389155 -0.01754888654 0.02561426916
v -0.01905389155 -0.0215488863 0.02561426916
v -0.008660692839 -0.0215488863 0.02222813316
v -0.008660692839 -0.01004888654 0.02222813316
v -0.007013842384 -0.009048886895 0.02169159886
v -0.002555705363 -0.009048886895 0.02023912256
v -0.002555705363 -0.007048886418 0.02023912256
v -0.01555969155 -0.01754888654 0.01583058766
v -0.01588625578 -0.01754888654 0.01578187336
v -0.01613819188 -0.01754888654 0.01599528616
v -0.01614384298 -0.01754888654 0.01632541006
v -0.01614384298 -0.01004888654 0.01632541006
v -0.01613819188 -0.01004888654 0.01599528616
v -0.01588625578 -0.01004888654 0.01578187336
v -0.01555969155 -0.01004888654 0.01583058766
v 0.01225660484 0.0009511133283 0.01199562596
v 0.01225660484 -0.007048886418 0.01199562596
v 0.01027602576 -0.007048886418 0.01005891976
v 0.009899080672 -0.007048886418 0.007314587756
v 0.01128413887 -0.007048886418 0.004915603356
v 0.0138492862 -0.007048886418 0.003869884856
v 0.01651680494 -0.007048886418 0.004616769156
v 0.01651680494 0.0009511133283 0.004616769156
v 0.0138492862 0.0009511133283 0.003869884856
v 0.01128413887 0.0009511133283 0.004915603356
v 0.009899080672 0.0009511133283 0.007314587756
v 0.01027602576 0.0009511133283 0.01005891976
v 0.01806020606 0.0009511133283 -0.004009860844
v 0.01806020606 -0.007048886418 -0.004009860844
v 0.01772859896 -0.007048886418 -0.004557613844
v 0.01713269717 -0.007048886418 -0.004791913544
v 0.01651682114 -0.007048886418 -0.004616724644
v 0.01651682114 0.0009511133283 -0.004616724644
v 0.01713269717 0.0009511133283 -0.004791913544
v 0.01772859896 0.0009511133283 -0.004557613844
v -0.01565999985 -0.004548886716 -2.474440353e-08
v -0.0148060661 -0.004548886716 0.002346149156
v -0.01264382159 -0.004548886716 0.003594531656
v -0.01018500525 -0.004548886716 0.003160976556
v -0.008580124185 -0.004548886716 0.001248366456
v -0.008580119803 -0.004548886716 -0.001248391044
v -0.01018499416 -0.004548886716 -0.003161006744
v -0.01264380897 -0.004548886716 -0.003594570544
v -0.01480605787 -0.004548886716 -0.002346195544
v -0.01565999985 -0.007048886418 -2.474440353e-08
v -0.01480605787 -0.007048886418 -0.002346195544
v -0.01264380897 -0.007048886418 -0.003594570544
v -0.01018499416 -0.007048886418 -0.003161006744
v -0.008580119803 -0.007048886418 -0.001248391044
v -0.008580124185 -0.007048886418 0.001248366456
v -0.01018500525 -0.007048886418 0.003160976556
v -0.01264382159 -0.007048886418 0.003594531656
v -0.0148060661 -0.007048886418 0.002346149156
v -0.01565999985 -0.004548886716 -2.474440353e-08
v -0.01565999985 -0.007048886418 -2.474440353e-08
v -0.008155018463 -0.004548886716 0.01040095126
v -0.007345524176 -0.004548886716 0.01208189906
v -0.005526602146 -0.004548886716 0.01249705576
v -0.00406793676 -0.004548886716 0.01133380456
v -0.004067933486 -0.004548886716 0.009468112356
v -0.005526594789 -0.004548886716 0.008304856056
v -0.007345518276 -0.004548886716 0.008720006356
v -0.009655018225 -0.004548886716 0.01040094866
v -0.008801076243 -0.004548886716 0.008054777856
v -0.006638827944 -0.004548886716 0.006806402856
v -0.004180012832 -0.004548886716 0.007239966556
v -0.002575137882 -0.004548886716 0.009152582356
v -0.002575142264 -0.004548886716 0.01164933986
v -0.004180023927 -0.004548886716 0.01356194996
v -0.00663884056 -0.004548886716 0.01399550506
v -0.008801084478 -0.004548886716 0.01274712246
v 0.001000000015 0.0009511133283 4.555596511e-09
v 0.0003090186716 0.0009511133283 -0.0009510579444
v -0.0008090159412 0.0009511133283 -0.0005877862444
v -0.0008090180043 0.0009511133283 0.0005877889556
v 0.0003090153335 0.0009511133283 0.0009510645556
v -1.754962063e-09 -0.004048886597 0.001000006556
v -0.0009510570227 -0.004048886597 0.0003090106556
v -0.0005877838242 -0.004048886597 -0.0008090192444
v 0.0005877866638 -0.004048886597 -0.0008090171444
v 0.0009510559381 -0.004048886597 0.0003090139556
v -0.0008090159412 0.0009511133283 -0.0005877862444
v -0.0005877838242 -0.004048886597 -0.0008090192444
v 0.003855018391 -0.004548886716 -0.01040096284
v 0.004664512083 -0.004548886716 -0.008720024544
v 0.006483434708 -0.004548886716 -0.008304867944
v 0.007942099498 -0.004548886716 -0.009468100044
v 0.007942102772 -0.004548886716 -0.01133380174
v 0.006483442065 -0.004548886716 -0.01249704854
v 0.004664517983 -0.004548886716 -0.01208189824
v 0.002355018183 -0.004548886716 -0.01040096544
v 0.003208960016 -0.004548886716 -0.01274713634
v 0.00537120891 -0.004548886716 -0.01399550174
v 0.007830023724 -0.004548886716 -0.01356194754
v 0.009434898674 -0.004548886716 -0.01164932224
v 0.009434894292 -0.004548886716 -0.009152583844
v 0.007830012629 -0.004548886716 -0.007239954644
v 0.005371196294 -0.004548886716 -0.006806399544
v 0.003208951781 -0.004548886716 -0.008054782044
v 0.002354981676 -0.004548886716 0.01040096976
v 0.003208915274 -0.004548886716 0.01274714356
v 0.005371159788 -0.004548886716 0.01399552616
v 0.007829976123 -0.004548886716 0.01356197106
v 0.009434857786 -0.004548886716 0.01164936096
v 0.009434862168 -0.004548886716 0.009152603456
v 0.007829987218 -0.004548886716 0.007239987656
v 0.005371172404 -0.004548886716 0.006806423956
v 0.003208923509 -0.004548886716 0.008054798856
v 0.002354981676 -0.007048886418 0.01040096976
v 0.003208923509 -0.007048886418 0.008054798856
v 0.005371172404 -0.007048886418 0.006806423956
v 0.007829987218 -0.007048886418 0.007239987656
v 0.009434862168 -0.007048886418 0.009152603456
v 0.009434857786 -0.007048886418 0.01164936096
v 0.007829976123 -0.007048886418 0.01356197106
v 0.005371159788 -0.007048886418 0.01399552616
v 0.003208915274 -0.007048886418 0.01274714356
v 0.002354981676 -0.004548886716 0.01040096976
v 0.002354981676 -0.007048886418 0.01040096976
v -0.01735657178 -0.009048886895 0.01405205816
v -0.01659908328 -0.009136009812 0.01445471986
v -0.01590900246 -0.009386634231 0.01530652396
v -0.01555969155 -0.01004888654 0.01583058766
v -0.01588625578 -0.01004888654 0.01578187336
v -0.01613819188 -0.01004888654 0.01599528616
v -0.01614384298 -0.01004888654 0.01632541006
v -0.01624649966 -0.0094344455 0.01609864526
v -0.01649066568 -0.009048886895 0.01562663326
v -0.01632110708 -0.009258288145 0.01490441596
v -0.01647996317 -0.009271122813 0.01500167136
v -0.01653156417 -0.009255327582 0.01503995176
v -0.01666172662 -0.009140200019 0.01516175486
v -0.01668582841 -0.009089092016 0.01519429416
v -0.01579650397 -0.009640176892 0.01559504876
v -0.01600095513 -0.009687687159 0.01563889836
v -0.01606840858 -0.009684978724 0.01567410786
v -0.0162337891 -0.009610706568 0.01583678536
v -0.01626064229 -0.00957095325 0.01589446356
v -0.02031018771 -0.005048886538 0.02602356486
v -0.02374407411 -0.005048886538 0.02649335786
v -0.02700365695 -0.005048886538 0.02531546896
v -0.02934401215 -0.005048886538 0.02275910276
v -0.03023029157 -0.005048886538 0.01940846186
v -0.02945995283 -0.005048886538 0.01602928996
v -0.02945995283 -0.009048886895 0.01602928996
v -0.03023029157 -0.009048886895 0.01940846186
v -0.02934401215 -0.009048886895 0.02275910276
v -0.02700365695 -0.009048886895 0.02531546896
v -0.02374407411 -0.009048886895 0.02649335786
v -0.02031018771 -0.009048886895 0.02602356486
v 0.01651680494 -0.007048886418 0.004616769156
v 0.01713268035 -0.007048886418 0.004791979256
v 0.01772858297 -0.007048886418 0.004557681556
v 0.01806019199 -0.007048886418 0.004009910756
v 0.01806019199 0.0009511133283 0.004009910756
v 0.01772858297 0.0009511133283 0.004557681556
v 0.01713268035 0.0009511133283 0.004791979256
v 0.01651680494 0.0009511133283 0.004616769156
v 0.01225664694 -0.007048886418 -0.01199558694
v 0.01225664694 0.0009511133283 -0.01199558694
v 0.01027606107 0.0009511133283 -0.01005888764
v 0.009899106345 0.0009511133283 -0.007314547444
v 0.01128415613 0.0009511133283 -0.004915558144
v 0.01384929978 0.0009511133283 -0.003869830744
v 0.01651682114 0.0009511133283 -0.004616724644
v 0.01651682114 -0.007048886418 -0.004616724644
v 0.01384929978 -0.007048886418 -0.003869830744
v 0.01128415613 -0.007048886418 -0.004915558144
v 0.009899106345 -0.007048886418 -0.007314547444
v 0.01027606107 -0.007048886418 -0.01005888764
v 0.002355018183 -0.004548886716 -0.01040096544
v 0.003208951781 -0.004548886716 -0.008054782044
v 0.005371196294 -0.004548886716 -0.006806399544
v 0.007830012629 -0.004548886716 -0.007239954644
v 0.009434894292 -0.004548886716 -0.009152583844
v 0.009434898674 -0.004548886716 -0.01164932224
v 0.007830023724 -0.004548886716 -0.01356194754
v 0.00537120891 -0.004548886716 -0.01399550174
v 0.003208960016 -0.004548886716 -0.01274713634
v 0.002355018183 -0.007048886418 -0.01040096544
v 0.003208960016 -0.007048886418 -0.01274713634
v 0.00537120891 -0.007048886418 -0.01399550174
v 0.007830023724 -0.007048886418 -0.01356194754
v 0.009434898674 -0.007048886418 -0.01164932224
v 0.009434894292 -0.007048886418 -0.009152583844
v 0.007830012629 -0.007048886418 -0.007239954644
v 0.005371196294 -0.007048886418 -0.006806399544
v 0.003208951781 -0.007048886418 -0.008054782044
v 0.002355018183 -0.004548886716 -0.01040096544
v 0.002355018183 -0.007048886418 -0.01040096544
v -0.01416000009 -0.004548886716 -2.204440352e-08
v -0.01335050639 -0.004548886716 0.001680906656
v -0.01153158317 -0.004548886716 0.002096082356
v -0.01007291838 -0.004548886716 0.0009328311556
v -0.01007291511 -0.004548886716 -0.0009328609444
v -0.01153157582 -0.004548886716 -0.002096117344
v -0.01335050049 -0.004548886716 -0.001680967044
v -0.01565999985 -0.004548886716 -2.474440353e-08
v -0.01480605787 -0.004548886716 -0.002346195544
v -0.01264380897 -0.004548886716 -0.003594570544
v -0.01018499416 -0.004548886716 -0.003161006744
v -0.008580119803 -0.004548886716 -0.001248391044
v -0.008580124185 -0.004548886716 0.001248366456
v -0.01018500525 -0.004548886716 0.003160976556
v -0.01264382159 -0.004548886716 0.003594531656
v -0.0148060661 -0.004548886716 0.002346149156
v 0.01225664694 -0.007048886418 -0.01199558694
v 0.01271631636 -0.007048886418 -0.01244134304
v 0.01281135231 -0.007048886418 -0.01307456354
v 0.01250278839 -0.007048886418 -0.01363562974
v 0.01250278839 0.0009511133283 -0.01363562974
v 0.01281135231 0.0009511133283 -0.01307456354
v 0.01271631636 0.0009511133283 -0.01244134304
v 0.01225664694 0.0009511133283 -0.01199558694
v 0.003854981885 -0.004548886716 0.01040097236
v 0.004664475576 -0.004548886716 0.01208192016
v 0.006483398202 -0.004548886716 0.01249707686
v 0.007942062992 -0.004548886716 0.01133382566
v 0.007942066266 -0.004548886716 0.009468133456
v 0.006483405559 -0.004548886716 0.008304877156
v 0.004664481476 -0.004548886716 0.008720027456
v 0.002354981676 -0.004548886716 0.01040096976
v 0.003208923509 -0.004548886716 0.008054798856
v 0.005371172404 -0.004548886716 0.006806423956
v 0.007829987218 -0.004548886716 0.007239987656
v 0.009434862168 -0.004548886716 0.009152603456
v 0.009434857786 -0.004548886716 0.01164936096
v 0.007829976123 -0.004548886716 0.01356197106
v 0.005371159788 -0.004548886716 0.01399552616
v 0.003208915274 -0.004548886716 0.01274714356
v -0.01649066568 -0.009048886895 0.01562663326
v -0.01624649966 -0.0094344455 0.01609864526
v -0.01614384298 -0.01004888654 0.01632541006
v -0.01614384298 -0.01754888654 0.01632541006
v -0.01554773106 -0.01754888654 0.01977710176
v -0.01659491066 -0.01754888654 0.02311969026
v -0.01905389155 -0.01754888654 0.02561426916
v -0.01905389155 -0.009048886895 0.02561426916
v -0.0164648732 -0.009048886895 0.02289437546
v -0.01553141397 -0.009048886895 0.01925715856
v 0.01806019199 0.0009511133283 0.004009910756
v 0.01806019199 -0.007048886418 0.004009910756
v 0.01845095756 -0.007048886418 0.001346165556
v 0.01845096228 -0.007048886418 -0.001346095244
v 0.01806020606 -0.007048886418 -0.004009860844
v 0.01806020606 0.0009511133283 -0.004009860844
v 0.01845096228 0.0009511133283 -0.001346095244
v 0.01845095756 0.0009511133283 0.001346165556
v -0.02823136614 -0.009048886895 0.01928357216
v -0.02739794279 -0.009048886895 0.01644520996
v -0.02516228838 -0.009048886895 0.01450801526
v -0.0222342047 -0.009048886895 0.01408703036
v -0.01954334086 -0.009048886895 0.01531590166
v -0.01794402624 -0.009048886895 0.01780449856
v -0.01794403144 -0.009048886895 0.02076270096
v -0.01954335478 -0.009048886895 0.02325127306
v -0.02223422294 -0.009048886895 0.02448015406
v -0.02516230514 -0.009048886895 0.02405915886
v -0.02739795276 -0.009048886895 0.02212193726
v -0.02823136614 -0.005048886538 0.01928357216
v -0.02739795276 -0.005048886538 0.02212193726
v -0.02516230514 -0.005048886538 0.02405915886
v -0.02223422294 -0.005048886538 0.02448015406
v -0.01954335478 -0.005048886538 0.02325127306
v -0.01794403144 -0.005048886538 0.02076270096
v -0.01794402624 -0.005048886538 0.01780449856
v -0.01954334086 -0.005048886538 0.01531590166
v -0.0222342047 -0.005048886538 0.01408703036
v -0.02516228838 -0.005048886538 0.01450801526
v -0.02739794279 -0.005048886538 0.01644520996
v -0.02823136614 -0.009048886895 0.01928357216
v -0.02823136614 -0.005048886538 0.01928357216
v -0.01555969155 -0.01004888654 0.01583058766
v -0.01590900246 -0.009386634231 0.01530652396
v -0.01659908328 -0.009136009812 0.01445471986
v -0.01652770652 -0.009087927341 0.01434422736
v -0.01645338648 -0.009058694839 0.01422915706
v -0.01637757871 -0.009048886895 0.01411179806
v -0.007885288418 -0.009048886895 0.01959732856
v -0.008156583272 -0.009182861447 0.02001732626
v -0.008355185296 -0.009548886418 0.02032479056
v -0.008427878126 -0.01004888654 0.02043732396
f 12 1 11
f 11 1 2
f 11 2 10
f 10 2 3
f 10 3 9
f 9 3 4
f 9 4 8
f 8 4 5
f 8 5 7
f 7 5 6
f 14 23 13
f 13 23 126
f 13 126 19
f 19 126 127
f 19 127 18
f 18 127 128
f 18 128 61
f 61 128 60
f 60 128 129
f 60 129 130
f 15 58 14
f 14 58 59
f 14 59 23
f 23 59 22
f 22 59 55
f 22 55 45
f 45 55 44
f 44 55 53
f 44 53 98
f 98 53 97
f 97 53 54
f 97 54 48
f 16 68 15
f 15 68 33
f 15 33 58
f 58 33 27
f 58 27 57
f 57 27 28
f 57 28 39
f 39 28 38
f 38 28 29
f 38 29 76
f 76 29 30
f 76 30 75
f 75 30 31
f 75 31 70
f 70 31 32
f 70 32 69
f 69 32 33
f 69 33 68
f 68 16 67
f 67 16 17
f 67 17 66
f 66 17 62
f 66 62 63
f 17 18 62
f 62 18 61
f 21 112 20
f 20 112 113
f 20 113 26
f 26 113 114
f 26 114 118
f 118 114 117
f 117 114 116
f 116 114 115
f 21 22 112
f 112 22 111
f 111 22 45
f 111 45 46
f 126 23 125
f 125 23 24
f 125 24 124
f 124 24 25
f 124 25 119
f 119 25 26
f 119 26 118
f 35 81 34
f 34 81 82
f 34 82 52
f 52 82 83
f 52 83 51
f 51 83 84
f 51 84 50
f 50 84 89
f 50 89 49
f 49 89 90
f 49 90 91
f 81 35 80
f 80 35 36
f 80 36 78
f 78 36 37
f 78 37 77
f 77 37 38
f 77 38 76
f 39 40 57
f 57 40 56
f 56 40 52
f 56 52 53
f 40 34 52
f 42 104 41
f 41 104 105
f 41 105 47
f 47 105 110
f 47 110 46
f 46 110 111
f 104 42 99
f 99 42 43
f 99 43 98
f 98 43 44
f 97 48 96
f 96 48 49
f 96 49 95
f 95 49 91
f 95 91 92
f 55 56 53
f 63 64 66
f 66 64 65
f 70 71 75
f 75 71 74
f 74 71 72
f 74 72 73
f 78 79 80
f 84 85 89
f 89 85 88
f 88 85 86
f 88 86 87
f 92 93 95
f 95 93 94
f 99 100 104
f 104 100 103
f 103 100 102
f 102 100 101
f 110 105 109
f 109 105 106
f 109 106 107
f 107 108 109
f 124 119 123
f 123 119 120
f 123 120 122
f 122 120 121
f 138 131 137
f 137 131 132
f 137 132 133
f 134 135 133
f 133 135 136
f 133 136 137
f 140 160 139
f 139 160 152
f 139 152 153
f 141 181 140
f 140 181 182
f 140 182 226
f 226 182 225
f 225 182 183
f 225 183 224
f 224 183 184
f 224 184 223
f 223 184 220
f 223 220 221
f 181 141 180
f 180 141 142
f 180 142 179
f 179 142 201
f 179 201 212
f 212 201 211
f 211 201 202
f 211 202 210
f 210 202 203
f 210 203 209
f 209 203 204
f 209 204 206
f 206 204 280
f 280 204 279
f 279 204 205
f 279 205 278
f 278 205 275
f 278 275 277
f 277 275 276
f 142 143 201
f 201 143 200
f 200 143 144
f 200 144 199
f 199 144 176
f 199 176 273
f 273 176 272
f 272 176 177
f 272 177 271
f 271 177 178
f 271 178 270
f 270 178 264
f 270 264 267
f 267 264 265
f 267 265 266
f 144 145 176
f 176 145 175
f 175 145 146
f 175 146 174
f 174 146 173
f 173 146 147
f 173 147 168
f 168 147 167
f 167 147 148
f 167 148 166
f 166 148 149
f 166 149 188
f 188 149 196
f 196 149 150
f 196 150 195
f 195 150 151
f 195 151 194
f 194 151 239
f 194 239 240
f 239 151 153
f 153 151 139
f 153 154 239
f 239 154 238
f 238 154 155
f 238 155 237
f 237 155 156
f 237 156 234
f 234 156 233
f 233 156 157
f 233 157 232
f 232 157 231
f 231 157 228
f 231 228 230
f 230 228 229
f 157 158 228
f 228 158 227
f 227 158 159
f 227 159 226
f 226 159 160
f 226 160 140
f 162 260 161
f 161 260 261
f 161 261 169
f 169 261 172
f 169 172 173
f 260 162 259
f 259 162 163
f 259 163 257
f 257 163 164
f 257 164 256
f 256 164 165
f 256 165 255
f 255 165 166
f 255 166 188
f 168 169 173
f 171 262 170
f 170 262 263
f 170 263 178
f 178 263 264
f 171 172 262
f 262 172 261
f 220 184 219
f 219 184 185
f 219 185 218
f 218 185 186
f 218 186 217
f 217 186 214
f 217 214 215
f 214 186 213
f 213 186 187
f 213 187 212
f 212 187 179
f 255 188 254
f 254 188 189
f 254 189 253
f 253 189 190
f 253 190 252
f 252 190 249
f 252 249 251
f 251 249 250
f 249 190 248
f 248 190 191
f 248 191 247
f 247 191 246
f 246 191 192
f 246 192 245
f 245 192 242
f 245 242 244
f 244 242 243
f 242 192 241
f 241 192 193
f 241 193 240
f 240 193 194
f 198 274 197
f 197 274 275
f 197 275 205
f 274 198 273
f 273 198 199
f 207 208 206
f 206 208 209
f 215 216 217
f 221 222 223
f 234 235 237
f 237 235 236
f 257 258 259
f 267 268 270
f 270 268 269
f 281 282 292
f 292 282 283
f 292 283 291
f 291 283 284
f 291 284 290
f 290 284 285
f 290 285 289
f 289 285 286
f 289 286 288
f 288 286 287
f 293 294 300
f 300 294 295
f 300 295 296
f 297 298 296
f 296 298 299
f 296 299 300
f 321 301 325
f 325 301 302
f 325 302 303
f 303 304 325
f 325 304 324
f 325 324 327
f 327 324 326
f 327 326 329
f 329 326 328
f 329 328 330
f 330 328 323
f 330 323 322
f 322 323 333
f 322 333 332
f 332 333 331
f 332 331 310
f 310 331 309
f 309 331 308
f 308 331 333
f 308 333 323
f 304 305 324
f 324 305 326
f 305 306 326
f 326 306 328
f 306 307 328
f 328 307 323
f 307 308 323
f 310 311 332
f 332 311 312
f 332 312 313
f 314 315 313
f 313 315 332
f 315 316 332
f 332 316 317
f 332 317 318
f 332 318 322
f 322 318 319
f 322 319 330
f 330 319 329
f 319 320 329
f 329 320 327
f 320 321 327
f 327 321 325
f 334 335 341
f 341 335 336
f 341 336 337
f 338 339 337
f 337 339 340
f 337 340 341
f 343 356 342
f 357 352 353
f 357 353 348
f 348 353 354
f 348 354 347
f 347 354 355
f 347 355 346
f 346 355 349
f 346 349 345
f 345 349 350
f 345 350 344
f 344 350 351
f 344 351 343
f 343 351 356
f 358 359 372
f 372 359 360
f 372 360 371
f 371 360 361
f 371 361 370
f 370 361 362
f 370 362 369
f 369 362 363
f 369 363 368
f 368 363 364
f 368 364 366
f 366 364 365
f 366 367 368
f 383 373 382
f 382 373 374
f 382 374 381
f 381 374 379
f 381 379 380
f 374 375 379
f 379 375 378
f 378 375 377
f 377 375 376
f 384 385 391
f 391 385 386
f 391 386 390
f 390 386 388
f 390 388 389
f 386 387 388
f 392 393 403
f 403 393 394
f 403 394 402
f 402 394 395
f 402 395 401
f 401 395 396
f 401 396 400
f 400 396 397
f 400 397 399
f 399 397 398
f 405 418 404
f 419 414 415
f 419 415 410
f 410 415 416
f 410 416 409
f 409 416 417
f 409 417 408
f 408 417 411
f 408 411 407
f 407 411 412
f 407 412 406
f 406 412 413
f 406 413 405
f 405 413 418
f 421 434 420
f 435 430 431
f 435 431 426
f 426 431 432
f 426 432 425
f 425 432 433
f 425 433 424
f 424 433 427
f 424 427 423
f 423 427 428
f 423 428 422
f 422 428 429
f 422 429 421
f 421 429 434
f 441 436 440
f 440 436 437
f 440 437 439
f 439 437 438
f 442 443 457
f 457 443 454
f 457 454 456
f 456 454 455
f 443 444 454
f 454 444 453
f 453 444 445
f 453 445 452
f 452 445 446
f 452 446 451
f 451 446 447
f 451 447 450
f 450 447 448
f 450 448 449
f 465 458 464
f 464 458 459
f 464 459 460
f 461 462 460
f 460 462 463
f 460 463 464
f 467 491 466
f 466 491 493
f 492 479 478
f 478 479 480
f 478 480 477
f 477 480 481
f 477 481 476
f 476 481 482
f 476 482 475
f 475 482 483
f 475 483 474
f 474 483 484
f 474 484 473
f 473 484 485
f 473 485 472
f 472 485 486
f 472 486 471
f 471 486 487
f 471 487 470
f 470 487 488
f 470 488 469
f 469 488 489
f 469 489 468
f 468 489 490
f 468 490 467
f 467 490 491
f 494 495 501
f 501 495 496
f 501 496 497
f 498 499 497
f 497 499 500
f 497 500 501
f 503 516 502
f 517 512 513
f 517 513 508
f 508 513 514
f 508 514 507
f 507 514 515
f 507 515 506
f 506 515 509
f 506 509 505
f 505 509 510
f 505 510 504
f 504 510 511
f 504 511 503
f 503 511 516
f 519 526 518
f 518 526 527
f 518 527 528
f 520 524 519
f 519 524 525
f 519 525 526
f 524 520 523
f 523 520 521
f 523 521 522
f 528 529 518
f 531 544 530
f 545 540 541
f 545 541 536
f 536 541 542
f 536 542 535
f 535 542 543
f 535 543 534
f 534 543 537
f 534 537 533
f 533 537 538
f 533 538 532
f 532 538 539
f 532 539 531
f 531 539 544
f 546 547 553
f 553 547 548
f 553 548 552
f 552 548 549
f 552 549 551
f 551 549 550
f 555 556 554
f 554 556 557
f 554 557 560
f 560 557 559
f 559 557 558
f 554 560 583
f 583 560 561
f 583 561 582
f 582 561 562
f 582 562 581
f 581 562 563
f 581 563 564
f 564 565 581
f 581 565 592
f 581 592 580
f 580 592 593
f 580 593 576
f 576 593 575
f 575 593 594
f 575 594 584
f 592 565 591
f 591 565 566
f 591 566 590
f 590 566 567
f 590 567 589
f 589 567 568
f 589 568 588
f 588 568 569
f 588 569 570
f 588 570 587
f 587 570 571
f 587 571 586
f 586 571 572
f 586 572 585
f 585 572 573
f 585 573 584
f 584 573 574
f 584 574 575
f 577 578 576
f 576 578 579
f 576 579 580
f 596 597 595
f 595 597 598
f 600 601 599
f 599 601 602
f 599 602 608
f 608 602 607
f 607 602 604
f 607 604 605
f 602 603 604
f 605 606 607
f 610 611 609
f 609 611 615
f 615 611 612
f 615 612 614
f 614 612 613
f 617 639 616
f 616 639 640
f 616 640 631
f 631 640 641
f 631 641 630
f 630 641 642
f 630 642 629
f 629 642 628
f 628 642 632
f 628 632 627
f 627 632 633
f 627 633 626
f 626 633 634
f 626 634 625
f 625 634 635
f 625 635 624
f 624 635 636
f 624 636 623
f 623 636 637
f 623 637 619
f 619 637 618
f 618 637 638
f 618 638 617
f 617 638 639
f 619 620 623
f 623 620 621
f 623 621 622
f 662 643 661
f 661 643 644
f 661 644 660
f 660 644 645
f 660 645 659
f 659 645 646
f 659 646 658
f 658 646 647
f 658 647 657
f 657 647 648
f 657 648 656
f 656 648 649
f 656 649 655
f 655 649 650
f 655 650 654
f 654 650 651
f 654 651 653
f 653 651 652
f 670 663 669
f 669 663 664
f 669 664 665
f 666 667 665
f 665 667 668
f 665 668 669
f 672 673 671
f 671 673 674
f 671 674 675
f 675 676 671
f 678 698 677
f 677 698 700
f 699 688 687
f 687 688 689
f 687 689 686
f 686 689 690
f 686 690 685
f 685 690 691
f 685 691 684
f 684 691 692
f 684 692 683
f 683 692 693
f 683 693 682
f 682 693 694
f 682 694 681
f 681 694 695
f 681 695 680
f 680 695 696
f 680 696 679
f 679 696 697
f 679 697 678
f 678 697 698
f 702 704 701
f 701 704 720
f 701 720 721
f 702 703 704
f 720 704 719
f 719 704 705
f 719 705 718
f 718 705 706
f 718 706 717
f 717 706 707
f 717 707 708
f 717 708 716
f 716 708 709
f 716 709 715
f 715 709 710
f 715 710 725
f 725 710 711
f 725 711 724
f 724 711 712
f 724 712 723
f 723 712 713
f 723 713 722
f 722 713 714
f 722 714 721
f 721 714 701
f 727 743 726
f 726 743 745
f 744 735 734
f 734 735 736
f 734 736 733
f 733 736 737
f 733 737 732
f 732 737 738
f 732 738 731
f 731 738 739
f 731 739 730
f 730 739 740
f 730 740 729
f 729 740 741
f 729 741 728
f 728 741 742
f 728 742 727
f 727 742 743
f 747 753 746
f 746 753 754
f 746 754 755
f 748 763 747
f 747 763 751
f 747 751 752
f 749 761 748
f 748 761 762
f 748 762 763
f 750 758 749
f 749 758 759
f 749 759 760
f 746 756 750
f 750 756 757
f 750 757 758
f 752 753 747
f 755 756 746
f 760 761 749
f 764 765 770
f 770 765 766
f 770 766 767
f 768 769 767
f 767 769 770
f 772 785 771
f 786 781 782
f 786 782 777
f 777 782 783
f 777 783 776
f 776 783 784
f 776 784 775
f 775 784 778
f 775 778 774
f 774 778 779
f 774 779 773
f 773 779 780
f 773 780 772
f 772 780 785
f 788 804 787
f 787 804 805
f 787 805 797
f 797 805 806
f 797 806 796
f 796 806 807
f 796 807 795
f 795 807 808
f 795 808 794
f 794 808 798
f 794 798 793
f 793 798 792
f 792 798 799
f 792 799 800
f 804 788 803
f 803 788 789
f 803 789 802
f 802 789 790
f 802 790 801
f 801 790 800
f 800 790 791
f 800 791 792
f 816 809 815
f 815 809 810
f 815 810 811
f 812 813 811
f 811 813 814
f 811 814 815
f 817 818 824
f 824 818 819
f 824 819 820
f 821 822 820
f 820 822 823
f 820 823 824
f 825 826 832
f 832 826 827
f 832 827 828
f 829 830 828
f 828 830 831
f 828 831 832
f 834 850 833
f 833 850 852
f 851 842 841
f 841 842 843
f 841 843 840
f 840 843 844
f 840 844 839
f 839 844 845
f 839 845 838
f 838 845 846
f 838 846 837
f 837 846 847
f 837 847 836
f 836 847 848
f 836 848 835
f 835 848 849
f 835 849 834
f 834 849 850
f 854 868 853
f 853 868 860
f 853 860 861
f 868 854 867
f 867 854 855
f 867 855 866
f 866 855 856
f 866 856 865
f 865 856 864
f 864 856 857
f 864 857 863
f 863 857 858
f 863 858 862
f 862 858 859
f 862 859 861
f 861 859 853
f 870 886 869
f 869 886 888
f 887 878 877
f 877 878 879
f 877 879 876
f 876 879 880
f 876 880 875
f 875 880 881
f 875 881 874
f 874 881 882
f 874 882 873
f 873 882 883
f 873 883 872
f 872 883 884
f 872 884 871
f 871 884 885
f 871 885 870
f 870 885 886
f 890 904 889
f 889 904 896
f 889 896 897
f 904 890 903
f 903 890 891
f 903 891 902
f 902 891 892
f 902 892 901
f 901 892 900
f 900 892 893
f 900 893 899
f 899 893 894
f 899 894 898
f 898 894 895
f 898 895 897
f 897 895 889
f 905 906 917
f 917 906 907
f 917 907 915
f 915 907 914
f 914 907 910
f 914 910 911
f 907 908 910
f 910 908 909
f 912 913 911
f 911 913 914
f 915 916 917
f 925 918 924
f 924 918 919
f 924 919 920
f 921 922 920
f 920 922 923
f 920 923 924
f 926 927 937
f 937 927 928
f 937 928 936
f 936 928 929
f 936 929 935
f 935 929 930
f 935 930 934
f 934 930 931
f 934 931 933
f 933 931 932
f 938 939 945
f 945 939 940
f 945 940 941
f 942 943 941
f 941 943 944
f 941 944 945
f 947 963 946
f 946 963 965
f 964 955 954
f 954 955 956
f 954 956 953
f 953 956 957
f 953 957 952
f 952 957 958
f 952 958 951
f 951 958 959
f 951 959 950
f 950 959 960
f 950 960 949
f 949 960 961
f 949 961 948
f 948 961 962
f 948 962 947
f 947 962 963
f 967 981 966
f 966 981 973
f 966 973 974
f 981 967 980
f 980 967 968
f 980 968 979
f 979 968 969
f 979 969 978
f 978 969 977
f 977 969 970
f 977 970 976
f 976 970 971
f 976 971 975
f 975 971 972
f 975 972 974
f 974 972 966
f 983 990 982
f 982 990 991
f 982 991 986
f 986 991 987
f 986 987 985
f 985 987 988
f 985 988 984
f 984 988 993
f 992 989 983
f 983 989 990
f 995 1009 994
f 994 1009 1001
f 994 1001 1002
f 1009 995 1008
f 1008 995 996
f 1008 996 1007
f 1007 996 997
f 1007 997 1006
f 1006 997 1005
f 1005 997 998
f 1005 998 1004
f 1004 998 999
f 1004 999 1003
f 1003 999 1000
f 1003 1000 1002
f 1002 1000 994
f 1011 1027 1010
f 1010 1027 1029
f 1028 1019 1018
f 1018 1019 1020
f 1018 1020 1017
f 1017 1020 1021
f 1017 1021 1016
f 1016 1021 1022
f 1016 1022 1015
f 1015 1022 1023
f 1015 1023 1014
f 1014 1023 1024
f 1014 1024 1013
f 1013 1024 1025
f 1013 1025 1012
f 1012 1025 1026
f 1012 1026 1011
f 1011 1026 1027
f 1031 1041 1030
f 1030 1041 1042
f 1030 1042 1043
f 1043 1042 1048
f 1043 1048 1038
f 1038 1048 1037
f 1037 1048 1036
f 1036 1048 1047
f 1036 1047 1035
f 1035 1047 1046
f 1035 1046 1045
f 1045 1046 1040
f 1045 1040 1039
f 1039 1040 1031
f 1039 1031 1032
f 1039 1032 1044
f 1044 1032 1033
f 1044 1033 1034
f 1044 1034 1045
f 1045 1034 1035
f 1038 1030 1043
f 1041 1031 1040
f 1044 1045 1039
f 1040 1046 1041
f 1041 1046 1047
f 1041 1047 1042
f 1042 1047 1048
f 1060 1049 1059
f 1059 1049 1050
f 1059 1050 1058
f 1058 1050 1051
f 1058 1051 1057
f 1057 1051 1052
f 1057 1052 1056
f 1056 1052 1053
f 1056 1053 1055
f 1055 1053 1054
f 1068 1061 1067
f 1067 1061 1062
f 1067 1062 1063
f 1064 1065 1063
f 1063 1065 1066
f 1063 1066 1067
f 1069 1070 1080
f 1080 1070 1071
f 1080 1071 1079
f 1079 1071 1072
f 1079 1072 1078
f 1078 1072 1073
f 1078 1073 1077
f 1077 1073 1074
f 1077 1074 1076
f 1076 1074 1075
f 1082 1098 1081
f 1081 1098 1100
f 1099 1090 1089
f 1089 1090 1091
f 1089 1091 1088
f 1088 1091 1092
f 1088 1092 1087
f 1087 1092 1093
f 1087 1093 1086
f 1086 1093 1094
f 1086 1094 1085
f 1085 1094 1095
f 1085 1095 1084
f 1084 1095 1096
f 1084 1096 1083
f 1083 1096 1097
f 1083 1097 1082
f 1082 1097 1098
f 1102 1116 1101
f 1101 1116 1108
f 1101 1108 1109
f 1116 1102 1115
f 1115 1102 1103
f 1115 1103 1114
f 1114 1103 1104
f 1114 1104 1113
f 1113 1104 1112
f 1112 1104 1105
f 1112 1105 1111
f 1111 1105 1106
f 1111 1106 1110
f 1110 1106 1107
f 1110 1107 1109
f 1109 1107 1101
f 1124 1117 1123
f 1123 1117 1118
f 1123 1118 1119
f 1120 1121 1119
f 1119 1121 1122
f 1119 1122 1123
f 1126 1140 1125
f 1125 1140 1132
f 1125 1132 1133
f 1140 1126 1139
f 1139 1126 1127
f 1139 1127 1138
f 1138 1127 1128
f 1138 1128 1137
f 1137 1128 1136
f 1136 1128 1129
f 1136 1129 1135
f 1135 1129 1130
f 1135 1130 1134
f 1134 1130 1131
f 1134 1131 1133
f 1133 1131 1125
f 1141 1142 1150
f 1150 1142 1143
f 1150 1143 1144
f 1144 1145 1150
f 1150 1145 1149
f 1149 1145 1146
f 1149 1146 1148
f 1148 1146 1147
f 1151 1152 1158
f 1158 1152 1153
f 1158 1153 1154
f 1155 1156 1154
f 1154 1156 1157
f 1154 1157 1158
f 1160 1180 1159
f 1159 1180 1182
f 1181 1170 1169
f 1169 1170 1171
f 1169 1171 1168
f 1168 1171 1172
f 1168 1172 1167
f 1167 1172 1173
f 1167 1173 1166
f 1166 1173 1174
f 1166 1174 1165
f 1165 1174 1175
f 1165 1175 1164
f 1164 1175 1176
f 1164 1176 1163
f 1163 1176 1177
f 1163 1177 1162
f 1162 1177 1178
f 1162 1178 1161
f 1161 1178 1179
f 1161 1179 1160
f 1160 1179 1180
f 1192 1183 1191
f 1191 1183 1184
f 1191 1184 1190
f 1190 1184 1185
f 1190 1185 1186
f 1190 1186 1189
f 1189 1186 1187
f 1189 1187 1188
