v -0.01000000043 -0.009331986904 -0.003499991304
v -0.1700000052 -0.009331986904 -0.003499991304
v -0.1700000052 -0.0118319869 -0.003499991304
v -0.01000000043 -0.0118319869 -0.003499991304
v -0.1700000052 -0.009331986904 -0.003499991304
v -0.1700000052 -0.009331986904 0.003499997196
v -0.1700000052 -0.0118319869 0.003499997196
v -0.1700000052 -0.0118319869 -0.003499991304
v -0.1700000052 -0.009331986904 0.003499997196
v -0.01000000043 -0.009331986904 0.003499997196
v -0.01000000043 -0.0118319869 0.003499997196
v -0.1700000052 -0.0118319869 0.003499997196
v -0.01000000043 -0.009331986904 0.003499997196
v -0.01000000043 -0.009331986904 -0.003499991304
v -0.01000000043 -0.0118319869 -0.003499991304
v -0.01000000043 -0.0118319869 0.003499997196
v -0.01000000043 -0.0118319869 0.003499997196
v -0.01000000043 -0.0118319869 -0.003499991304
v -0.1700000052 -0.0118319869 -0.003499991304
v -0.1700000052 -0.0118319869 0.003499997196
v -0.1700000052 -0.01733198762 -0.003499991304
v -0.01000000043 -0.01733198762 -0.003499991304
v -0.01000000043 -0.01483198762 -0.003499991304
v -0.1700000052 -0.01483198762 -0.003499991304
v -0.1700000052 -0.009331986904 -0.003499991304
v -0.01000000043 -0.009331986904 -0.003499991304
v -0.01000000043 -0.009331986904 0.003499997196
v -0.1700000052 -0.009331986904 0.003499997196
v -0.005249999005 -0.009331986904 -6.603867175e-09
v -0.004416580635 -0.009331986904 -0.002838370204
v -0.002180929625 -0.009331986904 -0.004775568904
v 0.0007471533153 -0.009331986904 -0.005196558904
v 0.003438019315 -0.009331986904 -0.003967692304
v 0.005037338295 -0.009331986904 -0.001479098204
v 0.005037338295 -0.009331986904 0.001479104096
v 0.003438019315 -0.009331986904 0.003967679096
v 0.0007471533153 -0.009331986904 0.005196564796
v -0.002180929625 -0.009331986904 0.004775574796
v -0.004416580635 -0.009331986904 0.002838357096
v -0.1852500014 -0.009331986904 -6.603867175e-09
v -0.1844165854 -0.009331986904 -0.002838370204
v -0.1821809249 -0.009331986904 -0.004775568904
v -0.1792528396 -0.009331986904 -0.005196558904
v -0.1765619903 -0.009331986904 -0.003967692304
v -0.1749626594 -0.009331986904 -0.001479098204
v -0.1749626594 -0.009331986904 0.001479104096
v -0.1765619903 -0.009331986904 0.003967679096
v -0.1792528396 -0.009331986904 0.005196564796
v -0.1821809249 -0.009331986904 0.004775574796
v -0.1844165854 -0.009331986904 0.002838357096
v -0.1750000052 -0.009331986904 -0.005250002804
v -0.1782567077 -0.009331986904 -0.007037283804
v -0.1819711356 -0.009331986904 -0.006976897104
v -0.1851680236 -0.009331986904 -0.005084692904
v -0.1870080237 -0.009331986904 -0.001857459004
v -0.1870080237 -0.009331986904 0.001857464896
v -0.1851680236 -0.009331986904 0.005084679696
v -0.1819711356 -0.009331986904 0.006976903096
v -0.1782567077 -0.009331986904 0.007037289696
v -0.1750000052 -0.009331986904 0.005250008696
v -0.005000000435 -0.009331986904 0.005250008696
v -0.001743288475 -0.009331986904 0.007037289696
v 0.001971134705 -0.009331986904 0.006976903096
v 0.005168025055 -0.009331986904 0.005084679696
v 0.007008020435 -0.009331986904 0.001857464896
v 0.007008020435 -0.009331986904 -0.001857459004
v 0.005168025055 -0.009331986904 -0.005084692904
v 0.001971134705 -0.009331986904 -0.006976897204
v -0.001743288475 -0.009331986904 -0.007037283804
v -0.005000000435 -0.009331986904 -0.005250002804
v -0.01000000043 -0.01733198762 -0.003499991304
v -0.01000000043 -0.01733198762 0.003499997196
v -0.01000000043 -0.01483198762 0.003499997196
v -0.01000000043 -0.01483198762 -0.003499991304
v -0.01000000043 -0.01733198762 -0.003499991304
v -0.1700000052 -0.01733198762 -0.003499991304
v -0.1700000052 -0.01733198762 0.003499997196
v -0.01000000043 -0.01733198762 0.003499997196
v -0.005249999005 -0.01733198762 -6.603867175e-09
v -0.004416580635 -0.01733198762 0.002838357096
v -0.002180929625 -0.01733198762 0.004775574796
v 0.0007471533153 -0.01733198762 0.005196564796
v 0.003438019315 -0.01733198762 0.003967679096
v 0.005037338295 -0.01733198762 0.001479104096
v 0.005037338295 -0.01733198762 -0.001479098204
v 0.003438019315 -0.01733198762 -0.003967692304
v 0.0007471533153 -0.01733198762 -0.005196558904
v -0.002180929625 -0.01733198762 -0.004775568904
v -0.004416580635 -0.01733198762 -0.002838370204
v -0.1852500014 -0.01733198762 -6.603867175e-09
v -0.1844165854 -0.01733198762 0.002838357096
v -0.1821809249 -0.01733198762 0.004775574796
v -0.1792528396 -0.01733198762 0.005196564796
v -0.1765619903 -0.01733198762 0.003967679096
v -0.1749626594 -0.01733198762 0.001479104096
v -0.1749626594 -0.01733198762 -0.001479098204
v -0.1765619903 -0.01733198762 -0.003967692304
v -0.1792528396 -0.01733198762 -0.005196558904
v -0.1821809249 -0.01733198762 -0.004775568904
v -0.1844165854 -0.01733198762 -0.002838370204
v -0.1750000052 -0.01733198762 0.005250008696
v -0.1782567077 -0.01733198762 0.007037289696
v -0.1819711356 -0.01733198762 0.006976903096
v -0.1851680236 -0.01733198762 0.005084679696
v -0.1870080237 -0.01733198762 0.001857464896
v -0.1870080237 -0.01733198762 -0.001857459004
v -0.1851680236 -0.01733198762 -0.005084692904
v -0.1819711356 -0.01733198762 -0.006976897104
v -0.1782567077 -0.01733198762 -0.007037283804
v -0.1750000052 -0.01733198762 -0.005250002804
v -0.005000000435 -0.01733198762 -0.005250002804
v -0.001743288475 -0.01733198762 -0.007037283804
v 0.001971134705 -0.01733198762 -0.006976897204
v 0.005168025055 -0.01733198762 -0.005084692904
v 0.007008020435 -0.01733198762 -0.001857459004
v 0.007008020435 -0.01733198762 0.001857464896
v 0.005168025055 -0.01733198762 0.005084679696
v 0.001971134705 -0.01733198762 0.006976903096
v -0.001743288475 -0.01733198762 0.007037289696
v -0.005000000435 -0.01733198762 0.005250008696
v -0.01000000043 -0.01733198762 0.003499997196
v -0.1700000052 -0.01733198762 0.003499997196
v -0.1700000052 -0.01483198762 0.003499997196
v -0.01000000043 -0.01483198762 0.003499997196
v -0.1700000052 -0.01733198762 0.003499997196
v -0.1700000052 -0.01733198762 -0.003499991304
v -0.1700000052 -0.01483198762 -0.003499991304
v -0.1700000052 -0.01483198762 0.003499997196
v -0.1700000052 -0.01483198762 0.003499997196
v -0.1700000052 -0.01483198762 -0.003499991304
v -0.01000000043 -0.01483198762 -0.003499991304
v -0.01000000043 -0.01483198762 0.003499997196
v 0.005250000515 -0.0118319869 -6.603867175e-09
v 0.004416580955 -0.0118319869 0.002838357096
v 0.002180928745 -0.0118319869 0.004775574796
v -0.0007471518147 -0.0118319869 0.005196564796
v -0.003438017805 -0.0118319869 0.003967679096
v -0.005037339175 -0.0118319869 0.001479104096
v -0.005037339175 -0.0118319869 -0.001479098204
v -0.003438017805 -0.0118319869 -0.003967692304
v -0.0007471518147 -0.0118319869 -0.005196558904
v 0.002180928745 -0.0118319869 -0.004775568904
v 0.004416580955 -0.0118319869 -0.002838370204
v -0.005249999005 -0.009331986904 -6.603867175e-09
v -0.004416580635 -0.009331986904 0.002838357096
v -0.002180929625 -0.009331986904 0.004775574796
v 0.0007471533153 -0.009331986904 0.005196564796
v 0.003438019315 -0.009331986904 0.003967679096
v 0.005037338295 -0.009331986904 0.001479104096
v 0.005037338295 -0.009331986904 -0.001479098204
v 0.003438019315 -0.009331986904 -0.003967692304
v 0.0007471533153 -0.009331986904 -0.005196558904
v -0.002180929625 -0.009331986904 -0.004775568904
v -0.004416580635 -0.009331986904 -0.002838370204
v -0.005037339175 -0.0118319869 0.001479104096
v -0.005249999005 -0.009331986904 -6.603867175e-09
v 0.002750000515 -0.0118319869 -6.603867175e-09
v 0.001944543875 -0.0118319869 0.001944535296
v -4.346525639e-10 -0.0118319869 0.002750008696
v -0.001944544755 -0.0118319869 0.001944535296
v -0.002749999005 -0.0118319869 -6.603867175e-09
v -0.001944544755 -0.0118319869 -0.001944548504
v -4.346525639e-10 -0.0118319869 -0.002750002804
v 0.001944543875 -0.0118319869 -0.001944548504
v 0.005250000515 -0.0118319869 -6.603867175e-09
v 0.004416580955 -0.0118319869 -0.002838370204
v 0.002180928745 -0.0118319869 -0.004775568904
v -0.0007471518147 -0.0118319869 -0.005196558904
v -0.003438017805 -0.0118319869 -0.003967692304
v -0.005037339175 -0.0118319869 -0.001479098204
v -0.005037339175 -0.0118319869 0.001479104096
v -0.003438017805 -0.0118319869 0.003967679096
v -0.0007471518147 -0.0118319869 0.005196564796
v 0.002180928745 -0.0118319869 0.004775574796
v 0.004416580955 -0.0118319869 0.002838357096
v -0.1747500091 -0.0118319869 -6.603867175e-09
v -0.175583425 -0.0118319869 0.002838357096
v -0.1778190665 -0.0118319869 0.004775574796
v -0.1807471518 -0.0118319869 0.005196564796
v -0.1834380202 -0.0118319869 0.003967679096
v -0.1850373321 -0.0118319869 0.001479104096
v -0.1850373321 -0.0118319869 -0.001479098204
v -0.1834380202 -0.0118319869 -0.003967692304
v -0.1807471518 -0.0118319869 -0.005196558904
v -0.1778190665 -0.0118319869 -0.004775568904
v -0.175583425 -0.0118319869 -0.002838370204
v -0.1852500014 -0.009331986904 -6.603867175e-09
v -0.1844165854 -0.009331986904 0.002838357096
v -0.1821809249 -0.009331986904 0.004775574796
v -0.1792528396 -0.009331986904 0.005196564796
v -0.1765619903 -0.009331986904 0.003967679096
v -0.1749626594 -0.009331986904 0.001479104096
v -0.1749626594 -0.009331986904 -0.001479098204
v -0.1765619903 -0.009331986904 -0.003967692304
v -0.1792528396 -0.009331986904 -0.005196558904
v -0.1821809249 -0.009331986904 -0.004775568904
v -0.1844165854 -0.009331986904 -0.002838370204
v -0.1850373321 -0.0118319869 0.001479104096
v -0.1852500014 -0.009331986904 -6.603867175e-09
v -0.005000000435 -0.009331986904 0.005250008696
v -0.1750000052 -0.009331986904 0.005250008696
v -0.1750000052 -0.01733198762 0.005250008696
v -0.005000000435 -0.01733198762 0.005250008696
v 0.002750000515 -0.0118319869 -6.603867175e-09
v 0.001944543875 -0.0118319869 -0.001944548504
v -4.346525639e-10 -0.0118319869 -0.002750002804
v -0.001944544755 -0.0118319869 -0.001944548504
v -0.002749999005 -0.0118319869 -6.603867175e-09
v -0.001944544755 -0.0118319869 0.001944535296
v -4.346525639e-10 -0.0118319869 0.002750008696
v 0.001944543875 -0.0118319869 0.001944535296
v 0.002750000515 -0.01483198762 -6.603867175e-09
v 0.001944543875 -0.01483198762 0.001944535296
v -4.346525639e-10 -0.01483198762 0.002750008696
v -0.001944544755 -0.01483198762 0.001944535296
v -0.002749999005 -0.01483198762 -6.603867175e-09
v -0.001944544755 -0.01483198762 -0.001944548504
v -4.346525639e-10 -0.01483198762 -0.002750002804
v 0.001944543875 -0.01483198762 -0.001944548504
v 0.002750000515 -0.01483198762 -6.603867175e-09
v 0.002750000515 -0.0118319869 -6.603867175e-09
v -0.1750000052 -0.009331986904 0.005250008696
v -0.1782567077 -0.009331986904 0.007037289696
v -0.1819711356 -0.009331986904 0.006976903096
v -0.1851680236 -0.009331986904 0.005084679696
v -0.1870080237 -0.009331986904 0.001857464896
v -0.1870080237 -0.009331986904 -0.001857459004
v -0.1851680236 -0.009331986904 -0.005084692904
v -0.1819711356 -0.009331986904 -0.006976897104
v -0.1782567077 -0.009331986904 -0.007037283804
v -0.1750000052 -0.009331986904 -0.005250002804
v -0.1750000052 -0.01733198762 -0.005250002804
v -0.1782567077 -0.01733198762 -0.007037283804
v -0.1819711356 -0.01733198762 -0.006976897104
v -0.1851680236 -0.01733198762 -0.005084692904
v -0.1870080237 -0.01733198762 -0.001857459004
v -0.1870080237 -0.01733198762 0.001857464896
v -0.1851680236 -0.01733198762 0.005084679696
v -0.1819711356 -0.01733198762 0.006976903096
v -0.1782567077 -0.01733198762 0.007037289696
v -0.1750000052 -0.01733198762 0.005250008696
v -0.005000000435 -0.009331986904 -0.005250002804
v -0.001743288475 -0.009331986904 -0.007037283804
v 0.001971134705 -0.009331986904 -0.006976897204
v 0.005168025055 -0.009331986904 -0.005084692904
v 0.007008020435 -0.009331986904 -0.001857459004
v 0.007008020435 -0.009331986904 0.001857464896
v 0.005168025055 -0.009331986904 0.005084679696
v 0.001971134705 -0.009331986904 0.006976903096
v -0.001743288475 -0.009331986904 0.007037289696
v -0.005000000435 -0.009331986904 0.005250008696
v -0.005000000435 -0.01733198762 0.005250008696
v -0.001743288475 -0.01733198762 0.007037289696
v 0.001971134705 -0.01733198762 0.006976903096
v 0.005168025055 -0.01733198762 0.005084679696
v 0.007008020435 -0.01733198762 0.001857464896
v 0.007008020435 -0.01733198762 -0.001857459004
v 0.005168025055 -0.01733198762 -0.005084692904
v 0.001971134705 -0.01733198762 -0.006976897204
v -0.001743288475 -0.01733198762 -0.007037283804
v -0.005000000435 -0.01733198762 -0.005250002804
v 0.002750000515 -0.01483198762 -6.603867175e-09
v 0.001944543875 -0.01483198762 -0.001944548504
v -4.346525639e-10 -0.01483198762 -0.002750002804
v -0.001944544755 -0.01483198762 -0.001944548504
v -0.002749999005 -0.01483198762 -6.603867175e-09
v -0.001944544755 -0.01483198762 0.001944535296
v -4.346525639e-10 -0.01483198762 0.002750008696
v 0.001944543875 -0.01483198762 0.001944535296
v 0.005250000515 -0.01483198762 -6.603867175e-09
v 0.004416580955 -0.01483198762 0.002838357096
v 0.002180928745 -0.01483198762 0.004775574796
v -0.0007471518147 -0.01483198762 0.005196564796
v -0.003438017805 -0.01483198762 0.003967679096
v -0.005037339175 -0.01483198762 0.001479104096
v -0.005037339175 -0.01483198762 -0.001479098204
v -0.003438017805 -0.01483198762 -0.003967692304
v -0.0007471518147 -0.01483198762 -0.005196558904
v 0.002180928745 -0.01483198762 -0.004775568904
v 0.004416580955 -0.01483198762 -0.002838370204
v -0.1750000052 -0.009331986904 -0.005250002804
v -0.005000000435 -0.009331986904 -0.005250002804
v -0.005000000435 -0.01733198762 -0.005250002804
v -0.1750000052 -0.01733198762 -0.005250002804
v -0.005249999005 -0.01733198762 -6.603867175e-09
v -0.004416580635 -0.01733198762 -0.002838370204
v -0.002180929625 -0.01733198762 -0.004775568904
v 0.0007471533153 -0.01733198762 -0.005196558904
v 0.003438019315 -0.01733198762 -0.003967692304
v 0.005037338295 -0.01733198762 -0.001479098204
v 0.005037338295 -0.01733198762 0.001479104096
v 0.003438019315 -0.01733198762 0.003967679096
v 0.0007471533153 -0.01733198762 0.005196564796
v -0.002180929625 -0.01733198762 0.004775574796
v -0.004416580635 -0.01733198762 0.002838357096
v 0.005250000515 -0.01483198762 -6.603867175e-09
v 0.004416580955 -0.01483198762 -0.002838370204
v 0.002180928745 -0.01483198762 -0.004775568904
v -0.0007471518147 -0.01483198762 -0.005196558904
v -0.003438017805 -0.01483198762 -0.003967692304
v -0.005037339175 -0.01483198762 -0.001479098204
v -0.005037339175 -0.01483198762 0.001479104096
v -0.003438017805 -0.01483198762 0.003967679096
v -0.0007471518147 -0.01483198762 0.005196564796
v 0.002180928745 -0.01483198762 0.004775574796
v 0.004416580955 -0.01483198762 0.002838357096
v -0.005037339175 -0.01483198762 -0.001479098204
v -0.005249999005 -0.01733198762 -6.603867175e-09
v -0.1852500014 -0.01733198762 -6.603867175e-09
v -0.1844165854 -0.01733198762 -0.002838370204
v -0.1821809249 -0.01733198762 -0.004775568904
v -0.1792528396 -0.01733198762 -0.005196558904
v -0.1765619903 -0.01733198762 -0.003967692304
v -0.1749626594 -0.01733198762 -0.001479098204
v -0.1749626594 -0.01733198762 0.001479104096
v -0.1765619903 -0.01733198762 0.003967679096
v -0.1792528396 -0.01733198762 0.005196564796
v -0.1821809249 -0.01733198762 0.004775574796
v -0.1844165854 -0.01733198762 0.002838357096
v -0.1747500091 -0.01483198762 -6.603867175e-09
v -0.175583425 -0.01483198762 -0.002838370204
v -0.1778190665 -0.01483198762 -0.004775568904
v -0.1807471518 -0.01483198762 -0.005196558904
v -0.1834380202 -0.01483198762 -0.003967692304
v -0.1850373321 -0.01483198762 -0.001479098204
v -0.1850373321 -0.01483198762 0.001479104096
v -0.1834380202 -0.01483198762 0.003967679096
v -0.1807471518 -0.01483198762 0.005196564796
v -0.1778190665 -0.01483198762 0.004775574796
v -0.175583425 -0.01483198762 0.002838357096
v -0.1850373321 -0.01483198762 -0.001479098204
v -0.1852500014 -0.01733198762 -6.603867175e-09
v -0.1772500091 -0.0118319869 -6.603867175e-09
v -0.1780554633 -0.0118319869 0.001944535296
v -0.1800000052 -0.0118319869 0.002750008696
v -0.1819445472 -0.0118319869 0.001944535296
v -0.1827500014 -0.0118319869 -6.603867175e-09
v -0.1819445472 -0.0118319869 -0.001944548504
v -0.1800000052 -0.0118319869 -0.002750002804
v -0.1780554633 -0.0118319869 -0.001944548504
v -0.1747500091 -0.0118319869 -6.603867175e-09
v -0.175583425 -0.0118319869 -0.002838370204
v -0.1778190665 -0.0118319869 -0.004775568904
v -0.1807471518 -0.0118319869 -0.005196558904
v -0.1834380202 -0.0118319869 -0.003967692304
v -0.1850373321 -0.0118319869 -0.001479098204
v -0.1850373321 -0.0118319869 0.001479104096
v -0.1834380202 -0.0118319869 0.003967679096
v -0.1807471518 -0.0118319869 0.005196564796
v -0.1778190665 -0.0118319869 0.004775574796
v -0.175583425 -0.0118319869 0.002838357096
v -0.1772500091 -0.0118319869 -6.603867175e-09
v -0.1780554633 -0.0118319869 -0.001944548504
v -0.1800000052 -0.0118319869 -0.002750002804
v -0.1819445472 -0.0118319869 -0.001944548504
v -0.1827500014 -0.0118319869 -6.603867175e-09
v -0.1819445472 -0.0118319869 0.001944535296
v -0.1800000052 -0.0118319869 0.002750008696
v -0.1780554633 -0.0118319869 0.001944535296
v -0.1772500091 -0.01483198762 -6.603867175e-09
v -0.1780554633 -0.01483198762 0.001944535296
v -0.1800000052 -0.01483198762 0.002750008696
v -0.1819445472 -0.01483198762 0.001944535296
v -0.1827500014 -0.01483198762 -6.603867175e-09
v -0.1819445472 -0.01483198762 -0.001944548504
v -0.1800000052 -0.01483198762 -0.002750002804
v -0.1780554633 -0.01483198762 -0.001944548504
v -0.1772500091 -0.01483198762 -6.603867175e-09
v -0.1772500091 -0.0118319869 -6.603867175e-09
v -0.1772500091 -0.01483198762 -6.603867175e-09
v -0.1780554633 -0.01483198762 -0.001944548504
v -0.1800000052 -0.01483198762 -0.002750002804
v -0.1819445472 -0.01483198762 -0.001944548504
v -0.1827500014 -0.01483198762 -6.603867175e-09
v -0.1819445472 -0.01483198762 0.001944535296
v -0.1800000052 -0.01483198762 0.002750008696
v -0.1780554633 -0.01483198762 0.001944535296
v -0.1747500091 -0.01483198762 -6.603867175e-09
v -0.175583425 -0.01483198762 0.002838357096
v -0.1778190665 -0.01483198762 0.004775574796
v -0.1807471518 -0.01483198762 0.005196564796
v -0.1834380202 -0.01483198762 0.003967679096
v -0.1850373321 -0.01483198762 0.001479104096
v -0.1850373321 -0.01483198762 -0.001479098204
v -0.1834380202 -0.01483198762 -0.003967692304
v -0.1807471518 -0.01483198762 -0.005196558904
v -0.1778190665 -0.01483198762 -0.004775568904
v -0.175583425 -0.01483198762 -0.002838370204
f 1 2 4
f 4 2 3
f 5 6 8
f 8 6 7
f 9 10 12
f 12 10 11
f 13 14 16
f 16 14 15
f 17 18 20
f 20 18 19
f 21 22 24
f 24 22 23
f 26 51 25
f 25 51 44
f 25 44 45
f 27 29 26
f 26 29 30
f 26 30 31
f 28 61 27
f 27 61 38
f 27 38 39
f 25 45 28
f 28 45 46
f 28 46 47
f 26 31 70
f 70 31 32
f 70 32 68
f 68 32 67
f 67 32 33
f 67 33 66
f 66 33 34
f 66 34 65
f 65 34 35
f 65 35 36
f 65 36 64
f 64 36 37
f 64 37 63
f 63 37 61
f 63 61 62
f 37 38 61
f 39 29 27
f 41 55 40
f 40 55 56
f 40 56 50
f 50 56 57
f 50 57 49
f 49 57 48
f 48 57 58
f 48 58 60
f 60 58 59
f 55 41 54
f 54 41 42
f 54 42 43
f 44 51 43
f 43 51 53
f 43 53 54
f 28 47 60
f 60 47 48
f 51 52 53
f 60 61 28
f 68 69 70
f 70 51 26
f 71 72 74
f 74 72 73
f 76 111 75
f 75 111 88
f 75 88 89
f 77 96 76
f 76 96 97
f 76 97 110
f 110 97 98
f 110 98 108
f 108 98 107
f 107 98 99
f 107 99 100
f 78 101 77
f 77 101 94
f 77 94 95
f 75 79 78
f 78 79 80
f 78 80 81
f 78 81 120
f 120 81 82
f 120 82 118
f 118 82 117
f 117 82 83
f 117 83 116
f 116 83 84
f 116 84 85
f 116 85 115
f 115 85 86
f 115 86 114
f 114 86 87
f 114 87 113
f 113 87 111
f 113 111 112
f 87 88 111
f 89 79 75
f 91 105 90
f 90 105 106
f 90 106 100
f 100 106 107
f 105 91 104
f 104 91 92
f 104 92 93
f 94 101 93
f 93 101 103
f 93 103 104
f 95 96 77
f 101 102 103
f 108 109 110
f 110 111 76
f 118 119 120
f 120 101 78
f 121 122 124
f 124 122 123
f 125 126 128
f 128 126 127
f 129 130 132
f 132 130 131
f 134 149 133
f 133 149 150
f 133 150 143
f 143 150 151
f 143 151 142
f 142 151 152
f 142 152 141
f 141 152 153
f 141 153 140
f 140 153 154
f 140 154 139
f 139 154 156
f 139 156 138
f 155 144 145
f 155 145 137
f 137 145 146
f 137 146 136
f 136 146 147
f 136 147 135
f 135 147 148
f 135 148 134
f 134 148 149
f 158 175 157
f 157 175 165
f 157 165 166
f 175 158 174
f 174 158 159
f 174 159 173
f 173 159 160
f 173 160 172
f 172 160 171
f 171 160 161
f 171 161 170
f 170 161 162
f 170 162 169
f 169 162 168
f 168 162 163
f 168 163 167
f 167 163 164
f 167 164 166
f 166 164 157
f 177 192 176
f 176 192 193
f 176 193 186
f 186 193 194
f 186 194 185
f 185 194 195
f 185 195 184
f 184 195 196
f 184 196 183
f 183 196 197
f 183 197 182
f 182 197 199
f 182 199 181
f 198 187 188
f 198 188 180
f 180 188 189
f 180 189 179
f 179 189 190
f 179 190 178
f 178 190 191
f 178 191 177
f 177 191 192
f 200 201 203
f 203 201 202
f 205 219 204
f 204 219 220
f 221 212 211
f 211 212 213
f 211 213 210
f 210 213 214
f 210 214 209
f 209 214 215
f 209 215 208
f 208 215 216
f 208 216 207
f 207 216 217
f 207 217 206
f 206 217 218
f 206 218 205
f 205 218 219
f 241 222 240
f 240 222 223
f 240 223 239
f 239 223 224
f 239 224 238
f 238 224 225
f 238 225 237
f 237 225 226
f 237 226 236
f 236 226 227
f 236 227 235
f 235 227 228
f 235 228 234
f 234 228 229
f 234 229 233
f 233 229 230
f 233 230 232
f 232 230 231
f 261 242 260
f 260 242 243
f 260 243 259
f 259 243 244
f 259 244 258
f 258 244 245
f 258 245 257
f 257 245 246
f 257 246 256
f 256 246 247
f 256 247 255
f 255 247 248
f 255 248 254
f 254 248 249
f 254 249 253
f 253 249 250
f 253 250 252
f 252 250 251
f 263 280 262
f 262 280 270
f 262 270 271
f 280 263 279
f 279 263 264
f 279 264 278
f 278 264 265
f 278 265 277
f 277 265 276
f 276 265 266
f 276 266 275
f 275 266 267
f 275 267 274
f 274 267 273
f 273 267 268
f 273 268 272
f 272 268 269
f 272 269 271
f 271 269 262
f 281 282 284
f 284 282 283
f 286 307 285
f 308 301 302
f 308 302 295
f 295 302 303
f 295 303 294
f 294 303 304
f 294 304 293
f 293 304 305
f 293 305 292
f 292 305 306
f 292 306 291
f 291 306 296
f 291 296 290
f 290 296 297
f 290 297 289
f 289 297 298
f 289 298 288
f 288 298 299
f 288 299 287
f 287 299 300
f 287 300 286
f 286 300 307
f 310 331 309
f 332 325 326
f 332 326 319
f 319 326 327
f 319 327 318
f 318 327 328
f 318 328 317
f 317 328 329
f 317 329 316
f 316 329 330
f 316 330 315
f 315 330 320
f 315 320 314
f 314 320 321
f 314 321 313
f 313 321 322
f 313 322 312
f 312 322 323
f 312 323 311
f 311 323 324
f 311 324 310
f 310 324 331
f 334 351 333
f 333 351 341
f 333 341 342
f 351 334 350
f 350 334 335
f 350 335 349
f 349 335 336
f 349 336 348
f 348 336 347
f 347 336 337
f 347 337 346
f 346 337 338
f 346 338 345
f 345 338 344
f 344 338 339
f 344 339 343
f 343 339 340
f 343 340 342
f 342 340 333
f 353 367 352
f 352 367 368
f 369 360 359
f 359 360 361
f 359 361 358
f 358 361 362
f 358 362 357
f 357 362 363
f 357 363 356
f 356 363 364
f 356 364 355
f 355 364 365
f 355 365 354
f 354 365 366
f 354 366 353
f 353 366 367
f 371 388 370
f 370 388 378
f 370 378 379
f 388 371 387
f 387 371 372
f 387 372 386
f 386 372 373
f 386 373 385
f 385 373 384
f 384 373 374
f 384 374 383
f 383 374 375
f 383 375 382
f 382 375 381
f 381 375 376
f 381 376 380
f 380 376 377
f 380 377 379
f 379 377 370
