v -0.175 0.008500000238 2.755596473e-09
v -0.1759549141 0.008500000238 0.002938921856
v -0.1784549141 0.008500000238 0.004755289956
v -0.1815450859 0.008500000238 0.004755289956
v -0.1840450859 0.008500000238 0.002938921856
v -0.185 0.008500000238 2.755596473e-09
v -0.1840450859 0.008500000238 -0.002938935344
v -0.1815450859 0.008500000238 -0.004755284444
v -0.1784549141 0.008500000238 -0.004755284444
v -0.1759549141 0.008500000238 -0.002938935344
v -0.175 0.01100000024 2.755596473e-09
v -0.1759549141 0.01100000024 -0.002938935344
v -0.1784549141 0.01100000024 -0.004755284444
v -0.1815450859 0.01100000024 -0.004755284444
v -0.1840450859 0.01100000024 -0.002938935344
v -0.185 0.01100000024 2.755596473e-09
v -0.1840450859 0.01100000024 0.002938921856
v -0.1815450859 0.01100000024 0.004755289956
v -0.1784549141 0.01100000024 0.004755289956
v -0.1759549141 0.01100000024 0.002938921856
v -0.175 0.008500000238 2.755596473e-09
v -0.175 0.01100000024 2.755596473e-09
v -0.18 0.008500000238 -0.002250001044
v -0.1782408714 0.008500000238 -0.001402852144
v -0.1778064156 0.008500000238 0.0005006627556
v -0.1790237617 0.008500000238 0.002027171056
v -0.1809762383 0.008500000238 0.002027171056
v -0.1821935844 0.008500000238 0.0005006627556
v -0.1817591286 0.008500000238 -0.001402852144
v -0.175 0.008500000238 2.755596473e-09
v -0.1759549141 0.008500000238 -0.002938935344
v -0.1784549141 0.008500000238 -0.004755284444
v -0.1815450859 0.008500000238 -0.004755284444
v -0.1840450859 0.008500000238 -0.002938935344
v -0.185 0.008500000238 2.755596473e-09
v -0.1840450859 0.008500000238 0.002938921856
v -0.1815450859 0.008500000238 0.004755289956
v -0.1784549141 0.008500000238 0.004755289956
v -0.1759549141 0.008500000238 0.002938921856
v -0.1900499916 0.01049999952 2.755596473e-09
v -0.1891811371 0.01049999952 0.004087698856
v -0.1867247581 0.01049999952 0.007468607856
v -0.1831056213 0.01049999952 0.009558127356
v -0.1789494896 0.01049999952 0.009994948256
v -0.1749749947 0.01049999952 0.008703558856
v -0.1718693733 0.01049999952 0.005907233156
v -0.1701696205 0.01049999952 0.002089503156
v -0.1701696205 0.01049999952 -0.002089516744
v -0.1718693733 0.01049999952 -0.005907246644
v -0.1749749947 0.01049999952 -0.008703553244
v -0.1789494896 0.01049999952 -0.009994942744
v -0.1831056213 0.01049999952 -0.009558121744
v -0.1867247581 0.01049999952 -0.007468602244
v -0.1891811371 0.01049999952 -0.004087712344
v -0.1895499992 0.01100000024 2.755596473e-09
v -0.1886042595 0.01100000024 -0.004143597644
v -0.1859543228 0.01100000024 -0.007466485144
v -0.1821250725 0.01100000024 -0.009310566944
v -0.1778749275 0.01100000024 -0.009310566944
v -0.1740456772 0.01100000024 -0.007466485144
v -0.1713957405 0.01100000024 -0.004143597644
v -0.1704500008 0.01100000024 2.755596473e-09
v -0.1713957405 0.01100000024 0.004143584156
v -0.1740456772 0.01100000024 0.007466490656
v -0.1778749275 0.01100000024 0.009310553456
v -0.1821250725 0.01100000024 0.009310553456
v -0.1859543228 0.01100000024 0.007466490656
v -0.1886042595 0.01100000024 0.004143584156
v -0.1821250725 0.01100000024 -0.009310566944
v -0.1831056213 0.01049999952 -0.009558121744
v -0.1900499916 0.008500000238 2.755596473e-09
v -0.1891811371 0.008500000238 0.004087698856
v -0.1867247581 0.008500000238 0.007468607856
v -0.1831056213 0.008500000238 0.009558127356
v -0.1789494896 0.008500000238 0.009994948256
v -0.1749749947 0.008500000238 0.008703558856
v -0.1718693733 0.008500000238 0.005907233156
v -0.1701696205 0.008500000238 0.002089503156
v -0.1701696205 0.008500000238 -0.002089516744
v -0.1718693733 0.008500000238 -0.005907246644
v -0.1749749947 0.008500000238 -0.008703553244
v -0.1789494896 0.008500000238 -0.009994942744
v -0.1831056213 0.008500000238 -0.009558121744
v -0.1867247581 0.008500000238 -0.007468602244
v -0.1891811371 0.008500000238 -0.004087712344
v -0.1900499916 0.01049999952 2.755596473e-09
v -0.1891811371 0.01049999952 -0.004087712344
v -0.1867247581 0.01049999952 -0.007468602244
v -0.1831056213 0.01049999952 -0.009558121744
v -0.1789494896 0.01049999952 -0.009994942744
v -0.1749749947 0.01049999952 -0.008703553244
v -0.1718693733 0.01049999952 -0.005907246644
v -0.1701696205 0.01049999952 -0.002089516744
v -0.1701696205 0.01049999952 0.002089503156
v -0.1718693733 0.01049999952 0.005907233156
v -0.1749749947 0.01049999952 0.008703558856
v -0.1789494896 0.01049999952 0.009994948256
v -0.1831056213 0.01049999952 0.009558127356
v -0.1867247581 0.01049999952 0.007468607856
v -0.1891811371 0.01049999952 0.004087698856
v -0.1900499916 0.008500000238 2.755596473e-09
v -0.1900499916 0.01049999952 2.755596473e-09
v -0.175 0.01100000024 2.755596473e-09
v -0.1759549141 0.01100000024 0.002938921856
v -0.1784549141 0.01100000024 0.004755289956
v -0.1815450859 0.01100000024 0.004755289956
v -0.1840450859 0.01100000024 0.002938921856
v -0.185 0.01100000024 2.755596473e-09
v -0.1840450859 0.01100000024 -0.002938935344
v -0.1815450859 0.01100000024 -0.004755284444
v -0.1784549141 0.01100000024 -0.004755284444
v -0.1759549141 0.01100000024 -0.002938935344
v -0.1895499992 0.01100000024 2.755596473e-09
v -0.1886042595 0.01100000024 0.004143584156
v -0.1859543228 0.01100000024 0.007466490656
v -0.1821250725 0.01100000024 0.009310553456
v -0.1778749275 0.01100000024 0.009310553456
v -0.1740456772 0.01100000024 0.007466490656
v -0.1713957405 0.01100000024 0.004143584156
v -0.1704500008 0.01100000024 2.755596473e-09
v -0.1713957405 0.01100000024 -0.004143597644
v -0.1740456772 0.01100000024 -0.007466485144
v -0.1778749275 0.01100000024 -0.009310566944
v -0.1821250725 0.01100000024 -0.009310566944
v -0.1859543228 0.01100000024 -0.007466485144
v -0.1886042595 0.01100000024 -0.004143597644
v -0.1844499969 -0.008299999833 2.755596473e-09
v -0.1836001205 -0.008299999833 0.002615645356
v -0.1813751221 -0.008299999833 0.004232199556
v -0.1786248779 -0.008299999833 0.004232199556
v -0.1763998795 -0.008299999833 0.002615645356
v -0.1755500031 -0.008299999833 2.755596473e-09
v -0.1763998795 -0.008299999833 -0.002615639744
v -0.1786248779 -0.008299999833 -0.004232194044
v -0.1813751221 -0.008299999833 -0.004232194044
v -0.1836001205 -0.008299999833 -0.002615639744
v -0.1849500084 -0.007799999714 2.755596473e-09
v -0.184004631 -0.007799999714 -0.002909543144
v -0.1815296364 -0.007799999714 -0.004707734144
v -0.1784703636 -0.007799999714 -0.004707734144
v -0.175995369 -0.007799999714 -0.002909543144
v -0.1750499916 -0.007799999714 2.755596473e-09
v -0.175995369 -0.007799999714 0.002909529556
v -0.1784703636 -0.007799999714 0.004707720656
v -0.1815296364 -0.007799999714 0.004707720656
v -0.184004631 -0.007799999714 0.002909529556
v -0.1815296364 -0.007799999714 -0.004707734144
v -0.1813751221 -0.008299999833 -0.004232194044
v -0.1849500084 -0.0005000000075 2.755596473e-09
v -0.184004631 -0.0005000000075 -0.002909543144
v -0.1815296364 -0.0005000000075 -0.004707734144
v -0.1784703636 -0.0005000000075 -0.004707734144
v -0.175995369 -0.0005000000075 -0.002909543144
v -0.1750499916 -0.0005000000075 2.755596473e-09
v -0.175995369 -0.0005000000075 0.002909529556
v -0.1784703636 -0.0005000000075 0.004707720656
v -0.1815296364 -0.0005000000075 0.004707720656
v -0.184004631 -0.0005000000075 0.002909529556
v -0.1849500084 -0.007799999714 2.755596473e-09
v -0.184004631 -0.007799999714 0.002909529556
v -0.1815296364 -0.007799999714 0.004707720656
v -0.1784703636 -0.007799999714 0.004707720656
v -0.175995369 -0.007799999714 0.002909529556
v -0.1750499916 -0.007799999714 2.755596473e-09
v -0.175995369 -0.007799999714 -0.002909543144
v -0.1784703636 -0.007799999714 -0.004707734144
v -0.1815296364 -0.007799999714 -0.004707734144
v -0.184004631 -0.007799999714 -0.002909543144
v -0.1849500084 -0.0005000000075 2.755596473e-09
v -0.1849500084 -0.007799999714 2.755596473e-09
v -0.18 -0.008299999833 -0.002250001044
v -0.1782408714 -0.008299999833 -0.001402852144
v -0.1778064156 -0.008299999833 0.0005006627556
v -0.1790237617 -0.008299999833 0.002027171056
v -0.1809762383 -0.008299999833 0.002027171056
v -0.1821935844 -0.008299999833 0.0005006627556
v -0.1817591286 -0.008299999833 -0.001402852144
v -0.18 0.008500000238 -0.002250001044
v -0.1817591286 0.008500000238 -0.001402852144
v -0.1821935844 0.008500000238 0.0005006627556
v -0.1809762383 0.008500000238 0.002027171056
v -0.1790237617 0.008500000238 0.002027171056
v -0.1778064156 0.008500000238 0.0005006627556
v -0.1782408714 0.008500000238 -0.001402852144
v -0.1809762383 -0.008299999833 0.002027171056
v -0.1809762383 0.008500000238 0.002027171056
v -0.18 -0.008299999833 -0.002250001044
v -0.1817591286 -0.008299999833 -0.001402852144
v -0.1821935844 -0.008299999833 0.0005006627556
v -0.1809762383 -0.008299999833 0.002027171056
v -0.1790237617 -0.008299999833 0.002027171056
v -0.1778064156 -0.008299999833 0.0005006627556
v -0.1782408714 -0.008299999833 -0.001402852144
v -0.1844499969 -0.008299999833 2.755596473e-09
v -0.1836001205 -0.008299999833 -0.002615639744
v -0.1813751221 -0.008299999833 -0.004232194044
v -0.1786248779 -0.008299999833 -0.004232194044
v -0.1763998795 -0.008299999833 -0.002615639744
v -0.1755500031 -0.008299999833 2.755596473e-09
v -0.1763998795 -0.008299999833 0.002615645356
v -0.1786248779 -0.008299999833 0.004232199556
v -0.1813751221 -0.008299999833 0.004232199556
v -0.1836001205 -0.008299999833 0.002615645356
v -0.1867499924 0.008000000119 2.755596473e-09
v -0.1858456802 0.008000000119 0.003374998956
v -0.1833749962 0.008000000119 0.005845663956
v -0.18 0.008000000119 0.006749995156
v -0.1766250038 0.008000000119 0.005845663956
v -0.1741543198 0.008000000119 0.003374998956
v -0.1732500076 0.008000000119 2.755596473e-09
v -0.1741543198 0.008000000119 -0.003374993444
v -0.1766250038 0.008000000119 -0.005845677444
v -0.18 0.008000000119 -0.006750008644
v -0.1833749962 0.008000000119 -0.005845677444
v -0.1858456802 0.008000000119 -0.003374993444
v -0.1872500038 0.008500000238 2.755596473e-09
v -0.1862786865 0.008500000238 -0.003625008644
v -0.1836249924 0.008500000238 -0.006278683744
v -0.18 0.008500000238 -0.007250001044
v -0.1763750076 0.008500000238 -0.006278683744
v -0.1737213135 0.008500000238 -0.003625008644
v -0.1727499962 0.008500000238 2.755596473e-09
v -0.1737213135 0.008500000238 0.003624995156
v -0.1763750076 0.008500000238 0.006278689256
v -0.18 0.008500000238 0.007250006556
v -0.1836249924 0.008500000238 0.006278689256
v -0.1862786865 0.008500000238 0.003624995156
v -0.18 0.008000000119 -0.006750008644
v -0.18 0.008500000238 -0.007250001044
v -0.1900499916 0.008500000238 2.755596473e-09
v -0.1891811371 0.008500000238 -0.004087712344
v -0.1867247581 0.008500000238 -0.007468602244
v -0.1831056213 0.008500000238 -0.009558121744
v -0.1789494896 0.008500000238 -0.009994942744
v -0.1749749947 0.008500000238 -0.008703553244
v -0.1718693733 0.008500000238 -0.005907246644
v -0.1701696205 0.008500000238 -0.002089516744
v -0.1701696205 0.008500000238 0.002089503156
v -0.1718693733 0.008500000238 0.005907233156
v -0.1749749947 0.008500000238 0.008703558856
v -0.1789494896 0.008500000238 0.009994948256
v -0.1831056213 0.008500000238 0.009558127356
v -0.1867247581 0.008500000238 0.007468607856
v -0.1891811371 0.008500000238 0.004087698856
v -0.1872500038 0.008500000238 2.755596473e-09
v -0.1862786865 0.008500000238 0.003624995156
v -0.1836249924 0.008500000238 0.006278689256
v -0.18 0.008500000238 0.007250006556
v -0.1763750076 0.008500000238 0.006278689256
v -0.1737213135 0.008500000238 0.003624995156
v -0.1727499962 0.008500000238 2.755596473e-09
v -0.1737213135 0.008500000238 -0.003625008644
v -0.1763750076 0.008500000238 -0.006278683744
v -0.18 0.008500000238 -0.007250001044
v -0.1836249924 0.008500000238 -0.006278683744
v -0.1862786865 0.008500000238 -0.003625008644
v -0.1867499924 -3.271540677e-17 2.755596473e-09
v -0.1858456802 -3.260466048e-17 0.003374998956
v -0.1833749962 -3.230208894e-17 0.005845663956
v -0.18 -3.188877112e-17 0.006749995156
v -0.1766250038 -3.147545329e-17 0.005845663956
v -0.1741543198 -3.117288176e-17 0.003374998956
v -0.1732500076 -3.106213546e-17 2.755596473e-09
v -0.1741543198 -3.117288176e-17 -0.003374993444
v -0.1766250038 -3.147545329e-17 -0.005845677444
v -0.18 -3.188877112e-17 -0.006750008644
v -0.1833749962 -3.230208894e-17 -0.005845677444
v -0.1858456802 -3.260466048e-17 -0.003374993444
v -0.1867499924 0.008000000119 2.755596473e-09
v -0.1858456802 0.008000000119 -0.003374993444
v -0.1833749962 0.008000000119 -0.005845677444
v -0.18 0.008000000119 -0.006750008644
v -0.1766250038 0.008000000119 -0.005845677444
v -0.1741543198 0.008000000119 -0.003374993444
v -0.1732500076 0.008000000119 2.755596473e-09
v -0.1741543198 0.008000000119 0.003374998956
v -0.1766250038 0.008000000119 0.005845663956
v -0.18 0.008000000119 0.006749995156
v -0.1833749962 0.008000000119 0.005845663956
v -0.1858456802 0.008000000119 0.003374998956
v -0.1867499924 0.008000000119 2.755596473e-09
v -0.1867499924 -3.271540677e-17 2.755596473e-09
v -0.1849500084 -0.0005000000075 2.755596473e-09
v -0.184004631 -0.0005000000075 0.002909529556
v -0.1815296364 -0.0005000000075 0.004707720656
v -0.1784703636 -0.0005000000075 0.004707720656
v -0.175995369 -0.0005000000075 0.002909529556
v -0.1750499916 -0.0005000000075 2.755596473e-09
v -0.175995369 -0.0005000000075 -0.002909543144
v -0.1784703636 -0.0005000000075 -0.004707734144
v -0.1815296364 -0.0005000000075 -0.004707734144
v -0.184004631 -0.0005000000075 -0.002909543144
v -0.1854500008 -3.255620372e-17 2.755596473e-09
v -0.1845848274 -3.245025054e-17 -0.002946488444
v -0.1822640038 -3.216603161e-17 -0.004957501544
v -0.1792243767 -3.179378466e-17 -0.005394532244
v -0.1764310074 -3.145169558e-17 -0.004118840344
v -0.1747707558 -3.12483734e-17 -0.001535451044
v -0.1747707558 -3.12483734e-17 0.001535437456
v -0.1764310074 -3.145169558e-17 0.004118826756
v -0.1792243767 -3.179378466e-17 0.005394518756
v -0.1822640038 -3.216603161e-17 0.004957487956
v -0.1845848274 -3.245025054e-17 0.002946494056
v -0.1822640038 -3.216603161e-17 -0.004957501544
v -0.1815296364 -0.0005000000075 -0.004707734144
v -0.1867499924 -3.271540677e-17 2.755596473e-09
v -0.1858456802 -3.260466048e-17 -0.003374993444
v -0.1833749962 -3.230208894e-17 -0.005845677444
v -0.18 -3.188877112e-17 -0.006750008644
v -0.1766250038 -3.147545329e-17 -0.005845677444
v -0.1741543198 -3.117288176e-17 -0.003374993444
v -0.1732500076 -3.106213546e-17 2.755596473e-09
v -0.1741543198 -3.117288176e-17 0.003374998956
v -0.1766250038 -3.147545329e-17 0.005845663956
v -0.18 -3.188877112e-17 0.006749995156
v -0.1833749962 -3.230208894e-17 0.005845663956
v -0.1858456802 -3.260466048e-17 0.003374998956
v -0.1854500008 -3.255620372e-17 2.755596473e-09
v -0.1845848274 -3.245025054e-17 0.002946494056
v -0.1822640038 -3.216603161e-17 0.004957487956
v -0.1792243767 -3.179378466e-17 0.005394518756
v -0.1764310074 -3.145169558e-17 0.004118826756
v -0.1747707558 -3.12483734e-17 0.001535437456
v -0.1747707558 -3.12483734e-17 -0.001535451044
v -0.1764310074 -3.145169558e-17 -0.004118840344
v -0.1792243767 -3.179378466e-17 -0.005394532244
v -0.1822640038 -3.216603161e-17 -0.004957501544
v -0.1845848274 -3.245025054e-17 -0.002946488444
v -0.18 -0.008799999952 0.002449992056
v -0.178084507 -0.008799999952 0.001527541056
v -0.1776114273 -0.008799999952 -0.0005451746444
v -0.1789369774 -0.008799999952 -0.002207371844
v -0.1810630226 -0.008799999952 -0.002207371844
v -0.1823885727 -0.008799999952 -0.0005451746444
v -0.181915493 -0.008799999952 0.001527541056
v -0.18 -0.01720000029 0.002449992056
v -0.181915493 -0.01720000029 0.001527541056
v -0.1823885727 -0.01720000029 -0.0005451746444
v -0.1810630226 -0.01720000029 -0.002207371844
v -0.1789369774 -0.01720000029 -0.002207371844
v -0.1776114273 -0.01720000029 -0.0005451746444
v -0.178084507 -0.01720000029 0.001527541056
v -0.1810630226 -0.008799999952 -0.002207371844
v -0.1810630226 -0.01720000029 -0.002207371844
v -0.18 -0.01720000029 0.002449992056
v -0.178084507 -0.01720000029 0.001527541056
v -0.1776114273 -0.01720000029 -0.0005451746444
v -0.1789369774 -0.01720000029 -0.002207371844
v -0.1810630226 -0.01720000029 -0.002207371844
v -0.1823885727 -0.01720000029 -0.0005451746444
v -0.181915493 -0.01720000029 0.001527541056
v -0.1699500084 -0.03150000095 2.755596473e-09
v -0.1708188629 -0.03150000095 0.004087698856
v -0.1732752419 -0.03150000095 0.007468607856
v -0.1768943787 -0.03150000095 0.009558127356
v -0.1810505104 -0.03150000095 0.009994948256
v -0.1850250053 -0.03150000095 0.008703558856
v -0.1881306267 -0.03150000095 0.005907233156
v -0.1898303795 -0.03150000095 0.002089503156
v -0.1898303795 -0.03150000095 -0.002089516744
v -0.1881306267 -0.03150000095 -0.005907246644
v -0.1850250053 -0.03150000095 -0.008703553244
v -0.1810505104 -0.03150000095 -0.009994942744
v -0.1768943787 -0.03150000095 -0.009558121744
v -0.1732752419 -0.03150000095 -0.007468602244
v -0.1708188629 -0.03150000095 -0.004087712344
v -0.1702499962 -0.03180000067 2.755596473e-09
v -0.1712155533 -0.03180000067 -0.004230362944
v -0.1739209747 -0.03180000067 -0.007622849544
v -0.1778304291 -0.03180000067 -0.009505545744
v -0.1821695709 -0.03180000067 -0.009505545744
v -0.1860790253 -0.03180000067 -0.007622849544
v -0.1887844467 -0.03180000067 -0.004230362944
v -0.1897500038 -0.03180000067 2.755596473e-09
v -0.1887844467 -0.03180000067 0.004230368556
v -0.1860790253 -0.03180000067 0.007622855056
v -0.1821695709 -0.03180000067 0.009505541756
v -0.1778304291 -0.03180000067 0.009505541756
v -0.1739209747 -0.03180000067 0.007622855056
v -0.1712155533 -0.03180000067 0.004230368556
v -0.1821695709 -0.03180000067 0.009505541756
v -0.1810505104 -0.03150000095 0.009994948256
v -0.1699500084 -0.02980000019 2.755596473e-09
v -0.1708188629 -0.02980000019 0.004087698856
v -0.1732752419 -0.02980000019 0.007468607856
v -0.1768943787 -0.02980000019 0.009558127356
v -0.1810505104 -0.02980000019 0.009994948256
v -0.1850250053 -0.02980000019 0.008703558856
v -0.1881306267 -0.02980000019 0.005907233156
v -0.1898303795 -0.02980000019 0.002089503156
v -0.1898303795 -0.02980000019 -0.002089516744
v -0.1881306267 -0.02980000019 -0.005907246644
v -0.1850250053 -0.02980000019 -0.008703553244
v -0.1810505104 -0.02980000019 -0.009994942744
v -0.1768943787 -0.02980000019 -0.009558121744
v -0.1732752419 -0.02980000019 -0.007468602244
v -0.1708188629 -0.02980000019 -0.004087712344
v -0.1699500084 -0.03150000095 2.755596473e-09
v -0.1708188629 -0.03150000095 -0.004087712344
v -0.1732752419 -0.03150000095 -0.007468602244
v -0.1768943787 -0.03150000095 -0.009558121744
v -0.1810505104 -0.03150000095 -0.009994942744
v -0.1850250053 -0.03150000095 -0.008703553244
v -0.1881306267 -0.03150000095 -0.005907246644
v -0.1898303795 -0.03150000095 -0.002089516744
v -0.1898303795 -0.03150000095 0.002089503156
v -0.1881306267 -0.03150000095 0.005907233156
v -0.1850250053 -0.03150000095 0.008703558856
v -0.1810505104 -0.03150000095 0.009994948256
v -0.1768943787 -0.03150000095 0.009558127356
v -0.1732752419 -0.03150000095 0.007468607856
v -0.1708188629 -0.03150000095 0.004087698856
v -0.1699500084 -0.03150000095 2.755596473e-09
v -0.1699500084 -0.02980000019 2.755596473e-09
v -0.1702499962 -0.03180000067 2.755596473e-09
v -0.1712155533 -0.03180000067 0.004230368556
v -0.1739209747 -0.03180000067 0.007622855056
v -0.1778304291 -0.03180000067 0.009505541756
v -0.1821695709 -0.03180000067 0.009505541756
v -0.1860790253 -0.03180000067 0.007622855056
v -0.1887844467 -0.03180000067 0.004230368556
v -0.1897500038 -0.03180000067 2.755596473e-09
v -0.1887844467 -0.03180000067 -0.004230362944
v -0.1860790253 -0.03180000067 -0.007622849544
v -0.1821695709 -0.03180000067 -0.009505545744
v -0.1778304291 -0.03180000067 -0.009505545744
v -0.1739209747 -0.03180000067 -0.007622849544
v -0.1712155533 -0.03180000067 -0.004230362944
v -0.1760000038 -0.009300000072 2.755596473e-09
v -0.1769358253 -0.009300000072 -0.002571141344
v -0.1793054008 -0.009300000072 -0.003939225244
v -0.1820000076 -0.009300000072 -0.003464104744
v -0.1837587738 -0.009300000072 -0.001368081144
v -0.1837587738 -0.009300000072 0.001368086756
v -0.1820000076 -0.009300000072 0.003464110256
v -0.1793054008 -0.009300000072 0.003939230856
v -0.1769358253 -0.009300000072 0.002571146856
v -0.1764999962 -0.008799999952 2.755596473e-09
v -0.17731884 -0.008799999952 0.002249758656
v -0.1793922234 -0.008799999952 0.003446829756
v -0.1817499924 -0.008799999952 0.003031084956
v -0.1832889175 -0.008799999952 0.001197073856
v -0.1832889175 -0.008799999952 -0.001197068344
v -0.1817499924 -0.008799999952 -0.003031079344
v -0.1793922234 -0.008799999952 -0.003446824144
v -0.17731884 -0.008799999952 -0.002249753044
v -0.1820000076 -0.009300000072 -0.003464104744
v -0.1817499924 -0.008799999952 -0.003031079344
v -0.18 -0.008799999952 0.002449992056
v -0.181915493 -0.008799999952 0.001527541056
v -0.1823885727 -0.008799999952 -0.0005451746444
v -0.1810630226 -0.008799999952 -0.002207371844
v -0.1789369774 -0.008799999952 -0.002207371844
v -0.1776114273 -0.008799999952 -0.0005451746444
v -0.178084507 -0.008799999952 0.001527541056
v -0.1764999962 -0.008799999952 2.755596473e-09
v -0.17731884 -0.008799999952 -0.002249753044
v -0.1793922234 -0.008799999952 -0.003446824144
v -0.1817499924 -0.008799999952 -0.003031079344
v -0.1832889175 -0.008799999952 -0.001197068344
v -0.1832889175 -0.008799999952 0.001197073856
v -0.1817499924 -0.008799999952 0.003031084956
v -0.1793922234 -0.008799999952 0.003446829756
v -0.17731884 -0.008799999952 0.002249758656
v -0.1760000038 -0.01779999971 2.755596473e-09
v -0.1769358253 -0.01779999971 -0.002571141344
v -0.1793054008 -0.01779999971 -0.003939225244
v -0.1820000076 -0.01779999971 -0.003464104744
v -0.1837587738 -0.01779999971 -0.001368081144
v -0.1837587738 -0.01779999971 0.001368086756
v -0.1820000076 -0.01779999971 0.003464110256
v -0.1793054008 -0.01779999971 0.003939230856
v -0.1769358253 -0.01779999971 0.002571146856
v -0.1760000038 -0.009300000072 2.755596473e-09
v -0.1769358253 -0.009300000072 0.002571146856
v -0.1793054008 -0.009300000072 0.003939230856
v -0.1820000076 -0.009300000072 0.003464110256
v -0.1837587738 -0.009300000072 0.001368086756
v -0.1837587738 -0.009300000072 -0.001368081144
v -0.1820000076 -0.009300000072 -0.003464104744
v -0.1793054008 -0.009300000072 -0.003939225244
v -0.1769358253 -0.009300000072 -0.002571141344
v -0.1760000038 -0.01779999971 2.755596473e-09
v -0.1760000038 -0.009300000072 2.755596473e-09
v -0.1699500084 -0.02980000019 2.755596473e-09
v -0.1708188629 -0.02980000019 -0.004087712344
v -0.1732752419 -0.02980000019 -0.007468602244
v -0.1768943787 -0.02980000019 -0.009558121744
v -0.1810505104 -0.02980000019 -0.009994942744
v -0.1850250053 -0.02980000019 -0.008703553244
v -0.1881306267 -0.02980000019 -0.005907246644
v -0.1898303795 -0.02980000019 -0.002089516744
v -0.1898303795 -0.02980000019 0.002089503156
v -0.1881306267 -0.02980000019 0.005907233156
v -0.1850250053 -0.02980000019 0.008703558856
v -0.1810505104 -0.02980000019 0.009994948256
v -0.1768943787 -0.02980000019 0.009558127356
v -0.1732752419 -0.02980000019 0.007468607856
v -0.1708188629 -0.02980000019 0.004087698856
v -0.1704500008 -0.02930000067 2.755596473e-09
v -0.1713957405 -0.02930000067 0.004143584156
v -0.1740456772 -0.02930000067 0.007466490656
v -0.1778749275 -0.02930000067 0.009310553456
v -0.1821250725 -0.02930000067 0.009310553456
v -0.1859543228 -0.02930000067 0.007466490656
v -0.1886042595 -0.02930000067 0.004143584156
v -0.1895499992 -0.02930000067 2.755596473e-09
v -0.1886042595 -0.02930000067 -0.004143597644
v -0.1859543228 -0.02930000067 -0.007466485144
v -0.1821250725 -0.02930000067 -0.009310566944
v -0.1778749275 -0.02930000067 -0.009310566944
v -0.1740456772 -0.02930000067 -0.007466485144
v -0.1713957405 -0.02930000067 -0.004143597644
v -0.1821250725 -0.02930000067 -0.009310566944
v -0.1810505104 -0.02980000019 -0.009994942744
v -0.1714500046 -0.02930000067 2.755596473e-09
v -0.1724293518 -0.02930000067 0.003973391456
v -0.1751430511 -0.02930000067 0.007036517056
v -0.1789694023 -0.02930000067 0.008487666056
v -0.1830318642 -0.02930000067 0.007994387556
v -0.186399765 -0.02930000067 0.005669691956
v -0.1883015442 -0.02930000067 0.002046149156
v -0.1883015442 -0.02930000067 -0.002046143644
v -0.186399765 -0.02930000067 -0.005669705444
v -0.1830318642 -0.02930000067 -0.007994381944
v -0.1789694023 -0.02930000067 -0.008487660444
v -0.1751430511 -0.02930000067 -0.007036511544
v -0.1724293518 -0.02930000067 -0.003973385944
v -0.1704500008 -0.02930000067 2.755596473e-09
v -0.1713957405 -0.02930000067 -0.004143597644
v -0.1740456772 -0.02930000067 -0.007466485144
v -0.1778749275 -0.02930000067 -0.009310566944
v -0.1821250725 -0.02930000067 -0.009310566944
v -0.1859543228 -0.02930000067 -0.007466485144
v -0.1886042595 -0.02930000067 -0.004143597644
v -0.1895499992 -0.02930000067 2.755596473e-09
v -0.1886042595 -0.02930000067 0.004143584156
v -0.1859543228 -0.02930000067 0.007466490656
v -0.1821250725 -0.02930000067 0.009310553456
v -0.1778749275 -0.02930000067 0.009310553456
v -0.1740456772 -0.02930000067 0.007466490656
v -0.1713957405 -0.02930000067 0.004143584156
v -0.1760000038 -0.01779999971 2.755596473e-09
v -0.1769358253 -0.01779999971 0.002571146856
v -0.1793054008 -0.01779999971 0.003939230856
v -0.1820000076 -0.01779999971 0.003464110256
v -0.1837587738 -0.01779999971 0.001368086756
v -0.1837587738 -0.01779999971 -0.001368081144
v -0.1820000076 -0.01779999971 -0.003464104744
v -0.1793054008 -0.01779999971 -0.003939225244
v -0.1769358253 -0.01779999971 -0.002571141344
v -0.1754999924 -0.01830000043 2.755596473e-09
v -0.1763594246 -0.01830000043 -0.002645032044
v -0.1786094284 -0.01830000043 -0.004279763344
v -0.1813905716 -0.01830000043 -0.004279763344
v -0.1836405754 -0.01830000043 -0.002645032044
v -0.1845000076 -0.01830000043 2.755596473e-09
v -0.1836405754 -0.01830000043 0.002645037556
v -0.1813905716 -0.01830000043 0.004279749756
v -0.1786094284 -0.01830000043 0.004279749756
v -0.1763594246 -0.01830000043 0.002645037556
v -0.1813905716 -0.01830000043 0.004279749756
v -0.1820000076 -0.01779999971 0.003464110256
v -0.1750499916 -0.01830000043 2.755596473e-09
v -0.175995369 -0.01830000043 -0.002909543144
v -0.1784703636 -0.01830000043 -0.004707734144
v -0.1815296364 -0.01830000043 -0.004707734144
v -0.184004631 -0.01830000043 -0.002909543144
v -0.1849500084 -0.01830000043 2.755596473e-09
v -0.184004631 -0.01830000043 0.002909529556
v -0.1815296364 -0.01830000043 0.004707720656
v -0.1784703636 -0.01830000043 0.004707720656
v -0.175995369 -0.01830000043 0.002909529556
v -0.1754999924 -0.01830000043 2.755596473e-09
v -0.1763594246 -0.01830000043 0.002645037556
v -0.1786094284 -0.01830000043 0.004279749756
v -0.1813905716 -0.01830000043 0.004279749756
v -0.1836405754 -0.01830000043 0.002645037556
v -0.1845000076 -0.01830000043 2.755596473e-09
v -0.1836405754 -0.01830000043 -0.002645032044
v -0.1813905716 -0.01830000043 -0.004279763344
v -0.1786094284 -0.01830000043 -0.004279763344
v -0.1763594246 -0.01830000043 -0.002645032044
v -0.1750499916 -0.02630000114 2.755596473e-09
v -0.175995369 -0.02630000114 0.002909529556
v -0.1784703636 -0.02630000114 0.004707720656
v -0.1815296364 -0.02630000114 0.004707720656
v -0.184004631 -0.02630000114 0.002909529556
v -0.1849500084 -0.02630000114 2.755596473e-09
v -0.184004631 -0.02630000114 -0.002909543144
v -0.1815296364 -0.02630000114 -0.004707734144
v -0.1784703636 -0.02630000114 -0.004707734144
v -0.175995369 -0.02630000114 -0.002909543144
v -0.1745499992 -0.02680000067 2.755596473e-09
v -0.1754151726 -0.02680000067 -0.002946488444
v -0.1777359962 -0.02680000067 -0.004957501544
v -0.1807756233 -0.02680000067 -0.005394532244
v -0.1835689926 -0.02680000067 -0.004118840344
v -0.1852292442 -0.02680000067 -0.001535451044
v -0.1852292442 -0.02680000067 0.001535437456
v -0.1835689926 -0.02680000067 0.004118826756
v -0.1807756233 -0.02680000067 0.005394518756
v -0.1777359962 -0.02680000067 0.004957487956
v -0.1754151726 -0.02680000067 0.002946494056
v -0.1807756233 -0.02680000067 0.005394518756
v -0.1815296364 -0.02630000114 0.004707720656
v -0.1724500084 -0.02680000067 2.755596473e-09
v -0.1733148003 -0.02680000067 -0.003508660444
v -0.1757111168 -0.02680000067 -0.006213528744
v -0.1790899467 -0.02680000067 -0.007494942744
v -0.182677269 -0.02680000067 -0.007059380644
v -0.1856512642 -0.02680000067 -0.005006577544
v -0.1873306084 -0.02680000067 -0.001806828544
v -0.1873306084 -0.02680000067 0.001806834156
v -0.1856512642 -0.02680000067 0.005006583156
v -0.182677269 -0.02680000067 0.007059367056
v -0.1790899467 -0.02680000067 0.007494948256
v -0.1757111168 -0.02680000067 0.006213534256
v -0.1733148003 -0.02680000067 0.003508665956
v -0.1745499992 -0.02680000067 2.755596473e-09
v -0.1754151726 -0.02680000067 0.002946494056
v -0.1777359962 -0.02680000067 0.004957487956
v -0.1807756233 -0.02680000067 0.005394518756
v -0.1835689926 -0.02680000067 0.004118826756
v -0.1852292442 -0.02680000067 0.001535437456
v -0.1852292442 -0.02680000067 -0.001535451044
v -0.1835689926 -0.02680000067 -0.004118840344
v -0.1807756233 -0.02680000067 -0.005394532244
v -0.1777359962 -0.02680000067 -0.004957501544
v -0.1754151726 -0.02680000067 -0.002946488444
v -0.1750499916 -0.01830000043 2.755596473e-09
v -0.175995369 -0.01830000043 0.002909529556
v -0.1784703636 -0.01830000043 0.004707720656
v -0.1815296364 -0.01830000043 0.004707720656
v -0.184004631 -0.01830000043 0.002909529556
v -0.1849500084 -0.01830000043 2.755596473e-09
v -0.184004631 -0.01830000043 -0.002909543144
v -0.1815296364 -0.01830000043 -0.004707734144
v -0.1784703636 -0.01830000043 -0.004707734144
v -0.175995369 -0.01830000043 -0.002909543144
v -0.1750499916 -0.02630000114 2.755596473e-09
v -0.175995369 -0.02630000114 -0.002909543144
v -0.1784703636 -0.02630000114 -0.004707734144
v -0.1815296364 -0.02630000114 -0.004707734144
v -0.184004631 -0.02630000114 -0.002909543144
v -0.1849500084 -0.02630000114 2.755596473e-09
v -0.184004631 -0.02630000114 0.002909529556
v -0.1815296364 -0.02630000114 0.004707720656
v -0.1784703636 -0.02630000114 0.004707720656
v -0.175995369 -0.02630000114 0.002909529556
v -0.1750499916 -0.02630000114 2.755596473e-09
v -0.1750499916 -0.01830000043 2.755596473e-09
v -0.1719499969 -0.02880000114 2.755596473e-09
v -0.1728720856 -0.02880000114 0.003741019156
v -0.1754270744 -0.02880000114 0.006625025656
v -0.1790296745 -0.02880000114 0.007991297656
v -0.1828545761 -0.02880000114 0.007526877356
v -0.1860255051 -0.02880000114 0.005338137556
v -0.1878160858 -0.02880000114 0.001926482156
v -0.1878160858 -0.02880000114 -0.001926495644
v -0.1860255051 -0.02880000114 -0.005338131944
v -0.1828545761 -0.02880000114 -0.007526871744
v -0.1790296745 -0.02880000114 -0.007991311144
v -0.1754270744 -0.02880000114 -0.006625020144
v -0.1728720856 -0.02880000114 -0.003741013644
v -0.1714500046 -0.02930000067 2.755596473e-09
v -0.1724293518 -0.02930000067 -0.003973385944
v -0.1751430511 -0.02930000067 -0.007036511544
v -0.1789694023 -0.02930000067 -0.008487660444
v -0.1830318642 -0.02930000067 -0.007994381944
v -0.186399765 -0.02930000067 -0.005669705444
v -0.1883015442 -0.02930000067 -0.002046143644
v -0.1883015442 -0.02930000067 0.002046149156
v -0.186399765 -0.02930000067 0.005669691956
v -0.1830318642 -0.02930000067 0.007994387556
v -0.1789694023 -0.02930000067 0.008487666056
v -0.1751430511 -0.02930000067 0.007036517056
v -0.1724293518 -0.02930000067 0.003973391456
v -0.1828545761 -0.02880000114 0.007526877356
v -0.1830318642 -0.02930000067 0.007994387556
v -0.1724500084 -0.02680000067 2.755596473e-09
v -0.1733148003 -0.02680000067 0.003508665956
v -0.1757111168 -0.02680000067 0.006213534256
v -0.1790899467 -0.02680000067 0.007494948256
v -0.182677269 -0.02680000067 0.007059367056
v -0.1856512642 -0.02680000067 0.005006583156
v -0.1873306084 -0.02680000067 0.001806834156
v -0.1873306084 -0.02680000067 -0.001806828544
v -0.1856512642 -0.02680000067 -0.005006577544
v -0.182677269 -0.02680000067 -0.007059380644
v -0.1790899467 -0.02680000067 -0.007494942744
v -0.1757111168 -0.02680000067 -0.006213528744
v -0.1733148003 -0.02680000067 -0.003508660444
v -0.1719499969 -0.02730000019 2.755596473e-09
v -0.1728720856 -0.02730000019 -0.003741013644
v -0.1754270744 -0.02730000019 -0.006625020144
v -0.1790296745 -0.02730000019 -0.007991311144
v -0.1828545761 -0.02730000019 -0.007526871744
v -0.1860255051 -0.02730000019 -0.005338131944
v -0.1878160858 -0.02730000019 -0.001926495644
v -0.1878160858 -0.02730000019 0.001926482156
v -0.1860255051 -0.02730000019 0.005338137556
v -0.1828545761 -0.02730000019 0.007526877356
v -0.1790296745 -0.02730000019 0.007991297656
v -0.1754270744 -0.02730000019 0.006625025656
v -0.1728720856 -0.02730000019 0.003741019156
v -0.182677269 -0.02680000067 0.007059367056
v -0.1828545761 -0.02730000019 0.007526877356
v -0.1719499969 -0.02880000114 2.755596473e-09
v -0.1728720856 -0.02880000114 -0.003741013644
v -0.1754270744 -0.02880000114 -0.006625020144
v -0.1790296745 -0.02880000114 -0.007991311144
v -0.1828545761 -0.02880000114 -0.007526871744
v -0.1860255051 -0.02880000114 -0.005338131944
v -0.1878160858 -0.02880000114 -0.001926495644
v -0.1878160858 -0.02880000114 0.001926482156
v -0.1860255051 -0.02880000114 0.005338137556
v -0.1828545761 -0.02880000114 0.007526877356
v -0.1790296745 -0.02880000114 0.007991297656
v -0.1754270744 -0.02880000114 0.006625025656
v -0.1728720856 -0.02880000114 0.003741019156
v -0.1719499969 -0.02730000019 2.755596473e-09
v -0.1728720856 -0.02730000019 0.003741019156
v -0.1754270744 -0.02730000019 0.006625025656
v -0.1790296745 -0.02730000019 0.007991297656
v -0.1828545761 -0.02730000019 0.007526877356
v -0.1860255051 -0.02730000019 0.005338137556
v -0.1878160858 -0.02730000019 0.001926482156
v -0.1878160858 -0.02730000019 -0.001926495644
v -0.1860255051 -0.02730000019 -0.005338131944
v -0.1828545761 -0.02730000019 -0.007526871744
v -0.1790296745 -0.02730000019 -0.007991311144
v -0.1754270744 -0.02730000019 -0.006625020144
v -0.1728720856 -0.02730000019 -0.003741013644
v -0.1719499969 -0.02880000114 2.755596473e-09
v -0.1719499969 -0.02730000019 2.755596473e-09
f 2 20 1
f 1 20 22
f 21 11 10
f 10 11 12
f 10 12 9
f 9 12 13
f 9 13 8
f 8 13 14
f 8 14 7
f 7 14 15
f 7 15 6
f 6 15 16
f 6 16 5
f 5 16 17
f 5 17 4
f 4 17 18
f 4 18 3
f 3 18 19
f 3 19 2
f 2 19 20
f 24 32 23
f 23 32 33
f 23 33 29
f 29 33 34
f 29 34 35
f 25 30 24
f 24 30 31
f 24 31 32
f 30 25 39
f 39 25 26
f 39 26 38
f 38 26 37
f 37 26 27
f 37 27 36
f 36 27 28
f 36 28 35
f 35 28 29
f 54 40 55
f 55 40 41
f 55 41 68
f 68 41 42
f 68 42 67
f 67 42 43
f 67 43 66
f 66 43 44
f 66 44 65
f 65 44 45
f 65 45 64
f 64 45 46
f 64 46 63
f 63 46 47
f 63 47 62
f 62 47 48
f 62 48 61
f 61 48 49
f 61 49 60
f 60 49 50
f 60 50 59
f 59 50 51
f 59 51 58
f 58 51 70
f 69 52 57
f 57 52 53
f 57 53 56
f 56 53 54
f 56 54 55
f 72 100 71
f 71 100 102
f 101 86 85
f 85 86 87
f 85 87 88
f 72 73 100
f 100 73 99
f 99 73 74
f 99 74 98
f 98 74 75
f 98 75 97
f 97 75 76
f 97 76 96
f 96 76 77
f 96 77 95
f 95 77 78
f 95 78 94
f 94 78 79
f 94 79 93
f 93 79 80
f 93 80 92
f 92 80 81
f 92 81 91
f 91 81 82
f 91 82 90
f 90 82 83
f 90 83 89
f 89 83 84
f 89 84 88
f 88 84 85
f 104 119 103
f 103 119 120
f 103 120 121
f 119 104 118
f 118 104 105
f 118 105 117
f 117 105 116
f 116 105 106
f 116 106 115
f 115 106 107
f 115 107 114
f 114 107 108
f 114 108 113
f 113 108 126
f 126 108 109
f 126 109 125
f 125 109 110
f 125 110 124
f 124 110 111
f 124 111 123
f 123 111 122
f 122 111 112
f 122 112 121
f 121 112 103
f 128 137 127
f 127 137 138
f 127 138 136
f 136 138 147
f 136 147 135
f 148 139 140
f 148 140 134
f 134 140 141
f 134 141 133
f 133 141 142
f 133 142 132
f 132 142 143
f 132 143 131
f 131 143 144
f 131 144 130
f 130 144 145
f 130 145 129
f 129 145 146
f 129 146 128
f 128 146 137
f 150 168 149
f 149 168 170
f 169 159 158
f 158 159 160
f 158 160 157
f 157 160 161
f 157 161 156
f 156 161 162
f 156 162 155
f 155 162 163
f 155 163 154
f 154 163 164
f 154 164 153
f 153 164 165
f 153 165 152
f 152 165 166
f 152 166 151
f 151 166 167
f 151 167 150
f 150 167 168
f 172 178 171
f 171 178 179
f 171 179 177
f 177 179 180
f 177 180 176
f 176 180 186
f 176 186 175
f 185 181 182
f 185 182 174
f 174 182 183
f 174 183 173
f 173 183 184
f 173 184 172
f 172 184 178
f 188 196 187
f 187 196 197
f 187 197 193
f 193 197 198
f 193 198 199
f 189 194 188
f 188 194 195
f 188 195 196
f 194 189 203
f 203 189 190
f 203 190 202
f 202 190 191
f 202 191 201
f 201 191 200
f 200 191 192
f 200 192 199
f 199 192 193
f 205 216 204
f 204 216 217
f 204 217 215
f 215 217 218
f 215 218 214
f 214 218 229
f 214 229 213
f 228 219 220
f 228 220 212
f 212 220 221
f 212 221 211
f 211 221 222
f 211 222 210
f 210 222 223
f 210 223 209
f 209 223 224
f 209 224 208
f 208 224 225
f 208 225 207
f 207 225 226
f 207 226 206
f 206 226 227
f 206 227 205
f 205 227 216
f 244 230 245
f 245 230 231
f 245 231 256
f 256 231 232
f 256 232 255
f 255 232 233
f 255 233 254
f 254 233 234
f 254 234 253
f 253 234 235
f 253 235 236
f 253 236 252
f 252 236 237
f 252 237 251
f 251 237 238
f 251 238 250
f 250 238 239
f 250 239 249
f 249 239 240
f 249 240 241
f 249 241 248
f 248 241 242
f 248 242 247
f 247 242 243
f 247 243 246
f 246 243 244
f 246 244 245
f 258 280 257
f 257 280 281
f 282 269 268
f 268 269 270
f 268 270 267
f 267 270 271
f 267 271 266
f 266 271 272
f 266 272 265
f 265 272 273
f 265 273 264
f 264 273 274
f 264 274 263
f 263 274 275
f 263 275 262
f 262 275 276
f 262 276 261
f 261 276 277
f 261 277 260
f 260 277 278
f 260 278 259
f 259 278 279
f 259 279 258
f 258 279 280
f 284 303 283
f 283 303 293
f 283 293 294
f 303 284 302
f 302 284 285
f 302 285 301
f 301 285 286
f 301 286 300
f 300 286 287
f 300 287 299
f 299 287 288
f 299 288 298
f 298 288 289
f 298 289 297
f 297 289 290
f 297 290 296
f 296 290 305
f 296 305 295
f 304 291 292
f 304 292 294
f 294 292 283
f 317 306 318
f 318 306 307
f 318 307 328
f 328 307 308
f 328 308 327
f 327 308 309
f 327 309 326
f 326 309 310
f 326 310 325
f 325 310 311
f 325 311 324
f 324 311 312
f 324 312 323
f 323 312 313
f 323 313 322
f 322 313 314
f 322 314 321
f 321 314 315
f 321 315 320
f 320 315 316
f 320 316 319
f 319 316 317
f 319 317 318
f 330 336 329
f 329 336 337
f 329 337 335
f 335 337 338
f 335 338 334
f 334 338 344
f 334 344 333
f 343 339 340
f 343 340 332
f 332 340 341
f 332 341 331
f 331 341 342
f 331 342 330
f 330 342 336
f 345 346 351
f 351 346 350
f 350 346 347
f 350 347 349
f 349 347 348
f 366 352 367
f 367 352 353
f 367 353 380
f 380 353 354
f 380 354 379
f 379 354 355
f 379 355 378
f 378 355 382
f 378 382 377
f 381 356 357
f 381 357 376
f 376 357 358
f 376 358 375
f 375 358 359
f 375 359 374
f 374 359 360
f 374 360 373
f 373 360 361
f 373 361 372
f 372 361 362
f 372 362 371
f 371 362 363
f 371 363 370
f 370 363 364
f 370 364 369
f 369 364 365
f 369 365 368
f 368 365 366
f 368 366 367
f 384 412 383
f 383 412 413
f 414 398 397
f 397 398 399
f 397 399 400
f 384 385 412
f 412 385 411
f 411 385 386
f 411 386 410
f 410 386 387
f 410 387 409
f 409 387 388
f 409 388 408
f 408 388 389
f 408 389 407
f 407 389 390
f 407 390 406
f 406 390 391
f 406 391 405
f 405 391 392
f 405 392 404
f 404 392 393
f 404 393 403
f 403 393 394
f 403 394 402
f 402 394 395
f 402 395 401
f 401 395 396
f 401 396 400
f 400 396 397
f 416 421 415
f 415 421 422
f 415 422 428
f 428 422 423
f 428 423 427
f 427 423 424
f 427 424 426
f 426 424 425
f 421 416 420
f 420 416 417
f 420 417 419
f 419 417 418
f 430 438 429
f 429 438 439
f 429 439 437
f 437 439 440
f 437 440 436
f 436 440 441
f 436 441 435
f 435 441 442
f 435 442 434
f 434 442 443
f 434 443 433
f 433 443 448
f 433 448 432
f 447 444 445
f 447 445 431
f 431 445 446
f 431 446 430
f 430 446 438
f 450 462 449
f 449 462 463
f 449 463 455
f 455 463 464
f 455 464 456
f 462 450 461
f 461 450 451
f 461 451 460
f 460 451 452
f 460 452 459
f 459 452 458
f 458 452 453
f 458 453 457
f 457 453 454
f 457 454 456
f 456 454 455
f 466 482 465
f 465 482 484
f 483 474 473
f 473 474 475
f 473 475 472
f 472 475 476
f 472 476 471
f 471 476 477
f 471 477 470
f 470 477 478
f 470 478 469
f 469 478 479
f 469 479 468
f 468 479 480
f 468 480 467
f 467 480 481
f 467 481 466
f 466 481 482
f 499 485 500
f 500 485 486
f 500 486 513
f 513 486 487
f 513 487 512
f 512 487 488
f 512 488 511
f 511 488 515
f 511 515 510
f 514 489 490
f 514 490 509
f 509 490 491
f 509 491 508
f 508 491 492
f 508 492 507
f 507 492 493
f 507 493 506
f 506 493 494
f 506 494 505
f 505 494 495
f 505 495 504
f 504 495 496
f 504 496 503
f 503 496 497
f 503 497 502
f 502 497 498
f 502 498 501
f 501 498 499
f 501 499 500
f 517 542 516
f 516 542 529
f 516 529 530
f 542 517 541
f 541 517 518
f 541 518 540
f 540 518 519
f 540 519 539
f 539 519 520
f 539 520 538
f 538 520 521
f 538 521 537
f 537 521 522
f 537 522 536
f 536 522 523
f 536 523 535
f 535 523 524
f 535 524 534
f 534 524 525
f 534 525 533
f 533 525 526
f 533 526 532
f 532 526 527
f 532 527 531
f 531 527 528
f 531 528 530
f 530 528 516
f 544 561 543
f 543 561 552
f 543 552 553
f 561 544 560
f 560 544 545
f 560 545 559
f 559 545 563
f 562 546 558
f 558 546 547
f 558 547 557
f 557 547 548
f 557 548 556
f 556 548 549
f 556 549 555
f 555 549 550
f 555 550 554
f 554 550 551
f 554 551 553
f 553 551 543
f 565 583 564
f 564 583 574
f 564 574 575
f 583 565 582
f 582 565 566
f 582 566 567
f 582 567 581
f 581 567 568
f 581 568 580
f 580 568 569
f 580 569 579
f 579 569 578
f 578 569 570
f 578 570 577
f 577 570 571
f 577 571 576
f 576 571 572
f 576 572 573
f 576 573 575
f 575 573 564
f 585 604 584
f 584 604 594
f 584 594 595
f 604 585 603
f 603 585 586
f 603 586 602
f 602 586 606
f 605 587 601
f 601 587 588
f 601 588 600
f 600 588 589
f 600 589 599
f 599 589 590
f 599 590 598
f 598 590 591
f 598 591 597
f 597 591 592
f 597 592 596
f 596 592 593
f 596 593 595
f 595 593 584
f 619 607 620
f 620 607 608
f 620 608 630
f 630 608 609
f 630 609 629
f 629 609 610
f 629 610 628
f 628 610 611
f 628 611 627
f 627 611 612
f 627 612 626
f 626 612 613
f 626 613 614
f 626 614 625
f 625 614 615
f 625 615 624
f 624 615 616
f 624 616 623
f 623 616 617
f 623 617 622
f 622 617 618
f 622 618 621
f 621 618 619
f 621 619 620
f 632 650 631
f 631 650 651
f 652 641 640
f 640 641 642
f 640 642 639
f 639 642 643
f 639 643 638
f 638 643 644
f 638 644 637
f 637 644 645
f 637 645 636
f 636 645 646
f 636 646 635
f 635 646 647
f 635 647 634
f 634 647 648
f 634 648 633
f 633 648 649
f 633 649 632
f 632 649 650
f 654 666 653
f 653 666 667
f 653 667 665
f 665 667 668
f 665 668 664
f 664 668 669
f 664 669 663
f 663 669 670
f 663 670 662
f 662 670 671
f 662 671 661
f 661 671 672
f 661 672 660
f 660 672 673
f 660 673 659
f 659 673 674
f 659 674 658
f 658 674 680
f 658 680 657
f 679 675 676
f 679 676 656
f 656 676 677
f 656 677 655
f 655 677 678
f 655 678 654
f 654 678 666
f 682 694 681
f 681 694 695
f 681 695 693
f 693 695 696
f 693 696 692
f 692 696 697
f 692 697 691
f 691 697 698
f 691 698 690
f 690 698 699
f 690 699 689
f 689 699 700
f 689 700 688
f 688 700 701
f 688 701 687
f 687 701 702
f 687 702 686
f 686 702 708
f 686 708 685
f 707 703 704
f 707 704 684
f 684 704 705
f 684 705 683
f 683 705 706
f 683 706 682
f 682 706 694
f 710 734 709
f 709 734 736
f 735 722 721
f 721 722 723
f 721 723 720
f 720 723 724
f 720 724 719
f 719 724 725
f 719 725 718
f 718 725 726
f 718 726 717
f 717 726 727
f 717 727 716
f 716 727 728
f 716 728 715
f 715 728 729
f 715 729 714
f 714 729 730
f 714 730 713
f 713 730 731
f 713 731 712
f 712 731 732
f 712 732 711
f 711 732 733
f 711 733 710
f 710 733 734
